<svg xmlns="http://www.w3.org/2000/svg" xmlns:xlink="http://www.w3.org/1999/xlink" width="32" height="32" viewBox="0 0 32 32"><defs><linearGradient id="$pac_svg-c" x1="50%" x2="50%" y1="0%" y2="100%"><stop offset="0%" stop-color="#FFF" stop-opacity=".5"/><stop offset="100%" stop-opacity=".5"/></linearGradient><filter id="$pac_svg-b" width="111.7%" height="111.7%" x="-5.8%" y="-4.2%" filterUnits="objectBoundingBox"><feOffset dy=".5" in="SourceAlpha" result="shadowOffsetOuter1"/><feGaussianBlur in="shadowOffsetOuter1" result="shadowBlurOuter1" stdDeviation=".5"/><feComposite in="shadowBlurOuter1" in2="SourceAlpha" operator="out" result="shadowBlurOuter1"/><feColorMatrix in="shadowBlurOuter1" values="0 0 0 0 0 0 0 0 0 0 0 0 0 0 0 0 0 0 0.199473505 0"/></filter><circle id="$pac_svg-a" cx="15" cy="15" r="15"/></defs><g fill="none"><g transform="translate(1)"><use xlink:href="#$pac_svg-a" fill="#000" filter="url(#$pac_svg-b)"/><use xlink:href="#$pac_svg-a" fill="#F5EB16"/><use xlink:href="#$pac_svg-a" fill="url(#$pac_svg-c)" style="mix-blend-mode:soft-light"/><circle cx="15" cy="15" r="14.5" stroke="#000" stroke-linejoin="square" stroke-opacity=".097"/></g><path fill="#FFF" d="M15.94 4C9.898 4.001 5 8.901 5 14.945c.001 6.043 4.901 10.941 10.945 10.94 6.043-.001 10.941-4.901 10.94-10.944A10.943 10.943 0 0 0 15.941 4zm-4.443 4.794a.113.113 0 0 1 .115-.11h4.558a6.4 6.4 0 0 1 2.775.576q.25.12.484.268l-2.967 1.698h-1.548a.113.113 0 0 0-.111.115v.854l-3.306 1.913zM10.27 18.4l-1.982-2.002 6.527-3.765v2.44a.113.113 0 0 0 .115.11h.931L10.276 18.4zm9.773-1.861q-1.434 1.2-3.94 1.2h-1.19a.113.113 0 0 0-.112.112v2.464l-1.659.955-1.55.896-.097.055v-4.085l5.135-2.955c.44-.013.86-.179 1.19-.47a1.6 1.6 0 0 0 .29-.396l3.281-1.899a5 5 0 0 1 .081.912q.006 2.012-1.429 3.211m-1.76-2.767a3 3 0 0 0 .034-.426 2.22 2.22 0 0 0-.515-1.534 1.67 1.67 0 0 0-.748-.478l4.559-2.632 2 2.002z"/></g></svg>