<svg xmlns="http://www.w3.org/2000/svg" xmlns:xlink="http://www.w3.org/1999/xlink" width="32" height="32" viewBox="0 0 32 32"><defs><linearGradient id="2give_svg-c" x1="50%" x2="50%" y1="0%" y2="100%"><stop offset="0%" stop-color="#FFF" stop-opacity=".5"/><stop offset="100%" stop-opacity=".5"/></linearGradient><filter id="2give_svg-b" width="111.7%" height="111.7%" x="-5.8%" y="-4.2%" filterUnits="objectBoundingBox"><feOffset dy=".5" in="SourceAlpha" result="shadowOffsetOuter1"/><feGaussianBlur in="shadowOffsetOuter1" result="shadowBlurOuter1" stdDeviation=".5"/><feComposite in="shadowBlurOuter1" in2="SourceAlpha" operator="out" result="shadowBlurOuter1"/><feColorMatrix in="shadowBlurOuter1" values="0 0 0 0 0 0 0 0 0 0 0 0 0 0 0 0 0 0 0.199473505 0"/></filter><circle id="2give_svg-a" cx="15" cy="15" r="15"/></defs><g fill="none" fill-rule="evenodd"><g fill-rule="nonzero" transform="translate(1)"><use xlink:href="#2give_svg-a" fill="#000" filter="url(#2give_svg-b)"/><use xlink:href="#2give_svg-a" fill="#F1CB60"/><use xlink:href="#2give_svg-a" fill="url(#2give_svg-c)" style="mix-blend-mode:soft-light"/><circle cx="15" cy="15" r="14.5" stroke="#000" stroke-linejoin="square" stroke-opacity=".097"/></g><g fill="#FFF"><path fill-rule="nonzero" d="M15.33 22.96v1.33H16V22.3h-1.33v.66zm-6.67-7.3H8v3.32h.66v-1.33h.67v-1.33h-.67zm8.01 3.98h.66v1.99h-.66zM16 21.63h.67v.67H16zm-6.67-.66h2v1.99h-2zM8 14.33h.67v.66H8zM12 13h.67v.67H12zm4-.67h.67v1.33H16zm-8.67-1.99h2v1.99h-2zm6 12.62H14v1.33h-.67zM14 12.33h-.66v1.33H14V13h.67v-1.33H14zm.67-1.32h.66v.66h-.66zm0 1.99h.66v.66h-.66zm-3.34 1.33h2v.66h-2z"/><path fill-rule="nonzero" d="M14 11.67v-.66h.66v-.67H14V9.02h-2v.66h1.33v.66h-.67V11H12v.66h-.66v-.65h-.68v-.66h.67V11H12v-.66h-.66V9.02H6v4.65h5.34V13H12v-1.33h.67v.66h.67v-.66zM10 13H6.67V9.68H10zm.66 0v-1.33h.67V13zm2.67-2v-.65H14V11zm5.34 7.31v-.66h-1.34v-1.33h-.66v.66h-.66v-.66h.66v-2h-1.33v.67h-.68v1.33H14v.66h.67v-.66h.66v1.99H14v-.66h-.67v-1.33h-.66v-.66h-1.34V15h-.67v-.66H9.33V15h-.67v.66h.67v.66H10v-.66h.67v.66H10v.66h.67v.66h.66v-.66H12v-.66h.66v.66H12v.66h-.66v1.33h1.33v.67h-1.34v-.66h-.67v.66H9.33v-.66h-.66v.66H8v4.65h4.67V20.3h.66v2h1.34v-.66h.67V20.3h-.67v-.66H14v.66h-.66v-1.33h2v.66h.67v-1.32h1.32v.67H18v-.67zM12 23.62H8.67V20.3H12zm.67-5.31H12v-.66h.67zM14 20.97h.67v.66H14zm4.67-11.95h.66v1.32h-.66zm-1.34 0h-.66v1.99H16v.66h.67v.66h.66v1.33H18v-1.33h.67v1.34h.66V13H20v-1.33h-1.33v-1.33h-1.34z"/><path d="M23.33 16.32H22v.66h-.67v.67h-.66v-1.99h.66v-.67h-.66v.66H20v.67h-.67v-1.33h-.66v1.33H18v.67l.67-.01h.66v1.33h2v.67h-2v.66h-.66v.66H18v.67h.67v.66H18v.67h.67v.66h.66v.66h-.66v.67H24V20.3h-.67v3.32H20V20.3h2v-2.65h.67v.66H24v-1.32h-.66v-.67H24v-1.99h-.67z"/><path fill-rule="nonzero" d="M18 18.98h.67v.66H18zm3.33-3.32H22v.66h-.67zm1.34 3.32H24v.67h-1.33zm0-8.63h2v1.99h-2zM20 13h.67v.67H20zm-2.67 1.33H18v.66h-.67zm4.67 0h.67v.66H22zm-1.33 6.64h2v1.99h-2zM20 14.33h.67v.66H20zm-4.67-3.99H16v.67h-.67z"/><path fill-rule="nonzero" d="M20 9.02v.66h1.33v.66h-.67V11H20v-.66h-.67v.67H20v.65h.67v.66h.67v1.33H26V9.02zM25.33 13H22V9.68h3.33zM10.41 7.85c.46.31.98.37 1.39.39.35.02.94.02 1.56.02 1.15 0 2.5.02 2.64.02.37.01 1.5.01 2.5.01.62 0 1.2-.01 1.56-.02.41-.02.93-.09 1.39-.39.58-.39.87-1.03.87-1.9 0-.7-.29-1.12-.53-1.36-.65-.63-1.65-.59-1.98-.58h-.04c-.2 0-.92.11-1.77.59-.75.42-1.4 1.02-1.93 1.77l-.06.15-.05-.08c-.56-.84-1.29-1.41-2.1-1.87-.84-.48-1.56-.58-1.76-.58h-.04c-.33-.01-1.33-.05-1.98.58-.44.42-.53.97-.53 1.36-.01.86.28 1.5.86 1.89m8.08-2.24c.71-.41 1.25-.47 1.29-.47h.07c.57-.02.97.07 1.18.27.13.13.2.31.2.57 0 .95-.45 1.16-1.22 1.2-.65.03-2.16.02-3.14.01.43-.68.98-1.21 1.62-1.58m-7.66-.23q.285-.27 1.02-.27h.24c.04 0 .58.06 1.29.47.64.37 1.19.9 1.63 1.58-.99.01-2.5.02-3.15-.01-.77-.04-1.22-.25-1.22-1.2 0-.26.06-.44.19-.57m6.5 17.58h-.66v1.33h.67v-1.33H18v-.66h-.67z"/></g></g></svg>