<svg xmlns="http://www.w3.org/2000/svg" xmlns:xlink="http://www.w3.org/1999/xlink" width="32" height="32" viewBox="0 0 32 32"><defs><linearGradient id="aave_svg-c" x1="50%" x2="50%" y1="0%" y2="100%"><stop offset="0%" stop-color="#FFF" stop-opacity=".5"/><stop offset="100%" stop-opacity=".5"/></linearGradient><filter id="aave_svg-b" width="111.7%" height="111.7%" x="-5.8%" y="-4.2%" filterUnits="objectBoundingBox"><feOffset dy=".5" in="SourceAlpha" result="shadowOffsetOuter1"/><feGaussianBlur in="shadowOffsetOuter1" result="shadowBlurOuter1" stdDeviation=".5"/><feComposite in="shadowBlurOuter1" in2="SourceAlpha" operator="out" result="shadowBlurOuter1"/><feColorMatrix in="shadowBlurOuter1" values="0 0 0 0 0 0 0 0 0 0 0 0 0 0 0 0 0 0 0.199473505 0"/></filter><circle id="aave_svg-a" cx="16" cy="15" r="15"/></defs><g fill="none" fill-rule="evenodd"><use xlink:href="#aave_svg-a" fill="#000" filter="url(#aave_svg-b)"/><use xlink:href="#aave_svg-a" fill="#2EBAC6"/><use xlink:href="#aave_svg-a" fill="url(#aave_svg-c)" style="mix-blend-mode:soft-light"/><circle cx="16" cy="15" r="14.5" stroke="#000" stroke-linejoin="square" stroke-opacity=".097"/><path fill="#FFF" fill-rule="nonzero" d="m22.934 20.574-5.35-13.532C17.28 6.342 16.834 6 16.243 6h-.473c-.592 0-1.039.343-1.341 1.042l-2.327 5.896h-1.761c-.528.002-.956.448-.96 1v.014c.004.553.432.999.96 1.001h.946l-2.221 5.621a1.2 1.2 0 0 0-.066.384c0 .315.092.562.263.754q.255.288.71.288a.93.93 0 0 0 .552-.192c.17-.123.289-.302.38-.507l2.446-6.348h1.696c.527-.002.955-.449.96-1.001v-.027c-.005-.553-.433-1-.96-1.001h-.907l1.866-4.867L21.093 21.3c.092.205.21.384.381.507.161.122.354.19.553.192q.453 0 .71-.288c.17-.192.262-.439.262-.754a.9.9 0 0 0-.065-.384z"/></g></svg>