<svg xmlns="http://www.w3.org/2000/svg" xmlns:xlink="http://www.w3.org/1999/xlink" width="32" height="32" viewBox="0 0 32 32"><defs><linearGradient id="actn_svg-c" x1="50%" x2="50%" y1="0%" y2="100%"><stop offset="0%" stop-color="#FFF" stop-opacity=".5"/><stop offset="100%" stop-opacity=".5"/></linearGradient><filter id="actn_svg-b" width="111.7%" height="111.7%" x="-5.8%" y="-4.2%" filterUnits="objectBoundingBox"><feOffset dy=".5" in="SourceAlpha" result="shadowOffsetOuter1"/><feGaussianBlur in="shadowOffsetOuter1" result="shadowBlurOuter1" stdDeviation=".5"/><feComposite in="shadowBlurOuter1" in2="SourceAlpha" operator="out" result="shadowBlurOuter1"/><feColorMatrix in="shadowBlurOuter1" values="0 0 0 0 0 0 0 0 0 0 0 0 0 0 0 0 0 0 0.199473505 0"/></filter><circle id="actn_svg-a" cx="15" cy="15" r="15"/></defs><g fill="none"><g transform="translate(1)"><use xlink:href="#actn_svg-a" fill="#000" filter="url(#actn_svg-b)"/><use xlink:href="#actn_svg-a" fill="red"/><use xlink:href="#actn_svg-a" fill="url(#actn_svg-c)" style="mix-blend-mode:soft-light"/><circle cx="15" cy="15" r="14.5" stroke="#000" stroke-linejoin="square" stroke-opacity=".097"/></g><path fill="#FFF" d="m5.372 20.319 4.893-8.908c.202-.372.539-.473.88-.27h.035a.645.645 0 0 0 .91-.27l3.437-5.264a2.6 2.6 0 0 1 .44-.607c.154.189.268.406.337.64l1.485 3.679c.336.844 1.146 1.452 1.99 1.452h.269c.433.015.844.197 1.148.506l1.078 1.146q.48.508.88 1.08l3.476 4.994q.195.297.37.607v.033a3 3 0 0 1-.506-.497l-4.69-4.866a4.7 4.7 0 0 1-.744-.98c-.374-.809-.845-1.148-1.586-1.113h-.944c-.572 0-.708-.1-.88-.675l-1.346-4.217c-.236-.845-.271-.845-.506 0l-.911 2.86c-.203.572-.27 1.518-.17 1.518.036 0 .271-.44.643-1.215q.106-.238.268-.44.13.486.137.988a6 6 0 0 1-.34.675l-.032.102c-.405.741-.405.776.033 1.485l.405.673q.231.312.371.675a5 5 0 0 1-.607.44l-2.092 1.35a2.75 2.75 0 0 1-1.214.336c-.744-.033-1.384.34-1.958 1.114l-.81 1.148q-.44.54-.979.979l-.741.607a7 7 0 0 1-1.215.676l-.405.1c-.293.107-.6.174-.91.201-.139 0-.271 0-.271-.033q.158-.369.372-.708z"/></g></svg>