<svg xmlns="http://www.w3.org/2000/svg" xmlns:xlink="http://www.w3.org/1999/xlink" width="32" height="32" viewBox="0 0 32 32"><defs><linearGradient id="add_svg-c" x1="50%" x2="50%" y1="0%" y2="100%"><stop offset="0%" stop-color="#FFF" stop-opacity=".5"/><stop offset="100%" stop-opacity=".5"/></linearGradient><filter id="add_svg-b" width="111.7%" height="111.7%" x="-5.8%" y="-4.2%" filterUnits="objectBoundingBox"><feOffset dy=".5" in="SourceAlpha" result="shadowOffsetOuter1"/><feGaussianBlur in="shadowOffsetOuter1" result="shadowBlurOuter1" stdDeviation=".5"/><feComposite in="shadowBlurOuter1" in2="SourceAlpha" operator="out" result="shadowBlurOuter1"/><feColorMatrix in="shadowBlurOuter1" values="0 0 0 0 0 0 0 0 0 0 0 0 0 0 0 0 0 0 0.199473505 0"/></filter><circle id="add_svg-a" cx="15" cy="15" r="15"/></defs><g fill="none" fill-rule="evenodd"><g fill-rule="nonzero" transform="translate(1)"><use xlink:href="#add_svg-a" fill="#000" filter="url(#add_svg-b)"/><use xlink:href="#add_svg-a" fill="#FEC807"/><use xlink:href="#add_svg-a" fill="url(#add_svg-c)" style="mix-blend-mode:soft-light"/><circle cx="15" cy="15" r="14.5" stroke="#000" stroke-linejoin="square" stroke-opacity=".097"/></g><path fill="#FFF" d="M25.212 16.012h-4.704l-.84-2.52h5.536a.714.714 0 0 0 0-1.428h-5.99l-2.402-7.325a1.025 1.025 0 0 0-2.024-.067L9.042 22.144a.9.9 0 0 0 0 .285.966.966 0 0 0 1.898.235l4.822-14.7 1.378 4.1h-1.193a.714.714 0 1 0 0 1.428h1.68l.84 2.52h-2.52a.714.714 0 0 0 0 1.428h3.015l1.361 4.032h-7.215a1.008 1.008 0 0 0 0 2.016h8.534a.96.96 0 0 0 .958-.958 1 1 0 0 0-.093-.42l-1.537-4.67h4.2a.714.714 0 0 0 0-1.428z"/></g></svg>