<svg xmlns="http://www.w3.org/2000/svg" xmlns:xlink="http://www.w3.org/1999/xlink" width="32" height="32" viewBox="0 0 32 32"><defs><filter id="adx_svg-b" width="111.7%" height="111.7%" x="-5.8%" y="-4.2%" filterUnits="objectBoundingBox"><feOffset dy=".5" in="SourceAlpha" result="shadowOffsetOuter1"/><feGaussianBlur in="shadowOffsetOuter1" result="shadowBlurOuter1" stdDeviation=".5"/><feComposite in="shadowBlurOuter1" in2="SourceAlpha" operator="out" result="shadowBlurOuter1"/><feColorMatrix in="shadowBlurOuter1" values="0 0 0 0 0 0 0 0 0 0 0 0 0 0 0 0 0 0 0.199473505 0"/></filter><filter id="adx_svg-e" width="125%" height="114.6%" x="-12.5%" y="-5.2%" filterUnits="objectBoundingBox"><feOffset dy=".5" in="SourceAlpha" result="shadowOffsetOuter1"/><feGaussianBlur in="shadowOffsetOuter1" result="shadowBlurOuter1" stdDeviation=".5"/><feColorMatrix in="shadowBlurOuter1" values="0 0 0 0 0 0 0 0 0 0 0 0 0 0 0 0 0 0 0.204257246 0"/></filter><linearGradient id="adx_svg-c" x1="50%" x2="50%" y1="0%" y2="100%"><stop offset="0%" stop-color="#FFF" stop-opacity=".5"/><stop offset="100%" stop-opacity=".5"/></linearGradient><circle id="adx_svg-a" cx="16" cy="15" r="15"/><path id="adx_svg-d" d="M11.587 7.602 16 12.208l4.305-4.606L23 10.36 18.604 15 23 19.603l-2.695 2.793L16 17.792l-4.413 4.604L9 19.68l4.36-4.706L9 10.36zm.355-.376L15.982 3l4.04 4.226-2.126 2.265-1.914-2.114-1.914 2.114zm0 15.548 2.126-2.265 1.914 2.114 1.914-2.114 2.126 2.265L15.982 27z"/></defs><g fill="none" fill-rule="evenodd"><use xlink:href="#adx_svg-a" fill="#000" filter="url(#adx_svg-b)"/><use xlink:href="#adx_svg-a" fill="#1B75BC"/><use xlink:href="#adx_svg-a" fill="url(#adx_svg-c)" style="mix-blend-mode:soft-light"/><circle cx="16" cy="15" r="14.5" stroke="#000" stroke-opacity=".097"/><use xlink:href="#adx_svg-d" fill="#000" filter="url(#adx_svg-e)"/><use xlink:href="#adx_svg-d" fill="#FFF"/></g></svg>