<svg xmlns="http://www.w3.org/2000/svg" xmlns:xlink="http://www.w3.org/1999/xlink" width="32" height="32" viewBox="0 0 32 32"><defs><linearGradient id="aeon_svg-c" x1="50%" x2="50%" y1="0%" y2="100%"><stop offset="0%" stop-color="#FFF" stop-opacity=".5"/><stop offset="100%" stop-opacity=".5"/></linearGradient><filter id="aeon_svg-b" width="111.7%" height="111.7%" x="-5.8%" y="-4.2%" filterUnits="objectBoundingBox"><feOffset dy=".5" in="SourceAlpha" result="shadowOffsetOuter1"/><feGaussianBlur in="shadowOffsetOuter1" result="shadowBlurOuter1" stdDeviation=".5"/><feComposite in="shadowBlurOuter1" in2="SourceAlpha" operator="out" result="shadowBlurOuter1"/><feColorMatrix in="shadowBlurOuter1" values="0 0 0 0 0 0 0 0 0 0 0 0 0 0 0 0 0 0 0.199473505 0"/></filter><circle id="aeon_svg-a" cx="15" cy="15" r="15"/></defs><g fill="none"><g transform="translate(1)"><use xlink:href="#aeon_svg-a" fill="#000" filter="url(#aeon_svg-b)"/><use xlink:href="#aeon_svg-a" fill="#134451" fill-rule="evenodd"/><use xlink:href="#aeon_svg-a" fill="url(#aeon_svg-c)" fill-rule="evenodd" style="mix-blend-mode:soft-light"/><circle cx="15" cy="15" r="14.5" stroke="#000" stroke-linejoin="square" stroke-opacity=".097"/></g><g fill="#FFF"><path d="M14.18 15.293q-.676.002-1.029.221-.342.211-.342.635c0 .208.071.377.205.498.137.12.33.18.57.18q.56 0 .93-.345.374-.35.5-.976l.039-.213zm4.787-1.972q-.209-.18-.57-.18-.56 0-.931.345-.374.35-.5.976l-.039.213.873-.004c.451 0 .793-.077 1.03-.221q.34-.212.34-.635.001-.313-.203-.494"/><path d="M25.969 13.827c-.3-2.694-5.01-4.361-10.52-3.723-5.508.639-9.732 3.342-9.433 6.037s5.006 4.361 10.518 3.722 9.733-3.34 9.435-6.036m-5.765 1.35q-.837.594-2.44.598l-1.037.004-.032.149a.4.4 0 0 0-.015.1q-.005.031-.004.056.001.344.314.51c.208.117.519.173.924.173.385 0 .754-.044 1.104-.124q.52-.12.998-.362l-.264 1.414a11 11 0 0 1-1.155.22 8 8 0 0 1-1.096.081c-.503 0-.92-.06-1.253-.189-.346-.132-.731-.421-.924-.835a4.2 4.2 0 0 1-1.218.811 3.3 3.3 0 0 1-1.32.27q-.863.003-1.348-.414c-.326-.278-.487-.663-.491-1.149-.004-.747.275-1.313.829-1.707q.837-.594 2.44-.598l1.037-.004.032-.149a.4.4 0 0 0 .016-.1q.005-.031.004-.056a.55.55 0 0 0-.315-.51q-.314-.174-.923-.173a5 5 0 0 0-1.104.124 4.4 4.4 0 0 0-.998.362l.263-1.414a11 11 0 0 1 1.155-.22 8 8 0 0 1 1.096-.081c.503 0 .92.06 1.254.189.346.132.73.421.923.835a4.2 4.2 0 0 1 1.218-.811c.417-.177.857-.27 1.32-.27q.863-.003 1.348.414c.326.277.487.663.491 1.149q.008 1.115-.829 1.707"/><path d="M16.475 20.185a21 21 0 0 1-2.353.136c-1.823 0-3.529-.257-4.947-.759A8 8 0 0 1 7.5 18.76c-.193 1.016-.063 1.912.436 2.578 1.434 1.916 5.446 1.306 9.415-1.273q-.436.067-.877.12zm-.931-10.362c2.692-.313 5.285-.092 7.3.623a8 8 0 0 1 1.675.803c.192-1.016.063-1.912-.436-2.578-1.435-1.916-5.446-1.306-9.415 1.273.29-.048.585-.089.876-.12z"/><path d="M12.617 22.514a8.3 8.3 0 0 1-1.6.22c.405 1.073 1.038 1.824 1.875 2.105 2.02.68 4.633-1.546 6.483-5.229-.436.12-.888.23-1.344.322-1.807 1.277-3.693 2.18-5.414 2.582m6.908-15.048a8.3 8.3 0 0 1 1.599-.213c-.401-1.072-1.03-1.827-1.867-2.112-2.015-.687-4.64 1.526-6.503 5.196q.657-.18 1.348-.313C15.91 8.751 17.8 7.86 19.525 7.466"/></g></g></svg>