<svg xmlns="http://www.w3.org/2000/svg" xmlns:xlink="http://www.w3.org/1999/xlink" width="32" height="32" viewBox="0 0 32 32"><defs><linearGradient id="aeur_svg-c" x1="50%" x2="50%" y1="0%" y2="100%"><stop offset="0%" stop-color="#FFF" stop-opacity=".5"/><stop offset="100%" stop-opacity=".5"/></linearGradient><linearGradient id="aeur_svg-d" x1="50%" x2="50%" y1="0%" y2="143.239%"><stop offset="0%" stop-color="#FFF"/><stop offset="3%" stop-color="#FFF" stop-opacity=".83"/><stop offset="7%" stop-color="#FFF" stop-opacity=".66"/><stop offset="11%" stop-color="#FFF" stop-opacity=".5"/><stop offset="15%" stop-color="#FFF" stop-opacity=".37"/><stop offset="19%" stop-color="#FFF" stop-opacity=".25"/><stop offset="25%" stop-color="#FFF" stop-opacity=".16"/><stop offset="30%" stop-color="#FFF" stop-opacity=".09"/><stop offset="37%" stop-color="#FFF" stop-opacity=".04"/><stop offset="47%" stop-color="#FFF" stop-opacity=".01"/><stop offset="100%" stop-color="#FFF" stop-opacity="0"/></linearGradient><filter id="aeur_svg-b" width="111.7%" height="111.7%" x="-5.8%" y="-4.2%" filterUnits="objectBoundingBox"><feOffset dy=".5" in="SourceAlpha" result="shadowOffsetOuter1"/><feGaussianBlur in="shadowOffsetOuter1" result="shadowBlurOuter1" stdDeviation=".5"/><feComposite in="shadowBlurOuter1" in2="SourceAlpha" operator="out" result="shadowBlurOuter1"/><feColorMatrix in="shadowBlurOuter1" values="0 0 0 0 0 0 0 0 0 0 0 0 0 0 0 0 0 0 0.199473505 0"/></filter><circle id="aeur_svg-a" cx="15" cy="15" r="15"/></defs><g fill="none"><g transform="translate(1)"><use xlink:href="#aeur_svg-a" fill="#000" filter="url(#aeur_svg-b)"/><use xlink:href="#aeur_svg-a" fill="#051D2D"/><use xlink:href="#aeur_svg-a" fill="url(#aeur_svg-c)" style="mix-blend-mode:soft-light"/><circle cx="15" cy="15" r="14.5" stroke="#000" stroke-linejoin="square" stroke-opacity=".097"/></g><g fill="url(#aeur_svg-d)" transform="translate(9 5)"><path d="M6.993 13.986a6.993 6.993 0 1 1 6.993-6.993 7 7 0 0 1-6.993 6.993M7 6.951A.049.049 0 1 0 7.049 7a.055.055 0 0 0-.05-.05z"/><path d="M6.993 20.986a6.993 6.993 0 1 1 6.993-6.993 7 7 0 0 1-6.993 6.993M7 13.951a.049.049 0 1 0 .049.049.055.055 0 0 0-.05-.05z"/></g></g></svg>