<svg xmlns="http://www.w3.org/2000/svg" xmlns:xlink="http://www.w3.org/1999/xlink" width="32" height="32" viewBox="0 0 32 32"><defs><filter id="agi_svg-b" width="111.7%" height="111.7%" x="-5.8%" y="-4.2%" filterUnits="objectBoundingBox"><feOffset dy=".5" in="SourceAlpha" result="shadowOffsetOuter1"/><feGaussianBlur in="shadowOffsetOuter1" result="shadowBlurOuter1" stdDeviation=".5"/><feComposite in="shadowBlurOuter1" in2="SourceAlpha" operator="out" result="shadowBlurOuter1"/><feColorMatrix in="shadowBlurOuter1" values="0 0 0 0 0 0 0 0 0 0 0 0 0 0 0 0 0 0 0.199473505 0"/></filter><filter id="agi_svg-d" width="135%" height="117.5%" x="-17.5%" y="-6.2%" filterUnits="objectBoundingBox"><feOffset dy=".5" in="SourceAlpha" result="shadowOffsetOuter1"/><feGaussianBlur in="shadowOffsetOuter1" result="shadowBlurOuter1" stdDeviation=".5"/><feColorMatrix in="shadowBlurOuter1" result="shadowMatrixOuter1" values="0 0 0 0 0 0 0 0 0 0 0 0 0 0 0 0 0 0 0.204257246 0"/><feMerge><feMergeNode in="shadowMatrixOuter1"/><feMergeNode in="SourceGraphic"/></feMerge></filter><linearGradient id="agi_svg-c" x1="50%" x2="50%" y1="0%" y2="100%"><stop offset="0%" stop-color="#FFF" stop-opacity=".5"/><stop offset="100%" stop-opacity=".5"/></linearGradient><circle id="agi_svg-a" cx="16" cy="15" r="15"/></defs><g fill="none"><use xlink:href="#agi_svg-a" fill="#000" filter="url(#agi_svg-b)"/><use xlink:href="#agi_svg-a" fill="#6916FF" fill-rule="evenodd"/><use xlink:href="#agi_svg-a" fill="url(#agi_svg-c)" fill-rule="evenodd" style="mix-blend-mode:soft-light"/><circle cx="16" cy="15" r="14.5" stroke="#000" stroke-opacity=".097"/><g fill="#FFF" filter="url(#agi_svg-d)" transform="translate(11 5)"><path fill-opacity=".5" d="M6.144.424a.28.28 0 0 1-.082-.363.29.29 0 0 1 .313 0A5.6 5.6 0 0 1 8.25 1.333c.303.281.557.609.75.97q.306.553.5 1.152c.123.413.187.842.188 1.272-.063.425-.126 2.485-1.313 3.455A.714.714 0 0 1 7.437 8a.63.63 0 0 1-.062-.727A5.05 5.05 0 0 0 7.5 2Q6.898 1.15 6.144.424M4.3 19.006c.125.121.125.242.063.303-.063.06-.188.121-.25.06a5.6 5.6 0 0 1-1.876-1.272 3.7 3.7 0 0 1-.75-.97 6.5 6.5 0 0 1-.5-1.151A4.5 4.5 0 0 1 .8 14.703c.063-.424.125-2.485 1.312-3.455a.714.714 0 0 1 .938.182.54.54 0 0 1 0 .728 5.05 5.05 0 0 0-.125 5.272q.61.852 1.375 1.576"/><path d="M9.694 14.006a5.47 5.47 0 0 0-1.313-3.151 10.8 10.8 0 0 0-2.625-1.94 14.5 14.5 0 0 1-2.375-1.642 4.03 4.03 0 0 1-1.187-2.121 4.24 4.24 0 0 1 .306-2.48A6.7 6.7 0 0 1 4.256.43.26.26 0 0 0 4.32.127a.242.242 0 0 0-.375-.06 5.6 5.6 0 0 0-2.438 2.06A5 5 0 0 0 .625 5.4a5.3 5.3 0 0 0 .438 1.697 6 6 0 0 0 1 1.455A10.8 10.8 0 0 0 4.75 10.43c.848.44 1.645.969 2.375 1.576a3.6 3.6 0 0 1 1.188 2.182c.176.879.066 1.79-.313 2.606a6.1 6.1 0 0 1-1.813 2.182.207.207 0 0 0-.063.303.242.242 0 0 0 .375.06 7.8 7.8 0 0 0 2.376-2.12 5.18 5.18 0 0 0 .819-3.213"/></g></g></svg>