<svg xmlns="http://www.w3.org/2000/svg" xmlns:xlink="http://www.w3.org/1999/xlink" width="32" height="32" viewBox="0 0 32 32"><defs><filter id="aion_svg-b" width="111.7%" height="111.7%" x="-5.8%" y="-4.2%" filterUnits="objectBoundingBox"><feOffset dy=".5" in="SourceAlpha" result="shadowOffsetOuter1"/><feGaussianBlur in="shadowOffsetOuter1" result="shadowBlurOuter1" stdDeviation=".5"/><feComposite in="shadowBlurOuter1" in2="SourceAlpha" operator="out" result="shadowBlurOuter1"/><feColorMatrix in="shadowBlurOuter1" values="0 0 0 0 0 0 0 0 0 0 0 0 0 0 0 0 0 0 0.199473505 0"/></filter><filter id="aion_svg-d" width="115.9%" height="115.9%" x="-8%" y="-5.7%" filterUnits="objectBoundingBox"><feOffset dy=".5" in="SourceAlpha" result="shadowOffsetOuter1"/><feGaussianBlur in="shadowOffsetOuter1" result="shadowBlurOuter1" stdDeviation=".5"/><feColorMatrix in="shadowBlurOuter1" result="shadowMatrixOuter1" values="0 0 0 0 0 0 0 0 0 0 0 0 0 0 0 0 0 0 0.204257246 0"/><feMerge><feMergeNode in="shadowMatrixOuter1"/><feMergeNode in="SourceGraphic"/></feMerge></filter><linearGradient id="aion_svg-c" x1="50%" x2="50%" y1="0%" y2="100%"><stop offset="0%" stop-color="#FFF" stop-opacity=".5"/><stop offset="100%" stop-opacity=".5"/></linearGradient><circle id="aion_svg-a" cx="16" cy="15" r="15"/></defs><g fill="none"><use xlink:href="#aion_svg-a" fill="#000" filter="url(#aion_svg-b)"/><use xlink:href="#aion_svg-a" fill="#00BFEC" fill-rule="evenodd"/><use xlink:href="#aion_svg-a" fill="url(#aion_svg-c)" fill-rule="evenodd" style="mix-blend-mode:soft-light"/><circle cx="16" cy="15" r="14.5" stroke="#000" stroke-opacity=".097"/><g fill="#FFF" filter="url(#aion_svg-d)" transform="translate(5 4)"><path d="M10.971 18.15c-3.957 0-7.176-3.199-7.176-7.13s3.22-7.13 7.176-7.13 7.176 3.198 7.176 7.13-3.219 7.13-7.176 7.13m0-12.864c-3.181 0-5.77 2.572-5.77 5.734s2.589 5.733 5.77 5.733c3.182 0 5.77-2.572 5.77-5.733 0-3.162-2.588-5.734-5.77-5.734m5.025-2.415a9.64 9.64 0 0 0-5.025-1.406 9.7 9.7 0 0 0-4.666 1.198l-.684-1.22a11.1 11.1 0 0 1 5.35-1.376c2.04 0 4.032.558 5.761 1.614zm2.095 16.51-.909-1.067a9.52 9.52 0 0 0 3.405-7.294h1.406c0 3.226-1.422 6.273-3.902 8.36zm-7.12 2.59c-2.557 0-5.049-.89-7.016-2.505l.896-1.076a9.67 9.67 0 0 0 6.12 2.185c1.56 0 3.048-.36 4.422-1.068l.647 1.24a11.1 11.1 0 0 1-5.069 1.225z"/><path d="M20.35 8.425a9.6 9.6 0 0 0-1.896-3.59l.9-.746a10.7 10.7 0 0 1 2.125 4.025zM1.86 16.976A10.74 10.74 0 0 1 .067 11.02c0-2.962 1.18-5.728 3.323-7.789l.814.837a9.56 9.56 0 0 0-2.966 6.952c0 1.899.554 3.737 1.6 5.316z" opacity=".5"/></g></g></svg>