<svg xmlns="http://www.w3.org/2000/svg" xmlns:xlink="http://www.w3.org/1999/xlink" width="32" height="32" viewBox="0 0 32 32"><defs><filter id="algo_svg-b" width="111.7%" height="111.7%" x="-5.8%" y="-4.2%" filterUnits="objectBoundingBox"><feOffset dy=".5" in="SourceAlpha" result="shadowOffsetOuter1"/><feGaussianBlur in="shadowOffsetOuter1" result="shadowBlurOuter1" stdDeviation=".5"/><feComposite in="shadowBlurOuter1" in2="SourceAlpha" operator="out" result="shadowBlurOuter1"/><feColorMatrix in="shadowBlurOuter1" values="0 0 0 0 0 0 0 0 0 0 0 0 0 0 0 0 0 0 0.199473505 0"/></filter><filter id="algo_svg-d"><feColorMatrix in="SourceGraphic" values="0 0 0 0 1.000000 0 0 0 0 1.000000 0 0 0 0 1.000000 0 0 0 1.000000 0"/></filter><filter id="algo_svg-e" width="146.9%" height="146.9%" x="-23.4%" y="-23.4%" filterUnits="objectBoundingBox"><feOffset dy=".5" in="SourceAlpha" result="shadowOffsetOuter1"/><feGaussianBlur in="shadowOffsetOuter1" result="shadowBlurOuter1" stdDeviation=".5"/><feColorMatrix in="shadowBlurOuter1" result="shadowMatrixOuter1" values="0 0 0 0 0 0 0 0 0 0 0 0 0 0 0 0 0 0 0.204257246 0"/><feMerge><feMergeNode in="shadowMatrixOuter1"/><feMergeNode in="SourceGraphic"/></feMerge></filter><linearGradient id="algo_svg-c" x1="50%" x2="50%" y1="0%" y2="100%"><stop offset="0%" stop-color="#FFF" stop-opacity=".5"/><stop offset="100%" stop-opacity=".5"/></linearGradient><circle id="algo_svg-a" cx="16" cy="15" r="15"/></defs><g fill="none" fill-rule="evenodd"><use xlink:href="#algo_svg-a" fill="#000" filter="url(#algo_svg-b)"/><use xlink:href="#algo_svg-a" fill="#000"/><use xlink:href="#algo_svg-a" fill="url(#algo_svg-c)" style="mix-blend-mode:soft-light"/><circle cx="16" cy="15" r="14.5" stroke="#000" stroke-linejoin="square" stroke-opacity=".097"/><g filter="url(#algo_svg-d)"><g filter="url(#algo_svg-e)" transform="translate(7.5 6)"><path fill="#FFF" fill-rule="nonzero" d="m2.75 15.916 2.303-3.986 2.301-3.972 2.288-3.986.38-.632.167.632.702 2.624-.786 1.362-2.301 3.972-2.288 3.986h2.75l2.302-3.986 1.193-2.063.562 2.063 1.066 3.986h2.47l-1.066-3.986-1.067-3.972-.28-1.025 1.712-2.961H12.66l-.085-.295-.87-3.256L11.593 0h-2.4l-.056.084L6.89 3.972l-2.3 3.986-2.288 3.972L0 15.916z"/></g></g></g></svg>