<svg xmlns="http://www.w3.org/2000/svg" xmlns:xlink="http://www.w3.org/1999/xlink" width="32" height="32" viewBox="0 0 32 32"><defs><filter id="ampl_svg-b" width="111.7%" height="111.7%" x="-5.8%" y="-4.2%" filterUnits="objectBoundingBox"><feOffset dy=".5" in="SourceAlpha" result="shadowOffsetOuter1"/><feGaussianBlur in="shadowOffsetOuter1" result="shadowBlurOuter1" stdDeviation=".5"/><feComposite in="shadowBlurOuter1" in2="SourceAlpha" operator="out" result="shadowBlurOuter1"/><feColorMatrix in="shadowBlurOuter1" values="0 0 0 0 0 0 0 0 0 0 0 0 0 0 0 0 0 0 0.199473505 0"/></filter><filter id="ampl_svg-e" width="120.6%" height="120.6%" x="-10.3%" y="-7.4%" filterUnits="objectBoundingBox"><feOffset dy=".5" in="SourceAlpha" result="shadowOffsetOuter1"/><feGaussianBlur in="shadowOffsetOuter1" result="shadowBlurOuter1" stdDeviation=".5"/><feColorMatrix in="shadowBlurOuter1" values="0 0 0 0 0 0 0 0 0 0 0 0 0 0 0 0 0 0 0.204257246 0"/></filter><linearGradient id="ampl_svg-c" x1="50%" x2="50%" y1="0%" y2="100%"><stop offset="0%" stop-color="#FFF" stop-opacity=".5"/><stop offset="100%" stop-opacity=".5"/></linearGradient><circle id="ampl_svg-a" cx="16" cy="15" r="15"/><path id="ampl_svg-d" d="M7.511 22.25a6 6 0 0 1-.002-.709q.12-.035.246-.05.363-.062.717-.167.097-.03.19-.066c.31-.119.584-.315.792-.569q.216-.266.378-.57.228-.415.406-.853.362-.882.72-1.769l2.459-6.093q1.166-2.896 2.287-5.809.023-.059.049-.118c.276-.076.548-.154.83-.227q.025.058.045.11l.95 2.601a920 920 0 0 0 3.273 8.854q.456 1.208.919 2.412.183.492.429.958a5 5 0 0 0 .234.387c.257.392.656.675 1.117.791q.373.098.754.147l.181.026c.026.079.01.155.012.23.003.076 0 .16 0 .241q.004.117-.004.233l-.066.01h-6.363a.2.2 0 0 1-.014-.043v-.639l.008-.028a1 1 0 0 1 .161-.03q.392-.05.776-.148c.102-.028.203-.064.303-.1q.075-.03.144-.07c.251-.138.352-.354.33-.63a2 2 0 0 0-.067-.37c-.05-.19-.12-.373-.186-.557a1449 1449 0 0 1-3.911-10.82c-.014-.04-.018-.083-.059-.118-.013.008-.03.014-.04.025a.3.3 0 0 0-.024.058c-.63 1.776-1.301 3.538-1.97 5.3-.493 1.306-.987 2.61-1.447 3.927a84 84 0 0 0-.535 1.59 4 4 0 0 0-.15.623 1.5 1.5 0 0 0-.012.427.67.67 0 0 0 .276.466q.154.108.332.167.283.098.579.146c.217.039.436.069.654.103l.047.008a.2.2 0 0 1 .01.048v.618l-.008.036-.059.01z"/></defs><g fill="none" fill-rule="evenodd"><use xlink:href="#ampl_svg-a" fill="#000" filter="url(#ampl_svg-b)"/><use xlink:href="#ampl_svg-a" fill="#000"/><use xlink:href="#ampl_svg-a" fill="url(#ampl_svg-c)" style="mix-blend-mode:soft-light"/><circle cx="16" cy="15" r="14.5" stroke="#000" stroke-linejoin="square" stroke-opacity=".097"/><g fill-rule="nonzero"><use xlink:href="#ampl_svg-d" fill="#000" filter="url(#ampl_svg-e)"/><use xlink:href="#ampl_svg-d" fill="#FFF"/></g></g></svg>