<svg xmlns="http://www.w3.org/2000/svg" xmlns:xlink="http://www.w3.org/1999/xlink" width="32" height="32" viewBox="0 0 32 32"><defs><linearGradient id="ankr_svg-c" x1="50%" x2="50%" y1="0%" y2="100%"><stop offset="0%" stop-color="#FFF" stop-opacity=".5"/><stop offset="100%" stop-opacity=".5"/></linearGradient><filter id="ankr_svg-b" width="111.7%" height="111.7%" x="-5.8%" y="-4.2%" filterUnits="objectBoundingBox"><feOffset dy=".5" in="SourceAlpha" result="shadowOffsetOuter1"/><feGaussianBlur in="shadowOffsetOuter1" result="shadowBlurOuter1" stdDeviation=".5"/><feComposite in="shadowBlurOuter1" in2="SourceAlpha" operator="out" result="shadowBlurOuter1"/><feColorMatrix in="shadowBlurOuter1" values="0 0 0 0 0 0 0 0 0 0 0 0 0 0 0 0 0 0 0.199473505 0"/></filter><circle id="ankr_svg-a" cx="16" cy="15" r="15"/></defs><g fill="none" fill-rule="evenodd"><use xlink:href="#ankr_svg-a" fill="#000" filter="url(#ankr_svg-b)"/><use xlink:href="#ankr_svg-a" fill="#2E6BF6"/><use xlink:href="#ankr_svg-a" fill="url(#ankr_svg-c)" style="mix-blend-mode:soft-light"/><circle cx="16" cy="15" r="14.5" stroke="#000" stroke-linejoin="square" stroke-opacity=".097"/><path fill="#FFF" d="m17.314 5.3 6.62 3.35c.96.5 1.566 1.45 1.566 2.55v1.55h-2.426V11.2c0-.15-.1-.3-.252-.4l-6.62-3.35c-.1-.05-.253-.05-.404 0l-6.62 3.35c-.151.05-.252.2-.252.4v1.55H6.5V11.2c0-1.05.606-2.05 1.566-2.55l6.62-3.35c.809-.4 1.769-.4 2.628 0m.758 9.6c0-1.15-.96-2.05-2.072-2.05-1.162 0-2.072.9-2.072 2.05s.96 2.05 2.072 2.05 2.072-.9 2.072-2.05m4.7 4.3c.15-.05.252-.2.252-.4v-1.55h2.425v1.55c0 1.05-.606 2.05-1.566 2.55l-6.62 3.35c-.404.2-.859.3-1.314.3-.454 0-.91-.1-1.313-.3l-6.57-3.35c-.96-.5-1.566-1.45-1.566-2.55v-1.55h2.426v1.55c0 .15.1.3.252.4l5.61 2.8v-2.8c-1.921-.55-3.285-2.25-3.285-4.3 0-2.45 2.02-4.5 4.548-4.5 2.476 0 4.547 2 4.547 4.5 0 2.05-1.414 3.8-3.284 4.3V22z"/></g></svg>