<svg xmlns="http://www.w3.org/2000/svg" xmlns:xlink="http://www.w3.org/1999/xlink" width="32" height="32" viewBox="0 0 32 32"><defs><filter id="appc_svg-b" width="111.7%" height="111.7%" x="-5.8%" y="-4.2%" filterUnits="objectBoundingBox"><feOffset dy=".5" in="SourceAlpha" result="shadowOffsetOuter1"/><feGaussianBlur in="shadowOffsetOuter1" result="shadowBlurOuter1" stdDeviation=".5"/><feComposite in="shadowBlurOuter1" in2="SourceAlpha" operator="out" result="shadowBlurOuter1"/><feColorMatrix in="shadowBlurOuter1" values="0 0 0 0 0 0 0 0 0 0 0 0 0 0 0 0 0 0 0.199473505 0"/></filter><filter id="appc_svg-e" width="121.9%" height="119.4%" x="-10.9%" y="-6.9%" filterUnits="objectBoundingBox"><feOffset dy=".5" in="SourceAlpha" result="shadowOffsetOuter1"/><feGaussianBlur in="shadowOffsetOuter1" result="shadowBlurOuter1" stdDeviation=".5"/><feColorMatrix in="shadowBlurOuter1" values="0 0 0 0 0 0 0 0 0 0 0 0 0 0 0 0 0 0 0.204257246 0"/></filter><linearGradient id="appc_svg-c" x1="50%" x2="50%" y1="0%" y2="100%"><stop offset="0%" stop-color="#FFF" stop-opacity=".5"/><stop offset="100%" stop-opacity=".5"/></linearGradient><circle id="appc_svg-a" cx="16" cy="15" r="15"/><path id="appc_svg-d" d="m13.66 16.386 2.386-7.112 2.43 7.112zm10.112 4.497-1.973-5.309h1.178a.85.85 0 0 0 .85-.836.8.8 0 0 0-.237-.561.82.82 0 0 0-.573-.233h-1.84l-.295-.826h2.095a.84.84 0 0 0 .846-.807.82.82 0 0 0-.248-.59.86.86 0 0 0-.602-.243h-2.72L18.78 7.51a3.6 3.6 0 0 0-1.057-1.461 2.5 2.5 0 0 0-1.663-.548 2.57 2.57 0 0 0-1.671.548 3.6 3.6 0 0 0-1.06 1.46l-1.543 4.004H9.082a.81.81 0 0 0-.817.797c0 .458.379.829.847.829h2.053l-.316.804h-1.84a.81.81 0 0 0-.818.8c0 .454.374.821.836.823h1.181l-2.006 5.316c-.123.3-.191.618-.202.941.02.453.222.88.56 1.19a2.04 2.04 0 0 0 1.34.483 1.8 1.8 0 0 0 1.84-1.305l.776-2.269h7.144l.777 2.323a1.81 1.81 0 0 0 1.84 1.24c.31.007.615-.07.884-.22q.351-.256.614-.598a1.6 1.6 0 0 0 .225-.844 5.5 5.5 0 0 0-.228-.927z"/></defs><g fill="none"><use xlink:href="#appc_svg-a" fill="#000" filter="url(#appc_svg-b)"/><use xlink:href="#appc_svg-a" fill="#FD875E" fill-rule="evenodd"/><use xlink:href="#appc_svg-a" fill="url(#appc_svg-c)" fill-rule="evenodd" style="mix-blend-mode:soft-light"/><circle cx="16" cy="15" r="14.5" stroke="#000" stroke-opacity=".097"/><use xlink:href="#appc_svg-d" fill="#000" filter="url(#appc_svg-e)"/><use xlink:href="#appc_svg-d" fill="#FFF" fill-rule="evenodd"/></g></svg>