<svg xmlns="http://www.w3.org/2000/svg" xmlns:xlink="http://www.w3.org/1999/xlink" width="32" height="32" viewBox="0 0 32 32"><defs><filter id="arn_svg-b" width="111.7%" height="111.7%" x="-5.8%" y="-4.2%" filterUnits="objectBoundingBox"><feOffset dy=".5" in="SourceAlpha" result="shadowOffsetOuter1"/><feGaussianBlur in="shadowOffsetOuter1" result="shadowBlurOuter1" stdDeviation=".5"/><feComposite in="shadowBlurOuter1" in2="SourceAlpha" operator="out" result="shadowBlurOuter1"/><feColorMatrix in="shadowBlurOuter1" values="0 0 0 0 0 0 0 0 0 0 0 0 0 0 0 0 0 0 0.199473505 0"/></filter><filter id="arn_svg-e" width="119.4%" height="117.5%" x="-9.7%" y="-6.2%" filterUnits="objectBoundingBox"><feOffset dy=".5" in="SourceAlpha" result="shadowOffsetOuter1"/><feGaussianBlur in="shadowOffsetOuter1" result="shadowBlurOuter1" stdDeviation=".5"/><feColorMatrix in="shadowBlurOuter1" values="0 0 0 0 0 0 0 0 0 0 0 0 0 0 0 0 0 0 0.204257246 0"/></filter><linearGradient id="arn_svg-c" x1="50%" x2="50%" y1="0%" y2="100%"><stop offset="0%" stop-color="#FFF" stop-opacity=".5"/><stop offset="100%" stop-opacity=".5"/></linearGradient><circle id="arn_svg-a" cx="16" cy="15" r="15"/><path id="arn_svg-d" d="m11.76 13.102 4.282-7.538c.008-.014.024-.023.08 0l4.074 7.401a.976.976 0 0 0 .025 1.532l-3.763 6.788a1 1 0 0 0-.86-.006l-3.873-6.899a.97.97 0 0 0 .034-1.278zm-.41 1.534 3.888 6.925a1 1 0 0 0-.18.356q-4.708-1.128-5.852-1.396a9.6 9.6 0 0 1-.844-1.438l2.492-4.386a1 1 0 0 0 .496-.06zm-.539-1.883-3.087-5.5Q10.88 5.576 15.559 5.5l-4.162 7.326a1 1 0 0 0-.586-.073m-.42.176a.977.977 0 0 0 .034 1.608l-2.29 4.03a9.5 9.5 0 0 1-.67-2.954l-.463-7.382a.89.89 0 0 1 .332-.748zm6.6 8.998a1 1 0 0 0-.175-.355l3.818-6.887a1 1 0 0 0 .496-.024l2.474 4.494q-.316.649-.724 1.245l-5.89 1.527zm-.741 1.2a.99.99 0 0 0 .747-.739l5.456-1.415a9.7 9.7 0 0 1-2.336 2.092l-3.623 2.314a1 1 0 0 1-.244.11zm-.454 0V25.5a.9.9 0 0 1-.29-.121l-3.623-2.314a9.7 9.7 0 0 1-2.246-1.982q1.485.352 5.409 1.291c.08.373.374.668.75.754zm5.37-10.334a1 1 0 0 0-.564-.028l-3.997-7.262q4.549.101 7.641 1.735zm.383.241 3.09-5.572a.89.89 0 0 1 .36.769l-.463 7.383a9.5 9.5 0 0 1-.7 3.025l-2.314-4.203a.974.974 0 0 0 .027-1.402M16 10.234a.55.55 0 0 0-.541.534v1.954L12.573 14.5l.309.667 2.577-.844v1.954l-.722.533v.533L16 16.987l1.263.355v-.533l-.722-.533v-1.954l2.533.89.353-.712-2.886-1.778v-1.954a.55.55 0 0 0-.54-.533z"/></defs><g fill="none"><use xlink:href="#arn_svg-a" fill="#000" filter="url(#arn_svg-b)"/><use xlink:href="#arn_svg-a" fill="#0092B5" fill-rule="evenodd"/><use xlink:href="#arn_svg-a" fill="url(#arn_svg-c)" fill-rule="evenodd" style="mix-blend-mode:soft-light"/><circle cx="16" cy="15" r="14.5" stroke="#000" stroke-opacity=".097"/><use xlink:href="#arn_svg-d" fill="#000" filter="url(#arn_svg-e)"/><use xlink:href="#arn_svg-d" fill="#FFF" fill-rule="evenodd"/></g></svg>