<svg xmlns="http://www.w3.org/2000/svg" xmlns:xlink="http://www.w3.org/1999/xlink" width="32" height="32" viewBox="0 0 32 32"><defs><filter id="ary_svg-b" width="111.7%" height="111.7%" x="-5.8%" y="-4.2%" filterUnits="objectBoundingBox"><feOffset dy=".5" in="SourceAlpha" result="shadowOffsetOuter1"/><feGaussianBlur in="shadowOffsetOuter1" result="shadowBlurOuter1" stdDeviation=".5"/><feComposite in="shadowBlurOuter1" in2="SourceAlpha" operator="out" result="shadowBlurOuter1"/><feColorMatrix in="shadowBlurOuter1" values="0 0 0 0 0 0 0 0 0 0 0 0 0 0 0 0 0 0 0.199473505 0"/></filter><filter id="ary_svg-e" width="120.6%" height="119.4%" x="-10.3%" y="-6.9%" filterUnits="objectBoundingBox"><feOffset dy=".5" in="SourceAlpha" result="shadowOffsetOuter1"/><feGaussianBlur in="shadowOffsetOuter1" result="shadowBlurOuter1" stdDeviation=".5"/><feColorMatrix in="shadowBlurOuter1" values="0 0 0 0 0 0 0 0 0 0 0 0 0 0 0 0 0 0 0.204257246 0"/></filter><linearGradient id="ary_svg-c" x1="50%" x2="50%" y1="0%" y2="100%"><stop offset="0%" stop-color="#FFF" stop-opacity=".5"/><stop offset="100%" stop-opacity=".5"/></linearGradient><circle id="ary_svg-a" cx="16" cy="15" r="15"/><path id="ary_svg-d" d="M23.917 20.11a.85.85 0 0 0 .57-.86v1.1a.91.91 0 0 1-.595.86l-7.588 2.733a.8.8 0 0 1-.596 0L8.12 21.211a.9.9 0 0 1-.595-.86v-1.1c0 .379.235.733.595.86l7.613 2.732a.8.8 0 0 0 .595 0zm0-1.948a.87.87 0 0 0 .57-.86v1.1a.91.91 0 0 1-.595.86l-7.588 2.733a.8.8 0 0 1-.596 0L8.12 19.263a.9.9 0 0 1-.595-.86V17.29c0 .392.235.733.595.872l7.613 2.733a.8.8 0 0 0 .595 0zm0-1.96a.88.88 0 0 0 .583-.848v1.1a.91.91 0 0 1-.596.86l-7.588 2.733a.8.8 0 0 1-.595 0L8.12 17.302a.9.9 0 0 1-.595-.86v-1.1c0 .379.235.733.595.86l7.613 2.732a.8.8 0 0 0 .595 0zM7.5 9.662a.9.9 0 0 1 .595-.86l7.601-2.745a.8.8 0 0 1 .595 0l7.601 2.745a.9.9 0 0 1 .595.86v4.832a.91.91 0 0 1-.595.86l-7.613 2.732a.8.8 0 0 1-.595 0l-7.589-2.732a.9.9 0 0 1-.595-.86z"/></defs><g fill="none"><use xlink:href="#ary_svg-a" fill="#000" filter="url(#ary_svg-b)"/><use xlink:href="#ary_svg-a" fill="#343434" fill-rule="evenodd"/><use xlink:href="#ary_svg-a" fill="url(#ary_svg-c)" fill-rule="evenodd" style="mix-blend-mode:soft-light"/><circle cx="16" cy="15" r="14.5" stroke="#000" stroke-opacity=".097"/><use xlink:href="#ary_svg-d" fill="#000" filter="url(#ary_svg-e)"/><use xlink:href="#ary_svg-d" fill="#FFF" fill-rule="evenodd"/></g></svg>