<svg xmlns="http://www.w3.org/2000/svg" xmlns:xlink="http://www.w3.org/1999/xlink" width="32" height="32" viewBox="0 0 32 32"><defs><filter id="atm_svg-b" width="111.7%" height="111.7%" x="-5.8%" y="-4.2%" filterUnits="objectBoundingBox"><feOffset dy=".5" in="SourceAlpha" result="shadowOffsetOuter1"/><feGaussianBlur in="shadowOffsetOuter1" result="shadowBlurOuter1" stdDeviation=".5"/><feComposite in="shadowBlurOuter1" in2="SourceAlpha" operator="out" result="shadowBlurOuter1"/><feColorMatrix in="shadowBlurOuter1" values="0 0 0 0 0 0 0 0 0 0 0 0 0 0 0 0 0 0 0.199473505 0"/></filter><filter id="atm_svg-d" width="142.3%" height="129.5%" x="-21.2%" y="-10.2%" filterUnits="objectBoundingBox"><feOffset dy=".5" in="SourceAlpha" result="shadowOffsetOuter1"/><feGaussianBlur in="shadowOffsetOuter1" result="shadowBlurOuter1" stdDeviation=".5"/><feColorMatrix in="shadowBlurOuter1" result="shadowMatrixOuter1" values="0 0 0 0 0 0 0 0 0 0 0 0 0 0 0 0 0 0 0.104987545 0"/><feMerge><feMergeNode in="shadowMatrixOuter1"/><feMergeNode in="SourceGraphic"/></feMerge></filter><filter id="atm_svg-f" width="126.9%" height="115.9%" x="-13.5%" y="-5.7%" filterUnits="objectBoundingBox"><feOffset dy=".5" in="SourceAlpha" result="shadowOffsetOuter1"/><feGaussianBlur in="shadowOffsetOuter1" result="shadowBlurOuter1" stdDeviation=".5"/><feColorMatrix in="shadowBlurOuter1" values="0 0 0 0 0 0 0 0 0 0 0 0 0 0 0 0 0 0 0.204257246 0"/></filter><linearGradient id="atm_svg-c" x1="50%" x2="50%" y1="0%" y2="100%"><stop offset="0%" stop-color="#FFF" stop-opacity=".5"/><stop offset="100%" stop-opacity=".5"/></linearGradient><circle id="atm_svg-a" cx="16" cy="15" r="15"/><path id="atm_svg-e" d="M8.878 15.596v2.035A4.37 4.37 0 0 1 4.509 22h-.14A4.37 4.37 0 0 1 0 17.631v-6.865a4.37 4.37 0 0 1 4.122-4.362V4.369A4.37 4.37 0 0 1 8.491 0h.14A4.37 4.37 0 0 1 13 4.369v6.865a4.37 4.37 0 0 1-4.122 4.362m0 0v-4.83a4.37 4.37 0 0 0-4.369-4.369h-.14a4 4 0 0 0-.247.007v4.83a4.37 4.37 0 0 0 4.369 4.369h.14q.124 0 .247-.007"/></defs><g fill="none" fill-rule="evenodd"><use xlink:href="#atm_svg-a" fill="#000" filter="url(#atm_svg-b)"/><use xlink:href="#atm_svg-a" fill="#346FCE"/><use xlink:href="#atm_svg-a" fill="url(#atm_svg-c)" style="mix-blend-mode:soft-light"/><circle cx="16" cy="15" r="14.5" stroke="#000" stroke-opacity=".097"/><g filter="url(#atm_svg-d)" transform="rotate(-28 18.75 -5.975)"><use xlink:href="#atm_svg-e" fill="#000" filter="url(#atm_svg-f)"/><use xlink:href="#atm_svg-e" fill="#FFF"/></g></g></svg>