<svg xmlns="http://www.w3.org/2000/svg" xmlns:xlink="http://www.w3.org/1999/xlink" width="32" height="32" viewBox="0 0 32 32"><defs><linearGradient id="audr_svg-c" x1="50%" x2="50%" y1="0%" y2="100%"><stop offset="0%" stop-color="#FFF" stop-opacity=".5"/><stop offset="100%" stop-opacity=".5"/></linearGradient><filter id="audr_svg-b" width="111.7%" height="111.7%" x="-5.8%" y="-4.2%" filterUnits="objectBoundingBox"><feOffset dy=".5" in="SourceAlpha" result="shadowOffsetOuter1"/><feGaussianBlur in="shadowOffsetOuter1" result="shadowBlurOuter1" stdDeviation=".5"/><feComposite in="shadowBlurOuter1" in2="SourceAlpha" operator="out" result="shadowBlurOuter1"/><feColorMatrix in="shadowBlurOuter1" values="0 0 0 0 0 0 0 0 0 0 0 0 0 0 0 0 0 0 0.199473505 0"/></filter><circle id="audr_svg-a" cx="15" cy="15" r="15"/></defs><g fill="none"><g transform="translate(1)"><use xlink:href="#audr_svg-a" fill="#000" filter="url(#audr_svg-b)"/><use xlink:href="#audr_svg-a" fill="#34318A"/><use xlink:href="#audr_svg-a" fill="url(#audr_svg-c)" style="mix-blend-mode:soft-light"/><circle cx="15" cy="15" r="14.5" stroke="#000" stroke-linejoin="square" stroke-opacity=".097"/></g><path fill="#FFF" d="m10.783 12.492 3.309 1.76 1.76-.88-4.206-2.28V7.08l8.087 4.198 1.76-.88-10.358-5.43A.774.774 0 0 0 10 5.654v5.562c.003.538.305 1.03.783 1.276m12.61-.933a.77.77 0 0 0-.88-.14l-11.73 6.089A1.44 1.44 0 0 0 10 18.793v5.553a.774.774 0 0 0 1.135.686L22.84 18.96a1.45 1.45 0 0 0 .783-1.311v-5.544a.77.77 0 0 0-.228-.546zm-1.407 5.993-10.34 5.368v-4.013l10.34-5.368z"/></g></svg>