<svg xmlns="http://www.w3.org/2000/svg" xmlns:xlink="http://www.w3.org/1999/xlink" width="32" height="32" viewBox="0 0 32 32"><defs><linearGradient id="bab_svg-c" x1="50%" x2="50%" y1="0%" y2="100%"><stop offset="0%" stop-color="#FFF" stop-opacity=".5"/><stop offset="100%" stop-opacity=".5"/></linearGradient><filter id="bab_svg-b" width="111.7%" height="111.7%" x="-5.8%" y="-4.2%" filterUnits="objectBoundingBox"><feOffset dy=".5" in="SourceAlpha" result="shadowOffsetOuter1"/><feGaussianBlur in="shadowOffsetOuter1" result="shadowBlurOuter1" stdDeviation=".5"/><feComposite in="shadowBlurOuter1" in2="SourceAlpha" operator="out" result="shadowBlurOuter1"/><feColorMatrix in="shadowBlurOuter1" values="0 0 0 0 0 0 0 0 0 0 0 0 0 0 0 0 0 0 0.199473505 0"/></filter><circle id="bab_svg-a" cx="15" cy="15" r="15"/></defs><g fill="none"><g transform="translate(1)"><use xlink:href="#bab_svg-a" fill="#000" filter="url(#bab_svg-b)"/><use xlink:href="#bab_svg-a" fill="#F19F13"/><use xlink:href="#bab_svg-a" fill="url(#bab_svg-c)" style="mix-blend-mode:soft-light"/><circle cx="15" cy="15" r="14.5" stroke="#000" stroke-linejoin="square" stroke-opacity=".097"/></g><path fill="#FFF" d="M22.77 12.95h4.87l.36-2h-4.71a4.8 4.8 0 0 0-2.59.86c-.28-1-3-.86-3-.86l.36-2H17l-.36 2h-1.11l.31-2h-1.15l-.42 2h-1.19l-.61 3.12-.81-3.06H9l-5 7.35h4.12l.42-1.95H7.7l2.4-3.51.9 3.53h-.9l-.39 1.93h3.06l-.25 1.34h1.2l.28-1.34h1l-.25 1.34H16l.25-1.34h1.56a3 3 0 0 0 1.87-.95 3.2 3.2 0 0 0 2.2.95h4.71l.31-1.95h-4.23c-2.91-.05-1.67-3.48.1-3.46m-5.29 3.41h-3.12l.25-.95h3c.76.05.51.95-.13.95m.47-2.56h-3.12l.25-.95h3c.76.05.48.99-.13.99z"/></g></svg>