<svg xmlns="http://www.w3.org/2000/svg" xmlns:xlink="http://www.w3.org/1999/xlink" width="32" height="32" viewBox="0 0 32 32"><defs><linearGradient id="bcbc_svg-c" x1="50%" x2="50%" y1="0%" y2="100%"><stop offset="0%" stop-color="#FFF" stop-opacity=".5"/><stop offset="100%" stop-opacity=".5"/></linearGradient><filter id="bcbc_svg-b" width="111.7%" height="111.7%" x="-5.8%" y="-4.2%" filterUnits="objectBoundingBox"><feOffset dy=".5" in="SourceAlpha" result="shadowOffsetOuter1"/><feGaussianBlur in="shadowOffsetOuter1" result="shadowBlurOuter1" stdDeviation=".5"/><feComposite in="shadowBlurOuter1" in2="SourceAlpha" operator="out" result="shadowBlurOuter1"/><feColorMatrix in="shadowBlurOuter1" values="0 0 0 0 0 0 0 0 0 0 0 0 0 0 0 0 0 0 0.199473505 0"/></filter><circle id="bcbc_svg-a" cx="16" cy="15" r="15"/></defs><g fill="none"><use xlink:href="#bcbc_svg-a" fill="#000" filter="url(#bcbc_svg-b)"/><use xlink:href="#bcbc_svg-a" fill="#004AB5" fill-rule="evenodd"/><use xlink:href="#bcbc_svg-a" fill="url(#bcbc_svg-c)" fill-rule="evenodd" style="mix-blend-mode:soft-light"/><circle cx="16" cy="15" r="14.5" stroke="#000" stroke-linejoin="square" stroke-opacity=".097"/><path fill="#FFF" d="M12.703 7.307A8.207 8.207 0 1 0 22.78 18.956l-7.182-3.97 2.914-7.672a8.2 8.2 0 0 0-5.809-.007m.512 1.474a6.65 6.65 0 0 1 4.704.006l-2.36 6.212 5.816 3.215a6.645 6.645 0 1 1-8.16-9.433m2.753-4.111c1.116.044 2.217.269 3.261.665L15.56 15l9.046 5a10.337 10.337 0 1 1-8.638-15.33m7.057 3.573q.371 0 .69.09.936.257 1.266 1.163.2.55.087 1.08-.102.525-.486.946.722-.03 1.265.32.54.341.794 1.043.361.992-.219 1.814-.573.807-2.05 1.344l-3.904 1.421-2.747-7.548 3.688-1.343q.905-.33 1.616-.33m-.572 1.562q-.337 0-.781.162l-1.736.632.647 1.78 1.737-.632q.645-.236.898-.584t.091-.79q-.16-.443-.573-.536a1.2 1.2 0 0 0-.283-.032m1.464 2.927q-.354.003-.832.177l-2.039.742.68 1.866 2.038-.742q.69-.252.952-.603.274-.356.101-.83-.225-.616-.9-.61"/></g></svg>