<svg xmlns="http://www.w3.org/2000/svg" xmlns:xlink="http://www.w3.org/1999/xlink" width="32" height="32" viewBox="0 0 32 32"><defs><filter id="bcd_svg-b" width="111.7%" height="111.7%" x="-5.8%" y="-4.2%" filterUnits="objectBoundingBox"><feOffset dy=".5" in="SourceAlpha" result="shadowOffsetOuter1"/><feGaussianBlur in="shadowOffsetOuter1" result="shadowBlurOuter1" stdDeviation=".5"/><feComposite in="shadowBlurOuter1" in2="SourceAlpha" operator="out" result="shadowBlurOuter1"/><feColorMatrix in="shadowBlurOuter1" values="0 0 0 0 0 0 0 0 0 0 0 0 0 0 0 0 0 0 0.199473505 0"/></filter><filter id="bcd_svg-e" width="117.5%" height="120.6%" x="-8.8%" y="-7.4%" filterUnits="objectBoundingBox"><feOffset dy=".5" in="SourceAlpha" result="shadowOffsetOuter1"/><feGaussianBlur in="shadowOffsetOuter1" result="shadowBlurOuter1" stdDeviation=".5"/><feColorMatrix in="shadowBlurOuter1" values="0 0 0 0 0 0 0 0 0 0 0 0 0 0 0 0 0 0 0.204257246 0"/></filter><linearGradient id="bcd_svg-c" x1="50%" x2="50%" y1="0%" y2="100%"><stop offset="0%" stop-color="#FFF" stop-opacity=".5"/><stop offset="100%" stop-opacity=".5"/></linearGradient><circle id="bcd_svg-a" cx="16" cy="15" r="15"/><path id="bcd_svg-d" d="m22.585 8.694.077.171-3.054 1.402 1.374 4.55 4.521-2.283.06.119.018-.022-2.929-3.906zm-.165-.077-2.773-1.29h-7.171l-2.962 1.36 3.08 1.296h6.85zm-13.154.32-2.773 3.601 4.514 2.28 1.38-4.568zm3.44 1.373-1.425 4.72 4.713 8.332 4.714-8.332-1.426-4.72zm12.512 2.733L21 15.174l-4.205 7.433 8.424-9.564zm-10.047 9.524-4.182-7.393-4.196-2.119zm-8.74-9.924.033-.067-.043.056zm2.791-4.181L12.405 7h7.312l3.144 1.462L26 12.648 16 24 6 12.646zm9.201 5.372c.059.607-.192.972-.594 1.179.661.16 1.075.558.993 1.45-.1 1.106-.915 1.402-2.079 1.47v1.163h-.692v-1.147q-.269 0-.553-.006v1.153h-.691V17.93q-.243-.003-.495-.004h-.9l.137-.837s.512.008.503 0c.196 0 .248-.143.26-.232V15.02h.074l-.074-.005v-1.311c-.026-.143-.117-.307-.398-.308.009-.01-.502 0-.502 0v-.748h.954v.004q.215 0 .44-.006v-1.151h.693v1.129q.277-.007.552-.008v-1.12l.692-.001v1.151c.894.08 1.601.358 1.68 1.188m-.968 2.49c0-.908-1.471-.771-1.94-.771v1.543c.469 0 1.94.098 1.94-.772m-.322-2.177c0-.826-1.228-.7-1.618-.7v1.4c.39 0 1.618.092 1.618-.7"/></defs><g fill="none"><use xlink:href="#bcd_svg-a" fill="#000" filter="url(#bcd_svg-b)"/><use xlink:href="#bcd_svg-a" fill="#FCC339" fill-rule="evenodd"/><use xlink:href="#bcd_svg-a" fill="url(#bcd_svg-c)" fill-rule="evenodd" style="mix-blend-mode:soft-light"/><circle cx="16" cy="15" r="14.5" stroke="#000" stroke-opacity=".097"/><use xlink:href="#bcd_svg-d" fill="#000" filter="url(#bcd_svg-e)"/><use xlink:href="#bcd_svg-d" fill="#FFF" fill-rule="evenodd"/></g></svg>