<svg xmlns="http://www.w3.org/2000/svg" xmlns:xlink="http://www.w3.org/1999/xlink" width="32" height="32" viewBox="0 0 32 32"><defs><linearGradient id="bcio_svg-c" x1="50%" x2="50%" y1="0%" y2="100%"><stop offset="0%" stop-color="#FFF" stop-opacity=".5"/><stop offset="100%" stop-opacity=".5"/></linearGradient><filter id="bcio_svg-b" width="111.7%" height="111.7%" x="-5.8%" y="-4.2%" filterUnits="objectBoundingBox"><feOffset dy=".5" in="SourceAlpha" result="shadowOffsetOuter1"/><feGaussianBlur in="shadowOffsetOuter1" result="shadowBlurOuter1" stdDeviation=".5"/><feComposite in="shadowBlurOuter1" in2="SourceAlpha" operator="out" result="shadowBlurOuter1"/><feColorMatrix in="shadowBlurOuter1" values="0 0 0 0 0 0 0 0 0 0 0 0 0 0 0 0 0 0 0.199473505 0"/></filter><circle id="bcio_svg-a" cx="15" cy="15" r="15"/></defs><g fill="none"><g transform="translate(1)"><use xlink:href="#bcio_svg-a" fill="#000" filter="url(#bcio_svg-b)"/><use xlink:href="#bcio_svg-a" fill="#3F43AD"/><use xlink:href="#bcio_svg-a" fill="url(#bcio_svg-c)" style="mix-blend-mode:soft-light"/><circle cx="15" cy="15" r="14.5" stroke="#000" stroke-linejoin="square" stroke-opacity=".097"/></g><path fill="#FFF" d="M11.94 6.436a.877.877 0 0 0 0 1.751.877.877 0 0 0 0-1.751m4.05-2.43a.877.877 0 0 0 0 1.752.877.877 0 0 0 0-1.752m0 9.719a.877.877 0 0 0 0 1.751.877.877 0 0 0 0-1.751m4.049-2.43a.876.876 0 1 0 .002 1.753.876.876 0 0 0-.002-1.753m4.049-2.429a.877.877 0 1 0 .002 1.753.877.877 0 0 0-.002-1.753M11.94 16.155a.877.877 0 0 0 0 1.751.877.877 0 0 0 0-1.751M7.89 8.866a.876.876 0 1 0 .002 1.752.876.876 0 0 0-.002-1.752m0 9.718a.876.876 0 1 0 .002 1.753.876.876 0 0 0-.002-1.753m0-4.859a.877.877 0 0 0 0 1.751.877.877 0 0 0 0-1.751m8.1-4.859a.877.877 0 1 0 0 1.753.877.877 0 0 0 0-1.753m4.049-2.43a.877.877 0 1 0 .002 1.753.877.877 0 0 0-.002-1.753m0 9.719a.876.876 0 1 0 .001 1.752.876.876 0 0 0-.001-1.752m4.049-2.43a.877.877 0 0 0 0 1.751.877.877 0 0 0 0-1.751m-4.049 7.289a.876.876 0 1 0 .001 1.753.876.876 0 0 0-.001-1.753m4.049-2.43a.877.877 0 0 0 0 1.752.877.877 0 0 0 0-1.752m-8.098 4.86a.877.877 0 0 0 0 1.751.877.877 0 0 0 .876-.875.877.877 0 0 0-.876-.876m0-4.86a.877.877 0 1 0 .001 1.754.877.877 0 0 0-.001-1.754m-4.05-7.289a.877.877 0 0 0 0 1.751.877.877 0 0 0 0-1.75m0 9.718a.877.877 0 0 0 0 1.751.877.877 0 0 0 0-1.751"/></g></svg>