<svg xmlns="http://www.w3.org/2000/svg" xmlns:xlink="http://www.w3.org/1999/xlink" width="32" height="32" viewBox="0 0 32 32"><defs><filter id="bcn_svg-b" width="111.7%" height="111.7%" x="-5.8%" y="-4.2%" filterUnits="objectBoundingBox"><feOffset dy=".5" in="SourceAlpha" result="shadowOffsetOuter1"/><feGaussianBlur in="shadowOffsetOuter1" result="shadowBlurOuter1" stdDeviation=".5"/><feComposite in="shadowBlurOuter1" in2="SourceAlpha" operator="out" result="shadowBlurOuter1"/><feColorMatrix in="shadowBlurOuter1" values="0 0 0 0 0 0 0 0 0 0 0 0 0 0 0 0 0 0 0.199473505 0"/></filter><filter id="bcn_svg-e" width="119.4%" height="121.1%" x="-9.7%" y="-7.5%" filterUnits="objectBoundingBox"><feOffset dy=".5" in="SourceAlpha" result="shadowOffsetOuter1"/><feGaussianBlur in="shadowOffsetOuter1" result="shadowBlurOuter1" stdDeviation=".5"/><feColorMatrix in="shadowBlurOuter1" values="0 0 0 0 0 0 0 0 0 0 0 0 0 0 0 0 0 0 0.204257246 0"/></filter><linearGradient id="bcn_svg-c" x1="50%" x2="50%" y1="0%" y2="100%"><stop offset="0%" stop-color="#FFF" stop-opacity=".5"/><stop offset="100%" stop-opacity=".5"/></linearGradient><circle id="bcn_svg-a" cx="16" cy="15" r="15"/><path id="bcn_svg-d" d="M23.437 15.754q-.944-1.044-2.72-1.296v-.025c1.037-.168 1.852-.593 2.406-1.273a3.72 3.72 0 0 0 .862-2.404c0-1.461-.47-2.454-1.444-3.235s-2.436-1.037-4.417-1.037h-7.481v6.963H6.347v2.667h11.727c.923 0 1.616.065 2.074.434s.692.846.692 1.551-.231 1.307-.692 1.685c-.46.377-1.154.626-2.074.626H14.05v-2.074h-3.407v4.741h7.727c1.965 0 3.467-.513 4.509-1.31 1.041-.797 1.53-1.974 1.53-3.419a3.8 3.8 0 0 0-.972-2.594m-5.793-2.314H14.05V9.144h3.594c1.848 0 2.77.721 2.77 2.148s-.922 2.148-2.77 2.148"/></defs><g fill="none" fill-rule="evenodd"><use xlink:href="#bcn_svg-a" fill="#000" filter="url(#bcn_svg-b)"/><use xlink:href="#bcn_svg-a" fill="#F04086"/><use xlink:href="#bcn_svg-a" fill="url(#bcn_svg-c)" style="mix-blend-mode:soft-light"/><circle cx="16" cy="15" r="14.5" stroke="#000" stroke-opacity=".097"/><g fill-rule="nonzero"><use xlink:href="#bcn_svg-d" fill="#000" filter="url(#bcn_svg-e)"/><use xlink:href="#bcn_svg-d" fill="#FFF" fill-rule="evenodd"/></g></g></svg>