<svg xmlns="http://www.w3.org/2000/svg" xmlns:xlink="http://www.w3.org/1999/xlink" width="32" height="32" viewBox="0 0 32 32"><defs><filter id="bela_svg-b" width="111.7%" height="111.7%" x="-5.8%" y="-4.2%" filterUnits="objectBoundingBox"><feOffset dy=".5" in="SourceAlpha" result="shadowOffsetOuter1"/><feGaussianBlur in="shadowOffsetOuter1" result="shadowBlurOuter1" stdDeviation=".5"/><feComposite in="shadowBlurOuter1" in2="SourceAlpha" operator="out" result="shadowBlurOuter1"/><feColorMatrix in="shadowBlurOuter1" values="0 0 0 0 0 0 0 0 0 0 0 0 0 0 0 0 0 0 0.199473505 0"/></filter><filter id="bela_svg-e" width="119.4%" height="119.4%" x="-9.7%" y="-6.9%" filterUnits="objectBoundingBox"><feOffset dy=".5" in="SourceAlpha" result="shadowOffsetOuter1"/><feGaussianBlur in="shadowOffsetOuter1" result="shadowBlurOuter1" stdDeviation=".5"/><feColorMatrix in="shadowBlurOuter1" values="0 0 0 0 0 0 0 0 0 0 0 0 0 0 0 0 0 0 0.204257246 0"/></filter><linearGradient id="bela_svg-c" x1="50%" x2="50%" y1="0%" y2="100%"><stop offset="0%" stop-color="#FFF" stop-opacity=".5"/><stop offset="100%" stop-opacity=".5"/></linearGradient><circle id="bela_svg-a" cx="16" cy="15" r="15"/><path id="bela_svg-d" d="M8.297 10.568A2.42 2.42 0 0 1 7 8.422a2.416 2.416 0 1 1 4.553-1.134 8.9 8.9 0 0 1 4.501-1.216c4.94 0 8.946 4.014 8.946 8.964S20.995 24 16.054 24s-8.946-4.013-8.946-8.964a8.94 8.94 0 0 1 1.189-4.468m7.757 8.878c2.43 0 4.4-1.974 4.4-4.41s-1.97-4.41-4.4-4.41-4.4 1.975-4.4 4.41 1.97 4.41 4.4 4.41"/></defs><g fill="none" fill-rule="evenodd"><use xlink:href="#bela_svg-a" fill="#000" filter="url(#bela_svg-b)"/><use xlink:href="#bela_svg-a" fill="#13A0F6"/><use xlink:href="#bela_svg-a" fill="url(#bela_svg-c)" style="mix-blend-mode:soft-light"/><circle cx="16" cy="15" r="14.5" stroke="#000" stroke-opacity=".097"/><use xlink:href="#bela_svg-d" fill="#000" filter="url(#bela_svg-e)"/><use xlink:href="#bela_svg-d" fill="#FFF"/></g></svg>