<svg xmlns="http://www.w3.org/2000/svg" xmlns:xlink="http://www.w3.org/1999/xlink" width="32" height="32" viewBox="0 0 32 32"><defs><filter id="blz_svg-b" width="111.7%" height="111.7%" x="-5.8%" y="-4.2%" filterUnits="objectBoundingBox"><feOffset dy=".5" in="SourceAlpha" result="shadowOffsetOuter1"/><feGaussianBlur in="shadowOffsetOuter1" result="shadowBlurOuter1" stdDeviation=".5"/><feComposite in="shadowBlurOuter1" in2="SourceAlpha" operator="out" result="shadowBlurOuter1"/><feColorMatrix in="shadowBlurOuter1" values="0 0 0 0 0 0 0 0 0 0 0 0 0 0 0 0 0 0 0.199473505 0"/></filter><filter id="blz_svg-e" width="118.4%" height="117.5%" x="-9.2%" y="-6.2%" filterUnits="objectBoundingBox"><feOffset dy=".5" in="SourceAlpha" result="shadowOffsetOuter1"/><feGaussianBlur in="shadowOffsetOuter1" result="shadowBlurOuter1" stdDeviation=".5"/><feColorMatrix in="shadowBlurOuter1" values="0 0 0 0 0 0 0 0 0 0 0 0 0 0 0 0 0 0 0.204257246 0"/></filter><linearGradient id="blz_svg-c" x1="50%" x2="50%" y1="0%" y2="100%"><stop offset="0%" stop-color="#FFF" stop-opacity=".5"/><stop offset="100%" stop-opacity=".5"/></linearGradient><circle id="blz_svg-a" cx="16" cy="15" r="15"/><path id="blz_svg-d" d="M11.633 19.336a1.75 1.75 0 0 1 0 2.444 1.676 1.676 0 0 1-2.4.003c-.32-.324-.5-.765-.5-1.225s.18-.9.5-1.225a1.676 1.676 0 0 1 2.4.003m11.063-11.61a1.73 1.73 0 0 1 1.048 1.599c0 .7-.414 1.33-1.048 1.598a1.675 1.675 0 0 1-1.85-.375 1.75 1.75 0 0 1-.498-1.223c0-.46.179-.9.498-1.223a1.675 1.675 0 0 1 1.85-.375zM11.41 18.003l1.637-1.676a3.26 3.26 0 0 0 1.796 1.83l-1.641 1.671zm9.697-6.137-1.641 1.672a3.2 3.2 0 0 0-.71-1.098 3.2 3.2 0 0 0-1.081-.727l1.64-1.672zm-.687 7.942a1.7 1.7 0 0 1 1.569-1.067c.687 0 1.306.421 1.569 1.067.262.647.117 1.39-.368 1.885a1.68 1.68 0 0 1-1.201.508 1.68 1.68 0 0 1-1.2-.508 1.75 1.75 0 0 1-.369-1.885M9.035 8.51a1.7 1.7 0 0 1 1.569-1.068c.687 0 1.306.421 1.569 1.068.262.646.117 1.39-.368 1.885a1.68 1.68 0 0 1-1.201.507 1.68 1.68 0 0 1-1.2-.507 1.75 1.75 0 0 1-.369-1.885M19.18 19.754l-1.645-1.667a3.26 3.26 0 0 0 1.796-1.83l1.64 1.672-1.79 1.825zm-5.841-9.81 1.64 1.673a3.2 3.2 0 0 0-1.077.723c-.308.314-.551.69-.714 1.102l-1.64-1.672 1.79-1.825zm2.942-1.481c-.939 0-1.7-.775-1.7-1.732 0-.956.761-1.731 1.7-1.731.45 0 .883.182 1.202.507s.498.765.497 1.224c0 .957-.76 1.732-1.7 1.732zm1.7 14.806c0 .956-.762 1.731-1.7 1.731-.939 0-1.7-.775-1.7-1.731s.761-1.732 1.7-1.732c.45 0 .883.182 1.202.507s.498.765.497 1.225zm-1.083-13.9v2.144a3.1 3.1 0 0 0-1.07 0V9.369zm0 9.212v2.145h-1.07V18.58c.354.063.716.063 1.07 0zm5.332-3.392a1.76 1.76 0 0 1 .369-1.887 1.68 1.68 0 0 1 1.852-.376c.635.268 1.049.9 1.049 1.6 0 .46-.179.9-.497 1.225a1.683 1.683 0 0 1-2.773-.562M6.5 14.82c0-.956.76-1.731 1.7-1.731.938 0 1.699.774 1.7 1.73 0 .46-.18.9-.498 1.225a1.68 1.68 0 0 1-1.202.507c-.939 0-1.7-.775-1.7-1.73zm15.083.545-2.104-.002a3.3 3.3 0 0 0 0-1.09h2.104zm-8.643 0h-2.105v-1.09h2.105a3.3 3.3 0 0 0 0 1.09m3.29 2.037c-1.331 0-2.41-1.099-2.41-2.454s1.079-2.455 2.41-2.455c1.33 0 2.409 1.1 2.41 2.455 0 1.355-1.08 2.454-2.41 2.454"/></defs><g fill="none" fill-rule="evenodd"><use xlink:href="#blz_svg-a" fill="#000" filter="url(#blz_svg-b)"/><use xlink:href="#blz_svg-a" fill="#18578C"/><use xlink:href="#blz_svg-a" fill="url(#blz_svg-c)" style="mix-blend-mode:soft-light"/><circle cx="16" cy="15" r="14.5" stroke="#000" stroke-opacity=".097"/><g fill-rule="nonzero"><use xlink:href="#blz_svg-d" fill="#000" filter="url(#blz_svg-e)"/><use xlink:href="#blz_svg-d" fill="#FFF" fill-rule="evenodd"/></g></g></svg>