<svg xmlns="http://www.w3.org/2000/svg" xmlns:xlink="http://www.w3.org/1999/xlink" width="32" height="32" viewBox="0 0 32 32"><defs><linearGradient id="booty_svg-c" x1="50%" x2="50%" y1="0%" y2="100%"><stop offset="0%" stop-color="#FFF" stop-opacity=".5"/><stop offset="100%" stop-opacity=".5"/></linearGradient><filter id="booty_svg-b" width="111.7%" height="111.7%" x="-5.8%" y="-4.2%" filterUnits="objectBoundingBox"><feOffset dy=".5" in="SourceAlpha" result="shadowOffsetOuter1"/><feGaussianBlur in="shadowOffsetOuter1" result="shadowBlurOuter1" stdDeviation=".5"/><feComposite in="shadowBlurOuter1" in2="SourceAlpha" operator="out" result="shadowBlurOuter1"/><feColorMatrix in="shadowBlurOuter1" values="0 0 0 0 0 0 0 0 0 0 0 0 0 0 0 0 0 0 0.199473505 0"/></filter><circle id="booty_svg-a" cx="15" cy="15" r="15"/></defs><g fill="none"><g transform="translate(1)"><use xlink:href="#booty_svg-a" fill="#000" filter="url(#booty_svg-b)"/><use xlink:href="#booty_svg-a" fill="#00B4F4"/><use xlink:href="#booty_svg-a" fill="url(#booty_svg-c)" style="mix-blend-mode:soft-light"/><circle cx="15" cy="15" r="14.5" stroke="#000" stroke-linejoin="square" stroke-opacity=".097"/></g><path fill="#FEFFFF" d="M8.459 21.398v.144H6.982v-2.708l-.046.15-1.411-.431.797-2.609-.098.146L5 15.264l1.53-2.267-.146.118-.93-1.147 2.201-1.782-.28.108-.53-1.379 2.629-1.009-.308.022-.102-1.473 2.752-.192-.249-.057.332-1.439 2.63.607-.166-.096L15.1 4l2.293 1.324-.09-.096 1.08-1.007 1.786 1.915-.038-.078 1.327-.647 1.146 2.348-.01-.065 1.457-.231.43 2.712.03-.193 1.459.23-.436 2.754.107-.221 1.327.647-1.228 2.518.18-.192L27 16.725l-1.909 2.047.231-.134.738 1.279-2.399 1.385.241-.056.333 1.438-2.652.612.205.015-.103 1.472-2.654-.185.135.052-.53 1.378-2.54-.975.161.13-.929 1.147-2.097-1.698.104.154-1.224.825-1.5-2.222.045.146-1.412.432zm0-1.754.922-.282.716 2.344.798-.538 1.362 2.02.609-.751 1.888 1.529.338-.88 2.276.873.066-.953 2.436.17-.22-.948 2.388-.552-.495-.856 2.131-1.23-.73-.68 1.683-1.806-.898-.438 1.083-2.219-.982-.156.386-2.437-.94.15-.385-2.437-.846.413-1.075-2.204-.69.643-1.662-1.783-.476.824-2.105-1.215-.218.942-2.368-.547.069.984-2.431.17.359.936-2.29.879.617.76-1.922 1.556.811.547-1.385 2.054.933.285-.723 2.367h.97zm3.262-9.028H14.7q.519 0 1.032.073.512.074.902.293.39.22.592.615.203.394.113 1.048-.091.678-.536 1.122a2.54 2.54 0 0 1-1.088.638v.022q.383.057.682.22.3.164.49.417.193.255.271.592.079.339.023.722-.09.631-.418 1.054-.326.423-.789.683a3.5 3.5 0 0 1-1.015.372 5.4 5.4 0 0 1-1.083.112h-3.27zm1.309 3.191h1.274q.202 0 .406-.045.202-.046.378-.147a.9.9 0 0 0 .293-.27.9.9 0 0 0 .152-.406.7.7 0 0 0-.05-.412.6.6 0 0 0-.243-.254 1.2 1.2 0 0 0-.367-.13 2 2 0 0 0-.411-.039h-1.196zm-.463 3.304h1.58q.201 0 .422-.045a1.17 1.17 0 0 0 .716-.451.9.9 0 0 0 .17-.44q.034-.282-.08-.457a.7.7 0 0 0-.315-.265 1.7 1.7 0 0 0-.446-.124 3 3 0 0 0-.457-.034h-1.33zm8.488-6.369-1.867 6.82-1.541-.108 1.162-7.031zm-1.627 7.532-.486 2.41-2.05-.598.47-2.312z"/></g></svg>