<svg xmlns="http://www.w3.org/2000/svg" xmlns:xlink="http://www.w3.org/1999/xlink" width="32" height="32" viewBox="0 0 32 32"><defs><filter id="bos_svg-b" width="111.7%" height="111.7%" x="-5.8%" y="-4.2%" filterUnits="objectBoundingBox"><feOffset dy=".5" in="SourceAlpha" result="shadowOffsetOuter1"/><feGaussianBlur in="shadowOffsetOuter1" result="shadowBlurOuter1" stdDeviation=".5"/><feComposite in="shadowBlurOuter1" in2="SourceAlpha" operator="out" result="shadowBlurOuter1"/><feColorMatrix in="shadowBlurOuter1" values="0 0 0 0 0 0 0 0 0 0 0 0 0 0 0 0 0 0 0.199473505 0"/></filter><filter id="bos_svg-e" width="126.9%" height="119.4%" x="-13.5%" y="-6.9%" filterUnits="objectBoundingBox"><feOffset dy=".5" in="SourceAlpha" result="shadowOffsetOuter1"/><feGaussianBlur in="shadowOffsetOuter1" result="shadowBlurOuter1" stdDeviation=".5"/><feColorMatrix in="shadowBlurOuter1" values="0 0 0 0 0 0 0 0 0 0 0 0 0 0 0 0 0 0 0.204257246 0"/></filter><linearGradient id="bos_svg-c" x1="50%" x2="50%" y1="0%" y2="100%"><stop offset="0%" stop-color="#FFF" stop-opacity=".5"/><stop offset="100%" stop-opacity=".5"/></linearGradient><circle id="bos_svg-a" cx="16" cy="15" r="15"/><path id="bos_svg-d" d="M14.432 17.95v-1.917h2.954q2.955 0 2.955-1.476V9.393q0-1.475-2.955-1.475H12.66v3.098H10V6h7.09Q23 6 23 9.246v5.459q0 3.246-5.91 3.246h-2.658zm5.909 1.181H23v1.623Q23 24 17.09 24H10V12.492h7.09q.624 0 1.183.036v1.921a9 9 0 0 0-.887-.04H12.66v7.673h4.727q2.955 0 2.955-1.475V19.13z"/></defs><g fill="none" fill-rule="evenodd"><use xlink:href="#bos_svg-a" fill="#000" filter="url(#bos_svg-b)"/><use xlink:href="#bos_svg-a" fill="#00A8D6"/><use xlink:href="#bos_svg-a" fill="url(#bos_svg-c)" style="mix-blend-mode:soft-light"/><circle cx="16" cy="15" r="14.5" stroke="#000" stroke-opacity=".097"/><use xlink:href="#bos_svg-d" fill="#000" filter="url(#bos_svg-e)"/><use xlink:href="#bos_svg-d" fill="#FFF"/></g></svg>