<svg xmlns="http://www.w3.org/2000/svg" xmlns:xlink="http://www.w3.org/1999/xlink" width="32" height="32" viewBox="0 0 32 32"><defs><filter id="brd_svg-b" width="111.7%" height="111.7%" x="-5.8%" y="-4.2%" filterUnits="objectBoundingBox"><feOffset dy=".5" in="SourceAlpha" result="shadowOffsetOuter1"/><feGaussianBlur in="shadowOffsetOuter1" result="shadowBlurOuter1" stdDeviation=".5"/><feComposite in="shadowBlurOuter1" in2="SourceAlpha" operator="out" result="shadowBlurOuter1"/><feColorMatrix in="shadowBlurOuter1" values="0 0 0 0 0 0 0 0 0 0 0 0 0 0 0 0 0 0 0.199473505 0"/></filter><filter id="brd_svg-e" width="120.6%" height="121.9%" x="-10.3%" y="-7.8%" filterUnits="objectBoundingBox"><feOffset dy=".5" in="SourceAlpha" result="shadowOffsetOuter1"/><feGaussianBlur in="shadowOffsetOuter1" result="shadowBlurOuter1" stdDeviation=".5"/><feColorMatrix in="shadowBlurOuter1" values="0 0 0 0 0 0 0 0 0 0 0 0 0 0 0 0 0 0 0.204257246 0"/></filter><linearGradient id="brd_svg-c" x1="50%" x2="50%" y1="0%" y2="100%"><stop offset="0%" stop-color="#FFF" stop-opacity=".5"/><stop offset="100%" stop-opacity=".5"/></linearGradient><circle id="brd_svg-a" cx="16" cy="15" r="15"/><path id="brd_svg-d" d="M8 8.039C8 7.465 8.472 7 9.054 7h7.588c4.476 0 6.055.528 7.143 1.601a3.43 3.43 0 0 1 .98 2.606c0 1.851-.997 3.106-3.687 3.657 2.598.454 3.917 1.51 3.917 3.634a3.6 3.6 0 0 1-1.02 2.696C22.91 22.244 21.17 23 16.487 23H9.054A1.047 1.047 0 0 1 8 21.961zm5.761 5.962c0-.383.315-.693.703-.693h2.443c1.394 0 2.437-.068 2.92-.568a1.18 1.18 0 0 0 .323-.891c.03-.32-.078-.638-.3-.875-.49-.482-1.532-.567-2.943-.567H12.36v9.232h4.5c1.532 0 2.667-.114 3.197-.642.244-.25.37-.59.346-.937.022-.353-.103-.7-.346-.96-.536-.527-1.67-.567-3.197-.567h-2.38a.7.7 0 0 1-.516-.205.7.7 0 0 1-.204-.51z"/></defs><g fill="none" fill-rule="evenodd"><use xlink:href="#brd_svg-a" fill="#000" filter="url(#brd_svg-b)"/><use xlink:href="#brd_svg-a" fill="#FE5D86"/><use xlink:href="#brd_svg-a" fill="url(#brd_svg-c)" style="mix-blend-mode:soft-light"/><circle cx="16" cy="15" r="14.5" stroke="#000" stroke-opacity=".097"/><g fill-rule="nonzero"><use xlink:href="#brd_svg-d" fill="#000" filter="url(#brd_svg-e)"/><use xlink:href="#brd_svg-d" fill="#FFF" fill-rule="evenodd"/></g></g></svg>