<svg xmlns="http://www.w3.org/2000/svg" xmlns:xlink="http://www.w3.org/1999/xlink" width="32" height="32" viewBox="0 0 32 32"><defs><linearGradient id="btch_svg-c" x1="50%" x2="50%" y1="0%" y2="100%"><stop offset="0%" stop-color="#FFF" stop-opacity=".5"/><stop offset="100%" stop-opacity=".5"/></linearGradient><filter id="btch_svg-b" width="111.7%" height="111.7%" x="-5.8%" y="-4.2%" filterUnits="objectBoundingBox"><feOffset dy=".5" in="SourceAlpha" result="shadowOffsetOuter1"/><feGaussianBlur in="shadowOffsetOuter1" result="shadowBlurOuter1" stdDeviation=".5"/><feComposite in="shadowBlurOuter1" in2="SourceAlpha" operator="out" result="shadowBlurOuter1"/><feColorMatrix in="shadowBlurOuter1" values="0 0 0 0 0 0 0 0 0 0 0 0 0 0 0 0 0 0 0.199473505 0"/></filter><circle id="btch_svg-a" cx="15" cy="15" r="15"/></defs><g fill="none" fill-rule="evenodd"><g fill-rule="nonzero" transform="translate(1)"><use xlink:href="#btch_svg-a" fill="#000" filter="url(#btch_svg-b)"/><use xlink:href="#btch_svg-a" fill="#4700C2"/><use xlink:href="#btch_svg-a" fill="url(#btch_svg-c)" style="mix-blend-mode:soft-light"/><circle cx="15" cy="15" r="14.5" stroke="#000" stroke-linejoin="square" stroke-opacity=".097"/></g><g fill="#FFF"><path d="M13.94 13.564c-.275.18-.592.37-.919.57v1.796q.445-.227.919-.453zm-4.593 3.323a.69.69 0 0 0 .924.302l.859-.433c.005-.723.008-1.27.008-1.489v-.057l-1.494.747a.69.69 0 0 0-.297.93m4.852-.183a.685.685 0 0 0 .684.687h.008c.38 0 .687-.308.687-.687v-5.691a.688.688 0 0 0-.777-.681.683.683 0 0 0-.6.678v2.843q-.003 1.43-.002 2.85z"/><path d="M23.987 12.296c-.044-.332-.264-.517-.6-.605a3.5 3.5 0 0 0-.823-.084c-.654-.003-1.303.103-1.946.229a26 26 0 0 0-2.753.692q-.408.128-.815.26l-.003-.012.05-.04q.786-.676 1.577-1.345a28 28 0 0 0 3.181-3.194c.265-.308.494-.638.611-1.014.177-.564-.022-.916-.594-1.074a3 3 0 0 0-.742-.082c-.545-.002-1.084.087-1.616.197a24 24 0 0 0-1.905.485c-.873.267-1.95.725-2.911 1.115-.491.19-1.014.436-1.502.626l-1.848.753C8.895 10.258 8.18 9.5 8.18 9.5q0 .004.003.008l-.01-.022c-.478.94-.08 2.65 2.679 1.428.433-.169.875-.351 1.305-.517.832-.325 1.655-.725 2.489-1.047.182-.076.886-.363 1.736-.673l.526-.205c.54-.177 1.08-.354 1.63-.49.6-.156 1.123-.248 1.44-.208q.049.004.095.011c.144.02.22.096.207.197-.006.155-.256.67-2.538 2.57l-.499.428c-.256.22-.504.439-.755.657l-.21.185-.002.003-.098.087-.025.022-.024.022-.191.144-.041.036v2.412c.807-.275 4.735-1.587 5.157-1.202.033.043.532.354-4.034 3.478-.18.136-.354.272-.534.409l-.66.504c-.826.597-1.646 1.197-2.472 1.793l-.357.26c-.006.65-.008 1.275-.011 1.847l8.711-6.427a17 17 0 0 0 1.508-1.436c.267-.286.507-.589.665-.935.081-.18.141-.355.117-.543M9.794 22.183a.736.736 0 0 0 .046.973.73.73 0 0 0 .905.125l.35-.256c.002-.523.007-1.161.013-1.848l-1.178.872a.8.8 0 0 0-.136.134"/><path d="M12.768 12.174a.69.69 0 0 0-.665-.51q-.045 0-.09.006a.683.683 0 0 0-.6.678v2.843c0 .575-.024 3.43-.046 5.798a599 599 0 0 0-.022 3.238.685.685 0 0 0 .684.687h.008c.38 0 .687-.308.687-.687 0-.477.006-1.347.011-2.412l.011-1.848c.02-2.963.046-6.455.044-7.619a1 1 0 0 0-.022-.174"/></g></g></svg>