<svg xmlns="http://www.w3.org/2000/svg" xmlns:xlink="http://www.w3.org/1999/xlink" width="32" height="32" viewBox="0 0 32 32"><defs><filter id="btcz_svg-b" width="111.7%" height="111.7%" x="-5.8%" y="-4.2%" filterUnits="objectBoundingBox"><feOffset dy=".5" in="SourceAlpha" result="shadowOffsetOuter1"/><feGaussianBlur in="shadowOffsetOuter1" result="shadowBlurOuter1" stdDeviation=".5"/><feComposite in="shadowBlurOuter1" in2="SourceAlpha" operator="out" result="shadowBlurOuter1"/><feColorMatrix in="shadowBlurOuter1" values="0 0 0 0 0 0 0 0 0 0 0 0 0 0 0 0 0 0 0.199473505 0"/></filter><filter id="btcz_svg-e" width="115.9%" height="115.9%" x="-8%" y="-5.7%" filterUnits="objectBoundingBox"><feOffset dy=".5" in="SourceAlpha" result="shadowOffsetOuter1"/><feGaussianBlur in="shadowOffsetOuter1" result="shadowBlurOuter1" stdDeviation=".5"/><feColorMatrix in="shadowBlurOuter1" values="0 0 0 0 0 0 0 0 0 0 0 0 0 0 0 0 0 0 0.204257246 0"/></filter><linearGradient id="btcz_svg-c" x1="50%" x2="50%" y1="0%" y2="100%"><stop offset="0%" stop-color="#FFF" stop-opacity=".5"/><stop offset="100%" stop-opacity=".5"/></linearGradient><circle id="btcz_svg-a" cx="16" cy="15" r="15"/><path id="btcz_svg-d" d="M16 26C9.934 26 5 21.066 5 15S9.937 4 16 4s11 4.937 11 11c0 1.002-.136 2-.405 2.966a.888.888 0 0 1-1.71-.478c.225-.81.34-1.647.339-2.488 0-5.086-4.138-9.224-9.224-9.224S6.776 9.914 6.776 15s4.138 9.224 9.224 9.224c.952 0 1.899-.146 2.806-.435a.888.888 0 1 1 .538 1.692A11 11 0 0 1 16 26m3.375-11.026q.57.477.768 1.379c.086.346.08.709-.016 1.052a2.1 2.1 0 0 1-.494.85 3.1 3.1 0 0 1-.868.637c-.342.177-.423.234-.831.324l-.254.061a.296.296 0 0 0-.219.352l.15.672a.296.296 0 0 1-.226.353l-.677.15a.296.296 0 0 1-.353-.225l-.148-.667a.296.296 0 0 0-.353-.225l-1.833.406a.72.72 0 0 1-.86-.55l-1.65-7.459a.72.72 0 0 1 .55-.86l1.833-.406a.296.296 0 0 0 .225-.353l-.15-.672a.296.296 0 0 1 .227-.352l.677-.15a.296.296 0 0 1 .353.225l.148.668a.296.296 0 0 0 .353.224l.56-.122c.29-.068.593-.063.88.015.274.075.53.203.753.377a2.54 2.54 0 0 1 .894 1.434c.094.42.075.858-.054 1.27a2.06 2.06 0 0 1-.767 1.06c.506.024.99.21 1.382.532m-5.43-1.597.098.426a.72.72 0 0 0 .86.55l1.307-.29a.92.92 0 0 0 .55-.357q.212-.282.107-.757-.098-.438-.38-.624a.77.77 0 0 0-.612-.114l-1.38.305a.72.72 0 0 0-.55.861m3.909 3.767h.002a.95.95 0 0 0 .11-.745 1.1 1.1 0 0 0-.393-.647.76.76 0 0 0-.663-.156l-1.656.367a.72.72 0 0 0-.55.86l.116.527a.72.72 0 0 0 .861.55l1.569-.347a.92.92 0 0 0 .604-.409m3.298 5.383 1.533-1.832a.277.277 0 0 0-.213-.455H21.44a.277.277 0 0 1-.278-.277v-.216c0-.153.124-.277.278-.277h2.358a.277.277 0 0 1 .277.277v.284a.28.28 0 0 1-.06.172l-1.467 1.842a.277.277 0 0 0 .217.45h1.051c.153 0 .278.124.278.277v.215a.277.277 0 0 1-.278.277h-2.452a.277.277 0 0 1-.277-.277v-.28a.28.28 0 0 1 .065-.18"/></defs><g fill="none"><use xlink:href="#btcz_svg-a" fill="#000" filter="url(#btcz_svg-b)"/><use xlink:href="#btcz_svg-a" fill="#F8C24A" fill-rule="evenodd"/><use xlink:href="#btcz_svg-a" fill="url(#btcz_svg-c)" fill-rule="evenodd" style="mix-blend-mode:soft-light"/><circle cx="16" cy="15" r="14.5" stroke="#000" stroke-opacity=".097"/><use xlink:href="#btcz_svg-d" fill="#000" filter="url(#btcz_svg-e)"/><use xlink:href="#btcz_svg-d" fill="#FFF" fill-rule="evenodd"/></g></svg>