<svg xmlns="http://www.w3.org/2000/svg" xmlns:xlink="http://www.w3.org/1999/xlink" width="32" height="32" viewBox="0 0 32 32"><defs><linearGradient id="btdx_svg-c" x1="50%" x2="50%" y1="0%" y2="100%"><stop offset="0%" stop-color="#FFF" stop-opacity=".5"/><stop offset="100%" stop-opacity=".5"/></linearGradient><filter id="btdx_svg-b" width="111.7%" height="111.7%" x="-5.8%" y="-4.2%" filterUnits="objectBoundingBox"><feOffset dy=".5" in="SourceAlpha" result="shadowOffsetOuter1"/><feGaussianBlur in="shadowOffsetOuter1" result="shadowBlurOuter1" stdDeviation=".5"/><feComposite in="shadowBlurOuter1" in2="SourceAlpha" operator="out" result="shadowBlurOuter1"/><feColorMatrix in="shadowBlurOuter1" values="0 0 0 0 0 0 0 0 0 0 0 0 0 0 0 0 0 0 0.199473505 0"/></filter><circle id="btdx_svg-a" cx="15" cy="15" r="15"/></defs><g fill="none"><g transform="translate(1)"><use xlink:href="#btdx_svg-a" fill="#000" filter="url(#btdx_svg-b)"/><use xlink:href="#btdx_svg-a" fill="#0AF" fill-rule="evenodd"/><use xlink:href="#btdx_svg-a" fill="url(#btdx_svg-c)" fill-rule="evenodd" style="mix-blend-mode:soft-light"/><circle cx="15" cy="15" r="14.5" stroke="#000" stroke-linejoin="square" stroke-opacity=".097"/></g><g fill="#FFF"><path d="M15.964 4.791c-5.619 0-10.173 4.554-10.173 10.173 0 5.62 4.554 10.176 10.173 10.176 5.62 0 10.176-4.556 10.176-10.176 0-5.619-4.556-10.173-10.176-10.173m.033 1.611a5.055 5.055 0 0 1 4.747 6.8 3.3 3.3 0 0 0-2.517.584 3.2 3.2 0 0 0 .992-2.325 3.23 3.23 0 0 0-3.224-3.227 3.226 3.226 0 0 0-3.207 2.897 5.5 5.5 0 0 0-1.834-.018 5.056 5.056 0 0 1 5.043-4.71zm1.86 9.501-1.789-1.07a.37.37 0 0 0-.385.002l-1.57.97a.37.37 0 0 0-.173.365q.028.2.018.413a2.145 2.145 0 0 1-4.288-.114 2.156 2.156 0 0 1 2.111-2.144c.65-.01 1.235.27 1.636.718.115.13.305.157.454.074l1.513-.848a.37.37 0 0 0 .19-.324v-.092a.37.37 0 0 0-.256-.352 2.147 2.147 0 0 1 .779-4.181c1.075.05 1.96.91 2.037 1.986a2.14 2.14 0 0 1-1.599 2.233.374.374 0 0 0-.284.36v.015c0 .13.069.249.178.317l1.588.977a.37.37 0 0 0 .482-.081 2.15 2.15 0 0 1 1.725-.804 2.147 2.147 0 1 1-.165 4.293 2.15 2.15 0 0 1-2.024-2.358.37.37 0 0 0-.178-.355m-6.043 5.569a5.004 5.004 0 0 1-5.006-5.006 5.004 5.004 0 0 1 5.962-4.914c.026.878.401 1.667.992 2.235a3.3 3.3 0 0 0-1.946-.634 3.314 3.314 0 0 0 0 6.627 3.31 3.31 0 0 0 3.075-2.086c.158.688.45 1.325.843 1.885a5 5 0 0 1-3.92 1.893m8.36 0a5.007 5.007 0 0 1-4.996-4.666 5.4 5.4 0 0 0 1.7-.01 3.313 3.313 0 1 0 4.211-3.514 5.4 5.4 0 0 0 .312-1.669 5.006 5.006 0 0 1-1.228 9.859z"/><path d="M16 3C9.373 3 4 8.373 4 15s5.373 12 12 12 12-5.373 12-12S22.627 3 16 3m-.036 23.097c-6.147 0-11.13-4.983-11.13-11.13s4.983-11.13 11.13-11.13 11.13 4.983 11.13 11.13-4.982 11.13-11.13 11.13"/></g></g></svg>