<svg xmlns="http://www.w3.org/2000/svg" xmlns:xlink="http://www.w3.org/1999/xlink" width="32" height="32" viewBox="0 0 32 32"><defs><filter id="btg_svg-b" width="111.7%" height="111.7%" x="-5.8%" y="-4.2%" filterUnits="objectBoundingBox"><feOffset dy=".5" in="SourceAlpha" result="shadowOffsetOuter1"/><feGaussianBlur in="shadowOffsetOuter1" result="shadowBlurOuter1" stdDeviation=".5"/><feComposite in="shadowBlurOuter1" in2="SourceAlpha" operator="out" result="shadowBlurOuter1"/><feColorMatrix in="shadowBlurOuter1" values="0 0 0 0 0 0 0 0 0 0 0 0 0 0 0 0 0 0 0.199473505 0"/></filter><filter id="btg_svg-e" width="115.9%" height="115.9%" x="-8%" y="-5.7%" filterUnits="objectBoundingBox"><feOffset dy=".5" in="SourceAlpha" result="shadowOffsetOuter1"/><feGaussianBlur in="shadowOffsetOuter1" result="shadowBlurOuter1" stdDeviation=".5"/><feColorMatrix in="shadowBlurOuter1" values="0 0 0 0 0 0 0 0 0 0 0 0 0 0 0 0 0 0 0.204257246 0"/></filter><linearGradient id="btg_svg-c" x1="50%" x2="50%" y1="0%" y2="100%"><stop offset="0%" stop-color="#FFF" stop-opacity=".5"/><stop offset="100%" stop-opacity=".5"/></linearGradient><circle id="btg_svg-a" cx="16" cy="15" r="15"/><path id="btg_svg-d" d="M16 26C9.925 26 5 21.075 5 15S9.925 4 16 4s11 4.925 11 11-4.925 11-11 11m-.988-20.26.002 2.625 1.31.002q.006-1.346 0-2.692-.657.022-1.312.065m3.152 2.667c1.152.155 2.39.331 3.307 1.108 1.401 1.257 1.22 3.896-.495 4.807 1.027.24 2.044.923 2.297 2.002.33 1.414.068 3.11-1.069 4.106-1.126.925-2.65 1.047-4.043 1.18q.007 1.227.002 2.456c2.93-.715 5.46-2.895 6.535-5.715 1.02-2.602.78-5.663-.662-8.06-1.273-2.16-3.437-3.75-5.867-4.358q-.008 1.238-.004 2.474zm-8.746-.035c1.27.06 2.54.048 3.81.046 0-.772.003-1.544-.004-2.316-1.422.461-2.688 1.288-3.807 2.27zm-1.482 1.99c-1.493 2.54-1.661 5.799-.416 8.472 1.075 2.396 3.208 4.26 5.705 5.063.005-.77.003-1.542.003-2.312-1.275-.013-2.553.034-3.825-.035.014-.71.18-1.404.423-2.071.624-.013 1.275.096 1.878-.107.352-.296.252-.785.27-1.19-.018-2.314.01-4.629-.012-6.943.023-.373-.211-.776-.6-.85-.64-.127-1.297-.077-1.944-.081-.076-.52-.084-1.047-.093-1.574a.4.4 0 0 0-.071-.308c-.366.694-.948 1.243-1.318 1.935zm7.13.101v3.412c1.141-.02 2.406.106 3.404-.556.828-.541.775-1.914-.08-2.4-.998-.592-2.216-.424-3.323-.456zm0 5.248v3.785c1.408-.114 2.988.123 4.213-.726.876-.581.771-2.019-.132-2.522-1.227-.733-2.718-.5-4.08-.537zm-.051 5.925q0 1.312-.005 2.627.684.044 1.368.06.004-1.343.002-2.687z"/></defs><g fill="none" fill-rule="evenodd"><g fill-rule="nonzero"><use xlink:href="#btg_svg-a" fill="#000" filter="url(#btg_svg-b)"/><use xlink:href="#btg_svg-a" fill="#EBA809" fill-rule="evenodd"/><use xlink:href="#btg_svg-a" fill="url(#btg_svg-c)" fill-rule="evenodd" style="mix-blend-mode:soft-light"/><circle cx="16" cy="15" r="14.5" stroke="#000" stroke-opacity=".097"/></g><use xlink:href="#btg_svg-d" fill="#000" filter="url(#btg_svg-e)"/><use xlink:href="#btg_svg-d" fill="#FFF"/></g></svg>