<svg xmlns="http://www.w3.org/2000/svg" xmlns:xlink="http://www.w3.org/1999/xlink" width="32" height="32" viewBox="0 0 32 32"><defs><filter id="btm_svg-b" width="111.7%" height="111.7%" x="-5.8%" y="-4.2%" filterUnits="objectBoundingBox"><feOffset dy=".5" in="SourceAlpha" result="shadowOffsetOuter1"/><feGaussianBlur in="shadowOffsetOuter1" result="shadowBlurOuter1" stdDeviation=".5"/><feComposite in="shadowBlurOuter1" in2="SourceAlpha" operator="out" result="shadowBlurOuter1"/><feColorMatrix in="shadowBlurOuter1" values="0 0 0 0 0 0 0 0 0 0 0 0 0 0 0 0 0 0 0.199473505 0"/></filter><filter id="btm_svg-e" width="117.5%" height="117.5%" x="-8.8%" y="-6.2%" filterUnits="objectBoundingBox"><feOffset dy=".5" in="SourceAlpha" result="shadowOffsetOuter1"/><feGaussianBlur in="shadowOffsetOuter1" result="shadowBlurOuter1" stdDeviation=".5"/><feColorMatrix in="shadowBlurOuter1" values="0 0 0 0 0 0 0 0 0 0 0 0 0 0 0 0 0 0 0.204257246 0"/></filter><linearGradient id="btm_svg-c" x1="50%" x2="50%" y1="0%" y2="100%"><stop offset="0%" stop-color="#FFF" stop-opacity=".5"/><stop offset="100%" stop-opacity=".5"/></linearGradient><circle id="btm_svg-a" cx="16" cy="15" r="15"/><path id="btm_svg-d" d="m10.827 14.376-1.745 3.698.812 3.032 2.066.552 2.564 2.567-.772.775-6.112-1.64L6 17.248l1.23-1.228 5.342-5.343zl-1.745 3.698 5.442-5.442-1.952-1.955zm2.805 2.1 5.442 5.442 3.032-.812.554-2.066 2.565-2.564.775.772-1.638 6.114L18.248 25l-6.569-6.572zm4.736-2.952-5.442-5.442-3.034.812-.552 2.063-2.565 2.567L6 12.752l1.64-6.114L13.752 5l1.228 1.23 5.34 5.34zM20.04 8.34l-2.564-2.565.772-.775 6.114 1.638L26 12.752l-6.572 6.569-1.952-1.953 5.444-5.444-.814-3.032z"/></defs><g fill="none"><use xlink:href="#btm_svg-a" fill="#000" filter="url(#btm_svg-b)"/><use xlink:href="#btm_svg-a" fill="#504C4C" fill-rule="evenodd"/><use xlink:href="#btm_svg-a" fill="url(#btm_svg-c)" fill-rule="evenodd" style="mix-blend-mode:soft-light"/><circle cx="16" cy="15" r="14.5" stroke="#000" stroke-opacity=".097"/><use xlink:href="#btm_svg-d" fill="#000" filter="url(#btm_svg-e)"/><use xlink:href="#btm_svg-d" fill="#FFF" fill-rule="evenodd"/></g></svg>