<svg xmlns="http://www.w3.org/2000/svg" xmlns:xlink="http://www.w3.org/1999/xlink" width="32" height="32" viewBox="0 0 32 32"><defs><linearGradient id="btt_svg-c" x1="50%" x2="50%" y1="0%" y2="100%"><stop offset="0%" stop-color="#FFF" stop-opacity=".5"/><stop offset="100%" stop-opacity=".5"/></linearGradient><filter id="btt_svg-b" width="111.7%" height="111.7%" x="-5.8%" y="-4.2%" filterUnits="objectBoundingBox"><feOffset dy=".5" in="SourceAlpha" result="shadowOffsetOuter1"/><feGaussianBlur in="shadowOffsetOuter1" result="shadowBlurOuter1" stdDeviation=".5"/><feComposite in="shadowBlurOuter1" in2="SourceAlpha" operator="out" result="shadowBlurOuter1"/><feColorMatrix in="shadowBlurOuter1" values="0 0 0 0 0 0 0 0 0 0 0 0 0 0 0 0 0 0 0.199473505 0"/></filter><circle id="btt_svg-a" cx="15" cy="15" r="15"/></defs><g fill="none"><g transform="translate(1)"><use xlink:href="#btt_svg-a" fill="#000" filter="url(#btt_svg-b)"/><use xlink:href="#btt_svg-a" fill="#000"/><use xlink:href="#btt_svg-a" fill="url(#btt_svg-c)" style="mix-blend-mode:soft-light"/><circle cx="15" cy="15" r="14.5" stroke="#000" stroke-linejoin="square" stroke-opacity=".097"/></g><g fill="#FFF"><path d="M26.764 12.744a11 11 0 0 0-.64-2.054 10.9 10.9 0 0 0-2.346-3.48A10.9 10.9 0 0 0 20.3 4.864a10.9 10.9 0 0 0-8.508 0 10.9 10.9 0 0 0-3.48 2.346 10.9 10.9 0 0 0-2.346 3.48 10.9 10.9 0 0 0 0 8.508c.27.651.618 1.268 1.01 1.863.393.584.842 1.123 1.336 1.617a10.9 10.9 0 0 0 3.48 2.345 10.9 10.9 0 0 0 8.508 0 10.9 10.9 0 0 0 3.48-2.346 10.9 10.9 0 0 0 2.345-3.479 10.9 10.9 0 0 0 .64-6.454zM16.056 24.518c-5.287 0-9.563-4.287-9.563-9.563 0-5.275 4.288-9.563 9.563-9.563s9.563 4.288 9.563 9.563-4.287 9.563-9.563 9.563"/><path d="M16.224 23.688h.259c.045 0 .09 0 .134-.011h.012c.044 0 .078 0 .123-.012h.034c.033 0 .067 0 .1-.01h.034c.034 0 .068-.012.113-.012h.022c.045 0 .09-.011.135-.011s.078-.012.123-.023h.023c.033 0 .067-.011.1-.011h.023c.045-.011.079-.011.124-.022.09-.012.18-.034.258-.057h.022c.034-.01.079-.01.113-.022h.01l.259-.067a10 10 0 0 1-2.503-.236c-1.235-.27-2.413-.752-3.412-1.583a6.92 6.92 0 0 1-2.492-5.376 6.53 6.53 0 0 1 1.538-4.176c1.28-1.515 3.097-2.312 4.96-2.357h.259V8.209h-.292a8.4 8.4 0 0 0-1.684.202c-.56.124-1.1.315-1.616.55a8.3 8.3 0 0 0-1.482.898 8 8 0 0 0-1.29 1.235c-.36.426-.674.887-.932 1.38-.258.472-.46.977-.617 1.493a8 8 0 0 0-.303 1.56l-.034.494v.292a8.4 8.4 0 0 0 .202 1.684c.123.561.314 1.1.55 1.616.28.618.786 1.527 1.538 2.211a8.68 8.68 0 0 0 5.387 1.864z"/><path d="M18.671 22.251a11.4 11.4 0 0 1-1.65-.18c-2.312-.415-4.299-1.83-5.028-3.962-.887-2.593.471-5.399 3.053-6.252a4.8 4.8 0 0 1 1.526-.247c.663 0 1.325.135 1.931.382l.629-1.336a12 12 0 0 0-.573-.213 6.6 6.6 0 0 0-1.987-.303c-.673 0-1.346.112-1.986.325-.82.27-1.572.707-2.212 1.28-.303.27-.594.584-.841.91q-.37.488-.64 1.043a6.3 6.3 0 0 0-.629 2.368 6.4 6.4 0 0 0 .337 2.515c.28.819.73 1.571 1.347 2.233.55.595 1.19 1.044 1.964 1.46.808.426 1.807.65 2.851.796.674.09 1.572.113 2.1.113.46-.169.65-.247.897-.348.213-.101.427-.202.64-.326.213-.123.247-.146.606-.381.034-.023.067-.045.09-.068-1.235.213-1.55.202-2.425.191"/><path d="M21.433 20.579c-.348.022-.842.056-1.403.056-1 0-2.223-.09-3.267-.438-1.616-.539-3.143-1.92-3.143-3.626a3.073 3.073 0 0 1 3.076-3.075c1.156 0 2.155.64 2.683 1.571l1.335-.662a4.3 4.3 0 0 0-.797-1.066 4.55 4.55 0 0 0-6.443 0 4.55 4.55 0 0 0-1.336 3.221c0 .618.135 1.235.394 1.819q.352.774.976 1.448c.73.785 1.729 1.414 2.795 1.773 1.021.337 2.526.46 3.985.36a8 8 0 0 0 1.223-.18 8.4 8.4 0 0 0 1.347-1.336c-.348.034-.988.1-1.425.135"/></g></g></svg>