<svg xmlns="http://www.w3.org/2000/svg" xmlns:xlink="http://www.w3.org/1999/xlink" width="32" height="32" viewBox="0 0 32 32"><defs><linearGradient id="call_svg-c" x1="50%" x2="50%" y1="0%" y2="100%"><stop offset="0%" stop-color="#FFF" stop-opacity=".5"/><stop offset="100%" stop-opacity=".5"/></linearGradient><filter id="call_svg-b" width="111.7%" height="111.7%" x="-5.8%" y="-4.2%" filterUnits="objectBoundingBox"><feOffset dy=".5" in="SourceAlpha" result="shadowOffsetOuter1"/><feGaussianBlur in="shadowOffsetOuter1" result="shadowBlurOuter1" stdDeviation=".5"/><feComposite in="shadowBlurOuter1" in2="SourceAlpha" operator="out" result="shadowBlurOuter1"/><feColorMatrix in="shadowBlurOuter1" values="0 0 0 0 0 0 0 0 0 0 0 0 0 0 0 0 0 0 0.199473505 0"/></filter><circle id="call_svg-a" cx="15" cy="15" r="15"/></defs><g fill="none"><g transform="translate(1)"><use xlink:href="#call_svg-a" fill="#000" filter="url(#call_svg-b)"/><use xlink:href="#call_svg-a" fill="#FBB413"/><use xlink:href="#call_svg-a" fill="url(#call_svg-c)" style="mix-blend-mode:soft-light"/><circle cx="15" cy="15" r="14.5" stroke="#000" stroke-linejoin="square" stroke-opacity=".097"/></g><g fill="#FFF"><path d="M16.016 20.32a4.2 4.2 0 0 0 1.78-.308q.335-.12.636-.313a.166.166 0 0 1 .247.031l1.447 1.49c.105.108.1.143-.023.228a7 7 0 0 1-1.625.822 7.7 7.7 0 0 1-2.207.409 7.7 7.7 0 0 1-2.826-.386 7 7 0 0 1-2.15-1.208 8 8 0 0 1-1.505-1.652 6.5 6.5 0 0 1-.613-1.073 11 11 0 0 1-.348-.907 8 8 0 0 1-.324-1.733 5.2 5.2 0 0 1 .02-1.297 9 9 0 0 1 .223-1.262 8 8 0 0 1 .749-1.818 7.4 7.4 0 0 1 2.949-2.84 7.3 7.3 0 0 1 1.47-.603q.623-.185 1.27-.247a5 5 0 0 1 1-.023q.088.006.177 0c.546.014 1.087.1 1.61.255a6 6 0 0 1 1.285.506q.647.32 1.208.771c.073.066.131.035.19-.027l.89-.941 1.286-1.367c.15-.162.19-.166.351-.019q.745.67 1.367 1.455c.524.651.97 1.361 1.331 2.115.289.623.526 1.269.71 1.93.155.544.205 1.1.325 1.644v.031c0 .506.111 1.011.057 1.517-.061.575-.092 1.158-.212 1.725q-.153.716-.386 1.409a10.9 10.9 0 0 1-1.679 3.18c-.112.147-.146.15-.274 0-.424-.428-.849-.864-1.277-1.289-.09-.089-.078-.158 0-.254a8.8 8.8 0 0 0 1.088-2.054c.243-.684.41-1.394.498-2.115q.08-.83.035-1.663a6 6 0 0 0-.112-.938 8.7 8.7 0 0 0-1.505-3.52c-.082-.116-.182-.22-.255-.344s-.081-.089-.15-.02c-.41.414-.83.815-1.228 1.236-.14.147-.297.262-.429.413-.13.15-.289.293-.436.44l-.447.448c-.07.07-.124.042-.17-.023a5 5 0 0 0-1.432-1.39 4.8 4.8 0 0 0-1.803-.695 5.4 5.4 0 0 0-1.513-.019 4.7 4.7 0 0 0-1.76.556 4.9 4.9 0 0 0-1.505 1.281 5 5 0 0 0-.814 1.51 6 6 0 0 0-.274 2.002 4.83 4.83 0 0 0 1.266 3.293 5.1 5.1 0 0 0 1.775 1.27 4.55 4.55 0 0 0 2.042.382z"/><path d="m24.284 22.068-3.906-3.975c-.085-.089-.154-.093-.224 0-.276.402-.61.761-.992 1.065-.092.074-.092.131 0 .216.352.352.699.71 1.046 1.062l1.359 1.378c.081.08.077.12 0 .189-.181.135-.359.274-.548.386a8.5 8.5 0 0 1-3.296 1.366c-.46.104-.93.159-1.401.162h-.19a5 5 0 0 1-.999-.03c-.386-.059-.749-.105-1.115-.186a8 8 0 0 1-1.36-.436 8.8 8.8 0 0 1-2.08-1.224 9 9 0 0 1-1.663-1.706 8.4 8.4 0 0 1-1.189-2.196 7.3 7.3 0 0 1-.525-2.42 2 2 0 0 1 0-.262v-.911a.7.7 0 0 1 0-.297c0-.074.031-.143.043-.216q.058-.513.181-1.016.16-.674.42-1.316a8.88 8.88 0 0 1 3.999-4.454 8.5 8.5 0 0 1 3.474-1.046h.224c1.27-.08 2.541.12 3.725.587l.332.139a9 9 0 0 1 1.447.807.16.16 0 0 0 .235-.024c.41-.467.842-.91 1.27-1.358.081-.085.085-.162 0-.232a11 11 0 0 0-4.782-1.976 12 12 0 0 0-1.497-.143c-.778-.012-1.554.06-2.316.216q-.732.146-1.436.386c-.835.28-1.633.662-2.374 1.14a11.2 11.2 0 0 0-2.389 2.049 10.9 10.9 0 0 0-2.111 3.604 12.4 12.4 0 0 0-.46 1.718 15 15 0 0 0-.173 1.544 8 8 0 0 0 .077 1.663q.09.822.313 1.618c.104.358.208.717.343 1.065.27.697.608 1.366 1.012 1.995a11.7 11.7 0 0 0 1.763 2.123q.651.601 1.39 1.088c.658.45 1.365.825 2.107 1.116.74.293 1.51.503 2.297.625q.884.132 1.779.155c.386 0 .772-.062 1.135-.07a5.5 5.5 0 0 0 .814-.123c.297-.05.59-.128.884-.205a10.4 10.4 0 0 0 3.088-1.374 11.2 11.2 0 0 0 2.315-1.976c.112-.128.109-.15-.046-.29"/></g></g></svg>