<svg xmlns="http://www.w3.org/2000/svg" xmlns:xlink="http://www.w3.org/1999/xlink" width="32" height="32" viewBox="0 0 32 32"><defs><linearGradient id="cc_svg-c" x1="50%" x2="50%" y1="0%" y2="100%"><stop offset="0%" stop-color="#FFF" stop-opacity=".5"/><stop offset="100%" stop-opacity=".5"/></linearGradient><filter id="cc_svg-b" width="111.7%" height="111.7%" x="-5.8%" y="-4.2%" filterUnits="objectBoundingBox"><feOffset dy=".5" in="SourceAlpha" result="shadowOffsetOuter1"/><feGaussianBlur in="shadowOffsetOuter1" result="shadowBlurOuter1" stdDeviation=".5"/><feComposite in="shadowBlurOuter1" in2="SourceAlpha" operator="out" result="shadowBlurOuter1"/><feColorMatrix in="shadowBlurOuter1" values="0 0 0 0 0 0 0 0 0 0 0 0 0 0 0 0 0 0 0.199473505 0"/></filter><circle id="cc_svg-a" cx="15" cy="15" r="15"/></defs><g fill="none" fill-rule="evenodd"><g fill-rule="nonzero" transform="translate(1)"><use xlink:href="#cc_svg-a" fill="#000" filter="url(#cc_svg-b)"/><use xlink:href="#cc_svg-a" fill="#36B0F3"/><use xlink:href="#cc_svg-a" fill="url(#cc_svg-c)" style="mix-blend-mode:soft-light"/><circle cx="15" cy="15" r="14.5" stroke="#000" stroke-linejoin="square" stroke-opacity=".097"/></g><g fill="#FFF"><path d="M14.25 4.24a10 10 0 0 1 2.226-.19q.702 0 1.39.126c.895.123 1.757.407 2.598.726.61.273 1.251.53 1.748.994.14.1.064.303-.058.382-.285.182-.626.235-.951.306-1.463.251-2.952.364-4.389.754-.645.144-1.264.381-1.877.626-1.14.51-2.187 1.258-2.945 2.26a15 15 0 0 0-.419.645c-.12.235-.24.468-.34.713q-.108.263-.204.53c-.13.378-.193.774-.289 1.162-.03.254-.048.511-.1.763-.035.578-.018 1.156-.013 1.733 0 .193.052.382.054.575q.004.268.076.526c.092.482.203.969.407 1.42.265.638.678 1.236 1.264 1.616.488.362 1.09.516 1.68.608.788.102 1.588.009 2.364-.132q.61-.112 1.21-.273c.255-.071.516-.118.767-.204q.144-.024.292-.027c-.314.28-.63.559-.987.785-1.211.781-2.62 1.188-4.025 1.45-.636.13-1.282.208-1.922.318-.729.105-1.484.192-2.14.55a2.1 2.1 0 0 0-.486.519c-.041.083-.118 0-.165-.031-.15-.171-.341-.297-.503-.455-.173-.169-.343-.335-.51-.51-.267-.311-.54-.617-.776-.952a10 10 0 0 1-1.19-2.047l-.053-.024c-.038-.21-.144-.395-.215-.594a10 10 0 0 1-.404-1.337 4 4 0 0 1-.093-.424 2 2 0 0 1-.09-.496c-.089-.394-.071-.8-.129-1.198 0-.332-.022-.667.018-.998.045-.275.026-.556.083-.83.056-.223.045-.456.115-.675a9 9 0 0 1 .385-1.44q.097-.26.187-.52.056-.12.092-.245l.049-.058q.088-.259.226-.495a8 8 0 0 1 .298-.56 2 2 0 0 1 .103-.193c.578-.905 1.251-1.763 2.064-2.47a11.5 11.5 0 0 1 3.418-2.108c.697-.273 1.42-.475 2.159-.602z"/><path d="M22.638 7.107c.2-.117.34-.307.479-.487a11 11 0 0 1 1.192 15.538c-1.684 1.978-4.102 3.322-6.68 3.678-1.184.175-2.393.128-3.576-.034a10.3 10.3 0 0 1-2.637-.738c-.458-.202-.915-.438-1.273-.796-.092-.08-.15-.214-.09-.33.093-.142.258-.213.412-.264a11 11 0 0 1 1.36-.274c.827-.144 1.663-.236 2.482-.417 1.364-.294 2.727-.711 3.906-1.476a6.7 6.7 0 0 0 2.027-1.974c.746-1.126 1.09-2.474 1.173-3.81.041-.995.019-2-.19-2.976-.19-.843-.523-1.693-1.152-2.307-.482-.494-1.136-.802-1.813-.92-1.123-.209-2.27-.006-3.37.241-.515.122-1.023.276-1.543.375.74-.697 1.647-1.195 2.6-1.536.546-.203 1.115-.337 1.68-.47 1.24-.279 2.508-.385 3.758-.6.437-.091.88-.18 1.255-.423"/></g></g></svg>