<svg xmlns="http://www.w3.org/2000/svg" xmlns:xlink="http://www.w3.org/1999/xlink" width="32" height="32" viewBox="0 0 32 32"><defs><filter id="chat_svg-b" width="111.7%" height="111.7%" x="-5.8%" y="-4.2%" filterUnits="objectBoundingBox"><feOffset dy=".5" in="SourceAlpha" result="shadowOffsetOuter1"/><feGaussianBlur in="shadowOffsetOuter1" result="shadowBlurOuter1" stdDeviation=".5"/><feComposite in="shadowBlurOuter1" in2="SourceAlpha" operator="out" result="shadowBlurOuter1"/><feColorMatrix in="shadowBlurOuter1" values="0 0 0 0 0 0 0 0 0 0 0 0 0 0 0 0 0 0 0.199473505 0"/></filter><filter id="chat_svg-e" width="117.5%" height="118.4%" x="-8.8%" y="-6.6%" filterUnits="objectBoundingBox"><feOffset dy=".5" in="SourceAlpha" result="shadowOffsetOuter1"/><feGaussianBlur in="shadowOffsetOuter1" result="shadowBlurOuter1" stdDeviation=".5"/><feColorMatrix in="shadowBlurOuter1" values="0 0 0 0 0 0 0 0 0 0 0 0 0 0 0 0 0 0 0.204257246 0"/></filter><linearGradient id="chat_svg-c" x1="50%" x2="50%" y1="0%" y2="100%"><stop offset="0%" stop-color="#FFF" stop-opacity=".5"/><stop offset="100%" stop-opacity=".5"/></linearGradient><circle id="chat_svg-a" cx="16" cy="15" r="15"/><path id="chat_svg-d" d="M16.28 22.325a11.5 11.5 0 0 0 2.084-.34 5.7 5.7 0 0 0 2.602.17 1 1 0 0 1 .104-.008c.31 0 .717.18 1.31.56v-.625a.61.61 0 0 1 .311-.531q.388-.22.717-.499c.864-.732 1.352-1.708 1.352-2.742q-.002-.522-.159-1.006.393-.732.627-1.53A4.6 4.6 0 0 1 26 18.31c0 1.405-.654 2.715-1.785 3.673a6 6 0 0 1-.595.442v1.461c0 .503-.58.792-.989.493a15 15 0 0 0-1.2-.81 3 3 0 0 0-.368-.187q-.511.077-1.039.077c-1.412 0-2.716-.423-3.743-1.134zm-7.466-2.922C7.03 17.89 6 15.829 6 13.62c0-4.513 4.258-8.12 9.457-8.12s9.458 3.607 9.458 8.12c0 4.514-4.259 8.121-9.458 8.121q-.878 0-1.728-.135c-.245.058-1.224.64-2.635 1.67-.511.374-1.236.013-1.236-.616v-2.492a9 9 0 0 1-1.044-.765m4.949.666q.065 0 .13.01c.51.086 1.034.13 1.564.13 4.392 0 7.907-2.978 7.907-6.589 0-3.61-3.515-6.588-7.907-6.588-4.39 0-7.907 2.978-7.907 6.588 0 1.746.821 3.39 2.273 4.62q.55.464 1.196.832c.241.136.39.39.39.664v1.437c1.116-.749 1.85-1.104 2.354-1.104m-2.337-4.916c-.685 0-1.24-.55-1.24-1.226 0-.677.555-1.226 1.24-1.226s1.24.549 1.24 1.226-.555 1.226-1.24 1.226m4.031 0c-.685 0-1.24-.55-1.24-1.226 0-.677.555-1.226 1.24-1.226s1.24.549 1.24 1.226-.555 1.226-1.24 1.226m4.031 0c-.685 0-1.24-.55-1.24-1.226 0-.677.555-1.226 1.24-1.226s1.24.549 1.24 1.226-.555 1.226-1.24 1.226"/></defs><g fill="none" fill-rule="evenodd"><use xlink:href="#chat_svg-a" fill="#000" filter="url(#chat_svg-b)"/><use xlink:href="#chat_svg-a" fill="#1C98F7"/><use xlink:href="#chat_svg-a" fill="url(#chat_svg-c)" style="mix-blend-mode:soft-light"/><circle cx="16" cy="15" r="14.5" stroke="#000" stroke-opacity=".097"/><use xlink:href="#chat_svg-d" fill="#000" filter="url(#chat_svg-e)"/><use xlink:href="#chat_svg-d" fill="#FFF"/></g></svg>