<svg xmlns="http://www.w3.org/2000/svg" xmlns:xlink="http://www.w3.org/1999/xlink" width="32" height="32" viewBox="0 0 32 32"><defs><filter id="cix_svg-b" width="111.7%" height="111.7%" x="-5.8%" y="-4.2%" filterUnits="objectBoundingBox"><feOffset dy=".5" in="SourceAlpha" result="shadowOffsetOuter1"/><feGaussianBlur in="shadowOffsetOuter1" result="shadowBlurOuter1" stdDeviation=".5"/><feComposite in="shadowBlurOuter1" in2="SourceAlpha" operator="out" result="shadowBlurOuter1"/><feColorMatrix in="shadowBlurOuter1" values="0 0 0 0 0 0 0 0 0 0 0 0 0 0 0 0 0 0 0.199473505 0"/></filter><filter id="cix_svg-e" width="117.7%" height="122.8%" x="-8.9%" y="-8.1%" filterUnits="objectBoundingBox"><feOffset dy=".5" in="SourceAlpha" result="shadowOffsetOuter1"/><feGaussianBlur in="shadowOffsetOuter1" result="shadowBlurOuter1" stdDeviation=".5"/><feColorMatrix in="shadowBlurOuter1" values="0 0 0 0 0 0 0 0 0 0 0 0 0 0 0 0 0 0 0.204257246 0"/></filter><filter id="cix_svg-g" width="129.9%" height="129.3%" x="-14.9%" y="-10.5%" filterUnits="objectBoundingBox"><feOffset dy=".5" in="SourceAlpha" result="shadowOffsetOuter1"/><feGaussianBlur in="shadowOffsetOuter1" result="shadowBlurOuter1" stdDeviation=".5"/><feComposite in="shadowBlurOuter1" in2="SourceAlpha" operator="out" result="shadowBlurOuter1"/><feColorMatrix in="shadowBlurOuter1" values="0 0 0 0 0 0 0 0 0 0 0 0 0 0 0 0 0 0 0.204257246 0"/></filter><path id="cix_svg-d" d="m24.668 17.863-1.059-.663 2.31-.027.048-.026v.025l.954-.01-1.619 2.634-.145-1.27-7.364 4.063L15 18.86l-7.83 4.126v-.94l8.073-4.253 2.792 3.729 6.634-3.659zm-10.112-.905-3.06 1.611V7.644h3.06zm8.653.481-3.06 1.7V7.644h3.06z"/><path id="cix_svg-f" d="m18.883 19.843-.657.364-2.404-3.21V8.894h3.06v10.949zm-8.654-.607-3.06 1.612V10.312h3.06z"/><linearGradient id="cix_svg-c" x1="50%" x2="50%" y1="0%" y2="100%"><stop offset="0%" stop-color="#FFF" stop-opacity=".5"/><stop offset="100%" stop-opacity=".5"/></linearGradient><circle id="cix_svg-a" cx="16" cy="15" r="15"/></defs><g fill="none"><use xlink:href="#cix_svg-a" fill="#000" filter="url(#cix_svg-b)"/><use xlink:href="#cix_svg-a" fill="#0576B4" fill-rule="evenodd"/><use xlink:href="#cix_svg-a" fill="url(#cix_svg-c)" fill-rule="evenodd" style="mix-blend-mode:soft-light"/><circle cx="16" cy="15" r="14.5" stroke="#000" stroke-opacity=".097"/><use xlink:href="#cix_svg-d" fill="#000" filter="url(#cix_svg-e)"/><use xlink:href="#cix_svg-d" fill="#FFF" fill-rule="evenodd"/><use xlink:href="#cix_svg-f" fill="#000" filter="url(#cix_svg-g)"/><use xlink:href="#cix_svg-f" fill="#FFF" fill-opacity=".5" fill-rule="evenodd"/></g></svg>