<svg xmlns="http://www.w3.org/2000/svg" xmlns:xlink="http://www.w3.org/1999/xlink" width="32" height="32" viewBox="0 0 32 32"><defs><filter id="clam_svg-b" width="111.7%" height="111.7%" x="-5.8%" y="-4.2%" filterUnits="objectBoundingBox"><feOffset dy=".5" in="SourceAlpha" result="shadowOffsetOuter1"/><feGaussianBlur in="shadowOffsetOuter1" result="shadowBlurOuter1" stdDeviation=".5"/><feComposite in="shadowBlurOuter1" in2="SourceAlpha" operator="out" result="shadowBlurOuter1"/><feColorMatrix in="shadowBlurOuter1" values="0 0 0 0 0 0 0 0 0 0 0 0 0 0 0 0 0 0 0.199473505 0"/></filter><filter id="clam_svg-e" width="117.5%" height="119.4%" x="-8.8%" y="-6.9%" filterUnits="objectBoundingBox"><feOffset dy=".5" in="SourceAlpha" result="shadowOffsetOuter1"/><feGaussianBlur in="shadowOffsetOuter1" result="shadowBlurOuter1" stdDeviation=".5"/><feColorMatrix in="shadowBlurOuter1" values="0 0 0 0 0 0 0 0 0 0 0 0 0 0 0 0 0 0 0.204257246 0"/></filter><linearGradient id="clam_svg-c" x1="50%" x2="50%" y1="0%" y2="100%"><stop offset="0%" stop-color="#FFF" stop-opacity=".5"/><stop offset="100%" stop-opacity=".5"/></linearGradient><circle id="clam_svg-a" cx="16" cy="15" r="15"/><path id="clam_svg-d" d="M17.81 6.87v-.089c.177-.075.528-.146 1.132.016.691.186 1.225.88 1.47 1.254l-.002.24c-.012 1.339-.438 4.647-1.176 7.127-.645 2.167-2.052 5.05-2.338 5.626a4 4 0 0 0-.426-.067c.119-.731.638-3.987.965-6.954.347-3.148.374-6.27.374-7.152zm2.899 1.424v-.011c.26-.006.836.041 1.493.464.636.409.964 1.187 1.1 1.605l-.063.247c-.155.602-1.303 3.705-2.538 6.044-1.048 1.982-2.721 4.175-3.086 4.645a3 3 0 0 0-.425-.167c.34-.687 1.697-3.491 2.33-5.62.746-2.506 1.176-5.852 1.189-7.207m.257 8.484c1.176-2.227 2.364-5.352 2.56-6.097.259.094.815.343 1.177.837.31.422.411.993.444 1.352l-.121.282c-.234.543-1.66 3.045-3.097 4.828-1.244 1.544-3.113 3.376-3.561 3.81a3 3 0 0 0-.488-.36c.421-.544 2.053-2.697 3.086-4.652m-9.961-8.252-.035-.274c.163-.355.523-.947 1.212-1.262.75-.342 1.333-.249 1.594-.173l.002.059c.02.595.177 3.524.56 6.981.352 3.163.919 6.527 1.028 7.166q-.225.04-.441.11c-.278-.59-1.516-3.27-2.348-5.955-.928-2.995-1.46-5.775-1.572-6.652m3.071-1.66-.004-.137c.274-.246.912-.729 1.71-.729.796 0 1.448.483 1.729.73v.14c0 .879-.027 3.988-.373 7.12-.331 3.004-.86 6.307-.968 6.971l-.078-.002q-.216 0-.43.022c-.106-.615-.675-3.987-1.027-7.156-.382-3.448-.538-6.367-.559-6.96zm2.016 14.387c1.617 0 2.362.981 2.587 1.355-1.225.86-2.222 1.392-2.574 1.392s-1.227-.44-2.603-1.435c.22-.355.962-1.312 2.59-1.312m9.201-7.968c.246.16.751.591.704 1.42-.062 1.092-1.935 3.256-4.287 5.445a29 29 0 0 1-2.79 2.287 3 3 0 0 0-.341-.439c.456-.441 2.332-2.28 3.584-3.835 1.44-1.786 2.873-4.295 3.13-4.878M6.82 13.073a14 14 0 0 1-.207-.547 1.96 1.96 0 0 1 .23-.929c.342-.62 1.21-.904 1.554-.995l.002.006.037.13c.25.871.834 2.912 2.372 5.862 1.373 2.633 2.865 4.453 3.283 4.94a3 3 0 0 0-.32.251 34 34 0 0 1-3.909-3.996c-1.482-1.792-2.505-3.38-3.042-4.722m6.74 8.928q-.165.18-.3.388a46 46 0 0 1-2.53-2.03c-3.012-2.575-4.66-4.366-4.726-5.497-.05-.863.388-1.35.6-1.533.562 1.337 1.578 2.9 3.026 4.652A34 34 0 0 0 13.56 22zM8.687 10.527a10 10 0 0 1-.092-.335c.077-.366.267-.914.732-1.252a2.17 2.17 0 0 1 1.378-.411l.005.034c.113.885.648 3.688 1.582 6.7.828 2.671 2.053 5.337 2.353 5.975a3 3 0 0 0-.298.144c-.365-.422-1.879-2.243-3.272-4.916-1.525-2.924-2.103-4.945-2.35-5.808z"/></defs><g fill="none" fill-rule="evenodd"><use xlink:href="#clam_svg-a" fill="#000" filter="url(#clam_svg-b)"/><use xlink:href="#clam_svg-a" fill="#20C5D3"/><use xlink:href="#clam_svg-a" fill="url(#clam_svg-c)" style="mix-blend-mode:soft-light"/><circle cx="16" cy="15" r="14.5" stroke="#000" stroke-opacity=".097"/><g fill-rule="nonzero"><use xlink:href="#clam_svg-d" fill="#000" filter="url(#clam_svg-e)"/><use xlink:href="#clam_svg-d" fill="#FFF" fill-rule="evenodd"/></g></g></svg>