<svg xmlns="http://www.w3.org/2000/svg" xmlns:xlink="http://www.w3.org/1999/xlink" width="32" height="32" viewBox="0 0 32 32"><defs><linearGradient id="cmm_svg-c" x1="50%" x2="50%" y1="0%" y2="100%"><stop offset="0%" stop-color="#FFF" stop-opacity=".5"/><stop offset="100%" stop-opacity=".5"/></linearGradient><filter id="cmm_svg-b" width="111.7%" height="111.7%" x="-5.8%" y="-4.2%" filterUnits="objectBoundingBox"><feOffset dy=".5" in="SourceAlpha" result="shadowOffsetOuter1"/><feGaussianBlur in="shadowOffsetOuter1" result="shadowBlurOuter1" stdDeviation=".5"/><feComposite in="shadowBlurOuter1" in2="SourceAlpha" operator="out" result="shadowBlurOuter1"/><feColorMatrix in="shadowBlurOuter1" values="0 0 0 0 0 0 0 0 0 0 0 0 0 0 0 0 0 0 0.199473505 0"/></filter><circle id="cmm_svg-a" cx="15" cy="15" r="15"/></defs><g fill="none"><g transform="translate(1)"><use xlink:href="#cmm_svg-a" fill="#000" filter="url(#cmm_svg-b)"/><use xlink:href="#cmm_svg-a" fill="#2FD2E5"/><use xlink:href="#cmm_svg-a" fill="url(#cmm_svg-c)" style="mix-blend-mode:soft-light"/><circle cx="15" cy="15" r="14.5" stroke="#000" stroke-linejoin="square" stroke-opacity=".097"/></g><path fill="#FFF" d="M16.855 4.006a10.8 10.8 0 0 0-6.884 2.175 1.618 1.618 0 0 0-.1 2.504c.57.54 1.447.582 2.067.1a7.687 7.687 0 0 1 10.353.835c.54.558.557 1.44.038 2.019-.548.587-1.47.62-2.057.07l-.071-.07a4.801 4.801 0 1 0 0 6.47 1.43 1.43 0 0 1 1.705-.323 1.446 1.446 0 0 1 .423 2.264 7.713 7.713 0 0 1-10.395.913 1.62 1.62 0 0 0-2.08.1 1.637 1.637 0 0 0 .136 2.527 10.864 10.864 0 1 0 6.865-19.584m-.2 13.556a2.689 2.689 0 1 1 .02-5.377 2.689 2.689 0 0 1-.02 5.377"/></g></svg>