<svg xmlns="http://www.w3.org/2000/svg" xmlns:xlink="http://www.w3.org/1999/xlink" width="32" height="32" viewBox="0 0 32 32"><defs><filter id="cnx_svg-b" width="111.7%" height="111.7%" x="-5.8%" y="-4.2%" filterUnits="objectBoundingBox"><feOffset dy=".5" in="SourceAlpha" result="shadowOffsetOuter1"/><feGaussianBlur in="shadowOffsetOuter1" result="shadowBlurOuter1" stdDeviation=".5"/><feComposite in="shadowBlurOuter1" in2="SourceAlpha" operator="out" result="shadowBlurOuter1"/><feColorMatrix in="shadowBlurOuter1" values="0 0 0 0 0 0 0 0 0 0 0 0 0 0 0 0 0 0 0.199473505 0"/></filter><filter id="cnx_svg-d" width="115.9%" height="115.9%" x="-8%" y="-5.7%" filterUnits="objectBoundingBox"><feOffset dy=".5" in="SourceAlpha" result="shadowOffsetOuter1"/><feGaussianBlur in="shadowOffsetOuter1" result="shadowBlurOuter1" stdDeviation=".5"/><feColorMatrix in="shadowBlurOuter1" result="shadowMatrixOuter1" values="0 0 0 0 0 0 0 0 0 0 0 0 0 0 0 0 0 0 0.204257246 0"/><feMerge><feMergeNode in="shadowMatrixOuter1"/><feMergeNode in="SourceGraphic"/></feMerge></filter><linearGradient id="cnx_svg-c" x1="50%" x2="50%" y1="0%" y2="100%"><stop offset="0%" stop-color="#FFF" stop-opacity=".5"/><stop offset="100%" stop-opacity=".5"/></linearGradient><circle id="cnx_svg-a" cx="16" cy="15" r="15"/></defs><g fill="none" fill-rule="evenodd"><use xlink:href="#cnx_svg-a" fill="#000" filter="url(#cnx_svg-b)"/><use xlink:href="#cnx_svg-a" fill="#4C6BAE"/><use xlink:href="#cnx_svg-a" fill="url(#cnx_svg-c)" style="mix-blend-mode:soft-light"/><circle cx="16" cy="15" r="14.5" stroke="#000" stroke-opacity=".097"/><g fill="#FFF" filter="url(#cnx_svg-d)" transform="translate(5 4)"><path d="M1.383 12.01 0 12.153q1.11-3.105 4.391-4.968.31 2.573 2.44 4.259l-1.3.135a5.5 5.5 0 0 0 4.553 4.845 6.1 6.1 0 0 1-2.987 1.185q1.022 1.8 2.417 2.947a9.674 9.674 0 0 1-8.131-8.546m19.234-2.02L22 9.847q-1.11 3.105-4.391 4.968-.31-2.573-2.44-4.259l1.3-.135a5.5 5.5 0 0 0-4.626-4.857 6.1 6.1 0 0 1 2.972-1.173q-1.03-1.813-2.438-2.963a9.674 9.674 0 0 1 8.24 8.562" opacity=".5"/><path d="M11.922 20.626 12.065 22q-3.105-1.11-4.968-4.391 2.572-.31 4.258-2.44l.136 1.31a5.5 5.5 0 0 0 4.945-4.636 6.1 6.1 0 0 1 1.173 2.972q1.813-1.03 2.963-2.438a9.674 9.674 0 0 1-8.65 8.249M9.99 1.383 9.847 0q3.105 1.11 4.968 4.391-2.573.31-4.259 2.44l-.135-1.3a5.5 5.5 0 0 0-4.857 4.626 6.1 6.1 0 0 1-1.173-2.972q-1.813 1.03-2.963 2.438a9.674 9.674 0 0 1 8.562-8.24"/></g></g></svg>