<svg xmlns="http://www.w3.org/2000/svg" xmlns:xlink="http://www.w3.org/1999/xlink" width="32" height="32" viewBox="0 0 32 32"><defs><linearGradient id="crv_svg-c" x1="50%" x2="50%" y1="0%" y2="100%"><stop offset="0%" stop-color="#FFF" stop-opacity=".5"/><stop offset="100%" stop-opacity=".5"/></linearGradient><filter id="crv_svg-b" width="111.7%" height="111.7%" x="-5.8%" y="-4.2%" filterUnits="objectBoundingBox"><feOffset dy=".5" in="SourceAlpha" result="shadowOffsetOuter1"/><feGaussianBlur in="shadowOffsetOuter1" result="shadowBlurOuter1" stdDeviation=".5"/><feComposite in="shadowBlurOuter1" in2="SourceAlpha" operator="out" result="shadowBlurOuter1"/><feColorMatrix in="shadowBlurOuter1" values="0 0 0 0 0 0 0 0 0 0 0 0 0 0 0 0 0 0 0.199473505 0"/></filter><circle id="crv_svg-a" cx="16" cy="15" r="15"/></defs><g fill="none" fill-rule="evenodd"><use xlink:href="#crv_svg-a" fill="#000" filter="url(#crv_svg-b)"/><use xlink:href="#crv_svg-a" fill="#40649F"/><use xlink:href="#crv_svg-a" fill="url(#crv_svg-c)" style="mix-blend-mode:soft-light"/><circle cx="16" cy="15" r="14.5" stroke="#000" stroke-linejoin="square" stroke-opacity=".097"/><path fill="#FFF" d="M12.997 6.25c1.751 0 6.08.835 10.19 3.806s2.264 7.147 1.345 7.962c-.92.815-8.108 1.891-8.556 2.635s-.97 3.597-3.21 3.597-3.282-2.27-3.81-3.587c-.53-1.317-1.206-3.548-1.206-6.676S9.1 6.25 12.997 6.25m-1.394 8.279-.136.005c-1.353.101-1.99 2.085-1.847 4.247s1.773 4.004 2.756 4.004 2.44-1.306 2.15-4.13c-.291-2.825-1.706-4.223-3.059-4.121zm7.456-3.515c-1.895-.737-4.694-1.407-3.81.53q.447.977.721 3.395 5.287-.39 6.345-1.26c1.057-.868-1.362-1.927-3.256-2.665"/></g></svg>