<svg xmlns="http://www.w3.org/2000/svg" xmlns:xlink="http://www.w3.org/1999/xlink" width="32" height="32" viewBox="0 0 32 32"><defs><filter id="ctr_svg-b" width="111.7%" height="111.7%" x="-5.8%" y="-4.2%" filterUnits="objectBoundingBox"><feOffset dy=".5" in="SourceAlpha" result="shadowOffsetOuter1"/><feGaussianBlur in="shadowOffsetOuter1" result="shadowBlurOuter1" stdDeviation=".5"/><feComposite in="shadowBlurOuter1" in2="SourceAlpha" operator="out" result="shadowBlurOuter1"/><feColorMatrix in="shadowBlurOuter1" values="0 0 0 0 0 0 0 0 0 0 0 0 0 0 0 0 0 0 0.199473505 0"/></filter><filter id="ctr_svg-e" width="115.9%" height="115.9%" x="-8%" y="-5.7%" filterUnits="objectBoundingBox"><feOffset dy=".5" in="SourceAlpha" result="shadowOffsetOuter1"/><feGaussianBlur in="shadowOffsetOuter1" result="shadowBlurOuter1" stdDeviation=".5"/><feColorMatrix in="shadowBlurOuter1" values="0 0 0 0 0 0 0 0 0 0 0 0 0 0 0 0 0 0 0.204257246 0"/></filter><linearGradient id="ctr_svg-c" x1="50%" x2="50%" y1="0%" y2="100%"><stop offset="0%" stop-color="#FFF" stop-opacity=".5"/><stop offset="100%" stop-opacity=".5"/></linearGradient><circle id="ctr_svg-a" cx="16" cy="15" r="15"/><path id="ctr_svg-d" d="M16 26C9.925 26 5 21.075 5 15S9.925 4 16 4s11 4.925 11 11-4.925 11-11 11m0-1.546a9.454 9.454 0 1 0 0-18.908 9.454 9.454 0 0 0 0 18.908m.072-2.913c-3.597 0-6.494-2.75-6.494-6.505V15c0-3.666 2.825-6.54 6.638-6.54 2.572 0 4.227 1.078 5.343 2.623l-2.627 2.03c-.72-.898-1.547-1.473-2.752-1.473-1.763 0-3.004 1.491-3.004 3.324V15c0 1.887 1.241 3.36 3.004 3.36 1.313 0 2.087-.61 2.842-1.527l2.627 1.869c-1.188 1.635-2.789 2.839-5.577 2.839"/></defs><g fill="none" fill-rule="evenodd"><g fill-rule="nonzero"><use xlink:href="#ctr_svg-a" fill="#000" filter="url(#ctr_svg-b)"/><use xlink:href="#ctr_svg-a" fill="#FDDE6C" fill-rule="evenodd"/><use xlink:href="#ctr_svg-a" fill="url(#ctr_svg-c)" fill-rule="evenodd" style="mix-blend-mode:soft-light"/><circle cx="16" cy="15" r="14.5" stroke="#000" stroke-opacity=".097"/></g><use xlink:href="#ctr_svg-d" fill="#000" filter="url(#ctr_svg-e)"/><use xlink:href="#ctr_svg-d" fill="#FFF"/></g></svg>