<svg xmlns="http://www.w3.org/2000/svg" xmlns:xlink="http://www.w3.org/1999/xlink" width="32" height="32" viewBox="0 0 32 32"><defs><linearGradient id="d_svg-c" x1="50%" x2="50%" y1="0%" y2="100%"><stop offset="0%" stop-color="#FFF" stop-opacity=".5"/><stop offset="100%" stop-opacity=".5"/></linearGradient><filter id="d_svg-b" width="111.7%" height="111.7%" x="-5.8%" y="-4.2%" filterUnits="objectBoundingBox"><feOffset dy=".5" in="SourceAlpha" result="shadowOffsetOuter1"/><feGaussianBlur in="shadowOffsetOuter1" result="shadowBlurOuter1" stdDeviation=".5"/><feComposite in="shadowBlurOuter1" in2="SourceAlpha" operator="out" result="shadowBlurOuter1"/><feColorMatrix in="shadowBlurOuter1" values="0 0 0 0 0 0 0 0 0 0 0 0 0 0 0 0 0 0 0.199473505 0"/></filter><circle id="d_svg-a" cx="15" cy="15" r="15"/></defs><g fill="none" transform="translate(1)"><use xlink:href="#d_svg-a" fill="#000" filter="url(#d_svg-b)"/><use xlink:href="#d_svg-a" fill="#B8B8B8" fill-rule="evenodd"/><use xlink:href="#d_svg-a" fill="url(#d_svg-c)" fill-rule="evenodd" style="mix-blend-mode:soft-light"/><circle cx="15" cy="15" r="14.5" stroke="#000" stroke-linejoin="square" stroke-opacity=".097"/><path fill="#FFF" d="M3.782 21.283c-.06.072-.016.192.046.312.093.156.208.29.277.401.139.022.323-.223.462-.223.07.045.115.134.115.2-.115.068-.254.201-.415.268-.139.09-.254.156-.346.067l-.07-.067a.3.3 0 0 1-.069-.089c-.046-.067-.092-.134-.138-.223-.046-.067-.092-.156-.139-.223l-.138-.2c-.092-.09-.115-.223-.092-.268.046-.111.207-.178.392-.245s.37-.133.438-.245c.07-.089.023-.223-.046-.334-.023-.067-.069-.111-.115-.178-.023-.067-.07-.134-.092-.179-.139 0-.347.201-.485.156-.023-.044-.092-.156-.07-.2.162-.09.531-.334.693-.29.07.022.138.112.185.223s.092.223.138.312c.046.045.07.111.115.178 0 .022.024.045.047.09 0 .022.023.066.046.088.046.045.069.134.046.179-.023.067-.07.089-.162.156-.23.111-.415.223-.577.312h-.023a.1.1 0 0 0-.024.022M21.564 4.092l-.01.011q0-.014.009-.02c-.01-.082-.107-.154-.217-.225-.139-.089-.323-.156-.439-.223-.138.045-.184.357-.3.424-.023.022-.069 0-.115-.023-.046-.022-.092-.044-.07-.044.07-.112.116-.29.185-.424.07-.133.162-.245.277-.222.139.044.277.133.439.222.046.023.069.045.115.067s.07.045.115.067c.093.045.162.09.231.112-.023 0-.023.022-.023.022.023 0 .023-.022.023-.022.093.022.208.133.208.178.023.111-.092.245-.208.4-.115.135-.254.29-.254.424-.023.09.093.179.208.245.07.045.139.09.208.112.07.022.138.067.184.089.116-.067.208-.334.347-.379.046.022.161.09.161.134-.115.134-.3.535-.461.58-.07.021-.162-.023-.254-.09-.046-.045-.093-.067-.139-.111-.046-.023-.092-.067-.138-.09-.093-.066-.254-.133-.37-.222-.046-.023-.115-.09-.115-.134 0-.067 0-.134.07-.223.115-.223.23-.4.322-.557v-.022a.1.1 0 0 0 .01-.056zm-4.072-1.036c-.07.022-.208 0-.185.022.046-.133.046-.312.07-.468.022-.133.092-.267.207-.267.07 0 .139 0 .23.022.07.022.185.045.255.067.069.022.161.045.254.067.023 0 .069.022.115.022s.07.022.115.022c.116-.022.231.067.254.112.046.111-.023.267-.092.446-.07.156-.139.334-.116.467.024.112.139.156.277.201.139.045.3.045.416.09a.8.8 0 0 0 .115-.246c.023-.111.046-.178.116-.223.046 0 .161.045.184.09-.046.155-.115.579-.277.668-.023.022-.069.022-.115.022a.4.4 0 0 1-.162-.044c-.115-.023-.23-.09-.323-.112a.7.7 0 0 1-.207-.044l-.208-.067c-.07-.023-.139-.067-.162-.112-.046-.044-.023-.111 0-.223.046-.245.116-.445.162-.623v-.023q0-.066-.07-.133c-.046-.045-.115-.067-.207-.09a7 7 0 0 0-.485-.111c-.115.067-.069.357-.161.468m-1.847-.223c0-.111-.023-.29-.069-.423 0-.09.023-.156.046-.223s.07-.111.139-.111c.184-.045.415.022.646.044.185.022.53.022.6.112.046.022.046.089.046.178s-.023.178-.046.267c-.023.178-.092.379-.046.49.046.09.185.134.323.156a.8.8 0 0 0 .23.023c.07 0 .14.022.185.022.093-.09.07-.401.185-.468.046 0 .139.022.185.045.023.156-.046.668-.208.735-.07.022-.185 0-.3-.022-.046 0-.07-.023-.092-.023-.023 0-.047-.022-.07-.022-.046 0-.092-.022-.138-.022-.07-.023-.185-.023-.3-.045-.046 0-.07-.022-.092-.022-.023 0-.047-.022-.07-.022a.18.18 0 0 1-.115-.045c-.092-.09-.046-.29 0-.49s.115-.401.046-.49c-.046-.09-.184-.112-.346-.112s-.323.022-.415 0c-.093.09-.024.379-.093.49-.023.023-.069.023-.115.023-.023-.023-.046-.023-.07-.023-.022 0-.022-.022-.046-.022m6.047 1.047s0-.022 0 0c0-.022 0 0 0 0m-2.608-.423c-.07.022-.161-.022-.208-.067.023-.111.047-.29.093-.445s.115-.29.254-.268a2 2 0 0 1 .3.09c.046.022.115.044.115.022.046.022.115.044.162.066.184.067.507.134.553.246.047.11-.046.267-.138.445s-.185.357-.185.468c.023.09.139.178.277.223.046.022.07.022.116.044.046.023.069.023.115.045s.115.045.162.067c.115-.067.161-.379.3-.401.046 0 .138.044.161.089-.023.178-.23.646-.392.668-.139.023-.392-.178-.531-.245-.092-.044-.462-.156-.508-.267-.046-.09.046-.29.139-.468.092-.178.207-.357.161-.468-.046-.09-.184-.134-.323-.178-.138-.045-.3-.067-.392-.112-.115.067-.115.357-.23.446zm4.247 2.384c-.07-.022-.162-.111-.162-.2.092-.112.208-.268.3-.38.115-.11.208-.177.323-.133.07.023.115.09.185.134l.092.089c.023.022.07.045.092.09.116.133.231.267.37.356.115.044.161.178.161.223 0 .11-.138.222-.3.334-.138.111-.3.223-.346.356-.023.045 0 .112.023.156 0 .023.023.045.046.067l.046.045.046.044c.093.112.231.2.3.29.139-.022.3-.267.439-.267.046.044.115.133.115.178-.138.111-.415.445-.6.445-.046 0-.069-.022-.115-.044s-.07-.067-.115-.112c-.07-.089-.139-.2-.208-.267l-.07-.067a.3.3 0 0 1-.092-.067c-.069-.044-.115-.111-.161-.156-.046-.066-.093-.133-.093-.178 0-.067.024-.111.116-.2l.461-.446.185-.178-.185.178c.07-.067 0-.2-.115-.312a.7.7 0 0 0-.185-.178c-.023-.023-.069-.045-.092-.067l-.07-.067c-.138.022-.253.29-.391.334m-1.293-.98a.19.19 0 0 1-.184-.156c.046-.09.115-.268.207-.401.093-.134.185-.245.323-.2.185.044.346.222.531.356.046.022.092.067.139.089.046.044.092.067.138.111a.7.7 0 0 1 .185.2c.023.09-.116.246-.254.38-.139.133-.277.29-.3.4 0 .068 0 .112.046.157q.035.066.138.133c.116.09.254.156.324.223.138-.044.276-.312.415-.312.046 0 .115.067.138.112-.092.156-.415.557-.577.534a.4.4 0 0 1-.115-.044c-.023 0-.046-.022-.07-.045l-.022-.022-.023-.022-.208-.2a.3.3 0 0 0-.092-.068c-.047-.044-.093-.066-.139-.111-.092-.067-.161-.134-.184-.2-.024-.112.115-.268.253-.424.139-.156.277-.312.277-.423q0-.068-.069-.134c-.046-.022-.115-.067-.185-.111-.138-.067-.276-.134-.346-.201-.138.045-.23.312-.346.379m3.346 3.164c.139-.067.254-.2.416-.267.138-.09.254-.156.346-.067l.07.067c.022.022.045.044.069.089.046.067.092.133.138.222.046.067.092.156.138.223l.139.2c.092.09.115.224.092.268-.046.112-.207.179-.392.245-.185.067-.37.134-.439.245-.069.09-.023.223.047.335.023.067.069.111.115.178.023.067.07.134.092.178.139 0 .346-.2.485-.156.023.045.092.156.07.2-.162.09-.532.335-.693.29-.07-.022-.139-.111-.185-.222a4 4 0 0 0-.138-.312c-.046-.045-.07-.112-.116-.179 0-.022-.023-.044-.046-.089a.17.17 0 0 0-.046-.089c-.046-.044-.07-.134-.046-.178.023-.067.07-.09.161-.156.231-.111.416-.223.577-.312h.023c.093-.067.047-.2-.023-.334-.092-.156-.207-.29-.277-.401-.138-.023-.323.222-.461.222a.26.26 0 0 1-.116-.2M24.37 6.799c.092-.066.208-.222.346-.378.116-.112.231-.2.346-.112.07.067.139.134.208.223l.208.267c.046.067.138.156.207.246.07.089.116.155.116.222-.023.112-.185.2-.346.312-.162.112-.346.2-.393.312-.046.09.023.223.116.334a.3.3 0 0 0 .069.09.3.3 0 0 0 .07.089c.045.044.092.089.115.133.161 0 .346-.245.484-.2.046.044.093.111.093.156-.047.067-.185.178-.324.267a1 1 0 0 1-.207.112c-.07.022-.116.044-.162.022a.5.5 0 0 1-.207-.223c-.047-.089-.093-.2-.139-.245s-.115-.134-.185-.223a.5.5 0 0 1-.092-.134.4.4 0 0 1-.046-.11c.023-.135.185-.246.37-.357.184-.112.368-.223.392-.335 0-.089-.07-.2-.185-.312-.046-.066-.115-.111-.162-.156a.6.6 0 0 1-.115-.133c-.138 0-.3.267-.439.29a.32.32 0 0 1-.138-.157m2.539 4.056c.138-.045.3-.134.415-.134.138-.067.277-.089.346.022.07.112.116.268.162.446s.069.357.138.49c-.023 0-.046.023-.069.023.023 0 .046-.023.07-.023.068.09.045.223.022.268-.069.111-.254.133-.438.156-.185.022-.37.044-.485.133-.07.067-.07.2-.023.335l.07.2c.022.067.022.134.045.178.139.045.416-.089.531-.022.023.045.046.156.023.2-.092 0-.254.067-.392.09-.162.022-.3.044-.37 0-.068-.045-.092-.134-.115-.245 0-.067-.023-.112-.023-.179v-.178a2 2 0 0 1-.115-.401v-.111c0-.045 0-.067.023-.09.046-.044.092-.089.208-.11.254-.045.461-.112.646-.157a.3.3 0 0 1 .138-.044c-.046 0-.069.022-.115.022.092-.045.092-.178.046-.334-.023-.023-.023-.067-.046-.112-.023-.022-.023-.067-.046-.111l-.07-.2c-.115-.045-.369.133-.507.11-.07-.044-.092-.155-.07-.222zm-.67-1.449c.116-.044.254-.156.37-.267.138-.09.277-.134.369-.022.046.022.07.067.092.111l.07.134c.022.111.069.2.115.312.023.022.046.089.069.134.023.044.023.066.046.089.023.044.046.066.046.089.046.089.07.2.046.245-.046.111-.23.156-.415.223s-.392.111-.461.2c-.047.045-.047.09-.047.156 0 .023.023.045.023.09.024.044.024.066.047.11.046.134.138.268.161.357.139.023.392-.156.508-.089a.5.5 0 0 1 .046.178c-.138.112-.623.312-.762.201-.023-.022-.046-.067-.069-.111a.4.4 0 0 0-.046-.156 3 3 0 0 0-.07-.29.4.4 0 0 0-.045-.112c-.023-.044-.046-.11-.07-.155-.046-.09-.092-.201-.069-.268.046-.111.231-.178.439-.245.207-.067.415-.111.461-.223.023-.022.023-.044.023-.067 0-.022-.023-.067-.023-.089-.023-.044-.046-.111-.092-.178-.046-.045-.07-.111-.115-.178-.024-.045-.047-.067-.047-.09s-.023-.044-.023-.066c-.115-.045-.346.156-.484.156-.046-.023-.093-.112-.093-.179m1.847 4.501c.161-.022.3 0 .323.112a.6.6 0 0 1 .046.223v.267a2 2 0 0 0 0 .513c.023.111-.023.245-.07.267-.092.067-.276.045-.46.022-.186-.022-.393-.044-.509.023-.092.044-.115.178-.115.312-.023.133 0 .29 0 .4.115.09.415.023.508.112v.111c0 .045-.023.067-.046.09-.185-.023-.624.022-.739-.09-.046-.044-.046-.156-.046-.267s.046-.245.046-.334v-.424c0-.066.023-.133.07-.178a.5.5 0 0 1 .23-.044h.692c.093-.023.139-.156.139-.312s-.023-.357-.023-.468c-.116-.09-.393.022-.531-.045-.046-.044-.046-.178 0-.223.138 0 .323-.044.485-.067m-.277-1.626c.161-.045.3-.045.346.044.023.045.023.09.046.134 0 .045.023.112.023.156.023.112.023.223.046.334.023.023.023.045.023.067a.17.17 0 0 1 .023.09c0 .066.023.133.023.178 0 .111 0 .222-.023.267-.069.09-.253.111-.461.111s-.416 0-.508.067c-.023.023-.023.045-.046.067 0 .022-.023.067-.023.09-.023.066 0 .133 0 .2.023.089.023.156.046.223 0 .022.023.066.023.089v.089c.139.044.439-.067.53.044a.24.24 0 0 1 0 .179c-.184.066-.715.133-.807 0-.046-.067-.046-.179-.046-.29v-.29c0-.067-.023-.178-.023-.29 0-.11-.023-.244.023-.289.07-.111.277-.134.485-.134s.438 0 .507-.089a.3.3 0 0 0 .047-.156v-.111c0-.045-.024-.067-.024-.112a1.5 1.5 0 0 1-.092-.378c-.138-.045-.392.089-.53.044a.2.2 0 0 1-.047-.2c.116-.023.277-.09.439-.134m.138 4.924c.162.023.277.067.208.245 0 .067 0 .134-.023.223a4 4 0 0 0-.07.245 4 4 0 0 0-.069.245c0 .023-.023.067-.023.112 0 .044-.023.067-.023.111.023.112-.07.223-.115.245-.116.045-.277-.022-.462-.089-.161-.067-.346-.133-.484-.111-.116.022-.162.133-.208.267s-.046.29-.092.401c.069.045.161.09.253.112.116.022.185.044.231.111 0 .045-.046.156-.092.178-.162-.044-.6-.111-.692-.267-.024-.022-.024-.067-.024-.111a.4.4 0 0 1 .047-.156c.023-.112.092-.223.115-.312 0-.067.023-.134.046-.2l.07-.201c.022-.067.069-.134.115-.156.046-.045.115-.023.23 0 .254.044.462.111.647.156h.023q.069 0 .138-.067c.046-.045.07-.112.093-.2a7 7 0 0 0 .115-.469c-.07-.111-.37-.067-.485-.156-.046-.067 0-.178.046-.223.139.045.324.045.485.067m-.138 1.092s-.023 0 0 0c-.023 0 0 0 0 0m.507-2.696c.07.022.116.067.093.09.046.177-.023.4-.046.623-.024.178-.024.512-.116.58-.023.044-.092.044-.184.044-.093 0-.185-.022-.277-.045-.185-.022-.393-.089-.508-.044-.092.044-.139.178-.162.312-.023.067-.023.156-.023.223 0 .066-.023.133-.023.178.092.089.416.067.485.178a.5.5 0 0 1-.046.178c-.162.023-.693-.044-.762-.2-.023-.067 0-.178.023-.29 0-.044.023-.067.023-.089s.023-.045.023-.067c0-.044.023-.089.023-.134.023-.066.023-.178.047-.29 0-.044.023-.066.023-.088 0-.023.023-.045.023-.067 0-.045.023-.09.046-.112.092-.089.3-.044.508 0 .207.045.415.112.507.045.093-.045.116-.178.116-.334s-.023-.312 0-.401c-.093-.09-.393-.023-.508-.09-.023-.022-.023-.066-.023-.11.023-.023.023-.045.023-.068 0-.022.023-.022.023-.044.115 0 .3-.023.462-.023.092 0 .161.023.23.045m-1.407 4.746c.161.067.253.156.184.29-.046.133-.138.267-.23.423-.024.045-.047.067-.07.112-.023.044-.046.066-.069.11-.046.09-.092.157-.115.224-.047-.023-.07-.045-.116-.067.046.022.07.044.116.067-.023.089-.139.2-.185.2-.115.023-.254-.089-.415-.2-.139-.112-.3-.245-.439-.245-.092-.023-.185.089-.254.2-.046.067-.092.134-.115.2-.023.068-.07.134-.092.179.069.111.346.2.392.334-.023.045-.092.156-.139.156-.138-.111-.553-.29-.6-.445-.023-.067.023-.156.093-.246.046-.044.069-.089.115-.133.023-.045.07-.09.092-.134.07-.09.139-.245.231-.356.023-.045.092-.112.139-.112.069 0 .138 0 .23.067.231.111.416.223.577.312h.023c.116.045.208-.067.3-.2.093-.134.162-.313.231-.424-.046-.134-.369-.178-.438-.29-.023-.022 0-.066.023-.111s.07-.067.092-.09c.116.068.3.112.439.18zm.6-1.537c.161.044.3.111.323.2a2 2 0 0 1-.093.29c-.023.044-.046.111-.069.156-.023.044-.046.111-.069.156-.07.178-.139.49-.254.535-.115.044-.277-.045-.461-.134-.185-.09-.37-.178-.485-.178-.092.022-.185.133-.23.267-.024.045-.024.067-.047.111-.023.045-.023.067-.046.112-.023.044-.046.111-.07.156.07.111.393.156.416.29 0 .044-.046.133-.092.155-.185-.022-.67-.222-.693-.378-.023-.134.185-.38.254-.513.046-.089.162-.446.277-.49.092-.045.3.044.485.134.184.089.369.2.484.156.093-.045.139-.179.185-.312.046-.134.07-.29.115-.38-.069-.11-.369-.11-.461-.222-.023-.067.023-.156.07-.2.114.022.3.044.46.089zm-2.424 4.322c.116.112.185.2.185.312-.023.067-.092.112-.138.179l-.093.089c-.023.022-.046.067-.092.089-.138.111-.277.223-.37.356-.045.112-.184.156-.23.156-.115 0-.23-.133-.346-.29-.116-.133-.231-.289-.37-.334-.046-.022-.115 0-.161.023-.023 0-.046.022-.07.044l-.045.045-.047.044c-.115.09-.207.223-.3.29.023.134.277.29.277.423-.046.045-.138.112-.184.112-.116-.134-.462-.401-.462-.58 0-.044.023-.066.046-.11.023-.045.07-.068.116-.112.092-.067.207-.134.277-.2l.069-.068a.3.3 0 0 1 .07-.089c.045-.067.115-.111.16-.156.07-.044.14-.089.185-.089.07 0 .116.022.208.111l.462.446.184.178-.184-.178c.069.067.207 0 .323-.111a.7.7 0 0 0 .184-.179c.023-.022.046-.066.07-.089l.069-.067c-.023-.133-.3-.245-.346-.378 0-.067.092-.156.161-.156.116.089.277.2.392.29zm.97-1.337c.161.09.254.179.254.312-.047.179-.231.335-.37.513-.023.044-.069.089-.092.134-.046.044-.07.089-.115.133a.7.7 0 0 1-.208.179c-.092.022-.254-.112-.392-.246-.139-.133-.3-.267-.416-.29-.069 0-.115 0-.161.045a.4.4 0 0 0-.139.134c-.092.111-.161.245-.23.312.046.134.322.267.322.401 0 .045-.069.111-.115.134-.161-.09-.577-.401-.554-.557 0-.023.023-.067.046-.112 0-.022.023-.044.047-.067l.023-.022.023-.022.207-.2a.3.3 0 0 0 .07-.09c.046-.044.069-.089.115-.134.07-.089.138-.155.208-.178.115-.022.277.112.438.245.162.134.323.268.439.268q.069 0 .138-.067c.023-.045.07-.112.116-.178.069-.134.138-.268.207-.335-.046-.133-.323-.222-.392-.334 0-.067.046-.156.115-.178.093.044.277.111.416.2m-3.785 3.21c.07.11.185.244.277.4.092.134.161.245.07.334l-.07.067a.3.3 0 0 1-.092.067c-.07.045-.139.09-.231.134-.07.044-.162.089-.231.133l-.208.134c-.092.09-.23.112-.277.09-.115-.045-.184-.201-.254-.38-.069-.178-.138-.356-.253-.423-.093-.067-.231-.022-.347.045-.069.022-.115.067-.184.111-.07.022-.139.067-.185.09 0 .133.208.333.162.467-.046.022-.162.09-.208.067-.092-.156-.346-.512-.3-.668.023-.067.115-.134.23-.179.116-.044.232-.089.324-.133.046-.045.115-.067.185-.112.023 0 .046-.022.092-.044.023 0 .07-.023.092-.045.046-.044.139-.067.185-.044.069.022.092.066.161.155.116.223.231.402.323.558v.022c.07.089.208.044.347-.022.161-.09.3-.201.415-.268.023-.134-.23-.312-.23-.445a.28.28 0 0 1 .207-.112zm-.67.98s0-.023 0 0c0-.023 0 0 0 0m1.916-1.961c.092.067.23.178.392.334.116.111.208.223.116.334-.07.067-.139.134-.23.2l-.278.201c-.07.045-.161.134-.254.2-.092.068-.161.112-.23.112-.116-.022-.208-.178-.324-.334-.115-.156-.207-.334-.323-.379-.092-.044-.23.022-.346.112a.3.3 0 0 0-.092.066.3.3 0 0 0-.092.067c-.047.045-.093.09-.139.112 0 .156.254.334.208.468-.046.044-.116.089-.162.089-.069-.045-.184-.179-.277-.312-.046-.067-.092-.134-.115-.2-.023-.068-.046-.112-.023-.157a.5.5 0 0 1 .23-.2c.093-.045.208-.09.254-.134s.139-.111.231-.178c.046-.045.093-.067.139-.09a.4.4 0 0 1 .115-.044c.139.022.254.178.37.357.115.178.23.356.345.378.093 0 .208-.066.324-.178.069-.044.115-.111.161-.156a.6.6 0 0 1 .139-.111c0-.134-.277-.29-.3-.424a.32.32 0 0 1 .161-.133m-4.177 2.45c.046.134.115.29.162.402.069.134.092.267-.024.334a1.8 1.8 0 0 1-.461.156c-.185.045-.37.067-.508.134 0-.023-.023-.045-.023-.067 0 .022.023.044.023.067-.092.067-.23.044-.277.022-.115-.067-.138-.245-.161-.423-.023-.179-.046-.357-.139-.468-.069-.067-.207-.067-.346-.023l-.208.067c-.069.023-.138.023-.184.045-.046.134.092.4.023.512-.046.023-.162.045-.208.023 0-.09-.07-.245-.092-.38-.023-.155-.046-.289 0-.356s.138-.089.254-.111c.069 0 .115-.022.184-.022h.185c.115-.045.277-.09.415-.112h.116c.046 0 .069 0 .092.022.046.045.092.09.115.201.047.245.116.446.162.624v.022c.046.09.185.09.346.045.023-.023.07-.023.115-.045.024-.022.07-.022.116-.044l.208-.067c.046-.112-.139-.357-.116-.49.046-.067.162-.09.231-.067zm1.477-.645c.046.089.162.245.277.356.092.134.138.267.023.357-.023.044-.07.066-.115.089l-.139.067c-.115.022-.208.066-.323.111-.023.022-.092.045-.138.067s-.07.022-.093.044c-.046.023-.069.045-.092.045-.092.045-.208.067-.254.045-.115-.045-.161-.223-.23-.402-.07-.178-.116-.378-.208-.445-.047-.045-.093-.045-.162-.045-.023 0-.046.022-.092.022-.046.023-.07.023-.116.045-.138.045-.277.134-.369.156-.023.134.162.379.092.49a.6.6 0 0 1-.184.045c-.116-.134-.323-.602-.208-.736a.5.5 0 0 1 .115-.066.4.4 0 0 0 .162-.045 3 3 0 0 0 .3-.067c.023 0 .07-.022.115-.044.047-.023.116-.045.162-.067.092-.045.208-.09.277-.067.115.045.185.223.254.423s.115.401.23.446c.024.022.047.022.07.022s.069-.022.092-.022c.046-.022.116-.045.185-.09.046-.044.115-.066.184-.11.047-.023.07-.023.093-.045.023 0 .046-.022.069-.022.046-.112-.162-.335-.162-.468.023-.045.116-.09.185-.09zm-4.708 1.314c0 .134.046.312.07.468.022.156 0 .268-.116.312-.07.022-.139.045-.23.045h-.278a2 2 0 0 0-.53 0c-.116.022-.254-.023-.278-.067-.069-.09-.046-.268-.023-.446s.047-.379-.023-.49c-.046-.09-.184-.111-.323-.111-.138-.023-.3 0-.415 0-.093.11-.023.4-.116.49h-.115c-.046 0-.07-.023-.092-.045.023-.178-.023-.601.092-.713.046-.044.162-.044.277-.044s.254.044.346.044h.439c.069 0 .138.022.184.067a.5.5 0 0 1 .046.223v.668c.023.09.162.134.323.134.162 0 .37-.022.485-.022.092-.112-.023-.38.046-.513.046-.044.185-.044.231 0m1.616-.245c.023.112.092.29.161.401.046.156.046.29-.07.357-.045.022-.091.022-.138.044-.046 0-.115.023-.161.023-.116.022-.231.022-.346.044-.023.022-.047.022-.07.022-.046.023-.069.023-.092.023-.07 0-.138.022-.185.022-.115 0-.23 0-.276-.022-.093-.067-.116-.245-.116-.446 0-.2 0-.401-.07-.49-.022-.022-.045-.022-.068-.045-.023 0-.07-.022-.093-.022-.069-.022-.138 0-.207 0-.093.022-.162.022-.231.045-.023 0-.07.022-.092.022h-.093c-.046.134.07.423-.046.512a.26.26 0 0 1-.185 0c-.069-.178-.138-.69 0-.78.07-.044.185-.044.3-.044h.3c.07 0 .185-.022.3-.022.116 0 .254-.023.3.022.116.067.139.267.139.468 0 .2 0 .423.092.49a.34.34 0 0 0 .162.045h.115c.046 0 .07-.023.116-.023.138-.044.3-.089.392-.089.046-.134-.092-.379-.046-.512.046-.045.138-.067.208-.045m-5.124.045c.07-.023.185 0 .185-.023-.046.134-.046.312-.07.468-.023.134-.092.268-.207.268-.07 0-.139 0-.23-.023a4 4 0 0 0-.255-.066 3 3 0 0 0-.254-.067c-.023 0-.069-.023-.115-.023s-.07-.022-.115-.022c-.116.022-.231-.067-.254-.111-.046-.112.023-.29.092-.446.07-.156.138-.334.115-.468-.023-.111-.138-.156-.277-.2-.138-.045-.3-.045-.415-.09a.8.8 0 0 0-.115.246c-.023.111-.046.178-.116.222-.046 0-.161-.044-.184-.089.046-.156.115-.579.277-.668.023-.022.069-.022.115-.022a.4.4 0 0 1 .162.044c.115.022.23.09.323.112.069 0 .138.022.207.044l.208.067c.07.022.139.067.162.111.046.045.023.112 0 .223-.047.245-.116.446-.162.624-.023.022-.023.045-.023.067.023-.022.023-.022.023-.045q0 .068.07.134c.045.045.115.067.207.09.162.044.37.088.485.11.115-.066.069-.356.161-.467m1.846.222c-.023.112.023.29.07.424a.6.6 0 0 1-.047.223c-.023.067-.069.111-.138.111-.185.045-.415-.022-.646-.044-.185-.023-.531-.023-.6-.112-.046-.022-.046-.089-.046-.178 0-.09.023-.178.046-.268.023-.178.092-.378.046-.49-.046-.089-.185-.133-.323-.156-.07-.022-.162-.022-.23-.022-.07 0-.14-.022-.186-.022-.092.089-.069.4-.184.468a.6.6 0 0 1-.185-.045c-.023-.156.046-.668.208-.735.07-.023.185 0 .3.022.046 0 .07.022.092.022.023 0 .046.023.07.023.046 0 .092.022.138.022.07.022.185.022.3.044.046 0 .07.023.092.023.023 0 .046.022.07.022a.18.18 0 0 1 .115.045c.092.089.046.29 0 .49s-.115.4-.046.49c.046.09.184.111.346.111s.323-.022.415 0c.093-.089.023-.378.093-.49.023-.022.069-.022.115-.022.023.022.046.022.07.022.022 0 .022.022.045.022M9.6 25.962c.023.023.07.045.07.045-.07.111-.116.29-.185.423-.07.134-.162.245-.277.223-.139-.045-.277-.134-.439-.223-.046-.022-.069-.044-.115-.067-.046-.022-.07-.044-.116-.067-.092-.044-.161-.089-.23-.11.023 0 .023-.023.023-.023-.023 0-.023.022-.023.022-.093-.022-.208-.134-.208-.178-.023-.112.092-.245.208-.401.115-.134.253-.29.253-.424.024-.089-.092-.178-.207-.245-.07-.044-.139-.089-.208-.111-.07-.022-.138-.067-.185-.09-.115.068-.207.335-.346.38-.046-.023-.161-.09-.161-.134.115-.134.3-.535.461-.58.07-.022.162.023.254.09.046.044.092.066.139.111.046.022.092.067.138.09.092.066.254.133.37.222.045.022.115.09.115.134 0 .067 0 .133-.07.222-.115.223-.23.402-.323.558v.022c-.046.111.07.2.208.29.139.089.323.155.439.222.138-.044.184-.356.3-.423.023-.022.069 0 .115.022m1.385.58c.069-.023.161.022.254.111-.024.111-.047.29-.093.446s-.115.29-.254.267a2 2 0 0 1-.3-.09c-.046-.021-.115-.044-.161-.066s-.116-.045-.162-.067c-.184-.067-.507-.133-.554-.245-.046-.111.047-.267.139-.446.092-.178.184-.356.184-.467-.023-.09-.138-.179-.276-.223-.047-.023-.07-.023-.116-.045s-.07-.022-.115-.044c-.046-.023-.116-.045-.162-.067-.115.067-.161.379-.3.4-.046 0-.138-.044-.161-.088.023-.179.23-.647.392-.669.138-.022.392.178.53.245.093.045.462.156.508.268.047.089-.046.29-.138.468s-.208.356-.162.468c.047.089.185.133.324.178.138.044.3.067.392.111.115-.067.115-.356.23-.445zm-4.247-2.385c.07.023.162.112.185.179-.092.111-.208.267-.3.378-.115.112-.208.179-.323.134-.07-.022-.116-.089-.185-.134l-.092-.089c-.023-.022-.07-.044-.092-.089-.116-.134-.231-.267-.37-.356-.115-.045-.161-.179-.161-.223 0-.112.138-.223.3-.334.138-.112.3-.223.346-.357.023-.044 0-.111-.023-.156 0-.022-.023-.044-.046-.067L5.93 23l-.047-.045c-.092-.111-.23-.2-.3-.29-.138.023-.3.268-.438.268-.046-.045-.115-.134-.115-.178.138-.112.415-.446.6-.446.046 0 .069.022.115.044.046.023.07.067.115.112.07.089.139.2.208.267l.07.067c.045.022.069.045.092.067.069.045.115.111.161.156.046.067.092.134.092.178 0 .067-.023.112-.115.2l-.462.446-.023.023c-.069.067 0 .2.116.312a.7.7 0 0 0 .184.178c.024.022.07.044.093.067l.069.067c.138-.023.254-.29.392-.335zm1.293.98a.19.19 0 0 1 .184.157c-.046.089-.115.267-.207.4-.093.135-.185.246-.323.201-.185-.044-.347-.222-.531-.356-.046-.022-.093-.067-.139-.09-.046-.044-.092-.066-.138-.11a.7.7 0 0 1-.185-.201c-.023-.09.116-.245.254-.379s.277-.29.3-.401c0-.067 0-.112-.046-.156a.4.4 0 0 0-.139-.134c-.115-.089-.253-.156-.323-.223-.138.045-.277.312-.415.312-.046 0-.115-.066-.139-.111.093-.156.416-.557.577-.535.023 0 .07.022.116.045.023 0 .046.022.069.044l.023.023.023.022.208.2a.3.3 0 0 0 .092.067c.046.045.092.067.139.112.092.067.161.133.184.2.023.112-.115.268-.254.424-.138.156-.277.312-.277.423q0 .068.07.134c.046.022.115.066.184.111.139.067.277.134.347.2.138-.044.23-.311.346-.378zM5.699 23.2c-.093.067-.208.223-.346.379-.116.111-.231.2-.347.111a2 2 0 0 1-.207-.222l-.208-.268c-.046-.067-.138-.156-.208-.245s-.115-.156-.115-.223c.023-.111.185-.2.346-.312.162-.111.346-.2.392-.312.047-.089-.023-.222-.115-.334a.3.3 0 0 0-.07-.089c-.022-.045-.045-.067-.068-.09a.6.6 0 0 1-.116-.133c-.161 0-.346.245-.484.2-.047-.044-.093-.11-.093-.155.046-.067.185-.178.323-.268a1 1 0 0 1 .208-.111c.07-.022.115-.045.162-.022a.5.5 0 0 1 .207.223c.046.089.093.2.139.245s.115.133.184.222c.047.045.07.09.093.134s.046.09.046.112c-.023.133-.185.245-.37.356-.184.111-.369.223-.392.334 0 .09.07.2.185.312.046.067.115.112.161.156.047.045.093.09.116.134.138 0 .3-.267.438-.29.046.023.116.09.139.156M3.16 19.144c-.138.044-.3.134-.438.178-.139.067-.277.09-.346-.022a1.7 1.7 0 0 1-.162-.446c-.046-.178-.07-.356-.138-.49.023 0 .046-.022.092-.045-.023 0-.046.023-.07.023-.069-.09-.046-.223-.022-.268.069-.111.253-.133.438-.156s.37-.044.485-.133c.069-.067.069-.2.023-.335l-.07-.2c-.023-.067-.023-.134-.046-.178-.138-.045-.415.089-.53.022-.024-.045-.047-.156-.024-.2.093 0 .254-.068.393-.09.161-.022.3-.044.369 0 .07.045.092.134.115.245 0 .067.024.112.024.179v.178c.046.111.092.267.115.4v.112c0 .045 0 .067-.023.09a.36.36 0 0 1-.208.11c-.254.045-.461.112-.646.157h-.023c-.092.044-.092.178-.046.334.023.022.023.067.046.111.023.023.023.067.046.112l.07.2c.115.045.368-.133.507-.111.07.045.092.156.07.223zm.67 1.448c-.116.045-.254.156-.37.268-.138.089-.277.133-.369.022-.046-.022-.07-.067-.092-.112l-.07-.133c-.023-.112-.069-.2-.115-.312-.023-.022-.046-.09-.07-.134-.022-.044-.022-.067-.045-.089-.023-.045-.047-.067-.047-.09-.046-.088-.069-.2-.046-.244.046-.112.231-.156.416-.223s.392-.111.461-.2c.046-.045.046-.09.046-.157 0-.022-.023-.044-.023-.089-.023-.044-.023-.067-.046-.111-.046-.134-.138-.268-.161-.357-.139-.022-.393.156-.508.09a.5.5 0 0 1-.046-.179c.138-.111.623-.312.761-.2a.5.5 0 0 1 .07.111c0 .045.023.111.046.156.023.111.046.223.069.29 0 .022.023.067.046.111.023.045.046.112.07.156.046.09.092.2.069.268-.047.11-.231.178-.439.245-.208.066-.415.111-.461.222-.024.023-.024.045-.024.067s.024.067.024.09c.023.044.046.11.092.178.046.044.07.111.115.178.023.044.023.067.046.09 0 .021.024.044.024.066.115.044.346-.156.484-.156.046.022.092.111.092.178zm-1.847-4.5c-.161.021-.3 0-.323-.112a.6.6 0 0 1-.046-.223v-.267a2 2 0 0 0 0-.513c-.023-.111.023-.245.07-.267.092-.067.276-.045.46-.023.185.023.393.045.508-.022.093-.044.116-.178.116-.312.023-.134 0-.29 0-.401-.116-.09-.416-.022-.508-.111v-.112c0-.044.023-.067.046-.089.185.022.623-.022.739.09.046.044.046.155.046.267 0 .111-.046.245-.046.334v.423a.25.25 0 0 1-.07.178.5.5 0 0 1-.23.045h-.693c-.092.022-.138.156-.138.312s.023.357.023.468c.115.089.392-.022.53.044.047.045.047.179 0 .223-.138 0-.322.045-.484.067zm.277 1.626c-.161.044-.3.044-.37-.067-.022-.045-.022-.09-.022-.111 0-.045-.023-.112-.023-.156-.023-.112-.023-.223-.046-.335-.023-.022-.023-.044-.023-.067-.024-.044-.024-.066-.024-.089 0-.067-.023-.133-.023-.178 0-.111 0-.223.023-.267.07-.09.254-.112.462-.112s.415 0 .508-.067c.023-.022.023-.044.046-.066 0-.023.023-.067.023-.09.023-.066 0-.133 0-.2-.023-.09-.023-.156-.046-.223 0-.022-.023-.067-.023-.09v-.088c-.139-.045-.439.067-.531-.045a.24.24 0 0 1 0-.178c.185-.067.715-.134.808 0 .046.067.046.178.046.29v.29c0 .066.023.178.023.289s.023.245-.023.29c-.07.111-.277.133-.485.133s-.438 0-.508.09a.3.3 0 0 0-.046.155v.112c0 .044.023.067.023.111.047.134.093.29.093.38.138.044.392-.09.53-.045.047.044.07.133.047.2-.116.022-.277.09-.439.134m-.138-4.925c-.162-.022-.277-.066-.208-.245 0-.067 0-.133.023-.223.023-.066.046-.156.07-.245.022-.067.045-.156.069-.245 0-.022.023-.067.023-.111 0-.045.023-.067.023-.112-.023-.111.069-.222.115-.245.115-.044.277.023.462.09.161.066.346.133.484.11.116-.021.162-.133.208-.267.046-.133.046-.29.092-.4a.9.9 0 0 0-.254-.112c-.115-.022-.184-.045-.23-.111 0-.045.046-.156.092-.179.162.045.6.112.692.268.023.022.023.067.023.111a.4.4 0 0 1-.046.156c-.023.111-.092.223-.115.312a.6.6 0 0 1-.046.2l-.07.201c-.023.067-.069.134-.115.156-.046.045-.115.022-.23 0-.255-.044-.462-.111-.647-.156-.023-.022-.046-.022-.07-.022.024.022.024.022.047.022q-.069 0-.138.067c-.047.045-.07.111-.093.2a7 7 0 0 0-.115.468c.07.112.37.067.484.156.047.067 0 .179-.046.223-.138-.044-.323-.044-.484-.067m-.37 1.627c-.069-.045-.115-.067-.092-.09-.046-.177.023-.4.046-.623.023-.178.023-.513.116-.58.023-.044.092-.044.184-.044.093 0 .185.022.277.045.185.022.393.089.508.044.092-.044.138-.178.161-.312.024-.067.024-.156.024-.223 0-.066.023-.133.023-.178-.093-.089-.416-.067-.485-.178a.5.5 0 0 1 .046-.178c.162-.023.693.044.762.2.023.067 0 .178-.023.29 0 .044-.023.067-.023.089s-.023.045-.023.067c0 .044-.024.089-.024.133-.023.067-.023.179-.046.29 0 .045-.023.067-.023.09s-.023.044-.023.066c0 .045-.023.09-.046.112-.092.089-.3.044-.508 0-.207-.045-.415-.112-.507-.045-.093.045-.116.178-.116.334s.023.312 0 .401c.092.09.392.023.508.09.023.022.023.066.023.11-.023.023-.023.045-.023.068 0 .022-.023.022-.023.044-.116 0-.3.023-.462.023-.092 0-.161-.023-.23-.045zM3.16 9.652c-.138-.067-.254-.134-.184-.29.046-.134.138-.268.23-.423.023-.045.047-.067.07-.112.023-.044.046-.067.069-.111.046-.09.092-.156.115-.223 0 .022.023.022.023.022 0-.022-.023-.022-.023-.022.023-.09.139-.2.185-.2.115-.023.254.088.415.2.139.111.3.245.439.245.092.022.184-.09.254-.2a1 1 0 0 0 .115-.201c.023-.067.07-.134.092-.178-.069-.112-.346-.2-.392-.335.023-.044.092-.156.138-.156.139.112.554.29.6.446.024.067-.023.156-.092.245-.046.045-.07.09-.115.134-.023.044-.07.089-.093.134-.069.089-.138.245-.23.356-.023.045-.093.111-.139.111-.069 0-.138 0-.23-.066-.231-.112-.416-.223-.578-.312h-.023c-.115-.045-.207.067-.3.2-.092.134-.161.312-.23.424.046.133.369.178.438.29.023.022 0 .066-.023.11-.023.045-.07.068-.092.09-.116-.067-.3-.112-.439-.178m-.6 1.537c-.161-.045-.3-.111-.3-.2.023-.09.046-.179.092-.29.024-.045.047-.112.07-.156.023-.045.046-.112.069-.156.07-.178.138-.49.254-.535.115-.044.277.045.461.134.185.089.37.178.485.178.092-.022.185-.134.23-.267.024-.045.024-.09.024-.112.023-.044.023-.067.046-.111.023-.045.046-.112.07-.156-.07-.112-.393-.156-.416-.29 0-.044.046-.134.092-.156.185.022.67.223.692.379.024.134-.184.379-.253.512-.047.09-.162.446-.277.49-.093.045-.3-.044-.485-.133s-.37-.2-.485-.156c-.092.045-.138.178-.184.312s-.07.29-.116.379c.07.111.37.111.462.223.023.066-.023.156-.07.2-.115-.022-.3-.044-.46-.089zm2.446-4.323c-.138-.111-.207-.2-.161-.29.023-.066.092-.11.138-.178l.093-.089c.023-.022.046-.067.092-.089.138-.111.277-.223.37-.356.045-.112.184-.156.23-.156.115 0 .23.133.346.29.116.133.231.289.37.333.046.023.115 0 .161-.022.023 0 .046-.022.07-.044l.045-.045.047-.045c.115-.089.207-.222.3-.29-.024-.133-.277-.289-.277-.423.046-.044.138-.111.184-.111.116.134.462.401.462.58 0 .044-.023.066-.046.11-.023.045-.07.068-.116.112-.092.067-.207.134-.277.2l-.069.068a.3.3 0 0 1-.07.089c-.045.067-.115.111-.16.156-.07.044-.14.089-.185.089-.07 0-.116-.022-.208-.112l-.462-.445-.115-.112-.07-.066.07.066.092.09c-.069-.067-.207 0-.323.11a.7.7 0 0 0-.184.18c-.023.021-.047.066-.07.088l-.069.067c.023.134.3.245.346.379 0 .067-.092.156-.161.156-.116-.09-.277-.2-.393-.29m-.992 1.337c-.161-.067-.254-.178-.254-.312.046-.178.231-.334.37-.512.023-.045.069-.09.092-.134.046-.045.069-.09.115-.134a.7.7 0 0 1 .208-.178c.092-.022.254.112.392.245.139.134.3.268.416.29.069 0 .115 0 .161-.045a.4.4 0 0 0 .139-.133c.092-.112.161-.245.23-.312-.046-.134-.323-.268-.323-.401 0-.045.07-.112.116-.134.161.089.577.401.554.557a.4.4 0 0 1-.047.111c0 .023-.023.045-.046.067l-.023.022-.023.023-.208.2c-.023.023-.046.045-.069.09-.046.044-.07.089-.115.133-.07.09-.139.156-.208.178-.115.023-.277-.111-.438-.245-.162-.133-.323-.267-.439-.267q-.069 0-.138.067c-.023.044-.07.111-.116.178-.069.134-.138.267-.207.334.046.134.323.223.392.334 0 .067-.046.156-.116.179-.092-.045-.276-.112-.415-.2zm3.808-3.208c-.092-.112-.208-.246-.277-.402-.092-.133-.162-.245-.07-.334l.07-.067c.023-.022.046-.044.092-.066.07-.045.139-.09.231-.134.07-.045.162-.09.23-.134l.209-.134c.092-.089.23-.111.277-.089.115.045.184.2.253.38.07.177.139.356.254.422.093.067.231.023.346-.044.07-.022.116-.067.185-.112.07-.022.139-.066.185-.089 0-.133-.208-.334-.162-.468.046-.022.162-.089.208-.066.092.156.346.512.3.668-.023.067-.116.134-.23.178a5 5 0 0 0-.324.134c-.046.045-.115.067-.185.111-.023 0-.046.023-.092.045a.2.2 0 0 0-.092.045c-.046.044-.139.066-.185.044-.07-.022-.092-.067-.161-.156-.116-.223-.231-.4-.324-.557v-.022c-.069-.09-.207-.045-.346.022-.161.09-.3.2-.415.267-.023.134.23.312.23.446a.28.28 0 0 1-.207.112m-1.27 1.002c-.092-.089-.23-.2-.392-.334-.115-.111-.207-.223-.115-.334.07-.067.138-.134.23-.2l.278-.201c.069-.045.161-.134.254-.2.092-.068.161-.112.23-.112.116.022.208.178.323.334s.208.334.324.379c.092.044.23-.023.346-.112a.3.3 0 0 0 .092-.066.3.3 0 0 0 .092-.067.6.6 0 0 1 .139-.112c0-.156-.254-.334-.208-.468.046-.044.115-.089.162-.089.069.045.184.178.277.312.046.067.092.134.115.2.023.068.046.112.023.157a.5.5 0 0 1-.23.2c-.093.045-.208.09-.255.134-.046.044-.138.111-.23.178-.047.045-.093.067-.139.09a.4.4 0 0 1-.115.044c-.139-.022-.254-.178-.37-.357-.115-.178-.23-.356-.346-.378-.092 0-.207.066-.323.178-.069.044-.115.111-.161.156-.046.044-.093.089-.139.111 0 .134.277.29.3.424a.32.32 0 0 1-.161.133zm4.178-2.473c-.023-.112-.116-.29-.162-.423-.069-.134-.092-.268.023-.335a1.8 1.8 0 0 1 .462-.156c.185-.044.37-.067.508-.133.092-.067.23-.045.277 0 .115.066.138.245.161.423s.046.357.139.468c.069.067.207.067.346.022l.207-.067c.07-.022.139-.022.185-.044.046-.134-.092-.401-.023-.513.046-.022.162-.044.208-.022 0 .09.069.245.092.379.023.156.046.29 0 .356-.046.067-.138.09-.254.112-.07 0-.115.022-.184.022h-.185c-.115.045-.277.09-.415.111h-.116c-.046 0-.07 0-.092-.022a.34.34 0 0 1-.116-.2c-.046-.245-.115-.446-.161-.624 0-.045-.023-.09-.023-.112 0 .023.023.067.023.09-.046-.09-.185-.09-.346-.045-.023.022-.07.022-.116.044-.023.023-.069.023-.115.045l-.208.067c-.046.111.139.356.116.49-.047.067-.162.09-.231.067m-1.477.646a1.7 1.7 0 0 0-.277-.356c-.092-.134-.139-.268-.023-.357.023-.045.069-.067.115-.09l.139-.066c.115-.022.207-.067.323-.111.023-.023.092-.045.138-.067s.07-.022.093-.045c.046-.022.069-.044.092-.044.092-.045.208-.067.254-.045.115.045.161.223.23.401.07.178.116.379.208.446.046.044.093.044.162.044.023 0 .046-.022.092-.022.046-.022.07-.022.115-.044.139-.045.277-.134.37-.156.023-.134-.162-.38-.093-.49a.6.6 0 0 1 .185-.045c.115.134.323.601.208.735a.5.5 0 0 1-.116.067.4.4 0 0 0-.161.045 3 3 0 0 0-.3.066.4.4 0 0 0-.116.045c-.046.022-.115.045-.161.067-.092.044-.208.089-.277.067-.116-.045-.185-.223-.254-.424-.07-.2-.115-.4-.23-.445-.024-.023-.047-.023-.07-.023s-.07.023-.092.023c-.046.022-.116.044-.185.089-.046.044-.115.067-.185.111-.046.022-.069.022-.092.045-.023 0-.046.022-.07.022-.045.111.162.334.162.468-.023.045-.115.09-.184.09zm4.708-1.315c0-.133-.046-.312-.07-.468-.023-.155 0-.267.116-.311a.7.7 0 0 1 .23-.045h.278c.184.022.369.022.53 0 .116-.022.254.022.277.067.07.089.047.267.023.445-.023.179-.046.38.024.49.046.09.184.112.323.112.138.022.3 0 .415 0 .092-.111.023-.401.115-.49h.116c.046 0 .07.022.092.044-.023.179.023.602-.092.713-.046.045-.162.045-.277.045s-.254-.045-.346-.045h-.439a.27.27 0 0 1-.184-.066.5.5 0 0 1-.047-.223v-.669c-.023-.089-.161-.133-.323-.133-.161 0-.369.022-.484.022-.093.111.023.379-.046.512-.047.045-.185.045-.231 0m-1.616.246a2.6 2.6 0 0 0-.161-.446c-.046-.156-.046-.29.069-.357.046-.022.092-.022.138-.044.047 0 .116-.022.162-.022.115-.023.23-.023.346-.045.023-.022.046-.022.07-.022.046-.023.069-.023.092-.023.069 0 .138-.022.184-.022.116 0 .231 0 .277.022.093.067.116.245.116.446 0 .2 0 .401.069.535.023.022.046.022.07.044.022 0 .068.023.091.023.07.022.139 0 .208 0 .092-.023.162-.023.23-.045.024 0 .07-.022.093-.022h.093c.046-.134-.07-.424.046-.513a.26.26 0 0 1 .184 0c.07.179.139.691 0 .78-.069.045-.184.045-.3.045h-.3c-.069 0-.184.022-.3.022s-.254.022-.3-.022c-.115-.067-.138-.268-.138-.468s0-.424-.092-.49a.34.34 0 0 0-.162-.045h-.115c-.047 0-.07.022-.116.022-.138.045-.3.09-.392.09-.046.133.092.378.046.512-.046.045-.138.067-.208.045m3.6 2.428H15.9a.3.3 0 0 1-.092-.044c0-.023 0-.045.023-.09a8 8 0 0 1 .277-.445 5 5 0 0 0 .277-.379l.046-.044c.023-.045.07-.067.092-.09a.45.45 0 0 1 .185-.044h.023c.07.022.092.022.139.067.023.022-.023.089-.047.111-.023.022-.046.067-.069.09s-.046.066-.069.088c-.023.023-.023.045-.046.067-.023.045-.07.09-.092.134-.093.134-.208.267-.3.423l-.024.023c-.046.044-.069.066-.092.066 0 0-.023 0-.023.023-.023 0-.046.022-.07.022-.045.022-.068.022-.092.022zm-.6-.044h-.023c-.069 0-.092-.045-.092-.045s0-.044.023-.067a7 7 0 0 1 .254-.445l.138-.223c.024-.045.047-.067.07-.112.023-.044.046-.066.069-.111a.18.18 0 0 1 .092-.09c.046-.021.116-.066.185-.066.07 0 .092.022.161.067.024.022-.023.089-.046.134l-.277.4c-.115.179-.207.313-.277.446-.046.067-.069.067-.092.09h-.023s-.092.022-.162.022m1.847.223c-.023 0-.07 0-.093-.023a.16.16 0 0 1-.092-.067c0-.022 0-.044.046-.066.093-.134.208-.246.346-.401.093-.112.208-.223.324-.357l.046-.045c.023-.022.069-.066.115-.066.023 0 .092-.023.162-.023h.046a.3.3 0 0 1 .138.09c0 .022-.023.089-.069.11a5 5 0 0 0-.346.357c-.07.067-.116.134-.185.2-.069.068-.115.135-.184.201-.07.045-.093.045-.116.067h-.023c0 .023-.046.023-.115.023m-.6-.112h-.07c-.069-.022-.092-.044-.092-.067 0-.022 0-.044.023-.067.046-.044.07-.111.116-.156l.046-.066c.046-.045.069-.09.115-.134.023-.022.046-.045.046-.067l.346-.401a.5.5 0 0 1 .116-.09.3.3 0 0 1 .161-.044h.047c.069.023.092.023.138.09a.4.4 0 0 1-.046.11c-.116.135-.23.246-.323.357l-.346.401c-.047.067-.07.067-.093.09h-.023a.34.34 0 0 1-.161.044m1.8.446c-.046 0-.07 0-.116-.022-.069-.023-.069-.067-.069-.067s.023-.045.046-.067a6 6 0 0 1 .393-.357c.115-.089.23-.2.369-.312l.046-.022c.046-.022.092-.044.115-.067.024 0 .07-.022.116-.022.023 0 .07 0 .092.022.07.023.092.045.139.112 0 .022-.047.089-.07.111l-.207.156c-.07.045-.139.111-.208.156q-.243.2-.415.334c-.07.045-.07.045-.093.045zm-.577-.178c-.046 0-.07 0-.092-.023-.07-.022-.093-.067-.093-.067s0-.044.046-.066c.139-.156.254-.268.37-.38a1.4 1.4 0 0 0 .184-.2.6.6 0 0 1 .139-.111l.069-.067a.5.5 0 0 1 .115-.067c.023 0 .07-.022.139-.022h.069c.046.022.07.022.092.044a.2.2 0 0 1 .046.067c0 .023-.023.067-.069.112-.115.089-.23.2-.369.312-.138.133-.277.245-.392.356-.07.045-.07.045-.116.067h-.023a.18.18 0 0 1-.115.045m1.754.646c-.046 0-.116 0-.162-.045l-.069-.067v-.022c0-.022.023-.045.046-.067.162-.111.3-.223.439-.312l.415-.267.046-.022a.18.18 0 0 1 .116-.045h.046c.069 0 .115 0 .138.022.07.045.093.067.116.112 0 .022-.047.067-.093.089-.161.089-.3.178-.438.245l-.046.022-.416.268c-.069.044-.092.044-.115.044h-.023c.023.045.023.045 0 .045m-.554-.245c-.023 0-.092 0-.139-.045-.069-.022-.069-.067-.069-.09 0-.021.023-.044.046-.066.046-.022.07-.067.116-.089s.069-.067.115-.09c.07-.044.116-.088.185-.155l.023-.022c.161-.112.3-.223.438-.312a.4.4 0 0 1 .116-.045h.092c.046 0 .092 0 .115.022.07.023.093.045.116.112 0 .022-.046.067-.07.089l-.415.267-.023.023c-.07.044-.138.089-.185.133-.092.067-.161.112-.207.156-.07.045-.093.045-.116.045h-.023c-.069.067-.092.067-.115.067m1.615.846c-.023 0-.046 0-.069-.022-.046-.022-.07-.022-.115-.044-.046-.045-.07-.09-.07-.09q0-.033.07-.066c.161-.09.323-.179.484-.246.139-.066.277-.133.439-.2l.046-.022c.046-.023.092-.023.115-.023h.162s.023 0 .046.023c.07.044.07.066.092.133 0 .023-.069.067-.092.09l-.092.044c-.116.045-.254.111-.37.156a5 5 0 0 0-.484.245h-.023c-.07.022-.07.022-.116.022zq.035 0 0 0m-.507-.312c-.047 0-.116-.022-.185-.044-.07-.045-.07-.09-.07-.09q0-.033.07-.066c.162-.112.323-.2.462-.29.023-.022.069-.044.092-.067.046-.022.092-.044.138-.089.07-.044.162-.089.231-.133.023-.023.07-.023.116-.045H21c.069 0 .138 0 .184.045.07.044.07.066.116.133 0 .022-.047.067-.093.09-.069.022-.138.066-.23.11-.047.023-.07.045-.116.068-.046.022-.07.044-.115.066-.139.067-.3.156-.462.268-.069.044-.092.044-.115.044zc.023 0 0 0 0 0m1.523 1.048H21.6c-.047 0-.139-.023-.185-.09-.046-.044-.046-.089-.046-.11 0-.023.023-.023.07-.045.16-.067.322-.134.507-.201.161-.045.3-.111.461-.156l.047-.022c.023 0 .046-.023.092-.023h.046c.07 0 .162.023.185.067.046.045.069.067.092.134 0 .022-.046.045-.115.067-.139.044-.277.089-.485.134-.162.044-.323.111-.508.178-.069.067-.092.067-.115.067m-.485-.38h-.023a.3.3 0 0 1-.185-.066c-.046-.045-.046-.09-.046-.09 0-.021.023-.021.07-.044.161-.067.3-.156.484-.222.162-.067.323-.134.508-.201.046-.022.07-.022.115-.022h.023a.3.3 0 0 1 .185.067c.046.044.07.066.092.133 0 .023-.069.067-.092.09-.162.066-.323.11-.462.178-.069.022-.161.066-.253.089a.9.9 0 0 0-.254.111c-.093-.022-.116-.022-.162-.022q.034 0 0 0zm.946.803h-.069a.36.36 0 0 1-.184-.09c-.047-.044-.047-.088-.047-.11 0 0 .023-.023.07-.045.161-.067.346-.111.507-.156l.139-.045.115-.022c.092-.022.185-.044.254-.067h.115c.07.023.162.045.185.09.046.044.07.066.07.155 0 .023-.07.067-.116.067-.07.022-.139.022-.208.045l-.07-.023-.138.045c-.161.045-.346.09-.53.134-.023 0-.07.022-.093.022m.439.423h-.07s-.046-.022-.069-.022a.3.3 0 0 1-.092-.067c-.046-.044-.046-.089-.023-.111 0 0 .023-.022.07-.045.16-.044.345-.089.53-.133.162-.045.323-.067.485-.112h.184c.023 0 .07.022.093.045a.3.3 0 0 1 .092.067c.046.066.07.089.07.156 0 .022-.07.044-.116.066-.162.023-.323.045-.485.09l-.138.022-.139.022a4 4 0 0 0-.254.067h-.023c-.069-.045-.092-.045-.115-.045m.415.446h-.092a.3.3 0 0 1-.162-.111c-.023-.023-.023-.067-.023-.09v-.022s.023-.022.07-.022c.184-.045.346-.067.53-.09.07-.021.139-.021.208-.021l.346-.067h.023c.023 0 .07 0 .093.022a.5.5 0 0 1 .184.111c.046.067.046.09.046.156 0 .023-.046.045-.115.045a4 4 0 0 1-.485.044c-.184.023-.369.045-.53.09-.047-.045-.07-.045-.093-.045m.393.49c-.07 0-.093 0-.116-.022h-.023c-.023 0-.115-.067-.161-.134-.024-.067-.024-.089-.024-.111 0 0 .024-.022.07-.022.184-.023.346-.045.53-.067.162-.023.324-.023.485-.045h.07c.046 0 .069 0 .115.022.046.023.138.067.161.112.023.022.023.067.046.067v.089c-.023.022-.069.044-.138.044-.138 0-.323 0-.508.023-.138 0-.323.022-.507.044m.346.513c-.093 0-.116 0-.139-.023h-.023c-.023 0-.046-.022-.069-.044s-.07-.045-.07-.09c-.022-.066-.022-.11-.022-.11s.023-.023.069-.023c.161-.022.346-.022.53-.044.208 0 .37-.023.555-.023.046 0 .092 0 .138.023.023 0 .046.022.092.044.023 0 .023.022.047.045 0 0 .023.022.023.044.023.067.046.09.023.156 0 .022-.07.045-.116.045h-.507c-.139-.023-.324 0-.531 0m1.361.58q-.034 0 0 0h-.023c-.161-.023-.323-.023-.484-.045-.093 0-.185 0-.277-.023h-.3c-.07 0-.093-.022-.116-.022 0 0-.023 0-.023-.022-.023-.023-.092-.067-.138-.134-.023-.067-.023-.111 0-.111s.046-.023.092-.023h.554c.161 0 .323 0 .485.023l.046.022c.046 0 .092.022.138.044.046.023.116.067.139.134s.046.09.023.156c-.023-.022-.07 0-.116 0zm.277.6h-.046l-.484-.066c-.208-.022-.393-.045-.531-.045-.093-.022-.093-.022-.139-.044h-.023c-.023-.023-.115-.09-.138-.156-.023-.067 0-.112 0-.112s.023-.022.092-.022c.185 0 .346.022.53.022.185.023.37.023.555.045a.18.18 0 0 1 .115.044c.046.023.115.09.139.134.023.067.023.09.023.156-.023.045-.047.045-.093.045zm.231.602h-.092c-.07-.022-.139-.022-.208-.044l-.254-.045c-.184-.022-.346-.067-.53-.089-.07-.022-.07-.022-.093-.044 0 0-.023 0-.023-.023a.5.5 0 0 1-.115-.156c-.023-.067 0-.111 0-.111h.092c.161.022.323.022.508.044h.023c.046 0 .092.023.115.023.046 0 .092 0 .116.022.046 0 .069.022.115.022s.092.023.115.023h.046a.18.18 0 0 1 .116.044c.046.045.115.09.138.156 0 .022.023.022.023.045v.044c0 .023 0 .045-.023.067s-.069.022-.069.022m.185.647h-.07l-.092-.023c-.138-.044-.254-.067-.392-.111a4 4 0 0 0-.531-.112c-.07-.022-.092-.044-.115-.044 0 0-.023 0-.023-.022 0 0-.024-.023-.047-.067 0-.023-.023-.023-.023-.045s-.023-.022-.023-.044c-.023-.067 0-.09.023-.112h.093c.046 0 .092.022.138.022s.092.023.116.023h.023c.069.022.161.022.23.044.116.023.231.045.323.067.07.022.139.022.208.045a.18.18 0 0 1 .116.044c.046.023.115.09.115.156.023.067.023.112 0 .156-.023.023-.046.023-.07.023zm.161.646c-.023 0-.046 0-.092-.023-.162-.044-.323-.111-.462-.156l-.207-.066-.046-.023c-.093-.022-.162-.044-.254-.067h-.023a.3.3 0 0 1-.093-.044l-.023-.022c-.023-.023-.092-.09-.092-.179-.023-.066 0-.111.023-.111h.092c.093.022.185.045.254.067.092.022.185.044.254.067.185.044.323.089.462.133l.069.023c.046.022.069.044.115.066a1 1 0 0 1 .116.156c.023.067 0 .09-.024.156-.046.023-.069.023-.069.023m.093.668c-.047 0-.07-.022-.093-.022a6 6 0 0 0-.461-.178l-.07-.023c-.138-.044-.3-.111-.438-.156-.07-.022-.092-.044-.115-.066l-.023-.023c-.024-.022-.093-.111-.093-.178s.023-.09.023-.111h.07c.184.044.346.111.507.156.162.044.346.111.508.178.046.022.07.044.115.067.046.067.093.133.093.178 0 .067 0 .111-.023.156.046 0 .023.022 0 .022m.046.624c-.046 0-.07-.022-.093-.022-.138-.067-.253-.134-.392-.178l-.07-.023c-.184-.067-.345-.156-.507-.2h-.023c-.07-.023-.07-.045-.092-.067l-.023-.022a.33.33 0 0 1-.07-.179c0-.066.024-.089.047-.111h.023c.023 0 .046 0 .069.022.161.067.346.112.508.178.069.023.138.045.23.09.07.022.139.066.231.089l.046.022c.046.022.07.045.093.067.023.044.092.111.092.178v.09c0 .022-.023.044-.046.066zm.023.669c-.023 0-.07-.023-.093-.023h-.023l-.253-.133c-.047-.023-.116-.067-.185-.09-.162-.089-.323-.156-.485-.245-.069-.044-.092-.066-.092-.089 0 0 0-.022-.023-.022 0 0-.023-.022-.046-.067-.023-.044-.023-.067-.023-.111a.17.17 0 0 1 .046-.112h.023c.023 0 .023 0 .07.023.184.066.345.133.507.2.184.09.346.178.484.245.047.022.07.045.093.09.023.044.092.11.092.178 0 .066-.023.089-.046.156zm-.023.646a.4.4 0 0 1-.116-.045 3 3 0 0 1-.415-.267 2 2 0 0 1-.23-.134l-.232-.134h-.023c-.069-.044-.069-.066-.092-.089v-.022a.24.24 0 0 1-.046-.2c0-.067.046-.09.046-.09h.023c.023 0 .046 0 .07.023l.069.044.415.2c.138.068.277.157.415.246l.046.022c.024.022.07.045.093.09.023.022.023.044.046.088a.2.2 0 0 1 .023.112c-.023.067-.023.111-.092.156.023 0 0 0 0 0m-.07.668a.18.18 0 0 1-.115-.044c-.115-.09-.254-.179-.415-.29-.162-.111-.323-.2-.462-.29-.07-.044-.07-.067-.092-.089 0 0 0-.022-.023-.022-.023-.022-.046-.111-.046-.2a.24.24 0 0 1 .046-.09c.023 0 .046 0 .069.023.07.044.162.089.23.133.07.045.116.067.185.112l.047.022c.161.089.323.2.461.29.046.022.07.066.092.089.023.044.07.133.047.2.046.09.046.112-.024.156.024 0 0 0 0 0m-.115.646c-.046 0-.092-.022-.092-.044-.139-.112-.254-.2-.393-.312a5 5 0 0 0-.415-.312l-.023-.022c-.07-.045-.07-.067-.07-.09v-.022c-.022-.022-.045-.111-.022-.2.023-.067.046-.09.069-.09s.046 0 .07.023c.16.089.3.2.438.29s.253.178.392.29l.046.021c.046.023.07.067.092.09a.5.5 0 0 1 .047.2.5.5 0 0 1-.139.178c.023-.022.023 0 0 0m-.138.647a.3.3 0 0 1-.116-.067 1 1 0 0 0-.184-.156c-.07-.045-.116-.112-.185-.156-.138-.112-.277-.245-.415-.334-.07-.067-.07-.067-.07-.09v-.022c-.023-.044-.046-.134-.023-.2.023-.067.046-.09.07-.09 0 0 .046 0 .069.045.138.09.277.2.415.312l.416.334c.023.023.069.067.069.112a.5.5 0 0 1 .046.2c0 .022-.023.067-.023.09-.023-.023-.046 0-.07.022zm-.208.601s-.046 0-.115-.067c-.116-.111-.231-.245-.347-.356l-.392-.379c-.046-.044-.046-.067-.07-.09v-.021c-.022-.023-.022-.134 0-.2.024-.068.07-.09.07-.09.023 0 .046 0 .07.045.138.111.276.222.415.356q.172.134.346.334l.046.045a.5.5 0 0 1 .07.111c.022.045.045.134.022.2-.023.045-.046.09-.115.112m-.23.646c-.024 0-.07-.044-.116-.066-.116-.134-.208-.246-.323-.38-.07-.066-.116-.133-.185-.2-.07-.067-.115-.133-.185-.2-.046-.067-.069-.09-.069-.112v-.022c-.023-.045-.023-.134 0-.2.023-.045.023-.067.046-.067l.023-.023c.023 0 .047 0 .07.045.138.134.277.267.369.379.115.111.23.245.37.4a.5.5 0 0 1 .068.112c.023.067.023.156 0 .2 0 .068 0 .09-.069.134zm-.278.58c-.023 0-.092-.045-.092-.067-.092-.134-.185-.245-.3-.401l-.346-.401c-.046-.067-.046-.09-.046-.112v-.022c0-.022-.024-.134.023-.2.023-.067.069-.067.092-.067 0 0 .046.022.07.044q.207.201.345.401l.023.023.277.334.047.044a.17.17 0 0 1 .046.112c.023.044.023.134 0 .2-.046.067-.07.09-.139.112m-.323.601c-.023 0-.07-.044-.092-.089l-.277-.4c-.092-.135-.208-.29-.3-.424-.046-.067-.046-.09-.046-.112v-.022c0-.022 0-.134.023-.2.023-.045.069-.067.092-.067s.046.022.07.044c.115.156.23.29.322.424.093.133.185.245.277.378l.023.045c.024.045.047.067.047.111 0 .045.023.134-.023.201-.024.045-.047.067-.116.111m-.346.557s-.046 0-.092-.089c-.07-.133-.139-.245-.231-.423a.5.5 0 0 0-.092-.134c-.024-.022-.047-.067-.07-.089-.046-.089-.092-.156-.138-.223s-.046-.089-.046-.111v-.112c0-.022 0-.044.023-.044 0-.022.023-.045.023-.045.046-.044.07-.066.092-.066.023 0 .046.022.07.044l.046.067c.046.044.069.089.115.156.023.022.023.044.046.067.023.044.07.089.092.133.07.112.162.246.254.402l.023.044c.023.045.046.09.046.111v.09c0 .044-.023.066-.023.089-.046.089-.069.111-.138.133.023 0 0 0 0 0m-.37.558c-.022 0-.069-.045-.092-.09a7 7 0 0 0-.207-.423c-.046-.09-.093-.156-.116-.245l-.069-.112-.07-.11c-.022-.068-.045-.09-.045-.112v-.023c0-.022 0-.133.069-.178.046-.044.092-.067.092-.067q.034 0 .07.067c.046.09.092.156.138.223s.092.156.138.223c.093.156.185.312.254.468 0 .022.023.044.023.067v.066a.5.5 0 0 1-.046.2c-.046 0-.07.023-.138.046zm-.438.49c-.023 0-.069-.067-.092-.09l-.046-.11-.046-.112c-.023-.045-.023-.067-.047-.112-.023-.044-.023-.066-.046-.111-.069-.178-.161-.334-.23-.49-.024-.067-.024-.09-.024-.112v-.022a.3.3 0 0 1 .07-.178c.046-.045.092-.045.092-.045s.023.022.046.067c.092.156.162.312.254.468.046.067.07.134.115.223l.047.111.046.112.023.044c.023.045.023.09.023.112q0 .134-.07.2c-.022.022-.046.045-.115.045m-.461.512c-.023 0-.047-.044-.07-.111-.069-.178-.115-.312-.161-.446a4 4 0 0 0-.185-.49c-.023-.09-.023-.111-.023-.134v-.022c0-.022 0-.045.023-.09a.3.3 0 0 1 .07-.088c.046-.045.092-.045.092-.045s.023.022.046.067c.07.156.138.312.208.49.069.156.138.334.184.49.023.045.023.09.023.134 0 .022 0 .045-.023.09 0 .044-.023.066-.046.088q-.035.067-.138.067m-.462.446c-.023 0-.07-.067-.07-.112-.045-.156-.091-.334-.138-.467-.023-.09-.046-.156-.069-.246-.023-.044-.07-.2-.092-.245-.023-.067-.023-.089 0-.111v-.022c0-.023.023-.112.092-.179.046-.044.092-.044.092-.044s.024.022.047.067c.023.044.023.089.046.111.023.045.023.09.046.134.046.089.07.156.092.245.046.134.093.29.162.445l.023.045c0 .045.023.09 0 .134a.23.23 0 0 1-.092.178c-.047.045-.07.067-.139.067m-.508.468c-.023 0-.069-.067-.069-.112-.023-.156-.07-.312-.092-.468-.046-.156-.07-.334-.139-.512-.023-.09 0-.111 0-.134v-.022c0-.045.047-.111.093-.156l.092-.045h.023s.023.023.046.067c.046.156.116.335.162.49.046.201.092.357.138.513v.134a.33.33 0 0 1-.092.178c-.07.045-.092.045-.162.067m-.53.379c-.024 0-.047-.067-.047-.112 0-.089-.023-.156-.023-.245-.023-.09-.023-.156-.046-.245-.023-.178-.07-.357-.092-.513v-.133c0-.045.046-.112.115-.156.046-.022.07-.022.093-.022h.023s.023.044.046.066c.046.156.092.335.115.513.023.089.046.156.046.223v.044c.023.067.023.134.047.2v.179c-.024.045-.047.134-.093.178-.023.023-.046.023-.069.045-.07-.022-.092-.022-.115-.022m-1.108.735h-.046a.23.23 0 0 1-.046-.134v-.49c0-.2-.024-.357-.024-.535v-.022c0-.067 0-.09.024-.111v-.023c.023-.022.069-.111.138-.133.046-.023.07-.023.092-.023h.023s.023.023.023.067c.024.178.047.334.047.513.023.156.023.312.023.468v.044c0 .045 0 .09-.023.134s-.07.133-.116.156c-.046.067-.069.089-.115.089m.53-.357c-.022 0-.046-.066-.046-.111a3.5 3.5 0 0 0-.046-.49v-.023c0-.066-.023-.155-.023-.245 0-.089-.023-.156-.046-.267v-.156s0-.022.046-.067l.046-.044.047-.045c.023-.022.069-.022.092-.022h.023c0 .022.023.044.023.067.023.089.023.156.046.267.023.09.023.178.046.267.023.179.046.357.07.513 0 .044 0 .089-.024.134 0 .022-.023.044-.046.089-.023.022-.046.067-.069.067-.046.066-.07.066-.138.066.023 0 0 0 0 0zm-1.73.914h-.07c-.023-.022-.023-.067-.023-.134 0-.089.024-.156.024-.245l.023-.111v-.134c.023-.2.023-.379.046-.535v-.022c0-.067.023-.09.023-.111 0 0 0-.023.023-.023 0 0 .023-.022.046-.067.046-.044.07-.044.092-.066.023 0 .047-.023.07-.023h.046c.023.023.023.045.023.09v.534l-.023.245c0 .09 0 .156-.023.245v.067c0 .045-.023.09-.046.112-.024.044-.093.111-.139.156-.046.022-.07.022-.092.022m.6-.267h-.046a.23.23 0 0 1-.047-.112c0-.089 0-.178.024-.245v-.78c0-.067.023-.089.023-.111 0 0 0-.023.023-.023.023-.022.069-.11.138-.133.023 0 .046-.022.07-.022h.046s.023.022.023.066c0 .179.023.357.023.513v.535c0 .044-.023.089-.023.111-.047.067-.093.134-.139.156-.07.045-.092.045-.115.045m-1.893.713c-.023 0-.046 0-.092-.023-.023-.022-.023-.089 0-.133.046-.156.07-.312.115-.468.024-.09.047-.179.047-.268.023-.089.023-.156.046-.245v-.022c.023-.067.023-.09.046-.09 0 0 0-.021.023-.021a.5.5 0 0 1 .162-.112h.046c.046 0 .069.022.069.022s.023.045 0 .09c0 .089-.023.155-.046.267v.022a.8.8 0 0 1-.046.223l-.07.423v.045l-.023.045a.16.16 0 0 1-.046.11.32.32 0 0 1-.161.135c-.023-.023-.047 0-.07 0m.647-.2c-.024 0-.047 0-.07-.023-.023-.022-.023-.09-.023-.134.023-.156.07-.312.093-.468s.046-.312.069-.512c.023-.09.023-.09.046-.112 0 0 0-.022.023-.022.023-.022.07-.09.162-.111h.069c.023 0 .046 0 .069.022 0 0 .023.022.023.067v.022c-.023.156-.023.334-.046.512l-.07.535c0 .045-.022.09-.045.112a.32.32 0 0 1-.162.133c-.092-.022-.115-.022-.138-.022zm-1.939.467c-.046 0-.07 0-.115-.022-.023-.023 0-.09 0-.134l.023-.045c.046-.133.115-.267.161-.4.07-.179.116-.357.162-.49.023-.068.046-.09.069-.09l.023-.022s0-.023.07-.045c.045-.022.069-.044.115-.044h.023c.069 0 .092.022.092.022v.089a16 16 0 0 1-.138.513c-.023.066-.047.11-.047.178l-.023.044c-.023.045-.023.09-.046.134 0 .022-.023.045-.023.09l-.023.044c-.023.044-.046.089-.07.111-.068.067-.138.112-.184.112-.046-.045-.069-.045-.069-.045m.623-.111c-.023 0-.046 0-.092-.023-.023-.022-.023-.089 0-.133l.069-.223c.023-.067.046-.134.046-.178l.023-.045c.046-.156.093-.312.139-.513.023-.066.046-.089.046-.11 0 0 0-.023.023-.023.023-.023.092-.09.162-.09h.046c.046 0 .069.023.069.023s.023.022 0 .09c-.023.177-.07.333-.115.512a2 2 0 0 0-.07.267 4 4 0 0 1-.069.245c0 .045-.023.067-.07.111-.022.045-.115.112-.16.112 0-.022-.024-.022-.047-.022m-1.938.222c-.07 0-.093 0-.162-.044-.023-.022 0-.09.023-.134.07-.134.139-.267.23-.423.07-.134.162-.29.232-.468v-.022c.046-.067.046-.067.069-.09l.023-.022a.35.35 0 0 1 .185-.067h.046c.023 0 .023 0 .046.023.023 0 .023.022.023.022 0 .022 0 .044-.023.089l-.092.245c-.024.022-.024.067-.047.09-.023.044-.046.088-.069.155-.07.134-.138.29-.208.424l-.023.044a.18.18 0 0 1-.092.09c0 .022-.092.088-.161.088m.623-.044c-.047 0-.07 0-.116-.045-.023-.022 0-.089.023-.133l.046-.09c.047-.133.116-.245.162-.356l.046-.111.046-.134c.023-.09.07-.156.093-.245.046-.09.046-.09.069-.112l.023-.022a.35.35 0 0 1 .185-.067h.023c.069 0 .092.022.092.022v.09a7 7 0 0 1-.185.512c-.069.156-.138.334-.207.49a.5.5 0 0 1-.07.112c-.023.022-.046.044-.069.044-.046.023-.069.045-.092.045h-.07zm-1.985 0c-.046 0-.07 0-.092-.022-.023 0-.047-.023-.07-.045s.023-.09.047-.134c.092-.133.207-.29.276-.4.093-.134.185-.268.277-.446.047-.067.07-.067.093-.09 0 0 .023 0 .023-.022.023-.022.092-.044.161-.044h.023c.07 0 .093.044.093.044s0 .045-.023.067c-.07.134-.162.29-.254.446-.046.067-.093.133-.116.2l-.115.245-.023.045a.18.18 0 0 1-.092.089.6.6 0 0 1-.208.067m.67.044a.34.34 0 0 1-.162-.044c-.023-.022 0-.067.023-.134.069-.134.161-.267.254-.423.115-.178.184-.334.253-.468a.6.6 0 0 1 .093-.112l.023-.022a.3.3 0 0 1 .184-.067h.024c.069 0 .092.045.115.045 0 0 0 .044-.023.067-.07.178-.162.312-.23.468l-.047.089c-.023.044-.046.111-.092.156a2 2 0 0 1-.139.223.18.18 0 0 1-.092.089c-.046.089-.116.133-.185.133zm-1.986-.245h-.046c-.069-.022-.092-.022-.138-.089 0-.022 0-.067.046-.111.115-.134.23-.245.323-.357.092-.111.208-.245.3-.356l.046-.045c.046-.044.07-.067.093-.067 0 0 .023 0 .023-.022.023 0 .069-.022.138-.022h.07c.069.022.092.044.092.067 0 .022 0 .044-.023.066-.047.045-.07.112-.116.156l-.046.067c-.046.067-.115.134-.161.223a8 8 0 0 0-.3.379l-.047.044a.5.5 0 0 1-.115.09c-.023 0-.046.022-.092.022 0-.045-.023-.045-.047-.045m.647.112h-.023c-.07-.023-.093-.023-.162-.067-.023-.022.023-.09.046-.112l.07-.089c.069-.089.161-.2.23-.29.116-.133.208-.289.323-.423.046-.067.07-.067.093-.089 0 0 .023 0 .023-.022 0 0 .046-.022.069-.022h.115c.07.022.093.044.093.044 0 .022 0 .045-.023.09a5 5 0 0 1-.3.445c-.116.156-.208.29-.324.423-.023.045-.069.067-.092.09-.023 0-.092.022-.138.022m-1.939-.468h-.07a.3.3 0 0 1-.138-.09c0-.022.023-.066.07-.11l.092-.09.092-.089c.07-.067.139-.111.185-.156.115-.111.23-.223.392-.357.023-.022.046-.044.07-.044h.023s.023 0 .023-.022c.023 0 .046-.023.092-.023s.07 0 .092.023c.07.022.093.066.093.066s0 .045-.047.067a6 6 0 0 1-.369.38l-.184.177-.185.179-.046.044c-.023.023-.07.045-.116.067.046-.022 0-.022-.069-.022m.623.2h-.046c-.07-.022-.092-.044-.138-.089 0-.022.023-.089.069-.111l.346-.334c.07-.067.115-.134.185-.201s.115-.134.184-.2c.07-.067.093-.067.116-.067h.023c.023 0 .069-.023.115-.023.023 0 .07 0 .092.023.047 0 .07.022.07.044l.023.022c0 .023 0 .045-.046.067-.07.09-.162.179-.231.268-.046.044-.07.089-.116.133-.115.134-.253.268-.369.401a.13.13 0 0 1-.115.067c-.046-.022-.116 0-.162 0m-1.846-.713c-.046 0-.092 0-.115-.022-.07-.022-.093-.045-.116-.111 0-.023.046-.067.07-.09l.415-.267c.161-.111.323-.223.438-.312h.023c.07-.044.07-.044.116-.044h.069a.4.4 0 0 1 .162.044c.069.022.069.067.069.09s-.023.044-.046.066c-.139.134-.277.223-.416.334-.115.09-.254.2-.392.29l-.046.022a.4.4 0 0 1-.116.045c-.046-.045-.069-.045-.115-.045m.577.268c-.023 0-.07 0-.092-.023-.07-.022-.093-.044-.139-.111 0-.022.046-.09.07-.111.115-.09.253-.179.392-.29q.242-.2.415-.334c.07-.045.092-.045.115-.067h.116c.046 0 .092 0 .115.022.07.022.07.067.07.067s-.024.045-.047.067a6 6 0 0 1-.392.356c-.138.134-.3.245-.415.335a.5.5 0 0 0-.116.066c.023.023-.023.023-.092.023m-1.662-.914c-.046 0-.138 0-.207-.044-.07-.045-.07-.067-.093-.134 0-.022.046-.067.093-.09.046-.022.069-.044.115-.044.046-.022.07-.044.115-.044.047-.023.07-.045.116-.067s.069-.045.115-.067c.139-.067.277-.156.462-.267h.023c.069-.023.092-.023.115-.023h.046c.046 0 .116.023.185.045.07.044.07.089.07.089q0 .033-.07.067c-.162.111-.3.2-.462.29l-.207.133a.5.5 0 0 1-.116.067c-.046.022-.069.045-.115.067l-.046.022zm.508.334c-.07 0-.115 0-.138-.022-.07-.045-.093-.067-.116-.111 0-.023.046-.067.092-.09.139-.089.277-.155.439-.245.185-.111.323-.2.461-.29.07-.044.093-.044.116-.044h.046c.046 0 .115 0 .162.045l.069.067v.022s-.023.022-.046.067a6 6 0 0 1-.393.267l-.046.045c-.161.111-.3.2-.461.29a.18.18 0 0 1-.116.044c-.023-.045-.046-.045-.069-.045m-1.592-1.091s-.023 0 0 0c-.07 0-.162-.023-.208-.067s-.07-.067-.092-.134c0-.022.069-.067.092-.09a3 3 0 0 0 .461-.177c.07-.023.162-.067.254-.09.07-.022.162-.066.254-.111h.023c.07-.022.07-.022.093-.022h.046a.3.3 0 0 1 .184.067c.047.044.047.089.047.089 0 .022-.024.022-.07.044a.9.9 0 0 1-.254.112l-.253.111c-.116.045-.208.09-.324.134l-.138.044-.046.023c0 .044-.046.067-.07.067zm.507.378a.5.5 0 0 1-.207-.044c-.07-.045-.07-.067-.093-.134 0-.022.07-.067.093-.09.161-.066.323-.133.461-.2.139-.066.3-.156.485-.222.092-.023.092-.023.138-.023h.023c.047 0 .139.023.185.067s.07.09.07.09q0 .033-.07.066c-.138.09-.3.178-.485.245-.184.09-.346.178-.484.245zM7.06 22.308h-.046c-.069-.022-.161-.045-.184-.09-.047-.044-.07-.066-.07-.155 0-.022.07-.067.116-.067.138-.022.323-.067.484-.111.162-.045.347-.09.531-.134h.185a.35.35 0 0 1 .184.089.14.14 0 0 1 .047.111s-.023.023-.07.045c-.161.067-.346.111-.507.156-.185.067-.323.09-.462.134l-.046.022zm.462.446h-.046c-.07 0-.162-.023-.185-.067l-.07-.067c0-.022-.022-.045-.022-.067s.046-.045.115-.067c.162-.044.3-.089.485-.134a4 4 0 0 0 .508-.178c.046-.022.069-.022.092-.022h.046c.046 0 .139.022.185.09.046.044.046.088.046.11 0 0-.023.023-.07.045-.16.067-.322.134-.507.2-.092.023-.162.067-.254.09l-.115.044-.139.045c-.023-.022-.046-.022-.069-.022m-.923-.936h-.07c-.022 0-.046-.023-.092-.023a.3.3 0 0 1-.092-.066c-.046-.067-.07-.09-.07-.156 0-.023.07-.045.116-.067.162-.023.323-.045.485-.09.184-.044.369-.066.53-.11h.139c.023 0 .046.022.092.044.047.022.07.044.093.067.046.044.046.089.023.111 0 0-.023.022-.07.045-.161.044-.346.089-.53.133-.162.045-.346.09-.531.112zm-.392-.513c-.024 0-.047 0-.093-.022a.5.5 0 0 1-.184-.111c-.047-.067-.047-.09-.047-.156 0-.023.047-.045.116-.045a4 4 0 0 1 .484-.045l.277-.044a.7.7 0 0 0 .208-.045h.23a.3.3 0 0 1 .162.112c.047.089.047.133.047.156 0 0-.024.022-.07.022-.069.022-.115.022-.184.045-.023 0-.07.022-.093.022-.069.022-.161.022-.23.044h-.047l-.484.067zm-.37-.535c-.046 0-.069 0-.115-.022s-.139-.067-.162-.111c-.046-.067-.046-.09-.046-.156.023-.023.07-.045.139-.045h.507c.185-.022.37-.022.554-.044h.023c.07 0 .07 0 .093.022h.023c.023 0 .115.067.161.134.023.066.023.089.023.111 0 0-.023.022-.069.022-.161.023-.346.045-.53.067l-.278.022c-.115-.022-.207 0-.323 0 .023 0 0 0 0 0m-.323-.557c-.046 0-.092 0-.138-.022-.023 0-.046-.022-.093-.044-.023-.023-.069-.045-.069-.067-.023-.067-.046-.09-.023-.156 0-.023.07-.045.115-.045h.508c.162 0 .346 0 .554-.022h.023c.07 0 .092.022.116.022h.023c.023 0 .046.022.069.045.023.022.07.067.07.089.022.067.022.089.022.111 0 0-.023.023-.07.023-.207.022-.368.044-.53.044-.161 0-.323.022-.485.022zm.23-.557c-.184 0-.368 0-.553-.022a.3.3 0 0 1-.138-.045c-.047-.022-.116-.066-.139-.133s-.046-.09-.023-.156c0-.022.046-.022.115-.022h.024c.161.022.323.022.484.044h.554c.092 0 .115.022.139.022h.023c.023.023.115.067.138.134s.023.111 0 .111-.046.023-.092.023h-.531zM6 19.122c-.162 0-.323 0-.531-.023-.162 0-.3-.022-.462-.044h-.069a.18.18 0 0 1-.115-.045.4.4 0 0 1-.139-.134c-.046-.066-.069-.089-.046-.156 0-.022.046-.022.093-.022h.046l.484.067c.208.022.393.045.531.045h.023c.07 0 .092.022.116.022 0 0 .023 0 .023.022.023.022.115.09.138.156.023.067 0 .112 0 .112zm-.208-.558q-.034 0 0 0c-.185-.022-.346-.044-.53-.044h-.024c-.161-.022-.346-.045-.53-.09a.18.18 0 0 1-.116-.044c-.046-.044-.115-.089-.138-.156-.047-.022-.047-.044-.047-.067 0-.022 0-.044.023-.066.024-.023.047-.023.07-.023h.092c.07.023.139.023.208.045l.254.044c.184.023.346.067.53.09.07.022.093.022.116.044 0 0 .023 0 .023.022a.5.5 0 0 1 .115.156c.023.067 0 .112 0 .112 0-.023-.023-.023-.046-.023m-.208-.534h-.046c-.161-.023-.323-.045-.53-.09-.162-.022-.324-.066-.485-.089l-.046-.022a.18.18 0 0 1-.116-.044.8.8 0 0 1-.138-.156c-.023-.067-.023-.112 0-.156.023-.023.046-.023.069-.023h.07l.484.134c.161.045.323.067.53.111H5.4c.069.023.092.023.115.045l.023.022c.023.023.093.09.116.156.023.067 0 .112-.023.112zm-.161-.58h-.046c-.185-.044-.346-.066-.531-.111-.208-.045-.37-.111-.53-.156-.047-.022-.07-.045-.116-.067a1 1 0 0 1-.116-.156c-.023-.067 0-.089.023-.156 0 0 .023-.022.047-.022a.2.2 0 0 1 .092.022c.161.045.323.112.461.156l.208.067.046.022c.07.023.162.045.254.067s.092.045.116.067l.023.022c.023.023.092.09.092.179v.089c0 .022-.023.022-.023.022.023-.045.023-.045 0-.045m-.139-.557h-.046a7 7 0 0 1-.507-.156c-.139-.044-.3-.089-.462-.156l-.046-.022a.3.3 0 0 1-.093-.067c-.069-.067-.092-.133-.115-.178 0-.067 0-.111.023-.156h.046c.046 0 .07.022.093.022l.138.045c.115.044.23.089.323.134.162.066.323.11.508.178.07.022.092.044.115.067l.023.022c.023.022.093.111.093.178a.3.3 0 0 1-.023.112c-.047-.045-.047-.023-.07-.023m-.092-.601c-.023 0-.046 0-.07-.023a5 5 0 0 0-.507-.178l-.254-.111a2 2 0 0 1-.254-.112.3.3 0 0 1-.092-.067c-.023-.044-.07-.11-.07-.178v-.089c0-.022.024-.044.047-.067h.023c.046 0 .07.023.092.023.162.089.323.156.439.222.161.09.346.156.485.223.069.045.092.045.115.067 0 0 0 .022.023.022a.33.33 0 0 1 .07.179c.022.044-.024.089-.047.089q.034 0 0 0m-.046-.58c-.023 0-.023 0-.07-.022a12 12 0 0 1-.507-.2 8 8 0 0 0-.439-.201l-.046-.022a.18.18 0 0 1-.092-.09c-.023-.044-.092-.11-.092-.178s.023-.089.046-.156h.023c.046 0 .092.023.092.023l.208.111.115.067.116.067c.184.089.346.178.484.245h.023c.047.044.07.044.093.067 0 0 0 .022.023.022 0 0 .023.022.046.067a.2.2 0 0 1 .023.111c0 .067-.023.09-.046.09zm-.023-.601c-.023 0-.046 0-.07-.023a.9.9 0 0 0-.253-.111l-.07-.045c-.046-.022-.115-.044-.161-.089-.139-.089-.3-.156-.485-.267a.18.18 0 0 1-.092-.09c-.023-.021-.023-.044-.046-.066v-.09c0-.066.023-.088.07-.155h.022c.023 0 .07.022.116.044q.242.135.415.268l.115.067.116.067.23.133c.07.045.07.067.093.09 0 0 0 .022.023.022.023.022.046.111.046.178q-.034.067-.07.067zm.023-.58c-.023 0-.046 0-.07-.022l-.115-.067-.115-.067c-.046-.022-.07-.044-.115-.066-.047-.023-.07-.045-.116-.067-.161-.09-.277-.179-.415-.268l-.046-.022c-.047-.022-.07-.067-.093-.09-.023-.044-.069-.133-.046-.2 0-.066.023-.089.07-.156h.022a.18.18 0 0 1 .116.045c.115.09.254.178.415.29.139.089.277.178.439.29H5.1c.069.044.069.066.092.088 0 0 0 .023.023.023.023.022.046.111.046.178 0 .022 0 .022-.023.045-.069.044-.069.044-.092.066m.046-.601c-.023 0-.046 0-.07-.023a5 5 0 0 1-.438-.29l-.069-.044c-.046-.044-.092-.067-.161-.111-.07-.045-.139-.112-.208-.156l-.092-.09c-.047-.11-.047-.178-.047-.2.023-.067.023-.089.07-.134H4.2c.023 0 .069.023.115.045.115.111.254.2.392.312.162.111.3.223.439.312.07.045.07.067.092.09v.021c.023.023.046.112.023.2-.023.045-.069.068-.069.068m.092-.557c-.023 0-.046 0-.069-.045a5 5 0 0 1-.415-.312 1 1 0 0 1-.185-.156c-.07-.044-.115-.111-.185-.156l-.046-.044c-.023-.023-.069-.067-.069-.09a.3.3 0 0 1-.023-.2v-.045c0-.022 0-.022.023-.022.023-.022.023-.044.07-.067a.3.3 0 0 1 .115.067c.069.067.115.112.184.156l.093.09c.023.022.069.044.092.088q.243.2.415.335c.047.044.07.066.07.089v.022a.3.3 0 0 1 .023.2.3.3 0 0 1-.093.09m.116-.602c-.023 0-.046 0-.07-.044-.069-.045-.138-.112-.207-.179l-.07-.067c-.046-.044-.092-.089-.138-.111a6 6 0 0 0-.392-.357c-.023-.022-.046-.066-.07-.11-.023-.09-.046-.157-.023-.201a.3.3 0 0 1 .093-.134s.046 0 .115.067c.116.111.231.245.346.356l.393.379c.046.067.069.09.069.111v.023s0 .022.023.089v.111a.17.17 0 0 1-.07.067zm.161-.557c-.023 0-.046 0-.069-.045-.07-.066-.138-.111-.185-.178l-.092-.089-.092-.09a2.4 2.4 0 0 1-.323-.356l-.046-.044a.5.5 0 0 1-.07-.112c-.023-.044-.023-.133 0-.2a.3.3 0 0 1 .093-.134c.023 0 .069.022.115.067l.323.379c.023.044.07.067.092.089l.093.09c.069.066.115.133.184.2.047.044.047.067.047.089v.022c.023.022.023.134 0 .2-.024.09-.07.112-.07.112m.185-.557s-.046-.022-.07-.045a2.7 2.7 0 0 1-.345-.4c-.07-.068-.116-.134-.185-.201l-.07-.067c-.045-.045-.069-.09-.115-.134a.17.17 0 0 1-.046-.111c-.023-.045-.023-.134 0-.2.023-.068.046-.09.116-.112.023 0 .092.044.092.067.092.111.184.245.3.4q.138.201.346.402c.046.067.046.089.07.111v.023c0 .044.022.133-.024.2q-.034.067-.07.067zm.23-.535c-.022 0-.045-.022-.069-.044a5 5 0 0 1-.323-.401 3 3 0 0 1-.277-.38l-.023-.044a.17.17 0 0 1-.046-.111c0-.045-.023-.134.023-.2.023-.068.046-.09.116-.112.023 0 .069.044.092.089l.138.2.139.201c.092.134.208.29.3.423v.023c.046.067.046.089.046.111v.022c0 .023 0 .134-.023.2-.046 0-.07.023-.092.023zm.278-.535c-.023 0-.046-.022-.07-.044-.046-.067-.115-.156-.161-.223l-.07-.111-.069-.112c-.092-.156-.184-.29-.277-.445a.4.4 0 0 1-.046-.112v-.089c0-.045.023-.067.023-.09.047-.066.07-.088.116-.11 0 0 .046 0 .092.089.07.133.139.245.23.423l.07.111.07.112c.046.089.092.156.138.223.046.066.046.089.046.133v.112c0 .022 0 .044-.023.044 0 .023-.023.045-.023.045 0 .022-.023.044-.046.044m.3-.512q-.034 0-.07-.067l-.069-.111-.069-.112c-.046-.067-.092-.156-.138-.223a2.5 2.5 0 0 1-.231-.423l-.023-.045c-.023-.044-.023-.089-.023-.11 0-.068.023-.157.046-.201.046-.067.069-.067.138-.09.023 0 .07.045.093.09.069.156.138.29.207.423.07.134.162.29.254.468v.022a.3.3 0 0 1 .023.112v.022c0 .044 0 .133-.07.178l-.022.022c-.023 0-.023.023-.046.023zm.323-.513q-.034 0-.07-.066l-.046-.067-.207-.401c-.093-.179-.162-.335-.231-.49-.023-.045-.023-.09-.023-.112q0-.135.07-.2l.068-.067c.023 0 .046-.023.07-.023.023 0 .069.067.092.09.046.133.115.267.184.445.07.156.139.312.231.468a.3.3 0 0 1 .023.111v.023a.3.3 0 0 1-.069.178c-.023.111-.07.111-.092.111m.369-.468q-.034 0-.07-.066c-.068-.156-.16-.335-.207-.468-.07-.156-.115-.29-.185-.446L6.76 8.07c-.023-.044-.023-.089-.023-.133a.5.5 0 0 1 .07-.178.3.3 0 0 1 .138-.09c.023 0 .046.045.07.112.068.178.115.312.16.445.07.156.116.335.208.49v.023a.3.3 0 0 1 .024.111v.023c0 .022 0 .044-.024.089a.3.3 0 0 1-.069.089c-.023.044-.069.044-.069.044zm.392-.445c-.023 0-.046-.022-.046-.067a1 1 0 0 1-.092-.245c-.023-.045-.023-.09-.046-.134s-.023-.089-.046-.111l-.162-.513c0-.044-.023-.089 0-.133 0-.045.023-.134.092-.179.046-.044.07-.067.139-.067.023 0 .069.067.069.112.046.156.092.334.139.468l.023.044.069.2c.023.045.023.09.046.135.023.044.023.089.046.133a.3.3 0 0 1 .023.112v.022a.3.3 0 0 1-.092.178c-.115.045-.162.045-.162.045m.416-.424-.07-.066c-.046-.156-.115-.335-.161-.49-.046-.157-.092-.29-.115-.469l-.023-.044v-.134c0-.044.046-.133.092-.178a.21.21 0 0 1 .161-.067c.023 0 .07.067.07.112.023.156.069.311.092.467.046.156.07.335.138.513v.022c.023.067 0 .09 0 .112v.022c0 .044-.046.111-.092.156-.023.022-.046.044-.092.044q.034 0 0 0m.461-.4s-.023 0 0 0l-.069-.067a3.4 3.4 0 0 1-.115-.513 4 4 0 0 1-.093-.512v-.134c.023-.045.047-.134.093-.178.046-.045.092-.045.161-.045.023 0 .046.067.046.111 0 .067.023.156.023.246 0 .044.024.111.024.156 0 .022 0 .044.023.066.023.179.069.357.092.513v.156c0 .044-.046.111-.115.156-.024.022-.047.044-.07.044zm.462-.38h-.023c0-.022-.023-.044-.023-.066l-.023-.09-.07-.423-.069-.468v-.067c0-.044 0-.089.023-.11 0-.023.023-.046.046-.09.023-.022.047-.067.07-.067.046-.044.092-.044.138-.044h.023c.023 0 .046.066.046.11 0 .157.023.313.047.491.023.178.046.357.069.513v.156c0 .044-.07.111-.116.156zm1.038-.646h-.046s-.023-.022-.023-.066c-.023-.201-.023-.357-.023-.513v-.557c0-.045.023-.09.023-.111.046-.067.092-.134.139-.156.046-.023.069-.023.115-.023h.046a.23.23 0 0 1 .046.112c0 .156-.023.312-.023.49v.557c0 .067-.023.09-.023.111v.023c-.023.022-.069.111-.138.133-.046-.022-.07 0-.093 0m-.53.29H9.46s-.024-.022-.024-.067l-.023-.267v-.09c0-.044 0-.11-.023-.178-.023-.178-.023-.356-.023-.534 0-.045 0-.09.023-.134s.07-.134.116-.156.092-.045.115-.045h.046a.23.23 0 0 1 .046.112v.49c0 .2.023.357.023.535 0 .089 0 .111-.023.134v.022a.4.4 0 0 1-.138.156c-.023 0-.023.022-.046.022h-.046zm1.615-.824c-.023 0-.046 0-.046-.023 0 0-.023-.022-.023-.089 0-.2.023-.379.046-.512v-.045c.023-.134.023-.29.046-.423v-.045c0-.044.023-.089.046-.111 0 0 .023-.045.07-.067.023-.022.069-.045.092-.067.046-.022.07-.022.092-.022.023 0 .046 0 .07.022.022.022.022.09.022.134-.023.156-.069.312-.092.468l-.023.133-.023.134c-.023.09-.023.178-.023.268-.023.066-.023.089-.046.11 0 0 0 .023-.023.023 0 0-.023.022-.046.067a.5.5 0 0 1-.116.067c.023-.045 0-.022-.023-.022m-.53.245c-.024 0-.047 0-.047-.023-.023-.022-.023-.044-.023-.089v-.534c0-.156.023-.312.023-.513 0-.045.023-.09.046-.111a.4.4 0 0 1 .139-.156c.046-.023.069-.023.092-.023h.07c.022.023.022.067.022.134 0 .09-.023.156-.023.245 0 .09-.023.156-.023.245-.023.2-.023.38-.046.535 0 .09-.023.09-.023.111 0 0 0 .023-.023.023 0 0-.023.022-.046.067-.046.044-.07.044-.093.066 0 0-.023.023-.046.023zm1.707-.646c-.046 0-.07-.023-.07-.023 0-.022-.022-.044 0-.089.024-.178.07-.334.116-.512a.8.8 0 0 0 .046-.223l.07-.223.023-.045c0-.044.023-.066.069-.111.023-.045.115-.111.161-.111h.07a.2.2 0 0 1 .092.022c.023.022.023.089 0 .134-.023.066-.046.111-.046.178l-.023.067-.07.2-.023.045a8 8 0 0 0-.138.512v.045c-.023.022-.023.044-.023.067 0 0 0 .022-.023.022l-.023.022c-.023.023-.093.09-.162.09-.023-.067-.046-.067-.046-.067m-.577.178h-.07c0-.022-.022-.045 0-.09l.07-.467V5.44c.023-.178.07-.356.092-.512 0-.045.024-.067.047-.112A.32.32 0 0 1 12 4.683c.046 0 .07-.023.092-.023a.2.2 0 0 1 .093.023c.023.022.023.089.023.133-.046.156-.07.312-.116.468-.023.09-.046.178-.046.268l-.023.089c0 .067-.023.111-.023.178-.023.09-.023.09-.046.111 0 0 0 .023-.023.023-.023.022-.092.089-.162.111-.046-.022-.046-.022-.069-.022m1.777-.446c-.07 0-.092-.022-.092-.022v-.09c.046-.133.115-.311.161-.49.047-.133.116-.29.185-.445l.023-.045a.5.5 0 0 1 .07-.111l.069-.067c.046-.022.069-.022.092-.045h.046c.046 0 .07 0 .115.045.023.022 0 .09-.023.134-.069.133-.138.29-.207.445-.047.09-.07.179-.093.246l-.092.245v.022c-.023.067-.046.067-.07.089l-.022.022s-.023.023-.07.045c0 .022-.046.022-.092.022.023 0 0 0 0 0m-.577.112c-.07 0-.092-.023-.092-.023v-.089c.046-.178.092-.334.138-.512.046-.156.093-.312.162-.49a.5.5 0 0 1 .07-.112c.068-.067.138-.111.184-.111h.046c.046 0 .07 0 .115.022.023.022 0 .089 0 .134-.023.044-.023.066-.046.111s-.023.067-.046.111l-.046.112-.046.134c-.07.178-.116.356-.162.49a.24.24 0 0 1-.07.111s0 .022-.022.022c0 0-.023.023-.07.045a.18.18 0 0 1-.115.045m1.823-.223c-.092 0-.115-.045-.115-.045s0-.044.023-.067c.07-.156.162-.312.23-.468.07-.133.14-.267.232-.423l.023-.045a.18.18 0 0 1 .092-.089c.046-.022.115-.067.185-.067s.115.023.161.045c0 .022 0 .067-.023.134-.092.133-.161.267-.254.423a5 5 0 0 0-.254.468v.022c-.046.067-.046.067-.069.09 0 0-.023 0-.023.022-.07-.023-.138 0-.208 0m-.623.044c-.069 0-.092-.022-.115-.044 0-.023 0-.045.023-.067.023-.09.07-.156.092-.245l.023-.045a.8.8 0 0 1 .093-.2c.069-.179.161-.335.23-.468a.3.3 0 0 1 .07-.09c.023-.022.115-.089.184-.089.07 0 .093 0 .162.045.023.022 0 .09-.023.134-.07.133-.162.29-.231.423a4 4 0 0 0-.23.468c-.047.067-.047.09-.07.111 0 0-.023 0-.023.023-.023 0-.092.044-.185.044M9.253 20.86v-.311h.461c.508 0 .877-.156 1.085-.468.139-.179.185-.624.185-1.27v-7.576c0-.736-.093-1.181-.254-1.382-.231-.245-.577-.379-1.039-.379H9.23v-.312h4.938c1.8 0 3.185.2 4.131.602s1.708 1.047 2.285 1.983.854 2.006.854 3.209c0 1.626-.508 2.986-1.546 4.077-1.154 1.226-2.908 1.828-5.262 1.828H9.253zm3.462-.846c.761.156 1.384.245 1.892.245 1.385 0 2.539-.468 3.439-1.404.923-.958 1.361-2.228 1.361-3.832 0-1.605-.461-2.897-1.361-3.833s-2.077-1.404-3.508-1.404c-.531 0-1.154.09-1.823.245z"/></g></svg>