<svg xmlns="http://www.w3.org/2000/svg" xmlns:xlink="http://www.w3.org/1999/xlink" width="32" height="32" viewBox="0 0 32 32"><defs><filter id="dai_svg-b" width="111.7%" height="111.7%" x="-5.8%" y="-4.2%" filterUnits="objectBoundingBox"><feOffset dy=".5" in="SourceAlpha" result="shadowOffsetOuter1"/><feGaussianBlur in="shadowOffsetOuter1" result="shadowBlurOuter1" stdDeviation=".5"/><feComposite in="shadowBlurOuter1" in2="SourceAlpha" operator="out" result="shadowBlurOuter1"/><feColorMatrix in="shadowBlurOuter1" values="0 0 0 0 0 0 0 0 0 0 0 0 0 0 0 0 0 0 0.199473505 0"/></filter><filter id="dai_svg-e" width="118.4%" height="121.9%" x="-9.2%" y="-7.8%" filterUnits="objectBoundingBox"><feOffset dy=".5" in="SourceAlpha" result="shadowOffsetOuter1"/><feGaussianBlur in="shadowOffsetOuter1" result="shadowBlurOuter1" stdDeviation=".5"/><feColorMatrix in="shadowBlurOuter1" values="0 0 0 0 0 0 0 0 0 0 0 0 0 0 0 0 0 0 0.204257246 0"/></filter><linearGradient id="dai_svg-c" x1="50%" x2="50%" y1="0%" y2="100%"><stop offset="0%" stop-color="#FFF" stop-opacity=".5"/><stop offset="100%" stop-opacity=".5"/></linearGradient><circle id="dai_svg-a" cx="16" cy="15" r="15"/><path id="dai_svg-d" d="M15.829 7c3.985 0 7.006 2.116 8.13 5.194H26v1.861h-1.611q.047.441.047.898v.046q0 .514-.06 1.01H26v1.86h-2.08C22.767 20.905 19.77 23 15.83 23H9.277v-5.131H7v-1.86h2.277v-1.954H7v-1.86h2.277V7zm6.084 10.869H11.108v3.462h4.72c2.914 0 5.078-1.387 6.085-3.462m.564-3.814H11.108v1.953h11.366q.067-.47.067-.964V15a7 7 0 0 0-.064-.944zM15.83 8.666h-4.72v3.528h10.818c-1.001-2.104-3.172-3.528-6.098-3.528"/></defs><g fill="none" fill-rule="evenodd"><use xlink:href="#dai_svg-a" fill="#000" filter="url(#dai_svg-b)"/><use xlink:href="#dai_svg-a" fill="#F4B731"/><use xlink:href="#dai_svg-a" fill="url(#dai_svg-c)" style="mix-blend-mode:soft-light"/><circle cx="16" cy="15" r="14.5" stroke="#000" stroke-linejoin="square" stroke-opacity=".097"/><g fill-rule="nonzero"><use xlink:href="#dai_svg-d" fill="#000" filter="url(#dai_svg-e)"/><use xlink:href="#dai_svg-d" fill="#FFF"/></g></g></svg>