<svg xmlns="http://www.w3.org/2000/svg" xmlns:xlink="http://www.w3.org/1999/xlink" width="32" height="32" viewBox="0 0 32 32"><defs><linearGradient id="dash_svg-c" x1="50%" x2="50%" y1="0%" y2="100%"><stop offset="0%" stop-color="#FFF" stop-opacity=".5"/><stop offset="100%" stop-opacity=".5"/></linearGradient><filter id="dash_svg-b" width="111.7%" height="111.7%" x="-5.8%" y="-4.2%" filterUnits="objectBoundingBox"><feOffset dy=".5" in="SourceAlpha" result="shadowOffsetOuter1"/><feGaussianBlur in="shadowOffsetOuter1" result="shadowBlurOuter1" stdDeviation=".5"/><feComposite in="shadowBlurOuter1" in2="SourceAlpha" operator="out" result="shadowBlurOuter1"/><feColorMatrix in="shadowBlurOuter1" values="0 0 0 0 0 0 0 0 0 0 0 0 0 0 0 0 0 0 0.199473505 0"/></filter><circle id="dash_svg-a" cx="15" cy="15" r="15"/></defs><g fill="none"><g transform="translate(1)"><use xlink:href="#dash_svg-a" fill="#000" filter="url(#dash_svg-b)"/><use xlink:href="#dash_svg-a" fill="#008CE7" fill-rule="evenodd"/><use xlink:href="#dash_svg-a" fill="url(#dash_svg-c)" fill-rule="evenodd" style="mix-blend-mode:soft-light"/><circle cx="15" cy="15" r="14.5" stroke="#000" stroke-linejoin="square" stroke-opacity=".097"/></g><g fill="#FFF"><path d="M18.777 8.004H12.23l-.542 3.03 5.906.008c2.908 0 3.77 1.056 3.743 2.809-.012.898-.404 2.417-.57 2.908-.447 1.313-1.369 2.808-4.822 2.805l-5.74-.004-.543 3.034h6.532c2.302 0 3.283-.27 4.32-.748 2.298-1.06 3.667-3.33 4.217-6.294.815-4.41-.202-7.548-5.954-7.548"/><path d="M15.826 15.018c.214-.886.28-1.242.28-1.242h-6.7c-1.714 0-1.959 1.115-2.121 1.792a28 28 0 0 0-.281 1.242h6.701c1.713 0 1.959-1.115 2.12-1.792z"/></g></g></svg>