<svg xmlns="http://www.w3.org/2000/svg" xmlns:xlink="http://www.w3.org/1999/xlink" width="32" height="32" viewBox="0 0 32 32"><defs><filter id="dat_svg-b" width="111.7%" height="111.7%" x="-5.8%" y="-4.2%" filterUnits="objectBoundingBox"><feOffset dy=".5" in="SourceAlpha" result="shadowOffsetOuter1"/><feGaussianBlur in="shadowOffsetOuter1" result="shadowBlurOuter1" stdDeviation=".5"/><feComposite in="shadowBlurOuter1" in2="SourceAlpha" operator="out" result="shadowBlurOuter1"/><feColorMatrix in="shadowBlurOuter1" values="0 0 0 0 0 0 0 0 0 0 0 0 0 0 0 0 0 0 0.199473505 0"/></filter><filter id="dat_svg-e" width="124.8%" height="117.4%" x="-12.4%" y="-6.2%" filterUnits="objectBoundingBox"><feOffset dy=".5" in="SourceAlpha" result="shadowOffsetOuter1"/><feGaussianBlur in="shadowOffsetOuter1" result="shadowBlurOuter1" stdDeviation=".5"/><feColorMatrix in="shadowBlurOuter1" values="0 0 0 0 0 0 0 0 0 0 0 0 0 0 0 0 0 0 0.204257246 0"/></filter><linearGradient id="dat_svg-c" x1="50%" x2="50%" y1="0%" y2="100%"><stop offset="0%" stop-color="#FFF" stop-opacity=".5"/><stop offset="100%" stop-opacity=".5"/></linearGradient><circle id="dat_svg-a" cx="16" cy="15" r="15"/><path id="dat_svg-d" d="M20.054 4.606q.588 0 .947.359c.359.359.358.554.358.947v11.674q0 1.996-.947 3.635a6.9 6.9 0 0 1-2.534 2.56q-1.587.921-3.559.921-1.97 0-3.61-.921a6.9 6.9 0 0 1-2.534-2.56q-.921-1.638-.921-3.635 0-1.998.845-3.61.87-1.639 2.355-2.56 1.51-.922 3.353-.922a6.3 6.3 0 0 1 4.941 2.33V5.912q0-.589.359-.947a1.33 1.33 0 0 1 .947-.359m-5.735 17.792q1.281 0 2.304-.614a4.47 4.47 0 0 0 1.639-1.74q.588-1.102.589-2.458 0-1.358-.59-2.432a4.3 4.3 0 0 0-1.638-1.716q-1.023-.64-2.304-.64t-2.33.64a4.53 4.53 0 0 0-1.638 1.716q-.588 1.074-.588 2.432 0 1.356.588 2.457a4.73 4.73 0 0 0 1.639 1.741q1.05.614 2.33.614z"/></defs><g fill="none" fill-rule="evenodd"><use xlink:href="#dat_svg-a" fill="#000" filter="url(#dat_svg-b)"/><use xlink:href="#dat_svg-a" fill="#2D9CDB"/><use xlink:href="#dat_svg-a" fill="url(#dat_svg-c)" style="mix-blend-mode:soft-light"/><circle cx="16" cy="15" r="14.5" stroke="#000" stroke-opacity=".097"/><g fill-rule="nonzero"><use xlink:href="#dat_svg-d" fill="#000" filter="url(#dat_svg-e)"/><use xlink:href="#dat_svg-d" fill="#FFF" fill-rule="evenodd"/></g></g></svg>