<svg xmlns="http://www.w3.org/2000/svg" xmlns:xlink="http://www.w3.org/1999/xlink" width="32" height="32" viewBox="0 0 32 32"><defs><filter id="dcn_svg-b" width="111.7%" height="111.7%" x="-5.8%" y="-4.2%" filterUnits="objectBoundingBox"><feOffset dy=".5" in="SourceAlpha" result="shadowOffsetOuter1"/><feGaussianBlur in="shadowOffsetOuter1" result="shadowBlurOuter1" stdDeviation=".5"/><feComposite in="shadowBlurOuter1" in2="SourceAlpha" operator="out" result="shadowBlurOuter1"/><feColorMatrix in="shadowBlurOuter1" values="0 0 0 0 0 0 0 0 0 0 0 0 0 0 0 0 0 0 0.199473505 0"/></filter><filter id="dcn_svg-e" width="116.9%" height="112%" x="-8.5%" y="-4.3%" filterUnits="objectBoundingBox"><feOffset dy=".5" in="SourceAlpha" result="shadowOffsetOuter1"/><feGaussianBlur in="shadowOffsetOuter1" result="shadowBlurOuter1" stdDeviation=".5"/><feColorMatrix in="shadowBlurOuter1" values="0 0 0 0 0 0 0 0 0 0 0 0 0 0 0 0 0 0 0.204257246 0"/></filter><linearGradient id="dcn_svg-c" x1="50%" x2="50%" y1="0%" y2="100%"><stop offset="0%" stop-color="#FFF" stop-opacity=".5"/><stop offset="100%" stop-opacity=".5"/></linearGradient><circle id="dcn_svg-a" cx="16" cy="15" r="15"/><path id="dcn_svg-d" d="M10.998 29.146a15 15 0 0 1-5.307-3.25c.106-.183.21-.37.226-.395 2.235-3.538 4.243-7.198 5.755-11.11 1.604-4.148 2.887-8.406 4.11-12.681.11-.382.24-.757.36-1.135.128.149.176.286.215.426.767 2.743 1.51 5.493 2.306 8.228 1.45 4.98 3.492 9.706 6.195 14.134q.456.747 1.528 2.46a15 15 0 0 1-5.59 3.394 4040 4040 0 0 0-4.66-14.153l-.144-.003q-1.643 4.627-4.994 14.085m5.306-29.1h-.115l.043-.044h.005z"/></defs><g fill="none" fill-rule="evenodd"><use xlink:href="#dcn_svg-a" fill="#000" filter="url(#dcn_svg-b)"/><use xlink:href="#dcn_svg-a" fill="#136485"/><use xlink:href="#dcn_svg-a" fill="url(#dcn_svg-c)" style="mix-blend-mode:soft-light"/><circle cx="16" cy="15" r="14.5" stroke="#000" stroke-opacity=".097"/><use xlink:href="#dcn_svg-d" fill="#000" filter="url(#dcn_svg-e)"/><use xlink:href="#dcn_svg-d" fill="#FFF"/></g></svg>