<svg xmlns="http://www.w3.org/2000/svg" xmlns:xlink="http://www.w3.org/1999/xlink" width="32" height="32" viewBox="0 0 32 32"><defs><filter id="dcr_svg-b" width="111.7%" height="111.7%" x="-5.8%" y="-4.2%" filterUnits="objectBoundingBox"><feOffset dy=".5" in="SourceAlpha" result="shadowOffsetOuter1"/><feGaussianBlur in="shadowOffsetOuter1" result="shadowBlurOuter1" stdDeviation=".5"/><feComposite in="shadowBlurOuter1" in2="SourceAlpha" operator="out" result="shadowBlurOuter1"/><feColorMatrix in="shadowBlurOuter1" values="0 0 0 0 0 0 0 0 0 0 0 0 0 0 0 0 0 0 0.199473505 0"/></filter><filter id="dcr_svg-e" width="119.6%" height="125.2%" x="-9.8%" y="-9%" filterUnits="objectBoundingBox"><feOffset dy=".5" in="SourceAlpha" result="shadowOffsetOuter1"/><feGaussianBlur in="shadowOffsetOuter1" result="shadowBlurOuter1" stdDeviation=".5"/><feColorMatrix in="shadowBlurOuter1" values="0 0 0 0 0 0 0 0 0 0 0 0 0 0 0 0 0 0 0.204257246 0"/></filter><linearGradient id="dcr_svg-c" x1="50%" x2="50%" y1="0%" y2="100%"><stop offset="0%" stop-color="#FFF" stop-opacity=".5"/><stop offset="100%" stop-opacity=".5"/></linearGradient><circle id="dcr_svg-a" cx="16" cy="15" r="15"/><path id="dcr_svg-d" d="M14.856 16.62h4.42a2.987 2.987 0 0 0 2.978-2.996 2.987 2.987 0 0 0-2.978-2.995H17.87L14.856 8h4.42a5.6 5.6 0 0 1 5.488 4.545 5.63 5.63 0 0 1-3.379 6.29l3.485 3.042h-3.991zm2.157-3.36h-4.42a2.987 2.987 0 0 0-2.978 2.994 2.987 2.987 0 0 0 2.978 2.995H14l3.012 2.63h-4.419a5.6 5.6 0 0 1-5.488-4.545 5.63 5.63 0 0 1 3.379-6.29L7.002 8h3.991z"/></defs><g fill="none" fill-rule="evenodd"><use xlink:href="#dcr_svg-a" fill="#000" filter="url(#dcr_svg-b)"/><use xlink:href="#dcr_svg-a" fill="#2ED6A1"/><use xlink:href="#dcr_svg-a" fill="url(#dcr_svg-c)" style="mix-blend-mode:soft-light"/><circle cx="16" cy="15" r="14.5" stroke="#000" stroke-opacity=".097"/><g fill-rule="nonzero"><use xlink:href="#dcr_svg-d" fill="#000" filter="url(#dcr_svg-e)"/><use xlink:href="#dcr_svg-d" fill="#FFF" fill-rule="evenodd"/></g></g></svg>