<svg xmlns="http://www.w3.org/2000/svg" xmlns:xlink="http://www.w3.org/1999/xlink" width="32" height="32" viewBox="0 0 32 32"><defs><filter id="dew_svg-b" width="111.7%" height="111.7%" x="-5.8%" y="-4.2%" filterUnits="objectBoundingBox"><feOffset dy=".5" in="SourceAlpha" result="shadowOffsetOuter1"/><feGaussianBlur in="shadowOffsetOuter1" result="shadowBlurOuter1" stdDeviation=".5"/><feComposite in="shadowBlurOuter1" in2="SourceAlpha" operator="out" result="shadowBlurOuter1"/><feColorMatrix in="shadowBlurOuter1" values="0 0 0 0 0 0 0 0 0 0 0 0 0 0 0 0 0 0 0.199473505 0"/></filter><filter id="dew_svg-e" width="121.9%" height="119.4%" x="-10.9%" y="-6.9%" filterUnits="objectBoundingBox"><feOffset dy=".5" in="SourceAlpha" result="shadowOffsetOuter1"/><feGaussianBlur in="shadowOffsetOuter1" result="shadowBlurOuter1" stdDeviation=".5"/><feColorMatrix in="shadowBlurOuter1" values="0 0 0 0 0 0 0 0 0 0 0 0 0 0 0 0 0 0 0.204257246 0"/></filter><linearGradient id="dew_svg-c" x1="50%" x2="50%" y1="0%" y2="100%"><stop offset="0%" stop-color="#FFF" stop-opacity=".5"/><stop offset="100%" stop-opacity=".5"/></linearGradient><circle id="dew_svg-a" cx="16" cy="15" r="15"/><path id="dew_svg-d" d="M12.161 21.816c.618 0 1.12.49 1.12 1.092S12.779 24 12.161 24h-1.453c-.32 0-.628-.124-.854-.345a1.16 1.16 0 0 1-.354-.833V7.149c0-.305.124-.597.345-.813s.52-.336.833-.336h1.557c.618 0 1.12.489 1.12 1.092 0 .29-.119.567-.329.772-.21.204-.495.32-.791.32h-.345v13.632zm12.17-11.452q1.169 2.007 1.169 4.491 0 2.485-1.182 4.492c-.787 1.34-1.662 2.365-3.099 3.294-1.32.854-2.698 1.358-4.407 1.358h-.567c-.618 0-1.12-.489-1.12-1.092s.502-1.091 1.12-1.091h.69c1.21 0 2.089-.501 3.076-1.07.986-.568 1.618-1.499 2.19-2.503q.86-1.505.86-3.362-.001-1.882-.872-3.388a6.37 6.37 0 0 0-2.376-2.372q-1.506-.866-3.347-.866h-.297c-.618 0-1.12-.488-1.12-1.091 0-.29.119-.568.329-.772s.494-.32.791-.32h.349q2.538 0 4.59 1.142a8.37 8.37 0 0 1 3.223 3.15"/></defs><g fill="none" fill-rule="evenodd"><use xlink:href="#dew_svg-a" fill="#000" filter="url(#dew_svg-b)"/><use xlink:href="#dew_svg-a" fill="#FEC907"/><use xlink:href="#dew_svg-a" fill="url(#dew_svg-c)" style="mix-blend-mode:soft-light"/><circle cx="16" cy="15" r="14.5" stroke="#000" stroke-opacity=".097"/><g fill-rule="nonzero"><use xlink:href="#dew_svg-d" fill="#000" filter="url(#dew_svg-e)"/><use xlink:href="#dew_svg-d" fill="#FFF" fill-rule="evenodd"/></g></g></svg>