<svg xmlns="http://www.w3.org/2000/svg" width="627" height="450" shape-rendering="geometricPrecision" text-rendering="geometricPrecision" image-rendering="optimizeQuality" fill-rule="evenodd" clip-rule="evenodd"><path fill="#f09237" d="M297.5 79.5c61.631-3.604 108.797 20.396 141.5 72 26 48.667 26 97.333 0 146-32.679 51.758-79.846 75.591-141.5 71.5-48.222-6.61-85.055-30.443-110.5-71.5-26-48.667-26-97.333 0-146 25.597-41.072 62.43-65.072 110.5-72z"/><path fill="#fae75d" d="M449.5 195.5a112.351 112.351 0 012.5 28 88.665 88.665 0 00-18.5-1 93.842 93.842 0 00-2-22 90.167 90.167 0 0018-5z"/><path fill="#fae55d" d="M191.5 217.5h-18a78.892 78.892 0 015-27 184.68 184.68 0 0015.5 5c-.222 7.502-1.055 14.835-2.5 22z"/><path fill="#fef6eb" d="M449.5 195.5a90.167 90.167 0 01-18 5c-.913-1.586-.913-3.086 0-4.5a200.103 200.103 0 0016.5-4.5c1.188 1.063 1.688 2.397 1.5 4z"/><path fill="#fef9f3" d="M180.5 181.5a323.066 323.066 0 0117 5c-.059 2.222-1.225 3.222-3.5 3a241.128 241.128 0 01-10.5-2.5c-3.405-.753-4.405-2.586-3-5.5z"/><path fill="#fae75d" d="M436.5 160.5c4.717 8.115 8.384 16.782 11 26a396.656 396.656 0 00-19 5 90.795 90.795 0 00-7-21 138.7 138.7 0 0114-7.5c.752-.671 1.086-1.504 1-2.5z"/><path fill="#fef9f2" d="M436.5 160.5c.086.996-.248 1.829-1 2.5a138.7 138.7 0 00-14 7.5c-1.72-1.251-2.053-2.751-1-4.5a313.065 313.065 0 0014.5-8.5c1.039.744 1.539 1.744 1.5 3z"/><path fill="#fae65d" d="M197.5 186.5a323.066 323.066 0 00-17-5 117.852 117.852 0 0111-25 174.024 174.024 0 0115 10 133.835 133.835 0 00-9 20z"/><path fill="#fef9f0" d="M196.5 148.5a169.27 169.27 0 0015 9c-.356 1.37-1.19 2.37-2.5 3a349.737 349.737 0 01-15.5-8.5 30.233 30.233 0 003-3.5z"/><path fill="#fae75d" d="M416.5 131.5a124.427 124.427 0 0116 21 123.194 123.194 0 01-15.5 10 395.98 395.98 0 00-13.5-19 56.984 56.984 0 0013-12zm-205 26a169.27 169.27 0 01-15-9c4.523-7.699 10.023-14.699 16.5-21l12.5 12.5c-5.287 5.447-9.953 11.28-14 17.5z"/><path fill="#fef6ea" d="M416.5 131.5a56.984 56.984 0 01-13 12c-1.773-.814-2.273-2.148-1.5-4l10.5-10.5c1.912-.279 3.246.554 4 2.5z"/><path fill="#fef3e7" d="M219.5 121.5a691.307 691.307 0 0113 12c-.754 1.946-2.088 2.779-4 2.5l-12-12a10.515 10.515 0 013-2.5z"/><path fill="#fae75d" d="M388.5 107.5c8.035 4.859 15.368 10.692 22 17.5a119.16 119.16 0 00-13.5 12.5 116.198 116.198 0 00-17.5-14c3.028-5.35 6.028-10.684 9-16zm-156 26a691.307 691.307 0 00-13-12 137.81 137.81 0 0122-17 359.813 359.813 0 009 15.5 270.03 270.03 0 00-18 13.5z"/><path fill="#fefcf8" d="M299.5 108.5c56.269-2.466 96.435 21.534 120.5 72 14.299 39.202 9.965 76.202-13 111-29.645 38.003-68.478 53.503-116.5 46.5-49.603-11.937-80.103-42.77-91.5-92.5-7.059-49.859 9.775-89.359 50.5-118.5 15.425-9.86 32.092-16.027 50-18.5z"/><path fill="#fae85e" d="M302.5 115.5c54.663-.791 92.497 23.876 113.5 74 12.575 44.868 2.409 83.702-30.5 116.5-39.463 31.517-81.797 35.85-127 13-42.946-28.446-60.112-68.279-51.5-119.5 3.29-13.047 8.79-25.047 16.5-36 11.252 7.59 21.419 6.256 30.5-4 4.784-8.305 4.617-16.472-.5-24.5a3.943 3.943 0 011-2c14.806-9.322 30.806-15.156 48-17.5z"/><path fill="#fefefc" d="M341.5 256.5c.543-.06.876-.393 1-1a57.15 57.15 0 00-15-1v-11c6.19.323 12.19-.01 18-1v-3c.961-1.765 1.295-3.765 1-6h-39v-13h54v23h17v11h-17v32h-11a49.961 49.961 0 00-4-15c-15.558 16.608-34.558 22.441-57 17.5-18.563-4.896-31.063-16.396-37.5-34.5-6.291-20.129-5.958-40.129 1-60 14.944-29.886 38.777-41.053 71.5-33.5 20.255 4.999 31.921 17.833 35 38.5h-17c-3.403-15.401-13.07-23.901-29-25.5-25.791-1.672-41.624 10.161-47.5 35.5a180.45 180.45 0 001 35c6.999 24.429 23.166 34.596 48.5 30.5 11.729-2.017 20.396-8.184 26-18.5z"/><path fill="#fef9f1" d="M388.5 107.5a3495.183 3495.183 0 01-9 16c-3.173-1.343-3.673-3.343-1.5-6 2.25-4.168 4.75-8.168 7.5-12 1.239.442 2.239 1.109 3 2z"/><path fill="#fef9f2" d="M250.5 100.5a160.999 160.999 0 008 15c-.761.891-1.761 1.558-3 2a169.27 169.27 0 01-9-15c1.077-1.205 2.41-1.872 4-2z"/><path fill="#fae75d" d="M355.5 91.5a150.156 150.156 0 0126 11.5 129.21 129.21 0 00-10.5 15.5 103.11 103.11 0 00-19.5-9 269.337 269.337 0 014-18zm-97 24a160.999 160.999 0 01-8-15c7.615-4.877 15.948-8.21 25-10a102.629 102.629 0 013.5 17 545.984 545.984 0 00-20.5 8z"/><path fill="#fef8ef" d="M355.5 91.5a269.337 269.337 0 00-4 18c-3.357-.621-4.524-2.621-3.5-6a64.574 64.574 0 014.5-13c.917.627 1.917.96 3 1z"/><path fill="#fefaf2" d="M284.5 88.5a152.853 152.853 0 014 17 5.576 5.576 0 00-3 1 180.596 180.596 0 01-5-18h4z"/><path fill="#fae75f" d="M319.5 85.5c8.805.184 17.471 1.35 26 3.5.457.414.791.914 1 1.5a70.33 70.33 0 00-4 16 137.322 137.322 0 00-23-3v-18z"/><path fill="#fae75d" d="M288.5 105.5a152.853 152.853 0 00-4-17c8.378-2.296 17.044-3.296 26-3v18a123.1 123.1 0 00-22 2z"/><path fill="#fefbf8" d="M319.5 85.5v18h-4v-18h4z"/><path fill="#fefdfb" d="M173.5 217.5h18v4h-18v-4z"/><path fill="#f6c54d" d="M192.5 236.5c-.977-2.787-1.31-5.787-1-9h-17v12c-.985-4.134-1.318-8.468-1-13h19v10z"/><path fill="#fae85e" d="M192.5 236.5a52.88 52.88 0 002 13 88.003 88.003 0 00-18 4 152.1 152.1 0 00-2-14v-12h17c-.31 3.213.023 6.213 1 9z"/><path fill="#fefcf5" d="M451.5 232.5h-18v-4h19c.268 1.599-.066 2.932-1 4z"/><path fill="#fcf4b5" d="M361.5 220.5h-54v13h39c.295 2.235-.039 4.235-1 6v-5h-39v-15c18.508-.33 36.841.003 55 1z"/><path fill="#fae65c" d="M433.5 232.5h18a173.803 173.803 0 01-3 26 63.163 63.163 0 01-17-4l-1-3.5c.97-6.317 1.97-12.484 3-18.5z"/><path fill="#fcf1a0" d="M361.5 220.5c.992 7.148 1.325 14.481 1 22 5.526-.321 10.86.012 16 1h-17v-23z"/><path fill="#fef9f1" d="M194.5 249.5c.262 1.478-.071 2.811-1 4a248.39 248.39 0 00-15 4c-1.205-1.077-1.872-2.41-2-4a88.003 88.003 0 0118-4z"/><path fill="#fdf6c0" d="M345.5 242.5c-5.81.99-11.81 1.323-18 1v11a57.15 57.15 0 0115 1c-.124.607-.457.94-1 1-4.805-.987-9.805-1.321-15-1v-13h19z"/><path fill="#fcf2a5" d="M378.5 254.5c-5.14.988-10.474 1.321-16 1 .328 10.514-.006 20.847-1 31v-32h17z"/><path fill="#fef8ee" d="M444.5 268.5a249.433 249.433 0 00-17-5v-4l19 4c.098 2.053-.569 3.72-2 5z"/><path fill="#fae75d" d="M204.5 279.5l-16 8a142.464 142.464 0 01-9-23.5c5.46-3.21 11.46-5.043 18-5.5 1.737 7.21 4.07 14.21 7 21zm223-16a249.433 249.433 0 0117 5 64.924 64.924 0 01-5.5 16c-1.178 3.033-2.844 5.699-5 8a4353.73 4353.73 0 01-13.5-7.5 7.248 7.248 0 01-2-2.5 243.27 243.27 0 009-19z"/><path fill="#fef8ef" d="M204.5 279.5c1.976.927 2.309 2.26 1 4a193.029 193.029 0 00-14.5 8 12.64 12.64 0 01-2.5-4l16-8z"/><path fill="#fef9f1" d="M429.5 300.5a94.194 94.194 0 01-16-9c1.197-3.394 3.197-3.894 6-1.5a140.089 140.089 0 0012 7.5c-.442 1.239-1.109 2.239-2 3z"/><path fill="#fae75d" d="M222.5 305.5c-4.359 4.028-8.693 8.028-13 12a152.994 152.994 0 01-15.5-20c-.688-.832-.521-1.498.5-2a307.885 307.885 0 0114.5-8 354.606 354.606 0 0113.5 18zm191-14a94.194 94.194 0 0016 9c-4.355 7.53-9.688 14.364-16 20.5-5.303-3.119-9.97-7.285-14-12.5a298.454 298.454 0 0014-17z"/><path fill="#fef7ee" d="M222.5 305.5a10.515 10.515 0 013 2.5l-12 12c-1.912.279-3.246-.554-4-2.5 4.307-3.972 8.641-7.972 13-12z"/><path fill="#fae75d" d="M246.5 325.5a174.024 174.024 0 01-10 15c-7.175-3.994-13.675-8.994-19.5-15-.667-.667-.667-1.333 0-2l12-12a116.198 116.198 0 0017.5 14z"/><path fill="#fef7ee" d="M405.5 328.5a119.617 119.617 0 00-13-13c.754-1.946 2.088-2.779 4-2.5l11.5 11.5c.279 1.912-.554 3.246-2.5 4z"/><path fill="#fae75d" d="M392.5 315.5a119.617 119.617 0 0113 13 124.427 124.427 0 01-21 16 119.402 119.402 0 01-9-15.5 124.906 124.906 0 0117-13.5z"/><path fill="#fef8f0" d="M246.5 325.5c1.37.356 2.37 1.19 3 2.5a73.732 73.732 0 01-9.5 15.5c-1.518-.663-2.685-1.663-3.5-3a174.024 174.024 0 0010-15z"/><path fill="#fef9f1" d="M375.5 348.5c-2.985-5.298-5.985-10.632-9-16a18.473 18.473 0 003.5-2 169.27 169.27 0 009 15c-.033 1.978-1.2 2.978-3.5 3z"/><path fill="#fae75d" d="M274.5 339.5a323.066 323.066 0 00-5 17c-8.794-2.066-16.794-5.732-24-11a86.494 86.494 0 019.5-15c6.5 3.169 13 6.169 19.5 9z"/><path fill="#fae75e" d="M366.5 332.5c3.015 5.368 6.015 10.702 9 16-7.713 4.683-16.046 8.016-25 10a169.796 169.796 0 01-3.5-18 165.976 165.976 0 0019.5-8z"/><path fill="#fef6ea" d="M274.5 339.5c2.135-.353 3.468.48 4 2.5a56.8 56.8 0 00-4 16.5c-2.053.098-3.72-.569-5-2a323.066 323.066 0 015-17z"/><path fill="#fef8f1" d="M337.5 342.5h4l4 18h-4a175.82 175.82 0 01-4-18z"/><path fill="#fae75e" d="M305.5 344.5v19a97.296 97.296 0 01-25-3.5c-.667-6.509.666-12.676 4-18.5 6.787 2.375 13.787 3.375 21 3zm32-2a175.82 175.82 0 004 18c-6.087 1.724-12.42 2.724-19 3h-7v-18c1.915.284 3.581-.049 5-1a110.491 110.491 0 0017-2z"/><path fill="#fefbf8" d="M305.5 344.5h4v19h-4v-19z"/><path fill="#f5c24b" d="M320.5 344.5c-1.419.951-3.085 1.284-5 1v18h7c-2.448.973-5.115 1.306-8 1v-20h6z"/></svg>