<svg xmlns="http://www.w3.org/2000/svg" xmlns:xlink="http://www.w3.org/1999/xlink" width="32" height="32" viewBox="0 0 32 32"><defs><filter id="dlt_svg-b" width="111.7%" height="111.7%" x="-5.8%" y="-4.2%" filterUnits="objectBoundingBox"><feOffset dy=".5" in="SourceAlpha" result="shadowOffsetOuter1"/><feGaussianBlur in="shadowOffsetOuter1" result="shadowBlurOuter1" stdDeviation=".5"/><feComposite in="shadowBlurOuter1" in2="SourceAlpha" operator="out" result="shadowBlurOuter1"/><feColorMatrix in="shadowBlurOuter1" values="0 0 0 0 0 0 0 0 0 0 0 0 0 0 0 0 0 0 0.199473505 0"/></filter><filter id="dlt_svg-e" width="121.9%" height="120.6%" x="-10.9%" y="-7.4%" filterUnits="objectBoundingBox"><feOffset dy=".5" in="SourceAlpha" result="shadowOffsetOuter1"/><feGaussianBlur in="shadowOffsetOuter1" result="shadowBlurOuter1" stdDeviation=".5"/><feColorMatrix in="shadowBlurOuter1" values="0 0 0 0 0 0 0 0 0 0 0 0 0 0 0 0 0 0 0.204257246 0"/></filter><linearGradient id="dlt_svg-c" x1="50%" x2="50%" y1="0%" y2="100%"><stop offset="0%" stop-color="#FFF" stop-opacity=".5"/><stop offset="100%" stop-opacity=".5"/></linearGradient><circle id="dlt_svg-a" cx="16" cy="15" r="15"/><path id="dlt_svg-d" d="M15.807 7.958 9.713 20.965H19.83c.293 0 .558.18.673.455l.011.025a.64.64 0 0 1-.031.56.96.96 0 0 1-.835.495H8.896a.83.83 0 0 1-.466-.145l-.056-.038a.874.874 0 0 1-.29-1.09l7.19-15.149c.075-.158.182-.298.313-.41a.69.69 0 0 1 .892-.01.5.5 0 0 1 .135.172l7.293 15.252c.1.207.12.444.058.666a.57.57 0 0 1-.548.423h-.084a.88.88 0 0 1-.794-.516L16.249 7.96a.24.24 0 0 0-.22-.145.24.24 0 0 0-.222.143"/></defs><g fill="none"><use xlink:href="#dlt_svg-a" fill="#000" filter="url(#dlt_svg-b)"/><use xlink:href="#dlt_svg-a" fill="#F4AE95" fill-rule="evenodd"/><use xlink:href="#dlt_svg-a" fill="url(#dlt_svg-c)" fill-rule="evenodd" style="mix-blend-mode:soft-light"/><circle cx="16" cy="15" r="14.5" stroke="#000" stroke-opacity=".097"/><use xlink:href="#dlt_svg-d" fill="#000" filter="url(#dlt_svg-e)"/><use xlink:href="#dlt_svg-d" fill="#FFF" fill-rule="evenodd"/></g></svg>