<svg xmlns="http://www.w3.org/2000/svg" xmlns:xlink="http://www.w3.org/1999/xlink" width="32" height="32" viewBox="0 0 32 32"><defs><linearGradient id="dock_svg-c" x1="50%" x2="50%" y1="0%" y2="100%"><stop offset="0%" stop-color="#FFF" stop-opacity=".5"/><stop offset="100%" stop-opacity=".5"/></linearGradient><filter id="dock_svg-b" width="111.7%" height="111.7%" x="-5.8%" y="-4.2%" filterUnits="objectBoundingBox"><feOffset dy=".5" in="SourceAlpha" result="shadowOffsetOuter1"/><feGaussianBlur in="shadowOffsetOuter1" result="shadowBlurOuter1" stdDeviation=".5"/><feComposite in="shadowBlurOuter1" in2="SourceAlpha" operator="out" result="shadowBlurOuter1"/><feColorMatrix in="shadowBlurOuter1" values="0 0 0 0 0 0 0 0 0 0 0 0 0 0 0 0 0 0 0.199473505 0"/></filter><circle id="dock_svg-a" cx="15" cy="15" r="15"/></defs><g fill="none"><g transform="translate(1)"><use xlink:href="#dock_svg-a" fill="#000" filter="url(#dock_svg-b)"/><use xlink:href="#dock_svg-a" fill="#786DBC"/><use xlink:href="#dock_svg-a" fill="url(#dock_svg-c)" style="mix-blend-mode:soft-light"/><circle cx="15" cy="15" r="14.5" stroke="#000" stroke-linejoin="square" stroke-opacity=".097"/></g><path fill="#FFF" d="M16.815 11.05 15.39 9.62a1.001 1.001 0 0 1 1.383-1.447l.034.034 3.181 3.181a1 1 0 0 1 0 1.415l-3.185 3.182a1 1 0 0 1-1.413-1.414l1.493-1.494A4.983 4.983 0 1 0 21 18.003V7a1 1 0 0 1 2 0v11.137a7 7 0 1 1-6.186-7.091v.004z"/></g></svg>