<svg xmlns="http://www.w3.org/2000/svg" xmlns:xlink="http://www.w3.org/1999/xlink" width="32" height="32" viewBox="0 0 32 32"><defs><filter id="dot_svg-b" width="111.7%" height="111.7%" x="-5.8%" y="-4.2%" filterUnits="objectBoundingBox"><feOffset dy=".5" in="SourceAlpha" result="shadowOffsetOuter1"/><feGaussianBlur in="shadowOffsetOuter1" result="shadowBlurOuter1" stdDeviation=".5"/><feComposite in="shadowBlurOuter1" in2="SourceAlpha" operator="out" result="shadowBlurOuter1"/><feColorMatrix in="shadowBlurOuter1" values="0 0 0 0 0 0 0 0 0 0 0 0 0 0 0 0 0 0 0.199473505 0"/></filter><filter id="dot_svg-d"><feColorMatrix in="SourceGraphic" values="0 0 0 0 1.000000 0 0 0 0 1.000000 0 0 0 0 1.000000 0 0 0 1.000000 0"/></filter><filter id="dot_svg-e" width="153.6%" height="141.7%" x="-26.8%" y="-20.8%" filterUnits="objectBoundingBox"><feOffset dy=".5" in="SourceAlpha" result="shadowOffsetOuter1"/><feGaussianBlur in="shadowOffsetOuter1" result="shadowBlurOuter1" stdDeviation=".5"/><feColorMatrix in="shadowBlurOuter1" result="shadowMatrixOuter1" values="0 0 0 0 0 0 0 0 0 0 0 0 0 0 0 0 0 0 0.204257246 0"/><feMerge><feMergeNode in="shadowMatrixOuter1"/><feMergeNode in="SourceGraphic"/></feMerge></filter><linearGradient id="dot_svg-c" x1="50%" x2="50%" y1="0%" y2="100%"><stop offset="0%" stop-color="#FFF" stop-opacity=".5"/><stop offset="100%" stop-opacity=".5"/></linearGradient><circle id="dot_svg-a" cx="16" cy="15" r="15"/></defs><g fill="none" fill-rule="evenodd"><use xlink:href="#dot_svg-a" fill="#000" filter="url(#dot_svg-b)"/><use xlink:href="#dot_svg-a" fill="#E6007A"/><use xlink:href="#dot_svg-a" fill="url(#dot_svg-c)" style="mix-blend-mode:soft-light"/><circle cx="16" cy="15" r="14.5" stroke="#000" stroke-linejoin="square" stroke-opacity=".097"/><g filter="url(#dot_svg-d)"><g filter="url(#dot_svg-e)" transform="translate(9.5 5.5)"><path fill="#FFF" fill-rule="nonzero" d="M6.772.125C3.065.125.036 3.137.036 6.86c0 .749.124 1.48.356 2.192a.95.95 0 0 0 1.194.589.95.95 0 0 0 .588-1.194 4.8 4.8 0 0 1-.267-1.73c.071-2.512 2.103-4.58 4.616-4.704a4.86 4.86 0 0 1 5.115 4.847 4.86 4.86 0 0 1-4.58 4.848s-.945.053-1.408.125c-.232.035-.41.071-.535.089-.054.018-.107-.036-.09-.09l.161-.783.873-4.028a.934.934 0 0 0-.712-1.105.934.934 0 0 0-1.105.713s-2.103 9.802-2.121 9.909a.934.934 0 0 0 .713 1.105.934.934 0 0 0 1.105-.713c.017-.107.303-1.408.303-1.408a2.37 2.37 0 0 1 1.996-1.854 21 21 0 0 1 1.051-.089 6.744 6.744 0 0 0 6.22-6.719c0-3.724-3.03-6.736-6.737-6.736zm.481 15.505a1.12 1.12 0 0 0-1.336.873c-.125.606.25 1.212.873 1.337a1.12 1.12 0 0 0 1.337-.874c.124-.623-.25-1.212-.874-1.336"/></g></g></g></svg>