<svg xmlns="http://www.w3.org/2000/svg" xmlns:xlink="http://www.w3.org/1999/xlink" width="32" height="32" viewBox="0 0 32 32"><defs><linearGradient id="drop_svg-c" x1="50%" x2="50%" y1="0%" y2="100%"><stop offset="0%" stop-color="#FFF" stop-opacity=".5"/><stop offset="100%" stop-opacity=".5"/></linearGradient><filter id="drop_svg-b" width="111.7%" height="111.7%" x="-5.8%" y="-4.2%" filterUnits="objectBoundingBox"><feOffset dy=".5" in="SourceAlpha" result="shadowOffsetOuter1"/><feGaussianBlur in="shadowOffsetOuter1" result="shadowBlurOuter1" stdDeviation=".5"/><feComposite in="shadowBlurOuter1" in2="SourceAlpha" operator="out" result="shadowBlurOuter1"/><feColorMatrix in="shadowBlurOuter1" values="0 0 0 0 0 0 0 0 0 0 0 0 0 0 0 0 0 0 0.199473505 0"/></filter><circle id="drop_svg-a" cx="15" cy="15" r="15"/></defs><g fill="none"><g transform="translate(1)"><use xlink:href="#drop_svg-a" fill="#000" filter="url(#drop_svg-b)"/><use xlink:href="#drop_svg-a" fill="#242D3D" fill-rule="evenodd"/><use xlink:href="#drop_svg-a" fill="url(#drop_svg-c)" fill-rule="evenodd" style="mix-blend-mode:soft-light"/><circle cx="15" cy="15" r="14.5" stroke="#000" stroke-linejoin="square" stroke-opacity=".097"/></g><g fill="#FFF"><path d="M22.242 16.658c-.482-2.123-1.98-4.465-1.98-4.465 1.727 4.714 1.061 8.27.604 10.287 0 0-.605 2.255.696.375 1.62-2.351.68-6.197.68-6.197"/><path d="M17.976 8.297c.899 3.2 1.305 5.918 1.432 8.184.224 3.86-.366 6.4-.731 7.74-.117.438.37.763.655.433l.005-.005c.711-.813 1.046-2.718 1.204-4.39l.046-.548c.147-2.011.06-4.043-.412-5.989-.869-3.59-2.2-5.425-2.2-5.425zm-1.611 5.639c-.218-5.258-.614-9.926-.614-9.926s-.402 4.435-.62 9.575a200 200 0 0 0-.091 2.535 128 128 0 0 0-.051 3.688c.005 2.138.086 4.145.28 5.745.075.635.898.635.974 0 .133-1.092.209-2.433.24-3.907.03-1.498.02-3.129-.021-4.78a186 186 0 0 0-.097-2.93m-6.141 6.334a16 16 0 0 1-.081-2.987c.05-.782.162-1.62.355-2.514.178-.818.422-1.677.752-2.58 0 0-1.056 1.65-1.676 3.433-.122.34-.224.69-.3 1.031 0 0-.198.894-.228 2.088-.02.828.045 1.808.31 2.733.137.482.33.95.594 1.376 0 0 1.3 1.936.696-.376a17 17 0 0 1-.422-2.204"/><path d="M12.078 19.234c-.04-.935-.03-1.981.051-3.14a31 31 0 0 1 .244-2.306c.228-1.645.6-3.469 1.163-5.49 0 0-1.336 1.833-2.204 5.424q-.068.29-.127.574-.236 1.174-.31 2.378a23 23 0 0 0 .025 3.032l.046.554c.157 1.67.487 3.576 1.204 4.389l.005.005c.284.325.777 0 .655-.432a22.2 22.2 0 0 1-.752-4.988"/><path d="M14.298 19.432a87 87 0 0 1-.015-3.495q.013-1.15.066-2.423c.086-2.19.498-5.354.782-8.036 0 0-1.402 2.9-2.042 8.133a49 49 0 0 0-.229 2.321l-.045.62s-.076 1.107-.046 2.6c.04 1.92.254 4.48 1.046 6.157q.037.076.097.132l.005.005c.3.284.762.015.721-.427a72 72 0 0 1-.34-5.587m2.906 0c.025-1.047.035-2.215.015-3.495q-.014-1.15-.066-2.423c-.087-2.19-.498-5.354-.783-8.036 0 0 1.402 2.9 2.042 8.133.087.716.168 1.488.23 2.321l.045.62s.076 1.107.045 2.6c-.04 1.92-.253 4.48-1.046 6.157a.4.4 0 0 1-.096.132l-.005.005c-.3.284-.762.015-.722-.427.102-.96.275-2.865.34-5.587z"/></g></g></svg>