<svg xmlns="http://www.w3.org/2000/svg" xmlns:xlink="http://www.w3.org/1999/xlink" width="32" height="32" viewBox="0 0 32 32"><defs><linearGradient id="dth_svg-c" x1="50%" x2="50%" y1="0%" y2="100%"><stop offset="0%" stop-color="#FFF" stop-opacity=".5"/><stop offset="100%" stop-opacity=".5"/></linearGradient><filter id="dth_svg-b" width="111.7%" height="111.7%" x="-5.8%" y="-4.2%" filterUnits="objectBoundingBox"><feOffset dy=".5" in="SourceAlpha" result="shadowOffsetOuter1"/><feGaussianBlur in="shadowOffsetOuter1" result="shadowBlurOuter1" stdDeviation=".5"/><feComposite in="shadowBlurOuter1" in2="SourceAlpha" operator="out" result="shadowBlurOuter1"/><feColorMatrix in="shadowBlurOuter1" values="0 0 0 0 0 0 0 0 0 0 0 0 0 0 0 0 0 0 0.199473505 0"/></filter><circle id="dth_svg-a" cx="15" cy="15" r="15"/></defs><g fill="none"><g transform="translate(1)"><use xlink:href="#dth_svg-a" fill="#000" filter="url(#dth_svg-b)"/><use xlink:href="#dth_svg-a" fill="#3C80F1"/><use xlink:href="#dth_svg-a" fill="url(#dth_svg-c)" style="mix-blend-mode:soft-light"/><circle cx="15" cy="15" r="14.5" stroke="#000" stroke-linejoin="square" stroke-opacity=".097"/></g><g fill="#FFF"><path d="M16.076 4a8.926 8.926 0 0 0-8.92 8.915q.009.722.16 1.429a.138.138 0 0 0 .218.082 2 2 0 0 1 1.168-.376.137.137 0 0 0 .138-.161 5.4 5.4 0 0 1-.091-.965 7.326 7.326 0 1 1 14.652 0c0 4.04-5.17 9.203-7.02 11.025a.436.436 0 0 1-.61 0 55 55 0 0 1-2.28-2.362h-.037a7.8 7.8 0 0 1-2.065-.495l-.122-.05a.137.137 0 0 0-.16.214 52 52 0 0 0 3.641 3.921 1.9 1.9 0 0 0 2.65 0c3.258-3.219 7.597-7.98 7.597-12.262A8.926 8.926 0 0 0 16.075 4"/><path d="M19.783 13.816c0 .126-.01.25-.02.372a4.3 4.3 0 0 1-.322 1.363 4.7 4.7 0 0 1-.768 1.184l.01.008a6.3 6.3 0 0 1-2.25 1.607 5.6 5.6 0 0 1-2.704.434 5 5 0 0 1-2.436-.924q.348-.012.684-.104.304-.086.574-.246a2.06 2.06 0 0 0 .857-1.005q.117-.288.16-.596.027-.258.016-.518V9.504a.34.34 0 0 1 .29-.275h1.928a3.7 3.7 0 0 1 1.318.354 4.8 4.8 0 0 1 2.073 1.883q.18.304.31.63.126.325.198.669.072.34.082.688zm1.588-.419a5.4 5.4 0 0 0-.116-.964 5.9 5.9 0 0 0-.699-1.78 6.4 6.4 0 0 0-2.769-2.513 5.3 5.3 0 0 0-1.875-.498c-.082 0-.161 0-.251-.01h-1.798c-.058 0-.118 0-.176.013-.235.028-.464.1-.673.21a1.93 1.93 0 0 0-1.016 1.57v5.967q0 .156-.02.311a1 1 0 0 1-.052.206.5.5 0 0 1-.082.137.6.6 0 0 1-.309.178 1.6 1.6 0 0 1-.543.042 3 3 0 0 1-1.747-.781.796.796 0 0 0-1.239.964 8.35 8.35 0 0 0 2.263 2.63 6.7 6.7 0 0 0 1.562.869c.56.218 1.146.359 1.744.418a7.2 7.2 0 0 0 3.476-.544 7.4 7.4 0 0 0 2.824-2.058l.01.008a6.2 6.2 0 0 0 1.025-1.596 5.9 5.9 0 0 0 .437-1.858c.013-.16.02-.306.026-.458v-.227c.006-.066.001-.157 0-.236z"/></g></g></svg>