<svg xmlns="http://www.w3.org/2000/svg" xmlns:xlink="http://www.w3.org/1999/xlink" width="32" height="32" viewBox="0 0 32 32"><defs><filter id="dtr_svg-b" width="111.7%" height="111.7%" x="-5.8%" y="-4.2%" filterUnits="objectBoundingBox"><feOffset dy=".5" in="SourceAlpha" result="shadowOffsetOuter1"/><feGaussianBlur in="shadowOffsetOuter1" result="shadowBlurOuter1" stdDeviation=".5"/><feComposite in="shadowBlurOuter1" in2="SourceAlpha" operator="out" result="shadowBlurOuter1"/><feColorMatrix in="shadowBlurOuter1" values="0 0 0 0 0 0 0 0 0 0 0 0 0 0 0 0 0 0 0.199473505 0"/></filter><filter id="dtr_svg-d" width="119.4%" height="119.4%" x="-9.7%" y="-6.9%" filterUnits="objectBoundingBox"><feOffset dy=".5" in="SourceAlpha" result="shadowOffsetOuter1"/><feGaussianBlur in="shadowOffsetOuter1" result="shadowBlurOuter1" stdDeviation=".5"/><feColorMatrix in="shadowBlurOuter1" result="shadowMatrixOuter1" values="0 0 0 0 0 0 0 0 0 0 0 0 0 0 0 0 0 0 0.204257246 0"/><feMerge><feMergeNode in="shadowMatrixOuter1"/><feMergeNode in="SourceGraphic"/></feMerge></filter><linearGradient id="dtr_svg-c" x1="50%" x2="50%" y1="0%" y2="100%"><stop offset="0%" stop-color="#FFF" stop-opacity=".5"/><stop offset="100%" stop-opacity=".5"/></linearGradient><circle id="dtr_svg-a" cx="16" cy="15" r="15"/></defs><g fill="none" fill-rule="evenodd"><use xlink:href="#dtr_svg-a" fill="#000" filter="url(#dtr_svg-b)"/><use xlink:href="#dtr_svg-a" fill="#121747"/><use xlink:href="#dtr_svg-a" fill="url(#dtr_svg-c)" style="mix-blend-mode:soft-light"/><circle cx="16" cy="15" r="14.5" stroke="#000" stroke-opacity=".097"/><g fill="#FFF" fill-rule="nonzero" filter="url(#dtr_svg-d)" transform="translate(7 6)"><path d="M11.032 15.87c0 1.145-.92 2.074-2.056 2.074a2.065 2.065 0 0 1-2.055-2.075V2.08A2.064 2.064 0 0 1 8.976.006c1.135 0 2.056.929 2.056 2.075zm-6.92.005a2.07 2.07 0 0 1-1.015 1.82 2.03 2.03 0 0 1-2.068 0 2.07 2.07 0 0 1-1.014-1.82v-3.1a2.07 2.07 0 0 1 1.014-1.82 2.03 2.03 0 0 1 2.068 0 2.07 2.07 0 0 1 1.014 1.82z"/><path d="M17.956 10.4c0 1.145-.92 2.074-2.056 2.074a2.065 2.065 0 0 1-2.056-2.075V5.166c0-1.146.92-2.075 2.056-2.075 1.135 0 2.056.929 2.056 2.075z" opacity=".5"/></g></g></svg>