<svg xmlns="http://www.w3.org/2000/svg" xmlns:xlink="http://www.w3.org/1999/xlink" width="32" height="32" viewBox="0 0 32 32"><defs><filter id="ebst_svg-b" width="111.7%" height="111.7%" x="-5.8%" y="-4.2%" filterUnits="objectBoundingBox"><feOffset dy=".5" in="SourceAlpha" result="shadowOffsetOuter1"/><feGaussianBlur in="shadowOffsetOuter1" result="shadowBlurOuter1" stdDeviation=".5"/><feComposite in="shadowBlurOuter1" in2="SourceAlpha" operator="out" result="shadowBlurOuter1"/><feColorMatrix in="shadowBlurOuter1" values="0 0 0 0 0 0 0 0 0 0 0 0 0 0 0 0 0 0 0.199473505 0"/></filter><filter id="ebst_svg-e" width="115.9%" height="121.9%" x="-8%" y="-7.8%" filterUnits="objectBoundingBox"><feOffset dy=".5" in="SourceAlpha" result="shadowOffsetOuter1"/><feGaussianBlur in="shadowOffsetOuter1" result="shadowBlurOuter1" stdDeviation=".5"/><feColorMatrix in="shadowBlurOuter1" values="0 0 0 0 0 0 0 0 0 0 0 0 0 0 0 0 0 0 0.204257246 0"/></filter><linearGradient id="ebst_svg-c" x1="50%" x2="50%" y1="0%" y2="100%"><stop offset="0%" stop-color="#FFF" stop-opacity=".5"/><stop offset="100%" stop-opacity=".5"/></linearGradient><circle id="ebst_svg-a" cx="16" cy="15" r="15"/><path id="ebst_svg-d" d="M9.928 15.574a8 8 0 0 1-.005-1.08h-2.8L4 11.996h6.494A8.05 8.05 0 0 1 17.954 7C22.398 7 26 10.582 26 15s-3.602 8-8.046 8a8.05 8.05 0 0 1-7.432-4.928H4l3.123-2.498zm12.609-.425q0-1.245-.337-2.172-.338-.93-.935-1.55a3.9 3.9 0 0 0-1.418-.938 4.9 4.9 0 0 0-1.783-.316q-1.041 0-1.938.354a4.6 4.6 0 0 0-1.552.995q-.655.642-1.031 1.55-.376.91-.376 2.02 0 1.128.376 2.018.375.89 1.04 1.502.666.613 1.572.948a5.7 5.7 0 0 0 1.986.335q2.603 0 3.972-1.838l-1.543-1.224q-.385.555-.983.87-.598.316-1.465.316-.502 0-.964-.172a3 3 0 0 1-.83-.469 2.26 2.26 0 0 1-.848-1.617h7.038q.02-.153.019-.306zm-2.314-1.034H15.48q.078-.975.8-1.598.724-.621 1.765-.622.558 0 .973.182t.685.488.395.708a2.8 2.8 0 0 1 .125.842"/></defs><g fill="none" fill-rule="evenodd"><g fill-rule="nonzero"><use xlink:href="#ebst_svg-a" fill="#000" filter="url(#ebst_svg-b)"/><use xlink:href="#ebst_svg-a" fill="#1693D4" fill-rule="evenodd"/><use xlink:href="#ebst_svg-a" fill="url(#ebst_svg-c)" fill-rule="evenodd" style="mix-blend-mode:soft-light"/><circle cx="16" cy="15" r="14.5" stroke="#000" stroke-opacity=".097"/></g><use xlink:href="#ebst_svg-d" fill="#000" filter="url(#ebst_svg-e)"/><use xlink:href="#ebst_svg-d" fill="#FFF"/></g></svg>