<svg xmlns="http://www.w3.org/2000/svg" xmlns:xlink="http://www.w3.org/1999/xlink" width="32" height="32" viewBox="0 0 32 32"><defs><filter id="ela_svg-b" width="111.7%" height="111.7%" x="-5.8%" y="-4.2%" filterUnits="objectBoundingBox"><feOffset dy=".5" in="SourceAlpha" result="shadowOffsetOuter1"/><feGaussianBlur in="shadowOffsetOuter1" result="shadowBlurOuter1" stdDeviation=".5"/><feComposite in="shadowBlurOuter1" in2="SourceAlpha" operator="out" result="shadowBlurOuter1"/><feColorMatrix in="shadowBlurOuter1" values="0 0 0 0 0 0 0 0 0 0 0 0 0 0 0 0 0 0 0.199473505 0"/></filter><filter id="ela_svg-d" width="117.5%" height="119.4%" x="-8.8%" y="-6.9%" filterUnits="objectBoundingBox"><feOffset dy=".5" in="SourceAlpha" result="shadowOffsetOuter1"/><feGaussianBlur in="shadowOffsetOuter1" result="shadowBlurOuter1" stdDeviation=".5"/><feColorMatrix in="shadowBlurOuter1" result="shadowMatrixOuter1" values="0 0 0 0 0 0 0 0 0 0 0 0 0 0 0 0 0 0 0.204257246 0"/><feMerge><feMergeNode in="shadowMatrixOuter1"/><feMergeNode in="SourceGraphic"/></feMerge></filter><linearGradient id="ela_svg-c" x1="50%" x2="50%" y1="0%" y2="100%"><stop offset="0%" stop-color="#FFF" stop-opacity=".5"/><stop offset="100%" stop-opacity=".5"/></linearGradient><circle id="ela_svg-a" cx="16" cy="15" r="15"/></defs><g fill="none" fill-rule="evenodd"><use xlink:href="#ela_svg-a" fill="#000" filter="url(#ela_svg-b)"/><use xlink:href="#ela_svg-a" fill="#3FBADF"/><use xlink:href="#ela_svg-a" fill="url(#ela_svg-c)" style="mix-blend-mode:soft-light"/><circle cx="16" cy="15" r="14.5" stroke="#000" stroke-opacity=".097"/><g fill="#FFF" fill-rule="nonzero" filter="url(#ela_svg-d)" transform="translate(6 6)"><path fill-opacity=".4" d="m5 15.119 5-2.82v5.635zm0-9 5-2.82v5.635L5 6.12z"/><path fill-opacity=".7" d="m20 12.23-5 2.886V9.43zm0-9-5 2.886V.43z"/><path fill-opacity=".8" d="M5 15.116V9.433l5 2.87zm0-9V.433l5 2.87z"/><path d="m15 15.116-5-2.812 5-2.874zm0-9-5-2.812L15 .43z"/><path fill-opacity=".6" d="m15 15.116-5 2.818v-5.63zm0-9-5 2.818v-5.63z"/><path fill-opacity=".5" d="M5 9.433v5.683l-5-2.885zm0-9v5.683L0 3.231z"/></g></g></svg>