<svg xmlns="http://www.w3.org/2000/svg" xmlns:xlink="http://www.w3.org/1999/xlink" width="32" height="32" viewBox="0 0 32 32"><defs><linearGradient id="emb_svg-c" x1="50%" x2="50%" y1="0%" y2="100%"><stop offset="0%" stop-color="#FFF" stop-opacity=".5"/><stop offset="100%" stop-opacity=".5"/></linearGradient><filter id="emb_svg-b" width="111.7%" height="111.7%" x="-5.8%" y="-4.2%" filterUnits="objectBoundingBox"><feOffset dy=".5" in="SourceAlpha" result="shadowOffsetOuter1"/><feGaussianBlur in="shadowOffsetOuter1" result="shadowBlurOuter1" stdDeviation=".5"/><feComposite in="shadowBlurOuter1" in2="SourceAlpha" operator="out" result="shadowBlurOuter1"/><feColorMatrix in="shadowBlurOuter1" values="0 0 0 0 0 0 0 0 0 0 0 0 0 0 0 0 0 0 0.199473505 0"/></filter><circle id="emb_svg-a" cx="16" cy="15" r="15"/></defs><g fill="none" fill-rule="evenodd"><use xlink:href="#emb_svg-a" fill="#000" filter="url(#emb_svg-b)"/><use xlink:href="#emb_svg-a" fill="#F6C054"/><use xlink:href="#emb_svg-a" fill="url(#emb_svg-c)" style="mix-blend-mode:soft-light"/><circle cx="16" cy="15" r="14.5" stroke="#000" stroke-linejoin="square" stroke-opacity=".097"/><path fill="#FFF" fill-rule="nonzero" d="m26.822 14.568-10.39-10.39a.607.607 0 0 0-.86 0L5.18 14.569a.607.607 0 0 0 0 .86l10.39 10.393a.607.607 0 0 0 .859 0l10.39-10.389a.61.61 0 0 0 .004-.864zm-2.284.52-7.616 7.616V15h-1.848v7.704l-7.616-7.616a.12.12 0 0 1 0-.172l8.454-8.453a.12.12 0 0 1 .172 0l8.454 8.453a.12.12 0 0 1 0 .172q0-.006 0 0"/></g></svg>