<svg xmlns="http://www.w3.org/2000/svg" xmlns:xlink="http://www.w3.org/1999/xlink" width="32" height="32" viewBox="0 0 32 32"><defs><filter id="emc2_svg-b" width="111.7%" height="111.7%" x="-5.8%" y="-4.2%" filterUnits="objectBoundingBox"><feOffset dy=".5" in="SourceAlpha" result="shadowOffsetOuter1"/><feGaussianBlur in="shadowOffsetOuter1" result="shadowBlurOuter1" stdDeviation=".5"/><feComposite in="shadowBlurOuter1" in2="SourceAlpha" operator="out" result="shadowBlurOuter1"/><feColorMatrix in="shadowBlurOuter1" values="0 0 0 0 0 0 0 0 0 0 0 0 0 0 0 0 0 0 0.199473505 0"/></filter><filter id="emc2_svg-d" width="117.5%" height="125%" x="-8.8%" y="-8.9%" filterUnits="objectBoundingBox"><feOffset dy=".5" in="SourceAlpha" result="shadowOffsetOuter1"/><feGaussianBlur in="shadowOffsetOuter1" result="shadowBlurOuter1" stdDeviation=".5"/><feColorMatrix in="shadowBlurOuter1" result="shadowMatrixOuter1" values="0 0 0 0 0 0 0 0 0 0 0 0 0 0 0 0 0 0 0.204257246 0"/><feMerge><feMergeNode in="shadowMatrixOuter1"/><feMergeNode in="SourceGraphic"/></feMerge></filter><linearGradient id="emc2_svg-c" x1="50%" x2="50%" y1="0%" y2="100%"><stop offset="0%" stop-color="#FFF" stop-opacity=".5"/><stop offset="100%" stop-opacity=".5"/></linearGradient><circle id="emc2_svg-a" cx="16" cy="15" r="15"/></defs><g fill="none"><use xlink:href="#emc2_svg-a" fill="#000" filter="url(#emc2_svg-b)"/><use xlink:href="#emc2_svg-a" fill="#0CF" fill-rule="evenodd"/><use xlink:href="#emc2_svg-a" fill="url(#emc2_svg-c)" fill-rule="evenodd" style="mix-blend-mode:soft-light"/><circle cx="16" cy="15" r="14.5" stroke="#000" stroke-opacity=".097"/><g fill="#FFF" filter="url(#emc2_svg-d)" transform="translate(6 8)"><path fill-opacity=".4" d="M1.894 10.161H6.29L4.399 14H0zm2.505-5.08h4.398L6.91 8.91h-4.4l1.889-3.83zM6.905.001h4.398l-1.889 3.83H5.018L6.905 0z"/><path fill-opacity=".6" d="M6.277 10.16h4.398L8.78 13.997H4.383l1.894-3.839zm2.506-5.08h4.397l-1.888 3.828H6.894zM11.288 0h4.398l-1.889 3.829H9.4z"/><path d="M10.59 10.16h4.398l-1.893 3.838H8.697zm2.506-5.08h4.398l-1.888 3.828h-4.398zM15.602 0H20l-1.889 3.829h-4.397z"/></g></g></svg>