<svg xmlns="http://www.w3.org/2000/svg" xmlns:xlink="http://www.w3.org/1999/xlink" width="32" height="32" viewBox="0 0 32 32"><defs><linearGradient id="eos_svg-c" x1="50%" x2="50%" y1="0%" y2="100%"><stop offset="0%" stop-color="#FFF" stop-opacity=".5"/><stop offset="100%" stop-opacity=".5"/></linearGradient><filter id="eos_svg-b" width="111.7%" height="111.7%" x="-5.8%" y="-4.2%" filterUnits="objectBoundingBox"><feOffset dy=".5" in="SourceAlpha" result="shadowOffsetOuter1"/><feGaussianBlur in="shadowOffsetOuter1" result="shadowBlurOuter1" stdDeviation=".5"/><feComposite in="shadowBlurOuter1" in2="SourceAlpha" operator="out" result="shadowBlurOuter1"/><feColorMatrix in="shadowBlurOuter1" values="0 0 0 0 0 0 0 0 0 0 0 0 0 0 0 0 0 0 0.199473505 0"/></filter><circle id="eos_svg-a" cx="16" cy="15" r="15"/></defs><g fill="none"><use xlink:href="#eos_svg-a" fill="#000" filter="url(#eos_svg-b)"/><use xlink:href="#eos_svg-a" fill="#282828" fill-rule="evenodd"/><use xlink:href="#eos_svg-a" fill="url(#eos_svg-c)" fill-rule="evenodd" style="mix-blend-mode:soft-light"/><circle cx="16" cy="15" r="14.5" stroke="#000" stroke-opacity=".097"/><path fill="#FFF" d="m9.177 19.914 2.776-4.899-1.01-3.17zm3.04-4.068-3.256 5.747h5.087zm-2.691 6.387 5.904 3.7-1.178-3.7zm2.857-7.977L15.68 8.44V4.603l-4.44 6.065zm-1.81-3.709a.3.3 0 0 1 .057-.13l5.111-6.982a.31.31 0 0 1 .262-.132.31.31 0 0 1 .262.132l5.111 6.983a.3.3 0 0 1 .058.13l2.47 11.283a.32.32 0 0 1-.154.363l-7.573 4.745a.3.3 0 0 1-.174.05.3.3 0 0 1-.173-.05l-7.573-4.745a.32.32 0 0 1-.154-.363zm5.43 15.078 1.08-3.392h-2.16zm.574.308 5.904-3.7h-4.726zm4.486-14.089-1.01 3.171 2.776 4.899zm-.297-1.176-4.439-6.065v3.836l3.296 5.817zm2.28 10.925-3.257-5.747-1.83 5.747zM16.002 9.166l-3.355 5.921 2.072 6.506h2.567l2.072-6.506zm7.313 12.905.279-.478h-.55zm-14.904-.478.279.478.27-.478z"/></g></svg>