<svg xmlns="http://www.w3.org/2000/svg" xmlns:xlink="http://www.w3.org/1999/xlink" width="32" height="32" viewBox="0 0 32 32"><defs><filter id="equa_svg-b" width="111.7%" height="111.7%" x="-5.8%" y="-4.2%" filterUnits="objectBoundingBox"><feOffset dy=".5" in="SourceAlpha" result="shadowOffsetOuter1"/><feGaussianBlur in="shadowOffsetOuter1" result="shadowBlurOuter1" stdDeviation=".5"/><feComposite in="shadowBlurOuter1" in2="SourceAlpha" operator="out" result="shadowBlurOuter1"/><feColorMatrix in="shadowBlurOuter1" values="0 0 0 0 0 0 0 0 0 0 0 0 0 0 0 0 0 0 0.199473505 0"/></filter><filter id="equa_svg-e" width="121.9%" height="117.5%" x="-10.9%" y="-6.2%" filterUnits="objectBoundingBox"><feOffset dy=".5" in="SourceAlpha" result="shadowOffsetOuter1"/><feGaussianBlur in="shadowOffsetOuter1" result="shadowBlurOuter1" stdDeviation=".5"/><feColorMatrix in="shadowBlurOuter1" values="0 0 0 0 0 0 0 0 0 0 0 0 0 0 0 0 0 0 0.204257246 0"/></filter><linearGradient id="equa_svg-c" x1="50%" x2="50%" y1="0%" y2="100%"><stop offset="0%" stop-color="#FFF" stop-opacity=".5"/><stop offset="100%" stop-opacity=".5"/></linearGradient><circle id="equa_svg-a" cx="16" cy="15" r="15"/><path id="equa_svg-d" d="M16.72 9.078s-4.127.606-4.728 5.193c0 0-.638 5.134 4.608 6.52a4.4 4.4 0 0 0 1.113.143h.258c.534 0 1.046.214 1.424.594s.59.896.59 1.434a2.014 2.014 0 0 1-1.856 2.022c-2.579.174-6.04-1.092-8.286-4.136 0 0-4.399-6.325.395-12.137a10.2 10.2 0 0 1 4.277-3.072c1.97-.737 4.856-1.211 7.361.756 0 0 3.353 2.597 1.634 6.837 0 0-1.204 3.375-5.33 3.635l-.573-.032a1.9 1.9 0 0 1-1.414-.691 1.92 1.92 0 0 1-.413-1.527 1.904 1.904 0 0 1 1.818-1.605l.582-.04s1.977-.086 1.805-2.423c0 0-.172-2.077-3.266-1.47"/></defs><g fill="none"><use xlink:href="#equa_svg-a" fill="#000" filter="url(#equa_svg-b)"/><use xlink:href="#equa_svg-a" fill="#F68922" fill-rule="evenodd"/><use xlink:href="#equa_svg-a" fill="url(#equa_svg-c)" fill-rule="evenodd" style="mix-blend-mode:soft-light"/><circle cx="16" cy="15" r="14.5" stroke="#000" stroke-opacity=".097"/><use xlink:href="#equa_svg-d" fill="#000" filter="url(#equa_svg-e)"/><use xlink:href="#equa_svg-d" fill="#FFF" fill-rule="evenodd"/></g></svg>