<svg xmlns="http://www.w3.org/2000/svg" xmlns:xlink="http://www.w3.org/1999/xlink" width="32" height="32" viewBox="0 0 32 32"><defs><filter id="eth_svg-b" width="111.7%" height="111.7%" x="-5.8%" y="-4.2%" filterUnits="objectBoundingBox"><feOffset dy=".5" in="SourceAlpha" result="shadowOffsetOuter1"/><feGaussianBlur in="shadowOffsetOuter1" result="shadowBlurOuter1" stdDeviation=".5"/><feComposite in="shadowBlurOuter1" in2="SourceAlpha" operator="out" result="shadowBlurOuter1"/><feColorMatrix in="shadowBlurOuter1" values="0 0 0 0 0 0 0 0 0 0 0 0 0 0 0 0 0 0 0.199473505 0"/></filter><filter id="eth_svg-e" width="123.3%" height="114.6%" x="-11.7%" y="-5.2%" filterUnits="objectBoundingBox"><feOffset dy=".5" in="SourceAlpha" result="shadowOffsetOuter1"/><feGaussianBlur in="shadowOffsetOuter1" result="shadowBlurOuter1" stdDeviation=".5"/><feComposite in="shadowBlurOuter1" in2="SourceAlpha" operator="out" result="shadowBlurOuter1"/><feColorMatrix in="shadowBlurOuter1" values="0 0 0 0 0 0 0 0 0 0 0 0 0 0 0 0 0 0 0.204257246 0"/></filter><linearGradient id="eth_svg-c" x1="50%" x2="50%" y1="0%" y2="100%"><stop offset="0%" stop-color="#FFF" stop-opacity=".5"/><stop offset="100%" stop-opacity=".5"/></linearGradient><circle id="eth_svg-a" cx="16" cy="15" r="15"/><path id="eth_svg-d" d="M16.498 20.968 24 16.616l-7.502 10.379L9 16.615l7.498 4.351zm0-17.968 7.497 12.22-7.497 4.353L9 15.22z"/></defs><g fill="none" fill-rule="evenodd"><use xlink:href="#eth_svg-a" fill="#000" filter="url(#eth_svg-b)"/><use xlink:href="#eth_svg-a" fill="#627EEA"/><use xlink:href="#eth_svg-a" fill="url(#eth_svg-c)" style="mix-blend-mode:soft-light"/><circle cx="16" cy="15" r="14.5" stroke="#000" stroke-opacity=".097"/><g fill-rule="nonzero"><use xlink:href="#eth_svg-d" fill="#000" filter="url(#eth_svg-e)"/><use xlink:href="#eth_svg-d" fill="#FFF" fill-opacity="0" fill-rule="evenodd"/></g><g fill="#FFF" fill-rule="nonzero"><path fill-opacity=".602" d="M16.498 3v8.87l7.497 3.35z"/><path d="M16.498 3 9 15.22l7.498-3.35z"/><path fill-opacity=".602" d="M16.498 20.968v6.027L24 16.616z"/><path d="M16.498 26.995v-6.028L9 16.616z"/><path fill-opacity=".2" d="m16.498 19.573 7.497-4.353-7.497-3.348z"/><path fill-opacity=".602" d="m9 15.22 7.498 4.353v-7.701z"/></g></g></svg>