<svg xmlns="http://www.w3.org/2000/svg" xmlns:xlink="http://www.w3.org/1999/xlink" width="32" height="32" viewBox="0 0 32 32"><defs><filter id="etn_svg-b" width="111.7%" height="111.7%" x="-5.8%" y="-4.2%" filterUnits="objectBoundingBox"><feOffset dy=".5" in="SourceAlpha" result="shadowOffsetOuter1"/><feGaussianBlur in="shadowOffsetOuter1" result="shadowBlurOuter1" stdDeviation=".5"/><feComposite in="shadowBlurOuter1" in2="SourceAlpha" operator="out" result="shadowBlurOuter1"/><feColorMatrix in="shadowBlurOuter1" values="0 0 0 0 0 0 0 0 0 0 0 0 0 0 0 0 0 0 0.199473505 0"/></filter><filter id="etn_svg-e" width="115.9%" height="115.9%" x="-8%" y="-5.7%" filterUnits="objectBoundingBox"><feOffset dy=".5" in="SourceAlpha" result="shadowOffsetOuter1"/><feGaussianBlur in="shadowOffsetOuter1" result="shadowBlurOuter1" stdDeviation=".5"/><feColorMatrix in="shadowBlurOuter1" values="0 0 0 0 0 0 0 0 0 0 0 0 0 0 0 0 0 0 0.204257246 0"/></filter><linearGradient id="etn_svg-c" x1="50%" x2="50%" y1="0%" y2="100%"><stop offset="0%" stop-color="#FFF" stop-opacity=".5"/><stop offset="100%" stop-opacity=".5"/></linearGradient><circle id="etn_svg-a" cx="16" cy="15" r="15"/><path id="etn_svg-d" d="m19.879 12.469 3.239-3.412a9.23 9.23 0 0 1 2.153 5.938c0 5.117-4.15 9.266-9.271 9.266a9.2 9.2 0 0 1-4.468-1.147l8.238-4.246 1.342-.692-1.243-.859-.888-.614 2.59-1.322 1.288-.658-1.154-.872zm-7.758 5.534-3.02 3.18a9.23 9.23 0 0 1-2.372-6.188c0-5.118 4.15-9.267 9.271-9.267a9.23 9.23 0 0 1 4.906 1.404l-8.676 4.472-1.342.693 1.243.858.888.614-2.59 1.323-1.288.657 1.154.873zM8.536 21.78l-.625.658A10.95 10.95 0 0 1 5 14.995C5 8.932 9.935 4 16 4c2.493 0 4.796.834 6.643 2.237l-.902.465A10.04 10.04 0 0 0 16 4.906c-5.565 0-10.093 4.526-10.093 10.089 0 2.61.996 4.991 2.63 6.784zM23.684 8.46l.628-.66A10.94 10.94 0 0 1 27 14.995c0 6.062-4.935 10.994-11 10.994a10.94 10.94 0 0 1-6.253-1.954l.924-.477A10.04 10.04 0 0 0 16 25.083c5.565 0 10.093-4.526 10.093-10.088 0-2.49-.907-4.772-2.409-6.534zM10.842 15.9l3.941-2.013-2.137-1.476 11.83-6.098-5.953 6.268 2.635 1.993-3.941 2.013 2.137 1.476-11.83 6.098 5.953-6.268z"/></defs><g fill="none"><use xlink:href="#etn_svg-a" fill="#000" filter="url(#etn_svg-b)"/><use xlink:href="#etn_svg-a" fill="#23BEE2" fill-rule="evenodd"/><use xlink:href="#etn_svg-a" fill="url(#etn_svg-c)" fill-rule="evenodd" style="mix-blend-mode:soft-light"/><circle cx="16" cy="15" r="14.5" stroke="#000" stroke-opacity=".097"/><use xlink:href="#etn_svg-d" fill="#000" filter="url(#etn_svg-e)"/><use xlink:href="#etn_svg-d" fill="#FFF" fill-rule="evenodd"/></g></svg>