<svg xmlns="http://www.w3.org/2000/svg" xmlns:xlink="http://www.w3.org/1999/xlink" width="32" height="32" viewBox="0 0 32 32"><defs><filter id="eur_svg-b" width="111.7%" height="111.7%" x="-5.8%" y="-4.2%" filterUnits="objectBoundingBox"><feOffset dy=".5" in="SourceAlpha" result="shadowOffsetOuter1"/><feGaussianBlur in="shadowOffsetOuter1" result="shadowBlurOuter1" stdDeviation=".5"/><feComposite in="shadowBlurOuter1" in2="SourceAlpha" operator="out" result="shadowBlurOuter1"/><feColorMatrix in="shadowBlurOuter1" values="0 0 0 0 0 0 0 0 0 0 0 0 0 0 0 0 0 0 0.199473505 0"/></filter><filter id="eur_svg-e" width="125%" height="119.4%" x="-12.5%" y="-6.9%" filterUnits="objectBoundingBox"><feOffset dy=".5" in="SourceAlpha" result="shadowOffsetOuter1"/><feGaussianBlur in="shadowOffsetOuter1" result="shadowBlurOuter1" stdDeviation=".5"/><feColorMatrix in="shadowBlurOuter1" values="0 0 0 0 0 0 0 0 0 0 0 0 0 0 0 0 0 0 0.204257246 0"/></filter><linearGradient id="eur_svg-c" x1="50%" x2="50%" y1="0%" y2="100%"><stop offset="0%" stop-color="#FFF" stop-opacity=".5"/><stop offset="100%" stop-opacity=".5"/></linearGradient><circle id="eur_svg-a" cx="16" cy="15" r="15"/><path id="eur_svg-d" d="M8 18.004 8.81 16h.857a16 16 0 0 1-.034-1.03q0-.671.056-1.25H8l.81-2.003h1.274Q11.864 6 18.103 6q2.05 0 3.897.532v2.524a8.9 8.9 0 0 0-3.683-.776q-3.74 0-4.81 3.438h7.423l-.81 2.003h-7.097a7 7 0 0 0-.056.995q0 .718.045 1.285h6.183l-.8 2.003H13.44q.8 2.083 1.949 2.9 1.148.816 3.277.816 1.52 0 3.334-.741v2.373Q20.277 24 17.9 24q-6.251 0-7.906-5.996z"/></defs><g fill="none" fill-rule="evenodd"><use xlink:href="#eur_svg-a" fill="#000" filter="url(#eur_svg-b)"/><use xlink:href="#eur_svg-a" fill="#0F8FF8"/><use xlink:href="#eur_svg-a" fill="url(#eur_svg-c)" style="mix-blend-mode:soft-light"/><circle cx="16" cy="15" r="14.5" stroke="#000" stroke-opacity=".097"/><use xlink:href="#eur_svg-d" fill="#000" filter="url(#eur_svg-e)"/><use xlink:href="#eur_svg-d" fill="#FFF"/></g></svg>