<svg xmlns="http://www.w3.org/2000/svg" width="32" height="32" viewBox="0 0 32 32"><path d="M22.879 18.594A33.9 33.9 0 0 1 32 15.184l-2.36-7.266a34.5 34.5 0 0 1-9.398 2.594A34 34 0 0 1 19.82.785h-7.64a34.5 34.5 0 0 1-.434 9.738A34 34 0 0 1 2.36 7.918L0 15.184a35 35 0 0 1 3.227.875 34.6 34.6 0 0 1 5.898 2.546 33.9 33.9 0 0 1-5.375 8.122l6.18 4.488a34 34 0 0 1 1.832-2.793 34.4 34.4 0 0 1 4.246-4.828 34 34 0 0 1 6.058 7.625l6.184-4.492a33 33 0 0 1-2.094-2.606 34 34 0 0 1-3.277-5.527m0 0" style="stroke:none;fill-rule:nonzero;fill:#000;fill-opacity:1"/></svg>