<svg xmlns="http://www.w3.org/2000/svg" xmlns:xlink="http://www.w3.org/1999/xlink" width="32" height="32" viewBox="0 0 32 32"><defs><filter id="fsn_svg-b" width="111.7%" height="111.7%" x="-5.8%" y="-4.2%" filterUnits="objectBoundingBox"><feOffset dy=".5" in="SourceAlpha" result="shadowOffsetOuter1"/><feGaussianBlur in="shadowOffsetOuter1" result="shadowBlurOuter1" stdDeviation=".5"/><feComposite in="shadowBlurOuter1" in2="SourceAlpha" operator="out" result="shadowBlurOuter1"/><feColorMatrix in="shadowBlurOuter1" values="0 0 0 0 0 0 0 0 0 0 0 0 0 0 0 0 0 0 0.199473505 0"/></filter><filter id="fsn_svg-e" width="114.6%" height="114%" x="-7.3%" y="-5%" filterUnits="objectBoundingBox"><feOffset dy=".5" in="SourceAlpha" result="shadowOffsetOuter1"/><feGaussianBlur in="shadowOffsetOuter1" result="shadowBlurOuter1" stdDeviation=".5"/><feColorMatrix in="shadowBlurOuter1" values="0 0 0 0 0 0 0 0 0 0 0 0 0 0 0 0 0 0 0.204257246 0"/></filter><linearGradient id="fsn_svg-c" x1="50%" x2="50%" y1="0%" y2="100%"><stop offset="0%" stop-color="#FFF" stop-opacity=".5"/><stop offset="100%" stop-opacity=".5"/></linearGradient><circle id="fsn_svg-a" cx="16" cy="15" r="15"/><path id="fsn_svg-d" d="M25 10.844c-.931-.975-2.845-1.792-6.414-2.293a55 55 0 0 0-3.388-.37c-.879-.052-1.732-.105-2.56-.105-1.37 2.056-2.664 4.534-3.802 7.513-1.241 3.269-2.353 6.485-3.13 9.411h-.232c.078-3.137.595-6.696 1.655-10.386.699-2.4 1.526-4.508 2.457-6.353C5.396 8.709 2.396 10 1 11.846 2.19 8.92 5.733 6.442 11.138 5.572c2.87-4.297 6.259-6.221 9.078-5.378.982.29 1.81.923 2.482 1.82a.8.8 0 0 0-.258-.133c-2.07-.843-4.862.37-7.578 3.375h.13c6.077-.027 9.155 2.557 10.008 5.588m-7.603 3.954c1.655 0 3 1.397 3 3.11 0 1.714-1.345 3.111-3 3.111s-3-1.397-3-3.11c0-1.74 1.344-3.11 3-3.11z"/></defs><g fill="none" fill-rule="evenodd"><use xlink:href="#fsn_svg-a" fill="#000" filter="url(#fsn_svg-b)"/><use xlink:href="#fsn_svg-a" fill="#1D9AD7"/><use xlink:href="#fsn_svg-a" fill="url(#fsn_svg-c)" style="mix-blend-mode:soft-light"/><circle cx="16" cy="15" r="14.5" stroke="#000" stroke-opacity=".097"/><use xlink:href="#fsn_svg-d" fill="#000" filter="url(#fsn_svg-e)"/><use xlink:href="#fsn_svg-d" fill="#FFF"/></g></svg>