<svg xmlns="http://www.w3.org/2000/svg" xmlns:xlink="http://www.w3.org/1999/xlink" width="32" height="32" viewBox="0 0 32 32"><defs><filter id="fuel_svg-b" width="111.7%" height="111.7%" x="-5.8%" y="-4.2%" filterUnits="objectBoundingBox"><feOffset dy=".5" in="SourceAlpha" result="shadowOffsetOuter1"/><feGaussianBlur in="shadowOffsetOuter1" result="shadowBlurOuter1" stdDeviation=".5"/><feComposite in="shadowBlurOuter1" in2="SourceAlpha" operator="out" result="shadowBlurOuter1"/><feColorMatrix in="shadowBlurOuter1" values="0 0 0 0 0 0 0 0 0 0 0 0 0 0 0 0 0 0 0.199473505 0"/></filter><filter id="fuel_svg-e" width="117.5%" height="129.2%" x="-8.8%" y="-10.4%" filterUnits="objectBoundingBox"><feOffset dy=".5" in="SourceAlpha" result="shadowOffsetOuter1"/><feGaussianBlur in="shadowOffsetOuter1" result="shadowBlurOuter1" stdDeviation=".5"/><feColorMatrix in="shadowBlurOuter1" values="0 0 0 0 0 0 0 0 0 0 0 0 0 0 0 0 0 0 0.204257246 0"/></filter><linearGradient id="fuel_svg-c" x1="50%" x2="50%" y1="0%" y2="100%"><stop offset="0%" stop-color="#FFF" stop-opacity=".5"/><stop offset="100%" stop-opacity=".5"/></linearGradient><circle id="fuel_svg-a" cx="16" cy="15" r="15"/><path id="fuel_svg-d" d="M25.532 9h-6.495l-1.926 4.83h-6.074v-2.487h6.074L18 9H8.802a.43.43 0 0 0-.432.427v4.402H6.89L6 16.171h2.37v4.397c0 .238.196.432.438.432h4.451l.889-2.341h-3.111V16.17h5.037L14.148 21h2.963l2.074-4.83h6.38c.24 0 .435-.192.435-.429v-6.28A.465.465 0 0 0 25.532 9m-2.05 4.46c0 .204-.167.37-.374.37h-3.034l1.037-2.486h1.995a.373.373 0 0 1 .377.368v1.747z"/></defs><g fill="none"><use xlink:href="#fuel_svg-a" fill="#000" filter="url(#fuel_svg-b)"/><use xlink:href="#fuel_svg-a" fill="#4096D0" fill-rule="evenodd"/><use xlink:href="#fuel_svg-a" fill="url(#fuel_svg-c)" fill-rule="evenodd" style="mix-blend-mode:soft-light"/><circle cx="16" cy="15" r="14.5" stroke="#000" stroke-opacity=".097"/><use xlink:href="#fuel_svg-d" fill="#000" filter="url(#fuel_svg-e)"/><use xlink:href="#fuel_svg-d" fill="#FFF" fill-rule="evenodd"/></g></svg>