<svg xmlns="http://www.w3.org/2000/svg" xmlns:xlink="http://www.w3.org/1999/xlink" width="32" height="32" viewBox="0 0 32 32"><defs><filter id="fun_svg-b" width="111.7%" height="111.7%" x="-5.8%" y="-4.2%" filterUnits="objectBoundingBox"><feOffset dy=".5" in="SourceAlpha" result="shadowOffsetOuter1"/><feGaussianBlur in="shadowOffsetOuter1" result="shadowBlurOuter1" stdDeviation=".5"/><feComposite in="shadowBlurOuter1" in2="SourceAlpha" operator="out" result="shadowBlurOuter1"/><feColorMatrix in="shadowBlurOuter1" values="0 0 0 0 0 0 0 0 0 0 0 0 0 0 0 0 0 0 0.199473505 0"/></filter><filter id="fun_svg-e" width="113.6%" height="113.6%" x="-6.8%" y="-6.8%" filterUnits="objectBoundingBox"><feOffset in="SourceAlpha" result="shadowOffsetOuter1"/><feGaussianBlur in="shadowOffsetOuter1" result="shadowBlurOuter1" stdDeviation=".5"/><feColorMatrix in="shadowBlurOuter1" values="0 0 0 0 0 0 0 0 0 0 0 0 0 0 0 0 0 0 0.204257246 0"/></filter><linearGradient id="fun_svg-c" x1="50%" x2="50%" y1="0%" y2="100%"><stop offset="0%" stop-color="#FFF" stop-opacity=".5"/><stop offset="100%" stop-opacity=".5"/></linearGradient><circle id="fun_svg-a" cx="16" cy="15" r="15"/><path id="fun_svg-d" d="M12.841 25.538a9.6 9.6 0 0 1-3.447-1.754c-1-.763-1.865-1.685-2.56-2.729A10.9 10.9 0 0 1 5.26 17.45a10.7 10.7 0 0 1 0-4.678 12.7 12.7 0 0 1 1.477-3.703 10.13 10.13 0 0 1 4.136-3.704 11 11 0 0 1 1.87-.78c.985 1.17 1.97 2.437 2.955 3.704.098.195.295.293.394.487a7.7 7.7 0 0 0-2.856.683 6.7 6.7 0 0 0-2.068 1.656 8.2 8.2 0 0 0-1.28 2.437 5.95 5.95 0 0 0 .098 3.216l4.235-3.314c.984 1.267 1.97 2.437 2.954 3.704-1.379 1.072-2.856 2.144-4.235 3.313 1.38 1.755 2.856 3.606 4.235 5.458-1.456.17-2.932.038-4.333-.39zm9.384-11.806a6 6 0 0 0-.127-.474c-.134.104-3.064 2.32-4.235 3.314-.985-1.267-1.97-2.436-2.954-3.703 1.379-1.072 2.856-2.144 4.234-3.314a918 918 0 0 0-4.234-5.36c0-.098-.099-.098-.099-.195h1.38a10.9 10.9 0 0 1 6.892 2.534c.94.769 1.74 1.692 2.364 2.729a8.8 8.8 0 0 1 1.378 3.703c.264 1.52.23 3.074-.098 4.58a9.6 9.6 0 0 1-1.576 3.51 10.5 10.5 0 0 1-2.462 2.63 8.7 8.7 0 0 1-3.25 1.755 68 68 0 0 1-2.461-3.119 7.4 7.4 0 0 1-.788-1.072 6.09 6.09 0 0 0 4.825-2.339c.567-.718.97-1.55 1.182-2.436q.275-1.11.029-2.743m-4.65 8.16a61 61 0 0 0 2.117 2.7 8 8 0 0 0 2.548-1.487 9.8 9.8 0 0 0 2.309-2.474 8.85 8.85 0 0 0 1.455-3.239c.309-1.415.34-2.875.088-4.332a8.1 8.1 0 0 0-1.281-3.423 9.8 9.8 0 0 0-2.206-2.545 10.15 10.15 0 0 0-6.328-2.36c.913 1.15 1.837 2.323 3.45 4.374l.432.55-.535.454a55 55 0 0 1-2.145 1.716c-.07.053-.906.69-1.534 1.171.26.327.559.7 1.018 1.267.454.561.753.933 1.012 1.26.457-.373.956-.765 1.553-1.223.096-.074 1.67-1.272 2.113-1.617l.844-.656.318 1.014a6.67 6.67 0 0 1 .112 3.6 7 7 0 0 1-1.316 2.715 6.82 6.82 0 0 1-4.06 2.494z"/></defs><g fill="none" fill-rule="evenodd"><use xlink:href="#fun_svg-a" fill="#000" filter="url(#fun_svg-b)"/><use xlink:href="#fun_svg-a" fill="#ED1968"/><use xlink:href="#fun_svg-a" fill="url(#fun_svg-c)" style="mix-blend-mode:soft-light"/><circle cx="16" cy="15" r="14.5" stroke="#000" stroke-opacity=".097"/><g fill-rule="nonzero"><use xlink:href="#fun_svg-d" fill="#000" filter="url(#fun_svg-e)"/><use xlink:href="#fun_svg-d" fill="#FFF" fill-rule="evenodd"/></g></g></svg>