<svg xmlns="http://www.w3.org/2000/svg" width="60" height="60" fill="none" viewBox="0 0 60 60"><path fill="#353535" d="M49 34.873v17.643c-1.607 1.804-3.714 3.175-6.357 4.077C39.964 57.531 37.07 58 33.928 58q-8.517 0-14.25-5.52c-2.928-2.815-4.714-6.134-5.392-9.958H12v-2.995h2c-.036-.217-.036-.47-.036-.722 0-.324 0-.65.036-.974h-2v-2.995h2.357c.679-3.68 2.357-6.89 5.072-9.633a17.3 17.3 0 0 1 4.892-3.572c-.464-.758-.785-1.587-1.035-2.49a17 17 0 0 1-.25-1.443C23 17.338 23 16.941 23 16.544c0-.361.036-.722.071-1.047a.54.54 0 0 1 .393-.469c.214-.072.429-.036.572.145.321.288.643.577.964.83.143.144.286.252.428.36.215.109.5.073.608-.144.071-.072.071-.18.071-.253 0-.324-.036-.613-.036-.938v-.18c.036-.469.036-.938.072-1.407a18 18 0 0 1 .678-3.644 12.7 12.7 0 0 1 1.393-3.103c.5-.758 1.107-1.48 1.857-2.057.75-.613 1.607-1.082 2.536-1.443a3.5 3.5 0 0 0 .572-.18.4.4 0 0 1 .392.108c.072.072.143.216.107.325a5 5 0 0 0-.142.721 9 9 0 0 0-.179 1.046c-.036.325-.071.65-.071.975-.036.324-.036.65-.036.938.036.758.143 1.479.357 2.164q.214.704.643 1.3c.25.288.5.54.857.757.322.18.715.289 1.072.253.392 0 .714-.145 1.035-.325.357-.216.679-.505.929-.866.107-.144.178-.289.285-.433.036-.036.036-.072.072-.072a.365.365 0 0 1 .607 0l.429.758a7.8 7.8 0 0 1 .714 1.984c.036.253.107.541.107.794 0 .252.036.469.036.685-.036.794-.143 1.588-.429 2.31-.035.144-.071.252-.035.396a.57.57 0 0 0 .75.433l.214-.108a3.2 3.2 0 0 0 .679-.541.27.27 0 0 1 .178-.072c.107 0 .178.072.178.18v.505c0 .18-.035.361-.035.505a9 9 0 0 1-.143 1.01A12 12 0 0 1 41 20.91c2.857 1.01 5.286 2.706 7.357 5.05l-5.785 5.701c-2.43-2.67-5.536-4.004-9.25-4.004-3.25 0-5.894 1.118-7.965 3.283-1.107 1.154-1.928 2.453-2.428 3.896H26v2.995h-3.715c-.035.325-.035.65-.035.974 0 .253 0 .47.035.722H26v2.995h-3.214c.5 1.623 1.357 3.03 2.607 4.257 2.107 2.093 4.928 3.175 8.428 3.175 3.25 0 5.643-.613 7.143-1.804v-5.484h-7.178v-7.793z"/></svg>