<svg xmlns="http://www.w3.org/2000/svg" xmlns:xlink="http://www.w3.org/1999/xlink" width="32" height="32" viewBox="0 0 32 32"><defs><filter id="generic_svg-b" width="111.7%" height="111.7%" x="-5.8%" y="-4.2%" filterUnits="objectBoundingBox"><feOffset dy=".5" in="SourceAlpha" result="shadowOffsetOuter1"/><feGaussianBlur in="shadowOffsetOuter1" result="shadowBlurOuter1" stdDeviation=".5"/><feComposite in="shadowBlurOuter1" in2="SourceAlpha" operator="out" result="shadowBlurOuter1"/><feColorMatrix in="shadowBlurOuter1" values="0 0 0 0 0 0 0 0 0 0 0 0 0 0 0 0 0 0 0.199473505 0"/></filter><filter id="generic_svg-e" width="121.9%" height="115.9%" x="-10.9%" y="-5.7%" filterUnits="objectBoundingBox"><feOffset dy=".5" in="SourceAlpha" result="shadowOffsetOuter1"/><feGaussianBlur in="shadowOffsetOuter1" result="shadowBlurOuter1" stdDeviation=".5"/><feColorMatrix in="shadowBlurOuter1" values="0 0 0 0 0 0 0 0 0 0 0 0 0 0 0 0 0 0 0.204257246 0"/></filter><linearGradient id="generic_svg-c" x1="50%" x2="50%" y1="0%" y2="100%"><stop offset="0%" stop-color="#FFF" stop-opacity=".5"/><stop offset="100%" stop-opacity=".5"/></linearGradient><circle id="generic_svg-a" cx="16" cy="15" r="15"/><path id="generic_svg-d" d="M21.002 8.855A7.95 7.95 0 0 1 24 14.278l-2.847-.708a5.36 5.36 0 0 0-3.86-3.667c-2.866-.713-5.76.991-6.465 3.806-.703 2.815 1.05 5.675 3.917 6.388a5.37 5.37 0 0 0 5.134-1.43l2.847.707a7.97 7.97 0 0 1-5.2 3.385L16.716 26l-2.596-.645.644-2.575a8 8 0 0 1-1.298-.323l-.643 2.575-2.596-.646.81-3.241c-2.378-1.875-3.575-4.996-2.804-8.081.771-3.086 3.297-5.281 6.28-5.823L15.323 4l2.596.645-.644 2.575a8 8 0 0 1 1.298.323l.643-2.575 2.596.646z"/></defs><g fill="none" fill-rule="evenodd"><g fill-rule="nonzero"><use xlink:href="#generic_svg-a" fill="#000" filter="url(#generic_svg-b)"/><use xlink:href="#generic_svg-a" fill="#EFB914" fill-rule="evenodd"/><use xlink:href="#generic_svg-a" fill="url(#generic_svg-c)" fill-rule="evenodd" style="mix-blend-mode:soft-light"/><circle cx="16" cy="15" r="14.5" stroke="#000" stroke-opacity=".097"/></g><use xlink:href="#generic_svg-d" fill="#000" filter="url(#generic_svg-e)"/><use xlink:href="#generic_svg-d" fill="#FFF"/></g></svg>