<svg xmlns="http://www.w3.org/2000/svg" xmlns:xlink="http://www.w3.org/1999/xlink" width="32" height="32" viewBox="0 0 32 32"><defs><filter id="gnt_svg-b" width="111.7%" height="111.7%" x="-5.8%" y="-4.2%" filterUnits="objectBoundingBox"><feOffset dy=".5" in="SourceAlpha" result="shadowOffsetOuter1"/><feGaussianBlur in="shadowOffsetOuter1" result="shadowBlurOuter1" stdDeviation=".5"/><feComposite in="shadowBlurOuter1" in2="SourceAlpha" operator="out" result="shadowBlurOuter1"/><feColorMatrix in="shadowBlurOuter1" values="0 0 0 0 0 0 0 0 0 0 0 0 0 0 0 0 0 0 0.199473505 0"/></filter><filter id="gnt_svg-e" width="134.3%" height="116.5%" x="-17.2%" y="-5.9%" filterUnits="objectBoundingBox"><feOffset dy=".5" in="SourceAlpha" result="shadowOffsetOuter1"/><feGaussianBlur in="shadowOffsetOuter1" result="shadowBlurOuter1" stdDeviation=".5"/><feColorMatrix in="shadowBlurOuter1" values="0 0 0 0 0 0 0 0 0 0 0 0 0 0 0 0 0 0 0.204257246 0"/></filter><linearGradient id="gnt_svg-c" x1="50%" x2="50%" y1="0%" y2="100%"><stop offset="0%" stop-color="#FFF" stop-opacity=".5"/><stop offset="100%" stop-opacity=".5"/></linearGradient><circle id="gnt_svg-a" cx="16" cy="15" r="15"/><path id="gnt_svg-d" d="m20.499 4.288 1.203 1.204-2.277 2.34c.48.73.738 1.591.738 2.479a4.45 4.45 0 0 1-1.258 3.131 4.2 4.2 0 0 1-2.217 1.226v2.039a4.27 4.27 0 0 1 2.213 1.22 4.45 4.45 0 0 1 1.262 3.136 4.45 4.45 0 0 1-1.262 3.135 4.26 4.26 0 0 1-3.07 1.302 4.24 4.24 0 0 1-3.07-1.302 4.47 4.47 0 0 1-1.261-3.135c0-1.18.448-2.299 1.258-3.132a4.2 4.2 0 0 1 2.217-1.225v-2.04a4.27 4.27 0 0 1-2.213-1.22A4.47 4.47 0 0 1 11.5 10.31c0-1.18.448-2.299 1.262-3.135a4.26 4.26 0 0 1 3.07-1.303c.86 0 1.687.262 2.395.749L20.5 4.288zm-4.667 14.057a2.53 2.53 0 0 0-1.857.79 2.75 2.75 0 0 0-.775 1.928c0 .725.275 1.402.775 1.927a2.58 2.58 0 0 0 1.857.79 2.53 2.53 0 0 0 1.856-.79 2.75 2.75 0 0 0 .775-1.927c0-.725-.275-1.402-.778-1.931a2.53 2.53 0 0 0-1.853-.787m1.853-6.09a2.75 2.75 0 0 0 .778-1.931 2.7 2.7 0 0 0-.775-1.928 2.58 2.58 0 0 0-1.856-.79 2.53 2.53 0 0 0-1.857.79 2.75 2.75 0 0 0-.775 1.928c0 .725.275 1.402.775 1.927a2.58 2.58 0 0 0 1.857.79c.711 0 1.367-.276 1.853-.786"/></defs><g fill="none" fill-rule="evenodd"><use xlink:href="#gnt_svg-a" fill="#000" filter="url(#gnt_svg-b)"/><use xlink:href="#gnt_svg-a" fill="#001D57"/><use xlink:href="#gnt_svg-a" fill="url(#gnt_svg-c)" style="mix-blend-mode:soft-light"/><circle cx="16" cy="15" r="14.5" stroke="#000" stroke-opacity=".097"/><g fill-rule="nonzero"><use xlink:href="#gnt_svg-d" fill="#000" filter="url(#gnt_svg-e)"/><use xlink:href="#gnt_svg-d" fill="#FFF" fill-rule="evenodd"/></g></g></svg>