<svg xmlns="http://www.w3.org/2000/svg" xmlns:xlink="http://www.w3.org/1999/xlink" width="32" height="32" viewBox="0 0 32 32"><defs><linearGradient id="gold_svg-c" x1="50%" x2="50%" y1="0%" y2="100%"><stop offset="0%" stop-color="#FFF" stop-opacity=".5"/><stop offset="100%" stop-opacity=".5"/></linearGradient><filter id="gold_svg-b" width="111.7%" height="111.7%" x="-5.8%" y="-4.2%" filterUnits="objectBoundingBox"><feOffset dy=".5" in="SourceAlpha" result="shadowOffsetOuter1"/><feGaussianBlur in="shadowOffsetOuter1" result="shadowBlurOuter1" stdDeviation=".5"/><feComposite in="shadowBlurOuter1" in2="SourceAlpha" operator="out" result="shadowBlurOuter1"/><feColorMatrix in="shadowBlurOuter1" values="0 0 0 0 0 0 0 0 0 0 0 0 0 0 0 0 0 0 0.199473505 0"/></filter><circle id="gold_svg-a" cx="15" cy="15" r="15"/></defs><g fill="none"><g transform="translate(1)"><use xlink:href="#gold_svg-a" fill="#000" filter="url(#gold_svg-b)"/><use xlink:href="#gold_svg-a" fill="#F1B32B"/><use xlink:href="#gold_svg-a" fill="url(#gold_svg-c)" style="mix-blend-mode:soft-light"/><circle cx="15" cy="15" r="14.5" stroke="#000" stroke-linejoin="square" stroke-opacity=".097"/></g><path fill="#FFF" d="M15.75 3C9.26 3 4 8.26 4 14.75S9.26 26.5 15.75 26.5 27.5 21.24 27.5 14.75A11.75 11.75 0 0 0 15.75 3m0 20.57a8.82 8.82 0 1 1 0-17.64 8.82 8.82 0 0 1 0 17.64m-2.93-8.81 2.94 4.4 2.92-4.4-2.92-4.41z"/></g></svg>