<svg xmlns="http://www.w3.org/2000/svg" xmlns:xlink="http://www.w3.org/1999/xlink" width="32" height="32" viewBox="0 0 32 32"><defs><filter id="grt_svg-b" width="111.7%" height="111.7%" x="-5.8%" y="-4.2%" filterUnits="objectBoundingBox"><feOffset dy=".5" in="SourceAlpha" result="shadowOffsetOuter1"/><feGaussianBlur in="shadowOffsetOuter1" result="shadowBlurOuter1" stdDeviation=".5"/><feComposite in="shadowBlurOuter1" in2="SourceAlpha" operator="out" result="shadowBlurOuter1"/><feColorMatrix in="shadowBlurOuter1" values="0 0 0 0 0 0 0 0 0 0 0 0 0 0 0 0 0 0 0.199473505 0"/></filter><filter id="grt_svg-d" color-interpolation-filters="auto"><feColorMatrix in="SourceGraphic" values="0 0 0 0 1.000000 0 0 0 0 1.000000 0 0 0 0 1.000000 0 0 0 1.000000 0"/></filter><linearGradient id="grt_svg-c" x1="50%" x2="50%" y1="0%" y2="100%"><stop offset="0%" stop-color="#FFF" stop-opacity=".5"/><stop offset="100%" stop-opacity=".5"/></linearGradient><circle id="grt_svg-a" cx="16" cy="15" r="15"/></defs><g fill="none" fill-rule="evenodd"><use xlink:href="#grt_svg-a" fill="#000" filter="url(#grt_svg-b)"/><use xlink:href="#grt_svg-a" fill="#5942CC"/><use xlink:href="#grt_svg-a" fill="url(#grt_svg-c)" style="mix-blend-mode:soft-light"/><circle cx="16" cy="15" r="14.5" stroke="#000" stroke-linejoin="square" stroke-opacity=".097"/><g filter="url(#grt_svg-d)"><path fill="#000" fill-rule="nonzero" d="M20.707 18.543a1 1 0 0 1 0 1.414l-4 4a1 1 0 1 1-1.414-1.414l4-4a1 1 0 0 1 1.414 0M15 6.25a6 6 0 1 1 0 12 6 6 0 0 1 0-12m0 2a4 4 0 1 0 0 8 4 4 0 0 0 0-8m7-2a1 1 0 1 1 0 2 1 1 0 0 1 0-2"/></g></g></svg>