<svg xmlns="http://www.w3.org/2000/svg" xmlns:xlink="http://www.w3.org/1999/xlink" width="32" height="32" viewBox="0 0 32 32"><defs><linearGradient id="gsc_svg-c" x1="50%" x2="50%" y1="0%" y2="100%"><stop offset="0%" stop-color="#FFF" stop-opacity=".5"/><stop offset="100%" stop-opacity=".5"/></linearGradient><filter id="gsc_svg-b" width="111.7%" height="111.7%" x="-5.8%" y="-4.2%" filterUnits="objectBoundingBox"><feOffset dy=".5" in="SourceAlpha" result="shadowOffsetOuter1"/><feGaussianBlur in="shadowOffsetOuter1" result="shadowBlurOuter1" stdDeviation=".5"/><feComposite in="shadowBlurOuter1" in2="SourceAlpha" operator="out" result="shadowBlurOuter1"/><feColorMatrix in="shadowBlurOuter1" values="0 0 0 0 0 0 0 0 0 0 0 0 0 0 0 0 0 0 0.199473505 0"/></filter><circle id="gsc_svg-a" cx="15" cy="15" r="15"/></defs><g fill="none"><g transform="translate(1)"><use xlink:href="#gsc_svg-a" fill="#000" filter="url(#gsc_svg-b)"/><use xlink:href="#gsc_svg-a" fill="#FF0060"/><use xlink:href="#gsc_svg-a" fill="url(#gsc_svg-c)" style="mix-blend-mode:soft-light"/><circle cx="15" cy="15" r="14.5" stroke="#000" stroke-linejoin="square" stroke-opacity=".097"/></g><path fill="#FFF" d="M24.163 11.442H15.93a3.488 3.488 0 1 0 3.265 4.702H15.93a.92.92 0 0 1-.92-.92v-.112a.92.92 0 0 1 .92-.921h5.442q.06.381.056.767a5.498 5.498 0 1 1-5.498-5.525l.168-.028a.3.3 0 0 0 .111.028h4.884c2.665 0 3.754-1.424 3.754-3.433H15.93a8.93 8.93 0 1 0 8.93 8.972v-2.819a.7.7 0 0 0-.697-.711"/></g></svg>