<svg xmlns="http://www.w3.org/2000/svg" xmlns:xlink="http://www.w3.org/1999/xlink" width="32" height="32" viewBox="0 0 32 32"><defs><filter id="gup_svg-b" width="111.7%" height="111.7%" x="-5.8%" y="-4.2%" filterUnits="objectBoundingBox"><feOffset dy=".5" in="SourceAlpha" result="shadowOffsetOuter1"/><feGaussianBlur in="shadowOffsetOuter1" result="shadowBlurOuter1" stdDeviation=".5"/><feComposite in="shadowBlurOuter1" in2="SourceAlpha" operator="out" result="shadowBlurOuter1"/><feColorMatrix in="shadowBlurOuter1" values="0 0 0 0 0 0 0 0 0 0 0 0 0 0 0 0 0 0 0.199473505 0"/></filter><filter id="gup_svg-e" width="125%" height="117.5%" x="-12.5%" y="-6.2%" filterUnits="objectBoundingBox"><feOffset dy=".5" in="SourceAlpha" result="shadowOffsetOuter1"/><feGaussianBlur in="shadowOffsetOuter1" result="shadowBlurOuter1" stdDeviation=".5"/><feColorMatrix in="shadowBlurOuter1" values="0 0 0 0 0 0 0 0 0 0 0 0 0 0 0 0 0 0 0.204257246 0"/></filter><linearGradient id="gup_svg-c" x1="50%" x2="50%" y1="0%" y2="100%"><stop offset="0%" stop-color="#FFF" stop-opacity=".5"/><stop offset="100%" stop-opacity=".5"/></linearGradient><circle id="gup_svg-a" cx="16" cy="15" r="15"/><path id="gup_svg-d" d="m15.99 11.679-2.784-2.804A32.6 32.6 0 0 1 16 5a32.5 32.5 0 0 1 2.79 3.859zm5.718 2.81c.786 2.202 1.939 4.404.84 6.518a7.5 7.5 0 0 1-3.112 3.135c-3.619 1.92-8.099.51-10.005-3.135-1.11-2.114.183-4.49.97-6.691.721-1.623 1.45-3.119 2.278-4.557l3.31 3.334 3.329-3.352c.875 1.514 1.631 3.072 2.39 4.749z"/></defs><g fill="none"><use xlink:href="#gup_svg-a" fill="#000" filter="url(#gup_svg-b)"/><use xlink:href="#gup_svg-a" fill="#37DCD8" fill-rule="evenodd"/><use xlink:href="#gup_svg-a" fill="url(#gup_svg-c)" fill-rule="evenodd" style="mix-blend-mode:soft-light"/><circle cx="16" cy="15" r="14.5" stroke="#000" stroke-opacity=".097"/><use xlink:href="#gup_svg-d" fill="#000" filter="url(#gup_svg-e)"/><use xlink:href="#gup_svg-d" fill="#FFF" fill-rule="evenodd"/></g></svg>