<svg xmlns="http://www.w3.org/2000/svg" xmlns:xlink="http://www.w3.org/1999/xlink" width="32" height="32" viewBox="0 0 32 32"><defs><linearGradient id="gusd_svg-c" x1="50%" x2="50%" y1="0%" y2="100%"><stop offset="0%" stop-color="#FFF" stop-opacity=".5"/><stop offset="100%" stop-opacity=".5"/></linearGradient><filter id="gusd_svg-b" width="111.7%" height="111.7%" x="-5.8%" y="-4.2%" filterUnits="objectBoundingBox"><feOffset dy=".5" in="SourceAlpha" result="shadowOffsetOuter1"/><feGaussianBlur in="shadowOffsetOuter1" result="shadowBlurOuter1" stdDeviation=".5"/><feComposite in="shadowBlurOuter1" in2="SourceAlpha" operator="out" result="shadowBlurOuter1"/><feColorMatrix in="shadowBlurOuter1" values="0 0 0 0 0 0 0 0 0 0 0 0 0 0 0 0 0 0 0.199473505 0"/></filter><circle id="gusd_svg-a" cx="15" cy="15" r="15"/></defs><g fill="none"><g transform="translate(1)"><use xlink:href="#gusd_svg-a" fill="#000" filter="url(#gusd_svg-b)"/><use xlink:href="#gusd_svg-a" fill="#00DCFA"/><use xlink:href="#gusd_svg-a" fill="url(#gusd_svg-c)" style="mix-blend-mode:soft-light"/><circle cx="15" cy="15" r="14.5" stroke="#000" stroke-linejoin="square" stroke-opacity=".097"/></g><path fill="#FFF" d="M19.07 5c-3.517 0-6.505 2.706-6.882 6.188C8.706 11.565 6 14.553 6 18.071A6.934 6.934 0 0 0 12.93 25c3.517 0 6.517-2.706 6.882-6.188C23.294 18.435 26 15.447 26 11.929A6.934 6.934 0 0 0 19.07 5m5.306 7.706a5.39 5.39 0 0 1-4.517 4.518v-4.518zM7.624 17.294a5.39 5.39 0 0 1 4.517-4.53v4.518H7.624zm10.611 1.565a5.36 5.36 0 0 1-5.306 4.576 5.36 5.36 0 0 1-5.305-4.576zm.06-6.153v4.576h-4.59v-4.576zm6.081-1.565H13.765a5.36 5.36 0 0 1 5.306-4.576 5.36 5.36 0 0 1 5.305 4.576"/></g></svg>