<svg xmlns="http://www.w3.org/2000/svg" xmlns:xlink="http://www.w3.org/1999/xlink" width="32" height="32" viewBox="0 0 32 32"><defs><filter id="gvt_svg-b" width="111.7%" height="111.7%" x="-5.8%" y="-4.2%" filterUnits="objectBoundingBox"><feOffset dy=".5" in="SourceAlpha" result="shadowOffsetOuter1"/><feGaussianBlur in="shadowOffsetOuter1" result="shadowBlurOuter1" stdDeviation=".5"/><feComposite in="shadowBlurOuter1" in2="SourceAlpha" operator="out" result="shadowBlurOuter1"/><feColorMatrix in="shadowBlurOuter1" values="0 0 0 0 0 0 0 0 0 0 0 0 0 0 0 0 0 0 0.199473505 0"/></filter><filter id="gvt_svg-e" width="117.5%" height="131.8%" x="-8.8%" y="-11.4%" filterUnits="objectBoundingBox"><feOffset dy=".5" in="SourceAlpha" result="shadowOffsetOuter1"/><feGaussianBlur in="shadowOffsetOuter1" result="shadowBlurOuter1" stdDeviation=".5"/><feColorMatrix in="shadowBlurOuter1" values="0 0 0 0 0 0 0 0 0 0 0 0 0 0 0 0 0 0 0.204257246 0"/></filter><linearGradient id="gvt_svg-c" x1="50%" x2="50%" y1="0%" y2="100%"><stop offset="0%" stop-color="#FFF" stop-opacity=".5"/><stop offset="100%" stop-opacity=".5"/></linearGradient><circle id="gvt_svg-a" cx="16" cy="15" r="15"/><path id="gvt_svg-d" d="M26 12.193C26 17.601 21.513 22 16 22S6 17.6 6 12.195q0-.598.074-1.193H7.87q-.09.594-.09 1.193c0 4.445 3.688 8.062 8.221 8.062 4.326 0 7.882-3.292 8.2-7.455H11.48c.27 1.944 1.803 3.488 3.777 3.807s3.93-.664 4.822-2.42h1.925c-.875 2.522-3.29 4.218-6.006 4.22-3.496 0-6.341-2.789-6.341-6.216q0-.602.117-1.193h16.152q.075.594.074 1.193"/></defs><g fill="none" fill-rule="evenodd"><use xlink:href="#gvt_svg-a" fill="#000" filter="url(#gvt_svg-b)"/><use xlink:href="#gvt_svg-a" fill="#16B9AD"/><use xlink:href="#gvt_svg-a" fill="url(#gvt_svg-c)" style="mix-blend-mode:soft-light"/><circle cx="16" cy="15" r="14.5" stroke="#000" stroke-opacity=".097"/><g fill-rule="nonzero"><use xlink:href="#gvt_svg-d" fill="#000" filter="url(#gvt_svg-e)"/><use xlink:href="#gvt_svg-d" fill="#FFF" fill-rule="evenodd"/></g></g></svg>