<svg xmlns="http://www.w3.org/2000/svg" xmlns:xlink="http://www.w3.org/1999/xlink" width="32" height="32" viewBox="0 0 32 32"><defs><linearGradient id="gzr_svg-c" x1="50%" x2="50%" y1="0%" y2="100%"><stop offset="0%" stop-color="#FFF" stop-opacity=".5"/><stop offset="100%" stop-opacity=".5"/></linearGradient><filter id="gzr_svg-b" width="111.7%" height="111.7%" x="-5.8%" y="-4.2%" filterUnits="objectBoundingBox"><feOffset dy=".5" in="SourceAlpha" result="shadowOffsetOuter1"/><feGaussianBlur in="shadowOffsetOuter1" result="shadowBlurOuter1" stdDeviation=".5"/><feComposite in="shadowBlurOuter1" in2="SourceAlpha" operator="out" result="shadowBlurOuter1"/><feColorMatrix in="shadowBlurOuter1" values="0 0 0 0 0 0 0 0 0 0 0 0 0 0 0 0 0 0 0.199473505 0"/></filter><circle id="gzr_svg-a" cx="15" cy="15" r="15"/></defs><g fill="none"><g transform="translate(1)"><use xlink:href="#gzr_svg-a" fill="#000" filter="url(#gzr_svg-b)"/><use xlink:href="#gzr_svg-a" fill="#56C9E9"/><use xlink:href="#gzr_svg-a" fill="url(#gzr_svg-c)" style="mix-blend-mode:soft-light"/><circle cx="15" cy="15" r="14.5" stroke="#000" stroke-linejoin="square" stroke-opacity=".097"/></g><g fill="#FFF"><path d="M22.556 8.99c-.69-.255-2.218.126-2.29.235.29.055.381.091.818.164.467.085.917.251 1.327.491.436.255.618-.09.618-.09.073-.165-.127-.674-.473-.8M10.138 5.97a6 6 0 0 0-.363-.508c-.346-.364-1.019-.546-1.382-.364-.2.091-.291.218-.128.437.2.196.453.329.728.381.163.037.89.2 1.072.237.184 0 .073-.182.073-.182zm.727 1.837a.14.14 0 0 0-.072-.072 2 2 0 0 1-1.291-.273.52.52 0 0 0-.6 0c-.237.2.109.436.127.436.146.091.31.055.455.091q.535.155 1.09.2c.31 0 .382-.109.291-.382m12.037-.672c.036-.11 0-.473-.655-.382-.545.09-.927.236-.909.309s.618.182.746.2c.509.09.8-.055.818-.127m-6.618-3.037a.364.364 0 0 0-.473-.018c-.546.345-.146 1.527-.091 1.527s.11-.418.655-1.036a.335.335 0 0 0-.091-.473m-1.732 3.515c0-.05-.05-.05 0 0"/><path d="M14.03 7.025c-.346-.181-.055-1.072-.183-1.4a.315.315 0 0 0-.49-.181.35.35 0 0 0-.164.509c.072.145.509.982.163 1.127-.127.055-.4-.055-.581-.164-.655-.29-.764-1.29-.964-1.418a.516.516 0 0 0-.636.018.42.42 0 0 0-.182.528c.09.163.436.254.509.818l.218.163c.11.091.218.182.345.273.328.327.255.382.928.273.218-.073.182-.364.4-.436a.77.77 0 0 1 .4.054c.2.106.37.263.49.455.292.345.419.781.673 1.163a2 2 0 0 0 .328.437l.272.218c.382.254.728.236 1-.055a.67.67 0 0 0 .273-.454 7.7 7.7 0 0 1 .55-1.268.02.02 0 0 1 .014-.005.04.04 0 0 1 .036-.036.3.3 0 0 1 .346 0c.054.072-.055.745 0 .818.036.145.309.054.545.036a.4.4 0 0 0 .055-.09c.4-.128.781-.328 1.181-.437h.219c.222-.036.45-.036.672 0 .218 0 .291.127.273.327.364-.018.727-.018 1.09-.054.165-.019.42-.019.4-.328-.035-.181-.326-.69-1.654-.381-.127.036-.854.254-1.109.127q.583-.375 1.2-.691c.182-.146.328-.346.218-.564-.109-.218-.327-.2-.527-.127-.376.117-.72.323-1 .6a4.4 4.4 0 0 1-.6.51c-.527.254-.527.254-.654.217-.164-.072-.346-.2-.219-.382a1.3 1.3 0 0 0 .164-.381c.055-.237-.018-.31-.182-.31-.327.019-.436.491-.49.564a1 1 0 0 1-.128.2.32.32 0 0 1-.327.073c-.11-.018-.2-.073-.11-.218.164-.255.673-.655.819-1.182 0 0 .254-.691-.455-.71-.381-.017-.69.255-.8.674-.109.436.128 1.036 0 1.327a1.6 1.6 0 0 1-.181.345.667.667 0 0 1-.891 0 .73.73 0 0 1-.164-.6 6 6 0 0 0 .145-.727c.019-.182-.309-.51-.581-.29-.128.09-.073.235-.019.363.091.272.255 1.054-.636.672zm.508.564c-.018-.018 0-.018 0 0"/><path d="M15.138 8.41h1.2c.109-.026.217.065.291.248a.4.4 0 0 1-.054.247 1.39 1.39 0 0 0-1.273 0h-.055z"/><path d="M19.538 7.916q-.696.195-1.363.473a.2.2 0 0 1-.219-.073.3.3 0 0 1 0-.254.3.3 0 0 0 0-.182.6.6 0 0 0-.181-.255.31.31 0 0 0-.473.091 4.4 4.4 0 0 0-.546 1.237.9.9 0 0 1-.272.454c-.273.237-.528.255-.891.055a3 3 0 0 1-.291-.237 2.6 2.6 0 0 1-.327-.454c-.146-.273-.291-.564-.437-.818-.2-.328-.4-.637-.763-.8a.6.6 0 0 0-.364-.018.38.38 0 0 0-.255.181c-.054.091-.781.11-1.036-.036-.127-.073-.49-.436-.618-.4-.11 0-.164-.073-.237-.127a1.25 1.25 0 0 0-1.127-.146.41.41 0 0 0-.309.328.41.41 0 0 0 .273.381q.27.102.527.237c.091.036.236.054.218.218a.4.4 0 0 0 .018.127c.019.237-.145.255-.309.255a4.6 4.6 0 0 1-.69-.11 1.9 1.9 0 0 0-.782-.09c-.073.09-.164.036-.255.054-.327.055-.582.291-.564.564.019.309.273.382.528.436.618.146 1.236.091 1.854.11.746 0 1.164.363 1.273 1.108.073.546 1.71 14.873 1.727 15.182a.29.29 0 0 0 .218.273 6 6 0 0 0 1.91.255 7.1 7.1 0 0 0 2.145-.273c.11-.037.2-.073.2-.218.018-.382 1.055-14.073 1.055-14.291a2.82 2.82 0 0 1 .581-1.764c.31-.364.655-.69.964-1.054.09-.51-.564-.51-1.182-.419"/></g></g></svg>