<svg xmlns="http://www.w3.org/2000/svg" xmlns:xlink="http://www.w3.org/1999/xlink" width="32" height="32" viewBox="0 0 32 32"><defs><linearGradient id="hodl_svg-c" x1="50%" x2="50%" y1="0%" y2="100%"><stop offset="0%" stop-color="#FFF" stop-opacity=".5"/><stop offset="100%" stop-opacity=".5"/></linearGradient><filter id="hodl_svg-b" width="111.7%" height="111.7%" x="-5.8%" y="-4.2%" filterUnits="objectBoundingBox"><feOffset dy=".5" in="SourceAlpha" result="shadowOffsetOuter1"/><feGaussianBlur in="shadowOffsetOuter1" result="shadowBlurOuter1" stdDeviation=".5"/><feComposite in="shadowBlurOuter1" in2="SourceAlpha" operator="out" result="shadowBlurOuter1"/><feColorMatrix in="shadowBlurOuter1" values="0 0 0 0 0 0 0 0 0 0 0 0 0 0 0 0 0 0 0.199473505 0"/></filter><circle id="hodl_svg-a" cx="15" cy="15" r="15"/></defs><g fill="none"><g transform="translate(1)"><use xlink:href="#hodl_svg-a" fill="#000" filter="url(#hodl_svg-b)"/><use xlink:href="#hodl_svg-a" fill="#D59143" fill-rule="evenodd"/><use xlink:href="#hodl_svg-a" fill="url(#hodl_svg-c)" fill-rule="evenodd" style="mix-blend-mode:soft-light"/><circle cx="15" cy="15" r="14.5" stroke="#000" stroke-linejoin="square" stroke-opacity=".097"/></g><path fill="#FFF" d="M8.865 15.18c-.46.366-.872 1.018-.85 2.012.014.688.384 1.16.85 1.48V19.9c0 .767.374 1.486 1.002 1.927l4.314 2.95V9.703l-5.316 1.554zm1.158-.362c.895.655.895 4.547.895 4.547s-1.012-.098-1.849-.565c.69.232 1.244.18 1.485.207l.016.001h.003l.013.002.033.003h.024s.141-3.396-.887-3.992c-.167-.058-.462-.023-.787.08.414-.28.847-.374 1.054-.283m4.531 6.137h2.9v3.828h-2.9zm-.657-11.537-5.032 1.44V5.462c0-.403.488-.606.773-.32l4.515 4.533zm.658 5.395h2.899v5.773h-2.9v-5.773zm3.548-5.395-.186.187 4.445-4.463a.453.453 0 0 1 .773.32v5.396zm-3.548.285h2.899v4.738h-2.9V9.703zm8.58 5.478v-3.924l-5.308-1.552v15.078l4.306-2.956a2.35 2.35 0 0 0 1.002-1.927v-1.228c.466-.321.836-.792.85-1.48.022-.995-.39-1.646-.85-2.011m-1.743 3.887h.023l.015-.002h.004l.031-.003h.002l.014-.002.132-.015h.006c.29-.037.646-.034 1.191-.205q.06-.018.121-.04c-.837.468-1.849.566-1.849.566s0-3.891.895-4.547c.208-.09.64.004 1.054.285-.325-.104-.62-.138-.787-.08-1.029.594-.852 4.043-.852 4.043"/></g></svg>