<svg xmlns="http://www.w3.org/2000/svg" xmlns:xlink="http://www.w3.org/1999/xlink" width="32" height="32" viewBox="0 0 32 32"><defs><filter id="hsr_svg-b" width="111.7%" height="111.7%" x="-5.8%" y="-4.2%" filterUnits="objectBoundingBox"><feOffset dy=".5" in="SourceAlpha" result="shadowOffsetOuter1"/><feGaussianBlur in="shadowOffsetOuter1" result="shadowBlurOuter1" stdDeviation=".5"/><feComposite in="shadowBlurOuter1" in2="SourceAlpha" operator="out" result="shadowBlurOuter1"/><feColorMatrix in="shadowBlurOuter1" values="0 0 0 0 0 0 0 0 0 0 0 0 0 0 0 0 0 0 0.199473505 0"/></filter><filter id="hsr_svg-e" width="115.9%" height="120.6%" x="-8%" y="-7.4%" filterUnits="objectBoundingBox"><feOffset dy=".5" in="SourceAlpha" result="shadowOffsetOuter1"/><feGaussianBlur in="shadowOffsetOuter1" result="shadowBlurOuter1" stdDeviation=".5"/><feColorMatrix in="shadowBlurOuter1" values="0 0 0 0 0 0 0 0 0 0 0 0 0 0 0 0 0 0 0.204257246 0"/></filter><linearGradient id="hsr_svg-c" x1="50%" x2="50%" y1="0%" y2="100%"><stop offset="0%" stop-color="#FFF" stop-opacity=".5"/><stop offset="100%" stop-opacity=".5"/></linearGradient><circle id="hsr_svg-a" cx="16" cy="15" r="15"/><path id="hsr_svg-d" d="M10.75 6.5h4.354c-.524.83-.845 1.747-.825 2.74q1.944.02 3.89 0c.017-.987-.248-1.93-.815-2.74h4.384c-.302.633-.815 1.22-.766 1.963-.02 3.324.007 6.65-.003 9.974q.646 0 1.3.003c.317-.63.599-1.273.824-1.94 1.302.033 2.611-.037 3.907.137-1.282 1.106-1.952 2.68-2.787 4.113-3.314.007-6.627-.01-9.944.01-.156 1.21.59 2.043 1.454 2.74h-5.597c.487-.643 1.468-1.057 1.365-2 .033-3.213 0-6.43.01-9.647h2.84v1.98h3.768v-2.27h-7.867L8.287 15q.975 1.72 1.958 3.437h.968v2.313H8.254C7.174 18.83 6.054 16.933 5 15v-.003c1.057-1.93 2.18-3.827 3.254-5.747 1.104 0 2.207 0 3.31-.01a4.77 4.77 0 0 0-.815-2.74zm3.592 9.667v2.27h3.767v-2.27zm6.915-6.917h2.95c.808 1.3 1.364 2.8 2.53 3.84.024.077.067.234.09.31-1.246.164-2.508.037-3.764.1-.16-.693-.474-1.33-.822-1.94l-.984.003zm-3.045 11.79q1.308.003 2.618-.003c-.02 1.113.759 1.803 1.524 2.463h-5.637c.723-.686 1.568-1.337 1.495-2.46"/></defs><g fill="none"><use xlink:href="#hsr_svg-a" fill="#000" filter="url(#hsr_svg-b)"/><use xlink:href="#hsr_svg-a" fill="#56428E" fill-rule="evenodd"/><use xlink:href="#hsr_svg-a" fill="url(#hsr_svg-c)" fill-rule="evenodd" style="mix-blend-mode:soft-light"/><circle cx="16" cy="15" r="14.5" stroke="#000" stroke-opacity=".097"/><use xlink:href="#hsr_svg-d" fill="#000" filter="url(#hsr_svg-e)"/><use xlink:href="#hsr_svg-d" fill="#FFF" fill-rule="evenodd"/></g></svg>