<svg xmlns="http://www.w3.org/2000/svg" xmlns:xlink="http://www.w3.org/1999/xlink" width="32" height="32" viewBox="0 0 32 32"><defs><filter id="html_svg-b" width="111.7%" height="111.7%" x="-5.8%" y="-4.2%" filterUnits="objectBoundingBox"><feOffset dy=".5" in="SourceAlpha" result="shadowOffsetOuter1"/><feGaussianBlur in="shadowOffsetOuter1" result="shadowBlurOuter1" stdDeviation=".5"/><feComposite in="shadowBlurOuter1" in2="SourceAlpha" operator="out" result="shadowBlurOuter1"/><feColorMatrix in="shadowBlurOuter1" values="0 0 0 0 0 0 0 0 0 0 0 0 0 0 0 0 0 0 0.199473505 0"/></filter><filter id="html_svg-e" width="119.4%" height="117.5%" x="-9.7%" y="-6.2%" filterUnits="objectBoundingBox"><feOffset dy=".5" in="SourceAlpha" result="shadowOffsetOuter1"/><feGaussianBlur in="shadowOffsetOuter1" result="shadowBlurOuter1" stdDeviation=".5"/><feColorMatrix in="shadowBlurOuter1" values="0 0 0 0 0 0 0 0 0 0 0 0 0 0 0 0 0 0 0.204257246 0"/></filter><linearGradient id="html_svg-c" x1="50%" x2="50%" y1="0%" y2="100%"><stop offset="0%" stop-color="#FFF" stop-opacity=".5"/><stop offset="100%" stop-opacity=".5"/></linearGradient><circle id="html_svg-a" cx="16" cy="15" r="15"/><path id="html_svg-d" d="M16.02 15.945v7.992l5.947-1.601 1.397-15.39H16.02v6.532l.304-.947h.796zm-7.384 7.524L7 5.5h18l-1.636 17.969L15.98 25.5zm5.163-6.793v-.741l-2.469-.984 2.47-.99v-.742l-3.527 1.433v.592zm7.933-1.432-3.527 1.432v-.741l2.47-.987-2.47-.987v-.742l3.527 1.433zm-5.712.7v-2.466l-1.317 4.107h.788z"/></defs><g fill="none" fill-rule="evenodd"><use xlink:href="#html_svg-a" fill="#000" filter="url(#html_svg-b)"/><use xlink:href="#html_svg-a" fill="#CFA967"/><use xlink:href="#html_svg-a" fill="url(#html_svg-c)" style="mix-blend-mode:soft-light"/><circle cx="16" cy="15" r="14.5" stroke="#000" stroke-opacity=".097"/><g fill-rule="nonzero"><use xlink:href="#html_svg-d" fill="#000" filter="url(#html_svg-e)"/><use xlink:href="#html_svg-d" fill="#FFF" fill-rule="evenodd"/></g></g></svg>