<svg xmlns="http://www.w3.org/2000/svg" xmlns:xlink="http://www.w3.org/1999/xlink" width="32" height="32" viewBox="0 0 32 32"><defs><linearGradient id="husd_svg-c" x1="50%" x2="50%" y1="0%" y2="100%"><stop offset="0%" stop-color="#FFF" stop-opacity=".5"/><stop offset="100%" stop-opacity=".5"/></linearGradient><filter id="husd_svg-b" width="111.7%" height="111.7%" x="-5.8%" y="-4.2%" filterUnits="objectBoundingBox"><feOffset dy=".5" in="SourceAlpha" result="shadowOffsetOuter1"/><feGaussianBlur in="shadowOffsetOuter1" result="shadowBlurOuter1" stdDeviation=".5"/><feComposite in="shadowBlurOuter1" in2="SourceAlpha" operator="out" result="shadowBlurOuter1"/><feColorMatrix in="shadowBlurOuter1" values="0 0 0 0 0 0 0 0 0 0 0 0 0 0 0 0 0 0 0.199473505 0"/></filter><circle id="husd_svg-a" cx="16" cy="15" r="15"/></defs><g fill="none" fill-rule="evenodd"><use xlink:href="#husd_svg-a" fill="#000" filter="url(#husd_svg-b)"/><use xlink:href="#husd_svg-a" fill="#005FFA"/><use xlink:href="#husd_svg-a" fill="url(#husd_svg-c)" style="mix-blend-mode:soft-light"/><circle cx="16" cy="15" r="14.5" stroke="#000" stroke-linejoin="square" stroke-opacity=".097"/><path fill="#FFF" d="M20.694 13.598a3.4 3.4 0 0 0-1.41-.305h-4.917a1.71 1.71 0 0 1-1.71-1.71v-5.89H9.239v7.6a3.42 3.42 0 0 0 3.42 3.42h4.916a1.71 1.71 0 0 1 1.71 1.71v5.89h3.419v-7.6a3.42 3.42 0 0 0-2.01-3.115M9.356 18.803v5.744h3.42v-2.325a3.42 3.42 0 0 0-3.42-3.419M19.88 5.929h-.714v2.325a3.42 3.42 0 0 0 3.42 3.42V5.928H19.88z"/></g></svg>