<svg xmlns="http://www.w3.org/2000/svg" width="32" height="32" viewBox="0 0 32 32"><path d="M11 9.5c1.71.988 3.176 2.027 4.5 3.5 1.242-.531 2.02-1.02 2.969-2 1.547-1.5 2.875-1.93 5-2.156 2.488.254 4.015 1.086 5.687 2.937 1.418 2.051 1.676 3.75 1.344 6.219-1.352 2.652-2.918 3.707-5.5 5-2.586.371-3.996-.434-6.086-1.805A20 20 0 0 1 16.5 19c-1.242.531-2.02 1.02-2.969 2-1.547 1.5-2.875 1.93-5 2.156-2.488-.254-4.015-1.086-5.687-2.937C1.426 18.168 1.168 16.469 1.5 14 3.566 9.945 6.605 8.531 11 9.5m-6 4c-.703 1.406-.625 2.445-.5 4 .46 1.21.46 1.21 1.5 2 2.156.652 3.11.703 5.125-.344C12.309 18.16 13.168 17.293 14 16c-1.547-1.637-2.977-2.988-5-4-1.805 0-2.531.496-4 1.5m14.5.5c-.918 1.055-.918 1.055-1.5 2 1.54 1.629 2.941 3.074 5 4 1.625-.04 2.344-.387 3.656-1.344 1.102-1.511 1.11-2.32.844-4.156-.46-1.21-.46-1.21-1.5-2-2.887-.871-4.223-.414-6.5 1.5m0 0" style="stroke:none;fill-rule:nonzero;fill:#29aae1;fill-opacity:1"/><path d="M8.5 11.5c-.3.215-.598.434-.906.656L6.5 13c-.434.324-.434.324-.875.656C4.675 14.937 4.84 15.95 5 17.5c.867 1.652.867 1.652 2.625 1.969 2.309.039 3.098-.547 4.875-1.969.39-.29.785-.578 1.188-.875.269-.207.535-.414.812-.625l1.5 1.5c-.945 2.32-2.52 3.973-4.719 5.156-2.187.586-3.719.559-5.844-.25C3.603 21.25 2.47 19.938 1.5 18c-.293-3.621-.293-3.621.938-5.219 2.09-1.535 3.515-1.324 6.062-1.281m0 0" style="stroke:none;fill-rule:nonzero;fill:#ec1e79;fill-opacity:1"/><path d="M26.563 9.594C28.398 10.75 29.53 12.063 30.5 14c.234 3.668.234 3.668-.656 4.938-2.532 1.687-2.532 1.687-4.438 1.625-.629-.02-1.258-.043-1.906-.063.3-.215.598-.434.906-.656L25.5 19c.29-.215.578-.434.875-.656.95-1.282.785-2.293.625-3.844-.867-1.652-.867-1.652-2.625-1.969-2.309-.039-3.098.547-4.875 1.969-.39.29-.785.578-1.187.875L17.5 16 16 14.5c.945-2.32 2.52-3.973 4.719-5.156 2.187-.586 3.718-.559 5.843.25m0 0" style="stroke:none;fill-rule:nonzero;fill:#f05a24;fill-opacity:1"/><path d="M27.5 11c1.145.457 1.867.828 2.625 1.813.574 1.82.527 3.273.375 5.187-.852 1.215-1.738 1.66-3 2.5-1.023.098-1.023.098-2.094.063-.629-.02-1.258-.043-1.906-.063.3-.215.598-.434.906-.656L25.5 19c.29-.215.578-.434.875-.656.953-1.29.785-2.285.625-3.844-.45-1.152-.45-1.152-1-2zm0 0" style="stroke:none;fill-rule:nonzero;fill:#f4af40;fill-opacity:1"/><path d="M8.5 11.5c-.3.215-.598.434-.906.656C6.07 13.332 5.07 14.395 4 16H3c-.164.496-.328.988-.5 1.5h-1c-.246-3.187-.246-3.187.938-4.687C4.512 11.227 5.945 11.457 8.5 11.5m0 0" style="stroke:none;fill-rule:nonzero;fill:#672683;fill-opacity:1"/><path d="m4 15.5.438.906C5.289 18.066 5.93 18.953 7.5 20c-.496.246-.496.246-1 .5-.164.496-.328.988-.5 1.5-1.566-.168-2-.5-3.094-1.687C2 19 2 19 1.5 17.5c.824-.66 1.648-1.32 2.5-2m0 0" style="stroke:none;fill-rule:nonzero;fill:#7e2481;fill-opacity:1"/><path d="M26.563 9.969 28 10.5c-.496.66-.988 1.32-1.5 2-1.32-.164-2.64-.328-4-.5.328-.164.66-.328 1-.5.164-.496.328-.988.5-1.5 1-.5 1-.5 2.563-.031m0 0" style="stroke:none;fill-rule:nonzero;fill:#f26928;fill-opacity:1"/><path d="M6 12a51 51 0 0 1-2 2.5H3c-.164.496-.328.988-.5 1.5h-1c.094-1.406.094-1.406.5-3 2.031-1.656 2.031-1.656 4-1m0 0" style="stroke:none;fill-rule:nonzero;fill:#592684;fill-opacity:1"/><path d="M27.5 11c.66.328 1.32.66 2 1-.156.938-.156.938-.5 2-.496.328-.988.66-1.5 1-.496-.824-.988-1.648-1.5-2.5zm0 0" style="stroke:none;fill-rule:nonzero;fill:#f89934;fill-opacity:1"/><path d="M4.5 19q1.506.216 3 .5L6 22c-.66-.164-1.32-.328-2-.5 0-2 0-2 .5-2.5m0 0" style="stroke:none;fill-rule:nonzero;fill:#b9217d;fill-opacity:1"/><path d="M6.5 20h2c-.164.66-.328 1.32-.5 2-.66.164-1.32.328-2 .5.164-.824.328-1.648.5-2.5m0 0" style="stroke:none;fill-rule:nonzero;fill:#d81f7a;fill-opacity:1"/><path d="M4 17.5h1c.164.496.328.988.5 1.5L3 20.5c0-2 0-2 1-3m0 0" style="stroke:none;fill-rule:nonzero;fill:#98237e;fill-opacity:1"/><path d="M26.5 10c.496.164.988.328 1.5.5-.625 1-.625 1-1.5 2h-2v-1H26c.164-.496.328-.988.5-1.5m0 0" style="stroke:none;fill-rule:nonzero;fill:#f57d2d;fill-opacity:1"/><path d="M4.5 11.5c.328.164.66.328 1 .5-.496.164-.988.328-1.5.5-.164.496-.328.988-.5 1.5-1.031.594-1.031.594-2 1 .094-.906.094-.906.5-2 1.219-.906 1.219-.906 2.5-1.5m0 0" style="stroke:none;fill-rule:nonzero;fill:#4b3d94;fill-opacity:1"/></svg>