<svg xmlns="http://www.w3.org/2000/svg" xmlns:xlink="http://www.w3.org/1999/xlink" width="32" height="32" viewBox="0 0 32 32"><defs><filter id="icx_svg-b" width="111.7%" height="111.7%" x="-5.8%" y="-4.2%" filterUnits="objectBoundingBox"><feOffset dy=".5" in="SourceAlpha" result="shadowOffsetOuter1"/><feGaussianBlur in="shadowOffsetOuter1" result="shadowBlurOuter1" stdDeviation=".5"/><feComposite in="shadowBlurOuter1" in2="SourceAlpha" operator="out" result="shadowBlurOuter1"/><feColorMatrix in="shadowBlurOuter1" values="0 0 0 0 0 0 0 0 0 0 0 0 0 0 0 0 0 0 0.199473505 0"/></filter><filter id="icx_svg-e" width="117.5%" height="117.5%" x="-8.8%" y="-6.2%" filterUnits="objectBoundingBox"><feOffset dy=".5" in="SourceAlpha" result="shadowOffsetOuter1"/><feGaussianBlur in="shadowOffsetOuter1" result="shadowBlurOuter1" stdDeviation=".5"/><feColorMatrix in="shadowBlurOuter1" values="0 0 0 0 0 0 0 0 0 0 0 0 0 0 0 0 0 0 0.204257246 0"/></filter><linearGradient id="icx_svg-c" x1="50%" x2="50%" y1="0%" y2="100%"><stop offset="0%" stop-color="#FFF" stop-opacity=".5"/><stop offset="100%" stop-opacity=".5"/></linearGradient><circle id="icx_svg-a" cx="16" cy="15" r="15"/><path id="icx_svg-d" d="m11.296 21.472 2.164-2.164a5 5 0 0 0 6.848-6.848l2.164-2.164a8 8 0 0 1-11.176 11.176m-1.768-1.768A8 8 0 0 1 20.704 8.528l-2.164 2.164a5 5 0 0 0-6.848 6.848zM24 9a2 2 0 1 1 0-4 2 2 0 0 1 0 4M8 25a2 2 0 1 1 0-4 2 2 0 0 1 0 4"/></defs><g fill="none" fill-rule="evenodd"><use xlink:href="#icx_svg-a" fill="#000" filter="url(#icx_svg-b)"/><use xlink:href="#icx_svg-a" fill="#1FC5C9"/><use xlink:href="#icx_svg-a" fill="url(#icx_svg-c)" style="mix-blend-mode:soft-light"/><circle cx="16" cy="15" r="14.5" stroke="#000" stroke-opacity=".097"/><use xlink:href="#icx_svg-d" fill="#000" filter="url(#icx_svg-e)"/><use xlink:href="#icx_svg-d" fill="#FFF"/></g></svg>