<svg xmlns="http://www.w3.org/2000/svg" width="32" height="32" viewBox="0 0 32 32"><defs><linearGradient id="injective_svg-a" x1="0" x2="1" y1="0" y2="0" gradientTransform="matrix(6.25645 -15.17221 10.8373 8.75904 10.618 25.49)" gradientUnits="userSpaceOnUse"><stop offset="0" style="stop-color:#174e5b;stop-opacity:1"/><stop offset=".07" style="stop-color:#195a6c;stop-opacity:1"/><stop offset=".21" style="stop-color:#1e779a;stop-opacity:1"/><stop offset=".4" style="stop-color:#27a7e3;stop-opacity:1"/><stop offset=".47" style="stop-color:#2abaff;stop-opacity:1"/><stop offset=".7" style="stop-color:#1ddaf0;stop-opacity:1"/><stop offset="1" style="stop-color:#0effe0;stop-opacity:1"/></linearGradient><linearGradient id="injective_svg-b" x1="0" x2="1" y1="0" y2="0" gradientTransform="matrix(-6.25696 15.17104 -10.83646 -8.75974 21.341 6.51)" gradientUnits="userSpaceOnUse"><stop offset="0" style="stop-color:#174e5b;stop-opacity:1"/><stop offset=".07" style="stop-color:#195a6c;stop-opacity:1"/><stop offset=".21" style="stop-color:#1e779a;stop-opacity:1"/><stop offset=".4" style="stop-color:#27a7e3;stop-opacity:1"/><stop offset=".47" style="stop-color:#2abaff;stop-opacity:1"/><stop offset=".7" style="stop-color:#1ddaf0;stop-opacity:1"/><stop offset="1" style="stop-color:#0effe0;stop-opacity:1"/></linearGradient></defs><path d="M18.234 27.05c-.043-.058-.082-.116-.125-.116-.96-.293-1.922-.758-2.757-1.461-1.754-1.461-2.922-3.625-2.965-6.141 0-.934.125-1.871.418-2.746.168-.586 1.168-2.574 1.293-2.926.672-1.46.46-1.344-.5-3.156l-1.336-2.75-.88-1.871c-.5.469-1 1.055-1.46 1.637-.918 1.289-1.629 2.925-2.047 4.68a17 17 0 0 0-.375 5.437 14.6 14.6 0 0 0 1.422 5.09c.75 1.52 1.754 2.804 2.879 3.683-2.965-3.043-4.344-7.66-3.215-12.281a13.8 13.8 0 0 1 1.336-3.45l.96 1.989c.044.117.087.234.087.41 0 .113-.043.29-.086.406-.457.82-.836 1.696-1.086 2.692-1.254 5.086 2.129 10.351 5.68 11.226.668.176 1.921.352 2.59.118.042 0 .085-.06.085-.06.04-.058.04-.058.04-.116v-.176c.085 0 .085-.059.042-.117m0 0" style="stroke:none;fill-rule:nonzero;fill:url(#injective_svg-a)"/><path d="M13.723 4.95c.043.058.086.116.125.116.96.293 1.922.758 2.757 1.461 1.754 1.461 2.926 3.625 2.965 6.141 0 .934-.125 1.871-.418 2.746-.164.586-1.168 2.574-1.293 2.926-.668 1.46-.46 1.344.5 3.156l1.336 2.75.922 1.871c.5-.469 1-1.055 1.461-1.637.918-1.289 1.629-2.925 2.047-4.68.418-1.753.543-3.624.375-5.437a14.6 14.6 0 0 0-1.422-5.09c-.75-1.52-1.754-2.804-2.879-3.683 2.965 3.043 4.344 7.66 3.172 12.281a13.6 13.6 0 0 1-1.336 3.45l-.96-1.989a1.1 1.1 0 0 1-.083-.41c0-.113.04-.29.082-.406.461-.82.836-1.696 1.086-2.692 1.254-5.086-2.129-10.351-5.68-11.226-.668-.176-1.921-.352-2.59-.118-.042 0-.081.06-.081.06-.086 0-.125.058-.125.116v.176s0 .059.039.117m0 0" style="stroke:none;fill-rule:nonzero;fill:url(#injective_svg-b)"/></svg>