<svg xmlns="http://www.w3.org/2000/svg" xmlns:xlink="http://www.w3.org/1999/xlink" width="32" height="32" viewBox="0 0 32 32"><defs><filter id="ins_svg-b" width="111.7%" height="111.7%" x="-5.8%" y="-4.2%" filterUnits="objectBoundingBox"><feOffset dy=".5" in="SourceAlpha" result="shadowOffsetOuter1"/><feGaussianBlur in="shadowOffsetOuter1" result="shadowBlurOuter1" stdDeviation=".5"/><feComposite in="shadowBlurOuter1" in2="SourceAlpha" operator="out" result="shadowBlurOuter1"/><feColorMatrix in="shadowBlurOuter1" values="0 0 0 0 0 0 0 0 0 0 0 0 0 0 0 0 0 0 0.199473505 0"/></filter><filter id="ins_svg-d" width="115.9%" height="115.9%" x="-8%" y="-5.7%" filterUnits="objectBoundingBox"><feOffset dy=".5" in="SourceAlpha" result="shadowOffsetOuter1"/><feGaussianBlur in="shadowOffsetOuter1" result="shadowBlurOuter1" stdDeviation=".5"/><feColorMatrix in="shadowBlurOuter1" result="shadowMatrixOuter1" values="0 0 0 0 0 0 0 0 0 0 0 0 0 0 0 0 0 0 0.204257246 0"/><feMerge><feMergeNode in="shadowMatrixOuter1"/><feMergeNode in="SourceGraphic"/></feMerge></filter><linearGradient id="ins_svg-c" x1="50%" x2="50%" y1="0%" y2="100%"><stop offset="0%" stop-color="#FFF" stop-opacity=".5"/><stop offset="100%" stop-opacity=".5"/></linearGradient><circle id="ins_svg-a" cx="16" cy="15" r="15"/></defs><g fill="none" fill-rule="evenodd"><use xlink:href="#ins_svg-a" fill="#000" filter="url(#ins_svg-b)"/><use xlink:href="#ins_svg-a" fill="#B2A3F6"/><use xlink:href="#ins_svg-a" fill="url(#ins_svg-c)" style="mix-blend-mode:soft-light"/><circle cx="16" cy="15" r="14.5" stroke="#000" stroke-opacity=".097"/><g fill="#FFF" fill-rule="nonzero" filter="url(#ins_svg-d)" transform="translate(5 4)"><path d="M8.446 7.287c-.76 0-1.375-.601-1.375-1.342s.615-1.343 1.375-1.343c.759 0 1.375.601 1.375 1.343 0 .741-.616 1.342-1.375 1.342m3.927-1.534c-.759 0-1.375-.601-1.375-1.342s.616-1.343 1.375-1.343c.76 0 1.375.601 1.375 1.343 0 .741-.615 1.342-1.375 1.342m1.573 9.205c-.76 0-1.375-.6-1.375-1.342s.615-1.343 1.375-1.343c.759 0 1.375.601 1.375 1.343 0 .741-.616 1.342-1.375 1.342M.786 13.04A.776.776 0 0 1 0 12.273c0-.423.352-.767.785-.767s.786.344.786.767a.776.776 0 0 1-.786.767zm2.16 4.988a.583.583 0 0 1-.59-.576c0-.318.264-.575.59-.575s.59.257.59.575a.583.583 0 0 1-.59.576m6.285 3.835a.583.583 0 0 1-.59-.576c0-.318.264-.575.59-.575s.59.257.59.575a.583.583 0 0 1-.59.576m10.215-3.452a.583.583 0 0 1-.59-.576c0-.318.264-.576.59-.576s.59.258.59.576a.583.583 0 0 1-.59.576m-6.286-1.15a.583.583 0 0 1-.59-.576c0-.318.265-.575.59-.575.326 0 .59.257.59.575a.583.583 0 0 1-.59.576m3.536-2.685a.583.583 0 0 1-.59-.576c0-.318.264-.575.59-.575s.59.257.59.575a.583.583 0 0 1-.59.576m-4.125 7.287a.776.776 0 0 1-.786-.767c0-.424.352-.767.786-.767.433 0 .785.343.785.767a.776.776 0 0 1-.785.767m3.535-9.59a.776.776 0 0 1-.785-.767c0-.423.351-.767.785-.767s.785.344.785.767a.776.776 0 0 1-.785.767m1.18 7.672a.776.776 0 0 1-.786-.767c0-.424.352-.767.785-.767s.786.343.786.767a.776.776 0 0 1-.786.767zM1.765 16.11a.97.97 0 0 1-.982-.959.97.97 0 0 1 .982-.958.97.97 0 0 1 .982.958.97.97 0 0 1-.982.959m9.43 3.835c-.76 0-1.375-.601-1.375-1.343 0-.741.615-1.343 1.375-1.343.759 0 1.375.602 1.375 1.343 0 .742-.616 1.343-1.375 1.343m-7.465-6.52c-.76 0-1.375-.602-1.375-1.343 0-.742.615-1.343 1.375-1.343s1.375.601 1.375 1.343c0 .741-.616 1.343-1.375 1.343m7.465 3.067a.97.97 0 0 1-.983-.958c0-.53.44-.958.983-.958a.97.97 0 0 1 .982.958.97.97 0 0 1-.982.958M6.48 8.056a.583.583 0 0 1-.59-.576c0-.318.264-.576.59-.576s.59.258.59.576a.583.583 0 0 1-.59.576m3.732 2.3c-.65 0-1.178-.515-1.178-1.15 0-.636.528-1.152 1.178-1.152s1.178.516 1.178 1.151c0 .636-.527 1.152-1.178 1.152zm2.75 1.15a.776.776 0 0 1-.785-.767c0-.423.351-.767.785-.767s.785.344.785.767a.776.776 0 0 1-.785.767m1.375-9.588a.583.583 0 0 1-.59-.575c0-.318.264-.576.59-.576s.59.258.59.576a.583.583 0 0 1-.59.575m-2.75-.001a.97.97 0 0 1-.982-.959.97.97 0 0 1 .982-.958.97.97 0 0 1 .983.958.97.97 0 0 1-.983.959m.59 6.137a.776.776 0 0 1-.785-.767c0-.423.351-.767.785-.767s.785.344.785.767a.776.776 0 0 1-.785.767m-7.465 8.44c-.65 0-1.178-.515-1.178-1.151s.528-1.151 1.178-1.151 1.178.515 1.178 1.15c0 .637-.527 1.152-1.178 1.152m11.393 1.15c-.65 0-1.178-.516-1.178-1.152s.527-1.15 1.178-1.15 1.178.515 1.178 1.15c0 .636-.528 1.152-1.178 1.152m-1.57 2.685c-.651 0-1.179-.516-1.179-1.151 0-.636.528-1.152 1.178-1.152s1.178.516 1.178 1.152-.527 1.15-1.178 1.15zm-9.233 0c-.76 0-1.375-.601-1.375-1.343 0-.741.616-1.342 1.375-1.342.76 0 1.375.6 1.375 1.342s-.616 1.343-1.375 1.343m-4.125-9.972A1.166 1.166 0 0 1 0 9.205c0-.635.527-1.15 1.178-1.15s1.178.515 1.178 1.15c0 .636-.528 1.152-1.178 1.152z"/><path d="M7.07 12.273c-.868 0-1.572-.686-1.572-1.534 0-.847.704-1.534 1.573-1.534.868 0 1.572.687 1.572 1.534 0 .848-.704 1.534-1.572 1.534zm8.25-2.3c-.868 0-1.572-.687-1.572-1.535s.704-1.534 1.573-1.534c.868 0 1.572.687 1.572 1.534 0 .848-.704 1.534-1.572 1.534zm4.321 6.521c-.65 0-1.178-.515-1.178-1.151s.528-1.151 1.178-1.151 1.178.515 1.178 1.15c0 .637-.527 1.152-1.178 1.152m1.18-4.603a1.165 1.165 0 0 1-1.178-1.152c0-.635.527-1.15 1.178-1.15s1.177.515 1.177 1.15c0 .636-.527 1.152-1.177 1.152m-4.518-5.37a.97.97 0 0 1-.982-.96.97.97 0 0 1 .982-.958.97.97 0 0 1 .982.959.97.97 0 0 1-.982.958zm.195-3.069a.776.776 0 0 1-.785-.767c0-.423.352-.767.785-.767s.786.344.786.767a.776.776 0 0 1-.786.767m1.768.767a.583.583 0 0 1-.59-.575c0-.318.264-.576.59-.576s.59.258.59.576a.583.583 0 0 1-.59.575m3.144 4.604a.583.583 0 0 1-.59-.576c0-.318.265-.576.59-.576.326 0 .59.258.59.576a.583.583 0 0 1-.59.576M4.516 3.836a.583.583 0 0 1-.59-.575c0-.318.264-.576.59-.576s.59.258.59.576a.583.583 0 0 1-.59.575m-.785 4.987a.583.583 0 0 1-.59-.576c0-.318.264-.576.59-.576s.59.258.59.576a.583.583 0 0 1-.59.576m1.572.767a.583.583 0 0 1-.59-.576c0-.318.264-.576.59-.576s.59.258.59.576a.583.583 0 0 1-.59.576M7.266 2.3a.583.583 0 0 1-.59-.576c0-.318.264-.575.59-.575s.59.257.59.575a.583.583 0 0 1-.59.576M21.41 13.809a.583.583 0 0 1-.59-.576c0-.318.265-.575.59-.575.326 0 .59.257.59.575a.583.583 0 0 1-.59.576M19.446 7.67c-.76 0-1.375-.6-1.375-1.342s.615-1.343 1.375-1.343c.759 0 1.375.601 1.375 1.343 0 .741-.616 1.342-1.375 1.342m-1.18 3.068a.97.97 0 0 1-.982-.958c0-.53.44-.958.982-.958a.97.97 0 0 1 .982.958.97.97 0 0 1-.982.958M4.91 6.52a.97.97 0 0 1-.982-.958c0-.53.44-.959.982-.959a.97.97 0 0 1 .983.959.97.97 0 0 1-.983.958m4.32-2.685a.97.97 0 0 1-.982-.958c0-.53.44-.959.983-.959a.97.97 0 0 1 .982.959.97.97 0 0 1-.982.958zm-2.552.384a.776.776 0 0 1-.785-.767c0-.423.351-.767.785-.767s.785.344.785.767a.776.776 0 0 1-.785.767M2.356 7.287a.776.776 0 0 1-.785-.767c0-.423.351-.767.785-.767s.785.344.785.767a.776.776 0 0 1-.785.767m16.5 6.138a.776.776 0 0 1-.785-.767c0-.424.351-.767.785-.767s.785.343.785.767a.776.776 0 0 1-.785.767m-8.446.384c-.76 0-1.375-.601-1.375-1.343 0-.741.616-1.342 1.375-1.342.76 0 1.375.6 1.375 1.342s-.615 1.343-1.375 1.343m-2.554.767a.776.776 0 0 1-.785-.767c0-.424.351-.767.785-.767s.785.343.785.767a.776.776 0 0 1-.785.767m.392 3.068c-.65 0-1.177-.516-1.177-1.152s.527-1.15 1.177-1.15c.651 0 1.178.515 1.178 1.15 0 .636-.527 1.152-1.178 1.152m0 2.3a.776.776 0 0 1-.785-.766c0-.424.352-.767.785-.767s.786.343.786.767a.776.776 0 0 1-.786.767z" opacity=".5"/></g></g></svg>