<svg xmlns="http://www.w3.org/2000/svg" xmlns:xlink="http://www.w3.org/1999/xlink" width="32" height="32" viewBox="0 0 32 32"><defs><filter id="jnt_svg-b" width="111.7%" height="111.7%" x="-5.8%" y="-4.2%" filterUnits="objectBoundingBox"><feOffset dy=".5" in="SourceAlpha" result="shadowOffsetOuter1"/><feGaussianBlur in="shadowOffsetOuter1" result="shadowBlurOuter1" stdDeviation=".5"/><feComposite in="shadowBlurOuter1" in2="SourceAlpha" operator="out" result="shadowBlurOuter1"/><feColorMatrix in="shadowBlurOuter1" values="0 0 0 0 0 0 0 0 0 0 0 0 0 0 0 0 0 0 0.199473505 0"/></filter><filter id="jnt_svg-e" width="119.4%" height="117.5%" x="-9.7%" y="-6.2%" filterUnits="objectBoundingBox"><feOffset dy=".5" in="SourceAlpha" result="shadowOffsetOuter1"/><feGaussianBlur in="shadowOffsetOuter1" result="shadowBlurOuter1" stdDeviation=".5"/><feColorMatrix in="shadowBlurOuter1" values="0 0 0 0 0 0 0 0 0 0 0 0 0 0 0 0 0 0 0.204257246 0"/></filter><linearGradient id="jnt_svg-c" x1="50%" x2="50%" y1="0%" y2="100%"><stop offset="0%" stop-color="#FFF" stop-opacity=".5"/><stop offset="100%" stop-opacity=".5"/></linearGradient><circle id="jnt_svg-a" cx="16" cy="15" r="15"/><path id="jnt_svg-d" d="M16 25a3.6 3.6 0 0 1-1.844-.505l-5.306-3.12A3.79 3.79 0 0 1 7 18.114v-6.23a3.8 3.8 0 0 1 1.85-3.259l5.306-3.12A3.66 3.66 0 0 1 16.008 5c.645 0 1.28.174 1.836.505l5.306 3.121A3.79 3.79 0 0 1 25 11.885v6.23a3.8 3.8 0 0 1-1.85 3.26l-5.306 3.12c-.56.33-1.196.505-1.844.505m-3.052-6.429-.983 1a2.7 2.7 0 0 0 1.957.822c1.53-.002 2.772-1.264 2.774-2.823v-.852c.42.247.897.377 1.382.376a2.66 2.66 0 0 0 1.965-.812l-.982-1c-.26.266-.614.416-.983.416a1.397 1.397 0 0 1-1.382-1.407V9.595h-1.382v7.984c0 .779-.62 1.41-1.385 1.41a1.37 1.37 0 0 1-.981-.418"/></defs><g fill="none" fill-rule="evenodd"><use xlink:href="#jnt_svg-a" fill="#000" filter="url(#jnt_svg-b)"/><use xlink:href="#jnt_svg-a" fill="#0050DB"/><use xlink:href="#jnt_svg-a" fill="url(#jnt_svg-c)" style="mix-blend-mode:soft-light"/><circle cx="16" cy="15" r="14.5" stroke="#000" stroke-opacity=".097"/><g fill-rule="nonzero"><use xlink:href="#jnt_svg-d" fill="#000" filter="url(#jnt_svg-e)"/><use xlink:href="#jnt_svg-d" fill="#FFF" fill-rule="evenodd"/></g></g></svg>