<svg xmlns="http://www.w3.org/2000/svg" xmlns:xlink="http://www.w3.org/1999/xlink" width="32" height="32" viewBox="0 0 32 32"><defs><filter id="kcs_svg-b" width="111.7%" height="111.7%" x="-5.8%" y="-4.2%" filterUnits="objectBoundingBox"><feOffset dy=".5" in="SourceAlpha" result="shadowOffsetOuter1"/><feGaussianBlur in="shadowOffsetOuter1" result="shadowBlurOuter1" stdDeviation=".5"/><feComposite in="shadowBlurOuter1" in2="SourceAlpha" operator="out" result="shadowBlurOuter1"/><feColorMatrix in="shadowBlurOuter1" values="0 0 0 0 0 0 0 0 0 0 0 0 0 0 0 0 0 0 0.199473505 0"/></filter><filter id="kcs_svg-e" width="121.9%" height="119.4%" x="-10.9%" y="-6.9%" filterUnits="objectBoundingBox"><feOffset dy=".5" in="SourceAlpha" result="shadowOffsetOuter1"/><feGaussianBlur in="shadowOffsetOuter1" result="shadowBlurOuter1" stdDeviation=".5"/><feColorMatrix in="shadowBlurOuter1" values="0 0 0 0 0 0 0 0 0 0 0 0 0 0 0 0 0 0 0.204257246 0"/></filter><linearGradient id="kcs_svg-c" x1="50%" x2="50%" y1="0%" y2="100%"><stop offset="0%" stop-color="#FFF" stop-opacity=".5"/><stop offset="100%" stop-opacity=".5"/></linearGradient><circle id="kcs_svg-a" cx="16" cy="15" r="15"/><path id="kcs_svg-d" d="m13.54 15 5.174 5.33 3.265-3.363a1.446 1.446 0 0 1 2.088 0 1.554 1.554 0 0 1 0 2.152l-4.309 4.44a1.456 1.456 0 0 1-2.088 0l-6.216-6.406v3.808c0 .836-.666 1.522-1.477 1.522-.816 0-1.477-.682-1.477-1.522V9.04c0-.84.661-1.522 1.477-1.522.815 0 1.477.682 1.477 1.522v3.808l6.216-6.406a1.456 1.456 0 0 1 2.088 0l4.31 4.44a1.554 1.554 0 0 1 0 2.152 1.446 1.446 0 0 1-2.09 0L18.715 9.67zm5.176-1.523c.816 0 1.478.682 1.478 1.523s-.662 1.523-1.478 1.523-1.478-.682-1.478-1.523.662-1.523 1.478-1.523"/></defs><g fill="none" fill-rule="evenodd"><use xlink:href="#kcs_svg-a" fill="#000" filter="url(#kcs_svg-b)"/><use xlink:href="#kcs_svg-a" fill="#0093DD"/><use xlink:href="#kcs_svg-a" fill="url(#kcs_svg-c)" style="mix-blend-mode:soft-light"/><circle cx="16" cy="15" r="14.5" stroke="#000" stroke-opacity=".097"/><use xlink:href="#kcs_svg-d" fill="#000" filter="url(#kcs_svg-e)"/><use xlink:href="#kcs_svg-d" fill="#FFF"/></g></svg>