<svg xmlns="http://www.w3.org/2000/svg" xmlns:xlink="http://www.w3.org/1999/xlink" width="32" height="32" viewBox="0 0 32 32"><defs><filter id="kin_svg-b" width="111.7%" height="111.7%" x="-5.8%" y="-4.2%" filterUnits="objectBoundingBox"><feOffset dy=".5" in="SourceAlpha" result="shadowOffsetOuter1"/><feGaussianBlur in="shadowOffsetOuter1" result="shadowBlurOuter1" stdDeviation=".5"/><feComposite in="shadowBlurOuter1" in2="SourceAlpha" operator="out" result="shadowBlurOuter1"/><feColorMatrix in="shadowBlurOuter1" values="0 0 0 0 0 0 0 0 0 0 0 0 0 0 0 0 0 0 0.199473505 0"/></filter><filter id="kin_svg-e" width="115.9%" height="115.9%" x="-8%" y="-5.7%" filterUnits="objectBoundingBox"><feOffset dy=".5" in="SourceAlpha" result="shadowOffsetOuter1"/><feGaussianBlur in="shadowOffsetOuter1" result="shadowBlurOuter1" stdDeviation=".5"/><feColorMatrix in="shadowBlurOuter1" values="0 0 0 0 0 0 0 0 0 0 0 0 0 0 0 0 0 0 0.204257246 0"/></filter><linearGradient id="kin_svg-c" x1="50%" x2="50%" y1="0%" y2="100%"><stop offset="0%" stop-color="#FFF" stop-opacity=".5"/><stop offset="100%" stop-opacity=".5"/></linearGradient><circle id="kin_svg-a" cx="16" cy="15" r="15"/><path id="kin_svg-d" d="M13.701 17.007V12.19h1.125c.243 0 .44.194.44.433v.416c0 .452.392.84.849.84s.804-.388.804-.84v-.4c0-.248.203-.45.455-.45h1.253v1.218c0 .248-.204.45-.455.45h-.425a.824.824 0 0 0-.828.817c0 .451.424.817.881.817h.375c.25 0 .452.2.452.446v1.07h1.009c.35 0 .633.278.633.62v.367c0 .342-.284.62-.633.62h-.376a.626.626 0 0 1-.633-.62v-.826H17.37c-.25 0-.451-.2-.451-.446v-.412a.85.85 0 0 0-.842-.834c-.457 0-.812.4-.812.875v.374c0 .245-.2.443-.448.443h-1.116v.826c0 .342-.283.62-.633.62h-.375a.626.626 0 0 1-.633-.62v-.367c0-.342.283-.62.633-.62H13.7zm5.935-4.978h-1.01v-.986c0-.342.284-.62.634-.62h.376c.35 0 .633.278.633.62v.367c0 .342-.284.62-.633.62zm-5.935 0h-1.008a.626.626 0 0 1-.633-.619v-.367c0-.342.283-.62.633-.62h.375c.35 0 .633.278.633.62zm2.275-1.445a.626.626 0 0 1-.633-.62v-.367c0-.342.284-.619.633-.619h.376c.35 0 .633.277.633.62v.367a.626.626 0 0 1-.633.619zm0 9.796a.626.626 0 0 1-.633-.62v-.367c0-.342.284-.62.633-.62h.376c.35 0 .633.278.633.62v.368a.626.626 0 0 1-.633.619zm4.926-4.979a.626.626 0 0 1-.633-.619v-.367c0-.342.283-.62.633-.62h.375c.35 0 .633.278.633.62v.367c0 .342-.283.62-.633.62h-.375zm-10.015 0a.626.626 0 0 1-.633-.619v-.367c0-.342.283-.62.633-.62h.375c.35 0 .634.278.634.62v.367c0 .342-.284.62-.634.62h-.375zm7.766 5.021a.58.58 0 0 1 .75.305.557.557 0 0 1-.31.734.58.58 0 0 1-.75-.304.56.56 0 0 1 .31-.735M13.4 7.897a.58.58 0 0 1 .75.304.56.56 0 0 1-.31.734.58.58 0 0 1-.751-.304.56.56 0 0 1 .31-.734zm8.554 4.428a.56.56 0 0 1 .311-.735.58.58 0 0 1 .75.304.56.56 0 0 1-.31.735.58.58 0 0 1-.75-.304zM9.312 17.463a.56.56 0 0 1 .311-.734.58.58 0 0 1 .751.304.56.56 0 0 1-.31.734.58.58 0 0 1-.752-.304m0-5.569a.58.58 0 0 1 .751-.304.56.56 0 0 1 .311.735.58.58 0 0 1-.75.304.56.56 0 0 1-.312-.735m9.177-2.959a.56.56 0 0 1-.31-.734.58.58 0 0 1 .75-.304.56.56 0 0 1 .31.734.58.58 0 0 1-.75.304m3.465 8.098a.58.58 0 0 1 .75-.304.56.56 0 0 1 .312.734.58.58 0 0 1-.75.304.56.56 0 0 1-.312-.734m-8.883 4.588a.557.557 0 0 1-.31-.734.58.58 0 0 1 .75-.304.56.56 0 0 1 .31.734.58.58 0 0 1-.75.304m8.443-1.63a.334.334 0 0 1 .464 0 .316.316 0 0 1 0 .455.334.334 0 0 1-.464 0 .316.316 0 0 1 0-.454zM10.35 8.912a.334.334 0 0 1 .464 0 .316.316 0 0 1 0 .455.334.334 0 0 1-.464 0 .316.316 0 0 1 0-.454zm11.164.455a.316.316 0 0 1 0-.454.334.334 0 0 1 .464 0 .316.316 0 0 1 0 .454.334.334 0 0 1-.464 0M10.35 20.446a.316.316 0 0 1 0-.454.334.334 0 0 1 .464 0 .316.316 0 0 1 0 .454.334.334 0 0 1-.464 0m13.53-5.847c0-.178.148-.322.329-.322s.328.144.328.322a.325.325 0 0 1-.328.32.325.325 0 0 1-.328-.32zm-15.925 0c0-.178.147-.322.329-.322.18 0 .328.144.328.322a.325.325 0 0 1-.328.32.325.325 0 0 1-.329-.32m8.21-7.387a.325.325 0 0 1-.33-.321c0-.178.148-.322.33-.322.18 0 .328.144.328.322a.325.325 0 0 1-.329.32zm0 15.576a.325.325 0 0 1-.33-.32c0-.178.148-.322.33-.322.18 0 .328.144.328.321a.325.325 0 0 1-.329.321zm10.178-8.19c0-.177.148-.32.329-.32.18 0 .328.143.328.32a.325.325 0 0 1-.328.322.325.325 0 0 1-.329-.321zm-21.097-.16c.136 0 .247.108.247.24 0 .134-.11.242-.247.242A.244.244 0 0 1 5 14.679c0-.133.11-.241.246-.241M15.672 4.321c0-.177.147-.321.328-.321s.328.144.328.321a.325.325 0 0 1-.328.321.325.325 0 0 1-.328-.32zm9.725 14.105a.497.497 0 0 1 .645-.257.48.48 0 0 1 .263.632.494.494 0 0 1-.646.256.48.48 0 0 1-.262-.631m-5.33 5.19a.32.32 0 0 1 .177.176.3.3 0 0 1-.001.245.331.331 0 0 1-.606-.004.3.3 0 0 1 0-.245.32.32 0 0 1 .18-.173.34.34 0 0 1 .25.002zM6.442 10.289c.08.034.143.096.176.175a.3.3 0 0 1-.001.246.331.331 0 0 1-.606-.004.3.3 0 0 1 .001-.246.32.32 0 0 1 .179-.172.34.34 0 0 1 .251.001m-.916 8.25a.414.414 0 0 1 .538-.214.4.4 0 0 1 .218.526.414.414 0 0 1-.538.213.4.4 0 0 1-.218-.526zM19.863 5.252a.4.4 0 0 1-.219-.526.414.414 0 0 1 .538-.214.4.4 0 0 1 .218.526.414.414 0 0 1-.537.214m6.141 4.867a.25.25 0 0 1 .189.001.24.24 0 0 1-.003.445.25.25 0 0 1-.321-.132.23.23 0 0 1 .001-.185.24.24 0 0 1 .134-.129M11.587 4.95a.247.247 0 0 1 .322-.128.239.239 0 0 1-.003.445.25.25 0 0 1-.188-.001.24.24 0 0 1-.131-.316m.063 18.962q.048 0 .095.02a.24.24 0 0 1 .131.315.25.25 0 0 1-.322.128.24.24 0 0 1-.132-.315.25.25 0 0 1 .228-.148m11.642-1.7a.334.334 0 0 1-.465 0 .316.316 0 0 1 0-.454.33.33 0 0 1 .233-.094.33.33 0 0 1 .232.094.316.316 0 0 1 0 .455zM7.935 7.033a.5.5 0 0 1 .697 0 .475.475 0 0 1 0 .681.497.497 0 0 1-.697 0 .475.475 0 0 1 0-.681m15.525.09a.25.25 0 0 1 .348 0 .24.24 0 0 1 0 .34.25.25 0 0 1-.348 0 .236.236 0 0 1 0-.34M8.027 21.735a.25.25 0 0 1 .174-.07c.066 0 .128.024.175.07a.237.237 0 0 1 0 .34.25.25 0 0 1-.349 0 .237.237 0 0 1 0-.34M16.082 26a.406.406 0 0 1-.41-.401c0-.222.183-.402.41-.402s.41.18.41.402a.406.406 0 0 1-.41.401"/></defs><g fill="none" fill-rule="evenodd"><use xlink:href="#kin_svg-a" fill="#000" filter="url(#kin_svg-b)"/><use xlink:href="#kin_svg-a" fill="#005FFF"/><use xlink:href="#kin_svg-a" fill="url(#kin_svg-c)" style="mix-blend-mode:soft-light"/><circle cx="16" cy="15" r="14.5" stroke="#000" stroke-opacity=".097"/><use xlink:href="#kin_svg-d" fill="#000" filter="url(#kin_svg-e)"/><use xlink:href="#kin_svg-d" fill="#FFF"/></g></svg>