<svg xmlns="http://www.w3.org/2000/svg" xmlns:xlink="http://www.w3.org/1999/xlink" width="32" height="32" viewBox="0 0 32 32"><defs><linearGradient id="knc_svg-c" x1="50%" x2="50%" y1="0%" y2="100%"><stop offset="0%" stop-color="#FFF" stop-opacity=".5"/><stop offset="100%" stop-opacity=".5"/></linearGradient><filter id="knc_svg-b" width="111.7%" height="111.7%" x="-5.8%" y="-4.2%" filterUnits="objectBoundingBox"><feOffset dy=".5" in="SourceAlpha" result="shadowOffsetOuter1"/><feGaussianBlur in="shadowOffsetOuter1" result="shadowBlurOuter1" stdDeviation=".5"/><feComposite in="shadowBlurOuter1" in2="SourceAlpha" operator="out" result="shadowBlurOuter1"/><feColorMatrix in="shadowBlurOuter1" values="0 0 0 0 0 0 0 0 0 0 0 0 0 0 0 0 0 0 0.199473505 0"/></filter><circle id="knc_svg-a" cx="16" cy="15" r="15"/></defs><g fill="none" fill-rule="evenodd"><use xlink:href="#knc_svg-a" fill="#000" filter="url(#knc_svg-b)"/><use xlink:href="#knc_svg-a" fill="#31CB9E"/><use xlink:href="#knc_svg-a" fill="url(#knc_svg-c)" style="mix-blend-mode:soft-light"/><circle cx="16" cy="15" r="14.5" stroke="#000" stroke-linejoin="square" stroke-opacity=".097"/><g fill="#FFF" fill-rule="nonzero"><path d="m14.927 15.162 7.72 4.423a.408.408 0 0 0 .618-.353v-8.146a.405.405 0 0 0-.618-.35zm7.557-6.383-5.278-3.882a.42.42 0 0 0-.661.222l-1.927 8.647 7.82-4.323a.39.39 0 0 0 .046-.664M17.2 25.424l5.284-3.882a.395.395 0 0 0-.044-.673l-7.822-4.323 1.927 8.647a.417.417 0 0 0 .655.238"/><path d="m12.92 15.002 2.007-9.389a.398.398 0 0 0-.618-.404L9.167 9.152a1.07 1.07 0 0 0-.417.85v10.006c-.005.337.15.656.417.861l5.117 3.932a.398.398 0 0 0 .618-.405l-1.983-9.394z"/></g></g></svg>