<svg xmlns="http://www.w3.org/2000/svg" xmlns:xlink="http://www.w3.org/1999/xlink" width="32" height="32" viewBox="0 0 32 32"><defs><filter id="lbc_svg-b" width="111.7%" height="111.7%" x="-5.8%" y="-4.2%" filterUnits="objectBoundingBox"><feOffset dy=".5" in="SourceAlpha" result="shadowOffsetOuter1"/><feGaussianBlur in="shadowOffsetOuter1" result="shadowBlurOuter1" stdDeviation=".5"/><feComposite in="shadowBlurOuter1" in2="SourceAlpha" operator="out" result="shadowBlurOuter1"/><feColorMatrix in="shadowBlurOuter1" values="0 0 0 0 0 0 0 0 0 0 0 0 0 0 0 0 0 0 0.199473505 0"/></filter><filter id="lbc_svg-e" width="117.4%" height="123.2%" x="-8.7%" y="-8.3%" filterUnits="objectBoundingBox"><feOffset dy=".5" in="SourceAlpha" result="shadowOffsetOuter1"/><feGaussianBlur in="shadowOffsetOuter1" result="shadowBlurOuter1" stdDeviation=".5"/><feColorMatrix in="shadowBlurOuter1" values="0 0 0 0 0 0 0 0 0 0 0 0 0 0 0 0 0 0 0.204257246 0"/></filter><linearGradient id="lbc_svg-c" x1="50%" x2="50%" y1="0%" y2="100%"><stop offset="0%" stop-color="#FFF" stop-opacity=".5"/><stop offset="100%" stop-opacity=".5"/></linearGradient><circle id="lbc_svg-a" cx="16" cy="15" r="15"/><path id="lbc_svg-d" d="m24.176 16.184-.797-.199.242-.97 2.485.621-.62 2.485-.971-.242.215-.862-8.872 5.493-9.839-4.916v-3.752l10.224-6.394 9.375 4.573v1.544l-9.759 6.063-7.247-3.593.444-.896 6.749 3.346 8.813-5.476v-.363L16.303 8.59 7.02 14.396v2.58l8.787 4.39 8.37-5.182z"/></defs><g fill="none" fill-rule="evenodd"><use xlink:href="#lbc_svg-a" fill="#000" filter="url(#lbc_svg-b)"/><use xlink:href="#lbc_svg-a" fill="#006149"/><use xlink:href="#lbc_svg-a" fill="url(#lbc_svg-c)" style="mix-blend-mode:soft-light"/><circle cx="16" cy="15" r="14.5" stroke="#000" stroke-opacity=".097"/><g fill-rule="nonzero"><use xlink:href="#lbc_svg-d" fill="#000" filter="url(#lbc_svg-e)"/><use xlink:href="#lbc_svg-d" fill="#FFF" fill-rule="evenodd"/></g></g></svg>