<svg xmlns="http://www.w3.org/2000/svg" xmlns:xlink="http://www.w3.org/1999/xlink" width="32" height="32" viewBox="0 0 32 32"><defs><linearGradient id="loom_svg-c" x1="50%" x2="50%" y1="0%" y2="100%"><stop offset="0%" stop-color="#FFF" stop-opacity=".5"/><stop offset="100%" stop-opacity=".5"/></linearGradient><filter id="loom_svg-b" width="111.7%" height="111.7%" x="-5.8%" y="-4.2%" filterUnits="objectBoundingBox"><feOffset dy=".5" in="SourceAlpha" result="shadowOffsetOuter1"/><feGaussianBlur in="shadowOffsetOuter1" result="shadowBlurOuter1" stdDeviation=".5"/><feComposite in="shadowBlurOuter1" in2="SourceAlpha" operator="out" result="shadowBlurOuter1"/><feColorMatrix in="shadowBlurOuter1" values="0 0 0 0 0 0 0 0 0 0 0 0 0 0 0 0 0 0 0.199473505 0"/></filter><circle id="loom_svg-a" cx="15" cy="15" r="15"/></defs><g fill="none"><g transform="translate(1)"><use xlink:href="#loom_svg-a" fill="#000" filter="url(#loom_svg-b)"/><use xlink:href="#loom_svg-a" fill="#48BEFF"/><use xlink:href="#loom_svg-a" fill="url(#loom_svg-c)" style="mix-blend-mode:soft-light"/><circle cx="15" cy="15" r="14.5" stroke="#000" stroke-linejoin="square" stroke-opacity=".097"/></g><g fill="#FFF"><path d="M21.678 24.469 6.658 13.932a3.893 3.893 0 0 1 0-6.373L10.298 5l15.02 10.536a3.893 3.893 0 0 1 0 6.374zM10.294 6.708 7.46 8.692a2.5 2.5 0 0 0 0 4.1l14.222 9.97 2.836-1.984a2.5 2.5 0 0 0 0-4.1z"/><path d="M10.283 22.762 7.45 20.776a2.5 2.5 0 0 1 0-4.1l7.333-5.118-1.21-.851-6.915 4.83a3.893 3.893 0 0 0 0 6.373l3.627 2.547 4.49-3.143-1.205-.849zm15.04-15.198-3.63-2.546L17.2 8.161l1.205.849 3.281-2.297 2.833 1.986a2.5 2.5 0 0 1 0 4.1l-7.334 5.118 1.205.849 6.925-4.838a3.893 3.893 0 0 0 0-6.373z"/><path d="m7.517 14.926 5.71-3.998.797 1.137-5.712 3.998zm16.271-1.611-2.782 1.948.795 1.138 2.881-2.02c-.306-.35-.602-.708-.9-1.067z"/></g></g></svg>