<svg xmlns="http://www.w3.org/2000/svg" width="32" height="32" viewBox="0 0 32 32"><path d="M13.668.2C7.535 1.366 3 5.2.965 10.866c-1 2.766-1 7.531 0 10.266C3.367 27.766 9 31.766 16 31.8c8.898.031 15.668-6.668 15.766-15.633.101-7.035-4-12.902-10.567-15.168-1.898-.633-6-1.066-7.531-.8m6.266 9.366c.398 1.934.964 3.832 1.3 4.168.301.332 1.399.934 2.5 1.301 1.067.399 1.934.832 1.934 1 0 .133-.902.598-1.969 1-1.097.399-2.234.965-2.531 1.297-.27.3-.836 2.168-1.234 4.102-.399 2.132-.868 3.566-1.102 3.566-.23 0-.633-1.332-1-3.398-.766-4.036-1.332-4.868-3.965-5.704-1.035-.332-1.867-.73-1.867-.863 0-.168.867-.601 1.934-1 1.101-.367 2.234-1 2.566-1.367s.867-2 1.2-3.734c1.066-5.168 1.3-5.2 2.234-.368m-7.301-1.5c.168.766.535 1.235 1.199 1.602l1 .465-.898.332c-.536.168-1 .57-1.067.836-.066.3-.234.965-.367 1.531-.234.902-.266.934-.5.336-.168-.367-.367-1.035-.465-1.5-.101-.535-.535-1-1.101-1.203l-.934-.363.934-.368c.933-.402 1.03-.535 1.398-2.199.234-1.137.5-.969.8.531m-2.867 10c.336 1.5.566 1.832 1.5 2.235 1.336.597 1.367.933.066 1.199-.797.168-1.066.465-1.367 1.602-.2.765-.5 1.699-.633 2.066-.23.598-.266.566-.5-.336-.633-2.7-.867-3.133-1.867-3.332-1.23-.266-1.23-.602.101-1.2.735-.335 1.133-.765 1.301-1.468a59 59 0 0 0 .434-1.965c.3-1.234.5-.969.965 1.2m0 0" style="stroke:none;fill-rule:nonzero;fill:#000;fill-opacity:1"/></svg>