<svg xmlns="http://www.w3.org/2000/svg" xmlns:xlink="http://www.w3.org/1999/xlink" width="32" height="32" viewBox="0 0 32 32"><defs><filter id="mana_svg-b" width="111.7%" height="111.7%" x="-5.8%" y="-4.2%" filterUnits="objectBoundingBox"><feOffset dy=".5" in="SourceAlpha" result="shadowOffsetOuter1"/><feGaussianBlur in="shadowOffsetOuter1" result="shadowBlurOuter1" stdDeviation=".5"/><feComposite in="shadowBlurOuter1" in2="SourceAlpha" operator="out" result="shadowBlurOuter1"/><feColorMatrix in="shadowBlurOuter1" values="0 0 0 0 0 0 0 0 0 0 0 0 0 0 0 0 0 0 0.199473505 0"/></filter><filter id="mana_svg-d"><feColorMatrix in="SourceGraphic" values="0 0 0 0 1.000000 0 0 0 0 1.000000 0 0 0 0 1.000000 0 0 0 1.000000 0"/></filter><filter id="mana_svg-e" width="134.1%" height="134.1%" x="-17%" y="-17%" filterUnits="objectBoundingBox"><feOffset dy=".5" in="SourceAlpha" result="shadowOffsetOuter1"/><feGaussianBlur in="shadowOffsetOuter1" result="shadowBlurOuter1" stdDeviation=".5"/><feColorMatrix in="shadowBlurOuter1" result="shadowMatrixOuter1" values="0 0 0 0 0 0 0 0 0 0 0 0 0 0 0 0 0 0 0.204257246 0"/><feMerge><feMergeNode in="shadowMatrixOuter1"/><feMergeNode in="SourceGraphic"/></feMerge></filter><linearGradient id="mana_svg-c" x1="50%" x2="50%" y1="0%" y2="100%"><stop offset="0%" stop-color="#FFF" stop-opacity=".5"/><stop offset="100%" stop-opacity=".5"/></linearGradient><circle id="mana_svg-a" cx="16" cy="15" r="15"/></defs><g fill="none" fill-rule="evenodd"><use xlink:href="#mana_svg-a" fill="#000" filter="url(#mana_svg-b)"/><use xlink:href="#mana_svg-a" fill="#FF2D55"/><use xlink:href="#mana_svg-a" fill="url(#mana_svg-c)" style="mix-blend-mode:soft-light"/><circle cx="16" cy="15" r="14.5" stroke="#000" stroke-linejoin="square" stroke-opacity=".097"/><g filter="url(#mana_svg-d)"><g filter="url(#mana_svg-e)" transform="translate(5 4)"><path fill="#16141A" fill-rule="nonzero" d="M7.793 6.534.748 14.988A10.9 10.9 0 0 1 0 11C0 4.923 4.923 0 11 0c6.078 0 11 4.923 11 11 0 3.36-1.507 6.369-3.883 8.387H3.883A11.5 11.5 0 0 1 2.2 17.6h12.562v-4.763l3.965 4.763H19.8l-5.043-6.05-1.392 1.672zM14.758 4.4a2.751 2.751 0 0 0 0 5.5 2.751 2.751 0 0 0 0-5.5M7.794 2.409a1.376 1.376 0 1 0 0 2.751 1.376 1.376 0 0 0 0-2.751M4.989 20.212h12.023A10.97 10.97 0 0 1 11 22a10.97 10.97 0 0 1-6.011-1.788m7.843-6.346-2.426 2.909H1.639a11 11 0 0 1-.891-1.787h7.045V7.82l5.038 6.045z"/></g></g></g></svg>