<svg xmlns="http://www.w3.org/2000/svg" width="250" height="247"><path d="M0 0v247h250V0z" style="fill:#010101;stroke:none"/><path d="m69 78 3-1z" style="fill:#fdeada;stroke:none"/><path d="m72 76-5 4v1l6-4z" style="fill:#fbd39c;stroke:none"/><path d="M73.09 76.854c-7.87 3.345-9.064 23.175-4.526 29.551 4.41 6.197 22.344 6.999 28.921 3.741 7.132-3.532 8.623-24.575 3.951-30.381-4.57-5.681-22.074-5.576-28.346-2.91" style="fill:#f9be41;stroke:none"/><path d="M98 76v1h3zm50 0v1h3z" style="fill:#fdeada;stroke:none"/><path d="m151 76-1 2z" style="fill:#fbd39c;stroke:none"/><path d="M144 79v28l11.09 3.87L173 107l-1-28z" style="fill:#f9be41;stroke:none"/><path d="m164 76 2 2z" style="fill:#fbd39c;stroke:none"/><path d="M165 76v1h3z" style="fill:#fdeada;stroke:none"/><path d="M98 77v1h4zm49 0-3 1v1l5-2zm20 0 5 2v-1z" style="fill:#fbd39c;stroke:none"/><path d="M67 78v2h2z" style="fill:#fdeada;stroke:none"/><path d="m68 78 1 1z" style="fill:#f9be41;stroke:none"/><path d="M101 78v2h2v-2zm44.667.333.666.334zm24 0 .666.334z" style="fill:#fdeada;stroke:none"/><path d="m172 79 1.791 19 .209 8 1-2-1-2h2l-1-4c5.781-.963-.965-13.518-1-17h-2v-1c1.396-.698 1.396-.302 0-1m-29 1-3 5v17l1 2 2-1-1 3h1l2-26z" style="fill:#fbd39c;stroke:none"/><path d="m172 80 1 1z" style="fill:#ea3401;stroke:none"/><path d="M140 85h2l1-2zm33-3 3 3z" style="fill:#fdeada;stroke:none"/><path d="m141 83 1 1z" style="fill:#ea3401;stroke:none"/><path d="m175 85 1 1z" style="fill:#f9be41;stroke:none"/><path d="M140 86v3h1zm35 0v2h2v-2zm-34.667 12.667.334.666zM175 98l2 3z" style="fill:#fdeada;stroke:none"/><path d="m140 100 1 1z" style="fill:#f9be41;stroke:none"/><path d="m175 100 1 1z" style="fill:#ea3401;stroke:none"/><path d="m140.667 102.333.666.334zm34 0 .666.334zM142 103l-1 2h2zm31.667 1.333.666.334zM143 105l1 1z" style="fill:#fdeada;stroke:none"/><path d="M67 106v1l1 2 4 1zm34 0-3 3v1h4l1-3z" style="fill:#fbd39c;stroke:none"/><path d="m67.667 107.333.666.334zM101 107v2l2-2z" style="fill:#fdeada;stroke:none"/><path d="M144 107v1l8 3zm20 3v1l8-3z" style="fill:#fbd39c;stroke:none"/><path d="m145.667 108.333.666.334zm24 0 .666.334zM69 109l3 2zm31 0-2 1v1zm48 1v1h3zm17 0v1h3zM31 129v1h36c-9.56-4.011-25.613-1-36-1m80 0v1l24 1zm79 0v1h8z" style="fill:#fdeada;stroke:none"/><path d="M31 130v1h36c-9.56-4.011-25.613-1-36-1m75 2-2 3v1l8-5z" style="fill:#fbd39c;stroke:none"/><path d="m104 136 2 3h-3v16l3 7c11.783 2.246 23.939 2.907 33-5v-20l-4-6-3-1c-10.743 2.558-18.39-.531-28 6" style="fill:#f9be41;stroke:none"/><path d="M113 130v1h18z" style="fill:#fbd39c;stroke:none"/><path d="m186 132 3-1z" style="fill:#fdeada;stroke:none"/><path d="m189.333 130.667.334.666z" style="fill:#fbd39c;stroke:none"/><path d="m190 130-13 13v8l7 11 5 2h11l7.939-5.338L213 148v-2l-9-14-5-2z" style="fill:#f9be41;stroke:none"/><path d="M192 130v1h5zm7 2 4 1-1-3z" style="fill:#fbd39c;stroke:none"/><path d="M31 131v32h36v-32z" style="fill:#f9be41;stroke:none"/><path d="m107.667 131.333.666.334z" style="fill:#fdeada;stroke:none"/><path d="m132.667 131.333.666.334zm52.666.334.334.666zM187 131l1 1z" style="fill:#fbd39c;stroke:none"/><path d="m202.667 131.333.666.334z" style="fill:#fdeada;stroke:none"/><path d="m134 132 2 2z" style="fill:#fbd39c;stroke:none"/><path d="m135 132 4 4-1-4z" style="fill:#fdeada;stroke:none"/><path d="m183 132 1 1z" style="fill:#fbd39c;stroke:none"/><path d="m184 132 1 1z" style="fill:#fdeada;stroke:none"/><path d="m204 132 1 1z" style="fill:#ea3401;stroke:none"/><path d="m205 132 1 1zm-99.333 1.333.666.334zM180 136l4-3z" style="fill:#fdeada;stroke:none"/><path d="M204 133v1l7 6zm-66 1 1 1zm45 0 1 1zm-46 1v2h2zm45 0 1 1z" style="fill:#fbd39c;stroke:none"/><path d="M103 136v2h2z" style="fill:#fdeada;stroke:none"/><path d="m179 136-2 5 5-5zm-76 3 3-2z" style="fill:#fbd39c;stroke:none"/><path d="m178 137 1 1z" style="fill:#fdeada;stroke:none"/><path d="m179 137 1 1z" style="fill:#ea3401;stroke:none"/><path d="m209 137 1 1z" style="fill:#fdeada;stroke:none"/><path d="M138 138v17h1z" style="fill:#fbd39c;stroke:none"/><path d="M139 138v19h1zm71 0 1 1zm-32 1 1 1zm32.667 1.333.666.334zm-33 1 .666.334z" style="fill:#fdeada;stroke:none"/><path d="m210.667 141.333.666.334zm-33 1 .666.334z" style="fill:#fbd39c;stroke:none"/><path d="M211 142v2h2v-2z" style="fill:#fdeada;stroke:none"/><path d="m210 143 1 1zm1 1v2h2v-2z" style="fill:#fbd39c;stroke:none"/><path d="M176 145v4h2v-4z" style="fill:#fdeada;stroke:none"/><path d="m210 151 3-3z" style="fill:#fbd39c;stroke:none"/><path d="m211 150 2 2z" style="fill:#fdeada;stroke:none"/><path d="m177 151 4 6v4h4l-7-6z" style="fill:#fbd39c;stroke:none"/><path d="m211 151 1 1z" style="fill:#ea3401;stroke:none"/><path d="m177 152 1 1z" style="fill:#fdeada;stroke:none"/><path d="m210 152-2 6h2l2-6z" style="fill:#fbd39c;stroke:none"/><path d="m178 154 1 1z" style="fill:#fdeada;stroke:none"/><path d="M103 155v1l1 3 1 2c2.9-2.237 1.055-5.106-2-6" style="fill:#fbd39c;stroke:none"/><path d="M103 156v2h2v-2zm106 0 1 1z" style="fill:#fdeada;stroke:none"/><path d="m137 157-3 5 4-1 1-4z" style="fill:#fbd39c;stroke:none"/><path d="m179.667 157.333.666.334zM138 158l1 3zm-33.333 1.333.666.334zM183 160l1 1z" style="fill:#fdeada;stroke:none"/><path d="m204 160-2 3 4-1zm-18 1 3 2v-1z" style="fill:#fbd39c;stroke:none"/><path d="m204 161 1 1z" style="fill:#fdeada;stroke:none"/><path d="m107 162 1 1zm2 0v1c8.296 3.501 17.321 1.685 26 1v-1z" style="fill:#fbd39c;stroke:none"/><path d="m134.667 162.333.666.334zM185 162v1l4 1v-1z" style="fill:#fdeada;stroke:none"/><path d="m200.333 162.667.334.666zM31 163v2h36v-2z" style="fill:#fbd39c;stroke:none"/><path d="m108.667 163.333.666.334z" style="fill:#fdeada;stroke:none"/><path d="M190 163v1h9z" style="fill:#fbd39c;stroke:none"/><path d="m201 163 1 1zm-91 1v1h3zm20 0v1h3zm59 0v1h3zm8 0v1h3z" style="fill:#fdeada;stroke:none"/></svg>