<svg xmlns="http://www.w3.org/2000/svg" xmlns:xlink="http://www.w3.org/1999/xlink" width="32" height="32" viewBox="0 0 32 32"><defs><filter id="mco_svg-b" width="111.7%" height="111.7%" x="-5.8%" y="-4.2%" filterUnits="objectBoundingBox"><feOffset dy=".5" in="SourceAlpha" result="shadowOffsetOuter1"/><feGaussianBlur in="shadowOffsetOuter1" result="shadowBlurOuter1" stdDeviation=".5"/><feComposite in="shadowBlurOuter1" in2="SourceAlpha" operator="out" result="shadowBlurOuter1"/><feColorMatrix in="shadowBlurOuter1" values="0 0 0 0 0 0 0 0 0 0 0 0 0 0 0 0 0 0 0.199473505 0"/></filter><filter id="mco_svg-e" width="118.4%" height="115.9%" x="-9.2%" y="-5.7%" filterUnits="objectBoundingBox"><feOffset dy=".5" in="SourceAlpha" result="shadowOffsetOuter1"/><feGaussianBlur in="shadowOffsetOuter1" result="shadowBlurOuter1" stdDeviation=".5"/><feColorMatrix in="shadowBlurOuter1" values="0 0 0 0 0 0 0 0 0 0 0 0 0 0 0 0 0 0 0.204257246 0"/></filter><linearGradient id="mco_svg-c" x1="50%" x2="50%" y1="0%" y2="100%"><stop offset="0%" stop-color="#FFF" stop-opacity=".5"/><stop offset="100%" stop-opacity=".5"/></linearGradient><circle id="mco_svg-a" cx="16" cy="15" r="15"/><path id="mco_svg-d" d="m15.98 4.018 9.52 5.483v11L15.991 26l-.077-.019-9.414-5.48v-11l9.414-5.483zm-.031 1.138L7.5 10.076v9.85l8.448 4.919 1.032-.597 7.52-4.325v-9.845l-7.52-4.35zm-7.14 10.61 2.501-1.87 2.211 1.412v2.54l1.673 1.612-.001.756-1.612 1.51H12.22l-3.41-5.96zm7.903 4.452-.003-.76 1.667-1.61v-2.54l2.187-1.43 2.496 1.889-3.393 5.942h-1.344zm-2.37-4.91-.814-2.131h4.838l-.798 2.131.236 2.382-1.867.004-1.845.003zm1.595-2.715-4.598-.002.855-3.82h7.464l.9 3.825z"/></defs><g fill="none" fill-rule="evenodd"><use xlink:href="#mco_svg-a" fill="#000" filter="url(#mco_svg-b)"/><use xlink:href="#mco_svg-a" fill="#103F68"/><use xlink:href="#mco_svg-a" fill="url(#mco_svg-c)" style="mix-blend-mode:soft-light"/><circle cx="16" cy="15" r="14.5" stroke="#000" stroke-opacity=".097"/><g fill-rule="nonzero"><use xlink:href="#mco_svg-d" fill="#000" filter="url(#mco_svg-e)"/><use xlink:href="#mco_svg-d" fill="#FFF" fill-rule="evenodd"/></g></g></svg>