<svg xmlns="http://www.w3.org/2000/svg" xmlns:xlink="http://www.w3.org/1999/xlink" width="32" height="32" viewBox="0 0 32 32"><defs><filter id="mds_svg-b" width="111.7%" height="111.7%" x="-5.8%" y="-4.2%" filterUnits="objectBoundingBox"><feOffset dy=".5" in="SourceAlpha" result="shadowOffsetOuter1"/><feGaussianBlur in="shadowOffsetOuter1" result="shadowBlurOuter1" stdDeviation=".5"/><feComposite in="shadowBlurOuter1" in2="SourceAlpha" operator="out" result="shadowBlurOuter1"/><feColorMatrix in="shadowBlurOuter1" values="0 0 0 0 0 0 0 0 0 0 0 0 0 0 0 0 0 0 0.199473505 0"/></filter><filter id="mds_svg-e" width="117.5%" height="117.5%" x="-8.8%" y="-6.2%" filterUnits="objectBoundingBox"><feOffset dy=".5" in="SourceAlpha" result="shadowOffsetOuter1"/><feGaussianBlur in="shadowOffsetOuter1" result="shadowBlurOuter1" stdDeviation=".5"/><feColorMatrix in="shadowBlurOuter1" values="0 0 0 0 0 0 0 0 0 0 0 0 0 0 0 0 0 0 0.204257246 0"/></filter><linearGradient id="mds_svg-c" x1="50%" x2="50%" y1="0%" y2="100%"><stop offset="0%" stop-color="#FFF" stop-opacity=".5"/><stop offset="100%" stop-opacity=".5"/></linearGradient><circle id="mds_svg-a" cx="16" cy="15" r="15"/><path id="mds_svg-d" d="M14.22 14.589a1.507 1.507 0 1 1 0-3.014 1.507 1.507 0 0 1 0 3.014m3.698 0a1.507 1.507 0 1 1 0-3.014 1.507 1.507 0 0 1 0 3.014m-3.699 3.699a1.507 1.507 0 1 1 0-3.014 1.507 1.507 0 0 1 0 3.014m3.699 0a1.507 1.507 0 1 1 0-3.014 1.507 1.507 0 0 1 0 3.014m3.698-4.11a1.096 1.096 0 1 1 0-2.192 1.096 1.096 0 0 1 0 2.192m0 3.699a1.096 1.096 0 1 1 0-2.192 1.096 1.096 0 0 1 0 2.192m-11.232-3.699a1.096 1.096 0 1 1 0-2.192 1.096 1.096 0 0 1 0 2.192m0 3.699a1.096 1.096 0 1 1 0-2.192 1.096 1.096 0 0 1 0 2.192m3.835 3.698a1.096 1.096 0 1 1 0-2.191 1.096 1.096 0 0 1 0 2.191m3.699 0a1.096 1.096 0 1 1 0-2.191 1.096 1.096 0 0 1 0 2.191M14.219 10.48a1.096 1.096 0 1 1 0-2.191 1.096 1.096 0 0 1 0 2.191m3.699 0a1.096 1.096 0 1 1 0-2.191 1.096 1.096 0 0 1 0 2.191m-3.699-4.11a.685.685 0 1 1 0-1.369.685.685 0 0 1 0 1.37zm3.699 0a.685.685 0 1 1 0-1.369.685.685 0 0 1 0 1.37zm7.397 7.398a.685.685 0 1 1 0-1.37.685.685 0 0 1 0 1.37m0 3.699a.685.685 0 1 1 0-1.37.685.685 0 0 1 0 1.37m-18.63-3.699a.685.685 0 1 1 0-1.37.685.685 0 0 1 0 1.37m0 3.699a.685.685 0 1 1 0-1.37.685.685 0 0 1 0 1.37M14.219 25a.685.685 0 1 1 0-1.37.685.685 0 0 1 0 1.37m3.699 0a.685.685 0 1 1 0-1.37.685.685 0 0 1 0 1.37"/></defs><g fill="none" fill-rule="evenodd"><use xlink:href="#mds_svg-a" fill="#000" filter="url(#mds_svg-b)"/><use xlink:href="#mds_svg-a" fill="#1E252C"/><use xlink:href="#mds_svg-a" fill="url(#mds_svg-c)" style="mix-blend-mode:soft-light"/><circle cx="16" cy="15" r="14.5" stroke="#000" stroke-opacity=".097"/><g fill-rule="nonzero"><use xlink:href="#mds_svg-d" fill="#000" filter="url(#mds_svg-e)"/><use xlink:href="#mds_svg-d" fill="#FFF" fill-rule="evenodd"/></g></g></svg>