<svg xmlns="http://www.w3.org/2000/svg" xmlns:xlink="http://www.w3.org/1999/xlink" width="32" height="32" viewBox="0 0 32 32"><defs><linearGradient id="mft_svg-c" x1="50%" x2="50%" y1="0%" y2="100%"><stop offset="0%" stop-color="#FFF" stop-opacity=".5"/><stop offset="100%" stop-opacity=".5"/></linearGradient><filter id="mft_svg-b" width="111.7%" height="111.7%" x="-5.8%" y="-4.2%" filterUnits="objectBoundingBox"><feOffset dy=".5" in="SourceAlpha" result="shadowOffsetOuter1"/><feGaussianBlur in="shadowOffsetOuter1" result="shadowBlurOuter1" stdDeviation=".5"/><feComposite in="shadowBlurOuter1" in2="SourceAlpha" operator="out" result="shadowBlurOuter1"/><feColorMatrix in="shadowBlurOuter1" values="0 0 0 0 0 0 0 0 0 0 0 0 0 0 0 0 0 0 0.199473505 0"/></filter><circle id="mft_svg-a" cx="15" cy="15" r="15"/></defs><g fill="none"><g transform="translate(1)"><use xlink:href="#mft_svg-a" fill="#000" filter="url(#mft_svg-b)"/><use xlink:href="#mft_svg-a" fill="#DA1157"/><use xlink:href="#mft_svg-a" fill="url(#mft_svg-c)" style="mix-blend-mode:soft-light"/><circle cx="15" cy="15" r="14.5" stroke="#000" stroke-linejoin="square" stroke-opacity=".097"/></g><path fill="#FFF" d="M20.98 17.89a3.026 3.026 0 1 0 0-6.053 3.026 3.026 0 0 0 0 6.052zm0-10.006a6.98 6.98 0 1 1-5.003 11.843 6.96 6.96 0 0 0 1.976-4.864A6.95 6.95 0 0 0 15.977 10a6.96 6.96 0 0 1 5.003-2.115zM10.974 17.889a3.026 3.026 0 1 0 0-6.052 3.026 3.026 0 0 0 0 6.052M15.977 10A6.96 6.96 0 0 0 14 14.863c0 1.892.755 3.607 1.977 4.864a6.98 6.98 0 1 1 0-9.728zM14 14.864c0 1.892.754 3.607 1.976 4.864a6.95 6.95 0 0 0 1.977-4.864A6.95 6.95 0 0 0 15.976 10 6.95 6.95 0 0 0 14 14.864"/></g></svg>