<svg xmlns="http://www.w3.org/2000/svg" xmlns:xlink="http://www.w3.org/1999/xlink" width="32" height="32" viewBox="0 0 32 32"><defs><filter id="mln_svg-b" width="111.7%" height="111.7%" x="-5.8%" y="-4.2%" filterUnits="objectBoundingBox"><feOffset dy=".5" in="SourceAlpha" result="shadowOffsetOuter1"/><feGaussianBlur in="shadowOffsetOuter1" result="shadowBlurOuter1" stdDeviation=".5"/><feComposite in="shadowBlurOuter1" in2="SourceAlpha" operator="out" result="shadowBlurOuter1"/><feColorMatrix in="shadowBlurOuter1" values="0 0 0 0 0 0 0 0 0 0 0 0 0 0 0 0 0 0 0.199473505 0"/></filter><filter id="mln_svg-e" width="119.4%" height="115.2%" x="-9.7%" y="-5.4%" filterUnits="objectBoundingBox"><feOffset dy=".5" in="SourceAlpha" result="shadowOffsetOuter1"/><feGaussianBlur in="shadowOffsetOuter1" result="shadowBlurOuter1" stdDeviation=".5"/><feColorMatrix in="shadowBlurOuter1" values="0 0 0 0 0 0 0 0 0 0 0 0 0 0 0 0 0 0 0.204257246 0"/></filter><linearGradient id="mln_svg-c" x1="50%" x2="50%" y1="0%" y2="100%"><stop offset="0%" stop-color="#FFF" stop-opacity=".5"/><stop offset="100%" stop-opacity=".5"/></linearGradient><circle id="mln_svg-a" cx="16" cy="15" r="15"/><path id="mln_svg-d" d="m8.627 19.124 5.272 3.092v1.729L7 19.885V9.296L16 4l9 5.295v10.59l-6.899 4.06v-1.73l5.271-3.091-1.36-.786.178-.309 1.343.776v-7.852l-6.82 4.042v11.56L16 27l-.714-.445v-11.56l-6.819-4.042v7.851l1.342-.775.178.31zm7.175-13.31L9.18 9.699 16 13.742l6.82-4.043-6.661-3.908v1.604h-.357zm0 2.592h.357v1.657h-.357zm0 2.668h.357v1.657l-.179.081-.178-.08zm5.56 6.45-.178.31-1.436-.83.179-.309zm-2.265-1.334-.179.31-1.435-.83.02-.194.158-.114zm-8.46 1.334 1.435-.829.179.31-1.435.828zm2.266-1.334 1.435-.828.16.114.018.195-1.435.828z"/></defs><g fill="none" fill-rule="evenodd"><use xlink:href="#mln_svg-a" fill="#000" filter="url(#mln_svg-b)"/><use xlink:href="#mln_svg-a" fill="#0B1529"/><use xlink:href="#mln_svg-a" fill="url(#mln_svg-c)" style="mix-blend-mode:soft-light"/><circle cx="16" cy="15" r="14.5" stroke="#000" stroke-opacity=".097"/><use xlink:href="#mln_svg-d" fill="#000" filter="url(#mln_svg-e)"/><use xlink:href="#mln_svg-d" fill="#FFF"/></g></svg>