<svg xmlns="http://www.w3.org/2000/svg" xmlns:xlink="http://www.w3.org/1999/xlink" width="32" height="32" viewBox="0 0 32 32"><defs><filter id="mnx_svg-b" width="111.7%" height="111.7%" x="-5.8%" y="-4.2%" filterUnits="objectBoundingBox"><feOffset dy=".5" in="SourceAlpha" result="shadowOffsetOuter1"/><feGaussianBlur in="shadowOffsetOuter1" result="shadowBlurOuter1" stdDeviation=".5"/><feComposite in="shadowBlurOuter1" in2="SourceAlpha" operator="out" result="shadowBlurOuter1"/><feColorMatrix in="shadowBlurOuter1" values="0 0 0 0 0 0 0 0 0 0 0 0 0 0 0 0 0 0 0.199473505 0"/></filter><filter id="mnx_svg-e" width="115.9%" height="115.9%" x="-8%" y="-5.7%" filterUnits="objectBoundingBox"><feOffset dy=".5" in="SourceAlpha" result="shadowOffsetOuter1"/><feGaussianBlur in="shadowOffsetOuter1" result="shadowBlurOuter1" stdDeviation=".5"/><feColorMatrix in="shadowBlurOuter1" values="0 0 0 0 0 0 0 0 0 0 0 0 0 0 0 0 0 0 0.204257246 0"/></filter><linearGradient id="mnx_svg-c" x1="50%" x2="50%" y1="0%" y2="100%"><stop offset="0%" stop-color="#FFF" stop-opacity=".5"/><stop offset="100%" stop-opacity=".5"/></linearGradient><circle id="mnx_svg-a" cx="16" cy="15" r="15"/><path id="mnx_svg-d" d="M14.863 25.986C9.32 25.405 5 20.708 5 15S9.32 4.595 14.863 4.014v3.37A7.7 7.7 0 0 0 8.336 15a7.7 7.7 0 0 0 6.527 7.616zM17.038 4c5.23.479 9.403 4.617 9.948 9.837h-3.363a7.7 7.7 0 0 0-6.585-6.474zM27 16.017c-.482 5.29-4.684 9.5-9.962 9.983v-3.363a7.7 7.7 0 0 0 6.606-6.62z"/></defs><g fill="none" fill-rule="evenodd"><g fill-rule="nonzero"><use xlink:href="#mnx_svg-a" fill="#000" filter="url(#mnx_svg-b)"/><use xlink:href="#mnx_svg-a" fill="#00ADEF" fill-rule="evenodd"/><use xlink:href="#mnx_svg-a" fill="url(#mnx_svg-c)" fill-rule="evenodd" style="mix-blend-mode:soft-light"/><circle cx="16" cy="15" r="14.5" stroke="#000" stroke-opacity=".097"/></g><use xlink:href="#mnx_svg-d" fill="#000" filter="url(#mnx_svg-e)"/><use xlink:href="#mnx_svg-d" fill="#FFF"/></g></svg>