<svg xmlns="http://www.w3.org/2000/svg" xmlns:xlink="http://www.w3.org/1999/xlink" width="32" height="32" viewBox="0 0 32 32"><defs><filter id="mona_svg-b" width="111.7%" height="111.7%" x="-5.8%" y="-4.2%" filterUnits="objectBoundingBox"><feOffset dy=".5" in="SourceAlpha" result="shadowOffsetOuter1"/><feGaussianBlur in="shadowOffsetOuter1" result="shadowBlurOuter1" stdDeviation=".5"/><feComposite in="shadowBlurOuter1" in2="SourceAlpha" operator="out" result="shadowBlurOuter1"/><feColorMatrix in="shadowBlurOuter1" values="0 0 0 0 0 0 0 0 0 0 0 0 0 0 0 0 0 0 0.199473505 0"/></filter><filter id="mona_svg-e" width="117.5%" height="119.4%" x="-8.8%" y="-6.9%" filterUnits="objectBoundingBox"><feOffset dy=".5" in="SourceAlpha" result="shadowOffsetOuter1"/><feGaussianBlur in="shadowOffsetOuter1" result="shadowBlurOuter1" stdDeviation=".5"/><feColorMatrix in="shadowBlurOuter1" values="0 0 0 0 0 0 0 0 0 0 0 0 0 0 0 0 0 0 0.204257246 0"/></filter><linearGradient id="mona_svg-c" x1="50%" x2="50%" y1="0%" y2="100%"><stop offset="0%" stop-color="#FFF" stop-opacity=".5"/><stop offset="100%" stop-opacity=".5"/></linearGradient><circle id="mona_svg-a" cx="16" cy="15" r="15"/><path id="mona_svg-d" d="M23.53 12.414 22.105 6l-2.797 4.414a14.1 14.1 0 0 0-6.617 0L9.902 6l-1.43 6.414C6.937 13.642 6 15.247 6 17.009c0 3.86 4.476 6.989 9.997 6.989s9.997-3.13 9.997-6.989c-.001-1.762-.93-3.367-2.465-4.595zM10.442 15.35h-.666l1.627-1.876h1.184zm5.504 4.584-2.766-4.872.683-.39.617 1.085h3.021l.644-1.09.676.402zm5.613-4.584-2.146-1.876h1.192l1.625 1.876zm-5.6 3.015-1.033-1.82h2.108z"/></defs><g fill="none"><use xlink:href="#mona_svg-a" fill="#000" filter="url(#mona_svg-b)"/><use xlink:href="#mona_svg-a" fill="#DEC799" fill-rule="evenodd"/><use xlink:href="#mona_svg-a" fill="url(#mona_svg-c)" fill-rule="evenodd" style="mix-blend-mode:soft-light"/><circle cx="16" cy="15" r="14.5" stroke="#000" stroke-opacity=".097"/><use xlink:href="#mona_svg-d" fill="#000" filter="url(#mona_svg-e)"/><use xlink:href="#mona_svg-d" fill="#FFF" fill-rule="evenodd"/></g></svg>