<svg xmlns="http://www.w3.org/2000/svg" xmlns:xlink="http://www.w3.org/1999/xlink" width="32" height="32" viewBox="0 0 32 32"><defs><filter id="music_svg-b" width="111.7%" height="111.7%" x="-5.8%" y="-4.2%" filterUnits="objectBoundingBox"><feOffset dy=".5" in="SourceAlpha" result="shadowOffsetOuter1"/><feGaussianBlur in="shadowOffsetOuter1" result="shadowBlurOuter1" stdDeviation=".5"/><feComposite in="shadowBlurOuter1" in2="SourceAlpha" operator="out" result="shadowBlurOuter1"/><feColorMatrix in="shadowBlurOuter1" values="0 0 0 0 0 0 0 0 0 0 0 0 0 0 0 0 0 0 0.199473505 0"/></filter><filter id="music_svg-e" width="112.3%" height="111.7%" x="-6.1%" y="-4.2%" filterUnits="objectBoundingBox"><feOffset dy=".5" in="SourceAlpha" result="shadowOffsetOuter1"/><feGaussianBlur in="shadowOffsetOuter1" result="shadowBlurOuter1" stdDeviation=".5"/><feColorMatrix in="shadowBlurOuter1" values="0 0 0 0 0 0 0 0 0 0 0 0 0 0 0 0 0 0 0.204257246 0"/></filter><linearGradient id="music_svg-c" x1="50%" x2="50%" y1="0%" y2="100%"><stop offset="0%" stop-color="#FFF" stop-opacity=".5"/><stop offset="100%" stop-opacity=".5"/></linearGradient><circle id="music_svg-a" cx="16" cy="15" r="15"/><path id="music_svg-d" d="M3.613 23.462c-1.56-2.279-1.523-2.21.069.099C4.712 22.045 7.09 21 9.848 21c1.894 0 3.607.5 4.834 1.303L18.485.213A15 15 0 0 0 16.008 0c8.064.004 14.64 6.371 14.978 14.353a14.94 14.94 0 0 0-4.531-10.095c2.59 5.727.318 8.787.318 8.787-1.758-5.287-6.849-6.06-6.849-6.06s-3.348 18.045-3.348 18.273c0 1.954-2.076 3.606-4.894 4.106 1.3.39 2.683.614 4.109.635a14.99 14.99 0 0 1-12.178-6.537"/></defs><g fill="none"><use xlink:href="#music_svg-a" fill="#000" filter="url(#music_svg-b)"/><use xlink:href="#music_svg-a" fill="#FBBF02" fill-rule="evenodd"/><use xlink:href="#music_svg-a" fill="url(#music_svg-c)" fill-rule="evenodd" style="mix-blend-mode:soft-light"/><circle cx="16" cy="15" r="14.5" stroke="#000" stroke-opacity=".097"/><use xlink:href="#music_svg-d" fill="#000" filter="url(#music_svg-e)"/><use xlink:href="#music_svg-d" fill="#FFF" fill-rule="evenodd"/></g></svg>