<svg xmlns="http://www.w3.org/2000/svg" xmlns:xlink="http://www.w3.org/1999/xlink" width="32" height="32" viewBox="0 0 32 32"><defs><filter id="mzc_svg-b" width="111.7%" height="111.7%" x="-5.8%" y="-4.2%" filterUnits="objectBoundingBox"><feOffset dy=".5" in="SourceAlpha" result="shadowOffsetOuter1"/><feGaussianBlur in="shadowOffsetOuter1" result="shadowBlurOuter1" stdDeviation=".5"/><feComposite in="shadowBlurOuter1" in2="SourceAlpha" operator="out" result="shadowBlurOuter1"/><feColorMatrix in="shadowBlurOuter1" values="0 0 0 0 0 0 0 0 0 0 0 0 0 0 0 0 0 0 0.199473505 0"/></filter><filter id="mzc_svg-e" width="117.5%" height="126.9%" x="-8.8%" y="-9.6%" filterUnits="objectBoundingBox"><feOffset dy=".5" in="SourceAlpha" result="shadowOffsetOuter1"/><feGaussianBlur in="shadowOffsetOuter1" result="shadowBlurOuter1" stdDeviation=".5"/><feColorMatrix in="shadowBlurOuter1" values="0 0 0 0 0 0 0 0 0 0 0 0 0 0 0 0 0 0 0.204257246 0"/></filter><linearGradient id="mzc_svg-c" x1="50%" x2="50%" y1="0%" y2="100%"><stop offset="0%" stop-color="#FFF" stop-opacity=".5"/><stop offset="100%" stop-opacity=".5"/></linearGradient><circle id="mzc_svg-a" cx="16" cy="15" r="15"/><path id="mzc_svg-d" d="M16.811 10.567v1.863h2.214l-1 1.148h-1.487v1.443h1.547l-.758 1.148h-.789v2.944l-1.273 1.736v-4.68h-1.76l.971-1.148h.789v-1.443h-2.487l1-1.148h1.487V10.5q-1.1-1.19-3.033-1.19c-2.472 0-4.428 2.635-4.428 5.255q0 2.62 1.198 4.445l-1.38 1.604Q6 18.211 6 15.124C6 10.605 9.89 8 12.641 8q2.526 0 3.87 2.117 2.571-1.764 5.259-1.764c2.744 0 4.23 3.35 4.23 6.55 0 4.258-2.866 5.902-3.912 6.094a.21.21 0 0 1-.205-.082.194.194 0 0 1 .051-.276q2.428-1.632 2.428-5c0-4.901-2.517-6.035-4.367-6.035a5.7 5.7 0 0 0-3.184.963"/></defs><g fill="none" fill-rule="evenodd"><use xlink:href="#mzc_svg-a" fill="#000" filter="url(#mzc_svg-b)"/><use xlink:href="#mzc_svg-a" fill="#FFAA05"/><use xlink:href="#mzc_svg-a" fill="url(#mzc_svg-c)" style="mix-blend-mode:soft-light"/><circle cx="16" cy="15" r="14.5" stroke="#000" stroke-opacity=".097"/><use xlink:href="#mzc_svg-d" fill="#000" filter="url(#mzc_svg-e)"/><use xlink:href="#mzc_svg-d" fill="#FFF"/></g></svg>