<svg xmlns="http://www.w3.org/2000/svg" xmlns:xlink="http://www.w3.org/1999/xlink" width="32" height="32" viewBox="0 0 32 32"><defs><filter id="ndz_svg-b" width="111.7%" height="111.7%" x="-5.8%" y="-4.2%" filterUnits="objectBoundingBox"><feOffset dy=".5" in="SourceAlpha" result="shadowOffsetOuter1"/><feGaussianBlur in="shadowOffsetOuter1" result="shadowBlurOuter1" stdDeviation=".5"/><feComposite in="shadowBlurOuter1" in2="SourceAlpha" operator="out" result="shadowBlurOuter1"/><feColorMatrix in="shadowBlurOuter1" values="0 0 0 0 0 0 0 0 0 0 0 0 0 0 0 0 0 0 0.199473505 0"/></filter><filter id="ndz_svg-e" width="119.4%" height="117.5%" x="-9.7%" y="-6.2%" filterUnits="objectBoundingBox"><feOffset dy=".5" in="SourceAlpha" result="shadowOffsetOuter1"/><feGaussianBlur in="shadowOffsetOuter1" result="shadowBlurOuter1" stdDeviation=".5"/><feColorMatrix in="shadowBlurOuter1" values="0 0 0 0 0 0 0 0 0 0 0 0 0 0 0 0 0 0 0.204257246 0"/></filter><linearGradient id="ndz_svg-c" x1="50%" x2="50%" y1="0%" y2="100%"><stop offset="0%" stop-color="#FFF" stop-opacity=".5"/><stop offset="100%" stop-opacity=".5"/></linearGradient><circle id="ndz_svg-a" cx="16" cy="15" r="15"/><path id="ndz_svg-d" d="M18.586 16.376q-.13.04-.253.098l-3.676-3.821a1.91 1.91 0 0 0-1.14-2.794V7.186l-.984-.55 2.273-1.315a2.38 2.38 0 0 1 2.388 0l4.519 2.616-1.786 1.033a1.91 1.91 0 0 0-2.686 1.747 1.91 1.91 0 0 0 1.345 1.824zm1.138 0V12.54a1.91 1.91 0 0 0 1.092-2.773l2.03-1.174.97.56A2.37 2.37 0 0 1 25 11.207v7.586c0 .846-.451 1.628-1.185 2.053l-4.09 2.368v-3.192a1.91 1.91 0 0 0 1.344-1.823 1.91 1.91 0 0 0-1.345-1.823m-2.227.869a1.91 1.91 0 0 0 1.089 2.777v3.851l-1.392.806a2.38 2.38 0 0 1-2.388 0L9.94 21.863l1.828-1.428a1.9 1.9 0 0 0 1.231.447 1.91 1.91 0 0 0 1.914-1.91 1.91 1.91 0 0 0-1.397-1.838v-3.598q.158-.044.304-.113l3.676 3.822zm-5.118-.079a1.91 1.91 0 0 0-1.226 2.308L8.882 21.25l-.697-.403A2.37 2.37 0 0 1 7 18.793v-7.586c0-.846.451-1.628 1.185-2.053l3.205-1.856.99.553v2.04a1.91 1.91 0 0 0-1.294 1.807c0 .837.541 1.55 1.293 1.806zM13 12.523a.827.827 0 1 1-.002-1.653.827.827 0 0 1 .002 1.653m0 7.275a.827.827 0 1 1-.002-1.653.827.827 0 0 1 .002 1.653m6.155-8.255a.827.827 0 1 1-.002-1.653.827.827 0 0 1 .002 1.653m0 7.482a.827.827 0 1 1-.002-1.654.827.827 0 0 1 .002 1.654"/></defs><g fill="none" fill-rule="evenodd"><g fill-rule="nonzero"><use xlink:href="#ndz_svg-a" fill="#000" filter="url(#ndz_svg-b)"/><use xlink:href="#ndz_svg-a" fill="#622FBA" fill-rule="evenodd"/><use xlink:href="#ndz_svg-a" fill="url(#ndz_svg-c)" fill-rule="evenodd" style="mix-blend-mode:soft-light"/><circle cx="16" cy="15" r="14.5" stroke="#000" stroke-opacity=".097"/></g><use xlink:href="#ndz_svg-d" fill="#000" filter="url(#ndz_svg-e)"/><use xlink:href="#ndz_svg-d" fill="#FFF"/></g></svg>