<svg xmlns="http://www.w3.org/2000/svg" xmlns:xlink="http://www.w3.org/1999/xlink" width="32" height="32" viewBox="0 0 32 32"><defs><linearGradient id="neu_svg-c" x1="50%" x2="50%" y1="0%" y2="100%"><stop offset="0%" stop-color="#FFF" stop-opacity=".5"/><stop offset="100%" stop-opacity=".5"/></linearGradient><filter id="neu_svg-b" width="111.7%" height="111.7%" x="-5.8%" y="-4.2%" filterUnits="objectBoundingBox"><feOffset dy=".5" in="SourceAlpha" result="shadowOffsetOuter1"/><feGaussianBlur in="shadowOffsetOuter1" result="shadowBlurOuter1" stdDeviation=".5"/><feComposite in="shadowBlurOuter1" in2="SourceAlpha" operator="out" result="shadowBlurOuter1"/><feColorMatrix in="shadowBlurOuter1" values="0 0 0 0 0 0 0 0 0 0 0 0 0 0 0 0 0 0 0.199473505 0"/></filter><circle id="neu_svg-a" cx="15" cy="15" r="15"/></defs><g fill="none"><g transform="translate(1)"><use xlink:href="#neu_svg-a" fill="#000" filter="url(#neu_svg-b)"/><use xlink:href="#neu_svg-a" fill="#B3BA00" fill-rule="evenodd"/><use xlink:href="#neu_svg-a" fill="url(#neu_svg-c)" fill-rule="evenodd" style="mix-blend-mode:soft-light"/><circle cx="15" cy="15" r="14.5" stroke="#000" stroke-linejoin="square" stroke-opacity=".097"/></g><g fill="#FFF"><path d="m13.273 10.186-.12.075 5.597 8.845v-8.853l-2.795-1.657zm-.181 9.425 2.863 1.703 2.614-1.552-5.477-8.657zm-2.502-7.836v6.36l1.997 1.182v-8.725zm8.665 7.58 2.064-1.22v-6.36l-2.064-1.22z"/><path d="M16 4C9.927 4 5 8.927 5 15s4.927 11 11 11 11-4.927 11-11S22.073 4 16 4m-.045 17.984-5.937-3.518v-7.03l5.937-3.51 5.937 3.51v7.03z"/></g></g></svg>