<svg xmlns="http://www.w3.org/2000/svg" xmlns:xlink="http://www.w3.org/1999/xlink" width="32" height="32" viewBox="0 0 32 32"><defs><linearGradient id="nexo_svg-c" x1="50%" x2="50%" y1="0%" y2="100%"><stop offset="0%" stop-color="#FFF"/><stop offset="100%"/></linearGradient><filter id="nexo_svg-b" width="111.7%" height="111.7%" x="-5.8%" y="-4.2%" filterUnits="objectBoundingBox"><feOffset dy=".5" in="SourceAlpha" result="shadowOffsetOuter1"/><feGaussianBlur in="shadowOffsetOuter1" result="shadowBlurOuter1" stdDeviation=".5"/><feComposite in="shadowBlurOuter1" in2="SourceAlpha" operator="out" result="shadowBlurOuter1"/><feColorMatrix in="shadowBlurOuter1" values="0 0 0 0 0 0 0 0 0 0 0 0 0 0 0 0 0 0 0.199473505 0"/></filter><circle id="nexo_svg-a" cx="15" cy="15" r="15"/></defs><g fill="none"><g transform="translate(1)"><use xlink:href="#nexo_svg-a" fill="#000" filter="url(#nexo_svg-b)"/><use xlink:href="#nexo_svg-a" fill="#1A4199"/><use xlink:href="#nexo_svg-a" fill="url(#nexo_svg-c)" style="mix-blend-mode:soft-light"/><circle cx="15" cy="15" r="14.5" stroke="#000" stroke-linejoin="square" stroke-opacity=".097"/></g><g fill="#FFF"><path d="m11.16 7.114 9.756 5.628v5.744L6 9.872l4.786-2.758a.38.38 0 0 1 .382 0" opacity=".7"/><path d="m20.916 7-4.97 2.872 4.97 2.87z" opacity=".9"/><path d="m20.916 7 4.786 2.76c.123.066.2.194.2.334v11.262l-4.986-2.87z"/><path d="m25.892 21.356-4.786 2.758a.4.4 0 0 1-.382 0l-9.756-5.628v-5.752z" opacity=".9"/><path d="M6 9.872v11.262c0 .14.077.268.2.334l4.786 2.76V12.734z" opacity=".6"/><path d="m10.978 24.228 4.968-2.872-4.968-2.87z" opacity=".7"/></g></g></svg>