<svg xmlns="http://www.w3.org/2000/svg" xmlns:xlink="http://www.w3.org/1999/xlink" width="32" height="32" viewBox="0 0 32 32"><defs><filter id="nlc2_svg-b" width="111.7%" height="111.7%" x="-5.8%" y="-4.2%" filterUnits="objectBoundingBox"><feOffset dy=".5" in="SourceAlpha" result="shadowOffsetOuter1"/><feGaussianBlur in="shadowOffsetOuter1" result="shadowBlurOuter1" stdDeviation=".5"/><feComposite in="shadowBlurOuter1" in2="SourceAlpha" operator="out" result="shadowBlurOuter1"/><feColorMatrix in="shadowBlurOuter1" values="0 0 0 0 0 0 0 0 0 0 0 0 0 0 0 0 0 0 0.199473505 0"/></filter><filter id="nlc2_svg-e" width="115.9%" height="120.6%" x="-8%" y="-7.4%" filterUnits="objectBoundingBox"><feOffset dy=".5" in="SourceAlpha" result="shadowOffsetOuter1"/><feGaussianBlur in="shadowOffsetOuter1" result="shadowBlurOuter1" stdDeviation=".5"/><feColorMatrix in="shadowBlurOuter1" values="0 0 0 0 0 0 0 0 0 0 0 0 0 0 0 0 0 0 0.204257246 0"/></filter><linearGradient id="nlc2_svg-c" x1="50%" x2="50%" y1="0%" y2="100%"><stop offset="0%" stop-color="#FFF" stop-opacity=".5"/><stop offset="100%" stop-opacity=".5"/></linearGradient><circle id="nlc2_svg-a" cx="16" cy="15" r="15"/><path id="nlc2_svg-d" d="M18.151 12.719 16.21 8.903q.606-1.321.606-1.495 0-.619-.815-.908h5.948q-1.1.495-1.955 2.476l-1.842 3.743zm-2.916 5.928-.905 1.84h5.337q3.626 0 4.848-1.36L21.663 23.5H7.078q2.363-.454 4.766-5.694.81-1.611 1.487-2.974zM5 19.25c1.181-.701 5.5-8.172 5.5-10.274q0-.743-.896-1.403h4.644l4.033 7.922 3.912-7.922H27c-2.037.536-6.07 10.146-6.07 11.264q0 .33.122.413h-4.237l-3.626-7.262-3.585 7.262z"/></defs><g fill="none" fill-rule="evenodd"><use xlink:href="#nlc2_svg-a" fill="#000" filter="url(#nlc2_svg-b)"/><use xlink:href="#nlc2_svg-a" fill="#F28F01"/><use xlink:href="#nlc2_svg-a" fill="url(#nlc2_svg-c)" style="mix-blend-mode:soft-light"/><circle cx="16" cy="15" r="14.5" stroke="#000" stroke-opacity=".097"/><use xlink:href="#nlc2_svg-d" fill="#000" filter="url(#nlc2_svg-e)"/><use xlink:href="#nlc2_svg-d" fill="#FFF"/></g></svg>