<svg xmlns="http://www.w3.org/2000/svg" xmlns:xlink="http://www.w3.org/1999/xlink" width="32" height="32" viewBox="0 0 32 32"><defs><filter id="nmc_svg-b" width="111.7%" height="111.7%" x="-5.8%" y="-4.2%" filterUnits="objectBoundingBox"><feOffset dy=".5" in="SourceAlpha" result="shadowOffsetOuter1"/><feGaussianBlur in="shadowOffsetOuter1" result="shadowBlurOuter1" stdDeviation=".5"/><feComposite in="shadowBlurOuter1" in2="SourceAlpha" operator="out" result="shadowBlurOuter1"/><feColorMatrix in="shadowBlurOuter1" values="0 0 0 0 0 0 0 0 0 0 0 0 0 0 0 0 0 0 0.199473505 0"/></filter><filter id="nmc_svg-e" width="119.4%" height="123.3%" x="-9.7%" y="-8.3%" filterUnits="objectBoundingBox"><feOffset dy=".5" in="SourceAlpha" result="shadowOffsetOuter1"/><feGaussianBlur in="shadowOffsetOuter1" result="shadowBlurOuter1" stdDeviation=".5"/><feColorMatrix in="shadowBlurOuter1" values="0 0 0 0 0 0 0 0 0 0 0 0 0 0 0 0 0 0 0.204257246 0"/></filter><linearGradient id="nmc_svg-c" x1="50%" x2="50%" y1="0%" y2="100%"><stop offset="0%" stop-color="#FFF" stop-opacity=".5"/><stop offset="100%" stop-opacity=".5"/></linearGradient><circle id="nmc_svg-a" cx="16" cy="15" r="15"/><path id="nmc_svg-d" d="m19.261 22.5.001-.002a1.8 1.8 0 0 0 .458-.05c.876-.205 1.617-.97 1.793-1.796L25 7.556l-2.772-.014-2.286 8.568-6.18-8.597-.004.004.003-.01L12.74 7.5v.001a2 2 0 0 0-.459.049c-.875.206-1.616.971-1.793 1.796L7 22.445l2.773.012 2.285-8.568 6.18 8.598h.003zm-6.593-10.894.483-1.81 6.181 8.599-.483 1.81-6.18-8.6z"/></defs><g fill="none" fill-rule="evenodd"><use xlink:href="#nmc_svg-a" fill="#000" filter="url(#nmc_svg-b)"/><use xlink:href="#nmc_svg-a" fill="#186C9D"/><use xlink:href="#nmc_svg-a" fill="url(#nmc_svg-c)" style="mix-blend-mode:soft-light"/><circle cx="16" cy="15" r="14.5" stroke="#000" stroke-opacity=".097"/><g fill-rule="nonzero"><use xlink:href="#nmc_svg-d" fill="#000" filter="url(#nmc_svg-e)"/><use xlink:href="#nmc_svg-d" fill="#FFF" fill-rule="evenodd"/></g></g></svg>