<svg xmlns="http://www.w3.org/2000/svg" xmlns:xlink="http://www.w3.org/1999/xlink" width="32" height="32" viewBox="0 0 32 32"><defs><filter id="nuls_svg-b" width="111.7%" height="111.7%" x="-5.8%" y="-4.2%" filterUnits="objectBoundingBox"><feOffset dy=".5" in="SourceAlpha" result="shadowOffsetOuter1"/><feGaussianBlur in="shadowOffsetOuter1" result="shadowBlurOuter1" stdDeviation=".5"/><feComposite in="shadowBlurOuter1" in2="SourceAlpha" operator="out" result="shadowBlurOuter1"/><feColorMatrix in="shadowBlurOuter1" values="0 0 0 0 0 0 0 0 0 0 0 0 0 0 0 0 0 0 0.199473505 0"/></filter><filter id="nuls_svg-e" width="129.2%" height="117.5%" x="-14.6%" y="-6.2%" filterUnits="objectBoundingBox"><feOffset dy=".5" in="SourceAlpha" result="shadowOffsetOuter1"/><feGaussianBlur in="shadowOffsetOuter1" result="shadowBlurOuter1" stdDeviation=".5"/><feColorMatrix in="shadowBlurOuter1" values="0 0 0 0 0 0 0 0 0 0 0 0 0 0 0 0 0 0 0.204257246 0"/></filter><linearGradient id="nuls_svg-c" x1="50%" x2="50%" y1="0%" y2="100%"><stop offset="0%" stop-color="#FFF" stop-opacity=".5"/><stop offset="100%" stop-opacity=".5"/></linearGradient><circle id="nuls_svg-a" cx="16" cy="15" r="15"/><path id="nuls_svg-d" d="M14.403 18.36 16 20.464V25l-6-2.663V10.619c0-.173.077-.338.212-.453l.683-.585a.636.636 0 0 1 .923.097l5.465 7.164 3.019 1.846v-9.88l-2.668-1.331-.13 6.196-1.412-1.873-.064-6.8L22 7.779v11.664l-1.357 1.118-4.274-2.387-4.744-6.223-.065 9.454 2.825 1.447z"/></defs><g fill="none" fill-rule="evenodd"><use xlink:href="#nuls_svg-a" fill="#000" filter="url(#nuls_svg-b)"/><use xlink:href="#nuls_svg-a" fill="#82BD39"/><use xlink:href="#nuls_svg-a" fill="url(#nuls_svg-c)" style="mix-blend-mode:soft-light"/><circle cx="16" cy="15" r="14.5" stroke="#000" stroke-opacity=".097"/><g fill-rule="nonzero"><use xlink:href="#nuls_svg-d" fill="#000" filter="url(#nuls_svg-e)"/><use xlink:href="#nuls_svg-d" fill="#FFF" fill-rule="evenodd"/></g></g></svg>