<svg xmlns="http://www.w3.org/2000/svg" xmlns:xlink="http://www.w3.org/1999/xlink" width="32" height="32" viewBox="0 0 32 32"><defs><filter id="nxs_svg-b" width="111.7%" height="111.7%" x="-5.8%" y="-4.2%" filterUnits="objectBoundingBox"><feOffset dy=".5" in="SourceAlpha" result="shadowOffsetOuter1"/><feGaussianBlur in="shadowOffsetOuter1" result="shadowBlurOuter1" stdDeviation=".5"/><feComposite in="shadowBlurOuter1" in2="SourceAlpha" operator="out" result="shadowBlurOuter1"/><feColorMatrix in="shadowBlurOuter1" values="0 0 0 0 0 0 0 0 0 0 0 0 0 0 0 0 0 0 0.199473505 0"/></filter><filter id="nxs_svg-e" width="112.5%" height="115.8%" x="-6.2%" y="-5.7%" filterUnits="objectBoundingBox"><feOffset dy=".5" in="SourceAlpha" result="shadowOffsetOuter1"/><feGaussianBlur in="shadowOffsetOuter1" result="shadowBlurOuter1" stdDeviation=".5"/><feColorMatrix in="shadowBlurOuter1" values="0 0 0 0 0 0 0 0 0 0 0 0 0 0 0 0 0 0 0.204257246 0"/></filter><linearGradient id="nxs_svg-c" x1="50%" x2="50%" y1="0%" y2="100%"><stop offset="0%" stop-color="#FFF" stop-opacity=".5"/><stop offset="100%" stop-opacity=".5"/></linearGradient><circle id="nxs_svg-a" cx="15" cy="15" r="15"/><path id="nxs_svg-d" d="M1.88 22.275c.567-1.654 1.66-3.444 3.182-5.213a1.875 1.875 0 0 1 2.613-2.634 33 33 0 0 1 3.849-2.914c6.5-4.222 13.37-5.57 16.72-3.561a14.9 14.9 0 0 1 1.709 5.846c-1.082 3.542-4.656 7.774-9.749 11.08-3.513 2.282-7.134 3.725-10.25 4.251a15.05 15.05 0 0 1-8.075-6.855zm3.515-4.87c-2.197 2.539-3.078 5.15-2.013 6.79 1.61 2.479 7.05 1.802 12.152-1.511 5.101-3.314 7.933-8.008 6.323-10.486s-7.05-1.801-12.15 1.512q-.85.552-1.611 1.148a1.875 1.875 0 0 1-2.701 2.546z"/></defs><g fill="none" fill-rule="evenodd" transform="translate(1)"><use xlink:href="#nxs_svg-a" fill="#000" filter="url(#nxs_svg-b)"/><use xlink:href="#nxs_svg-a" fill="#4099CD"/><use xlink:href="#nxs_svg-a" fill="url(#nxs_svg-c)" style="mix-blend-mode:soft-light"/><circle cx="15" cy="15" r="14.5" stroke="#000" stroke-opacity=".097"/><use xlink:href="#nxs_svg-d" fill="#000" filter="url(#nxs_svg-e)"/><use xlink:href="#nxs_svg-d" fill="#FFF"/></g></svg>