<svg xmlns="http://www.w3.org/2000/svg" xmlns:xlink="http://www.w3.org/1999/xlink" width="32" height="32" viewBox="0 0 32 32"><defs><filter id="nxt_svg-b" width="111.7%" height="111.7%" x="-5.8%" y="-4.2%" filterUnits="objectBoundingBox"><feOffset dy=".5" in="SourceAlpha" result="shadowOffsetOuter1"/><feGaussianBlur in="shadowOffsetOuter1" result="shadowBlurOuter1" stdDeviation=".5"/><feComposite in="shadowBlurOuter1" in2="SourceAlpha" operator="out" result="shadowBlurOuter1"/><feColorMatrix in="shadowBlurOuter1" values="0 0 0 0 0 0 0 0 0 0 0 0 0 0 0 0 0 0 0.199473505 0"/></filter><filter id="nxt_svg-e" width="115.9%" height="170%" x="-8%" y="-25%" filterUnits="objectBoundingBox"><feOffset dy=".5" in="SourceAlpha" result="shadowOffsetOuter1"/><feGaussianBlur in="shadowOffsetOuter1" result="shadowBlurOuter1" stdDeviation=".5"/><feColorMatrix in="shadowBlurOuter1" values="0 0 0 0 0 0 0 0 0 0 0 0 0 0 0 0 0 0 0.204257246 0"/></filter><linearGradient id="nxt_svg-c" x1="50%" x2="50%" y1="0%" y2="100%"><stop offset="0%" stop-color="#FFF" stop-opacity=".5"/><stop offset="100%" stop-opacity=".5"/></linearGradient><circle id="nxt_svg-a" cx="16" cy="15" r="15"/><path id="nxt_svg-d" d="M26.082 15.833c-.507 0-.918-.373-.918-.833v-.834h-4.612c-.507 0-.918-.373-.918-.833s.411-.833.918-.833h5.53c.507 0 .918.373.918.833V15c0 .46-.41.833-.918.833m-4.549 0h1.835c.507 0 .918.373.918.833s-.41.834-.918.834h-2.816a1 1 0 0 1-.423-.094l-5.352-3.24h-1.542c-.507 0-.918-.373-.918-.833s.41-.833.918-.833h1.835c.198 0 .381.057.531.154l5.232 3.18zm-6.463 0c.507 0 .918.373.918.833s-.411.834-.918.834h-1.835a1 1 0 0 1-.423-.094l-5.352-3.24H5.918c-.507 0-.918-.373-.918-.833s.41-.833.918-.833h1.835a1 1 0 0 1 .531.154l5.232 3.18zm-9.152 0h1.835c.507 0 .918.373.918.834s-.411.833-.918.833H5.918c-.507 0-.918-.373-.918-.833s.41-.834.918-.834"/></defs><g fill="none" fill-rule="evenodd"><use xlink:href="#nxt_svg-a" fill="#000" filter="url(#nxt_svg-b)"/><use xlink:href="#nxt_svg-a" fill="#008FBB"/><use xlink:href="#nxt_svg-a" fill="url(#nxt_svg-c)" style="mix-blend-mode:soft-light"/><circle cx="16" cy="15" r="14.5" stroke="#000" stroke-opacity=".097"/><use xlink:href="#nxt_svg-d" fill="#000" filter="url(#nxt_svg-e)"/><use xlink:href="#nxt_svg-d" fill="#FFF"/></g></svg>