<svg xmlns="http://www.w3.org/2000/svg" xmlns:xlink="http://www.w3.org/1999/xlink" width="32" height="32" viewBox="0 0 32 32"><defs><filter id="omni_svg-b" width="111.7%" height="111.7%" x="-5.8%" y="-4.2%" filterUnits="objectBoundingBox"><feOffset dy=".5" in="SourceAlpha" result="shadowOffsetOuter1"/><feGaussianBlur in="shadowOffsetOuter1" result="shadowBlurOuter1" stdDeviation=".5"/><feComposite in="shadowBlurOuter1" in2="SourceAlpha" operator="out" result="shadowBlurOuter1"/><feColorMatrix in="shadowBlurOuter1" values="0 0 0 0 0 0 0 0 0 0 0 0 0 0 0 0 0 0 0.199473505 0"/></filter><filter id="omni_svg-e" width="117.5%" height="117.5%" x="-8.8%" y="-6.2%" filterUnits="objectBoundingBox"><feOffset dy=".5" in="SourceAlpha" result="shadowOffsetOuter1"/><feGaussianBlur in="shadowOffsetOuter1" result="shadowBlurOuter1" stdDeviation=".5"/><feColorMatrix in="shadowBlurOuter1" values="0 0 0 0 0 0 0 0 0 0 0 0 0 0 0 0 0 0 0.204257246 0"/></filter><linearGradient id="omni_svg-c" x1="50%" x2="50%" y1="0%" y2="100%"><stop offset="0%" stop-color="#FFF" stop-opacity=".5"/><stop offset="100%" stop-opacity=".5"/></linearGradient><circle id="omni_svg-a" cx="16" cy="15" r="15"/><path id="omni_svg-d" d="M10.065 5.888a10.9 10.9 0 0 0-3.19 3.196V5.888zm15.004 3.11a10.9 10.9 0 0 0-3.134-3.11h3.134zm-3.088 15.084a10.9 10.9 0 0 0 3.088-3.08v3.08zM6.875 20.916a10.9 10.9 0 0 0 3.144 3.166H6.875zM26 15c0 5.514-4.486 10-10 10S6 20.514 6 15 10.486 5 16 5s10 4.486 10 10m-10 7.292c4.02 0 7.292-3.271 7.292-7.292 0-4.02-3.271-7.292-7.292-7.292-4.02 0-7.292 3.271-7.292 7.292 0 4.02 3.271 7.292 7.292 7.292"/></defs><g fill="none" fill-rule="evenodd"><use xlink:href="#omni_svg-a" fill="#000" filter="url(#omni_svg-b)"/><use xlink:href="#omni_svg-a" fill="#1C347A"/><use xlink:href="#omni_svg-a" fill="url(#omni_svg-c)" style="mix-blend-mode:soft-light"/><circle cx="16" cy="15" r="14.5" stroke="#000" stroke-opacity=".097"/><g fill-rule="nonzero"><use xlink:href="#omni_svg-d" fill="#000" filter="url(#omni_svg-e)"/><use xlink:href="#omni_svg-d" fill="#FFF" fill-rule="evenodd"/></g></g></svg>