<svg xmlns="http://www.w3.org/2000/svg" xmlns:xlink="http://www.w3.org/1999/xlink" width="32" height="32" viewBox="0 0 32 32"><defs><clipPath id="osmo_svg-b"><path d="M0 0h32v32H0z"/></clipPath><clipPath id="osmo_svg-c"><path d="M0 0h32v32H0z"/></clipPath><clipPath id="osmo_svg-e"><path d="M0 0h32v32H0z"/></clipPath><clipPath id="osmo_svg-f"><path d="M0 0h32v32H0z"/></clipPath><clipPath id="osmo_svg-h"><path d="M0 0h32v32H0z"/></clipPath><clipPath id="osmo_svg-j"><path d="M0 0h32v32H0z"/></clipPath><clipPath id="osmo_svg-m"><path d="M0 0h32v32H0z"/></clipPath><clipPath id="osmo_svg-o"><path d="M0 0h32v32H0z"/></clipPath><clipPath id="osmo_svg-r"><path d="M0 0h32v32H0z"/></clipPath><clipPath id="osmo_svg-t"><path d="M0 0h32v32H0z"/></clipPath><clipPath id="osmo_svg-w"><path d="M0 0h32v32H0z"/></clipPath><clipPath id="osmo_svg-x"><path d="M0 0h32v32H0z"/></clipPath><clipPath id="osmo_svg-z"><path d="M0 0h32v32H0z"/></clipPath><clipPath id="osmo_svg-C"><path d="M0 0h32v32H0z"/></clipPath><clipPath id="osmo_svg-D"><path d="M0 0h32v32H0z"/></clipPath><clipPath id="osmo_svg-E"><path d="M0 0h32v32H0z"/></clipPath><clipPath id="osmo_svg-G"><path d="M0 0h32v32H0z"/></clipPath><clipPath id="osmo_svg-J"><path d="M0 0h32v32H0z"/></clipPath><clipPath id="osmo_svg-K"><path d="M0 0h32v32H0z"/></clipPath><clipPath id="osmo_svg-L"><path d="M0 0h32v32H0z"/></clipPath><clipPath id="osmo_svg-N"><path d="M0 0h32v32H0z"/></clipPath><clipPath id="osmo_svg-Q"><path d="M0 0h32v32H0z"/></clipPath><clipPath id="osmo_svg-R"><path d="M0 0h32v32H0z"/></clipPath><clipPath id="osmo_svg-S"><path d="M0 0h32v32H0z"/></clipPath><clipPath id="osmo_svg-U"><path d="M0 0h32v32H0z"/></clipPath><clipPath id="osmo_svg-X"><path d="M0 0h32v32H0z"/></clipPath><clipPath id="osmo_svg-Y"><path d="M0 0h32v32H0z"/></clipPath><clipPath id="osmo_svg-Z"><path d="M0 0h32v32H0z"/></clipPath><clipPath id="osmo_svg-ab"><path d="M0 0h32v32H0z"/></clipPath><clipPath id="osmo_svg-ae"><path d="M0 0h32v32H0z"/></clipPath><clipPath id="osmo_svg-af"><path d="M0 0h32v32H0z"/></clipPath><clipPath id="osmo_svg-ag"><path d="M0 0h32v32H0z"/></clipPath><clipPath id="osmo_svg-ai"><path d="M0 0h32v32H0z"/></clipPath><clipPath id="osmo_svg-al"><path d="M0 0h32v32H0z"/></clipPath><mask id="osmo_svg-ap"><g filter="url(#osmo_svg-a)"><path d="M0 0h32v32H0z" style="fill:#000;fill-opacity:.6;stroke:none"/></g></mask><mask id="osmo_svg-ar"><g filter="url(#osmo_svg-a)"><path d="M0 0h32v32H0z" style="fill:#000;fill-opacity:.6;stroke:none"/></g></mask><mask id="osmo_svg-at"><g filter="url(#osmo_svg-a)"><path d="M0 0h32v32H0z" style="fill:#000;fill-opacity:.6;stroke:none"/></g></mask><mask id="osmo_svg-av"><g filter="url(#osmo_svg-a)"><path d="M0 0h32v32H0z" style="fill:#000;fill-opacity:.6;stroke:none"/></g></mask><mask id="osmo_svg-ay"><g filter="url(#osmo_svg-a)"><path d="M0 0h32v32H0z" style="fill:#000;fill-opacity:.6;stroke:none"/></g></mask><mask id="osmo_svg-l"><g filter="url(#osmo_svg-a)"><path d="M0 0h32v32H0z" style="fill:#000;fill-opacity:.6;stroke:none"/></g></mask><mask id="osmo_svg-aA"><g filter="url(#osmo_svg-a)"><path d="M0 0h32v32H0z" style="fill:#000;fill-opacity:.701961;stroke:none"/></g></mask><mask id="osmo_svg-q"><g filter="url(#osmo_svg-a)"><path d="M0 0h32v32H0z" style="fill:#000;fill-opacity:.701961;stroke:none"/></g></mask><mask id="osmo_svg-aD"><g filter="url(#osmo_svg-a)"><path d="M0 0h32v32H0z" style="fill:#000;fill-opacity:.6;stroke:none"/></g></mask><mask id="osmo_svg-v"><g filter="url(#osmo_svg-a)"><path d="M0 0h32v32H0z" style="fill:#000;fill-opacity:.6;stroke:none"/></g></mask><mask id="osmo_svg-aF"><g filter="url(#osmo_svg-a)"><path d="M0 0h32v32H0z" style="fill:#000;fill-opacity:.2;stroke:none"/></g></mask><mask id="osmo_svg-aH"><g filter="url(#osmo_svg-a)"><path d="M0 0h32v32H0z" style="fill:#000;fill-opacity:.4;stroke:none"/></g></mask><mask id="osmo_svg-B"><g filter="url(#osmo_svg-a)"><path d="M0 0h32v32H0z" style="fill:#000;fill-opacity:.6;stroke:none"/></g></mask><mask id="osmo_svg-aJ"><g filter="url(#osmo_svg-a)"><path d="M0 0h32v32H0z" style="fill:#000;fill-opacity:.301961;stroke:none"/></g></mask><mask id="osmo_svg-aL"><g filter="url(#osmo_svg-a)"><path d="M0 0h32v32H0z" style="fill:#000;fill-opacity:.2;stroke:none"/></g></mask><mask id="osmo_svg-aN"><g filter="url(#osmo_svg-a)"><path d="M0 0h32v32H0z" style="fill:#000;fill-opacity:.4;stroke:none"/></g></mask><mask id="osmo_svg-I"><g filter="url(#osmo_svg-a)"><path d="M0 0h32v32H0z" style="fill:#000;fill-opacity:.6;stroke:none"/></g></mask><mask id="osmo_svg-aP"><g filter="url(#osmo_svg-a)"><path d="M0 0h32v32H0z" style="fill:#000;fill-opacity:.301961;stroke:none"/></g></mask><mask id="osmo_svg-aR"><g filter="url(#osmo_svg-a)"><path d="M0 0h32v32H0z" style="fill:#000;fill-opacity:.2;stroke:none"/></g></mask><mask id="osmo_svg-aT"><g filter="url(#osmo_svg-a)"><path d="M0 0h32v32H0z" style="fill:#000;fill-opacity:.4;stroke:none"/></g></mask><mask id="osmo_svg-P"><g filter="url(#osmo_svg-a)"><path d="M0 0h32v32H0z" style="fill:#000;fill-opacity:.6;stroke:none"/></g></mask><mask id="osmo_svg-aV"><g filter="url(#osmo_svg-a)"><path d="M0 0h32v32H0z" style="fill:#000;fill-opacity:.301961;stroke:none"/></g></mask><mask id="osmo_svg-aX"><g filter="url(#osmo_svg-a)"><path d="M0 0h32v32H0z" style="fill:#000;fill-opacity:.2;stroke:none"/></g></mask><mask id="osmo_svg-aZ"><g filter="url(#osmo_svg-a)"><path d="M0 0h32v32H0z" style="fill:#000;fill-opacity:.4;stroke:none"/></g></mask><mask id="osmo_svg-W"><g filter="url(#osmo_svg-a)"><path d="M0 0h32v32H0z" style="fill:#000;fill-opacity:.6;stroke:none"/></g></mask><mask id="osmo_svg-bb"><g filter="url(#osmo_svg-a)"><path d="M0 0h32v32H0z" style="fill:#000;fill-opacity:.301961;stroke:none"/></g></mask><mask id="osmo_svg-bd"><g filter="url(#osmo_svg-a)"><path d="M0 0h32v32H0z" style="fill:#000;fill-opacity:.2;stroke:none"/></g></mask><mask id="osmo_svg-bf"><g filter="url(#osmo_svg-a)"><path d="M0 0h32v32H0z" style="fill:#000;fill-opacity:.4;stroke:none"/></g></mask><mask id="osmo_svg-ad"><g filter="url(#osmo_svg-a)"><path d="M0 0h32v32H0z" style="fill:#000;fill-opacity:.6;stroke:none"/></g></mask><mask id="osmo_svg-bh"><g filter="url(#osmo_svg-a)"><path d="M0 0h32v32H0z" style="fill:#000;fill-opacity:.301961;stroke:none"/></g></mask><mask id="osmo_svg-bj"><g filter="url(#osmo_svg-a)"><path d="M0 0h32v32H0z" style="fill:#000;fill-opacity:.2;stroke:none"/></g></mask><mask id="osmo_svg-bl"><g filter="url(#osmo_svg-a)"><path d="M0 0h32v32H0z" style="fill:#000;fill-opacity:.4;stroke:none"/></g></mask><mask id="osmo_svg-ak"><g filter="url(#osmo_svg-a)"><path d="M0 0h32v32H0z" style="fill:#000;fill-opacity:.6;stroke:none"/></g></mask><mask id="osmo_svg-bn"><g filter="url(#osmo_svg-a)"><path d="M0 0h32v32H0z" style="fill:#000;fill-opacity:.301961;stroke:none"/></g></mask><g id="osmo_svg-ao" clip-path="url(#osmo_svg-b)"><path d="M28.848 4.758c-1.77-1.895-3.254-2.39-5.043-2.793-1.399-.332-1.024-1.137.672-.969-.813-.285-1.579-.355-2.137-.238-1.117.238-1.442 1.965-1.164 2.629.117.258.37.636.722 1.062-.628.426-1.164.735-1.605.973.207.094.465.21.766.379.789.426 1.652 1.136 1.652 1.136-1.305-1.136-1.023-1.656.766-2.937.558-.402 1.582-.352 2.53.145.954.496 2.071 1.75 2.071 1.75l-1.07 2.082.21.07c.673.191 1.208.144 1.626-.024.488-.308 1.77-1.347.004-3.265m0 0" style="stroke:none;fill-rule:nonzero;fill:#a98798;fill-opacity:1"/></g><g id="osmo_svg-aq" clip-path="url(#osmo_svg-c)"><path d="M15.11 31.219c7.175 0 12.992-5.922 12.992-13.23 0-7.31-5.817-13.231-12.993-13.231-7.175 0-12.992 5.922-12.992 13.23s5.817 13.23 12.992 13.23m0 0" style="stroke:none;fill-rule:nonzero;fill:url(#osmo_svg-d)"/></g><g id="osmo_svg-as" clip-path="url(#osmo_svg-e)"><path d="M15.016 29.61c-7.09-1.16-11.899-7.954-10.739-15.172a13.23 13.23 0 0 1 4.325-7.883 13.22 13.22 0 0 0-6.325 9.328C1.141 23.102 5.95 29.895 13.016 31.055c3.953.664 7.765-.594 10.574-3.055a12.82 12.82 0 0 1-8.574 1.61m0 0" style="stroke:none;fill-rule:nonzero;fill:#a98798;fill-opacity:1"/></g><g id="osmo_svg-au" clip-path="url(#osmo_svg-f)"><path d="M17.176 4.945c-3.274-.543-6.461.215-9.063 1.895l-.093.094c1-.614 2.464-1.16 2.464-1.16C6.72 8 5.554 10.53 5.554 10.53c1.466-2.885 5.766-4.92 9.135-5.06 3.37-.145 5.578.875 8.277 3.078 2.695 2.223 4.32 6.765 4.16 10.363-.14 3.602-2 6.512-2 6.512 1.277-1.684 2.043-2.91 2.531-4.168.094-.379.188-.758.235-1.156 1.164-7.2-3.625-13.993-10.715-15.153m0 0" style="stroke:none;fill-rule:nonzero;fill:url(#osmo_svg-g)"/></g><g id="osmo_svg-k" clip-path="url(#osmo_svg-h)"><path d="M26.473 17.871c0 6.77-5.25 12.305-11.852 12.567h.488c6.809 0 12.34-5.633 12.34-12.567Zm0 0" style="stroke:none;fill-rule:nonzero;fill:url(#osmo_svg-i)"/></g><g id="osmo_svg-ax" clip-path="url(#osmo_svg-j)"><use xlink:href="#osmo_svg-k" mask="url(#osmo_svg-l)"/></g><g id="osmo_svg-p" clip-path="url(#osmo_svg-m)"><path d="M4.488 17.871H2.746c0 6.934 5.531 12.567 12.34 12.567.3 0 .582 0 .86-.024-6.391-.473-11.458-5.918-11.458-12.543m0 0" style="stroke:none;fill-rule:nonzero;fill:url(#osmo_svg-n)"/></g><g id="osmo_svg-az" clip-path="url(#osmo_svg-o)"><use xlink:href="#osmo_svg-p" mask="url(#osmo_svg-q)"/></g><g id="osmo_svg-u" clip-path="url(#osmo_svg-r)"><path d="M25.73 8.188h-.046c-.137-.024-.23-.165-.207-.329.207-1.09 1.09-2.132 1.136-2.18a.263.263 0 0 1 .375-.023.27.27 0 0 1 .024.38c-.024.023-.84.995-1.024 1.94-.023.141-.14.212-.258.212m0 0" style="stroke:none;fill-rule:nonzero;fill:url(#osmo_svg-s)"/></g><g id="osmo_svg-aC" clip-path="url(#osmo_svg-t)"><use xlink:href="#osmo_svg-u" mask="url(#osmo_svg-v)"/></g><g id="osmo_svg-aE" clip-path="url(#osmo_svg-w)"><path d="M14.25 27.86c.36 0 .652-.297.652-.665a.66.66 0 0 0-.652-.664.655.655 0 0 0-.648.664c0 .367.289.664.648.664m0 0" style="stroke:none;fill-rule:nonzero;fill:#fff;fill-opacity:1"/></g><g id="osmo_svg-A" clip-path="url(#osmo_svg-x)"><path d="M13.879 27.621a.674.674 0 0 1 0-.945c.047-.047.094-.07.137-.117a.5.5 0 0 0-.23.14.68.68 0 0 0 0 .95c.206.21.534.257.788.117a.64.64 0 0 1-.695-.145m0 0" style="stroke:none;fill-rule:nonzero;fill:url(#osmo_svg-y)"/></g><g id="osmo_svg-aG" clip-path="url(#osmo_svg-z)"><use xlink:href="#osmo_svg-A" mask="url(#osmo_svg-B)"/></g><g id="osmo_svg-aI" clip-path="url(#osmo_svg-C)"><path d="M14.48 27.004a.14.14 0 0 0 .141-.14.14.14 0 0 0-.14-.141.14.14 0 0 0-.137.14c0 .078.058.14.136.14m0 0" style="stroke:none;fill-rule:nonzero;fill:#fff;fill-opacity:1"/></g><g id="osmo_svg-aK" clip-path="url(#osmo_svg-D)"><path d="M17.645 27.527a.655.655 0 0 0 .648-.664.66.66 0 0 0-.648-.664.66.66 0 0 0-.653.664c0 .367.293.664.653.664m0 0" style="stroke:none;fill-rule:nonzero;fill:#fff;fill-opacity:1"/></g><g id="osmo_svg-H" clip-path="url(#osmo_svg-E)"><path d="M17.27 27.29a.68.68 0 0 1 0-.946c.046-.047.093-.07.14-.117a.5.5 0 0 0-.234.14.687.687 0 0 0 0 .95.67.67 0 0 0 .793.117.64.64 0 0 1-.7-.145m0 0" style="stroke:none;fill-rule:nonzero;fill:url(#osmo_svg-F)"/></g><g id="osmo_svg-aM" clip-path="url(#osmo_svg-G)"><use xlink:href="#osmo_svg-H" mask="url(#osmo_svg-I)"/></g><g id="osmo_svg-aO" clip-path="url(#osmo_svg-J)"><path d="M17.875 26.676c.078 0 .14-.067.14-.145a.14.14 0 0 0-.14-.14.14.14 0 0 0-.14.14c0 .078.062.145.14.145m0 0" style="stroke:none;fill-rule:nonzero;fill:#fff;fill-opacity:1"/></g><g id="osmo_svg-aQ" clip-path="url(#osmo_svg-K)"><path d="M15.969 29.066c.27 0 .488-.222.488-.5a.493.493 0 0 0-.488-.496.493.493 0 0 0-.489.496c0 .278.22.5.489.5m0 0" style="stroke:none;fill-rule:nonzero;fill:#fff;fill-opacity:1"/></g><g id="osmo_svg-O" clip-path="url(#osmo_svg-L)"><path d="M15.691 28.875a.515.515 0 0 1 0-.707c.024-.027.067-.05.094-.074-.07.023-.117.074-.164.117a.52.52 0 0 0 0 .71c.164.169.395.192.606.075a.5.5 0 0 1-.536-.121m0 0" style="stroke:none;fill-rule:nonzero;fill:url(#osmo_svg-M)"/></g><g id="osmo_svg-aS" clip-path="url(#osmo_svg-N)"><use xlink:href="#osmo_svg-O" mask="url(#osmo_svg-P)"/></g><g id="osmo_svg-aU" clip-path="url(#osmo_svg-Q)"><path d="M16.133 28.402c.05 0 .094-.043.094-.093a.096.096 0 0 0-.094-.098.096.096 0 0 0 0 .191m0 0" style="stroke:none;fill-rule:nonzero;fill:#fff;fill-opacity:1"/></g><g id="osmo_svg-aW" clip-path="url(#osmo_svg-R)"><path d="M18.969 28.71a.49.49 0 0 0 .484-.495.49.49 0 0 0-.484-.496.493.493 0 0 0-.489.496c0 .273.22.496.489.496m0 0" style="stroke:none;fill-rule:nonzero;fill:#fff;fill-opacity:1"/></g><g id="osmo_svg-V" clip-path="url(#osmo_svg-S)"><path d="M18.688 28.52a.523.523 0 0 1 0-.707c.023-.028.07-.051.093-.075-.066.028-.113.075-.16.121a.515.515 0 0 0 0 .707c.16.168.395.192.602.075a.5.5 0 0 1-.535-.121m0 0" style="stroke:none;fill-rule:nonzero;fill:url(#osmo_svg-T)"/></g><g id="osmo_svg-aY" clip-path="url(#osmo_svg-U)"><use xlink:href="#osmo_svg-V" mask="url(#osmo_svg-W)"/></g><g id="osmo_svg-ba" clip-path="url(#osmo_svg-X)"><path d="M19.129 28.047c.05 0 .094-.043.094-.094a.093.093 0 0 0-.094-.094c-.05 0-.094.04-.094.094.004.05.043.094.094.094m0 0" style="stroke:none;fill-rule:nonzero;fill:#fff;fill-opacity:1"/></g><g id="osmo_svg-bc" clip-path="url(#osmo_svg-Y)"><path d="M11.484 27.621c.59 0 1.067-.488 1.067-1.09 0-.601-.477-1.09-1.067-1.09s-1.07.489-1.07 1.09.48 1.09 1.07 1.09m0 0" style="stroke:none;fill-rule:nonzero;fill:#fff;fill-opacity:1"/></g><g id="osmo_svg-ac" clip-path="url(#osmo_svg-Z)"><path d="M10.879 27.219a1.1 1.1 0 0 1 0-1.54c.07-.07.14-.116.234-.163-.14.047-.258.14-.37.238a1.09 1.09 0 0 0 0 1.535c.347.356.882.43 1.3.168-.395.164-.86.094-1.164-.238m0 0" style="stroke:none;fill-rule:nonzero;fill:url(#osmo_svg-aa)"/></g><g id="osmo_svg-be" clip-path="url(#osmo_svg-ab)"><use xlink:href="#osmo_svg-ac" mask="url(#osmo_svg-ad)"/></g><g id="osmo_svg-bg" clip-path="url(#osmo_svg-ae)"><path d="M11.855 26.203a.238.238 0 0 0 0-.476.238.238 0 0 0 0 .476m0 0" style="stroke:none;fill-rule:nonzero;fill:#fff;fill-opacity:1"/></g><g id="osmo_svg-bi" clip-path="url(#osmo_svg-af)"><path d="M21.035 24.945c.59 0 1.07-.484 1.07-1.086 0-.601-.48-1.09-1.07-1.09s-1.066.489-1.066 1.09.476 1.086 1.066 1.086m0 0" style="stroke:none;fill-rule:nonzero;fill:#fff;fill-opacity:1"/></g><g id="osmo_svg-aj" clip-path="url(#osmo_svg-ag)"><path d="M20.41 24.543a1.094 1.094 0 0 1 0-1.54.8.8 0 0 1 .23-.163c-.14.047-.253.14-.37.238a1.1 1.1 0 0 0 0 1.54c.347.35.882.425 1.3.163a1.03 1.03 0 0 1-1.16-.238m0 0" style="stroke:none;fill-rule:nonzero;fill:url(#osmo_svg-ah)"/></g><g id="osmo_svg-bk" clip-path="url(#osmo_svg-ai)"><use xlink:href="#osmo_svg-aj" mask="url(#osmo_svg-ak)"/></g><g id="osmo_svg-bm" clip-path="url(#osmo_svg-al)"><path d="M21.406 23.527a.236.236 0 0 0 .235-.238.233.233 0 1 0-.465 0c0 .133.101.238.23.238m0 0" style="stroke:none;fill-rule:nonzero;fill:#fff;fill-opacity:1"/></g><linearGradient id="osmo_svg-d" x1="1012.108" x2="1348.674" y1="75.261" y2="2114.309" gradientTransform="matrix(.0128 0 0 -.0128 0 32.001)" gradientUnits="userSpaceOnUse"><stop offset="0" style="stop-color:#9ad9e5;stop-opacity:1"/><stop offset=".62" style="stop-color:#fff;stop-opacity:0"/></linearGradient><linearGradient id="osmo_svg-g" x1="1904.993" x2="1051.727" y1="1786.497" y2="1017.679" gradientTransform="matrix(.0128 0 0 -.0128 0 32.001)" gradientUnits="userSpaceOnUse"><stop offset=".289" style="stop-color:#fff;stop-opacity:1"/><stop offset=".78" style="stop-color:#fff;stop-opacity:0"/></linearGradient><linearGradient id="osmo_svg-aw" x1="214.364" x2="2144.615" y1="613.097" y2="613.097" gradientTransform="matrix(.0128 0 0 -.0128 0 32.001)" gradientUnits="userSpaceOnUse"><stop offset="0" style="stop-color:#384ea2;stop-opacity:1"/><stop offset=".995" style="stop-color:#d54799;stop-opacity:1"/></linearGradient><linearGradient id="osmo_svg-i" x1="2240.823" x2="1172.931" y1="1012.082" y2="21.022" gradientTransform="matrix(.0128 0 0 -.0128 0 32.001)" gradientUnits="userSpaceOnUse"><stop offset=".289" style="stop-color:#fff;stop-opacity:1"/><stop offset=".78" style="stop-color:#fff;stop-opacity:0"/></linearGradient><linearGradient id="osmo_svg-n" x1="214.364" x2="1245.767" y1="613.097" y2="613.097" gradientTransform="matrix(.0128 0 0 -.0128 0 32.001)" gradientUnits="userSpaceOnUse"><stop offset="0" style="stop-color:#2b2f82;stop-opacity:1"/><stop offset=".995" style="stop-color:#72439a;stop-opacity:1"/></linearGradient><linearGradient id="osmo_svg-aB" x1="216.476" x2="2142.851" y1="1013.819" y2="1013.819" gradientTransform="matrix(.0128 0 0 -.0128 0 32.001)" gradientUnits="userSpaceOnUse"><stop offset="0" style="stop-color:#2b2f82;stop-opacity:1"/><stop offset=".995" style="stop-color:#a14298;stop-opacity:1"/></linearGradient><linearGradient id="osmo_svg-s" x1="2113.777" x2="1971.651" y1="2063.746" y2="1836.945" gradientTransform="matrix(.0128 0 0 -.0128 0 32.001)" gradientUnits="userSpaceOnUse"><stop offset=".289" style="stop-color:#fff;stop-opacity:1"/><stop offset=".78" style="stop-color:#fff;stop-opacity:0"/></linearGradient><linearGradient id="osmo_svg-y" x1="1061.913" x2="1138.739" y1="375.025" y2="375.025" gradientTransform="matrix(.0128 0 0 -.0128 0 32.001)" gradientUnits="userSpaceOnUse"><stop offset=".289" style="stop-color:#fff;stop-opacity:1"/><stop offset=".78" style="stop-color:#fff;stop-opacity:0"/></linearGradient><linearGradient id="osmo_svg-F" x1="1326.791" x2="1403.617" y1="400.92" y2="400.92" gradientTransform="matrix(.0128 0 0 -.0128 0 32.001)" gradientUnits="userSpaceOnUse"><stop offset=".289" style="stop-color:#fff;stop-opacity:1"/><stop offset=".78" style="stop-color:#fff;stop-opacity:0"/></linearGradient><linearGradient id="osmo_svg-M" x1="1209.211" x2="1266.889" y1="267.141" y2="267.141" gradientTransform="matrix(.0128 0 0 -.0128 0 32.001)" gradientUnits="userSpaceOnUse"><stop offset=".289" style="stop-color:#fff;stop-opacity:1"/><stop offset=".78" style="stop-color:#fff;stop-opacity:0"/></linearGradient><linearGradient id="osmo_svg-T" x1="1442.691" x2="1500.363" y1="294.876" y2="294.876" gradientTransform="matrix(.0128 0 0 -.0128 0 32.001)" gradientUnits="userSpaceOnUse"><stop offset=".289" style="stop-color:#fff;stop-opacity:1"/><stop offset=".78" style="stop-color:#fff;stop-opacity:0"/></linearGradient><linearGradient id="osmo_svg-aa" x1="813.715" x2="939.174" y1="424.835" y2="424.835" gradientTransform="matrix(.0128 0 0 -.0128 0 32.001)" gradientUnits="userSpaceOnUse"><stop offset=".289" style="stop-color:#fff;stop-opacity:1"/><stop offset=".78" style="stop-color:#fff;stop-opacity:0"/></linearGradient><linearGradient id="osmo_svg-ah" x1="1558.856" x2="1684.321" y1="633.791" y2="633.791" gradientTransform="matrix(.0128 0 0 -.0128 0 32.001)" gradientUnits="userSpaceOnUse"><stop offset=".289" style="stop-color:#fff;stop-opacity:1"/><stop offset=".78" style="stop-color:#fff;stop-opacity:0"/></linearGradient><radialGradient id="osmo_svg-am" cx="1036.401" cy="1693.469" r="49.02" fx="1036.401" fy="1693.469" gradientTransform="matrix(.21192 0 0 -.2158 -190.145 369.811)" gradientUnits="userSpaceOnUse"><stop offset="0" style="stop-color:#fbeaf3;stop-opacity:.6"/><stop offset=".681" style="stop-color:#a087bf;stop-opacity:1"/><stop offset="1" style="stop-color:#17102e;stop-opacity:1"/></radialGradient><radialGradient id="osmo_svg-an" cx="976.169" cy="1671.813" r="49.02" fx="976.169" fy="1671.813" gradientTransform="matrix(.5185 0 0 -.528 -482.427 891.568)" gradientUnits="userSpaceOnUse"><stop offset="0" style="stop-color:#fbeaf3;stop-opacity:.6"/><stop offset=".681" style="stop-color:#a087bf;stop-opacity:1"/><stop offset="1" style="stop-color:#17102e;stop-opacity:1"/></radialGradient><filter id="osmo_svg-a" width="100%" height="100%" x="0%" y="0%" filterUnits="objectBoundingBox"><feColorMatrix in="SourceGraphic" values="0 0 0 0 1 0 0 0 0 1 0 0 0 0 1 0 0 0 1 0"/></filter></defs><path d="M30.566 5.656c-.328-1.254-1.37-2.508-3.253-3.906C25.8.64 24.195 0 22.918 0a3.6 3.6 0 0 0-.719.07c-.582.118-1.094.543-1.418 1.184-.398.758-.488 1.777-.234 2.39.094.192.207.426.348.641-1.23.758-1.93.969-2.024.992 3.207 1.09 5.883 3.364 7.555 6.32l.023-.284c.07-.782.305-1.68.63-2.602q.484.14.976.14c.86 0 1.601-.355 2.066-.992.469-.64.652-1.492.445-2.203m0 0" style="stroke:none;fill-rule:nonzero;fill:#602f92;fill-opacity:1"/><path d="M27.219 8.023c2.113.594 2.976-1.062 2.695-2.175-.3-1.114-1.277-2.25-2.996-3.528C25.195 1.043 23.453.523 22.34.758c-1.117.238-1.442 1.965-1.164 2.629.117.261.37.64.722 1.066-.441.305-.863.543-1.21.758 2.14.969 4 2.484 5.394 4.379.16-.64.395-1.207.602-1.703.164.02.347.066.535.136m0 0" style="stroke:none;fill-rule:nonzero;fill:url(#osmo_svg-am)"/><path d="M15.11 31.219c7.175 0 12.992-5.922 12.992-13.23 0-7.31-5.817-13.231-12.993-13.231-7.175 0-12.992 5.922-12.992 13.23s5.817 13.23 12.992 13.23m0 0" style="stroke:none;fill-rule:nonzero;fill:url(#osmo_svg-an)"/><use xlink:href="#osmo_svg-ao" mask="url(#osmo_svg-ap)"/><path d="M23.777 3.102c.465.187 1.07.52 1.813 1.015.883.594 1.652 1.254 2.14 1.778-.816 1.085-1.347 2.578-1.671 3.62.16.235.347.473.511.712.16-.594.442-1.47.813-2.344.094.023.207.023.324.023.281 0 .605-.047.86-.261.187-.141.398-.403.374-.875 0-.45-.347-1.016-1.07-1.704-.512-.496-1.207-1.043-1.906-1.539-2-1.347-3.39-1.726-4.02-1.09-.418.426-.37.95-.234 1.329-.742.496-1.371.851-1.79 1.09.282.093.536.21.817.328.739-.403 1.809-1.09 3.04-2.082m4.395 3.382a.66.66 0 0 1 .094.309c0 .21-.07.285-.118.332-.093.07-.277.117-.441.117.14-.285.3-.52.465-.758M22.43 2.957c.07-.07.258-.117.558-.07-.234.191-.465.355-.695.523-.023-.168 0-.332.137-.453m0 0" style="stroke:none;fill-rule:nonzero;fill:#602f92;fill-opacity:1"/><path d="M15.11 3.977c-7.602 0-13.762 6.27-13.762 14.011C1.348 25.727 7.508 32 15.109 32c7.602 0 13.758-6.273 13.758-14.012 0-7.738-6.18-14.011-13.758-14.011m0 27.242c-7.184 0-12.993-5.918-12.993-13.23S7.926 4.757 15.11 4.757s12.993 5.918 12.993 13.23-5.832 13.23-12.993 13.23m0 0" style="stroke:none;fill-rule:nonzero;fill:#602f92;fill-opacity:1"/><use xlink:href="#osmo_svg-aq" mask="url(#osmo_svg-ar)"/><use xlink:href="#osmo_svg-as" mask="url(#osmo_svg-at)"/><use xlink:href="#osmo_svg-au" mask="url(#osmo_svg-av)"/><path d="M27.45 17.871c0 6.934-5.532 12.567-12.34 12.567-6.81 0-12.364-5.633-12.364-12.567Zm0 0" style="stroke:none;fill-rule:nonzero;fill:url(#osmo_svg-aw)"/><use xlink:href="#osmo_svg-ax" mask="url(#osmo_svg-ay)"/><use xlink:href="#osmo_svg-az" mask="url(#osmo_svg-aA)"/><path d="M27.43 17.988c0-1.445-2.465-2.273-5.742-2.554-2.372-.192-4.766.046-7.508.898-2.371.711-4.508.59-6.067.402-3.465-.402-5.367-.449-5.367 1.254 0 2.461 4.926 5.54 12.317 4.473 3.742-.543 5.671-1.656 7.878-2.414 2.395-.805 4.489-.781 4.489-2.059m0 0" style="stroke:none;fill-rule:nonzero;fill:url(#osmo_svg-aB)"/><path d="M19.152 12.023c1.157 0 2.094-.953 2.094-2.128s-.937-2.133-2.094-2.133c-1.152 0-2.09.957-2.09 2.133 0 1.175.938 2.128 2.09 2.128m3.418 1.587a.89.89 0 0 0 .883-.9.89.89 0 0 0-.883-.901.89.89 0 0 0-.883.902.89.89 0 0 0 .883.898m0 0" style="stroke:none;fill-rule:nonzero;fill:#fff;fill-opacity:1"/><use xlink:href="#osmo_svg-aC" mask="url(#osmo_svg-aD)"/><use xlink:href="#osmo_svg-aE" mask="url(#osmo_svg-aF)"/><use xlink:href="#osmo_svg-aG" mask="url(#osmo_svg-aH)"/><use xlink:href="#osmo_svg-aI" mask="url(#osmo_svg-aJ)"/><use xlink:href="#osmo_svg-aK" mask="url(#osmo_svg-aL)"/><use xlink:href="#osmo_svg-aM" mask="url(#osmo_svg-aN)"/><use xlink:href="#osmo_svg-aO" mask="url(#osmo_svg-aP)"/><use xlink:href="#osmo_svg-aQ" mask="url(#osmo_svg-aR)"/><use xlink:href="#osmo_svg-aS" mask="url(#osmo_svg-aT)"/><use xlink:href="#osmo_svg-aU" mask="url(#osmo_svg-aV)"/><use xlink:href="#osmo_svg-aW" mask="url(#osmo_svg-aX)"/><use xlink:href="#osmo_svg-aY" mask="url(#osmo_svg-aZ)"/><use xlink:href="#osmo_svg-ba" mask="url(#osmo_svg-bb)"/><use xlink:href="#osmo_svg-bc" mask="url(#osmo_svg-bd)"/><use xlink:href="#osmo_svg-be" mask="url(#osmo_svg-bf)"/><use xlink:href="#osmo_svg-bg" mask="url(#osmo_svg-bh)"/><use xlink:href="#osmo_svg-bi" mask="url(#osmo_svg-bj)"/><use xlink:href="#osmo_svg-bk" mask="url(#osmo_svg-bl)"/><use xlink:href="#osmo_svg-bm" mask="url(#osmo_svg-bn)"/></svg>