<svg xmlns="http://www.w3.org/2000/svg" xmlns:xlink="http://www.w3.org/1999/xlink" width="32" height="32" viewBox="0 0 32 32"><defs><linearGradient id="ost_svg-c" x1="50%" x2="50%" y1="0%" y2="100%"><stop offset="0%" stop-color="#FFF" stop-opacity=".5"/><stop offset="100%" stop-opacity=".5"/></linearGradient><filter id="ost_svg-b" width="111.7%" height="111.7%" x="-5.8%" y="-4.2%" filterUnits="objectBoundingBox"><feOffset dy=".5" in="SourceAlpha" result="shadowOffsetOuter1"/><feGaussianBlur in="shadowOffsetOuter1" result="shadowBlurOuter1" stdDeviation=".5"/><feComposite in="shadowBlurOuter1" in2="SourceAlpha" operator="out" result="shadowBlurOuter1"/><feColorMatrix in="shadowBlurOuter1" values="0 0 0 0 0 0 0 0 0 0 0 0 0 0 0 0 0 0 0.199473505 0"/></filter><circle id="ost_svg-a" cx="15" cy="15" r="15"/></defs><g fill="none"><g transform="translate(1)"><use xlink:href="#ost_svg-a" fill="#000" filter="url(#ost_svg-b)"/><use xlink:href="#ost_svg-a" fill="#34445B" fill-rule="evenodd"/><use xlink:href="#ost_svg-a" fill="url(#ost_svg-c)" fill-rule="evenodd" style="mix-blend-mode:soft-light"/><circle cx="15" cy="15" r="14.5" stroke="#000" stroke-linejoin="square" stroke-opacity=".097"/></g><g fill="#FFF"><path d="m15.82 10.319 1.76-2.743a1.776 1.776 0 1 0-1.06-.675l-2.182 3.405a6.965 6.965 0 0 0-6.25 7.618 6.97 6.97 0 0 0 7.618 6.25 6.97 6.97 0 0 0 6.25-7.618 6.97 6.97 0 0 0-6.136-6.237m-.801 10.607a3.693 3.693 0 0 1-3.696-3.695 3.693 3.693 0 0 1 3.696-3.696c1.539 0 2.913.952 3.456 2.39a2.137 2.137 0 0 0-2.996-.378 2.136 2.136 0 0 0-.378 2.995 2.136 2.136 0 0 0 3.367.007 3.69 3.69 0 0 1-3.45 2.377z"/><path d="m15.82 10.319 1.76-2.743a1.776 1.776 0 1 0-1.06-.675l-2.182 3.405a6.965 6.965 0 0 0-6.25 7.618 6.97 6.97 0 0 0 7.618 6.25 6.97 6.97 0 0 0 6.25-7.618 6.97 6.97 0 0 0-6.136-6.237m-.801 10.607a3.693 3.693 0 0 1-3.696-3.695 3.693 3.693 0 0 1 3.696-3.696c1.539 0 2.913.952 3.456 2.39a2.137 2.137 0 0 0-2.996-.378 2.136 2.136 0 0 0-.378 2.995 2.136 2.136 0 0 0 3.367.007 3.69 3.69 0 0 1-3.45 2.377z"/></g></g></svg>