<svg xmlns="http://www.w3.org/2000/svg" xmlns:xlink="http://www.w3.org/1999/xlink" width="32" height="32" viewBox="0 0 32 32"><defs><filter id="ox_svg-b" width="111.7%" height="111.7%" x="-5.8%" y="-4.2%" filterUnits="objectBoundingBox"><feOffset dy=".5" in="SourceAlpha" result="shadowOffsetOuter1"/><feGaussianBlur in="shadowOffsetOuter1" result="shadowBlurOuter1" stdDeviation=".5"/><feComposite in="shadowBlurOuter1" in2="SourceAlpha" operator="out" result="shadowBlurOuter1"/><feColorMatrix in="shadowBlurOuter1" values="0 0 0 0 0 0 0 0 0 0 0 0 0 0 0 0 0 0 0.199473505 0"/></filter><filter id="ox_svg-e" width="117.5%" height="119.4%" x="-8.8%" y="-6.9%" filterUnits="objectBoundingBox"><feOffset dy=".5" in="SourceAlpha" result="shadowOffsetOuter1"/><feGaussianBlur in="shadowOffsetOuter1" result="shadowBlurOuter1" stdDeviation=".5"/><feColorMatrix in="shadowBlurOuter1" values="0 0 0 0 0 0 0 0 0 0 0 0 0 0 0 0 0 0 0.204257246 0"/></filter><linearGradient id="ox_svg-c" x1="50%" x2="50%" y1="0%" y2="100%"><stop offset="0%" stop-color="#FFF" stop-opacity=".5"/><stop offset="100%" stop-opacity=".5"/></linearGradient><circle id="ox_svg-a" cx="16" cy="15" r="15"/><path id="ox_svg-d" d="M16.858 24.5h-1.716c-1.288 0-1.653-1.194-1.653-2.106s.065-1.325.065-1.737c0-.65-.328-2.273-.923-2.953-1.159-1.325-1.889-2.512-1.889-4.234-1.008-.521-2.79-.999-3.476-1.78C6.58 10.907 6 9.8 6 8.214q0-.608.258-1.715.593 1.85 1.824 2.54c1.201.674 2.555 1.173 3.712 1.173h8.412c1.157 0 2.51-.5 3.712-1.173q1.23-.69 1.824-2.54Q26 7.606 26 8.214c0 1.585-.58 2.693-1.266 3.474-.687.782-2.468 1.26-3.476 1.78 0 1.723-.73 2.91-1.889 4.235-.595.68-.923 2.303-.923 2.953 0 .412.065.825.065 1.737s-.365 2.106-1.653 2.106z"/></defs><g fill="none" fill-rule="evenodd"><g fill-rule="nonzero"><use xlink:href="#ox_svg-a" fill="#000" filter="url(#ox_svg-b)"/><use xlink:href="#ox_svg-a" fill="#4392CD" fill-rule="evenodd"/><use xlink:href="#ox_svg-a" fill="url(#ox_svg-c)" fill-rule="evenodd" style="mix-blend-mode:soft-light"/><circle cx="16" cy="15" r="14.5" stroke="#000" stroke-opacity=".097"/></g><use xlink:href="#ox_svg-d" fill="#000" filter="url(#ox_svg-e)"/><use xlink:href="#ox_svg-d" fill="#FFF"/></g></svg>