<svg xmlns="http://www.w3.org/2000/svg" xmlns:xlink="http://www.w3.org/1999/xlink" width="32" height="32" viewBox="0 0 32 32"><defs><filter id="oxt_svg-b" width="111.7%" height="111.7%" x="-5.8%" y="-4.2%" filterUnits="objectBoundingBox"><feOffset dy=".5" in="SourceAlpha" result="shadowOffsetOuter1"/><feGaussianBlur in="shadowOffsetOuter1" result="shadowBlurOuter1" stdDeviation=".5"/><feComposite in="shadowBlurOuter1" in2="SourceAlpha" operator="out" result="shadowBlurOuter1"/><feColorMatrix in="shadowBlurOuter1" values="0 0 0 0 0 0 0 0 0 0 0 0 0 0 0 0 0 0 0.199473505 0"/></filter><filter id="oxt_svg-d"><feColorMatrix in="SourceGraphic" values="0 0 0 0 1.000000 0 0 0 0 1.000000 0 0 0 0 1.000000 0 0 0 1.000000 0"/></filter><filter id="oxt_svg-e" width="137.5%" height="141.7%" x="-18.8%" y="-20.8%" filterUnits="objectBoundingBox"><feOffset dy=".5" in="SourceAlpha" result="shadowOffsetOuter1"/><feGaussianBlur in="shadowOffsetOuter1" result="shadowBlurOuter1" stdDeviation=".5"/><feColorMatrix in="shadowBlurOuter1" result="shadowMatrixOuter1" values="0 0 0 0 0 0 0 0 0 0 0 0 0 0 0 0 0 0 0.204257246 0"/><feMerge><feMergeNode in="shadowMatrixOuter1"/><feMergeNode in="SourceGraphic"/></feMerge></filter><linearGradient id="oxt_svg-c" x1="50%" x2="50%" y1="0%" y2="100%"><stop offset="0%" stop-color="#FFF" stop-opacity=".5"/><stop offset="100%" stop-opacity=".5"/></linearGradient><circle id="oxt_svg-a" cx="16" cy="15" r="15"/></defs><g fill="none" fill-rule="evenodd"><use xlink:href="#oxt_svg-a" fill="#000" filter="url(#oxt_svg-b)"/><use xlink:href="#oxt_svg-a" fill="#5F45BA"/><use xlink:href="#oxt_svg-a" fill="url(#oxt_svg-c)" style="mix-blend-mode:soft-light"/><circle cx="16" cy="15" r="14.5" stroke="#000" stroke-linejoin="square" stroke-opacity=".097"/><g filter="url(#oxt_svg-d)"><g fill="#FFF" fill-rule="nonzero" filter="url(#oxt_svg-e)" transform="translate(5.25 6.5)"><path d="M5.193 1.66A1.099 1.099 0 1 1 4.81.155c.521.31.693.983.383 1.505m-3.75-.488A.777.777 0 1 1 1.173.11c.368.22.49.695.27 1.063m10.439 15.899A8.549 8.549 0 1 0 9.757.107a7.1 7.1 0 0 0-2.089.524c-.775.38-1.275 1.013-1.275 1.86 0 1.1.892 1.994 1.994 1.994.184 0 .821-.202.973-.254a4.606 4.606 0 0 1 6.114 4.644 4.608 4.608 0 0 1-8.447 2.246v.001c-.92-1.205-.708-3.131-.709-3.156a1.997 1.997 0 0 0-3.922-.451c-.045.167-.068.656-.061.721a8.547 8.547 0 0 0 9.547 8.836M4.05 4.71a1.424 1.424 0 1 1-.498-1.952c.676.402.898 1.276.497 1.952"/></g></g></g></svg>