<svg xmlns="http://www.w3.org/2000/svg" xmlns:xlink="http://www.w3.org/1999/xlink" width="32" height="32" viewBox="0 0 32 32"><defs><linearGradient id="pasc_svg-c" x1="50%" x2="50%" y1="0%" y2="100%"><stop offset="0%" stop-color="#FFF" stop-opacity=".5"/><stop offset="100%" stop-opacity=".5"/></linearGradient><filter id="pasc_svg-b" width="111.7%" height="111.7%" x="-5.8%" y="-4.2%" filterUnits="objectBoundingBox"><feOffset dy=".5" in="SourceAlpha" result="shadowOffsetOuter1"/><feGaussianBlur in="shadowOffsetOuter1" result="shadowBlurOuter1" stdDeviation=".5"/><feComposite in="shadowBlurOuter1" in2="SourceAlpha" operator="out" result="shadowBlurOuter1"/><feColorMatrix in="shadowBlurOuter1" values="0 0 0 0 0 0 0 0 0 0 0 0 0 0 0 0 0 0 0.199473505 0"/></filter><circle id="pasc_svg-a" cx="15" cy="15" r="15"/></defs><g fill="none"><g transform="translate(1)"><use xlink:href="#pasc_svg-a" fill="#000" filter="url(#pasc_svg-b)"/><use xlink:href="#pasc_svg-a" fill="#F7931E"/><use xlink:href="#pasc_svg-a" fill="url(#pasc_svg-c)" style="mix-blend-mode:soft-light"/><circle cx="15" cy="15" r="14.5" stroke="#000" stroke-linejoin="square" stroke-opacity=".097"/></g><path fill="#FFF" d="M16 4C9.925 4 5 8.925 5 15s4.925 11 11 11 11-4.925 11-11A11 11 0 0 0 16 4m5.5 5.328c1.14 0 2.063.924 2.063 2.063v3.093c0 1.14-.924 2.063-2.063 2.063h-2.554l-.164.773a.45.45 0 0 1-.417.344h-.516a.27.27 0 0 1-.27-.344l.164-.773H16.54l-.164.773a.45.45 0 0 1-.417.344h-.516a.27.27 0 0 1-.27-.344l.164-.773h-1.29l-1.132 5.328h-2.75l2.01-9.453h2.75l-.44 2.062h5.296a1.03 1.03 0 0 0 1.032-1.03v-1.032c0-.57-.462-1.031-1.032-1.031H8.438l1.718-2.063h6.715l.165-.773a.45.45 0 0 1 .416-.344h.516a.27.27 0 0 1 .27.344l-.163.773h1.203l.164-.773a.45.45 0 0 1 .417-.344h.515a.27.27 0 0 1 .27.344l-.163.773z"/></g></svg>