<svg xmlns="http://www.w3.org/2000/svg" xmlns:xlink="http://www.w3.org/1999/xlink" width="32" height="32" viewBox="0 0 32 32"><defs><linearGradient id="payx_svg-c" x1="50%" x2="50%" y1="0%" y2="100%"><stop offset="0%" stop-color="#FFF" stop-opacity=".5"/><stop offset="100%" stop-opacity=".5"/></linearGradient><filter id="payx_svg-b" width="111.7%" height="111.7%" x="-5.8%" y="-4.2%" filterUnits="objectBoundingBox"><feOffset dy=".5" in="SourceAlpha" result="shadowOffsetOuter1"/><feGaussianBlur in="shadowOffsetOuter1" result="shadowBlurOuter1" stdDeviation=".5"/><feComposite in="shadowBlurOuter1" in2="SourceAlpha" operator="out" result="shadowBlurOuter1"/><feColorMatrix in="shadowBlurOuter1" values="0 0 0 0 0 0 0 0 0 0 0 0 0 0 0 0 0 0 0.199473505 0"/></filter><circle id="payx_svg-a" cx="15" cy="15" r="15"/></defs><g fill="none"><g transform="translate(1)"><use xlink:href="#payx_svg-a" fill="#000" filter="url(#payx_svg-b)"/><use xlink:href="#payx_svg-a" fill="#630"/><use xlink:href="#payx_svg-a" fill="url(#payx_svg-c)" style="mix-blend-mode:soft-light"/><circle cx="15" cy="15" r="14.5" stroke="#000" stroke-linejoin="square" stroke-opacity=".097"/></g><g fill="#FFF"><path d="M12.119 9.756 13.244 7l7.706.028c1.125.085 2.475.085 3.234 1.04.9 1.041.703 2.532.253 3.713a7.84 7.84 0 0 1-5.709 5.119c-1.856.281-3.74.197-5.625.197q.563-1.373 1.125-2.756c1.547 0 3.122.084 4.697-.17 1.434-.365 2.756-1.8 2.531-3.374-.14-.675-.9-.985-1.547-.985-2.587-.112-5.175 0-7.762-.056z"/><path d="M8.8 10.516h9.14l-1.209 3.122H7.562L8.8 10.543v-.028zm1.463 3.825h3.178l-3.32 8.437H7l3.29-8.437z"/></g></g></svg>