<svg xmlns="http://www.w3.org/2000/svg" xmlns:xlink="http://www.w3.org/1999/xlink" width="32" height="32" viewBox="0 0 32 32"><defs><filter id="pink_svg-b" width="111.7%" height="111.7%" x="-5.8%" y="-4.2%" filterUnits="objectBoundingBox"><feOffset dy=".5" in="SourceAlpha" result="shadowOffsetOuter1"/><feGaussianBlur in="shadowOffsetOuter1" result="shadowBlurOuter1" stdDeviation=".5"/><feComposite in="shadowBlurOuter1" in2="SourceAlpha" operator="out" result="shadowBlurOuter1"/><feColorMatrix in="shadowBlurOuter1" values="0 0 0 0 0 0 0 0 0 0 0 0 0 0 0 0 0 0 0.199473505 0"/></filter><filter id="pink_svg-d" width="120.6%" height="117.5%" x="-10.3%" y="-6.2%" filterUnits="objectBoundingBox"><feOffset dy=".5" in="SourceAlpha" result="shadowOffsetOuter1"/><feGaussianBlur in="shadowOffsetOuter1" result="shadowBlurOuter1" stdDeviation=".5"/><feColorMatrix in="shadowBlurOuter1" result="shadowMatrixOuter1" values="0 0 0 0 0 0 0 0 0 0 0 0 0 0 0 0 0 0 0.204257246 0"/><feMerge><feMergeNode in="shadowMatrixOuter1"/><feMergeNode in="SourceGraphic"/></feMerge></filter><linearGradient id="pink_svg-c" x1="50%" x2="50%" y1="0%" y2="100%"><stop offset="0%" stop-color="#FFF" stop-opacity=".5"/><stop offset="100%" stop-opacity=".5"/></linearGradient><circle id="pink_svg-a" cx="16" cy="15" r="15"/></defs><g fill="none" fill-rule="evenodd"><use xlink:href="#pink_svg-a" fill="#000" filter="url(#pink_svg-b)"/><use xlink:href="#pink_svg-a" fill="#ED79AA"/><use xlink:href="#pink_svg-a" fill="url(#pink_svg-c)" style="mix-blend-mode:soft-light"/><circle cx="16" cy="15" r="14.5" stroke="#000" stroke-opacity=".097"/><g fill="#FFF" filter="url(#pink_svg-d)" transform="translate(6.5 5)"><path d="m16.952 2.929-1.87 1.883A7.24 7.24 0 0 0 9.93 2.663c-3.915 0-7.11 3.11-7.278 7.01h-.008v7.122A10 10 0 0 1 0 10C0 4.477 4.446 0 9.93 0a9.87 9.87 0 0 1 7.022 2.929m0 14.142A9.87 9.87 0 0 1 10.092 20v-2.664a7.24 7.24 0 0 0 4.99-2.147z" opacity=".5"/><path d="M5.181 18.784v-9.11h.007C5.328 7.069 7.47 5 10.092 5c2.712 0 4.911 2.214 4.911 4.946s-2.199 4.945-4.91 4.945a4.86 4.86 0 0 1-2.483-.677v5.511a9.8 9.8 0 0 1-2.429-.94zm4.911-6.338a2.49 2.49 0 0 0 2.483-2.5c0-1.381-1.112-2.5-2.483-2.5a2.49 2.49 0 0 0-2.482 2.5c0 1.38 1.111 2.5 2.482 2.5"/></g></g></svg>