<svg xmlns="http://www.w3.org/2000/svg" xmlns:xlink="http://www.w3.org/1999/xlink" width="32" height="32" viewBox="0 0 32 32"><defs><filter id="poa_svg-b" width="111.7%" height="111.7%" x="-5.8%" y="-4.2%" filterUnits="objectBoundingBox"><feOffset dy=".5" in="SourceAlpha" result="shadowOffsetOuter1"/><feGaussianBlur in="shadowOffsetOuter1" result="shadowBlurOuter1" stdDeviation=".5"/><feComposite in="shadowBlurOuter1" in2="SourceAlpha" operator="out" result="shadowBlurOuter1"/><feColorMatrix in="shadowBlurOuter1" values="0 0 0 0 0 0 0 0 0 0 0 0 0 0 0 0 0 0 0.199473505 0"/></filter><filter id="poa_svg-e" width="115.9%" height="118.4%" x="-8%" y="-6.6%" filterUnits="objectBoundingBox"><feOffset dy=".5" in="SourceAlpha" result="shadowOffsetOuter1"/><feGaussianBlur in="shadowOffsetOuter1" result="shadowBlurOuter1" stdDeviation=".5"/><feColorMatrix in="shadowBlurOuter1" values="0 0 0 0 0 0 0 0 0 0 0 0 0 0 0 0 0 0 0.204257246 0"/></filter><linearGradient id="poa_svg-c" x1="50%" x2="50%" y1="0%" y2="100%"><stop offset="0%" stop-color="#FFF" stop-opacity=".5"/><stop offset="100%" stop-opacity=".5"/></linearGradient><circle id="poa_svg-a" cx="16" cy="15" r="15"/><path id="poa_svg-d" d="M5 23 16 4l11 19zm6.872-9.676c1.285-.858 2.663-1.291 4.128-1.291s2.843.433 4.128 1.291L16 6.194zm-1.951 3.37-2.997 5.177h18.152l-2.997-5.176c-1.81 1.989-3.843 2.999-6.079 2.999s-4.27-1.01-6.08-3zM16 18.565c1.938 0 3.711-.89 5.338-2.7-1.627-1.813-3.4-2.702-5.338-2.702s-3.711.89-5.338 2.701c1.627 1.812 3.4 2.702 5.338 2.702zm0-.483c-1.16 0-2.101-.975-2.101-2.178s.94-2.177 2.101-2.177c1.16 0 2.101.975 2.101 2.177 0 1.203-.94 2.178-2.101 2.178m0-1.13c.559 0 1.012-.469 1.012-1.048s-.453-1.048-1.012-1.048-1.012.47-1.012 1.048c0 .58.453 1.049 1.012 1.049z"/></defs><g fill="none"><use xlink:href="#poa_svg-a" fill="#000" filter="url(#poa_svg-b)"/><use xlink:href="#poa_svg-a" fill="#444FA1" fill-rule="evenodd"/><use xlink:href="#poa_svg-a" fill="url(#poa_svg-c)" fill-rule="evenodd" style="mix-blend-mode:soft-light"/><circle cx="16" cy="15" r="14.5" stroke="#000" stroke-opacity=".097"/><use xlink:href="#poa_svg-d" fill="#000" filter="url(#poa_svg-e)"/><use xlink:href="#poa_svg-d" fill="#FFF" fill-rule="evenodd"/></g></svg>