<svg xmlns="http://www.w3.org/2000/svg" xmlns:xlink="http://www.w3.org/1999/xlink" width="32" height="32" viewBox="0 0 32 32"><defs><linearGradient id="polis_svg-c" x1="50%" x2="50%" y1="0%" y2="100%"><stop offset="0%" stop-color="#FFF" stop-opacity=".5"/><stop offset="100%" stop-opacity=".5"/></linearGradient><filter id="polis_svg-b" width="111.7%" height="111.7%" x="-5.8%" y="-4.2%" filterUnits="objectBoundingBox"><feOffset dy=".5" in="SourceAlpha" result="shadowOffsetOuter1"/><feGaussianBlur in="shadowOffsetOuter1" result="shadowBlurOuter1" stdDeviation=".5"/><feComposite in="shadowBlurOuter1" in2="SourceAlpha" operator="out" result="shadowBlurOuter1"/><feColorMatrix in="shadowBlurOuter1" values="0 0 0 0 0 0 0 0 0 0 0 0 0 0 0 0 0 0 0.199473505 0"/></filter><circle id="polis_svg-a" cx="15" cy="15" r="15"/></defs><g fill="none"><g transform="translate(1)"><use xlink:href="#polis_svg-a" fill="#000" filter="url(#polis_svg-b)"/><use xlink:href="#polis_svg-a" fill="#2C3E50"/><use xlink:href="#polis_svg-a" fill="url(#polis_svg-c)" style="mix-blend-mode:soft-light"/><circle cx="15" cy="15" r="14.5" stroke="#000" stroke-linejoin="square" stroke-opacity=".097"/></g><path fill="#FFF" d="M24.672 21.012v-.9c0-.178-.119-.298-.3-.298h-.6v-.903c0-.178-.119-.3-.298-.3h-.599V12h.596c.179 0 .301-.12.301-.301v-.9h.6a.29.29 0 0 0 .297-.242c.03-.149-.03-.268-.149-.33l-8.386-4.206a.4.4 0 0 0-.268 0l-8.687 4.205a.3.3 0 0 0-.15.328c0 .152.12.245.269.245h.9v.9c0 .178.12.298.298.298h.599v6.612h-.596c-.179 0-.301.12-.301.298v.903h-.599c-.179 0-.298.12-.298.298v.903c-.179 0-.301.12-.301.301 0 .182.12.301.298.301h17.374c.179 0 .301-.119.301-.298 0-.178-.119-.304-.298-.304h-.003zM8.794 11.4v-.6H23.17v.6zm12.278.6v6.61h-1.195V12zm-2.995 0v6.61H16.88V12zm-2.995 0v6.61h-1.195V12zm-2.995 0v6.61h-1.195V12zm11.083 7.811H8.797v-.602h14.376v.602z"/></g></svg>