<svg width="32" height="32" viewBox="0 0 32 32" fill="none" xmlns="http://www.w3.org/2000/svg"><path d="M16 32c8.837 0 16-7.163 16-16S24.837 0 16 0 0 7.163 0 16s7.163 16 16 16z" fill="#7B3FE4"/><path d="M26.666 16.373V21.2a1.743 1.743 0 01-.853 1.489l-4.166 2.409a1.662 1.662 0 01-1.707 0l-4.167-2.409a1.737 1.737 0 01-.853-1.489v-1.354l2.133-1.243v2.355l3.733 2.174 3.734-2.174v-4.339l-3.733-2.174-8.747 5.085a1.735 1.735 0 01-1.707 0l-4.166-2.42a1.738 1.738 0 01-.834-1.487v-4.827a1.744 1.744 0 01.854-1.488L10.353 6.9a1.677 1.677 0 011.707 0l4.167 2.409a1.736 1.736 0 01.853 1.488v1.355l-2.147 1.234v-2.341L11.2 8.87l-3.733 2.175v4.333l3.733 2.175 8.747-5.085a1.735 1.735 0 011.706 0l4.167 2.419a1.737 1.737 0 01.846 1.486z" fill="#fff"/></svg>