<svg xmlns="http://www.w3.org/2000/svg" xmlns:xlink="http://www.w3.org/1999/xlink" width="32" height="32" viewBox="0 0 32 32"><defs><linearGradient id="pre_svg-c" x1="50%" x2="50%" y1="0%" y2="100%"><stop offset="0%" stop-color="#FFF" stop-opacity=".5"/><stop offset="100%" stop-opacity=".5"/></linearGradient><filter id="pre_svg-b" width="111.7%" height="111.7%" x="-5.8%" y="-4.2%" filterUnits="objectBoundingBox"><feOffset dy=".5" in="SourceAlpha" result="shadowOffsetOuter1"/><feGaussianBlur in="shadowOffsetOuter1" result="shadowBlurOuter1" stdDeviation=".5"/><feComposite in="shadowBlurOuter1" in2="SourceAlpha" operator="out" result="shadowBlurOuter1"/><feColorMatrix in="shadowBlurOuter1" values="0 0 0 0 0 0 0 0 0 0 0 0 0 0 0 0 0 0 0.199473505 0"/></filter><circle id="pre_svg-a" cx="15" cy="15" r="15"/></defs><g fill="none"><g transform="translate(1)"><use xlink:href="#pre_svg-a" fill="#000" filter="url(#pre_svg-b)"/><use xlink:href="#pre_svg-a" fill="#3A8CBD"/><use xlink:href="#pre_svg-a" fill="url(#pre_svg-c)" style="mix-blend-mode:soft-light"/><circle cx="15" cy="15" r="14.5" stroke="#000" stroke-linejoin="square" stroke-opacity=".097"/></g><g fill="#FFF"><path d="M13.751 16.818h1.491c.427.001.848-.092 1.234-.274a3.1 3.1 0 0 0 .957-.736c.266-.317.471-.678.608-1.068.147-.394.222-.812.22-1.233a3 3 0 0 0-.239-1.197 3.7 3.7 0 0 0-.644-1.048 3.2 3.2 0 0 0-.976-.755 2.64 2.64 0 0 0-1.23-.295h-3.92v9.515h2.503l-.004-2.91zm0-4.308h1.269c.176.012.341.09.46.221.148.148.24.406.24.81 0 .405-.092.644-.221.775a.57.57 0 0 1-.423.221H13.75z"/><path d="M8.02 7.916v14.122c0 .506.41.916.916.916h14.122c.506 0 .916-.41.916-.916V7.916A.916.916 0 0 0 23.058 7H8.936a.916.916 0 0 0-.916.916m13.16 13.159H10.797a.916.916 0 0 1-.917-.916V9.777a.916.916 0 0 1 .917-.917h10.382c.506 0 .916.41.916.917v10.382c0 .506-.41.916-.916.916z"/><path d="M14.874 17.941h5.873v1.804h-5.873z"/></g></g></svg>