<svg xmlns="http://www.w3.org/2000/svg" xmlns:xlink="http://www.w3.org/1999/xlink" width="32" height="32" viewBox="0 0 32 32"><defs><filter id="qsp_svg-b" width="111.7%" height="111.7%" x="-5.8%" y="-4.2%" filterUnits="objectBoundingBox"><feOffset dy=".5" in="SourceAlpha" result="shadowOffsetOuter1"/><feGaussianBlur in="shadowOffsetOuter1" result="shadowBlurOuter1" stdDeviation=".5"/><feComposite in="shadowBlurOuter1" in2="SourceAlpha" operator="out" result="shadowBlurOuter1"/><feColorMatrix in="shadowBlurOuter1" values="0 0 0 0 0 0 0 0 0 0 0 0 0 0 0 0 0 0 0.199473505 0"/></filter><filter id="qsp_svg-e" width="119.4%" height="119.4%" x="-9.7%" y="-6.9%" filterUnits="objectBoundingBox"><feOffset dy=".5" in="SourceAlpha" result="shadowOffsetOuter1"/><feGaussianBlur in="shadowOffsetOuter1" result="shadowBlurOuter1" stdDeviation=".5"/><feColorMatrix in="shadowBlurOuter1" values="0 0 0 0 0 0 0 0 0 0 0 0 0 0 0 0 0 0 0.204257246 0"/></filter><linearGradient id="qsp_svg-c" x1="50%" x2="50%" y1="0%" y2="100%"><stop offset="0%" stop-color="#FFF" stop-opacity=".5"/><stop offset="100%" stop-opacity=".5"/></linearGradient><circle id="qsp_svg-a" cx="16" cy="15" r="15"/><path id="qsp_svg-d" d="M11.5 15c0-2.481 2.019-4.5 4.5-4.5s4.5 2.019 4.5 4.5c0 .653-.143 1.272-.394 1.833l-2.97-2.97-2.272 2.273 2.97 2.97A4.5 4.5 0 0 1 16 19.5a4.505 4.505 0 0 1-4.5-4.5m11.813 0a7.27 7.27 0 0 0-1.18-3.978L25 8.154 22.846 6l-2.868 2.868A7.27 7.27 0 0 0 16 7.687a7.27 7.27 0 0 0-3.978 1.18L9.154 6 7 8.154l2.868 2.868A7.27 7.27 0 0 0 8.687 15a7.3 7.3 0 0 0 1.181 3.978L7 21.846 9.154 24l2.868-2.868A7.27 7.27 0 0 0 16 22.313a7.27 7.27 0 0 0 3.978-1.181L22.846 24 25 21.846l-2.868-2.868A7.27 7.27 0 0 0 23.313 15"/></defs><g fill="none" fill-rule="evenodd"><use xlink:href="#qsp_svg-a" fill="#000" filter="url(#qsp_svg-b)"/><use xlink:href="#qsp_svg-a" fill="#454545"/><use xlink:href="#qsp_svg-a" fill="url(#qsp_svg-c)" style="mix-blend-mode:soft-light"/><circle cx="16" cy="15" r="14.5" stroke="#000" stroke-opacity=".097"/><use xlink:href="#qsp_svg-d" fill="#000" filter="url(#qsp_svg-e)"/><use xlink:href="#qsp_svg-d" fill="#FFF"/></g></svg>