<svg xmlns="http://www.w3.org/2000/svg" xmlns:xlink="http://www.w3.org/1999/xlink" width="32" height="32" viewBox="0 0 32 32"><defs><filter id="rads_svg-b" width="111.7%" height="111.7%" x="-5.8%" y="-4.2%" filterUnits="objectBoundingBox"><feOffset dy=".5" in="SourceAlpha" result="shadowOffsetOuter1"/><feGaussianBlur in="shadowOffsetOuter1" result="shadowBlurOuter1" stdDeviation=".5"/><feComposite in="shadowBlurOuter1" in2="SourceAlpha" operator="out" result="shadowBlurOuter1"/><feColorMatrix in="shadowBlurOuter1" values="0 0 0 0 0 0 0 0 0 0 0 0 0 0 0 0 0 0 0.199473505 0"/></filter><filter id="rads_svg-e" width="121%" height="121%" x="-10.5%" y="-7.5%" filterUnits="objectBoundingBox"><feOffset dy=".5" in="SourceAlpha" result="shadowOffsetOuter1"/><feGaussianBlur in="shadowOffsetOuter1" result="shadowBlurOuter1" stdDeviation=".5"/><feColorMatrix in="shadowBlurOuter1" values="0 0 0 0 0 0 0 0 0 0 0 0 0 0 0 0 0 0 0.204257246 0"/></filter><linearGradient id="rads_svg-c" x1="50%" x2="50%" y1="0%" y2="100%"><stop offset="0%" stop-color="#FFF" stop-opacity=".5"/><stop offset="100%" stop-opacity=".5"/></linearGradient><circle id="rads_svg-a" cx="16" cy="15" r="15"/><path id="rads_svg-d" d="M11.47 6.661a3.808 3.808 0 1 1 0 7.616 3.808 3.808 0 0 1 0-7.616m3.807 12.87a3.808 3.808 0 1 1-3.808-3.808 5.253 5.253 0 0 0 5.253-5.253 3.808 3.808 0 1 1 3.808 3.808 5.253 5.253 0 0 0-5.252 5.253zm5.253 3.808a3.808 3.808 0 1 1 0-7.616 3.808 3.808 0 0 1 0 7.616m0-2.66a1.148 1.148 0 1 0 0-2.296 1.148 1.148 0 0 0 0 2.296m-9.06 0a1.148 1.148 0 1 0 0-2.296 1.148 1.148 0 0 0 0 2.296m9.06-9.062a1.148 1.148 0 1 0 0-2.296 1.148 1.148 0 0 0 0 2.296m-9.06 0a1.148 1.148 0 1 0 0-2.296 1.148 1.148 0 0 0 0 2.296"/></defs><g fill="none" fill-rule="evenodd"><use xlink:href="#rads_svg-a" fill="#000" filter="url(#rads_svg-b)"/><use xlink:href="#rads_svg-a" fill="#9D4BEF"/><use xlink:href="#rads_svg-a" fill="url(#rads_svg-c)" style="mix-blend-mode:soft-light"/><circle cx="16" cy="15" r="14.5" stroke="#000" stroke-opacity=".097"/><g fill-rule="nonzero"><use xlink:href="#rads_svg-d" fill="#000" filter="url(#rads_svg-e)"/><use xlink:href="#rads_svg-d" fill="#FFF" fill-rule="evenodd"/></g></g></svg>