<svg version="1.0" xmlns="http://www.w3.org/2000/svg" width="266.667" height="266.667" viewBox="0 0 200 200"><path d="M82.3 2.1c-3.4.4-7.1 1.2-8.2 1.8C73 4.5 71.2 5 70.2 5c-1.1 0-3.7.8-5.9 1.9-2.1 1-6.3 3-9.3 4.5-8.5 4.1-10.2 5.3-19.9 14.1-9.9 9.1-13.8 13.1-15.7 16.5-1 1.6-2.2 3-2.6 3-.4 0-.8.5-.8 1.1 0 .6-.8 2.3-1.8 3.7C11.4 54 5.4 68.7 3.4 76.5 2 81.9 1.6 87.2 1.6 99.6c0 16.6.7 21 5.6 34.4 3.1 8.6 4.5 11.2 11.1 21.4 2.9 4.6 10.8 13.5 15.8 17.9 7.1 6.3 7.7 6.7 8.5 6.7.4 0 1.6.7 2.6 1.7 3 2.7 13.2 7.9 21.8 11.1 16.5 6 39 7.1 56.5 2.7 5.5-1.4 10.4-3 10.9-3.5.6-.6 1.7-1 2.4-1 1.3 0 14.5-6.9 19.6-10.3 7-4.6 23.6-21 23.6-23.4 0-.3.7-1.5 1.7-2.5 4.5-5 12.1-22.2 14.9-33.8 2.6-10.9 2.4-33.6-.5-44.5-3.7-14.3-8.2-24-16.4-35.5-4.9-6.8-17.5-19.4-21.7-21.5-1.6-.8-3-1.9-3-2.3 0-.4-1-1.2-2.3-1.8-1.2-.6-4-2-6.2-3.2C130.7 3.9 118.2 1 99 1.2c-5.8 0-13.3.4-16.7.9zm10.1 23.3c2.7 3 3.8 4.7 7.6 12.1l3.2 6-.5-10.3-.5-10.2h5.6c5.7 0 14.8 2.4 23.2 6.3 6.2 2.8 17 9.7 17 10.8 0 .5.5.9 1.2.9.6 0 2.4 1.4 4 3.2l2.8 3.2-4.7 2.2c-2.7 1.3-5.5 2.3-6.4 2.3-.9.1-2.9.8-4.5 1.5-2.3 1.3-3.1 1.3-5.3.1-8.9-4.6-12.8-5.5-25.4-5.5-8.3 0-13.6.5-15.8 1.4-6.6 2.7-7.9 2.9-7.3 1.1.7-1.7-2.7-13.5-3.8-13.5-.5 0-.8-.9-.8-1.9 0-1.1-.4-2.3-1-2.6-.5-.3-1-1.7-1-3.1 0-1.3-.4-2.4-.8-2.4-1.8 0-12 4.1-16.2 6.4-2.5 1.4-5.1 2.9-5.8 3.2-1.4.7-5.3 4-11.5 9.6-6.7 6.1-5.7 3.2 1-3.3 3.5-3.2 6.5-5.9 6.7-5.9.3 0 2.2-1.2 4.3-2.6 4.9-3.3 12.1-6.6 20.3-9.2 8.6-2.8 11.8-2.8 14.4.2zm81.6 23c0 1.6-1.4 3.6-2.5 3.6-.7 0-1.5.7-1.9 1.5-.3.8-1.2 1.5-2.1 1.5-.8 0-1.5.4-1.5.8 0 .5-4.7 4.5-10.5 9.1-9.4 7.3-10.5 8.5-10.5 11.4 0 3.9-4.2 13.1-6.4 14.4-1.9 1-1.2 4.3.9 4.3.7 0 1.5.7 1.9 1.5.3.8 1.1 1.5 1.8 1.5 2.1 0 6.1 6.6 5.3 8.9-2.1 6.7-22.3 15.9-26.2 12-1.4-1.4-11.5-1.6-19.8-.5-5 .6-6.7.4-10.5-1.3-5.9-2.6-11.1-8.1-13.2-13.9l-1.6-4.7-.1 5.5c-.1 6 1.4 9.1 6.4 13.2 5 4 8.3 5.8 10.7 5.8 3.5 0 4.4 1 6.2 7 3.5 11 6.3 16.5 13.1 26 4.3 6 8.2 10.1 12.1 12.6 1.9 1.3 2.2 2 1.3 3-.6.8-2.1 1.4-3.3 1.4-1.1 0-4.3.7-7 1.5-11.6 3.5-39.2-.3-48.8-6.7-1.4-1-3.3-1.8-4.2-1.8-.9 0-1.6-.4-1.6-.8 0-.5-1.6-1.7-3.5-2.8-1.9-1-3.5-2.2-3.5-2.6 0-.5-.6-.8-1.2-.8-2.5-.1-4.9-5.1-6.4-13.7-2.8-15.3-2-32.8 1.8-43.8 2.1-5.8 8-17.5 8.9-17.5.5 0 .9-.6.9-1.3 0-.6 1.6-2.8 3.5-4.7 1.9-1.9 3.5-3.8 3.5-4.2 0-.4.7-.8 1.5-.8.7 0 1.8-.6 2.2-1.3 1.1-1.8 11-8.8 15.3-10.8 11.5-5.3 14.5-6 26.3-6 10.6 0 12.2.3 18.4 2.9l6.8 2.9 5-1.7c2.8-.9 9.9-3.4 16-5.4 6-2.1 11.6-4.1 12.5-4.6 1.6-1 4-1.3 4-.6zM63.5 60c2.1.6.6.8-5 .7-4.4 0-10.5.3-13.5.6-6.2.8-5.6.1 1.1-1.2C51.5 59 59.5 59 63.5 60zM35 62.7c-.8.3-2.3 1.2-3.2 2.1-1 .8-1.8 1.1-1.8.6 0-1.7 2.3-3.4 4.5-3.3 1.4 0 1.6.2.5.6zM29 71c-.6 1.2-1.4 1.9-1.7 1.6-.4-.3 0-1.8.8-3.2.7-1.4 1.5-2.1 1.7-1.5.2.5-.2 2-.8 3.1zm-3.3 10.2c-.9 2.9-1.8 6.2-2 7.3-.4 1.6-.5 1.4-.6-.6-.1-3.1 2.8-13.3 3.6-12.5.3.3-.1 2.9-1 5.8zm-11.4 39.7c1 2.4 1.7 5 1.7 5.7 0 2.2 7.1 16.5 11.2 22.5 4.3 6.2 13.7 16.3 16.2 17.2.9.4 1.6 1.1 1.6 1.6s2.1 2.2 4.8 3.7c2.6 1.5 4.9 3 5.2 3.4.7.8 8.8 4.6 12 5.5 1.4.4 3.4 1.4 4.5 2.1 1.1.8 3.1 1.4 4.5 1.4s4.7.7 7.4 1.5c10.7 3.2 33.9 1.5 47.1-3.6 2.8-1 5.6-1.9 6.2-1.9.6 0 3.3-1.1 6-2.5 7.7-4.1 9.9-5.6 17.2-12 4.7-4.1 3.9-2.3-1.2 2.7-5.2 5.2-19.7 13.5-28.7 16.4-7.9 2.5-23.9 5.4-30.4 5.4-6.1 0-21.4-2.7-28.6-5.1-3.5-1.1-18.1-8-19-8.9-.3-.3-3.2-2.5-6.4-4.9-7.1-5.3-11.5-9.7-17-17.1-2.2-3-4.3-5.7-4.6-6-1-.9-7.8-15.5-9.8-21-2.9-7.8-4.2-19.1-3.4-29l.7-8.5.6 13.5c.4 8.8 1.2 15 2.2 17.9zM28 98.4c0-.4.9.1 2 1.1s2 1.5 2 1.2c0-.4 2 .2 4.4 1.3 2.4 1 4.7 1.5 5.1 1.2.4-.4.3.7-.1 2.3-1.1 3.9-1.1 35.7-.1 41.4l.8 4.3-2.4-2.8c-6.7-8.2-9.9-14.2-14.4-27.2-2.3-6.5-2.5-8.2-1.8-15.7.6-7.9.8-8.4 2.6-7.5 1 .6 1.9.8 1.9.4zm153.3 39.1c-.3.9-.8 1.4-1 1.1-.3-.3-.2-.9.2-1.5.9-1.6 1.5-1.3.8.4zm-7.2 12.8c-1 .9-1.1.8-.5-.6.3-1 .9-1.5 1.2-1.2.3.3 0 1.1-.7 1.8zm-55.6 1.7c1 1.1 1.6 2 1.3 2-.3 0-1.3-.9-2.3-2-1-1.1-1.6-2-1.3-2 .3 0 1.3.9 2.3 2zm54.5.4c0 .2-.8 1-1.7 1.7-1.6 1.3-1.7 1.2-.4-.4 1.3-1.6 2.1-2.1 2.1-1.3zm-3.6 5c-.3.8-1.3 1.7-2.2 2.1-1.3.5-1.3.2.3-1.5 2.1-2.4 2.6-2.5 1.9-.6zm-38.9 6.6c1 1.1 1.6 2 1.3 2-.3 0-1.3-.9-2.3-2-1-1.1-1.6-2-1.3-2 .3 0 1.3.9 2.3 2zm6.6 4.7c1.3 1.7 1.3 1.7-.6.3-1.1-.8-2.2-1.6-2.4-1.7-.2-.2 0-.3.6-.3s1.7.8 2.4 1.7z"/><path d="M121.7 75.5c-2.3 3.1-3.1 7.5-2.3 12 .6 3 1.1 3.5 3.5 3.5 2.7 0 7.1-4.4 7.1-7.1 0-1-5.8-11-6.4-10.9 0 0-.9 1.2-1.9 2.5z"/></svg>