<svg xmlns="http://www.w3.org/2000/svg" xmlns:xlink="http://www.w3.org/1999/xlink" width="32" height="32" viewBox="0 0 32 32"><defs><linearGradient id="rdd_svg-c" x1="50%" x2="50%" y1="0%" y2="100%"><stop offset="0%" stop-color="#FFF" stop-opacity=".5"/><stop offset="100%" stop-opacity=".5"/></linearGradient><filter id="rdd_svg-b" width="111.7%" height="111.7%" x="-5.8%" y="-4.2%" filterUnits="objectBoundingBox"><feOffset dy=".5" in="SourceAlpha" result="shadowOffsetOuter1"/><feGaussianBlur in="shadowOffsetOuter1" result="shadowBlurOuter1" stdDeviation=".5"/><feComposite in="shadowBlurOuter1" in2="SourceAlpha" operator="out" result="shadowBlurOuter1"/><feColorMatrix in="shadowBlurOuter1" values="0 0 0 0 0 0 0 0 0 0 0 0 0 0 0 0 0 0 0.199473505 0"/></filter><circle id="rdd_svg-a" cx="16" cy="15" r="15"/></defs><g fill="none" fill-rule="evenodd"><use xlink:href="#rdd_svg-a" fill="#000" filter="url(#rdd_svg-b)"/><use xlink:href="#rdd_svg-a" fill="#E30613"/><use xlink:href="#rdd_svg-a" fill="url(#rdd_svg-c)" style="mix-blend-mode:soft-light"/><circle cx="16" cy="15" r="14.5" stroke="#000" stroke-opacity=".097"/><g fill="#FFF"><path d="M15.361 26C9.64 26 5 21.407 5 15.742S9.639 5.484 15.361 5.484s10.362 4.593 10.362 10.258S21.083 26 15.36 26zM17.15 8.423c2.416.989 4.152 2.85 5.384 5.358l.93-.647c-1.044-2.512-2.973-4.486-6.076-5.766z" opacity=".75"/><path fill-rule="nonzero" d="M26.992 8.321C26.992 5.935 25.037 4 22.627 4s-4.365 1.935-4.365 4.321q0 .342.054.68c1.453.846 2.62 2.06 3.553 3.576q.376.065.758.066c2.41 0 4.365-1.935 4.365-4.322"/></g></g></svg>