<svg xmlns="http://www.w3.org/2000/svg" xmlns:xlink="http://www.w3.org/1999/xlink" width="32" height="32" viewBox="0 0 32 32"><defs><filter id="rdn_svg-b" width="111.7%" height="111.7%" x="-5.8%" y="-4.2%" filterUnits="objectBoundingBox"><feOffset dy=".5" in="SourceAlpha" result="shadowOffsetOuter1"/><feGaussianBlur in="shadowOffsetOuter1" result="shadowBlurOuter1" stdDeviation=".5"/><feComposite in="shadowBlurOuter1" in2="SourceAlpha" operator="out" result="shadowBlurOuter1"/><feColorMatrix in="shadowBlurOuter1" values="0 0 0 0 0 0 0 0 0 0 0 0 0 0 0 0 0 0 0.199473505 0"/></filter><filter id="rdn_svg-e" width="126.9%" height="117.5%" x="-13.5%" y="-6.2%" filterUnits="objectBoundingBox"><feOffset dy=".5" in="SourceAlpha" result="shadowOffsetOuter1"/><feGaussianBlur in="shadowOffsetOuter1" result="shadowBlurOuter1" stdDeviation=".5"/><feColorMatrix in="shadowBlurOuter1" values="0 0 0 0 0 0 0 0 0 0 0 0 0 0 0 0 0 0 0.204257246 0"/></filter><linearGradient id="rdn_svg-c" x1="50%" x2="50%" y1="0%" y2="100%"><stop offset="0%" stop-color="#FFF" stop-opacity=".5"/><stop offset="100%" stop-opacity=".5"/></linearGradient><circle id="rdn_svg-a" cx="16" cy="15" r="15"/><path id="rdn_svg-d" d="M10 5.006h8.111c.098-.03.148.06.212.11a15 15 0 0 1 2.046 2.39 15.2 15.2 0 0 1 1.972 3.946c.482 1.484.71 3.054.65 4.614h-4.135a5 5 0 0 0 .022-.624c-.043-1.471-.497-2.914-1.212-4.192-.765-1.369-1.833-2.55-3.047-3.531-1.322-1.069-2.81-1.913-4.36-2.595-.086-.04-.176-.072-.259-.118m3.002 7.327a4715 4715 0 0 1 4.155 7.533c.333.606.67 1.21 1 1.817C16.436 22.785 14.72 23.897 13 25V12.333z"/></defs><g fill="none"><use xlink:href="#rdn_svg-a" fill="#000" filter="url(#rdn_svg-b)"/><use xlink:href="#rdn_svg-a" fill="#2A2A2A" fill-rule="evenodd"/><use xlink:href="#rdn_svg-a" fill="url(#rdn_svg-c)" fill-rule="evenodd" style="mix-blend-mode:soft-light"/><circle cx="16" cy="15" r="14.5" stroke="#000" stroke-opacity=".097"/><use xlink:href="#rdn_svg-d" fill="#000" filter="url(#rdn_svg-e)"/><use xlink:href="#rdn_svg-d" fill="#FFF" fill-rule="evenodd"/></g></svg>