<svg xmlns="http://www.w3.org/2000/svg" xmlns:xlink="http://www.w3.org/1999/xlink" width="32" height="32" viewBox="0 0 32 32"><defs><filter id="repv2_svg-b" width="111.7%" height="111.7%" x="-5.8%" y="-4.2%" filterUnits="objectBoundingBox"><feOffset dy=".5" in="SourceAlpha" result="shadowOffsetOuter1"/><feGaussianBlur in="shadowOffsetOuter1" result="shadowBlurOuter1" stdDeviation=".5"/><feComposite in="shadowBlurOuter1" in2="SourceAlpha" operator="out" result="shadowBlurOuter1"/><feColorMatrix in="shadowBlurOuter1" values="0 0 0 0 0 0 0 0 0 0 0 0 0 0 0 0 0 0 0.199473505 0"/></filter><filter id="repv2_svg-d"><feColorMatrix in="SourceGraphic" values="0 0 0 0 1.000000 0 0 0 0 1.000000 0 0 0 0 1.000000 0 0 0 1.000000 0"/></filter><filter id="repv2_svg-e" width="141.7%" height="137.5%" x="-20.8%" y="-18.8%" filterUnits="objectBoundingBox"><feOffset dy=".5" in="SourceAlpha" result="shadowOffsetOuter1"/><feGaussianBlur in="shadowOffsetOuter1" result="shadowBlurOuter1" stdDeviation=".5"/><feColorMatrix in="shadowBlurOuter1" result="shadowMatrixOuter1" values="0 0 0 0 0 0 0 0 0 0 0 0 0 0 0 0 0 0 0.204257246 0"/><feMerge><feMergeNode in="shadowMatrixOuter1"/><feMergeNode in="SourceGraphic"/></feMerge></filter><linearGradient id="repv2_svg-c" x1="50%" x2="50%" y1="0%" y2="100%"><stop offset="0%" stop-color="#FFF" stop-opacity=".5"/><stop offset="100%" stop-opacity=".5"/></linearGradient><circle id="repv2_svg-a" cx="16" cy="15" r="15"/></defs><g fill="none" fill-rule="evenodd"><use xlink:href="#repv2_svg-a" fill="#000" filter="url(#repv2_svg-b)"/><use xlink:href="#repv2_svg-a" fill="#0E0E21"/><use xlink:href="#repv2_svg-a" fill="url(#repv2_svg-c)" style="mix-blend-mode:soft-light"/><circle cx="16" cy="15" r="14.5" stroke="#000" stroke-linejoin="square" stroke-opacity=".097"/><g filter="url(#repv2_svg-d)"><g filter="url(#repv2_svg-e)" transform="translate(7 5)"><path fill="#FFF" d="M4.55 9.495 3.31 8.69a.25.25 0 0 1-.079-.337L8.015.242A.49.49 0 0 1 8.435 0h1.129a.49.49 0 0 1 .42.242l4.784 8.111a.25.25 0 0 1-.079.337l-1.24.805a.244.244 0 0 1-.341-.082L9.105 2.627a.122.122 0 0 0-.21 0L4.892 9.413a.243.243 0 0 1-.342.082m11.477.995 1.904 3.228a.504.504 0 0 1-.155.674l-8.51 5.53a.48.48 0 0 1-.53 0l-8.51-5.53a.5.5 0 0 1-.156-.674l1.904-3.228a.243.243 0 0 1 .342-.082l1.24.805a.25.25 0 0 1 .078.337l-1.088 1.845a.127.127 0 0 0 .04.168l6.348 4.125c.04.027.09.027.131 0l6.35-4.125a.125.125 0 0 0 .04-.168l-1.088-1.845a.25.25 0 0 1 .079-.337l1.24-.805a.243.243 0 0 1 .341.082"/></g></g></g></svg>