<svg xmlns="http://www.w3.org/2000/svg" xmlns:xlink="http://www.w3.org/1999/xlink" width="32" height="32" viewBox="0 0 32 32"><defs><filter id="ric_svg-b" width="111.7%" height="111.7%" x="-5.8%" y="-4.2%" filterUnits="objectBoundingBox"><feOffset dy=".5" in="SourceAlpha" result="shadowOffsetOuter1"/><feGaussianBlur in="shadowOffsetOuter1" result="shadowBlurOuter1" stdDeviation=".5"/><feComposite in="shadowBlurOuter1" in2="SourceAlpha" operator="out" result="shadowBlurOuter1"/><feColorMatrix in="shadowBlurOuter1" values="0 0 0 0 0 0 0 0 0 0 0 0 0 0 0 0 0 0 0.199473505 0"/></filter><filter id="ric_svg-e" width="117.5%" height="120.6%" x="-8.8%" y="-7.4%" filterUnits="objectBoundingBox"><feOffset dy=".5" in="SourceAlpha" result="shadowOffsetOuter1"/><feGaussianBlur in="shadowOffsetOuter1" result="shadowBlurOuter1" stdDeviation=".5"/><feColorMatrix in="shadowBlurOuter1" values="0 0 0 0 0 0 0 0 0 0 0 0 0 0 0 0 0 0 0.204257246 0"/></filter><linearGradient id="ric_svg-c" x1="50%" x2="50%" y1="0%" y2="100%"><stop offset="0%" stop-color="#FFF" stop-opacity=".5"/><stop offset="100%" stop-opacity=".5"/></linearGradient><circle id="ric_svg-a" cx="16" cy="15" r="15"/><path id="ric_svg-d" d="M10.144 19.024q.45-.682.852-1.28H7.932a.093.093 0 0 1-.093-.093v-.636c0-.051.042-.093.093-.093h3.622c1.937-2.829 2.905-3.994 2.905-4.113 0-.183-.04-.274-.7-.274-1.304 0-3.449-.931-3.449-3.473C10.31 7.679 12.547 6 13.853 6c.606 0 .699.257.42.274-.746.046-2.378 1.536-2.378 2.97 0 .96.852 2.605 2.75 2.605 2.242 0 4.157-3.564 8.812-3.564 2.797 0 3.543 2.188 3.543 2.788s-.873.914-2.051.914-1.222-2.103-3.59-2.103c-3.718 0-6.884 4.026-8.405 7.038h2.624c.052 0 .093.042.093.093v.636a.093.093 0 0 1-.093.094h-3.01c-.208.48-.363.915-.46 1.28h2.63c.052 0 .094.04.094.092v.637a.093.093 0 0 1-.093.093H11.99q.073 1.749 2.936 3.153h-7.32a185 185 0 0 1 2-3.153H7.094A.093.093 0 0 1 7 19.754v-.637c0-.051.042-.093.093-.093z"/></defs><g fill="none" fill-rule="evenodd"><use xlink:href="#ric_svg-a" fill="#000" filter="url(#ric_svg-b)"/><use xlink:href="#ric_svg-a" fill="#60E4DD"/><use xlink:href="#ric_svg-a" fill="url(#ric_svg-c)" style="mix-blend-mode:soft-light"/><circle cx="16" cy="15" r="14.5" stroke="#000" stroke-opacity=".097"/><use xlink:href="#ric_svg-d" fill="#000" filter="url(#ric_svg-e)"/><use xlink:href="#ric_svg-d" fill="#FFF"/></g></svg>