<svg xmlns="http://www.w3.org/2000/svg" xmlns:xlink="http://www.w3.org/1999/xlink" width="32" height="32" viewBox="0 0 32 32"><defs><filter id="rub_svg-b" width="111.7%" height="111.7%" x="-5.8%" y="-4.2%" filterUnits="objectBoundingBox"><feOffset dy=".5" in="SourceAlpha" result="shadowOffsetOuter1"/><feGaussianBlur in="shadowOffsetOuter1" result="shadowBlurOuter1" stdDeviation=".5"/><feComposite in="shadowBlurOuter1" in2="SourceAlpha" operator="out" result="shadowBlurOuter1"/><feColorMatrix in="shadowBlurOuter1" values="0 0 0 0 0 0 0 0 0 0 0 0 0 0 0 0 0 0 0.199473505 0"/></filter><filter id="rub_svg-e" width="129.2%" height="119.4%" x="-14.6%" y="-6.9%" filterUnits="objectBoundingBox"><feOffset dy=".5" in="SourceAlpha" result="shadowOffsetOuter1"/><feGaussianBlur in="shadowOffsetOuter1" result="shadowBlurOuter1" stdDeviation=".5"/><feColorMatrix in="shadowBlurOuter1" values="0 0 0 0 0 0 0 0 0 0 0 0 0 0 0 0 0 0 0.204257246 0"/></filter><linearGradient id="rub_svg-c" x1="50%" x2="50%" y1="0%" y2="100%"><stop offset="0%" stop-color="#FFF" stop-opacity=".5"/><stop offset="100%" stop-opacity=".5"/></linearGradient><circle id="rub_svg-a" cx="16" cy="15" r="15"/><path id="rub_svg-d" d="M10.5 14.238h1.764V6h4.547q1.266 0 2.31.297t1.789.904 1.168 1.536.422 2.221c0 1.291-.15 1.61-.447 2.247a4.5 4.5 0 0 1-1.218 1.588 5.1 5.1 0 0 1-1.813.943 8 8 0 0 1-2.261.31h-2.51v2.608h4v1.705h-4V24h-1.987v-3.641H10.5v-1.705h1.764v-2.608H10.5zm6.31 0q1.715 0 2.696-.813.982-.814.982-2.467 0-1.652-.982-2.401-.982-.75-2.695-.75h-2.56v6.431h2.56z"/></defs><g fill="none" fill-rule="evenodd"><use xlink:href="#rub_svg-a" fill="#000" filter="url(#rub_svg-b)"/><use xlink:href="#rub_svg-a" fill="#64D1FF"/><use xlink:href="#rub_svg-a" fill="url(#rub_svg-c)" style="mix-blend-mode:soft-light"/><circle cx="16" cy="15" r="14.5" stroke="#000" stroke-opacity=".097"/><use xlink:href="#rub_svg-d" fill="#000" filter="url(#rub_svg-e)"/><use xlink:href="#rub_svg-d" fill="#FFF"/></g></svg>