<svg xmlns="http://www.w3.org/2000/svg" xmlns:xlink="http://www.w3.org/1999/xlink" width="32" height="32" viewBox="0 0 32 32"><defs><filter id="rvn_svg-b" width="111.7%" height="111.7%" x="-5.8%" y="-4.2%" filterUnits="objectBoundingBox"><feOffset dy=".5" in="SourceAlpha" result="shadowOffsetOuter1"/><feGaussianBlur in="shadowOffsetOuter1" result="shadowBlurOuter1" stdDeviation=".5"/><feComposite in="shadowBlurOuter1" in2="SourceAlpha" operator="out" result="shadowBlurOuter1"/><feColorMatrix in="shadowBlurOuter1" values="0 0 0 0 0 0 0 0 0 0 0 0 0 0 0 0 0 0 0.199473505 0"/></filter><filter id="rvn_svg-e" width="126.9%" height="115.9%" x="-13.5%" y="-5.7%" filterUnits="objectBoundingBox"><feOffset dy=".5" in="SourceAlpha" result="shadowOffsetOuter1"/><feGaussianBlur in="shadowOffsetOuter1" result="shadowBlurOuter1" stdDeviation=".5"/><feColorMatrix in="shadowBlurOuter1" values="0 0 0 0 0 0 0 0 0 0 0 0 0 0 0 0 0 0 0.204257246 0"/></filter><linearGradient id="rvn_svg-c" x1="50%" x2="50%" y1="0%" y2="100%"><stop offset="0%" stop-color="#FFF" stop-opacity=".5"/><stop offset="100%" stop-opacity=".5"/></linearGradient><circle id="rvn_svg-a" cx="16" cy="15" r="15"/><path id="rvn_svg-d" d="m9.5 26 3.618-16.789 2.03 12.6zm3.688-16.885 5.497 12.709-3.443-.06-2.054-12.65zm.082-.096 7.2 1.023-1.668 11.782zm5.66 12.624 1.623-11.493 1.062 1.348zm1.517-11.71-7.026-.999 6.326-2.082zm-7.06-1.107 4.306-2.985 2.054.903zm-.106-.036.83-1.589 3.512-1.408zm.83-1.66.396-1.24 2.894-.097zm.373-1.337.933-.999 2.008.903zm.992-1.059 1.4-.686 1.81 2.118zm1.599-.602 2.089.915-.374 1.131zm1.785 2.082.385-1.155.467 1.589zM16.923 4h1.529l.757.842a.048.048 0 0 1-.054.076zm2.416.963 3.11.868a.072.072 0 0 1 0 .14l-2.643.725z"/></defs><g fill="none" fill-rule="evenodd"><use xlink:href="#rvn_svg-a" fill="#000" filter="url(#rvn_svg-b)"/><use xlink:href="#rvn_svg-a" fill="#384182"/><use xlink:href="#rvn_svg-a" fill="url(#rvn_svg-c)" style="mix-blend-mode:soft-light"/><circle cx="16" cy="15" r="14.5" stroke="#000" stroke-opacity=".097"/><use xlink:href="#rvn_svg-d" fill="#000" filter="url(#rvn_svg-e)"/><use xlink:href="#rvn_svg-d" fill="#FFF"/></g></svg>