<svg xmlns="http://www.w3.org/2000/svg" xmlns:xlink="http://www.w3.org/1999/xlink" width="32" height="32" viewBox="0 0 32 32"><defs><linearGradient id="ryo_svg-c" x1="50%" x2="50%" y1="0%" y2="100%"><stop offset="0%" stop-color="#FFF" stop-opacity=".5"/><stop offset="100%" stop-opacity=".5"/></linearGradient><filter id="ryo_svg-b" width="111.7%" height="111.7%" x="-5.8%" y="-4.2%" filterUnits="objectBoundingBox"><feOffset dy=".5" in="SourceAlpha" result="shadowOffsetOuter1"/><feGaussianBlur in="shadowOffsetOuter1" result="shadowBlurOuter1" stdDeviation=".5"/><feComposite in="shadowBlurOuter1" in2="SourceAlpha" operator="out" result="shadowBlurOuter1"/><feColorMatrix in="shadowBlurOuter1" values="0 0 0 0 0 0 0 0 0 0 0 0 0 0 0 0 0 0 0.199473505 0"/></filter><circle id="ryo_svg-a" cx="15" cy="15" r="15"/></defs><g fill="none"><g transform="translate(1)"><use xlink:href="#ryo_svg-a" fill="#000" filter="url(#ryo_svg-b)"/><use xlink:href="#ryo_svg-a" fill="#3D58B0"/><use xlink:href="#ryo_svg-a" fill="url(#ryo_svg-c)" style="mix-blend-mode:soft-light"/><circle cx="15" cy="15" r="14.5" stroke="#000" stroke-linejoin="square" stroke-opacity=".097"/></g><g fill="#FFF"><path d="M15.987 4C9.927 4 5 8.928 5 14.987s4.928 10.986 10.987 10.986 10.987-4.927 10.987-10.986S22.046 4 15.987 4m0 1.496a9.48 9.48 0 0 1 9.49 9.49 9.48 9.48 0 0 1-9.49 9.491 9.48 9.48 0 0 1-9.49-9.49 9.48 9.48 0 0 1 9.49-9.49z"/><path d="M11.905 10.93v8.114h8.164V10.93zm1.33 1.33h5.504v5.454h-5.504z"/></g></g></svg>