<svg xmlns="http://www.w3.org/2000/svg" xmlns:xlink="http://www.w3.org/1999/xlink" width="32" height="32" viewBox="0 0 32 32"><defs><filter id="sberbank_svg-b" width="111.7%" height="111.7%" x="-5.8%" y="-4.2%" filterUnits="objectBoundingBox"><feOffset dy=".5" in="SourceAlpha" result="shadowOffsetOuter1"/><feGaussianBlur in="shadowOffsetOuter1" result="shadowBlurOuter1" stdDeviation=".5"/><feComposite in="shadowBlurOuter1" in2="SourceAlpha" operator="out" result="shadowBlurOuter1"/><feColorMatrix in="shadowBlurOuter1" values="0 0 0 0 0 0 0 0 0 0 0 0 0 0 0 0 0 0 0.199473505 0"/></filter><filter id="sberbank_svg-e" width="115.9%" height="116.7%" x="-8%" y="-6%" filterUnits="objectBoundingBox"><feOffset dy=".5" in="SourceAlpha" result="shadowOffsetOuter1"/><feGaussianBlur in="shadowOffsetOuter1" result="shadowBlurOuter1" stdDeviation=".5"/><feColorMatrix in="shadowBlurOuter1" values="0 0 0 0 0 0 0 0 0 0 0 0 0 0 0 0 0 0 0.204257246 0"/></filter><linearGradient id="sberbank_svg-c" x1="50%" x2="50%" y1="0%" y2="100%"><stop offset="0%" stop-color="#FFF" stop-opacity=".5"/><stop offset="100%" stop-opacity=".5"/></linearGradient><circle id="sberbank_svg-a" cx="16" cy="15" r="15"/><path id="sberbank_svg-d" d="m22.681 6.368.945.858-11.932 6.812-5.776-3.325.54-1.073 5.236 2.977zM20.279 5l1.268.644-9.853 5.632-4.588-2.602.782-.938 3.806 2.172L20.28 5zm4.184 3.111.701.939-13.47 7.697-6.505-3.701.297-1.18 6.208 3.54zm1.943 3.46Q27 13.234 27 15.057q0 1.825-.594 3.54l-.27.725a11.1 11.1 0 0 1-2.348 3.486 10.9 10.9 0 0 1-3.51 2.307Q18.201 26 15.987 26q-2.241 0-4.293-.885a11.3 11.3 0 0 1-3.482-2.307 10.6 10.6 0 0 1-2.348-3.486c-.57-1.35-.865-2.8-.864-4.265v-.724l6.694 3.782 14.118-8.046z"/></defs><g fill="none" fill-rule="evenodd"><g fill-rule="nonzero"><use xlink:href="#sberbank_svg-a" fill="#000" filter="url(#sberbank_svg-b)"/><use xlink:href="#sberbank_svg-a" fill="#48B254" fill-rule="evenodd"/><use xlink:href="#sberbank_svg-a" fill="url(#sberbank_svg-c)" fill-rule="evenodd" style="mix-blend-mode:soft-light"/><circle cx="16" cy="15" r="14.5" stroke="#000" stroke-opacity=".097"/></g><use xlink:href="#sberbank_svg-d" fill="#000" filter="url(#sberbank_svg-e)"/><use xlink:href="#sberbank_svg-d" fill="#FFF"/></g></svg>