<svg xmlns="http://www.w3.org/2000/svg" xmlns:xlink="http://www.w3.org/1999/xlink" width="32" height="32" viewBox="0 0 32 32"><defs><filter id="sc_svg-b" width="111.7%" height="111.7%" x="-5.8%" y="-4.2%" filterUnits="objectBoundingBox"><feOffset dy=".5" in="SourceAlpha" result="shadowOffsetOuter1"/><feGaussianBlur in="shadowOffsetOuter1" result="shadowBlurOuter1" stdDeviation=".5"/><feComposite in="shadowBlurOuter1" in2="SourceAlpha" operator="out" result="shadowBlurOuter1"/><feColorMatrix in="shadowBlurOuter1" values="0 0 0 0 0 0 0 0 0 0 0 0 0 0 0 0 0 0 0.199473505 0"/></filter><filter id="sc_svg-e" width="120.6%" height="120.6%" x="-10.3%" y="-7.4%" filterUnits="objectBoundingBox"><feOffset dy=".5" in="SourceAlpha" result="shadowOffsetOuter1"/><feGaussianBlur in="shadowOffsetOuter1" result="shadowBlurOuter1" stdDeviation=".5"/><feColorMatrix in="shadowBlurOuter1" values="0 0 0 0 0 0 0 0 0 0 0 0 0 0 0 0 0 0 0.204257246 0"/></filter><linearGradient id="sc_svg-c" x1="50%" x2="50%" y1="0%" y2="100%"><stop offset="0%" stop-color="#FFF" stop-opacity=".5"/><stop offset="100%" stop-opacity=".5"/></linearGradient><circle id="sc_svg-a" cx="16" cy="15" r="15"/><path id="sc_svg-d" d="M16 6.5a8.5 8.5 0 0 1 8.5 8.5v8.5H16a8.5 8.5 0 1 1 0-17m5.1 13.6v-5.023c0-2.82-2.255-5.163-5.074-5.177a5.106 5.106 0 0 0-5.126 5.126c.014 2.819 2.358 5.074 5.177 5.074z"/></defs><g fill="none" fill-rule="evenodd"><use xlink:href="#sc_svg-a" fill="#000" filter="url(#sc_svg-b)"/><use xlink:href="#sc_svg-a" fill="#20EE82"/><use xlink:href="#sc_svg-a" fill="url(#sc_svg-c)" style="mix-blend-mode:soft-light"/><circle cx="16" cy="15" r="14.5" stroke="#000" stroke-opacity=".097"/><use xlink:href="#sc_svg-d" fill="#000" filter="url(#sc_svg-e)"/><use xlink:href="#sc_svg-d" fill="#FFF"/></g></svg>