<svg xmlns="http://www.w3.org/2000/svg" xmlns:xlink="http://www.w3.org/1999/xlink" width="32" height="32" viewBox="0 0 32 32"><defs><linearGradient id="sib_svg-c" x1="50%" x2="50%" y1="0%" y2="100%"><stop offset="0%" stop-color="#FFF" stop-opacity=".5"/><stop offset="100%" stop-opacity=".5"/></linearGradient><filter id="sib_svg-b" width="111.7%" height="111.7%" x="-5.8%" y="-4.2%" filterUnits="objectBoundingBox"><feOffset dy=".5" in="SourceAlpha" result="shadowOffsetOuter1"/><feGaussianBlur in="shadowOffsetOuter1" result="shadowBlurOuter1" stdDeviation=".5"/><feComposite in="shadowBlurOuter1" in2="SourceAlpha" operator="out" result="shadowBlurOuter1"/><feColorMatrix in="shadowBlurOuter1" values="0 0 0 0 0 0 0 0 0 0 0 0 0 0 0 0 0 0 0.199473505 0"/></filter><circle id="sib_svg-a" cx="15" cy="15" r="15"/></defs><g fill="none"><g transform="translate(1)"><use xlink:href="#sib_svg-a" fill="#000" filter="url(#sib_svg-b)"/><use xlink:href="#sib_svg-a" fill="#057BC1"/><use xlink:href="#sib_svg-a" fill="url(#sib_svg-c)" style="mix-blend-mode:soft-light"/><circle cx="15" cy="15" r="14.5" stroke="#000" stroke-linejoin="square" stroke-opacity=".097"/></g><path fill="#FFF" d="M16 4C9.925 4 5 8.925 5 15s4.925 11 11 11 11-4.925 11-11A11 11 0 0 0 16 4m3.828 15.15h-.448v2.504h-1.502V19.15h-2.29v-.93h2.326v-1.682a5.9 5.9 0 0 1-3.97.644c-.752-.179-1.503-.59-1.897-1.27a4.2 4.2 0 0 1-.536-2.182V9.76h1.52v4.113c.036.894.608 1.789 1.484 2.057a4.58 4.58 0 0 0 3.38-.537c0-1.252-.017-3.13 0-5.634h1.54v8.46h.393z"/></g></svg>