<svg xmlns="http://www.w3.org/2000/svg" xmlns:xlink="http://www.w3.org/1999/xlink" width="32" height="32" viewBox="0 0 32 32"><defs><filter id="sin_svg-b" width="111.7%" height="111.7%" x="-5.8%" y="-4.2%" filterUnits="objectBoundingBox"><feOffset dy=".5" in="SourceAlpha" result="shadowOffsetOuter1"/><feGaussianBlur in="shadowOffsetOuter1" result="shadowBlurOuter1" stdDeviation=".5"/><feComposite in="shadowBlurOuter1" in2="SourceAlpha" operator="out" result="shadowBlurOuter1"/><feColorMatrix in="shadowBlurOuter1" values="0 0 0 0 0 0 0 0 0 0 0 0 0 0 0 0 0 0 0.199473505 0"/></filter><filter id="sin_svg-d"><feColorMatrix in="SourceGraphic" values="0 0 0 0 1.000000 0 0 0 0 1.000000 0 0 0 0 1.000000 0 0 0 1.000000 0"/></filter><filter id="sin_svg-e" width="137.5%" height="137.5%" x="-18.8%" y="-18.8%" filterUnits="objectBoundingBox"><feOffset dy=".5" in="SourceAlpha" result="shadowOffsetOuter1"/><feGaussianBlur in="shadowOffsetOuter1" result="shadowBlurOuter1" stdDeviation=".5"/><feColorMatrix in="shadowBlurOuter1" result="shadowMatrixOuter1" values="0 0 0 0 0 0 0 0 0 0 0 0 0 0 0 0 0 0 0.204257246 0"/><feMerge><feMergeNode in="shadowMatrixOuter1"/><feMergeNode in="SourceGraphic"/></feMerge></filter><linearGradient id="sin_svg-c" x1="50%" x2="50%" y1="0%" y2="100%"><stop offset="0%" stop-color="#FFF" stop-opacity=".5"/><stop offset="100%" stop-opacity=".5"/></linearGradient><circle id="sin_svg-a" cx="16" cy="15" r="15"/></defs><g fill="none" fill-rule="evenodd"><use xlink:href="#sin_svg-a" fill="#000" filter="url(#sin_svg-b)"/><use xlink:href="#sin_svg-a" fill="#F5342E"/><use xlink:href="#sin_svg-a" fill="url(#sin_svg-c)" style="mix-blend-mode:soft-light"/><circle cx="16" cy="15" r="14.5" stroke="#000" stroke-linejoin="square" stroke-opacity=".097"/><g filter="url(#sin_svg-d)"><g fill="#FFF" fill-rule="nonzero" filter="url(#sin_svg-e)" transform="translate(6 5)"><path d="M.001 10.124a10.2 10.2 0 0 1 .507-3.281 10 10 0 0 1 1.815-3.287 9.8 9.8 0 0 1 3.37-2.63A9.5 9.5 0 0 1 8.425.104a9.5 9.5 0 0 1 1.72-.096 9.6 9.6 0 0 1 3.306.716c.016.007.035.014.037.034.002.026-.021.034-.04.042l-.36.14a22 22 0 0 0-2.296 1.044c-.827.437-1.621.927-2.358 1.512-.64.509-1.225 1.075-1.7 1.753-.32.456-.572.946-.71 1.493-.176.692-.133 1.377.067 2.056.147.502.368.972.612 1.43.308.58.657 1.135.978 1.707.292.52.564 1.05.744 1.625.125.401.2.812.192 1.234a3.5 3.5 0 0 1-.412 1.567c-.303.584-.718 1.076-1.18 1.53-.427.419-.891.788-1.37 1.14-.07.052-.125.05-.198.012a9.8 9.8 0 0 1-1.945-1.301 10 10 0 0 1-1.867-2.131 10.2 10.2 0 0 1-1.574-4.338 8 8 0 0 1-.07-1.148z"/><path d="M6.047 19.241c.018-.043.063-.044.097-.056a26 26 0 0 0 2.06-.856c.79-.372 1.559-.784 2.287-1.265a11.7 11.7 0 0 0 1.6-1.25c.488-.46.92-.964 1.256-1.544.272-.47.456-.971.516-1.512a3.8 3.8 0 0 0-.137-1.463c-.15-.529-.385-1.022-.649-1.503-.316-.577-.675-1.13-1.006-1.698-.281-.483-.543-.975-.733-1.502a3.8 3.8 0 0 1-.238-1.588c.027-.37.123-.726.272-1.068.224-.514.547-.963.922-1.377.548-.607 1.185-1.11 1.849-1.584.073-.053.134-.059.215-.018.706.354 1.366.776 1.975 1.277q.935.769 1.66 1.733A9.9 9.9 0 0 1 19.964 9.2c.022.315.042.63.033.946a10.2 10.2 0 0 1-.432 2.713 10 10 0 0 1-2.773 4.425 10.2 10.2 0 0 1-5.14 2.56 10.4 10.4 0 0 1-2.052.154 10.2 10.2 0 0 1-3.456-.695c-.036-.016-.078-.02-.098-.06z"/></g></g></g></svg>