<svg xmlns="http://www.w3.org/2000/svg" xmlns:xlink="http://www.w3.org/1999/xlink" width="32" height="32" viewBox="0 0 32 32"><defs><linearGradient id="smart_svg-c" x1="50%" x2="50%" y1="0%" y2="100%"><stop offset="0%" stop-color="#FFF" stop-opacity=".5"/><stop offset="100%" stop-opacity=".5"/></linearGradient><filter id="smart_svg-b" width="111.7%" height="111.7%" x="-5.8%" y="-4.2%" filterUnits="objectBoundingBox"><feOffset dy=".5" in="SourceAlpha" result="shadowOffsetOuter1"/><feGaussianBlur in="shadowOffsetOuter1" result="shadowBlurOuter1" stdDeviation=".5"/><feComposite in="shadowBlurOuter1" in2="SourceAlpha" operator="out" result="shadowBlurOuter1"/><feColorMatrix in="shadowBlurOuter1" values="0 0 0 0 0 0 0 0 0 0 0 0 0 0 0 0 0 0 0.199473505 0"/></filter><circle id="smart_svg-a" cx="15" cy="15" r="15"/></defs><g fill="none"><g transform="translate(1)"><use xlink:href="#smart_svg-a" fill="#000" filter="url(#smart_svg-b)"/><use xlink:href="#smart_svg-a" fill="#FEC60D"/><use xlink:href="#smart_svg-a" fill="url(#smart_svg-c)" style="mix-blend-mode:soft-light"/><circle cx="15" cy="15" r="14.5" stroke="#000" stroke-linejoin="square" stroke-opacity=".097"/></g><path fill="#FFF" d="m25.697 9.589-3.125-1.8c-.107-.064-.207-.12-.313-.18-.104-.06-.204-.123-.31-.184-.626-.358-1.255-.705-1.874-1.076l-2.968-1.715c-.174-.104-1.066-.629-1.104-.629-.016 0-.129.074-.153.089L11.794 6.43c-.06.033-.1.06-.16.092-.055.03-.103.058-.153.089l-.311.182-.16.093-.305.176c-.108.064-.208.119-.314.18l-.628.359c-.054.028-.1.058-.153.088l-.786.454c-.108.064-.21.117-.316.177l-.62.367c-.313.178-.625.369-.942.54-.139.075-.869.52-.94.54v11.558c.058.005.856.48.938.53l1.251.723q.158.093.313.18l.62.357c.051.028.098.058.152.088.06.033.1.061.16.092.16.08.313.179.465.27l.787.454c.054.03.098.056.152.089.307.184.626.35.932.536l1.098.636c.724.428 1.463.826 2.184 1.26l.857.497c.136.091.187-.013.401-.13l1.878-1.083c.104-.06.205-.119.314-.18l.307-.175q.075-.043.151-.09l1.723-.997c.515-.308 1.046-.588 1.56-.897l3.43-1.987q.074-.045.153-.089c.055-.03.107-.07.168-.084V9.767c-.097-.065-.198-.115-.303-.178M19.525 20.9H16.6v.765q.002.014-.012.013h-1.41V20.9H12.48v-2.163c0-.023.027-.042.04-.055l.275-.296.022-.023.022-.025.158-.17.002-.002.048-.048c.01-.01.01-.015.02-.025l.051-.054.006-.006.17-.184c.036-.038.073-.073.107-.113l.002-.003.005-.006.115-.123c.016-.017.029-.028.044-.047l.138-.148.023-.023.021-.025.231-.247.002-.002.006-.007.035-.036c.047-.058.127-.13.176-.19l.006-.006.047-.049.09-.097c.063-.063.118-.132.182-.196l.204-.22.023-.023.09-.098c.016-.017.032-.03.046-.049.014-.018.031-.03.047-.048l.09-.098.024-.025.068-.074c.014-.019.03-.03.047-.048.04-.045.154-.163.18-.195.014-.019.03-.03.043-.048a1.4 1.4 0 0 0-.115-.125l-.09-.098-.023-.023c-.01-.01-.012-.016-.022-.027-.07-.071-.135-.147-.206-.218l-.114-.123-.021-.025-1.046-1.121-.023-.027-.154-.167-.002-.002-.343-.369-.023-.023-.091-.1c-.061-.064-.12-.132-.183-.195l-.02-.022-.002-.002-.067-.074-.094-.098c-.01-.01-.012-.016-.023-.027-.062-.062-.118-.13-.18-.193l-.024-.023c-.007-.008-.04-.04-.04-.05v-2.172h2.698v-.903c.475 0 .944.009 1.418.009v.865q-.001.014.013.012h2.915v2.192h-4.021c.024.036.06.066.088.1l.224.246c.013.017.028.03.043.048.038.046.081.085.119.13l.325.357c.063.062.118.132.179.195l.83.913.005.007.298.326q.01.012.023.023c.04.04.072.085.112.125l.534.585q.035.034.064.073c-.008.012-.015.016-.024.027l-.02.024-.113.121-.02.025-.27.293c-.017.017-.027.032-.045.05-.036.036-.091.104-.133.146l-.188.207c-.037.044-.137.143-.167.182l-.266.292c-.058.069-.122.13-.18.198l-.11.119c-.053.055-.101.114-.153.17l-.025.025c-.062.07-.13.138-.19.21l-.01.01-.233.254-.006.007-.007.009-.002.002-.108.118-.02.025-.023.023c-.047.046-.087.1-.133.145l-.021.025-.09.098-.022.023-.265.292h3.909c.037 0 .112-.008.112.013V20.9z"/></g></svg>