<svg xmlns="http://www.w3.org/2000/svg" xmlns:xlink="http://www.w3.org/1999/xlink" width="32" height="32" viewBox="0 0 32 32"><defs><linearGradient id="snx_svg-c" x1="50%" x2="50%" y1="0%" y2="100%"><stop offset="0%" stop-color="#FFF" stop-opacity=".5"/><stop offset="100%" stop-opacity=".5"/></linearGradient><filter id="snx_svg-b" width="111.7%" height="111.7%" x="-5.8%" y="-4.2%" filterUnits="objectBoundingBox"><feOffset dy=".5" in="SourceAlpha" result="shadowOffsetOuter1"/><feGaussianBlur in="shadowOffsetOuter1" result="shadowBlurOuter1" stdDeviation=".5"/><feComposite in="shadowBlurOuter1" in2="SourceAlpha" operator="out" result="shadowBlurOuter1"/><feColorMatrix in="shadowBlurOuter1" values="0 0 0 0 0 0 0 0 0 0 0 0 0 0 0 0 0 0 0.199473505 0"/></filter><circle id="snx_svg-a" cx="16" cy="15" r="15"/></defs><g fill="none" fill-rule="evenodd"><use xlink:href="#snx_svg-a" fill="#000" filter="url(#snx_svg-b)"/><use xlink:href="#snx_svg-a" fill="#5FCDF9"/><use xlink:href="#snx_svg-a" fill="url(#snx_svg-c)" style="mix-blend-mode:soft-light"/><circle cx="16" cy="15" r="14.5" stroke="#000" stroke-linejoin="square" stroke-opacity=".097"/><path fill="#FFF" fill-rule="nonzero" d="M11.092 11.264a.62.62 0 0 0-.493-.24h-3.98a.13.13 0 0 1-.086-.035.1.1 0 0 1-.033-.077v-2.8a.1.1 0 0 1 .033-.077.1.1 0 0 1 .086-.034h4.206q1.59 0 2.747 1.359l1.023 1.303-1.992 2.534zm7.351-1.917q1.152-1.345 2.76-1.346h4.193a.1.1 0 0 1 .078.026.1.1 0 0 1 .025.085v2.8q0 .045-.025.077a.08.08 0 0 1-.078.034h-3.98a.62.62 0 0 0-.492.24L17.99 14.99l2.945 3.752c.12.141.296.227.477.223h3.98a.09.09 0 0 1 .077.034.14.14 0 0 1 .025.09v2.8a.12.12 0 0 1-.025.077.08.08 0 0 1-.078.034h-4.189c-1.072 0-1.984-.454-2.748-1.359l-2.44-3.108-2.439 3.108q-1.152 1.359-2.76 1.36H6.62a.09.09 0 0 1-.078-.035.12.12 0 0 1-.025-.09v-2.8q0-.045.025-.077a.08.08 0 0 1 .078-.034h3.98c.189 0 .37-.09.493-.24l2.879-3.67z"/></g></svg>