<svg xmlns="http://www.w3.org/2000/svg" xmlns:xlink="http://www.w3.org/1999/xlink" width="32" height="32" viewBox="0 0 32 32"><defs><linearGradient id="sol_svg-c" x1="50%" x2="50%" y1="0%" y2="100%"><stop offset="0%" stop-color="#FFF" stop-opacity=".5"/><stop offset="100%" stop-opacity=".5"/></linearGradient><filter id="sol_svg-b" width="111.7%" height="111.7%" x="-5.8%" y="-4.2%" filterUnits="objectBoundingBox"><feOffset dy=".5" in="SourceAlpha" result="shadowOffsetOuter1"/><feGaussianBlur in="shadowOffsetOuter1" result="shadowBlurOuter1" stdDeviation=".5"/><feComposite in="shadowBlurOuter1" in2="SourceAlpha" operator="out" result="shadowBlurOuter1"/><feColorMatrix in="shadowBlurOuter1" values="0 0 0 0 0 0 0 0 0 0 0 0 0 0 0 0 0 0 0.199473505 0"/></filter><circle id="sol_svg-a" cx="16" cy="15" r="15"/></defs><g fill="none" fill-rule="evenodd"><use xlink:href="#sol_svg-a" fill="#000" filter="url(#sol_svg-b)"/><use xlink:href="#sol_svg-a" fill="#66F9A1"/><use xlink:href="#sol_svg-a" fill="url(#sol_svg-c)" style="mix-blend-mode:soft-light"/><circle cx="16" cy="15" r="14.5" stroke="#000" stroke-linejoin="square" stroke-opacity=".097"/><path fill="#FFF" fill-rule="nonzero" d="M9.925 18.687a.6.6 0 0 1 .415-.17h14.366a.29.29 0 0 1 .207.497l-2.838 2.815a.6.6 0 0 1-.415.171H7.294a.291.291 0 0 1-.207-.498zm0-10.517A.6.6 0 0 1 10.34 8h14.366c.261 0 .392.314.207.498l-2.838 2.815a.6.6 0 0 1-.415.17H7.294a.291.291 0 0 1-.207-.497zm12.15 5.225a.6.6 0 0 0-.415-.17H7.294a.291.291 0 0 0-.207.498l2.838 2.815c.11.109.26.17.415.17h14.366a.291.291 0 0 0 .207-.498z"/></g></svg>