<svg xmlns="http://www.w3.org/2000/svg" xmlns:xlink="http://www.w3.org/1999/xlink" width="32" height="32" viewBox="0 0 32 32"><defs><filter id="sphtx_svg-b" width="111.7%" height="111.7%" x="-5.8%" y="-4.2%" filterUnits="objectBoundingBox"><feOffset dy=".5" in="SourceAlpha" result="shadowOffsetOuter1"/><feGaussianBlur in="shadowOffsetOuter1" result="shadowBlurOuter1" stdDeviation=".5"/><feComposite in="shadowBlurOuter1" in2="SourceAlpha" operator="out" result="shadowBlurOuter1"/><feColorMatrix in="shadowBlurOuter1" values="0 0 0 0 0 0 0 0 0 0 0 0 0 0 0 0 0 0 0.199473505 0"/></filter><filter id="sphtx_svg-e" width="117.5%" height="131.8%" x="-8.8%" y="-11.4%" filterUnits="objectBoundingBox"><feOffset dy=".5" in="SourceAlpha" result="shadowOffsetOuter1"/><feGaussianBlur in="shadowOffsetOuter1" result="shadowBlurOuter1" stdDeviation=".5"/><feColorMatrix in="shadowBlurOuter1" values="0 0 0 0 0 0 0 0 0 0 0 0 0 0 0 0 0 0 0.204257246 0"/></filter><linearGradient id="sphtx_svg-c" x1="50%" x2="50%" y1="0%" y2="100%"><stop offset="0%" stop-color="#FFF" stop-opacity=".5"/><stop offset="100%" stop-opacity=".5"/></linearGradient><circle id="sphtx_svg-a" cx="16" cy="15" r="15"/><path id="sphtx_svg-d" d="M6 11.391v-.356h8.417v.356zm0-1.035V10h8.417v.356zm3.55 10.64v-8.893h.338v8.893zm.98 0v-8.893h.337v8.893zm15.232-.728-3.798-4.013.238-.251L26 20.016zM16.519 10l3.798 4.013-.238.251-3.798-4.012zm8.55 11-3.798-4.013.238-.252 3.798 4.013zm-9.242-10.268 3.798 4.012-.239.252-3.798-4.012zm5.421 4.768.239-.252 4.275-4.516.238.252-4.275 4.516-.238.252-.454.48-.239.252L16.52 21l-.238-.252 4.275-4.516.238-.252.454-.48zm-.454-.984L25.07 10l.238.252-4.275 4.516-.238.252-.454.48-.239.252-4.274 4.516-.239-.252 4.275-4.516.238-.252.455-.48z"/></defs><g fill="none" fill-rule="evenodd"><use xlink:href="#sphtx_svg-a" fill="#000" filter="url(#sphtx_svg-b)"/><use xlink:href="#sphtx_svg-a" fill="#00B098"/><use xlink:href="#sphtx_svg-a" fill="url(#sphtx_svg-c)" style="mix-blend-mode:soft-light"/><circle cx="16" cy="15" r="14.5" stroke="#000" stroke-opacity=".097"/><g fill-rule="nonzero"><use xlink:href="#sphtx_svg-d" fill="#000" filter="url(#sphtx_svg-e)"/><use xlink:href="#sphtx_svg-d" fill="#FFF" fill-rule="evenodd"/></g></g></svg>