<svg xmlns="http://www.w3.org/2000/svg" xmlns:xlink="http://www.w3.org/1999/xlink" width="32" height="32" viewBox="0 0 32 32"><defs><filter id="stox_svg-b" width="111.7%" height="111.7%" x="-5.8%" y="-4.2%" filterUnits="objectBoundingBox"><feOffset dy=".5" in="SourceAlpha" result="shadowOffsetOuter1"/><feGaussianBlur in="shadowOffsetOuter1" result="shadowBlurOuter1" stdDeviation=".5"/><feComposite in="shadowBlurOuter1" in2="SourceAlpha" operator="out" result="shadowBlurOuter1"/><feColorMatrix in="shadowBlurOuter1" values="0 0 0 0 0 0 0 0 0 0 0 0 0 0 0 0 0 0 0.199473505 0"/></filter><filter id="stox_svg-d"><feColorMatrix in="SourceGraphic" values="0 0 0 0 1.000000 0 0 0 0 1.000000 0 0 0 0 1.000000 0 0 0 1.000000 0"/></filter><filter id="stox_svg-e" width="131.2%" height="225%" x="-15.6%" y="-62.5%" filterUnits="objectBoundingBox"><feOffset dy=".5" in="SourceAlpha" result="shadowOffsetOuter1"/><feGaussianBlur in="shadowOffsetOuter1" result="shadowBlurOuter1" stdDeviation=".5"/><feColorMatrix in="shadowBlurOuter1" result="shadowMatrixOuter1" values="0 0 0 0 0 0 0 0 0 0 0 0 0 0 0 0 0 0 0.204257246 0"/><feMerge><feMergeNode in="shadowMatrixOuter1"/><feMergeNode in="SourceGraphic"/></feMerge></filter><linearGradient id="stox_svg-c" x1="50%" x2="50%" y1="0%" y2="100%"><stop offset="0%" stop-color="#FFF" stop-opacity=".5"/><stop offset="100%" stop-opacity=".5"/></linearGradient><circle id="stox_svg-a" cx="16" cy="15" r="15"/></defs><g fill="none" fill-rule="evenodd"><use xlink:href="#stox_svg-a" fill="#000" filter="url(#stox_svg-b)"/><use xlink:href="#stox_svg-a" fill="#7324F0"/><use xlink:href="#stox_svg-a" fill="url(#stox_svg-c)" style="mix-blend-mode:soft-light"/><circle cx="16" cy="15" r="14.5" stroke="#000" stroke-linejoin="square" stroke-opacity=".097"/><g filter="url(#stox_svg-d)"><g fill="#FFF" fill-rule="nonzero" filter="url(#stox_svg-e)" transform="translate(4 12)"><path d="M23.675.462V0a3.004 3.004 0 0 0-2.99 2.784A2.996 2.996 0 0 0 17.705 0v.462A2.54 2.54 0 0 1 20.243 3a2.53 2.53 0 0 1-2.538 2.538V6a3.004 3.004 0 0 0 2.99-2.784A2.997 2.997 0 0 0 23.685 6v-.462A2.54 2.54 0 0 1 21.148 3 2.53 2.53 0 0 1 23.675.462M7.643 6v-.344L7.633 3H7.19v3m6.453-6c-1.653 0-3 1.348-3 3s1.347 3 3 3a3 3 0 1 0 0-6m0 5.538a2.538 2.538 0 1 1 0-5.075A2.54 2.54 0 0 1 16.18 3a2.53 2.53 0 0 1-2.537 2.538M5.538 0c-1.653 0-3 1.348-3 3A2.544 2.544 0 0 1 0 5.538V6c1.652 0 3-1.348 3-3A2.544 2.544 0 0 1 5.538.462h3.855V0z"/></g></g></g></svg>