<svg xmlns="http://www.w3.org/2000/svg" xmlns:xlink="http://www.w3.org/1999/xlink" width="32" height="32" viewBox="0 0 32 32"><defs><linearGradient id="stq_svg-c" x1="50%" x2="50%" y1="0%" y2="100%"><stop offset="0%" stop-color="#FFF" stop-opacity=".5"/><stop offset="100%" stop-opacity=".5"/></linearGradient><filter id="stq_svg-b" width="111.7%" height="111.7%" x="-5.8%" y="-4.2%" filterUnits="objectBoundingBox"><feOffset dy=".5" in="SourceAlpha" result="shadowOffsetOuter1"/><feGaussianBlur in="shadowOffsetOuter1" result="shadowBlurOuter1" stdDeviation=".5"/><feComposite in="shadowBlurOuter1" in2="SourceAlpha" operator="out" result="shadowBlurOuter1"/><feColorMatrix in="shadowBlurOuter1" values="0 0 0 0 0 0 0 0 0 0 0 0 0 0 0 0 0 0 0.199473505 0"/></filter><circle id="stq_svg-a" cx="15" cy="15" r="15"/></defs><g fill="none"><g transform="translate(1)"><use xlink:href="#stq_svg-a" fill="#000" filter="url(#stq_svg-b)"/><use xlink:href="#stq_svg-a" fill="#2DC4E7" fill-rule="evenodd"/><use xlink:href="#stq_svg-a" fill="url(#stq_svg-c)" fill-rule="evenodd" style="mix-blend-mode:soft-light"/><circle cx="15" cy="15" r="14.5" stroke="#000" stroke-linejoin="square" stroke-opacity=".097"/></g><path fill="#FFF" d="M6.14 9.032c.964 0 1.96-.064 2.924.022.429.482.525 1.157.857 1.714 4.329.021 8.679 0 13.008 0 .321.021.717.032.878.353.193.354.054.772-.128 1.093-.879 1.49-1.715 3-2.572 4.5-.321.536-.536 1.136-1.018 1.554-.396.332-.943.353-1.446.353h-6c-.322 0-.664-.032-.857-.289-.622-.696-.954-1.586-1.361-2.4a222 222 0 0 1-2.068-4.253c-.14-.322-.31-.611-.471-.911-.568 0-1.136 0-1.693-.022a6.1 6.1 0 0 1-.054-1.714zM12.9 19.78a3.1 3.1 0 0 1 1.329-.022c.492.107.921.482 1.039.975.128.568.128 1.179-.097 1.725-.214.493-.75.729-1.253.772-.579.042-1.243 0-1.672-.429-.46-.514-.46-1.264-.364-1.907A1.34 1.34 0 0 1 12.9 19.78m5.357 0c.536-.118 1.114-.108 1.629.085.493.204.75.74.793 1.243.064.59 0 1.264-.429 1.714-.396.375-.975.429-1.5.418-.514-.021-1.071-.214-1.34-.696a2.54 2.54 0 0 1-.192-1.682 1.4 1.4 0 0 1 1.04-1.082z"/></g></svg>