<svg xmlns="http://www.w3.org/2000/svg" width="32" height="32" viewBox="0 0 32 32"><path d="M13.707.27c-5.402.847-9.836 4.144-12.129 9.039-2.902 6.199-1.547 13.449 3.395 18.199 3.14 3.012 6.66 4.414 11.12 4.414 2.473 0 4.13-.32 6.22-1.23 4.378-1.895 7.886-5.958 9.097-10.532.43-1.64.59-5.004.305-6.742-1.055-6.516-6.2-11.762-12.75-13.004C17.77.176 14.758.094 13.707.27zm10.469 7.617c.27.734.351.816 1.082 1.054.449.141.797.348.797.461 0 .114-.285.305-.621.43-.844.29-1.164.59-1.274 1.242-.066.29-.207.606-.336.719-.238.207-.414-.063-.652-1.05-.113-.466-.238-.544-1.133-.864-.812-.285-.89-.492-.27-.762 1.083-.48 1.243-.605 1.45-1.23.367-1.082.367-1.098.527-.938.078.078.27.492.43.938zM11.348 9.164c1.894.399 3.472 1.274 7.043 3.969 1.832 1.387 3.695 2.707 4.144 2.96 1.77 1.024 3.137.958 6.04-.269.94-.398 1.753-.683 1.8-.652.16.176-.336 1.863-.844 2.898-.926 1.836-2.613 3.395-4.367 4-2.39.848-4.91.559-7.855-.89-1.723-.86-2.84-1.672-5.422-4.032-2.707-2.457-3.489-2.886-5.196-2.87-1.257 0-2.738.398-4.187 1.132-.434.207-.817.352-.863.32-.176-.19.527-2.136 1.086-2.996 1.925-2.98 5.144-4.32 8.62-3.57zm-3.57 14.293c.3.305.222 1.004-.13 1.324-.73.653-1.847-.46-1.195-1.195.32-.352 1.02-.43 1.324-.129zm0 0"/></svg>