<svg xmlns="http://www.w3.org/2000/svg" width="500" height="500" fill="none" viewBox="0 0 500 500"><rect width="500" height="500" fill="#4DA2FF" rx="250"/><path fill="#F7F7F8" fill-rule="evenodd" d="m320.749 225.119-.005.013c12.3 15.346 19.651 34.783 19.651 55.924 0 21.456-7.571 41.157-20.203 56.607l-1.088 1.33-.288-1.69a80 80 0 0 0-.869-4.353c-6.322-27.638-26.92-51.338-60.822-70.528-22.893-12.922-35.998-28.483-39.438-46.163-2.222-11.432-.57-22.916 2.622-32.751 3.192-9.833 7.94-18.071 11.973-23.031l.002-.003 13.188-16.045c2.313-2.814 6.641-2.814 8.954 0zm20.859-16.031.003-.006-88.395-107.542c-1.687-2.053-4.847-2.053-6.535 0l-88.395 107.543.002.006-.287.355C141.734 229.528 132 255.051 132 282.835 132 347.542 184.806 400 249.949 400c65.142 0 117.948-52.458 117.948-117.165 0-27.784-9.734-53.307-26-73.391zm-162.172 15.684.004-.004 7.906-9.62.239 1.776a77 77 0 0 0 .691 4.241c5.116 26.707 23.391 48.975 53.945 66.222 26.558 15.04 42.021 32.334 46.477 51.302 1.859 7.916 2.19 15.704 1.385 22.513l-.05.422-.383.186c-11.987 5.827-25.462 9.097-39.704 9.097-49.952 0-90.449-40.226-90.449-89.851 0-21.305 7.465-40.882 19.939-56.284" clip-rule="evenodd"/></svg>