<svg xmlns="http://www.w3.org/2000/svg" xmlns:xlink="http://www.w3.org/1999/xlink" width="32" height="32" viewBox="0 0 32 32"><defs><filter id="taas_svg-b" width="111.7%" height="111.7%" x="-5.8%" y="-4.2%" filterUnits="objectBoundingBox"><feOffset dy=".5" in="SourceAlpha" result="shadowOffsetOuter1"/><feGaussianBlur in="shadowOffsetOuter1" result="shadowBlurOuter1" stdDeviation=".5"/><feComposite in="shadowBlurOuter1" in2="SourceAlpha" operator="out" result="shadowBlurOuter1"/><feColorMatrix in="shadowBlurOuter1" values="0 0 0 0 0 0 0 0 0 0 0 0 0 0 0 0 0 0 0.199473505 0"/></filter><filter id="taas_svg-e" width="114.6%" height="158.3%" x="-7.3%" y="-20.8%" filterUnits="objectBoundingBox"><feOffset dy=".5" in="SourceAlpha" result="shadowOffsetOuter1"/><feGaussianBlur in="shadowOffsetOuter1" result="shadowBlurOuter1" stdDeviation=".5"/><feColorMatrix in="shadowBlurOuter1" values="0 0 0 0 0 0 0 0 0 0 0 0 0 0 0 0 0 0 0.204257246 0"/></filter><linearGradient id="taas_svg-c" x1="50%" x2="50%" y1="0%" y2="100%"><stop offset="0%" stop-color="#FFF" stop-opacity=".5"/><stop offset="100%" stop-opacity=".5"/></linearGradient><circle id="taas_svg-a" cx="16" cy="15" r="15"/><path id="taas_svg-d" d="M4 12h1.298v1.221H4zm1.298 4.774h3.777V18H4v-3.558h3.81v1.22H5.299v1.112zm17.627-2.332H28V18h-3.81v-1.226h2.512v-1.111h-3.777zm3.798-1.162h-3.8v-1.221h3.8zm-16.411 1.162h5.075v2.384h-1.264V18h-3.811zm3.777 2.332v-1.111H11.61v1.11h2.48zM10.312 12h5.075v1.221h-5.075zm6.334 2.442h5.075v2.384h-1.264V18h-3.81v-3.558zm3.772 2.332v-1.111h-2.48v1.11h2.48zM16.646 12h5.075v1.221h-5.075z"/></defs><g fill="none"><use xlink:href="#taas_svg-a" fill="#000" filter="url(#taas_svg-b)"/><use xlink:href="#taas_svg-a" fill="#002342" fill-rule="evenodd"/><use xlink:href="#taas_svg-a" fill="url(#taas_svg-c)" fill-rule="evenodd" style="mix-blend-mode:soft-light"/><circle cx="16" cy="15" r="14.5" stroke="#000" stroke-opacity=".097"/><use xlink:href="#taas_svg-d" fill="#000" filter="url(#taas_svg-e)"/><use xlink:href="#taas_svg-d" fill="#FFF" fill-rule="evenodd"/></g></svg>