<svg xmlns="http://www.w3.org/2000/svg" xmlns:xlink="http://www.w3.org/1999/xlink" width="32" height="32" viewBox="0 0 32 32"><defs><filter id="tau_svg-b" width="111.7%" height="111.7%" x="-5.8%" y="-4.2%" filterUnits="objectBoundingBox"><feOffset dy=".5" in="SourceAlpha" result="shadowOffsetOuter1"/><feGaussianBlur in="shadowOffsetOuter1" result="shadowBlurOuter1" stdDeviation=".5"/><feComposite in="shadowBlurOuter1" in2="SourceAlpha" operator="out" result="shadowBlurOuter1"/><feColorMatrix in="shadowBlurOuter1" values="0 0 0 0 0 0 0 0 0 0 0 0 0 0 0 0 0 0 0.199473505 0"/></filter><filter id="tau_svg-e" width="117.5%" height="117.5%" x="-8.8%" y="-6.2%" filterUnits="objectBoundingBox"><feOffset dy=".5" in="SourceAlpha" result="shadowOffsetOuter1"/><feGaussianBlur in="shadowOffsetOuter1" result="shadowBlurOuter1" stdDeviation=".5"/><feColorMatrix in="shadowBlurOuter1" values="0 0 0 0 0 0 0 0 0 0 0 0 0 0 0 0 0 0 0.204257246 0"/></filter><linearGradient id="tau_svg-c" x1="50%" x2="50%" y1="0%" y2="100%"><stop offset="0%" stop-color="#FFF" stop-opacity=".5"/><stop offset="100%" stop-opacity=".5"/></linearGradient><circle id="tau_svg-a" cx="16" cy="15" r="15"/><path id="tau_svg-d" d="m8.094 12.678 2.11 2.11H6zm2.11 2.55-2.11 2.094L6 15.228h4.203zm2.852-2.853-2.11 2.094v-4.203zm-2.55 2.094-2.093-2.094 2.094-2.11zm2.854-2.413-2.094-2.094h4.203zm0-4.643 2.109 2.109h-4.203zm4.962-.304-2.11 2.094V5zm-2.55 2.094L13.678 7.11 15.772 5zm-2.716 8.437-2.11 2.094v-4.203l2.11 2.11zm-4.643 0 2.094-2.109v4.203zm10.212-5.584-2.094-2.094h4.203zm-2.094-2.534 2.094-2.11 2.11 2.11zM15.47 20.493l-2.11 2.094-2.093-2.094zm-2.11-2.55 2.11 2.11h-4.203zm10.228-5.568-2.109 2.094v-4.203zm-4.643 0 2.094-2.11v4.204zm-5.266 10.53 2.094-2.108V25zm2.534-2.108 2.11 2.109L16.212 25v-4.203zm2.413 1.79-2.094-2.094h4.203zm0-4.643 2.11 2.11H16.53l2.094-2.11zm2.853-2.413 2.11 2.11-2.11 2.093zm-2.534 2.11 2.094-2.11v4.203l-2.094-2.094zm4.947-.32-2.094-2.093H26l-2.11 2.094zm0-4.643L26 14.788h-4.203z"/></defs><g fill="none" fill-rule="evenodd"><use xlink:href="#tau_svg-a" fill="#000" filter="url(#tau_svg-b)"/><use xlink:href="#tau_svg-a" fill="#7B346E"/><use xlink:href="#tau_svg-a" fill="url(#tau_svg-c)" style="mix-blend-mode:soft-light"/><circle cx="16" cy="15" r="14.5" stroke="#000" stroke-opacity=".097"/><g fill-rule="nonzero"><use xlink:href="#tau_svg-d" fill="#000" filter="url(#tau_svg-e)"/><use xlink:href="#tau_svg-d" fill="#FFF" fill-rule="evenodd"/></g></g></svg>