<svg xmlns="http://www.w3.org/2000/svg" xmlns:xlink="http://www.w3.org/1999/xlink" width="32" height="32" viewBox="0 0 32 32"><defs><clipPath id="tia_svg-b"><path d="M0 0h32v32H0z"/></clipPath><filter id="tia_svg-a" width="100%" height="100%" x="0%" y="0%" filterUnits="objectBoundingBox"><feColorMatrix in="SourceGraphic" values="0 0 0 0 1 0 0 0 0 1 0 0 0 0 1 0 0 0 1 0"/></filter><mask id="tia_svg-d"><g filter="url(#tia_svg-a)"><path d="M0 0h32v32H0z" style="fill:#000;fill-opacity:.992157;stroke:none"/></g></mask><g id="tia_svg-c" clip-path="url(#tia_svg-b)"><path d="M15.555 4.566q4.44-.116 7.832 2.704c2.133 1.84 3.43 4.156 3.902 6.949a11.53 11.53 0 0 1-.953 6.66 11.5 11.5 0 0 1-3.633 4.375q-3.509 2.491-7.808 2.117c-2.965-.316-5.442-1.574-7.434-3.766q-2.699-3.063-2.89-7.167c-.083-2.758.702-5.235 2.363-7.422Q9.383 5.887 13.25 4.89q1.137-.274 2.305-.325m.187.95a11 11 0 0 1 1.985.148q.187.07.109.258a5.9 5.9 0 0 0-1.367 1.61q-.106.18-.207.366a.48.48 0 0 1-.473.2 15.7 15.7 0 0 0-3.066-.555 10.8 10.8 0 0 0-2.746.129q-.135-.029-.106-.156a.3.3 0 0 1 .059-.067 10.46 10.46 0 0 1 5.812-1.933m3.64.754q.554-.036 1.024.257.446.295.785.711c.356.453.649.946.887 1.477q.584 1.352.875 2.805c.399 2.074.5 4.171.3 6.28q-1.287 1.033-2.687 1.895a33 33 0 0 1-5.558 2.766 20 20 0 0 1-3.488 1.008 8.5 8.5 0 0 1-1.696.148 2.8 2.8 0 0 1-1.015-.187.86.86 0 0 1-.352-.258.68.68 0 0 1-.094-.508q.082-.434.309-.816.339-.556.762-1.047.258-.294.535-.574a.385.385 0 0 0-.051-.485 3 3 0 0 1-.227-.176.4.4 0 0 0-.414.008A9 9 0 0 0 7.97 21.16a9 9 0 0 0-.352.63c-.125.105-.25.097-.363-.02q-2.091-3.23-1.656-7.063c.035-.316.09-.633.168-.941q.08-.076.16 0 .346 1.09.949 2.05.625.99 1.422 1.852a17 17 0 0 0 2.656 2.312 22 22 0 0 0 3.52 1.985c.214.07.433.066.648-.012q.327-.122.649-.273a.47.47 0 0 0 .19-.453 20.5 20.5 0 0 1-.534-4.497 22 22 0 0 1 .547-5.257c.113-.489.254-.97.414-1.442.031-.133-.008-.234-.117-.316a4 4 0 0 0-.54-.164.27.27 0 0 0-.246.16 18.8 18.8 0 0 0-.847 3.848q-.105.914-.153 1.836a.78.78 0 0 1-.312.511 28 28 0 0 0-3.332 2.278.525.525 0 0 1-.59.027 13 13 0 0 1-2.508-2.816 8 8 0 0 1-.808-1.637 5.1 5.1 0 0 1-.297-1.602c.008-1.058.422-1.926 1.242-2.59a5 5 0 0 1 1.973-.894 9.5 9.5 0 0 1 2.617-.188c1.039.067 2.054.246 3.054.536a18.8 18.8 0 0 1 6.653 3.52 25 25 0 0 0-3.903 1.296 36 36 0 0 0-2.222 1.035.3.3 0 0 0-.145.203c-.02.242-.027.48-.027.723q.066.164.238.117a30.6 30.6 0 0 1 4.809-2.039q.68-.21 1.37-.387.47-.222.419-.738a10 10 0 0 0-.14-.836 1.2 1.2 0 0 0-.364-.57 19.5 19.5 0 0 0-4.938-2.746q-.177-.112-.125-.317.416-.78 1.047-1.406.382-.358.875-.535c.106-.031.207-.055.313-.07M23.1 8.367a.14.14 0 0 1 .113.031 10.6 10.6 0 0 1 2.41 3.457q.06.135.102.27c-.016.098-.07.156-.172.172a5 5 0 0 0-.477-.059c-.23-.008-.46-.02-.687-.027a.53.53 0 0 1-.41-.41 15 15 0 0 0-.95-3.301.1.1 0 0 1 .008-.078q.03-.031.063-.055m1.484 4.805q.48-.005.941.101.258.06.48.207.305.231.25.614-.068.417-.273.781-.105.21-.316.117a3 3 0 0 1-.297-.418 13 13 0 0 0-.883-1.117q-.106-.199.098-.285m-.207 1.808q.053-.005.105.012c.204.274.391.555.56.852q.104.204-.056.367-.262.275-.53.543c-.06.035-.106.027-.15-.024-.007-.046-.015-.093-.011-.144.016-.508.023-1.02.012-1.531a.16.16 0 0 1 .07-.075m2.023 1.024q.034-.005.063.02.006.15 0 .3-.041.063-.106.02a1 1 0 0 1-.058-.16.3.3 0 0 1 .101-.18m-11.937.84q.04 1.54.27 3.074.098.598.214 1.195a18.8 18.8 0 0 1-3.644-2.07q1.101-.898 2.297-1.66.429-.275.863-.54m10.96.347q.208-.023.286.168c.176.563.242 1.133.2 1.723a3.16 3.16 0 0 1-1.239 2.242 4.2 4.2 0 0 1-.809.488q-.234.071-.304-.164a.1.1 0 0 1 0-.066q.408-1.5.59-3.047a.86.86 0 0 1 .27-.457q.461-.396.894-.828a.3.3 0 0 1 .113-.059m-2.483 2.079q.104.01.12.117a16.4 16.4 0 0 1-.663 2.695.38.38 0 0 1-.325.238q-1.456.186-2.914-.02a10 10 0 0 1-.695-.113q-.094-.04-.07-.144.018-.034.05-.063a34.4 34.4 0 0 0 4.497-2.71m-6.2 3.515a.4.4 0 0 1 .094.008q1.916.55 3.914.578.451-.012.902-.035.16.047.137.21a6.8 6.8 0 0 1-.96 1.462 3.5 3.5 0 0 1-.727.605q-.96.54-1.856-.093a4 4 0 0 1-.805-.813 7.2 7.2 0 0 1-.898-1.695.27.27 0 0 1 .2-.227m6.793.18q.117-.007.14.11a.3.3 0 0 1-.023.07 9 9 0 0 1-.703.68q-.17.05-.164-.126.133-.287.254-.574a.14.14 0 0 1 .063-.031q.222-.052.433-.13m-8.11.36a.23.23 0 0 1 .24.1q.38.933.94 1.759.376.52.856.941c.059.113.027.2-.09.25q-3.462.436-6.515-1.25-.27-.154-.528-.32-.093-.104 0-.207a.1.1 0 0 1 .055-.028q1.442-.11 2.832-.508a24 24 0 0 0 2.21-.738m0 0" style="stroke:none;fill-rule:evenodd;fill:#7b2bf9;fill-opacity:1"/></g></defs><use xlink:href="#tia_svg-c" mask="url(#tia_svg-d)"/></svg>