<svg xmlns="http://www.w3.org/2000/svg" xmlns:xlink="http://www.w3.org/1999/xlink" width="32" height="32" viewBox="0 0 32 32"><defs><filter id="tix_svg-b" width="111.7%" height="111.7%" x="-5.8%" y="-4.2%" filterUnits="objectBoundingBox"><feOffset dy=".5" in="SourceAlpha" result="shadowOffsetOuter1"/><feGaussianBlur in="shadowOffsetOuter1" result="shadowBlurOuter1" stdDeviation=".5"/><feComposite in="shadowBlurOuter1" in2="SourceAlpha" operator="out" result="shadowBlurOuter1"/><feColorMatrix in="shadowBlurOuter1" values="0 0 0 0 0 0 0 0 0 0 0 0 0 0 0 0 0 0 0.199473505 0"/></filter><filter id="tix_svg-e" width="117.5%" height="135%" x="-8.8%" y="-12.5%" filterUnits="objectBoundingBox"><feOffset dy=".5" in="SourceAlpha" result="shadowOffsetOuter1"/><feGaussianBlur in="shadowOffsetOuter1" result="shadowBlurOuter1" stdDeviation=".5"/><feColorMatrix in="shadowBlurOuter1" values="0 0 0 0 0 0 0 0 0 0 0 0 0 0 0 0 0 0 0.204257246 0"/></filter><linearGradient id="tix_svg-c" x1="50%" x2="50%" y1="0%" y2="100%"><stop offset="0%" stop-color="#FFF" stop-opacity=".5"/><stop offset="100%" stop-opacity=".5"/></linearGradient><circle id="tix_svg-a" cx="16" cy="15" r="15"/><path id="tix_svg-d" d="M6 10.386c0-.213.173-.386.387-.386h5.024c2.318 0 3.768 1.196 3.768 2.885q0 1.057-.966 1.923 1.352.77 1.352 2.307C15.565 19.52 13.246 20 11.7 20H6.386A.386.386 0 0 1 6 19.614v-1.15c0-.214.173-.387.386-.387H11.7q1.643 0 1.643-1.058T11.7 15.865H6.386A.386.386 0 0 1 6 15.48v-1.15c0-.214.173-.387.386-.387H11.7q1.16-.192 1.16-.961 0-1.058-1.16-1.058H6.386A.386.386 0 0 1 6 11.537v-1.15zm10.435 0c0-.213.173-.386.386-.386h5.121c.213 0 .387.173.387.386v9.228a.386.386 0 0 1-.387.386h-1.45a.386.386 0 0 1-.386-.386V12.31a.386.386 0 0 0-.386-.387h-2.9a.386.386 0 0 1-.386-.386v-1.15zM23.68 10h1.933c.213 0 .386.173.386.386v1.15a.386.386 0 0 1-.386.387H23.68a.386.386 0 0 1-.386-.386v-1.15c0-.214.173-.387.386-.387"/></defs><g fill="none" fill-rule="evenodd"><g fill-rule="nonzero"><use xlink:href="#tix_svg-a" fill="#000" filter="url(#tix_svg-b)"/><use xlink:href="#tix_svg-a" fill="#EF494D" fill-rule="evenodd"/><use xlink:href="#tix_svg-a" fill="url(#tix_svg-c)" fill-rule="evenodd" style="mix-blend-mode:soft-light"/><circle cx="16" cy="15" r="14.5" stroke="#000" stroke-opacity=".097"/></g><use xlink:href="#tix_svg-d" fill="#000" filter="url(#tix_svg-e)"/><use xlink:href="#tix_svg-d" fill="#FFF"/></g></svg>