<svg xmlns="http://www.w3.org/2000/svg" xmlns:xlink="http://www.w3.org/1999/xlink" width="32" height="32" viewBox="0 0 32 32"><defs><filter id="tkn_svg-b" width="111.7%" height="111.7%" x="-5.8%" y="-4.2%" filterUnits="objectBoundingBox"><feOffset dy=".5" in="SourceAlpha" result="shadowOffsetOuter1"/><feGaussianBlur in="shadowOffsetOuter1" result="shadowBlurOuter1" stdDeviation=".5"/><feComposite in="shadowBlurOuter1" in2="SourceAlpha" operator="out" result="shadowBlurOuter1"/><feColorMatrix in="shadowBlurOuter1" values="0 0 0 0 0 0 0 0 0 0 0 0 0 0 0 0 0 0 0.199473505 0"/></filter><filter id="tkn_svg-e" width="121.9%" height="117.5%" x="-10.9%" y="-6.2%" filterUnits="objectBoundingBox"><feOffset dy=".5" in="SourceAlpha" result="shadowOffsetOuter1"/><feGaussianBlur in="shadowOffsetOuter1" result="shadowBlurOuter1" stdDeviation=".5"/><feColorMatrix in="shadowBlurOuter1" values="0 0 0 0 0 0 0 0 0 0 0 0 0 0 0 0 0 0 0.204257246 0"/></filter><linearGradient id="tkn_svg-c" x1="50%" x2="50%" y1="0%" y2="100%"><stop offset="0%" stop-color="#FFF" stop-opacity=".5"/><stop offset="100%" stop-opacity=".5"/></linearGradient><circle id="tkn_svg-a" cx="16" cy="15" r="15"/><path id="tkn_svg-d" d="M13.092 6.913 17.495 5l-.036 5.053H23v3.5h-5.578v6.063c0 1.84 3.12 2.057 4.294 1.444l1.064 3.176c-2.606 1.515-9.725 1.154-9.725-4.584V6.912h.037zm-4.11 7.578C7.887 14.491 7 13.425 7 12.11c0-1.316.887-2.382 1.982-2.382s1.981 1.066 1.981 2.382c0 1.315-.887 2.381-1.981 2.381"/></defs><g fill="none"><use xlink:href="#tkn_svg-a" fill="#000" filter="url(#tkn_svg-b)"/><use xlink:href="#tkn_svg-a" fill="#24DD7B" fill-rule="evenodd"/><use xlink:href="#tkn_svg-a" fill="url(#tkn_svg-c)" fill-rule="evenodd" style="mix-blend-mode:soft-light"/><circle cx="16" cy="15" r="14.5" stroke="#000" stroke-opacity=".097"/><use xlink:href="#tkn_svg-d" fill="#000" filter="url(#tkn_svg-e)"/><use xlink:href="#tkn_svg-d" fill="#FFF" fill-rule="evenodd"/></g></svg>