<svg xmlns="http://www.w3.org/2000/svg" xmlns:xlink="http://www.w3.org/1999/xlink" width="32" height="32" viewBox="0 0 32 32"><defs><linearGradient id="tomo_svg-c" x1="50%" x2="50%" y1="0%" y2="100%"><stop offset="0%" stop-color="#FFF" stop-opacity=".5"/><stop offset="100%" stop-opacity=".5"/></linearGradient><filter id="tomo_svg-b" width="111.7%" height="111.7%" x="-5.8%" y="-4.2%" filterUnits="objectBoundingBox"><feOffset dy=".5" in="SourceAlpha" result="shadowOffsetOuter1"/><feGaussianBlur in="shadowOffsetOuter1" result="shadowBlurOuter1" stdDeviation=".5"/><feComposite in="shadowBlurOuter1" in2="SourceAlpha" operator="out" result="shadowBlurOuter1"/><feColorMatrix in="shadowBlurOuter1" values="0 0 0 0 0 0 0 0 0 0 0 0 0 0 0 0 0 0 0.199473505 0"/></filter><circle id="tomo_svg-a" cx="15" cy="15" r="15"/></defs><g fill="none"><g transform="translate(1)"><use xlink:href="#tomo_svg-a" fill="#000" filter="url(#tomo_svg-b)"/><use xlink:href="#tomo_svg-a" fill="#1A1F36"/><use xlink:href="#tomo_svg-a" fill="url(#tomo_svg-c)" style="mix-blend-mode:soft-light"/><circle cx="15" cy="15" r="14.5" stroke="#000" stroke-linejoin="square" stroke-opacity=".097"/></g><path fill="#FFF" d="M18.525 13.464a.548.548 0 0 0 .048-1.094h-3.84v-.96a.634.634 0 0 0-1.22 0v.96h-1.027a.547.547 0 1 0 0 1.094h1.028v3.34a3.187 3.187 0 0 0 3.177 3.169 3.1 3.1 0 0 0 1.92-.701l.23-.192a.643.643 0 1 0-.844-.96l-.173.144a1.84 1.84 0 0 1-1.997.23 1.92 1.92 0 0 1-1.094-1.728v-3.302zm6.24 3.725a.48.48 0 0 0-.375-.567h-.24a.47.47 0 0 0-.46.365 7.488 7.488 0 1 1-14.132-4.733 6.85 6.85 0 0 1 3.706-3.705 7.546 7.546 0 0 1 9.331 2.669.48.48 0 0 0 .653.134l.086-.058a.52.52 0 0 0 .164-.71A8.64 8.64 0 0 0 13.37 7.33a8.1 8.1 0 0 0-4.992 4.924 8.582 8.582 0 1 0 16.387 4.935M16.874 3.95h-.96A11.443 11.443 0 0 0 5.41 18.59a.547.547 0 0 0 .682.365h.077a.55.55 0 0 0 .288-.643 10.349 10.349 0 1 1 7.68 7.2.52.52 0 0 0-.519.192.557.557 0 0 0 .317.893A11.434 11.434 0 1 0 16.874 3.95"/></g></svg>