<svg xmlns="http://www.w3.org/2000/svg" xmlns:xlink="http://www.w3.org/1999/xlink" width="32" height="32" viewBox="0 0 32 32"><defs><filter id="tzc_svg-b" width="111.7%" height="111.7%" x="-5.8%" y="-4.2%" filterUnits="objectBoundingBox"><feOffset dy=".5" in="SourceAlpha" result="shadowOffsetOuter1"/><feGaussianBlur in="shadowOffsetOuter1" result="shadowBlurOuter1" stdDeviation=".5"/><feComposite in="shadowBlurOuter1" in2="SourceAlpha" operator="out" result="shadowBlurOuter1"/><feColorMatrix in="shadowBlurOuter1" values="0 0 0 0 0 0 0 0 0 0 0 0 0 0 0 0 0 0 0.199473505 0"/></filter><filter id="tzc_svg-e" width="117.5%" height="117.5%" x="-8.8%" y="-6.2%" filterUnits="objectBoundingBox"><feOffset dy=".5" in="SourceAlpha" result="shadowOffsetOuter1"/><feGaussianBlur in="shadowOffsetOuter1" result="shadowBlurOuter1" stdDeviation=".5"/><feColorMatrix in="shadowBlurOuter1" values="0 0 0 0 0 0 0 0 0 0 0 0 0 0 0 0 0 0 0.204257246 0"/></filter><linearGradient id="tzc_svg-c" x1="50%" x2="50%" y1="0%" y2="100%"><stop offset="0%" stop-color="#FFF" stop-opacity=".5"/><stop offset="100%" stop-opacity=".5"/></linearGradient><circle id="tzc_svg-a" cx="16" cy="15" r="15"/><path id="tzc_svg-d" d="M17.7 14.4v7.598q.306-.075.6-.173v2.91a10 10 0 0 1-4 .121V14.4h-3.5v-2.8h10.4v2.8zm1.4 10.11V21.5a7.2 7.2 0 1 0-6.2 0v3.01C8.895 23.205 6 19.44 6 15 6 9.477 10.477 5 16 5s10 4.477 10 10c0 4.44-2.895 8.205-6.9 9.51"/></defs><g fill="none" fill-rule="evenodd"><use xlink:href="#tzc_svg-a" fill="#000" filter="url(#tzc_svg-b)"/><use xlink:href="#tzc_svg-a" fill="#374851"/><use xlink:href="#tzc_svg-a" fill="url(#tzc_svg-c)" style="mix-blend-mode:soft-light"/><circle cx="16" cy="15" r="14.5" stroke="#000" stroke-opacity=".097"/><use xlink:href="#tzc_svg-d" fill="#000" filter="url(#tzc_svg-e)"/><use xlink:href="#tzc_svg-d" fill="#FFF"/></g></svg>