<svg xmlns="http://www.w3.org/2000/svg" xmlns:xlink="http://www.w3.org/1999/xlink" width="32" height="32" viewBox="0 0 32 32"><defs><filter id="uma_svg-b" width="111.7%" height="111.7%" x="-5.8%" y="-4.2%" filterUnits="objectBoundingBox"><feOffset dy=".5" in="SourceAlpha" result="shadowOffsetOuter1"/><feGaussianBlur in="shadowOffsetOuter1" result="shadowBlurOuter1" stdDeviation=".5"/><feComposite in="shadowBlurOuter1" in2="SourceAlpha" operator="out" result="shadowBlurOuter1"/><feColorMatrix in="shadowBlurOuter1" values="0 0 0 0 0 0 0 0 0 0 0 0 0 0 0 0 0 0 0.199473505 0"/></filter><filter id="uma_svg-d"><feColorMatrix in="SourceGraphic" values="0 0 0 0 1.000000 0 0 0 0 1.000000 0 0 0 0 1.000000 0 0 0 1.000000 0"/></filter><filter id="uma_svg-e" width="131.2%" height="225%" x="-15.6%" y="-62.5%" filterUnits="objectBoundingBox"><feOffset dy=".5" in="SourceAlpha" result="shadowOffsetOuter1"/><feGaussianBlur in="shadowOffsetOuter1" result="shadowBlurOuter1" stdDeviation=".5"/><feColorMatrix in="shadowBlurOuter1" result="shadowMatrixOuter1" values="0 0 0 0 0 0 0 0 0 0 0 0 0 0 0 0 0 0 0.204257246 0"/><feMerge><feMergeNode in="shadowMatrixOuter1"/><feMergeNode in="SourceGraphic"/></feMerge></filter><linearGradient id="uma_svg-c" x1="50%" x2="50%" y1="0%" y2="100%"><stop offset="0%" stop-color="#FFF" stop-opacity=".5"/><stop offset="100%" stop-opacity=".5"/></linearGradient><circle id="uma_svg-a" cx="16" cy="15" r="15"/></defs><g fill="none" fill-rule="evenodd"><use xlink:href="#uma_svg-a" fill="#000" filter="url(#uma_svg-b)"/><use xlink:href="#uma_svg-a" fill="#FF4A4A"/><use xlink:href="#uma_svg-a" fill="url(#uma_svg-c)" style="mix-blend-mode:soft-light"/><circle cx="16" cy="15" r="14.5" stroke="#000" stroke-linejoin="square" stroke-opacity=".097"/><g filter="url(#uma_svg-d)"><g fill="#FFF" fill-rule="nonzero" filter="url(#uma_svg-e)" transform="translate(4 12)"><path d="M15.328 5.981h-1.012a.346.346 0 0 1-.347-.347V2.972l-1.772 1.106a.46.46 0 0 1-.488 0L9.947 2.972v2.662c0 .188-.15.347-.347.347H8.597a.346.346 0 0 1-.347-.347V.497a.46.46 0 0 1 .46-.46q.14 0 .252.085l2.794 1.922a.32.32 0 0 0 .385 0L14.934.122a.464.464 0 0 1 .722.375v5.137a.33.33 0 0 1-.328.347M6.74 5.972H.46a.46.46 0 0 1-.46-.46V.348A.354.354 0 0 1 .356 0H1.37c.187 0 .347.15.347.347v3.928h3.806V.347c0-.188.15-.347.347-.347h.984c.188 0 .347.15.347.347v5.166a.46.46 0 0 1-.46.459zM17.184 0h6.282a.46.46 0 0 1 .459.46v5.165c0 .188-.15.347-.338.347h-1.012a.346.346 0 0 1-.347-.347V1.922a.23.23 0 0 0-.225-.225h-3.347a.23.23 0 0 0-.225.225v3.703c0 .188-.15.347-.347.347h-1.012a.346.346 0 0 1-.347-.347V.459a.46.46 0 0 1 .46-.459z"/><path d="M19.819 2.784h1.003c.187 0 .347.15.347.347v1.022c0 .188-.15.347-.347.347h-1.003a.346.346 0 0 1-.347-.347V3.122c0-.188.16-.338.347-.338"/></g></g></g></svg>