<svg xmlns="http://www.w3.org/2000/svg" xmlns:xlink="http://www.w3.org/1999/xlink" width="32" height="32" viewBox="0 0 32 32"><defs><filter id="unity_svg-b" width="111.7%" height="111.7%" x="-5.8%" y="-4.2%" filterUnits="objectBoundingBox"><feOffset dy=".5" in="SourceAlpha" result="shadowOffsetOuter1"/><feGaussianBlur in="shadowOffsetOuter1" result="shadowBlurOuter1" stdDeviation=".5"/><feComposite in="shadowBlurOuter1" in2="SourceAlpha" operator="out" result="shadowBlurOuter1"/><feColorMatrix in="shadowBlurOuter1" values="0 0 0 0 0 0 0 0 0 0 0 0 0 0 0 0 0 0 0.199473505 0"/></filter><filter id="unity_svg-d" width="115.9%" height="125%" x="-8%" y="-8.9%" filterUnits="objectBoundingBox"><feOffset dy=".5" in="SourceAlpha" result="shadowOffsetOuter1"/><feGaussianBlur in="shadowOffsetOuter1" result="shadowBlurOuter1" stdDeviation=".5"/><feColorMatrix in="shadowBlurOuter1" result="shadowMatrixOuter1" values="0 0 0 0 0 0 0 0 0 0 0 0 0 0 0 0 0 0 0.204257246 0"/><feMerge><feMergeNode in="shadowMatrixOuter1"/><feMergeNode in="SourceGraphic"/></feMerge></filter><linearGradient id="unity_svg-c" x1="50%" x2="50%" y1="0%" y2="100%"><stop offset="0%" stop-color="#FFF" stop-opacity=".5"/><stop offset="100%" stop-opacity=".5"/></linearGradient><circle id="unity_svg-a" cx="16" cy="15" r="15"/></defs><g fill="none" fill-rule="evenodd"><use xlink:href="#unity_svg-a" fill="#000" filter="url(#unity_svg-b)"/><use xlink:href="#unity_svg-a" fill="#F58634"/><use xlink:href="#unity_svg-a" fill="url(#unity_svg-c)" style="mix-blend-mode:soft-light"/><circle cx="16" cy="15" r="14.5" stroke="#000" stroke-opacity=".097"/><g fill="#FFF" fill-rule="nonzero" filter="url(#unity_svg-d)" transform="translate(5 8)"><path d="M8.288 13.732h.004q1.783-.216 3-1.08 1.611-1.155 1.611-2.934c0-1-.393-1.837-1.178-2.522q-1.18-1.025-3.198-1.242c-.457-.059-1.105-.102-1.937-.15q-2.72-.164-3.537-.747a1.7 1.7 0 0 1-.48-.522 1.24 1.24 0 0 1-.156-.61c0-.561.324-1.035.977-1.408.652-.372 1.476-.562 2.478-.562.949 0 1.89.162 2.78.48 3.826 1.364 7.48 6.132 9.913 9.546-1.983 1.205-4.684 1.948-7.66 1.948q-1.316 0-2.617-.197M4.009 11.79C.516 10.515-1.013 7.364.712 4.304c.048.43.207.843.463 1.2q.48.672 1.407 1.101c2.155.936 6.118.338 7.75 1.527q.824.6.824 1.534 0 1.175-1.149 1.922-1.148.747-2.987.747a8.9 8.9 0 0 1-3.01-.545z"/><path fill-opacity=".5" d="M20.912 9.875V4.021c.657.889 1.024 1.882 1.024 2.927s-.367 2.037-1.024 2.927m-1.649-7.46.005 7.461C16.925 6.55 13.424 2.365 9.121.967A10.6 10.6 0 0 0 6.828.49 17 17 0 0 1 10.905 0c3.34 0 6.335.936 8.358 2.415"/></g></g></svg>