<svg xmlns="http://www.w3.org/2000/svg" xmlns:xlink="http://www.w3.org/1999/xlink" width="32" height="32" viewBox="0 0 32 32"><defs><filter id="usd_svg-b" width="111.7%" height="111.7%" x="-5.8%" y="-4.2%" filterUnits="objectBoundingBox"><feOffset dy=".5" in="SourceAlpha" result="shadowOffsetOuter1"/><feGaussianBlur in="shadowOffsetOuter1" result="shadowBlurOuter1" stdDeviation=".5"/><feComposite in="shadowBlurOuter1" in2="SourceAlpha" operator="out" result="shadowBlurOuter1"/><feColorMatrix in="shadowBlurOuter1" values="0 0 0 0 0 0 0 0 0 0 0 0 0 0 0 0 0 0 0.199473505 0"/></filter><filter id="usd_svg-e" width="126.9%" height="117.5%" x="-13.5%" y="-6.2%" filterUnits="objectBoundingBox"><feOffset dy=".5" in="SourceAlpha" result="shadowOffsetOuter1"/><feGaussianBlur in="shadowOffsetOuter1" result="shadowBlurOuter1" stdDeviation=".5"/><feColorMatrix in="shadowBlurOuter1" values="0 0 0 0 0 0 0 0 0 0 0 0 0 0 0 0 0 0 0.204257246 0"/></filter><linearGradient id="usd_svg-c" x1="50%" x2="50%" y1="0%" y2="100%"><stop offset="0%" stop-color="#FFF" stop-opacity=".5"/><stop offset="100%" stop-opacity=".5"/></linearGradient><circle id="usd_svg-a" cx="16" cy="15" r="15"/><path id="usd_svg-d" d="M22.5 18.154c0 2.57-2.086 4.276-5.166 4.533V25h-2.11v-2.336A11.5 11.5 0 0 1 9.5 20.35l1.552-2.126c1.383 1.075 2.692 1.776 4.269 2.01v-4.58c-3.541-.888-5.19-2.173-5.19-4.813 0-2.523 2.061-4.252 5.093-4.486V5h2.11v1.402a9.5 9.5 0 0 1 4.56 1.776l-1.359 2.196c-1.067-.771-2.158-1.262-3.298-1.495v4.439c3.687.888 5.263 2.313 5.263 4.836m-7.18-5.327V8.715c-1.527.117-2.327.935-2.327 1.963 0 .98.46 1.612 2.328 2.15zm4.318 5.49c0-1.05-.51-1.681-2.401-2.219v4.23c1.528-.118 2.401-.889 2.401-2.01z"/></defs><g fill="none" fill-rule="evenodd"><use xlink:href="#usd_svg-a" fill="#000" filter="url(#usd_svg-b)"/><use xlink:href="#usd_svg-a" fill="#6CDE07"/><use xlink:href="#usd_svg-a" fill="url(#usd_svg-c)" style="mix-blend-mode:soft-light"/><circle cx="16" cy="15" r="14.5" stroke="#000" stroke-opacity=".097"/><use xlink:href="#usd_svg-d" fill="#000" filter="url(#usd_svg-e)"/><use xlink:href="#usd_svg-d" fill="#FFF"/></g></svg>