<svg xmlns="http://www.w3.org/2000/svg" xmlns:xlink="http://www.w3.org/1999/xlink" width="32" height="32" viewBox="0 0 32 32"><defs><filter id="utk_svg-b" width="111.7%" height="111.7%" x="-5.8%" y="-4.2%" filterUnits="objectBoundingBox"><feOffset dy=".5" in="SourceAlpha" result="shadowOffsetOuter1"/><feGaussianBlur in="shadowOffsetOuter1" result="shadowBlurOuter1" stdDeviation=".5"/><feComposite in="shadowBlurOuter1" in2="SourceAlpha" operator="out" result="shadowBlurOuter1"/><feColorMatrix in="shadowBlurOuter1" values="0 0 0 0 0 0 0 0 0 0 0 0 0 0 0 0 0 0 0.199473505 0"/></filter><filter id="utk_svg-e" width="131.8%" height="117.5%" x="-15.9%" y="-6.2%" filterUnits="objectBoundingBox"><feOffset dy=".5" in="SourceAlpha" result="shadowOffsetOuter1"/><feGaussianBlur in="shadowOffsetOuter1" result="shadowBlurOuter1" stdDeviation=".5"/><feColorMatrix in="shadowBlurOuter1" values="0 0 0 0 0 0 0 0 0 0 0 0 0 0 0 0 0 0 0.204257246 0"/></filter><linearGradient id="utk_svg-c" x1="50%" x2="50%" y1="0%" y2="100%"><stop offset="0%" stop-color="#FFF" stop-opacity=".5"/><stop offset="100%" stop-opacity=".5"/></linearGradient><circle id="utk_svg-a" cx="16" cy="15" r="15"/><path id="utk_svg-d" d="M14.353 21.298V8.028H10.5V5h11v3.028h-3.853v13.27zM13.466 25c-1.989 0-2.93-.956-2.93-2.978V8.896h2.894v12.992c0 .32.105.426.419.426h4.339c.314 0 .42-.107.42-.426V8.896H21.5v13.126c0 2.022-.942 2.978-2.93 2.978z"/></defs><g fill="none" fill-rule="evenodd"><use xlink:href="#utk_svg-a" fill="#000" filter="url(#utk_svg-b)"/><use xlink:href="#utk_svg-a" fill="#30367A"/><use xlink:href="#utk_svg-a" fill="url(#utk_svg-c)" style="mix-blend-mode:soft-light"/><circle cx="16" cy="15" r="14.5" stroke="#000" stroke-opacity=".097"/><g fill-rule="nonzero"><use xlink:href="#utk_svg-d" fill="#000" filter="url(#utk_svg-e)"/><use xlink:href="#utk_svg-d" fill="#FFF" fill-rule="evenodd"/></g></g></svg>