<svg xmlns="http://www.w3.org/2000/svg" xmlns:xlink="http://www.w3.org/1999/xlink" width="32" height="32" viewBox="0 0 32 32"><defs><filter id="veri_svg-b" width="111.7%" height="111.7%" x="-5.8%" y="-4.2%" filterUnits="objectBoundingBox"><feOffset dy=".5" in="SourceAlpha" result="shadowOffsetOuter1"/><feGaussianBlur in="shadowOffsetOuter1" result="shadowBlurOuter1" stdDeviation=".5"/><feComposite in="shadowBlurOuter1" in2="SourceAlpha" operator="out" result="shadowBlurOuter1"/><feColorMatrix in="shadowBlurOuter1" values="0 0 0 0 0 0 0 0 0 0 0 0 0 0 0 0 0 0 0.199473505 0"/></filter><filter id="veri_svg-e" width="117.5%" height="121.9%" x="-8.8%" y="-7.8%" filterUnits="objectBoundingBox"><feOffset dy=".5" in="SourceAlpha" result="shadowOffsetOuter1"/><feGaussianBlur in="shadowOffsetOuter1" result="shadowBlurOuter1" stdDeviation=".5"/><feColorMatrix in="shadowBlurOuter1" values="0 0 0 0 0 0 0 0 0 0 0 0 0 0 0 0 0 0 0.204257246 0"/></filter><linearGradient id="veri_svg-c" x1="50%" x2="50%" y1="0%" y2="100%"><stop offset="0%" stop-color="#FFF" stop-opacity=".5"/><stop offset="100%" stop-opacity=".5"/></linearGradient><circle id="veri_svg-a" cx="16" cy="15" r="15"/><path id="veri_svg-d" d="M6 7q1.657.003 3.312 0l2.091 11.18q.05.247.116.49c.164-.65.267-1.314.404-1.97L13.827 7l3.204.001q-1.762 7.848-3.527 15.697H9.527Q7.762 14.855 6 7.01zm12.314 4.932c.697-.876 1.811-1.273 2.885-1.343 1.06-.074 2.202.022 3.1.654.795.556 1.231 1.496 1.438 2.431.251 1.172.264 2.376.263 3.57h-5.87c.005.883-.05 1.794.245 2.64.143.416.41.83.834.981.452.147.996.051 1.326-.313.44-.498.532-1.196.628-1.835h2.664c-.06 1.06-.256 2.18-.95 3.013-.696.866-1.818 1.22-2.88 1.263-1.154.044-2.407-.113-3.327-.89-.855-.713-1.228-1.843-1.376-2.926-.148-1.247-.156-2.509-.087-3.762.093-1.222.314-2.516 1.106-3.484zm2.274 1.245c-.454.654-.466 1.496-.458 2.267h3.032c-.047-.733-.042-1.507-.372-2.178-.41-.828-1.706-.831-2.2-.088z"/></defs><g fill="none"><use xlink:href="#veri_svg-a" fill="#000" filter="url(#veri_svg-b)"/><use xlink:href="#veri_svg-a" fill="#F93" fill-rule="evenodd"/><use xlink:href="#veri_svg-a" fill="url(#veri_svg-c)" fill-rule="evenodd" style="mix-blend-mode:soft-light"/><circle cx="16" cy="15" r="14.5" stroke="#000" stroke-opacity=".097"/><use xlink:href="#veri_svg-d" fill="#000" filter="url(#veri_svg-e)"/><use xlink:href="#veri_svg-d" fill="#FFF" fill-rule="evenodd"/></g></svg>