<svg xmlns="http://www.w3.org/2000/svg" xmlns:xlink="http://www.w3.org/1999/xlink" width="32" height="32" viewBox="0 0 32 32"><defs><filter id="vet_svg-b" width="111.7%" height="111.7%" x="-5.8%" y="-4.2%" filterUnits="objectBoundingBox"><feOffset dy=".5" in="SourceAlpha" result="shadowOffsetOuter1"/><feGaussianBlur in="shadowOffsetOuter1" result="shadowBlurOuter1" stdDeviation=".5"/><feComposite in="shadowBlurOuter1" in2="SourceAlpha" operator="out" result="shadowBlurOuter1"/><feColorMatrix in="shadowBlurOuter1" values="0 0 0 0 0 0 0 0 0 0 0 0 0 0 0 0 0 0 0.199473505 0"/></filter><filter id="vet_svg-e" width="119.4%" height="120.6%" x="-9.7%" y="-7.4%" filterUnits="objectBoundingBox"><feOffset dy=".5" in="SourceAlpha" result="shadowOffsetOuter1"/><feGaussianBlur in="shadowOffsetOuter1" result="shadowBlurOuter1" stdDeviation=".5"/><feColorMatrix in="shadowBlurOuter1" values="0 0 0 0 0 0 0 0 0 0 0 0 0 0 0 0 0 0 0.204257246 0"/></filter><linearGradient id="vet_svg-c" x1="50%" x2="50%" y1="0%" y2="100%"><stop offset="0%" stop-color="#FFF" stop-opacity=".5"/><stop offset="100%" stop-opacity=".5"/></linearGradient><circle id="vet_svg-a" cx="16" cy="15" r="15"/><path id="vet_svg-d" d="M14.738 23.734 7.04 8.046a.38.38 0 0 1 .34-.546h2.668c.143 0 .277.08.34.206l5.622 11.381c.5 1.02 1.951 1.02 2.452 0l5.604-11.372a.38.38 0 0 1 .34-.206h.332c.197 0 .322.206.233.376l-7.78 15.85c-.501 1.02-1.951 1.02-2.453 0z"/></defs><g fill="none" fill-rule="evenodd"><use xlink:href="#vet_svg-a" fill="#000" filter="url(#vet_svg-b)"/><use xlink:href="#vet_svg-a" fill="#15BDFF"/><use xlink:href="#vet_svg-a" fill="url(#vet_svg-c)" style="mix-blend-mode:soft-light"/><circle cx="16" cy="15" r="14.5" stroke="#000" stroke-opacity=".097"/><g fill-rule="nonzero"><use xlink:href="#vet_svg-d" fill="#000" filter="url(#vet_svg-e)"/><use xlink:href="#vet_svg-d" fill="#FFF" fill-rule="evenodd"/></g></g></svg>