<svg xmlns="http://www.w3.org/2000/svg" xmlns:xlink="http://www.w3.org/1999/xlink" width="32" height="32" viewBox="0 0 32 32"><defs><filter id="wbtc_svg-b" width="111.7%" height="111.7%" x="-5.8%" y="-4.2%" filterUnits="objectBoundingBox"><feOffset dy=".5" in="SourceAlpha" result="shadowOffsetOuter1"/><feGaussianBlur in="shadowOffsetOuter1" result="shadowBlurOuter1" stdDeviation=".5"/><feComposite in="shadowBlurOuter1" in2="SourceAlpha" operator="out" result="shadowBlurOuter1"/><feColorMatrix in="shadowBlurOuter1" values="0 0 0 0 0 0 0 0 0 0 0 0 0 0 0 0 0 0 0.199473505 0"/></filter><filter id="wbtc_svg-d"><feColorMatrix in="SourceGraphic" values="0 0 0 0 1.000000 0 0 0 0 1.000000 0 0 0 0 1.000000 0 0 0 1.000000 0"/></filter><filter id="wbtc_svg-e" width="134.1%" height="134.1%" x="-17%" y="-17%" filterUnits="objectBoundingBox"><feOffset dy=".5" in="SourceAlpha" result="shadowOffsetOuter1"/><feGaussianBlur in="shadowOffsetOuter1" result="shadowBlurOuter1" stdDeviation=".5"/><feColorMatrix in="shadowBlurOuter1" result="shadowMatrixOuter1" values="0 0 0 0 0 0 0 0 0 0 0 0 0 0 0 0 0 0 0.204257246 0"/><feMerge><feMergeNode in="shadowMatrixOuter1"/><feMergeNode in="SourceGraphic"/></feMerge></filter><linearGradient id="wbtc_svg-c" x1="50%" x2="50%" y1="0%" y2="100%"><stop offset="0%" stop-color="#FFF" stop-opacity=".5"/><stop offset="100%" stop-opacity=".5"/></linearGradient><circle id="wbtc_svg-a" cx="16" cy="15" r="15"/></defs><g fill="none" fill-rule="evenodd"><use xlink:href="#wbtc_svg-a" fill="#000" filter="url(#wbtc_svg-b)"/><use xlink:href="#wbtc_svg-a" fill="#201A2D"/><use xlink:href="#wbtc_svg-a" fill="url(#wbtc_svg-c)" style="mix-blend-mode:soft-light"/><circle cx="16" cy="15" r="14.5" stroke="#000" stroke-linejoin="square" stroke-opacity=".097"/><g filter="url(#wbtc_svg-d)"><g fill="#FFF" fill-rule="nonzero" filter="url(#wbtc_svg-e)" transform="translate(5 4)"><path d="m17.818 4.586-.6.6a8.494 8.494 0 0 1 0 11.464l.6.6a9.35 9.35 0 0 0 0-12.678zM5.2 4.638a8.494 8.494 0 0 1 11.464 0l.6-.6a9.35 9.35 0 0 0-12.678 0zm-.562 12.018a8.494 8.494 0 0 1 0-11.458l-.6-.6a9.35 9.35 0 0 0 0 12.678zm12.018.554a8.494 8.494 0 0 1-11.464 0l-.6.6a9.35 9.35 0 0 0 12.678 0zm-1.942-8.286c-.12-1.252-1.2-1.672-2.566-1.8V5.4h-1.056v1.692h-.844V5.4H9.2v1.736H7.058v1.13s.78-.014.768 0a.546.546 0 0 1 .6.464v4.752a.37.37 0 0 1-.128.258.37.37 0 0 1-.272.092c.014.012-.768 0-.768 0l-.2 1.262H9.18v1.764h1.056V15.12h.844v1.73h1.058v-1.744c1.784-.108 3.028-.548 3.184-2.218.126-1.344-.506-1.944-1.516-2.186.614-.302.994-.862.908-1.778m-1.48 3.756c0 1.312-2.248 1.162-2.964 1.162v-2.328c.716.002 2.964-.204 2.964 1.166m-.49-3.28c0 1.2-1.876 1.054-2.472 1.054V8.338c.596 0 2.472-.188 2.472 1.062"/><path d="M10.924 21.852C4.89 21.851 0 16.959 0 10.925S4.892 0 10.925 0s10.926 4.89 10.927 10.924a10.926 10.926 0 0 1-10.928 10.928m0-21C5.365.856.862 5.365.864 10.924s4.51 10.064 10.068 10.064c5.559 0 10.066-4.505 10.068-10.064A10.07 10.07 0 0 0 10.924.852"/></g></g></g></svg>