<svg xmlns="http://www.w3.org/2000/svg" xmlns:xlink="http://www.w3.org/1999/xlink" width="32" height="32" viewBox="0 0 32 32"><defs><linearGradient id="wicc_svg-c" x1="50%" x2="50%" y1="0%" y2="100%"><stop offset="0%" stop-color="#FFF" stop-opacity=".5"/><stop offset="100%" stop-opacity=".5"/></linearGradient><filter id="wicc_svg-b" width="111.7%" height="111.7%" x="-5.8%" y="-4.2%" filterUnits="objectBoundingBox"><feOffset dy=".5" in="SourceAlpha" result="shadowOffsetOuter1"/><feGaussianBlur in="shadowOffsetOuter1" result="shadowBlurOuter1" stdDeviation=".5"/><feComposite in="shadowBlurOuter1" in2="SourceAlpha" operator="out" result="shadowBlurOuter1"/><feColorMatrix in="shadowBlurOuter1" values="0 0 0 0 0 0 0 0 0 0 0 0 0 0 0 0 0 0 0.199473505 0"/></filter><circle id="wicc_svg-a" cx="15" cy="15" r="15"/></defs><g fill="none"><g transform="translate(1)"><use xlink:href="#wicc_svg-a" fill="#000" filter="url(#wicc_svg-b)"/><use xlink:href="#wicc_svg-a" fill="#5783CB"/><use xlink:href="#wicc_svg-a" fill="url(#wicc_svg-c)" style="mix-blend-mode:soft-light"/><circle cx="15" cy="15" r="14.5" stroke="#000" stroke-linejoin="square" stroke-opacity=".097"/></g><g fill="#FFF"><path d="M15.303 4h1.137a10.62 10.62 0 0 1 6.673 2.787c.312.201.312.696-.055.825-.311.073-.55-.202-.788-.367A9.845 9.845 0 0 0 8.703 8.822a9.625 9.625 0 0 0 10.634 15.161 9.9 9.9 0 0 0 6.453-7.333c.162-.668.266-1.349.312-2.035a.387.387 0 0 1 .77.073l-.037 1.137a10.7 10.7 0 0 1-3.153 7.022A10.93 10.93 0 0 1 16.532 26H15.45A11.02 11.02 0 0 1 5 15.513v-1.026A11.055 11.055 0 0 1 15.303 4"/><path d="M24.25 9.702c.733-.807 2.255-.367 2.42.715.238.971-.697 1.796-1.65 1.723-1.265 1.283-2.273 2.805-3.135 4.4-.348.477.092 1.1-.183 1.595-.33.972-1.76 1.173-2.384.367-.458-.514-.33-1.229-.091-1.797a7.4 7.4 0 0 0-1.375-1.962l-.55.019a17.7 17.7 0 0 0-2.952 4.455c.128.495.22 1.081-.128 1.521-.459.752-1.669.825-2.237.129-.422-.477-.367-1.155-.147-1.724a17.2 17.2 0 0 0-2.676-4.766c-.715-.037-1.467-.459-1.559-1.21-.238-1.027.935-2.017 1.907-1.559.862.312 1.1 1.412.678 2.164a17.6 17.6 0 0 0 2.879 4.84 15.5 15.5 0 0 0 3.171-4.529c-.146-.495-.238-1.063.092-1.521.495-.807 1.815-.825 2.328-.019.385.495.257 1.155.037 1.687a7.7 7.7 0 0 0 1.338 1.98l.55-.037c1.339-1.411 2.567-2.97 3.392-4.748-.092-.587-.202-1.283.293-1.723z"/></g></g></svg>