<svg xmlns="http://www.w3.org/2000/svg" xmlns:xlink="http://www.w3.org/1999/xlink" width="32" height="32" viewBox="0 0 32 32"><defs><linearGradient id="x_svg-c" x1="50%" x2="50%" y1="0%" y2="100%"><stop offset="0%" stop-color="#FFF" stop-opacity=".5"/><stop offset="100%" stop-opacity=".5"/></linearGradient><filter id="x_svg-b" width="111.7%" height="111.7%" x="-5.8%" y="-4.2%" filterUnits="objectBoundingBox"><feOffset dy=".5" in="SourceAlpha" result="shadowOffsetOuter1"/><feGaussianBlur in="shadowOffsetOuter1" result="shadowBlurOuter1" stdDeviation=".5"/><feComposite in="shadowBlurOuter1" in2="SourceAlpha" operator="out" result="shadowBlurOuter1"/><feColorMatrix in="shadowBlurOuter1" values="0 0 0 0 0 0 0 0 0 0 0 0 0 0 0 0 0 0 0.199473505 0"/></filter><circle id="x_svg-a" cx="15" cy="15" r="15"/></defs><g fill="none" fill-rule="evenodd"><g fill-rule="nonzero" transform="translate(1)"><use xlink:href="#x_svg-a" fill="#000" filter="url(#x_svg-b)"/><use xlink:href="#x_svg-a" fill="#3B5998"/><use xlink:href="#x_svg-a" fill="url(#x_svg-c)" style="mix-blend-mode:soft-light"/><circle cx="15" cy="15" r="14.5" stroke="#000" stroke-linejoin="square" stroke-opacity=".097"/></g><g fill="#FFF"><path d="M14.304 6.008h1.693v5.295l-1.693-1.767z"/><path d="M7.01 7.793h4.454c1.51 1.58 3.025 3.157 4.534 4.74.874-.908 1.745-1.822 2.615-2.733q.965-1.002 1.926-2.007h4.444l-6.218 6.291q-.33.329-.65.66c.051.056.107.111.154.17l6.094 6.162.622.627h-3.447c-.09 0-.178.005-.266-.007-.245-.007-.492.003-.738-.005-.445-.46-.885-.926-1.33-1.388q-1.313-1.368-2.624-2.74c-.195-.202-.385-.408-.583-.605-.424.45-.858.894-1.283 1.345l-2.41 2.514q-.418.44-.84.874c-.244.006-.488 0-.733.003-.14.017-.28.005-.42.009h-3.3l6.54-6.616q.17-.168.333-.342z"/><path d="M16 18.178c.563.597 1.134 1.187 1.7 1.782.003 1.176 0 2.35 0 3.527h-1.702q-.001-2.655.004-5.309z"/></g></g></svg>