<svg xmlns="http://www.w3.org/2000/svg" xmlns:xlink="http://www.w3.org/1999/xlink" width="32" height="32" viewBox="0 0 32 32"><defs><linearGradient id="xbp_svg-c" x1="50%" x2="50%" y1="0%" y2="100%"><stop offset="0%" stop-color="#FFF" stop-opacity=".5"/><stop offset="100%" stop-opacity=".5"/></linearGradient><filter id="xbp_svg-b" width="111.7%" height="111.7%" x="-5.8%" y="-4.2%" filterUnits="objectBoundingBox"><feOffset dy=".5" in="SourceAlpha" result="shadowOffsetOuter1"/><feGaussianBlur in="shadowOffsetOuter1" result="shadowBlurOuter1" stdDeviation=".5"/><feComposite in="shadowBlurOuter1" in2="SourceAlpha" operator="out" result="shadowBlurOuter1"/><feColorMatrix in="shadowBlurOuter1" values="0 0 0 0 0 0 0 0 0 0 0 0 0 0 0 0 0 0 0.199473505 0"/></filter><circle id="xbp_svg-a" cx="15" cy="15" r="15"/></defs><g fill="none"><g transform="translate(1)"><use xlink:href="#xbp_svg-a" fill="#000" filter="url(#xbp_svg-b)"/><use xlink:href="#xbp_svg-a" fill="#21AF67"/><use xlink:href="#xbp_svg-a" fill="url(#xbp_svg-c)" style="mix-blend-mode:soft-light"/><circle cx="15" cy="15" r="14.5" stroke="#000" stroke-linejoin="square" stroke-opacity=".097"/></g><path fill="#FFF" d="M16 26C9.925 26 5 21.075 5 15S9.925 4 16 4s11 4.925 11 11-4.925 11-11 11m4.229-14.986q-.244-.33-.786-.538-.54-.21-1.485-.21h-1.33l1.08-2.964.72-1.977a10 10 0 0 0-2.21-.295c-.073 0-.146-.005-.22-.005q-.168.002-.337.008c-5.343.18-9.636 4.58-9.636 9.967a9.95 9.95 0 0 0 3.401 7.493l.782-2.15A7.86 7.86 0 0 1 8.113 15c0-3.967 2.945-7.257 6.762-7.805q.286-.04.578-.063l-2.88 7.915 5.746-.566-.01-.003a2.6 2.6 0 0 0 .514-.23 3.7 3.7 0 0 0 1.087-.94 2.6 2.6 0 0 0 .383-.7c.101-.27.158-.554.17-.841a1.17 1.17 0 0 0-.234-.753m-2.451 1.93q-.187.51-.592.719a1.8 1.8 0 0 1-.822.209h-1.036l.695-1.91h1.036q.187 0 .366.047.167.041.294.154c.081.081.13.189.138.303.01.163-.016.327-.08.477zm1.156-7.479-.717 1.968a7.886 7.886 0 1 1-5.28 14.834 8 8 0 0 1-.475-.223l.817-2.24h1.328q1.803 0 2.96-.613 1.156-.612 1.648-1.956.18-.498.129-.875a1.6 1.6 0 0 0-.222-.645 1.4 1.4 0 0 0-.422-.432 2.4 2.4 0 0 0-.42-.217l-5.8.572-1.865 5.116-.762 2.094a10 10 0 0 0 2.37 1.382 9.9 9.9 0 0 0 3.777.745c5.5 0 9.975-4.474 9.975-9.975 0-4.48-2.968-8.279-7.041-9.535M14.68 15.984h1.21q.218 0 .43.04.21.035.39.148c.11.074.188.186.22.315q.06.208-.062.544a1.6 1.6 0 0 1-.345.579c-.13.135-.284.244-.454.322a1.8 1.8 0 0 1-.495.142 4 4 0 0 1-.456.033h-1.213z"/></g></svg>