<svg xmlns="http://www.w3.org/2000/svg" xmlns:xlink="http://www.w3.org/1999/xlink" width="32" height="32" viewBox="0 0 32 32"><defs><filter id="xby_svg-b" width="111.7%" height="111.7%" x="-5.8%" y="-4.2%" filterUnits="objectBoundingBox"><feOffset dy=".5" in="SourceAlpha" result="shadowOffsetOuter1"/><feGaussianBlur in="shadowOffsetOuter1" result="shadowBlurOuter1" stdDeviation=".5"/><feComposite in="shadowBlurOuter1" in2="SourceAlpha" operator="out" result="shadowBlurOuter1"/><feColorMatrix in="shadowBlurOuter1" values="0 0 0 0 0 0 0 0 0 0 0 0 0 0 0 0 0 0 0.199473505 0"/></filter><filter id="xby_svg-e" width="117.5%" height="120.6%" x="-8.8%" y="-7.4%" filterUnits="objectBoundingBox"><feOffset dy=".5" in="SourceAlpha" result="shadowOffsetOuter1"/><feGaussianBlur in="shadowOffsetOuter1" result="shadowBlurOuter1" stdDeviation=".5"/><feColorMatrix in="shadowBlurOuter1" values="0 0 0 0 0 0 0 0 0 0 0 0 0 0 0 0 0 0 0.204257246 0"/></filter><linearGradient id="xby_svg-c" x1="50%" x2="50%" y1="0%" y2="100%"><stop offset="0%" stop-color="#FFF" stop-opacity=".5"/><stop offset="100%" stop-opacity=".5"/></linearGradient><circle id="xby_svg-a" cx="16" cy="15" r="15"/><path id="xby_svg-d" d="M6 8.016c0-.015.21-.016 2.918-.014l2.919.003 1.66 2.793 1.688 2.841.028.047.264-.45c.144-.248.262-.455.26-.461a818 818 0 0 0-1.41-2.38 269 269 0 0 1-1.406-2.38c0-.013.439-.015 3.073-.015 1.706 0 3.072.004 3.072.01 0 .02-6.515 11.097-6.53 11.1-.011.002-.964-1.608-3.276-5.537C7.467 10.526 6 8.026 6 8.016m14.14-.009c0-.004 1.32-.007 2.931-.007H26l-.004.022c-.003.013-1.463 2.501-3.244 5.529-2.159 3.667-3.246 5.506-3.26 5.508s-.319-.507-1.345-2.234c-.732-1.23-1.333-2.24-1.337-2.242-.008-.005-.533.886-.529.898.001.005.604 1.02 1.338 2.256a128 128 0 0 1 1.33 2.265c-.009.035-2.936 4.995-2.948 4.998-.019.004-2.929-4.94-2.923-4.965.005-.011 6.954-11.85 7.061-12.028z"/></defs><g fill="none" fill-rule="evenodd"><use xlink:href="#xby_svg-a" fill="#000" filter="url(#xby_svg-b)"/><use xlink:href="#xby_svg-a" fill="#56F4F1"/><use xlink:href="#xby_svg-a" fill="url(#xby_svg-c)" style="mix-blend-mode:soft-light"/><circle cx="16" cy="15" r="14.5" stroke="#000" stroke-opacity=".097"/><g fill-rule="nonzero"><use xlink:href="#xby_svg-d" fill="#000" filter="url(#xby_svg-e)"/><use xlink:href="#xby_svg-d" fill="#FFF" fill-rule="evenodd"/></g></g></svg>