<svg xmlns="http://www.w3.org/2000/svg" xmlns:xlink="http://www.w3.org/1999/xlink" width="32" height="32" viewBox="0 0 32 32"><defs><filter id="xcp_svg-b" width="111.7%" height="111.7%" x="-5.8%" y="-4.2%" filterUnits="objectBoundingBox"><feOffset dy=".5" in="SourceAlpha" result="shadowOffsetOuter1"/><feGaussianBlur in="shadowOffsetOuter1" result="shadowBlurOuter1" stdDeviation=".5"/><feComposite in="shadowBlurOuter1" in2="SourceAlpha" operator="out" result="shadowBlurOuter1"/><feColorMatrix in="shadowBlurOuter1" values="0 0 0 0 0 0 0 0 0 0 0 0 0 0 0 0 0 0 0.199473505 0"/></filter><filter id="xcp_svg-e" width="115.9%" height="125%" x="-8%" y="-8.9%" filterUnits="objectBoundingBox"><feOffset dy=".5" in="SourceAlpha" result="shadowOffsetOuter1"/><feGaussianBlur in="shadowOffsetOuter1" result="shadowBlurOuter1" stdDeviation=".5"/><feColorMatrix in="shadowBlurOuter1" values="0 0 0 0 0 0 0 0 0 0 0 0 0 0 0 0 0 0 0.204257246 0"/></filter><linearGradient id="xcp_svg-c" x1="50%" x2="50%" y1="0%" y2="100%"><stop offset="0%" stop-color="#FFF" stop-opacity=".5"/><stop offset="100%" stop-opacity=".5"/></linearGradient><circle id="xcp_svg-a" cx="16" cy="15" r="15"/><path id="xcp_svg-d" d="M23.48 9h-4.044a.62.62 0 0 0-.44.186l-7.375 7.529a.62.62 0 0 1-.44.186H9.829a.62.62 0 0 1-.44-.186l-.956-.974a.64.64 0 0 1-.183-.447v-1.377a.64.64 0 0 1 .183-.448l.956-.974a.62.62 0 0 1 .44-.186h1.352c.165 0 .323.067.44.186l.587.598a.614.614 0 0 0 .88 0l1.419-1.444a.64.64 0 0 0 0-.896l-1.54-1.567a.62.62 0 0 0-.44-.186H8.483a.62.62 0 0 0-.44.186l-2.86 2.912a.64.64 0 0 0-.182.448v4.118c0 .168.066.33.182.448l2.86 2.913a.62.62 0 0 0 .44.185h4.045a.62.62 0 0 0 .44-.186l7.375-7.528a.62.62 0 0 1 .44-.187h1.352c.165 0 .323.067.44.186l.956.974a.64.64 0 0 1 .183.448v1.377a.64.64 0 0 1-.183.447l-.956.974a.62.62 0 0 1-.44.186h-1.352a.62.62 0 0 1-.44-.186l-.592-.603a.614.614 0 0 0-.875-.005l-1.75 1.742a.64.64 0 0 0-.187.453v4.04c0 .35.279.634.622.634h2.04a.63.63 0 0 0 .623-.633v-1.5c0-.35.279-.633.622-.633h2.635a.62.62 0 0 0 .44-.185l2.86-2.913a.64.64 0 0 0 .183-.448v-4.118a.64.64 0 0 0-.182-.448l-2.86-2.912A.62.62 0 0 0 23.48 9"/></defs><g fill="none" fill-rule="evenodd"><use xlink:href="#xcp_svg-a" fill="#000" filter="url(#xcp_svg-b)"/><use xlink:href="#xcp_svg-a" fill="#ED1650"/><use xlink:href="#xcp_svg-a" fill="url(#xcp_svg-c)" style="mix-blend-mode:soft-light"/><circle cx="16" cy="15" r="14.5" stroke="#000" stroke-opacity=".097"/><use xlink:href="#xcp_svg-d" fill="#000" filter="url(#xcp_svg-e)"/><use xlink:href="#xcp_svg-d" fill="#FFF"/></g></svg>