<svg xmlns="http://www.w3.org/2000/svg" xmlns:xlink="http://www.w3.org/1999/xlink" width="32" height="32" viewBox="0 0 32 32"><defs><linearGradient id="xin_svg-c" x1="50%" x2="50%" y1="0%" y2="100%"><stop offset="0%" stop-color="#FFF" stop-opacity=".5"/><stop offset="100%" stop-opacity=".5"/></linearGradient><filter id="xin_svg-b" width="111.7%" height="111.7%" x="-5.8%" y="-4.2%" filterUnits="objectBoundingBox"><feOffset dy=".5" in="SourceAlpha" result="shadowOffsetOuter1"/><feGaussianBlur in="shadowOffsetOuter1" result="shadowBlurOuter1" stdDeviation=".5"/><feComposite in="shadowBlurOuter1" in2="SourceAlpha" operator="out" result="shadowBlurOuter1"/><feColorMatrix in="shadowBlurOuter1" values="0 0 0 0 0 0 0 0 0 0 0 0 0 0 0 0 0 0 0.199473505 0"/></filter><circle id="xin_svg-a" cx="15" cy="15" r="15"/></defs><g fill="none"><g transform="translate(1)"><use xlink:href="#xin_svg-a" fill="#000" filter="url(#xin_svg-b)"/><use xlink:href="#xin_svg-a" fill="#1EB5FA"/><use xlink:href="#xin_svg-a" fill="url(#xin_svg-c)" style="mix-blend-mode:soft-light"/><circle cx="15" cy="15" r="14.5" stroke="#000" stroke-linejoin="square" stroke-opacity=".097"/></g><path fill="#FFF" d="m25.46 7.137-3.3 1.464a.61.61 0 0 0-.32.536v11.8a.6.6 0 0 0 .328.537l3.3 1.427a.307.307 0 0 0 .455-.273V7.41a.318.318 0 0 0-.464-.273zM9.654 8.583l-3.2-1.455A.307.307 0 0 0 6 7.401v15.218a.31.31 0 0 0 .473.264l3.218-1.7a.6.6 0 0 0 .29-.518V9.119a.64.64 0 0 0-.326-.536zM19.69 12.61l-3.446-1.973a.61.61 0 0 0-.609 0l-3.509 1.955a.62.62 0 0 0-.309.536v4c0 .221.118.425.31.537l3.508 2.018a.61.61 0 0 0 .61 0l3.445-2a.62.62 0 0 0 .309-.537v-4a.61.61 0 0 0-.31-.536z"/></g></svg>