<svg xmlns="http://www.w3.org/2000/svg" xmlns:xlink="http://www.w3.org/1999/xlink" width="32" height="32" viewBox="0 0 32 32"><defs><linearGradient id="xlm_svg-c" x1="50%" x2="50%" y1="0%" y2="100%"><stop offset="0%" stop-color="#FFF" stop-opacity=".5"/><stop offset="100%" stop-opacity=".5"/></linearGradient><filter id="xlm_svg-b" width="111.7%" height="111.7%" x="-5.8%" y="-4.2%" filterUnits="objectBoundingBox"><feOffset dy=".5" in="SourceAlpha" result="shadowOffsetOuter1"/><feGaussianBlur in="shadowOffsetOuter1" result="shadowBlurOuter1" stdDeviation=".5"/><feComposite in="shadowBlurOuter1" in2="SourceAlpha" operator="out" result="shadowBlurOuter1"/><feColorMatrix in="shadowBlurOuter1" values="0 0 0 0 0 0 0 0 0 0 0 0 0 0 0 0 0 0 0.199473505 0"/></filter><circle id="xlm_svg-a" cx="15" cy="15" r="15"/></defs><g fill="none"><g transform="translate(1)"><use xlink:href="#xlm_svg-a" fill="#000" filter="url(#xlm_svg-b)"/><use xlink:href="#xlm_svg-a" fill="#000"/><use xlink:href="#xlm_svg-a" fill="url(#xlm_svg-c)" style="mix-blend-mode:soft-light"/><circle cx="15" cy="15" r="14.5" stroke="#000" stroke-linejoin="square" stroke-opacity=".097"/></g><path fill="#FFF" d="m23.13 8.292-2.4 1.224-11.598 5.907A6.909 6.909 0 0 1 19.35 8.498l1.374-.7.205-.105a8.439 8.439 0 0 0-13.371 7.472 1.535 1.535 0 0 1-.834 1.484l-.725.37v1.724l2.134-1.088.691-.353.681-.347 12.226-6.23 1.374-.699 2.84-1.447V6.856zm2.816 2.012L10.201 18.32l-1.374.7L6 20.463v1.723l2.808-1.43 2.401-1.224 11.61-5.916a6.909 6.909 0 0 1-10.229 6.93l-.085.045-1.49.76a8.439 8.439 0 0 0 13.372-7.475 1.54 1.54 0 0 1 .833-1.483l.726-.37v-1.718z"/></g></svg>