<svg xmlns="http://www.w3.org/2000/svg" xmlns:xlink="http://www.w3.org/1999/xlink" width="32" height="32" viewBox="0 0 32 32"><defs><filter id="xmg_svg-b" width="111.7%" height="111.7%" x="-5.8%" y="-4.2%" filterUnits="objectBoundingBox"><feOffset dy=".5" in="SourceAlpha" result="shadowOffsetOuter1"/><feGaussianBlur in="shadowOffsetOuter1" result="shadowBlurOuter1" stdDeviation=".5"/><feComposite in="shadowBlurOuter1" in2="SourceAlpha" operator="out" result="shadowBlurOuter1"/><feColorMatrix in="shadowBlurOuter1" values="0 0 0 0 0 0 0 0 0 0 0 0 0 0 0 0 0 0 0.199473505 0"/></filter><filter id="xmg_svg-e" width="125%" height="119.4%" x="-12.5%" y="-6.9%" filterUnits="objectBoundingBox"><feOffset dy=".5" in="SourceAlpha" result="shadowOffsetOuter1"/><feGaussianBlur in="shadowOffsetOuter1" result="shadowBlurOuter1" stdDeviation=".5"/><feColorMatrix in="shadowBlurOuter1" values="0 0 0 0 0 0 0 0 0 0 0 0 0 0 0 0 0 0 0.204257246 0"/></filter><linearGradient id="xmg_svg-c" x1="50%" x2="50%" y1="0%" y2="100%"><stop offset="0%" stop-color="#FFF" stop-opacity=".5"/><stop offset="100%" stop-opacity=".5"/></linearGradient><circle id="xmg_svg-a" cx="16" cy="15" r="15"/><path id="xmg_svg-d" d="M23 18.54 21.517 24H9v-.913l6.79-7.719-6.653-8.376V6h12.331l.43 4.252h-.79q-.781-1.453-1.328-2.175-.546-.721-.975-.899-.303-.147-.834-.21a11 11 0 0 0-1.273-.065h-3.503l5.249 6.54v.315l-6.488 7.365h7.405q.547 0 1-.26.453-.261.785-.654a5.6 5.6 0 0 0 .615-.873 8 8 0 0 0 .498-1.022z"/></defs><g fill="none" fill-rule="evenodd"><use xlink:href="#xmg_svg-a" fill="#000" filter="url(#xmg_svg-b)"/><use xlink:href="#xmg_svg-a" fill="#004A80"/><use xlink:href="#xmg_svg-a" fill="url(#xmg_svg-c)" style="mix-blend-mode:soft-light"/><circle cx="16" cy="15" r="14.5" stroke="#000" stroke-opacity=".097"/><use xlink:href="#xmg_svg-d" fill="#000" filter="url(#xmg_svg-e)"/><use xlink:href="#xmg_svg-d" fill="#FFF"/></g></svg>