<svg xmlns="http://www.w3.org/2000/svg" xmlns:xlink="http://www.w3.org/1999/xlink" width="32" height="32" viewBox="0 0 32 32"><defs><linearGradient id="xmo_svg-c" x1="50%" x2="50%" y1="0%" y2="100%"><stop offset="0%" stop-color="#FFF" stop-opacity=".5"/><stop offset="100%" stop-opacity=".5"/></linearGradient><filter id="xmo_svg-b" width="111.7%" height="111.7%" x="-5.8%" y="-4.2%" filterUnits="objectBoundingBox"><feOffset dy=".5" in="SourceAlpha" result="shadowOffsetOuter1"/><feGaussianBlur in="shadowOffsetOuter1" result="shadowBlurOuter1" stdDeviation=".5"/><feComposite in="shadowBlurOuter1" in2="SourceAlpha" operator="out" result="shadowBlurOuter1"/><feColorMatrix in="shadowBlurOuter1" values="0 0 0 0 0 0 0 0 0 0 0 0 0 0 0 0 0 0 0.199473505 0"/></filter><circle id="xmo_svg-a" cx="15" cy="15" r="15"/></defs><g fill="none"><g transform="translate(1)"><use xlink:href="#xmo_svg-a" fill="#000" filter="url(#xmo_svg-b)"/><use xlink:href="#xmo_svg-a" fill="#F60" fill-rule="evenodd"/><use xlink:href="#xmo_svg-a" fill="url(#xmo_svg-c)" fill-rule="evenodd" style="mix-blend-mode:soft-light"/><circle cx="15" cy="15" r="14.5" stroke="#000" stroke-linejoin="square" stroke-opacity=".097"/></g><g fill="#FFF"><path d="M27 15c0 6.076-4.924 11-11 11S5 21.076 5 15c0-2.458.808-4.727 2.166-6.557l1.796 1.796A8.45 8.45 0 0 0 7.5 15c0 4.684 3.807 8.49 8.49 8.49 4.684 0 8.491-3.806 8.491-8.49a8.5 8.5 0 0 0-1.46-4.76l1.795-1.797A10.87 10.87 0 0 1 27 15"/><path d="M22.084 15A6.09 6.09 0 0 1 16 21.084 6.09 6.09 0 0 1 9.916 15a6.1 6.1 0 0 1 .799-3.016L16 17.269l5.285-5.285c.524.92.8 1.959.8 3.016"/><path d="M23.193 6.681 16 13.866 10.517 8.39l-1.71-1.71A10.92 10.92 0 0 1 16 4c2.75 0 5.26 1.005 7.193 2.681"/></g></g></svg>