<svg xmlns="http://www.w3.org/2000/svg" xmlns:xlink="http://www.w3.org/1999/xlink" width="32" height="32" viewBox="0 0 32 32"><defs><filter id="xmy_svg-b" width="111.7%" height="111.7%" x="-5.8%" y="-4.2%" filterUnits="objectBoundingBox"><feOffset dy=".5" in="SourceAlpha" result="shadowOffsetOuter1"/><feGaussianBlur in="shadowOffsetOuter1" result="shadowBlurOuter1" stdDeviation=".5"/><feComposite in="shadowBlurOuter1" in2="SourceAlpha" operator="out" result="shadowBlurOuter1"/><feColorMatrix in="shadowBlurOuter1" values="0 0 0 0 0 0 0 0 0 0 0 0 0 0 0 0 0 0 0.199473505 0"/></filter><filter id="xmy_svg-e" width="115.9%" height="135%" x="-8%" y="-12.5%" filterUnits="objectBoundingBox"><feOffset dy=".5" in="SourceAlpha" result="shadowOffsetOuter1"/><feGaussianBlur in="shadowOffsetOuter1" result="shadowBlurOuter1" stdDeviation=".5"/><feColorMatrix in="shadowBlurOuter1" values="0 0 0 0 0 0 0 0 0 0 0 0 0 0 0 0 0 0 0.204257246 0"/></filter><linearGradient id="xmy_svg-c" x1="50%" x2="50%" y1="0%" y2="100%"><stop offset="0%" stop-color="#FFF" stop-opacity=".5"/><stop offset="100%" stop-opacity=".5"/></linearGradient><circle id="xmy_svg-a" cx="16" cy="15" r="15"/><path id="xmy_svg-d" d="M21.05 20c-.602 0-1.263-.303-1.263-1.212q0-.672 1.048-4.132.214-.534.214-.959c0-.545-.42-1.09-1.202-1.09-.454 0-1.443.18-1.743 1.15q-.3.97-1.383 5.152-.42 1.09-1.502 1.091c-1.082 0-1.263-.788-1.263-1.273q0-.289.865-3.48.337-1.065.337-1.55c0-.485-.36-1.09-1.202-1.09-.841 0-1.623.605-1.983 1.938q-.36 1.335-1.022 4Q10.591 20 9.328 20q-1.142 0-1.202-1.273l1.382-5.757H6.443a1.425 1.425 0 1 1-.03-2.849h5.139q1.082 0 1.322 1.03C13.596 10.243 14.557 10 15.4 10c.841 0 1.923.485 2.404 1.576.661-.728 1.804-1.576 3.427-1.576 1.502 0 2.765 1.03 2.765 2.848q0 1.03-1.022 4.304l2.637-.018c.771 0 1.39.642 1.39 1.433S26.381 20 25.617 20z"/></defs><g fill="none" fill-rule="evenodd"><g fill-rule="nonzero"><use xlink:href="#xmy_svg-a" fill="#000" filter="url(#xmy_svg-b)"/><use xlink:href="#xmy_svg-a" fill="#EC1076" fill-rule="evenodd"/><use xlink:href="#xmy_svg-a" fill="url(#xmy_svg-c)" fill-rule="evenodd" style="mix-blend-mode:soft-light"/><circle cx="16" cy="15" r="14.5" stroke="#000" stroke-opacity=".097"/></g><use xlink:href="#xmy_svg-d" fill="#000" filter="url(#xmy_svg-e)"/><use xlink:href="#xmy_svg-d" fill="#FFF"/></g></svg>