<svg xmlns="http://www.w3.org/2000/svg" xmlns:xlink="http://www.w3.org/1999/xlink" width="32" height="32" viewBox="0 0 32 32"><defs><filter id="xp_svg-b" width="111.7%" height="111.7%" x="-5.8%" y="-4.2%" filterUnits="objectBoundingBox"><feOffset dy=".5" in="SourceAlpha" result="shadowOffsetOuter1"/><feGaussianBlur in="shadowOffsetOuter1" result="shadowBlurOuter1" stdDeviation=".5"/><feComposite in="shadowBlurOuter1" in2="SourceAlpha" operator="out" result="shadowBlurOuter1"/><feColorMatrix in="shadowBlurOuter1" values="0 0 0 0 0 0 0 0 0 0 0 0 0 0 0 0 0 0 0.199473505 0"/></filter><filter id="xp_svg-e" width="115.9%" height="125%" x="-8%" y="-8.9%" filterUnits="objectBoundingBox"><feOffset dy=".5" in="SourceAlpha" result="shadowOffsetOuter1"/><feGaussianBlur in="shadowOffsetOuter1" result="shadowBlurOuter1" stdDeviation=".5"/><feColorMatrix in="shadowBlurOuter1" values="0 0 0 0 0 0 0 0 0 0 0 0 0 0 0 0 0 0 0.204257246 0"/></filter><linearGradient id="xp_svg-c" x1="50%" x2="50%" y1="0%" y2="100%"><stop offset="0%" stop-color="#FFF" stop-opacity=".5"/><stop offset="100%" stop-opacity=".5"/></linearGradient><circle id="xp_svg-a" cx="16" cy="15" r="15"/><path id="xp_svg-d" d="M14.79 22h-1.798l-1.082-4.25 2.645-1.382.861 2.46.641-3.245 3.515-1.837-.194.976 2.03.019q1.175-.019 1.823-.793t.615-2.083a2 2 0 0 0-.035-.335l2.73-1.427q.567 1.043.434 2.455-.22 2.058-1.779 3.293t-3.973 1.236l-2.306-.01L17.94 22zm.421-10.99h1.75l-2.697 3.825-6.66 3.481 2.468-3.49L7.7 8h3.48l1.23 4.789 1.052-1.78zh-1.75L15.34 8h2.215l5.126.01q1.747.048 2.866.927l-2.8 1.464a2 2 0 0 0-.208-.026l-2.294-.02-.3 1.51-3.517 1.838.532-2.694zm-9.425 9.942 5.327-2.785L8.765 22H5l.767-1.085z"/></defs><g fill="none" fill-rule="evenodd"><use xlink:href="#xp_svg-a" fill="#000" filter="url(#xp_svg-b)"/><use xlink:href="#xp_svg-a" fill="#008200"/><use xlink:href="#xp_svg-a" fill="url(#xp_svg-c)" style="mix-blend-mode:soft-light"/><circle cx="16" cy="15" r="14.5" stroke="#000" stroke-opacity=".097"/><g fill-rule="nonzero"><use xlink:href="#xp_svg-d" fill="#000" filter="url(#xp_svg-e)"/><use xlink:href="#xp_svg-d" fill="#FFF" fill-rule="evenodd"/></g></g></svg>