<svg xmlns="http://www.w3.org/2000/svg" xmlns:xlink="http://www.w3.org/1999/xlink" width="32" height="32" viewBox="0 0 32 32"><defs><filter id="xpa_svg-b" width="111.7%" height="111.7%" x="-5.8%" y="-4.2%" filterUnits="objectBoundingBox"><feOffset dy=".5" in="SourceAlpha" result="shadowOffsetOuter1"/><feGaussianBlur in="shadowOffsetOuter1" result="shadowBlurOuter1" stdDeviation=".5"/><feComposite in="shadowBlurOuter1" in2="SourceAlpha" operator="out" result="shadowBlurOuter1"/><feColorMatrix in="shadowBlurOuter1" values="0 0 0 0 0 0 0 0 0 0 0 0 0 0 0 0 0 0 0.199473505 0"/></filter><filter id="xpa_svg-e" width="119.4%" height="119.4%" x="-9.7%" y="-6.9%" filterUnits="objectBoundingBox"><feOffset dy=".5" in="SourceAlpha" result="shadowOffsetOuter1"/><feGaussianBlur in="shadowOffsetOuter1" result="shadowBlurOuter1" stdDeviation=".5"/><feColorMatrix in="shadowBlurOuter1" values="0 0 0 0 0 0 0 0 0 0 0 0 0 0 0 0 0 0 0.204257246 0"/></filter><linearGradient id="xpa_svg-c" x1="50%" x2="50%" y1="0%" y2="100%"><stop offset="0%" stop-color="#FFF" stop-opacity=".5"/><stop offset="100%" stop-opacity=".5"/></linearGradient><circle id="xpa_svg-a" cx="16" cy="15" r="15"/><path id="xpa_svg-d" d="m25.575 11.846-8.11-2.324-2.774 4.725-3.222-3.737 1.46-.188 1.505 1.768 1.67-2.959-7.35-2.107a.586.586 0 0 0-.736.7L11.274 20.8l3.497-5.888 3.222 3.737-1.46.188-1.504-1.768-3.31 5.517.49 1.97a.59.59 0 0 0 .98.28l12.63-12.01a.58.58 0 0 0-.244-.98"/></defs><g fill="none" fill-rule="evenodd"><use xlink:href="#xpa_svg-a" fill="#000" filter="url(#xpa_svg-b)"/><use xlink:href="#xpa_svg-a" fill="#4FA784"/><use xlink:href="#xpa_svg-a" fill="url(#xpa_svg-c)" style="mix-blend-mode:soft-light"/><circle cx="16" cy="15" r="14.5" stroke="#000" stroke-opacity=".097"/><use xlink:href="#xpa_svg-d" fill="#000" filter="url(#xpa_svg-e)"/><use xlink:href="#xpa_svg-d" fill="#FFF"/></g></svg>