<svg xmlns="http://www.w3.org/2000/svg" xmlns:xlink="http://www.w3.org/1999/xlink" width="32" height="32" viewBox="0 0 32 32"><defs><filter id="xuc_svg-b" width="111.7%" height="111.7%" x="-5.8%" y="-4.2%" filterUnits="objectBoundingBox"><feOffset dy=".5" in="SourceAlpha" result="shadowOffsetOuter1"/><feGaussianBlur in="shadowOffsetOuter1" result="shadowBlurOuter1" stdDeviation=".5"/><feComposite in="shadowBlurOuter1" in2="SourceAlpha" operator="out" result="shadowBlurOuter1"/><feColorMatrix in="shadowBlurOuter1" values="0 0 0 0 0 0 0 0 0 0 0 0 0 0 0 0 0 0 0.199473505 0"/></filter><filter id="xuc_svg-e" width="115.9%" height="115.9%" x="-8%" y="-5.7%" filterUnits="objectBoundingBox"><feOffset dy=".5" in="SourceAlpha" result="shadowOffsetOuter1"/><feGaussianBlur in="shadowOffsetOuter1" result="shadowBlurOuter1" stdDeviation=".5"/><feColorMatrix in="shadowBlurOuter1" values="0 0 0 0 0 0 0 0 0 0 0 0 0 0 0 0 0 0 0.204257246 0"/></filter><linearGradient id="xuc_svg-c" x1="50%" x2="50%" y1="0%" y2="100%"><stop offset="0%" stop-color="#FFF" stop-opacity=".5"/><stop offset="100%" stop-opacity=".5"/></linearGradient><circle id="xuc_svg-a" cx="16" cy="15" r="15"/><path id="xuc_svg-d" d="M27 15c0 6.075-4.925 11-11 11S5 21.075 5 15 9.925 4 16 4s11 4.925 11 11m-3.77.346c.007-.125 0 0 0-.127 0-3.607-2.665-6.811-6.122-7.35v-2.1l-2.24.698V7.87c-3.455.538-6.102 3.52-6.102 7.125 0 3.69 2.77 6.73 6.344 7.165v2.068l2.24-.698v-1.446a7.23 7.23 0 0 0 5.441-4.68H20.47a5.08 5.08 0 0 1-4.48 2.685 5.094 5.094 0 0 1-5.077-4.726zM11.25 13.13a5.09 5.09 0 0 1 4.74-3.229 5.095 5.095 0 0 1 4.737 3.23z"/></defs><g fill="none"><use xlink:href="#xuc_svg-a" fill="#000" filter="url(#xuc_svg-b)"/><use xlink:href="#xuc_svg-a" fill="#25AAE3" fill-rule="evenodd"/><use xlink:href="#xuc_svg-a" fill="url(#xuc_svg-c)" fill-rule="evenodd" style="mix-blend-mode:soft-light"/><circle cx="16" cy="15" r="14.5" stroke="#000" stroke-opacity=".097"/><use xlink:href="#xuc_svg-d" fill="#000" filter="url(#xuc_svg-e)"/><use xlink:href="#xuc_svg-d" fill="#FFF" fill-rule="evenodd"/></g></svg>