<svg xmlns="http://www.w3.org/2000/svg" xmlns:xlink="http://www.w3.org/1999/xlink" width="32" height="32" viewBox="0 0 32 32"><defs><filter id="xzc_svg-b" width="111.7%" height="111.7%" x="-5.8%" y="-4.2%" filterUnits="objectBoundingBox"><feOffset dy=".5" in="SourceAlpha" result="shadowOffsetOuter1"/><feGaussianBlur in="shadowOffsetOuter1" result="shadowBlurOuter1" stdDeviation=".5"/><feComposite in="shadowBlurOuter1" in2="SourceAlpha" operator="out" result="shadowBlurOuter1"/><feColorMatrix in="shadowBlurOuter1" values="0 0 0 0 0 0 0 0 0 0 0 0 0 0 0 0 0 0 0.199473505 0"/></filter><filter id="xzc_svg-e" width="119.4%" height="119.4%" x="-9.7%" y="-6.9%" filterUnits="objectBoundingBox"><feOffset dy=".5" in="SourceAlpha" result="shadowOffsetOuter1"/><feGaussianBlur in="shadowOffsetOuter1" result="shadowBlurOuter1" stdDeviation=".5"/><feColorMatrix in="shadowBlurOuter1" values="0 0 0 0 0 0 0 0 0 0 0 0 0 0 0 0 0 0 0.204257246 0"/></filter><linearGradient id="xzc_svg-c" x1="50%" x2="50%" y1="0%" y2="100%"><stop offset="0%" stop-color="#FFF" stop-opacity=".5"/><stop offset="100%" stop-opacity=".5"/></linearGradient><circle id="xzc_svg-a" cx="16" cy="15" r="15"/><path id="xzc_svg-d" d="M18.725 18.148h3.39v2.964H11.93L24.573 8.46a1.47 1.47 0 0 0 .32-1.574A1.45 1.45 0 0 0 23.55 6H8.45A1.44 1.44 0 0 0 7 7.452v10.696l6.275-6.28h-3.39v-2.98h10.168L7.427 21.54a1.47 1.47 0 0 0-.32 1.574c.229.535.748.886 1.343.886h15.1A1.45 1.45 0 0 0 25 22.548v-10.68z"/></defs><g fill="none" fill-rule="evenodd"><use xlink:href="#xzc_svg-a" fill="#000" filter="url(#xzc_svg-b)"/><use xlink:href="#xzc_svg-a" fill="#23B852"/><use xlink:href="#xzc_svg-a" fill="url(#xzc_svg-c)" style="mix-blend-mode:soft-light"/><circle cx="16" cy="15" r="14.5" stroke="#000" stroke-opacity=".097"/><g fill-rule="nonzero"><use xlink:href="#xzc_svg-d" fill="#000" filter="url(#xzc_svg-e)"/><use xlink:href="#xzc_svg-d" fill="#FFF" fill-rule="evenodd"/></g></g></svg>