<svg xmlns="http://www.w3.org/2000/svg" xmlns:xlink="http://www.w3.org/1999/xlink" width="32" height="32" viewBox="0 0 32 32"><defs><filter id="zcl_svg-b" width="111.7%" height="111.7%" x="-5.8%" y="-4.2%" filterUnits="objectBoundingBox"><feOffset dy=".5" in="SourceAlpha" result="shadowOffsetOuter1"/><feGaussianBlur in="shadowOffsetOuter1" result="shadowBlurOuter1" stdDeviation=".5"/><feComposite in="shadowBlurOuter1" in2="SourceAlpha" operator="out" result="shadowBlurOuter1"/><feColorMatrix in="shadowBlurOuter1" values="0 0 0 0 0 0 0 0 0 0 0 0 0 0 0 0 0 0 0.199473505 0"/></filter><filter id="zcl_svg-e" width="115.9%" height="115.9%" x="-8%" y="-5.7%" filterUnits="objectBoundingBox"><feOffset dy=".5" in="SourceAlpha" result="shadowOffsetOuter1"/><feGaussianBlur in="shadowOffsetOuter1" result="shadowBlurOuter1" stdDeviation=".5"/><feColorMatrix in="shadowBlurOuter1" values="0 0 0 0 0 0 0 0 0 0 0 0 0 0 0 0 0 0 0.204257246 0"/></filter><linearGradient id="zcl_svg-c" x1="50%" x2="50%" y1="0%" y2="100%"><stop offset="0%" stop-color="#FFF" stop-opacity=".5"/><stop offset="100%" stop-opacity=".5"/></linearGradient><circle id="zcl_svg-a" cx="16" cy="15" r="15"/><path id="zcl_svg-d" d="M15.992 26C9.917 25.996 5 21.07 5 14.986 5 8.915 9.932 3.996 16.015 4 22.08 4.004 27.008 8.934 27 15.002c-.012 6.002-4.836 10.99-11.008 10.998m-4.483-5.97q.045-.088.078-.144 1.477-2.604 2.956-5.202 1.296-2.278 2.585-4.558a.15.15 0 0 1 .15-.09c1.004.005 2.012.005 3.015.005h.143c-1.394 2.46-2.778 4.903-4.173 7.36.05.004.078.004.105.004q3.778 0 7.552.004c.085 0 .112-.031.131-.105a8.3 8.3 0 0 0 .105-4.127c-.376-1.65-1.201-3.043-2.418-4.208a7.7 7.7 0 0 0-1.84-1.297c-1.674-.854-3.437-1.125-5.285-.8-1.84.327-3.39 1.196-4.661 2.57-.167.18-.318.373-.477.56.004.011.012.02.016.03h7.18c-.04.075-.067.129-.098.18-.437.776-.88 1.548-1.313 2.325a.2.2 0 0 1-.202.116q-3.394-.006-6.784-.004h-.136c-1.146 3.603.473 8.122 4.534 9.93 3.932 1.756 8.055.14 9.988-2.557q-5.573.011-11.15.007zm12.643 1.898c1.395-1.55 2.635-4.1 2.557-7.163-.062-2.523-.926-4.74-2.541-6.7-.504.508-.996 1.001-1.484 1.494 2.56 3.079 2.67 7.632.027 10.901z"/></defs><g fill="none" fill-rule="evenodd"><use xlink:href="#zcl_svg-a" fill="#000" filter="url(#zcl_svg-b)"/><use xlink:href="#zcl_svg-a" fill="#C87035"/><use xlink:href="#zcl_svg-a" fill="url(#zcl_svg-c)" style="mix-blend-mode:soft-light"/><circle cx="16" cy="15" r="14.5" stroke="#000" stroke-opacity=".097"/><g fill-rule="nonzero"><use xlink:href="#zcl_svg-d" fill="#000" filter="url(#zcl_svg-e)"/><use xlink:href="#zcl_svg-d" fill="#FFF" fill-rule="evenodd"/></g></g></svg>