<svg xmlns="http://www.w3.org/2000/svg" xmlns:xlink="http://www.w3.org/1999/xlink" width="32" height="32" viewBox="0 0 32 32"><defs><filter id="zel_svg-b" width="111.7%" height="111.7%" x="-5.8%" y="-4.2%" filterUnits="objectBoundingBox"><feOffset dy=".5" in="SourceAlpha" result="shadowOffsetOuter1"/><feGaussianBlur in="shadowOffsetOuter1" result="shadowBlurOuter1" stdDeviation=".5"/><feComposite in="shadowBlurOuter1" in2="SourceAlpha" operator="out" result="shadowBlurOuter1"/><feColorMatrix in="shadowBlurOuter1" values="0 0 0 0 0 0 0 0 0 0 0 0 0 0 0 0 0 0 0.199473505 0"/></filter><filter id="zel_svg-e" width="115.9%" height="123.3%" x="-8%" y="-8.3%" filterUnits="objectBoundingBox"><feOffset dy=".5" in="SourceAlpha" result="shadowOffsetOuter1"/><feGaussianBlur in="shadowOffsetOuter1" result="shadowBlurOuter1" stdDeviation=".5"/><feColorMatrix in="shadowBlurOuter1" values="0 0 0 0 0 0 0 0 0 0 0 0 0 0 0 0 0 0 0.204257246 0"/></filter><linearGradient id="zel_svg-c" x1="50%" x2="50%" y1="0%" y2="100%"><stop offset="0%" stop-color="#FFF" stop-opacity=".5"/><stop offset="100%" stop-opacity=".5"/></linearGradient><circle id="zel_svg-a" cx="16" cy="15" r="15"/><path id="zel_svg-d" d="m5 14.615 4.495-2.538 4.494 2.538v4.847L9.495 22 5 19.462zm13.01 0 4.495-2.538L27 14.615v4.847L22.505 22l-4.494-2.538zm-.472 4.21-1.577.867-1.499-.823V14.23l-4.1-2.316V10.23L15.961 7l5.598 3.23v1.73l-4.021 2.27v4.596z"/></defs><g fill="none" fill-rule="evenodd"><g fill-rule="nonzero"><use xlink:href="#zel_svg-a" fill="#000" filter="url(#zel_svg-b)"/><use xlink:href="#zel_svg-a" fill="#183C87" fill-rule="evenodd"/><use xlink:href="#zel_svg-a" fill="url(#zel_svg-c)" fill-rule="evenodd" style="mix-blend-mode:soft-light"/><circle cx="16" cy="15" r="14.5" stroke="#000" stroke-linejoin="square" stroke-opacity=".097"/></g><use xlink:href="#zel_svg-d" fill="#000" filter="url(#zel_svg-e)"/><use xlink:href="#zel_svg-d" fill="#FFF"/></g></svg>