<svg xmlns="http://www.w3.org/2000/svg" xmlns:xlink="http://www.w3.org/1999/xlink" width="32" height="32" viewBox="0 0 32 32"><defs><linearGradient id="zen_svg-c" x1="50%" x2="50%" y1="0%" y2="100%"><stop offset="0%" stop-color="#FFF" stop-opacity=".5"/><stop offset="100%" stop-opacity=".5"/></linearGradient><filter id="zen_svg-b" width="111.7%" height="111.7%" x="-5.8%" y="-4.2%" filterUnits="objectBoundingBox"><feOffset dy=".5" in="SourceAlpha" result="shadowOffsetOuter1"/><feGaussianBlur in="shadowOffsetOuter1" result="shadowBlurOuter1" stdDeviation=".5"/><feComposite in="shadowBlurOuter1" in2="SourceAlpha" operator="out" result="shadowBlurOuter1"/><feColorMatrix in="shadowBlurOuter1" values="0 0 0 0 0 0 0 0 0 0 0 0 0 0 0 0 0 0 0.199473505 0"/></filter><circle id="zen_svg-a" cx="16" cy="15" r="15"/></defs><g fill="none" fill-rule="evenodd"><use xlink:href="#zen_svg-a" fill="#000" filter="url(#zen_svg-b)"/><use xlink:href="#zen_svg-a" fill="#00EAAB"/><use xlink:href="#zen_svg-a" fill="url(#zen_svg-c)" style="mix-blend-mode:soft-light"/><circle cx="16" cy="15" r="14.5" stroke="#000" stroke-linejoin="square" stroke-opacity=".097"/><g fill="#FFF" fill-rule="nonzero"><path d="m24.8 8.568-1.78 2.77a7.84 7.84 0 0 1 .856 3.595c0 4.4-3.56 7.943-7.943 7.943a7.76 7.76 0 0 1-3.577-.856l-2.788 1.797c1.797 1.276 3.98 2.049 6.348 2.049 6.029 0 10.933-4.887 10.933-10.933 0-2.385-.756-4.568-2.049-6.365"/><path d="M15.933 20.39a5.48 5.48 0 0 0 5.39-4.483 12.47 12.47 0 0 0-9.942 2.066 5.46 5.46 0 0 0 4.552 2.418z"/><path d="M18.62 14.63c.957 0 1.88.101 2.788.303a5.494 5.494 0 0 0-5.492-5.492 5.48 5.48 0 0 0-5.424 6.23c-1.377 1.059-2.032 1.882-2.066 1.915a8 8 0 0 1-.453-2.636c0-4.4 3.56-7.944 7.943-7.944 1.293 0 2.502.302 3.577.857l2.771-1.797A10.66 10.66 0 0 0 15.933 4 10.923 10.923 0 0 0 5 14.933c0 2.435.79 4.669 2.133 6.482q.78-1.41 1.864-2.57s1.075-1.124 1.898-1.695a13.04 13.04 0 0 1 7.725-2.52"/></g></g></svg>