<svg xmlns="http://www.w3.org/2000/svg" xmlns:xlink="http://www.w3.org/1999/xlink" width="32" height="32" viewBox="0 0 32 32"><defs><filter id="zrx_svg-b" width="111.7%" height="111.7%" x="-5.8%" y="-4.2%" filterUnits="objectBoundingBox"><feOffset dy=".5" in="SourceAlpha" result="shadowOffsetOuter1"/><feGaussianBlur in="shadowOffsetOuter1" result="shadowBlurOuter1" stdDeviation=".5"/><feComposite in="shadowBlurOuter1" in2="SourceAlpha" operator="out" result="shadowBlurOuter1"/><feColorMatrix in="shadowBlurOuter1" values="0 0 0 0 0 0 0 0 0 0 0 0 0 0 0 0 0 0 0.199473505 0"/></filter><filter id="zrx_svg-e" width="115.9%" height="115.9%" x="-8%" y="-5.7%" filterUnits="objectBoundingBox"><feOffset dy=".5" in="SourceAlpha" result="shadowOffsetOuter1"/><feGaussianBlur in="shadowOffsetOuter1" result="shadowBlurOuter1" stdDeviation=".5"/><feColorMatrix in="shadowBlurOuter1" values="0 0 0 0 0 0 0 0 0 0 0 0 0 0 0 0 0 0 0.204257246 0"/></filter><linearGradient id="zrx_svg-c" x1="50%" x2="50%" y1="0%" y2="100%"><stop offset="0%" stop-color="#FFF" stop-opacity=".5"/><stop offset="100%" stop-opacity=".5"/></linearGradient><circle id="zrx_svg-a" cx="16" cy="15" r="15"/><path id="zrx_svg-d" d="M15.496 26c-.27-.028-.54-.053-.81-.085a10.9 10.9 0 0 1-4.122-1.364c-.019-.01-.036-.025-.073-.05 2.206-1.65 4.402-3.29 6.61-4.94l.665.647c.37.362.742.72 1.105 1.087.09.09.155.089.26.035a7.15 7.15 0 0 0 2.728-2.39l.107-.158c.031.036.06.065.084.097q1.15 1.534 2.303 3.063c.067.088.059.14-.012.22-1.783 2.026-3.999 3.274-6.67 3.701-.336.054-.677.074-1.016.111-.045.005-.09.017-.134.026zm.97-22q.28.03.56.056 2.364.225 4.423 1.4c.02.012.037.026.07.05l-6.718 4.819q-.133-.124-.26-.247-.71-.689-1.415-1.383c-.075-.074-.132-.082-.226-.035a7.15 7.15 0 0 0-2.77 2.424l-.1.15-2.468-3.288c.249-.264.479-.527.728-.77 1.623-1.583 3.55-2.59 5.783-2.995.43-.078.869-.104 1.304-.155.049-.005.098-.017.146-.026h.942zM6.458 9.534l4.995 6.548-1.008 1.034c-.251.257-.5.517-.756.77-.072.072-.075.127-.031.215a7.13 7.13 0 0 0 2.423 2.77q.053.033.103.07c.006.004.009.014.027.048L8.95 23.435C7 21.756 5.735 19.687 5.227 17.178c-.544-2.686-.103-5.224 1.232-7.644zm14.175 4.37.918-.953c.256-.266.508-.535.77-.794.082-.081.081-.142.033-.238a7.14 7.14 0 0 0-2.45-2.798c-.037-.025-.073-.052-.136-.097l3.279-2.46c1.857 1.59 3.09 3.55 3.656 5.915.707 2.952.077 5.872-1.147 7.928z"/></defs><g fill="none" fill-rule="evenodd"><g fill-rule="nonzero"><use xlink:href="#zrx_svg-a" fill="#000" filter="url(#zrx_svg-b)"/><use xlink:href="#zrx_svg-a" fill="#302C2C" fill-rule="evenodd"/><use xlink:href="#zrx_svg-a" fill="url(#zrx_svg-c)" fill-rule="evenodd" style="mix-blend-mode:soft-light"/><circle cx="16" cy="15" r="14.5" stroke="#000" stroke-opacity=".097"/></g><use xlink:href="#zrx_svg-d" fill="#000" filter="url(#zrx_svg-e)"/><use xlink:href="#zrx_svg-d" fill="#FFF"/></g></svg>