<svg xmlns="http://www.w3.org/2000/svg" width="32" height="32" viewBox="0 0 32 32"><path fill="#FFF" d="M16 32C7.163 32 0 24.837 0 16S7.163 0 16 0s16 7.163 16 16-7.163 16-16 16m-8.227-9.02.857 2.802 1.54-.471-.048-.16 1.635 2.425 1.335-.9-.113-.168 2.288 1.852 1.013-1.252-.175-.141 2.772 1.063.577-1.503-.148-.057 2.895.203.113-1.607-.223-.015 2.892-.668-.362-1.57-.263.062 2.617-1.511-.805-1.395-.252.145L28 17.882l-1.178-1.099-.196.21 1.34-2.747-1.447-.706-.118.24.476-3.002-1.59-.252-.034.21-.469-2.959-1.59.252.01.072-1.249-2.562-1.447.706.041.085-1.948-2.089-1.178 1.099.098.104L15.019 4l-.805 1.395.18.104-2.867-.662-.363 1.569.271.063-3.002.21.112 1.606.335-.023-2.867 1.1.577 1.504.307-.118-2.401 1.944 1.013 1.252.16-.13L4 16.289l1.335.9.107-.158-.87 2.845 1.54.471.05-.163v2.953h1.61zm0-1.914v-2.69H6.715l.79-2.582-1.02-.311 1.512-2.24-.885-.597 2.097-1.698-.672-.83 2.497-.958-.392-1.022 2.652-.185-.075-1.073 2.584.597.237-1.028 2.297 1.326.519-.9 1.814 1.946.752-.701 1.173 2.403.922-.45.421 2.658 1.025-.162-.421 2.658 1.071.17-1.18 2.42.979.479-1.837 1.969.797.742-2.325 1.342.54.934-2.605.602.24 1.035-2.657-.186-.073 1.04-2.482-.953-.369.96-2.06-1.668-.664.82-1.487-2.204-.87.587-.781-2.557zm3.56-9.849-1.218 8.71h3.567q.58 0 1.181-.123a3.8 3.8 0 0 0 1.108-.406q.504-.283.86-.745.358-.46.456-1.15a2.1 2.1 0 0 0-.025-.787 1.7 1.7 0 0 0-.295-.646 1.7 1.7 0 0 0-.535-.455 2.2 2.2 0 0 0-.744-.24v-.025q.7-.208 1.187-.695.486-.485.584-1.224.099-.713-.123-1.144a1.6 1.6 0 0 0-.646-.67 2.8 2.8 0 0 0-.984-.32 8 8 0 0 0-1.126-.08h-3.248zM12.76 14.7l.258-1.858h1.304q.221 0 .45.043.226.043.399.141a.66.66 0 0 1 .264.277.75.75 0 0 1 .056.45q-.037.259-.166.442a1 1 0 0 1-.32.295 1.4 1.4 0 0 1-.412.16q-.222.05-.443.05zm-.505 3.604.283-1.98h1.452q.234 0 .498.036.264.037.486.136a.77.77 0 0 1 .345.289q.122.19.086.498a1 1 0 0 1-.185.48 1.27 1.27 0 0 1-.781.492q-.24.048-.461.049zm9.26-6.948-2.451-.349-1.268 7.671 1.682.118zm-1.776 8.216-2.254-.544-.512 2.521 2.237.652.53-2.629z"/></svg>