<svg xmlns="http://www.w3.org/2000/svg" viewBox="0 0 32 32"><path fill="#FFF" fill-rule="evenodd" d="M16 32C7.163 32 0 24.837 0 16S7.163 0 16 0s16 7.163 16 16-7.163 16-16 16m6.632-17.98c.314-2.096-1.282-3.223-3.465-3.975l.708-2.84-1.728-.43-.69 2.765c-.454-.114-.92-.22-1.384-.326l.694-2.783L15.039 6l-.708 2.839q-.566-.127-1.104-.26l.002-.009-2.384-.595-.46 1.846s1.283.294 1.256.312c.7.175.826.638.805 1.006l-.806 3.235q.073.017.18.057l-.183-.045-1.13 4.532c-.086.212-.303.531-.793.41.018.025-1.256-.313-1.256-.313L7.6 20.993l2.25.561c.418.105.828.215 1.232.318l-.716 2.872 1.727.43.708-2.84q.707.19 1.378.357l-.706 2.828 1.728.43.716-2.866c2.947.558 5.163.333 6.096-2.333.752-2.146-.037-3.385-1.588-4.192 1.13-.26 1.98-1.003 2.207-2.538m-3.95 5.538c-.533 2.147-4.147.986-5.319.695l.95-3.805c1.17.293 4.928.872 4.37 3.11zm.535-5.569c-.487 1.953-3.495.96-4.47.717l.86-3.45c.976.243 4.118.696 3.61 2.733m5.03 7.629.154-.667a1.2 1.2 0 0 0-.518.029q-.231.069-.408.222a1.4 1.4 0 0 0-.3.375 2 2 0 0 0-.182.484 1.6 1.6 0 0 0-.025.68q.061.308.238.545.175.238.453.4.277.163.615.241.333.077.642.047a1.37 1.37 0 0 0 .993-.553q.183-.244.265-.601.135-.585-.096-1.01-.23-.426-.8-.656l-.154.666q.316.123.454.354.138.233.07.525a.73.73 0 0 1-.47.54 1 1 0 0 1-.366.064q-.197 0-.384-.042a1.6 1.6 0 0 1-.54-.211.9.9 0 0 1-.285-.282.7.7 0 0 1-.102-.306q-.01-.157.02-.285a.75.75 0 0 1 .25-.432.64.64 0 0 1 .476-.127m2.692-2.113a1.7 1.7 0 0 0 .03-.674 1.4 1.4 0 0 0-.22-.555 1.45 1.45 0 0 0-.434-.414 2 2 0 0 0-.62-.251 2 2 0 0 0-.66-.045 1.45 1.45 0 0 0-.572.182q-.255.148-.441.403a1.7 1.7 0 0 0-.269.619 1.7 1.7 0 0 0-.03.673q.055.312.22.556t.434.414.614.25q.35.08.667.046a1.45 1.45 0 0 0 .571-.182 1.4 1.4 0 0 0 .441-.403 1.7 1.7 0 0 0 .27-.619zm-2.624-2.798 3.023.698.154-.666-1.438-.332a1.4 1.4 0 0 1-.43-.167 1 1 0 0 1-.284-.25.75.75 0 0 1-.132-.64q.016-.072.042-.142l.053-.139-.643-.148-.033.088q-.016.042-.043.16a.8.8 0 0 0-.01.311 1.14 1.14 0 0 0 .26.556.7.7 0 0 0 .213.169l-.003.012-.584-.135zm2.28-2.19.512-2.22a1.8 1.8 0 0 0-.668-.109 1.6 1.6 0 0 0-.627.142q-.288.13-.503.38a1.4 1.4 0 0 0-.297.605 1.4 1.4 0 0 0-.011.638q.067.299.241.539.175.24.442.41a2.1 2.1 0 0 0 1.253.295 1.34 1.34 0 0 0 1.004-.56q.18-.247.262-.604.056-.246.041-.486a1.4 1.4 0 0 0-.105-.452 1.3 1.3 0 0 0-.65-.667l-.145.63a.77.77 0 0 1 .315.354.82.82 0 0 1 .017.5.85.85 0 0 1-.156.345.7.7 0 0 1-.254.206.9.9 0 0 1-.321.083 1.2 1.2 0 0 1-.35-.028zm-.182 4.867a.79.79 0 0 1-.49.576 1.1 1.1 0 0 1-.378.076 1.6 1.6 0 0 1-.775-.179 1.1 1.1 0 0 1-.306-.234.79.79 0 0 1-.185-.732.79.79 0 0 1 .488-.577q.173-.071.377-.076a1.6 1.6 0 0 1 .775.179 1.1 1.1 0 0 1 .306.234.79.79 0 0 1 .188.733m.102-6.523-.36 1.556a.9.9 0 0 1-.516-.363.75.75 0 0 1-.113-.285.82.82 0 0 1 .15-.624.77.77 0 0 1 .52-.287q.158-.021.319.003"/></svg>