<svg xmlns="http://www.w3.org/2000/svg" viewBox="0 0 32 32"><g fill="#fff" fill-rule="evenodd"><path d="M14.514 25.556A8.5 8.5 0 0 0 17.064 27l-.142-1.374a9.674 9.674 0 0 0 8.65-8.249A8.5 8.5 0 0 0 27 14.847l-1.383.143a9.674 9.674 0 0 0-8.24-8.562A8.5 8.5 0 0 0 14.847 5l.143 1.383a9.674 9.674 0 0 0-8.562 8.24A8.5 8.5 0 0 0 5 17.153l1.383-.143a9.674 9.674 0 0 0 8.131 8.546m.57-4.132a5.5 5.5 0 0 1-4.554-4.845l1.3-.135a7 7 0 0 1-1.266-1.287 5.5 5.5 0 0 1 4.857-4.627l.135 1.3a7 7 0 0 1 1.287-1.266 5.5 5.5 0 0 1 4.627 4.857l-1.3.135a7 7 0 0 1 1.266 1.287 5.5 5.5 0 0 1-4.945 4.635l-.136-1.309q-.583.737-1.271 1.255M16 32C7.163 32 0 24.837 0 16S7.163 0 16 0s16 7.163 16 16-7.163 16-16 16"/><path fill-opacity=".497" d="M16.922 25.626 17.065 27q-3.105-1.11-4.968-4.391 2.572-.31 4.258-2.44l.136 1.31a5.5 5.5 0 0 0 4.945-4.636 6.1 6.1 0 0 1 1.173 2.972q1.813-1.03 2.963-2.438a9.674 9.674 0 0 1-8.65 8.249M14.99 6.383 14.847 5q3.105 1.11 4.968 4.391-2.573.31-4.259 2.44l-.135-1.3a5.5 5.5 0 0 0-4.857 4.626 6.1 6.1 0 0 1-1.173-2.972q-1.813 1.03-2.963 2.438a9.674 9.674 0 0 1 8.562-8.24"/></g></svg>