<svg xmlns="http://www.w3.org/2000/svg" viewBox="0 0 32 32"><g fill="#FFF" fill-rule="evenodd"><path d="M16 32C7.163 32 0 24.837 0 16S7.163 0 16 0s16 7.163 16 16-7.163 16-16 16m7.994-15.781L16.498 4 9 16.22l7.498 4.353zM24 17.616l-7.502 4.351L9 17.617l7.498 10.378z"/><g fill-rule="nonzero"><path fill-opacity=".5" d="M16.498 4v8.87l7.497 3.35z"/><path d="M16.498 4 9 16.22l7.498-3.35z" opacity=".8"/><path fill-opacity=".5" d="M16.498 21.968v6.027L24 17.616z"/><path d="M16.498 27.995v-6.028L9 17.616z" opacity=".796"/><path fill-opacity=".5" d="m9 16.22 7.498 4.353v-7.701z"/></g></g></svg>