<svg xmlns="http://www.w3.org/2000/svg" width="450" height="450" fill="none" viewBox="0 0 450 450"><path fill="#fff" d="M373.729 259.868v140.531c-12.934 14.369-29.889 25.29-51.155 32.474-21.554 7.471-44.832 11.207-70.122 11.207q-68.54.001-114.665-43.969c-23.566-22.417-37.935-48.855-43.395-79.318H76V296.94h16.094c-.288-1.724-.288-3.736-.288-5.748 0-2.586 0-5.173.288-7.758H76V259.58h18.967c5.46-29.313 18.966-54.889 40.808-76.731 11.783-12.069 25.002-21.553 39.371-28.45-3.736-6.036-6.321-12.645-8.333-19.83-.863-3.736-1.437-7.472-2.012-11.496-.288-2.873-.288-6.035-.288-9.196 0-2.873.288-5.748.575-8.334.288-2.012 1.437-3.161 3.161-3.736s3.449-.287 4.599 1.149c2.586 2.3 5.173 4.599 7.759 6.611 1.15 1.149 2.299 2.01 3.448 2.873 1.724.863 4.024.576 4.887-1.149.573-.575.573-1.438.573-2.012 0-2.587-.286-4.886-.286-7.472v-1.436c.286-3.736.286-7.473.574-11.209.863-9.772 2.587-19.542 5.46-29.026a100.8 100.8 0 0 1 11.209-24.714c4.023-6.036 8.908-11.784 14.944-16.381 6.034-4.885 12.931-8.622 20.403-11.496 1.437-.286 3.161-.862 4.599-1.437 1.149-.288 2.298 0 3.161.863.576.574 1.149 1.724.861 2.586-.573 2.011-.861 3.736-1.149 5.747-.575 2.588-1.148 5.461-1.436 8.334-.288 2.587-.575 5.174-.575 7.76-.288 2.587-.288 5.173-.288 7.472.288 6.036 1.151 11.782 2.875 17.242a34.9 34.9 0 0 0 5.173 10.348c2.011 2.297 4.023 4.309 6.896 6.034 2.588 1.436 5.749 2.299 8.622 2.011 3.16 0 5.748-1.149 8.335-2.585 2.873-1.724 5.46-4.024 7.47-6.899.863-1.149 1.439-2.298 2.3-3.448.288-.288.288-.574.575-.574 1.149-1.724 3.736-1.724 4.885 0l3.449 6.034c2.587 4.887 4.599 10.347 5.748 15.806.287 2.012.863 4.311.863 6.323s.286 3.736.286 5.461c-.286 6.321-1.149 12.645-3.449 18.393-.287 1.148-.573 2.011-.287 3.16.575 2.873 3.45 4.312 6.035 3.449l1.724-.863c2.012-1.149 3.737-2.586 5.463-4.31.287-.288.863-.575 1.434-.575.863 0 1.435.575 1.435 1.436v4.024c0 1.437-.284 2.875-.284 4.024-.288 2.873-.575 5.46-1.151 8.046-1.434 5.748-3.448 11.783-6.034 17.244 22.989 8.046 42.533 21.554 59.2 40.232l-46.553 45.407c-19.545-21.266-44.547-31.899-74.435-31.899-26.151 0-47.419 8.909-64.086 26.151-8.908 9.197-15.519 19.542-19.541 31.038h24.714v23.854h-29.889c-.286 2.585-.286 5.172-.286 7.758 0 2.012 0 3.736.286 5.748h29.889v23.853h-25.865c4.024 12.933 10.921 24.141 20.98 33.911 16.955 16.669 39.657 25.29 67.822 25.29 26.151 0 45.407-4.885 57.477-14.369v-43.683h-57.765v-62.074z"/></svg>