<svg width="32" height="32" viewBox="0 0 32 32" fill="none" xmlns="http://www.w3.org/2000/svg"><g clip-path="url(#clip0_1_2)"><path fill-rule="evenodd" clip-rule="evenodd" d="M16 0c4.417 0 8.42 1.792 11.313 4.688A15.95 15.95 0 0132 16c0 4.42-1.792 8.42-4.688 11.315A15.95 15.95 0 0116 32.003c-4.417 0-8.42-1.795-11.313-4.69A15.94 15.94 0 010 16c0-4.417 1.792-8.42 4.688-11.313A15.945 15.945 0 0116 0zm-.49 15.057h2.537v2.003h-2.242a4.27 4.27 0 01-.26 1.276c-.118.289-.31.588-.587.898.31-.067.579-.101.802-.101.287 0 .657.055 1.112.161.625.143 1.125.214 1.498.214.304 0 .57-.026.797-.078.229-.052.526-.16.89-.326l1.138 2.5c-.552.274-1.036.466-1.455.57a5.402 5.402 0 01-1.344.157c-.526 0-1.123-.091-1.797-.274-.886-.242-1.432-.383-1.646-.422a4.03 4.03 0 00-.685-.057c-.719 0-1.513.25-2.38.753l-1.083-2.38c1.174-.839 1.763-1.678 1.763-2.516 0-.047-.005-.172-.018-.378h-1.748v-2.002h1.25c-.208-.732-.333-1.16-.357-1.276a3.572 3.572 0 01-.052-.66c0-.694.185-1.32.557-1.874a3.15 3.15 0 011.462-1.203c.604-.25 1.419-.378 2.442-.378.959 0 1.719.11 2.276.323.56.213 1.034.57 1.42 1.068.387.5.653 1.101.799 1.81l-3.203.497c-.159-.594-.347-.987-.555-1.182a1.01 1.01 0 00-.71-.292c-.324 0-.582.107-.782.318-.2.21-.3.51-.3.898 0 .209.021.406.06.597.037.195.172.645.401 1.356zM16 4.49c6.357 0 11.51 5.153 11.51 11.507 0 6.357-5.153 11.51-11.51 11.51S4.49 22.355 4.49 15.998C4.49 9.643 9.643 4.49 16 4.49zm0-2.214c7.58 0 13.724 6.146 13.724 13.724 0 7.58-6.146 13.724-13.724 13.724-7.58 0-13.724-6.143-13.724-13.724C2.276 8.42 8.419 2.276 16 2.276z" fill="#000"/></g><defs><clipPath id="clip0_1_2"><path fill="#fff" d="M0 0h32v32H0z"/></clipPath></defs></svg>