<svg xmlns="http://www.w3.org/2000/svg" viewBox="0 0 32 32"><path fill="#fff" fill-rule="evenodd" d="M16 32C7.163 32 0 24.837 0 16S7.163 0 16 0s16 7.163 16 16-7.163 16-16 16m-4.406-15.895c.092.254.224.492.391.705l.031.04-.045-.054q.087.124.187.237l.092.092c.036.035.065.07.094.095l1.996 2.011c.35.352.86.49 1.337.36.477-.128.85-.504.978-.985s-.009-.994-.358-1.346L12.4 13.333l.007-.007.06-.051 3.943-3.944.024.026.009.01 7.37 7.44a1.42 1.42 0 0 0 1.779-.195c.48-.483.543-1.244.15-1.8L17.4 6.408a1.376 1.376 0 0 0-1.953-.003L12.9 8.954l-.091.08q-.09.082-.187.154l-3.145 3.146a1.4 1.4 0 0 0 0 1.971l2.493 2.518a2.5 2.5 0 0 1-.377-.718zm8.146 2.573-.006.006-.058.047-3.935 3.935-.025-.03-7.384-7.457a1.383 1.383 0 0 0-1.872-.01 1.41 1.41 0 0 0-.185 1.877l8.477 8.547c.54.543 1.414.543 1.954 0l2.624-2.624q.09-.08.19-.15l3.148-3.149c.54-.544.54-1.427 0-1.972l-2.611-2.627.064.092a2 2 0 0 0-.144-.183l-.091-.092c-.037-.035-.066-.07-.094-.095l-1.997-2.01a1.378 1.378 0 0 0-2.361.98c0 .37.145.725.405.986z"/></svg>