<svg xmlns="http://www.w3.org/2000/svg" viewBox="0 0 32 32"><path fill="#fff" d="M16 32C7.163 32 0 24.837 0 16S7.163 0 16 0s16 7.163 16 16-7.163 16-16 16m2.046-16.897C28.546 17 14.26 27.666 4 18.01c12.101 7.743 18.334.467 13.955-2.711a.11.11 0 0 1-.023-.156.12.12 0 0 1 .114-.041zm-5.844-4.248c-6.622 4.54.742 6.599 2.079 6.164a.1.1 0 0 1 .064 0 .11.11 0 0 1 .083.135c-.903 3.464-11.312-3.392-2.226-6.299M28 12.602c-2.22-1.721-17.95-3.711-14.853 2.832a.11.11 0 0 1-.003.098.12.12 0 0 1-.157.047C5.372 11.619 20.133 6.992 28 12.602m-6.528 8.151c7.492-3.015-.541-10.523-4.822-7.306a.11.11 0 0 0-.04.11c.013.058.075.097.138.084 5.5-1.25 8.883 5.221 4.724 7.112"/></svg>