<svg xmlns="http://www.w3.org/2000/svg" width="32" height="32" viewBox="0 0 32 32"><path fill="#FFF" d="M16 32C7.163 32 0 24.837 0 16S7.163 0 16 0s16 7.163 16 16-7.163 16-16 16m0-4c6.627 0 12-5.373 12-12S22.627 4 16 4 4 9.373 4 16s5.373 12 12 12m4.613-16.349c.178.236.268.527.256.822a3 3 0 0 1-.186.917c-.099.275-.24.532-.418.763a4.1 4.1 0 0 1-1.186 1.027 3 3 0 0 1-.56.25l.01.004-6.268.617 3.142-8.634a10 10 0 0 0-.63.068c-4.165.598-7.377 4.187-7.377 8.515 0 2.161.816 4.243 2.285 5.829l-.852 2.345A10.86 10.86 0 0 1 5.118 16c0-5.877 4.683-10.677 10.512-10.873.122-.004.245-.01.369-.01.08 0 .159.007.238.007.813.017 1.622.124 2.411.321l-.785 2.157-1.177 3.235h1.45q1.03 0 1.62.227.592.227.857.587m-2.674 2.105a1.16 1.16 0 0 0 .087-.52.52.52 0 0 0-.151-.33.74.74 0 0 0-.32-.17 1.6 1.6 0 0 0-.4-.05h-1.13l-.758 2.083h1.13c.313-.002.62-.08.897-.228q.441-.227.645-.785M19.2 5.598c4.444 1.37 7.682 5.515 7.682 10.402 0 6-4.881 10.882-10.882 10.882a10.82 10.82 0 0 1-6.706-2.32l.831-2.285 2.035-5.581 6.326-.624q.241.096.46.237c.185.122.342.282.46.47.13.215.213.455.242.705q.056.41-.141.954-.535 1.468-1.798 2.134-1.261.669-3.229.668h-1.448l-.892 2.445q.254.13.519.243a8.603 8.603 0 1 0 5.76-16.183zm-4.64 11.475-.845 2.316h1.323q.25 0 .498-.036.28-.038.54-.154c.185-.086.353-.205.495-.352a1.7 1.7 0 0 0 .376-.631q.132-.368.069-.594a.6.6 0 0 0-.242-.343 1.1 1.1 0 0 0-.424-.161 2.7 2.7 0 0 0-.47-.045z"/></svg>