<svg xmlns="http://www.w3.org/2000/svg" width="32" height="32" viewBox="0 0 32 32"><path fill="#FFF" fill-rule="evenodd" d="M16 0c8.837 0 16 7.163 16 16s-7.163 16-16 16S0 24.837 0 16 7.163 0 16 0m-.008 5c-1.974 0-3.56 3.076-4.096 7.56q-.037.306-.067.627l-.025.32q-.603.436-1.146.878l-.356.296q-.24.203-.468.41l-.223.21c-1.657-1.749-2.398-3.328-2.029-4.19l.048-.097c.398-.711 1.692-.936 3.52-.603l.252.049q.076-.35.16-.68l.087-.326c-2.288-.477-4.053-.19-4.792.918l-.08.132a2.1 2.1 0 0 0-.268.88l-.007.191v.037c.013 1.668 1.545 3.88 4.12 5.992l.28.226q.282.225.588.452l.307.226q.064.797.171 1.535l.076.484.075.42.08.41c-2.288.612-3.975.485-4.519-.273l-.057-.09c-.398-.712.062-1.99 1.25-3.459l.167-.201-.684-.744c-1.562 1.826-2.22 3.563-1.657 4.783l.07.138c.452.81 1.397 1.219 2.67 1.264l.243.004c1.31 0 2.932-.362 4.713-1.068l.384-.156.075-.033.08-.033q.339-.145.68-.303l.343-.163.021-.011.021-.011q.69.328 1.368.603l.451.177.39.144.386.133c-.632 2.358-1.583 3.811-2.49 3.915l-.105.006c-.796 0-1.637-1.053-2.27-2.867l-.085-.252q-.324.116-.641.213l-.318.093C13.461 25.542 14.638 27 16 27c1.934 0 3.485-2.931 4.063-7.242l.04-.317.05-.468.042-.473q.627-.452 1.194-.923l.372-.316.042-.034.042-.039.27-.241.266-.247c1.664 1.74 2.405 3.326 2.036 4.19l-.048.096c-.369.66-1.544.903-3.166.666l-.246-.039-.176-.033-.177-.033q-.076.342-.159.668l-.087.324.22.043.217.037q.668.115 1.255.14l.289.006c1.334 0 2.305-.381 2.803-1.119l.088-.142c.594-1.062.205-2.586-1.101-4.302l-.176-.225c-.664-.836-1.506-1.678-2.478-2.49l-.37-.302-.442-.345-.453-.34a23 23 0 0 0-.175-1.539l-.08-.488-.074-.42-.08-.41q.401-.11.785-.19l.378-.073c1.665-.285 2.902-.087 3.351.53l.062.097c.39.697-.05 1.948-1.2 3.388l-.161.198q.246.248.467.494l.217.242.132-.156.121-.157c1.379-1.733 1.857-3.284 1.349-4.386l-.072-.14c-.596-1.065-2.069-1.477-4.163-1.166l-.265.042c-.907.154-1.89.435-2.91.816l-.44.169-.07.029-.07.029q-.396.16-.79.34l-.395.185-.053.025-.053.026a25 25 0 0 0-1.378-.617l-.448-.178-.39-.144-.385-.133c.631-2.351 1.583-3.804 2.49-3.908l.104-.006c.796 0 1.644 1.06 2.277 2.875l.085.252.482-.159.477-.147c-.767-2.268-1.887-3.71-3.19-3.814L15.991 5zm3.124 14.251q-.043.33-.087.65l-.047.312-.079.44-.084.428q-.38-.14-.782-.292l-.445-.177-.45-.187.063-.033.063-.033.435-.245.44-.25.126-.077.12-.077.366-.23.36-.229zm-6.247-.007.456.29.467.286.025.017.025.012.498.29.503.278-.004.001-.003.007q-.352.152-.696.289l-.34.134-.149.058-.243.086-.243.082a20 20 0 0 1-.254-1.49zm3.123-7.115q.61.305 1.237.666l.42.245.354.215.344.216q.31.195.604.395l.292.202q.047.698.059 1.44l.004.5-.005.519-.016.508-.022.458-.028.453q-.5.351-1.038.69l-.548.338-.219.13-.218.125q-.375.218-.745.413l-.37.192-.052.026-.053.025a27 27 0 0 1-1.657-.91l-.354-.213-.344-.218a23 23 0 0 1-.604-.396l-.291-.202a28 28 0 0 1-.06-1.44l-.004-.499.006-.52.015-.508.022-.46.028-.45q.5-.351 1.039-.69l.547-.339.321-.19.32-.181.508-.276zm0 2.566-.13.007c-.637.067-1.139.629-1.139 1.305l.007.134c.065.66.608 1.178 1.262 1.178l.13-.006c.637-.068 1.14-.63 1.14-1.306l-.007-.133c-.066-.66-.608-1.179-1.263-1.179m4.28.139q.303.234.588.472l.28.235.262.233.252.233-.28.255-.291.256-.043.036-.042.036q-.233.199-.482.4l-.251.198c.014-.291.028-.59.028-.89v-.29q0-.401-.01-.787zm-8.553 0-.016.442-.005.447v.284q0 .4.01.787l.011.387a15 15 0 0 1-.867-.707l-.266-.233-.256-.234q.232-.212.477-.428l.25-.213q.21-.177.434-.355zm7.108-3.893.08.406.075.418q.055.327.098.666l.043.34a40 40 0 0 0-.924-.583l-.025-.018-.024-.012-.5-.29-.494-.278.042-.021.042-.016q.403-.175.8-.328l.392-.145.2-.072zm-5.662 0q.26.086.524.181l.265.103q.29.11.588.236l.3.129-.5.279-.5.29-.022.011-.02.018-.471.288-.46.295a19 19 0 0 1 .237-1.55z"/></svg>