<svg xmlns="http://www.w3.org/2000/svg" viewBox="0 0 32 32"><path fill="#FFF" fill-rule="evenodd" d="M16 32C7.163 32 0 24.837 0 16S7.163 0 16 0s16 7.163 16 16-7.163 16-16 16m2.19-6q1.49 0 2.771-.619a4.04 4.04 0 0 0 1.91-1.878 6 6 0 0 0 .629-2.726 7 7 0 0 0-.175-1.466q-.162-.825-.734-1.719-.57-.905-1.63-1.42-1.049-.527-1.887-.527a3.5 3.5 0 0 0-.978.229l5.171-5.086-.839-.825-8.431.023V6.412L13.182 6h-2.166v.595l.745.734v2.657H8.5v1.169h3.26v6.277q0 1.375.793 2.176.792.802 2.865.802.838 0 1.537-.458.698-.458 1.095-1.329a3 3 0 0 0 .058-.32.62.62 0 0 0-.163-.425q-.175-.125-.303-.125a.24.24 0 0 0-.151.057.34.34 0 0 0-.117.149 3.8 3.8 0 0 1-.885.893q-.512.367-1.071.367-.723 0-1.072-.504t-.35-1.283v-6.277h6.383l-4.612 6.048v.504l1.025-.504q.84-.459 1.397-.458a3 3 0 0 1 1.584.446q.734.447 1.107 1.375.384.916.384 2.21 0 1.192-.35 2.131-.348.94-1.082 1.42a2.93 2.93 0 0 1-1.643.482q-.652 0-1.304-.184-.652-.171-.955-.584.35-.103.606-.435.256-.333.256-.86 0-.435-.175-.732a1.27 1.27 0 0 0-.477-.47 1.5 1.5 0 0 0-.746-.172q-.442 0-.745.172a1.27 1.27 0 0 0-.477.47q-.175.298-.175.733 0 1.191 1.001 2.222Q16 25.999 18.189 26z"/></svg>