<svg version="1.0" xmlns="http://www.w3.org/2000/svg" width="266.667" height="266.667" viewBox="0 0 200 200"><path d="M84.8 1.5C45 7.7 13.7 36.3 3.3 75.9 1.3 83.7.8 88 .7 99c-.2 18.7 2.6 30.8 10.9 47 18.4 36.1 58.9 57.8 99 53.1 44.2-5.1 78.2-36.5 87.5-80.6.7-3.3 1.3-12 1.2-19.5-.1-11-.5-15.3-2.6-23.1-10.5-40-41.9-68.3-82.4-74.4-11.7-1.8-17.9-1.8-29.5 0zm24.3 39.8c3 2 4.7 5.2 13.4 25.4l9.9 23.2 4.8-.6c7.8-.9 12.8 2.1 12.8 7.9 0 3.9-2.7 6.7-7.1 7.4-2.4.4-3.8 1.1-3.6 1.8.3.6 3.5 8 7.1 16.4 3.6 8.5 6.6 16.7 6.6 18.3 0 6.3-8.4 9.4-12.7 4.7-1.1-1.3-5.5-10.5-9.8-20.6-8.8-20.7-7.3-19.5-19.4-16.1-19.6 5.5-34 15.1-42.8 28.6-5.7 8.9-7.2 10.3-11 10.3-4.3 0-7.3-3-7.2-7.3 0-1.9 8.4-22.7 20.2-50.2 18.3-42.6 20.5-47.2 23.6-49.2 4.5-3.1 10.7-3 15.2 0z"/><path d="M91.8 79.8c-4.9 11.4-9 21.5-9.4 22.4-.4 1.3 1.5.8 8.5-2.3 5-2.1 12.5-4.8 16.7-5.9 4.3-1.1 7.9-2.2 8.1-2.4.7-.7-13.2-32.6-14.2-32.6-.5 0-4.9 9.4-9.7 20.8z"/></svg>