<svg xmlns="http://www.w3.org/2000/svg" width="666.667" height="666.667" version="1.0" viewBox="0 0 500 500"><path d="M231.5.6c-1.6.2-7.3.9-12.5 1.5-30.4 3.4-64.5 14.7-91.7 30.2C57.9 71.9 13 138.8 1.9 219c-1.7 12.2-1.8 49.6-.1 61.5 5.7 40.7 18.5 75.2 39.7 107C82.3 448.9 144.6 487.8 219 498.1c5.5.8 18.6 1.4 31 1.4s25.5-.6 31-1.4c71.9-10 133.2-47.1 173.9-105.1 23-32.9 37.4-70.3 43.2-112 1.7-12.2 1.8-49.6.1-61.5-4.4-31.6-13-58.9-26.3-84.3-37.8-72.4-106-120.7-187.4-132.8C275 1 237.8-.3 231.5.6m66.3 67.1c-2.6.2-7.1.2-10 0s-.8-.3 4.7-.3 7.9.1 5.3.3m-19.5 1c-.7.2-1.9.2-2.5 0-.7-.3-.2-.5 1.2-.5s1.9.2 1.3.5m32 0c-.7.2-1.9.2-2.5 0-.7-.3-.2-.5 1.2-.5s1.9.2 1.3.5m-38.6.9c-.3.3-1.2.4-1.9.1-.8-.3-.5-.6.6-.6 1.1-.1 1.7.2 1.3.5m44 0c-.3.3-1.2.4-1.9.1-.8-.3-.5-.6.6-.6 1.1-.1 1.7.2 1.3.5M245 78c-.8.5-1.9 1-2.5 1-.5 0-.3-.5.5-1s2-1 2.5-1c.6 0 .3.5-.5 1m-7 3.4c0 .2-.7.7-1.6 1-.8.3-1.2.2-.9-.4.6-1 2.5-1.4 2.5-.6m-16 10c0 .2-.8 1-1.7 1.7-1.6 1.3-1.7 1.2-.4-.4s2.1-2.1 2.1-1.3m146.1 3.3c1.3 1.6 1.2 1.7-.3.4-1.7-1.3-2.2-2.1-1.4-2.1.2 0 1 .8 1.7 1.7m-151.1.6c0 .1-3 3.2-6.7 6.7l-6.8 6.5 6.5-6.8c6-6.2 7-7.2 7-6.4m160 7.2c3 3 5.2 5.5 4.9 5.5-.2 0-2.9-2.5-5.9-5.5s-5.2-5.5-4.9-5.5c.2 0 2.9 2.5 5.9 5.5m9.1 10.2c1.3 1.6 1.2 1.7-.3.4-1.7-1.3-2.2-2.1-1.4-2.1.2 0 1 .8 1.7 1.7m-98.8 4c-.7.2-2.1.2-3 0-1-.3-.4-.5 1.2-.5 1.7 0 2.4.2 1.8.5m14 0c-.7.2-1.9.2-2.5 0-.7-.3-.2-.5 1.2-.5s1.9.2 1.3.5m-67.1 32.7c.5-.3.3.8-.6 2.4-4.8 9.3-6 28.9-2.6 43 2.7 11.2 6.8 19.7 18.7 38.7 5.5 8.8 11.2 18.1 12.7 20.7 1.6 2.7 3.2 5 3.7 5.3 1.2.8 21.1-7.7 37.5-16 16.1-8.2 28.4-16 36.4-23 3-2.7 4.5-3.7 3.2-2.3l-2.3 2.6 15.8 17.2c8.7 9.4 15.9 17.5 16.1 18 .5 1.3-12.3 11.2-23.8 18.5-10.6 6.6-35.7 19.3-50.5 25.6-4.4 1.8-8.1 3.4-8.3 3.5-.1 0 3.3 7.5 7.7 16.5 14.1 29.2 23.4 57.6 24.8 75.5l.6 8.4H274v-2.9c0-4.7-5.5-24.7-10-36.1-2.3-5.8-7.6-17.8-11.7-26.8-7.3-15.6-7.7-16.3-10.1-15.7-5.4 1.3-47.1 18-54.2 21.6-8.7 4.4-17.1 10.6-25.4 18.7-9.2 9-13.6 20.1-13.6 34.8v6.4H99.5l.6-10.7c1.4-22.2 5.7-36.1 16.2-51.8 8.5-12.7 30-31 47-40 7.9-4.2 31.8-14.2 48-20 4.2-1.5 7.7-3.2 7.7-3.6 0-.5-5.1-9.1-11.4-19.2-13.2-21.2-16.3-27.1-20.4-38.7-5.7-16.4-6.7-22.7-6.6-43.5 0-17.2.3-19.9 2.7-28.7 1.4-5.4 3.8-12.4 5.2-15.7l2.7-5.9 21 11.9c11.5 6.6 21.4 11.6 22 11.3m100.9-18.7c1.3 1.6 1.2 1.7-.3.4-1.7-1.3-2.2-2.1-1.4-2.1.2 0 1 .8 1.7 1.7m-84.1-.4c0 .2-1 1.2-2.2 2.3l-2.3 1.9 1.9-2.3c1.8-2.1 2.6-2.7 2.6-1.9m96 11.4c0 .8-.9 0-5-4.5l-4.5-4.7 4.8 4.5c2.6 2.4 4.7 4.5 4.7 4.7m-103-4.4c0 .2-1.2 1.4-2.7 2.8l-2.8 2.4 2.4-2.8c2.3-2.5 3.1-3.2 3.1-2.4m162.7 25.9c-.3.8-.6.5-.6-.6-.1-1.1.2-1.7.5-1.3.3.3.4 1.2.1 1.9m-48 15c-.2 1.8-.4.4-.4-3.2s.2-5 .4-3.3c.2 1.8.2 4.8 0 6.5m49-2c-.3.7-.5.2-.5-1.2s.2-1.9.5-1.3c.2.7.2 1.9 0 2.5m-1 13c-.3.7-.5.2-.5-1.2s.2-1.9.5-1.3c.2.7.2 1.9 0 2.5m-1 6c-.3.8-.6.5-.6-.6-.1-1.1.2-1.7.5-1.3.3.3.4 1.2.1 1.9M385 244.4c0 .2-.8 1-1.7 1.7-1.6 1.3-1.7 1.2-.4-.4s2.1-2.1 2.1-1.3"/></svg>