<svg xmlns="http://www.w3.org/2000/svg" width="1232" height="1136" version="1.0" viewBox="0 0 924 852"><path d="M431 103.1c-147.6 12.8-265.7 128.4-284.5 278.3-10.6 84.3 14.2 172.4 67.5 239.6 10.7 13.5 36.5 39.3 50 50 32.1 25.5 72.4 46 110.9 56.6 59.1 16.2 121.2 14.4 179.5-5.1 99.2-33.2 176.3-116.5 203.6-220 11.6-43.9 13.4-95.2 5-140.8-14.5-79.1-58.1-149.4-122.5-197.7-60.1-45.1-136.4-67.2-209.5-60.9m24.4 64.4c6.9 20.3 25.4 41.3 51.9 58.8 8.3 5.4 10.7 8.5 10.7 13.8 0 6.6-5.5 11.9-19.9 19.4-12 6.3-16.3 11.6-14.6 18.2.3 1.4 3.7 5.9 7.6 9.8 4 4.1 6.9 8 6.9 9.2 0 2.8-5.4 7.9-11.7 11l-5.3 2.5 4 2.9c7.7 5.6 7.4 8.5-2.1 16.2-3.2 2.6-6.7 5.9-7.6 7.3-3 4.7-2.2 10.9 2.9 21.9 2.5 5.5 5.2 11.7 5.8 13.9 1.7 5.3.8 19.1-1.4 23.6-6.9 13.3-20.1 21.8-45.1 29-13.2 3.9-27.8 11.5-34.7 18.2-6.6 6.5-10.1 14.2-10.6 23.7-.5 9.3.9 15.8 5.9 27.1 3 6.8 3.9 10 3.9 14.3 0 6.5-2 9.4-10.6 15.8-6.8 5-7.9 7-6 10.6.8 1.6 2.8 3.7 4.5 4.8s3.1 2.3 3.1 2.6c0 .4-2 1.4-4.3 2.3-5.6 2.1-12.7 8.2-12.7 10.8 0 1.1 2.4 4.5 5.3 7.6 7.4 7.9 8.7 10 8.7 14.6 0 3.2-.7 4.5-3.9 7.6-2.2 2.1-7.9 5.6-12.8 8-13.7 6.5-19.3 11.8-19.3 18.2 0 5.5 2.2 7.9 17 17.8 26.8 18.1 49.1 40.5 47.8 48-.3 1.7-.9 1.6-11.5-.5-23.6-4.8-42.6-11.3-64.3-22.1-70.6-35.2-121.3-101.9-137-180.4-7-35-7.4-66.1-1.4-100 14.4-80.1 64.2-148.5 135.6-186 30.4-15.9 65.7-25.8 99.7-28 6.4-.4 11.8-.8 12.1-.9.3 0 1.8 3.7 3.4 8.4"/></svg>