<svg version="1.0" xmlns="http://www.w3.org/2000/svg" width="266.667" height="266.667" viewBox="0 0 200 200"><path d="M86.5 1C54.1 6.1 26.6 25.5 11.8 53.7c-32.7 62.4 7.6 137.7 77.9 145.6 48.3 5.4 94.4-26.9 107-74.8 2.2-8.6 2.6-12.1 2.6-24.5s-.4-15.9-2.6-24.1c-9.7-36.5-36.5-63.3-72.6-72.5C113.2.6 96.1-.5 86.5 1zm34.4 91.4c11.1 27.9 20 51 19.7 51.3-.8.9-14.1-8.1-23.1-15.7l-9-7.6.3 3.6c.7 7.1-7 12-13.5 8.6-3.6-1.8-5.8-6.5-4.9-10.2.6-2.3-.2-1.9-6.1 3.6-6.8 6.2-23.5 18-25.5 18-.5 0-.8-.6-.5-1.3C74.7 101 99.6 40.2 100.1 40.8c.4.4 9.7 23.6 20.8 51.6z"/><path d="M96.5 86.7c-1.7 4.2-3.2 8.1-3.4 8.6-.2.6 1.3-.3 3.3-1.8l3.7-2.8 2.9 2.8c1.7 1.6 3 2.4 3 1.9 0-.8-5.8-15.4-6.4-16.1-.1-.1-1.5 3.2-3.1 7.4zm.7 26l-2 2.8h9.7l-2.6-2.7c-1.5-1.6-2.8-2.8-2.9-2.8-.2 0-1.1 1.2-2.2 2.7z"/></svg>