<svg xmlns="http://www.w3.org/2000/svg" width="266.667" height="266.667" version="1.0" viewBox="0 0 200 200"><path d="M83 1.5C29 11.3-7.8 63.1 1.5 116.4c7.4 42.1 40 74.7 82.1 82.1 53.6 9.3 105.4-27.7 114.9-82.1C206.8 68.7 178 21 131.3 5.1 116.8.2 98-1.2 83 1.5m30.9 31.1c6.4 2.6 16.8 7.3 23.1 10.5 19.5 9.9 45 27.5 45 31 0 .9-1.1 5.9-2.4 11-11.4 43.7-38.3 78.4-71.6 92.5l-8 3.4-5-2c-13.7-5.4-24.1-12.2-35.6-23.2-18.3-17.6-32.7-43.7-40-72.7-2.3-9-2.3-9.5-.7-11.4 3-3.3 21.4-16.2 30.8-21.6C67 40 94.2 28.1 99.9 28c1.3 0 7.6 2.1 14 4.6"/><path d="M89 40.5c-27 10.7-62 32-62 37.6 0 2.5 7.3 24.7 10.3 31.3l2.3 5 1.2-7.7c.6-4.2 2.5-10.6 4.1-14.2 3.4-7.4 12.2-17.3 18.9-21.2 5.3-3.1 15.3-6.3 19.8-6.3 4.1 0 4.2-.5.7-4.3l-2.8-3 9.5.6c5.2.4 13.1 1.6 17.5 2.7 10.6 2.8 28.9 11.8 29.3 14.5.2 1.1 2.5 3.6 5.2 5.5 11.1 7.9 13.9 20.4 6.8 30.3-2.4 3.4-10.2 7.8-8.3 4.6 1.3-2.1-.5-5.7-3.6-6.9-2.6-1.1-3.6-1.1-6.5.4-4.5 2.1-7.9 9.1-7 14.2 1.3 6.7 9.1 12.8 17.6 13.6 3.3.3 3.7-.1 8.3-6.7 8.6-12.4 16.4-29.5 20.8-45.3 2.2-8.1 2.2-8.2.3-10.3-5.9-6.6-39-25.8-56.9-32.9-15.8-6.3-13.7-6.2-25.5-1.5"/><path d="M113.6 73.1c.3.6 2.9 2.2 5.7 3.5 4.6 2.1 5.4 2.2 7.3.9 1.2-.7 3.2-1.2 4.5-.9 4.9 1.1-.7-1.5-6.7-3.1-7-1.8-11.8-2-10.8-.4"/></svg>