<svg version="1.0" xmlns="http://www.w3.org/2000/svg" width="266.667" height="266.667" viewBox="0 0 200 200"><path d="M84 2.7c-5.2.9-17.5 4.5-22.2 6.5-5 2.1-6.2 3.6-1.4 1.8 6.3-2.3 16-3.1 24.1-1.9 7.7 1.1 8.2 1 14.2-1.5 3.3-1.4 8-2.8 10.2-3.2 8.2-1.3 3.8-2.4-9.1-2.3-7.3.1-14.4.4-15.8.6z"/><path d="M110.3 5.5c-3.4.7-8.3 2.3-10.9 3.5-4.4 1.9-5.9 2-16.9 1.4-9.5-.5-13.3-.3-18.4 1-18.2 4.7-29.9 17.5-34.7 38.1-.9 3.8-3.5 10.8-5.9 15.5-2.4 4.7-5.2 11.7-6.3 15.7-1.2 4.4-3.8 10.1-6.9 15-2.7 4.3-5.7 9.7-6.6 12.1-1.6 4-1.6 4.7.2 13.1 1.8 8.3 6.7 21.7 9.2 25.1.9 1.2.9 1.1.4-.5-3.8-10.5-4.7-14.7-4.7-22-.1-9.2 1.4-13.9 6.9-22.1 2.1-3.1 4.6-6.9 5.6-8.4.9-1.5 2.2-5.4 2.8-8.6.6-3.4 2.9-9.4 5.4-14 2.4-4.5 5.3-11.7 6.4-16 4.9-19.9 11.8-29.2 25.5-34.3 8.4-3.1 15.5-3.6 24.1-1.6l7.5 1.8 7.8-3.6c9.1-4.2 21-6.2 34-5.5 9.8.5 9-.3-4.3-4.7-8.7-2.8-11.3-2.9-20.2-1z"/><path d="M122.5 12.6c-9.2.9-16.4 2.8-23.2 6-6.2 2.9-7.6 3.2-10 2.3-13.7-5.3-31.8-.9-41.7 10.2-4.8 5.4-7.6 11.6-10.8 24.4-1.1 4.4-3.5 10.5-5.3 13.5-3.4 5.6-5.9 12.5-7 19.2-.3 2-2.4 6.1-4.6 9-12.2 16.3-13.1 29.7-3.2 52.4 5.6 13 19.1 27.2 29 30.7 2.7 1 3.5 1.5 1.8 1.2-2.7-.5-2.4-.2 2 2.6 11 7 14.9 8.2 29.5 8.9l13.5.7-10 .2-10 .3 5.5 1.5c3.8 1.1 10.6 1.6 21.5 1.6 19.5.2 27.5-1.6 44-9.9 13.1-6.5 22.5-13.7 26.6-20.5 1.7-2.7 3.3-4.9 3.6-4.9.3 0-.3 1.2-1.3 2.7-1.5 2.5-1.6 2.6-.1 1.4 6.5-5.3 18.4-26.5 22.1-39.3 2.3-7.9 2-8.7-1.3-4.2-1.6 2.1-4.6 5.5-6.7 7.4-3.4 3.1-3.3 2.9.7-1.6 8.6-9.4 10.1-12.4 10.6-21.6 1.5-23.7-5.2-46.7-19-65.4-8.8-12-24.6-25.2-32.6-27.4-4.3-1.1-18-1.9-23.6-1.4zm29.1 11.3c5.7 2.7 8.8 5.2 18.6 15.2 7.4 7.7 12.1 13.3 12.8 15.5.7 2 1 3.8.7 4-.3.3-.8-.9-1.2-2.6-.5-2.1-4.1-6.8-10.8-13.8-11.8-12.5-12.5-13.1-19.5-16.6-7.7-3.9-18.7-5.3-31.3-3.9-8.4 1-11.5 1.8-18.6 5.2-4.7 2.3-9.1 4.1-9.9 4.1-.8 0-4.3-.9-7.7-2.1-9.4-3.2-20.8-1-28.5 5.6-4.5 3.9-9.3 14.1-11.1 23.7-.5 3.2-1.9 7.4-3 9.5-1 2.1-3.3 6.5-5 9.7-2.3 4.4-3.1 7.2-3.1 11.1 0 4.7-.4 5.7-5.2 11.6-12.7 15.9-13.3 25.6-2.8 48.6 4.1 8.9 10.1 16.1 16.9 20.5 2.5 1.5 4 2.8 3.5 2.8-2.1 0-10.5-6.3-13.8-10.4-3.8-4.6-10-16.5-12.7-24.3-4.8-14.1-3.3-22.7 6.3-35.4 5.3-7 6.2-8.8 6.5-13.3.5-6.3 1.7-9.5 5.9-16.6 1.8-3 3.8-7.8 4.5-10.5 2.4-10.2 6-20.3 8.5-23.6C56.4 31.4 67.3 26 75.9 26c2 0 6.6.9 10.2 2.1l6.6 2.2 8.5-4.1c10.5-5.2 16-6.2 31.4-5.8 11.2.3 12.6.5 19 3.5zm-3.1 8.1c3.3 1.6 8.4 6 15 12.8 5.5 5.7 10.4 11.1 10.9 11.9.5.9-4.3-3.6-10.6-10.1-15.3-15.3-16.9-16.1-34.8-16.1h-13.5l-10 4.7c-13.7 6.3-13.6 6.3-19.8 3.4-8.6-4.1-17-3.1-23.6 2.9-3.9 3.5-6.8 10.4-9 21.6-.7 3-2.9 8.6-5.1 12.3-5 8.5-6.1 12.5-4.9 17.1 1 3.4.8 3.8-3.7 8.8-6.6 7.3-11.2 14.6-11.9 18.9-1 5.1 1 12.6 6 23.4 4.6 9.8 9.8 16.4 14.5 18.4 1.7.7 2.9 1.5 2.6 1.7-.9.9-6.4-2.8-10.2-6.9C33.8 149.7 26 131.3 26 123c0-5.1 4.1-12.8 11-20.3 5.7-6.2 5.9-6.6 5-9.8-1.4-4.7-.5-8.3 4-15.9 2.1-3.6 4.6-9.2 5.5-12.5 5-18.3 5.7-20 9.4-23.5 6.6-6.3 16.3-7.7 25.1-3.6 6 2.8 7.2 2.5 18.9-3.4 8.5-4.2 12.4-4.9 26.6-4.6 10.4.2 12.7.5 17 2.6zm-3.1 8.2c2.6 1.4 8.2 6.4 13.6 12.2 10.4 11.1 9.9 9 5.9 24.1-1.1 4.4-2.5 9.7-3 11.7-1.2 4.8-6.9 10.8-10 10.7-1.3 0-7.1-2.4-12.9-5.2l-10.5-5.2-.5-15c-.5-13.6-.7-15.4-3-19.4-3-5.4-6.8-7.8-14.1-8.9l-5.4-.8 5.4-2.8c9.7-5 26.1-5.7 34.5-1.4zm-62.9 6.4c5.7 2.6 5.9 2.7 14.1 1.4 14.1-2.2 22.9.2 26.7 7.4 1.8 3.5 2.2 6.3 2.7 19.1.3 8.2.8 15.5 1.3 16.2.4.6 3.1 1.9 6 2.9 4.6 1.5 12.5 5 13.6 6 .3.2-.4 1-1.4 1.7-1.5 1.2-2.8 1-9.2-1.5-5.5-2.1-8.3-2.7-10.6-2.2-4.1.9-7.5 3.1-8.2 5.4-.3 1-2.6 3.9-5 6.4l-4.5 4.5v7.4c0 5.4-.4 7.8-1.5 8.7-.8.7-1.5.9-1.6.4 0-.5-.1-2.5-.2-4.4-.2-3.2-.4-3.5-3.2-3.3-6.9.4-25.2.5-28 .1-1.6-.2-3.6-.7-4.2-1.1-.7-.5-1.7-.6-2.3-.2-.5.3-1.9-.4-3-1.5s-3.2-2-4.8-1.9c-2.6.1-7.6-1-15.5-3.3l-3.7-1.1 6.5-6.8c7-7.2 7.8-9.5 5-14.9-1.7-3.3-1.3-4.8 2.7-10.8 3.2-4.7 6.4-13.1 7.9-20.7 3-15.9 8.2-19.4 20.4-13.9zm102.2 20.1c-.2 1.6-.4.5-.4-2.2 0-2.8.2-4 .4-2.8.2 1.3.2 3.5 0 5zm8 8.5c-.3.7-.5.2-.5-1.2s.2-1.9.5-1.3c.2.7.2 1.9 0 2.5zm-4 16c-.3.7-.5.2-.5-1.2s.2-1.9.5-1.3c.2.7.2 1.9 0 2.5zm-1 4c-.3.8-.6.5-.6-.6-.1-1.1.2-1.7.5-1.3.3.3.4 1.2.1 1.9zm-1.6 4.5c-1.2 2-1.4 1.4-.5-1.2.4-.9.9-1.4 1.1-1.1.3.2 0 1.3-.6 2.3zm9.6-.5c-.3.8-.6.5-.6-.6-.1-1.1.2-1.7.5-1.3.3.3.4 1.2.1 1.9zm-63.8 1.7c1.2.8.9 2.2-2.2 8.1-2 4-3.7 8.5-3.7 10.1 0 3.6-2.8 5.5-9.7 6.4l-5.3.7v-6.1c0-5.9.2-6.3 4.3-10.6 2.3-2.4 5.2-5.5 6.4-6.9 2.3-2.7 7.3-3.5 10.2-1.7zm34.1-.6c0 .2-1.5 1.6-3.2 3.3l-3.3 2.9 2.9-3.3c2.8-3 3.6-3.7 3.6-2.9zm8.1 3.5c-.5 1-1.8 2.5-2.7 3.3-1.1.9-.9.2.6-1.9 2.6-3.5 3.6-4.2 2.1-1.4zm-33.8.3c3.2 1.7 3.2 1.7.6 4.5-2.2 2.4-2.4 3.5-2.9 15.7-.4 11.7-.8 13.6-2.9 17.2-7.3 12-9.9 13.5-22.6 13.5-6.1 0-10.2.6-14.7 2.1-5.6 2-7.5 2.1-22.7 1.6-18.6-.6-22.6-1.5-27.6-5.9-3.1-2.7-10.3-15.4-9.3-16.3.2-.3 1.7.2 3.2 1 1.6.8 3.8 1.5 5 1.5 1.2 0 2.7.9 3.4 2.1.8 1.3 1.9 1.8 2.9 1.5.9-.4 2.4.1 3.4 1s4.2 1.9 6.9 2.2c4.6.4 5.2.2 5.7-1.7.7-2.6 1.7-2.7 4.3-.1 2.4 2.4 6.7 2.6 9.2.4 1.4-1.3 2.1-1.4 3.2-.5 1.6 1.4 5.6-.1 5.6-2.1 0-.6.9-.8 2.1-.5 1.2.3 2.8-.2 3.8-1.2s2.8-1.7 4.1-1.7c1.5.1 2.8-.8 3.9-2.6 2.6-4.4 6.6-6.8 13.2-8 7.4-1.3 10.9-4.1 10.9-8.8 0-1.7 1.2-5.4 2.6-8.3 4.2-8.2 4.7-8.7 8.7-6.6zm52.8 1.6c-1.2 2-1.4 1.4-.5-1.2.4-.9.9-1.4 1.1-1.1.3.2 0 1.3-.6 2.3zm-11.1 2.2c-.5 1.1-1.5 2.3-2.1 2.7-.6.3-.3-.5.6-2 2-3 3-3.5 1.5-.7zm9 2.1c-.6 1.1-1.3 2-1.6 2-.2 0 0-.9.6-2s1.3-2 1.6-2c.2 0 0 .9-.6 2zm-21-.6c0 .2-.8 1-1.7 1.7-1.6 1.3-1.7 1.2-.4-.4 1.3-1.6 2.1-2.1 2.1-1.3zm9 2.9c0 .2-1.9 2.1-4.2 4.2l-4.3 4 4-4.3c3.6-3.9 4.5-4.7 4.5-3.9zM42.5 117c1.1 1.7-2.8 7-4.4 6.1-1.1-.7-1-1.4.5-4 1.9-3.3 2.9-3.8 3.9-2.1zm141.5 2.8c-1.7 2.2-4.5 4.9-6.3 6.2-1.8 1.3-.6-.3 2.8-3.8 3.3-3.4 6.1-6.2 6.3-6.2.2 0-1.1 1.7-2.8 3.8zm-135.2-1.1c-2.5 5.2-3.4 6.3-5 6.3-2.3 0-2.3-1.1.3-4.4 1.8-2.3 5.7-3.8 4.7-1.9zm5.8 1.7c.8 2-2.5 6.6-4.7 6.6-3 0-3.1-1.6-.3-4.9 2.8-3.4 4.2-3.8 5-1.7zm7.8 1.2c2 1.9 2 3.5.3 5.9-1.1 1.4-2.1 1.6-5 1.1-2.1-.4-3.7-.9-3.7-1.2 0-1 5.2-7.4 6-7.4.5 0 1.6.7 2.4 1.6zm106 .9c-.9 1.4-1.8 2.5-2.1 2.5-.5 0 .5-1.8 2-3.8 1.7-2.2 1.8-1.3.1 1.3zM37 126.6c0 1.4-.4 2.2-1 1.9-.5-.3-1-1.7-1-3.1 0-1.4.4-2.2 1-1.9.6.3 1 1.7 1 3.1zm30.5 7.4v10h-4.1c-2.7 0-4.7-.6-5.7-1.8-1.5-1.7-1.3-2.3 3.8-10 3.1-4.5 5.6-8.2 5.8-8.2.1 0 .2 4.5.2 10zm8.8-7.9c.7 1.2.3 3.1-1.6 7.2-1.4 3.2-3 5.7-3.5 5.7-2.3 0-3.1-11.7-1-13.8 1.6-1.6 4.8-1.1 6.1.9zm26.7.4c0 1.8-.5 2.5-2 2.5-2 0-2.8-2.8-1.3-4.3 1.5-1.6 3.3-.6 3.3 1.8zm-18.8-.9c.3.3.1 2.1-.5 4-1.3 4.1-4.7 4.9-4.7 1 0-3.7 1-5.6 2.9-5.6 1 0 2 .3 2.3.6zm6 .6c.8 2.4-.4 5.8-2.1 5.8-2.6 0-3-.9-1.9-4.1 1-2.9 3.3-3.9 4-1.7zm5.8 1.2c0 1.3-.6 2.6-1.4 2.9-1.9.8-2.4.1-1.8-2.8.6-3.2 3.2-3.3 3.2-.1zM40.7 131c0 4.1-1 5.3-2.1 2.4-.8-2.1-.8-5.9 0-6.7 1.3-1.3 2.1.3 2.1 4.3zm4.7-2.4c1.1.4 1.6 1.9 1.6 4.5 0 3.2-.3 3.9-2 3.9s-2-.7-2-4.5c0-4.8 0-4.8 2.4-3.9zm8.9 2c4.4.8 4.5 1.7 1.2 6.7-3.1 4.4-3.9 4.6-5.3.9-3.3-8.2-3-8.7 4.1-7.6zM103 134c0 1.9-.5 3-1.4 3-2.3 0-2.9-3.3-1-4.7 2.4-1.7 2.4-1.7 2.4 1.7zm70.7 1.7c-.3 1-.5.4-.5-1.2 0-1.7.2-2.4.5-1.8.2.7.2 2.1 0 3zm-76.7-.3c0 3.1-2.8 5.6-4.1 3.5-.5-.8-.9-2.4-.9-3.7 0-1.7.6-2.2 2.5-2.2 2 0 2.5.5 2.5 2.4zm-7 2c0 3.9-2.6 6.9-4.1 4.5-1.3-2.1-1.1-6.7.4-7.2 2.9-1.2 3.7-.6 3.7 2.7zm92.7-1.2c-.3.8-.6.5-.6-.6-.1-1.1.2-1.7.5-1.3.3.3.4 1.2.1 1.9zM82 138.9c0 5.8-6.2 8.3-6.8 2.8-.5-4.3.4-5.7 3.8-5.7 2.7 0 3 .3 3 2.9zm99.7 3.3c-.3.7-.5.2-.5-1.2s.2-1.9.5-1.3c.2.7.2 1.9 0 2.5zm-1 4c-.3.8-.6.5-.6-.6-.1-1.1.2-1.7.5-1.3.3.3.4 1.2.1 1.9zm-41.7 5.1c0 .2-1.9 2.1-4.2 4.2l-4.3 4 4-4.3c3.6-3.9 4.5-4.7 4.5-3.9zm39.1 2.4c-1.2 2-1.4 1.4-.5-1.2.4-.9.9-1.4 1.1-1.1.3.2 0 1.3-.6 2.3zm-10.6 2.2c-2.1 4.3-2.9 3.9-.8-.4.9-1.9 1.8-3.3 2.1-3.1.2.2-.4 1.8-1.3 3.5zm-21.5.4c0 .1-2.4 2.5-5.2 5.2l-5.3 5 5-5.3c4.6-4.8 5.5-5.7 5.5-4.9zm9.3 2.8c-1 1.7-2.6 3.8-3.7 4.7-1 .9-.4-.4 1.5-3.1 3.7-5.3 4.9-6.2 2.2-1.6zm21.7-2.3c0 .5-.7 1.7-1.5 2.8-1.4 1.8-1.4 1.7-.4-.9 1.2-2.7 1.9-3.4 1.9-1.9zm-27 9.5c0 .2-1.5 1.6-3.2 3.3l-3.3 2.9 2.9-3.3c2.8-3 3.6-3.7 3.6-2.9zm9.1 2.4c-1 1.6-4.1 4.8-6.7 7.3-3.8 3.6-3.4 3 1.7-2.7 6.8-7.7 8.2-9 5-4.6zm-105.4 4.9c-.3.3-1.2.4-1.9.1-.8-.3-.5-.6.6-.6 1.1-.1 1.7.2 1.3.5zm6 1c-.3.3-1.2.4-1.9.1-.8-.3-.5-.6.6-.6 1.1-.1 1.7.2 1.3.5zm-5.4 8.1c-.7.2-1.9.2-2.5 0-.7-.3-.2-.5 1.2-.5s1.9.2 1.3.5zm89.7-.2c0 .6-5.6 3.5-6.7 3.5-.4-.1.8-.9 2.7-2 3.9-2.2 4-2.2 4-1.5zm-82.2 1.2c-1 .2-2.6.2-3.5 0-1-.3-.2-.5 1.7-.5s2.7.2 1.8.5zm12.5 1c-1.3.2-3.5.2-5 0-1.6-.2-.5-.4 2.2-.4 2.8 0 4 .2 2.8.4zm17.4-.1c-.3.3-1.2.4-1.9.1-.8-.3-.5-.6.6-.6 1.1-.1 1.7.2 1.3.5zm8 8c-.3.3-1.2.4-1.9.1-.8-.3-.5-.6.6-.6 1.1-.1 1.7.2 1.3.5z"/><path d="M73.7 51.1C72 52.1 63 70.1 63 72.5c0 .7.9 2 2 3 2.6 2.3 13 1.7 15.9-.9 2.2-2 4.2-9.9 4.3-16.8 0-3.2-.5-4.6-2.2-6-2.5-2-6.5-2.3-9.3-.7zm-.1 10.1c-2 4-3.6 8.6-3.6 10.1 0 2.8-.6 3.2-2.9 1.8-1.1-.7-.8-1.9 1.7-6.2 1.6-3 3.3-6.5 3.7-7.9.8-2.7 3.5-6.3 4.3-5.6.2.3-1.2 3.8-3.2 7.8zm25.7-8c-2.3 1.1-2.9 2.8-1.6 4.1.3.4 1.2.2 1.9-.4 3-2.5 3.1-.1.1 4.6-2.3 3.7-3.2 6.3-3.3 10-.1 2.7-.6 5.1-1 5.3-1.5.5-2.5-6.9-1.4-10.6 1-3.9-.1-6.5-2.1-4.5-1.3 1.3-2.4 11.3-1.5 14.7 1.2 4.9 11.5 7.9 17.8 5.3 4.6-1.9 9.8-10.4 9.8-16 0-10.2-9.8-16.8-18.7-12.5zm-37.6 31c-1.7 1.3-6 15.5-5.9 19.7 0 3.1 2.4 5.3 5.6 5.3 3.8 0 11.3-4.8 14.6-9.4 5.3-7.2 3.4-12.7-5.2-15.3-6.2-1.8-7-1.8-9.1-.3zm3.5 4c-.5.7-1.8 5-2.8 9.5-1 4.5-2.2 7.9-2.7 7.6-.9-.5-.8-1.8 1.3-10.8 1.6-7.2 1.8-7.5 3.6-7.5 1.2 0 1.4.4.6 1.2zm-21.7-69c-5.6 4.1-15.6 13-18.1 16.3-1.4 1.9-3.4 7.1-4.7 12.3-1.3 4.9-3 10-3.9 11.3-3.2 5-5.8 10.9-7.7 17.7-1 3.8-3.1 8.8-4.5 11C2.4 91.4 2 93.1 2 99.7v7.8l3.5-6.4c1.9-3.5 4.1-7.1 4.8-8 2.4-2.6 3.8-5.9 5.8-13.4 1.1-3.8 4-10.8 6.4-15.4C25 59.6 27 54.8 27 53.6c0-3.2 4.4-15.8 7.7-21.8 1.5-2.8 5-7.3 7.7-10 5.4-5.3 5.6-5.8 1.1-2.6zM17.7 45.8C10.8 56.3 4.4 72.9 2.6 85L2 89.5l2.4-4c1.3-2.2 2.7-5.9 3.1-8.2.3-2.3 2.7-8.2 5.1-13 3.5-6.8 8.9-22.3 7.9-22.3-.1 0-1.4 1.7-2.8 3.8z"/></svg>