<svg version="1.0" xmlns="http://www.w3.org/2000/svg" width="234.667" height="234.667" viewBox="0 0 176 176"><path d="M75.5 1c-28.7 4.5-53.3 22.5-66 48.3C2.7 63.2.7 71.8.7 88c0 16.2 2 24.8 8.8 38.7 11.2 22.8 32.1 39.8 57 46.4 11.3 3.1 31.7 3.1 43 0 24.9-6.6 45.8-23.6 57-46.4 6.8-13.9 8.8-22.5 8.8-38.7 0-16.2-2-24.8-8.8-38.7-11.3-22.9-32.6-40.2-57-46.3-9.3-2.4-25.4-3.3-34-2zm38.7 56.7l9.8 9.8 9.8-9.8 9.8-9.7 4.2 4.3 4.2 4.3-13.9 13.8-14 13.9-9.6-9.1c-5.4-5.1-10-9.2-10.4-9.2-.3 0-7.4 6.7-15.6 15l-15 15-8.2-8.2-8.1-8.1-3.9 3.1c-2.1 1.7-6.7 6-10.3 9.6L36.6 99l-4.3-4.2-4.3-4.2 14.2-14.3L56.5 62l8.2 8.2 8.3 8.3 15.3-15.3C96.6 54.9 103.7 48 104 48c.2 0 4.9 4.4 10.2 9.7zm0 33l9.8 9.8 9.8-9.8 9.8-9.7 4.2 4.3 4.2 4.3-14 13.9-14 14-9.8-9.8-9.7-9.7L89 113.5 73.5 129l-8-8c-4.4-4.4-8.5-8-9-8-.6 0-5.3 4.3-10.5 9.5l-9.4 9.5-4.3-4.2-4.3-4.2 14.2-14.3L56.5 95l8.2 8.2 8.3 8.3 15.3-15.3C96.6 87.9 103.7 81 104 81c.2 0 4.9 4.4 10.2 9.7z"/></svg>