<svg version="1.0" xmlns="http://www.w3.org/2000/svg" width="266.667" height="266.667" viewBox="0 0 200 200"><path d="M83.4 2C63 5.7 44.6 15.3 29.9 29.9 17.4 42.5 9.8 55.4 4.4 73.5 1.8 81.8 1.6 83.8 1.6 100s.2 18.2 2.8 26.5c5.4 18.1 13 31 25.5 43.6 12.6 12.5 25.5 20.1 43.6 25.5 8.3 2.6 10.3 2.8 26.5 2.8s18.2-.2 26.5-2.8c18.1-5.4 31-13 43.6-25.5 12.5-12.6 20.1-25.5 25.5-43.6 2.6-8.3 2.8-10.3 2.8-26.5s-.2-18.2-2.8-26.5c-8.7-28.9-27.3-51-52.9-63-13.6-6.4-23.5-8.7-39.7-9.1-8-.1-16.8.1-19.6.6zm34.4 10.6c22.9 4.7 43.8 19 56.7 38.8 27 41.4 15.5 96.2-25.9 123.1-41.4 27-96.2 15.5-123.1-25.9-27-41.4-15.5-96.2 25.9-123.1 9.5-6.2 20-10.7 30.1-12.8 9.4-2 26.7-2.1 36.3-.1z"/><path d="M94.5 40.9C84.2 47.2 38 95.6 38 100c0 .5-.7 1.6-1.6 2.4-1.4 1.5-1.3 1.9 1.4 5.4 11.5 14.4 54.4 50 64.4 53.3 3.5 1.1 4 1 7.8-1.6 9.8-6.8 46.6-47.5 52.1-57.5.9-1.6 2.2-3.6 2.8-4.4 1.1-1.3-1.2-3.9-13.1-15.9-7.9-7.9-18.6-17.7-23.8-21.9C118.4 52.2 99.6 39 98.2 39c-.4 0-2 .8-3.7 1.9zm14.9 19.4c15 10.9 38.8 31.3 40.7 34.9.8 1.6.7 1.7-1.6.8-1.5-.6-4-1-5.6-1-1.8 0-2.9-.5-2.9-1.4 0-1.9-6.5.1-10.4 3.1-2.4 2-2.8 3-3.3 9.7-.7 9.2-1.2 10-5.1 9.1-3.5-.7-17.2-9.2-17.2-10.6 0-2.4 3.3-1.7 8.1 1.6 2.9 1.9 5.7 3.4 6.3 3.2.6-.2 1.2-2.8 1.4-5.8l.2-5.4-5.1-2.2c-5.9-2.6-7.4-2.2-11.5 3.2-1.4 1.9-3.2 3.5-3.9 3.5-.7 0-4.5 3.3-8.6 7.3-8.9 8.9-11.5 10.5-13.6 8.5-1.4-1.5-2.7-8.4-3.9-21.3l-.7-7-1.6 3.8c-1.4 3.3-1.9 3.7-4.3 3.1-2.5-.5-6.6.9-7.8 2.6-.8 1.2-7.1 4.2-7.7 3.7-1.8-1.9 24.3-32 38.5-44.3 8.4-7.4 8.3-7.4 19.6.9zM150 99.7c0 .5-1.2 2.1-2.6 3.8-1.4 1.6-2.3 2.4-1.9 1.7.4-.7 0-1.2-.9-1.2-2.5 0-1.8-1.9.9-2.6 1.4-.3 2.5-1 2.5-1.5s.5-.9 1-.9c.6 0 1 .3 1 .7z"/><path d="M94.5 85c.5.9-4 1.6-6.8 1.1-1.7-.3.5 2 4.9 5 4.3 2.9 4.5 3.2 2.9 4.9-1.6 1.7-1.9 1.8-4 .4-2.2-1.4-2.5-1.3-6.1 3.1-2.7 3.3-3.9 4.2-4.5 3.3-1.3-2-1.1 2.3.2 6l1.1 3.1 3.6-1.9c2.1-1 8.4-6.4 14.2-11.9 7.8-7.5 10.2-10.3 9.4-11.1-.9-.9-1.7-.9-3.3-.1-1.7.9-2.2.8-3.1-.9-.8-1.5-2.1-2-5.1-2-2.4 0-3.8.4-3.4 1zm19.5 5c-1.3.8-1.2 1 .3 1 .9 0 1.7-.5 1.7-1 0-1.2-.1-1.2-2 0z"/><path d="M80.7 91.7c-.4.3-.7 2.2-.7 4.2v3.6l3.3-3.3c2.7-2.7 3-3.4 1.7-4.2-1.8-1.1-3.4-1.3-4.3-.3z"/></svg>