<svg xmlns="http://www.w3.org/2000/svg" width="32" height="32" viewBox="0 0 32 32"><path d="M16 32c8.837 0 16-7.163 16-16S24.837 0 16 0 0 7.163 0 16s7.163 16 16 16m0-29c7.179 0 13 5.821 13 13s-5.821 13-13 13S3 23.179 3 16 8.821 3 16 3m-.038 1.94c6.087 0 11.023 4.934 11.023 11.022 0 6.087-4.936 11.023-11.023 11.023-6.088 0-11.022-4.936-11.022-11.023C4.94 9.874 9.874 4.94 15.962 4.94m0 23.082c6.659 0 12.057-5.398 12.057-12.058S22.62 3.907 15.962 3.907c-6.66 0-12.058 5.398-12.058 12.057s5.398 12.058 12.058 12.058m2.05-11.044a.4.4 0 0 1 .192.385 2.33 2.33 0 0 0 2.193 2.553 2.326 2.326 0 1 0 .18-4.65 2.32 2.32 0 0 0-1.87.871.4.4 0 0 1-.522.088l-1.72-1.058a.41.41 0 0 1-.193-.343v-.017c0-.187.13-.343.308-.39a2.32 2.32 0 0 0 1.731-2.419 2.33 2.33 0 0 0-2.207-2.152 2.326 2.326 0 0 0-.843 4.53.4.4 0 0 1 .277.382v.099c0 .145-.08.28-.206.351l-1.638.918a.4.4 0 0 1-.492-.08 2.32 2.32 0 0 0-1.773-.777 2.336 2.336 0 0 0-2.286 2.322 2.323 2.323 0 1 0 4.625-.324.4.4 0 0 1 .187-.396l1.701-1.05a.4.4 0 0 1 .418-.002zM15.997 6.686a5.48 5.48 0 0 0-5.464 5.103 6 6 0 0 1 1.987.02 3.495 3.495 0 0 1 3.475-3.139 3.497 3.497 0 0 1 3.493 3.496c0 .99-.413 1.883-1.075 2.518a3.58 3.58 0 0 1 2.727-.633 5.477 5.477 0 0 0-5.142-7.366zM11.465 23.01c1.72 0 3.251-.8 4.246-2.05a5.8 5.8 0 0 1-.912-2.042 3.58 3.58 0 0 1-3.331 2.259 3.59 3.59 0 0 1 0-7.179c.789 0 1.517.256 2.108.687a3.5 3.5 0 0 1-1.075-2.421 5.42 5.42 0 0 0-6.459 5.324 5.42 5.42 0 0 0 5.423 5.422m9.056 0a5.424 5.424 0 1 0 1.33-10.68 5.8 5.8 0 0 1-.338 1.808 3.59 3.59 0 0 1-.992 7.039 3.59 3.59 0 0 1-3.57-3.232 5.9 5.9 0 0 1-1.841.011 5.424 5.424 0 0 0 5.411 5.054"/></svg>