<svg version="1.0" xmlns="http://www.w3.org/2000/svg" width="444" height="444" viewBox="0 0 333 333"><path d="M0 166.5V333h333V0H0v166.5zM182.9 17.6c33.4 4.9 60.5 18.7 84.7 43 18.2 18.2 30.9 39.5 37.8 63.2 4.8 16.7 6 25.5 6 44.2-.1 41.3-14.7 76.4-43.8 105.5-24.7 24.6-52.3 38.5-86.5 43.5-11 1.7-41 .7-51.1-1.5-18.3-4.1-32.3-9.6-47.5-18.8C-1.3 246.2-15.9 130 53 61c12.7-12.8 24.8-21.6 39.4-28.9 16.9-8.3 32.3-13 51.1-15.4 7.9-1 29.7-.6 39.4.9z"/><path d="M51 161.6c0 22.1.1 23.9 2.1 27.4 1.1 2 3.3 4.4 4.8 5.3 6.4 3.8 31.9 2.9 40.8-1.4 10.2-4.9 11.2-16.9 1.9-24.6l-3.6-3 2.1-1.9c7.7-6.9 6-17.8-3.6-22.8-3.6-1.9-6-2.1-24.2-2.4l-20.3-.3v23.7zM85.1 151c1.2.7 1.9 2.1 1.9 3.8 0 5-1.2 5.7-10.5 6.1l-8.5.3V150h7.6c4.1 0 8.4.5 9.5 1zm2.9 23c2.4 1.3 2.7 6.2.4 8.4-1.2 1.2-3.7 1.6-11 1.6H68v-5.4c0-5.2.1-5.5 2.8-5.9 4.1-.8 14.9.1 17.2 1.3zm40.3-31.3c11 15.3 16.7 23.5 16.7 24 0 .3-1 2-2.3 3.7-1.3 1.7-6 8.2-10.5 14.3L124 196h18.9l5.6-8.5c3.1-4.7 6-8.5 6.4-8.5.5 0 3.2 3.6 6 8s5.7 8.3 6.4 8.6c.8.3 5 .4 9.5.2l8.2-.3-7.5-10.5c-4.2-5.8-8.9-12.4-10.6-14.8l-3.1-4.3 6.3-8.7c3.5-4.8 7.8-10.7 9.6-13.1 1.8-2.4 3.3-4.8 3.3-5.2 0-.5-3.6-.9-7.9-.9h-7.9l-2.9 3.7c-1.6 2.1-4.2 5.7-5.7 8-1.6 2.4-3.2 4.3-3.5 4.3-.3 0-2.6-3-5.1-6.7-6.5-9.6-6-9.3-16.2-9.3h-9l3.5 4.7zm77.6-3.2c.5 1.1 1.7 2.9 2.6 4l1.6 2-1-2c-.5-1.1-1.7-2.9-2.6-4l-1.6-2 1 2zm5.6 6.5c-.3.6.3 2.2 1.4 3.6 1.4 1.8 2.1 2.2 2.1 1.1 0-.8-.7-1.8-1.6-2.1-.9-.4-1.4-1.3-1-2.1.6-1.7 0-2-.9-.5zm3 .1c-.4.6-.5 1.2-.2 1.5.2.3.7-.2 1-1.1.7-1.7.1-2-.8-.4zm1.5 7.8c0 .6.4 1.3 1 1.6.6.3.7-.1.4-.9-.7-1.8-1.4-2.1-1.4-.7zm2 3.5c0 .2.7.7 1.6 1 .8.3 1.2.2.9-.4-.6-1-2.5-1.4-2.5-.6zm5.5 7.6c.3.5.8 1 1.1 1 .2 0 .4-.5.4-1 0-.6-.5-1-1.1-1-.5 0-.7.4-.4 1zm-.6 4.7c-2.9 3.5-4.1 5.3-3.6 5.3.2 0 1.7-1.6 3.1-3.5 2.8-3.6 3.1-4.9.5-1.8zm-8.8 11.9c-1.1 1.5-2.1 3-2.1 3.5s-.9 1.7-2 2.7c-1.8 1.6-1.9 2.1-.6 3.1 1 .8 1.6.9 2.1.1.3-.5 0-1-.7-1-.9-.1-.7-.5.5-1.4.9-.7 1.7-2.1 1.7-3 0-.9.5-1.6 1-1.6.6 0 1-.6 1-1.4 0-.8.6-1.6 1.3-1.9.6-.2.9-.7.6-1.1-.4-.4-1.6.5-2.8 2zm16.5-.9c-.6 1.4-.5 1.5.5.6.7-.7 1-1.5.7-1.8-.3-.3-.9.2-1.2 1.2zm-3.2 2.5c.2.7-.1 2.1-.6 3-1.3 2.7-.3 2.1 1.7-.8.9-1.5 1.2-2.4.7-2-.6.3-1.3.1-1.5-.4-.3-.6-.4-.5-.3.2z"/><path d="M213.1 189.9c-.6 1-.7 2.1-.4 2.5.3.3-.3.6-1.4.6-1.2 0-2.4-.6-2.7-1.3-.3-.8-1.2-.4-2.7 1.3l-2.1 2.5 6.3.3c4.9.2 6.5 0 7.1-1.3.5-.8 1.4-1.2 2-.9.7.4.8.2.4-.4-.4-.7-1.7-1.7-2.9-2.2-2.1-1.1-2.1-1.1-.3.4 1.1.9 1.5 1.6.9 1.6-2 0-3.4-2.5-2.1-3.8.9-.9.9-1.2 0-1.2-.6 0-1.6.8-2.1 1.9zm11.4-.1c-1.6 1.1-4.7 6.2-3.8 6.2.5-.1 1.8-1.6 3-3.5 2.3-3.7 2.4-3.9.8-2.7z"/></svg>