<svg xmlns="http://www.w3.org/2000/svg" width="300" height="300" version="1.0" viewBox="0 0 225 225"><path d="M97.5 1.1c-36.6 4.6-71.3 30.2-87 64.2-13.5 29.3-13.6 65.1-.1 94.3 10.5 22.6 30.6 43.1 53 53.9 44.4 21.5 96.5 11.9 130.6-24.1 42.2-44.4 41-113.6-2.7-156.6C166.2 8 132.8-3.3 97.5 1.1m-4.3 62.6c8.1 11.4 14.7 21.3 14.8 21.9 0 .6-3.3 5.9-7.4 11.8l-7.4 10.7-22.3-32C58.6 58.5 48.4 43.7 48.3 43.3c-.2-.4 6.6-.7 14.9-.6l15.3.1zM173.8 43c-.1.5-22.1 32.3-48.8 70.5L76.5 183H61.2c-8.8 0-15.2-.4-15-.9s22.1-32.2 48.8-70.5l48.5-69.5 15.3-.1c9.7 0 15.2.4 15 1"/></svg>