<svg xmlns="http://www.w3.org/2000/svg" viewBox="0 0 32 32"><path fill-rule="evenodd" d="M16 32C7.163 32 0 24.837 0 16S7.163 0 16 0s16 7.163 16 16-7.163 16-16 16m9.149-21.705-.064-.038-.002-.001-.002-.001-2.667-1.552-1.695-.987-1.736-1.01c-.93-.54-1.89-1.1-2.837-1.649L16.05 5l-.103.04a2 2 0 0 0-.265.125l-.01.006-3.97 2.355-1.738 1.03c-1.049.622-2.134 1.265-3.194 1.898-.26.125-.253.402-.25.536l.001.032v.06c-.004 2.432-.007 4.947-.013 7.423L6.5 21.257c-.014.204.08.383.238.46 1.892 1.088 3.812 2.196 5.668 3.267l3.342 1.928a.5.5 0 0 0 .273.088.35.35 0 0 0 .214-.072L21.08 24.1l1.82-1.062c.754-.441 1.535-.898 2.3-1.343a.48.48 0 0 0 .282-.472l.015-10.417c.026-.31-.235-.45-.349-.51zm-8.769 15.67.006-4.443 1.644-.955c.455-.266.92-.536 1.37-.797l1.244-.724.001-.001.026-.017a.6.6 0 0 0 .184-.159l.045-.062v-.076c-.008-.95-.01-2.006-.007-3.325l.001-.612V13.63l3.85-2.252-.006 3.865-.009 5.849-5.387 3.143zM12.184 13.41l3.822-2.244 3.783 2.232-3.777 2.208-1.304-.749zm-.39.65 3.845 2.205-.006 4.38-3.768-2.196zm-4.52-2.594 3.76 2.16.082 4.958c-.01.195.086.373.241.446.535.313 1.08.63 1.607.936l1.028.599 1.64.955-.003 4.45-8.374-4.83zm17.094-.746-3.83 2.238-4.275-2.521a.45.45 0 0 0-.5-.01L11.43 12.97l-3.78-2.164 2.626-1.557c1.76-1.045 3.637-2.157 5.736-3.397 1.89 1.106 3.72 2.17 5.264 3.066.54.316 1.09.636 1.622.945l1.469.856zm-7.982 9.927.003-4.382 3.789-2.214v4.392a1942 1942 0 0 0-3.792 2.204m5.127-.793a.43.43 0 0 0 .298-.258.47.47 0 0 0-.078-.504l-.001-.002a.45.45 0 0 0-.33-.153.45.45 0 0 0-.437.376.47.47 0 0 0 .146.441.4.4 0 0 0 .286.117.4.4 0 0 0 .116-.017m2.064 1.408a.41.41 0 0 0 .44.064.46.46 0 0 0 .276-.364.46.46 0 0 0-.202-.457.43.43 0 0 0-.243-.077.4.4 0 0 0-.221.066.47.47 0 0 0-.222.38.45.45 0 0 0 .172.388m-13.189-2.32a.46.46 0 0 0-.44.369.456.456 0 0 0 .428.557q.053 0 .102-.013a.44.44 0 0 0 .314-.261.46.46 0 0 0-.077-.496.43.43 0 0 0-.327-.156m11.956 1.576a.44.44 0 0 0 .433.07.44.44 0 0 0 .282-.332.46.46 0 0 0-.139-.449.44.44 0 0 0-.3-.121.46.46 0 0 0-.438.39.47.47 0 0 0 .162.442m-12.905-.723a.42.42 0 0 0-.28-.11.4.4 0 0 0-.154.032.45.45 0 0 0-.289.391c-.016.185.07.36.217.446a.43.43 0 0 0 .222.066.5.5 0 0 0 .19-.044h.001a.44.44 0 0 0 .254-.334.47.47 0 0 0-.161-.447m6.51-13.628a.4.4 0 0 0-.074.007.46.46 0 0 0-.352.259v.002a.45.45 0 0 0 .026.442.46.46 0 0 0 .476.203h.002l.003-.001a.44.44 0 0 0 .366-.337.44.44 0 0 0-.107-.42.46.46 0 0 0-.34-.155M8.15 20.49a.42.42 0 0 0-.432 0 .47.47 0 0 0-.231.41c0 .174.092.333.236.408q.091.053.204.054a.45.45 0 0 0 .244-.074.45.45 0 0 0 .211-.408.45.45 0 0 0-.232-.39m8.04-11.285a.5.5 0 0 0-.259-.077.45.45 0 0 0-.226.06.44.44 0 0 0-.233.365.44.44 0 0 0 .178.399q.122.095.284.096a.5.5 0 0 0 .198-.044h.001a.44.44 0 0 0 .272-.38.46.46 0 0 0-.215-.42zm-.57-.758c.085.08.192.122.31.122a.5.5 0 0 0 .2-.044.45.45 0 0 0 .275-.41.45.45 0 0 0-.236-.409.5.5 0 0 0-.234-.06.44.44 0 0 0-.244.072.46.46 0 0 0-.218.352v.003a.44.44 0 0 0 .148.374z"/></svg>