<svg xmlns="http://www.w3.org/2000/svg" viewBox="0 0 32 32"><path fill-rule="evenodd" d="m8.012 10.005.022-.023.063-.084.064-.085a4 4 0 0 0-.15.192zm-.072.083c-.053.078-.102.155-.16.233l-.015.015a3 3 0 0 1 .175-.248m.072-.083c-.085.09-.169.21-.247.331l-.001.002-.103.167zm-.444.655c-.043.085-.127.254-.212.339a.9.9 0 0 1 .212-.339c-.085.127-.17.212-.212.339-.042.085-.085.17-.085.254.127-.212.297-.423.424-.635.094-.251.188-.432.317-.613zM8.84 9.073c.113-.122.246-.229.38-.362a3 3 0 0 1 .254-.28 6 6 0 0 0-.17.153c.1-.1.141-.14.228-.21.578-.553 1.502-1.148 2.484-1.57q.378-.156.713-.258.292-.114.584-.184c-3.72 1.964-3.639 1.902-3.5 1.799-.17.127-.17.127-.509.423-.188.189-.377.343-.505.524l-.088.07a3 3 0 0 0-.297.465c0 .043-.042.127-.042.17a2 2 0 0 1 .167-.184 1.4 1.4 0 0 0-.125.141c-.042.043-.042.085-.042.128-.042.169 0 .254.042.38l.017-.02c.322.399 1.493.306 2.95-.318.508-.17.974-.424 1.398-.678.084-.085.042-.212 0-.254s-.212-.254-.34-.212c-.338.212-.72.381-1.101.55-1.158.497-2.074.59-2.354.278l.023-.023c-.084-.085-.084-.212-.042-.339l-.117.094.117-.094q.063-.255.254-.508c-.126.094-.252.213-.379.32zm-2.434 9.514.004.013a1 1 0 0 0 .002.146 1 1 0 0 1-.006-.16l-.026-.088c-.084-.128-.127-.255-.17-.382.075.222.149.541.223.788.302 1.5 3.465 1.419 7.66-.406 4.83-2.034 9.194-5.466 9.787-7.71.127-.51.085-.89-.17-1.187-.211-.212-.423-.466-.635-.678.297.297.382.678.255 1.229-.594 2.203-4.873 5.592-9.577 7.583-3.686 1.567-6.568 1.822-7.33.763.042.296.127.55.212.804a1.08 1.08 0 0 1-.223-.695c.074.25.148.473.223.695a.7.7 0 0 1-.17-.296l-.032-.102zm-.195-1.18c.713 1.021 3.485.818 7.076-.731 4.534-1.907 8.687-5.169 9.237-7.287.128-.55 0-.974-.339-1.27l-.423-.297-.34-.212c.17.127.51.339.467.932-.127 3.304-12.882 11.1-15.72 8.091q-.001.194.005.403c.005-.138-.006-.275-.006-.403-.084-.169-.169-.338-.169-.593 0 .186.023.44.035.662q-.01.129.008.251v-.023q0-.1-.008-.219-.009.134.008.255c.004.195.049.353.169.472zm-.021-3.23q.03-.192.063-.382v.085l-.085.339-.084.593q.002-.055.017-.11l-.017.11a.98.98 0 0 0 .13.653q0 .013-.003.025a.97.97 0 0 1-.17-.72c-.042.508.127.847.551 1.059.085.042.127-.128.17-.255 0 0 .084-.423-.043-.593a1 1 0 0 1-.342-.244l.003-.01c-.17-.17-.212-.466-.127-.805zm4.154-6.402-.065.047-.018.009a9 9 0 0 0-.374.266l.043-.037c.075-.052.17-.1.391-.238.127-.127.127-.127.424-.297.127-.085.127-.085.423-.254.17-.085.17-.085.467-.254.17-.085.17-.085.508-.212l.177-.087a6 6 0 0 1-.22.087c-.169.042-.169.042-.508.212-.17.084-.17.084-.466.254-.127.085-.127.085-.424.254a10 10 0 0 0-.358.25 11 11 0 0 1 1.926-1.012q.165-.092.33-.164zm2.078-1.1c.077-.031.173-.063.357-.124.056-.023.097-.04.136-.054.17-.052.239-.073.32-.104a6 6 0 0 0-.276.088c.994-.259 1.604-.109 1.472.451q-.064.255-.381.635c.085.085.55.17.763.085.254-.254.423-.508.466-.762.17-.72-.636-.89-1.907-.551l-.06.023zm-5.61 6.461-.177.532c.55.805 2.67.593 5.423-.55 3.475-1.484 6.653-3.983 7.077-5.593.17-.593-.043-.974-.594-1.186-.084 0-.211-.042-.381-.085-.254-.085-.254-.085-.339-.042.466.17.636.508.509 1.059-.382 1.44-3.306 3.728-6.484 5.126-2.475 1.049-4.411 1.225-4.942.529l.027-.063a.93.93 0 0 1-.085-.763 5 5 0 0 0-.296.72c-.043.085-.043.128-.043.212q-.063.383.128.636a2.3 2.3 0 0 1 .177-.532m.543-1.247c-.127-.17-.127-.297-.127-.509q0 .318.127.509m5.995 13.457h.002c1.117-.039 2.652-.415 4.427-1.172 3.94-1.694 7.542-4.533 8.05-6.354.043-.043.043-.085.043-.127 0-.212.042-.509.085-.763l.042-.127c-.433 3.065-8.263 7.756-12.727 8.197-.781.077-1.46.024-1.976-.19.211.127.55.254.805.381.318.12.74.172 1.249.155m.496-1.742c-2.112.591-3.69.604-4.372.02.211.17.508.38.72.55.592.404 1.731.449 3.233.134l-.013.036.019-.037c.86-.18 1.84-.479 2.905-.895.254-.127.254-.297.212-.34 0 0-.17-.296-.636-.169-.731.287-1.423.52-2.066.7l.075-.106zM16 32C7.163 32 0 24.837 0 16S7.163 0 16 0s16 7.163 16 16-7.163 16-16 16m-7.458-9.308c.043 0 .085.042.085.084-.17-.212-.424-.508-.593-.72.127.212.339.424.508.636m6.738-16.65h-.17c.975-.084 1.526.212 1.356.89-.212.72-1.186 1.695-2.5 2.584 0 0-.042 0-.042.043-.085.17.212.55.508.423 1.483-1.016 2.627-2.16 2.84-2.965C17.44 6.339 17.016 6 16.126 6c-.254 0-.593.042-.847.042zm5.084.975c-.254-.127-.593-.254-.847-.382.55.212.805.636.636 1.271-.467 1.78-3.984 4.576-7.84 6.228-.72.297-1.398.55-2.033.72-.043.043-.085.043-.127.127-.17.254-.128.763.254.72.678-.211 1.44-.466 2.203-.804 4.068-1.737 7.797-4.66 8.305-6.567.17-.635-.042-1.06-.55-1.313zm4.407 4.194-.339-.593c.127.17.17.339.17.593.042.212.296.72.423.762v-.042c0-.17 0-.17-.127-.508zm.89 2.245c-.042-.254-.17-.593-.297-.932q.128.38 0 .89c-.508 1.906-3.77 4.702-7.67 6.736a.43.43 0 0 0-.21.254c-.086.296.169.593.592.424 3.856-1.992 7.034-4.745 7.543-6.61.084-.296.084-.55.042-.762m.297 1.78-.085-.551c.042.212 0 .423-.042.635-.297 1.186-1.738 2.712-3.73 4.194a.8.8 0 0 0-.211.34c-.043.211.127.508.424.296 1.906-1.44 3.305-2.923 3.601-4.067.043-.212.043-.34.043-.509zM8.415 10.278c-.042-.127-.084-.212-.042-.381-.042.169 0 .254.042.38zm2.373 1.186s0-.381-.17-.339c-1.44.466-2.5.466-2.838.042-.17.255-.297.466-.424.72.339.382 1.06.424 1.568.34 1.822-.255 1.864-.551 1.864-.763m-4.152 2.203q-.191-.254-.128-.636-.063.383.128.636M22.61 15.15c-.042-.127-.17-.382-.508-.212-1.865 1.652-4.619 3.39-7.5 4.618-3.814 1.652-6.78 1.864-7.585.805.085.127.127.296.212.423.042.043.042.085.085.127.042.085.084.127.127.212-.17-.254-.17-.466-.17-.508-.042.042-.085-.043-.042.084.296 1.526 3.517 1.398 7.796-.38 2.882-1.23 5.636-2.924 7.5-4.619a.58.58 0 0 0 .085-.55m-10.72 7.752c-.043-.084-.254-.339-.551-.339-1.653.255-2.797.085-3.263-.508.17.212.424.508.593.72.509.551 1.61.678 3.136.424.17-.042.127-.212.085-.297m13.347-3.092c-1.483 3.05-8.347 6.44-11.059 6.016a6 6 0 0 1-.932-.212c.974.296 2.796-.043 5-.975 3.56-1.525 6.822-4.067 7.33-5.719-.084.254-.212.636-.339.89m-2.203 3.05c.042-.042.042-.085.042-.085-.042 0-.042-.042-.042-.042-.042 0-.042.042-.085.042-1.06.89-2.5 1.737-3.983 2.373-1.483.593-2.712.89-3.56.847h1.06c.72-.042 1.695-.297 2.797-.763 1.313-.55 2.584-1.313 3.517-2.075.17-.127.254-.255.254-.297M6.508 12.863c.085-.254.17-.508.297-.72.042-.127.085-.212.085-.34-.085.255-.254.636-.34.89 0 .043-.042.128-.042.17"/></svg>