<svg xmlns="http://www.w3.org/2000/svg" width="333.333" height="333.333" version="1.0" viewBox="0 0 250 250"><path d="M112 .7C79.5 5.8 57.3 16.6 36.5 37.5 12.2 61.8-1.4 96.6.3 129.9c1.7 32.5 14.3 60.8 37.2 83.6 24.3 24.3 59.1 37.9 92.4 36.2 32.5-1.7 60.8-14.3 83.6-37.2 24.3-24.3 37.9-59.1 36.2-92.4-1.7-32.5-14.3-60.8-37.2-83.6-18.9-18.9-41.1-30-69.4-34.9C134.5.2 118.4-.3 112 .7m15.2 63c1.6 1.5 1.8 3.6 1.8 25 0 13.5.4 23.3.9 23.3s12.2-11.3 26-25c26-25.9 27.8-27.2 31.5-23.4.9.8 1.6 2.3 1.6 3.2s-11.8 13.5-26.2 27.9L136.5 121h24.4c21.3 0 24.7.2 26.3 1.7 2.5 2.2 2.3 5.9-.4 7.7-1.9 1.3-6.1 1.6-25.8 1.6h-23.5l16.8 16.8c9.9 9.9 16.7 17.5 16.7 18.6 0 2.4-2.8 5.6-4.9 5.6-.9 0-9-7.4-18.1-16.5S131 140 130.3 140c-1 0-1.3 5.5-1.5 23.2l-.3 23.3-2.7.9c-2.2.8-3.2.6-4.8-.9-1.9-1.7-2-3-2-24.2 0-12.2-.3-22.3-.7-22.3s-11.6 10.8-24.8 24c-13.3 13.2-24.7 24-25.5 24-2.2 0-5-3.1-5-5.7 0-1.8 6-8.4 23.5-25.9 12.9-12.9 23.5-23.7 23.5-23.9 0-.3-9.2-.5-20.4-.5-11.3 0-21.6-.4-23-1-2.1-.8-2.6-1.6-2.6-4.4 0-2.5.6-3.8 1.9-4.6 1.2-.6 10.8-1 24.2-1h22.3l-16.7-16.8C86.5 94.9 79 86.9 79 86.4c0-2.1 3.2-5.4 5.3-5.4 1.5 0 7.1 4.9 17.7 15.5 8.5 8.5 15.8 15.5 16.2 15.5.5 0 .8-10.4.8-23 0-21.7.1-23.1 2-25 2.4-2.4 3.8-2.5 6.2-.3"/></svg>