<svg xmlns="http://www.w3.org/2000/svg" width="32" height="32" viewBox="0 0 32 32"><path d="m9.254 8.307-.072.005c-.08.1-.178.04-.278.06-.357.06-.634.317-.614.614.02.338.297.417.575.476.674.16 1.349.1 2.023.12.813 0 1.27.396 1.388 1.21.08.594 1.865 16.224 1.885 16.561a.315.315 0 0 0 .238.298c.674.205 1.378.3 2.082.278.791.02 1.58-.08 2.34-.298.12-.04.219-.08.219-.238.02-.416 1.15-15.352 1.15-15.59a3.07 3.07 0 0 1 .635-1.924c.337-.397.714-.754 1.051-1.15l.006-.04c.395-.02.79-.02 1.184-.06.179-.02.457-.02.437-.357-.04-.198-.357-.753-1.805-.416-.139.04-.932.278-1.21.139q.635-.41 1.309-.754c.198-.159.357-.377.238-.615s-.357-.218-.575-.139a2.7 2.7 0 0 0-1.091.655q-.302.307-.655.555c-.575.278-.575.278-.714.238-.178-.08-.377-.218-.238-.416q.122-.195.179-.417c.06-.258-.02-.337-.199-.337-.357.02-.476.535-.535.615q-.058.117-.139.218a.35.35 0 0 1-.357.08c-.119-.02-.218-.08-.119-.239.179-.277.734-.714.893-1.289 0 0 .277-.754-.496-.773-.417-.02-.754.277-.873.733-.119.476.139 1.131 0 1.448q-.076.201-.198.377a.73.73 0 0 1-.972 0 .8.8 0 0 1-.179-.654 7 7 0 0 0 .159-.794c.02-.198-.337-.555-.635-.317-.139.1-.08.258-.02.397.1.297.278 1.15-.694.733-.377-.198-.06-1.17-.198-1.527a.343.343 0 0 0-.536-.198.38.38 0 0 0-.178.555c.08.159.555 1.071.178 1.23-.139.06-.436-.06-.634-.179-.714-.317-.833-1.408-1.052-1.547a.56.56 0 0 0-.694.02.46.46 0 0 0-.198.575c.099.179.476.278.555.893l.023.017q-.012 0-.023.003c-.119 0-.178-.08-.258-.139a1.36 1.36 0 0 0-1.23-.159.45.45 0 0 0-.337.357.45.45 0 0 0 .298.417q.296.111.575.258c.1.04.258.06.238.238v.006a.2.2 0 0 0-.06-.046 2.2 2.2 0 0 1-1.408-.297.57.57 0 0 0-.654 0c-.258.218.119.476.139.476a.4.4 0 0 0 .13.054zm4.665-.891-.074.019.038-.015zM16 32C7.163 32 0 24.837 0 16S7.163 0 16 0s16 7.163 16 16-7.163 16-16 16m7.88-22.557c-.754-.278-2.42.138-2.5.257.318.06.417.1.893.179.51.093 1 .274 1.448.536.476.277.674-.1.674-.1.08-.178-.138-.734-.515-.872M10.333 6.15a6 6 0 0 0-.397-.555c-.377-.397-1.11-.595-1.508-.397-.218.1-.317.238-.138.476.217.215.493.36.793.417.178.04.972.218 1.17.257.2 0 .08-.198.08-.198m13.924 1.27c.04-.12 0-.516-.715-.417-.595.1-1.011.258-.991.337s.674.199.813.218c.555.1.873-.06.893-.138m-7.22-3.313a.4.4 0 0 0-.516-.02c-.595.377-.159 1.666-.1 1.666.06 0 .12-.456.715-1.13a.365.365 0 0 0-.1-.516z"/></svg>