<svg xmlns="http://www.w3.org/2000/svg" width="32" height="32" viewBox="0 0 32 32"><path d="M16.48 1.523a1.6 1.6 0 0 0-.671-.148c-.239 0-.47.05-.676.148L.676 8.484a1.25 1.25 0 0 0-.496.41 1 1 0 0 0-.18.56v13.921c0 .2.063.39.18.559.12.171.289.312.496.41l5.855 2.824V13.055a1 1 0 0 1 .172-.54 1.25 1.25 0 0 1 .461-.402l3.965-2.05 3.965-2.024c.21-.11.453-.164.703-.164s.492.055.703.164l3.965 2.024 3.965 2.05c.191.102.351.242.465.41a1 1 0 0 1 .168.547v6.68a1 1 0 0 1-.165.55 1.2 1.2 0 0 1-.468.407l-3.965 2.059L16.5 24.78c-.375.196-.754-.125-.754-.496V21.64a1.04 1.04 0 0 1 .25-.493 1.3 1.3 0 0 1 .504-.332l3.32-1.71a1.2 1.2 0 0 0 .465-.41.97.97 0 0 0 .168-.548v-2.734a.94.94 0 0 0-.172-.535c-.11-.16-.27-.3-.46-.399l-3.301-1.648a1.5 1.5 0 0 0-.704-.168c-.25 0-.492.059-.703.168l-3.289 1.648c-.199.098-.36.235-.476.395a1 1 0 0 0-.18.54v13.769a1 1 0 0 1 0 .148l3.965 1.914c.207.098.437.149.676.149.234 0 .468-.051.671-.149l14.47-6.96c.202-.099.374-.24.491-.407a.96.96 0 0 0 .184-.559V9.453a.96.96 0 0 0-.184-.558 1.24 1.24 0 0 0-.492-.41Zm0 0" style="stroke:none;fill-rule:evenodd;fill:#2a7de1;fill-opacity:1"/></svg>