<svg xmlns="http://www.w3.org/2000/svg" width="32" height="32" viewBox="0 0 32 32"><path d="M16 0c8.837 0 16 7.163 16 16s-7.163 16-16 16S0 24.837 0 16 7.163 0 16 0m9.969 13.122h-2.7l-1.635 3.04a.38.38 0 0 1-.182.165l-.025.01a.4.4 0 0 1-.114.024l-.016.002h-9.925l1.355 2.358 6.81-.01.064.007a.386.386 0 0 1 .27.57v-.001l-3.996 7.212h1.307l.237.001h1.028c.026 0 .105 0 .166-.11zm-7.085 6.363-2.64.003-2.345 4.246c-.042.077-.033.156-.013.188l.658 1.09.174.288.17.282.323.534zm-10.15.165H6l.909 1.505.427.707c.036.06.115.106.18.106h2.516zm1.984-2.884-1.323 2.493 1.313 2.344 1.337-2.528zM16.133 5.5H13.53c-.035.004-.096.022-.144.11l-.027.049c-.447.804-6.19 11.163-7.328 13.22h2.695l1.636-3.083a.38.38 0 0 1 .332-.202l.013-.002h9.88l-.533-.935c-.279-.491-.607-1.07-.783-1.376l-6.638.01h-.174a.4.4 0 0 1-.087-.012l-.023-.007a.4.4 0 0 1-.062-.025l-.014-.006-.012-.01q-.017-.01-.033-.022a.3.3 0 0 1-.053-.05l-.013-.015-.011-.015-.02-.03a.2.2 0 0 1-.03-.068l-.006-.018-.005-.018-.006-.036-.004-.042-.002-.014.002-.019q0-.021.004-.043l.008-.035a.4.4 0 0 1 .027-.074l.008-.02zm5.157 4.895c-.316.579-1.07 1.97-1.357 2.494.151.263.42.735.787 1.382.186.328.384.678.544.957l1.34-2.488zm-4.497-4.502-3.677 6.62 2.64-.003 2.343-4.244c.042-.077.033-.156.013-.188l-.654-1.084-.174-.288-.25-.416-.24-.397zm5.174 4.139 1.298 2.318H26l-.846-1.4-.49-.811a.23.23 0 0 0-.182-.106z"/></svg>