<svg version="1.0" xmlns="http://www.w3.org/2000/svg" width="533.333" height="533.333" viewBox="0 0 400 400"><path d="M185.5.6c-29.7 3.3-53.6 9.9-74.8 20.5-42.4 21.4-77.6 59.4-95.6 103.4-9.8 24-14.3 47.1-14.5 74-.1 19.7 1.6 34 6.1 51.5 4.2 16.4 6.7 23.1 14 38 4.7 9.6 17.1 30.2 19.3 32 .3.3 3.3 3.9 6.7 8 43.7 53.5 114 79.9 184.6 69.6 25.2-3.7 55.9-15.4 76.6-29.2 4-2.7 8.1-5.4 9-5.9 3.1-1.9 18.6-15.2 24.5-21.1 30.1-30.2 49.5-68.3 56.3-110.9 2.4-15.2 2.4-45.7-.1-61.5-4.3-27.5-14.9-54.8-30.4-78.5-10.7-16.3-27.3-34.7-41.7-46-2.7-2.2-5.2-4.3-5.5-4.6-.3-.3-5.1-3.5-10.7-7.2-10.6-6.9-27.9-15.8-39.3-20-10.3-3.9-29.6-8.8-40.5-10.3C219 .9 192.4-.1 185.5.6zm45 39.8c22.4 5.1 36.1 10.3 53.3 20.4l7.3 4.3-2.1 3-2.1 2.9-4.7-2.7c-2.6-1.5-5.8-3.4-7.2-4.3-7.7-5.2-27.1-12.3-42.5-15.8-10.7-2.3-14.1-2.6-32-2.7-17.2 0-21.5.3-30.7 2.3-62.6 13.5-109 60-122.1 122.2-3.2 15.6-3.2 44.9.1 60.5 9.4 44.1 34.9 80 73.2 103.2 20.2 12.2 45.5 19.9 71.5 21.7 14.1 1 40.9-2.4 53.3-6.8l4.3-1.5 1 2.6c.5 1.5.8 3.2.5 3.8-.2.6-6.4 2.7-13.8 4.6l-13.3 3.4-25-.1h-25l-13.5-3.7c-32.1-8.6-56.7-23-78.3-45.7-27.9-29.3-42.9-64.5-44.3-104-.8-20 .6-34.3 5-50 13.3-48.5 47-87.5 92.7-107.1 11.7-5.1 31.9-10.7 42.4-11.9 11-1.2 44.6-.3 52 1.4zM227 54.7c7.6 1.6 8.5 2.1 8.8 4.2.6 3.8-.9 4.3-8.4 2.5-5.3-1.3-11.7-1.7-27.9-1.6-19.6 0-21.7.2-31 2.7-5.5 1.5-10.8 2.8-11.7 3-2.8.6-13.5 5.3-22.3 9.8-23.7 12.1-46.4 34.6-58.8 58.2-4.4 8.4-9.8 21-10.3 23.9-.1 1.2-1.5 6.4-3 11.6-2.5 8.9-2.6 10.8-2.6 31s.1 22.1 2.7 31.5c1.5 5.5 2.8 10.7 3 11.5.7 3.2 6.9 17.8 9.7 23 12.8 23.2 32.3 43.7 52.5 55.2l5.2 3-1.6 2.6c-.9 1.5-1.8 2.8-1.9 3-.4.6-10.9-6.3-18.4-12-23-17.5-38.9-38.8-49.3-65.9-3-7.6-7.3-24.9-8.7-34.7-1.3-8.9-1.3-25.6.1-34.5 5.2-34.7 18.6-62.3 41.7-86 7.4-7.5 23.2-20.1 30.3-24.1 17.6-9.8 31.2-14.7 52.4-18.7 12.6-2.4 36.5-2 49.5.8zm-61.9 20.9c.5 1.5.8 2.8.7 2.9-.2.1-4.6 1.9-10 3.9-28.7 11.1-52.1 31.7-67.4 59.4-.1.1-1.5-.5-3.1-1.4l-3-1.7 2.6-4.6c7.3-13.4 24.3-32.4 35.7-40.1 2.7-1.8 5.8-4.1 6.9-5.1 4.7-4.2 29.8-15.4 35.3-15.8.7-.1 1.7 1.1 2.3 2.5zM71.9 189.2c1.1 1.1 1.2 1 .6-.2-.6-1.1-.5-1.2.4-.4.9.8 1.1 4.1.9 10.8-.2 5.3 0 9.6.3 9.6s.9 3 1.2 6.7c.5 4.8.3 7-.6 7.6-.8.6-.7.7.4.4 1.6-.5 2.2 1.8 3.2 11.5.1 1 .5 1.8 1 1.8s.7.9.4 2c-.3 1.1-.2 1.8.2 1.5.5-.2 1.4 1.5 2.1 3.8 1.5 5.1 7.1 16.3 11.7 23.4 1.8 2.9 3.3 5.9 3.3 6.8 0 .9.4 1.4.9 1.1.5-.3 1.6.5 2.5 1.8.8 1.4 5.2 6.2 9.6 10.7 4.4 4.5 8 8.5 8 8.7 0 .3-.8 1.5-1.7 2.6l-1.8 2.1 2.3-2c2.2-1.8 2.4-1.8 5-.2 1.5.9 2.6 2.1 2.4 2.7-.1.7.1.9.6.6 1.1-.7 3.7 1.1 3.7 2.5 0 .7.7 1.4 1.5 1.6 1.3.4 1.3.3 0-.6-3.3-2.3.3-.9 5 2 2.7 1.7 4.8 3.5 4.5 4-.4.5 0 .6.8.3s3.8.6 6.6 2 5.5 2.6 6 2.6c1.6 0 12.5 5.3 13.3 6.5.5.7.8.7.8 0s1.8-.9 4.8-.5c4.5.5 4.7.7 5 3.8l.3 3.3-4.3-.5c-3.8-.4-8-1.5-12.8-3.3-.8-.4-1.8-.5-2.2-.5-.5.1-.8-.3-.8-.9 0-.5-.5-.7-1.2-.3-.8.5-.9.1-.4-1.2.6-1.5.5-1.7-.5-.7-1.4 1.4-3.3 1.8-2.6.5.3-.4-.5-.8-1.8-.8-1.3-.1-3.9-1.2-5.7-2.5-1.8-1.3-3.4-2.3-3.5-2.1-.8.6-2.3.1-1.9-.7.4-.5-.3-.7-1.5-.4-1.4.4-2.2 0-2.5-1.4-.3-1-1.5-2-2.6-2-2.8-.2-10-5.1-9.3-6.3.3-.5 0-.7-.8-.4-2.1.8-14.5-10.1-13.9-12.1.2-.5 0-.7-.4-.3-.9 1-3.5-1.2-2.8-2.3.3-.5 0-.8-.8-.7-.7.2-1.3-.5-1.3-1.4 0-.9-.4-2-.9-2.5-.5-.4-.6-.3-.2.4.4.7.3 1.3-.2 1.3-1.7 0-2.2-1.3-.9-2.8 1-1.3.9-1.4-.1-.8-1.4.9-6.7-4.3-7.8-7.6-.3-1-1-1.8-1.6-1.8-.5 0-.7-.7-.4-1.6.3-.8.2-1.2-.3-.9-1.2.7-4.2-3.5-3.5-4.7.3-.4.1-.8-.5-.8-2 0-13.8-27-12.4-28.4.4-.3.1-.6-.5-.6-.9 0-2.1-3.3-2.8-7.5-.1-.6-.3-1.5-.4-2-.2-.6-.4-2.1-.6-3.5-.1-1.4-.7-5.2-1.3-8.5-1.2-6.5-1.5-27.8-.4-28.8.9-1 1.7-.9 3.2.5zM232 290.6c1.6 4.1 1.4 4.3-5.7 4.8-1.1 0-1.9.4-1.6.8.4.8-1.5 1.1-6.9 1.2-1.5 0-2.5.3-2.3.7.5.7-7 1.9-12.1 1.9-3.1 0-3.4-.3-3.4-2.9 0-2.5.4-2.9 3.8-3.5 2-.3 5.3-.6 7.2-.7 1.9 0 6.9-1.1 11-2.3 4.1-1.3 7.8-2.4 8.3-2.5.4 0 1.2 1.1 1.7 2.5zm76.1 6.4l2.4 2-7.2 6.9c-19.7 19.1-43.8 32.1-71.9 38.7-10.8 2.6-13.6 2.9-30.9 2.9-16.3 0-20.5-.3-29.6-2.3-13.2-3-13.2-3-11.8-7 .9-2.8 1.3-3 3.6-2.1 8.9 3.4 17.2 4.3 37.8 4.3 22-.1 20.8.1 42.1-5.8 17.4-4.8 41.7-19.2 54.9-32.6 3.8-3.8 7.2-7 7.6-7 .4 0 1.7.9 3 2z"/><path d="M99.9 283.7c-1.3 1.6-1.2 1.7.4.4.9-.7 1.7-1.5 1.7-1.7 0-.8-.8-.3-2.1 1.3zm8.5 6.1c0 1 .8 1.8 1.8 1.8 1.6 0 1.6-.2.1-1.8-.9-1-1.7-1.8-1.7-1.8-.1 0-.2.8-.2 1.8z"/></svg>