<svg xmlns="http://www.w3.org/2000/svg" width="32" height="32" fill="none" viewBox="0 0 96 96"><path fill="#000" fill-rule="evenodd" d="M48 96c26.51 0 48-21.49 48-48S74.51 0 48 0 0 21.49 0 48s21.49 48 48 48M15 48a33 33 0 1 0 66 .127v-.253a33.2 33.2 0 0 0-.903-7.541 3.54 3.54 0 1 0-6.886 1.64 25.934 25.934 0 1 1-19.197-19.186 3.54 3.54 0 0 0 1.64-6.886A32.996 32.996 0 0 0 15 48m49.61-24.056a1 1 0 0 1 .07-.08l.002.002a5.26 5.26 0 0 1 8.008 6.763 5.6 5.6 0 0 1-.561.684 5.22 5.22 0 0 1-3.224 1.517h-.048q-.15.001-.299.011-.15.01-.298.011a1 1 0 0 0-.096.011 1 1 0 0 1-.112.012 9.428 9.428 0 0 0-8.397 11.515q.005.018.013.036c.007.02.015.04.015.062.053.224.11.443.18.664a12.2 12.2 0 0 1-1.868 9.813 12 12 0 0 1-1.368 1.666A12.21 12.21 0 1 1 39.36 39.362q.1-.098.209-.185.082-.067.161-.14a12.14 12.14 0 0 1 11.148-2.91 9.422 9.422 0 0 0 12.235-8.052l.017-.13a2 2 0 0 0 .025-.254v-.561a5.22 5.22 0 0 1 1.402-3.12q.03-.033.054-.066z" clip-rule="evenodd"/></svg>