<svg xmlns="http://www.w3.org/2000/svg" width="333.333" height="333.333" version="1.0" viewBox="0 0 250 250"><path d="M110 .6C77.1 6.5 54.4 18.1 34.1 39.5 18.5 56 9.1 73.5 3.2 96.9.8 106.4.5 109.3.5 125c.1 14.9.4 18.9 2.4 27 6.3 25.8 18.1 46.3 36.6 63.9 16.5 15.6 34 25 57.4 30.9 9.5 2.4 12.4 2.7 28.1 2.7 14.9-.1 18.9-.4 27-2.4 25.8-6.3 46.3-18.1 63.9-36.6 15.6-16.5 25-34 30.9-57.4 2.4-9.5 2.7-12.4 2.7-28.1-.1-19.3-1.6-28.4-7.7-44.3-12.4-32.4-38.6-59.1-70.7-71.8C156.7 3.1 145 .9 128 .5c-8.5-.2-16.6-.2-18 .1m73 87.9 24.5 24.5-41.3 41.3-41.2 41.2-41.2-41.2L42.5 113 67 88.5 91.5 64h67z"/><path d="M111.4 80c-4 1-9.8 3.4-13 5.2-6.1 3.4-29.4 25.1-29.4 27.3 0 .7 5.6 6.7 12.4 13.3 13.3 12.9 19.2 16.7 30.3 19.6 12.3 3.2 27.7 1.2 39.5-5.1 5.5-2.9 29.8-25.7 29.8-27.8 0-2.2-23.4-24-29.3-27.3-7.2-4.1-19.2-7.2-27.2-7.1-3.3 0-9.2.9-13.1 1.9m22.9 8.6c6.9 2.3 14.2 10.6 15.8 18 4.8 21.5-17.2 38.8-36.6 28.9-10.8-5.5-16.3-17.1-13.6-28.9 1-4.4 2.3-6.8 6-10.7 7.6-8.3 17.8-10.9 28.4-7.3"/><path d="M120.2 102.6c-9.1 4.6-7.5 18.5 2.3 21 6.2 1.5 13.5-3.9 13.5-10 0-4.8-1.4-8-4.4-10-3.9-2.5-7.7-2.8-11.4-1"/></svg>