<svg xmlns="http://www.w3.org/2000/svg" width="266.667" height="266.667" version="1.0" viewBox="0 0 200 200"><path d="M79.5 12.1C46.1 31.5 37 37.1 37 37.8c0 .4.8 1.9 1.8 3.4l1.8 2.8 4.5-2.4c2.4-1.3 15.8-8.9 29.7-16.9l25.3-14.5 14.2 8.2c7.8 4.6 21.2 12.4 29.8 17.3l15.7 9.1 4.2-2.5c5-3 7.1-1.2-20-16.8-11.3-6.5-25.4-14.7-31.5-18.1-6-3.5-11.7-6.4-12.5-6.4S90 6 79.5 12.1m93.3 35.5c-3.6 2.3-3.8 2.7-3.8 7.8 0 5.3 0 5.3 4.4 7.6l4.3 2.4 4.7-2.8c4.4-2.6 4.6-2.8 4.6-7.4 0-4.5-.2-4.8-4.5-7.5-2.5-1.5-4.9-2.7-5.3-2.6-.4 0-2.4 1.1-4.4 2.5M66 63.4V70h23.3c20.7 0 23.6.2 26.7 1.9 10.6 5.6 10.9 21.2.5 27.2-2.5 1.5-5.9 1.8-21.6 2-10.3.1-19.1.4-19.7.8-.7.4.3 2.8 2.5 6.4l3.5 5.7h15.5c18.1 0 23.9-1.3 30.2-6.6 2.2-2 5.3-5.7 6.9-8.2 2.4-4.2 2.7-5.7 2.7-13.7s-.3-9.5-2.7-13.5c-3.3-5.6-7-9.2-12.8-12.2-4.3-2.2-5.6-2.3-29.7-2.6L66 56.8zm116.3 9.2-4.3 2.5v69.6l-28.7 16.8c-15.9 9.2-29 16.9-29.2 17.1-.3.2.3 2 1.2 3.9l1.7 3.5 3.7-2.1c2.1-1.1 16.5-9.3 32.1-18.2l28.2-16.1v-39.8c0-21.9-.1-39.8-.2-39.8-.2 0-2.2 1.2-4.5 2.6m-63.8 49.6c-8.1 2-7.9 1.4-2.5 10.8 2.7 4.7 5.1 8.9 5.2 9.3.5 1.2 14.8 2.2 14.8 1 0-1.4-12.1-22.3-12.8-22.2-.4.1-2.5.6-4.7 1.1"/></svg>