<svg xmlns="http://www.w3.org/2000/svg" width="533.333" height="533.333" version="1.0" viewBox="0 0 400 400"><path d="M0 200v200h400V0H0zM285.2 80.9c1.9 1.3 4.6 4 5.9 5.9l2.4 3.6.3 88.3c.2 80.8.1 88.7-1.4 91.9-1.7 3.6-9.1 10.2-28.5 25.5-5.9 4.6-14 11.1-18 14.4-4.1 3.3-9.7 7.8-12.5 10s-9.7 7.7-15.4 12.2c-16.5 13.3-19.6 13.3-36 0-5.6-4.5-13.7-10.8-17.9-14.1-4.2-3.2-10.1-8-13.1-10.5-3-2.6-13.2-10.8-22.7-18.4-9.4-7.5-18.2-15.1-19.5-16.9l-2.3-3.3-.3-89-.2-89.1 2.9-4.5c1.8-3 4.4-5.3 7.2-6.7l4.4-2.2 80.6.2 80.5.3z"/><path d="M147.5 110.7c-4.4 2.3-6.5 4.3-8.9 8.8-2.1 3.9-2.1 4.8-2.4 64.9-.3 65.4-.1 69.2 4.6 74.7 3.9 4.7 34.4 28.9 36.5 28.9 1.6 0 1.7-2.7 1.7-42.4 0-23.3.3-43.1.6-44 .5-1.4 2.8-1.6 15.4-1.6 13.6 0 15 .2 18 2.2 1.8 1.3 4.3 3.6 5.4 5.1 2 2.8 2.1 4.1 2.4 41.8.3 35.9.4 38.9 2 38.9.9 0 6.2-3.7 11.7-8.1 5.5-4.5 13-10.5 16.6-13.5 3.7-2.9 7.6-6.5 8.7-7.9 3.5-4.4 4.4-12.2 4-33.4-.3-17.7-.6-20-2.5-23.7-2.7-5-7-8.8-12-10.5l-3.8-1.2 3.4-.9c4.7-1.3 8.9-4.6 11.7-9.5l2.5-4.1-.3-26.9-.3-27-2.7-4c-1.6-2.4-4.4-4.9-7-6.2-4.3-2.1-5.5-2.1-53.4-2.1-42.7.1-49.3.3-51.9 1.7m72 18.9c1.4 1.5 1.6 4.1 1.3 20.3-.4 21.6-1.1 24-8.8 27.8-3.9 2-5.9 2.3-17.5 2.3-8.9 0-13.5-.4-14.3-1.2-.9-.9-1.2-7.8-1.2-25 0-21.5.2-23.8 1.8-24.7 1-.6 9.2-1.1 19.4-1.1 15.1 0 17.9.2 19.3 1.6"/></svg>