<svg xmlns="http://www.w3.org/2000/svg" width="264" height="264" version="1.0" viewBox="0 0 198 198"><path d="M81.7 1.5C42.9 8.9 12.3 37.6 2.8 75.6c-3.2 12.7-3.2 34.1 0 46.8 4.3 17.2 13.8 33.9 26.3 46.5 12.6 12.5 29.3 22 46.5 26.3 12.7 3.2 34.1 3.2 46.8 0 17.2-4.3 33.9-13.8 46.5-26.3 12.5-12.6 22-29.3 26.3-46.5 3.2-12.7 3.2-34.1 0-46.8-4.3-17.2-13.8-33.9-26.3-46.5C156.4 16.7 139.5 7.1 123 3 111.7.2 92.3-.5 81.7 1.5M68 57.5V68h20V47h21v21h21V47h20v21h-20v82H68V68H47V47h21z"/><path d="M87 98.5V110h23V87H87z"/></svg>