<svg xmlns="http://www.w3.org/2000/svg" width="32" height="32" viewBox="0 0 32 32"><path fill-rule="evenodd" d="M16 32C7.163 32 0 24.837 0 16S7.163 0 16 0s16 7.163 16 16-7.163 16-16 16m-6.5-5 5.649-4.188-2.031-12.6zm3.688-16.885 2.054 12.649 3.443.06-5.497-12.71zm.082-.096 5.532 12.805 1.669-11.782zm5.66 12.624 2.685-10.145-1.062-1.348zm1.517-11.71-.7-3.08-6.326 2.081zm-7.06-1.107 6.36-2.082-2.054-.903zm-.106-.036 4.342-2.997-3.513 1.408zm.83-1.66 3.29-1.337-2.894.096-.397 1.24zm.373-1.337 2.94-.096-2.007-.903-.933 1zm.992-1.059 3.21 1.432-1.81-2.118zm1.599-.602 1.715 2.046.374-1.131-2.09-.915zm1.785 2.082.852.434-.467-1.589zM16.923 5l2.232.918a.048.048 0 0 0 .054-.076L18.452 5zm2.416.963.467 1.733 2.642-.725a.072.072 0 0 0 0-.14l-3.11-.868z"/></svg>