<svg xmlns="http://www.w3.org/2000/svg" width="32" height="32" fill="none" viewBox="0 0 32 32"><path fill="#111" d="M6.489 26.443C8.474 29.923 12.029 32 16 32s7.525-2.077 9.511-5.557c1.985-3.479 1.985-7.633 0-11.112L17.146.669a1.315 1.315 0 0 0-2.292 0L6.49 15.331c-1.985 3.479-1.985 7.633 0 11.112m7.155-18.799 1.783-3.126a.658.658 0 0 1 1.146 0l6.861 12.026c1.261 2.21 1.498 4.767.71 7.107a7.5 7.5 0 0 0-.35-1.167c-.949-2.42-3.092-4.288-6.371-5.552-2.255-.865-3.695-2.138-4.28-3.784-.753-2.12.034-4.433.5-5.504m-3.042 5.33q.099.486.27.972c.828 2.351 2.744 4.118 5.692 5.25 2.608 1.005 4.284 2.401 4.98 4.15.754 1.894.144 3.731-.053 4.233A8.45 8.45 0 0 1 16 29.574c-3.104 0-5.882-1.623-7.434-4.343a8.69 8.69 0 0 1 0-8.687z"/></svg>