<svg version="1.0" xmlns="http://www.w3.org/2000/svg" width="682.667" height="682.667" viewBox="0 0 512 512"><path d="M0 256v256h512V0H0v256zM269 45.6c3.6 1 31.8 16.6 80 44.2 66.5 38.1 75.1 43.4 80.7 48.9 7.5 7.5 12.7 17.6 14.3 27.8.7 4.7 1 34.8.8 92.5l-.3 85.5-2.7 6.9c-3 7.6-8 15.5-13 20.2-1.8 1.7-31 21.6-64.9 44.3L302.3 457H282V303h21v131.1l13.8-9.4c7.5-5.1 32.7-22.3 56-38.1 32.3-22 43.1-29.9 45.8-33.4 6.7-8.8 6.5-5.5 6.2-100.8l-.3-85.9-2.3-4.7c-4.5-9-8.2-11.8-39.7-29.9-42.3-24.2-73.8-42.3-96.5-55.5-10.7-6.2-21.7-11.8-24.3-12.5-2.9-.7-7.3-.9-10.9-.5-6.6.7-7.4 1-33.2 16-8.2 4.7-15.1 8.6-15.3 8.6-.3 0-1.7.8-3.1 1.9-1.5 1-4.7 2.9-7.2 4.3s-15.3 8.7-28.5 16.3c-13.2 7.6-33.7 19.4-45.5 26.1-22.7 13.1-27.2 16.5-31.1 24.1l-2.4 4.8-.3 88-.2 88 3.1 6.3c1.7 3.4 4 7.2 5.2 8.3 1.9 1.8 13.7 10.4 18.5 13.4.9.5 6.3 4.1 12.1 8l12 8c.8.5 6.7 4.4 13.1 8.6 13 8.7 54.9 36.1 56.7 37.2 1 .6 1.3-18.8 1.3-91.7V247l-20.2-.2-20.3-.3-.3-10.3-.3-10.2H347v21H226v210.1l-10.7-.3c-8.3-.2-10.7-.6-10.5-1.6.1-.8-.2-1.1-.7-.7-1.3.7-23.7-14.4-23.3-15.7.1-.5-.2-.7-.7-.3-.6.3-3.2-.9-5.8-2.8-2.6-1.8-23-15.5-45.3-30.4-22.3-15-41.5-28.1-42.8-29.3-1.2-1.1-2.2-1.7-2.2-1.3-.1 1.9-11-11.3-13.8-16.6-6.4-11.8-6.2-9-6.2-103.6 0-94.8-.2-91.7 6.3-103.8 6-11.3 12.3-16.7 32.7-27.9 2.5-1.4 9.5-5.4 15.5-9 11.7-6.9 23.8-13.8 32-18.3 2.8-1.5 5.5-3.1 6-3.5.6-.4 2.6-1.7 4.5-2.8 1.9-1 18.6-10.6 37-21.2s35.4-20.2 37.7-21.2c8.8-3.9 21.9-4.3 33.3-1.2zM385 238v47H264.5l.3 66.5.2 66.5h-21V264h121v-52H144v52h42v21h-62v-94h261v47z"/></svg>