<svg xmlns="http://www.w3.org/2000/svg" width="237.333" height="237.333" version="1.0" viewBox="0 0 178 178"><path d="M79 .6C61.4 3.9 50.5 7.9 40 15 21.2 27.7 8.1 46.6 2.4 69c-2.5 10.2-2.6 28.6 0 39.4 7.8 33.5 32.8 58.6 66.6 67.2 10.2 2.5 28.6 2.6 39.4 0 33.5-7.8 58.6-32.8 67.2-66.6 2.5-10.2 2.6-28.6 0-39.4-7.7-33-32-57.9-65.1-66.7C103.7 1 84.2-.4 79 .6m46.8 69.1-.3 25.8-6.7.3-6.7.3-.3-14-.3-14-19 16.2c-21.3 18.3-26.6 23.8-28.3 29.5-2.3 7.7-4 7.2 23.3 7.2h24.4l.3-6.3.3-6.2h13l.3 12.7.3 12.8H49v-8.9c0-11.2 2.4-19.3 7.9-26.6 2.2-2.9 13.3-13.3 24.6-22.9C92.8 65.9 102 57.8 102 57.5s-8.8-.5-19.5-.5H63.1l-.3 6.2-.3 6.3-6.7.3-6.8.3V44h77z"/></svg>