<svg xmlns="http://www.w3.org/2000/svg" width="64" height="65" fill="none" viewBox="0 0 64 65"><g clip-path="url(#0x0_ai_svg-a)"><rect width="64" height="64" y=".304" fill="#fff" rx="32"/><path fill="#37D1CC" d="M42.726 17.483c.222-.047.474-.112.731-.159a6.2 6.2 0 0 1 3.116.159c2.04.647 3.386 2.018 4.104 3.98.326.887.391 1.82.248 2.763a6.6 6.6 0 0 1-.553 1.817c-.065.137-.056.214.092.274 1.736.716 2.654 2.1 3.207 3.792.335 1.024.396 2.082.265 3.123-.217 1.684-.852 3.209-2.223 4.328-.348.286-.775.488-1.189.694-.2.103-.23.188-.135.377.422.857.636 1.765.592 2.712-.109 2.408-1.254 4.203-3.394 5.368-.888.484-1.863.694-2.872.699a5.9 5.9 0 0 1-2.059-.335c.044.219.083.399.114.579.291 1.623-.061 3.093-1.05 4.43-.808 1.101-1.905 1.765-3.224 2.086-.709.172-1.431.159-2.158.069-1.227-.155-2.246-.699-3.138-1.513a.59.59 0 0 1-.2-.475c.004-2.263.009-4.525 0-6.791 0-.232.052-.318.304-.309.566.018 1.132.009 1.702.004.148 0 .23.047.304.172.988 1.65 3.246 1.936 4.582.56 1.488-1.533.844-3.898-1.049-4.605a2.925 2.925 0 0 0-3.564 1.285c-.035.064-.126.137-.187.137a19 19 0 0 1-1.096-.043c-.562-.038-.992-.745-.992-1.17.004-2.309 0-4.618.004-6.932 0-.676.6-1.238 1.3-1.246.71-.005 1.31.565 1.315 1.255.004.896.026 1.79-.004 2.687-.035.917.8 1.936 1.867 1.962.879.021 1.753.017 2.632.008.218 0 .331.064.444.257.596 1.011 1.666 1.586 2.877 1.414 1.283-.18 2.123-.917 2.428-2.155.43-1.727-.827-3.286-2.433-3.453-1.261-.133-2.21.368-2.876 1.41-.087.136-.179.2-.344.188-.365-.021-.735-.009-1.096-.043-.619-.06-1.123-.625-1.123-1.238q-.006-3.301 0-6.602c0-.587.448-1.294 1.415-1.294.256 0 .513.013.765-.004.192-.013.3.055.4.219.357.595.867 1.028 1.532 1.246.98.317 1.91.202 2.733-.428a2.81 2.81 0 0 0 .509-3.976c-1.044-1.328-3.05-1.474-4.26-.296-.226.223-.391.51-.6.754a.44.44 0 0 1-.28.125c-.795.008-1.596 0-2.393.008-.465.005-.926.077-1.314.356-.552.399-.879.917-.879 1.611v2.665c0 .729-.583 1.307-1.314 1.302a1.3 1.3 0 0 1-1.3-1.293v-6.791c0-.724.486-1.247 1.226-1.307.018 0 .03-.004.048-.004.278 0 .592-.077.827.021.213.094.34.381.505.579.913 1.088 2.62 1.328 3.79.548a2.83 2.83 0 0 0 1.105-3.419c-.757-1.808-3.046-2.373-4.543-1.092-.252.219-.44.51-.67.758-.065.073-.174.146-.26.146-.597.013-1.197.004-1.798.009-.157 0-.23-.039-.23-.21.004-2.327 0-4.653.009-6.98 0-.098.074-.223.148-.295a5.52 5.52 0 0 1 3.272-1.603c1.854-.24 3.464.313 4.783 1.59 1.057 1.024 1.632 2.296 1.64 3.775-.004.582-.09 1.156-.135 1.76"/><path fill="#BFBFBF" d="M13.677 38.42c-.422-.243-.865-.44-1.243-.728a5.4 5.4 0 0 1-1.687-2.112 8.8 8.8 0 0 1-.643-2.078 7.3 7.3 0 0 1-.052-2.105 7.1 7.1 0 0 1 .925-2.797c.448-.772 1.034-1.423 1.804-1.898.226-.142.483-.236.726-.352.152-.073.183-.154.105-.317-.322-.677-.487-1.397-.578-2.138-.1-.818.047-1.607.265-2.382.208-.742.63-1.393 1.113-1.997a6 6 0 0 1 2.464-1.83 6.7 6.7 0 0 1 1.865-.442c.87-.085 1.704.026 2.59.292-.043-.214-.09-.399-.117-.583-.095-.668-.126-1.328-.012-2.005a5.4 5.4 0 0 1 .89-2.177 5.3 5.3 0 0 1 1.813-1.671c.618-.348 1.278-.566 1.978-.707.786-.159 1.56-.09 2.308.09s1.469.488 2.06 1.015c.083.073.187.116.274.189.304.244.479.514.47.951-.035 2.169-.013 4.337-.013 6.51q0 .316-.313.316c-.556 0-1.117-.004-1.673.004-.144 0-.24-.038-.31-.167-.303-.54-.769-.925-1.316-1.2-.53-.265-1.113-.295-1.692-.214-.534.077-1.03.292-1.416.66-.557.523-.94 1.149-.979 1.94-.034.657.1 1.273.492 1.8.39.528.9.913 1.569 1.114.8.24 1.543.12 2.252-.226.49-.24.834-.665 1.125-1.123.031-.047.078-.124.118-.124.434.017.89-.026 1.3.085.595.163.838.596.843 1.208.018 2.254.013 4.512.004 6.766-.004.947-.926 1.547-1.821 1.213-.435-.162-.8-.698-.8-1.187-.005-.878-.013-1.76.004-2.639.017-.874-.457-1.418-1.178-1.826-.313-.18-.661-.167-.991-.176-.796-.025-1.596-.008-2.391-.004-.17 0-.252-.055-.348-.21-.513-.814-1.225-1.345-2.234-1.452a2.76 2.76 0 0 0-1.434.205c-.774.343-1.33.921-1.609 1.732-.274.796-.165 1.576.24 2.288.312.548.777.968 1.395 1.22.76.31 1.512.279 2.242-.017.591-.24 1.07-.66 1.404-1.22a.46.46 0 0 1 .318-.19c.396-.008.8-.012 1.187.048.548.081.956.548.995 1.088.048.681.048 1.367.053 2.053.004.385-.04.775-.04 1.161 0 .472.035.943.04 1.414 0 .382-.03.759-.035 1.14-.004.262.018.527.022.789.009.368-.07.702-.318 1.003-.278.338-.63.463-1.06.445-.313-.012-.626.009-.944-.008a.31.31 0 0 1-.217-.138c-.408-.702-1.043-1.135-1.795-1.392-.282-.095-.613-.086-.921-.065-.73.043-1.37.326-1.882.845-.548.557-.86 1.234-.83 2.01.047 1.208.643 2.099 1.76 2.596.7.313 1.439.296 2.173.03.687-.248 1.148-.737 1.53-1.311.096-.142.174-.172.318-.172.774.005 1.547.013 2.32-.004.297-.008.605-.047.888-.137a1.86 1.86 0 0 0 1.238-1.22 2 2 0 0 0 .1-.614c.009-.878-.004-1.76.009-2.639.009-.583.304-1.037.83-1.238.595-.227 1.247-.047 1.608.587.17.3.187.608.187.93 0 2.146.004 4.289-.004 6.435 0 .57-.252 1.029-.796 1.247-.251.103-.56.06-.838.108-.422.072-.635-.129-.87-.464-.226-.32-.582-.578-.925-.792-.461-.292-.996-.386-1.552-.356a2.87 2.87 0 0 0-1.721.686c-.805.664-1.07 1.53-.991 2.515.043.536.29 1.007.639 1.436.404.497.926.805 1.539.942.912.202 1.742.06 2.486-.565.3-.248.539-.514.743-.831.044-.069.17-.12.257-.12.59-.009 1.178 0 1.769-.009.182-.004.256.056.252.244-.01.416-.004.832-.004 1.251 0 1.761-.018 3.523.012 5.28.01.454-.156.753-.482 1.028a5.6 5.6 0 0 1-1.682.994c-.43.158-.9.227-1.361.3-.535.081-1.065.055-1.604-.022a5.4 5.4 0 0 1-1.93-.668c-1.156-.656-1.951-1.62-2.434-2.845-.335-.849-.46-1.718-.326-2.618.04-.279.096-.553.14-.827.008-.052-.005-.103-.01-.155-2.63.677-4.941.198-6.746-1.868-1.812-2.065-1.973-4.384-.882-6.83z"/></g><rect width="63" height="63" x=".5" y=".804" stroke="#070B14" stroke-opacity=".15" rx="31.5"/><defs><clipPath id="0x0_ai_svg-a"><rect width="64" height="64" y=".304" fill="#fff" rx="32"/></clipPath></defs></svg>