<svg xmlns="http://www.w3.org/2000/svg" width="64" height="65" fill="none" viewBox="0 0 64 65"><g clip-path="url(#1inch_svg-a)"><rect width="64" height="64" y=".304" fill="#1B314F" rx="32"/><path fill="#fff" fill-rule="evenodd" d="M45.02 18.196c-1.317-.86-2.259-1.225-2.259-1.225s.613.027 1.5.091c.338.028.713.055 1.115.092.32.027.65.064.978.1a25 25 0 0 0-1.737-1.243c-3.474-2.25-6.738-2.944-9.463-2.944-2.404 0-4.379.54-5.696 1.051-1.06.412-1.7.796-1.8.85l1.37-2.184.101-1.07a1.08 1.08 0 0 1 .97 1.042 17.2 17.2 0 0 1 5.055-.768c3.401 0 7.552 1.024 11.868 4.425a1.074 1.074 0 0 1-.146 1.783 20 20 0 0 1 2.432 2.203c2.971 3.182 5.723 8.275 4.982 15.873a1.08 1.08 0 0 1-.758.923 1.03 1.03 0 0 1-.576.01c-.238 3.245-1.655 8.62-7.754 13.201a1.09 1.09 0 0 1-1.243.037 1 1 0 0 1-.357-.402c-.064.055-.128.119-.192.173-1.737 1.573-4.37 3.283-7.936 3.785-.045.01-.1.01-.146.01h-.037a1.07 1.07 0 0 1-1.05-.896 16 16 0 0 1-3.1.292c-1.993 0-4.398-.338-7.223-1.325a1.08 1.08 0 0 1-.677-1.317 1.07 1.07 0 0 1 1.28-.74c.796.191 1.6.283 2.423.283 5.403 0 9.637-4.032 9.637-8.86 0-2.377-1.006-4.562-2.707-6.171l-.018.018c-.384.503-.86 1.107-1.189 1.545-.539.75-.722 1.17-.676 1.545a4.35 4.35 0 0 1-.887 3.31c-.009.01-.018.019-.027.037-.275.32-.796.777-1.262 1.188-.018.019-.046.037-.064.055-.466.412-.933.814-1.262 1.143l-.027.028c-.832.777-1.92.886-2.56.886a6 6 0 0 1-.448-.018h-.01c-.109-.01-.146-.01-.173-.01h-.146a1 1 0 0 0-.11.083c-.082.064-.174.146-.32.265a1.8 1.8 0 0 1-.796.412 3 3 0 0 1-.74.082c-.63 0-1.344-.137-1.938-.283a14 14 0 0 1-1.482-.448c-.009 0-.018-.01-.036-.01a1.9 1.9 0 0 1-.695-.493 3.6 3.6 0 0 1-.43-.576 9 9 0 0 1-.649-1.317c-.347-.86-.64-1.856-.695-2.34-.036-.32.046-.631.101-.823.064-.22.165-.448.256-.668.192-.43.448-.905.658-1.316l.01-.019c.155-.292.292-.548.392-.758a5 5 0 0 0 .12-.256c.018-.046.027-.064.027-.073.055-.275.247-1.646.43-3.11.182-1.444.356-2.888.393-3.18.027-.248.027-.366 0-.485-.028-.128-.1-.32-.311-.668 0 0 0-.009-.01-.009-.466-.795-.493-1.582-.292-2.542-2.395-1.664-8.484-6.162-8.86-6.473 0 0-.008 0-.008-.009a1.45 1.45 0 0 1-.522-.841 1.2 1.2 0 0 1 .019-.521c.018-.073.045-.137.073-.201.009-.028.027-.055.036-.083a.1.1 0 0 0 .019-.036c0-.01.009-.01.009-.018 0 0 0-.01.009-.01l.896.595s-.073.11.137.283c.018.018.046.037.091.073.01.01.019.01.019.018q.167.124.512.384c.301.23.704.522 1.17.87 2.396 1.773 6.464 4.744 7.616 5.494-.357 1.27-.357 1.865 0 2.468.494.814.53 1.235.457 1.83-.073.593-.704 5.777-.84 6.408-.056.256-.33.777-.632 1.353-.448.85-.96 1.81-.914 2.213.073.667.987 3.52 1.792 3.84.594.21 2.075.667 3.063.667.356 0 .667-.073.814-.21.594-.53.777-.63 1.197-.63h.11c.082 0 .165.008.265.018.11.009.238.018.366.018.567 0 1.307-.11 1.828-.594.366-.366.86-.796 1.317-1.198.521-.448.997-.869 1.216-1.134.53-.667.814-1.582.667-2.505-.11-.841.357-1.582.878-2.322.667-.878 1.902-2.469 1.902-2.469.082.064.173.128.256.201.192.156.384.32.567.494 1.947 1.801 3.117 4.288 3.117 7.022 0 4.754-3.593 8.722-8.393 9.7-.75.156-1.518.229-2.313.229a11.5 11.5 0 0 1-2.679-.32c.942.329 1.838.585 2.68.777.831.192 1.617.32 2.358.393.65.073 1.262.1 1.838.1 1.517 0 2.77-.21 3.73-.475 1.554-.42 2.368-.969 2.368-.969s-.21.265-.585.686c-.311.338-.732.777-1.235 1.252a.5.5 0 0 1-.082.073l-.027.028h.036a12 12 0 0 0 1.902-.411c3.063-.896 5.212-2.734 6.492-4.124.932-1.024 1.398-1.81 1.398-1.81s-.082.585-.21 1.307a25 25 0 0 1-.356 1.655c.475-.356.923-.722 1.334-1.088 5.157-4.517 5.998-9.545 6.035-12.187v-.357a9.5 9.5 0 0 0-.11-1.444v-.037s.01.01.01.018c0 .01.008.01.008.019.064.082.21.265.393.493.11.128.229.275.348.42.137.175.283.348.411.504q.124.15.22.274c.045-.466.073-.933.091-1.38 0-.055.01-.12.01-.174.32-9.417-5.112-14.345-8.303-16.42m-24.037-1.938c.027.082.055.174.082.265.156.512.338 1.07.53 1.554a10 10 0 0 1 .622-1.454c1.509-2.816 3.996-3.584 5.513-3.776.777-.1 1.299-.054 1.299-.054l.1-1.07h-.091c-.055 0-.128-.01-.22-.01-.183 0-.439 0-.75.02a8.5 8.5 0 0 0-2.386.52 8 8 0 0 0-3.858 2.99c-.018-.064-.037-.119-.046-.174a3 3 0 0 1-.054-.21c-.01-.027-.01-.046-.019-.055v-.01a1.073 1.073 0 0 0-1.746-.54l.704.806-.704-.805h-.01l-.008.01-.037.036c-.027.028-.073.064-.119.12-.091.1-.22.237-.366.41a7.6 7.6 0 0 0-.978 1.537 7.24 7.24 0 0 0-.695 3.693c-1.179-.43-2.404-.86-3.456-1.234-.804-.284-1.508-.53-2.03-.713-.255-.092-.475-.165-.63-.22-.073-.027-.147-.045-.192-.064h-.01a3 3 0 0 0-.191-.054c-.019 0-.037-.01-.055-.01a1.5 1.5 0 0 0-.85.11 1 1 0 0 0-.32.21.5.5 0 0 0-.11.12c-.018.018-.028.036-.046.054-.009.01-.009.018-.018.027l-.01.01v.009l.897.594s.073-.11.32-.073a15 15 0 0 1 .731.247l1.39.484a826 826 0 0 1 4.782 1.71c.42.155.84.302 1.234.448a7.7 7.7 0 0 1-.293-1.253 6.3 6.3 0 0 1 .97-4.388c.43-.667.831-1.015.831-1.015s.092.512.293 1.198" clip-rule="evenodd"/><path fill="#fff" fill-opacity=".7" d="M29.266 40.148c-.11.137-.484.484-.85.804l-.31.284c-.147.137-.303.265-.449.402-.283.247-.558.494-.786.722q-.208.208-.841.21h-1.06a15 15 0 0 1 .996-1.151c.228-.21.457-.412.658-.576.357-.302.722-.503 1.042-.677.576-.32 1.006-.558 1.006-1.152.018-1.198-.786-1.435-1.38-1.445.173-.045.374-.073.566-.073-.667-.173-1.517 0-1.901.384-.284.256-.348.951-.412 1.655a10 10 0 0 1-.119.988c-.155.822-.658 1.27-1.417 1.965l-.274.247c-.018.019-.046.037-.064.064l-2.332-.52s1.546-.815 1.792-1.729c.22-.786-.347-3.218-.493-3.84-.019-.073-.028-.119-.037-.137 0 0 .01.01.018.01.11.1.75.685 1.043 1.608.567-1.554 1.307-3.026 1.517-3.172.183-.12 2.314-1.253 2.908-1.573a90 90 0 0 0-.695 1.93c-.63.173-1.27.53-1.728 1.233.247-.173 1.024-.283 1.582-.356.493-.037 2.011.777 2.395 2.286v.073c.092.585-.091 1.115-.375 1.536"/><path fill="#fff" fill-opacity=".7" d="M28.078 35.32c.722-.064 1.326.083 1.48.147 1.372-2.606 2.47-4.014 2.744-4.014h.183c.786.027 3.575.119 4.745-2.679 1.252-3.054-.512-5.66-.631-5.842v-.01c1.481 4.865-1.792 7.571-4.014 7.607-1.234 0-2.889.814-2.889.814z"/><path fill="#fff" fill-opacity=".7" d="M36.599 22.923s0 .009 0 0c.155.073 2.788 1.353 3.547 5.312a13.53 13.53 0 0 1 3.145 7.296c0 .173.247.42.494.63.32.32.631.631.631.951 0 .841-.073 1.692-.21 2.505-.064.247-.348.412-.659.595l-.027.018a.1.1 0 0 1-.037.018.2.2 0 0 0-.054.037c-.046.027-.101.064-.156.1-.183.12-.384.238-.411.32-.713 2.542-2.222 4.81-4.224 6.538a14.5 14.5 0 0 0 6.839-8.723 11.45 11.45 0 0 0 .128-4.571c-1.262-7.186-8.586-10.843-9.006-11.026m-8.467.357a5.32 5.32 0 0 0 3.356-.988c.137.31.265.621.393.932-1.618.44-3.063.21-3.749.055m4.855-.457c.878-.402 1.765-1.033 2.57-2.002a15 15 0 0 0-2.414-.476 9 9 0 0 1-.74 1.024z"/><path fill="#fff" fill-opacity=".7" d="M40.01 33.849a16.8 16.8 0 0 0 .283-4.617c1.371 1.828 2.221 4.05 2.468 6.336.037.283.32.566.594.84.247.21.53.494.53.668 0 .814-.072 1.618-.21 2.432-.036.1-.32.265-.557.402l-.037.019c-.356.173-.667.356-.74.63a13.1 13.1 0 0 1-4.645 6.794c3.264-3.401 4.855-9.034 2.313-13.504"/><path fill="#fff" fill-rule="evenodd" d="M24.412 20.463s-.631-4.544 2.532-6.446c-.01.01-.037.01-.064.028-.65.238-5.358 2.011-2.468 6.418m6.83-4.16c2.431-.914 5.814-1.408 11.062-.42-2.322-1.161-4.754-1.765-7.186-1.792-.915 0-1.765.073-2.533.21-2.743.494-5 2.469-5.778 5.11 0 0 .567-.877 1.902-1.791l.055-.073c.493-.668 1.243-1.683 1.947-2.533.22.448.466 1.006.53 1.29m12.187 5.852c4.964 3.273 7.222 6.903 8.804 11.163-.073-4.507-1.581-8.384-4.507-11.483l-.073-.073c-2.57-2.716-6.336-3.978-10.076-3.457-1.408.174-2.816.458-3.913.814-.174.037-.357.073-.53.137h.073c.292-.027 5.43-.274 10.222 2.899m4.58 22.4c-.53.704-1.124 1.444-1.828 2.148 4.544-8.731.21-16.731.036-17.042.32.32.631.667.915.987 3.483 3.868 3.904 9.674.877 13.907m-27.794-27.09c-.137.511-1.317 5.037 2.688 5.174-2.395-1.444-2.679-5.175-2.679-5.211v.019zm6.976 9.444-1.829 3.136s1.692-.777 2.36-1.765c.53-.85-.531-1.371-.531-1.371m-1.225 14.519c.228-.21.457-.412.658-.576.357-.302.722-.503 1.042-.677.576-.32 1.006-.557 1.006-1.152.018-1.198-.786-1.435-1.38-1.444.009 0 .018 0 .027-.01-.33.074-.585.183-.585.183s1.024-.173 1.408.567.073 1.161-.567 1.582c-.31.21-.997.878-1.61 1.527m3.337-10.862c-.165.137-.704 1.536-1.207 2.898-.594.32-2.724 1.454-2.907 1.573-.21.137-.951 1.618-1.518 3.172a3.9 3.9 0 0 0-1.042-1.609c-.01-.009-.01-.009-.019-.009 0 .018.019.064.037.137.146.622.713 3.054.494 3.84-.247.915-1.792 1.728-1.792 1.728l2.331.522c-.457.41-.795.539-1.06.539-.595-.11-1.308-.283-1.793-.457-.356-.457-.877-1.975-1.024-2.606.074-.256.32-.704.522-1.097l.219-.412.055-.11c.384-.74.613-1.179.677-1.58.137-.595.594-4.298.777-5.843.457.594 1.088 1.582.95 2.222 1.024-1.445.284-2.853-.073-3.42-.32-.567-.74-1.691-.384-2.89.357-1.197 1.619-4.507 1.619-4.507s.42.741 1.024.595c.594-.137 5.421-7.397 5.421-7.397s1.308 2.853-.073 4.928c-1.408 2.076-2.78 2.469-2.78 2.469s.138.027.376.036c.685.156 2.13.375 3.748-.055.576 1.39 1.06 2.634 1.088 2.835-.018.045-.073.173-.155.365-.393.933-1.38 3.301-1.5 3.475-.073.073-.567.21-.914.283-.603.165-.95.274-1.097.375m.95-12.608s.32 1.408-.493 2.359c-1.024 1.161-1.902 1.125-1.865 1.125zm-8.136 20.005-.284 1.408s.567-.074.567.566c0 .494-.567 1.162-1.024 1.198s-.63-.53-.53-.84c.11-.284 1.27-2.332 1.27-2.332m5.394-11.758c1.234.247 1.582 1.691.914 2.469-.667.74-2.359 1.791-3.346 2.038-.21.814-2.012.457-1.335-2.112 0 0 .32 1.235.63 1.125.32-.11 3.914-5.742 3.914-5.742s-.457 1.481-.777 2.222m-1.253 13.11c-.018.34-.055.897-.301 1.263.027-.028.1-.101.2-.21.184-.193.449-.476.613-.64.11-.101.229-.175.348-.257.265-.164.494-.31.494-.63 0-.494-.668-.595-.951-.53-.284.072-.357.53-.384.776-.01.055-.01.137-.019.229m16.357 1.363c-.777 2.78-2.533 5.248-4.828 7.013q.426-.206.85-.44c2.003-1.718 3.512-3.995 4.225-6.536.027-.083.22-.202.411-.32.055-.037.11-.064.156-.1.009-.01.018-.01.036-.02l.018-.008a.1.1 0 0 1 .037-.019l.027-.018c.311-.183.595-.347.659-.594.137-.814.21-1.655.21-2.505 0-.32-.32-.631-.63-.951-.248-.21-.495-.457-.495-.631a13.45 13.45 0 0 0-3.145-7.296c.019.082.028.165.046.247a13.8 13.8 0 0 1 2.89 7.012c0 .128.155.302.31.467.055.054.1.11.146.164.32.32.631.631.631.951 0 .841-.073 1.691-.21 2.505-.073.284-.42.494-.777.668-.046.027-.1.064-.156.1-.183.1-.384.229-.411.311m-6.016-17.755c.43.173 7.753 3.84 9.015 11.026.265 1.563.21 3.108-.128 4.571a14.4 14.4 0 0 0 .52-3.83c0-6.583-4.415-12.142-10.44-13.861-.805.97-1.692 1.6-2.57 2.002.595 1.49 1.317 3.32 1.317 3.447 0 .21-.667 1.938-.74 2.012-.074.036-.878.11-1.198.11-.357.84-.704 1.654-.777 1.764-.11.137-.42.247-1.088.42-.073.019-.147.046-.229.064-.32.092-.667.192-.722.247-.174.21-1.125 2.716-1.765 4.471.1-.018.192-.027.284-.036l1.618-3.978s1.655-.813 2.89-.813c2.212-.037 5.494-2.752 4.013-7.616m-14.69 1.935c.247-.457.037-.777-.173-.95l-.073-.074c-.421-.21-3.063-1.198-5.67-2.112 2.287 1.518 4.828 2.99 5.249 3.21.32.136.53.173.667-.074" clip-rule="evenodd"/></g><rect width="63" height="63" x=".5" y=".804" stroke="#070B14" stroke-opacity=".15" rx="31.5"/><defs><clipPath id="1inch_svg-a"><rect width="64" height="64" y=".304" fill="#fff" rx="32"/></clipPath></defs></svg>