<svg xmlns="http://www.w3.org/2000/svg" width="40" height="40" fill="none" viewBox="0 0 40 40"><g clip-path="url(#aaplon_svg-a)"><path fill="#D9D9D9" d="M20 0c11.046 0 20 8.954 20 20s-8.954 20-20 20S0 31.046 0 20 8.954 0 20 0"/><path fill="#000" d="M26 6a8 8 0 0 1 8 8v12a8 8 0 0 1-8 8H14a8 8 0 0 1-8-8V14a8 8 0 0 1 8-8z"/><path fill="#fff" d="M20.114 15.172c-.711 0-1.811-.809-2.97-.78-1.53.02-2.932.887-3.72 2.26-1.588 2.757-.41 6.828 1.139 9.068.76 1.09 1.656 2.317 2.844 2.28 1.14-.05 1.567-.741 2.95-.741 1.374 0 1.763.74 2.97.71 1.228-.019 2.008-1.11 2.758-2.21a9.8 9.8 0 0 0 1.246-2.561c-.029-.01-2.386-.916-2.415-3.643-.02-2.28 1.86-3.37 1.948-3.42-1.072-1.567-2.717-1.742-3.293-1.781-1.5-.117-2.756.818-3.457.818m2.534-2.3c.632-.758 1.05-1.82.933-2.872-.905.039-1.996.604-2.649 1.364-.585.672-1.09 1.753-.954 2.785 1.003.078 2.036-.516 2.669-1.276"/></g><defs><clipPath id="aaplon_svg-a"><path fill="#fff" d="M0 0h40v40H0z"/></clipPath></defs></svg>