<svg xmlns="http://www.w3.org/2000/svg" width="64" height="65" fill="none" viewBox="0 0 64 65"><g clip-path="url(#aave_svg-a)"><rect width="64" height="64" y=".304" fill="#fff" rx="32"/><mask id="aave_svg-b" width="64" height="65" x="0" y="0" maskUnits="userSpaceOnUse" style="mask-type:luminance"><path fill="#fff" d="M64 .304H0v64h64z"/></mask><g mask="url(#aave_svg-b)"><path fill="url(#aave_svg-c)" d="M32 64.304c17.673 0 32-14.327 32-32s-14.327-32-32-32-32 14.327-32 32 14.327 32 32 32"/><path fill="#fff" d="M45.584 44.672 35.088 19.296c-.592-1.312-1.472-1.952-2.632-1.952h-.928c-1.16 0-2.04.64-2.632 1.952l-4.568 11.056h-3.456a1.893 1.893 0 0 0-1.88 1.88v.024a1.9 1.9 0 0 0 1.88 1.88h1.856l-4.36 10.536a2.2 2.2 0 0 0-.128.72c0 .592.184 1.056.512 1.416s.8.536 1.392.536a1.86 1.86 0 0 0 1.08-.36c.336-.232.568-.568.752-.952l4.8-11.904h3.328a1.893 1.893 0 0 0 1.88-1.88V32.2a1.9 1.9 0 0 0-1.88-1.88h-1.776l3.664-9.128 9.984 24.832c.184.384.416.72.752.952a1.9 1.9 0 0 0 1.08.36c.592 0 1.056-.176 1.392-.536s.512-.824.512-1.416a1.7 1.7 0 0 0-.128-.712"/></g></g><rect width="63" height="63" x=".5" y=".804" stroke="#070B14" stroke-opacity=".15" rx="31.5"/><defs><linearGradient id="aave_svg-c" x1="55.859" x2="8.243" y1="12.228" y2="52.292" gradientUnits="userSpaceOnUse"><stop stop-color="#B6509E"/><stop offset="1" stop-color="#2EBAC6"/></linearGradient><clipPath id="aave_svg-a"><rect width="64" height="64" y=".304" fill="#fff" rx="32"/></clipPath></defs></svg>