<svg xmlns="http://www.w3.org/2000/svg" width="2000" height="1729.55" viewBox="0 0 2000 1729.55"><path d="M1002.8 0c90.75 153.6 178.41 309.1 268.32 463.18 13 20 16.82 44 16.46 67.5v554.77c-123.43-43.65-260.93-51.28-386.14-10.26-67 20.63-127.49 57.12-184.85 96.71q.36-326.27 0-652.67c0-15.86.48-32.44 10.26-45.79Q865.48 237.13 1002.8 0zM0 1725.72Q252.58 1290 506.83 854.93c3.22 290.62 1.19 581.36 1.07 872-169.22-1.57-338.56-.02-507.9-1.21m1494.84-869.36c171.49 289.07 336.42 582.19 505.16 873.05-168.62.6-337.13-1-505.63 0-.6-291.09-1.44-582.07.47-873.05m-486.31 386.74c94.68-16.1 193.31 5.13 275.71 53.66 2.39 143.94-1.67 287.88 3.94 431.58-183.54.72-367.07-.6-550.6-1.31C718.5 1651 709.56 1570 731 1493.41c33.89-127.48 146.94-230.04 277.53-250.31" fill="#020041"/></svg>