<svg xmlns="http://www.w3.org/2000/svg" width="40" height="40" fill="none" viewBox="0 0 40 40"><g clip-path="url(#acnon_svg-a)"><path fill="#ECCCFF" d="M20 0c11.046 0 20 8.954 20 20s-8.954 20-20 20S0 31.046 0 20 8.954 0 20 0"/><path fill="#A100FF" d="M26 6a8 8 0 0 1 8 8v12a8 8 0 0 1-8 8H14a8 8 0 0 1-8-8V14a8 8 0 0 1 8-8z"/><path fill="#fff" d="m11.495 23.713 9.931-3.695-9.931-3.879V11l17.01 6.849v4.261L11.495 29z"/></g><defs><clipPath id="acnon_svg-a"><path fill="#fff" d="M0 0h40v40H0z"/></clipPath></defs></svg>