<svg xmlns="http://www.w3.org/2000/svg" width="64" height="65" fill="none" viewBox="0 0 64 65"><rect width="64" height="64" y=".304" fill="#0033AD" rx="32"/><rect width="63" height="63" x=".5" y=".804" stroke="#070B14" stroke-opacity=".15" rx="31.5"/><path fill="#fff" d="M21.776 32.154a3.023 3.023 0 0 0 2.848 3.183h.18a3.006 3.006 0 0 0 3.016-3.027 3.006 3.006 0 0 0-3.028-3.016 3.02 3.02 0 0 0-3.016 2.86m-11.274-.778a.97.97 0 0 0-1.03.922.977.977 0 1 0 1.03-.921M21.584 14.61a.987.987 0 0 0 .431-1.317.987.987 0 0 0-1.316-.431.973.973 0 0 0-.431 1.304.967.967 0 0 0 1.316.443s-.012 0 0 0m3.064 5.35a1.51 1.51 0 0 0 .67-2.023 1.51 1.51 0 0 0-2.022-.67 1.51 1.51 0 0 0-.67 2.023 1.51 1.51 0 0 0 2.022.67m-10.316 3.674c.574.37 1.34.215 1.723-.36a1.25 1.25 0 0 0-.359-1.723 1.25 1.25 0 0 0-1.723.36 1.24 1.24 0 0 0 .359 1.723m1.831 7.205a1.504 1.504 0 0 0-1.592 1.424 1.504 1.504 0 0 0 1.424 1.591 1.511 1.511 0 0 0 .168-3.016M14.5 40.974a1.248 1.248 0 0 0 1.124 2.226c.61-.31.862-1.053.551-1.675a1.25 1.25 0 0 0-1.676-.55m5.865-13.261a1.76 1.76 0 0 0 2.453-.515 1.76 1.76 0 0 0-.515-2.453 1.76 1.76 0 0 0-2.453.515 1.766 1.766 0 0 0 .515 2.453m18.61-7.874c.694.454 1.64.263 2.094-.432a1.52 1.52 0 0 0-.43-2.094 1.52 1.52 0 0 0-2.095.43 1.496 1.496 0 0 0 .43 2.095m3.088-5.326a.97.97 0 0 0 1.353-.287.97.97 0 0 0-.288-1.352.98.98 0 0 0-1.352.275 1.01 1.01 0 0 0 .287 1.364M39.2 29.27a3.016 3.016 0 0 0-3.183 2.848 3.016 3.016 0 0 0 2.849 3.184h.167a3.02 3.02 0 0 0 3.016-3.028 3 3 0 0 0-2.848-3.004m-13.56-1.771a3.021 3.021 0 0 0 5.72-1.364 3.016 3.016 0 0 0-4.38-2.705c-1.495.765-2.094 2.585-1.34 4.069m23.685-3.866c.61-.311.85-1.065.538-1.676a1.247 1.247 0 0 0-2.226 1.125c.324.61 1.066.862 1.688.55m-7.659.958a1.775 1.775 0 1 0 2.381.79 1.785 1.785 0 0 0-2.382-.79m-9.873-10.531a1.26 1.26 0 0 0 1.316-1.173c.048-.682-.49-1.269-1.172-1.316a1.25 1.25 0 0 0-1.317 1.16c-.036.694.49 1.28 1.173 1.329m-.012 7.815c.981.06 1.82-.694 1.867-1.676a1.76 1.76 0 0 0-1.676-1.867 1.76 1.76 0 0 0-1.867 1.676 1.77 1.77 0 0 0 1.676 1.867m-9.622 18.143a1.775 1.775 0 1 0-1.593-3.172 1.775 1.775 0 0 0 1.593 3.172M32.93 24.47a3.013 3.013 0 0 0 .874 4.178c1.4.91 3.267.526 4.176-.874a3.013 3.013 0 0 0-2.525-4.668 3.03 3.03 0 0 0-2.525 1.365m5.254 12.638a3.016 3.016 0 0 0-4.057-1.34 3.016 3.016 0 0 0-1.34 4.057 3.016 3.016 0 0 0 4.056 1.34 3.007 3.007 0 0 0 1.353-4.033c0-.012 0-.012-.012-.024m5.277-.216a1.76 1.76 0 0 0-2.453.515 1.76 1.76 0 0 0 .514 2.453 1.76 1.76 0 0 0 2.454-.514 1.766 1.766 0 0 0-.515-2.454m5.793-4.536a1.504 1.504 0 0 0-1.424-1.591 1.504 1.504 0 0 0-1.592 1.424 1.504 1.504 0 0 0 1.424 1.592 1.52 1.52 0 0 0 1.592-1.425m4.176-1.077a.97.97 0 0 0-1.029.922.977.977 0 1 0 1.95.108.985.985 0 0 0-.92-1.03m-3.938 9.694a1.25 1.25 0 0 0-1.723.36 1.25 1.25 0 0 0 .359 1.723c.575.37 1.34.215 1.723-.36a1.24 1.24 0 0 0-.359-1.723m-27.741 9.12a.98.98 0 0 0-1.352.275.98.98 0 0 0 .275 1.352.98.98 0 0 0 1.352-.275.96.96 0 0 0-.275-1.352m20.488-.096a.987.987 0 0 0-.43 1.316c.24.48.838.67 1.316.431a.973.973 0 0 0 .431-1.304.97.97 0 0 0-1.316-.443c.012 0 0 0 0 0m-11.346-9.861a3.03 3.03 0 0 0-.873-4.19 3.03 3.03 0 0 0-4.19.874 3.019 3.019 0 0 0 2.526 4.68 2.98 2.98 0 0 0 2.537-1.364m-6.043 4.631a1.52 1.52 0 0 0-2.095.431 1.52 1.52 0 0 0 .431 2.094c.694.455 1.64.264 2.094-.43a1.5 1.5 0 0 0-.43-2.095m7.048 5.781a1.26 1.26 0 0 0-1.316 1.172c-.048.683.49 1.269 1.173 1.317a1.25 1.25 0 0 0 1.316-1.161 1.265 1.265 0 0 0-1.172-1.328m.012-7.815a1.76 1.76 0 0 0-1.867 1.675c-.06.982.694 1.82 1.675 1.867a1.77 1.77 0 0 0 1.867-1.675 1.77 1.77 0 0 0-1.675-1.867m7.264 1.915a1.512 1.512 0 0 0 1.377 2.692 1.51 1.51 0 0 0 .67-2.022 1.527 1.527 0 0 0-2.047-.67"/></svg>