<?xml version="1.0" encoding="UTF-8"?>
<!-- Generator: visioncortex VTracer 0.6.4 -->
<svg width="200" height="200" viewBox="0 0 200 200" version="1.1" xmlns="http://www.w3.org/2000/svg"><path transform="translate(0)" d="m0 0h200v200h-200v-200z" fill="#F6941F"/><path transform="translate(0)" d="m0 0h200v200h-200v-200zm70.875 9.1875c-1.4877 2.038-2.5527 4.1577-3.625 6.4375-5.7904 11.938-15.503 21.878-24.973 30.977-17.38 16.749-28.883 35.985-29.444 60.662-0.2058 19.533 4.8065 39.167 17.167 54.736 0.3796 0.4784 0.7593 0.9568 1.1504 1.4497 13.73 16.859 33.228 28.575 54.85 31.55 25.759 1.6203 47.217-2.8845 68-19 0.8372-0.6265 0.8372-0.6265 1.6914-1.2656 16.081-12.596 26.614-33.606 29.093-53.625 2.4931-24.423-3.645-46.799-18.785-66.109-0.495-0.6587-0.99-1.3174-1.5-1.9961-6.3636-7.9067-15.143-14.785-24.062-19.566-4.1103-2.3824-5.347-5.8343-7.2305-10.055-1.7137-3.3831-3.7792-5.7076-7.207-7.3828-2.1795-0.3723-3.7734-0.2651-6 0l-5 5v3c-2.97-0.33-5.94-0.66-9-1-3.6121 3.1635-3.6121 3.1635-5.0977 7.5078 0.0116 0.5337 0.0232 1.0674 0.0352 1.6172 0.0206 0.9488 0.0413 1.8975 0.0625 2.875-1.2684 0.2475-1.2684 0.2475-2.5625 0.5-5.1557 1.7145-8.7754 6.476-11.324 11.113-1.406 3.6995-1.3204 7.4978-1.1133 11.387h-3l-2-7c0.5685-0.8366 1.137-1.6732 1.7227-2.5352 4.1768-6.2511 8.0658-12.565 11.34-19.34 0.2985-0.593 0.597-1.1861 0.9045-1.7971 2.0422-4.3872 2.7586-8.5032 2.033-13.328-1.9564-4.2762-4.9449-7.7931-9.4141-9.5586-6.307-1.7554-12.392-0.2278-16.711 4.7461z" fill="#FEFEFD"/><path transform="translate(120,19)" d="m0 0c8.0756 0.6578 8.0756 0.6578 11 4 0.4004 1.4097 0.7719 2.8277 1.125 4.25 1.7265 5.7031 5.5647 7.7925 10.366 10.778 20.076 12.925 33.383 31.236 38.646 54.671 1.1159 5.9639 1.3042 11.88 1.3008 17.926 0.0011 0.8542 0.0011 0.8542 0.0022 1.7257-0.0335 9.9353-1.3722 18.5-5.4397 27.649-0.2623 0.6126-0.5246 1.2253-0.7949 1.8564-3.6486 8.3778-8.2053 15.294-14.205 22.144-0.553 0.6961-1.106 1.3922-1.6758 2.1094-4.3267 5.3283-9.2919 9.1813-14.954 12.972-1.2572 0.8428-2.4981 1.7096-3.7373 2.5787-7.306 4.8091-15.256 7.0697-23.633 9.3398-0.8637 0.2488-1.7273 0.4976-2.6172 0.7539-20.223 5.0032-42.168-0.2651-59.805-10.527-4.0673-2.48-7.9676-5.1057-11.578-8.2266v-2c-0.562-0.2217-1.1241-0.4434-1.7031-0.6719-13.242-7.6572-20.668-26.607-24.387-40.516-4.6061-18.698-2.9203-41.289 6.9038-58.215 1.8967-2.9931 4.0169-5.796 6.186-8.5977 1.1465-1.5412 2.2923-3.0828 3.4375-4.625 0.8525-1.1263 1.706-2.2518 2.5625-3.375l1 3h3l-4 3c0.9694 0.1031 1.9387 0.2062 2.9375 0.3125 4.5484 0.6338 8.7567 2.1351 13.062 3.6875l-2 2h-19c-7.6418 13.292-7.6418 13.292-11 28 0.4048-0.1611 0.8095-0.3223 1.2266-0.4883 2.1077-0.6082 3.9553-0.6805 6.1484-0.6992 0.7502-0.0142 1.5005-0.0284 2.2734-0.043 2.3516 0.2305 2.3516 0.2305 7.3516 2.2305l-1 16-17 1c1.0883 17.413 5.5082 34.666 17.898 47.66 1.1016 1.3398 1.1016 1.3398 1.1016 3.3398 4.5292-3.1693 8.4459-6.2277 11.836-10.609 1.8055-2.1568 3.9118-3.7175 6.1641-5.3906l5 1c1.1017 4.0013 0.7961 6.8601-0.4336 10.738-0.1568 0.5256-0.3136 1.0512-0.4751 1.5928-0.499 1.6639-1.0136 3.3225-1.5288 4.9814-0.3428 1.1331-0.6847 2.2666-1.0254 3.4004-0.8338 2.7661-1.6816 5.5276-2.5371 8.2871 0.7657 0.3011 1.5314 0.6022 2.3203 0.9124 1.9071 0.774 3.7259 1.559 5.5547 2.4899 7.5665 3.7392 14.834 6.0508 23.125 7.5977 0.0648-0.6476 0.0648-0.6476 0.1309-1.3083 0.7255-6.4978 2.0484-12.858 3.3691-19.254 0.4504-2.1883 0.8982-4.3771 1.3438-6.5664 0.1597-0.778 0.1597-0.778 0.3227-1.5717 0.5681-2.8107 1.0288-5.6045 1.3647-8.4517 0.4688-2.8477 0.4688-2.8477 2.4688-4.8477 5 1 5 1 5.8828 2.2578 7.4435 11.189 13.477 25.142 13.117 38.742 7.4917-1.9499 14.441-4.4736 21.375-7.9375 0.6529-0.3236 1.3058-0.6471 1.9785-0.9805 4.516-2.3154 8.5944-5.0315 12.646-8.082-0.4666-5.3699-2.3679-8.6381-5.4375-13-0.4423-0.645-0.8846-1.29-1.3403-1.9546-1.3947-2.0243-2.806-4.0361-4.2222-6.0454-0.6862-0.9789-0.6862-0.9789-1.3862-1.9775-5.2201-7.5274-5.2201-7.5274-10.887-14.714-2.3734-3.1735-2.0803-4.5066-1.7266-8.3086 1.6803-1.3557 2.6549-1.9846 4.8398-2.082 15.985 2.0539 29.116 7.6616 42.16 17.082 3.8249-10.472 6.5965-20.732 6-32-0.5659-0.2346-1.1318-0.4692-1.7148-0.7109-2.8179-1.5896-4.6551-3.57-6.8477-5.9141-8.0229-8.226-15.981-13.725-26.883-17.465-2.5547-0.9102-2.5547-0.9102-3.5547-1.9102v-5c7.7381-6.9892 15.122-8.5028 25.254-8.1406 0.9062 0.0464 1.8124 0.0928 2.7461 0.1406-5.3271-9.3922-5.3271-9.3922-14-15-5.6883-0.8361-10.448 0.5727-15.699 2.5769-3.2271 1.2041-5.8633 1.6242-9.301 1.4231-3.0283-4.0377-3.0283-4.0377-2.6875-7.125 0.863-5.9332 3.2653-9.9103 7.6875-13.875-0.6188-0.7219-1.2375-1.4438-1.875-2.1875-2.0056-2.4892-3.0921-4.8-4.125-7.8125-0.5981 0.7013-1.1963 1.4025-1.8125 2.125-5.4736 5.458-12.86 8.8457-20.344 10.394-4.6051 1.2001-9.2661 3.8984-12.066 7.8164-2.9425 6.2992-3.0115 13.66-2.6523 20.473-0.143 2.507-0.8703 4.0398-2.125 6.1914 4.0668 1.0394 4.0668 1.0394 8 0v-2h3l-2 5c1.2568-0.2456 1.2568-0.2456 2.5391-0.4961 3.6257-0.6043 7.1689-0.6162 10.836-0.5664 0.6407 0.0045 1.2813 9e-3 1.9414 0.0137 1.5612 0.0116 3.1224 0.0296 4.6836 0.0488v2c1.98-0.33 3.96-0.66 6-1v-4l-19-1v-3c9.0989-0.4367 16.867-0.6915 25 4l2 2-1 6-1-2-5 1c0.1485 5.4688 1.1802 10.056 3.4375 15 0.2174 0.4806 0.4349 0.9612 0.6589 1.4563 1.3381 2.8338 1.3381 2.8338 3.9036 4.5437v2c0.8972 0.4022 0.8972 0.4022 1.8125 0.8125 2.1597 1.1724 3.5454 2.3812 5.1875 4.1875v3c-2.8967-1.2396-4.882-2.7402-7.0947-4.9705-12.591-12.583-29.041-17.203-46.343-17.217-0.7947-0.0122-1.5894-0.0245-2.4082-0.0371-4.8499-0.0118-9.2328 0.5031-13.936 1.696-2.7106 0.6458-5.4699 1.0705-8.2185 1.5286l-1 14h-3c-0.7487-11.231 2.6249-24.355 10.008-33.208 1.6654-1.7618 3.4338-3.3987 5.2227-5.0337 2.3936-2.3778 3.5257-4.6483 4.7695-7.7578h-2c-0.3364 0.8276-0.3364 0.8276-0.6797 1.6719-1.7198 3.0325-3.9493 5.173-6.4453 7.5781-0.4679 0.4589-0.9359 0.9178-1.418 1.3906-1.1478 1.1244-2.3018 2.2426-3.457 3.3594l-2-2c0.3175-0.3426 0.635-0.6851 0.9622-1.0381 1.452-1.5688 2.9012-3.1403 4.3503-4.7119 0.4995-0.5388 0.999-1.0777 1.5137-1.6328 2.5556-2.7757 4.9864-5.5415 7.1738-8.6172v3h3l-1-4 3 3c-0.6511 6.8367-3.432 10.607-8.4375 15.188-4.3973 4.2077-6.378 9.2456-8.5625 14.812 0.7444-0.2166 0.7444-0.2166 1.5039-0.4375 4.6093-1.2595 8.7242-1.8309 13.496-1.5625v-2l-4-2 1-5c3.135-1.8578 5.3747-2.2014 9-2-0.495-0.5259-0.495-0.5259-1-1.0625-1.5296-2.9636-1.5898-5.6726-1-8.9375 0.8807-1.5662 1.9065-2.9163 2.9961-4.3438 1.2151-2.0046 1.5352-3.7279 1.9414-6.0312 1.3715-7.0839 5.0405-12.256 10.633-16.715 1.4522-0.9245 2.7779-1.4459 4.4297-1.9102 0.049-0.5543 0.098-1.1086 0.1484-1.6797 0.0748-0.7244 0.1496-1.4489 0.2266-2.1953 0.0696-0.7193 0.1392-1.4386 0.2109-2.1797 0.4141-1.9453 0.4141-1.9453 2.4141-3.9453h6l3 3c0.4157-0.9571 0.4157-0.9571 0.8398-1.9336 0.3623-0.8263 0.7245-1.6526 1.0977-2.5039 0.3596-0.8237 0.7193-1.6474 1.0898-2.4961 0.9727-2.0664 0.9727-2.0664 1.9727-3.0664z" fill="#5D2205"/><path transform="translate(90.648 6.0078)" d="m0 0c2.8635 2.1021 4.7673 4.8237 6.3516 7.9922 0.825 6.1879-0.7499 10.781-3.5 16.25-0.5327 1.0972-0.5327 1.0972-1.0762 2.2165-3.2648 6.5591-7.1307 12.608-11.424 18.534l2 7h3c-0.0522-0.6362-0.0522-0.6362-0.1055-1.2852-0.3475-7.5281 2.5188-12.728 7.4766-18.27 2.4131-2.1411 4.4994-2.7747 7.6289-3.4453-0.0619-0.8869-0.1238-1.7738-0.1875-2.6875-0.0085-3.5872 1.0651-5.4554 3.1875-8.3125 2.5205-1.2603 3.8542-0.9188 6.625-0.5625 0.8172 0.1018 1.6345 0.2037 2.4765 0.3086 0.6265 0.0838 1.253 0.1676 1.8985 0.2539 0.1224-0.6136 0.2449-1.2272 0.3711-1.8594 0.8844-3.0103 2.3322-4.0662 4.6289-6.1406 3.1403-0.4596 5.0149-0.5529 7.8164 1.0195 3.5596 2.7908 5.4793 5.238 7.0586 9.4805 1.8589 4.7182 4.3432 6.4303 8.625 8.9726 4.0841 2.4952 7.6896 5.5622 11.372 8.6075 0.9832 0.8015 1.9896 1.5743 2.9996 2.3418 12.652 9.9344 21.751 27.037 25.129 42.578 0.2023 0.8714 0.4047 1.7428 0.6132 2.6406 4.6277 23.044 0.3616 46.272-12.613 65.859-12.213 17.621-29.361 29.66-50 35.5-0.6513 0.1862-1.3025 0.3724-1.9734 0.5642-6.5531 1.6723-13.001 1.7935-19.714 1.7483-0.5749-0.0022-1.1498-0.0043-1.7421-0.0065-14.321-0.0862-25.867-2.5467-38.57-9.306-0.874-0.4641-1.748-0.9281-2.6485-1.4063-17.558-9.9699-29.377-24.185-37.352-42.594-0.228-0.5131-0.456-1.0261-0.691-1.5547-7.6228-17.451-7.795-40.306-1.059-58.07 3.1858-7.9173 6.9637-15.409 12.328-22.09 0.343-0.4276 0.6861-0.8552 1.0396-1.2958 3.6998-4.5154 7.8261-8.5562 12.021-12.606 7.5381-7.2992 14.592-14.569 20.362-23.383 0.504-0.7554 1.008-1.5108 1.5273-2.2891 1.8817-2.9124 3.5431-5.8034 4.9727-8.9609 1.6775-3.4981 4.356-5.8774 7.9492-7.3399 4.664-1.2335 9.0034-0.7582 13.199 1.5977zm29.352 12.992c-2.0541 3.2678-3.6565 6.3826-5 10l-3-3h-6c-2.2958 2.2957-2.3234 3.0084-2.625 6.125-0.0748 0.7244-0.1496 1.4489-0.2266 2.1953-0.0735 0.8314-0.0735 0.8314-0.1484 1.6797-0.4473 0.2191-0.8946 0.4383-1.3555 0.664-6.5337 3.4271-11.126 8.3252-13.644 15.336-0.5373 2.3148-1.0024 4.6372-1.461 6.9687-0.539 2.0313-0.539 2.0313-2.164 4.1563-1.8043 2.4604-1.6957 4.2125-1.6758 7.1914 0.3514 1.9668 1.0988 3.1082 2.3008 4.6836-0.5543 0.049-1.1086 0.098-1.6797 0.1484-0.7245 0.0748-1.4489 0.1496-2.1953 0.2266-1.079 0.1044-1.079 0.1044-2.1797 0.2109-2.172 0.2778-2.172 0.2778-3.9453 2.4141l1 5c0.99 0.33 1.98 0.66 3 1v2c-0.4125-0.0232-0.825-0.0464-1.25-0.0703-4.863-0.152-9.0928 0.7154-13.75 2.0703 3.2261-7.3321 6.3115-12.781 12.226-18.266 2.3412-2.2897 4.0603-4.4993 4.7735-7.7344-0.0695-2.162-0.4463-3.8857-1-6l-2-1 1 4h-3v-3c-2.887 0.3351-3.9075 0.9022-5.9375 3.0469-0.696 0.8945-1.383 1.7961-2.0625 2.7031-3.0018 3.8601-6.119 7.4898-9.512 11.012-6.2765 6.5294-11.235 13.243-15.488 21.238-0.3803 0.6819-0.7606 1.3638-1.1524 2.0664-3.8518 8.2185-2.9014 20.159 0.0313 28.508 3.6271 8.2887 3.6271 8.2887 9.8398 14.234 0.4228 0.0631 0.8456 0.1263 1.2813 0.1914v3c-4.2702-2.1718-6.3143-4.3413-8.625-8.5-0.3-0.5232-0.5999-1.0464-0.909-1.5855-2.4323-4.4331-3.7972-8.8104-4.8606-13.735-0.465-2.3673-0.465-2.3673-2.6054-4.1797-5.4532-0.097-10.65-0.1263-16 1v-2l17-1 1-16c-4.8335-1.9477-4.8335-1.9477-9.625-2.1875-1.1331 0.0097-1.1331 0.0097-2.2891 0.0195-1.8849 0.1518-3.3392 0.4726-5.0859 1.168 0.8946-5.2877 2.3208-10.186 4.375-15.125 0.1968-0.4779 0.3936-0.9559 0.5964-1.4483 1.7336-4.047 3.8067-7.5384 6.0286-11.427h19l2-2c-5.3384-1.9247-10.35-3.3989-16-4l4-4h-3l-1-2c-16.009 19.515-22.862 39.595-21 65 2.7482 20.362 11.992 36.344 26 51h2c0.0825 0.4292 0.165 0.8585 0.25 1.3008 3.3996 7.7024 18.246 12.86 25.469 15.837 20.415 7.7141 42.947 6.7658 62.898-1.9585 22.046-10.915 38.498-27.955 46.594-51.484 0.2604-0.8895 0.5208-1.7789 0.7891-2.6953 0.2638-0.8191 0.2638-0.8191 0.5329-1.6548 1.8335-6.2658 1.8238-12.504 1.7796-18.97-0.0038-0.8676-0.0038-0.8676-0.0076-1.7526-0.132-19.826-5.4923-37.162-18.305-52.622-0.332-0.4194-0.6639-0.8389-1.0059-1.271-6.8146-8.5842-15.44-14.521-24.6-20.409-3.7177-2.5056-5.6416-3.9397-6.5195-8.4453-0.1644-1.0093-0.1644-1.0093-0.3321-2.0391-0.8324-2.8146-2.4561-3.8321-4.9453-5.2265-2.2611-0.8625-4.2139-0.8898-6.5976-0.6094z" fill="#5A2204"/><path transform="translate(127,25)" d="m0 0c1.9784 1.9784 2.8118 3.445 4 5.9375 1.191 2.4889 2.4132 4.8028 4 7.0625-0.7631 0.495-1.5263 0.99-2.3125 1.5-3.4388 2.7628-4.7904 6.2512-5.6875 10.5 0.011 2.5474 0.1114 5.1114 2 7 4.6129-0.3097 8.776-0.7559 13.062-2.5625 4.4002-1.7758 8.7812-2.5436 13.361-0.9387 4.1905 1.8357 6.4252 4.3231 8.9517 8.0637 0.5317 0.7415 0.5317 0.7415 1.0742 1.498 2.5508 3.6391 2.5508 3.6391 2.5508 5.9395-1.3593 0.0387-1.3593 0.0387-2.7461 0.0781-9.164 0.3805-17.09 1.6927-24.254 7.9219v5c0.7876 0.2449 1.5752 0.4898 2.3867 0.7422 13.855 4.6283 23.708 13.836 33.613 24.258 0.9967 1.0033 1.9952 2.0048 3 3-0.2671 7.0504-1.2094 13.706-2.875 20.562-0.2422 1.0354-0.2422 1.0354-0.4893 2.0918-0.9043 3.5505-1.5877 6.038-4.6357 8.3457-0.6316-0.5079-1.2633-1.0158-1.9141-1.5391-10.51-8.191-24.725-15.686-38.453-15.414-2.0864 0.2471-2.0864 0.2471-4.6328 0.9531-0.3348 4.7988 0.2251 7.0689 3 11l-5-2c-0.9124-4.9689-1.4113-8.4612 1-13l-3-2c0.3113-1.5836 0.6241-3.1668 0.9375-4.75 0.174-0.8817 0.348-1.7634 0.5273-2.6719 0.4589-2.2105 0.9686-4.3932 1.5352-6.5781h3v-2h-2l1-2c0.5311 0.4705 1.0622 0.941 1.6094 1.4258 0.7064 0.6226 1.4128 1.2452 2.1406 1.8867 0.6961 0.6149 1.3922 1.2298 2.1094 1.8633 1.9917 1.6973 4.0296 3.279 6.1406 4.8242-1.9334-3.5768-3.5244-5.7229-7-8v-2c-0.6033-0.2011-1.2066-0.4022-1.8281-0.6094-3.0828-1.9738-3.7265-4.28-4.9219-7.6406-0.2204-0.5607-0.4409-1.1215-0.668-1.6992-1.4242-3.8304-1.8961-6.9673-1.582-11.051l1-1h6l-1-5c-8.2802-4.1888-15.864-4.7564-25-5v3c0.7035-0.0079 0.7035-0.0079 1.4211-0.0159 2.1305-0.0208 4.2609-0.0338 6.3914-0.0466 0.738-0.0084 1.476-0.0168 2.2363-0.0254 1.0683-0.0048 1.0683-0.0048 2.1582-0.0098 0.6546-0.0052 1.3092-0.0104 1.9837-0.0158 1.7801 0.1117 3.1555 0.4667 4.8093 1.1135l1 5h-7v-2l-20 1 2-5h-3v2c-1.1875 1.0625-1.1875 1.0625-3 2-2.6875-0.375-2.6875-0.375-5-1-0.043-1.3326-0.0404-2.6673 0-4l1-1c-0.0232-0.5943-0.0464-1.1885-0.0703-1.8008-0.3637-16.703-0.3637-16.703 4.6953-23.137 4.3216-4.3845 9.3536-6.6969 15.312-8 6.0934-1.3821 12.071-4.0633 15.625-9.375 0.5009-0.8839 0.9894-1.7757 1.4375-2.6875z" fill="#F5941F"/><path transform="translate(127,25)" d="m0 0c1.9784 1.9784 2.8118 3.445 4 5.9375 1.191 2.4889 2.4132 4.8028 4 7.0625-0.7631 0.495-1.5263 0.99-2.3125 1.5-3.4388 2.7628-4.7904 6.2512-5.6875 10.5 0.011 2.5474 0.1114 5.1114 2 7 4.6129-0.3097 8.776-0.7559 13.062-2.5625 4.4002-1.7758 8.7812-2.5436 13.361-0.9387 4.1905 1.8357 6.4252 4.3231 8.9517 8.0637 0.5317 0.7415 0.5317 0.7415 1.0742 1.498 2.5508 3.6391 2.5508 3.6391 2.5508 5.9395-1.3593 0.0387-1.3593 0.0387-2.7461 0.0781-7.5057 0.3116-13.628 1.0545-20.254 4.9219-0.825 0.4744-1.65 0.9487-2.5 1.4375-1.973 2.0553-2.1988 3.776-2.5 6.5625h-2c-1.4606-2.6474-2-3.8945-2-7h2v-3l-4 1v5h-2c-0.2436-0.6149-0.4873-1.2298-0.7383-1.8633-2.144-3.6308-5.6711-4.6001-9.602-5.7612-5.4251-1.2274-11.121-1.2278-16.66-1.3755v3c0.7035-0.0079 0.7035-0.0079 1.4211-0.0159 2.1305-0.0208 4.2609-0.0338 6.3914-0.0466 0.738-0.0084 1.476-0.0168 2.2363-0.0254 1.0683-0.0048 1.0683-0.0048 2.1582-0.0098 0.6546-0.0052 1.3092-0.0104 1.9837-0.0158 1.7801 0.1117 3.1555 0.4667 4.8093 1.1135l1 5h-7v-2l-20 1 2-5h-3v2c-1.1875 1.0625-1.1875 1.0625-3 2-2.6875-0.375-2.6875-0.375-5-1-0.043-1.3326-0.0404-2.6673 0-4l1-1c-0.0232-0.5943-0.0464-1.1885-0.0703-1.8008-0.3637-16.703-0.3637-16.703 4.6953-23.137 4.3216-4.3845 9.3536-6.6969 15.312-8 6.0934-1.3821 12.071-4.0633 15.625-9.375 0.5009-0.8839 0.9894-1.7757 1.4375-2.6875z" fill="#F39322"/><path transform="translate(90.648 6.0078)" d="m0 0c2.8635 2.1021 4.7673 4.8237 6.3516 7.9922 0.825 6.1879-0.7499 10.781-3.5 16.25-0.5327 1.0972-0.5327 1.0972-1.0762 2.2165-3.2648 6.5591-7.1307 12.608-11.424 18.534l2 7h3c-0.0522-0.6362-0.0522-0.6362-0.1055-1.2852-0.3475-7.5281 2.5188-12.728 7.4766-18.27 2.4131-2.1411 4.4994-2.7747 7.6289-3.4453-0.0619-0.8869-0.1238-1.7738-0.1875-2.6875-0.0085-3.5872 1.0651-5.4554 3.1875-8.3125 2.5205-1.2603 3.8542-0.9188 6.625-0.5625 0.8172 0.1018 1.6345 0.2037 2.4765 0.3086 0.6265 0.0838 1.253 0.1676 1.8985 0.2539 0.1224-0.6136 0.2449-1.2272 0.3711-1.8594 0.8844-3.0103 2.3322-4.0662 4.6289-6.1406 3.1403-0.4596 5.0149-0.5529 7.8164 1.0195 3.5596 2.7908 5.4793 5.238 7.0586 9.4805 1.8589 4.7182 4.3432 6.4303 8.625 8.9726 4.0841 2.4952 7.6896 5.5622 11.372 8.6075 0.9832 0.8015 1.9896 1.5743 2.9996 2.3418 12.652 9.9344 21.751 27.037 25.129 42.578 0.2023 0.8714 0.4047 1.7428 0.6132 2.6406 4.6277 23.044 0.3616 46.272-12.613 65.859-12.213 17.621-29.361 29.66-50 35.5-0.6513 0.1862-1.3025 0.3724-1.9734 0.5642-6.5531 1.6723-13.001 1.7935-19.714 1.7483-0.5749-0.0022-1.1498-0.0043-1.7421-0.0065-14.321-0.0862-25.867-2.5467-38.57-9.306-0.874-0.4641-1.748-0.9281-2.6485-1.4063-17.558-9.9699-29.377-24.185-37.352-42.594-0.228-0.5131-0.456-1.0261-0.691-1.5547-7.6228-17.451-7.795-40.306-1.059-58.07 3.1858-7.9173 6.9637-15.409 12.328-22.09 0.343-0.4276 0.6861-0.8552 1.0396-1.2958 3.6998-4.5154 7.8261-8.5562 12.021-12.606 7.5381-7.2992 14.592-14.569 20.362-23.383 0.504-0.7554 1.008-1.5108 1.5273-2.2891 1.8817-2.9124 3.5431-5.8034 4.9727-8.9609 1.6775-3.4981 4.356-5.8774 7.9492-7.3399 4.664-1.2335 9.0034-0.7582 13.199 1.5977zm-17.266 4.125c-2.0813 2.8104-3.4654 5.9231-4.9336 9.0791-2.8953 6.0515-7.0045 10.816-11.449 15.788-0.451 0.5113-0.9021 1.0225-1.3667 1.5493-5.2088 5.8903-10.41 11.608-16.633 16.451v2c-0.6791 0.1763-0.6791 0.1763-1.3719 0.3562-1.8477 0.7306-2.4814 1.384-3.6789 2.9446-0.3659 0.4761-0.7317 0.9523-1.1087 1.4428-0.3805 0.5178-0.761 1.0355-1.153 1.5689-0.3967 0.5383-0.7933 1.0767-1.2019 1.6313-12.345 17.192-16.998 38.44-14.169 59.4 3.4787 19.483 12.12 34.464 25.684 48.656h2c0.0825 0.4292 0.165 0.8585 0.25 1.3008 3.3996 7.7024 18.246 12.86 25.469 15.837 20.415 7.7141 42.947 6.7658 62.898-1.9585 22.046-10.915 38.498-27.955 46.594-51.484 0.2604-0.8895 0.5208-1.7789 0.7891-2.6953 0.2638-0.8191 0.2638-0.8191 0.5329-1.6548 1.8335-6.2658 1.8238-12.504 1.7796-18.97-0.0038-0.8676-0.0038-0.8676-0.0076-1.7526-0.132-19.826-5.4923-37.162-18.305-52.622-0.332-0.4194-0.6639-0.8389-1.0059-1.271-6.8146-8.5842-15.44-14.521-24.6-20.409-3.7177-2.5056-5.6416-3.9397-6.5195-8.4453-0.1644-1.0093-0.1644-1.0093-0.3321-2.0391-0.8324-2.8146-2.4561-3.8321-4.9453-5.2265-2.2611-0.8625-4.2139-0.8898-6.5976-0.6094-2.0541 3.2678-3.6565 6.3826-5 10l-3-3h-6c-2.2958 2.2957-2.3234 3.0084-2.625 6.125-0.0748 0.7244-0.1496 1.4489-0.2266 2.1953-0.049 0.5543-0.098 1.1086-0.1484 1.6797-0.4473 0.2191-0.8946 0.4383-1.3555 0.664-6.5337 3.4271-11.126 8.3252-13.644 15.336-0.5373 2.3148-1.0024 4.6372-1.461 6.9687-0.539 2.0313-0.539 2.0313-2.164 4.1563-1.8043 2.4604-1.6957 4.2125-1.6758 7.1914 0.3514 1.9668 1.0988 3.1082 2.3008 4.6836-0.8315 0.0735-0.8315 0.0735-1.6797 0.1484-1.0867 0.1122-1.0867 0.1122-2.1953 0.2266-1.079 0.1044-1.079 0.1044-2.1797 0.2109-2.172 0.2778-2.172 0.2778-3.9453 2.4141l1 5c0.99 0.33 1.98 0.66 3 1v2c-0.4125-0.0232-0.825-0.0464-1.25-0.0703-4.863-0.152-9.0928 0.7154-13.75 2.0703 3.2261-7.3321 6.3115-12.781 12.226-18.266 2.3412-2.2897 4.0603-4.4993 4.7735-7.7344-0.0695-2.162-0.4463-3.8857-1-6l-3-2c1.2923-3.5884 2.7707-6.2059 5.125-9.25 3.3084-4.5248 5.8685-9.338 8.3125-14.375 0.354-0.7042 0.708-1.4083 1.0727-2.1338 2.2495-4.7753 3.335-8.9564 2.4898-14.241-0.8985-2.0731-0.8985-2.0731-2.375-3.4375-0.4409-0.4731-0.8818-0.9462-1.336-1.4336-3.0365-2.6593-6.1088-2.536-9.9804-2.4492-3.1023 0.4304-4.6904 1.2909-6.9258 3.4531z" fill="#DEA63C"/><path transform="translate(91.789 101.81)" d="m0 0c1.8388-0.0022 3.677-0.0204 5.5156-0.0393 1.1823-0.0029 2.3646-0.0049 3.5469-0.0059 0.5428-0.0072 1.0857-0.0143 1.6449-0.0217 3.5983 0.0213 6.2382 0.7907 9.5035 2.2522l2.5 0.5c2.7201 0.544 4.9575 1.4103 7.5 2.5 2.5584 5.5584 1.6728 9.3806-0.2734 15.059-1.3646 3.6462-6.8013 5.0313-10.23 6.6523-2.5853 1.1185-4.687 1.4972-7.4961 1.2891v2h-9v3c-3.465 0.495-3.465 0.495-7 1v3c-3.4765 1.0717-6.6551 1.1184-10.25 1.0625-0.5543-0.0045-1.1086-9e-3 -1.6797-0.0137-1.3568-0.0117-2.7135-0.0296-4.0703-0.0488l-1-4c-0.4125-0.098-0.825-0.1959-1.25-0.2969-4.9689-1.2866-9.2099-3.3136-13.75-5.7031l1-10h3v-3l-4 2c0.6088-4.6265 0.6088-4.6265 2.375-6.3125 1.625-0.6875 1.625-0.6875 4.625-0.6875l1-5h3v-2c8.2131-3.0048 16.15-3.1865 24.789-3.1853z" fill="#F2A819"/><path transform="translate(78,55)" d="m0 0 3 3c-0.6511 6.8367-3.432 10.607-8.4375 15.188-4.3973 4.2077-6.378 9.2456-8.5625 14.812 0.4963-0.1444 0.9926-0.2887 1.5039-0.4375 4.6093-1.2595 8.7242-1.8309 13.496-1.5625v-2l-4-2 1-5c3.135-1.8578 5.3747-2.2014 9-2-0.33-0.3713-0.66-0.7425-1-1.125-1.445-2.7093-1.1355-4.8258-1-7.875h2v4h3v-6h3c0.1819 4.0024 0.1601 6.4899-2 10 4.0668 1.0394 4.0668 1.0394 8 0v-2h3l-2 5c1.2568-0.2456 1.2568-0.2456 2.5391-0.4961 3.6257-0.6043 7.1689-0.6162 10.836-0.5664 0.6407 0.0045 1.2813 9e-3 1.9414 0.0137 1.5612 0.0116 3.1224 0.0296 4.6836 0.0488v2c1.98-0.33 3.96-0.66 6-1v-4l-19-1v-3c9.0989-0.4367 16.867-0.6915 25 4l2 2-1 6-1-2-5 1c0.1485 5.4688 1.1802 10.056 3.4375 15 0.2174 0.4806 0.4349 0.9612 0.6589 1.4563 1.3381 2.8338 1.3381 2.8338 3.9036 4.5437v2c0.5981 0.2681 1.1963 0.5362 1.8125 0.8125 2.1597 1.1724 3.5454 2.3812 5.1875 4.1875v3c-2.8967-1.2396-4.882-2.7402-7.0947-4.9705-12.591-12.583-29.041-17.203-46.343-17.217-1.1921-0.0184-1.1921-0.0184-2.4082-0.0371-4.8499-0.0118-9.2328 0.5031-13.936 1.696-2.7106 0.6458-5.4699 1.0705-8.2185 1.5286l-1 14h-3c-0.7487-11.231 2.6249-24.355 10.008-33.208 1.6654-1.7618 3.4338-3.3987 5.2227-5.0337 2.3936-2.3778 3.5257-4.6483 4.7695-7.7578h-2c-0.3364 0.8276-0.3364 0.8276-0.6797 1.6719-1.7198 3.0325-3.9493 5.173-6.4453 7.5781-0.4679 0.4589-0.9359 0.9178-1.418 1.3906-1.1478 1.1244-2.3018 2.2426-3.457 3.3594l-2-2c0.3175-0.3426 0.635-0.6851 0.9622-1.0381 1.452-1.5688 2.9012-3.1403 4.3503-4.7119 0.4995-0.5388 0.999-1.0777 1.5137-1.6328 2.5556-2.7757 4.9864-5.5415 7.1738-8.6172v3h3l-1-4z" fill="#5A2303"/><path transform="translate(128,126)" d="m0 0c13.256-1.2624 24.897 4.4339 36 11v2c0.5981 0.1031 1.1962 0.2063 1.8125 0.3125 2.4699 0.7763 3.51 1.7584 5.1875 3.6875-0.5578 3.8637-1.6267 6.3233-3.875 9.5-2.1633 3.1149-4.2214 6.2215-6.125 9.5h-2l-2 4c-2.7662-0.2964-3.8891-0.8891-5.875-2.875-2.354-3.1635-4.1381-6.7001-5.9312-10.203-1.435-2.7538-2.8925-4.8409-5.1938-6.9224-1.8574-2.3462-2-2.8311-2-6-0.99-0.33-1.98-0.66-3-1v-4l-4-2-1-3h-2v-4z" fill="#8A351D"/><path transform="translate(32,66)" d="m0 0c17.451-0.6192 17.451-0.6192 24 3 0.362 2.7775 0.1762 3.7661-1.5391 6.043-0.6883 0.7077-1.3767 1.4154-2.0859 2.1445-5.4637 5.8276-10.36 11.952-12.375 19.812-0.4009-0.1444-0.8018-0.2887-1.2148-0.4375-6.2468-2.0398-12.432-2.3551-18.785-0.5625 1.7009-11.306 5.9571-20.426 12-30z" fill="#F6941E"/><path transform="translate(127,25)" d="m0 0c1.9784 1.9784 2.8118 3.445 4 5.9375 1.191 2.4889 2.4132 4.8028 4 7.0625-0.7425 0.4125-1.485 0.825-2.25 1.25-4.3804 3.3945-5.3158 9.6541-6.75 14.75h-6v-2c-0.5259 0.4641-0.5259 0.4641-1.0625 0.9375-2.8347 1.5545-5.7542 1.7311-8.9375 2.0625 5.3811 3.0541 11.047 4.5063 17 6v3c-0.6896-0.107-1.3793-0.214-2.0898-0.3242-6.0027-0.7658-10.215-0.7526-15.938 1.6328-2.1155 0.7415-3.7483 0.8158-5.9727 0.6914l1-3c2.31-0.99 4.62-1.98 7-3-2.2632-2.0786-2.2632-2.0786-5-3-1.6682-0.3255-3.335-0.6585-5-1 0.5993-4.5548 0.5993-4.5548 2.125-6.25 2.8672-1.1469 5.8175-1.4317 8.875-1.75-1.4588 0.1411-2.917 0.288-4.375 0.4375-0.8121 0.0812-1.6242 0.1624-2.4609 0.2461-2.2068 0.2073-2.2068 0.2073-4.1641 1.3164v-2h-3l-1 4h-2c0.5098-3.1436 1.0082-5.477 3-8h2l1-4c2.9113-1.2737 5.6381-2.159 8.75-2.8125 6.1354-1.499 12.211-4.1173 15.812-9.5 0.5009-0.8839 0.9894-1.7757 1.4375-2.6875z" fill="#F39220"/><path transform="translate(171,72)" d="m0 0c4.5422 10.631 7.1107 20.47 8 32-3.4349-1.602-5.4455-3.263-8-6v-2l-4-1-2-4c-0.5981-0.1238-1.1962-0.2475-1.8125-0.375-2.1056-0.6016-3.4515-1.323-5.1875-2.625v-2c-0.9281-0.2887-1.8562-0.5775-2.8125-0.875-2.3669-0.7835-4.1156-1.7438-6.1875-3.125-1.9807-0.7472-3.9769-1.3706-6-2 1.753-4.2662 3.8659-5.3249 7.9258-7.1836 6.0766-2.3917 13.895-3.0312 20.074-0.8164z" fill="#88361E"/><path transform="translate(98,150)" d="m0 0h2c6 11.738 6 11.738 6 16h2c0.0856 0.4492 0.1713 0.8983 0.2595 1.3611 0.3887 2.0262 0.7833 4.0513 1.178 6.0764 0.1347 0.7071 0.2694 1.4141 0.4082 2.1426 0.1982 1.0103 0.1982 1.0103 0.4004 2.041 0.1204 0.6232 0.2409 1.2464 0.365 1.8884 0.2669 1.537 0.2669 1.537 1.3889 2.4905 0.0977 1.6289 0.0977 1.6289 0.0625 3.5625-9e-3 0.6407-0.018 1.2813-0.0273 1.9414-0.0116 0.4937-0.0232 0.9874-0.0352 1.4961-2.7017 0.7595-5.0869 1.1203-7.8906 1.0977-0.709-0.0033-1.418-0.0065-2.1485-0.0098-1.0944-0.0126-1.0944-0.0126-2.2109-0.0254-0.7451-0.0045-1.4902-9e-3 -2.2578-0.0137-1.8308-0.0117-3.6615-0.0281-5.4922-0.0488-0.1372-7.0282-0.0242-14.033 1-21l1-1c0.2001-1.1689 0.3458-2.3474 0.4648-3.5273 0.117-1.0645 0.117-1.0645 0.2364-2.1504 0.1571-1.5023 0.3107-3.0049 0.4609-4.5078 0.0793-0.711 0.1586-1.4219 0.2402-2.1543 0.067-0.6535 0.1339-1.307 0.2029-1.9803 0.3948-1.6799 0.3948-1.6799 2.3948-3.6799z" fill="#8C371B"/><path transform="translate(66,48.5)" d="m0 0c1.3434 0.817 2.6806 1.6448 4 2.5l1 5h-2c-0.0812 0.562-0.1624 1.1241-0.2461 1.7031-0.9691 2.9524-2.7273 4.8315-4.8164 7.0469-0.3771 0.4112-0.7541 0.8224-1.1426 1.2461-0.9252 1.0072-1.8592 2.0064-2.7949 3.0039-0.6523-0.2655-1.3045-0.5311-1.9766-0.8047-2.6692-1.0787-5.3439-2.1421-8.0234-3.1953-0.8508-0.3345-0.8508-0.3345-1.7188-0.6758-4.0105-1.4594-8.061-1.9172-12.281-2.3242 5.7748-6.8528 5.7748-6.8528 8.3125-9.25 1.6485-1.7096 2.0632-2.5495 2.6875-4.75 6.9689-2.7876 12.282-3.2228 19 0.5z" fill="#88351D"/><path transform="translate(77.75 29.789)" d="m0 0c2.9805 1.7625 2.9805 1.7625 4.25 3.2109l1 5c-2.97 4.29-5.94 8.58-9 13-4-2-4-2-5.8594-3.5507-2.7554-1.8655-5.1408-2.213-8.3906-2.6368-0.8314-0.1227-0.8314-0.1227-1.6797-0.248-1.3553-0.1986-2.7126-0.383-4.0703-0.5645 0.4666-0.4473 0.9333-0.8946 1.4141-1.3554 1.5708-1.6289 2.5792-3.2976 3.707-5.2461 4.7327-7.5303 9.8308-11.576 18.629-7.6094z" fill="#F09621"/><path transform="translate(132,39)" d="m0 0 2 1c1.9522 0 3.1901-0.3419 5-1 0.6755 0.4937 1.3509 0.9874 2.0469 1.4961 0.9008 0.6475 1.8018 1.2946 2.7031 1.9414 0.4434 0.3255 0.8869 0.651 1.3438 0.9863 2.6014 1.8554 4.7005 3.0138 7.9062 3.5762 1.0035 0.3226 2.0051 0.6518 3 1l-2 1v2l-15 1v2c0.99 0.33 1.98 0.66 3 1-8.262 3.4442-8.262 3.4442-13 3-3.3188-4.425-3.0913-4.2808-2.4141-9.0508 0.8466-3.9854 2.5489-7.084 5.4141-9.9492z" fill="#8B341E"/><path transform="translate(83.375,9.25)" d="m0 0c0.5852 0.067 1.1705 0.1341 1.7734 0.2031 2.3834 0.704 3.9441 1.9839 5.8516 3.5469 0.5368 10.239 0.5368 10.239-3 15-0.7532 1.6433-1.37 3.3039-2 5h-2v-3c-0.6188-0.1031-1.2375-0.2063-1.875-0.3125-2.442-0.7901-2.9648-1.4638-4.125-3.6875-2.31-0.33-4.62-0.66-7-1v-4h2c0.1238-0.9281 0.2475-1.8562 0.375-2.8125 0.4081-2.502 0.9705-4.2021 2.625-6.1875h2v-2c2.2283-1.1141 2.9689-1.0652 5.375-0.75z" fill="#8B361F"/><path transform="translate(127,100)" d="m0 0v1l-9 1c-0.2475-0.7837-0.495-1.5675-0.75-2.375-1.0128-2.6381-1.0128-2.6381-2.875-3.875-3.4041-1.075-6.8294-1.423-10.375-1.75v2h-4v-2h2v-2c-2.31 0.33-4.62 0.66-7 1v3h-15v-2c-0.7361 0.0116-1.4721 0.0232-2.2305 0.0352-0.9758 9e-3 -1.9516 0.018-2.957 0.0273-1.4444 0.0174-1.4444 0.0174-2.918 0.0352-2.7503-0.0928-5.2193-0.4766-7.8945-1.0977v-2c21.731-7.9504 43.729-1.9909 63 9z" fill="#F09220"/><path transform="translate(136,164)" d="m0 0h11l-1 4h3c-0.3125 1.875-0.3125 1.875-1 4-0.9807 0.6947-1.9808 1.363-3 2-0.6072 1.5243-0.6072 1.5243-1 3-4.6378 1.7657-9.2802 3.4661-14 5v1l-10 1v-6c0.3983-0.2539 0.7966-0.5079 1.207-0.7695 3.3741-2.1522 3.3741-2.1522 6.2305-4.918 2.4848-2.0872 5.4048-2.0616 8.5625-2.3125v-6z" fill="#F5A41D"/><path transform="translate(105,69)" d="m0 0c9.0989-0.4367 16.867-0.6915 25 4l2 2-1 6-1-2-5 1c0.4386 6.397 1.745 12.001 4 18-4.5009-1.6879-8.7154-3.8214-13-6l1-10-4-4h-16l1-2h20v2c1.98-0.33 3.96-0.66 6-1v-4l-19-1v-3z" fill="#DD8924"/><path transform="translate(28.5,96.625)" d="m0 0c0.7322-0.0077 1.4644-0.0155 2.2188-0.0234 2.2812 0.3984 2.2812 0.3984 7.2812 3.3984l-1 12c-5.94 0.33-11.88 0.66-18 1v-13c5.692-3.4152 5.692-3.4152 9.5-3.375z" fill="#89361B"/><path transform="translate(120,19)" d="m0 0c8.0756 0.6578 8.0756 0.6578 11 4 0.4004 1.4097 0.7719 2.8277 1.125 4.25 1.7213 5.7813 5.67 7.9054 10.516 10.876 2.2723 1.4601 4.3717 3.1316 6.4844 4.811 0.7451 0.5865 1.4902 1.173 2.2578 1.7773 0.5337 0.4241 1.0674 0.8482 1.6172 1.2852v2c-3.7839-0.6277-6.2314-2.3468-9.25-4.5625-0.4589-0.3294-0.9178-0.6587-1.3906-0.998-1.1238-0.8077-2.2421-1.6229-3.3594-2.4395l-5 2-1-2 1-3c-0.6188-0.7219-1.2375-1.4438-1.875-2.1875-2.0056-2.4892-3.0921-4.8-4.125-7.8125-0.3261 0.3377-0.6523 0.6755-0.9883 1.0234-5.7643 5.8834-5.7643 5.8834-8.5273 6.0899-1.4953 0.0105-2.9906-0.0469-4.4844-0.1133l-1-4c0.99 0.33 1.98 0.66 3 1 0.1212-0.6987 0.2423-1.3973 0.3672-2.1172 0.1676-0.9101 0.3351-1.8201 0.5078-2.7578 0.1624-0.9049 0.3248-1.8098 0.4922-2.7422 0.6328-2.3828 0.6328-2.3828 2.6328-4.3828z" fill="#652F02"/><path transform="translate(171,109)" d="m0 0 4 1c2.1469 17.673 2.1469 17.673 0 25h-3l-1 2-3-2v-2h-3c-1.1581-2.7448-1.1009-5.2344-1.0625-8.1875 9e-3 -0.9011 0.018-1.8021 0.0273-2.7305 0.0116-0.687 0.0232-1.3741 0.0352-2.082h3c0.0374-0.5427 0.0748-1.0854 0.1133-1.6445 0.5436-5.9164 0.5436-5.9164 2.4492-8.3555 0.4744-0.33 0.9487-0.66 1.4375-1z" fill="#F2A71A"/><path transform="translate(89,77)" d="m0 0c1.0538 0.4892 1.0538 0.4892 2.1289 0.9883 4.4648 1.8821 9.6017 1.4099 14.365 1.4902 7.2847 0.2479 7.2847 0.2479 10.506 3.5215l-1 5c-4.5505 1.3203-8.1136 0.6155-12.688-0.375-5.4641-1.1223-10.716-1.9846-16.297-2.2188-2.0156-0.4062-2.0156-0.4062-6.0156-3.4062l11 1v-2c-3.63-0.66-7.26-1.32-11-2 3.1971-2.1314 5.3005-2.5796 9-2z" fill="#E38F35"/><path transform="translate(52,41)" d="m0 0h3v2c1.0867 0.1296 1.0867 0.1296 2.1953 0.2617 6.0359 0.8772 10.709 1.8611 14.805 6.7383l1 2h3c3 4.75 3 4.75 3 7h-3v-3c-2.4637 0.6308-3.5771 1.3919-5.1211 3.3984-0.3783 0.4796-0.7567 0.9591-1.1465 1.4532-0.3861 0.5027-0.7721 1.0054-1.1699 1.5234-2.6079 3.3775-4.9702 6.2192-8.5625 8.625-1.3155-0.4495-2.6274-0.9099-3.9375-1.375-0.7309-0.2552-1.4618-0.5105-2.2148-0.7734-1.8477-0.8516-1.8477-0.8516-2.8477-2.8516 0.9281 0.1444 1.8563 0.2887 2.8125 0.4375 0.7831 0.1218 0.7831 0.1218 1.582 0.2461 1.5971 0.3148 3.0742 0.7692 4.6055 1.3164 1.1303-1.2452 2.2541-2.4964 3.375-3.75 0.9397-1.0441 0.9397-1.0441 1.8984-2.1094 1.6017-1.9857 2.6918-3.8201 3.7266-6.1406h2c-0.6487-2.9194-1.2056-4.4051-3.6328-6.2227-6.8481-3.7463-12.936-3.2636-20.367-1.7773l-1 4h-2c-0.2269 0.5981-0.4537 1.1962-0.6875 1.8125-1.7193 2.8656-3.3835 3.6459-6.3125 5.1875 1.0763-5.5159 3.676-7.8113 7.957-11.32 2.5274-2.078 4.7672-4.3328 7.043-6.6797z" fill="#592007"/><path transform="translate(90,172)" d="m0 0 1 2h2l-1 18h16v1c-20.672 1.2435-38.322-3.2425-56-14v-1c5.5411-0.5224 8.7867 1.1453 13.562 3.8125 7.0146 3.7363 13.62 5.9024 21.438 7.1875 0.049-0.4731 0.098-0.9462 0.1484-1.4336 0.5975-5.2845 1.6187-10.395 2.8516-15.566z" fill="#602F00"/><path transform="translate(88.516 99.734)" d="m0 0c0.5341-0.0019 1.0681-0.0038 1.6183-0.0058 1.1297-0.0014 2.2594 0.0023 3.389 0.0107 1.7076 0.0106 3.4141 1e-4 5.1216-0.0127 5.1461-0.0061 10.027 0.036 14.937 1.7837 2.4142 0.8334 4.8975 1.1208 7.4187 1.4897l1-2h5v2h2v2l-2 1c-0.1934 0.8689-0.3867 1.7377-0.586 2.6328-0.2628 1.1641-0.5259 2.3282-0.789 3.4922-0.1895 0.8547-0.1895 0.8547-0.3828 1.7266-0.8658 3.8095-1.953 7.4601-3.2422 11.148l-4 1-1 2c-3.4048 2.8553-6.5636 4.4163-11 5-1.3355 0.3249-2.6696 0.6551-4 1 0.6989-2.1286 1.3466-3.6124 3.3193-4.7827 1.6673-0.7037 3.3437-1.3184 5.0557-1.9048 0.8662-0.3181 0.8662-0.3181 1.75-0.6426 2.9261-1.0588 5.8344-1.9884 8.875-2.6699 0.0909-0.6709 0.0909-0.6709 0.1836-1.3554 0.0838-0.6046 0.1675-1.2092 0.2539-1.8321 0.0876-0.6406 0.1753-1.2813 0.2656-1.9414 0.2969-1.8711 0.2969-1.8711 0.9844-4.4961 0.3924-2.9823-0.3908-4.7052-1.6875-7.375-4.455-0.99-4.455-0.99-9-2l-1-2-31-1c3.3759-2.2506 4.5612-2.2566 8.5156-2.2656z" fill="#F39A1A"/><path transform="translate(158,70)" d="m0 0 1 2c-0.5801 0.098-1.1602 0.1959-1.7578 0.2969-5.2347 1.002-9.0819 2.3422-13.242 5.7031v2c1.2375 0.3713 1.2375 0.3713 2.5 0.75 6.0784 2.0453 11.124 4.5495 15.5 9.25 0.5156 0.165 1.0312 0.33 1.5625 0.5 2.2239 0.7735 3.053 2.6541 4.4375 4.5 1.5886 0.7829 1.5886 0.7829 3 1v2c0.4499 0.0915 0.8998 0.183 1.3633 0.2773 2.2125 0.9769 2.709 2.1701 3.8242 4.2852 0.3442 0.6407 0.6884 1.2813 1.043 1.9414 0.2539 0.4937 0.5079 0.9874 0.7695 1.4961l-1 2c-0.3059-0.3216-0.6118-0.6432-0.927-0.9746-9.8993-10.336-18.847-18.429-32.518-23.115-2.5547-0.9102-2.5547-0.9102-3.5547-1.9102v-5c4.7831-4.3202 11.402-9.3191 18-7z" fill="#622104"/><path transform="translate(33,67)" d="m0 0h7v3l-4 2c0.0348 0.5195 0.0696 1.039 0.1055 1.5742 0.1854 4.7773-0.2062 7.4527-3.1055 11.426-0.4832 0.8937-0.9624 1.7895-1.4375 2.6875-1.6697 2.4711-2.8134 3.2697-5.5625 4.3125l1-4h-3l-1 3c1.6937-14.262 1.6937-14.262 6.7812-19.676 1.25-1.3581 2.2326-2.7672 3.2188-4.3242z" fill="#F3A217"/><path transform="translate(60,152)" d="m0 0c-0.6401 2.6472-1.2881 5.2925-1.9375 7.9375-0.1824 0.7547-0.3648 1.5095-0.5527 2.2871-0.1773 0.7187-0.3545 1.4373-0.5371 2.1777-0.1624 0.6651-0.3247 1.3302-0.492 2.0154-0.4807 1.5823-0.4807 1.5823-1.4807 2.5823-0.2292 1.1802-0.4107 2.3699-0.5625 3.5625-0.0838 0.6407-0.1676 1.2813-0.2539 1.9414-0.0606 0.4937-0.1212 0.9874-0.1836 1.4961l-5-2v-2c-0.9281-0.4331-0.9281-0.4331-1.875-0.875-2.125-1.125-2.125-1.125-4.125-3.125 0-3 0-3 0.918-4.2461 8.2623-7.7539 8.2623-7.7539 11.082-7.7539v-2c2.75-2 2.75-2 5-2z" fill="#86361D"/><path transform="translate(49,40)" d="m0 0 4 1-7 7h-2l-2 4c-0.99 0.33-1.98 0.66-3 1v2c-0.7013 0.66-1.4025 1.32-2.125 2-11.831 11.965-17.845 27.496-19.875 44h-1c-0.6332-10.3 0.1344-17.874 5-27 0.2464-0.4906 0.4927-0.9813 0.7466-1.4868 4.416-8.7552 10.397-15.573 17.253-22.513 0.4857-0.494 0.9713-0.9881 1.4717-1.4971 2.8182-2.8597 5.6614-5.692 8.5283-8.5029z" fill="#D69E35"/><path transform="translate(82,68)" d="m0 0v7l-6 3 1 5 2 1v2c-1.7492 0.3378-3.4992 0.6703-5.25 1-0.4911 0.0954-0.9823 0.1908-1.4883 0.2891-2.7928 0.5213-5.4213 0.8191-8.2617 0.7109 0.7194-7.6739 6.0967-13.433 11.352-18.652 2.4389-1.9939 3.7884-2.7777 6.6484-1.3477z" fill="#F3B238"/><path transform="translate(21,120)" d="m0 0h7c3.1937 8.8442 5.6453 17.536 5 27h-3v-2l-4-1c-0.1328-0.7825-0.2655-1.5649-0.4023-2.3711-0.1782-1.0222-0.3566-2.0443-0.5352-3.0664-0.1305-0.7744-0.1305-0.7744-0.2637-1.5645-0.3495-2.7513-0.3495-2.7513-1.7988-4.998v-8h-2v-4z" fill="#F3A21C"/><path transform="translate(71,15)" d="m0 0 3 2-1 4h-2v4h7c0.4331 0.6394 0.8663 1.2788 1.3125 1.9375 1.6318 1.9944 2.2371 2.5958 4.6875 3.0625l-1 5c-0.4241-0.3493-0.8482-0.6987-1.2852-1.0586-3.9548-3.0683-7.5304-5.5506-12.715-4.9414-5.7639 2.358-9.5374 7.4592-12 13l-4-1c1.451-3.2943 3.292-5.5723 5.75-8.1875 4.9477-5.3919 9.0667-11.193 12.25-17.812z" fill="#5D2507"/><path transform="translate(76,29)" d="m0 0v1h-8c-0.2475 0.6187-0.495 1.2375-0.75 1.875-1.4563 2.4757-2.6281 3.0763-5.25 4.125v4l2 1v3c0.8044-0.495 0.8044-0.495 1.625-1 3.0232-1.2729 5.117-1.1481 8.375-1v2h2l1-2h2l1-5 2 1c-1.5866 5.077-4.7347 8.8618-8 13-2.192-1.0177-3.9958-1.9965-5.8594-3.5508-2.7554-1.8654-5.1408-2.213-8.3906-2.6367-0.8314-0.1228-0.8314-0.1228-1.6797-0.248-1.3553-0.1987-2.7126-0.383-4.0703-0.5645 0.4666-0.4473 0.9333-0.8946 1.4141-1.3555 1.5708-1.6289 2.5792-3.2975 3.707-5.2461 4.5733-7.2767 8.2894-10.184 16.879-8.3984z" fill="#D2872A"/><path transform="translate(168,102)" d="m0 0 1 3 5-1c0.8161 0.6203 1.6277 1.2465 2.4375 1.875 0.4525 0.348 0.9049 0.6961 1.3711 1.0547 1.1914 1.0703 1.1914 1.0703 2.1914 3.0703-0.054 8.2898-1.7631 16.065-4 24-1.1016-2.6644-1.115-5.0214-1.0977-7.8867 0.0033-0.9378 0.0065-1.8756 0.0098-2.8418 0.0126-1.4647 0.0126-1.4647 0.0254-2.959 0.0045-0.9881 9e-3 -1.9761 0.0137-2.9941 0.0118-2.4396 0.0282-4.8789 0.0488-7.3184l-5 1-3 9h-3c0.4763-4.349 1.331-7.9319 3-12 0.4278-1.9964 0.7175-3.9755 1-6z" fill="#F29D21"/><path transform="translate(98,150)" d="m0 0h2c6 11.738 6 11.738 6 16h2v4h-2l-1-5c-1.4231-0.0309-1.4231-0.0309-2.875-0.0625-0.5337-0.0116-1.0673-0.0232-1.6172-0.0352-1.6545 0.0092-1.6545 0.0092-3.5078 1.0977-0.0374 0.6033-0.0748 1.2066-0.1133 1.8281-0.0986 1.1989-0.0986 1.1989-0.1992 2.4219-0.058 0.7889-0.116 1.5778-0.1758 2.3906-0.5967 2.7512-1.6983 4.2398-3.5117 6.3594-0.0269-1.6457-0.0463-3.2916-0.0625-4.9375-0.0116-0.9165-0.0232-1.833-0.0352-2.7773 0.0977-2.2852 0.0977-2.2852 1.0977-3.2852 0.2001-1.1689 0.3458-2.3474 0.4648-3.5273 0.078-0.7097 0.156-1.4193 0.2364-2.1504 0.1571-1.5023 0.3107-3.0049 0.4609-4.5078 0.0793-0.711 0.1586-1.4219 0.2402-2.1543 0.067-0.6535 0.1339-1.307 0.2029-1.9803 0.3948-1.6799 0.3948-1.6799 2.3948-3.6799z" fill="#843621"/><path transform="translate(164,161)" d="m0 0 1 2c-2.1837 4.0226-4.6491 6.9048-8 10-0.5311 0.5246-1.0622 1.0493-1.6094 1.5898-7.6443 7.2034-21.677 17.363-32.559 17.422-1.957-0.2617-1.957-0.2617-4.832-1.0117 3.0711-1.662 6.0897-2.6529 9.4375-3.625 14.062-4.4548 27.656-14.687 36.562-26.375z" fill="#DEA438"/><path transform="translate(27,145)" d="m0 0h3v2c0.99 0.33 1.98 0.66 3 1v6h2l2 2h3v2h4v-3h4v-2h3l-1-5c1.8758-1.5905 2.7603-2.0025 5.2617-1.9766 0.8005 0.1161 1.601 0.2321 2.4258 0.3516 0.8082 0.1109 1.6165 0.2217 2.4492 0.3359 0.9223 0.1431 0.9223 0.1431 1.8633 0.2891l-1 2c-0.7425 0.1238-1.485 0.2475-2.25 0.375-2.5514 0.5799-4.4768 1.3621-6.75 2.625-0.0864 0.4215-0.1727 0.843-0.2617 1.2773-1.0277 2.3979-2.5802 3.5924-4.5508 5.2852-0.6871 0.5994-1.3741 1.1988-2.082 1.8164-1.9711 1.5176-3.8451 2.6001-6.1055 3.6211-9.7523-12.407-9.7523-12.407-12-19z" fill="#E98F2B"/><path transform="translate(116,79)" d="m0 0c4.2516 1.2991 6.7395 3.0825 9 7 4 8.7285 4 8.7285 4 12-4.4954-1.6858-8.7277-3.8162-13-6 0.1257-1.0306 0.1257-1.0306 0.2539-2.082 0.1018-0.9011 0.2037-1.8021 0.3086-2.7305 0.1044-0.8933 0.2088-1.7866 0.3164-2.707 0.1086-2.2239 0.0169-3.4832-0.8789-5.4805z" fill="#C06A22"/><path transform="translate(112,23)" d="m0 0v1h-5c-2.36 3.776-2.6003 7.6667-3 12-0.5917 0.3403-1.1834 0.6806-1.793 1.0312-7.306 4.4814-11.362 9.1047-13.52 17.469-0.2439 1.1637-0.4789 2.3295-0.6875 3.5h-2c-0.5926-7.2206 1.3492-12.154 5.8125-17.812 2.8257-3.1585 5.0753-4.3063 9.1875-5.1875-0.0619-0.8869-0.1238-1.7737-0.1875-2.6875-0.0085-3.5872 1.0651-5.4554 3.1875-8.3125 2.7815-1.3908 4.9022-1.0673 8-1z" fill="#D9A53E"/><path transform="translate(82,43)" d="m0 0c1.268 2.5361 0.7793 3.176-0.0625 5.8125-1.0686 3.8851-0.8961 5.7055 1.0625 9.1875h5c-0.2887 0.4241-0.5775 0.8482-0.875 1.2852-2.7322 4.3165-3.8962 7.607-3.125 12.715 0.3076 1.0082 0.6338 2.0116 1 3h-3l-1-7h-3c0.3506-0.8663 0.7013-1.7325 1.0625-2.625 1.1806-3.4676 0.7768-5.8497-0.0625-9.375l-3-2c1.4511-4.1115 3.4852-7.4475 6-11z" fill="#E0A93D"/><path transform="translate(89,77)" d="m0 0c0.7386 0.3223 1.4773 0.6445 2.2383 0.9766 3.4023 1.2608 6.4767 1.4706 10.074 1.6484 0.9678 0.058 0.9678 0.058 1.9551 0.1172 1.577 0.0934 3.1547 0.1767 4.7324 0.2578v1h-12v2l8 1c-3.8903 2.6239-7.5282 2.1325-12 1.8125-0.7116-0.0316-1.4231-0.0632-2.1562-0.0957-1.0365-0.0667-1.0365-0.0667-2.0938-0.1348-0.6239-0.0389-1.2478-0.0778-1.8906-0.1179-1.8594-0.4641-1.8594-0.4641-5.8594-3.4641l11 1v-2c-3.63-0.66-7.26-1.32-11-2 3.1971-2.1314 5.3005-2.5796 9-2z" fill="#D2893C"/><path transform="translate(32,66)" d="m0 0c17.451-0.6192 17.451-0.6192 24 3 0.4019 2.8927 0.1102 3.849-1.6445 6.2539-0.7127 0.7788-1.4358 1.5482-2.168 2.3086-0.3564 0.3861-0.7129 0.7721-1.0801 1.1699-1.9859 2.139-4.0307 4.2171-6.1074 6.2676v-5l2-1v-7c1.98-0.33 3.96-0.66 6-1v-2c-6.6961-0.7978-13.258-1.1291-20-1l-4 6c0-3.7655 0.9941-4.9076 3-8z" fill="#E1892B"/><path transform="translate(118.31 190.94)" d="m0 0c1.3245 0.0135 1.3245 0.0135 2.6758 0.0273 0.9958 0.0174 0.9958 0.0174 2.0117 0.0352-4.6496 4.6496-12.562 4.2372-18.826 4.2758-1.1192-0.0016-2.2383-0.0066-3.3574-0.0151-1.6828-0.0106-3.3646 0-5.0474 0.0127-7.1421 0.0079-13.788-0.7345-20.77-2.2734v-1c1.4602 0.0079 1.4602 0.0079 2.95 0.0159 3.6248 0.0181 7.2496 0.0296 10.874 0.039 1.5664 5e-3 3.1328 0.0119 4.6992 0.0205 2.2564 0.0122 4.5128 0.0179 6.7693 0.0223 0.696 0.0051 1.392 0.0103 2.1091 0.0156 5.4022 6e-4 10.519-1.2477 15.91-1.1758z" fill="#DBA646"/><path transform="translate(89,63)" d="m0 0 2 1c0.1866 4.1061 0.0145 6.3487-2 10v3l-8 2v2h-2v2l-4-1 1-5c3.135-1.8578 5.3747-2.2014 9-2-0.33-0.3713-0.66-0.7425-1-1.125-1.445-2.7093-1.1355-4.8258-1-7.875h2v4h3c-0.0206-0.9694-0.0413-1.9387-0.0625-2.9375-0.0352-1.6523-0.0352-1.6523 0.0625-3.0625l1-1z" fill="#512206"/><path transform="translate(152,168)" d="m0 0 5 1c-8.5612 9.0962-19.416 17.237-32 19l-3-2c0.7876-0.2681 1.5752-0.5362 2.3867-0.8125 8.1082-2.8764 15.186-6.6221 22.359-11.359 1.0159-0.6707 2.0453-1.321 3.0784-1.9648 1.5025-1.1032 1.7699-2.0775 2.1758-3.8633z" fill="#632C03"/><path transform="translate(31.438 113.88)" d="m0 0c0.865 0.018 1.7299 0.0361 2.6211 0.0547 1.9414 0.0703 1.9414 0.0703 3.9414 2.0703 0.4141 1.9453 0.4141 1.9453 0.625 4.125 0.0748 0.7245 0.1495 1.4489 0.2266 2.1953 0.0734 0.8315 0.0734 0.8315 0.1484 1.6797h-2c-1-2-1-2-1-8l-15 1v7h2c0.0735 0.7444 0.0735 0.7444 0.1484 1.5039 0.4564 4.1467 1.1519 7.9188 2.5469 11.856 0.3909 2.105-0.0704 3.6163-0.6953 5.6406-3.8565-8.8363-5.1136-17.449-6-27 4.2338-1.3683 7.9419-2.2482 12.438-2.125z" fill="#DC9033"/><path transform="translate(147,126)" d="m0 0c1.104-0.0272 2.2083-0.0465 3.3125-0.0625 0.6149-0.0116 1.2298-0.0232 1.8633-0.0352 1.805 0.0967 3.1319 0.5035 4.8242 1.0977 0.6394-0.0413 1.2788-0.0825 1.9375-0.125 2.7572 0.1671 4.0055 1.3618 6.0625 3.125v3h3v2h1.8125 5.1875l-1 5c-3.6892 0-4.4449-0.8984-7.3125-3.125-6.0233-4.4927-12.735-7.1401-19.688-9.875v-1z" fill="#F0932D"/><path transform="translate(160,56)" d="m0 0c1.6895 1.7123 3.031 3.5726 4.375 5.5625 0.3545 0.4944 0.709 0.9887 1.0742 1.498 2.5508 3.6391 2.5508 3.6391 2.5508 5.9395h-14v-2l8 1-1-8h-3l-1-3c-2.2009-0.8425-4.0039-1.1192-6.3555-1.0977-0.6219 0.0033-1.2439 0.0065-1.8847 0.0098-0.9639 0.0126-0.9639 0.0126-1.9473 0.0254-0.9813 0.0068-0.9813 0.0068-1.9824 0.0137-1.6101 0.0117-3.2201 0.0297-4.8301 0.0488 5.2387-5.2387 14.286-3.9226 20 0z" fill="#D58530"/><path transform="translate(120,19)" d="m0 0c2.31 0.33 4.62 0.66 7 1l2 4h-3v-2l-5 2-2 7 5-6 1 4-5 5h-6l-1-4c0.99 0.33 1.98 0.66 3 1 0.1212-0.6987 0.2423-1.3973 0.3672-2.1172 0.1676-0.9101 0.3351-1.8201 0.5078-2.7578 0.1624-0.9049 0.3248-1.8098 0.4922-2.7422 0.6328-2.3828 0.6328-2.3828 2.6328-4.3828z" fill="#582208"/><path transform="translate(115,64)" d="m0 0-5 1v2h9l1 2h-15v3c0.469-0.0105 0.938-0.0209 1.4211-0.0317 2.1304-0.0417 4.2608-0.0677 6.3914-0.0933 0.738-0.0168 1.476-0.0335 2.2363-0.0508 0.7122-0.0064 1.4244-0.0129 2.1582-0.0195 0.6546-0.0105 1.3092-0.021 1.9837-0.0318 1.8093 0.2271 1.8093 0.2271 4.8093 2.2271h-20v-8c7.4286-3.5714 7.4286-3.5714 11-2z" fill="#E18B2E"/><path transform="translate(31,72)" d="m0 0c-0.0116 0.5427-0.0232 1.0854-0.0352 1.6445-9e-3 0.7155-0.018 1.4309-0.0273 2.168-0.0116 0.7077-0.0232 1.4154-0.0352 2.1445 0.0151 2.2461 0.0151 2.2461 1.0977 5.043l-3 6-5-1-1 3c2.2563-19 2.2563-19 8-19z" fill="#F5A520"/><path transform="translate(174,120)" d="m0 0h2c0.0272 1.7499 0.0465 3.4999 0.0625 5.25 0.0116 0.9745 0.0232 1.9491 0.0352 2.9531-0.0857 2.4545-0.3906 4.4586-1.0977 6.7969h-3l-1 2-3-2v-2h-3v-3h5v-2l2-1 2-7z" fill="#F79A1D"/><path transform="translate(105,69)" d="m0 0c9.0989-0.4367 16.867-0.6915 25 4 2 2 2 2 2 5-0.5156-0.2681-1.0312-0.5362-1.5625-0.8125-0.8044-0.3919-1.6087-0.7837-2.4375-1.1875-0.486-0.2469-0.972-0.4937-1.4727-0.748-4.6787-2.2177-8.8255-2.7749-13.965-2.9395-1.0973-0.0512-1.0973-0.0512-2.2168-0.1035-1.7817-0.0815-3.5631-0.151-5.3457-0.209v-3z" fill="#682B05"/><path transform="translate(117,92)" d="m0 0c1.9193 0.9325 3.8353 1.8707 5.75 2.8125 0.8082 0.3916 0.8082 0.3916 1.6328 0.791 3.1267 1.5443 5.8891 3.1915 8.6172 5.3965v2c0.5981 0.2681 1.1962 0.5362 1.8125 0.8125 2.1597 1.1724 3.5454 2.3812 5.1875 4.1875v3c-3.4771-1.4857-5.8409-3.6422-8.5-6.25-5.2187-4.9399-10.964-7.8861-17.5-10.75l3-2z" fill="#672A03"/><path transform="translate(37,163)" d="m0 0c2.97 0.495 2.97 0.495 6 1 0.1856 0.7012 0.3713 1.4025 0.5625 2.125 1.7363 4.4359 6.2784 7.7954 10.438 9.875l1-6h2l-1 8c-5.4335-0.4262-8.0238-1.2647-12-5v-2c-0.5981-0.2475-1.1962-0.495-1.8125-0.75-2.5038-1.4307-3.6682-2.8192-5.1875-5.25v-2z" fill="#572604"/><path transform="translate(80,37)" d="m0 0 2 1c-1.5866 5.077-4.7347 8.8618-8 13-2.9345-1.4179-5.4333-2.9833-8-5l2-4h6v2h2l1-2h2l1-5z" fill="#EA8D27"/><path transform="translate(138,147)" d="m0 0c3.2481 3.1097 5.6199 6.5982 8.125 10.312 0.455 0.6516 0.9101 1.3032 1.3789 1.9746 2.6682 3.9548 4.1258 6.9364 4.4961 11.713l-5 4c-0.99-0.33-1.98-0.66-3-1 1-2 1-2 2.5625-2.625 0.4744-0.1238 0.9487-0.2475 1.4375-0.375l1-3h-3l1-5c-0.5966-0.9631-1.2027-1.9203-1.8125-2.875-0.3364-0.5337-0.6729-1.0673-1.0195-1.6172-1.0814-1.5843-1.0814-1.5843-2.7305-2.4453-1.997-1.4761-2.1233-2.795-2.625-5.1875-0.1586-0.7245-0.3171-1.4489-0.4805-2.1953-0.1095-0.5543-0.2191-1.1086-0.332-1.6797z" fill="#D48433"/><path transform="translate(40,117)" d="m0 0c1.501 2.8763 2.6872 5.7717 3.8125 8.8125 1.924 4.8713 4.2765 10.732 9.1875 13.188v3c-2.8739-0.3411-3.8584-0.841-5.8164-3.0391-0.596-0.8524-1.1775-1.715-1.7461-2.5859-0.3023-0.4522-0.6046-0.9044-0.916-1.3704-3.6788-5.6209-6.2468-9.8646-4.8457-16.719 0.107-0.4241 0.214-0.8482 0.3242-1.2852z" fill="#6A2806"/><path transform="translate(125,60)" d="m0 0c1.7812 1.5586 1.7812 1.5586 3 3-2.6166 1.1355-4.3542 0.8815-7.125 0.375-4.5135-0.5964-7.6538 0.2364-11.832 1.9336-2.1441 0.7256-3.7967 0.8176-6.043 0.6914l1-3c6.9868-3.0949 13.313-5.3951 21-3z" fill="#753006"/><path transform="translate(102,72)" d="m0 0h2v2h20l1 4h-7v-2l-20 1 4-5z" fill="#FA951E"/><path transform="translate(80,103)" d="m0 0v1l-8 1-1 4-5 1c-0.3919 0.7631-0.7837 1.5263-1.1875 2.3125-2.1456 3.6067-5.125 4.8437-8.8125 6.6875 0.6088-4.6265 0.6088-4.6265 2.375-6.3125 1.625-0.6875 1.625-0.6875 4.625-0.6875l1-5h3v-2c4.5117-1.7607 8.1718-2.2571 13-2z" fill="#F39B18"/><path transform="translate(106,26)" d="m0 0h6l4 5h-2l-1 3h-7l-2-2c0.875-4.875 0.875-4.875 2-6z" fill="#5B2B07"/><path transform="translate(90,172)" d="m0 0 1 2h2l-1 16h-3v-2h-2c0.6917-5.418 1.758-10.682 3-16z" fill="#743017"/><path transform="translate(37,55)" d="m0 0 1 3h3l-4 3c1.4541 0.1547 1.4541 0.1547 2.9375 0.3125 4.5484 0.6338 8.7567 2.1351 13.062 3.6875l-2 2c-5.94-0.33-11.88-0.66-18-1v-1l8-1c-2.97-0.495-2.97-0.495-6-1v-2l-2-1 4-5z" fill="#6B2D06"/><path transform="translate(135,36)" d="m0 0c4.9657 0.4855 7.8802 1.8651 11.812 4.875 0.4892 0.3519 0.9784 0.7038 1.4824 1.0664 2.513 1.87 3.8954 2.9385 4.7051 6.0586-3.7839-0.6277-6.2314-2.3468-9.25-4.5625-0.6884-0.494-0.6884-0.494-1.3906-0.998-1.1238-0.8077-2.2421-1.6229-3.3594-2.4395l-5 2-1-2 2-4z" fill="#4F2304"/><path transform="translate(42,85)" d="m0 0h3c-1.5893 4.0343-3.2795 8.02-5 12-0.4009-0.1444-0.8018-0.2887-1.2148-0.4375-6.2468-2.0398-12.432-2.3551-18.785-0.5625l1-6 2 2c1.8345 0.3676 1.8345 0.3676 3.9141 0.4141 1.1408 0.058 1.1408 0.058 2.3047 0.1171 0.794 0.031 1.5881 0.0619 2.4062 0.0938 0.8018 0.0387 1.6036 0.0773 2.4297 0.1172 1.9815 0.0943 3.9631 0.1799 5.9453 0.2578v-5h2v-3z" fill="#DE8F2E"/><path transform="translate(94,150)" d="m0 0h2c0.1549 8.4-0.0302 16.08-3 24h-2c-0.2071-5.6994 0.3535-10.922 1.5-16.5 0.1431-0.727 0.2862-1.4541 0.4336-2.2031 0.3488-1.7671 0.7043-3.5325 1.0664-5.2969z" fill="#5A1E06"/><path transform="translate(98,48)" d="m0 0h3l-2 12h-5l-1 3v-9c0.6394-0.4331 1.2788-0.8663 1.9375-1.3125 1.9944-1.6318 2.5958-2.2371 3.0625-4.6875z" fill="#FB931B"/><path transform="translate(83,35)" d="m0 0 4 1c-3.0301 5.5434-6.4479 10.778-10 16l-5 1c0-2 0-2 0.918-3.0078 0.4189-0.3687 0.8379-0.7374 1.2695-1.1172 3.9244-3.7567 7.3081-8.6097 8.8125-13.875z" fill="#612C03"/><path transform="translate(33,151)" d="m0 0c1.2707-0.0272 2.5416-0.0465 3.8125-0.0625 0.7077-0.0116 1.4154-0.0232 2.1445-0.0352 1.901 0.0909 3.2886 0.3948 5.043 1.0977 0.7866 1.8353 1.0722 2.7215 0.5625 4.6875-0.1856 0.4331-0.3713 0.8663-0.5625 1.3125h-4v-2l-4 1-1-3h-2v-3z" fill="#F2A418"/><path transform="translate(52,178)" d="m0 0c5.3731-0.4629 8.6911 0.9673 13.375 3.5 0.6407 0.3339 1.2813 0.6677 1.9414 1.0117 1.5673 0.8187 3.1278 1.6481 4.6836 2.4883l-1 3c-4.6285-1.3928-8.6582-3.2781-12.875-5.625-0.593-0.3248-1.1859-0.6497-1.7969-0.9844-1.4452-0.7925-2.8877-1.5894-4.3281-2.3906v-1z" fill="#692D03"/><path transform="translate(27,145)" d="m0 0h3v2c0.99 0.33 1.98 0.66 3 1v6h2l2 2h3l1 5c-0.99 0.33-1.98 0.66-3 1-5.0061-5.1953-8.0413-10.493-11-17z" fill="#EB9822"/><path transform="translate(128,126)" d="m0 0c9.41-0.1845 9.41-0.1845 14 1v1h-8c0.5259 0.8663 0.5259 0.8663 1.0625 1.75 1.0867 2.608 0.8682 3.6442-0.0625 6.25l-5-4v-2h-2v-4z" fill="#7F3616"/><path transform="translate(68,30)" d="m0 0h4v4h-2c-0.2681 0.5981-0.5362 1.1962-0.8125 1.8125-1.1724 2.1597-2.3812 3.5454-4.1875 5.1875l-5-1 2-1v-3c0.3493-0.2655 0.6987-0.5311 1.0586-0.8047 0.455-0.3532 0.9101-0.7064 1.3789-1.0703 0.4525-0.348 0.9049-0.6961 1.3711-1.0547 1.3493-1.0806 1.3493-1.0806 2.1914-3.0703z" fill="#F49E23"/><path transform="translate(107,91)" d="m0 0c4.8426 0.5924 8.5839 2.7196 12.812 5.0625 0.6929 0.3771 1.3857 0.7541 2.0996 1.1426 1.6993 0.9258 3.395 1.8575 5.0879 2.7949v1l-9 1-2-5-8-3-1-3z" fill="#E98F2A"/><path transform="translate(38,96)" d="m0 0-1 3c-0.5685-0.1611-1.137-0.3223-1.7227-0.4883-5.583-1.2545-11.162-1.1518-16.277 1.4883v-2h2v-3c5.4568-2.1723 11.846-1.6602 17 1z" fill="#622507"/><path transform="translate(19,90)" d="m0 0h1l1 8h-2l-1 16-2 1c-0.2124-8.1877-0.3681-16.066 2-24l1-1z" fill="#531C00"/><path transform="translate(32,61)" d="m0 0h3v2h7l-1 2-8 1-5 8h-2c0.4048-5.5327 2.5686-8.7202 6-13z" fill="#5F2C02"/><path transform="translate(130,43)" d="m0 0h2c-0.3094 0.6806-0.6188 1.3612-0.9375 2.0625-1.3141 3.2432-1.6551 6.4749-2.0625 9.9375l8-1-1 3c-2.31 0.33-4.62 0.66-7 1-3.3213-4.4284-3.0847-4.3704-2.4219-9.1758 0.566-2.4473 1.7382-3.9941 3.4219-5.8242z" fill="#561F02"/><path transform="translate(144,44)" d="m0 0c2.8672 0.5734 3.8615 0.8615 6 3h5l1 2h-2v2l-11 1 1-8z" fill="#82381D"/><path transform="translate(33,97)" d="m0 0c1.9936 0.8011 3.284 1.6715 5 3-2.6518 0.9546-4.5933 0.9838-7.3125 0.5-3.785-0.6472-6.9236-0.1913-10.688 0.5v11h-1v-12c5.3537-3.2122 8.0129-3.8445 14-3z" fill="#833922"/><path transform="translate(76,60)" d="m0 0h2c-1.278 6.3901-5.3793 9.7259-10 14l-2 2c-0.99-0.33-1.98-0.66-3-1 4.2947-5.0341 8.6343-10.027 13-15z" fill="#D2883E"/><path transform="translate(179,116)" d="m0 0h3c0.5292 6.8405-0.9997 12.523-3 19-1.3496-1.6791-1.991-2.6246-2.0435-4.8093 0.0943-0.6546 0.1886-1.3092 0.2857-1.9837 0.0967-0.7122 0.1933-1.4244 0.293-2.1582 0.1121-0.738 0.2243-1.4759 0.3398-2.2363 0.1566-1.1244 0.1566-1.1244 0.3164-2.2715 0.2591-1.8487 0.5289-3.6953 0.8086-5.541z" fill="#642F06"/><path transform="translate(176,107)" d="m0 0c1.4375 0.375 1.4375 0.375 3 1 3.4583 6.9166-0.9994 18.904-3 26-0.9299-2.303-1.0437-3.8201-0.625-6.2578 0.0988-0.6219 0.1975-1.2438 0.2993-1.8845 0.1075-0.6543 0.215-1.3086 0.3257-1.9827 0.8799-5.8164 1.1677-11.052 0-16.875z" fill="#E38D31"/><path transform="translate(184,101)" d="m0 0h1c0.2121 9.874 0.3778 19.362-2 29l-2-2c0.31-3.1878 0.6234-6.3751 0.9375-9.5625 0.087-0.8953 0.174-1.7905 0.2637-2.7129 0.4876-4.9301 1.053-9.8267 1.7988-14.725z" fill="#E9AE3C"/><path transform="translate(88,52)" d="m0 0h1v7l2 1c-0.3094 0.9075-0.6188 1.815-0.9375 2.75-0.8006 2.3961-1.494 4.7865-2.0625 7.25h-3v-4l-2-1c0.2771-0.3519 0.5543-0.7038 0.8398-1.0664 2.8671-3.9078 3.8749-7.1126 4.1602-11.934z" fill="#6D380D"/><path transform="translate(57,172)" d="m0 0h2v4h10l-1 2h-4l-1 4-7-4 1-6z" fill="#E79228"/><path transform="translate(130,46)" d="m0 0c2 2 2 2 2 5l10 3-4 3-2-1v-1h-7c-0.125-6.75-0.125-6.75 1-9z" fill="#75321E"/><path transform="translate(139,180)" d="m0 0c-18.342 8.5304-18.342 8.5304-24 8l1-4v2l2-1c2.0089-0.1301 3.9843-0.0438 6 0v-2c0.7631-0.1238 1.5263-0.2475 2.3125-0.375 2.5226-0.5867 3.6305-1.1941 5.6875-2.625 2.8157-0.9679 4.2502-1.039 7 0z" fill="#E09538"/><path transform="translate(36,116)" d="m0 0-2 1v3h-13v-3c4.956-1.3216 9.902-1.0891 15-1z" fill="#F29525"/><path transform="translate(36,114)" d="m0 0c2.2958 2.2958 2.3234 3.0084 2.625 6.125 0.0748 0.7245 0.1495 1.4489 0.2266 2.1953 0.0734 0.8315 0.0734 0.8315 0.1484 1.6797h-2c-1-2-1-2-1-8l-14 1-2-2c5.3498-1.1263 10.547-1.097 16-1z" fill="#D4862E"/><path transform="translate(126,105)" d="m0 0h4v3h2l1 3c-1.1447 0.6497-1.1447 0.6497-2.3125 1.3125-2.2128 1.3201-3.9494 2.7664-5.6875 4.6875-0.1845-8.4465-0.1845-8.4465 1-12z" fill="#FA951E"/><path transform="translate(55,77)" d="m0 0c0.99 1.32 1.98 2.64 3 4l-4-1-1 9-5 1-1-3c1.145-1.4798 2.291-2.9589 3.4375-4.4375 0.3255-0.4209 0.651-0.8418 0.9863-1.2754 2.4629-3.1738 2.4629-3.1738 3.5762-4.2871z" fill="#E48C2B"/><path transform="translate(71,78)" d="m0 0 1 4c1.1756 0.2166 1.1756 0.2166 2.375 0.4375 2.625 0.5625 2.625 0.5625 4.625 1.5625v2h-13c0-2 0-2 1.9375-4 1.0209-0.99 1.0209-0.99 2.0625-2l1-2z" fill="#F0B447"/><path transform="translate(92,49)" d="m0 0c0.909 3.0484 1.0617 5.5966 0.8789 8.7656-0.0483 0.8895-0.0967 1.7789-0.1465 2.6953-0.0561 0.9204-0.1121 1.8408-0.1699 2.7891-0.0522 0.9359-0.1044 1.8717-0.1582 2.8359-0.1294 2.3051-0.2643 4.6097-0.4043 6.9141h2v3l-5-1c-0.043-1.3326-0.0404-2.6673 0-4l1-1c-0.0232-0.5943-0.0464-1.1885-0.0703-1.8008-0.1455-6.6839 0.6844-12.69 2.0703-19.199z" fill="#D78635"/><path transform="translate(74,6)" d="m0 0h12v1c-0.6871 0.1096-1.3741 0.2191-2.082 0.332-0.9011 0.1586-1.8021 0.3171-2.7305 0.4805-0.8933 0.1508-1.7866 0.3016-2.707 0.457-2.7394 0.8067-3.7513 1.4952-5.4805 3.7305-0.9772 1.8019-0.9772 1.8019-1.6875 3.6875-0.3771 0.9339-0.3771 0.9339-0.7617 1.8867-0.2727 0.7058-0.2727 0.7058-0.5508 1.4258l-2-1c0.3963-5.5489 2.2283-7.9382 6-12z" fill="#D7A32F"/><path transform="translate(61,86)" d="m0 0c0.999 2.4589 1.0573 4.3762 0.8789 7.0117-0.0483 0.7573-0.0967 1.5147-0.1465 2.2949-0.0561 0.7857-0.1121 1.5714-0.1699 2.3809-0.0522 0.7973-0.1044 1.5946-0.1582 2.416-0.1295 1.9659-0.2644 3.9313-0.4043 5.8965h-3c-0.4833-7.2488 0.8474-13.145 3-20z" fill="#692B03"/><path transform="translate(81,89)" d="m0 0-1 2-8 1v2l-8-1v-2c5.4695-2.001 11.273-4.0618 17-2z" fill="#DD8C2C"/><path transform="translate(70,22)" d="m0 0 1 3h7c0.4331 0.6394 0.8663 1.2788 1.3125 1.9375 1.6318 1.9944 2.2371 2.5958 4.6875 3.0625l-1 5c-0.4705-0.3377-0.941-0.6755-1.4258-1.0234-0.6226-0.4461-1.2452-0.8921-1.8867-1.3516-0.6149-0.4409-1.2298-0.8817-1.8633-1.3359-1.5913-1.1245-3.1969-2.2176-4.8242-3.2891 0.99-0.33 1.98-0.66 3-1-2.31-0.33-4.62-0.66-7-1l1-4z" fill="#692C0B"/><path transform="translate(112,23)" d="m0 0v1h-5c-2.36 3.776-2.6003 7.6667-3 12l-4 1-1-2h2c-0.0619-0.8869-0.1238-1.7737-0.1875-2.6875-0.0085-3.5872 1.0651-5.4554 3.1875-8.3125 2.7815-1.3908 4.9022-1.0673 8-1z" fill="#EAAF3C"/><path transform="translate(91,13)" d="m0 0v10l-2 2-1-7h-3l-1-5c4.75-1.125 4.75-1.125 7 0z" fill="#803619"/><path transform="translate(62,154)" d="m0 0h2c-0.1413 1.7713-0.2879 3.5419-0.4375 5.3125-0.0812 0.9861-0.1624 1.9723-0.2461 2.9883-0.2462 2.0999-0.5291 3.7607-1.3164 5.6992h-2v2h-2l4-16z" fill="#E78A2F"/><path transform="translate(180,126)" d="m0 0c2 2 2 2 2.4375 4.9375-0.1039 5.4512-3.0265 10.301-5.4375 15.062l-2-3c0.2771-0.7245 0.5543-1.4489 0.8398-2.1953 1.8492-4.9087 3.5927-9.5552 4.1602-14.805z" fill="#DDA336"/><path transform="translate(21,120)" d="m0 0h7c-0.4262 5.4335-1.2647 8.0238-5 12v-8h-2v-4z" fill="#EEA41E"/><path transform="translate(40,102)" d="m0 0c2 2 2 2 2.125 4.625-0.0412 0.7837-0.0825 1.5675-0.125 2.375h1c0.0271 1.1249 0.0464 2.2499 0.0625 3.375 0.0116 0.6265 0.0232 1.253 0.0352 1.8984-0.0977 1.7266-0.0977 1.7266-1.0977 3.7266h2l-1 6c-3.4181-4.5574-3.1296-9.2909-3.0625-14.75 0.0045-0.6974 9e-3 -1.3948 0.0137-2.1133 0.0117-1.7123 0.0281-3.4245 0.0488-5.1367z" fill="#E5882B"/><path transform="translate(154,49)" d="m0 0 4 1v3l-19 1v-2c5.0359-0.8813 9.892-1.1194 15-1v-2z" fill="#531909"/><path transform="translate(126,18)" d="m0 0c2.7932 0.2993 4.3491 1.0711 6.1875 3.125 2.2677 3.0325 2.5991 6.1731 2.8125 9.875h-3l-1-8c-0.6188-0.2888-1.2375-0.5775-1.875-0.875-2.125-1.125-2.125-1.125-4.125-3.125l1-1z" fill="#D99C31"/><path transform="translate(108,162)" d="m0 0c1.9523 2.555 2.7464 5.1124 3.625 8.1875 0.2604 0.9011 0.5208 1.8021 0.7891 2.7305 0.1933 0.687 0.3867 1.3741 0.5859 2.082h-1v7l-2-1c-0.3378-1.7492-0.6703-3.4992-1-5.25-0.1431-0.7367-0.1431-0.7367-0.2891-1.4883-0.5213-2.7928-0.8191-5.4213-0.7109-8.2617h-2l2-4z" fill="#6C2907"/><path transform="translate(176,132)" d="m0 0h2c0.5931 5.7824-1.4504 9.878-4 15h-3c0.6268-3.6617 1.6445-6.8819 3.0625-10.312 0.3622-0.883 0.7245-1.766 1.0977-2.6758 0.2771-0.6638 0.5543-1.3277 0.8398-2.0117z" fill="#572B05"/><path transform="translate(73,56)" d="m0 0h2c-1.4493 4.5562-3.8544 7.3816-7.125 10.812-0.4679 0.5021-0.9359 1.0042-1.418 1.5215-1.1462 1.228-2.2984 2.4497-3.457 3.666-0.99-0.33-1.98-0.66-3-1 0.3227-0.3478 0.6455-0.6956 0.978-1.054 1.4678-1.5842 2.9324-3.1713 4.397-4.7585 0.5079-0.5472 1.0158-1.0944 1.5391-1.6582 0.7347-0.7976 0.7347-0.7976 1.4843-1.6113 0.4504-0.4871 0.9008-0.9741 1.3648-1.4759 1.2142-1.4158 2.2372-2.8693 3.2368-4.4421z" fill="#BE7529"/><path transform="translate(20,142)" d="M0 0 C1.2969 0.168 1.2969 0.168 3 1 C4.2268 2.7671 5.2455 4.4278 6.25 6.3125 C6.531 6.7991 6.812 7.2857 7.1016 7.7871 C8.4053 10.1848 9.0535 11.6162 8.6719 14.3555 C8.4502 14.8982 8.2284 15.4409 8 16 C5.7035 13.1041 3.9565 10.1828 2.3125 6.875 C1.657 5.5718 1.657 5.5718 0.9883 4.2422 C0 2 0 2 0 0 Z " fill="#E7AC44"/><path transform="translate(18,123)" d="m0 0c3.7427 2.7219 4.312 6.6665 5 11 0.1367 2.3468 0.132 4.6536 0 7-2-1-2-1-2.6562-2.9414-1.6844-5.2324-2.7021-9.5652-2.3438-15.059z" fill="#592302"/><path transform="translate(114,50)" d="m0 0v1c-2.31 0.33-4.62 0.66-7 1l-1 5-5-1 1-5c3.9522-1.3174 7.8892-1.0898 12-1z" fill="#5D2003"/><path transform="translate(145,154)" d="m0 0h2c0.3867 0.6639 0.7734 1.3277 1.1719 2.0117 2.6911 4.5776 5.3381 8.9614 8.8281 12.988l-5-1c-1.1751-1.7657-2.3401-3.5368-3.5-5.3125-0.3339-0.4995-0.6677-0.999-1.0117-1.5137-0.4737-0.7299-0.4737-0.7299-0.9571-1.4746-0.2932-0.4451-0.5865-0.8902-0.8886-1.3489-0.6426-1.3503-0.6426-1.3503-0.6426-4.3503z" fill="#5C1B05"/><path transform="translate(96,81)" d="m0 0h12c2 2 2 2 2 4-1.7713-0.1413-3.5419-0.2879-5.3125-0.4375-0.9861-0.0812-1.9723-0.1624-2.9883-0.2461-2.0999-0.2462-3.7607-0.5291-5.6992-1.3164v-2z" fill="#F59623"/><path transform="translate(112,47)" d="m0 0 1 2c-0.814 0.0735-0.814 0.0735-1.6445 0.1484-1.0732 0.1122-1.0732 0.1122-2.168 0.2266-0.7077 0.0696-1.4154 0.1392-2.1445 0.2109-2.133 0.4323-3.3388 1.0916-5.043 2.4141l-1 6h5c-2.3161 1.7646-2.9133 2-6 2l-1-8c4.3294-4.628 6.7147-5.1397 13-5z" fill="#EF9633"/><path transform="translate(119,176)" d="m0 0h1v8l4 1-8 1c-1.2857-6.4286-1.2857-6.4286 0-9h2l1-1z" fill="#F19C22"/><path transform="translate(45,123)" d="m0 0c1.9817 1.0558 2.8607 1.6456 3.6953 3.7695 0.1418 0.6742 0.2836 1.3484 0.4297 2.043 0.1547 0.7077 0.3094 1.4154 0.4688 2.1445 0.134 0.6742 0.2681 1.3484 0.4062 2.043 0.1134 0.5401 0.2269 1.0802 0.3438 1.6367 0.2307 1.1187 0.4457 2.2406 0.6562 3.3633-2.2902-2.1491-4.0132-4.3452-5.6875-7-0.437-0.6806-0.874-1.3613-1.3242-2.0625-0.9883-1.9375-0.9883-1.9375-0.9883-4.9375l2-1z" fill="#E28B2A"/><path transform="translate(62,29)" d="m0 0 1 2c-1.4511 4.1115-3.4852 7.4475-6 11l-4-1c1.4442-3.2386 3.2577-5.6197 5.625-8.25 0.6316-0.7064 1.2633-1.4128 1.9141-2.1406 0.4821-0.5311 0.9642-1.0622 1.4609-1.6094z" fill="#693306"/><path transform="translate(135,30)" d="m0 0c1.7937 1.1218 3.585 2.2473 5.375 3.375 0.7618 0.4757 0.7618 0.4757 1.5391 0.9609 0.7347 0.4641 0.7347 0.4641 1.4843 0.9375 0.4504 0.2828 0.9008 0.5656 1.3648 0.857 1.2368 0.8696 1.2368 0.8696 3.2368 2.8696l-4 1-10-7 1-3z" fill="#DBA738"/><path transform="translate(127,25)" d="m0 0c1.9784 1.9784 2.8118 3.445 4 5.9375 1.191 2.4889 2.4132 4.8028 4 7.0625h-3c-3-3.75-3-3.75-3-6h-6l4-7z" fill="#E08B35"/><path transform="translate(94,145)" d="m0 0h7l1 4c-2.97-0.495-2.97-0.495-6-1-1.8706 1.8706-1.6995 5.0107-2.0625 7.5625-0.1363 0.9233-0.1363 0.9233-0.2754 1.8652-0.2244 1.5236-0.4437 3.0479-0.6621 4.5723h-1c-0.2208-6.0978-0.0117-11.216 2-17z" fill="#DC8B2D"/><path transform="translate(180,100)" d="m0 0c2 2 2 2 2.2271 3.5122-0.0105 0.5761-0.021 1.1521-0.0318 1.7456-0.0064 0.6252-0.0129 1.2504-0.0195 1.8945-0.0168 0.651-0.0335 1.302-0.0508 1.9727-9e-3 0.6587-0.018 1.3174-0.0273 1.9961-0.0236 1.6265-0.0595 3.2527-0.0977 4.8789h-2l-3-12c0.99 0.33 1.98 0.66 3 1v-5z" fill="#4B1C02"/><path transform="translate(92,79)" d="m0 0 16 1v1h-12v2l8 1c-3.5101 2.1601-5.9976 2.1819-10 2v-3l-2-4z" fill="#D07D1D"/><path transform="translate(60,72)" d="m0 0c3 1 3 1 4 3l2-1c-0.75 4.75-0.75 4.75-3 7v-3c-2.31-0.33-4.62-0.66-7-1l4-5z" fill="#E59723"/><path transform="translate(164,133)" d="m0 0h4v2h1.8125 5.1875l-1 5c-3.3959 0-4.0662-0.5217-6.6875-2.5-0.6226-0.4641-1.2452-0.9281-1.8867-1.4062-0.4705-0.361-0.941-0.7219-1.4258-1.0938v-2z" fill="#D98F28"/><path transform="translate(62,82)" d="m0 0 1 2c-0.1934 0.4151-0.3867 0.8302-0.5859 1.2578-2.8296 6.6957-3.5596 13.585-4.4141 20.742h-1c-0.0289-2.3125-0.0468-4.6249-0.0625-6.9375-0.0084-0.6594-0.0168-1.3187-0.0254-1.998-0.0048-0.9427-0.0048-0.9427-0.0098-1.9043-0.0052-0.5813-0.0104-1.1626-0.0158-1.7615 0.1135-1.3987 0.1135-1.3987 1.1135-2.3987 0.2292-1.1802 0.4107-2.3699 0.5625-3.5625 0.0838-0.6407 0.1676-1.2813 0.2539-1.9414 0.0606-0.4937 0.1212-0.9874 0.1836-1.4961l3-2z" fill="#E59033"/><path transform="translate(57,70)" d="m0 0h3c-0.5375 3.788-2.3638 5.7331-5.0625 8.25-0.3771 0.3635-0.7541 0.727-1.1426 1.1016-0.9249 0.8898-1.859 1.7701-2.7949 2.6484l-1-2c2.0699-3.6223 4.3376-6.7868 7-10z" fill="#632208"/><path transform="translate(63,83)" d="m0 0h1v5h6v2l-9 3c0.875-8.875 0.875-8.875 2-10z" fill="#542102"/><path transform="translate(67,23)" d="m0 0 1 4h8v1c-0.5917 0.1096-1.1834 0.2191-1.793 0.332-4.6664 0.9364-8.3139 1.9051-12.207 4.668 1.7426-7.4829 1.7426-7.4829 5-10z" fill="#551E00"/><path transform="translate(58,156)" d="m0 0h1c1.1502 5.8443 0.8233 10.334-1 16l-1-2h-2l-1 2c1.3333-5.3333 2.6667-10.667 4-16z" fill="#59260A"/><path transform="translate(44,155)" d="m0 0h5c-1.5143 4.0887-4.4339 6.6355-8 9h-2c0.506-2.1687 0.9998-3.9997 2-6h3v-3z" fill="#E09328"/><path transform="translate(116,82)" d="m0 0h2c0.0897 3.8566-0.11 7.2176-1 11-2.31-0.33-4.62-0.66-7-1v-2h4l2-8z" fill="#5E1705"/><path transform="translate(144,55)" d="m0 0c1.6041-0.0271 3.2083-0.0464 4.8125-0.0625 0.8933-0.0116 1.7866-0.0232 2.707-0.0352 2.1114 0.0832 3.5583 0.2867 5.4805 1.0977v2h-13v-3z" fill="#F7951D"/><path transform="translate(120,34)" d="m0 0v2l-4 1v2c-1.1041 0.1992-1.1041 0.1992-2.2305 0.4023-0.9857 0.1784-1.9713 0.3568-2.957 0.5352-0.9629 0.174-1.9259 0.348-2.918 0.5273-2.6369 0.4876-5.2665 1.0019-7.8945 1.5352 1.1645-2.329 2.0405-2.6197 4.4062-3.5 2.5436-0.798 5.1378-1.377 7.7305-1.9922 2.8166-0.7676 4.9431-2.5078 7.8633-2.5078z" fill="#D78634"/><path transform="translate(120,16)" d="m0 0h6l2 2c-0.9397 0.2726-0.9397 0.2726-1.8984 0.5508-0.8173 0.2513-1.6346 0.5027-2.4766 0.7617-0.8121 0.2436-1.6242 0.4873-2.4609 0.7383-2.3197 1.0175-3.033 1.7306-4.1641 3.9492l-1-4 4-4z" fill="#DDA031"/><path transform="translate(37,167)" d="m0 0c3.6902 1.5034 6.6265 3.8059 9 7 0.6445 2.1641 0.6445 2.1641 1 4-1.2761-0.9093-2.5457-1.8278-3.8125-2.75-0.7077-0.5105-1.4154-1.0209-2.1445-1.5469-2.0728-1.7279-3.5168-3.4884-5.043-5.7031l1-1z" fill="#E2AF49"/><path transform="translate(159,48)" d="m0 0 9 9-1 4c-3.6063-3.2214-6.3401-6.3983-8-11v-2z" fill="#DEA43A"/><path transform="translate(100,86)" d="m0 0c4.62 0.99 9.24 1.98 14 3-3.8741 1.937-4.3924 2.1953-8.2734 1.3594-2.0259-0.4217-4.0474-0.6751-6.1016-0.9219-0.6884-0.0838-1.3767-0.1676-2.0859-0.2539-0.5079-0.0606-1.0158-0.1212-1.5391-0.1836l4-3z" fill="#682E05"/><path transform="translate(118,80)" d="m0 0c5.4191 2.2424 7.2218 6.1876 9.4492 11.316 0.5508 1.6836 0.5508 1.6836 0.5508 4.6836h-2c-1.4928-3.6254-2.7861-7.2716-4-11l-2 1-2-6z" fill="#C97216"/><path transform="translate(69,76)" d="m0 0h1l-1 7c-0.99 0.33-1.98 0.66-3 1v2h6c-2.8197 1.6112-4.7489 2.2322-8 2 0.5645-4.6569 2.5493-8.0447 5-12z" fill="#DB8F28"/><path transform="translate(46,89)" d="m0 0c1.2107 2.4213 0.946 3.4829 0.5625 6.125-0.1018 0.7245-0.2037 1.4489-0.3086 2.1953-0.0838 0.5543-0.1676 1.1086-0.2539 1.6797-0.99 0.33-1.98 0.66-3 1v2h-2c1.0296-4.8815 2.1609-8.8704 5-13z" fill="#E88830"/><path transform="translate(108,80)" d="m0 0c5.75 0.75 5.75 0.75 8 3l-1 3h-8l2-3-1-3z" fill="#E88C25"/><path transform="translate(67,16)" d="m0 0 2 4-6 9h-1c-0.273-2.3889-0.4762-4.2542 0.8555-6.3398 0.7027-0.8348 1.4261-1.6527 2.1718-2.4493 1.0877-1.3541 1.5159-2.547 1.9727-4.2109z" fill="#DAA944"/><path transform="translate(82,184)" d="m0 0v2h5v3c-1.417-0.1423-2.8336-0.289-4.25-0.4375-1.1834-0.1218-1.1834-0.1218-2.3906-0.2461-2.183-0.2927-4.2367-0.737-6.3594-1.3164v-2c5.75-1 5.75-1 8-1z" fill="#D38529"/><path transform="translate(150,156)" d="m0 0 2 1 1 5h6l-2 4-4-1c-0.5075-0.9335-1.0057-1.872-1.5-2.8125-0.2784-0.5221-0.5569-1.0441-0.8438-1.582-0.6562-1.6055-0.6562-1.6055-0.6562-4.6055z" fill="#803B20"/><path transform="translate(179,85)" d="m0 0c0.99 0.33 1.98 0.66 3 1 0.3624 1.6232 0.7147 3.2486 1.0625 4.875 0.1972 0.9049 0.3945 1.8098 0.5977 2.7422 0.3398 2.3828 0.3398 2.3828-0.6602 4.3828h-2l-2-13z" fill="#DCA643"/><path transform="translate(125,79)" d="m0 0c4.75-0.125 4.75-0.125 7 1l-1 3c-2.31 0.33-4.62 0.66-7 1l1-5z" fill="#F39719"/><path transform="translate(92,45)" d="m0 0h2c-0.99 4.62-1.98 9.24-3 14h-2c-0.3284-5.5823-0.4991-9.4803 3-14z" fill="#521900"/><path transform="translate(111,167)" d="m0 0 5 4v11h-2c-0.5044-1.9365-1.0036-3.874-1.5-5.8125-0.1431-0.5472-0.2862-1.0944-0.4336-1.6582-0.6653-2.6136-1.0664-4.8152-1.0664-7.5293z" fill="#DF8E2D"/><path transform="translate(58,131)" d="m0 0c0.4241 0.1934 0.8482 0.3867 1.2852 0.5859 4.1652 1.8492 8.3037 3.2745 12.715 4.4141v2c-1.1256-0.1414-2.2504-0.2883-3.375-0.4375-0.9397-0.1218-0.9397-0.1218-1.8984-0.2461-1.7266-0.3164-1.7266-0.3164-3.7266-1.3164v-2l-5-1v-2z" fill="#F5A01D"/><path transform="translate(38,97)" d="m0 0c0.99 0.33 1.98 0.66 3 1-0.1149 1.5841-0.2423 3.1673-0.375 4.75-0.0696 0.8817-0.1392 1.7634-0.2109 2.6719-0.4141 2.5781-0.4141 2.5781-2.4141 6.5781l-1-14 1-1z" fill="#4C1A01"/><path transform="translate(125,87)" d="m0 0c0.99 0.33 1.98 0.66 3 1v4h2l1 6h3l-1 3c-2.7742-1.0258-3.8221-1.675-5.2656-4.3125-0.3249-0.8869-0.6497-1.7738-0.9844-2.6875-0.3352-0.8869-0.6703-1.7738-1.0156-2.6875-0.7344-2.3125-0.7344-2.3125-0.7344-4.3125z" fill="#E48B24"/><path transform="translate(140,73)" d="m0 0 3 2-2 2c-0.6477 2.5706-0.6477 2.5706-1 5h-2c-1.4606-2.6474-2-3.8945-2-7l4-2z" fill="#E48E22"/><path transform="translate(33,67)" d="m0 0h7v3l-5 2v-2l-4 2 2-5z" fill="#EFA123"/><path transform="translate(126,54)" d="m0 0c0.3919 0.4744 0.7837 0.9487 1.1875 1.4375 2.2206 1.9143 3.9463 2.1752 6.8125 2.5625l-4 1v3c-4.455-0.99-4.455-0.99-9-2v-1l5-1v-4z" fill="#E0862D"/><path transform="translate(122,22)" d="m0 0h3c-1.2716 5.0865-2.6736 7.0398-7 10 0.2828-1.2936 0.5766-2.5849 0.875-3.875 0.1624-0.7193 0.3248-1.4386 0.4922-2.1797 0.6328-1.9453 0.6328-1.9453 2.6328-3.9453z" fill="#753923"/><path transform="translate(127,101)" d="m0 0c4.798 2.399 7.683 5.8395 11 10-2.97-0.495-2.97-0.495-6-1v-2h-2l-1-5h-2v-2z" fill="#DD8C2B"/><path transform="translate(162,94)" d="m0 0c4.798 2.399 7.683 5.8395 11 10l-4 1-1-5-4-2v-2h-2v-2z" fill="#E4952E"/><path transform="translate(31,72)" d="m0 0-1 8h-5c1.5949-5.6435 1.5949-5.6435 3.5625-7.375 1.4375-0.625 1.4375-0.625 2.4375-0.625z" fill="#DEA026"/><path transform="translate(98,48)" d="m0 0h3c-0.6276 2.9288-1.5862 5.361-3 8h-4l1-4 2-1 1-3z" fill="#F2981A"/><path transform="translate(61,46)" d="m0 0 3 2h-10l-2 2h-5v-2c4.6394-1.8558 8.9929-2.726 14-2z" fill="#773222"/><path transform="translate(69,43)" d="m0 0h4v8l-7-5 3-3z" fill="#F58E28"/><path transform="translate(108,28)" d="m0 0 4 1 1 5h-6c-0.0427-1.6661-0.0406-3.3338 0-5l1-1z" fill="#843629"/><path transform="translate(135,185)" d="m0 0c-4.7788 2.5025-7.7345 3.4127-13 2 4.3086-3.3511 8.0837-4.4582 13-2z" fill="#622A03"/><path transform="translate(37,55)" d="m0 0 1 3h3l-4 3c2.31 0.33 4.62 0.66 7 1v1h-9v-2l-2-1 4-5z" fill="#6D3012"/><path transform="translate(44,134)" d="m0 0c2.7452 2.7452 4.1391 4.7213 6 8l-5-1v2h-2l1-9z" fill="#E68F2B"/><path transform="translate(126,123)" d="m0 0c0.99 0.33 1.98 0.66 3 1l-2 1c-0.3348 4.7988 0.2251 7.0689 3 11l-5-2c-0.2229-1.2684-0.4278-2.5399-0.625-3.8125-0.116-0.7077-0.232-1.4154-0.3516-2.1445-0.0271-2.366 0.4933-3.2483 1.9766-5.043z" fill="#D4852D"/><path transform="translate(24,80)" d="m0 0c0.9812 3.0526 0.9812 4.9474 0 8h3l-1 5-4-1c0.1417-1.4379 0.2885-2.8753 0.4375-4.3125 0.0812-0.8005 0.1624-1.601 0.2461-2.4258 0.2651-1.8948 0.6324-3.4855 1.3164-5.2617z" fill="#E79528"/><path transform="translate(147,85)" d="m0 0c6.1466 1.1141 10.24 4.0683 15 8l-4 1-1-3h-3l-1-2c-1.98-0.66-3.96-1.32-6-2v-2z" fill="#D38337"/><path transform="translate(89,44)" d="m0 0c1.4403 2.951 0.7004 5.617 0.0625 8.6875-0.0999 0.5111-0.1998 1.0222-0.3027 1.5488-0.2465 1.2559-0.5023 2.51-0.7598 3.7637h-2c-0.4423-5.3898 0.5489-9.2 3-14z" fill="#EBB141"/><path transform="translate(116,79)" d="m0 0h2c1.6958 1.9483 2.0014 2.8486 1.9766 5.4805-0.1161 0.8933-0.2321 1.7866-0.3516 2.707-0.1109 0.9011-0.2217 1.8021-0.3359 2.7305-0.0954 0.687-0.1908 1.3741-0.2891 2.082h-3c0.1257-1.0306 0.1257-1.0306 0.2539-2.082 0.1018-0.9011 0.2037-1.8021 0.3086-2.7305 0.1044-0.8933 0.2088-1.7866 0.3164-2.707 0.1086-2.2239 0.0169-3.4832-0.8789-5.4805z" fill="#B16A2B"/><path transform="translate(89,77)" d="m0 0c2 2 2 2 2 4-3.63-0.66-7.26-1.32-11-2 3.6465-2.431 4.7983-2.1867 9-2z" fill="#BA7C34"/><path transform="translate(78,55)" d="m0 0 3 3-1 4v-2h-4l-1 3-3-2 4-5v3h3l-1-4z" fill="#6D3E05"/><path transform="translate(130,43)" d="m0 0h2c-0.2887 0.66-0.5775 1.32-0.875 2-1.4351 3.5571-2.2556 7.2726-3.125 11l-2-2c0.3665-4.4987 0.8267-7.5508 4-11z" fill="#6D2701"/><path transform="translate(60,40)" d="m0 0 4 1v3l2 1-12-1 4-2 2-2z" fill="#D48720"/><path transform="translate(68,30)" d="m0 0c0.99 0.33 1.98 0.66 3 1-0.4215 0.4821-0.843 0.9642-1.2773 1.4609-0.5479 0.6317-1.0957 1.2633-1.6602 1.9141-0.5453 0.6265-1.0905 1.253-1.6523 1.8984-1.4798 1.6829-1.4798 1.6829-2.4102 3.7266l-4-1h2v-3c0.3493-0.2655 0.6987-0.5311 1.0586-0.8047 0.455-0.3532 0.9101-0.7064 1.3789-1.0703 0.4525-0.348 0.9049-0.6961 1.3711-1.0547 1.3493-1.0806 1.3493-1.0806 2.1914-3.0703z" fill="#FAA723"/><path transform="translate(90,175)" d="m0 0 2 1-2 10h-2c0.1404-1.6463 0.2875-3.292 0.4375-4.9375 0.0812-0.9165 0.1624-1.833 0.2461-2.7773 0.3164-2.2852 0.3164-2.2852 1.3164-3.2852z" fill="#552207"/><path transform="translate(134,128)" d="m0 0h11l1 3-12-1v-2z" fill="#853828"/><path transform="translate(58,117)" d="m0 0h2v3h-3v7l-2 1-1-6 4-5z" fill="#F6A520"/><path transform="translate(110.25 76.812)" d="m0 0c3.2038 0.2184 4.3903 1.09 6.75 3.1875l-1 3-4-2v-2h-6c2-2 2-2 4.25-2.1875z" fill="#6A2A01"/><path transform="translate(79,64)" d="m0 0 4 1c0.0606 0.4705 0.1212 0.941 0.1836 1.4258 0.0838 0.6226 0.1676 1.2452 0.2539 1.8867 0.0812 0.6149 0.1624 1.2298 0.2461 1.8633 0.2938 1.694 0.7263 3.2127 1.3164 4.8242h-3l-1-7h-3l1-4z" fill="#BC812F"/><path transform="translate(123,191)" d="m0 0c-2.5172 2.5172-4.7513 2.6475-8.125 3.125-0.845 0.1296-0.845 0.1296-1.707 0.2617-1.3883 0.2118-2.778 0.4135-4.168 0.6133v-2c4.7762-1.6259 8.9585-2.2758 14-2z" fill="#E7AE45"/><path transform="translate(130,188)" d="m0 0c-2 3-2 3-4.1875 3.5625-2.9408 0.4575-4.9535 0.1727-7.8125-0.5625 8.6667-4.6667 8.6667-4.6667 12-3z" fill="#D19B3E"/><path transform="translate(171,98)" d="M0 0 C2.1474 0.4369 2.8677 0.8155 4.168 2.6289 C4.5044 3.267 4.8409 3.9051 5.1875 4.5625 C5.5317 5.2032 5.8759 5.8438 6.2305 6.5039 C6.4844 6.9976 6.7384 7.4913 7 8 C6.67 8.66 6.34 9.32 6 10 C4.9911 8.904 3.9931 7.7979 3 6.6875 C2.1647 5.7652 2.1647 5.7652 1.3125 4.8242 C0 3 0 3 0 0 Z " fill="#662C05"/><path transform="translate(107,91)" d="m0 0c4.843 0.6054 8.7272 2.7205 13 5-3.3044 1.1238-5.0507 0.8955-8.25-0.4375-0.7064-0.2875-1.4128-0.5749-2.1406-0.8711-0.5311-0.2282-1.0622-0.4563-1.6094-0.6914l-1-3z" fill="#DC8B2C"/><path transform="translate(163,60)" d="m0 0c4.2943 1.0736 4.7474 1.5085 7 5l-2 4-5-9z" fill="#5B290A"/><path transform="translate(116,62)" d="m0 0 12 1v2h-10l-2-3z" fill="#D98D21"/><path transform="translate(149,47)" d="m0 0h6l1 2h-2v2l-11 1 1-2 5-1v-2z" fill="#682E1C"/><path transform="translate(57,172)" d="m0 0h2v4h3v3c-2.97-0.495-2.97-0.495-6-1l1-6z" fill="#EF9E18"/><path transform="translate(18,130)" d="m0 0c1.4577 2.7194 2.4244 5.2475 3.125 8.25 0.1676 0.7064 0.3352 1.4128 0.5078 2.1406 0.1212 0.5311 0.2424 1.0622 0.3672 1.6094h-3c-1.0721-2.6086-1.1031-4.8846-1.0625-7.6875 9e-3 -0.8082 0.018-1.6165 0.0273-2.4492 0.0116-0.6149 0.0232-1.2298 0.0352-1.8633z" fill="#CF9B2E"/><path transform="translate(95,132)" d="m0 0h8l-2 3-8 1 2-1v-3z" fill="#F6A31F"/><path transform="translate(158,70)" d="m0 0 1 2-12 1c1.1509-2.3018 1.4843-2.4036 3.8125-3.1875 2.7084-0.8419 4.4847-0.852 7.1875 0.1875z" fill="#70280A"/><path transform="translate(33,61)" d="m0 0h2v2h7l-1 2-10 1 2-5z" fill="#4D1600"/><path transform="translate(132,46)" d="m0 0h3l1 5 4 1c-2.6058 0.9307-3.642 1.1492-6.25 0.0625-0.5775-0.3506-1.155-0.7013-1.75-1.0625v-5z" fill="#8F3323"/><path transform="translate(132,39)" d="m0 0 2 1h2 3l-4 4h-6c1.875-3.875 1.875-3.875 3-5z" fill="#6F3210"/><path transform="translate(71,188)" d="m0 0c4.29 0.99 8.58 1.98 13 3v1c-1.6038 0.0542-3.2081 0.0929-4.8125 0.125-0.8933 0.0232-1.7866 0.0464-2.707 0.0703-2.5309-0.1993-3.5725-0.5852-5.4805-2.1953v-2z" fill="#CD9831"/><path transform="translate(21,117)" d="m0 0h8l-1 3h-7v-3z" fill="#FA9A28"/><path transform="translate(135,100)" d="m0 0c0.4125 0.6394 0.825 1.2788 1.25 1.9375 1.9281 2.2724 2.8642 2.6645 5.75 3.0625v4c-3.833-1.5616-6.2329-4.0287-9-7h2v-2z" fill="#E38D33"/><path transform="translate(179,92)" d="m0 0c2.2664 3.3996 2.9522 5.9528 3 10-0.9375 1.9375-0.9375 1.9375-2 3l-2-1 1-12z" fill="#5A2507"/><path transform="translate(123,90)" d="m0 0 3 2v4h3v2c-3.4593-1.2492-6.1469-2.6753-9-5 0.99-0.33 1.98-0.66 3-1v-2z" fill="#AE6623"/><path transform="translate(79,87)" d="m0 0-2 2h-7l-2-2c3.8246-1.3768 7.112-0.7099 11 0z" fill="#612902"/><path transform="translate(145,81)" d="m0 0c4.75 0.75 4.75 0.75 7 3h-2l-1 2-5-2 1-3z" fill="#692808"/><path transform="translate(134,72)" d="m0 0h4v3h-2l-1 5c-1.4294-2.3544-2.0866-3.4803-1.625-6.25 0.2063-0.5775 0.4125-1.155 0.625-1.75z" fill="#F59412"/><path transform="translate(145,69)" d="m0 0h9c-2.3028 1.5352-4.1786 2.5836-6.6875 3.625-0.9339 0.3906-0.9339 0.3906-1.8867 0.7891-0.4705 0.1933-0.941 0.3867-1.4258 0.5859l1-5z" fill="#E18F32"/><path transform="translate(89,63)" d="m0 0 2 1v6l-3 2-3-2h3c-0.0206-0.9694-0.0413-1.9387-0.0625-2.9375-0.0352-1.6523-0.0352-1.6523 0.0625-3.0625l1-1z" fill="#552202"/><path transform="translate(68,50)" d="m0 0 3 2v4h-2l-1 4-2 1v-3h2v-8z" fill="#76371A"/><path transform="translate(126,42)" d="m0 0h3c-0.5173 2.7345-1.0365 5.3848-2 8h-2c-0.0269-1.1457-0.0464-2.2916-0.0625-3.4375-0.0174-0.9571-0.0174-0.9571-0.0352-1.9336 0.0977-1.6289 0.0977-1.6289 1.0977-2.6289z" fill="#E48B2B"/><path transform="translate(64,182)" d="m0 0c0.9606 0.284 1.9185 0.5775 2.875 0.875 0.5337 0.1624 1.0673 0.3248 1.6172 0.4922 1.5078 0.6328 1.5078 0.6328 3.5078 2.6328l-1 2c-1.98-0.66-3.96-1.32-6-2l-1-4z" fill="#6E2F0A"/><path transform="translate(55,170)" d="m0 0h2l-1 8h-4v-2h2l1-6z" fill="#4D1C06"/><path transform="translate(33,151)" d="m0 0c1.2707-0.0272 2.5416-0.0465 3.8125-0.0625 0.7077-0.0116 1.4154-0.0232 2.1445-0.0352 1.901 0.0909 3.2886 0.3948 5.043 1.0977v2h-5v-2h-4v2h-2v-3z" fill="#EEA51E"/><path transform="translate(141,140)" d="m0 0h3v3l2-1v6c-2.1309-1.0655-3.3659-2.2916-5-4v-4z" fill="#913118"/><path transform="translate(166,137)" d="m0 0c3.4593 1.2492 6.1469 2.6753 9 5l-5 1-4-4v-2z" fill="#532003"/><path transform="translate(119,60)" d="m0 0h6l3 3c-2.4476 1.0511-3.7108 0.9982-6.1875 0.0625-0.5298-0.1946-1.0596-0.3893-1.6055-0.5898-0.3983-0.156-0.7966-0.312-1.207-0.4727v-2z" fill="#5D2200"/><path transform="translate(68,59)" d="m0 0 2 2-5 6-3-2 6-6z" fill="#551C02"/><path transform="translate(107,52)" d="m0 0h1v8c-3.0443 0.2099-4.6034-0.0827-7-2l1-2h4l1-4z" fill="#D98525"/><path transform="translate(83,35)" d="m0 0 4 1-4 7h-1l1-8z" fill="#5A2D06"/><path transform="translate(105,31)" d="m0 0c0.99 1.32 1.98 2.64 3 4h2l-1 3h-5c-0.0977-4.5898-0.0977-4.5898 0-6l1-1z" fill="#4F1B03"/><path transform="translate(141,179)" d="m0 0-2 4c-1.98 0.33-3.96 0.66-6 1v-2c0.9557-0.5049 1.9147-1.0038 2.875-1.5 0.5337-0.2784 1.0673-0.5569 1.6172-0.8438 1.5078-0.6562 1.5078-0.6562 3.5078-0.6562z" fill="#5D2B01"/><path transform="translate(128,175)" d="m0 0h5l1 2-1 2h-5v-4z" fill="#E8AF18"/><path transform="translate(151,167)" d="m0 0 1 4-5 4c-0.99-0.33-1.98-0.66-3-1l1-2c0.4744-0.1444 0.9487-0.2887 1.4375-0.4375 2.0309-0.7311 2.4962-1.7346 3.5625-3.5625l1-1z" fill="#CE862B"/><path transform="translate(148,163)" d="m0 0 3 2v5l-1-2h-4c0.875-3.875 0.875-3.875 2-5z" fill="#E59635"/><path transform="translate(23,137)" d="m0 0c2.1482 2.762 2.9725 5.6973 4 9-0.99 0.33-1.98 0.66-3 1-2.4286-6.2857-2.4286-6.2857-1-10z" fill="#663106"/><path transform="translate(147,126)" d="m0 0c1.1249-0.0271 2.2499-0.0464 3.375-0.0625 0.6265-0.0116 1.253-0.0232 1.8984-0.0352 1.7266 0.0977 1.7266 0.0977 3.7266 1.0977v2h2l-1 2-10-4v-1z" fill="#D78730"/><path transform="translate(17,116)" d="m0 0h2l1 8-3 2v-10z" fill="#642B04"/><path transform="translate(93,65)" d="m0 0h3v7h-3v-7z" fill="#F8951C"/><path transform="translate(115,63)" d="m0 0 4 2c-2.8591 2.5414-5.3617 2.1617-9 2v-2l5-2z" fill="#F99329"/><path transform="translate(136,42)" d="m0 0 1 3-2 4v-3l-1 2h-3l1-4 4-2z" fill="#863824"/><path transform="translate(121,180)" d="m0 0 5 1 1 2c-2.31 0.33-4.62 0.66-7 1l1-4z" fill="#F3A419"/><path transform="translate(45,159)" d="m0 0 1 2 2 1-3 3-4-2 4-4z" fill="#6D2806"/><path transform="translate(62,154)" d="m0 0h2v6h-2v2h-2l2-8z" fill="#D18623"/><path transform="translate(89,71)" d="m0 0h3v2h2v3l-5-1v-4z" fill="#CB8838"/><path transform="translate(37,52)" d="m0 0 1 3c-0.99 1.32-1.98 2.64-3 4l-4-1 6-6z" fill="#E3A945"/><path transform="translate(146,42)" d="m0 0c4.6769 1.4769 4.6769 1.4769 6.3125 4.125 0.2269 0.6187 0.4538 1.2375 0.6875 1.875-3.2695-0.5637-4.8258-1.4996-7-4v-2z" fill="#501D04"/><path transform="translate(96,40)" d="m0 0h3c-1.2461 2.8756-2.2222 4.4848-5 6l-2-2 4-4z" fill="#572700"/><path transform="translate(74,6)" d="m0 0h12v1c-0.6987 0.1328-1.3973 0.2655-2.1172 0.4023-0.9101 0.1766-1.8201 0.3532-2.7578 0.5352-0.9049 0.174-1.8098 0.348-2.7422 0.5273-2.3824 0.4348-2.3824 0.4348-4.3828 1.5352l-1-3 1-1z" fill="#CF9738"/><path transform="translate(70,186)" d="m0 0c1.2927 0.1142 2.5842 0.2418 3.875 0.375 0.7193 0.0696 1.4386 0.1392 2.1797 0.2109 1.9453 0.4141 1.9453 0.4141 3.9453 2.4141h-8l-2-3z" fill="#531D00"/><path transform="translate(152,168)" d="m0 0 5 1-5 5-3-2 2-1 1-3z" fill="#6A2B07"/><path transform="translate(166,158)" d="m0 0 4 1-5 6-1-2 2-5z" fill="#E1AE46"/><path transform="translate(60,151)" d="m0 0-3 3h-2v2l-2-1-1-3c2.755-2.465 4.5722-1.9264 8-1z" fill="#6E2711"/><path transform="translate(178,77)" d="m0 0c2.503 2.9383 3.4693 5.179 4 9l-4-2v-7z" fill="#F2B750"/><path transform="translate(148,76)" d="m0 0h2l-2 5-5-1v-2h5v-2z" fill="#863829"/><path transform="translate(81,68)" d="m0 0h1v7c-1.98 0.66-3.96 1.32-6 2l2-4h3v-5z" fill="#E5A935"/><path transform="translate(81,67)" d="m0 0v6l-5 1 2-6c2-1 2-1 3-1z" fill="#FCCE86"/><path transform="translate(57,63)" d="m0 0h5v3l-4 1-1-4z" fill="#823D11"/><path transform="translate(85,58)" d="m0 0c0.99 0.33 1.98 0.66 3 1l-4 6-2-1c1.875-4.875 1.875-4.875 3-6z" fill="#D39E31"/><path transform="translate(73,56)" d="m0 0h2c-1.2694 3.914-2.5117 5.7907-6 8 0.5993-3.356 1.8462-5.378 4-8z" fill="#D5873B"/><path transform="translate(73,52)" d="m0 0h3c3 4.75 3 4.75 3 7h-3l-1-5h-2v-2z" fill="#3D2003"/><path transform="translate(134,52)" d="m0 0 8 2-4 3c-1.3333-0.6667-2.6667-1.3333-4-2v-3z" fill="#733104"/><path transform="translate(139,180)" d="m0 0-9 4-1-3c1.1007-0.3649 2.2057-0.7165 3.3125-1.0625 0.6149-0.1972 1.2298-0.3945 1.8633-0.5977 1.8242-0.3398 1.8242-0.3398 4.8242 0.6602z" fill="#D3852C"/><path transform="translate(145,176)" d="m0 0-6 3-3-3c3.3782-0.8445 5.6747-1.1084 9 0z" fill="#E68E24"/><path transform="translate(94,170)" d="m0 0h2c-0.1144 1.1261-0.2419 2.2509-0.375 3.375-0.1044 0.9397-0.1044 0.9397-0.2109 1.8984-0.4141 1.7266-0.4141 1.7266-2.4141 3.7266l1-9z" fill="#883923"/><path transform="translate(104,157)" d="m0 0c0.99 0.33 1.98 0.66 3 1l1 7-3-2-1-6z" fill="#562404"/><path transform="translate(37,156)" d="m0 0h3l1 5c-0.99 0.33-1.98 0.66-3 1l-1-1v-5z" fill="#F89728"/><path transform="translate(160,153)" d="m0 0 2 1v6l-1-2c-0.99-0.33-1.98-0.66-3-1v-3l2-1z" fill="#883816"/><path transform="translate(168,150)" d="m0 0c-1.4782 3.4492-3.3001 5.4801-6 8l2-7c2-1 2-1 4-1z" fill="#813826"/><path transform="translate(47,150)" d="m0 0h4v3h-3v2h-2l1-5z" fill="#F3991A"/><path transform="translate(40,127)" d="m0 0c4 4.75 4 4.75 4 7-0.99 0.33-1.98 0.66-3 1l-1-1v-7z" fill="#DD8829"/><path transform="translate(98,42)" d="m0 0h2v2l-6 6-1-3 5-5z" fill="#D9882C"/><path transform="translate(141,38)" d="m0 0c4.875 1.75 4.875 1.75 6 4l-2 2-4-3v-3z" fill="#612902"/><path transform="translate(125,22)" d="m0 0 1 2 5-1v2h-2l-1 2c-0.99 0.33-1.98 0.66-3 1-1.125-3.75-1.125-3.75 0-6z" fill="#6B2E09"/><path transform="translate(125,187)" d="m0 0v2c-3.6954 0.9502-6.3046 0.9502-10 0v-1c3.4056-0.7784 6.5077-1.0998 10-1z" fill="#5B2401"/><path transform="translate(41,159)" d="m0 0 4 1-4 4h-2c0.875-3.875 0.875-3.875 2-5z" fill="#D58D36"/><path transform="translate(139,151)" d="m0 0c0.2681 0.5981 0.5362 1.1962 0.8125 1.8125 1.1724 2.1597 2.3812 3.5454 4.1875 5.1875l-5 1v-8z" fill="#F09427"/><path transform="translate(29,152)" d="m0 0c0.99 0.33 1.98 0.66 3 1l1 6-4-4v-3z" fill="#5B2202"/><path transform="translate(49,137)" d="m0 0 4 2v3c-3.6923-0.6154-3.6923-0.6154-5.25-2.5625-0.2475-0.4744-0.495-0.9487-0.75-1.4375l2-1z" fill="#7C3804"/><path transform="translate(15,127)" d="m0 0h2c0.9034 2.3118 1.1092 4.2126 1.0625 6.6875-9e-3 0.6226-0.018 1.2452-0.0273 1.8867-0.0116 0.4705-0.0232 0.941-0.0352 1.4258-1.925-3.3367-2.4866-6.2351-3-10z" fill="#EEB642"/><path transform="translate(23,121)" d="m0 0h3l-1 7h-2c-1.125-4.75-1.125-4.75 0-7z" fill="#EDA926"/><path transform="translate(129,123)" d="m0 0c2.97 0.33 5.94 0.66 9 1v1l-10 1 1-3z" fill="#612500"/><path transform="translate(110,90)" d="m0 0h6l1 3c-2.31-0.33-4.62-0.66-7-1v-2z" fill="#522406"/><path transform="translate(47,77)" d="m0 0h2c-0.4983 3.6875-1.1007 5.6049-4 8v-5l2-1v-2z" fill="#E38729"/><path transform="translate(174,73)" d="m0 0 4 1v8c-2.0715-3.1072-2.905-5.4804-4-9z" fill="#DAA038"/><path transform="translate(87,64)" d="m0 0 2 4-1 2h-3c0.875-4.875 0.875-4.875 2-6z" fill="#6E3827"/><path transform="translate(80,28)" d="m0 0h5v2h2l-1 3h-2v-3l-4-1v-1z" fill="#7C3721"/><path transform="translate(130,186)" d="m0 0h7c-1.934 1.934-2.6434 2.3697-5.125 3.125-0.5388 0.1676-1.0777 0.3352-1.6328 0.5078-0.6149 0.1818-0.6149 0.1818-1.2422 0.3672l1-4z" fill="#E1A63A"/><path transform="translate(65,188)" d="m0 0h6v2c0.99 0.33 1.98 0.66 3 1l-2 1c-2.31-0.99-4.62-1.98-7-3v-1z" fill="#EABC56"/><path transform="translate(129,174)" d="m0 0h7l1 4c-3.356-0.5993-5.378-1.8462-8-4z" fill="#F1A713"/><path transform="translate(146,168)" d="m0 0h3l-1 4-4 1v-3h2v-2z" fill="#FC9523"/><path transform="translate(136,164)" d="m0 0h4v4h-4v-4z" fill="#ED9B18"/><path transform="translate(31,152)" d="m0 0h2v2h2l2 3-1 3c-0.8362-1.1438-1.6689-2.2901-2.5-3.4375-0.4641-0.6381-0.9281-1.2762-1.4062-1.9336-1.0938-1.6289-1.0938-1.6289-1.0938-2.6289z" fill="#D99030"/><path transform="translate(102,151)" d="m0 0c2.5004 2.1742 3.4363 3.7305 4 7h-3l-1-7z" fill="#602000"/><path transform="translate(45,123)" d="m0 0 3 2-2 3c-0.99-0.33-1.98-0.66-3-1v-3l2-1z" fill="#F18B2B"/><path transform="translate(145,120)" d="m0 0 1 2 2 1c-2.6058 0.9307-3.642 1.1492-6.25 0.0625-0.5775-0.3506-1.155-0.7013-1.75-1.0625l5-2z" fill="#FB8F1C"/><path transform="translate(176,107)" d="m0 0c1.4375 0.375 1.4375 0.375 3 1 1.3908 2.7815 1.0673 4.9022 1 8-2.1482-2.762-2.9725-5.6973-4-9z" fill="#C5792D"/><path transform="translate(65,83)" d="m0 0 1 3h6c-2.8197 1.6112-4.7489 2.2322-8 2l1-5z" fill="#C48E2B"/><path transform="translate(71,62)" d="m0 0h3c-1.75 3.875-1.75 3.875-4 5l-2-2 3-3z" fill="#662905"/><path transform="translate(100,61)" d="m0 0h3l-1 7-2-1v-6z" fill="#F4911D"/><path transform="translate(158,51)" d="m0 0 4 4c-1.1875 0.625-1.1875 0.625-3 1-2.6875-0.9375-2.6875-0.9375-5-2l4-1v-2z" fill="#6A3104"/><path transform="translate(59,37)" d="m0 0h3v2h-2l-2 4c-0.99-0.33-1.98-0.66-3-1l2-1c1.1335-2.0167 1.1335-2.0167 2-4z" fill="#DF9628"/><path transform="translate(142,35)" d="m0 0 6 3-1 2-4-1-1-4z" fill="#E9AC47"/><path transform="translate(129,25)" d="m0 0h2l1 7h-2l-1-7z" fill="#591E01"/><path transform="translate(151,173)" d="m0 0-1 3-5 1v-2c2.3161-1.7646 2.9133-2 6-2z" fill="#552101"/><path transform="translate(143,149)" d="m0 0c0.99 1.32 1.98 2.64 3 4l-2 3c-0.99-1.65-1.98-3.3-3-5h2v-2z" fill="#67290A"/><path transform="translate(166,139)" d="m0 0 5 4-1 4c-0.6723-0.9544-1.3377-1.9137-2-2.875-0.3713-0.5337-0.7425-1.0673-1.125-1.6172-0.875-1.5078-0.875-1.5078-0.875-3.5078z" fill="#7A3526"/><path transform="translate(182,122)" d="m0 0h2l-1 8-2-2 1-6z" fill="#E6A740"/><path transform="translate(168,96)" d="m0 0h3l2 5-4-1-1-4z" fill="#612010"/><path transform="translate(162,94)" d="m0 0c5.4286 3 5.4286 3 7 6l-4-1-1-3h-2v-2z" fill="#E08036"/><path transform="translate(41,91)" d="m0 0c1.6195 2.5721 2.0441 3.6767 1.625 6.75-0.2062 0.7425-0.4125 1.485-0.625 2.25l-1-2-2-1 2-6z" fill="#712B05"/><path transform="translate(21,90)" d="m0 0 4 4-5 2 1-6z" fill="#D38244"/><path transform="translate(179,85)" d="m0 0c0.99 0.33 1.98 0.66 3 1v6l-2-1-1-6z" fill="#DAA331"/><path transform="translate(52,76)" d="m0 0h3c-1.2461 2.8756-2.2222 4.4848-5 6l2-6z" fill="#542100"/><path transform="translate(67,70)" d="m0 0 1 4-2 2c-0.99-0.33-1.98-0.66-3-1l4-5z" fill="#C97F23"/><path transform="translate(31,59)" d="m0 0c0.99 0.33 1.98 0.66 3 1l-5 5c0.875-4.875 0.875-4.875 2-6z" fill="#D5A932"/><path transform="translate(81,40)" d="m0 0 1 4-3 3c-0.2099-3.0443 0.0827-4.6034 2-7z" fill="#5D2104"/><path transform="translate(128,36)" d="m0 0 4 1v3l-3 2 1-4h-2v-2z" fill="#F09032"/><path transform="translate(115,184)" d="m0 0 1 2 4-1v3h-5v-4z" fill="#DE862E"/><path transform="translate(46,174)" d="m0 0 6 4-3 2c-3-3.75-3-3.75-3-6z" fill="#D3A22F"/><path transform="translate(164,161)" d="m0 0 1 2-2 4c-0.99-0.33-1.98-0.66-3-1l4-5z" fill="#CA9430"/><path transform="translate(96,147)" d="m0 0 4 1-4 4v-2l-2-1 2-2z" fill="#662E01"/><path transform="translate(64,116)" d="m0 0v4h-4v-3c2-1 2-1 4-1z" fill="#EBAD1C"/><path transform="translate(46,89)" d="m0 0 1 2-2 6-2-3c0.99-1.65 1.98-3.3 3-5z" fill="#DE8733"/><path transform="translate(78,92)" d="m0 0v2h-6v-2c2.4909-1.2455 3.4108-0.7768 6 0z" fill="#F29614"/><path transform="translate(62,82)" d="m0 0 1 2-2 4h-2l1-5 2-1z" fill="#DB862E"/><path transform="translate(75,82)" d="m0 0 4 2v2h-5l-1-2h2v-2z" fill="#C38A29"/><path transform="translate(18,80)" d="m0 0h1v7c-0.99 0.33-1.98 0.66-3 1l2-8z" fill="#F0BC4F"/><path transform="translate(71,78)" d="m0 0h1v6l-4-1c0.99-1.65 1.98-3.3 3-5z" fill="#FEF1DB"/><path transform="translate(174,77)" d="m0 0 3 2v4c-0.99-0.33-1.98-0.66-3-1v-5z" fill="#5E1E02"/><path transform="translate(137,76)" d="m0 0c0.99 0.33 1.98 0.66 3 1v5h-2l-1-6z" fill="#E48D31"/><path transform="translate(120,75)" d="m0 0h4l1 3h-5v-3z" fill="#FB901D"/><path transform="translate(166,71)" d="m0 0 5 1v2h-2l-1 2c-0.99-1.32-1.98-2.64-3-4l1-1z" fill="#842F1A"/><path transform="translate(60,72)" d="m0 0c0.99 0.33 1.98 0.66 3 1l-1 2c-1.98 0.66-3.96 1.32-6 2l4-5z" fill="#DA9233"/><path transform="translate(51,66)" d="m0 0c5.75 0.75 5.75 0.75 8 3-0.99 0.33-1.98 0.66-3 1l-5-3v-1z" fill="#591903"/><path transform="translate(76,60)" d="m0 0h2l-2 6-2 1c0.875-4.75 0.875-4.75 2-7z" fill="#C8832E"/><path transform="translate(130,59)" d="m0 0 4 1-2 4h-2v-5z" fill="#F69826"/><path transform="translate(154,49)" d="m0 0 4 1v3l-5-1 1-3z" fill="#502103"/><path transform="translate(118,52)" d="m0 0c-3.0732 0.9106-5.801 1.0889-9 1v-2c3.779-1.0497 5.6492-1.1098 9 1z" fill="#D88521"/><path transform="translate(84,41)" d="m0 0 2 1c-1.75 4.875-1.75 4.875-4 6 0.875-5.875 0.875-5.875 2-7z" fill="#F1B34C"/><path transform="translate(49,40)" d="m0 0 4 1-5 4 1-5z" fill="#D3A135"/><path transform="translate(130,32)" d="m0 0 5 5-2 2-3-3v-4z" fill="#CD8232"/><path transform="translate(101,29)" d="m0 0h1v6l2 1-4 1-1-2h2v-6z" fill="#F2B756"/><path transform="translate(113,30)" d="m0 0h4v3l2 1h-5l-1-4z" fill="#3C1800"/><path transform="translate(120,16)" d="m0 0h6l2 2c-1.1875 0.625-1.1875 0.625-3 1-2.6875-0.9375-2.6875-0.9375-5-2v-1z" fill="#F4B955"/><path transform="translate(49,172)" d="m0 0h5v4l-5-2v-2z" fill="#712F18"/><path transform="translate(56,167)" d="m0 0h2v5l-1-2h-2l-1 2c0.875-3.875 0.875-3.875 2-5z" fill="#6B2510"/><path transform="translate(102,156)" d="m0 0 3 3-1 4-2-2v-5z" fill="#75341C"/><path transform="translate(29,155)" d="m0 0 3 3-1 3-3-2 1-4z" fill="#DE9D3C"/><path transform="translate(144,149)" d="M0 0 C0.99 0.33 1.98 0.66 3 1 C3.33 2.98 3.66 4.96 4 7 C3.3274 6.2133 2.6621 5.4205 2 4.625 C1.6287 4.1841 1.2575 3.7433 0.875 3.2891 C0 2 0 2 0 0 Z " fill="#7B3423"/><path transform="translate(28,136)" d="m0 0h3v4l-4-1 1-3z" fill="#E8A919"/><path transform="translate(40,117)" d="m0 0c1.4606 2.6474 2 3.8945 2 7h-3l1-7z" fill="#712F05"/><path transform="translate(154,90)" d="m0 0c3.6875 0.4983 5.6049 1.1007 8 4l-5-1v-2c-0.99-0.33-1.98-0.66-3-1z" fill="#E39035"/><path transform="translate(79,64)" d="m0 0 4 1-1 3h-4l1-4z" fill="#D19729"/><path transform="translate(39,54)" d="m0 0h3l-1 3-4 2 2-5z" fill="#481C07"/><path transform="translate(130,50)" d="m0 0 1 2h3v3l-4-1v-4z" fill="#833B28"/><path transform="translate(67,46)" d="m0 0c2.97 0.495 2.97 0.495 6 1l-1 4-5-5z" fill="#CB7933"/><path transform="translate(113,32)" d="m0 0 1 2 4 1c-1.98 0.66-3.96 1.32-6 2l1-5z" fill="#582106"/><path transform="translate(105,27)" d="m0 0c2 2 2 2 2.125 4.625-0.0413 0.7837-0.0825 1.5675-0.125 2.375l-3-2 1-5z" fill="#693107"/><path transform="translate(61,26)" d="m0 0 1 4-3 3c0.875-5.875 0.875-5.875 2-7z" fill="#EAA23C"/><path transform="translate(128,185)" d="m0 0v3c-2.97-0.495-2.97-0.495-6-1 2.3161-1.7646 2.9133-2 6-2z" fill="#6B2F07"/><path transform="translate(57,172)" d="m0 0h2v4h-2l-1 2 1-6z" fill="#CD851D"/><path transform="translate(152,164)" d="m0 0 5 5-5-1v-4z" fill="#4D1201"/><path transform="translate(157,165)" d="m0 0 3 2-3 2-3-3c0.99-0.33 1.98-0.66 3-1z" fill="#64300B"/><path transform="translate(142,159)" d="m0 0 4 1 1 3h-4l-1-4z" fill="#F89311"/><path transform="translate(25,153)" d="m0 0 4 1-1 4c-3-3.875-3-3.875-3-5z" fill="#EAAF4A"/><path transform="translate(175,144)" d="m0 0 2 3c-0.99 1.32-1.98 2.64-3 4-0.0977-4.5898-0.0977-4.5898 0-6l1-1z" fill="#E6B14D"/><path transform="translate(46,144)" d="m0 0h5v3l-4-1-1-2z" fill="#F7932E"/><path transform="translate(176,140)" d="m0 0c0.99 0.33 1.98 0.66 3 1l-2 5-2-3 1-3z" fill="#E7A82B"/><path transform="translate(163,134)" d="m0 0 4 3-1 2h-2v-2l-2-1 1-2z" fill="#5E2504"/><path transform="translate(46,132)" d="m0 0 3 3v3c-0.99-0.33-1.98-0.66-3-1v-5z" fill="#6C2C02"/><path transform="translate(165,130)" d="m0 0h4v3h-4v-3z" fill="#F5A015"/><path transform="translate(68,106)" d="m0 0h4l-1 3-4-1 1-2z" fill="#F6A11E"/><path transform="translate(171,98)" d="m0 0c0.99 0.33 1.98 0.66 3 1l1 3-2 2c-1.7646-2.3161-2-2.9133-2-6z" fill="#6F2E0D"/><path transform="translate(75,79)" d="m0 0h3l1 4-4-1v-3z" fill="#471703"/><path transform="translate(72,78)" d="m0 0h3v4h-3v-4z" fill="#D4A040"/><path transform="translate(101,74)" d="m0 0c0.99 0.33 1.98 0.66 3 1v2h-6l3-3z" fill="#F39C21"/><path transform="translate(172,69)" d="m0 0 4 1 1 4-4-2-1-3z" fill="#DCAF3F"/><path transform="translate(75,56)" d="m0 0c1.1885 2.641 0.8458 4.2747 0 7l-3-2c0.99-1.65 1.98-3.3 3-5z" fill="#723A09"/><path transform="translate(159,48)" d="m0 0 4 3-1 3-2-1-1-5z" fill="#EFB454"/><path transform="translate(156,46)" d="m0 0c0.99 0.33 1.98 0.66 3 1l1 5-4-3v-3z" fill="#DEA531"/><path transform="translate(130,43)" d="m0 0h2l-2 5h-2c0.875-3.875 0.875-3.875 2-5z" fill="#4F1B02"/><path transform="translate(74,40)" d="m0 0h2l1 5c-0.99-0.33-1.98-0.66-3-1l-1-3 1-1z" fill="#F59818"/><path transform="translate(124,25)" d="m0 0c1.125 3.75 1.125 3.75 0 6h-2c0.875-4.875 0.875-4.875 2-6z" fill="#4B210B"/><path transform="translate(72,8)" d="m0 0h2l-1 4h-3l2-4z" fill="#E3AD3B"/><path transform="translate(137,183)" d="m0 0h2v3h-5l3-3z" fill="#E0952A"/><path transform="translate(129,171)" d="m0 0c0.99 0.33 1.98 0.66 3 1l-4 3-1-3 2-1z" fill="#F19E17"/><path transform="translate(160,166)" d="m0 0 2 2-2 3h-2c0.875-3.875 0.875-3.875 2-5z" fill="#E4B040"/><path transform="translate(43,130)" d="m0 0c0.99 0.33 1.98 0.66 3 1l1 4c-0.99-0.33-1.98-0.66-3-1l-1-4z" fill="#542000"/><path transform="translate(41,118)" d="m0 0h3l-1 6c-1.7646-2.3161-2-2.9133-2-6z" fill="#E38E2F"/><path transform="translate(163,96)" d="m0 0 5 5-5-1v-4z" fill="#F79430"/><path transform="translate(104,91)" d="m0 0 4 1v2h-4v-3z" fill="#F29334"/><path transform="translate(124,84)" d="m0 0h3l1 4-4-2v-2z" fill="#EF9125"/><path transform="translate(159,84)" d="m0 0 3 3-2 1-4-3c0.99-0.33 1.98-0.66 3-1z" fill="#7E381B"/><path transform="translate(129,74)" d="m0 0c0.99 0.33 1.98 0.66 3 1v3l-4-2 1-2z" fill="#642201"/><path transform="translate(174,74)" d="m0 0 2 4c-0.99 0.33-1.98 0.66-3 1-0.043-1.3326-0.0404-2.6673 0-4l1-1z" fill="#6F2B06"/><path transform="translate(97,72)" d="m0 0h3l-2 4-3-2h2v-2z" fill="#6E2D01"/><path transform="translate(77,68)" d="m0 0 1 4-2 1-2-2 3-3z" fill="#EAA93D"/><path transform="translate(63,68)" d="m0 0h2l-2 4c-0.99-0.33-1.98-0.66-3-1l3-3z" fill="#B87039"/><path transform="translate(40,58)" d="m0 0 1 3-5 1 4-4z" fill="#823E1E"/><path transform="translate(149,47)" d="m0 0h6l1 2c-2.641 1.1885-4.2747 0.8458-7 0v-2z" fill="#692E09"/><path transform="translate(100,37)" d="m0 0 2 1-2 4-1-2-2-1 3-2z" fill="#703C08"/><path transform="translate(91,10)" d="m0 0h4v4h-2l-2-4z" fill="#D3A034"/><path transform="translate(82,184)" d="m0 0h3v3l-4-1 1-2z" fill="#F49916"/><path transform="translate(157,169)" d="m0 0 1 3-5 1 4-4z" fill="#D69E2B"/><path transform="translate(24,149)" d="m0 0h2l2 4-4-1v-3z" fill="#D5A12E"/><path transform="translate(172,135)" d="m0 0h3v3l-4-1 1-2z" fill="#E88825"/><path transform="translate(37,124)" d="m0 0h3l-2 5h-1v-5z" fill="#E2901D"/><path transform="translate(174,120)" d="m0 0h2v4h-3l1-4z" fill="#FD9F1B"/><path transform="translate(126,97)" d="m0 0 3 2-2 2-4-3c0.99-0.33 1.98-0.66 3-1z" fill="#6A3103"/><path transform="translate(42,85)" d="m0 0h3l-2 5h-1v-5z" fill="#DA8B26"/><path transform="translate(64,63)" d="m0 0 3 2-3 2-2-2 2-2z" fill="#633006"/><path transform="translate(28,62)" d="m0 0h1v5l-2 1-1-3 2-3z" fill="#E7AF45"/><path transform="translate(46,51)" d="m0 0 1 3-4 1 1-3 2-1z" fill="#7A3A19"/><path transform="translate(118,36)" d="m0 0 2 1-2 3h-2v-3l2-1z" fill="#EE9328"/><path transform="translate(141,179)" d="m0 0-1 3h-3v-2c2-1 2-1 4-1z" fill="#4D2601"/><path transform="translate(145,172)" d="m0 0h3l-1 3c-0.99-0.33-1.98-0.66-3-1l1-2z" fill="#D58025"/><path transform="translate(36,160)" d="m0 0 3 2-1 2c-0.99-0.33-1.98-0.66-3-1l1-3z" fill="#6B3806"/><path transform="translate(35,152)" d="m0 0h3v3h-3v-3z" fill="#F3AA10"/><path transform="translate(160,141)" d="m0 0h3v3h-3v-3z" fill="#942F1D"/><path transform="translate(96,93)" d="m0 0h3v3h-3v-3z" fill="#F7902E"/><path transform="translate(20,76)" d="m0 0 2 1v3h-3l1-4z" fill="#EBAF45"/><path transform="translate(146,75)" d="m0 0h2v3l-4-1 2-2z" fill="#79321D"/><path transform="translate(73,72)" d="m0 0 1 3-4 1c0.99-1.32 1.98-2.64 3-4z" fill="#E1951E"/><path transform="translate(36,71)" d="m0 0h2l-1 4h-2l1-4z" fill="#F99E1F"/><path transform="translate(119,65)" d="m0 0h4v3l-4-2v-1z" fill="#FE911F"/><path transform="translate(163,60)" d="m0 0 4 1-2 3-2-4z" fill="#562A02"/><path transform="translate(44,48)" d="m0 0h2l1 3-2 1-2-2 1-2z" fill="#662E08"/><path transform="translate(136,38)" d="m0 0 2 1-4 3v-3l2-1z" fill="#491D01"/><path transform="translate(47,158)" d="m0 0c0.99 0.33 1.98 0.66 3 1l-4 2 1-3z" fill="#4F1607"/><path transform="translate(41,159)" d="m0 0 4 1-3 2-1-3z" fill="#E59136"/><path transform="translate(142,145)" d="m0 0c0.99 0.33 1.98 0.66 3 1l-2 3-1-4z" fill="#893313"/><path transform="translate(137,108)" d="m0 0h3v3c-0.99-0.33-1.98-0.66-3-1v-2z" fill="#642101"/><path transform="translate(131,102)" d="m0 0c0.99 0.33 1.98 0.66 3 1l-1 3-2-4z" fill="#5B2300"/><path transform="translate(151,88)" d="m0 0c0.99 0.33 1.98 0.66 3 1v2h-3v-3z" fill="#F7952F"/><path transform="translate(67,80)" d="m0 0 2 3c-0.99 0.33-1.98 0.66-3 1l1-4z" fill="#DF9A34"/><path transform="translate(55,73)" d="m0 0 2 3-2 1-2-2 2-2z" fill="#6A2E01"/><path transform="translate(48,75)" d="m0 0c0.99 0.33 1.98 0.66 3 1l-1 3-2-4z" fill="#F49536"/><path transform="translate(92,73)" d="m0 0h2v3h-3l1-3z" fill="#D48E3A"/><path transform="translate(64,70)" d="m0 0 2 2-3 2c0-3 0-3 1-4z" fill="#6A2400"/><path transform="translate(134,52)" d="m0 0 4 2-4 1v-3z" fill="#73301B"/><path transform="translate(68,49)" d="m0 0 4 1v2l-4-2v-1z" fill="#531901"/><path transform="translate(150,45)" d="m0 0c0.99 0.33 1.98 0.66 3 1v2h-3v-3z" fill="#4C1500"/><path transform="translate(93,43)" d="m0 0h3l-1 3-3-2 1-1z" fill="#622E06"/><path transform="translate(47,42)" d="m0 0 1 4c-0.99-0.33-1.98-0.66-3-1l2-3z" fill="#EAAD44"/><path transform="translate(52,41)" d="m0 0h3l-1 3-3-2 1-1z" fill="#562C01"/><path transform="translate(52,37)" d="m0 0h2l-1 3c-0.99-0.33-1.98-0.66-3-1l2-2z" fill="#F4B641"/><path transform="translate(142,35)" d="m0 0c0.99 0.33 1.98 0.66 3 1l-1 3-2-1v-3z" fill="#F0B441"/><path transform="translate(84,30)" d="m0 0h3l-1 3h-2v-3z" fill="#70361F"/><path transform="translate(74,12)" d="m0 0 1 3c-0.99 0.33-1.98 0.66-3 1l2-4z" fill="#4C1606"/><path transform="translate(62,182)" d="m0 0c0.99 0.33 1.98 0.66 3 1v2c-0.99-0.33-1.98-0.66-3-1v-2z" fill="#551803"/><path transform="translate(159,155)" d="m0 0h2v3c-0.99-0.33-1.98-0.66-3-1l1-2z" fill="#8E3A11"/><path transform="translate(171,138)" d="m0 0h3l-1 3-2-1v-2z" fill="#DD8A41"/><path transform="translate(36,113)" d="m0 0h3l-1 3-2-1v-2z" fill="#551A02"/><path transform="translate(38,97)" d="m0 0 3 2-4 1 1-3z" fill="#471800"/><path transform="translate(132,78)" d="m0 0h2v3c-0.99-0.33-1.98-0.66-3-1l1-2z" fill="#F79531"/><path transform="translate(88,69)" d="m0 0 2 2-2 1-3-2c0.99-0.33 1.98-0.66 3-1z" fill="#51250B"/><path transform="translate(51,43)" d="m0 0 4 2c-0.99 0.33-1.98 0.66-3 1l-1-3z" fill="#4B1007"/><path transform="translate(85,39)" d="m0 0h2v3c-0.99-0.33-1.98-0.66-3-1l1-2z" fill="#E1A642"/><path transform="translate(54,35)" d="m0 0c0.99 0.33 1.98 0.66 3 1l-3 2v-3z" fill="#E1A430"/><path transform="translate(81,31)" d="m0 0c0.99 0.33 1.98 0.66 3 1l-2 3-1-4z" fill="#621F02"/><path transform="translate(131,21)" d="m0 0 2 2-2 2-1-3 1-1z" fill="#EBB743"/></svg>
