<svg xmlns="http://www.w3.org/2000/svg" width="40" height="40" fill="none" viewBox="0 0 40 40"><g clip-path="url(#adbeon_svg-a)"><path fill="#FCC" d="M20 0c11.046 0 20 8.954 20 20s-8.954 20-20 20S0 31.046 0 20 8.954 0 20 0"/><path fill="red" d="M26 6a8 8 0 0 1 8 8v12a8 8 0 0 1-8 8H14a8 8 0 0 1-8-8V14a8 8 0 0 1 8-8z"/><path fill="#fff" d="M17.438 10.833h5.207L30 28.556h-5.504l-4.65-11.768-3.073 7.723h3.654l1.46 4.045H10z"/></g><defs><clipPath id="adbeon_svg-a"><path fill="#fff" d="M0 0h40v40H0z"/></clipPath></defs></svg>