<?xml version="1.0" standalone="no"?>
<!DOCTYPE svg PUBLIC "-//W3C//DTD SVG 20010904//EN"
 "http://www.w3.org/TR/2001/REC-SVG-20010904/DTD/svg10.dtd">
<svg version="1.0" xmlns="http://www.w3.org/2000/svg"
 width="400.000000pt" height="400.000000pt" viewBox="0 0 400.000000 400.000000"
 preserveAspectRatio="xMidYMid meet">

<g transform="translate(0.000000,400.000000) scale(0.100000,-0.100000)"
fill="#000000" stroke="none">
<path d="M0 2000 l0 -2000 2000 0 2000 0 0 2000 0 2000 -2000 0 -2000 0 0
-2000z m2155 1183 c-4 -10 -37 -101 -75 -203 -61 -166 -783 -2021 -830 -2130
l-19 -45 -175 -3 c-97 -1 -176 -1 -176 1 0 4 99 247 253 622 63 154 188 458
277 675 89 217 207 505 262 640 109 265 165 402 179 438 8 21 12 22 160 22
140 0 151 -1 144 -17z m332 -828 c112 -275 254 -621 315 -770 169 -412 318
-778 318 -782 0 -2 -82 -3 -183 -3 l-182 0 -139 345 -138 345 -379 0 c-226 0
-379 4 -379 9 0 5 23 68 51 140 l51 131 285 0 c224 0 284 3 280 13 -2 6 -67
169 -142 362 -76 192 -138 354 -138 360 0 5 29 88 64 183 60 161 65 173 88
170 21 -3 43 -52 228 -503z"/>
</g>
</svg>
