<svg xmlns="http://www.w3.org/2000/svg" width="64" height="65" fill="none" viewBox="0 0 64 65"><rect width="64" height="64" x=".005" y=".304" fill="#000" rx="32"/><rect width="63" height="63" x=".505" y=".804" stroke="#fff" stroke-opacity=".15" rx="31.5"/><path fill="#fff" d="M42.934 15.635c0-.303-.29-.76-.567-.886a1267 1267 0 0 0-14.816-6.735c-.335-.15-.882-.134-1.2.041-1.543.84-3.037 1.776-4.56 2.65-.587.338-.791.766-.791 1.468.033 6.735.02 13.47.02 20.204s.009 13.469-.012 20.203c0 .674.127 1.11.8 1.445 1.061.523 2.11 1.114 3.053 1.829 1.416 1.077 2.657 1.073 4.29.26 4.244-2.113 8.616-3.979 12.934-5.946.498-.224.898-.44.894-1.167-.029-11.122-.017-22.244-.045-33.366m-16.893-5.368v1.902c-.678-.204-1.274-.387-2.094-.636.78-.474 1.404-.85 2.094-1.266m0 44.22a669 669 0 0 0-2.061-1.23c.82-.29 1.404-.493 2.06-.722v1.955zm-1.233-3.352c-.616.135-1.204.404-1.906.645V13.055c.078-.016.114-.033.143-.024q3.036.873 3.036 4.024c0 10.775-.016 21.55.029 32.325.004 1.05-.318 1.543-1.306 1.76zm3.102-39.272c.07-.53.012-1.081.012-1.804 3.874 1.76 7.633 3.465 11.559 5.249-1.49.714-2.73.984-4.155.376-2.077-.886-4.22-1.637-6.367-2.343-.812-.266-1.16-.625-1.049-1.478m8.04 18.869c0 5.135-.008 10.273.013 15.408 0 .6-.074 1.008-.727 1.232-2.306.796-4.595 1.641-6.897 2.461-.086.033-.196-.008-.356-.016V14.794c2.519.91 4.955 1.816 7.412 2.665.653.224.555.673.555 1.13zm-8.024 24.003c0-.975-.04-1.743.025-2.502.016-.212.314-.49.543-.575 2.657-1 5.297-2.07 8.016-2.882.816-.245 1.857.257 2.796.417q.001.171.008.342c-3.73 1.707-7.461 3.409-11.388 5.2m13.126-6.82c-.126.016-.163.033-.196.025q-3.069-.69-3.069-3.8c0-8.457.012-16.914-.02-25.37 0-.789.208-1.176.967-1.344.755-.167 1.49-.424 2.318-.66z"/></svg>