<svg xmlns="http://www.w3.org/2000/svg" width="300" height="300"><path d="M32 30h237v240H32z"/><path fill="#292A29" d="m158 45 2.223.234c5.804.814 10.525 2.923 15.652 5.641l1.948 1.03c3.567 1.969 6.56 3.951 9.177 7.095v2l3 1v2l3 1c3 3.444 3 3.444 3 6h2l.805 3.902 1.07 5.035.527 2.577.528 2.45.476 2.27c.435 1.98.435 1.98 2.594 2.766.058 3.437.094 6.875.125 10.313.017.976.034 1.952.05 2.958l.02 2.842.032 2.619C204 111 204 111 202 114c-2.5.313-2.5.313-5 0l-2-2-3 2 4 2v2h2v2h-2l2 2 1-4h2l1-2 2 1v2h-2v2h7c-1 3-1 3-3.5 4.813-2.745 1.994-2.745 1.994-3.312 5.187-.146 2.33-.188 4.666-.188 7 3.375-.547 5.082-1.055 8-3-.469 5.39-1.96 9.786-4.062 14.766-1.014 2.337-1.014 2.337-1.938 5.234l-3 2a101 101 0 0 0-3 3l-2-1c1.875-4.75 1.875-4.75 3-7 .226-1.704.409-3.413.563-5.125l.253-2.758L200 142h-2v3h-2v6l-1-3-2-.25c-3.99-.998-7.385-2.822-11-4.75l1.059 1.68 1.379 2.195 1.37 2.18C187 151 187 151 188 153l-2 2-6-3 1 9h-5l1 7 6 1-2 3c-.167 3.125-.167 3.125 0 6-7.737.122-15.307-.152-23-1v2l-5-1v4h-18c3.161 3.161 4.653 3.663 9.008 4.078 2.925-.115 4.659-1.393 6.992-3.078 4.368-1.354 8.839-1.39 13.375-1.625l2.54-.156c4.53-.242 8.615-.195 13.085.781-1.375 1.5-1.375 1.5-3 3h-2v2l-3 1 1.563 3.25c.972 2.28 1.463 3.442 1.25 5.938-.884 1.97-1.793 3.908-2.813 5.812l4-1 1 4c-3 2-3 2-5.687 1.625L169 207l-1-5-3-1-1 5h-2l-1 2-1-3h2v-5h-9v-8c-3.957-.53-7.916-1.048-11.875-1.562l-3.418-.46-3.262-.42-3.015-.396c-2.439-.368-2.439-.368-4.43.838l-2-6c-2.167.833-2.167.833-3 3l-2-5 8-1v-3c4.625-1.177 9.079-1.114 13.813-1.062l2.388.013q2.9.02 5.799.049l-1-5c4.75-3 4.75-3 7-3l1-3c5.222-3 5.222-3 8-3v-6l-3.75-1.062-2.11-.598c-2.36-.375-3.884-.067-6.14.66l-.297-2.3-.453-3.012-.422-2.989c-.55-2.843-.55-2.843-2.922-4.012C147 142 147 142 146.77 140.182c.062-2.308.244-4.572.481-6.869l.2-2.416c.164-1.967.355-3.932.55-5.896h-2v2l-4-1-1.844-.437c-2.342-.611-4.614-1.35-6.906-2.126l-2.422-.816L129 122v2h-2v3h3v4l3-1v3h5l-4 2v2l5-1c1 2 1 2 1 5-3.006 3.521-5.573 5.609-10 7l.188-2.312c.071-2.733.071-2.733-1.688-4.5L127 140l5-4-1-2c-2.586-.468-2.586-.468-5.562-.625l-3.067-.227L120 133v-2l-3-1 1-2h-6l1-4h-2v3l-2-1h-2c-.688 2.675-1.09 4.588-.5 7.313.5 2.687.5 2.687-.125 6.375-.682 4.434.452 7.843 1.934 12.015C109 154 109 154 109 158h2l1-3c.843 7.477 1.399 13.803-1 21l3-1-1 6 1.777.27c5.166 1.697 8.531 7.548 11.16 12.042C127 196 127 196 127 199l3 1 1.625 2c3.045 2.564 5.051 2.402 8.914 2.652 4.211.595 7.666 2.48 11.461 4.348v11c-3.104-.776-5.25-1.527-8-3v-2h-2v-3l-2.203-.258c-8.356-2.217-14.653-11.75-19.762-18.246a50 50 0 0 0-5.347-5.621c-6.999-7.486-8.834-17.965-9.688-27.875l-5-2v-1h5l-.656-3.035-.844-4.028-.434-1.99c-.906-4.378-1.206-8.451-1.066-12.947h-2l-.687-1.812c-1.65-2.749-3.587-3.58-6.313-5.188-1-3-1-3 0-6 3.366 1.443 5.51 3.333 8 6q.04-2.343.063-4.687l.035-2.637c-.02-2.64-.02-2.64-.598-5.026-.5-2.65-.614-5.038-.598-7.732l.01-2.822.025-2.909.014-2.966Q99.97 95.61 100 92h1v5l4-1-1 3a65 65 0 0 0-.062 4.188L104 107l7 2-2 1 1 8 4 1-1 2h2v-3l3-1v4c3.916-2.794 3.916-2.794 6-7h-3v3h-2l1-4c5.538-.37 5.538-.37 7.875 1.5L129 116l-.535-2.148c-.638-3.914-.042-7.424.476-11.329.306-2.774.306-2.774-1.941-5.523h2v-5h1v6l4-3c-.483-2.606-1.164-4.27-2.562-6.562C130 86 130 86 130 83h-2l-3-4-1 19h-1l-.044-2.048a1252 1252 0 0 0-.269-9.202l-.068-3.223-.107-3.105-.08-2.857c-.5-2.965-1.564-4.261-3.432-6.565-.512-3.016-.512-3.016-.687-6.25l-.2-3.266L118 59l5-1 .168-2.3c.832-2.7.832-2.7 3.133-4.43 6.422-3.107 12.203-5.08 19.3-5.946 7.743-1.046 7.743-1.046 12.399-.324"/><path fill="#060706" d="m129 122 2.063.438c3.018.62 3.018.62 6.437.937 3.518.628 5.595 1.6 8.5 3.625v-2h2c1.278 4.984.585 9.226-.137 14.258L148 142c1.898 1.578 1.898 1.578 4 3 .828 2.48.828 2.48 1.25 5.188l.453 2.73L154 155l2.262-.59c4.068-.61 6.1.807 9.738 2.59 0 2.75 0 2.75-1 6-1.927 1.309-3.835 2.171-5.992 3.043-2.172 1.035-3.378 2.212-5.008 3.957l-2.187 1.438L150 173v4c-7.365.999-14.573 1.103-22 1l1 4-8 1 1 1 3-1 1.172 2.43c1.578 2.747 1.578 2.747 4.248 3.397l2.834.282 3.088.348 3.22.293q3.16.332 6.317.672l2.83.268C151 191 151 191 153 192v8h9v5l3-4c1.875.188 1.875.188 4 1a125 125 0 0 1 2 5l3 1c1.224-2.075 1.224-2.075 1-5h-4l1.563-2.062c1.83-3.74 1.299-5.942.437-9.938 2.66 0 4.5.193 7 1l2 2h2v3l1-3 1-1h-5v-2h3l1-6c1.938.813 1.938.813 4 2 1.073 3.219 1.138 5.743 1.25 9.125.373 5.66 1.562 9.371 4.691 14.07C196 212 196 212 196 215h2l-1 3-7-1-.125 1.688c-1.507 3.982-5.135 6.442-8.875 8.312a71.4 71.4 0 0 0-1 14c-2-3-2-3-2.25-5.5-.546-2.847-.546-2.847-3.812-4.312L171 230v-9l-4 1-4 1-1-8-1.187 1.563L159 218c-2.687-.312-2.687-.312-5-1-.86 5.651-1.462 11.31-2 17l-1-3c-2.97.628-2.97.628-6 2-1.44 2.51-1.44 2.51-2 5-.976-2.928-1.082-4.956-1-8h2v-3h-3l-1 2-7-5-1 4 4-1-1 2c-3.062.625-3.062.625-6 1v2l-5 2a964 964 0 0 1-4.437-5.75l-1.276-1.633c-2.127-2.79-3.816-5.09-4.287-8.617h-9l2-1a126 126 0 0 0 2-6l1-2.375c2.705-7.101 3.474-14.094 4-21.625 3.848 3.06 7.147 5.94 10 10v2l3 1a279 279 0 0 1 5 5 204 204 0 0 0 3.625 3.25l1.727 1.516c1.744 1.441 1.744 1.441 4.648 2.234v3h2v2l2.313.375C149 218 149 218 152 220v-11l-5-1-2.043-1.047c-2.24-1.09-3.796-1.15-6.27-1.203-4.483-.442-6.969-1.786-10.207-4.883-2.087-2.633-3.165-5.437-4.382-8.547-1.903-4.022-4.818-7.336-8.098-10.32l-3-1v-5h-2l.254-2.414c.793-7.827.793-7.827-.254-15.586h-2c-4.641-14.004-4.641-14.004-3.281-21.04.431-2.274.431-2.274-.406-5.773C105 128 105 128 106.937 125.563L109 124l2 3v-3h2l1 3c2.015.733 2.015.733 4 1v2l2 1v2h11l2 4-5 3 1.563 1.188L131 143c-.312 2.688-.312 2.688-1 5 1.3-.737 2.589-1.49 3.875-2.25l2.18-1.266c2.154-1.643 2.936-3 3.945-5.484-1.946-1.09-1.946-1.09-4.062-1.375L134 137l-1-3h3l-3-1-1-2h-2v-4h-3v-3h2z"/><path fill="#DBDCDA" d="m158 45 2.223.234c5.804.814 10.525 2.923 15.652 5.641l1.948 1.03c3.567 1.969 6.56 3.951 9.177 7.095v2l3 1v2l3 1c3 3.444 3 3.444 3 6h2l1 11h-2l-2 4-3-7-2 5a140 140 0 0 1-5-7c-3.066-.733-3.066-.733-6-1l1.023 2.379c4.08 9.61 4.08 9.61 4.915 13.683.804 3.236.804 3.236 4.128 4.622L192 98q.039 3.468.063 6.938l.035 3.902C192 112 192 112 191 113c-7.465.585-14.917-.6-22-3-2.312-2.75-2.312-2.75-4-6-2.312-1.957-4.71-3.721-7.172-5.484L156 97v-2l-5-1-1-17c-3.96-.66-6.997-1.121-10.875-1.062L135 76l-.184-3.578-.254-4.672-.119-2.355-.127-2.286-.11-2.094c-.218-2.137-.46-3.996-1.206-6.015l-3-1v-4c4.928-3.012 9.702-3.764 15.39-4.57 4.663-.768 7.76-1.182 12.61-.43"/><path fill="#060706" d="M178 75c5.373.176 5.373.176 8 1 2 3.063 2 3.063 3 6a56.5 56.5 0 0 0 4-7l2 7 5-1 .367 1.715.508 2.222.492 2.215c.463 2.055.463 2.055 2.633 2.848.058 3.437.094 6.875.125 10.313.017.976.034 1.952.05 2.958l.02 2.842.032 2.619C204 111 204 111 202 114c-2.5.313-2.5.313-5 0l-2-2-3 2 4 2v2h2v2h-2l2 2 1-4h2l1-2 2 1v2h-2v2h7c-1 3-1 3-3.5 4.813-2.745 1.994-2.745 1.994-3.312 5.187-.146 2.33-.188 4.666-.188 7 3.375-.547 5.082-1.055 8-3-.469 5.39-1.96 9.786-4.062 14.766-1.014 2.337-1.014 2.337-1.938 5.234l-3 2a101 101 0 0 0-3 3l-2-1c1.875-4.75 1.875-4.75 3-7 .226-1.704.409-3.413.563-5.125l.253-2.758L200 142h-2v3h-2v6l-1-3-2-.25c-3.99-.998-7.385-2.822-11-4.75l1.059 1.68 1.379 2.195 1.37 2.18C187 151 187 151 188 153l-2 2-6-3 1 9h-5l1 7 6 1-2 3c-.167 3.125-.167 3.125 0 6-6.625.25-6.625.25-10-2l2.938-1.312c3.34-1.39 3.34-1.39 4.062-4.688l-1.812-.125C174 169 174 169 172.25 165.938L171 163l3-1 1-2h-4v-2l-4-1h2c-1.392-2.784-3.156-2.979-6-4l-1-7h3l1 4 2-1c1.537-.225 3.08-.408 4.625-.562l2.477-.254L177 148l-1.402-1.336C174 145 174 145 172.438 142.375c-1.217-2.487-1.217-2.487-3.438-3.375l-.812-1.875c-1.563-2.797-3.358-3.71-6.188-5.125h-2v-2h-2l-1-7-1.937-.312L153 122l-1-3 3-2v-3c1.663-1.663 3.783-1.36 6.063-1.562l2.785-.254L166 112v-2c5.264-.191 9.646.295 14.746 1.555 3.461.684 6.736.573 10.254.445l-.035-2.555-.028-3.32-.035-3.305C191 100 191 100 192 98l-2.312-.312c-2.973-.761-3.79-1.353-5.688-3.688-.59-1.91-.59-1.91-.937-4.062-1.015-5.274-2.948-10.02-5.063-14.938"/><path fill="#050605" d="m129 122 2.063.438c3.018.62 3.018.62 6.437.937 3.518.628 5.595 1.6 8.5 3.625v-2h2c1.278 4.984.585 9.226-.137 14.258L148 142c1.898 1.578 1.898 1.578 4 3 .828 2.48.828 2.48 1.25 5.188l.453 2.73L154 155l2.262-.59c4.068-.61 6.1.807 9.738 2.59 0 2.75 0 2.75-1 6-1.927 1.309-3.835 2.171-5.992 3.043-2.172 1.035-3.378 2.212-5.008 3.957l-2.187 1.438L150 173v4c-7.365.999-14.573 1.103-22 1l1 4c-6.75 1.125-6.75 1.125-9 0v-5l2 2 4-22-6-1-2-1c-2.333-.04-4.667-.043-7 0v3h-2c-4.641-14.004-4.641-14.004-3.281-21.04.431-2.274.431-2.274-.406-5.773C105 128 105 128 106.937 125.563L109 124l2 3v-3h2l1 3c2.015.733 2.015.733 4 1v2l2 1v2h11l2 4-5 3 1.563 1.188L131 143c-.312 2.688-.312 2.688-1 5 1.3-.737 2.589-1.49 3.875-2.25l2.18-1.266c2.154-1.643 2.936-3 3.945-5.484-1.946-1.09-1.946-1.09-4.062-1.375L134 137l-1-3h3l-3-1-1-2h-2v-4h-3v-3h2z"/><path fill="#0C0D0C" d="M152 124h4l.113 1.898.2 2.477.175 2.46c.342 2.544.342 2.544 3.512 4.165 2.28.454 2.28.454 4.688.625l2.449.227L169 136v3l1.938.75C173 141 173 141 173.563 143.063L174 145l3 1 1 3-2.082.184-2.73.254-2.708.246c-2.607.25-2.607.25-5.48 1.316v-5h-3l2 7 6 1-1 3 2 1v2h4c-1 3-1 3-3 4 2.038 4.06 2.038 4.06 6 6-.187 1.875-.187 1.875-1 4-2.5 1.125-2.5 1.125-5 2l-1 2-13-1v2l-5-1v4h-18c3.161 3.161 4.653 3.663 9.008 4.078 2.925-.115 4.659-1.393 6.992-3.078 4.368-1.354 8.839-1.39 13.375-1.625l2.54-.156c4.53-.242 8.615-.195 13.085.781-1.375 1.5-1.375 1.5-3 3h-2v2l-3 1 1.563 3.25c.972 2.28 1.463 3.442 1.25 5.938-.884 1.97-1.793 3.908-2.813 5.812l4-1 1 4c-3 2-3 2-5.687 1.625L169 207l-1-5-3-1-1 5h-2l-1 2-1-3h2v-5h-9v-8c-3.957-.53-7.916-1.048-11.875-1.562l-3.418-.46-3.262-.42-3.015-.396c-2.439-.368-2.439-.368-4.43.838l-2-6c-2.167.833-2.167.833-3 3l-2-5 8-1v-3c4.625-1.177 9.079-1.114 13.813-1.062l2.388.013q2.9.02 5.799.049l-1-5c4.75-3 4.75-3 7-3l1-3c5.222-3 5.222-3 8-3v-6l-3.75-1.062-2.11-.598c-2.36-.375-3.884-.067-6.14.66l-.297-2.3-.453-3.012-.422-2.989c-.57-2.833-.57-2.833-2.91-4.18L147 142c-.277-2.812-.277-2.812.063-6 .14-1.578.14-1.578.285-3.187.704-3.035 1.375-3.826 3.652-5.813z"/><path fill="#070807" d="m123 53 1 3c-1.312 1.5-1.312 1.5-3 3h-3c1.31 11.722 1.31 11.722 8.25 20.813L128 81v2h2c.87 1.408 1.72 2.826 2.563 4.25l1.44 2.39c.997 2.36.997 2.36.774 4.583-1.058 2.42-2.387 2.806-4.777 3.777l-1 1 .465 1.64c.713 3.146.386 5.904.097 9.11l-.308 3.547L129 116l-3-1v-2h-6l-1 4h2v-3h3l-1 4h-2l-1 3h-2l-1-3h-2v3h-2v-2l-4-1c-.8-3.287-1.097-4.71 0-8l-6-3V97h-2c-2.246-9.264-.466-17.663 4-26 2.804-2.084 4.486-2.404 8-3v-3l-2-1 2.438-2.312c2.73-2.482 2.73-2.482 3.562-5.688l6-1z"/><path fill="#080908" d="M185 185c1.938.813 1.938.813 4 2 1.073 3.219 1.138 5.743 1.25 9.125.373 5.66 1.562 9.371 4.691 14.07C196 212 196 212 196 215h2l-1 3-7-1-.125 1.688c-1.507 3.982-5.135 6.442-8.875 8.312a71.4 71.4 0 0 0-1 14c-2-3-2-3-2.25-5.5-.546-2.847-.546-2.847-3.812-4.312L171 230v-9l-4 1-4 1-1-8-3 3-6-2v-5h4l1-9h2v-2h2v5l3-4c1.875.188 1.875.188 4 1a125 125 0 0 1 2 5l3 1c1.224-2.075 1.224-2.075 1-5h-4l1.563-2.062c1.83-3.74 1.299-5.942.437-9.938 2.66 0 4.5.193 7 1l2 2h2v3l1-3 1-1h-5v-2h3z"/><path fill="#636463" d="m129 50 1 3 2 1c3.564 4.444 3.365 8.392 3.188 13.813l-.042 2.388A501 501 0 0 1 135 76l2.52-.29c1.086-.11 2.173-.22 3.292-.335l3.27-.352C147 75 147 75 150 77l1-2v19l5 1c2.125 1.938 2.125 1.938 4 4l3 2v2l3 1c1.688 3.063 1.688 3.063 3 6h-3v2l-4 1-1-5-1.715 1.531-2.222 1.969-2.215 1.969C153 115 153 115 152 115v-9h-4v-2l-7 2 3 3h-5l-.312-1.937L138 105l-3-1 1-16h-2a547 547 0 0 1-2.625-6.812l-.773-1.948c-.704-1.885-.704-1.885-1.602-5.24l2-3-3.937-.375c-2.215-.21-2.215-.21-4.063-.625l-1-2-3 3-1-12 5-1 .188-2.312C124 53 124 53 126.562 51.188z"/><path fill="#090A09" d="M181 142c4.74 1.835 9.364 3.92 14 6l1-3h2v-3h2c.334 6.25.199 10.437-3 16l1 2 3 1h-3l-.148 2.668-.227 3.52c-.07 1.148-.14 2.297-.21 3.48-.39 3.132-1.096 5.485-2.415 8.332h-2l-.937 2.875C191 185 191 185 190 187l-4-1-2 5h-3l5 2 1-2v3h-2l1 3h-2v-3l-3 1-2-3c-3.568-.736-3.568-.736-7-1l-1-4h4v-2l3-2c-10.248-1.59-20.596-1.702-30 3-5.416 1.58-8.134.433-13-2v-2c5.644-1.881 12.27-1.528 18 0v-4l5 1v-2h22v-5l2-2-5-2-1-7 4-1v-8l1.813.5c2.3.611 2.3.611 5.187.5l-1.875-3.25c-1.457-2.548-2.854-5.103-4.125-7.75"/><path fill="#090A09" d="m129 122 2.063.438c3.018.62 3.018.62 6.437.937 3.518.628 5.595 1.6 8.5 3.625v-2h2c1.278 4.984.585 9.226-.137 14.258L148 142c1.898 1.578 1.898 1.578 4 3 .828 2.48.828 2.48 1.25 5.188l.453 2.73L154 155l2.262-.59c4.068-.61 6.1.807 9.738 2.59 0 2.75 0 2.75-1 6-1.927 1.309-3.835 2.171-5.992 3.043-2.172 1.035-3.378 2.212-5.008 3.957l-2.187 1.438L150 173v4a125 125 0 0 1-18 1l1-3 3 1 .438-2.25c.562-2.75.562-2.75 1.25-4.812.421-2.617-.202-3.783-1.688-5.938l-3-1c.413-2.888.867-4.8 2.5-7.25 1.79-3.28 1.98-5.882 2.191-9.566.34-2.404 1.122-4.082 2.309-6.184-1.946-1.09-1.946-1.09-4.062-1.375L134 137l-1-3h3l-3-1-1-2h-2v-4h-3v-3h2z"/><path fill="#DADBDA" d="m158 45-2 4-3-1c-2.198 0-4.466.922-6.562 1.5l-3.067.844L141 51c2.906 2.267 5.523 3.744 9 5v-6h1v6l3 1v2c2.023 1.516 2.023 1.516 4.5 3 2.531 1.563 2.531 1.563 4.5 3v2l9 2-4 2v20c-2-4-2-4-2.062-6.5-1.206-3.216-2.318-3.459-5.375-4.875-2.35-1.047-2.35-1.047-4.563-1.625l-2 1-1-2-1 16h7v1h-8l-1-17c-3.96-.66-6.997-1.121-10.875-1.062L135 76l-.184-3.578-.254-4.672-.119-2.355-.127-2.286-.11-2.094c-.218-2.137-.46-3.996-1.206-6.015l-3-1v-4c4.928-3.012 9.702-3.764 15.39-4.57 4.993-.822 7.327-1.197 12.61-.43"/><path fill="#BDBEBD" d="M152 124h4l.113 1.898.2 2.477.175 2.46c.342 2.544.342 2.544 3.512 4.165 2.28.454 2.28.454 4.688.625l2.449.227L169 136v3l1.938.75C173 141 173 141 173.563 143.063L174 145l3 1 1 3-2.082.184-2.73.254-2.708.246c-2.607.25-2.607.25-5.48 1.316v-5h-3l2 7 6 1-1 3 2 1v2h4c-1 3-1 3-3 4 2.038 4.06 2.038 4.06 6 6-.062 1.813-.062 1.813-1 4-5.556 3.067-9.71 3.29-15.937 2.688l-2.362-.186A424 424 0 0 1 153 176v-6l3-1 1-3c5.222-3 5.222-3 8-3v-6l-3.75-1.062-2.11-.598c-2.36-.375-3.884-.067-6.14.66l-.297-2.3-.453-3.012-.422-2.989c-.57-2.833-.57-2.833-2.91-4.18-.633-.5-1.266-1.002-1.918-1.519-.277-2.812-.277-2.812.063-6l.285-3.187c.704-3.035 1.375-3.826 3.652-5.813z"/><path fill="#F3F4F3" d="m150 46 1.938.5c1.87.54 1.87.54 3.062.5l1-1c9.957-.83 18.785 3.709 27 9 2.324 2.066 2.324 2.066 4 4v2l3 1v2l3 1v8c-1.462-.424-2.92-.865-4.375-1.312l-2.46-.739C184 70 184 70 182 67l-1.656.457c-2.615.606-5.175.948-7.844 1.23l-2.844.325c-2.832-.013-4.271-.544-6.656-2.012v-2l-2.125-.75c-3.245-1.41-5.978-3.229-8.875-5.25l1-2-3.625-.812C145.621 55.259 142.399 53.87 139 52c2.313-2.313 3.479-2.496 6.625-3.125l2.477-.508L150 48z"/><path fill="#1C1D1B" d="M126 157a388 388 0 0 1-1.937 15.813l-.465 3.269c-.544 2.656-1.25 4.587-2.598 6.918l1 1 3-1 1.172 2.433c1.577 2.747 1.577 2.747 4.248 3.378l2.834.263 3.088.334 3.22.28q3.16.306 6.317.636l2.83.253C151 191 151 191 153 193h-3v2h-3v5h4l1 5h-2v2h-2v-4l-1.937 1c-4.154 1.356-7.743 1.822-12.063 1-5.531-2.847-7.715-7.093-9.902-12.68-1.903-4.022-4.818-7.336-8.098-10.32l-3-1v-5h-2l.254-2.45.308-3.238.317-3.199c.114-2.938-.246-5.263-.879-8.113.438-2.312.438-2.312 1-4 5.657-1.556 8.797-.243 14 2"/><path fill="#A1A2A1" d="M100 92h1v5l4-1-1 3c-.7 7.358.426 14.278 2.02 21.428.831 3.888.97 6.73-.02 10.572l.5 2.313c.5 2.687.5 2.687-.125 6.375-.682 4.434.452 7.843 1.934 12.015C109 154 109 154 109 158h2l1-3c.843 7.477 1.399 13.803-1 21l3-1-1 6 1.777.27c5.166 1.697 8.531 7.548 11.16 12.042C127 196 127 196 127 199l3 1 1.625 2c3.045 2.564 5.051 2.402 8.914 2.652 4.211.595 7.666 2.48 11.461 4.348v11c-3.104-.776-5.25-1.527-8-3v-2h-2v-3l-2.203-.258c-8.356-2.217-14.653-11.75-19.762-18.246a50 50 0 0 0-5.347-5.621c-6.999-7.486-8.834-17.965-9.688-27.875l-5-2v-1h5l-.656-3.035-.844-4.028-.434-1.99c-.906-4.378-1.206-8.451-1.066-12.947h-2l-.687-1.812c-1.65-2.749-3.587-3.58-6.313-5.188-1-3-1-3 0-6 3.366 1.443 5.51 3.333 8 6q.04-2.343.063-4.687l.035-2.637c-.02-2.64-.02-2.64-.598-5.026-.5-2.65-.614-5.038-.598-7.732l.01-2.822.025-2.909.014-2.966Q99.97 95.61 100 92"/><path fill="#080908" d="m124 78 4 3v2h2c.87 1.408 1.72 2.826 2.563 4.25l1.44 2.39c.997 2.36.997 2.36.774 4.583-1.058 2.42-2.387 2.806-4.777 3.777l-1 1 .465 1.64c.713 3.146.386 5.904.097 9.11l-.308 3.547L129 116l-3-1v-2h-6l-1 4h2v-3h3l-1 4h-2l-1 3h-2l-1-3h-2v3h-2v-2l-4-1c-1.255-4.52-1.255-4.52.063-7 1.253-2.085 1.253-2.085.062-4.75L108 104l1.715-.988 2.222-1.325 2.215-1.3C116.3 99.049 116.3 99.049 117 96l6-2z"/><path fill="#323332" d="M207.188 121.313 209 122l-2.375 2.313c-3.435 3.334-3.435 3.334-4.82 7.73l.07 2.144L202 138c3.375-.547 5.082-1.055 8-3-.469 5.39-1.96 9.786-4.062 14.766-1.014 2.337-1.014 2.337-1.938 5.234l-3 2a101 101 0 0 0-3 3l-2-1c1.875-4.75 1.875-4.75 3-7 .226-1.704.409-3.413.563-5.125l.253-2.758L200 142h-2v3h-2v6l-1-3-2.312-.25c-2.688-.75-2.688-.75-4.5-2.625C187 143 187 143 187 140h-5l-1-6 6-1v-2l10-1 1-3 3 2 .313-2.312c.907-3.547 1.895-5.944 5.875-5.376"/><path fill="#141514" d="m140.688 117.063 2.886 1.285c2.852 1.942 3.485 3.388 4.426 6.652h-2v2l-4-1-1.844-.437c-2.342-.611-4.614-1.35-6.906-2.126l-2.422-.816L129 122v2h-2v3h3v4l3-1v3h5l-4 2v2l5-1c1 2 1 2 1 5-3.006 3.521-5.573 5.609-10 7l.188-2.312c.071-2.733.071-2.733-1.688-4.5L127 140l5-4-1-2c-2.586-.468-2.586-.468-5.562-.625l-3.067-.227L120 133v-2l-3-1 1-2h-3l-2-6c1.59-.09 1.59-.09 3.21-.184l4.165-.254 2.117-.119c3.882-.186 3.882-.186 7.508-1.443v-3c4.32-2.274 6.313-1.984 10.688.063"/><path fill="#333433" d="M150 193h3v7h7v2h-2l-1 9h-4l.563 2.563c.481 3.783.063 6.678-.563 10.437-.366 3.33-.685 6.665-1 10l-1-3c-2.97.628-2.97.628-6 2-1.44 2.51-1.44 2.51-2 5-.976-2.928-1.082-4.956-1-8h2v-3h-3l-1 2-2-3h4v-2l-4-1v-3l-3-1 2-1c.407-2.322.744-4.657 1-7l4 1v3h2v2l2.313.375C149 218 149 218 152 220v-11l-5-1c-2.312-1.062-2.312-1.062-4-2v-2l5-1v4h2v-2h2l-1-5h-4v-5h3z"/><path fill="#252625" d="M179 135h2l1 5h5l2 6-1.875-1c-2.035-1.142-2.035-1.142-4.125-1 1.688 4.23 1.688 4.23 5 7l-2 4-6-3 1 9h-5l1 7 6 1-2 3c-.167 3.125-.167 3.125 0 6-6.625.25-6.625.25-10-2l2.938-1.312c3.34-1.39 3.34-1.39 4.062-4.688l-1.812-.125C174 169 174 169 172.25 165.938L171 163l3-1 1-2h-4v-2l-4-1h2c-1.392-2.784-3.156-2.979-6-4l-1-7h3l1 4 2-1c1.537-.225 3.08-.408 4.625-.562l2.477-.254L177 148l-1.5-1.312C174 145 174 145 174 142c2 1 2 1 5 3 .082-3.044-.024-5.072-1-8z"/><path fill="#424342" d="M178 75c5.373.176 5.373.176 8 1 2 3.063 2 3.063 3 6a56.5 56.5 0 0 0 4-7l2 7 5-1a284 284 0 0 1 1.625 4.813l.914 2.707C203 91 203 91 201 94h-2l-2 4h-1c-.21 4.14-.21 4.14 1 8h-4v5h-1q-.29-2.686-.562-5.375l-.317-3.023C191 100 191 100 192 98l-2.312-.312c-2.973-.761-3.79-1.353-5.688-3.688-.59-1.91-.59-1.91-.937-4.062-1.015-5.274-2.948-10.02-5.063-14.938"/><path fill="#F3F3F2" d="M169.938 49.563c6.02.05 11.475 4.17 15.859 8.011C187 59 187 59 187 61l3 1v2l3 1v8c-1.462-.424-2.92-.865-4.375-1.312l-2.46-.739C184 70 184 70 182 67l-2 1c-2.164-.777-2.164-.777-4.625-1.937l-2.477-1.153L171 64v-2h-2l-1-4h-2v-5h2l-2-2c1-1 1-1 3.938-1.437"/><path fill="#2B2C2B" d="M153 170v6h17l1 2-13-1v2l-5-1v4h-18c3.709 3.709 6.519 4.044 11.504 5.156C149 188 149 188 151 191c-6.638.225-12.739-.49-19.277-1.66-2.684-.59-2.684-.59-4.723.66l-2-6c-2.167.833-2.167.833-3 3l-2-5 8-1v-3c4.625-1.177 9.079-1.114 13.813-1.062l2.388.013q2.9.02 5.799.049l-1-5c3-2 3-2 4-2"/><path fill="#525251" d="m139.723 93.902 3.34.035 3.347.028L149 94l-1 3 3-1 1 7 2.59.148 3.347.227 3.34.21L164 104l1 2 3 1 1 3h-3v2l-4 1-1-5-1.715 1.531-2.222 1.969-2.215 1.969C153 115 153 115 152 115v-9h-4v-2l-7 2 3 3h-5l-.312-1.937L138 105l-3-1q.212-2.22.438-4.437c.08-.824.162-1.648.246-2.497.482-3.151.78-3.047 4.039-3.164"/><path fill="#DCDCDB" d="M152 124h4l.113 1.758c.505 6 1.467 10.822 5.887 15.242-.375 3.125-.375 3.125-1 6l-3 1v6l-5 2-.297-2.3-.453-3.012-.422-2.989c-.57-2.833-.57-2.833-2.91-4.18-.633-.5-1.266-1.002-1.918-1.519-.277-2.812-.277-2.812.063-6l.285-3.187c.704-3.035 1.375-3.826 3.652-5.813z"/><path fill="#1B1C1B" d="M185 185c1.938.813 1.938.813 4 2 1.073 3.219 1.138 5.743 1.25 9.125.373 5.66 1.562 9.371 4.691 14.07C196 212 196 212 196 215h2l-1 3-7-1q-.751-3.342-1.484-6.687c-.373-1.674-.779-3.34-1.203-5-.397-2.936.084-5.43.687-8.313l-5 3-1-1-2 4h-4a69 69 0 0 0-4 1l-1-2 1.563-1.562c2.01-3.409 1.234-5.67.437-9.438 2.66 0 4.5.193 7 1l2 2h2v3l1-3 1-1h-5v-2h3z"/><path fill="#181918" d="M114 187c3.848 3.06 7.147 5.94 10 10v2l3 1a141 141 0 0 1 5 5l2.813 2.813L137 210l-1 2h-2l-2 2-2-3-3-1-1-3h-2l-1 2-1-4-2 1-2-4-4 13-2-1c-1.088-5.166-1.062-8.64.453-13.77 1.061-4.326 1.237-8.796 1.547-13.23"/><path fill="#595A59" d="M150 75h1v19l5 1c2.125 1.938 2.125 1.938 4 4l3 2v2l3 1 1 3-1.875-.875c-4.284-1.542-8.654-2.309-13.125-3.125l-1-7-3 2-3-1 3-2-11-1v-3h2l.813-2.437L141 86l3-1c1.125-1.833 1.125-1.833 2-4l2-4h2z"/><path fill="#5F605F" d="M100 92h1v5l4-1-1 3c-.7 7.358.426 14.278 2.02 21.428.831 3.888.97 6.73-.02 10.572l.5 2.313c.482 2.591.38 4.182 0 6.75-.412 3.244-.614 4.965.5 7.937h-2l-1 3c-1.385-5.455-2.24-10.367-2-16h-2l-.687-1.812c-1.65-2.749-3.587-3.58-6.313-5.188-1-3-1-3 0-6 3.366 1.443 5.51 3.333 8 6q.04-2.343.063-4.687l.035-2.637c-.02-2.64-.02-2.64-.598-5.026-.5-2.65-.614-5.038-.598-7.732l.01-2.822.025-2.909.014-2.966Q99.97 95.61 100 92"/><path fill="#9C9D9C" d="M150 57h1q.04 4.438.063 8.875l.025 2.55.01 2.442.016 2.254C151 75 151 75 150 77l-2.437-.5c-4.252-.597-8.272-.565-12.563-.5V62l4.688-.375C143.45 61.257 146.58 60.71 150 59z"/><path fill="#070807" d="m129 122 2.063.438c3.018.62 3.018.62 6.437.937 3.518.628 5.595 1.6 8.5 3.625v-2h2c.988 3.946.962 7.274.563 11.313l-.31 3.238L148 142l-2-3-1 5h-1v-5l-2.937.063C138 139 138 139 137 138l-3-1-1-3h3l-3-1-1-2h-2v-4h-3v-3h2z"/><path fill="#2A2B2A" d="M147 143c4 1 4 1 5 2 .393 1.679.74 3.369 1.063 5.063l.535 2.785L154 155l2.262-.59c4.068-.61 6.1.807 9.738 2.59l-1 6h-8v-5h-4v7h-6l1-3-3-1-1 3c-1.937-.812-1.937-.812-4-2l-1-3c5.75-3 5.75-3 8-3z"/><path fill="#959695" d="m158 135 11 1v3l1.938.75C173 141 173 141 173.563 143.063L174 145l3 1 1 3-2.082.184-2.73.254-2.708.246c-2.607.25-2.607.25-5.48 1.316v-5h-3l2 7 6 1-1 3 2 1v2h4l-1 3h-2v-2l-2.375-.312C167 160 167 160 165 157a118 118 0 0 0-7-3c-.187-2.812-.187-2.812 0-6l3-3c-.245-3.342-.605-4.605-3-7z"/><path fill="#080908" d="M128 188c3.793.444 7.584.908 11.375 1.375l3.273.383 3.125.39c.954.116 1.907.23 2.889.35C151 191 151 191 153 193h-3v2h-3v5h4l1 5h-2v2h-2v-4l-6 2-1-2h-2v-2l-1.812.625C135 202 135 202 132 200c-.623-2.718-1-5.212-1-8l-3-2z"/><path fill="#2B2C2B" d="M148 104v2h4l1 8 1.715-1.531 2.222-1.969 2.215-1.969C161 107 161 107 162 107v6l-7 2 1 3-3 2 1 2 3 1 1 7h2v2l3-1v2l5 2v2c-2.763-.523-5.326-1.109-8-2l-1 2c-2.048-1.963-2.95-3.428-3.2-6.27.011-2.25.07-4.484.2-6.73h-4l-1 5h-3v-4h2l1-9c-3.904-1.952-6.722-2.506-11-3l-1-4 4-1-4-3c3.426-1.618 5.38-2.34 9-1"/><path fill="#6F706F" d="M133 60h2v16l12-1c1 4 1 4-.687 7-1.975 2.562-3.993 4.76-6.313 7l-1 2h-2l-1 4v-7h-2c-.92-2.243-1.811-4.49-2.687-6.75l-.8-1.922c-.712-1.875-.712-1.875-1.513-5.328 1.23-2.453 1.23-2.453 3-4h2l-1-2c-.134-2.672-.043-5.323 0-8"/><path fill="#161716" d="M169 118q2.937-.118 5.875-.187l3.305-.106L181 118l2 3v-1h6l-3 2c1.25 3.653 1.671 4.78 5 7-4.873 1.591-8.808 2.212-14 2l-1 4h3l1 10c-4.39 0-5.77-2.128-9-5l4-1v-6l-1.937-.375L171 132l-1-2 2.371-.367 3.066-.508 3.06-.492L181 128l1-2-15-1v-3l-2-1 4-2z"/><path fill="#1A1B1A" d="M203 90c1.76 3.522 1.185 7.559 1.188 11.438l.037 2.642.005 2.541.013 2.326C204 111 204 111 202 114c-2.5.313-2.5.313-5 0l-2-2-3 2 4 2v2h2v2h-2l-1 3-3-2v-3l-2 1c-.687-2.312-.687-2.312-1-5 1.375-1.5 1.375-1.5 3-3 .722-2.606.722-2.606 1-5l3-1-1-1c-.141-2.67-.042-5.324 0-8h3l1-2h2z"/><path fill="#050605" d="M163 122h4v3l3.21-.07q2.083-.029 4.165-.055l2.117-.05c1.837-.018 3.674.072 5.508.175l2 2-1 2c-2.066.633-2.066.633-4.562 1.125l-2.504.508L174 131l1.063 2.188c1.041 3.124.828 4.694-.063 7.812-2.875-.75-2.875-.75-6-2-1.062-1.937-1.062-1.937-2-4-3.214-2.345-3.214-2.345-7-3v-2h-2l-1-5 2.438-.375L162 124z"/><path fill="#101110" d="m126 206 .75 1.938c1.056 2.245 1.056 2.245 3.313 2.75L132 211l1 1 1-2 4 1c-.875 6.875-.875 6.875-2 8l2 1v3l4 1v2c-2.25.688-2.25.688-5 1-2.312-1.437-2.312-1.437-4-3l-1 4 4-1-1 2c-3.062.625-3.062.625-6 1v2l-5 2c-1.062-1.812-1.062-1.812-2-4l1-3h3l-1-3-2-1v-2l6-1v-8h-3z"/><path fill="#ABACAB" d="M121 191h4c1.257 2.906 2 4.796 2 8l3 1 1.625 2c3.045 2.564 5.051 2.402 8.914 2.652 4.211.595 7.666 2.48 11.461 4.348v11c-3.104-.776-5.25-1.527-8-3v-2h-2v-3l-2.191-.242C132.297 209.73 125.547 201.102 121 195z"/><path fill="#0F100F" d="M93 128h4l1 2 2-1v6h2q.76 3.81 1.5 7.625l.434 2.16c.796 4.136 1.226 7.98 1.066 12.215h-6l-.805-2.887-1.07-3.8-1.055-3.762c-.964-3.439-.964-3.439-2.195-6.176-1-2.715-1.077-4.806-1-7.687l.055-2.676z"/><path fill="#141514" d="M120 174c.897 2.69 1.279 4.889 1.563 7.688l.253 2.449L122 186v-2l3-1c1.46 2.647 2 3.894 2 7l2.438.875C132 192 132 192 133 194h-2l1 6 7 1v2h2l1-3v5c-4.833.509-7.845.637-11.75-2.437-3.18-3.044-4.568-6.196-6.152-10.243-1.903-4.022-4.818-7.336-8.098-10.32l-3-1c.375-2.937.375-2.937 1-6 2-1 2-1 6-1"/><path fill="#0B0C0B" d="m201 116 3 1v2h-2v2l3 1-1.437 1.25c-1.726 1.932-2.129 3.232-2.563 5.75l-3-1v3h-11v2c-3.823 1.423-6.913 2.24-11 2l1-4 13-2-3-2v-4l-2-1c1-1 1-1 4.25-1.125 3.086.103 5.764.401 8.75 1.125l1-4h2z"/><path fill="#575857" d="m140.688 117.063 2.886 1.285c2.852 1.942 3.485 3.388 4.426 6.652h-2v2l-4-1-1.844-.437c-2.342-.611-4.614-1.35-6.906-2.126l-2.422-.816L129 122v2c-9.41 3.444-9.41 3.444-14 3l-2-5c1.59-.09 1.59-.09 3.21-.184l4.165-.254 2.117-.119c3.882-.186 3.882-.186 7.508-1.443v-3c4.32-2.274 6.313-1.984 10.688.063"/><path fill="#ADAEAD" d="M187 131q2.157.174 4.313.375l2.425.21C196 132 196 132 199 134c.188 3.125.188 3.125 0 6h-4v2a91 91 0 0 1-4 4l-3-1-1-5h-5l-1-6 6-1z"/><path fill="#D5D6D5" d="M182 65c2 3 2 3 2 5 3.05 1.011 3.05 1.011 6 0l3 3-1-5h3l1 3h2l1 11h-2l-2 4-3-7-2 5a140 140 0 0 1-5-7c-2.563-.73-2.563-.73-5-1v-1l6-2c-3.663-2.478-6.61-3.49-11-4 3-2 3-2 6-2z"/><path fill="#5E5F5E" d="M179 135h2l1 5h5l2 6-8-4-1 9h-2l-1 3-5 1-1 3-4-1h2c-1.392-2.784-3.156-2.979-6-4l-1-7h3l1 4 2-1c1.537-.225 3.08-.408 4.625-.562l2.477-.254L177 148l-1.5-1.312C174 145 174 145 174 142c2 1 2 1 5 3 .082-3.044-.024-5.072-1-8z"/><path fill="#CFD0CF" d="m172 69-4 2v20c-2-4-2-4-2.062-6.5-1.206-3.216-2.318-3.459-5.375-4.875-2.35-1.047-2.35-1.047-4.563-1.625l-2 1-1-2-1 16h7v1h-8V74l9-3 3.188-1.187c3.06-.884 5.643-.964 8.812-.813"/><path fill="#121312" d="M160 200h2v5l3-4c1.875.188 1.875.188 4 1a125 125 0 0 1 2 5l3 1 1-2c2.34 2.128 3.707 4.116 5 7l-2.437.813L175 215l-1 3-3 1-1-2h2v-2l-4-1-1-10-1 4-6 3-3-2 1-7h2z"/><path fill="#F6F7F6" d="m165 52-.125 2.813c-.146 3.345-.146 3.345 2.125 6.187 2.06.724 2.06.724 4 1v2l2.938.875C177 66 177 66 178 68c-1.748.223-3.499.428-5.25.625l-2.953.352C166.866 69 165.455 68.53 163 67v-2l-2.125-.75c-3.245-1.41-5.978-3.229-8.875-5.25 1.394-2.787 3.165-3.265 5.938-4.625l2.714-1.352C163 52 163 52 165 52"/><path fill="#030403" d="m130 109 1.836.586c5.362 1.666 10.566 2.925 16.133 3.691 2.031.723 2.031.723 3.336 2.524 1.14 3.609.312 6.499-.305 10.199-3-1-3-1-4.25-3.375-2.824-4.236-7.085-5.07-11.75-6.625-2.657.88-2.657.88-5 2z"/><path fill="#171816" d="M150 193h3v7h7v2h-2l-1 9h-4l.625 2.813C154 217 154 217 152 220v-11l-5-1c-2.312-1.062-2.312-1.062-4-2v-2l5-1v4h2v-2h2l-1-5h-4v-5h3z"/><path fill="#CECFCE" d="m172 92 3 1-4 3 3 2v2l3 1h-2l1.059 1.898 1.379 2.477 1.37 2.46q1.137 2.061 2.192 4.165c-4.707-.565-8.426-1.475-13-3l-1-14-4-1 6.152-.684c1.86-.135 1.86-.135 2.848-1.316"/><path fill="#252625" d="M166 202c1.765 3.088 2 4.233 2 8l2 1-5 1 2 1.813c2 2.187 2 2.187 2 5.187l-2 2-1 2h-3l-1-8-3 3-6-2v-5h4l1-2h2v2c3.041-1.67 3.041-1.67 4-4l2 1z"/><path fill="#EFF0EF" d="m170 191 1 3-1.375 1.313C167.8 197.108 167.8 197.108 166 200c-3.04.293-3.04.293-6.625.188l-3.602-.083L153 200v-7l2.082-.402 2.73-.536 2.708-.527c7.027-1.516 7.027-1.516 9.48-.535"/><path fill="#CDCECD" d="m166 159 6 2v2l-2 1c-.652 2.025-.652 2.025-1 4l-6-1 2 1v2h4l-1 2h-8l-1 3-5-1-1-4 3-1 1-3c5.222-3 5.222-3 8-3z"/><path fill="#C9CAC9" d="m158 45-2 4-3-1c-2.134 0-4.259.739-6.312 1.25l-2.926.703c-3.917 1.485-5.997 3.67-8.012 7.297L135 59l-2-1v-3l-3-1v-4c4.928-3.012 9.702-3.764 15.39-4.57 4.993-.822 7.327-1.197 12.61-.43"/><path fill="#010201" d="M124 95c5.744 3.782 5.744 3.782 6.401 6.913-.035 2.17-.234 4.248-.526 6.4l-.227 2.244A213 213 0 0 1 129 116l-3-1v-2h-5l1-15h2z"/><path fill="#767776" d="M178 75c5.373.176 5.373.176 8 1 2 3.063 2 3.063 3 6a56.5 56.5 0 0 0 4-7c1.193 3.877 2 6.916 2 11-4.266 1.138-7.565 2-12 2z"/><path fill="#272827" d="M169 190c1.875.25 1.875.25 4 1 1.567 2.164 2.083 3.333 1.75 6-.783 2.088-1.697 4.035-2.75 6l4-1 1 4c-3 2-3 2-5.687 1.625L169 207l-1-5-3-1-1 5h-2l-1 2-1-3h2v-5l1.813-.187c3.045-1.132 3.632-3.056 5.187-5.813h2z"/><path fill="#252624" d="m103 107 8 2-2 1 1 8 4 1 1 8h-3l1-3h-2v3c-2-1-2-1-5-3-.95-3.152-.95-3.152-1.687-6.937l-.762-3.778C103 110 103 110 103 107"/><path fill="#1A1B1A" d="M171 221h9q.293 2.374.563 4.75l.316 2.672c.117 2.493-.206 4.203-.879 6.578-.038 2-.045 4 0 6-2-3-2-3-2.25-5.5-.546-2.847-.546-2.847-3.812-4.312L171 230z"/><path fill="#535453" d="M121 58a114 114 0 0 1 5 3c2.191.696 2.191.696 4 1v8h-7l-1-2-3 3-1-12z"/><path fill="#EDEEED" d="M138 52c4.515.531 7.347 2.366 11 5-1.75 3.875-1.75 3.875-4 5a95 95 0 0 1-5.125.063l-2.758-.028L135 62c.75-6.625.75-6.625 3-10"/><path fill="#7B7C7B" d="m150 91 1 3 2.25.25c3.304.901 4.477 2.25 6.75 4.75l3 2v2l3 1 1 3-1.875-.875c-4.284-1.542-8.654-2.309-13.125-3.125l-1-7-3 2-3-1 3-2v-3z"/><path fill="#8A8B8A" d="M100 92h1v5l4-1-1 3a97 97 0 0 0-.125 5.375l-.008 2.836c.129 2.703.597 5.143 1.133 7.789q.097 2.405.063 4.813l-.028 2.394L105 124h-3c-2.755-10.505-2.195-21.237-2-32"/><path fill="#747574" d="M189 88c3.916 1.305 4.895 2.443 7 6 .232 2.638.19 5.15.043 7.793-.215 2.25-.215 2.25.957 4.207h-4v5h-1q-.29-2.686-.562-5.375l-.317-3.023C191 100 191 100 192 98l-2.375-.312C187 97 187 97 185 94h3z"/><path fill="#0D0E0D" d="M166 110c6.002-.218 11.192.494 17 2v1h-5l-.75 1.875c-1.54 2.62-2.34 3.26-5.25 4.125-3.75-.375-3.75-.375-7-1l-1-3h2z"/><path fill="#333433" d="M129 104h1c.68 4.305 1.067 7.536.438 11.875L130 119l2 2c-6.048.896-11.89 1.113-18 1 .313-1.937.313-1.937 1-4l3-1v4c3.916-2.794 3.916-2.794 6-7h-3v3h-2l1-4c5.538-.37 5.538-.37 7.875 1.5L129 116l-.562-2.062c-.523-3.51-.052-6.46.562-9.938"/><path fill="#323332" d="M189 196h1l.297 1.723c.793 4.094 1.66 7.56 3.828 11.152C196 212 196 212 196 215h2l-1 3-7-1c-.5-2.23-.996-4.459-1.48-6.691a90 90 0 0 0-1.27-4.934c-.36-3.414.677-6.155 1.75-9.375"/><path fill="#272827" d="M203 90c1.655 3.31 1.1 6.991 1.063 10.625l-.014 2.43q-.02 2.972-.049 5.945h-2v-4l-4 2-1-6-2 3v-8h3l1-2h2z"/><path fill="#313231" d="M191 128c-3.21 3.21-6.375 2.99-10.812 3.063L177 131l-1 4h3l1 10c-4.39 0-5.77-2.128-9-5l4-1v-6l-1.937-.375L171 132l-1-2c1.481-.2 1.481-.2 2.992-.402l3.883-.536 3.867-.527c7.391-1.214 7.391-1.214 10.258-.535"/><path fill="#5E5F5E" d="M181 160v1h-5l1 7 6 1-2 3c-.167 3.125-.167 3.125 0 6-6.625.25-6.625.25-10-2l2.938-1.312c3.34-1.39 3.34-1.39 4.062-4.688l-1.812-.125C174 169 174 169 172.25 165.938L171 163l3-1 1-2c3-1 3-1 6 0"/><path fill="#0F0F0E" d="m126 124 1 3h3l1 6h-11v-2l-3-1 1-2-3-1z"/><path fill="#D9DAD9" d="M172 50c5.523 1.38 9.874 4.13 14 8l1 3 3 1-2 5-3-4-2 1-.258-1.832c-.96-2.804-2.085-3.385-4.617-4.855l-2.117-1.262C173.89 54.875 173.89 54.875 171 54z"/><path fill="#191A19" d="M106 136c2.463 2.463 2.998 4.707 4 8l7 1v4h-2v-3h-4v6l3-1-.937 1.813c-1.165 2.277-1.165 2.277-2.063 5.187h-2c-4.777-14.597-4.777-14.597-3-22"/><path fill="#0F100F" d="M115 207h2v7h2l-2 9-2-1c-.625-2.062-.625-2.062-1-4h-9l2-1a127 127 0 0 0 2-6l1-2h2l2 6z"/><path fill="#1C1C1B" d="m111 71-1.875.625c-3.039 1.966-3.363 3.91-4.125 7.375l.508 1.945C106.615 85.568 104.327 91.011 102 95l3 1-4 1c-1.7-7.015-1.115-12.624 1.375-19.375.44-1.225.882-2.45 1.336-3.71 1.886-4.264 3.15-4.157 7.289-2.915"/><path fill="#1C1D1C" d="m143 223 5 1v1l5 1-1 8-1-3c-2.97.628-2.97.628-6 2-1.44 2.51-1.44 2.51-2 5-.976-2.928-1.082-4.956-1-8h2z"/><path fill="#222322" d="m123 53 1 3c-1.312 1.5-1.312 1.5-3 3h-3l.5 2.063c.57 3.353.567 6.54.5 9.937l-7-1 2-6h-3l2.438-2.312c2.73-2.482 2.73-2.482 3.562-5.688l6-1z"/><path fill="#EEEFEE" d="m153 140 2 1v3l2.375-.625L160 143l2 2-2 3h-2v6l-5 2z"/><path fill="#DADBD9" d="M183 89c.75 1.75.75 1.75 1 4-2.285 2.793-5 5-8 7h-2v-2l-4-2c2.155-2.357 4.197-3.79 7.063-5.187l2.097-1.043C181 89 181 89 183 89"/><path fill="#050605" d="M153 182c-3.588 3.272-6.084 4.902-11 5-2.496-.795-4.643-1.821-7-3v-2c5.644-1.881 12.27-1.528 18 0"/><path fill="#303130" d="M153 170v6h17l1 2-13-1v2l-5-1v4h-5l1-2-4-3h5l-1-5c3-2 3-2 4-2"/><path fill="#A4A5A4" d="m147.125 157.938 3.32.027L153 158v7h-6l1-3-3-1-1 3c-1.937-.812-1.937-.812-4-2l-1-3c2.765-1.382 5.046-1.095 8.125-1.062"/><path fill="#131413" d="M125 169c2.063.438 2.063.438 4 1l1 6h-2l-.75 2.938C126 182 126 182 124 182.938c-2 .062-2 .062-4-.938v-5l2 2 .402-1.934c.177-.826.354-1.652.535-2.504l.528-2.496C124 170 124 170 125 169m5 3 3 1-3 2z"/><path fill="#8D8D8C" d="M135 208c5.857 1.662 11.459 3.47 17 6v6c-2.929-.628-5.361-1.586-8-3v-2h-2v-3l-2.375-.312C137 211 137 211 135 208"/><path fill="#EFF0EF" d="M163 140c5.625-.25 5.625-.25 9 2 1.188 3.125 1.188 3.125 2 6l-9 3 .125-2.75c-.121-3.153-.554-4.6-2.125-7.25z"/><path fill="#828281" d="M147 143c4 1 4 1 5 2a164 164 0 0 1 1.063 6.063l.535 3.347L154 157l-7-2z"/><path fill="#070807" d="M160 200h2v5l3-4 4 1 1 4-3-2-.375 1.938L166 208l-6 3-3-2 1-7h2z"/><path fill="#ABACAB" d="M148 130c2.48 1.422 2.48 1.422 5 4 .634 3.1.472 6.102.313 9.25l-.069 2.547A348 348 0 0 1 153 152h-1l-.25-3.312L151 145l-2.062-1.344L147 142c-.172-2.918-.172-2.918.25-6.187l.39-3.293c.12-.832.238-1.663.36-2.52"/><path fill="#C7C8C7" d="m162.125 181.938 3.883.027L169 182v3l-1.863.402-2.45.536-2.425.527c-2.407.534-2.407.534-5.262 1.535-2.187-.437-2.187-.437-4-1v-4c3.003-1.502 5.79-1.093 9.125-1.062"/><path fill="#919291" d="m149 179 1 2c-2.395.277-4.787.522-7.187.75l-2.042.246c-3.818.335-5.524.168-8.76-1.98L130 178c6.468-2.156 12.658-1.003 19 1"/><path fill="#1D1E1D" d="M193 106h3v6l-4 2 4 2v2h2v2h-2l-1 3-3-2v-3l-2 1c-.687-2.312-.687-2.312-1-5 1.375-1.5 1.375-1.5 3-3 .722-2.606.722-2.606 1-5"/><path fill="#B9BAB9" d="M209 135c1.065 2.73 1.08 3.793.004 6.578l-1.441 2.672-1.434 2.703L205 149l-4-1c-.25-5.625-.25-5.625 2-9l3 1z"/><path fill="#020302" d="m141 138 1.875.563c2.167.674 2.167.674 4.125-.563v10h-3l-1-2-2 3c-1.687-2.125-1.687-2.125-3-5 1.313-3.312 1.313-3.312 3-6"/><path fill="#242523" d="m126 206 .75 1.938c1.056 2.245 1.056 2.245 3.313 2.75L132 211l1 1 1-2 4 1-1 7-8-1v-5h-3z"/><path fill="#A2A3A2" d="M121 191h4c1.257 2.906 2 4.796 2 8l3 1a142 142 0 0 1 5 5l2 2-3 1c-4.893-2.938-9.984-8.162-13-13z"/><path fill="#414241" d="M140.563 93.938 144 94c.438 2.188.438 2.188 0 5-2.14 1.984-4.502 3.502-7 5l-2-1c.998-8.982.998-8.982 5.563-9.062"/><path fill="#5B5C5B" d="M125 192c3.875 2.625 3.875 2.625 5 6 3.213 1.886 5.246 3 9 3v2h2l1-3v5c-4.95.521-7.891.6-11.875-2.562-3.342-3.19-4.316-5.944-5.125-10.438"/><path fill="#D1D1D0" d="m184 94 8 4v11h-2a105 105 0 0 1-4-5l2-3h-2c-1.46-2.647-2-3.894-2-7"/><path fill="#B9BAB9" d="M168 97h1l1 9 2-2v2l2.813.188c3.187.812 3.187.812 5.062 3.374L181 112c-4.571-.549-8.674-1.417-13-3z"/><path fill="#C5C6C5" d="m141 50-1.875 2.25c-1.73 2.238-2.986 4.187-4.125 6.75l-2-1v-3l-3-1v-4c3.924-2.825 6.68-1.496 11 0"/><path fill="#5B5C5B" d="M155 123h2l1 7h2v2l3-1v2l5 2v2c-2.763-.523-5.326-1.109-8-2l-1 2c-2.682-3.077-3.42-5.197-3.687-9.25l-.2-2.703z"/><path fill="#383837" d="m122 67 1 3h9c-2.808 2.964-5.183 5.445-9 7-1.625-2.187-1.625-2.187-3-5 .813-2.812.813-2.812 2-5"/><path fill="#8F908F" d="m129 50 1 3 2 1a78 78 0 0 1 2 5c-2 2-2 2-4.437 2.375C127 61 127 61 125.188 59L124 57l4-3-1-3z"/><path fill="#D8D9D8" d="M190 107v2h2l-1 4c-7.75.125-7.75.125-10-1 1.066-2.907 1.703-3.844 4.5-5.312C188 106 188 106 190 107"/><path fill="#AFB0AF" d="M192 74c-.75 7.75-.75 7.75-3 10l-1.687-3.437c-1.735-3.118-1.735-3.118-5.063-4.5L180 76v-1a367 367 0 0 1 4.313-1.062l2.425-.598C189 73 189 73 192 74"/><path fill="#252525" d="m126 224 1 2c2.126.467 2.126.467 4.563.625l2.503.227L136 227l-1 2c-3.062.625-3.062.625-6 1v2l-5 2c-1.062-1.812-1.062-1.812-2-4l1-3h3z"/><path fill="#414241" d="M114 193h1q.29 2.686.563 5.375l.316 3.023C116 204 116 204 115 206c-.225 1.537-.408 3.08-.562 4.625l-.254 2.477L114 215l-2-1c-1.849-7.394.049-13.768 2-21"/><path fill="#060706" d="m194 111 1.813 1c2.24 1.208 2.24 1.208 5.187 1 1.224 3.671.617 4.597-1 8l-2 3-2-1v-3h2v-2h-2l-1-2c-2.017-1.134-2.017-1.134-4-2l3-1z"/><path fill="#191918" d="m130 74 1 6c-1.666.043-3.334.04-5 0l-1-1-1 19h-1a666 666 0 0 1-.25-10.312l-.102-2.96-.039-2.841-.063-2.619C123 77 123 77 124.836 75.195 127 74 127 74 130 74"/><path fill="#353635" d="M125 199c4.184 3.509 8.196 7.08 12 11l-1 2h-2l-2 2c-2-3-2-3-3-6l-1.562-2.562C126 203 126 203 126 201l-3 1v-2z"/><path fill="#8C8D8C" d="M136 186c10.153.35 10.153.35 13.688 3.063L151 191c-5.439.218-9.87.104-15-2z"/><path fill="#343534" d="M120 182h10l1 3 2 1v3l-6 1-2-6c-2.167.833-2.167.833-3 3z"/><path fill="#626362" d="M111 155c1.986 7.536 2.315 13.51 0 21-2.043-3.38-2.27-6.018-2.25-9.937l-.016-3.09c.27-3.026.994-5.231 2.266-7.973"/><path fill="#FAFBFA" d="M150 49v7c-4.128-.607-7.332-2.038-11-4 3.276-3.276 6.51-3.125 11-3"/><path fill="#292A28" d="M131.563 138.938 135 139l.375 1.938L136 143l2 1c-5.75 4-5.75 4-8 4l.188-2.312c.071-2.733.071-2.733-1.688-4.5L127 140c1-1 1-1 4.563-1.062"/><path fill="#1D1E1D" d="m201 116 3 1v2h-2v2l3 1-1.437 1.25c-1.726 1.932-2.129 3.232-2.563 5.75l-4-2v-5l2-1v-3h2z"/><path fill="#D8D9D8" d="M169 68c7.687.256 13.352 1.037 20 5-2.9 1.659-4.916 2.236-8.25 2.125L177 75l3-5-5.957.195C172 70 172 70 169 68"/><path fill="#CECFCD" d="m166 47 6 2v1l-5 1 2 2-2 1c-.652 2.025-.652 2.025-1 4h2l1 3-3 1v-3h-11v-1h10v-6l-3-1 3-1z"/><path fill="#8E8F8E" d="m178 75 8 1 2 5h-3l1 2h-2v5c-1.827-2.74-2.937-5.138-4.125-8.187l-1.07-2.731z"/><path fill="#C6C7C6" d="m142.625 57.938 3.04.027L148 58c-1 3-1 3-3 4a95 95 0 0 1-5.125.063l-2.758-.028L135 62v-3c2.645-1.322 4.678-1.097 7.625-1.062"/><path fill="#030403" d="m177 203 3 4 3-1v3h-2c1.925 2.224 1.925 2.224 5 3v2h-7c-1.417-3.307-2.504-6.426-3-10z"/><path fill="#454645" d="M148 203v4h2v-2h3c.222 1.936.427 3.874.625 5.813l.352 3.269C154 217 154 217 152 220v-11l-5-1c-2.312-1.062-2.312-1.062-4-2v-2c2-1 2-1 5-1"/><path fill="#313130" d="M114 187c5.75 4.625 5.75 4.625 8 8v4l-2-1 1-2-6 1z"/><path fill="#060706" d="M186 156c.286 8.571.286 8.571-2 12l-3-1c-.812-2.687-.812-2.687-1-6 4.13-5 4.13-5 6-5"/><path fill="#A6A7A6" d="M193 132c4.875.875 4.875.875 6 2 .04 2 .043 4 0 6h-4l-1 2c-.778-3.406-1.1-6.508-1-10"/><path fill="#ECEDEC" d="M154 137c3.688.498 5.605 1.1 8 4l-1 3c-2.477.908-4.336 1-7 1z"/><path fill="#B4B5B4" d="m195 69 1 2h2l1 11h-2l-2 4c-2.429-6.286-2.429-6.286-1-10l1 3h2z"/><path fill="#C8C9C8" d="M168.063 190.25 170 191l1 3-1.375 1.313C167.8 197.108 167.8 197.108 166 200c-3.625.188-3.625.188-7 0v-1h6l-1-8c2-1 2-1 4.063-.75"/><path fill="#272827" d="M118 169h6c-.114 1.626-.242 3.25-.375 4.875-.07.905-.14 1.81-.21 2.742C123 179 123 179 121 181l-2-6h-1z"/><path fill="#323332" d="m97 147 5 1-1 4 4 2v3h-6z"/><path fill="#0C0D0C" d="M179 200a56.5 56.5 0 0 1 7 4v4h-2v2l-3 1v-2h2v-3h-2l-1 2c-2-3-2-3-1.625-5.687z"/><path fill="#646564" d="M150 193h3v7l4 1-10-1v-5h3z"/><path fill="#ABACAB" d="M170 163c2.526 2.363 3.888 3.665 5 7-4.52 1.456-7.516.27-12-1v-2l6 1z"/><path fill="#E0E1E0" d="m166 159 6 2v2l-2 1c-.652 2.025-.652 2.025-1 4l-6-1z"/><path fill="#131413" d="M181 142a129 129 0 0 1 11 5 105 105 0 0 1-4 5h-2z"/><path fill="#434443" d="M195 140h3v5h-2v6l-1-3-5-1c1.375-2.5 1.375-2.5 3-5h2z"/><path fill="#2D2E2D" d="M203 90c1.274 2.547.802 3.428.063 6.125l-.59 2.195L202 100h-2v-2h-2l-1 3-2 3v-8h3l1-2h2zm-76-10h5l2 8h2v6c-6-7.4-6-7.4-6-11h-2z"/><path fill="#333433" d="M178 155v2h2v2c-2.957 1.478-5.742 1.06-9 1 .375-2.437.375-2.437 1-5 2.49-1.245 3.41-.777 6 0"/><path fill="#292928" d="M169 118c2.962.613 4.38 1.254 7 3 1.655.385 3.322.728 5 1v1l-2.3.184-3.012.254c-.987.08-1.973.162-2.989.246-2.793.234-2.793.234-5.699 1.316v-3l-2-1 4-2z"/><path fill="#4D4E4D" d="M181 160v1h-5c.256 2.343.593 4.678 1 7l2 1h-5l-3-6 3-1 1-2c3-1 3-1 6 0"/><path fill="#8D8E8D" d="M113 122h10v3c-3.228 2.152-4.284 2.2-8 2z"/><path fill="#1B1C1B" d="M129 92h1v6l6-4v9l-9-5 2-1z"/><path fill="#ECEDEC" d="M169.563 49.938 172 50c.125 2.875.125 2.875 0 6l-2 2h-4v-5h2l-2-2c1-1 1-1 3.563-1.062"/><path fill="#FBFCFB" d="M165 52v6h-11c3.072-3.072 6.44-6 11-6"/><path fill="#D9DAD9" d="M159.375 45.875C163 46 163 46 166 47l-1 4-3.875-.312-2.18-.176C157 50 157 50 155 47c1-1 1-1 4.375-1.125"/><path fill="#7F807F" d="M103 134h1l3 14h-2l-1 3c-1.38-5.434-2.351-10.382-2-16z"/><path fill="#303130" d="m101 84 2 1v2h2c-1.875 5.75-1.875 5.75-3 8l3 1-4 1c-.982-4.053-1.16-7.835-1-12z"/><path fill="#454645" d="m138 211 4 1v3h2v2l5 1-2 2-10-3z"/><path fill="#313130" d="M192 208c2 1.813 2 1.813 4 4v3h2l-1 3-7-1 1-3.375c1.089-3.32 1.089-3.32 1-5.625"/><path fill="#101110" d="M111 159h2c4.043 6.993 4.043 6.993 3.875 10.938C116 172 116 172 114 173z"/><path fill="#BCBDBC" d="M192 133c1.848 3.118 2.543 5.381 2 9-2 2.313-2 2.313-4 4-1.199-5.449-.914-8.222 2-13"/><path fill="#191A19" d="M145 131h2c1.283 3.85 1.066 6.947 1 11l-2-3-1 5h-1v-5l-2-1z"/><path fill="#B8B9B8" d="M152 73c2.063.438 2.063.438 4 1h-2c-1.238 3.713-1.356 7.313-1.562 11.188l-.131 2.271q-.158 2.77-.307 5.541h7v1h-8c-.029-3.312-.047-6.625-.062-9.937l-.026-2.866-.01-2.724-.016-2.524C151 74 151 74 152 73"/><path fill="#CFD0CF" d="m172 50 6 2v3h2l2 4c-3.791-1.45-7.387-3.152-11-5z"/><path fill="#262725" d="m176 161 5 1 .375 2.375c.416 2.766.416 2.766 2.625 4.625l-7-1z"/><path fill="#7A7B7A" d="M148 158h5v7h-6z"/><path fill="#9E9F9E" d="M136 116c3.432 1.24 6.303 2.503 9 5v3l-7-2v-3h-2z"/><path fill="#BEBFBE" d="M169.063 68.938 172 69l-4 2v20c-1.838-3.677-2.937-7.05-4-11h2l-.254-2.152-.309-2.785-.316-2.778L165 70c1-1 1-1 4.063-1.062"/><path fill="#121312" d="M124 201h2l4 8-2 2-2-4h-2l-1 2c-1.208-3.623-.543-4.641 1-8"/><path fill="#A7A8A7" d="M165 139c5.478-.365 5.478-.365 7.875 1.313C174 142 174 142 174 145l3 1 1 3h-6v-3c-.005-2.102-.005-2.102-1-4-2.996-1.305-2.996-1.305-6-2z"/><path fill="#353635" d="m169 181 11 1-3 3h-2v2h-4v-3h-2z"/><path fill="#919291" d="m182 137 8 1v8c-1.5-1.312-1.5-1.312-3-3v-3h-5z"/><path fill="#636463" d="M153 101c8.787-.447 8.787-.447 13 3l1 3-1.937-.875c-3.947-1.45-7.95-2.283-12.063-3.125z"/><path fill="#737473" d="M169 190c1.875.25 1.875.25 4 1 1.313 1.875 1.313 1.875 2 4l-1 3c-2.062.688-2.062.688-4 1l-2-4 3-1z"/><path fill="#1D1D1C" d="m111 120 1 3h2l1 4h-3l1-3h-2v3c-2-1-2-1-5-3v-3l5 1z"/><path fill="#6F706F" d="m151 97 2 1 2.875-.187C159 98 159 98 161.375 100l1.625 2-10-1-1 2z"/><path fill="#F6F7F6" d="M169 70h11l-1 4c-3.312.25-3.312.25-7 0z"/><path fill="#3A3B3A" d="M153 183v9h-2a159 159 0 0 1-5-6c4.75-3 4.75-3 7-3"/><path fill="#121312" d="m158 155 7 1 1 4-2-1c-2.02.606-4.023 1.27-6 2z"/><path fill="#828382" d="M162 147c.981 3.053.981 4.947 0 8l-4-1v-6c2-1 2-1 4-1"/><path fill="#191A19" d="M137.188 106.375 139 107l1 5c-5.75-.875-5.75-.875-8-2v-2c3-2 3-2 5.188-1.625"/><path fill="#C1C2C1" d="M183 89c1.125 3.75 1.125 3.75 0 6l-8-1 1-3c2.433-1.185 4.28-2 7-2"/><path fill="#171817" d="m165 215 4 1v3l-2 2-1 2h-3c-.2-3.716-.152-4.772 2-8"/><path fill="#1D1E1D" d="M127 190c4.875 1.75 4.875 1.75 6 4h-2l1 5c-1.937-.562-1.937-.562-4-2-.75-3.625-.75-3.625-1-7"/><path fill="#171817" d="M170 182h2l1 3h-2l1 6-4-2v-3h-6v-1l3.438-.375L169 184z"/><path fill="#C5C6C5" d="M139 178c5.957-.293 5.957-.293 8 0l3 3h-12z"/><path fill="#555655" d="M147 150c2.169.506 4 1 6 2 .625 2.563.625 2.563 1 5l-7-2z"/><path fill="#1B1C1B" d="m209 121 1 4-3 1c-1.219 2.504-1.219 2.504-2 5h-3v2l2 1h-3c.325-3.574.639-5.557 2.938-8.375C206 124 206 124 208 124z"/><path fill="#4C4D4C" d="M128 64c2 3.75 2 3.75 2 6h-7c.25-1.875.25-1.875 1-4 2.063-1.25 2.063-1.25 4-2"/><path fill="#6C6D6C" d="m142 213 10 3v4c-2.929-.628-5.361-1.586-8-3v-2h-2z"/><path fill="#1D1E1D" d="m133 210 5 1-1 7-4-1z"/><path fill="#838483" d="M138 205c6.75.75 6.75.75 9 3v2c-3.123-.486-5.996-.999-9-2z"/><path fill="#202120" d="m122 196 3 3-2 1v5l-3 1-2-7h4z"/><path fill="#585958" d="M174 142c2 1 2 1 5 3l2-3-1 9h-2l-1 2-.375-3.437L176 146l-2-1z"/><path fill="#424342" d="m117 117 1 4 3-3 3 1v3h-10l1-4z"/><path fill="#131413" d="M196 99c2.553 2.553 2.433 3.953 2.75 7.5l.297 2.969C199 112 199 112 197 114c-1-1-1-1-1.098-4.16l.036-3.903.027-3.91z"/><path fill="#484948" d="M189 86c1 2 1 2 .063 5.125L188 94h-4c-.312-2.312-.312-2.312 0-5 2.5-1.812 2.5-1.812 5-3"/><path fill="#303130" d="M180 227c1.009 3.139.831 4.86 0 8-.038 2-.045 4 0 6-2.152-3.228-2.603-5.19-3-9l1-3-3-1c2-1 2-1 5-1"/><path fill="#191A19" d="M210 130h1v6l-3 1-2 2-2-1 2-5h2z"/><path fill="#757675" d="M93 122c2.622 1.049 3.794 1.65 5.25 4.125L99 128c-1.812.688-1.812.688-4 1-1.812-1.187-1.812-1.187-3-3 .313-2.187.313-2.187 1-4"/><path fill="#060706" d="M186 121h3v4h3v5c-1.937-.687-1.937-.687-4-2-.625-2.562-.625-2.562-1-5l-2-1z"/><path fill="#848584" d="M192 75h1l2 10h-6z"/><path fill="#2C2D2C" d="M138 217c4.318.508 8.033 1.197 12 3l-1 2c-7.508-.492-7.508-.492-10-3.062z"/><path fill="#080908" d="m124 183 2 1c.414 2.066.414 2.066.625 4.563l.227 2.503L127 193c-3.861-2.574-3.943-4.61-5-9z"/><path fill="#161716" d="m129 142 2 1-1 6-2.375-.062c-2.606-.125-2.606-.125-4.625 1.062.75-1.937.75-1.937 2-4 2.125-.75 2.125-.75 4-1z"/><path fill="#3D3E3D" d="m159 106 1 3c-4.75 4-4.75 4-7 4v-5c3.75-2 3.75-2 6-2"/><path fill="#C5C6C5" d="m174 100 3 1h-2l3 6-2 1c-2.125-.937-2.125-.937-4-2 .875-4.875.875-4.875 2-6"/><path fill="#626362" d="M189 88c3.688 1.23 4.724 2.939 7 6h-8z"/><path fill="#C0C1C0" d="M182 65c2 3 2 3 2 5l5 2-3 1a788 788 0 0 1-5-3c-3.194-.714-3.194-.714-6-1 3-2 3-2 6-2z"/><path fill="#B3B4B3" d="M135 62h9c-3.106 3.106-4.892 3.813-9 5z"/><path fill="#D1D2D0" d="M150 50h1v6l3 1v5c-3.736-1.245-4.188-2.634-6-6h2z"/><path fill="#7A7B79" d="M125 56h4v3h3l1-2v3c-1 1-1 1-3.375 1.313C127 61 127 61 125.188 59L124 57z"/><path fill="#080908" d="m176 196 2 1c-1 2-1 2-2 3v3l-4 1-1-2z"/><path fill="#050605" d="M160 186h8l1 3h-3l-2.562.563C161 190 161 190 159 189z"/><path fill="#CFD0CF" d="M172 170c3.125-.187 3.125-.187 6 0l-1 4-7-1z"/><path fill="#2B2C2B" d="m126 124 1 3h2v2c-6.75-.75-6.75-.75-9-3z"/><path fill="#1A1B1A" d="M136 124h5l2 4c-1.812.625-1.812.625-4 1l-3-2z"/><path fill="#D0D1D0" d="M205 121c2.125.375 2.125.375 4 1-2.312 2.5-2.312 2.5-5 5h-3c1.152-2.468 2.048-4.048 4-6"/><path fill="#C7C8C6" d="m186 76 5 1-1 7c-2.154-2.622-3.4-4.644-4-8"/><path fill="#646564" d="M113 175c1 3 1 3 0 6l4 1v2c-2.937-.812-2.937-.812-6-2-1-3-1-3 0-6z"/><path fill="#343534" d="M153 176h17l1 2-13-1v2l-5-2z"/><path fill="#717271" d="m121 130 3.875-.187 2.18-.106L129 130l2 3c-6.625.125-6.625.125-10-1z"/><path fill="#191A19" d="M189 121c2.468 1.152 4.048 2.048 6 4l-2 6-3-1h2v-5h-3z"/><path fill="#161716" d="M121 114h3l-1 4h-2l-1 3h-2v-6l1 2h2z"/><path fill="#3A3B3A" d="m174 190 6 2v2h-2c-1.625 1.458-1.625 1.458-3 3l-2-6z"/><path fill="#1C1D1C" d="m149.262 154.926 2.425.387 2.45.363L156 156l-1 2h-11c3-3 3-3 5.262-3.074"/><path fill="#767776" d="M174 149h3v5l-2.437.375L172 155l-1 2v-3h2z"/><path fill="#464746" d="M127 140h6v7l-3 1 .188-2.312c.071-2.733.071-2.733-1.688-4.5z"/><path fill="#7E7F7E" d="M209 135c.93 2.606 1.15 3.642.063 6.25L208 143h-3l-2-4 3 1z"/><path fill="#373837" d="m162 131 1 2a78 78 0 0 0 5 2v2c-3.375-.547-5.082-1.055-8-3v-2z"/><path fill="#272827" d="m114 118-1 5-7-2v-2c2.709-1.354 5.01-1.065 8-1"/><path fill="#3B3C3B" d="M148 104v2l2 1c-1.458.054-2.916.093-4.375.125l-2.46.07C141 107 141 107 139 105c3.426-1.618 5.38-2.34 9-1"/><path fill="#B1B2B1" d="M190 100c2.29 3.435 2.178 4.985 2 9h-2c-1.125-2.25-1.125-2.25-2-5 .875-2.312.875-2.312 2-4"/><path fill="#F2F3F2" d="M136 47h9l-1 2c-2.066.414-2.066.414-4.562.625l-2.504.227L135 50z"/><path fill="#292A29" d="M110 209h2c-.75 4.75-.75 4.75-3 7l2 2h-6l2-1a127 127 0 0 0 2-6z"/><path fill="#DADBDA" d="M163 140c2.875-.125 2.875-.125 6 0l2 2-7 3z"/><path fill="#474847" d="m197 127 4 2 1-2c-.564 3.27-1.5 4.826-4 7l-5-2 4-2z"/><path fill="#656665" d="M124 121h8l-3 1v2l-6 1z"/><path fill="#767776" d="m135 115 1 4h2v3l-5-2v-4z"/><path fill="#0E0F0E" d="M131 111c2 1.375 2 1.375 4 3v2l-5 2c-.043-2-.04-4 0-6z"/><path fill="#757675" d="m196 81 3 2c.408 2.712.133 5.244 0 8-1.5-1.062-1.5-1.062-3-3-.187-3.687-.187-3.687 0-7"/><path fill="#2E2F2E" d="m123 53 1 3c-2.174 2.5-3.73 3.436-7 4v-4l6-1z"/><path fill="#1D1E1C" d="m175 202 2 2-1 3-5 1c.313-1.875.313-1.875 1-4z"/><path fill="#6B6C6B" d="M114 193h1l1 11-3-1z"/><path fill="#060706" d="M123 174h1l1 8-3 1-2-1v-5l2 2z"/><path fill="#A6A7A6" d="m162 151 1.75 1.438c2.176 1.51 3.676 2.102 6.25 2.562l-1 2-7-1z"/><path fill="#1D1E1D" d="M178 151h6v3l-4-2v5h-2c-1.125-3.75-1.125-3.75 0-6"/><path fill="#838483" d="M193 132c4.875.875 4.875.875 6 2 .04 2 .043 4 0 6l-1-3-3-1c-1.187-2.062-1.187-2.062-2-4"/><path fill="#0D0E0D" d="M207 125h4l-1 3h-2l-1 3h-2c.875-4.875.875-4.875 2-6"/><path fill="#CDCECC" d="m165 99 3 1v7l-5-5z"/><path fill="#505150" d="M199 81c1.737 3.225 2.89 6.513 4 10l-4 1a491 491 0 0 1-.562-4.375l-.317-2.46C198 83 198 83 199 81"/><path fill="#383938" d="M137 217a105 105 0 0 1 5 4v2h-4v-3l-3-1z"/><path fill="#0C0D0C" d="m174 206 3 1c-.375 1.938-.375 1.938-1 4l-2 1-1-2-3-1 1-2 3 1z"/><path fill="#191A19" d="m182 202 4 2v4h-2v2l-3 1v-2h2z"/><path fill="#202120" d="m177 197 4 1v5c-3 0-3 0-6-2v-2h2z"/><path fill="#1E1F1E" d="M160 188h7l-1 3c-4.75 1.125-4.75 1.125-7 0z"/><path fill="#030403" d="m166 177 3 1-1 4h-8c3.75-3 3.75-3 6-3z"/><path fill="#0C0D0C" d="M163.063 176.938 166 177v2c-3 2-3 2-6 2l-1-3c1-1 1-1 4.063-1.062"/><path fill="#222322" d="m137 171 .875 1.875c1.062 2.258 1.062 2.258 3.125 4.125l-9 1 1-3 3 1z"/><path fill="#F2F3F2" d="M159 169h2l-1 5-4 1c.573-2.867.861-3.861 3-6"/><path fill="#000100" d="M185 156h1v7l-5-2a210 210 0 0 1 4-5"/><path fill="#212221" d="m199 152 1 2 2 1-4 5-2-1c1.875-4.75 1.875-4.75 3-7"/><path fill="#3F403F" d="M178 155v4l-6-2v-2c2.49-1.245 3.41-.777 6 0"/><path fill="#B7B8B7" d="M152 139h1v13h-1l-.437-3.25c-.4-2.667-.839-5.164-1.563-7.75h2z"/><path fill="#494A49" d="M105 119h1c.75 3.188.75 3.188 1 7-1.937 2.938-1.937 2.938-4 5 .553-4.03 1.156-8.02 2-12"/><path fill="#030403" d="m189 115 2 3 2-1-1 4-5-1-1-3z"/><path fill="#363635" d="M141 200h1v5h-5l-1-4h3v2h2z"/><path fill="#818281" d="m155 182 2 3 3 2c-3.133 1.044-3.99.934-7 0v-4z"/><path fill="#959695" d="M107 150c1.884 3.265 2.493 6.281 3 10h-2c-1.837-3.782-2.158-5.946-1-10"/><path fill="#787978" d="m161 135 8 1v3l-5 1z"/><path fill="#383938" d="M115 127h5l1 5 3 1h-4v-2l-3-1 1-2z"/><path fill="#000100" d="M153 118c2.063.438 2.063.438 4 1v3h-4l-1-3z"/><path fill="#414241" d="M160 106h3v3h3v3l-4 1-.437-2.375c-.441-2.59-.441-2.59-1.563-4.625"/><path fill="#4C4D4C" d="m191 207 2 3c-.875 3.188-.875 3.188-2 6h-1l-1-7h2z"/><path fill="#353635" d="m148 203 1 5-6-2v-2c2-1 2-1 5-1"/><path fill="#B3B4B3" d="M136 186c2.375.313 2.375.313 5 1l2 3-7-1z"/><path fill="#171817" d="M174 178h-2v3c-1.875.625-1.875.625-4 1l-2-2h2v-2c3-1 3-1 6 0"/><path fill="#767776" d="M147 178h6v4h-5l1-2z"/><path fill="#999998" d="m168 173 7 1-4 3-4-2z"/><path fill="#DEDEDD" d="M156.563 168.938 159 169c-1.375 2.5-1.375 2.5-3 5h-2c-.562-1.937-.562-1.937-1-4 1-1 1-1 3.563-1.062"/><path fill="#2D2E2D" d="M106 136c2.565 2.565 2.54 4.477 3 8h-4z"/><path fill="#9FA09F" d="m148 137 4 2v2h-2v2l-3-1z"/><path fill="#D0D1D0" d="M192 133c1.43 2.354 2.087 3.48 1.625 6.25L193 141l-1-2h-2c.506-2.169 1-4 2-6"/><path fill="#424341" d="m143 119 3 1c1.188 2.563 1.188 2.563 2 5h-2v2l-3-1 .563-2.375c.697-2.596.697-2.596-.563-4.625"/><path fill="#131413" d="M115 113c2 3 2 3 2 5h-2v3h-2c-.687-1.75-.687-1.75-1-4 1.438-2.25 1.438-2.25 3-4"/><path fill="#373836" d="M132 86h2v2h2v6c-4-4.625-4-4.625-4-8"/><path fill="#D9DAD8" d="M137 58c2.729.033 5.297.564 8 1l-1 2-9-1z"/><path fill="#AFB0AE" d="m166 47 6 2v1l-9 2-1-2h3z"/><path fill="#F7F8F7" d="M159 47h7l-1 4-6-3z"/><path fill="#2C2D2C" d="M181 143c1.5 1.375 1.5 1.375 3 3v2c-2 1.625-2 1.625-4 3z"/><path fill="#D2D3D2" d="m159 139 3 2-1 3c-2.062.688-2.062.688-4 1 .506-2.169 1-4 2-6"/><path fill="#1B1C1B" d="m105 114 4 1-1 4h-3z"/><path fill="#B4B5B4" d="M169.063 68.938 172 69l-1.937.5c-2.224 1.282-2.224 1.282-2.551 3.414-.24 2.022-.38 4.054-.512 6.086h-1q-.29-2.218-.562-4.437l-.317-2.497L165 70c1-1 1-1 4.063-1.062"/><path fill="#B3B4B3" d="m177 52 1 3h2l2 4c-4.75-1.875-4.75-1.875-7-3z"/></svg>