<svg xmlns="http://www.w3.org/2000/svg" width="64" height="65" fill="none" viewBox="0 0 64 65"><rect width="64" height="64" y=".304" fill="#fff" rx="32"/><rect width="63" height="63" x=".5" y=".804" stroke="#070B14" stroke-opacity=".15" rx="31.5"/><path fill="url(#akro_svg-a)" d="M31.92 58.883a7.6 7.6 0 0 1-3.734-1.007L11.596 48.3a7.54 7.54 0 0 1-3.766-6.526V22.618c0-2.662 1.429-5.162 3.734-6.493l16.622-9.577c2.305-1.332 5.162-1.332 7.5 0l16.59 9.577c2.305 1.331 3.733 3.831 3.733 6.493v19.188c0 2.662-1.428 5.162-3.733 6.493l-16.59 9.577c-1.169.65-2.435 1.007-3.766 1.007m0-50.745c-.844 0-1.688.228-2.435.65l-16.623 9.61a4.87 4.87 0 0 0-2.434 4.22v19.188c0 1.753.941 3.344 2.434 4.22l16.59 9.61a4.9 4.9 0 0 0 4.903 0l16.59-9.577a4.9 4.9 0 0 0 2.435-4.221v-19.22c0-1.753-.942-3.376-2.435-4.22l-16.558-9.61a5 5 0 0 0-2.467-.65m0 42.044a4 4 0 0 1-2.013-.552L17.83 42.682a4.05 4.05 0 0 1-2.013-3.506V25.248a4.06 4.06 0 0 1 2.013-3.506l12.077-6.948a4.05 4.05 0 0 1 4.026 0l12.045 6.948a4.05 4.05 0 0 1 2.012 3.506v13.928a4.09 4.09 0 0 1-2.012 3.506L33.9 49.63a3.8 3.8 0 0 1-1.98.552m0-33.992c-.357 0-.714.097-1.039.292L18.804 23.43a2.11 2.11 0 0 0-1.04 1.818v13.928c0 .746.39 1.428 1.04 1.818l12.077 6.948c.65.39 1.428.39 2.078 0l12.045-6.948a2.11 2.11 0 0 0 1.038-1.818V25.248c0-.747-.39-1.429-1.038-1.818l-12.045-6.948a1.85 1.85 0 0 0-1.04-.292m0 25.161c-.357 0-.714-.097-1.039-.26l-6.104-3.571c-.649-.357-1.039-1.071-1.039-1.786v-7.077c0-.747.39-1.429 1.04-1.786l6.103-3.539a2.15 2.15 0 0 1 2.078 0l6.103 3.54a2.02 2.02 0 0 1 1.04 1.785v7.077a2.02 2.02 0 0 1-1.04 1.786l-6.103 3.539a2 2 0 0 1-1.04.292m0-16.98q-.195 0-.39.098l-6.103 3.538a.78.78 0 0 0-.39.65v7.077c0 .26.162.52.39.682l6.103 3.539c.227.13.52.13.78 0l6.103-3.539a.83.83 0 0 0 .39-.682v-7.077a.78.78 0 0 0-.39-.65L32.31 24.47a.9.9 0 0 0-.39-.098"/><defs><linearGradient id="akro_svg-a" x1="7.83" x2="56.023" y1="32.205" y2="32.205" gradientUnits="userSpaceOnUse"><stop stop-color="#E168FD"/><stop offset="1" stop-color="#7B00FC"/></linearGradient></defs></svg>