<svg xmlns="http://www.w3.org/2000/svg" width="216" height="80" fill="none" viewBox="0 0 216 80"><path fill="#F5F5F5" d="M73.426 0v8.938h8.258v69.958h8.92V0zm80.719 51.422c0-18.87-10.462-30.125-26.541-30.125-16.078 0-26.65 10.704-26.65 29.572S111.415 80 127.604 80c12.774 0 22.356-7.394 24.999-17.655h-9.911c-2.204 4.745-6.717 8.938-15.088 8.938-10.792 0-16.297-6.841-17.399-16.662h43.94zm-43.829-5.297c1.32-9.49 7.048-16.221 17.288-16.221s15.638 6.621 16.96 16.221zm78.956-24.828c-16.189 0-26.65 10.704-26.65 29.572S173.083 80 189.272 80s26.54-9.932 26.54-29.131c0-19.2-10.461-29.572-26.54-29.572m0 50.207c-11.563 0-17.84-9.049-17.84-20.744s6.277-21.076 17.84-21.076c11.564 0 17.731 9.16 17.731 21.076s-6.057 20.744-17.731 20.744M46.557 0H28.385L12.613 46.125h9.605l12.775-37.63h4.626l12.773 37.63H22.219l-2.972 8.496h36.01l8.258 24.275h9.912zM1.405 78.896h9.58l8.26-24.275H9.708zm1.689-32.771L.188 54.621h9.52l2.905-8.496z"/></svg>