<svg xmlns="http://www.w3.org/2000/svg" width="64" height="65" fill="none" viewBox="0 0 64 65"><g clip-path="url(#ali_svg-a)"><rect width="64" height="64" y=".304" fill="#fff" rx="32"/><path fill="#010642" d="M34.829 18.984c-.85-.748-1.775-1.56.9-2.907v-.004c2.986-1.463 1.347-2.795 1.347-2.795-2.578-2.16-6.423-5.455-6.787-7.346h.026c-.026-.1-.026-.206-.026-.311a3 3 0 0 0-.013-.258l-.01-.132c-14.238.844-25.52 12.97-25.52 27.11S15.56 58.101 29.37 59.377c-.038-.237-.417-.69-.473-.755-.476-.69-2.405-3.087-5.009-4.847 0 0-3.286-1.564-.176-3.662 2.003-1.347 1.726-2.104.927-2.941-.428-.45-.968-1.972 1.783-2.003-1.597.016-2.278-1.69-.98-2.18 1.298-.496 2.78-2.056 1.407-3.977-1.598-2.46-.354-3.045 1.938-4.122.738-.347 1.585-.745 2.481-1.273a51 51 0 0 0 2.307-1.43c.653-.438 1.156-.814 1.527-1.151 1.208-1.104 1.088-2.203.327-3.238-.148-.202-.33-.33-.53-.47-.23-.16-.482-.338-.73-.663-.86-1.122-1.183-2.938 1.06-3.985.275-.127.222-1.422-1.046-1.31a.2.2 0 0 0 0-.07c1.04-.244 1.355-.867 1.407-1.201.06-.393-.342-.746-.761-1.115"/><path fill="#29ABE2" d="M31.962.383C14.332.383.042 14.674.042 32.303s14.29 31.92 31.92 31.92 31.92-14.29 31.92-31.92c0-17.629-14.294-31.92-31.92-31.92m3.767 15.694c-3.996 2.011.041 2.833-.139 4.022-.052.334-.368.957-1.407 1.2a.2.2 0 0 1 0 .072c1.268-.112 1.32 1.182 1.047 1.31-2.244 1.046-1.921 2.862-1.062 3.984.465.608.942.698 1.26 1.133.762 1.035.882 2.135-.326 3.238-.371.337-.874.712-1.527 1.151a51 51 0 0 1-2.307 1.43c-3.677 2.168-6.532 2.142-4.42 5.395 1.374 1.92-.108 3.482-1.406 3.977-1.299.491-.616 2.198.982 2.18-2.753.03-2.213 1.553-1.785 2.003.799.837 1.076 1.595-.927 2.941-3.11 2.098.176 3.662.176 3.662 2.604 1.76 4.532 4.157 5.009 4.847.056.064.435.518.473.755C15.56 58.1 4.747 46.482 4.747 32.34c0-14.14 11.281-26.266 25.52-27.11.007.131.022.259.022.39 0 .105 0 .21.026.311h-.026c.364 1.891 4.21 5.185 6.787 7.346 0 0 1.64 1.332-1.347 2.795z"/></g><rect width="63" height="63" x=".5" y=".804" stroke="#070B14" stroke-opacity=".15" rx="31.5"/><defs><clipPath id="ali_svg-a"><rect width="64" height="64" y=".304" fill="#fff" rx="32"/></clipPath></defs></svg>