<svg xmlns="http://www.w3.org/2000/svg" width="100%" viewBox="0 0 225 225" height="150" xmlns:v="https://vecta.io/nano"><path fill="#fff" d="M151 226H1V1h225v225h-75m-89.734-65.384c.534.18 1.068.361 1.8 1.188l42.464 26.931c1.624 1.014 3.869 1.031 6.346 1.637l.161-5.878c.043-.173.087-.346.404-.701.187-.331.095-.587-.368-1.696l-.084-13.984.096-7.689c.049-.187.097-.374.527-.822l-.534-2.328c.052-.781.104-1.563.419-2.496.184-.304.105-.538-.414-1.631.04-5.403.081-10.805.604-16.775-.152-2.414-.304-4.827-.638-8.179l.044-31.701c.064-.195.129-.39.663-1.234l-.593-25.882c.027-.472.054-.943.338-1.632-.134-.254-.268-.507-.524-.661 0 0-.156.019-.03-.676-.013-.469-.027-.939.056-2.341V38.232c-3.403 1.246-5.993 1.761-8.116 3.047-8.77 5.315-17.432 10.81-26.061 16.353-3.438 2.209-6.686 4.714-10.695 7.288L40.136 81.825c-5.024 2.573-5.429 5.54-.929 8.585 3.107 2.103 6.503 3.778 10.072 6.146.534.224 1.068.449 1.964 1.22l3.259 2.976-14.709 8.946c-4.756 2.801-5.014 5.541-.606 9.025 1.902 1.503 3.962 2.805 5.347 4.6-1.069.712-2.546 1.191-3.118 2.189-1.006 1.755-1.459 3.828-2.144 5.768 1.324.073 2.761-.148 3.94.304 1.073.412 1.866 1.555 2.168 2.675-2.414 1.72-4.996 3.251-7.201 5.206-2.829 2.508-2.668 5.228.589 7.319l15.525 9.941c2.221 1.137 4.442 2.274 6.974 3.892m59.847-122.88l-1.699-3.539c-.98.971-2.434 1.772-2.854 2.944-1.495 4.169 2.456 5.004 4.952 7.59-.011.752-.022 1.505-.796 2.313l-1.708 6.063c-.403 1.519-.443 4.225-1.135 4.394-3.69.902-2.899 3.602-2.848 5.949l.931 39.079.025 70.938c-.002 1.812-.13 3.655-.476 5.429-1.492 7.64 2.151 12.569 9.788 13.163.967.075 1.914.417 3.168.703l15.021-15.455c1.281-1.341 2.006-3.675 3.497-4.266 4.512-1.79 5.83-4.847 5.384-9.781l14.2-14.588c1.06-1.254 2.12-2.508 3.86-4.031.159-.185.317-.371 1.037-.697l9.433-9.801c.201-.134.319-.321.988-.88 4.215-4.207 8.623-8.242 12.592-12.67 4.078-4.55 3.787-8.681-.579-13.051l-43.547-43.719s-.339.009-.872-.607c-.783-.751-1.567-1.502-2.153-2.384 0 0-.304.026-.784-.487-.407-.214-.814-.429-1.173-.765 0 0-.042-.124-.266-.728-5.879-5.958-11.637-12.043-17.722-17.781-1.487-1.402-4.046-1.665-6.263-3.333z"/><path fill="#6667aa" d="M170.898 144.085c-.159.185-.317.371-1.137.75l-4.003 1.193c-.423-.015-.592-.019-.814-.161-.136-.187-.22-.237-.304-.287.121.139.242.278.153.686-3.719 5.292-9.807 7.38-13.009 13.346-3.432 6.396-11.942 9.056-15.232 16.265-.124.271-.488.435-.746.641l-9.04 7.19.643.927c-1.455-.208-2.909-.416-4.377-1.094l-.015-134.863c0-1.659.182-3.318.644-4.923 1.89.584 3.783.714 4.877 1.716 4.228 3.876 8.115 8.123 12.326 12.019 1.127 1.043 2.954 1.329 4.459 1.963 0 0 .042.124-.079.593.158 1.718.026 3.354.78 4.154 5.327 5.648 10.694 11.275 16.321 16.621 8.014 7.615 16.547 14.705 24.262 22.602 2.892 2.96 7.36 5.677 6.924 10.828-.265 3.127 1.515 7.861-4.749 7.518-4.613-.763-2.093 2.62-2.789 4.574-1.689 1.468-3.336 2.588-5.147 3.779-.229.171-.367.333-.344.361.143.173.322.316.511.909.092 1.023.163 1.606.234 2.189-.035.239-.153.426-.911.536-.824-.06-1.092-.097-1.441-.301-.341-.048-.601.071-.901.531-1.026 1.122-2.011 1.903-3.342 2.709-1.427 1-2.508 1.976-3.605 3.209-.027.427-.039.598-.218.845-.232.179-.372.345-.348.375.146.178.331.325.507.749l-.089 1.85z"/><path fill="#f7f9fa" d="M151.966 163.754c.842 4.44-.476 7.497-4.988 9.287-1.491.591-2.216 2.925-3.497 4.266l-15.021 15.455c-1.254-.286-2.2-.628-3.168-.703-7.637-.594-11.28-5.523-9.788-13.163.346-1.774.474-3.617.476-5.429l-.025-70.938c-.086-13.028-.648-26.052-.931-39.079-.051-2.347-.843-5.047 2.848-5.949.692-.169.732-2.875 1.135-4.394.538-2.029 1.136-4.043 2.144-5.625.453 7.248.481 14.059.488 20.869l-.032 116.801c-.103.691-.051 1.183-.155 1.986-.015.975.125 1.639.266 2.303.418-.518.836-1.037 1.649-1.486 2.515-.884 5.072-1.367 6.679-2.868 7.451-6.956 14.638-14.195 21.919-21.333z"/><path fill="#b4b3d6" d="M50.881 97.229c-.534-.224-1.068-.449-1.745-1.314-1.261-2.46-1.975-4.862-3.582-5.974-3.069-2.122-5.343-4.271-4.704-8.308l26.847-16.556c6.572 1.673 8.99-4.137 13.516-5.79 3.333 2.056 2.956 4.25 1.866 7.34-1.431 4.057-1.831 8.478-2.655 12.646 3.17.351 4.875.539 6.386 1.001L59.654 97.809c-1.05.664-2.409.84-3.769.918-1.333-2.502-2.7-3.937-5.004-1.498z"/><path fill="#b1b4d5" d="M87.003 80.001l-6.579-.727c.824-4.168 1.224-8.589 2.655-12.646 1.09-3.09 1.467-5.284-1.693-7.663 2.033-1.43 4.33-1.92 6.136-3.138 5.124-3.454 9.916-7.414 15.137-10.702 1.404-.884 4.072-.556 5.753.165.734.315.548 3.016.597 4.639l.391 14.053c.021.384 1.632.68 2.504 1.016.013.469.027.939-.336 1.741-1.126.6-1.876.867-2.979 1.205-2.842 1.331-5.391 2.484-7.807 3.871-4.633 2.659-9.191 5.45-13.78 8.186z"/><path fill="#7a789f" d="M181.563 133.422c-.388-.423-.459-1.007-.545-2.254l-.008-1.116 5.273-3.852 2.723-4.154c6.039.068 4.259-4.666 4.524-7.793.436-5.15-4.033-7.867-6.924-10.828-7.714-7.897-16.248-14.987-24.262-22.602-5.627-5.346-10.994-10.973-16.321-16.621-.754-.8-.622-2.436-.804-4.093.503-.194.911.021 1.581.501.263.266.324.351.324.351l2.643 2.586c.293.333.403.441.403.441l43.722 43.552c4.367 4.37 4.657 8.501.579 13.051-3.968 4.428-8.377 8.463-12.909 12.83z"/><path fill="#b8b9ce" d="M111.953 64.532c-.921.13-2.531-.166-2.552-.55-.259-4.677-.248-9.368-.391-14.053-.049-1.623.136-4.324-.597-4.639-1.681-.721-4.35-1.049-5.753-.165-5.22 3.288-10.013 7.248-15.137 10.702-1.806 1.218-4.103 1.708-6.349 2.852-4.486 2.261-6.905 8.071-13.138 6.296 3.104-2.629 6.352-5.134 9.79-7.343l26.061-16.353c2.122-1.286 4.713-1.801 8.116-3.047l-.048 26.3z"/><path fill="#75759f" d="M121.609 186.827c-.052-.492-.104-.984.264-1.753a10.22 10.22 0 0 0 1.171-1.063l4.364.624-.643-.927 9.04-7.19c.259-.206.623-.37.746-.641 3.29-7.209 11.799-9.87 15.232-16.265 3.202-5.966 9.29-8.054 13.007-13.345l.205-.263c.169.005.338.009.759.384.242 1.093.232 1.816.222 2.539l-13.814 14.579-22.117 21.58c-1.607 1.501-4.165 1.984-6.768 2.655l-1.67-.914z"/><path fill="#b6b7cb" d="M111.876 185.004v5.368c-2.477-.606-4.722-.624-6.346-1.637l-42.525-27.302c-.061-.371.014-.464.442-.454 7.452-.771 11.508 5.031 16.959 7.678 4.214 2.046 7.667 5.606 11.688 8.126 2.764 1.732 5.923 2.836 9.072 4.536 3.18 3.006 6.648 4.277 10.71 3.686z"/><path fill="#b8b8ce" d="M51.062 97.503c2.122-2.713 3.49-1.277 4.814 1.581.152 1.397.168 2.114.038 3.148-3.214 2.712-6.272 5.119-9.353 7.495l-7.424 5.625 17.82 11.93c-.064 1.08-.016 1.914-.007 3.064-.675.762-1.31 1.206-1.947 1.259-.032-1.177-.062-1.962-.287-3.002-3.323-2.064-6.451-3.873-9.579-5.682-1.988-1.394-4.049-2.696-5.95-4.199-4.408-3.484-4.15-6.225.606-9.025l14.709-8.946c-1.428-1.304-2.344-2.14-3.44-3.249z"/><path fill="#605f8d" d="M123.032 183.541c-.237.732-.487.993-1.003 1.334l-.389-116.524-.107-20.897-.033-3.429c.004-1.497.019-2.287.381-2.962.702.956 1.058 1.797 1.414 2.638l-.28 4.977.015 134.863z"/><path fill="#b4b4cb" d="M54.911 128.858c.03.785.06 1.569-.191 2.95-5.465 3.955-10.649 7.314-16.396 11.038l12.632 8.664c1.446 1.026 2.704 2.316 3.809 3.619-.437.435-.635.737-.834 1.04l-15.163-9.385c-3.257-2.09-3.418-4.811-.589-7.319 2.205-1.955 4.787-3.486 7.862-5.361 3.398-1.852 6.134-3.549 8.871-5.245z"/><path fill="#f8f9fa" d="M54.716 128.603c-2.542 1.951-5.279 3.648-8.369 5.35-1.27-.815-2.063-1.958-3.136-2.37-1.178-.453-2.615-.232-3.94-.304.685-1.94 1.138-4.012 2.144-5.768.572-.998 2.049-1.476 3.42-2.389 3.43 1.608 6.558 3.417 9.881 5.481z"/><path fill="#9a9abd" d="M123.661 43.756c-.72-.895-1.076-1.736-1.942-2.882-.492-.955-.473-1.605-.455-2.256 2.066.787 4.626 1.05 6.112 2.452 6.085 5.738 11.844 11.823 17.834 18.083-1.394-.332-3.22-.619-4.347-1.661-4.211-3.896-8.098-8.143-12.326-12.019-1.093-1.002-2.986-1.132-4.877-1.716z"/><path fill="#b4b8cf" d="M111.957 184.749c-4.143.846-7.61-.425-10.384-3.432 5.233.132 6.981-2.782 7.449-7.156.186-1.736.645-3.442 1.296-5.161l1.577-.002.186 13.801c.007.701.087 1.177.087 1.177-.043.173-.087.346-.211.774z"/><path fill="#b9b9cc" d="M40.493 81.729c-.282 3.941 1.992 6.09 5.06 8.212 1.607 1.111 2.321 3.513 3.431 5.723-3.274-1.476-6.67-3.151-9.777-5.254-4.5-3.045-4.095-6.013 1.286-8.681z"/><path fill="#9191b3" d="M108.942 67.873l2.563-.786c.313.014.469-.005.511.198l.225.675-.134 2.219.177 25.727c-.064.195-.129.39-.628.85-.838.236-1.241.207-1.645-.073l-.014-1.218-1.055-27.592z"/><path fill="#74759c" d="M110.012 96.934l1.514.101c.376 10.396.449 20.777.491 31.556-.031.398-.295.297-.67.211-.7-1.612-1.292-3.136-1.306-4.664l-.028-27.203z"/><path fill="#878aac" d="M112.233 154.929l-.191 2.95c-.035.606-.132 1.084-.283 1.189-.038.39.075.675.274.946.087-.014.197-.152.197-.152-.049.187-.097.374-.489.874-.806.637-1.268.962-2.03 1.264-.777-.331-1.254-.64-1.501-1.267.75-1.954 1.655-3.575 1.718-5.227.195-5.136-.049-10.29.151-15.426.053-1.366 1.088-2.695 1.773-3.81.183.376.266.522.349.668l-.175 16.743c-.241.859-.154 1.097.205 1.248z"/><path fill="#f7f9fa" d="M121.189 38.177l.184 2.581c.148.98.132 1.77-.033 2.926-2.323-1.538-6.273-2.373-4.779-6.542.42-1.172 1.874-1.973 2.854-2.944l1.774 3.979z"/><path fill="#7a789f" d="M170.996 141.035c.012-.171.023-.342.372-.802l3.629-3.2 3.232-2.688c.276-.345.748-.36.748-.36l1.2.193c-2.641 3.31-5.679 6.538-8.998 9.837-.249-.457-.218-.985-.185-2.013l.002-.967z"/><path fill="#f7f9fa" d="M112.519 95.582c-.311-7.983-.388-16.291-.366-25.051.266 7.941.433 16.334.366 25.051z"/><path d="M110.011 162.023c.462-.324.925-.649 1.685-1 .296 2.346.295 4.718.246 7.532-.468.443-.888.443-1.625.068-.313-2.451-.309-4.526-.306-6.6zm-55.9-5.576c.017-.581.215-.883.986-1.317 1.016-.13 1.46-.13 1.945.192 1.014 1.106 1.987 1.892 2.959 2.677-.001.001 0-.001.108.219.307.494.568.681.892.781 0 0 .001 0-.006.284l-.039.852-6.844-3.689z" fill="#b6b7cb"/><path fill="#7a789f" d="M166.27 148.8c-.282-.595-.272-1.318-.26-2.401 1.031-.697 2.061-1.034 3.411-1.429-.739 1.195-1.799 2.449-3.151 3.83z"/><path fill="#f7f9fa" d="M112.444 136.655c-.324.137-.407-.008-.502-.763l-.04-3.328-.181-3.677s.264.101.386.172c.274 2.485.426 4.898.337 7.595z"/><path fill="#b4b4cb" d="M61.111 160.376c-.145-.43-.135-.619.202-1.052.786.386 1.247 1.015 1.707 1.645l-.113.14c-.572-.132-1.106-.313-1.796-.733z"/><path d="M112.364 154.853c-.491-.075-.577-.313-.249-.707.485.093.564.327.249.707zm-.454 4.11s.098-.477.204-.697c.237.299.367.817.307 1.466-.19.131-.3.268-.35.014l-.161-.783zm.394 24.921c-.137.091-.217-.384-.177-.621.41-.057.501.199.177.621z" fill="#f7f9fa"/><path d="M147.223 60.896c-.098.065-.16-.02-.183-.03s.281-.036.183.03zm3.036 3.009c-.088.083-.197-.025-.224-.05s.312-.033.224.05z" fill="#9a9abd"/><path fill="#f7f9fa" d="M112.37 67.852c-.19-.049-.251-.207-.293-.617.153.001.288.255.293.617z"/><path d="M188.782 121.77c-.572 1.496-1.369 2.716-2.456 4.081.363-1.461-2.157-4.844 2.456-4.081zm-14.131 15.287c-.752.946-1.849 1.917-3.268 2.92.76-.943 1.841-1.92 3.268-2.92zm6.194-6.934c.165-.072.158.38.152.605-.173.072-.353-.071-.495-.244-.023-.028.115-.19.344-.361z" fill="#7576a0"/><path fill="#75759f" d="M165.002 145.998l-.361-.419c.084.05.167.1.304.287l.058.132z"/><path d="M170.828 141.111c.168-.076.168.391.162.625-.178.076-.363-.071-.509-.249-.025-.03.116-.196.348-.375zm8.067-7.294c.082.167-.389.182-.625.186.024-.115.284-.234.625-.186z" fill="#7576a0"/><path fill="#9a9abd" d="M121.454 187.138c.551-.1.947.111 1.431.535-.329.731-.747 1.25-1.165 1.768-.14-.664-.281-1.328-.266-2.303z"/><path fill="#8c8dc0" d="M111.831 132.971l.01 2.691c-.673 1.724-1.708 3.052-1.761 4.419-.2 5.136.044 10.289-.151 15.426-.063 1.653-.967 3.273-2.067 5.172-8.427-4.582-16.265-9.442-24.122-14.27L56.99 130.03c-.049-.833-.097-1.667.311-2.79 2.549-1.904 4.641-3.518 7.105-5.161 4.475-2.226 8.577-4.423 14.126-7.394L56.77 101.987c-.236-.029-.71-.073-.71-.073l-.04-2.506c1.224-.759 2.583-.935 3.633-1.599L86.81 80.275c4.782-3.01 9.34-5.801 13.973-8.459 2.416-1.386 4.965-2.54 7.807-3.871.705 8.971 1.057 18.013 1.032 27.548-11.511 5.063-20.827 12.404-31.054 19.477l28.341 17.44c1.293.771 3.265.402 4.923.56z"/><path fill="#b3b3d6" d="M56.95 130.347c8.958 5.141 17.882 10.588 26.79 16.062l23.891 14.589c.827.364 1.304.673 2.081 1.003.296 2.097.292 4.172.289 6.623-.334 2.096-.794 3.802-.98 5.538-.468 4.375-2.216 7.288-7.616 6.841-3.388-1.384-6.547-2.487-9.311-4.22-4.021-2.52-7.473-6.08-11.688-8.126-5.451-2.647-9.507-8.449-16.959-7.678-.888-.639-1.349-1.268-2.128-1.938-.319-.041-.32-.04-.427-.26-.306-.495-.568-.682-.892-.781 0 0-.001.001-.004-.35-1.001-1.117-1.998-1.882-2.996-2.647l-1.665-.004c-1.677-1.171-2.935-2.462-4.381-3.487-3.879-2.751-7.839-5.39-12.632-8.664l16.398-10.645c.918-.648 1.553-1.093 2.228-1.854z"/><path fill="#b3b3d3" d="M55.914 102.233c.146-.318.62-.275.855.14 1.324 2.033 2.218 3.844 3.561 5.213 1.224 1.248 3.078 1.858 4.407 3.03 4.615 4.068-.164 7.671-.703 11.493-2.092 1.614-4.183 3.228-6.619 4.884-5.978-3.628-11.612-7.298-18.278-11.641l7.424-5.625c3.081-2.376 6.139-4.783 9.353-7.495z"/><path fill="#787ab4" d="M111.902 132.565c-1.729.247-3.701.616-4.994-.154l-28.341-17.44c10.228-7.073 19.543-14.414 31.053-19.013.381.14.385.308.391.726l.029 27.454c.014 1.529.607 3.052 1.306 4.664.458 1.176.542 2.267.555 3.763z"/><path fill="#b6b7cb" d="M111.759 159.068c.188.071.225.248.225.692-.15-.017-.263-.302-.225-.692z"/><path d="M57.042 155.322c.957.444 1.955 1.21 2.956 2.326-.969-.434-1.943-1.22-2.956-2.326zm3.066 2.897c.217-.12.479.067.785.561-.217.12-.478-.067-.785-.561z" fill="#b4b4cb"/><path fill="#b0b3d9" d="M64.406 122.079c.166-3.792 4.945-7.395.331-11.463-1.329-1.172-3.182-1.781-4.407-3.03-1.343-1.37-2.237-3.18-3.325-5.184 6.716 3.566 13.432 7.518 21.528 12.283l-14.126 7.394z"/></svg>