<?xml version="1.0" standalone="no"?>
<!DOCTYPE svg PUBLIC "-//W3C//DTD SVG 20010904//EN"
 "http://www.w3.org/TR/2001/REC-SVG-20010904/DTD/svg10.dtd">
<svg version="1.0" xmlns="http://www.w3.org/2000/svg"
 width="225.000000pt" height="225.000000pt" viewBox="0 0 225.000000 225.000000"
 preserveAspectRatio="xMidYMid meet">

<g transform="translate(0.000000,225.000000) scale(0.100000,-0.100000)"
fill="#000000" stroke="none">
<path d="M1210 1115 c0 -588 3 -755 12 -755 7 0 174 162 372 359 341 341 360
362 360 396 0 34 -19 55 -360 396 -198 197 -365 359 -372 359 -9 0 -12 -167
-12 -755z"/>
<path d="M1080 1299 c-26 -11 -300 -179 -300 -184 0 -7 259 -166 294 -180 l36
-15 0 195 c0 107 -1 195 -2 194 -2 0 -14 -5 -28 -10z"/>
</g>
</svg>
