<svg xmlns="http://www.w3.org/2000/svg" width="40" height="40" fill="none" viewBox="0 0 40 40"><g clip-path="url(#amdon_svg-a)"><path fill="#FBD2D3" d="M20 0c11.046 0 20 8.954 20 20s-8.954 20-20 20S0 31.046 0 20 8.954 0 20 0"/><path fill="#ED1C24" d="M26 6a8 8 0 0 1 8 8v12a8 8 0 0 1-8 8H14a8 8 0 0 1-8-8V14a8 8 0 0 1 8-8z"/><g clip-path="url(#amdon_svg-b)"><path fill="#fff" d="m25.27 17.614 1.3 1.3h2.13v2.131l1.3 1.3v-4.73zm-13.603.32L10 22.066h1.09l.31-.819h1.85l.34.819h1.115l-1.845-4.134zm3.507 0v4.128h1.032v-2.576l1.115 1.302h.156l1.115-1.297v2.576h1.032v-4.134h-.9l-1.326 1.538-1.326-1.538zm5.236 0v4.133h1.714c1.65 0 2.4-.872 2.4-2.06 0-1.134-.78-2.074-2.29-2.074zm1.03.758h.66c.976 0 1.36.592 1.36 1.308 0 .607-.31 1.31-1.348 1.31h-.671zm-9.153.227.659 1.61h-1.273zm14.28.256-1.336 1.336v1.875h1.871l1.337-1.34h-1.872z"/></g></g><defs><clipPath id="amdon_svg-a"><path fill="#fff" d="M0 0h40v40H0z"/></clipPath><clipPath id="amdon_svg-b"><path fill="#fff" d="M10 10h20v20H10z"/></clipPath></defs></svg>