<svg xmlns="http://www.w3.org/2000/svg" width="40" height="40" fill="none" viewBox="0 0 40 40"><g clip-path="url(#amznon_svg-a)"><path fill="#FFEBCC" d="M20 0c11.046 0 20 8.954 20 20s-8.954 20-20 20S0 31.046 0 20 8.954 0 20 0"/><path fill="#F90" d="M26 6a8 8 0 0 1 8 8v12a8 8 0 0 1-8 8H14a8 8 0 0 1-8-8V14a8 8 0 0 1 8-8z"/><g fill="#fff" fill-rule="evenodd" clip-path="url(#amznon_svg-b)" clip-rule="evenodd"><path d="M27.695 27.663C25.627 29.187 22.63 30 20.05 30c-3.625 0-6.876-1.337-9.34-3.564-.188-.175-.02-.414.212-.278 2.66 1.548 5.953 2.48 9.344 2.48a18.6 18.6 0 0 0 7.129-1.458c.35-.149.644.229.3.483m.86-.984c-.262-.338-1.747-.16-2.413-.081-.203.024-.233-.152-.05-.28 1.187-.83 3.12-.591 3.347-.312.226.28-.059 2.225-1.169 3.153-.17.142-.333.067-.25-.123.25-.622.809-2.019.544-2.357m-7.045-8.014c0 1.058.027 1.94-.508 2.878-.437.763-1.125 1.233-1.878 1.233-1.042 0-1.652-.793-1.652-1.965 0-2.313 2.072-2.733 4.038-2.733zm2.738 6.615a.57.57 0 0 1-.641.065c-.9-.748-1.065-1.096-1.558-1.81-1.489 1.52-2.546 1.974-4.474 1.974-2.286 0-4.06-1.409-4.06-4.23 0-2.202 1.19-3.702 2.893-4.435 1.473-.649 3.531-.763 5.103-.938v-.344c0-.644.05-1.408-.331-1.965-.328-.5-.963-.706-1.523-.706-1.035 0-1.955.53-2.18 1.63-.045.25-.225.485-.473.496l-2.638-.295c-.221-.05-.469-.229-.404-.563C14.58 10.962 17.466 10 20.046 10c1.32 0 3.047.351 4.088 1.351 1.32 1.233 1.195 2.878 1.195 4.669v4.23c0 1.271.527 1.828 1.023 2.516.172.25.21.537-.011.72q-1.05.89-2.08 1.803z"/></g></g><defs><clipPath id="amznon_svg-a"><path fill="#fff" d="M0 0h40v40H0z"/></clipPath><clipPath id="amznon_svg-b"><path fill="#fff" d="M10 10h20v20H10z"/></clipPath></defs></svg>