<svg xmlns="http://www.w3.org/2000/svg" fill="none" viewBox="0 0 40 40"><g clip-path="url(#ana_svg-a)"><path fill="url(#ana_svg-b)" fill-rule="evenodd" d="M19.951 39.903c11.02 0 19.952-8.933 19.952-19.952C39.903 8.933 30.97 0 19.95 0 8.933 0 0 8.933 0 19.951c0 11.02 8.933 19.952 19.951 19.952m9.44-19.284-9.469-7.896-9.47 7.896-2.51-3.011 11.98-9.99 11.98 9.99zm-8.074 3.433 8.074 6.733 2.512-3.012-8.075-6.733a6.1 6.1 0 0 0-7.812 0l-8.075 6.733 2.512 3.012 8.075-6.733a2.18 2.18 0 0 1 2.789 0" clip-rule="evenodd"/></g><defs><linearGradient id="ana_svg-b" x1="19.951" x2="19.951" y1="4.5" y2="36" gradientUnits="userSpaceOnUse"><stop stop-color="#82DEF3"/><stop offset="1" stop-color="#FF60A7"/></linearGradient><clipPath id="ana_svg-a"><path fill="#fff" d="M0 0h40v40H0z"/></clipPath></defs></svg>