<svg width="32" height="32" viewBox="0 0 32 32" fill="none" xmlns="http://www.w3.org/2000/svg"><g clip-path="url(#clip0_6_299)"><path d="M16 3.769c5.285 0 9.573 5.717 9.573 12.764S21.285 29.298 16 29.298 6.427 23.58 6.427 16.533C6.427 9.48 10.715 3.77 16 3.77z" fill="url(#paint0_radial_6_299)"/><path d="M22.512 12.544a3.11 3.11 0 01-.144.64c-.059.192-.128.405-.187.832-.026.17-.037.299-.048.405v.014c-.016.178-.026.3-.08.512a2.984 2.984 0 01-.293.776c-.144.256-.384.675-.699.725-.026 0-.085.007-.106-.007-.907-.619-1.68-1.074-1.952-1.173-.315-.121-.272-1.025-.24-1.828.016-.356.032-.697.016-.989-.043-1.01-.176-2.119-.838-2.659-.394-.32-.906-.42-1.392-.42a3.3 3.3 0 00.299-.22h.005c.288-.22.64-.498.998-.548.117-.014.229-.035.341-.05.715-.106 1.328-.198 1.979.1.293.135.896.583 1.056 1.003.112.291.293.526.666.981.192.242.32.377.411.477l.005.007c.128.142.155.17.192.277.112.327.07.669.011 1.145zm-3.312 4.16c.053.021.07.107.043.17-.096.193-.203.456-.331.769l-.17.412c-.177.398-.193.74-.203 1.01-.011.284-.022.412-.15.526-.106.093-.213.128-.954.277a.64.64 0 00-.24.093c-.011.007-.016.007-.027.014-.053.029-.101-.028-.101-.107.005-.135.01-.305.01-.519v-.042a6.5 6.5 0 00-.005-.477c-.01-.256-.01-.362.037-.47.064-.134.112-.17.192-.24.112-.093.267-.221.491-.634.123-.22.15-.341.165-.44.006-.043.011-.058.102-.15.096-.1.394-.398.778-.313.102.007.23.057.363.121zm-2.944 4.586c-.016.03-.037.043-.064.043-.08.007-.133-.021-.17-.078-.075-.128-.065-.377-.049-.519l.315-.114c.032.22.043.54-.032.669zm.027-1.514a2.08 2.08 0 00-.011.2v.077c0 .071 0 .178-.005.228a.51.51 0 01-.294.043v-.356c0-.078 0-.213.016-.249l.091-.021c.064-.022.15-.043.203-.029a.36.36 0 010 .107zm-.582 1.379c-.016.214-.064.484-.218.52-.07.021-.102-.008-.123-.036-.101-.128-.117-.505-.107-.782.07 0 .155-.021.262-.043.064-.014.128-.035.181-.05.01.107.016.25.005.392zm-.069-.768l-.341.157c.016-.178.042-.427.048-.59.005-.114.032-.15.037-.157 0 0 .005-.007.021-.007h.011l.213-.014c.011.135.011.427.011.611zm-.555-.142c-.021.071-.042.263-.058.398l-.427-.014c.027-.178.059-.355.096-.498.037-.142.075-.248.112-.277a.152.152 0 01.197.021c.096.1.123.228.08.37zm-.16 1.743c-.032.056-.069.092-.117.1-.048.006-.085-.008-.112-.044-.133-.163-.123-.704-.117-.967.176-.057.368-.1.458-.106.016.22.022.782-.112 1.017zm-.56-1.38a4.848 4.848 0 00-.058.206c-.048.022-.203 0-.358-.042l.107-.896c.176-.064.379-.086.427-.015.069.093-.059.555-.118.747zm-.192 1.522a.413.413 0 01-.378.199c-.123 0-.166-.064-.187-.107-.096-.206 0-.683.09-.988l.582.05c.005.056.01.12.01.192.011.206-.01.476-.117.654z" fill="#fff"/><path d="M18.955 15.609c-.523-.2-.475-1.216-.432-2.197.016-.349.032-.676.016-.946-.043-.918-.155-1.92-.71-2.375-.597-.484-1.573-.377-2.176-.27-.218.092-.426.149-.586.135-.358-.022-.635-.228-.875-.399-.192-.135-.357-.256-.512-.256h-.027c-.469.043-.682.192-.874.427-.048.057-.107.228-.304.981-.102.377-.118.59-.134.79-.016.185-.032.377-.106.661-.054.192-.091.363-.128.526-.096.434-.171.775-.4 1.18-.027.05-.059.122-.102.2-.053.106-.117.242-.202.405-.059.114-.198.526-.192.654.01.2.058.327.117.47.053.142.117.305.133.533v.036c.022.355-.016.533-.528 1.137a6.8 6.8 0 00-.709 1.039c-.016.02.005.056.027.056h.096a.505.505 0 01.33.207c.016.021.038.028.059.014a.474.474 0 01.261-.029c.102.015.208.05.278.136a.1.1 0 00.101.042.329.329 0 01.245.022.408.408 0 01.15.128c.037.05.101.064.149.028.021-.014.037-.028.064-.036.112-.05.235-.02.341.029.054.028.107.05.155.092a.64.64 0 01.165.278c.027.085.112.113.171.064.07-.064.123-.071.181-.043a.144.144 0 01.054.05c.042.064.106.12.165.106a.64.64 0 01.517.086c.054.035.107.1.15.185l.005-.043c0-.014.01-.036.027-.036l.037-.014c.085-.035.517-.199.683.036.005.007.021.007.026 0 .022-.036.043-.05.054-.064a.308.308 0 01.421.05c.027.028.064.02.085-.022.011-.021.027-.042.038-.057a.206.206 0 01.16-.07l.234-.015c.059-.007.246-.021.304-.036h.016a2.01 2.01 0 01.086-.02c.117-.036.245-.072.352-.008.101.064.09.22.08.356a1.6 1.6 0 00-.011.17v.078c0 .121.005.228-.016.313l.01.064c.011.064.065.1.107.064a.848.848 0 00.187-.199c0-.007.005-.007.005-.014a.447.447 0 00.016-.1c.016-.113.032-.355.032-.839v-.05c.006-.177 0-.327-.005-.447-.01-.264-.016-.47.08-.683a.847.847 0 01.277-.356c.102-.085.219-.185.416-.54.096-.178.107-.249.118-.306.021-.135.053-.213.202-.363.123-.12.491-.49.987-.384.165.036.427.15.688.292.01.007.021.007.027.014a5.258 5.258 0 01.597.37c.043.028.096.014.123-.036.042-.07.096-.113.144-.156a.201.201 0 00.053-.05c.048-.057.048-.17-.01-.213a7.764 7.764 0 00-1.563-.832zm-4.971.22c-.16.939-1.253 1.977-1.755 1.977h-.037c-.01 0-.021-.007-.032-.007-.005 0-.01-.007-.016-.007a.795.795 0 01-.31-.256.662.662 0 01-.133-.292c-.005-.02-.005-.035-.01-.056a1.288 1.288 0 01.048-.69c.016-.043.026-.086.037-.121.005-.014.005-.029.01-.036.011-.035.022-.07.033-.1.016-.049.026-.092.037-.127.005-.014.005-.029.01-.043.033-.114.033-.156.038-.199.005-.036.005-.078.016-.135.032-.178.048-.327.064-.462.027-.242.048-.448.144-.64.016-.036.037-.064.053-.086.006-.007.016-.014.022-.028.005-.007.016-.014.021-.021a.328.328 0 01.075-.057c.01-.007.021-.015.026-.015.022-.007.038-.014.059-.02a.654.654 0 01.315-.015 1.725 1.725 0 01.602.192c.006 0 .016.007.022.014.01.007.026.014.037.021.021.008.037.022.053.029.022.014.043.021.059.035l.016.008c.075.05.144.1.197.149a.952.952 0 01.075.085l.021.029.022.028c.229.292.218.633.181.846zm.507-3.57l-.022.171c-.048.384-.16.91-.576 1.046-.4.128-.496.156-.778.177h-.022a.734.734 0 01-.677-.611c-.043-.278.048-.484.197-.818.027-.057.054-.114.08-.178a5.54 5.54 0 00.347-1.045c.064-.256.112-.47.245-.647a.643.643 0 01.107-.114l.08-.064a.686.686 0 01.41-.12c.193 0 .39.07.529.22.064.064.149.199.202.59.027.199-.016.569-.122 1.394zm2.965 1.096c-.144.327-.219.505-.347.64a.996.996 0 01-.768.334c-.17 0-.314-.036-.4-.057-.245-.057-.698-.17-.848-.647-.032-.093-.032-.157-.032-.228 0-.078 0-.199-.026-.497v-.022c-.011-.135-.027-.291.005-.483l.005-.022c.086-.576.107-.668.128-.718.043-.114.15-.156.235-.1.085.057.117.193.08.306a8.95 8.95 0 00-.101.605l-.006.021c-.021.128-.01.22 0 .341v.022c.027.327.027.476.027.554v.05c.027.078.08.142.144.192.059.043.117-.035.107-.12-.07-.506-.064-1.082.08-1.437.048-.121.138-.32.218-.505l.027-.057c.005-.014.016-.028.021-.05.038-.085.07-.156.102-.22.005-.007.005-.014.01-.029 0-.007.006-.014.006-.014a.128.128 0 01.016-.035c0-.007.005-.007.005-.015v-.007c0-.007.005-.014.005-.014.006-.007.006-.014.011-.021.021-.043.043-.078.064-.114.048-.085-.005-.192-.08-.15a.845.845 0 00-.219.178c-.074.079-.186.064-.245-.035-.059-.1-.048-.249.027-.327.09-.093.565-.555 1.13-.342.411.157.624.57.704.726.064.128.267.512.256 1.052.022.406-.106.704-.341 1.245z" fill="#fff"/><path d="M13.765 10.531c-.026.093-.064.214-.101.335-.085.291-.187.626-.235.746-.08.207-.144.342-.197.441a1.72 1.72 0 00-.139.349 1.897 1.897 0 00-.032.782c-.106-.014-.288-.114-.309-.242-.016-.092.027-.199.155-.476.026-.057.053-.121.085-.185.219-.498.31-.868.379-1.138.069-.292.106-.42.218-.519a.369.369 0 01.176-.093zm-.213 10.411a5.3 5.3 0 01-.363.782c-.08-.277-.213-.917-.176-1.436 0-.014 0-.029.006-.043.016-.156.048-.306.101-.42.037-.078.139-.12.256-.12a.46.46 0 01.261.085c.043.029.102.093.107.277.01.242-.08.57-.192.875z" fill="#fff"/><path d="M20.155 17.266c.01.007.016.028.01.042-.037.1-.08.164-.128.242-.064.1-.133.206-.197.384-.09.242-.123.47-.139 1.038-.016.669 0 1.046.016 1.323a3.24 3.24 0 01-.01.683c-.07.519-.24.867-.454 1.308-.266.548-.538 1.117-.997 1.294-.043.015-.043.015-.16.022-.101 0-.277 0-.603.014-.592.028-.89.043-1.146.107a2.065 2.065 0 00-.544.22c-.123.064-.24.128-.459.192-.133.036-.33.071-1.003.078-.698 0-1.12 0-1.674-.085-.763-.114-1.147-.178-1.403-.356-.603-.426-.853-1.194-1.275-2.467v-.007c-.005-.014.011-.029.022-.022l.064.043a.714.714 0 00.058.021c.038.008.08.008.118 0 .005 0 .016-.007.021-.007h.005c.006-.007.016 0 .022.007.026.1.069.185.138.235.07.05.155.057.23.05.08 0 .165-.007.245-.021.043-.008.085.02.101.078.075.242.166.412.304.44h.032c.027 0 .07-.006.123-.05.07-.049.165-.02.219.058.032.042.064.085.09.114.144.199.491.291.784.291.16 0 .304-.028.384-.085a.232.232 0 00.112-.242c-.01-.085-.021-.17-.026-.256 0-.007.01-.014.016-.007.016.05.037.114.096.128h.021c.08 0 .208.035.23.142.01.05.026.1.047.15.048.099.15.227.347.227h.016c.224 0 .4-.1.517-.292a.155.155 0 01.022-.035c.042-.078.17-.085.224-.014a.272.272 0 00.224.113h.042c.102-.014.187-.085.256-.206.043-.078.075-.178.096-.284.006-.029.038-.043.059-.022a.28.28 0 00.213.107c.027 0 .054 0 .08-.014.198-.05.294-.27.342-.512 0-.007.01-.007.016-.007.048.078.144.17.304.17h.026c.086-.007.155-.056.208-.142a.953.953 0 00.091-.412.15.15 0 01.07-.128c.165-.1.362-.292.42-.427.017-.043.049-.078.08-.085a.915.915 0 00.23-.093c.043-.021.075-.042.17-.064.758-.156.902-.185 1.067-.334.246-.22.256-.519.267-.803.01-.242.021-.52.165-.847.054-.12.112-.27.176-.426.107-.27.262-.64.368-.847.027-.05.07-.064.112-.035.24.12.454.263.502.313z" fill="#fff"/><path d="M12.821 20.26a8.72 8.72 0 00-.005 1.422c.01.17.027.348.048.526-.037.028-.144.064-.33.057-.273-.007-.54-.1-.62-.213l-.01-.015c-.064-.07-.112-.12-.117-.241 0-.043.01-.086.042-.143.016-.035.038-.07.064-.12.048-.086.102-.186.16-.32a6.29 6.29 0 01.32-.655c.006-.014.016-.021.022-.035.048-.086.106-.192.192-.37.064-.128.117-.228.16-.313a2.08 2.08 0 01.149-.242 5.866 5.866 0 01-.027.22c-.016.121-.037.27-.048.441zm-.128-5.412l-.005.007a1.465 1.465 0 00-.123.284 2.208 2.208 0 00-.133.783c0 .092 0 .163-.021.249-.011.056-.032.12-.059.199-.075.234-.176.54-.133.953-.064-.043-.155-.128-.171-.178-.005-.021-.005-.043-.01-.064-.022-.128-.038-.213.026-.405.16-.498.181-.62.192-.754 0-.029.005-.05.01-.093.033-.199.054-.362.07-.498.021-.206.037-.34.09-.44.022-.036.075-.057.15-.057.032 0 .064 0 .101.007h.011c0 .007 0 .007.005.007zm-.213 4.907a1.778 1.778 0 00-.059-.349.14.14 0 00-.016-.043.138.138 0 00-.021-.042l-.01-.014a2.959 2.959 0 01-.017-.022h-.005s-.005-.007-.01-.007c-.006-.007-.017-.007-.022-.014 0 0-.005-.007-.01-.007h-.011a.501.501 0 00-.16-.064h-.064c-.011.007-.027.007-.038.014-.005 0-.01.007-.016.014-.005 0-.01.007-.016.014l-.016.022s-.005.014-.01.021c0 .007-.006.007-.006.007l-.064.128c-.048.1-.101.206-.154.306l-.144.277c-.027.05-.054.1-.08.157a.038.038 0 00-.011.028c.032.007.064.014.09.022.07.014.14.035.209.05.144.028.293.035.442.028h.022c.037-.071.08-.15.133-.256.032-.057.059-.114.085-.17a.666.666 0 01-.021-.1zm-.523.81c-.01.15-.138.54-.336.91-.165.313-.266.384-.282.384-.08-.014-.16-.277-.219-.533a5.169 5.169 0 01-.064-.299 2.921 2.921 0 01-.043-.632c.166.12.459.156.87.156.021.007.048.007.074.014zm-.287-1.237c0 .007-.006.007-.006.014-.07.135-.139.277-.213.413-.038.07-.075.142-.112.213a.983.983 0 00-.07.128c-.058-.021-.117-.036-.176-.057-.048-.021-.096-.036-.138-.064-.011-.007-.016-.007-.027-.014a.093.093 0 00-.032-.05l.048-.135a8.75 8.75 0 01.096-.242c.064-.142.139-.291.245-.384.006-.007.011-.007.016-.014a.246.246 0 01.134-.064h.069c.01.007.027.007.037.014.006 0 .011.007.011.007.01.007.021.015.032.029-.016-.014.021.035.021.035.043.043.054.093.064.171zm-.56-.398a1.809 1.809 0 00-.305.533l-.128.334c-.005.014-.01.022-.016.036l-.117-.043a.505.505 0 01-.123-.064c-.016-.014-.037-.021-.053-.035.037-.1.085-.192.128-.285.064-.128.128-.256.203-.377a.667.667 0 01.096-.128c.037-.028.085-.021.133-.021.048.007.101.007.144.028.021.008.032.022.037.022zm-.203 2.332l-.016.021c-.006 0-.011 0-.011.008-.032.007-.064.007-.096.007-.059.007-.123.007-.181.007-.032 0-.064-.007-.08-.036-.022-.042-.027-.128-.038-.185a3.943 3.943 0 01-.016-.903c.118.057.235.1.358.128-.027.27.016.669.042.79.011.05.022.106.038.163zm-.379-2.425a6.15 6.15 0 00-.283.534c-.032.078-.074.156-.101.234a.3.3 0 01-.117-.07.534.534 0 01-.086-.079l-.037-.043c-.005 0-.005-.007-.01-.007a.75.75 0 01.037-.1c.021-.063.048-.127.069-.184.048-.114.101-.22.16-.327.021-.036.043-.086.08-.1.032-.014.075-.007.101 0 .08.014.139.064.187.142zm-.789.733c0-.007.01-.007.016 0 .026.05.064.092.101.135.016.021.037.035.053.05.006 0 .006.007.006.014a3.86 3.86 0 00-.07.711c0 .014-.016.014-.016 0-.058-.285-.122-.74-.09-.91zm.501.505a4.814 4.814 0 00-.027.618c.006.114.011.228.022.334a.083.083 0 00-.059 0h-.021c-.022-.007-.022-.007-.043-.02a.244.244 0 01-.059-.093.915.915 0 01-.053-.32 3.561 3.561 0 01.037-.633c.027.014.048.028.086.05.042.021.08.042.117.064z" fill="#fff"/><g opacity=".8" stroke-miterlimit="10"><path d="M14.304 30.798a19.04 19.04 0 01-1.925-.114l-.155-.014-.155-.028a2.194 2.194 0 00-.245-.036c-.539-.078-1.536-.22-2.64-.91l-.17-.107-.16-.12C6.735 27.882 5.94 25.5 5.513 24.22l-.09-.27a14.882 14.882 0 01-.47-1.6l-.026-.106-.021-.107c-.31-1.458-.384-2.717-.246-3.961.139-1.252.491-2.39 1.094-3.577l.314-.683c.064-.135.107-.291.134-.448.24-1.578.778-2.688 1.045-3.22.075-.648.192-1.28.363-1.892l.026-.093.027-.092.021-.079c.118-.476.4-1.6 1.115-2.78l.267-.434.272-.327c.704-.853 1.546-1.486 2.458-1.849a5.5 5.5 0 011.563-.37l.053-.007.075-.007c.09-.007.181-.007.272-.007.33 0 .661.036.987.114.202.043.41.014.602-.093a5.71 5.71 0 011.894-.654c.096-.014.25-.042.432-.064.32-.042.81-.092 1.344-.092 1.04 0 1.941.178 2.741.547l.07.029.069.035c1.781.882 2.682 2.134 3.333 3.229l.032.05.09.106a8.008 8.008 0 011.473 2.205l.122.263.102.277c.864 2.361.592 4.537.485 5.355l-.005.042a12.193 12.193 0 01-.352 1.771 10.814 10.814 0 01-.294 1.621c-.229.94-.57 1.82-1.008 2.624-.25.477-.533.918-.848 1.323a1.028 1.028 0 00-.202.533c-.016.128-.027.25-.048.37a11.803 11.803 0 01-1.094 3.584l-.736 1.408c-.885 1.48-1.936 2.446-3.205 2.973l-.31.128-.33.078a4.871 4.871 0 01-1.152.135h-.181l-.064.007h-.07a1.286 1.286 0 00-.432.093c-.837.334-1.765.49-2.901.49z" stroke="url(#paint1_linear_6_299)" stroke-width="2.484"/><path d="M14.304 29.831c-.672 0-1.317-.057-1.856-.114l-.128-.014-.128-.021a10.1 10.1 0 00-.272-.043c-.523-.078-1.392-.199-2.368-.81l-.144-.093-.133-.1c-1.872-1.4-2.56-3.477-2.976-4.714-.032-.086-.064-.2-.102-.299-.192-.526-.32-1.01-.426-1.458l-.022-.092-.016-.085c-.272-1.295-.346-2.404-.224-3.478.123-1.08.427-2.076.966-3.129l.405-.874a1.97 1.97 0 00.144-.505 9.18 9.18 0 01.965-3.008l.032-.064.011-.022.016-.042c.016-.064.027-.121.043-.185.064-.605.176-1.202.33-1.785l.022-.078.021-.078c.005-.022.016-.05.032-.136.112-.455.352-1.4.97-2.417l.225-.363.229-.277c.608-.733 1.333-1.28 2.123-1.593a4.701 4.701 0 011.381-.32l.043-.007.064-.007c.08-.008.154-.008.229-.008.336 0 .672-.128.997-.042a.938.938 0 00.752-.107c.443-.263 1.04-.363 1.723-.476a13.314 13.314 0 01.528-.078c.304-.036.768-.086 1.264-.086.944 0 1.75.157 2.464.49l.059.03.053.028c1.568.789 2.347 1.849 2.95 2.88.031.057.069.113.08.135l.015.014.112.135.016.021a6.817 6.817 0 011.307 1.942l.101.22.086.235c.746 2.027.512 3.875.41 4.665l-.005.042a10.13 10.13 0 01-.347 1.672 9.785 9.785 0 01-.266 1.543 9.38 9.38 0 01-.891 2.318 7.83 7.83 0 01-.901 1.358 1.304 1.304 0 00-.278.725 10.38 10.38 0 01-1.05 3.812l-.587 1.152c-.79 1.358-1.728 2.24-2.864 2.71l-.256.106-.277.064a4.377 4.377 0 01-1.008.114h-.235l-.059.007h-.058l-.118.007a1.312 1.312 0 00-.458.107c-.758.327-1.632.476-2.715.476z" stroke="url(#paint2_linear_6_299)" stroke-width="2.484"/><path d="M14.304 28.693c-.64 0-1.264-.057-1.792-.106l-.101-.007-.102-.022c-.09-.014-.197-.035-.298-.05-.496-.07-1.254-.184-2.096-.71l-.112-.072-.107-.078c-1.621-1.209-2.219-3-2.608-4.181-.032-.1-.07-.214-.107-.32a11.23 11.23 0 01-.384-1.316l-.016-.071-.016-.071c-.24-1.138-.304-2.09-.197-3.001.107-.924.379-1.785.859-2.716l.058-.107.064-.107.112-.192.24-.59a2.4 2.4 0 00.16-.619 7.865 7.865 0 01.854-2.716c.01-.029.026-.057.037-.078l.048-.1c.016-.057.043-.128.064-.199.021-.092.048-.2.075-.313a9.956 9.956 0 01.298-1.65l.016-.064.016-.064c.016-.05.027-.1.048-.185.107-.42.299-1.208.822-2.062l.181-.291.181-.22c.518-.627 1.131-1.089 1.803-1.359a3.94 3.94 0 011.195-.277h.085c.064-.007.128-.007.192-.007.347 0 .693.056 1.03.177.293.1.597.057.869-.12.432-.278 1.008-.577 1.685-.69a11.813 11.813 0 01.496-.078 9.67 9.67 0 011.184-.079c.848 0 1.563.142 2.181.427l.048.021.043.022c1.44.725 2.09 1.678 2.581 2.517.107.185.123.213.198.299l.09.106.038.05c.24.242.72.747 1.146 1.685l.08.178.07.185c.624 1.7.432 3.236.336 3.968l-.006.043a9.725 9.725 0 01-.336 1.578l-.005.05a9.06 9.06 0 01-.24 1.422 8.344 8.344 0 01-.773 2.02 6.31 6.31 0 01-1.003 1.422c-.09.1-.165.22-.219.356a1.367 1.367 0 00-.09.448 8.863 8.863 0 01-.08.91c-.192 1.394-.651 2.354-.88 2.837l-.464.91c-.699 1.238-1.52 2.041-2.518 2.447l-.202.085-.224.05c-.283.064-.571.1-.859.1h-.197c-.011 0-.032 0-.086.006l-.048.008h-.048l-.24.014c-.165.007-.33.05-.49.12-.694.278-1.51.427-2.539.427z" stroke="url(#paint3_linear_6_299)" stroke-width="2.328"/><path d="M14.304 27.548a17.79 17.79 0 01-1.728-.106l-.075-.007-.074-.015a4.62 4.62 0 00-.326-.05c-.469-.07-1.109-.163-1.824-.61l-.085-.058-.08-.057c-1.37-1.024-1.877-2.545-2.245-3.648l-.118-.348c-.154-.42-.256-.825-.341-1.166l-.01-.057-.011-.05c-.4-1.906-.251-3.236.538-4.757l.043-.086.048-.078c.053-.092.101-.178.15-.256.074-.128.143-.256.223-.391.048-.085.091-.178.118-.277l.09-.306c.038-.128.064-.27.07-.405.08-1.224.522-2.112.746-2.553.016-.036.043-.079.048-.1l.054-.107.016-.028a6.47 6.47 0 00.128-.391c.026-.114.064-.285.106-.441v-.021a8.225 8.225 0 01.262-1.5l.01-.05.016-.05c.022-.079.043-.15.064-.242.096-.377.251-1.01.672-1.7l.134-.22.133-.164c.997-1.209 2.112-1.308 2.485-1.344h.064c.054 0 .102-.007.15-.007.442 0 .88.121 1.285.349.075.042.15.057.23.05a.447.447 0 00.223-.086c.379-.291 1.072-.825 1.958-.967l.112-.021c.08-.015.202-.036.357-.05a8.748 8.748 0 011.104-.071c.752 0 1.376.12 1.904.362l.032.015.032.014c1.237.626 1.77 1.4 2.208 2.155.117.199.17.291.304.448l.07.085.053.078.042.043c.208.213.598.618.944 1.38l.059.134.053.143c.502 1.372.347 2.61.262 3.278l-.006.043c-.058.483-.165.96-.309 1.408l-.01.035c0 .007-.006.021-.006.036l-.016.128-.005.05a6.9 6.9 0 01-.203 1.201 7.148 7.148 0 01-.656 1.714 5.231 5.231 0 01-.955 1.316 1.654 1.654 0 00-.373.576c-.09.227-.139.483-.139.74-.005.32-.026.64-.069.96a7.834 7.834 0 01-.773 2.46l-.336.668c-.603 1.116-1.312 1.835-2.166 2.183l-.042.021c-.075.029-.144.057-.219.072l-.053.014a3.034 3.034 0 01-.715.085h-.128.005-.069c-.016 0-.059 0-.139.007h-.069l-.384.022a1.32 1.32 0 00-.512.135c-.608.298-1.36.433-2.336.433z" stroke="url(#paint4_linear_6_299)" stroke-width="2.173"/><path d="M14.304 26.41c-.587 0-1.168-.05-1.659-.106l-.053-.007-.053-.007c-.118-.022-.235-.036-.347-.057-.432-.064-.965-.142-1.552-.505l-.059-.036-.053-.042c-1.125-.84-1.547-2.105-1.883-3.115a16.524 16.524 0 00-.128-.377 7.592 7.592 0 01-.293-1.024l-.01-.035-.006-.036c-.33-1.572-.224-2.567.416-3.804l.027-.057.032-.05.154-.27c.166-.292.326-.576.571-.918a.53.53 0 00.09-.277l.017-.37-.006-.12.006-.129c.026-1.01.405-1.777.613-2.183.021-.05.048-.1.064-.128l.032-.07.032-.058a5.71 5.71 0 00.213-.64c.027-.114.075-.334.123-.505.01-.056.016-.07.027-.184.037-.427.106-.847.218-1.252l.011-.028.01-.029c.033-.107.054-.199.08-.299.08-.327.203-.81.529-1.344l.09-.142.091-.106c.699-.847 1.461-1.003 1.973-1.053h.155c.437 0 .965.277 1.237.448a.38.38 0 00.208.064.551.551 0 00.214-.043 4.06 4.06 0 00.501-.291c.352-.27.933-.718 1.653-.832l.107-.021c.075-.015.187-.029.33-.05a8.865 8.865 0 011.02-.071c.655 0 1.183.1 1.62.298l.022.007.021.015c1.035.519 1.446 1.116 1.84 1.792.128.213.219.37.406.597l.048.057.042.057c.038.05.08.1.123.142.176.185.475.49.736 1.067l.043.085.032.092c.384 1.039.261 2.006.186 2.589l-.005.043a5.938 5.938 0 01-.256 1.159 1.5 1.5 0 00-.07.305c-.01.072-.015.136-.02.2l-.006.05a5.5 5.5 0 01-.165.98 5.793 5.793 0 01-.539 1.416c-.347.661-.752 1.13-1.237 1.43a.825.825 0 00-.294.326 1.128 1.128 0 00-.117.484c0 .07-.005.128 0 .163.021.498.053 1.067-.032 1.65-.133.967-.437 1.614-.672 2.084 0 0-1.056 1.955-2.016 2.346l-.101.043-.112.028a2.551 2.551 0 01-.566.064h-.202c-.038 0-.102 0-.192.008h-.043c-.368.014-.715.035-.81.056a.568.568 0 00-.15.057c-.56.32-1.27.47-2.256.47z" stroke="url(#paint5_linear_6_299)" stroke-width="2.018"/><path d="M14.304 25.266c-.555 0-1.115-.05-1.595-.1h-.026l-.027-.007c-.128-.021-.256-.043-.373-.057-.406-.057-.827-.12-1.28-.405l-.027-.021-.027-.022c-.88-.654-1.205-1.635-1.52-2.588-.042-.135-.09-.278-.138-.413a7.585 7.585 0 01-.251-.867l-.005-.015-.006-.02c-.261-1.252-.197-1.885.299-2.845l.016-.029.016-.028c.059-.1.112-.192.16-.277.24-.42.443-.776.907-1.345a.39.39 0 00.069-.156.432.432 0 00-.005-.185l-.086-.313c-.016-.1-.026-.199-.037-.306l-.005-.085v-.064c.016-.69.288-1.23.469-1.586.027-.056.053-.106.075-.156l.016-.036.021-.035c.096-.17.25-.647.33-.939.022-.092.075-.334.123-.512.032-.135.054-.27.064-.405.027-.341.086-.683.176-1.003l.006-.014.005-.014c.037-.135.07-.25.096-.356.07-.284.155-.611.379-.981l.048-.071.042-.057a1.999 1.999 0 011.462-.761h.096c.41 0 .72.22.928.37l.048.035.005.007c.059.043.107.079.155.107a.46.46 0 00.416.057c.282-.1.725-.327 1.024-.548l.005-.007c.315-.241.784-.604 1.339-.69l.101-.02c.064-.015.17-.03.304-.043.23-.029.576-.064.939-.064.56 0 .997.078 1.344.234l.01.007.011.007c.827.42 1.13.854 1.467 1.43.138.234.266.455.512.746l.021.029.021.028c.064.093.139.171.214.25.149.148.346.362.528.76l.021.043.016.05c.261.71.176 1.393.112 1.891l-.005.043a4.77 4.77 0 01-.203.917c-.059.17-.096.349-.117.526-.016.107-.022.185-.032.263l-.006.057a5.224 5.224 0 01-.122.761c-.096.398-.24.775-.427 1.11-.315.604-.661.974-1.125 1.173-.224.092-.411.284-.539.547l-.037.079-.043.064c-.117.177-.085.867-.064 1.287.021.455.043.924-.021 1.365-.107.754-.347 1.266-.566 1.714 0 0-.805 1.55-1.53 1.842l-.054.021-.053.014c-.139.036-.277.05-.421.05h-.198c-.048 0-.128 0-.25.014h-.021c-.486.021-.785.036-.945.078a1.312 1.312 0 00-.32.128c-.432.22-1.04.342-1.909.342z" stroke="url(#paint6_linear_6_299)" stroke-width="2.018"/></g></g><defs><linearGradient id="paint1_linear_6_299" x1="5.078" y1=".904" x2="33.549" y2="23.316" gradientUnits="userSpaceOnUse"><stop offset=".206" stop-color="#89D0FF"/><stop offset=".398" stop-color="#EBBF9A"/><stop offset=".602" stop-color="#EB8280"/><stop offset=".841" stop-color="#A281FF"/></linearGradient><linearGradient id="paint2_linear_6_299" x1="5.934" y1="2.219" x2="32.212" y2="22.988" gradientUnits="userSpaceOnUse"><stop offset=".206" stop-color="#89D0FF"/><stop offset=".398" stop-color="#EBBF9A"/><stop offset=".602" stop-color="#EB80DA"/><stop offset=".841" stop-color="#A281FF"/></linearGradient><linearGradient id="paint3_linear_6_299" x1="6.795" y1="3.359" x2="30.878" y2="22.486" gradientUnits="userSpaceOnUse"><stop offset=".206" stop-color="#89D0FF"/><stop offset=".398" stop-color="#EBBF9A"/><stop offset=".602" stop-color="#EB8280"/><stop offset=".841" stop-color="#A281FF"/></linearGradient><linearGradient id="paint4_linear_6_299" x1="7.655" y1="4.503" x2="29.539" y2="21.983" gradientUnits="userSpaceOnUse"><stop offset=".206" stop-color="#89D0FF"/><stop offset=".398" stop-color="#EBBF9A"/><stop offset=".602" stop-color="#EB80E7"/><stop offset=".841" stop-color="#A281FF"/></linearGradient><linearGradient id="paint5_linear_6_299" x1="8.513" y1="5.645" x2="28.2" y2="21.475" gradientUnits="userSpaceOnUse"><stop offset=".206" stop-color="#89D0FF"/><stop offset=".398" stop-color="#EBBF9A"/><stop offset=".602" stop-color="#EB80D3"/><stop offset=".841" stop-color="#A281FF"/></linearGradient><linearGradient id="paint6_linear_6_299" x1="9.375" y1="6.783" x2="26.865" y2="20.972" gradientUnits="userSpaceOnUse"><stop offset=".206" stop-color="#89D0FF"/><stop offset=".398" stop-color="#EBBF9A"/><stop offset=".602" stop-color="#A280EB"/><stop offset=".841" stop-color="#A281FF"/></linearGradient><radialGradient id="paint0_radial_6_299" cx="0" cy="0" r="1" gradientUnits="userSpaceOnUse" gradientTransform="matrix(0 14.3419 -10.7564 0 16 17.87)"><stop offset=".167" stop-color="#073183"/><stop offset="1" stop-color="#0054F9"/></radialGradient><clipPath id="clip0_6_299"><path fill="#fff" d="M0 0h32v32H0z"/></clipPath></defs></svg>