<svg xmlns="http://www.w3.org/2000/svg" width="64" height="65" fill="none" viewBox="0 0 64 65"><g clip-path="url(#ape_svg-a)"><rect width="64" height="64" y=".304" fill="#fff" rx="32"/><path fill="url(#ape_svg-b)" d="M64 32.304c0-17.69-14.345-32-32-32-17.69 0-32 14.31-32 32 0 17.655 14.31 32 32 32 17.655 0 32-14.345 32-32"/><path fill="#fff" d="M53.759 22.304c-.138.793-.276 1.172-.483 1.586-.207.483-.414 1-.62 2.104-.07.413-.139.758-.173 1.034v.034c-.07.449-.104.759-.276 1.276-.138.449-.38 1.173-.966 1.931-.482.621-1.275 1.69-2.344 1.828-.104 0-.276 0-.38-.035-3.034-1.551-5.62-2.69-6.517-2.93-1.034-.311-.897-2.587-.793-4.587.069-.896.103-1.758.069-2.483-.138-2.551-.586-5.31-2.793-6.655-1.31-.793-3.035-1.034-4.655-1.034.31-.138.62-.345 1-.552.965-.552 2.138-1.241 3.344-1.38.38-.034.76-.068 1.138-.137 2.38-.276 4.449-.517 6.621.241 1 .345 3 1.448 3.517 2.517.38.725 1 1.31 2.207 2.449.655.586 1.07.93 1.38 1.207.448.344.517.448.655.69.413.827.276 1.689.069 2.896m-11 10.448c.137.034.206.207.103.345-.31.483-.69 1.172-1.138 1.965-.207.38-.414.759-.586 1.035-.586 1-.62 1.862-.655 2.517-.035.724-.07 1.035-.518 1.31-.344.242-.724.31-3.207.69-.448.07-.62.138-.793.242-.034.034-.103.034-.138.069-.137.068-.275-.07-.275-.207.034-.345.034-.794.034-1.38v-.103c0-.483 0-.897-.034-1.207-.035-.62-.035-.897.138-1.172.206-.345.379-.449.62-.621.38-.242.897-.552 1.62-1.586.415-.552.484-.863.553-1.104.034-.103.034-.138.345-.38.31-.24 1.31-1 2.586-.792.413.069.862.207 1.344.38M32.862 44.2c-.069.07-.103.104-.207.104-.276 0-.448-.07-.552-.207-.241-.31-.207-.931-.172-1.31L33 42.51c.069.586.103 1.379-.138 1.69m.068-3.793c-.034.138-.034.31-.034.518v.793c-.344.103-.62.103-.965.103v-.896c0-.207 0-.518.034-.621.104 0 .207-.035.31-.07.208-.034.518-.103.69-.068 0 .069 0 .172-.034.241M31 43.89c-.035.552-.207 1.207-.724 1.31-.242.035-.345-.034-.414-.103-.345-.31-.38-1.276-.345-1.966.241 0 .517-.034.862-.103.207-.035.414-.103.586-.138.035.276.07.62.035 1m-.241-1.931-1.138.414c.069-.448.138-1.07.172-1.483.035-.276.104-.38.138-.414 0 0 .034-.034.069-.034h.069l.724-.035c-.034.345-.034 1.104-.034 1.552m-1.863-.345c-.069.172-.137.655-.172 1l-1.414-.034c.07-.449.207-.897.31-1.242.139-.345.242-.62.38-.69.138-.068.448-.103.655.07.31.206.38.517.241.896m-.516 4.379c-.104.138-.242.242-.38.242-.172.034-.276-.035-.38-.104-.448-.413-.413-1.758-.379-2.413a15 15 0 0 1 1.552-.276c0 .517.035 1.93-.414 2.551m-1.862-3.483a3 3 0 0 0-.172.518c-.173.069-.69 0-1.207-.103l.345-2.242c.586-.172 1.275-.207 1.413-.034.242.241-.207 1.379-.379 1.862m-.655 3.793c-.276.345-.69.517-1.276.483-.414 0-.552-.173-.62-.276-.31-.518 0-1.724.31-2.483l1.93.103c.035.138.035.31.035.483.035.586-.034 1.276-.379 1.69"/><path fill="#fff" d="M41.862 29.994c-1.759-.483-1.586-3.035-1.448-5.518.034-.862.103-1.69.069-2.38-.138-2.31-.518-4.827-2.38-5.965-2-1.207-5.276-.93-7.276-.69-.724.208-1.413.38-1.965.346-1.172-.07-2.103-.552-2.931-1-.62-.345-1.172-.656-1.724-.656h-.07c-1.55.104-2.275.483-2.93 1.07-.173.137-.38.551-1.035 2.448-.345.965-.379 1.482-.448 1.965-.069.448-.104.931-.345 1.655-.172.483-.31.897-.414 1.31-.31 1.07-.586 1.932-1.344 2.966-.104.104-.207.31-.345.483-.173.276-.38.62-.69 1-.207.276-.655 1.31-.62 1.62.034.518.206.828.379 1.173.172.345.414.759.448 1.345v.103c.069.897-.069 1.345-1.759 2.862a18.5 18.5 0 0 0-2.379 2.587c-.034.069 0 .137.104.137h.344c.414.035.828.207 1.104.518.034.069.138.069.207.034.276-.103.586-.103.862-.069.345.035.724.138.965.38a.27.27 0 0 0 .276.069c.276-.07.586-.07.862.034.207.069.414.207.552.38a.37.37 0 0 0 .414.068c.069-.034.172-.103.276-.138.379-.138.793-.069 1.138.07.172.068.344.103.517.24.276.208.483.483.586.794.069.172.31.241.448.103.276-.207.483-.241.69-.172a.46.46 0 0 1 .241.207c.104.138.276.276.414.207.586-.173 1.276-.07 1.793.207.172.103.38.241.483.448v-.104c0-.034.034-.069.069-.103l.103-.035c.276-.103 1.724-.517 2.276.07q.053.051.104 0c.069-.07.137-.139.172-.139.38-.206 1-.24 1.414.138.069.07.207.035.276-.034a.27.27 0 0 1 .138-.138c.137-.138.344-.172.551-.172l.793-.035a9 9 0 0 0 1-.103h.035c.069 0 .172-.035.276-.07.38-.068.827-.172 1.172 0 .345.173.31.552.276.897 0 .138-.034.276-.034.414v.207c0 .31 0 .586-.035.793l.035.172v.035c.034.138.206.241.31.138.276-.172.552-.38.655-.517v-.035c0-.034.035-.103.07-.241.033-.31.102-.897.102-2.104v-.138c0-.448 0-.827-.034-1.138-.035-.655-.069-1.172.276-1.69.31-.516.62-.689.93-.896.346-.207.725-.448 1.38-1.345.31-.448.345-.62.38-.758.069-.345.172-.552.69-.897.413-.31 1.62-1.241 3.275-.965.552.103 1.414.38 2.31.724.035 0 .07.034.104.034h.034c.793.31 1.518.655 2.035.931.103.07.241.035.345-.069.172-.206.344-.31.517-.448a.8.8 0 0 0 .172-.103c.035 0 .035-.035.035-.035.138-.103.138-.38-.035-.448a34 34 0 0 0-5.241-2.034m-16.62.517c-.553 2.345-4.208 4.965-5.863 4.965h-.104c-.034 0-.068 0-.103-.034h-.069a2.8 2.8 0 0 1-1.034-.62 1.8 1.8 0 0 1-.448-.725c0-.035-.035-.104-.035-.138-.103-.414-.207-.897.138-1.724.035-.104.103-.207.138-.31 0-.035.034-.07.034-.104.035-.103.07-.172.104-.241.034-.138.103-.242.138-.31 0-.035.034-.07.034-.104.104-.276.104-.38.138-.483 0-.069.035-.207.07-.345q.155-.672.206-1.138c.069-.586.173-1.103.483-1.586.069-.069.103-.138.172-.207l.07-.069.068-.069c.07-.069.173-.103.241-.138.035 0 .07-.034.104-.034.069-.035.138-.035.207-.069.31-.069.655-.069 1.069-.034.448.034.862.103 1.207.206.31.07.586.173.793.276.034 0 .034.035.069.035.034.034.069.034.138.069.069.034.103.034.172.069l.207.103.069.035c.241.103.483.241.655.379.104.069.173.138.242.207.034.034.069.034.069.069l.069.069c.724.62.69 1.483.551 2m1.723-8.931-.069.414c-.172.965-.551 2.275-1.93 2.62-1.346.31-1.656.38-2.587.448h-.069c-.69 0-2.034-.448-2.276-1.517-.138-.69.173-1.207.656-2.034.069-.138.172-.276.275-.449.69-1.138.931-1.965 1.138-2.62s.38-1.173.828-1.62a1.4 1.4 0 0 1 .345-.277c.069-.069.172-.103.276-.172.137-.07.275-.104.413-.173.31-.103.656-.138.966-.138.655 0 1.31.173 1.758.552.207.173.518.483.69 1.483.07.517-.069 1.448-.414 3.483m9.897 2.758c-.483.828-.724 1.276-1.138 1.621-.828.69-1.759.828-2.552.828-.551 0-1.034-.104-1.345-.138-.827-.138-2.31-.414-2.827-1.621-.104-.241-.104-.38-.104-.586 0-.173 0-.518-.103-1.242v-.034c-.034-.345-.069-.724 0-1.207v-.069c.276-1.448.38-1.655.414-1.793a.57.57 0 0 1 .793-.242c.276.139.38.483.276.76-.035.068-.104.379-.345 1.516v.07c-.07.31-.035.551 0 .861v.035c.103.827.103 1.172.103 1.38v.137c.104.241.31.38.552.517.173.07.345-.069.31-.241-.241-1.276-.241-2.759.242-3.69.172-.31.448-.793.724-1.276a.26.26 0 0 0 .069-.137c.034-.035.034-.07.069-.104.138-.207.241-.38.345-.552 0-.034.034-.034.034-.069l.035-.034c.034-.034.034-.069.069-.104 0 0 0-.034.034-.034l.035-.035c0-.034.034-.034.034-.068.104-.138.207-.276.276-.414.138-.173-.035-.38-.207-.31-.483.206-.793.448-.862.482a.57.57 0 0 1-.828-.103.57.57 0 0 1 .104-.828c.31-.241 1.896-1.38 3.793-.862 1.38.38 2.069 1.448 2.345 1.828.207.31.896 1.276.862 2.655 0 1-.414 1.759-1.207 3.103"/><path fill="#fff" d="M24.517 17.27c-.103.24-.207.517-.345.827-.276.724-.62 1.551-.793 1.862-.276.517-.483.862-.655 1.103-.207.31-.345.552-.483.897q-.31.879-.103 1.965c-.38-.034-.966-.276-1.035-.62-.034-.242.104-.483.517-1.207.07-.138.173-.31.276-.449a12.4 12.4 0 0 0 1.242-2.861c.241-.725.345-1.035.724-1.31.241-.104.448-.173.655-.208m-.724 26.069c-.414.828-.897 1.587-1.207 1.966-.276-.69-.724-2.31-.586-3.586v-.104c.034-.414.138-.758.345-1.069.138-.207.483-.31.862-.31.276 0 .586.069.862.207.138.069.345.241.345.69.069.62-.242 1.448-.621 2.206"/><path fill="#fff" d="M45.862 34.131c.034.035.034.07.034.104-.103.241-.276.414-.448.62-.207.242-.448.518-.655.966-.31.62-.414 1.172-.448 2.62-.07 1.69 0 2.621.069 3.311.034.655.069 1.07-.035 1.724-.241 1.31-.793 2.173-1.517 3.276-.897 1.38-1.793 2.793-3.31 3.241-.138.035-.138.035-.552.035-.345 0-.931 0-2 .034-2 .07-3 .104-3.828.276-.896.173-1.345.38-1.827.552-.414.172-.793.31-1.518.483-.448.103-1.103.172-3.344.207-2.345 0-3.759 0-5.587-.207-2.551-.276-3.827-.448-4.69-.897-2-1.069-2.861-3-4.24-6.172 0-.035.034-.07.068-.07l.207.104c.07.035.138.035.173.035a.84.84 0 0 0 .413 0c.035 0 .035 0 .07-.035.034 0 .068 0 .068.035.104.241.242.448.483.586.242.138.517.138.759.138.276 0 .551-.035.827-.069.138 0 .276.069.345.172.242.621.552 1.035 1.035 1.104h.103c.104 0 .276-.035.483-.173.172-.138.448-.034.586.138.104.173.241.276.38.38.482.482 1.654.724 2.62.724.517 0 1-.07 1.276-.207.414-.207.414-.483.38-.62-.035-.208-.07-.45-.104-.656 0-.035.034-.035.034 0 .07.138.138.276.31.31h.07c.275 0 .69.104.758.345.035.138.104.242.173.38.172.24.482.551 1.137.586h.035c.759 0 1.345-.242 1.724-.724.035-.035.035-.07.07-.104.137-.207.55-.207.723-.034.207.172.448.276.724.276h.138c.345-.035.621-.207.862-.518a2.3 2.3 0 0 0 .31-.724c.035-.069.139-.103.208-.034.137.138.379.276.724.276.069 0 .172 0 .276-.035.655-.138 1-.69 1.137-1.276 0-.034.035-.034.035 0 .172.207.483.448 1 .448h.069a.9.9 0 0 0 .69-.344c.206-.276.276-.69.31-1.07 0-.103.069-.206.207-.275.552-.242 1.241-.759 1.448-1.104 0 0 0-.034.035-.034.034-.104.138-.173.206-.173.449-.069.621-.172.794-.24.138-.07.241-.104.586-.173 2.517-.38 3-.483 3.552-.828.827-.552.862-1.31.896-2.034.035-.621.07-1.31.552-2.138.172-.31.38-.656.586-1.07.38-.689.897-1.654 1.276-2.172a.225.225 0 0 1 .31-.069c.862.31 1.621.655 1.759.793"/><path fill="#fff" d="M21.38 41.649a16.7 16.7 0 0 0-.035 3.551c.034.414.103.862.172 1.31-.103.07-.483.173-1.103.139-.897-.035-1.793-.242-2.07-.552l-.034-.035c-.207-.172-.38-.31-.38-.62 0-.104.035-.207.139-.38q.104-.103.207-.31c.138-.207.345-.448.552-.793.586-.966.793-1.276 1.068-1.655.035-.035.035-.07.07-.104.172-.207.344-.483.655-.93.207-.311.379-.587.551-.794a4 4 0 0 1 .517-.62c0 .137-.034.344-.068.551a5 5 0 0 0-.242 1.242m-.449-13.587q0 .053 0 0c-.137.173-.275.38-.447.725-.449.965-.449 1.517-.449 1.965 0 .242 0 .414-.069.62a1.8 1.8 0 0 1-.206.483c-.242.587-.587 1.345-.449 2.38-.207-.104-.517-.345-.586-.448 0-.07-.034-.104-.034-.173-.07-.31-.104-.517.069-1 .551-1.241.62-1.552.655-1.896 0-.07.034-.138.034-.242q.156-.723.207-1.241c.069-.517.138-.862.31-1.104.07-.103.242-.137.483-.137.104 0 .207 0 .345.034h.035zm-.689 12.311c-.034-.31-.069-.586-.207-.897 0 0-.034-.069-.034-.103-.035-.035-.035-.07-.069-.104l-.035-.034c-.034-.035-.034-.035-.069-.035l-.034-.034c-.034 0-.034-.035-.069-.035h-.034a2.6 2.6 0 0 0-.552-.172h-.173c-.034 0-.069.034-.137.034-.035 0-.035.035-.07.035l-.034.034-.069.07-.034.034v.034l-.207.31c-.173.242-.345.518-.518.76-.172.24-.31.448-.482.689-.104.138-.173.241-.276.38 0 .034-.035.034-.035.068.104.035.207.035.31.07.242.034.483.068.69.103.483.069 1 .103 1.483.069h.07c.103-.173.275-.38.447-.656a3 3 0 0 0 .276-.413c-.103-.035-.138-.138-.138-.207m-1.758 2.034c-.035.38-.449 1.345-1.104 2.276-.552.759-.896.966-.965.966-.276-.035-.518-.69-.725-1.345-.068-.276-.172-.517-.206-.759-.138-.483-.173-1.172-.138-1.586.551.31 1.517.38 2.896.38.07.034.173.034.242.068m-.966-3.103c-.241.38-.483.724-.724 1.069-.138.172-.241.345-.38.517-.068.103-.172.207-.24.31-.208-.034-.38-.103-.587-.138-.172-.034-.31-.103-.483-.172-.034 0-.069-.035-.103-.035-.035-.034-.07-.103-.104-.137.07-.104.104-.242.173-.345.103-.207.207-.414.345-.62.207-.346.448-.725.827-.967.035 0 .035-.034.07-.034.137-.069.275-.138.447-.172h.276c.035 0 .07.034.138.034 0 0 .035 0 .035.035.034.034.069.034.103.069-.069-.035.07.103.07.068.068.207.103.31.137.518m-1.862-1c-.448.344-.759.827-1 1.344l-.414.828c0 .035-.034.07-.034.07-.138-.035-.276-.07-.38-.104-.138-.035-.276-.104-.413-.138-.07-.035-.104-.07-.173-.104.138-.241.276-.483.448-.724a9 9 0 0 1 .69-.93c.104-.104.207-.242.31-.311.138-.07.276-.07.449-.035.172 0 .345 0 .482.07-.034 0 0 .034.035.034m-.69 5.862-.069.069h-.034c-.104 0-.207.034-.31.034-.207 0-.414.035-.621 0a.4.4 0 0 1-.276-.103c-.069-.104-.103-.31-.138-.448-.138-.759-.138-1.518-.069-2.276.38.138.793.241 1.207.31-.103.69.069 1.69.138 1.966.103.137.138.31.172.448m-1.241-6.104a9.3 9.3 0 0 0-.931 1.345c-.103.173-.241.38-.345.587a1.3 1.3 0 0 1-.38-.173 2 2 0 0 1-.275-.207c-.034-.034-.103-.069-.138-.103 0 0-.034 0-.034-.035.034-.103.103-.172.103-.241.069-.173.138-.31.241-.448.173-.276.345-.552.552-.828.07-.104.138-.207.276-.241.104-.035.241 0 .345 0 .207.034.414.172.586.344m-2.655 1.828c0-.035.034-.035 0 0 .138.138.241.241.38.345.068.034.103.103.172.138v.034c-.138.586-.242 1.207-.242 1.828 0 .034-.034.034-.034 0-.173-.724-.38-1.897-.276-2.345m1.69 1.276a8 8 0 0 0-.07 1.552c0 .275.035.551.07.861h-.276l-.138-.068c-.07-.035-.138-.138-.207-.242-.138-.241-.172-.517-.172-.793-.035-.517.034-1.069.137-1.586.07.034.173.069.276.103.138.07.242.138.38.173"/><mask id="ape_svg-c" width="64" height="65" x="0" y="0" maskUnits="userSpaceOnUse" style="mask-type:luminance"><path fill="#fff" d="M64 32.304c0-17.69-14.345-32-32-32-17.69 0-32 14.31-32 32 0 17.655 14.31 32 32 32 17.655 0 32-14.345 32-32"/></mask><g stroke-miterlimit="10" mask="url(#ape_svg-c)" opacity=".8"><path stroke="url(#ape_svg-d)" stroke-width="1.365" d="M26.345 68.063c-2.345 0-4.552-.138-6.414-.276l-.517-.035-.517-.069a27 27 0 0 0-.828-.103c-1.793-.207-5.138-.552-8.827-2.276l-.587-.276-.517-.31c-7.103-4-9.724-9.966-11.172-13.173-.104-.206-.207-.448-.31-.69-.725-1.482-1.173-2.792-1.552-4.034l-.07-.276-.068-.276c-1.035-3.655-1.276-6.793-.828-9.93.483-3.139 1.62-5.966 3.655-8.966l1.035-1.69c.207-.344.345-.724.448-1.103.793-3.931 2.586-6.724 3.483-8.07.241-1.62.655-3.206 1.207-4.758l.069-.241.103-.241c0-.035.035-.104.069-.207.414-1.207 1.345-4 3.724-6.966l.897-1.034.93-.828a21.1 21.1 0 0 1 8.208-4.62 22.3 22.3 0 0 1 5.241-.932h.414c.31 0 .62-.034.896-.034 1.104 0 2.207.103 3.31.276a3.75 3.75 0 0 0 2.035-.242 23.3 23.3 0 0 1 5.897-1.586c.172-.034.31-.034.448-.069.31-.034.828-.103 1.448-.172 1.07-.104 2.724-.242 4.483-.242 3.483 0 6.483.449 9.173 1.38l.24.069.208.069c5.93 2.24 8.93 5.379 11.103 8.103l.104.138.31.276c1.965 1.517 3.62 3.414 4.931 5.517l.414.655.345.69c2.896 5.896 1.965 11.38 1.62 13.414l-.034.103c-.242 1.517-.655 3-1.173 4.448a23.3 23.3 0 0 1-.965 4.07 23.7 23.7 0 0 1-3.345 6.586 23.5 23.5 0 0 1-2.828 3.31c-.379.345-.62.828-.69 1.345-.034.31-.103.62-.137.93-.862 4.553-2.828 7.725-3.655 9l-2.449 3.518c-2.965 3.69-6.482 6.103-10.724 7.414l-1.034.31-1.104.207a20.6 20.6 0 0 1-3.862.345h-1.069c-.482 0-.965.103-1.448.241-2.828.897-5.93 1.31-9.724 1.31Z" opacity=".8"/><path stroke="url(#ape_svg-e)" stroke-width="1.365" d="M26.345 65.614c-2.241 0-4.414-.138-6.207-.276l-.414-.034-.414-.069a68 68 0 0 0-.896-.103c-1.759-.173-4.655-.518-7.897-2.035l-.482-.241-.449-.242c-6.31-3.482-8.62-8.69-10-11.793-.103-.207-.207-.482-.345-.724-.655-1.31-1.069-2.552-1.413-3.655l-.07-.242-.068-.206c-.897-3.276-1.138-6.035-.724-8.759.413-2.69 1.448-5.207 3.24-7.828l1.346-2.172c.241-.38.414-.828.482-1.276.656-3.724 2.414-6.345 3.207-7.552l.104-.137.034-.07c0-.034.035-.068.035-.103.034-.172.103-.31.138-.448a22.4 22.4 0 0 1 1.103-4.483l.07-.207.068-.207c.035-.069.035-.138.104-.345.379-1.137 1.172-3.517 3.241-6.069l.759-.896.758-.69a18 18 0 0 1 7.104-4 19 19 0 0 1 4.62-.793h.345c.276 0 .517-.034.759-.034 1.138 0 2.241-.31 3.345-.104a4.2 4.2 0 0 0 2.517-.276c1.483-.655 3.483-.896 5.758-1.207.173-.034.31-.034.414-.068.31-.035.793-.104 1.345-.138 1-.104 2.552-.207 4.241-.207 3.173 0 5.862.413 8.242 1.207l.207.069.172.069c5.242 2 7.828 4.62 9.862 7.206.104.138.242.276.276.345l.035.035.379.345.034.069a17.8 17.8 0 0 1 4.38 4.862l.344.551.276.587c2.483 5.069 1.724 9.724 1.38 11.69l-.035.103a22.3 22.3 0 0 1-1.138 4.207 21 21 0 0 1-.896 3.862 22.1 22.1 0 0 1-2.966 5.827 20 20 0 0 1-3 3.38c-.517.482-.862 1.103-.93 1.827-.07.517-.139 1-.208 1.517a21.5 21.5 0 0 1-3.31 8.035l-2 2.896c-2.655 3.414-5.793 5.621-9.586 6.793l-.862.276-.931.173c-1.104.207-2.242.31-3.345.276H36.93c-.517.034-1.034.103-1.552.275-2.517.828-5.448 1.207-9.034 1.207Z" opacity=".8"/><path stroke="url(#ape_svg-f)" stroke-width="1.279" d="M26.345 62.752c-2.138 0-4.241-.138-6-.276L20 62.442l-.345-.035c-.31-.034-.655-.068-1-.103-1.655-.172-4.172-.448-7-1.793l-.379-.172-.345-.207c-5.414-3.035-7.414-7.518-8.724-10.483-.103-.242-.241-.552-.345-.793-.586-1.173-.965-2.276-1.276-3.31l-.069-.173-.034-.172c-.793-2.828-1-5.242-.655-7.518.345-2.31 1.276-4.483 2.862-6.793l.207-.276.207-.276c.138-.172.241-.344.379-.482l.793-1.483q.414-.724.517-1.552c.518-3.31 2.104-5.69 2.828-6.793a.7.7 0 0 1 .138-.172l.172-.242a4 4 0 0 0 .207-.517c.07-.207.173-.517.242-.793a19 19 0 0 1 1-4.138l.069-.172.068-.173c.035-.138.104-.241.173-.482.345-1.07 1-3.035 2.758-5.173l.587-.724.62-.552c1.725-1.586 3.794-2.724 6.035-3.414 1.31-.379 2.62-.62 4-.69h.931c1.172 0 2.31.139 3.448.449.966.241 2 .138 2.897-.31 1.448-.69 3.38-1.449 5.62-1.724.138-.035.276-.035.38-.07.276-.034.724-.103 1.276-.137a38 38 0 0 1 3.965-.207c2.828 0 5.207.345 7.31 1.069l.138.069.138.069c4.828 1.827 6.966 4.207 8.621 6.31.38.448.414.517.655.759l.31.275.104.138c.793.621 2.414 1.897 3.828 4.207l.276.449.24.448c2.104 4.241 1.45 8.103 1.139 9.965l-.035.104a16.3 16.3 0 0 1-1.138 3.965v.104A17.7 17.7 0 0 1 63 32.27a17.6 17.6 0 0 1-2.586 5.069 17.4 17.4 0 0 1-3.345 3.586c-.31.241-.552.551-.724.896a3.1 3.1 0 0 0-.31 1.104 17 17 0 0 1-.276 2.276c-.655 3.482-2.172 5.896-2.931 7.103l-1.552 2.276c-2.31 3.103-5.069 5.103-8.414 6.138l-.69.207-.758.138c-.931.172-1.897.241-2.862.241h-1.276l-.793.035c-.552.034-1.103.103-1.62.31-2.38.758-5.104 1.103-8.518 1.103Z" opacity=".8"/><path stroke="url(#ape_svg-g)" stroke-width="1.194" d="M26.345 59.89c-2.034 0-4.069-.138-5.759-.276l-.241-.034-.241-.035c-.345-.034-.724-.103-1.07-.138-1.551-.172-3.689-.413-6.103-1.517l-.276-.138-.275-.138c-4.587-2.586-6.276-6.379-7.518-9.138a9 9 0 0 1-.38-.862c-.516-1.069-.861-2.069-1.137-2.93l-.034-.139-.104-.103C1.862 39.683 2.38 36.339 5 32.51l.138-.207.138-.207c.172-.207.345-.448.517-.655.242-.31.483-.655.759-.966.172-.206.31-.448.414-.69l.31-.758a3.8 3.8 0 0 0 .241-1.034c.276-3.07 1.759-5.276 2.483-6.38.07-.069.138-.207.173-.241l.172-.276.069-.069c.103-.172.276-.586.414-1 .069-.276.207-.724.345-1.103v-.035c.137-1.276.448-2.552.896-3.758l.035-.104.034-.103c.07-.207.138-.38.207-.621.31-.931.828-2.517 2.241-4.276l.449-.552.448-.413c3.345-3.035 7.069-3.276 8.31-3.38h.724c1.483 0 2.932.31 4.31.897.242.103.518.138.76.138.275 0 .517-.07.758-.207 1.276-.724 3.586-2.07 6.552-2.414.138-.034.276-.034.379-.034.276-.035.69-.07 1.172-.138.897-.07 2.242-.173 3.69-.173 2.517 0 4.586.31 6.345.897l.103.034.104.035c4.138 1.551 5.896 3.517 7.38 5.38.379.516.585.723 1 1.137l.24.207.173.207.138.103c.69.552 2 1.552 3.172 3.448l.207.345.173.345c1.69 3.448 1.137 6.552.862 8.207v.104A16 16 0 0 1 61 27.752l-.034.104c0 .034 0 .034-.035.103-.034.104-.034.207-.034.31l-.035.138a12.7 12.7 0 0 1-.69 3c-.517 1.552-1.24 3-2.206 4.31-.931 1.346-2 2.45-3.173 3.311q-.775.57-1.241 1.448a3.9 3.9 0 0 0-.448 1.863c0 .793-.104 1.62-.242 2.413-.552 2.966-1.793 4.966-2.586 6.173l-1.138 1.69c-2 2.792-4.38 4.585-7.241 5.482l-.138.035c-.242.069-.483.138-.724.172l-.173.035q-1.19.206-2.38.206h-1.344c-.38 0-.862.035-1.276.035a5.7 5.7 0 0 0-1.69.345c-2.068.62-4.586.965-7.827.965Z" opacity=".8"/><path stroke="url(#ape_svg-h)" stroke-width="1.109" d="M26.345 57.028c-1.966 0-3.897-.138-5.552-.276h-.172l-.173-.034c-.379-.07-.793-.104-1.172-.138-1.448-.173-3.241-.345-5.172-1.276l-.207-.104-.173-.103c-3.758-2.103-5.172-5.276-6.276-7.828-.138-.31-.275-.62-.413-.965-.449-.897-.759-1.793-1-2.552L6 43.65l-.034-.104c-1.104-3.93-.724-6.413 1.413-9.517l.104-.138.103-.138c.173-.241.345-.448.518-.69.551-.723 1.103-1.448 1.896-2.31.172-.172.276-.448.31-.69l.035-.793-.035-.31v-.31c.07-2.552 1.345-4.448 2.035-5.483.069-.103.172-.241.207-.31l.103-.173.104-.138c.138-.207.448-.93.724-1.586.103-.276.241-.827.414-1.276.034-.138.034-.172.069-.482.103-1.07.379-2.138.724-3.138l.034-.07.035-.068c.103-.276.172-.483.276-.759.275-.828.69-2.034 1.758-3.38l.31-.379.31-.275C19.76 9.028 22.277 8.614 24 8.51h.518c1.448 0 3.206.69 4.137 1.138.207.103.449.172.69.172q.362 0 .724-.103a12 12 0 0 0 1.655-.724c1.173-.69 3.104-1.793 5.518-2.07.137-.034.24-.034.344-.034.242-.034.621-.069 1.104-.138.827-.069 2.069-.172 3.414-.172 2.172 0 3.965.241 5.413.758l.07.035.068.034c3.449 1.31 4.828 2.794 6.138 4.483.414.552.724.931 1.345 1.483l.138.138.138.138c.138.138.276.241.414.345.586.448 1.586 1.241 2.448 2.69l.138.206.103.242c1.276 2.586.862 5.034.621 6.482v.104c-.172 1-.448 1.965-.862 2.896a5 5 0 0 0-.241.759c-.035.172-.07.345-.07.483l-.034.138a12 12 0 0 1-.552 2.448 13.2 13.2 0 0 1-1.793 3.552c-1.172 1.655-2.517 2.827-4.138 3.586a2.23 2.23 0 0 0-.965.827c-.241.345-.38.794-.414 1.207v.414c.07 1.242.172 2.655-.103 4.138-.449 2.414-1.483 4.035-2.242 5.241 0 0-3.517 4.897-6.724 5.897l-.345.103-.379.07c-.62.103-1.241.172-1.897.172h-.655c-.138 0-.345 0-.655.034h-.138c-1.241.035-2.38.07-2.724.138a3 3 0 0 0-.517.138c-1.69.724-4.07 1.07-7.345 1.07Z" opacity=".8"/><path stroke="url(#ape_svg-i)" stroke-width="1.109" d="M26.345 54.2c-1.862 0-3.724-.137-5.31-.24h-.138c-.449-.07-.862-.104-1.242-.139-1.345-.138-2.758-.31-4.276-1l-.103-.034-.104-.035c-2.93-1.655-4.034-4.103-5.068-6.483-.138-.344-.31-.69-.483-1.034a13 13 0 0 1-.828-2.172v-.069c-.896-3.138-.655-4.724 1-7.138l.035-.07.034-.068c.207-.242.38-.483.552-.69.793-1.034 1.483-1.93 3.034-3.38a.83.83 0 0 0 .242-.413.67.67 0 0 0-.035-.448l-.276-.793a3 3 0 0 1-.103-.759v-.379c.069-1.724.966-3.07 1.552-3.966.103-.138.172-.276.241-.38l.069-.103.069-.103c.31-.414.828-1.62 1.103-2.345.07-.241.242-.827.414-1.276q.156-.518.207-1.034c.104-.862.276-1.724.586-2.517v-.069c.138-.345.242-.621.31-.897.242-.724.518-1.552 1.276-2.483l.138-.172.138-.138c1.656-1.517 3.483-1.793 4.862-1.897h.311c1.38 0 2.414.552 3.103.931l.173.07h.034c.207.103.345.206.517.275.414.207.931.276 1.38.138.965-.241 2.448-.827 3.413-1.38h.035c1.035-.62 2.62-1.516 4.483-1.723.103-.035.241-.035.345-.035.207-.034.586-.069 1-.103.758-.07 1.93-.173 3.138-.173 1.862 0 3.344.207 4.482.587h.069c2.759 1.034 3.793 2.137 4.897 3.586.448.586.896 1.138 1.724 1.862l.069.069.069.069q.31.31.724.62c.483.38 1.172.897 1.759 1.897l.069.104.069.103c.862 1.793.586 3.483.379 4.759v.103a9.4 9.4 0 0 1-.69 2.31c-.172.414-.31.862-.38 1.31a9 9 0 0 1-.103.656l-.034.138a9 9 0 0 1-.414 1.896c-.31 1-.793 1.931-1.414 2.793-1.034 1.518-2.206 2.449-3.758 2.932a3.27 3.27 0 0 0-1.793 1.379l-.138.172-.138.173c-.38.448-.276 2.172-.207 3.206.069 1.138.138 2.31-.07 3.414-.344 1.897-1.172 3.173-1.896 4.276 0 0-2.69 3.897-5.138 4.62l-.172.07-.172.034c-.449.07-.931.138-1.414.138h-.69c-.172 0-.414 0-.827.035h-.069c-1.621.069-2.621.103-3.173.207-.38.069-.724.172-1.069.31-1.482.586-3.482.896-6.38.896Z" opacity=".8"/></g></g><rect width="63" height="63" x=".5" y=".804" stroke="#070B14" stroke-opacity=".15" rx="31.5"/><defs><linearGradient id="ape_svg-d" x1="-4.481" x2="68.839" y1="-6.891" y2="70.063" gradientUnits="userSpaceOnUse"><stop offset=".206" stop-color="#89D0FF"/><stop offset=".398" stop-color="#EBBF9A"/><stop offset=".602" stop-color="#EB8280"/><stop offset=".841" stop-color="#A281FF"/></linearGradient><linearGradient id="ape_svg-e" x1="-1.638" x2="65.955" y1="-3.58" y2="67.653" gradientUnits="userSpaceOnUse"><stop offset=".206" stop-color="#89D0FF"/><stop offset=".398" stop-color="#EBBF9A"/><stop offset=".602" stop-color="#EB80DA"/><stop offset=".841" stop-color="#A281FF"/></linearGradient><linearGradient id="ape_svg-f" x1="1.234" x2="63.098" y1="-.717" y2="64.794" gradientUnits="userSpaceOnUse"><stop offset=".206" stop-color="#89D0FF"/><stop offset=".398" stop-color="#EBBF9A"/><stop offset=".602" stop-color="#EB8280"/><stop offset=".841" stop-color="#A281FF"/></linearGradient><linearGradient id="ape_svg-g" x1="4.101" x2="60.225" y1="2.156" y2="61.927" gradientUnits="userSpaceOnUse"><stop offset=".206" stop-color="#89D0FF"/><stop offset=".398" stop-color="#EBBF9A"/><stop offset=".602" stop-color="#EB80E7"/><stop offset=".841" stop-color="#A281FF"/></linearGradient><linearGradient id="ape_svg-h" x1="6.952" x2="57.346" y1="5.034" y2="59.061" gradientUnits="userSpaceOnUse"><stop offset=".206" stop-color="#89D0FF"/><stop offset=".398" stop-color="#EBBF9A"/><stop offset=".602" stop-color="#EB80D3"/><stop offset=".841" stop-color="#A281FF"/></linearGradient><linearGradient id="ape_svg-i" x1="9.84" x2="54.498" y1="7.878" y2="56.182" gradientUnits="userSpaceOnUse"><stop offset=".206" stop-color="#89D0FF"/><stop offset=".398" stop-color="#EBBF9A"/><stop offset=".602" stop-color="#A280EB"/><stop offset=".841" stop-color="#A281FF"/></linearGradient><radialGradient id="ape_svg-b" cx="0" cy="0" r="1" gradientTransform="rotate(90 -1.823 33.824)scale(35.9467)" gradientUnits="userSpaceOnUse"><stop offset=".167" stop-color="#073183"/><stop offset="1" stop-color="#0054F9"/></radialGradient><clipPath id="ape_svg-a"><rect width="64" height="64" y=".304" fill="#fff" rx="32"/></clipPath></defs></svg>