<svg xmlns="http://www.w3.org/2000/svg" width="40" height="40" fill="none" viewBox="0 0 40 40"><g clip-path="url(#apoon_svg-a)"><path fill="#D9D9D9" d="M20 0c11.046 0 20 8.954 20 20s-8.954 20-20 20S0 31.046 0 20 8.954 0 20 0"/><path fill="#000" d="M26 6a8 8 0 0 1 8 8v12a8 8 0 0 1-8 8H14a8 8 0 0 1-8-8V14a8 8 0 0 1 8-8z"/><g clip-path="url(#apoon_svg-b)"><path fill="#fff" d="M20.632 10c.175 0 .383.059.443.265.383 1.297.857 2.65 1.298 3.946l4.045 11.842c.856 2.533 1.24 2.974 2.51 3.122l.796.088c.207.148.148.618 0 .737a68 68 0 0 0-3.572-.089c-1.417 0-2.538.059-3.394.088-.238-.117-.266-.589-.06-.735l.857-.089c.619-.059 1.032-.236 1.032-.53 0-.324-.147-.856-.384-1.563l-1.297-4.005c-.206-.647-.326-.736-1.211-.736h-4.458c-.737 0-.914.089-1.121.708L15.08 26.14c-.442 1.326-.649 2.122-.649 2.447 0 .352.148.53.857.588l.974.088c.207.148.207.618-.059.737-.768-.06-1.683-.06-3.07-.089-.975 0-2.037.059-2.834.088-.177-.117-.237-.589-.06-.735l.975-.089c.709-.059 1.358-.384 1.771-1.444.532-1.355 1.358-3.269 2.597-6.568l3.011-7.953c.414-1.06.592-1.619.503-2.09.708-.207 1.21-.738 1.535-1.12m-1.002 3.594c-.09.147-.384.854-.709 1.738h-.002l-1.86 5.124c-.237.678-.207.707.62.707h3.634c.855 0 .915-.117.649-.912l-1.594-4.803c-.236-.706-.502-1.501-.68-1.854z"/></g></g><defs><clipPath id="apoon_svg-a"><path fill="#fff" d="M0 0h40v40H0z"/></clipPath><clipPath id="apoon_svg-b"><path fill="#fff" d="M10 10h20v20H10z"/></clipPath></defs></svg>