<?xml version="1.0" encoding="utf-8"?>
<!DOCTYPE svg PUBLIC "-//W3C//DTD SVG 1.1//EN" "http://www.w3.org/Graphics/SVG/1.1/DTD/svg11.dtd">
<svg version="1.1" xmlns="http://www.w3.org/2000/svg" width="128px" height="128px" viewBox="0 0 128 128" preserveAspectRatio="xMidYMid meet">
 <g fill="#e77c9e">
  <path d="M15.63 119.89 l0 -8.11 0.29 -0.08 c0.15 -0.04 3.75 -0.08 8 -0.08 l7.71 0 0 -7.64 0 -7.63 -7.96 0.01 c-4.39 0.01 -11.50 0.01 -15.81 0.01 l-7.85 -0.01 0 -48.19 0 -48.19 8.19 0 8.19 0 0 7.81 0 7.81 7.63 0 7.63 0 0 -7.81 0 -7.81 8.38 0 8.38 0 0 7.81 0 7.81 15.63 0 15.63 0 0 -7.81 0 -7.81 8.38 0 8.38 0 0 7.81 0 7.81 7.63 0 7.63 0 0 -7.81 0 -7.81 8.19 0 8.19 0 0 48.19 0 48.19 -15.81 0 -15.81 0 0 7.63 0 7.63 8 0 8 0 0 8.19 0 8.19 -48.38 0 -48.38 0 0 -8.11z m32 -32.06 l0 -7.80 0.29 -0.06 c0.15 -0.04 7.51 -0.11 16.38 -0.16 l16.09 -0.09 0 7.95 0 7.96 7.63 0 7.63 0 0 -15.63 0 -15.63 -8 0 -8 0 0.03 -8.27 0.04 -8.29 1.19 -0.08 c0.65 -0.05 7.84 -0.09 15.98 -0.10 l14.77 -0.01 0 -7.63 0 -7.63 -47.63 0 -47.63 0 0 7.63 0 7.63 16 0 16 0 0 8.38 0 8.38 -8 0 -8 0 0 15.63 0 15.63 7.63 0 7.63 0 0 -7.80z"/>
 </g>
 <g fill="#2f11e6">
  <path d="M0 119.81 l0 -8.19 7.79 -0.03 7.78 -0.04 0.04 -7.79 c0.03 -7.32 0.04 -7.79 0.25 -7.76 0.11 0.01 3.80 0.01 8.19 0 l7.96 -0.01 0 -16 0 -16 8 0 8 0 0 -8 0 -8 -0.26 0 c-0.24 0 -0.26 -0.05 -0.19 -0.39 0.04 -0.21 0.08 -3.81 0.08 -8 l0 -7.61 16.38 0 16.38 0 0 7.68 c0 4.21 0.04 7.84 0.08 8.04 0.06 0.31 0.03 0.39 -0.19 0.45 l-0.26 0.06 0 7.89 0 7.89 8 0 8 0 0 16 0 16 8.19 0 8.19 0 0 7.75 0 7.75 7.81 0 7.81 0 0 8.25 0 8.25 -8 0 -8 0 0 -8 0 -8 -8 0 -8 0 0 -8 0 -8 -8 0 -8 0 0 -7.96 0 -7.95 -15.71 0.09 c-8.65 0.05 -15.85 0.13 -16 0.16 l-0.29 0.06 0 7.80 0 7.80 -8 0 -8 0 0 8 0 8 -7.71 0 c-4.25 0 -7.85 0.04 -8 0.08 l-0.29 0.08 0 7.93 0 7.93 -8 0 -8 0 0 -8.19z"/>
  <path d="M16 40 l0 -8 8.19 0 8.19 0 0 8 0 8 -8.19 0 -8.19 0 0 -8z"/>
  <path d="M95.63 40 l0 -8 8.19 0 8.19 0 0 8 0 8 -8.19 0 -8.19 0 0 -8z"/>
  <path d="M16 8 l0 -8 8 0 8 0 0 8 0 8 -8 0 -8 0 0 -8z"/>
  <path d="M48 8 l0 -8 16 0 16 0 0 8 0 8 -16 0 -16 0 0 -8z"/>
  <path d="M96 8 l0 -8 8 0 8 0 0 8 0 8 -8 0 -8 0 0 -8z"/>
 </g>
 <g fill="#0cb837">
  <path d="M0 104 l0 -8 8 0 8 0 -0.03 7.97 -0.04 7.96 -7.96 0.04 -7.97 0.03 0 -8z"/>
  <path d="M119.85 111.91 l-7.85 -0.04 0 -7.94 0 -7.94 8 0 8 0 0 8 c0 6.34 -0.04 7.99 -0.15 7.97 -0.09 -0.03 -3.69 -0.05 -8 -0.06z"/>
  <path d="M80.10 48.06 c-0.06 -0.06 -0.10 -3.70 -0.10 -8.09 l0 -7.97 8 0 8 0 0 8 0 8 -6.41 0 c-3.54 0 -7.09 0.04 -7.91 0.08 -0.81 0.05 -1.52 0.04 -1.58 -0.01z"/>
  <path d="M32 40 l0 -8 8 0 8 0 -0.03 7.97 -0.04 7.96 -7.96 0.04 -7.97 0.03 0 -8z"/>
 </g>
</svg>