<svg xmlns="http://www.w3.org/2000/svg" width="200" height="200" version="1.0" viewBox="0 0 200 200"><path fill="#2863f0" d="M83.42 136.75c-23.93-4.27-43.93-15.38-54.02-30.09l-5.81-8.38 5.13-.51c2.91-.34 7.01.51 9.23 1.88 4.27 2.74 15.38 6.32 30.26 9.74 6.67 1.54 10.77 1.71 15.38.34 3.42-1.03 14.7-3.76 24.96-6.32 10.43-2.39 23.08-5.64 28.21-7.01 20.51-5.81 32.82-17.09 33.16-30.6.17-5.47.68-7.01 2.22-5.81 2.74 2.39 7.35 16.58 7.35 22.91 0 21.71-21.88 43.42-51.45 51.45-11.79 3.08-34.36 4.27-44.62 2.39z"/><path fill="#4186f2" d="M66.32 115.38c-.68-.68-3.59-1.54-6.84-1.88-15.73-1.71-32.99-9.91-35.9-16.92-3.59-8.38-2.56-22.91 2.05-31.62l4.1-7.69 1.03 8.89c1.71 15.73 12.82 25.13 36.58 31.28 14.53 3.59 45.13 4.62 58.29 1.88 3.76-.85 9.57-2.05 12.82-2.56l5.98-1.03-5.64 1.71c-3.08 1.03-5.13 2.56-4.62 3.42.51.85-1.2 2.05-3.76 2.74-2.56.68-9.23 2.56-14.53 4.27-5.47 1.88-10.94 3.25-12.48 3.25-1.37 0-2.56.51-2.56 1.37 0 .68-2.56 1.37-5.47 1.54-3.08.34-10.6.85-16.75 1.54-6.15.51-11.62.34-12.31-.17z"/></svg>