<svg xmlns="http://www.w3.org/2000/svg" width="410" height="410" fill="none" viewBox="0 0 410 410"><g clip-path="url(#argt_svg-a)"><rect width="410" height="410" fill="#000" rx="205"/><rect width="410" height="410" fill="#000" rx="205"/><path fill="#74ACDF" d="M136 28C41.6 62.8 16 153.5 15 194.5c70.8 4.4 129.833 46.5 150.5 67-17.2-99.6 19.167-160.833 39.5-179-13.2-23.6-51.5-46.167-69-54.5"/><path fill="#74ACDF" d="M273.5 28c94.4 34.8 120 125.5 121 166.5-70.8 4.4-129.833 46.5-150.5 67 17.2-99.6-19.167-160.833-39.5-179 13.2-23.6 51.5-46.167 69-54.5"/><path fill="#fff" d="M139.5 26 205 81l65.5-55c-53.2-22-109.5-9.166-131 0"/><path fill="#74ACDF" d="m201 340-64 42 64 15zm8.5 0 64 42-64 15z"/><path fill="#F6B40E" d="M204.499 83.5c-32.333 34.167-77.6 132.6 0 253 33-45.333 79.2-159.4 0-253"/><path fill="#fff" d="M141.121 382.5c-104-36.8-126-138.667-124-185 110.4-3.6 171 91.5 187.5 139.5zm128.379 0c104-36.8 126-138.667 124-185C283.1 193.9 222.5 289 206 337z"/><g clip-path="url(#argt_svg-b)"><mask id="argt_svg-c" width="364" height="364" x="23" y="23" maskUnits="userSpaceOnUse" style="mask-type:luminance"><path fill="#fff" d="M386.815 205c0-100.415-81.403-181.818-181.818-181.818S23.178 104.585 23.178 205s81.403 181.819 181.819 181.819S386.815 305.416 386.815 205"/></mask><g stroke="#000" stroke-width="18.182" mask="url(#argt_svg-c)"><path d="M350.451 395.908c105.436 0 190.909-85.472 190.909-190.909S455.887 14.09 350.451 14.09 159.542 99.563 159.542 205s85.473 190.909 190.909 190.909Z"/><path d="M59.542 395.908c-105.436 0-190.909-85.472-190.909-190.909S-45.894 14.09 59.543 14.09 250.45 99.563 250.45 205 164.978 395.909 59.541 395.909Z"/><path d="M395.906 577.727c105.436 0 190.909-85.473 190.909-190.91s-85.473-190.909-190.909-190.909c-105.437 0-190.909 85.473-190.909 190.909 0 105.437 85.472 190.91 190.909 190.91Zm-381.818 0c-105.437 0-190.91-85.473-190.91-190.91s85.473-190.909 190.91-190.909 190.909 85.473 190.909 190.909c0 105.437-85.473 190.91-190.91 190.91Z"/></g><path stroke="#000" stroke-width="18.182" d="M395.909 205c0-105.436-85.473-190.91-190.909-190.91S14.09 99.565 14.09 205 99.565 395.909 205 395.909 395.909 310.436 395.909 205Z"/></g></g><defs><clipPath id="argt_svg-a"><rect width="410" height="410" fill="#fff" rx="205"/></clipPath><clipPath id="argt_svg-b"><path fill="#fff" d="M5 5h400v400H5z"/></clipPath></defs></svg>