<svg xmlns="http://www.w3.org/2000/svg" width="40" height="40" fill="none" viewBox="0 0 40 40"><g clip-path="url(#armon_svg-a)"><path fill="#CCE9F2" d="M20 0c11.046 0 20 8.954 20 20s-8.954 20-20 20S0 31.046 0 20 8.954 0 20 0"/><path fill="#0091BD" d="M26 6a8 8 0 0 1 8 8v12a8 8 0 0 1-8 8H14a8 8 0 0 1-8-8V14a8 8 0 0 1 8-8z"/><g clip-path="url(#armon_svg-b)"><path fill="#fff" d="M14.516 17.112h1.345v5.759h-1.345v-.6c-.592.685-1.311.777-1.725.777-1.776 0-2.791-1.48-2.791-3.06 0-1.878 1.285-3.028 2.808-3.028.423 0 1.167.11 1.708.82zm-3.138 2.909c0 .998.626 1.835 1.598 1.835.846 0 1.633-.617 1.633-1.818 0-1.26-.778-1.86-1.633-1.86-.972-.009-1.598.811-1.598 1.843m6.081-2.908h1.344v.515c.161-.188.35-.35.558-.482.262-.153.516-.194.82-.194.33 0 .685.05 1.058.27l-.55 1.218a1.2 1.2 0 0 0-.685-.203c-.288 0-.575.041-.838.313-.371.398-.371.947-.371 1.328v2.985H17.45zm4.633 0h1.345v.532c.449-.55.981-.685 1.421-.685.6 0 1.167.287 1.488.846.483-.685 1.201-.846 1.709-.846.701 0 1.31.33 1.64.905.11.194.305.617.305 1.454v3.56h-1.345v-3.17c0-.643-.067-.906-.127-1.024-.084-.22-.287-.508-.769-.508a.99.99 0 0 0-.795.424c-.237.329-.262.82-.262 1.31v2.968h-1.344v-3.17c0-.643-.067-.906-.127-1.024-.085-.22-.287-.508-.77-.508a1 1 0 0 0-.794.424c-.237.329-.262.82-.262 1.31v2.968h-1.311z"/></g></g><defs><clipPath id="armon_svg-a"><path fill="#fff" d="M0 0h40v40H0z"/></clipPath><clipPath id="armon_svg-b"><path fill="#fff" d="M10 10h20v20H10z"/></clipPath></defs></svg>