<svg xmlns="http://www.w3.org/2000/svg" fill="none" viewBox="0 0 258 175"><g fill="#2C2236" clip-path="url(#asd_svg-a)"><path d="M247.29 2.264c-6.445-2.613-13.739-1.18-18.657 3.71l-64.028 63.644v34.561l68.607-68.112v113.548H119.235l-13.145-21.158-45.88 45.604h180.55c9.413 0 17.045-7.587 17.045-16.943V18.028c0-6.912-4.155-13.066-10.515-15.764"/><path d="m59.448 149.615 75.561-75.108v70.135h24.593v-88.26a16.91 16.91 0 0 0-10.516-15.678c-6.445-2.614-13.738-1.18-18.657 3.709L0 174.06h53.003l24.593-24.446z"/></g><defs><clipPath id="asd_svg-a"><path fill="#fff" d="M0 0h258v175H0z"/></clipPath></defs></svg>