<svg xmlns="http://www.w3.org/2000/svg" xml:space="preserve" viewBox="0 0 300 300"><path fill="#FEFEFE" d="M127 1c15.354 0 30.708 0 46.23.358.834.78 1.449 1.416 2.174 1.59 7.026 1.687 14.21 2.854 21.085 5.008 27.762 8.696 51.004 24.22 69.671 46.641 16.183 19.437 27.199 41.265 31.94 66.201.413 2.173 1.908 4.14 2.9 6.202 0 15.354 0 30.708-.358 46.23-.78.834-1.415 1.449-1.59 2.174-1.687 7.026-2.854 14.21-5.008 21.085-8.696 27.762-24.22 51.004-46.641 69.671-19.437 16.183-41.265 27.199-66.201 31.94-2.173.413-4.14 1.908-6.202 2.9-15.354 0-30.708 0-46.23-.358-.834-.78-1.449-1.415-2.174-1.59-7.026-1.687-14.21-2.854-21.085-5.008-27.762-8.696-51.004-24.22-69.671-46.641-16.183-19.437-27.2-41.265-31.94-66.201-.413-2.173-1.908-4.14-2.9-6.202 0-15.354 0-30.708.358-46.23.78-.834 1.416-1.449 1.59-2.174 1.687-7.026 2.854-14.21 5.008-21.085 8.696-27.762 24.22-51.004 46.641-69.671C74.034 19.657 95.862 8.64 120.798 3.9c2.173-.413 4.14-1.908 6.202-2.9m128.53 91.004c-21.715-36.563-53.84-57.464-96.094-60.642C83.936 25.684 22.87 90.608 31.93 165.797c8.356 69.35 75.593 117.437 143.533 102.653 79.648-17.33 119.027-103.403 80.068-176.446"/><path d="M126.531 1c-1.593.992-3.56 2.487-5.733 2.9-24.936 4.741-46.764 15.757-66.2 31.94-22.421 18.667-37.946 41.91-46.642 69.67-2.154 6.877-3.32 14.06-5.008 21.086-.174.725-.81 1.34-1.59 1.705C1 85.74 1 43.48 1 1zM301 126.531c-.992-1.593-2.487-3.56-2.9-5.733-4.741-24.936-15.757-46.764-31.94-66.2-18.667-22.421-41.91-37.946-69.67-46.642-6.877-2.154-14.06-3.32-21.086-5.008-.725-.174-1.34-.81-1.705-1.59C216.26 1 258.52 1 301 1zM175.469 301c1.593-.992 3.56-2.487 5.733-2.9 24.936-4.741 46.764-15.757 66.2-31.94 22.421-18.667 37.946-41.91 46.642-69.67 2.154-6.877 3.32-14.06 5.008-21.086.175-.725.81-1.34 1.59-1.705C301 216.26 301 258.52 301 301zM1 175.469c.992 1.593 2.487 3.56 2.9 5.733 4.741 24.936 15.757 46.764 31.94 66.2 18.667 22.421 41.91 37.946 69.67 46.642 6.877 2.154 14.06 3.32 21.086 5.008.725.175 1.34.81 1.705 1.59C85.74 301 43.48 301 1 301z"/><path fill="#1C1C1B" d="M255.712 92.326c38.777 72.72-.602 158.794-80.25 176.124-67.94 14.784-135.177-33.304-143.533-102.653C22.87 90.607 83.937 25.684 159.436 31.362c42.255 3.178 74.379 24.079 96.276 60.964M137.139 122.64l12.265-55.739c-4.182.393-7.64.482-11.012 1.072-27.518 4.819-48.365 19.018-62.017 44.42-7.809 15.2-10.713 31.231-8.791 48.143 9.113 0 17.685.844 26.033-.166 20.974-2.538 38.938-18.453 43.522-37.73m94.937 6.587c-9.826-37.494-44.447-60.876-74.347-61.421-3.203 15.321-6.43 30.757-10.045 46.871-.649 3.091-1.453 6.159-1.92 9.277-2.692 17.968 10.309 35.64 28.426 36.622 19.086 1.035 38.268.372 57.407.257 1.05-.007 3.05-1.861 2.988-2.74-.672-9.378-1.67-18.733-2.51-28.866m-34.575 40.03c-9.965.376-20.144-.42-29.853 1.355-26.274 4.808-44.98 30.55-44.29 59.392 51.101 18.95 101.852-17.796 109.04-60.748zm-87.966 54.818 5.513 2.764c1.52-8.593 3.628-16.36 4.125-24.23.883-13.988-7.969-26.604-21.03-31.301-9.321-3.352-18.941-1.771-29.21-1.99 6.07 24.179 19.336 41.967 40.602 54.757"/><path fill="#F8CFA1" d="M198 169.257h34.396c-7.187 42.952-57.938 79.697-109.04 60.748-.689-28.842 18.017-54.584 44.291-59.392 9.709-1.776 19.888-.979 30.353-1.356"/><path fill="#F5D1A8" d="M232.005 130c.91 9.361 1.908 18.716 2.58 28.095.063.878-1.938 2.732-2.988 2.739-19.14.115-38.32.778-57.407-.257-18.117-.982-31.118-18.654-28.426-36.622.467-3.118 1.271-6.186 2.508-9.608 8.852 1.033 17.155 2.199 25.371 3.808 13.532 2.651 27.002 5.616 40.51 8.394 5.936 1.22 11.9 2.305 17.852 3.451"/><path fill="#F3D2AC" d="M232.04 129.614c-5.986-.76-11.951-1.844-17.888-3.065-13.507-2.778-26.977-5.743-40.509-8.394-8.216-1.61-16.519-2.775-25.177-4.148 2.833-15.443 6.06-30.879 9.263-46.2 29.9.545 64.521 23.927 74.312 61.807"/><path fill="#F3D2AB" d="M76.925 111.978c13.102-24.986 33.95-39.185 61.467-44.004 3.372-.59 6.83-.679 11.012-1.072-4.207 19.12-8.236 37.43-12.967 55.976-3.342.12-6.05.347-8.607-.171-8.64-1.75-17.212-3.829-25.836-5.658-8.34-1.77-16.711-3.387-25.069-5.07"/><path fill="#F5D0A6" d="M76.65 112.186a647 647 0 0 1 25.344 4.863c8.624 1.83 17.197 3.908 25.836 5.658 2.558.518 5.265.292 8.403.474-3.678 18.737-21.642 34.652-42.616 37.19-8.348 1.01-16.92.166-26.033.166-1.922-16.912.982-32.942 9.066-48.351"/><path fill="#F7CE9F" d="M109.208 223.896c-20.94-12.61-34.206-30.4-40.276-54.578 10.269.219 19.889-1.362 29.21 1.99 13.061 4.697 21.913 17.313 21.03 31.301-.497 7.87-2.605 15.637-4.125 24.23a941 941 0 0 1-5.839-2.943"/></svg>