<svg xmlns="http://www.w3.org/2000/svg" width="64" height="65" fill="none" viewBox="0 0 64 65"><g clip-path="url(#atom_svg-a)"><rect width="64" height="64" y=".304" fill="#fff" rx="32"/><path fill="#2E3148" d="M32 64.304c17.673 0 32-14.327 32-32s-14.327-32-32-32-32 14.327-32 32 14.327 32 32 32"/><path fill="#1B1E36" d="M32 50.872c10.255 0 18.568-8.313 18.568-18.568S42.255 13.736 32 13.736s-18.568 8.313-18.568 18.568S21.745 50.872 32 50.872"/><path fill="#6F7390" d="M32.066 4.386c-3.454 0-6.255 12.529-6.255 27.984s2.8 27.983 6.255 27.983S38.32 47.825 38.32 32.37s-2.8-27.984-6.254-27.984m.432 54.388c-.395.527-.79.132-.79.132-1.591-1.843-2.386-5.268-2.386-5.268-2.783-8.954-2.12-28.18-2.12-28.18 1.307-15.264 3.686-18.87 4.495-19.67a.494.494 0 0 1 .634-.052c1.174.832 2.16 4.313 2.16 4.313 2.908 10.798 2.645 20.938 2.645 20.938.263 8.823-1.458 18.7-1.458 18.7-1.325 7.506-3.18 9.087-3.18 9.087"/><path fill="#6F7390" d="M56.338 18.444c-1.72-2.998-13.98.808-27.392 8.499-13.412 7.69-22.872 16.355-21.154 19.351 1.719 2.996 13.98-.808 27.392-8.499 13.412-7.69 22.873-16.355 21.154-19.351m-46.96 27.44c-.658-.084-.509-.625-.509-.625.808-2.297 3.378-4.69 3.378-4.69 6.385-6.87 23.393-15.864 23.393-15.864 13.89-6.462 18.203-6.189 19.298-5.888a.494.494 0 0 1 .358.527c-.132 1.434-2.667 4.02-2.667 4.02-7.913 7.9-16.84 12.718-16.84 12.718-7.522 4.62-16.946 8.04-16.946 8.04-7.17 2.584-9.464 1.761-9.464 1.761"/><path fill="#6F7390" d="M56.278 46.394c1.733-2.99-7.704-11.694-21.07-19.442C21.845 19.203 9.586 15.35 7.855 18.345c-1.732 2.994 7.704 11.694 21.076 19.442 13.373 7.749 25.616 11.602 27.348 8.607M9.002 19.5c-.256-.607.285-.753.285-.753 2.392-.452 5.753.578 5.753.578 9.143 2.082 25.446 12.294 25.446 12.294 12.553 8.784 14.478 12.653 14.767 13.75a.494.494 0 0 1-.275.575c-1.308.6-4.814-.294-4.814-.294-10.805-2.897-19.446-8.205-19.446-8.205-7.765-4.188-15.442-10.631-15.442-10.631-5.834-4.912-6.272-7.308-6.272-7.308z"/><path fill="#B7B9C8" d="M32 35.596a3.292 3.292 0 1 0 0-6.584 3.292 3.292 0 0 0 0 6.584m13.498-13.959c1.054 0 1.91-.884 1.91-1.975s-.856-1.976-1.91-1.976c-1.055 0-1.91.885-1.91 1.976s.855 1.975 1.91 1.975m-31.342 6.716c1.055 0 1.91-.884 1.91-1.975s-.855-1.976-1.91-1.976-1.91.885-1.91 1.976.856 1.975 1.91 1.975m13.959 24.231c1.055 0 1.91-.885 1.91-1.976s-.855-1.975-1.91-1.975-1.91.884-1.91 1.975.856 1.976 1.91 1.976"/></g><rect width="63" height="63" x=".5" y=".804" stroke="#070B14" stroke-opacity=".15" rx="31.5"/><defs><clipPath id="atom_svg-a"><rect width="64" height="64" y=".304" fill="#fff" rx="32"/></clipPath></defs></svg>