<?xml version="1.0" encoding="UTF-8"?>
<svg version="1.1" xmlns="http://www.w3.org/2000/svg" width="200" height="200">
<path d="M0 0 C6.22998018 5.38393349 11.43621009 11.32183927 16.40625 17.875 C16.95023438 18.58011719 17.49421875 19.28523438 18.0546875 20.01171875 C32.23195689 39.70237068 37.15687485 66.57139396 33.875 90.31640625 C29.43364308 117.29341893 15.57498164 141.39133571 -6.71875 157.5 C-29.85142545 173.13667359 -57.5001079 179.9328978 -85.21875 174.625 C-113.0611132 168.49120019 -135.50608606 152.77337957 -151.11328125 128.8984375 C-164.5242894 107.61673968 -168.99224245 81.41495173 -164.34375 56.75 C-163.79806677 54.44907764 -163.21732567 52.15604521 -162.59375 49.875 C-162.32691406 48.87855469 -162.06007812 47.88210937 -161.78515625 46.85546875 C-153.84886218 20.50697242 -135.97880201 -0.29319749 -111.89111328 -13.3449707 C-75.09689548 -32.43904265 -31.68358275 -25.95763406 0 0 Z " fill="#FEFEFE" transform="translate(165.59375,24.125)"/>
<path d="M0 0 C6.22998018 5.38393349 11.43621009 11.32183927 16.40625 17.875 C16.95023438 18.58011719 17.49421875 19.28523438 18.0546875 20.01171875 C32.23195689 39.70237068 37.15687485 66.57139396 33.875 90.31640625 C29.43364308 117.29341893 15.57498164 141.39133571 -6.71875 157.5 C-29.85142545 173.13667359 -57.5001079 179.9328978 -85.21875 174.625 C-113.0611132 168.49120019 -135.50608606 152.77337957 -151.11328125 128.8984375 C-164.5242894 107.61673968 -168.99224245 81.41495173 -164.34375 56.75 C-163.79806677 54.44907764 -163.21732567 52.15604521 -162.59375 49.875 C-162.32691406 48.87855469 -162.06007812 47.88210937 -161.78515625 46.85546875 C-153.84886218 20.50697242 -135.97880201 -0.29319749 -111.89111328 -13.3449707 C-75.09689548 -32.43904265 -31.68358275 -25.95763406 0 0 Z M-130.59375 12.875 C-131.40972656 13.69097656 -132.22570312 14.50695312 -133.06640625 15.34765625 C-149.69284965 32.88670032 -156.61979917 55.04522029 -156.59375 78.875 C-155.98950654 100.0573589 -148.05121733 118.65057677 -134.59375 134.875 C-134.12453125 135.47828125 -133.6553125 136.0815625 -133.171875 136.703125 C-126.55734526 144.95270704 -117.77587146 150.81546369 -108.59375 155.875 C-107.80355469 156.31714844 -107.01335937 156.75929687 -106.19921875 157.21484375 C-85.60945287 168.15835421 -61.41293384 169.38935856 -39.21875 163.04296875 C-34.10351477 161.39484878 -29.35437855 159.35781585 -24.59375 156.875 C-23.81644531 156.48441406 -23.03914062 156.09382812 -22.23828125 155.69140625 C-0.40323058 144.22894419 14.28964993 124.23714221 21.65625 101.0625 C28.57223468 78.24541941 25.0815402 53.06992074 14 32.23046875 C0.77581097 9.33433296 -18.49346652 -4.73311283 -43.55078125 -12.328125 C-75.1561738 -20.60476182 -107.98888036 -9.72986964 -130.59375 12.875 Z " fill="#689FD3" transform="translate(165.59375,24.125)"/>
<path d="M0 0 C0.66 0 1.32 0 2 0 C2.34144043 0.68811768 2.68288086 1.37623535 3.03466797 2.08520508 C4.64580068 5.32879035 6.26040399 8.57063738 7.875 11.8125 C8.41125 12.89337891 8.9475 13.97425781 9.5 15.08789062 C13.26219383 22.63415151 17.14685933 30.10818577 21.08706665 37.5629425 C25.89216234 46.66567268 30.5704842 55.83227414 35.25 65 C42.77080413 79.72648979 42.77080413 79.72648979 50.3671875 94.4140625 C50.69444824 95.04286316 51.02170898 95.67166382 51.35888672 96.31951904 C52.84378554 99.17078628 54.33221251 102.0201439 55.82519531 104.8671875 C56.33920898 105.85203125 56.85322266 106.836875 57.3828125 107.8515625 C57.81996582 108.68510254 58.25711914 109.51864258 58.70751953 110.37744141 C60.26012483 113.52781658 61.61648235 116.77179216 63 120 C53.76 120 44.52 120 35 120 C33.185 116.57625 31.37 113.1525 29.5 109.625 C28.92572266 108.54686035 28.35144531 107.4687207 27.75976562 106.35791016 C27.31310547 105.51019043 26.86644531 104.6624707 26.40625 103.7890625 C25.94541016 102.91975098 25.48457031 102.05043945 25.00976562 101.15478516 C24 99 24 99 24 97 C19.71 97 15.42 97 11 97 C9.49480613 94.37785672 7.99568681 91.75255792 6.5 89.125 C6.07074219 88.37863281 5.64148438 87.63226563 5.19921875 86.86328125 C4.79316406 86.14785156 4.38710937 85.43242188 3.96875 84.6953125 C3.40317383 83.7055542 3.40317383 83.7055542 2.82617188 82.69580078 C2 81 2 81 2 79 C5.96 79 9.92 79 14 79 C13.49662109 78.02353516 12.99324219 77.04707031 12.47460938 76.04101562 C10.56510447 72.33627722 8.656892 68.63087429 6.74902344 64.92529297 C5.93100363 63.3369019 5.11265662 61.74867929 4.29394531 60.16064453 C2.30558096 56.30360852 0.3229298 52.44387852 -1.6484375 48.578125 C-3.20537349 45.52907134 -4.79622956 42.50152154 -6.4140625 39.484375 C-7.16157597 38.06256184 -7.90897698 36.64068955 -8.65625 35.21875 C-9.00949341 34.57740112 -9.36273682 33.93605225 -9.72668457 33.27526855 C-11.90793068 29.07310057 -12.36055274 26.5372227 -11 22 C-9.87670898 19.29931641 -9.87670898 19.29931641 -8.49609375 16.6015625 C-8.00302734 15.62832031 -7.50996094 14.65507813 -7.00195312 13.65234375 C-6.48568359 12.65332031 -5.96941406 11.65429688 -5.4375 10.625 C-4.91736328 9.60277344 -4.39722656 8.58054687 -3.86132812 7.52734375 C-2.58139526 5.01444804 -1.29412869 2.50560608 0 0 Z " fill="#000000" transform="translate(99,28)"/>
<path d="M0 0 C3.30951996 4.23827615 5.69146694 8.81612044 8.1875 13.5625 C8.65091797 14.42552734 9.11433594 15.28855469 9.59179688 16.17773438 C10.02943359 17.00724609 10.46707031 17.83675781 10.91796875 18.69140625 C11.31781982 19.44623291 11.7176709 20.20105957 12.12963867 20.97875977 C13 23 13 23 13 26 C9.7 26.33 6.4 26.66 3 27 C4.2684375 29.0728125 4.2684375 29.0728125 5.5625 31.1875 C8.08220046 35.30505929 8.08220046 35.30505929 7.72802734 38.29931641 C6.91375488 41.31993412 5.75021448 43.87147697 4.34765625 46.66796875 C3.81849609 47.72564453 3.28933594 48.78332031 2.74414062 49.87304688 C2.18919922 50.96681641 1.63425781 52.06058594 1.0625 53.1875 C0.51142578 54.29287109 -0.03964844 55.39824219 -0.60742188 56.53710938 C-4.73287408 64.73287408 -4.73287408 64.73287408 -7 67 C-9.70556641 67.22705078 -9.70556641 67.22705078 -13.1015625 67.1953125 C-14.31328125 67.18886719 -15.525 67.18242187 -16.7734375 67.17578125 C-18.04445313 67.15902344 -19.31546875 67.14226562 -20.625 67.125 C-22.543125 67.11146484 -22.543125 67.11146484 -24.5 67.09765625 C-27.66685167 67.07402303 -30.83333424 67.04107629 -34 67 C-32.84776199 63.36178241 -31.60579872 59.98145429 -29.8125 56.61328125 C-29.3695459 55.7737793 -28.9265918 54.93427734 -28.47021484 54.06933594 C-27.98504395 53.15958008 -27.49987305 52.24982422 -27 51.3125 C-25.92844015 49.28321025 -24.85822125 47.25321207 -23.7890625 45.22265625 C-22.89815918 43.53100342 -22.89815918 43.53100342 -21.98925781 41.80517578 C-19.72475766 37.48627635 -17.498262 33.14803139 -15.2734375 28.80859375 C-14.66668182 27.62545341 -14.66668182 27.62545341 -14.04766846 26.41841125 C-12.41710855 23.23762748 -10.78732528 20.05645182 -9.16015625 16.87393188 C-8.01196697 14.62869834 -6.86160972 12.3845868 -5.7109375 10.140625 C-5.36557953 9.46345932 -5.02022156 8.78629364 -4.66439819 8.08860779 C-3.22323619 5.28124332 -1.7529846 2.62947689 0 0 Z " fill="#000000" transform="translate(72,81)"/>
</svg>
