<svg xmlns="http://www.w3.org/2000/svg" width="64pt" height="64pt" viewBox="0 0 64 64"><path d="M12.223 10.98h39.515v35.915H12.223Zm0 0" style="stroke:none;fill-rule:nonzero;fill:#fff;fill-opacity:1"/><path d="M63.98 32c0 17.648-14.32 31.957-31.98 31.957S.02 49.648.02 32 14.34.043 32 .043 63.98 14.352 63.98 32M22.938 44.719H16.73c-1.3 0-1.945 0-2.34-.254a1.57 1.57 0 0 1-.714-1.23c-.024-.465.297-1.028.941-2.16l15.324-26.993c.653-1.145.985-1.719 1.399-1.93.45-.23.984-.23 1.43 0 .417.211.746.786 1.398 1.93l3.152 5.496.016.027c.703 1.23 1.062 1.856 1.215 2.508a4.6 4.6 0 0 1 0 2.184c-.156.66-.508 1.285-1.223 2.535l-8.05 14.219-.02.035c-.711 1.242-1.07 1.871-1.567 2.344a4.66 4.66 0 0 1-1.91 1.105c-.652.184-1.383.184-2.843.184m15.671 0h8.895c1.312 0 1.973 0 2.363-.262a1.56 1.56 0 0 0 .715-1.238c.023-.45-.293-.992-.91-2.059l-.063-.11-4.453-7.612-.05-.086c-.63-1.059-.942-1.594-1.348-1.801a1.57 1.57 0 0 0-1.422 0c-.41.215-.738.77-1.39 1.894l-4.442 7.614-.016.027c-.648 1.121-.972 1.68-.949 2.14.031.5.29.965.715 1.239.387.254 1.047.254 2.355.254m0 0" style="stroke:none;fill-rule:evenodd;fill:#e84142;fill-opacity:1"/></svg>