<svg xmlns="http://www.w3.org/2000/svg" width="40" height="40" fill="none" viewBox="0 0 40 40"><g clip-path="url(#avgoon_svg-a)"><path fill="#F9D1D7" d="M20 0c11.046 0 20 8.954 20 20s-8.954 20-20 20S0 31.046 0 20 8.954 0 20 0"/><path fill="#E31837" d="M26 6a8 8 0 0 1 8 8v12a8 8 0 0 1-8 8H14a8 8 0 0 1-8-8V14a8 8 0 0 1 8-8z"/><g clip-path="url(#avgoon_svg-b)"><path fill="#fff" d="M20 10c5.523 0 10 4.477 10 10a10 10 0 0 1-.467 3.025 11 11 0 0 0-.722-.323c-1.143-.455-2.191-.303-3.24.333 0 0-.383.233-.498.305-.488.308-.95.598-1.393.598-.423 0-.84-.113-1.015-.931-.275-1.278-.946-4.415-1.238-5.969-.172-.914-.266-1.406-.364-1.74-.173-.588-.488-.908-.936-.958 0 0-.07-.01-.127-.01s-.135.01-.135.01c-.442.054-.756.373-.928.96-.098.332-.192.824-.364 1.738-.292 1.554-.963 4.692-1.238 5.969-.175.818-.592.93-1.015.93-.443 0-.905-.29-1.393-.597l-.498-.305c-1.049-.636-2.097-.788-3.24-.333-.25.1-.488.209-.722.322A10 10 0 0 1 10 20c0-5.523 4.477-10 10-10m6.98 14.147c-.378.126-.713.35-1.047.56-.63.395-1.345.845-2.254.845-1.345 0-2.29-.804-2.593-2.206C20.853 22.26 20 18.16 20 18.16q-.526 2.596-1.086 5.185c-.302 1.402-1.247 2.206-2.593 2.206-.909 0-1.622-.45-2.253-.845-.334-.21-.67-.434-1.046-.56a1.93 1.93 0 0 0-1.179-.009 5 5 0 0 0-.792.322c1.638 3.283 4.955 5.54 8.874 5.54s7.386-2.257 9.025-5.54a5 5 0 0 0-.792-.322 1.94 1.94 0 0 0-1.179.009"/></g></g><defs><clipPath id="avgoon_svg-a"><path fill="#fff" d="M0 0h40v40H0z"/></clipPath><clipPath id="avgoon_svg-b"><path fill="#fff" d="M10 10h20v20H10z"/></clipPath></defs></svg>