<svg xmlns="http://www.w3.org/2000/svg" width="40" height="40" fill="none" viewBox="0 0 40 40"><g clip-path="url(#axpon_svg-a)"><path fill="#CCE2F6" d="M20 0c11.046 0 20 8.954 20 20s-8.954 20-20 20S0 31.046 0 20 8.954 0 20 0"/><path fill="#016FD0" d="M26 6a8 8 0 0 1 8 8v12a8 8 0 0 1-8 8H14a8 8 0 0 1-8-8V14a8 8 0 0 1 8-8z"/><path fill="#016FD0" d="M10 10h19.95v10.797l-.987 1.546.987 1.377V30H10V19.822l.617-.711L10 18.43z"/><path fill="#fff" d="M13.873 23.936v-3.14h3.316l.356.465.368-.465H29.95v2.924s-.314.213-.679.216h-6.665l-.401-.495v.495H20.89v-.845s-.18.118-.568.118h-.447v.727h-1.99l-.356-.475-.36.475zM10 18.43l.748-1.748h1.293l.425.979v-.98h1.607l.253.709.245-.708h7.217v.356s.38-.356 1.003-.356l2.342.008.417.966v-.974h1.345l.37.555v-.555h1.358v3.14h-1.357l-.355-.557v.557h-1.977l-.199-.495h-.531l-.196.495h-1.34c-.537 0-.88-.349-.88-.349v.349h-2.021l-.401-.495v.495H11.85l-.199-.495h-.53l-.197.495H10z"/><path fill="#016FD0" d="m11.013 17.07-1.01 2.35h.658l.186-.47h1.082l.185.47h.671l-1.008-2.35zm.373.546.33.823h-.661zm1.469 1.804v-2.351l.933.003.543 1.516.53-1.52h.925v2.352H15.2v-1.733l-.622 1.733h-.514l-.623-1.733v1.733zm3.332 0v-2.351H18.1v.526h-1.32v.402h1.29v.495h-1.29v.417h1.32v.51zm2.253-2.35v2.35h.586v-.835h.247l.703.835h.717l-.772-.866a.715.715 0 0 0 .643-.722c0-.495-.387-.763-.82-.763zm.586.525h.67c.161 0 .278.126.278.248 0 .156-.151.247-.269.247h-.679zm2.376 1.825h-.598v-2.351h.598zm1.42 0h-.13c-.625 0-1.004-.494-1.004-1.166 0-.689.375-1.185 1.165-1.185h.648v.556h-.672c-.32 0-.547.251-.547.635 0 .455.26.646.633.646h.154zm1.276-2.35-1.009 2.35h.657l.186-.47h1.082l.185.47h.671l-1.008-2.35zm.373.546.33.823h-.66zm1.468 1.804v-2.351h.745l.952 1.477v-1.477h.586v2.35h-.721l-.976-1.515v1.516zm-11.665 4.114v-2.35h1.913v.525h-1.32v.402h1.29v.495h-1.29v.418h1.32v.51zm9.375 0v-2.35h1.913v.525h-1.32v.402h1.283v.495h-1.284v.418h1.321v.51zm-7.387 0 .931-1.16-.954-1.19h.739l.568.735.57-.736h.71l-.942 1.176.934 1.175h-.739l-.551-.724-.538.724zm2.625-2.35v2.35h.602v-.742h.617c.522 0 .918-.277.918-.818 0-.447-.31-.79-.841-.79zm.602.531h.65c.169 0 .29.104.29.271 0 .157-.12.27-.292.27h-.648zm1.79-.532v2.351h.586V22.7h.247l.703.835h.717l-.772-.866a.715.715 0 0 0 .643-.722c0-.495-.387-.763-.82-.763zm.586.526h.67c.161 0 .278.126.278.247 0 .157-.151.248-.269.248h-.679zm3.969 1.825v-.51h1.173c.174 0 .249-.094.249-.197 0-.1-.075-.2-.249-.2h-.53c-.461 0-.718-.28-.718-.703 0-.377.235-.74.92-.74h1.142l-.247.528h-.987c-.189 0-.247.1-.247.194 0 .098.072.205.216.205h.555c.514 0 .737.292.737.675 0 .411-.248.748-.765.748zm2.152 0v-.51h1.173c.174 0 .249-.094.249-.197 0-.1-.075-.2-.249-.2h-.53c-.461 0-.718-.28-.718-.703 0-.377.235-.74.92-.74h1.142l-.247.528h-.987c-.19 0-.247.1-.247.194 0 .098.072.205.216.205h.555c.514 0 .737.292.737.675 0 .411-.248.748-.765.748z"/></g><defs><clipPath id="axpon_svg-a"><path fill="#fff" d="M0 0h40v40H0z"/></clipPath></defs></svg>