<svg xmlns="http://www.w3.org/2000/svg" width="64" height="65" fill="none" viewBox="0 0 64 65"><rect width="64.005" height="64" y=".304" fill="#0055D5" rx="32"/><rect width="63.005" height="63" x=".5" y=".804" stroke="#070B14" stroke-opacity=".15" rx="31.5"/><path fill="#fff" fill-rule="evenodd" d="M17.41 21.475s-3.444-2.752-3.68 4.045c-.238 5.267-.231 15.494 2.207 20.326 1.03 1.818 2.407 1.26 4.967-.55 2.227-1.645 10.286-9.07 13.697-12.327 3.412-3.257 10.33-12.601 11.77-6.253.57 2.67 1.274 4.935.737 10.855-.166 1.824-.947 3.206-4.506.736-2.688-1.728-5.242-3.584-5.242-3.584s-.493-.883-1.658.55c-.915 1.146-1.376 1.427.09 2.298 1.472.87 8.916 6.003 11.77 6.803 2.356.685 3.7.672 3.77-3.955-.013-3.674-.224-14.189-1.562-18.669-1.01-2.79-2.496-4.058-5.702-.922-3.207 3.137-13.32 12.941-18.85 17.383-3.667 2.752-5.236 5.235-6.618.646-.973-3.475-2.234-14.29 1.747-12.23 2.49 1.19 3.732 1.184 2.759 1.933-.973.742-3.77 3.309-3.77 3.309s-.864.697-.46 2.208c.402 1.056.402 1.58 2.572-.461s3.77-3.584 3.77-3.584.346-.544 1.376.46 1.197 1.287 1.197 1.287.275.749 1.376-.55c1.107-1.3 1.818-2.093-.275-3.31-2.087-1.228-11.483-6.444-11.483-6.444" clip-rule="evenodd"/></svg>