<svg xmlns="http://www.w3.org/2000/svg" width="64" height="65" fill="none" viewBox="0 0 64 65"><g clip-path="url(#bal_svg-a)"><rect width="64" height="64" x=".005" y=".304" fill="#1E1E1E" rx="32"/><path fill="#fff" d="M32.486 45.68c-10.234 0-18.528-2.957-18.528-6.919 0-2.067 2.259-3.93 5.875-5.241 2.822 1.81 7.558 2.739 12.928 2.739 5.241 0 9.875-1.133 12.723-2.867 3.411 1.299 5.53 3.11 5.53 5.107 0 3.968-8.295 7.18-18.528 7.18"/><path fill="#fff" d="M32.594 35.37c-7.756 0-14.048-2.433-14.048-5.434 0-1.665 1.94-3.156 4.98-4.148 2.17 1.133 5.42 1.856 9.068 1.856s6.9-.723 9.07-1.856c3.046.999 4.978 2.483 4.978 4.148.007 3.001-6.284 5.433-14.048 5.433"/><path fill="#fff" d="M32.543 26.742c-5.997 0-10.86-2.01-10.86-4.48s4.863-4.48 10.86-4.48 10.86 2.01 10.86 4.48-4.863 4.48-10.86 4.48"/></g><rect width="63" height="63" x=".505" y=".804" stroke="#070B14" stroke-opacity=".15" rx="31.5"/><defs><clipPath id="bal_svg-a"><rect width="64" height="64" x=".005" y=".304" fill="#fff" rx="32"/></clipPath></defs></svg>