<svg xmlns="http://www.w3.org/2000/svg" fill="none" viewBox="0 0 156 154"><path fill="#59251B" fill-rule="evenodd" d="M121.31 27.82c22.8 15.25 36.05 38.38 34.58 68-.63 12.571-4.71 24.301-12.69 33.861-17.66 21.14-48.62 26.05-73.47 22.8s-53.45-16-64.91-40.9c-5.18-11.29-6-23.66-3.3-35.95 6.4-29 25.3-47.92 51.35-56.77C54.48 9.38 62.9 2.74 72 3.92a16.4 16.4 0 0 1 4.24 1.16 16.66 16.66 0 0 1 14-4.94 16.52 16.52 0 0 1 12.21 8.37c1.46-.2 2.94-.2 4.4 0 9.04 1.16 15.4 9.74 14.46 19.31" clip-rule="evenodd"/><path fill="#FFFCF5" fill-rule="evenodd" d="M116.06 30.29c-1.83-1.62-6.76-3.11-9.83-3a16.8 16.8 0 0 1 10.44-.14c.56-6.84-4-12.92-10.51-13.77a11.7 11.7 0 0 0-6.46 1c-2.25.92-6 4.77-7.43 7.65a20 20 0 0 1 6.22-10.73 12 12 0 0 0-8.94-6.25 12.35 12.35 0 0 0-12.27 6.41C76 13.63 75.19 19 75.68 22.22a20.25 20.25 0 0 1-1.14-12.47 11.6 11.6 0 0 0-3.23-.91C64.58 8 58.36 13 57.4 20.16a13.4 13.4 0 0 0-.11 2.44c.24 2.52 2.76 7.23 5 9.38a18.08 18.08 0 0 1-8-8.44c-24.66 8.35-42.27 26-48.26 53.14-17.9 81 141 101.76 145.13 19 1.49-28.84-11.89-51.02-35.1-65.39" clip-rule="evenodd"/><path fill="#F1E3D6" fill-rule="evenodd" d="M92.27 22.04c.19-5.16 1.76-9.61 4.8-12.82.54.646 1.015 1.343 1.42 2.08A20 20 0 0 0 92.27 22zM62.31 32a18.08 18.08 0 0 1-8-8.44c-.89.3-1.78.62-2.65.95A17 17 0 0 0 62.31 32m13.26-10.81c0 .36.06.71.11 1zm.11 1a18.92 18.92 0 0 1-3.12-13.12 12 12 0 0 1 2 .68 20.25 20.25 0 0 0 1.12 12.47zm30.55 5.12a16.8 16.8 0 0 1 10.44-.14 13.4 13.4 0 0 0-.07-2.91 17.87 17.87 0 0 0-10.37 3.05m-95.88 84.691c26.54 49.74 137.43 52.69 140.86-16.29a71.7 71.7 0 0 0-5.35-32c1.65 55-25.43 86.42-84.41 74.92-17.96-3.54-36.4-13.34-51.1-26.63" clip-rule="evenodd"/><path fill="#59251B" fill-rule="evenodd" d="M93.22 76.93a9.45 9.45 0 0 0-7.94 10.93A9.81 9.81 0 0 0 96 96.38a9.45 9.45 0 0 0 8-10.93 9.8 9.8 0 0 0-10.78-8.52" clip-rule="evenodd"/><path fill="#fff" fill-rule="evenodd" d="M93 78.39a4 4 0 0 0-3.4 4.52 4 4 0 0 0 4.4 3.52 4 4 0 0 0 3.4-4.53 4 4 0 0 0-4.4-3.51" clip-rule="evenodd"/><path fill="#59251B" fill-rule="evenodd" d="M62.27 93.231a7 7 0 0 1 1.27 0c.34.06.55.23.57.41s-.16.36-.46.54a3 3 0 0 1-1.22.43 3.8 3.8 0 0 1-1.32-.38c-.35-.17-.58-.33-.6-.52s.16-.36.49-.43a9 9 0 0 1 1.27-.05M38 73.372c5-.64 9.4 3.13 9.84 8.42s-3.22 10.11-8.21 10.75a8.89 8.89 0 0 1-9.84-8.42c-.44-5.3 3.21-10.12 8.21-10.75" clip-rule="evenodd"/><path fill="#fff" fill-rule="evenodd" d="M40.59 75.19A3.91 3.91 0 0 1 45 78.5a3.86 3.86 0 0 1-3.37 4.31 3.91 3.91 0 0 1-4.39-3.31 3.85 3.85 0 0 1 3.35-4.31" clip-rule="evenodd"/><path fill="#59251B" fill-rule="evenodd" d="M45.23 99.291c3.73 5.92 10.57 4.46 17.66 1.55 8.32 4.16 17 6.11 21.69 1.65a8.8 8.8 0 0 1-4.3 3.49v.14c.12 8.1-.72 14.12-2.78 18.62s-5.5 7.16-10.5 7.12c-4.48-.7-7.8-3.82-10.29-8.71s-4-10.76-5.08-18.33v-.14a7.52 7.52 0 0 1-6.4-5.39" clip-rule="evenodd"/><path fill="#D14641" fill-rule="evenodd" d="M52.79 104.851c1.09 7.14 2.66 13.25 5 17.77s5.33 7.42 9.35 8.07c4.38 0 7.41-2.26 9.32-6.43s2.74-10.3 2.68-17.9a20.4 20.4 0 0 1-7.15-.35 59 59 0 0 1-9.26-2.82c-1.837.559-3.707 1-5.6 1.32a22 22 0 0 1-4.34.34" clip-rule="evenodd"/><path fill="#FF8884" fill-rule="evenodd" d="M78.56 116.16a22.7 22.7 0 0 0-11-.91A22 22 0 0 0 56.57 120c.37.91.75 1.78 1.17 2.59 2.3 4.53 5.33 7.42 9.35 8.07 4.38 0 7.41-2.26 9.32-6.43a29.2 29.2 0 0 0 2.15-8.07" clip-rule="evenodd"/><path fill="#59251B" fill-rule="evenodd" d="M67.38 54.321c8.47-3.09 10-15.61 7.08-21.21-.67 9.78-3.15 16.65-7.08 21.21M81 37.05c.82 9.31 4.08 12.27 8.62 11.85C82.81 41.77 83 40.3 81 37.05m-9-1.15c-.1 5.65-5.58 11.46-9.22 10.44 3.41-1.7 6.44-6.1 9.22-10.44" clip-rule="evenodd"/></svg>