<svg xmlns="http://www.w3.org/2000/svg" width="40" height="40" fill="none" viewBox="0 0 40 40"><g clip-path="url(#baon_svg-a)"><path fill="#D2D9EB" d="M20 0c11.046 0 20 8.954 20 20s-8.954 20-20 20S0 31.046 0 20 8.954 0 20 0"/><path fill="#1D439C" d="M26 6a8 8 0 0 1 8 8v12a8 8 0 0 1-8 8H14a8 8 0 0 1-8-8V14a8 8 0 0 1 8-8z"/><path fill="#fff" d="M15.754 24.406a5.04 5.04 0 0 1-3.133-1.084c1.004-2.263 3.045-5.299 5.831-8.264a5.06 5.06 0 0 1 1.885 6.44c-.883-.408-1.708-.921-2.406-1.566l1.525 2.865a5.05 5.05 0 0 1-3.702 1.609m-5.063-5.063a5.063 5.063 0 0 1 7.166-4.61c-2.745 2.425-4.87 5.245-6.128 7.682a5.04 5.04 0 0 1-1.038-3.073m10.284 2.427c.354-.76.536-1.588.534-2.427 0-2-1.02-3.762-2.57-4.794a41 41 0 0 1 2.985-2.785 26 26 0 0 0-3.499 2.479 5.756 5.756 0 0 0-7.03 8.855c-1.104 2.386-1.296 4.301-.324 4.948 1.04.693 3.302-.564 4.658-2.612 0 0-2.098 1.895-3.25 1.46-.71-.269-.713-1.354-.127-2.91a5.73 5.73 0 0 0 3.402 1.114 5.73 5.73 0 0 0 4.045-1.66l.204.385C22.511 23.618 30 23.42 30 23.42c0-.36-4.959-.033-9.027-1.65"/></g><defs><clipPath id="baon_svg-a"><path fill="#fff" d="M0 0h40v40H0z"/></clipPath></defs></svg>