<svg version="1.2" xmlns="http://www.w3.org/2000/svg" viewBox="0 0 876 876" width="512" height="512">
	<style>
		.s0 { fill: #8237e2 } 
		.s1 { fill: #ffffff } 
	</style>
	<path fill-rule="evenodd" class="s0" d="m438 838c-221.2 0-400-178.8-400-400 0-221.2 178.8-400 400-400 221.2 0 400 178.8 400 400 0 221.2-178.8 400-400 400z"/>
	<path fill-rule="evenodd" class="s1" d="m312.74 230.76c7.36-9.1 17.43-15.29 28.46-17.87 6.48-2.31 13.46-3.56 20.73-3.56h248.14c34.2 0 61.93 27.73 61.93 61.93v57.99q0 4.82-0.71 9.44l0.24-0.07v3.09c0 32.52-26.36 58.88-58.88 58.88h-10.39c-5.53 0-10 4.48-10 10v151.29c0 14.05-5.02 27.63-14.16 38.3l-37.5 43.8q-1.11 1.39-2.28 2.75c-11.7 13.58-26.05 20.47-41.09 20.47h-129.38c-15.04 0-29.39-6.89-41.09-20.47-12.1-14.04-14.02-31.61-14.02-45.34v-24.16c0-26.29-21.31-47.6-47.6-47.6-12.62 0-24.73-5.01-33.66-13.94l-12.31-12.31c-9.71-9.72-15.17-22.89-15.17-36.62v-76.06c0-11.84 4.06-23.33 11.5-32.54 7.44-9.21 97.24-127.4 97.24-127.4zm28.48 98.49c0 11.44 9.28 20.72 20.72 20.72h53.85c11.44 0 20.71 9.27 20.71 20.71v149.13c0 11.44 9.27 20.71 20.71 20.71h57.58c11.44 0 20.72-9.27 20.72-20.71v-149.13c0-11.44 9.27-20.71 20.71-20.71h53.85c11.44 0 20.71-9.28 20.71-20.72v-57.99c0-11.44-9.27-20.71-20.71-20.71h-248.13c-11.44 0-20.72 9.27-20.72 20.71z"/>
</svg>