<svg xmlns="http://www.w3.org/2000/svg" width="512" height="512" version="1.2" viewBox="0 0 876 876"><path fill-rule="evenodd" d="M438 838C216.8 838 38 659.2 38 438S216.8 38 438 38s400 178.8 400 400-178.8 400-400 400" style="fill:#8237e2"/><path fill-rule="evenodd" d="M312.74 230.76a51.77 51.77 0 0 1 28.46-17.87c6.48-2.31 13.46-3.56 20.73-3.56h248.14c34.2 0 61.93 27.73 61.93 61.93v57.99q0 4.82-.71 9.44l.24-.07v3.09c0 32.52-26.36 58.88-58.88 58.88h-10.39c-5.53 0-10 4.48-10 10v151.29c0 14.05-5.02 27.63-14.16 38.3l-37.5 43.8q-1.11 1.39-2.28 2.75c-11.7 13.58-26.05 20.47-41.09 20.47H367.85c-15.04 0-29.39-6.89-41.09-20.47-12.1-14.04-14.02-31.61-14.02-45.34v-24.16c0-26.29-21.31-47.6-47.6-47.6-12.62 0-24.73-5.01-33.66-13.94l-12.31-12.31A51.82 51.82 0 0 1 204 466.76V390.7c0-11.84 4.06-23.33 11.5-32.54s97.24-127.4 97.24-127.4m28.48 98.49c0 11.44 9.28 20.72 20.72 20.72h53.85c11.44 0 20.71 9.27 20.71 20.71v149.13c0 11.44 9.27 20.71 20.71 20.71h57.58c11.44 0 20.72-9.27 20.72-20.71V370.68c0-11.44 9.27-20.71 20.71-20.71h53.85c11.44 0 20.71-9.28 20.71-20.72v-57.99c0-11.44-9.27-20.71-20.71-20.71H361.94c-11.44 0-20.72 9.27-20.72 20.71z" style="fill:#fff"/></svg>