<svg xmlns="http://www.w3.org/2000/svg" width="64" height="65" fill="none" viewBox="0 0 64 65"><rect width="64" height="64" y=".304" fill="#0AC18E" rx="32"/><rect width="63" height="63" x=".5" y=".804" stroke="#070B14" stroke-opacity=".15" rx="31.5"/><path fill="#fff" d="M41.982 21.559c-1.608-3.647-5.304-4.427-9.828-3.672l-1.453-5.636-3.428.885 1.43 5.62c-.902.228-1.828.423-2.745.683l-1.43-5.588-3.427.885 1.453 5.637c-.739.21-6.92 1.795-6.92 1.795l.943 3.67s2.517-.706 2.493-.649c1.397-.366 2.055.333 2.364.99l3.996 15.449c.048.446-.033 1.21-.991 1.47.057.032-2.494.641-2.494.641l.374 4.28s6.124-1.567 6.928-1.77l1.47 5.701 3.427-.885-1.47-5.742q1.413-.33 2.754-.682l1.462 5.71 3.427-.886-1.47-5.693c5.279-1.283 9.007-4.614 8.243-9.706-.487-3.07-3.841-5.588-6.627-5.872 1.714-1.519 2.583-3.736 1.519-6.635M40.333 35c.682 5.044-6.327 5.661-8.641 6.27l-2.015-7.545C32 33.115 39.18 30.557 40.333 35M36.11 24.726c.723 4.483-5.271 5.003-7.204 5.499l-1.836-6.847c1.941-.48 7.57-2.802 9.04 1.348"/></svg>