<svg version="1.1" id="Layer_1" xmlns="http://www.w3.org/2000/svg" xmlns:xlink="http://www.w3.org/1999/xlink" x="0px" y="0px"
	 width="100%" viewBox="0 0 200 200" enable-background="new 0 0 200 200" xml:space="preserve">
<path fill="#FDFEFF" opacity="1.000000" stroke="none" 
	d="
M20.000000,201.000000 
	C13.678367,201.000000 7.356733,201.000000 1.041178,201.000000 
	C1.047256,134.333313 1.047256,67.666641 1.047256,1.000000 
	C7.083424,1.000000 13.072336,1.000000 19.529892,1.468080 
	C21.672543,22.135414 22.446314,42.465950 25.365477,62.483624 
	C27.058187,74.091125 32.152142,85.211304 35.818222,96.517471 
	C37.046452,100.305313 39.681633,101.562378 43.822460,101.449150 
	C55.477928,101.130455 67.149345,101.443871 78.810997,101.271935 
	C82.217087,101.221710 84.638153,101.928253 86.909416,104.797592 
	C90.697136,109.582718 96.123466,111.802399 102.213600,111.973938 
	C112.331863,112.258926 120.890884,105.397713 123.484856,95.122200 
	C125.772354,86.060692 121.147316,76.176498 112.507118,71.661644 
	C103.432999,66.920059 92.884880,68.752678 86.459145,76.917717 
	C83.938187,80.121048 81.410362,80.973969 77.655083,80.854645 
	C69.997780,80.611320 62.316822,80.543655 54.666664,80.881027 
	C50.770443,81.052856 48.892776,79.617271 47.939651,76.052818 
	C46.443039,70.455841 44.754665,64.910133 43.603283,59.301277 
	C71.882904,59.487152 99.707680,59.653584 127.528381,60.083870 
	C129.312103,60.111458 131.732269,61.770187 132.714935,63.370865 
	C136.881348,70.157547 140.206299,77.485497 144.645615,84.071785 
	C147.903000,88.904503 147.204315,92.560204 144.276199,97.017151 
	C133.274689,113.762840 119.031334,127.492706 104.123764,140.595963 
	C103.202339,141.405853 100.204636,141.206024 99.166206,140.316483 
	C90.825943,133.172028 82.731079,125.741425 74.542473,118.419250 
	C73.441956,117.435188 72.263451,115.811707 71.076271,115.770340 
	C63.918098,115.520981 56.746872,115.646378 49.220428,115.646378 
	C49.776268,116.787628 49.923889,117.284081 50.218433,117.667740 
	C64.155800,135.821808 81.408203,150.400558 100.007187,163.471863 
	C101.148552,164.274002 103.885475,164.146667 105.095543,163.313065 
	C131.808151,144.910690 151.615860,120.312134 167.869217,92.608994 
	C168.542282,91.461800 168.646515,89.300629 168.015274,88.170822 
	C159.025558,72.080658 149.863052,56.087021 140.624359,39.863041 
	C107.084290,39.863041 73.599915,39.863041 40.095139,39.410522 
	C39.808182,33.038826 39.541630,27.119654 39.269382,21.073994 
	C81.141052,21.073994 122.376968,21.073994 163.697464,21.073994 
	C163.697464,24.910591 164.230331,28.473270 163.597549,31.815239 
	C161.699478,41.839722 163.483978,50.791889 169.639923,59.024181 
	C172.105652,62.321568 173.840332,66.165619 176.399399,70.615814 
	C182.622726,46.860619 183.899002,24.030718 183.000000,1.000000 
	C188.988800,1.000000 194.977615,1.000000 200.960144,1.000005 
	C200.953857,67.666679 200.953857,134.333359 200.953857,201.000000 
	C195.251602,201.000000 189.595520,201.000000 183.480606,200.533112 
	C183.022980,196.400116 183.067993,192.733383 183.015030,189.068069 
	C182.936569,183.637024 181.070236,181.808670 175.858673,181.985062 
	C174.649780,182.025970 173.444595,182.176743 171.938187,182.301819 
	C171.938187,179.727829 171.938187,177.440018 171.938187,174.727341 
	C170.237045,174.861542 168.866821,174.969635 167.000000,175.116913 
	C167.000000,184.042892 167.000000,192.521439 167.000000,201.000000 
	C166.250000,201.000000 165.500000,201.000000 164.395111,200.565796 
	C164.800598,196.571259 162.369873,196.791306 160.185928,197.019974 
	C156.564728,197.399124 155.513763,195.249969 155.229263,192.269730 
	C154.776199,187.523697 156.163879,186.426956 164.176422,185.576370 
	C163.770142,184.367584 163.734039,182.817917 162.976486,182.275177 
	C160.651230,180.609192 153.577484,182.403900 152.091019,184.773819 
	C149.413727,189.042252 150.962143,197.679306 155.000000,201.000000 
	C152.958328,201.000000 150.916672,201.000000 148.296021,200.555023 
	C147.512909,195.640305 147.744278,191.085602 146.896652,186.741425 
	C146.542999,184.928894 144.111099,182.643372 142.239822,182.201859 
	C139.066071,181.453018 135.587524,181.996002 132.000000,181.996002 
	C132.000000,188.756912 132.000000,194.878448 132.000000,201.000000 
	C130.933334,201.000000 129.866653,201.000000 128.336853,200.535126 
	C127.873711,194.135956 127.873711,188.201645 127.873711,181.894684 
	C125.832886,182.083115 124.466820,182.209244 122.692024,182.373108 
	C122.692024,187.365204 122.692024,191.945038 122.692024,196.675598 
	C120.669411,196.675598 119.100021,196.675598 116.739983,196.675598 
	C116.739983,192.948471 116.568459,189.493576 116.787277,186.063583 
	C117.015045,182.493286 115.849335,181.146896 111.916809,182.512054 
	C112.761200,188.740158 109.869904,195.449448 115.000000,201.000000 
	C111.638710,201.000000 108.277428,201.000000 104.425873,200.537323 
	C103.931587,197.749466 104.020157,195.419525 103.900970,193.100266 
	C103.738838,189.945511 103.711136,187.207291 107.993042,186.622726 
	C108.948486,186.492294 109.586555,184.037140 110.387016,182.623566 
	C105.946136,182.623566 102.597984,182.623566 99.000000,182.623566 
	C99.000000,188.745941 99.000000,194.872971 99.000000,201.000000 
	C98.250000,201.000000 97.500000,201.000000 96.294106,200.558624 
	C96.487877,197.464828 95.597366,196.686523 92.793365,196.857986 
	C89.848541,197.038086 85.496101,198.359695 84.735565,194.168732 
	C83.968956,189.944382 84.074295,185.092697 85.550964,181.177109 
	C86.089767,179.748367 91.674286,180.230057 94.953529,179.813934 
	C95.240433,179.777527 95.502457,179.544998 96.075897,179.248550 
	C95.875244,178.251587 96.032242,176.770142 95.379593,176.171722 
	C92.174568,173.233078 82.684517,175.144516 80.530975,178.999222 
	C77.109474,185.123489 78.885300,196.385941 84.000000,201.000000 
	C80.638710,201.000000 77.277428,201.000000 73.610260,200.688904 
	C74.315285,198.309006 76.135307,196.258392 76.182236,194.167984 
	C76.312279,188.375290 70.075905,190.171829 66.299469,187.221756 
	C70.201752,187.047607 73.043556,186.920792 75.885368,186.793961 
	C76.157501,186.355103 76.429642,185.916229 76.701782,185.477356 
	C75.415726,184.333466 74.162659,182.265701 72.837448,182.218369 
	C68.813675,182.074692 63.615955,180.213760 61.827999,185.991806 
	C59.413857,193.793457 66.884201,192.969208 72.231506,195.742599 
	C67.802971,195.947357 64.968880,196.078400 62.000000,196.215668 
	C62.000000,198.049530 62.000000,199.524765 62.000000,201.000000 
	C61.555553,201.000000 61.111111,201.000000 60.315781,200.581360 
	C58.907124,198.350662 57.849346,196.538605 56.791569,194.726547 
	C56.349907,194.924484 55.908245,195.122437 55.466583,195.320374 
	C55.466583,192.714340 55.466583,190.108307 55.466583,187.299942 
	C57.049473,187.073517 58.444923,186.873886 59.836792,186.674774 
	C59.836792,185.078140 59.836792,183.792511 59.836792,182.254700 
	C58.322845,182.060867 56.930256,181.882584 55.560295,181.707199 
	C55.308941,179.968796 55.106831,178.570969 54.876804,176.980042 
	C53.098217,177.077011 51.672630,177.154739 50.328911,177.227997 
	C50.008007,178.972046 49.825325,180.421753 49.459724,181.823776 
	C49.091766,183.234818 48.038170,184.650604 48.174999,185.972168 
	C48.474262,188.862503 49.265694,191.712875 49.993416,194.544281 
	C50.553669,196.724106 51.323410,198.850082 52.000000,201.000000 
	C49.958332,201.000000 47.916668,201.000000 45.518387,200.537384 
	C45.161774,194.188629 45.161774,188.302475 45.161774,182.377441 
	C43.174084,182.377441 41.679974,182.377441 40.000000,182.377441 
	C40.000000,188.829132 40.000000,194.914566 40.000000,201.000000 
	C37.958332,201.000000 35.916668,201.000000 33.508247,200.649200 
	C37.727287,197.056900 37.320023,192.408524 36.633293,187.720490 
	C35.702602,181.367020 30.482887,181.985413 25.763985,181.796326 
	C25.763985,179.360306 25.763985,177.414261 25.763985,175.310242 
	C23.751390,175.310242 22.051485,175.310242 20.000000,175.310242 
	C20.000000,184.084549 20.000000,192.542267 20.000000,201.000000 
M40.742779,175.113892 
	C40.483261,176.733368 40.223743,178.352859 39.949711,180.062927 
	C41.995071,180.062927 43.378433,180.062927 44.720608,180.062927 
	C45.264164,175.453094 45.264164,175.453094 40.742779,175.113892 
z"/>
<path fill="#0383FF" opacity="1.000000" stroke="none" 
	d="
M182.533142,1.000000 
	C183.899002,24.030718 182.622726,46.860619 176.399399,70.615814 
	C173.840332,66.165619 172.105652,62.321568 169.639923,59.024181 
	C163.483978,50.791889 161.699478,41.839722 163.597549,31.815239 
	C164.230331,28.473270 163.697464,24.910591 163.697464,21.073994 
	C122.376968,21.073994 81.141052,21.073994 39.269382,21.073994 
	C39.541630,27.119654 39.808182,33.038826 40.071510,39.830452 
	C41.094696,46.916176 42.121098,53.129444 43.147495,59.342716 
	C44.754665,64.910133 46.443039,70.455841 47.939651,76.052818 
	C48.892776,79.617271 50.770443,81.052856 54.666664,80.881027 
	C62.316822,80.543655 69.997780,80.611320 77.655083,80.854645 
	C81.410362,80.973969 83.938187,80.121048 86.459145,76.917717 
	C92.884880,68.752678 103.432999,66.920059 112.507118,71.661644 
	C121.147316,76.176498 125.772354,86.060692 123.484856,95.122200 
	C120.890884,105.397713 112.331863,112.258926 102.213600,111.973938 
	C96.123466,111.802399 90.697136,109.582718 86.909416,104.797592 
	C84.638153,101.928253 82.217087,101.221710 78.810997,101.271935 
	C67.149345,101.443871 55.477928,101.130455 43.822460,101.449150 
	C39.681633,101.562378 37.046452,100.305313 35.818222,96.517471 
	C32.152142,85.211304 27.058187,74.091125 25.365477,62.483624 
	C22.446314,42.465950 21.672543,22.135414 19.999268,1.468080 
	C46.687561,1.000000 73.375122,1.000000 100.826012,1.296138 
	C102.231750,1.725070 102.874039,1.973181 103.516602,1.973921 
	C123.452896,1.996879 143.389282,2.013274 163.325439,1.955415 
	C164.551193,1.951857 165.775192,1.332723 167.000000,1.000000 
	C172.022095,1.000000 177.044189,1.000000 182.533142,1.000000 
M101.716492,79.998871 
	C94.861824,81.339630 91.300789,85.750893 92.027588,92.001106 
	C92.686340,97.666237 97.502296,101.429901 103.621620,101.061829 
	C109.218674,100.725166 113.228851,96.313980 113.215599,90.508492 
	C113.201530,84.345161 109.313271,80.517250 101.716492,79.998871 
z"/>
<path fill="#096FD1" opacity="1.000000" stroke="none" 
	d="
M20.463184,201.000000 
	C20.000000,192.542267 20.000000,184.084549 20.000000,175.310242 
	C22.051485,175.310242 23.751390,175.310242 25.763985,175.310242 
	C25.763985,177.414261 25.763985,179.360306 25.763985,181.796326 
	C30.482887,181.985413 35.702602,181.367020 36.633293,187.720490 
	C37.320023,192.408524 37.727287,197.056900 33.070747,200.649200 
	C28.975456,201.000000 24.950911,201.000000 20.463184,201.000000 
M31.114857,190.615341 
	C31.094019,187.234634 29.404528,186.311630 26.260782,187.340210 
	C26.260782,190.239899 26.260782,193.084396 26.260782,195.817383 
	C30.418602,196.802322 31.237938,194.608307 31.114857,190.615341 
z"/>
<path fill="#0F89FF" opacity="1.000000" stroke="none" 
	d="
M167.416656,201.000000 
	C167.000000,192.521439 167.000000,184.042892 167.000000,175.116913 
	C168.866821,174.969635 170.237045,174.861542 171.938187,174.727341 
	C171.938187,177.440018 171.938187,179.727829 171.938187,182.301819 
	C173.444595,182.176743 174.649780,182.025970 175.858673,181.985062 
	C181.070236,181.808670 182.936569,183.637024 183.015030,189.068069 
	C183.067993,192.733383 183.022980,196.400116 183.010895,200.533112 
	C181.933334,201.000000 180.866653,201.000000 179.326355,200.544037 
	C178.839188,197.123001 178.911957,194.154449 178.793091,191.193588 
	C178.584793,186.005692 177.743454,185.455933 172.000000,186.876190 
	C172.000000,191.503662 172.000000,196.251831 172.000000,201.000000 
	C170.611115,201.000000 169.222214,201.000000 167.416656,201.000000 
z"/>
<path fill="#076ED0" opacity="1.000000" stroke="none" 
	d="
M62.458069,201.000000 
	C62.000000,199.524765 62.000000,198.049530 62.000000,196.215668 
	C64.968880,196.078400 67.802971,195.947357 72.231506,195.742599 
	C66.884201,192.969208 59.413857,193.793457 61.827999,185.991806 
	C63.615955,180.213760 68.813675,182.074692 72.837448,182.218369 
	C74.162659,182.265701 75.415726,184.333466 76.701782,185.477356 
	C76.429642,185.916229 76.157501,186.355103 75.885368,186.793961 
	C73.043556,186.920792 70.201752,187.047607 66.299469,187.221756 
	C70.075905,190.171829 76.312279,188.375290 76.182236,194.167984 
	C76.135307,196.258392 74.315285,198.309006 73.152191,200.688904 
	C69.638710,201.000000 66.277428,201.000000 62.458069,201.000000 
z"/>
<path fill="#0E89FF" opacity="1.000000" stroke="none" 
	d="
M115.463181,201.000000 
	C109.869904,195.449448 112.761200,188.740158 111.916809,182.512054 
	C115.849335,181.146896 117.015045,182.493286 116.787277,186.063583 
	C116.568459,189.493576 116.739983,192.948471 116.739983,196.675598 
	C119.100021,196.675598 120.669411,196.675598 122.692024,196.675598 
	C122.692024,191.945038 122.692024,187.365204 122.692024,182.373108 
	C124.466820,182.209244 125.832886,182.083115 127.873711,181.894684 
	C127.873711,188.201645 127.873711,194.135956 127.936859,200.535126 
	C123.975456,201.000000 119.950912,201.000000 115.463181,201.000000 
z"/>
<path fill="#0786FF" opacity="1.000000" stroke="none" 
	d="
M84.460632,201.000000 
	C78.885300,196.385941 77.109474,185.123489 80.530975,178.999222 
	C82.684517,175.144516 92.174568,173.233078 95.379593,176.171722 
	C96.032242,176.770142 95.875244,178.251587 96.075897,179.248550 
	C95.502457,179.544998 95.240433,179.777527 94.953529,179.813934 
	C91.674286,180.230057 86.089767,179.748367 85.550964,181.177109 
	C84.074295,185.092697 83.968956,189.944382 84.735565,194.168732 
	C85.496101,198.359695 89.848541,197.038086 92.793365,196.857986 
	C95.597366,196.686523 96.487877,197.464828 95.919106,200.558624 
	C92.307091,201.000000 88.614182,201.000000 84.460632,201.000000 
z"/>
<path fill="#0786FF" opacity="1.000000" stroke="none" 
	d="
M132.399994,201.000000 
	C132.000000,194.878448 132.000000,188.756912 132.000000,181.996002 
	C135.587524,181.996002 139.066071,181.453018 142.239822,182.201859 
	C144.111099,182.643372 146.542999,184.928894 146.896652,186.741425 
	C147.744278,191.085602 147.512909,195.640305 147.858521,200.555023 
	C146.611115,201.000000 145.222214,201.000000 143.419128,200.535309 
	C142.999359,196.609940 143.316925,193.102859 142.830200,189.711212 
	C142.633820,188.342804 140.677673,187.226944 139.522385,185.996140 
	C138.411667,187.211517 136.517532,188.322998 136.339951,189.662125 
	C135.845459,193.390869 136.063400,197.214096 136.000000,201.000000 
	C134.933334,201.000000 133.866653,201.000000 132.399994,201.000000 
z"/>
<path fill="#036CD0" opacity="1.000000" stroke="none" 
	d="
M52.444164,201.000000 
	C51.323410,198.850082 50.553669,196.724106 49.993416,194.544281 
	C49.265694,191.712875 48.474262,188.862503 48.174999,185.972168 
	C48.038170,184.650604 49.091766,183.234818 49.459724,181.823776 
	C49.825325,180.421753 50.008007,178.972046 50.328911,177.227997 
	C51.672630,177.154739 53.098217,177.077011 54.876804,176.980042 
	C55.106831,178.570969 55.308941,179.968796 55.560295,181.707199 
	C56.930256,181.882584 58.322845,182.060867 59.836792,182.254700 
	C59.836792,183.792511 59.836792,185.078140 59.836792,186.674774 
	C58.444923,186.873886 57.049473,187.073517 55.466583,187.299942 
	C55.466583,190.108307 55.466583,192.714340 55.466583,195.320374 
	C55.908245,195.122437 56.349907,194.924484 56.791569,194.726547 
	C57.849346,196.538605 58.907124,198.350662 59.982449,200.581360 
	C57.629444,201.000000 55.258884,201.000000 52.444164,201.000000 
z"/>
<path fill="#0685FF" opacity="1.000000" stroke="none" 
	d="
M155.449982,201.000000 
	C150.962143,197.679306 149.413727,189.042252 152.091019,184.773819 
	C153.577484,182.403900 160.651230,180.609192 162.976486,182.275177 
	C163.734039,182.817917 163.770142,184.367584 164.176422,185.576370 
	C156.163879,186.426956 154.776199,187.523697 155.229263,192.269730 
	C155.513763,195.249969 156.564728,197.399124 160.185928,197.019974 
	C162.369873,196.791306 164.800598,196.571259 164.020111,200.565796 
	C161.299988,201.000000 158.599976,201.000000 155.449982,201.000000 
z"/>
<path fill="#0785FF" opacity="1.000000" stroke="none" 
	d="
M99.416664,201.000000 
	C99.000000,194.872971 99.000000,188.745941 99.000000,182.623566 
	C102.597984,182.623566 105.946136,182.623566 110.387016,182.623566 
	C109.586555,184.037140 108.948486,186.492294 107.993042,186.622726 
	C103.711136,187.207291 103.738838,189.945511 103.900970,193.100266 
	C104.020157,195.419525 103.931587,197.749466 103.967804,200.537323 
	C102.611107,201.000000 101.222221,201.000000 99.416664,201.000000 
z"/>
<path fill="#F2F9FF" opacity="1.000000" stroke="none" 
	d="
M136.437500,201.000000 
	C136.063400,197.214096 135.845459,193.390869 136.339951,189.662125 
	C136.517532,188.322998 138.411667,187.211517 139.522385,185.996140 
	C140.677673,187.226944 142.633820,188.342804 142.830200,189.711212 
	C143.316925,193.102859 142.999359,196.609940 143.002457,200.535309 
	C140.958328,201.000000 138.916672,201.000000 136.437500,201.000000 
z"/>
<path fill="#F2F9FF" opacity="1.000000" stroke="none" 
	d="
M172.437500,201.000000 
	C172.000000,196.251831 172.000000,191.503662 172.000000,186.876190 
	C177.743454,185.455933 178.584793,186.005692 178.793091,191.193588 
	C178.911957,194.154449 178.839188,197.123001 178.926361,200.544037 
	C176.958328,201.000000 174.916672,201.000000 172.437500,201.000000 
z"/>
<path fill="#006ACF" opacity="1.000000" stroke="none" 
	d="
M40.416664,201.000000 
	C40.000000,194.914566 40.000000,188.829132 40.000000,182.377441 
	C41.679974,182.377441 43.174084,182.377441 45.161774,182.377441 
	C45.161774,188.302475 45.161774,194.188629 45.080887,200.537384 
	C43.611111,201.000000 42.222221,201.000000 40.416664,201.000000 
z"/>
<path fill="#0E89FF" opacity="1.000000" stroke="none" 
	d="
M166.531342,1.000000 
	C165.775192,1.332723 164.551193,1.951857 163.325439,1.955415 
	C143.389282,2.013274 123.452896,1.996879 103.516602,1.973921 
	C102.874039,1.973181 102.231750,1.725070 101.294670,1.296138 
	C122.687561,1.000000 144.375122,1.000000 166.531342,1.000000 
z"/>
<path fill="#036CD0" opacity="1.000000" stroke="none" 
	d="
M43.603283,59.301277 
	C42.121098,53.129444 41.094696,46.916176 40.091919,40.282974 
	C73.599915,39.863041 107.084290,39.863041 140.624359,39.863041 
	C149.863052,56.087021 159.025558,72.080658 168.015274,88.170822 
	C168.646515,89.300629 168.542282,91.461800 167.869217,92.608994 
	C151.615860,120.312134 131.808151,144.910690 105.095543,163.313065 
	C103.885475,164.146667 101.148552,164.274002 100.007187,163.471863 
	C81.408203,150.400558 64.155800,135.821808 50.218433,117.667740 
	C49.923889,117.284081 49.776268,116.787628 49.220428,115.646378 
	C56.746872,115.646378 63.918098,115.520981 71.076271,115.770340 
	C72.263451,115.811707 73.441956,117.435188 74.542473,118.419250 
	C82.731079,125.741425 90.825943,133.172028 99.166206,140.316483 
	C100.204636,141.206024 103.202339,141.405853 104.123764,140.595963 
	C119.031334,127.492706 133.274689,113.762840 144.276199,97.017151 
	C147.204315,92.560204 147.903000,88.904503 144.645615,84.071785 
	C140.206299,77.485497 136.881348,70.157547 132.714935,63.370865 
	C131.732269,61.770187 129.312103,60.111458 127.528381,60.083870 
	C99.707680,59.653584 71.882904,59.487152 43.603283,59.301277 
z"/>
<path fill="#006ACF" opacity="1.000000" stroke="none" 
	d="
M41.196114,175.065887 
	C45.264164,175.453094 45.264164,175.453094 44.720608,180.062927 
	C43.378433,180.062927 41.995071,180.062927 39.949711,180.062927 
	C40.223743,178.352859 40.483261,176.733368 41.196114,175.065887 
z"/>
<path fill="#FBFDFF" opacity="1.000000" stroke="none" 
	d="
M102.127647,79.998138 
	C109.313271,80.517250 113.201530,84.345161 113.215599,90.508492 
	C113.228851,96.313980 109.218674,100.725166 103.621620,101.061829 
	C97.502296,101.429901 92.686340,97.666237 92.027588,92.001106 
	C91.300789,85.750893 94.861824,81.339630 102.127647,79.998138 
z"/>
<path fill="#FEFEFF" opacity="1.000000" stroke="none" 
	d="
M31.143543,191.058716 
	C31.237938,194.608307 30.418602,196.802322 26.260782,195.817383 
	C26.260782,193.084396 26.260782,190.239899 26.260782,187.340210 
	C29.404528,186.311630 31.094019,187.234634 31.143543,191.058716 
z"/>
</svg>