<svg xmlns="http://www.w3.org/2000/svg" width="64" height="65" fill="none" viewBox="0 0 64 65"><rect width="64" height="64" y=".304" fill="#fff" rx="32"/><rect width="63" height="63" x=".5" y=".804" stroke="#070B14" stroke-opacity=".15" rx="31.5"/><path fill="#006BCD" d="M16.402 25.25a43 43 0 0 0 .708 4.796l22.276.106s4.393 7.758 4.332 7.758c-2.468 5.636-11.53 13.23-11.538 13.24-1.166-.112-7.819-6.766-7.819-6.766s-1.83-.012-3.398-.015c-1.153-.002-2.163 0-2.195.015 4.686 6.541 13.333 12.393 13.412 12.358 10.39-6.731 16.777-18.83 16.777-18.83L41.743 25.25z"/><path fill="#0082FE" fill-rule="evenodd" d="M52.487 15.506c.38 10.702-1.683 17.243-1.683 17.243l-.009-.008-3.305-5.765.337-6.689s-31.595-.069-31.647 0c0 10.288 2.684 15.284 2.684 15.284h8.605a5.35 5.35 0 0 1 4.754-2.908c2.943 0 5.342 2.4 5.342 5.342a5.35 5.35 0 0 1-5.342 5.342 5.34 5.34 0 0 1-4.628-2.675H16.18c-4.894-6.663-4.712-25.166-4.712-25.166s41.01.052 41.019 0M29.47 37.996a2.755 2.755 0 0 1 2.753-2.753 2.755 2.755 0 0 1 2.753 2.753 2.755 2.755 0 0 1-2.753 2.753 2.755 2.755 0 0 1-2.753-2.753" clip-rule="evenodd"/></svg>