<?xml version="1.0" encoding="UTF-8"?>
<svg xmlns="http://www.w3.org/2000/svg" xmlns:xlink="http://www.w3.org/1999/xlink" viewBox="0 0 32 32" version="1.1">
<g id="surface1">
<path style=" stroke:none;fill-rule:nonzero;fill:rgb(95.294118%,44.313725%,14.509804%);fill-opacity:1;" d="M 15.304688 -0.0078125 C 15.355469 -0.0078125 15.40625 -0.0117188 15.460938 -0.0117188 C 17.59375 -0.0234375 17.59375 -0.0234375 18.550781 0.148438 C 18.609375 0.160156 18.664062 0.171875 18.722656 0.179688 C 21.71875 0.71875 24.484375 2.042969 26.734375 4.09375 C 26.835938 4.1875 26.945312 4.28125 27.050781 4.371094 C 28.28125 5.445312 29.269531 6.828125 30.050781 8.25 C 30.070312 8.289062 30.09375 8.328125 30.117188 8.367188 C 31.265625 10.460938 32 12.90625 32.007812 15.304688 C 32.007812 15.355469 32.011719 15.40625 32.011719 15.460938 C 32.023438 17.59375 32.023438 17.59375 31.851562 18.550781 C 31.839844 18.609375 31.828125 18.664062 31.820312 18.722656 C 31.28125 21.71875 29.957031 24.484375 27.90625 26.734375 C 27.8125 26.835938 27.71875 26.945312 27.628906 27.050781 C 26.554688 28.28125 25.171875 29.269531 23.75 30.050781 C 23.691406 30.082031 23.691406 30.082031 23.632812 30.117188 C 21.539062 31.265625 19.09375 32 16.695312 32.007812 C 16.644531 32.007812 16.59375 32.011719 16.539062 32.011719 C 14.40625 32.023438 14.40625 32.023438 13.449219 31.851562 C 13.390625 31.839844 13.335938 31.828125 13.277344 31.820312 C 10.28125 31.28125 7.515625 29.957031 5.265625 27.90625 C 5.164062 27.8125 5.054688 27.71875 4.949219 27.628906 C 3.71875 26.554688 2.730469 25.171875 1.949219 23.75 C 1.917969 23.691406 1.917969 23.691406 1.882812 23.632812 C 0.734375 21.539062 0 19.09375 -0.0078125 16.695312 C -0.0078125 16.644531 -0.0117188 16.59375 -0.0117188 16.539062 C -0.0234375 14.40625 -0.0234375 14.40625 0.148438 13.449219 C 0.160156 13.390625 0.171875 13.335938 0.179688 13.277344 C 0.71875 10.28125 2.042969 7.515625 4.09375 5.265625 C 4.1875 5.164062 4.28125 5.054688 4.371094 4.949219 C 5.445312 3.71875 6.828125 2.730469 8.25 1.949219 C 8.289062 1.929688 8.328125 1.90625 8.367188 1.882812 C 10.460938 0.734375 12.90625 0 15.304688 -0.0078125 Z M 15.304688 -0.0078125 "/>
<path style=" stroke:none;fill-rule:nonzero;fill:rgb(0%,0%,0%);fill-opacity:1;" d="M 7.648438 11 C 7.738281 11.070312 7.828125 11.148438 7.914062 11.222656 C 8.09375 11.378906 8.09375 11.378906 8.335938 11.40625 C 8.40625 11.390625 8.476562 11.367188 8.550781 11.351562 C 9.40625 11.195312 10.296875 11.171875 11.140625 11.367188 C 11.386719 11.417969 11.488281 11.4375 11.703125 11.300781 C 11.761719 11.257812 11.820312 11.210938 11.875 11.167969 C 12.542969 10.667969 13.222656 10.410156 14.0625 10.515625 C 14.640625 10.636719 15.128906 10.992188 15.46875 11.46875 C 15.78125 11.976562 15.824219 12.519531 15.691406 13.097656 C 15.570312 13.53125 15.425781 13.9375 15.179688 14.320312 C 15.007812 14.585938 15.007812 14.585938 14.945312 14.890625 C 14.984375 15.023438 15.03125 15.128906 15.101562 15.25 C 15.117188 15.285156 15.140625 15.320312 15.15625 15.355469 C 15.289062 15.570312 15.449219 15.761719 15.605469 15.953125 C 16.0625 16.527344 16.320312 17.035156 16.316406 17.785156 C 16.3125 17.835938 16.3125 17.882812 16.3125 17.933594 C 16.300781 18.710938 16.0625 19.371094 15.515625 19.9375 C 14.773438 20.65625 13.773438 20.960938 12.75 20.953125 C 12.679688 20.953125 12.601562 20.957031 12.527344 20.957031 C 12.414062 20.960938 12.296875 20.960938 12.179688 20.960938 C 11.675781 20.9375 11.675781 20.9375 11.234375 21.144531 C 11.191406 21.195312 11.144531 21.25 11.101562 21.300781 C 10.976562 21.371094 10.976562 21.371094 10.867188 21.414062 C 10.8125 21.4375 10.8125 21.4375 10.757812 21.460938 C 10.1875 21.660156 9.398438 21.625 8.832031 21.429688 C 8.699219 21.351562 8.699219 21.351562 8.625 21.265625 C 8.4375 21.058594 8.289062 20.980469 8.007812 20.960938 C 7.8125 20.960938 7.617188 20.960938 7.425781 20.960938 C 6.210938 20.972656 5.109375 20.78125 4.183594 19.945312 C 3.636719 19.375 3.398438 18.671875 3.382812 17.894531 C 3.40625 17.070312 3.652344 16.515625 4.1875 15.882812 C 4.460938 15.554688 4.707031 15.203125 4.765625 14.773438 C 4.742188 14.601562 4.664062 14.5 4.570312 14.359375 C 4.40625 14.109375 4.28125 13.859375 4.179688 13.578125 C 4.164062 13.546875 4.15625 13.511719 4.140625 13.476562 C 3.957031 12.960938 3.90625 12.324219 4.101562 11.800781 C 4.375 11.226562 4.8125 10.796875 5.402344 10.558594 C 6.179688 10.328125 6.984375 10.59375 7.648438 11 Z M 7.648438 11 "/>
<path style=" stroke:none;fill-rule:nonzero;fill:rgb(1.176471%,0.392157%,0%);fill-opacity:1;" d="M 26.050781 10.5 C 26.414062 10.5 26.773438 10.5 27.148438 10.5 C 27.148438 10.648438 27.148438 10.796875 27.148438 10.949219 C 27.210938 10.964844 27.210938 10.964844 27.273438 10.980469 C 27.773438 11.175781 28.167969 11.601562 28.394531 12.078125 C 28.648438 12.703125 28.710938 13.371094 28.460938 14.015625 C 28.1875 14.617188 27.851562 15 27.25 15.300781 C 27.234375 15.78125 27.21875 16.257812 27.199219 16.75 C 27.347656 16.796875 27.347656 16.796875 27.5 16.851562 C 28.039062 17.167969 28.398438 17.707031 28.558594 18.304688 C 28.695312 18.984375 28.59375 19.65625 28.234375 20.246094 C 27.992188 20.597656 27.734375 20.867188 27.351562 21.050781 C 27.300781 21.050781 27.25 21.050781 27.199219 21.050781 C 27.199219 21.214844 27.199219 21.382812 27.199219 21.550781 C 26.820312 21.550781 26.441406 21.550781 26.050781 21.550781 C 26.03125 21.402344 26.015625 21.253906 26 21.101562 C 25.914062 21.007812 25.914062 21.007812 25.792969 20.964844 C 25.25 20.710938 24.949219 20.28125 24.726562 19.726562 C 24.542969 19.109375 24.578125 18.382812 24.851562 17.800781 C 25.101562 17.351562 25.433594 16.976562 25.898438 16.75 C 25.949219 16.75 26 16.75 26.050781 16.75 C 26.050781 16.273438 26.050781 15.792969 26.050781 15.300781 C 25.953125 15.265625 25.851562 15.234375 25.75 15.199219 C 25.25 14.90625 24.953125 14.484375 24.75 13.949219 C 24.734375 13.90625 24.710938 13.859375 24.695312 13.8125 C 24.546875 13.261719 24.578125 12.554688 24.851562 12.050781 C 24.871094 12.007812 24.890625 11.964844 24.914062 11.921875 C 25.148438 11.484375 25.5 11.148438 25.949219 10.949219 C 25.984375 10.949219 26.015625 10.949219 26.050781 10.949219 C 26.050781 10.800781 26.050781 10.652344 26.050781 10.5 Z M 26.050781 10.5 "/>
<path style=" stroke:none;fill-rule:nonzero;fill:rgb(1.176471%,0.392157%,0%);fill-opacity:1;" d="M 18.898438 10.5 C 19.210938 10.5 19.527344 10.5 19.851562 10.5 C 19.851562 10.601562 19.859375 10.699219 19.863281 10.804688 C 19.882812 11.09375 19.921875 11.269531 20.101562 11.5 C 20.203125 11.558594 20.203125 11.558594 20.300781 11.601562 C 20.300781 11.554688 20.300781 11.554688 20.304688 11.507812 C 20.3125 11.308594 20.324219 11.183594 20.445312 11.023438 C 20.667969 10.917969 20.859375 10.90625 21.101562 10.949219 C 21.25 11.015625 21.289062 11.066406 21.398438 11.199219 C 21.4375 11.335938 21.445312 11.453125 21.449219 11.601562 C 21.675781 11.433594 21.792969 11.335938 21.851562 11.050781 C 21.871094 10.867188 21.886719 10.683594 21.898438 10.5 C 22.210938 10.5 22.527344 10.5 22.851562 10.5 C 22.742188 11.242188 22.5 11.757812 21.929688 12.253906 C 21.800781 12.351562 21.800781 12.351562 21.5 12.5 C 21.484375 12.945312 21.46875 13.390625 21.449219 13.851562 C 21.597656 13.898438 21.597656 13.898438 21.75 13.949219 C 22.351562 14.328125 22.671875 14.867188 22.828125 15.546875 C 22.960938 16.21875 22.800781 16.867188 22.4375 17.4375 C 22.160156 17.804688 21.914062 17.96875 21.5 18.199219 C 21.5 18.644531 21.5 19.09375 21.5 19.550781 C 21.632812 19.617188 21.765625 19.679688 21.898438 19.75 C 22.4375 20.109375 22.71875 20.679688 22.851562 21.300781 C 22.851562 21.382812 22.851562 21.464844 22.851562 21.550781 C 22.539062 21.550781 22.222656 21.550781 21.898438 21.550781 C 21.898438 21.449219 21.890625 21.347656 21.886719 21.242188 C 21.867188 20.960938 21.839844 20.804688 21.648438 20.601562 C 21.546875 20.507812 21.546875 20.507812 21.449219 20.449219 C 21.445312 20.53125 21.445312 20.53125 21.441406 20.609375 C 21.390625 20.835938 21.324219 20.90625 21.148438 21.050781 C 20.988281 21.132812 20.824219 21.128906 20.648438 21.101562 C 20.484375 21 20.378906 20.929688 20.308594 20.742188 C 20.285156 20.648438 20.265625 20.546875 20.25 20.449219 C 20.085938 20.570312 19.972656 20.65625 19.898438 20.851562 C 19.882812 20.96875 19.875 21.09375 19.867188 21.210938 C 19.863281 21.324219 19.855469 21.4375 19.851562 21.550781 C 19.539062 21.550781 19.222656 21.550781 18.898438 21.550781 C 18.9375 20.8125 19.1875 20.328125 19.734375 19.828125 C 19.914062 19.667969 20.054688 19.550781 20.300781 19.550781 C 20.300781 19.105469 20.300781 18.65625 20.300781 18.199219 C 20.203125 18.167969 20.101562 18.132812 20 18.101562 C 19.484375 17.78125 19.082031 17.269531 18.9375 16.679688 C 18.816406 15.96875 18.855469 15.25 19.257812 14.632812 C 19.507812 14.304688 19.8125 14 20.199219 13.851562 C 20.234375 13.851562 20.265625 13.851562 20.300781 13.851562 C 20.300781 13.40625 20.300781 12.960938 20.300781 12.5 C 20.203125 12.46875 20.101562 12.433594 20 12.398438 C 19.5 12.105469 19.210938 11.679688 19 11.148438 C 18.976562 11.09375 18.957031 11.042969 18.933594 10.988281 C 18.898438 10.851562 18.898438 10.851562 18.898438 10.5 Z M 18.898438 10.5 "/>
<path style=" stroke:none;fill-rule:nonzero;fill:rgb(92.941176%,43.529412%,14.509804%);fill-opacity:1;" d="M 26.050781 11.800781 C 26.054688 11.828125 26.0625 11.859375 26.066406 11.890625 C 26.074219 11.933594 26.082031 11.976562 26.089844 12.015625 C 26.097656 12.054688 26.105469 12.09375 26.113281 12.136719 C 26.15625 12.265625 26.195312 12.316406 26.300781 12.398438 C 26.503906 12.5 26.734375 12.46875 26.945312 12.402344 C 27.101562 12.25 27.117188 12.066406 27.148438 11.851562 C 27.382812 11.890625 27.460938 12.011719 27.601562 12.199219 C 27.699219 12.484375 27.664062 12.8125 27.664062 13.113281 C 27.667969 13.179688 27.667969 13.242188 27.671875 13.308594 C 27.671875 13.679688 27.65625 13.9375 27.449219 14.25 C 27.234375 14.449219 27.234375 14.449219 27.148438 14.449219 C 27.148438 14.414062 27.140625 14.382812 27.136719 14.34375 C 27.101562 14.070312 27.101562 14.070312 26.945312 13.84375 C 26.742188 13.78125 26.5625 13.757812 26.351562 13.800781 C 26.15625 13.933594 26.109375 14.007812 26.058594 14.242188 C 26.054688 14.292969 26.054688 14.34375 26.050781 14.398438 C 25.914062 14.367188 25.824219 14.335938 25.742188 14.21875 C 25.53125 13.851562 25.539062 13.585938 25.539062 13.164062 C 25.539062 13.101562 25.535156 13.039062 25.535156 12.972656 C 25.53125 12.589844 25.535156 12.308594 25.78125 12 C 25.992188 11.800781 25.992188 11.800781 26.050781 11.800781 Z M 26.050781 11.800781 "/>
<path style=" stroke:none;fill-rule:nonzero;fill:rgb(94.117647%,43.921569%,14.509804%);fill-opacity:1;" d="M 26.050781 17.601562 C 26.066406 17.679688 26.066406 17.679688 26.085938 17.761719 C 26.160156 17.976562 26.203125 18.046875 26.398438 18.148438 C 26.554688 18.179688 26.695312 18.183594 26.851562 18.148438 C 27.039062 18.007812 27.128906 17.875 27.199219 17.648438 C 27.375 17.695312 27.445312 17.742188 27.554688 17.882812 C 27.703125 18.15625 27.679688 18.464844 27.675781 18.765625 C 27.675781 18.871094 27.675781 18.976562 27.679688 19.078125 C 27.679688 19.453125 27.660156 19.734375 27.449219 20.050781 C 27.289062 20.199219 27.289062 20.199219 27.148438 20.199219 C 27.148438 20.164062 27.148438 20.132812 27.148438 20.097656 C 27.132812 19.8125 27.132812 19.8125 27.003906 19.570312 C 26.78125 19.46875 26.585938 19.457031 26.351562 19.5 C 26.1875 19.585938 26.1875 19.585938 26.101562 19.75 C 26.066406 19.898438 26.054688 20.046875 26.050781 20.199219 C 25.882812 20.121094 25.773438 20.039062 25.648438 19.898438 C 25.589844 19.722656 25.589844 19.558594 25.585938 19.375 C 25.585938 19.335938 25.585938 19.300781 25.585938 19.261719 C 25.585938 19.1875 25.585938 19.109375 25.585938 19.03125 C 25.585938 18.949219 25.585938 18.867188 25.582031 18.789062 C 25.578125 18.675781 25.578125 18.5625 25.578125 18.445312 C 25.578125 18.410156 25.578125 18.375 25.578125 18.339844 C 25.578125 18.085938 25.640625 17.945312 25.800781 17.75 C 25.976562 17.601562 25.976562 17.601562 26.050781 17.601562 Z M 26.050781 17.601562 "/>
<path style=" stroke:none;fill-rule:nonzero;fill:rgb(94.117647%,43.921569%,14.509804%);fill-opacity:1;" d="M 20.300781 14.699219 C 20.304688 14.730469 20.308594 14.757812 20.3125 14.789062 C 20.347656 14.992188 20.375 15.121094 20.507812 15.277344 C 20.695312 15.375 20.84375 15.382812 21.050781 15.351562 C 21.195312 15.3125 21.195312 15.3125 21.300781 15.199219 C 21.367188 15.054688 21.410156 14.90625 21.449219 14.75 C 21.667969 14.847656 21.792969 14.984375 21.898438 15.199219 C 21.914062 15.421875 21.914062 15.648438 21.917969 15.867188 C 21.917969 15.945312 21.921875 16.015625 21.921875 16.09375 C 21.941406 16.835938 21.941406 16.835938 21.71875 17.132812 C 21.625 17.226562 21.53125 17.269531 21.398438 17.300781 C 21.398438 17.238281 21.394531 17.175781 21.390625 17.113281 C 21.367188 16.957031 21.351562 16.90625 21.253906 16.773438 C 21.03125 16.667969 20.839844 16.65625 20.601562 16.699219 C 20.402344 16.832031 20.359375 16.90625 20.308594 17.140625 C 20.304688 17.195312 20.304688 17.246094 20.300781 17.300781 C 20.109375 17.253906 20.054688 17.207031 19.945312 17.046875 C 19.835938 16.851562 19.820312 16.671875 19.824219 16.453125 C 19.824219 16.417969 19.820312 16.382812 19.820312 16.34375 C 19.820312 16.265625 19.820312 16.191406 19.824219 16.113281 C 19.824219 15.996094 19.824219 15.882812 19.820312 15.765625 C 19.820312 15.6875 19.820312 15.613281 19.824219 15.539062 C 19.820312 15.503906 19.820312 15.46875 19.820312 15.433594 C 19.828125 15.183594 19.894531 15.042969 20.050781 14.851562 C 20.226562 14.699219 20.226562 14.699219 20.300781 14.699219 Z M 20.300781 14.699219 "/>
</g>
</svg>
