<svg xmlns="http://www.w3.org/2000/svg" width="64" height="65" fill="none" viewBox="0 0 64 65"><rect width="64" height="64" y=".304" fill="#ADFF00" rx="32"/><rect width="63" height="63" x=".5" y=".804" stroke="#070B14" stroke-opacity=".15" rx="31.5"/><path fill="#000" fill-rule="evenodd" d="M52.07 30.077v-4.455h-4.454v-8.934h-4.454v8.934h-8.91V47.92h4.455V30.076h4.455V47.92h8.908v-4.455h-4.454V30.076zM27.546 41.238a2.23 2.23 0 0 1-2.228 2.227H16.41v-8.934h8.908c1.23 0 2.228.998 2.228 2.227zM16.41 21.142h6.681c1.229 0 2.227.999 2.227 2.227v4.455a2.23 2.23 0 0 1-2.227 2.227H16.41v-8.934zm11.904 10.624v-.614a4.4 4.4 0 0 0 1.484-3.328v-5.402a5.77 5.77 0 0 0-5.76-5.76H11.955v31.232h14.131a5.943 5.943 0 0 0 5.94-5.94v-5.196a5.215 5.215 0 0 0-3.712-4.992" clip-rule="evenodd"/><path fill="#000" d="M34.257 16.662h4.4v4.4h-4.4z"/></svg>