<svg xmlns="http://www.w3.org/2000/svg" width="64" height="65" fill="none" viewBox="0 0 64 65"><rect width="64" height="64" y=".304" fill="#fff" rx="32"/><rect width="63" height="63" x=".5" y=".804" stroke="#070B14" stroke-opacity=".15" rx="31.5"/><path fill="#EE2F51" d="m13.29 21.504 18.706 10.8 18.706-10.8-18.706-10.8z"/><path fill="#C32942" d="m13.29 21.503 18.706 10.8v21.6l-18.706-10.8z"/><path fill="#7D1729" d="m50.69 21.503-18.706 10.8v21.6l18.706-10.8z"/><path fill="#EE2F51" d="m19.517 39.506 6.235-3.6v7.2z"/><path fill="#7D1729" d="m25.75 35.904-6.237-3.6v7.2z"/><path fill="#EE2F51" d="m44.465 39.506-6.235-3.6v7.2z"/><path fill="#C32942" d="m38.231 35.904 6.237-3.6v7.2z"/><path fill="#7D1729" d="m25.763 21.501 6.234-3.6v7.2z"/><path fill="#C32942" d="m38.219 21.501-6.235-3.6v7.2z"/></svg>