<svg width="64" height="65" viewBox="0 0 64 65" fill="none" xmlns="http://www.w3.org/2000/svg">
<rect y="0.303711" width="64" height="64" rx="32" fill="white"/>
<rect x="0.5" y="0.803711" width="63" height="63" rx="31.5" stroke="#070B14" stroke-opacity="0.15"/>
<path d="M13.29 21.5036L31.9958 32.3036L50.7016 21.5036L31.9958 10.7036L13.29 21.5036Z" fill="#EE2F51"/>
<path d="M13.29 21.5034L31.9958 32.3034V53.9034L13.29 43.1034V21.5034Z" fill="#C32942"/>
<path d="M50.6902 21.5034L31.9844 32.3034V53.9034L50.6902 43.1034V21.5034Z" fill="#7D1729"/>
<path d="M19.5171 39.5056L25.7516 35.9056V43.1056L19.5171 39.5056Z" fill="#EE2F51"/>
<path d="M25.7499 35.9035L19.5132 32.3035V39.5035L25.7499 35.9035Z" fill="#7D1729"/>
<path d="M44.4646 39.5056L38.2301 35.9056V43.1056L44.4646 39.5056Z" fill="#EE2F51"/>
<path d="M38.2314 35.9035L44.4682 32.3035V39.5035L38.2314 35.9035Z" fill="#C32942"/>
<path d="M25.7625 21.5011L31.997 17.9011V25.1011L25.7625 21.5011Z" fill="#7D1729"/>
<path d="M38.2189 21.5011L31.9844 17.9011V25.1011L38.2189 21.5011Z" fill="#C32942"/>
</svg>
