<svg xmlns="http://www.w3.org/2000/svg" width="40" height="40" fill="none" viewBox="0 0 40 40"><g clip-path="url(#blkon_svg-a)"><path fill="#D9D9D9" d="M20 0c11.046 0 20 8.954 20 20s-8.954 20-20 20S0 31.046 0 20 8.954 0 20 0"/><path fill="#000" d="M26 6a8 8 0 0 1 8 8v12a8 8 0 0 1-8 8H14a8 8 0 0 1-8-8V14a8 8 0 0 1 8-8z"/><path fill="#fff" d="M16.817 19.24c.49 0 .815.2.99.564l-.522.27a.47.47 0 0 0-.456-.293c-.263 0-.479.204-.479.544s.19.549.483.549c.228 0 .37-.108.463-.278l.51.262c-.178.383-.552.56-.997.56-.633 0-1.089-.39-1.089-1.093 0-.722.518-1.085 1.097-1.085m6.91-.004c.61 0 1.132.417 1.132 1.09 0 .668-.522 1.092-1.132 1.092s-1.131-.42-1.131-1.093c0-.668.517-1.089 1.131-1.089m2.426.004c.49 0 .815.2.989.564l-.522.27a.47.47 0 0 0-.456-.293c-.262 0-.479.204-.479.544s.19.549.483.549a.49.49 0 0 0 .464-.278l.51.262c-.178.383-.553.56-.997.56-.633 0-1.089-.39-1.089-1.093 0-.722.518-1.085 1.097-1.085m-11.73.004c.598 0 .961.286.961.826v.723c0 .073.043.116.124.116a.4.4 0 0 0 .108-.016v.436a.9.9 0 0 1-.375.066c-.173 0-.351-.054-.432-.259-.135.155-.394.275-.684.275-.425 0-.699-.217-.699-.63 0-.402.328-.645.834-.645.201 0 .367.03.499.062v-.066c0-.228-.132-.367-.41-.367a.78.78 0 0 0-.506.201l-.351-.394c.208-.185.54-.328.93-.328m15.368 1.734c.132 0 .209.081.209.205s-.077.204-.209.204c-.13 0-.208-.08-.208-.204s.077-.205.208-.205m-18.532-2.39c.657-.005.95.331.95.737 0 .232-.096.428-.37.58.29.107.451.347.451.66 0 .471-.316.8-.977.803H10v-2.78zm7.331 0v1.54l.73-.819h.71l-.698.761.745 1.294v.004h-.714l-.472-.823-.3.32v.503h-.63v-2.78zm9.328 0v1.54l.738-.819h.703l-.7.761.746 1.294v.004h-.714l-.472-.823-.3.32v.503h-.63v-2.78zm-14.74 2.776h-.633v-2.78h.634zm8.243-2.78c.638 0 1.082.304 1.082.903 0 .382-.19.653-.526.819l.61 1.058h-.756l-.53-.934h-.405v.934h-.653v-2.78zm8.37 2.421c-.104 0-.173.062-.173.178-.004.12.07.177.173.177.105 0 .174-.061.174-.177s-.073-.178-.174-.178m.004.073c.05 0 .077.027.077.066 0 .035-.015.054-.042.066l.039.073h-.039l-.035-.066h-.046v.066h-.039v-.205zm-.046.105h.042c.027 0 .043-.008.043-.035q0-.035-.039-.035h-.046zm-15.342-.688c-.22 0-.328.108-.328.255 0 .14.096.24.293.24.209 0 .39-.124.39-.313v-.136c-.1-.023-.22-.046-.355-.046m9.316-.714c-.274 0-.51.189-.51.544 0 .352.236.549.51.549.275 0 .51-.197.51-.549 0-.355-.235-.544-.51-.544m-13.062.44v.602h.571c.236 0 .363-.12.363-.3 0-.186-.135-.302-.363-.302zm10.239-.344h.487c.3 0 .448-.17.448-.37 0-.24-.14-.371-.448-.371H20.9zm-10.24-.753v.58h.526c.232 0 .351-.109.351-.298 0-.19-.139-.282-.351-.282z"/></g><defs><clipPath id="blkon_svg-a"><path fill="#fff" d="M0 0h40v40H0z"/></clipPath></defs></svg>