<svg width="32" height="32" viewBox="0 0 32 32" fill="none" xmlns="http://www.w3.org/2000/svg"><path d="M0 16C0 7.163 7.163 0 16 0s16 7.163 16 16-7.163 16-16 16S0 24.837 0 16z" fill="#050203"/><path d="M16 .96L2.752 8.384 5.44 9.929v-.005L9.8 12.43l1.912-1.07V6.408L16.01 4l10.565 6.074 2.673-1.498L16 .96zM9.792 7.485v4.94L5.44 9.923l4.352-2.438zm0 4.95l6.201-3.475 6.201 3.565-1.967 1.102-4.223-2.427-4.228 2.37v.006l-1.984-1.141z" fill="#F92B6C"/><path d="M2.752 8.384L5.44 9.929v12.25L16 27.994v3.046L2.752 23.744V8.384zm9.024 5.192v4.895l4.217 2.323v2.246l-6.201-3.415v-7.19l1.984 1.14z" fill="#821334"/><path d="M16.01 28l-.01-.006v3.046l13.248-7.104V8.576l-2.673 1.498.005.002v12.256L16.01 28zm-.017-7.206l.011.006 4.228-2.267V13.63l-.005-.003 1.967-1.103v7.19l-6.2 3.325v-2.246z" fill="#DF2660"/><path d="M11.712 6.409L16.01 4l10.57 6.077-4.386 2.457v-.01l-6.2-3.564-4.282 2.4V6.408zm-1.92 1.076L5.44 9.923l4.352 2.502v-4.94zm6.212 3.715l-4.228 2.37L16.004 16v-4.8zm0 4.8l4.228-2.37-4.228-2.43V16z" fill="#FD8EAF"/><path d="M9.8 12.43L5.44 9.924v12.255L16.01 28v-4.97l-.017.01-6.201-3.415v-7.19l1.984 1.14-1.984-1.14.009-.005zm1.976 1.14L16.004 16v4.8l-4.228-2.329V13.57z" fill="#FFD7E0"/><path d="M16.01 23.03l6.184-3.315v-7.18l4.386-2.459v12.256L16.01 28v-4.97zm4.222-9.4L16.004 16v4.8l4.228-2.267V13.63z" fill="#FDA3BD"/></svg>