<svg xmlns="http://www.w3.org/2000/svg" width="64" height="65" fill="none" viewBox="0 0 64 65"><rect width="64" height="64" y=".304" fill="#F0B90B" rx="32"/><rect width="63" height="63" x=".5" y=".804" stroke="#070B14" stroke-opacity=".15" rx="31.5"/><path fill="#fff" d="m17.587 32.304.023 8.461 7.19 4.231v4.954l-11.397-6.685V29.83zm0-8.462v4.931L13.4 26.296v-4.93l4.187-2.478 4.208 2.477zm10.216-2.477 4.187-2.477 4.208 2.477-4.208 2.477z"/><path fill="#fff" d="M20.613 39.011v-4.953l4.187 2.477v4.93zm7.19 7.76 4.187 2.476 4.208-2.477v4.931l-4.208 2.477-4.187-2.477zm14.4-25.406 4.187-2.477 4.207 2.477v4.931l-4.207 2.477v-4.93zm4.187 19.4.023-8.461 4.187-2.477v13.436l-11.397 6.684v-4.954z"/><path fill="#fff" d="M43.387 39.011 39.2 41.465v-4.93l4.187-2.477z"/><path fill="#fff" d="m43.387 25.596.023 4.954-7.21 4.23v8.483l-4.187 2.454-4.187-2.454V34.78l-7.21-4.231v-4.954l4.205-2.477 7.166 4.251 7.21-4.25 4.208 2.476zm-22.774-8.459L31.99 10.43l11.397 6.708-4.187 2.477-7.21-4.251-7.19 4.251z"/></svg>