<svg xmlns="http://www.w3.org/2000/svg" fill="none" viewBox="0 0 106 172"><g clip-path="url(#boba_svg-a)"><path fill="#B7E400" d="M24.65 118.96c-3.15 0-5.81-2.25-6.34-5.36L.38 8.18c-.29-1.7.1-3.4 1.1-4.8S3.96 1.05 5.65.76c3.5-.59 6.83 1.77 7.43 5.27L31 111.44c.29 1.7-.1 3.4-1.1 4.8a6.43 6.43 0 0 1-4.17 2.62c-.35.06-.71.1-1.08.1"/><path fill="#B7E400" d="M54.7 70.33c-10.25 0-19.78 3.07-27.75 8.34l2.17 12.76c6.85-5.97 15.8-9.6 25.58-9.6 21.51 0 39.01 17.5 39.01 39.01s-17.5 39.01-39.01 39.01-39.01-17.5-39.01-39.01c0-2.87.32-5.66.91-8.35l-3.46-20.31a50.2 50.2 0 0 0-8.95 28.67c0 27.85 22.66 50.51 50.51 50.51s50.51-22.66 50.51-50.51S82.56 70.33 54.7 70.33"/><path fill="#1CD8D2" d="M51.94 150.33a6.88 6.88 0 1 0 0-13.76 6.88 6.88 0 0 0 0 13.76m21.49-8.009a6.88 6.88 0 1 0 0-13.76 6.88 6.88 0 0 0 0 13.76m-16.9-14.75a6.88 6.88 0 1 0 0-13.76 6.88 6.88 0 0 0 0 13.76M35.18 134.6a6.88 6.88 0 1 0 0-13.76 6.88 6.88 0 0 0 0 13.76m42.65-14.08a6.88 6.88 0 1 0 0-13.76 6.88 6.88 0 0 0 0 13.76m-16.7-15.709a6.88 6.88 0 1 0 0-13.76 6.88 6.88 0 0 0 0 13.76m-21.56 7.988a6.88 6.88 0 1 0 0-13.76 6.88 6.88 0 0 0 0 13.76"/></g><defs><clipPath id="boba_svg-a"><path fill="#fff" d="M0 0h106v172H0z"/></clipPath></defs></svg>