<svg width="410" height="410" viewBox="0 0 410 410" fill="none" xmlns="http://www.w3.org/2000/svg">
<g clip-path="url(#clip0_4503_8900)">
<rect width="410" height="410" rx="205" fill="black"/>
<rect width="410" height="410" rx="205" fill="black"/>
<path d="M136 28C41.6 62.8 16 153.5 15 194.5C85.8 198.9 144.833 241 165.5 261.5C148.3 161.9 184.667 100.667 205 82.5C191.8 58.9 153.5 36.3333 136 28Z" fill="#009440"/>
<path d="M273.5 28C367.9 62.8 393.5 153.5 394.5 194.5C323.7 198.9 264.667 241 244 261.5C261.2 161.9 224.833 100.667 204.5 82.5C217.7 58.9 256 36.3333 273.5 28Z" fill="#009440"/>
<path d="M139.5 26.0009L205 81.0009L270.5 26.0009C217.3 4.00085 161 16.8342 139.5 26.0009Z" fill="#FFCB00"/>
<path d="M201 340L137 382L201 397V340Z" fill="#009440"/>
<path d="M209.5 340L273.5 382L209.5 397V340Z" fill="#009440"/>
<path d="M204.499 83.5C172.166 117.667 126.899 216.1 204.499 336.5C237.499 291.167 283.699 177.1 204.499 83.5Z" fill="#3F33A1"/>
<path d="M141.121 382.5C37.1211 345.7 15.1211 243.833 17.1211 197.5C127.521 193.9 188.121 289 204.621 337L141.121 382.5Z" fill="#FFCB00"/>
<path d="M269.5 382.5C373.5 345.7 395.5 243.833 393.5 197.5C283.1 193.9 222.5 289 206 337L269.5 382.5Z" fill="#FFCB00"/>
<g clip-path="url(#clip1_4503_8900)">
<mask id="mask0_4503_8900" style="mask-type:luminance" maskUnits="userSpaceOnUse" x="23" y="23" width="364" height="364">
<path d="M386.815 205C386.815 104.585 305.412 23.1822 204.997 23.1822C104.581 23.1822 23.1785 104.585 23.1785 205C23.1785 305.416 104.581 386.819 204.997 386.819C305.412 386.819 386.815 305.416 386.815 205Z" fill="white"/>
</mask>
<g mask="url(#mask0_4503_8900)">
<path d="M350.451 395.908C455.887 395.908 541.36 310.436 541.36 204.999C541.36 99.5629 455.887 14.0902 350.451 14.0902C245.015 14.0902 159.542 99.5629 159.542 204.999C159.542 310.436 245.015 395.908 350.451 395.908Z" stroke="black" stroke-width="18.1818"/>
<path d="M59.5421 395.908C-45.894 395.908 -131.367 310.436 -131.367 204.999C-131.367 99.5629 -45.894 14.0902 59.5421 14.0902C164.979 14.0902 250.451 99.5629 250.451 204.999C250.451 310.436 164.979 395.908 59.5421 395.908Z" stroke="black" stroke-width="18.1818"/>
<path d="M395.906 577.727C501.342 577.727 586.815 492.254 586.815 386.817C586.815 281.381 501.342 195.908 395.906 195.908C290.469 195.908 204.997 281.381 204.997 386.817C204.997 492.254 290.469 577.727 395.906 577.727Z" stroke="black" stroke-width="18.1818"/>
<path d="M14.0876 577.727C-91.3488 577.727 -176.822 492.254 -176.822 386.817C-176.822 281.381 -91.3488 195.908 14.0875 195.908C119.524 195.908 204.997 281.381 204.997 386.817C204.997 492.254 119.524 577.727 14.0876 577.727Z" stroke="black" stroke-width="18.1818"/>
</g>
<path d="M395.909 205C395.909 99.5638 310.436 14.0909 205 14.0909C99.5637 14.0909 14.0908 99.5638 14.0908 205C14.0908 310.436 99.5637 395.909 205 395.909C310.436 395.909 395.909 310.436 395.909 205Z" stroke="black" stroke-width="18.1818"/>
</g>
</g>
<defs>
<clipPath id="clip0_4503_8900">
<rect width="410" height="410" rx="205" fill="white"/>
</clipPath>
<clipPath id="clip1_4503_8900">
<rect width="400" height="400" fill="white" transform="translate(5 5)"/>
</clipPath>
</defs>
</svg>
