<svg xmlns="http://www.w3.org/2000/svg" width="1021" height="151" fill="none" viewBox="0 0 1021 151"><path fill="url(#brlv_svg-a)" d="M89.653 0c35.784 0 63.223 16.443 76.232 36.125l-29.88 14.818c-10.167-15.825-25.618-22.931-46.753-22.931-33.743 0-56.104 16.238-56.104 47.488s22.36 47.488 56.104 47.488c21.145 0 36.789-6.899 47.368-23.133l29.678 14.814C152.876 134.763 125.437 151 88.232 151 34.764 151 0 122.793 0 75.5S34.763 0 89.653 0m409.561 0c55.497 0 90.468 28.012 90.468 75.5S554.711 151 499.214 151s-90.467-28.012-90.467-75.5S443.717 0 499.214 0m490.278 102.425V5H1021v142.074h-28.459L890.485 44.375v102.699h-31.507V5h34.556zm-170.482 17.26c.603 0 1.094.489 1.094 1.092v25.13a1.094 1.094 0 0 1-1.092 1.093H629.988c-.603 0-1.091-.49-1.092-1.093v-25.13c0-.603.488-1.092 1.091-1.092zM303.998 4.463c34.763 0 60.988 16.031 60.988 46.88 0 24.157-16.058 39.17-39.646 44.651l43.91 50.531h-38.832v.012l-40.861-48.3h-51.429v48.3h-32.321V4.463zm195.205 23.549c-35.176 0-57.332 17.05-57.332 47.488s21.961 47.488 57.332 47.488 57.331-17.05 57.331-47.488-22.155-47.488-57.331-47.488M136.62 99.855l-.008-.004h.011zM722.854 5.746a2.187 2.187 0 0 1 3.291 0l45.334 51.812a1.092 1.092 0 0 0 1.644 0l45.065-51.502c.665-.76 1.915-.29 1.916.718v84.502a1.094 1.094 0 0 1-1.092 1.093H629.988c-.603 0-1.091-.49-1.092-1.093V6.774c.001-1.008 1.25-1.477 1.915-.718l45.064 51.502a1.093 1.093 0 0 0 1.645 0zM237.91 71.438h64.243c17.078 0 29.686-4.063 29.686-19.888s-12.608-19.888-29.686-19.888H237.91z"/><defs><linearGradient id="brlv_svg-a" x1="-85.701" x2="1021" y1="76.276" y2="76.276" gradientUnits="userSpaceOnUse"><stop offset=".08" stop-color="#E0D4FF"/><stop offset=".62" stop-color="#F9F7FF"/><stop offset=".72" stop-color="#fff"/><stop offset=".75" stop-color="#FBF9FF"/><stop offset=".91" stop-color="#E7DEFF"/><stop offset="1" stop-color="#E0D4FF"/></linearGradient></defs></svg>