<svg xmlns="http://www.w3.org/2000/svg" width="60" height="60" fill="none" viewBox="0 0 60 60"><path fill="#fff" stroke="url(#bsccashplus_svg-a)" stroke-width="4.8" d="M30 2.4c15.243 0 27.6 12.357 27.6 27.6S45.243 57.6 30 57.6 2.4 45.243 2.4 30 14.757 2.4 30 2.4Z"/><path fill="#000001" d="M44.458 42.288H33.167V36.13h11.29zm0-6.16H33.167v-6.157h11.29z"/><path fill="#000" d="M33.892 41.201a3.2 3.2 0 0 0-3.2-3.2h3.2z"/><path fill="#3446FF" d="M24.292 15.633h15.91v9.75H26.428a3.2 3.2 0 0 0-2.136 3.02v3.2a3.2 3.2 0 0 0 2.055 2.988h13.855v9.75h-15.91v.061c0-5.302-4.299-9.6-9.601-9.6v-9.6c5.302 0 9.6-4.299 9.6-9.6z"/><defs><linearGradient id="bsccashplus_svg-a" x1="0" x2="52.979" y1="8.899" y2="58.587" gradientUnits="userSpaceOnUse"><stop stop-color="#003CFF"/><stop offset=".5" stop-color="#8F8BFF"/><stop offset="1" stop-color="#C9FFF9"/></linearGradient></defs></svg>