<svg width="33" height="33" viewBox="0 0 33 33" fill="none" xmlns="http://www.w3.org/2000/svg"><path d="M16.363 1.04l3.796 3.875-9.56 9.528-3.796-3.784 9.56-9.62zm5.763 5.744l3.796 3.875L10.6 25.932l-3.796-3.784L22.126 6.784zm-17.29 5.745l3.797 3.875-3.797 3.784-3.796-3.784 3.796-3.875zm23.054 0l3.796 3.875-15.323 15.273-3.797-3.785L27.89 12.53z" fill="#F0B90B"/><path fill-rule="evenodd" clip-rule="evenodd" d="M16.365.355l4.471 4.564L10.6 15.122l-4.476-4.461L16.365.355zM7.482 10.658l3.117 3.107 8.883-8.854-3.122-3.187-8.878 8.934zM22.13 6.1l4.47 4.563-16 15.948-4.476-4.462L22.129 6.1zM7.483 22.147l3.116 3.106 14.646-14.598-3.122-3.187-14.64 14.68zM4.836 11.842l4.474 4.566-4.474 4.459-4.473-4.46 4.473-4.565zm23.056.003l4.47 4.563-16 15.947-4.476-4.461 16.006-16.05zM13.246 27.892l3.117 3.106L31.009 16.4l-3.123-3.187-14.64 14.679zM1.716 16.4l3.12 3.109 3.12-3.11-3.12-3.183-3.12 3.184z" fill="#F0B90B"/></svg>