<svg xmlns="http://www.w3.org/2000/svg" width="500" height="500" viewBox="0 0 500 500"><defs><clipPath id="byzusd_svg-a"><path d="M83.332 0h333.336C462.691 0 500 37.309 500 83.332v333.336C500 462.691 462.691 500 416.668 500H83.332C37.309 500 0 462.691 0 416.668V83.332C0 37.309 37.309 0 83.332 0m0 0"/></clipPath><clipPath id="byzusd_svg-b"><path d="M141 145h218v218H141Zm0 0"/></clipPath><clipPath id="byzusd_svg-c"><path d="M83.332 0h333.336C462.691 0 500 37.309 500 83.332v333.336C500 462.691 462.691 500 416.668 500H83.332C37.309 500 0 462.691 0 416.668V83.332C0 37.309 37.309 0 83.332 0m0 0"/></clipPath><clipPath id="byzusd_svg-d"><path d="M39 43h422v423H39Zm0 0"/></clipPath><clipPath id="byzusd_svg-e"><path d="M83.332 0h333.336C462.691 0 500 37.309 500 83.332v333.336C500 462.691 462.691 500 416.668 500H83.332C37.309 500 0 462.691 0 416.668V83.332C0 37.309 37.309 0 83.332 0m0 0"/></clipPath><clipPath id="byzusd_svg-f"><path d="M214 194h72v124h-72Zm0 0"/></clipPath><clipPath id="byzusd_svg-g"><path d="M83.332 0h333.336C462.691 0 500 37.309 500 83.332v333.336C500 462.691 462.691 500 416.668 500H83.332C37.309 500 0 462.691 0 416.668V83.332C0 37.309 37.309 0 83.332 0m0 0"/></clipPath></defs><g clip-path="url(#byzusd_svg-a)"><path d="M83.332 0h333.336C462.691 0 500 37.309 500 83.332v333.336C500 462.691 462.691 500 416.668 500H83.332C37.309 500 0 462.691 0 416.668V83.332C0 37.309 37.309 0 83.332 0m0 0" style="stroke:none;fill-rule:nonzero;fill:#fff;fill-opacity:1"/><path d="m353.164-53.582-4.906 69.508 44.695-43.14 18.57-17.927-4.574 25.399-14.176 78.582 18.805 10.847 4.363 2.512-.195 5.031-1.644 41.782 42.668 71.027 106.34 126.293 1.042 1.238.504 1.532 18.27 55.59.969 2.96-1.204 2.875-25.21 59.871-1.973 4.68-5.059.399-54.703 4.277-3.867.305-2.719-2.762-51.523-52.277-151.992-47.77 11.89 136.93.406 4.734-3.867 2.77-48.582 34.675-1.781 1.27-2.176.234-89.508 9.586-3.922.426-2.816-2.777-56.805-55.98-47.332-3.247-3.96-.27-2.282-3.253-32.047-45.614-49.078-32.062-5.512-3.598 2.223-6.203 30.813-85.742-16.954-28.328-2.367-3.965 2.098-4.11 28.582-55.898 1.293-2.539 2.582-1.203 21.883-10.29L16.87 162.5l-.14-2.629 1.402-2.23 25.722-41 1.985-3.172 3.695-.617 34.164-5.739 12.824-30.015.758-1.774 1.457-1.261 31.746-27.434 3.051-2.645 3.973.766 102.605 19.742L338.32-59.344l16.743-21.11ZM250.031 78.816l-3.14 3.965-4.957-.96L138.32 61.874l-27.226 23.543-4.38 10.234h-.007L95.449 122.04l-4.27.723-35.199 5.902-22.335 35.602.55 10.863-.015.008.144 2.402.621 12.004h.114l.82 13.477-5.102 2.402-24.574 11.531-25.172 49.242 16.61 27.766 2.027 3.387-1.336 3.71-29.926 83.258 44.914 29.348 1.336.879.918 1.3 30.684 43.669 46.457 3.199 3.086.21L98 465.087l56.176 55.375 83.398-8.938 42.942-30.648-12.547-144.578-1.082-12.402 11.879 3.726 165.855 52.125 1.977.617 1.457 1.48 50.246 50.985 45.773-3.578 22.04-52.328-16.798-51.102-105.714-125.535-.422-.512-.34-.57-44.297-73.738-1.285-2.133.097-2.492 1.54-39.23-19.516-11.258-5.086-2.93 1.039-5.77 10.629-58.949-41.746 40.317-15.633 15.085 1.527-21.671 4.536-64.325Zm0 0" style="stroke:none;fill-rule:nonzero;fill:#702963;fill-opacity:.14902"/></g><g clip-path="url(#byzusd_svg-b)"><g clip-path="url(#byzusd_svg-c)"><path d="M250 362.5c60.035 0 108.332-48.297 108.332-108.332S310.035 145.832 250 145.832s-108.332 48.3-108.332 108.336c0 60.035 48.297 108.332 108.332 108.332m0 0" style="stroke:none;fill-rule:nonzero;fill:#702963;fill-opacity:1"/></g></g><g clip-path="url(#byzusd_svg-d)"><g clip-path="url(#byzusd_svg-e)"><path d="M30 16.5c7.756 0 14 6.243 14 14s-6.244 14-14 14-14-6.243-14-14 6.244-14 14-14Zm0 0" style="fill:none;stroke-width:2;stroke-linecap:butt;stroke-linejoin:miter;stroke:#702963;stroke-opacity:.301961;stroke-miterlimit:4" transform="scale(8.33333)"/></g></g><g clip-path="url(#byzusd_svg-f)"><g clip-path="url(#byzusd_svg-g)"><path d="M244.594 317.367v-15.402h11.867v15.402Zm0-107v-15.469h11.867v15.47Zm6.867 95.801c-6.488 0-12.336-1.156-17.535-3.469q-7.73-3.531-12.735-9.933-4.997-6.463-6.53-15.2l11.667-1.933q2.133 8.867 9 14.066 6.932 5.202 16.664 5.2 9.803.002 15.867-4.731 6.069-4.733 6.067-12.203.002-5.461-3.266-8.797-3.2-3.335-10.8-5.668l-21.934-6.8q-19.665-6.133-19.664-23.466-.001-8.134 3.93-14.199 4-6.135 11.136-9.469c4.797-2.265 10.375-3.379 16.73-3.332q9.27.066 16.536 3.465 7.266 3.333 12 9.602 4.8 6.264 6.465 15l-12 2.199q-.933-5.667-4.133-9.934-3.13-4.264-8-6.601-4.863-2.399-10.934-2.465-5.665-.065-10.199 1.867-4.465 1.935-7.066 5.399-2.602 3.469-2.602 7.933.002 4.868 3.602 8.266c2.445 2.222 6.265 4.137 11.464 5.734l18 5.336q11.87 3.532 17.137 9.531 5.267 5.936 5.266 15.868c0 5.734-1.422 10.753-4.266 15.066q-4.2 6.47-11.933 10.066-7.67 3.6-17.934 3.602m0 0" style="stroke:none;fill-rule:nonzero;fill:#fff;fill-opacity:1"/></g></g></svg>