<?xml version="1.0" encoding="UTF-8"?>
<svg version="1.1" xmlns="http://www.w3.org/2000/svg" width="200" height="200">
<path d="M0 0 C66 0 132 0 200 0 C200 66 200 132 200 200 C134 200 68 200 0 200 C0 134 0 68 0 0 Z " fill="#FCFDFC" transform="translate(0,0)"/>
<path d="M0 0 C23.1 0 46.2 0 70 0 C70 18.48 70 36.96 70 56 C75.43984375 55.95359375 80.8796875 55.9071875 86.484375 55.859375 C89.92970657 55.83893788 93.37496346 55.81968229 96.8203125 55.8046875 C102.28954581 55.78077166 107.75851139 55.75247321 113.22753906 55.69824219 C117.63660873 55.65479512 122.0453913 55.63086522 126.45465851 55.62049103 C128.13721487 55.61309757 129.81975543 55.59865983 131.50218964 55.57707977 C133.85825101 55.54805997 136.21312473 55.54404325 138.56933594 55.54589844 C139.61374847 55.52432678 139.61374847 55.52432678 140.67926025 55.50231934 C143.99768095 55.53061016 145.73759852 55.804529 148.42926025 57.80963135 C150.74305672 61.03617938 150.62123806 63.13451873 150 67 C147.81336866 69.67832719 146.00317036 70.85392799 142.55997276 71.35529327 C139.38272777 71.49453733 136.22967267 71.49416544 133.04956055 71.45410156 C131.83938766 71.45468567 130.62921478 71.45526978 129.38237 71.45587158 C126.07246069 71.45356554 122.76355463 71.43353438 119.45382285 71.40557575 C115.99185386 71.38053636 112.52987089 71.37821812 109.06782532 71.37347412 C102.51590943 71.36105172 95.96426116 71.32824035 89.41246301 71.28807616 C81.21968821 71.23894475 73.02686976 71.21707711 64.83398438 71.1953125 C50.22244789 71.15637633 35.61149519 71.07624494 21 71 C21 90.14 21 109.28 21 129 C29.91644531 128.98839844 38.83289063 128.97679687 48.01953125 128.96484375 C54.37344489 128.95908707 60.72735658 128.95396037 67.08127117 128.94974613 C75.31924196 128.94419809 83.55720265 128.93714717 91.79516602 128.92456055 C98.31599344 128.91460224 104.83681326 128.90814383 111.35764807 128.90591151 C114.81128009 128.90460635 118.26489035 128.9015328 121.7185154 128.89426994 C125.57121823 128.88623334 129.42389966 128.88600961 133.27661133 128.88647461 C134.42531708 128.88287933 135.57402283 128.87928406 136.75753784 128.87557983 C137.80501694 128.8769545 138.85249603 128.87832916 139.93171692 128.87974548 C140.84337018 128.87882369 141.75502344 128.8779019 142.69430256 128.87695217 C145 129 145 129 148 130 C150.48038907 133.7205836 150.46337203 135.59796571 150 140 C148.440979 142.1942749 148.440979 142.1942749 146 144 C143.37881671 144.37454981 141.18430138 144.50811196 138.56933594 144.45410156 C137.45655273 144.45497772 137.45655273 144.45497772 136.32128906 144.45587158 C133.87517098 144.45309025 131.43027953 144.42199786 128.984375 144.390625 C127.28615993 144.38316274 125.58793624 144.37746973 123.88970947 144.37347412 C119.4244399 144.35821651 114.95969247 144.31893389 110.49462891 144.2746582 C105.13492625 144.22650574 99.7750488 144.20817206 94.41519165 144.18484497 C86.27643152 144.14608261 78.13881657 144.06943066 70 144 C70 162.48 70 180.96 70 200 C46.9 200 23.8 200 0 200 C0 134 0 68 0 0 Z " fill="#9DB7A6" transform="translate(0,0)"/>
<path d="M0 0 C33.66 0 67.32 0 102 0 C102 66 102 132 102 200 C68.34 200 34.68 200 0 200 C0 188.45 0 176.9 0 165 C3.47015625 164.96261719 6.9403125 164.92523438 10.515625 164.88671875 C13.91151903 164.84038352 17.30730805 164.78919354 20.703125 164.73754883 C23.04615794 164.70448703 25.38926694 164.67639806 27.73242188 164.65356445 C31.11881646 164.61967166 34.50452562 164.56734035 37.890625 164.51171875 C38.92237854 164.50532883 39.95413208 164.4989389 41.01715088 164.49235535 C52.12802487 164.2724538 62.34692944 162.37874663 71 155 C71.33 154.34 71.66 153.68 72 153 C72.66 153 73.32 153 74 153 C74.66 151.35 75.32 149.7 76 148 C76.66 148 77.32 148 78 148 C78.33 145.69 78.66 143.38 79 141 C79.66 141 80.32 141 81 141 C81 138.03 81 135.06 81 132 C80.34 132 79.68 132 79 132 C78.896875 131.071875 78.79375 130.14375 78.6875 129.1875 C77.95879123 125.80894117 77.42016946 125.21848867 75 123 C74.3125 120.8125 74.3125 120.8125 74 119 C73.01 119 72.02 119 71 119 C69.96810276 118.03294876 68.97181287 117.02741411 68 116 C66.0479857 114.64336573 66.0479857 114.64336573 63.875 113.4375 C63.17117187 113.02371094 62.46734375 112.60992187 61.7421875 112.18359375 C54.66322238 109.12814299 47.41822103 108.69938602 39.79858398 108.68115234 C38.82191269 108.67110672 37.84524139 108.6610611 36.838974 108.65071106 C33.64135272 108.62005535 30.44381448 108.60289314 27.24609375 108.5859375 C25.01692499 108.56721168 22.78776321 108.54763722 20.55860901 108.5272522 C14.7143873 108.47607451 8.87014265 108.43637206 3.02581787 108.39910889 C-2.94703785 108.35897897 -8.91979931 108.30792773 -14.89257812 108.2578125 C-26.59498573 108.16122336 -38.29744673 108.07676438 -50 108 C-50 102.72 -50 97.44 -50 92 C-48.19834381 91.99120064 -48.19834381 91.99120064 -46.36029053 91.98222351 C-35.00303532 91.92484002 -23.64596872 91.85199735 -12.2889061 91.76428509 C-6.45108184 91.71968836 -0.61332565 91.68040883 5.22460938 91.65356445 C10.86576088 91.62742458 16.50664893 91.58694719 22.14763641 91.53681374 C24.29240372 91.52021704 26.43721653 91.5086582 28.58203888 91.50238609 C48.72322146 91.62896358 48.72322146 91.62896358 67 84 C67.6290625 83.59523438 68.258125 83.19046875 68.90625 82.7734375 C73.4471457 79.7433573 73.4471457 79.7433573 76 75 C76.66 75 77.32 75 78 75 C78.33 72.69 78.66 70.38 79 68 C79.66 68 80.32 68 81 68 C81 64.7 81 61.4 81 58 C80.34 58 79.68 58 79 58 C78.67 55.69 78.34 53.38 78 51 C76.515 50.505 76.515 50.505 75 50 C74.67 49.01 74.34 48.02 74 47 C64.02617664 37.658663 52.1781118 35.72696426 39.0625 35.5859375 C37.94182129 35.56657135 36.82114258 35.5472052 35.66650391 35.5272522 C32.11107837 35.46779868 28.55561987 35.42120814 25 35.375 C22.5794135 35.33678873 20.15884013 35.2977352 17.73828125 35.2578125 C11.82559185 35.16055099 5.91303087 35.08070947 0 35 C0 23.45 0 11.9 0 0 Z " fill="#075F5F" transform="translate(98,0)"/>
<path d="M0 0 C15.84 0 31.68 0 48 0 C48 18.15 48 36.3 48 55 C32.16 55 16.32 55 0 55 C0 36.85 0 18.7 0 0 Z " fill="#FEFEFE" transform="translate(0,145)"/>
<path d="M0 0 C15.84 0 31.68 0 48 0 C48 18.15 48 36.3 48 55 C32.16 55 16.32 55 0 55 C0 36.85 0 18.7 0 0 Z " fill="#FEFEFE" transform="translate(0,0)"/>
<path d="M0 0 C0.33 0 0.66 0 1 0 C1 19.47 1 38.94 1 59 C-25.73 59 -52.46 59 -80 59 C-80 52.73 -80 46.46 -80 40 C-77.97359375 39.95101562 -75.9471875 39.90203125 -73.859375 39.8515625 C-71.85349897 39.79584372 -69.84762424 39.74006107 -67.84179688 39.68261719 C-66.46882902 39.64479968 -65.09577785 39.60987348 -63.72265625 39.578125 C-43.50664491 39.10523585 -26.38676735 35.68929479 -11 22 C-10.67 21.34 -10.34 20.68 -10 20 C-9.34 20 -8.68 20 -8 20 C-7.34 18.02 -6.68 16.04 -6 14 C-5.34 14 -4.68 14 -4 14 C-3.34 11.03 -2.68 8.06 -2 5 C-1.34 5 -0.68 5 0 5 C0 3.35 0 1.7 0 0 Z " fill="#FDFDFD" transform="translate(199,141)"/>
<path d="M0 0 C26.73 0 53.46 0 81 0 C81 19.14 81 38.28 81 58 C80.505 56.02 80.505 56.02 80 54 C79.34 54 78.68 54 78 54 C77.01 49.545 77.01 49.545 76 45 C75.34 45 74.68 45 74 45 C73.835 44.319375 73.67 43.63875 73.5 42.9375 C71.27559673 38.58137693 67.8166765 35.97763852 64 33 C63.49887695 32.60393555 62.99775391 32.20787109 62.48144531 31.79980469 C57.98300741 28.39425152 53.38498394 26.241471 48.125 24.25 C47.37347656 23.94707031 46.62195313 23.64414062 45.84765625 23.33203125 C35.71279252 19.42063444 25.16774486 19.74813571 14.4375 19.4375 C13.03319297 19.39420824 11.62889594 19.35059096 10.22460938 19.30664062 C6.81650347 19.20123529 3.40826349 19.10018035 0 19 C0 12.73 0 6.46 0 0 Z " fill="#FCFDFD" transform="translate(119,0)"/>
<path d="M0 0 C0.33 0 0.66 0 1 0 C1 21.12 1 42.24 1 64 C0.67 64 0.34 64 0 64 C0 62.35 0 60.7 0 59 C-0.66 59 -1.32 59 -2 59 C-2.66 56.03 -3.32 53.06 -4 50 C-4.66 50 -5.32 50 -6 50 C-6.66 48.02 -7.32 46.04 -8 44 C-8.66 44 -9.32 44 -10 44 C-11.15239083 42.84760917 -12.30073555 41.6908207 -13.42578125 40.51171875 C-16.36076693 37.69325856 -19.70612343 35.37845678 -23 33 C-21.8512638 29.55379139 -20.92418358 28.90830804 -18.0625 26.8125 C-17.35222656 26.28269531 -16.64195312 25.75289062 -15.91015625 25.20703125 C-14 24 -14 24 -12 24 C-11.34 22.68 -10.68 21.36 -10 20 C-9.34 20 -8.68 20 -8 20 C-7.34 18.02 -6.68 16.04 -6 14 C-5.34 14 -4.68 14 -4 14 C-3.34 11.69 -2.68 9.38 -2 7 C-1.34 7 -0.68 7 0 7 C0 4.69 0 2.38 0 0 Z " fill="#F7FAFA" transform="translate(199,68)"/>
<path d="M0 0 C6.93 0 13.86 0 21 0 C21 5.28 21 10.56 21 16 C14.07 16 7.14 16 0 16 C0 10.72 0 5.44 0 0 Z " fill="#9BB5A4" transform="translate(0,165)"/>
<path d="M0 0 C6.93 0 13.86 0 21 0 C21 5.28 21 10.56 21 16 C14.07 16 7.14 16 0 16 C0 10.72 0 5.44 0 0 Z " fill="#9CB6A5" transform="translate(0,19)"/>
</svg>
