<svg xmlns="http://www.w3.org/2000/svg" width="64" height="65" fill="none" viewBox="0 0 64 65"><rect width="64" height="64" y=".304" fill="#fff" rx="32"/><rect width="63" height="63" x=".5" y=".804" stroke="#070B14" stroke-opacity=".15" rx="31.5"/><path fill="#000" fill-rule="evenodd" d="M54.797 30.361c.428-1.167 2.219-1.721 3.297-1.721h.49v2.59c-.615 0-1.242-.033-1.833.169a2.26 2.26 0 0 0-1.05.711c-.503.678-.461 1.097-.5 1.733-.038.618-.021 1.04-.021 1.66v4.594h-2.832V28.756h2.454zm-34.426 7.05c-2.028 1.985-3.778 2.945-6.659 2.945-4.797 0-8.11-3.35-8.11-8.07 0-4.845 3.757-8.026 8.156-8.026a8.82 8.82 0 0 1 6.68 3.074l-2.052 1.964c-1.388-1.473-2.902-2.241-4.695-2.241-2.879 0-5.228 2.22-5.228 5.23 0 3.16 2.262 5.273 5.292 5.273 1.899 0 3.18-.768 4.63-2.22zm12.149.423c-1.216 1.73-2.82 2.503-5.207 2.503-3.607 0-5.932-2.647-5.932-5.977 0-3.095 2.24-5.957 5.89-5.957 3.584 0 6.017 2.563 6.017 6.149 0 .257-.02.384-.02.64h-9.135c.277 1.687 1.56 2.626 3.18 2.626 1.216 0 2.028-.341 2.817-1.11zm-2.092-4.889c-.383-1.32-1.6-2.134-3.118-2.134-1.408 0-2.497.704-3.05 2.134zm4.298-8.623h2.837v15.716h-2.837zm15.415 13.512c-1.216 1.73-2.817 2.503-5.207 2.503-3.607 0-5.932-2.647-5.932-5.977 0-3.095 2.24-5.957 5.89-5.957 3.584 0 6.018 2.563 6.018 6.149 0 .257-.022.384-.022.64h-9.134c.277 1.687 1.56 2.626 3.18 2.626 1.217 0 2.028-.341 2.817-1.11zm-2.091-4.889c-.384-1.32-1.6-2.134-3.119-2.134-1.408 0-2.495.704-3.05 2.134z" clip-rule="evenodd"/></svg>