<svg width="400" height="400" viewBox="0 0 400 400" fill="none" xmlns="http://www.w3.org/2000/svg">
<path d="M130.988 23.0063C36.5882 57.8064 10.9882 148.506 9.98816 189.506C80.7882 193.906 139.822 236.006 160.488 256.506C143.288 156.906 179.655 95.673 199.988 77.5064C186.788 53.9064 148.488 31.3397 130.988 23.0063Z" fill="white"/>
<path d="M268.483 23.0063C362.883 57.8064 388.483 148.506 389.483 189.506C318.683 193.906 259.649 236.006 238.983 256.506C256.183 156.906 219.816 95.673 199.483 77.5064C212.683 53.9064 250.983 31.3397 268.483 23.0063Z" fill="white"/>
<path d="M134.499 20.9988L199.999 75.9988L265.499 20.9988C212.299 -1.00119 155.999 11.8321 134.499 20.9988Z" fill="#0032A0"/>
<path d="M195.988 335.007L131.988 377.007L195.988 392.007V335.007Z" fill="#DA291C"/>
<path d="M204.489 335.007L268.489 377.007L204.489 392.007V335.007Z" fill="#DA291C"/>
<path d="M199.497 78.498C167.164 112.665 121.897 211.098 199.497 331.498C232.497 286.165 278.696 172.098 199.497 78.498Z" fill="#0032A0"/>
<path d="M136.111 377.503C32.1112 340.703 10.1112 238.836 12.1112 192.503C122.511 188.903 183.111 284.003 199.611 332.003L136.111 377.503Z" fill="#DA291C"/>
<path d="M264.496 377.503C368.496 340.703 390.496 238.836 388.496 192.503C278.096 188.903 217.496 284.003 200.996 332.003L264.496 377.503Z" fill="#DA291C"/>
<g clip-path="url(#clip0_4523_1724)">
<mask id="mask0_4523_1724" style="mask-type:luminance" maskUnits="userSpaceOnUse" x="18" y="18" width="364" height="364">
<path d="M381.806 199.993C381.806 99.5775 300.404 18.1748 199.988 18.1748C99.5727 18.1748 18.1699 99.5775 18.1699 199.993C18.1699 300.408 99.5727 381.811 199.988 381.811C300.404 381.811 381.806 300.408 381.806 199.993Z" fill="white"/>
</mask>
<g mask="url(#mask0_4523_1724)">
<path d="M345.43 390.906C450.867 390.906 536.339 305.433 536.339 199.997C536.339 94.5604 450.867 9.08761 345.43 9.08762C239.994 9.08763 154.521 94.5604 154.521 199.997C154.521 305.433 239.994 390.906 345.43 390.906Z" stroke="black" stroke-width="18.1818"/>
<path d="M54.5303 390.906C-50.9059 390.906 -136.379 305.433 -136.379 199.997C-136.379 94.5603 -50.9059 9.08762 54.5303 9.08762C159.967 9.08762 245.439 94.5603 245.439 199.997C245.439 305.433 159.967 390.906 54.5303 390.906Z" stroke="black" stroke-width="18.1818"/>
<path d="M390.891 572.728C496.327 572.728 581.8 487.255 581.8 381.819C581.8 276.382 496.327 190.91 390.891 190.91C285.454 190.91 199.982 276.382 199.982 381.819C199.982 487.255 285.454 572.728 390.891 572.728Z" stroke="black" stroke-width="18.1818"/>
<path d="M9.0805 572.728C-96.3559 572.728 -181.829 487.255 -181.829 381.819C-181.829 276.382 -96.3559 190.91 9.08045 190.91C114.517 190.91 199.99 276.382 199.99 381.819C199.99 487.255 114.517 572.728 9.0805 572.728Z" stroke="black" stroke-width="18.1818"/>
</g>
<path d="M390.892 199.993C390.892 94.5568 305.419 9.08389 199.983 9.08389C94.5467 9.08389 9.07373 94.5568 9.07373 199.993C9.07373 305.429 94.5467 390.902 199.983 390.902C305.419 390.902 390.892 305.429 390.892 199.993Z" stroke="black" stroke-width="18.1818"/>
</g>
<defs>
<clipPath id="clip0_4523_1724">
<rect width="400" height="400" fill="white"/>
</clipPath>
</defs>
</svg>
