<svg xmlns="http://www.w3.org/2000/svg" width="400" height="400" fill="none" viewBox="0 0 400 400"><path fill="#fff" d="M130.988 23.006c-94.4 34.8-120 125.5-121 166.5 70.8 4.4 129.834 46.5 150.5 67-17.2-99.6 19.167-160.833 39.5-179-13.2-23.6-51.5-46.166-69-54.5"/><path fill="#fff" d="M268.483 23.006c94.4 34.8 120 125.5 121 166.5-70.8 4.4-129.834 46.5-150.5 67 17.2-99.6-19.167-160.833-39.5-179 13.2-23.6 51.5-46.166 69-54.5"/><path fill="#0032A0" d="m134.499 20.999 65.5 55 65.5-55c-53.2-22-109.5-9.167-131 0"/><path fill="#DA291C" d="m195.988 335.007-64 42 64 15zm8.501 0 64 42-64 15z"/><path fill="#0032A0" d="M199.497 78.498c-32.333 34.167-77.6 132.6 0 253 33-45.333 79.199-159.4 0-253"/><path fill="#DA291C" d="M136.111 377.503c-104-36.8-126-138.667-124-185 110.4-3.6 171 91.5 187.5 139.5zm128.385 0c104-36.8 126-138.667 124-185-110.4-3.6-171 91.5-187.5 139.5z"/><g clip-path="url(#chlt_svg-a)"><mask id="chlt_svg-b" width="364" height="364" x="18" y="18" maskUnits="userSpaceOnUse" style="mask-type:luminance"><path fill="#fff" d="M381.806 199.993c0-100.415-81.402-181.818-181.818-181.818-100.415 0-181.818 81.403-181.818 181.818s81.403 181.818 181.818 181.818 181.818-81.403 181.818-181.818"/></mask><g stroke="#000" stroke-width="18.182" mask="url(#chlt_svg-b)"><path d="M345.43 390.906c105.437 0 190.909-85.473 190.909-190.909 0-105.437-85.472-190.91-190.909-190.91S154.521 94.56 154.521 199.998s85.473 190.909 190.909 190.909Z"/><path d="M54.53 390.906c-105.436 0-190.909-85.473-190.909-190.909 0-105.437 85.473-190.91 190.91-190.91s190.908 85.473 190.908 190.91S159.967 390.906 54.53 390.906Z"/><path d="M390.891 572.728c105.436 0 190.909-85.473 190.909-190.909 0-105.437-85.473-190.909-190.909-190.909-105.437 0-190.909 85.472-190.909 190.909s85.472 190.909 190.909 190.909Z"/><path d="M9.08 572.728c-105.436 0-190.909-85.473-190.909-190.909 0-105.437 85.473-190.909 190.91-190.909S199.99 276.382 199.99 381.819 114.517 572.728 9.08 572.728Z"/></g><path stroke="#000" stroke-width="18.182" d="M390.892 199.993c0-105.436-85.473-190.91-190.909-190.91S9.073 94.558 9.073 199.994s85.474 190.909 190.91 190.909 190.909-85.473 190.909-190.909Z"/></g><defs><clipPath id="chlt_svg-a"><path fill="#fff" d="M0 0h400v400H0z"/></clipPath></defs></svg>