<svg xmlns="http://www.w3.org/2000/svg" width="64" height="65" fill="none" viewBox="0 0 64 65"><rect width="64" height="64" y=".304" fill="#14E5BF" rx="32"/><rect width="63" height="63" x=".5" y=".804" stroke="#070B14" stroke-opacity=".15" rx="31.5"/><path fill="#fff" fill-rule="evenodd" d="m37.087 10.97-3.5 1.987v16.872l1.91 1.085V18.066l6.562 3.725.006-.003 1.274.722 1.064-.6v-1.014l-8.905-5.048V14.09l1.589-.902 9.222 5.236v4.66l-4.428 2.498-.148-.073a1.9 1.9 0 0 0-.83-.201c-1.054 0-1.91.868-1.91 1.936 0 1.067.856 1.935 1.91 1.935.978 0 1.79-.747 1.89-1.738l.017-.167 4.468-2.522 4.144 2.353v10.408l-4.148 2.353-16.861-9.573V12.957l-3.5-1.987-11.132 6.321v5.767l-5.114 2.9v12.678l5.114 2.903v5.777l11.132 6.321 3.5-1.987V34.741l-1.911-1.085v12.886l-7.841-4.444-1.064.6v1.014l8.905 5.049v1.755l-1.589.902-9.222-5.236v-4.66l4.428-2.497.148.073c.27.133.55.2.83.2 1.053 0 1.91-.868 1.91-1.935s-.857-1.936-1.91-1.936c-.977 0-1.79.748-1.89 1.739l-.017.167-4.468 2.521-4.144-2.352V27.093l4.149-2.353 16.86 9.574V51.65l3.5 1.987 11.133-6.32v-5.768l5.113-2.9V25.972L48.22 23.07v-5.78zM17.69 18.425l9.222-5.236 1.589.902v1.755l-10.81 6.129zm.992 5.207 9.819-5.568v11.144zM35.498 35.4l9.82 5.577-9.82 5.567zm0 15.118v-1.755l10.811-6.13v3.55l-9.222 5.236z" clip-rule="evenodd"/></svg>