<svg xmlns="http://www.w3.org/2000/svg" width="200" height="202" fill="none" viewBox="0 0 200 202"><path fill="#FFC74E" d="M199.991 100c-.055-7.38-4.912-11.621-11.251-14.707-14.444-7.035-28.879-14.088-43.032-21.669-3.629-1.947-7.14-5.36-9.087-8.973-7.759-14.407-15.008-29.087-22.166-43.803C111.326 4.414 107.06-.1 99.575.01c-.428 0-.838.027-1.238.064-.109-.018-.209-.046-.327-.073-.046.046-.091.082-.137.127-6.048.738-9.705 4.851-12.433 10.448-7.168 14.707-14.399 29.396-22.13 43.812-1.947 3.631-5.367 7.144-8.978 9.092C39.68 71.387 24.717 78.722 9.8 86.139 4.05 89.008.122 92.866.004 99.765c0 .427 0 .837.018 1.237-.018.401-.028.81-.018 1.238.118 6.899 4.047 10.757 9.796 13.615 14.917 7.417 29.879 14.753 44.532 22.661 3.611 1.948 7.031 5.461 8.978 9.092 7.731 14.416 14.962 29.105 22.13 43.812 2.728 5.597 6.394 9.719 12.433 10.447.046.046.091.082.137.128.109-.018.209-.046.327-.073.4.036.819.064 1.237.064 7.495.118 11.761-4.396 14.89-10.83 7.158-14.716 14.408-29.405 22.166-43.803 1.947-3.613 5.458-7.026 9.087-8.973 14.153-7.581 28.588-14.634 43.032-21.669 6.339-3.086 11.196-7.327 11.251-14.707 0-.346-.018-.674-.036-1.002.018-.327.036-.664.036-1.001z"/></svg>