<svg xmlns="http://www.w3.org/2000/svg" width="40" height="40" fill="none" viewBox="0 0 40 40"><g clip-path="url(#cmcsaon_svg-a)"><path fill="#E0DFEE" d="M20 0c11.046 0 20 8.954 20 20s-8.954 20-20 20S0 31.046 0 20 8.954 0 20 0"/><path fill="#645FAA" d="M26 6a8 8 0 0 1 8 8v12a8 8 0 0 1-8 8H14a8 8 0 0 1-8-8V14a8 8 0 0 1 8-8z"/><path fill="#fff" d="M11.264 21.82c.592-.283 1.417-.22 1.96.13l5.56 3.869-6.637-.005c-.691.019-1.278-.273-1.719-.807-.444-.557-.565-1.455-.256-2.11.202-.448.633-.897 1.092-1.077m15.511.13c.543-.35 1.37-.413 1.962-.13.458.18.889.628 1.09 1.077.31.656.189 1.553-.255 2.11-.44.534-1.029.826-1.72.807l-6.637.005zm-2.289-3.945c.445-.79 1.293-1.19 2.19-1.069.615.112 1.23.512 1.527 1.104.364.62.282 1.558-.122 2.133-.25.404-.664.606-1.014.87l-5.597 3.843h-.013l.062-.184zm-11.602-.947a2.134 2.134 0 0 1 2.603.947l3.088 6.88h-.05l-6.225-4.29a2.05 2.05 0 0 1-.678-2.142 2.15 2.15 0 0 1 1.262-1.395m8.488-2.724c.713-.413 1.718-.3 2.337.228.252.224.464.485.584.777.327.66.135 1.525-.206 2.118l-2.644 5.947-.023.028-.955-6.033c-.077-.58.542-.826.907-1.105-.019-.085-.113-.08-.171-.12l-.894-.01-.027-.027a2.05 2.05 0 0 1 1.092-1.803m-5.208.35c.57-.58 1.508-.736 2.254-.422.395.17.772.484 1.005.87.216.4.341.854.265 1.356l-1.078 6.908c.006.008-.004.017-.012.021l-.28-.555-2.701-6.033c-.251-.777-.019-1.589.547-2.146"/></g><defs><clipPath id="cmcsaon_svg-a"><path fill="#fff" d="M0 0h40v40H0z"/></clipPath></defs></svg>