<svg xmlns="http://www.w3.org/2000/svg" width="40" height="40" fill="none" viewBox="0 0 40 40"><g clip-path="url(#cmgon_svg-a)"><path fill="#DAD0CC" d="M20 0c11.046 0 20 8.954 20 20s-8.954 20-20 20S0 31.046 0 20 8.954 0 20 0"/><path fill="#451500" d="M26 6a8 8 0 0 1 8 8v12a8 8 0 0 1-8 8H14a8 8 0 0 1-8-8V14a8 8 0 0 1 8-8z"/><path fill="#fff" d="M25.065 10c.172.034.928.275.928.275s.722 1.066.928 1.306c.172.241.104.379.104.379l-.344 1.306c-.138-.103-1.1-.035-1.341 0-.24.034.206-.275.31-.378.103-.104.515-.413.48-.55-.034-.172-.687-1.375-.687-1.375s-1.1 0-1.616.068c-.515.07-1.615 1.17-1.615 1.17l-.413 1.58s.172.275.378.482c.241.172.894.137 1.135.103.24-.034.137.275-.069.447s-.962.172-.962.172l.309.103c.344.31.962 1.925 1.34 2.303s0 2.235-.55 2.785-.79 1.684-1.1 1.993c-.309.31-.653.207-.309.55s.172.757.24 1.032c.035.206.104.55.241.687.172.172 2.647 1.891 3.61 1.96.172 0 .172.893-.825 1.96 0 0-.172.618-1.89.687-1.857.068-3.68-.24-4.092-.24s-1.65-.688-1.65-.688c-.24 0-3.85-5.363-3.85-5.741 0-.379-.275-1.375-.275-1.754 0-.378.447-3.781.378-4.193-.069-.31.103-.413.481-.757.379-.378 1.032-.997 1.307-1.272.103-.103.997-.103 2.097-.31l.172-.068-.207-.103s-.343-.447-.893-.413-.757.07-.447-.068c.275-.138.825-.516.825-.516l1.237.55h.653l1.17-.963 2.646-2.13zm-8.182 6.772c-.31.069-.825-.034-1.065.413l-.413 1.96s.035 1.959.103 2.337c.035.378.55 1.65.825 1.925.24.24.482 1.066.929 1.512.103.104.378.172.446.31.172.24.344.069 0-.413-1.203-1.787-1.478-3.334-1.512-3.575-.138-.584-.035-1.925 0-2.475.034-.275.206-.928.412-1.066.103-.068.928-.171 1.066-.206.275-.069.619-.069.86-.103.756-.172 1.89.24 1.993.275 1.135.516.688.722.722.756.035.07-1.581 3.266-1.581 3.438s.069 1.753.206 2.2c.035.138.55 1.34.653 1.581.413.963-.86-.171-.928-.206s-1.478-2.887-1.719-3.506c-.172-.413-.103-1.032-.069-1.135.035-.172-.068-1.547.172-1.753.172-.137.688-.206 1.066-.034.344.137.516.515.481.618-.034.07-.55 1.823-.653 1.685-.034-.034-.034-.584-.103-.653-.103-.103-.24-.172-.275-.103-.034.068-.137.653-.103.86.24.962.55.652.653.48.172-.275.928-2.406.894-2.543-.035-.31-.275-.86-.756-1.032-.31-.103-1.307-.034-1.685.138-.55.275-.516 2.75-.412 3.094.103.343 1.547 3.231 1.615 3.437.172.447 1.204 1.444 1.341 1.547.069.035 1.478.585 1.65.31.069-.138.034-.447-.31-.688-.343-.206-1.134-2.578-1.134-2.75s-.206-1.478-.069-1.753c.276-.516 2.2-3.404 1.994-3.644-.275-.31-1.134-1.753-1.547-1.203-.378.48-1.822 0-2.268-.344 0 .034-.997.24-1.479.31m5.57 11.104c.55 0 2.096-.825 1.546-1.203-.378-.24-.79-.55-1.581-1.17-.344-.274-.516-.205-.619-.205-.31 0 .207-.516.035-.963-.207-.447-.31-1.169-.447-1.34-.172-.172-.104-1.032.24-1.376.379-.378.894-1.444 1.204-1.856.343-.481.584-1.581.446-1.719-.137-.137-.79-1.478-1.065-1.753-.172-.172-.482-.619-.757-.997l-.068-.103-.31.172c-.31.172-.687.515-.687.515s-.275.07-.86-.034c-.31-.069-.447-.275-.447-.55s-.171-.206-.171-.206-2.75.137-2.991.275c-.207.137-1.169 1.444-1.169 1.444s-.516 5.019-.103 5.431c.481.481 2.681 4.366 3.128 4.813.481.687 4.125.825 4.675.825"/></g><defs><clipPath id="cmgon_svg-a"><path fill="#fff" d="M0 0h40v40H0z"/></clipPath></defs></svg>