<svg xmlns="http://www.w3.org/2000/svg" width="40" height="40" fill="none" viewBox="0 0 40 40"><g clip-path="url(#coinon_svg-a)"><path fill="#CCDCFF" d="M20 0c11.046 0 20 8.954 20 20s-8.954 20-20 20S0 31.046 0 20 8.954 0 20 0"/><path fill="#0052FF" d="M26 6a8 8 0 0 1 8 8v12a8 8 0 0 1-8 8H14a8 8 0 0 1-8-8V14a8 8 0 0 1 8-8z"/><g clip-path="url(#coinon_svg-b)"><path fill="#fff" d="M20.162 14.36c2.264 0 4.06 1.396 4.742 3.473h4.561c-.826-4.44-4.49-7.448-9.267-7.448-5.426 0-9.663 4.118-9.663 9.633 0 5.516 4.131 9.597 9.663 9.597 4.67 0 8.407-3.008 9.234-7.485h-4.528c-.647 2.077-2.442 3.51-4.708 3.51-3.126 0-5.317-2.4-5.317-5.622.002-3.259 2.158-5.658 5.283-5.658"/></g></g><defs><clipPath id="coinon_svg-a"><path fill="#fff" d="M0 0h40v40H0z"/></clipPath><clipPath id="coinon_svg-b"><path fill="#fff" d="M10 10h20v20H10z"/></clipPath></defs></svg>