<svg xmlns="http://www.w3.org/2000/svg" width="64" height="65" fill="none" viewBox="0 0 64 65"><rect width="64" height="64" y=".304" fill="#EFB914" rx="32"/><rect width="63" height="63" x=".5" y=".804" stroke="#070B14" stroke-opacity=".15" rx="31.5"/><path fill="#fff" fill-rule="evenodd" d="M42.004 20.014A15.9 15.9 0 0 1 48 30.86l-5.694-1.416a10.71 10.71 0 0 0-7.72-7.334c-5.732-1.426-11.52 1.982-12.93 7.612s2.1 11.35 7.834 12.776a10.75 10.75 0 0 0 10.268-2.86l5.694 1.414a15.95 15.95 0 0 1-10.4 6.77l-1.62 6.482-5.192-1.29 1.288-5.15a16.6 16.6 0 0 1-2.596-.646l-1.286 5.15-5.192-1.292 1.62-6.482c-4.756-3.75-7.15-9.992-5.608-16.162s6.594-10.562 12.56-11.646l1.62-6.482 5.192 1.29-1.288 5.15c.881.145 1.75.36 2.596.646l1.286-5.15 5.192 1.292z" clip-rule="evenodd"/></svg>