<svg version="1.2" xmlns="http://www.w3.org/2000/svg" viewBox="0 0 300 300" width="300" height="300"><path d="M131.5.69c-1.65.21-6.6 1.09-11 1.96-4.4.86-11.6 2.69-16 4.07-4.4 1.37-12.5 4.61-18 7.19S73.12 20.78 69 23.44c-4.13 2.66-10.65 7.44-14.5 10.61-3.85 3.17-9.55 8.4-12.67 11.61-3.12 3.21-8.86 10.11-12.76 15.34-3.9 5.22-9.78 14.9-13.07 21.5-3.29 6.6-7.36 16.28-9.05 21.5-1.69 5.22-3.99 14.9-5.12 21.5C.08 135.68-.15 140.16.32 155c.39 12.48 1.15 20.08 2.62 26.5 1.14 4.95 3.03 11.93 4.2 15.5 1.17 3.57 4.23 11 6.79 16.5 2.57 5.5 6.85 13.38 9.51 17.5 2.66 4.13 7.44 10.65 10.61 14.5 3.17 3.85 8.4 9.55 11.61 12.67 3.21 3.12 10.12 8.86 15.34 12.76 5.22 3.9 14.9 9.78 21.5 13.07 6.6 3.29 16.28 7.36 21.5 9.05 5.22 1.69 14.9 3.99 21.5 5.12 10.18 1.75 14.66 1.98 29.5 1.51 12.48-.39 20.08-1.15 26.5-2.62 4.95-1.14 11.93-3.03 15.5-4.2 3.57-1.17 11-4.23 16.5-6.79 5.5-2.57 13.38-6.85 17.5-9.51 4.13-2.66 10.65-7.44 14.5-10.61 3.85-3.17 9.55-8.4 12.67-11.61 3.12-3.21 8.86-10.12 12.76-15.34 3.9-5.22 9.78-14.9 13.07-21.5 3.29-6.6 7.36-16.28 9.05-21.5 1.69-5.22 3.99-14.9 5.12-21.5 1.75-10.18 1.98-14.66 1.51-29.5-.39-12.48-1.15-20.08-2.62-26.5-1.14-4.95-3.03-11.92-4.2-15.5-1.17-3.58-4.23-11-6.79-16.5-2.57-5.5-6.85-13.38-9.51-17.5-2.66-4.13-7.44-10.65-10.61-14.5-3.17-3.85-8.4-9.55-11.61-12.67-3.21-3.12-10.12-8.86-15.34-12.76-5.22-3.9-14.9-9.78-21.5-13.07-6.6-3.29-16.28-7.36-21.5-9.05-5.22-1.68-14.56-3.94-20.75-5.01-8.13-1.4-15.34-1.9-26-1.79-8.11.08-16.1.32-17.75.54z" fill="#fff"/><path d="M126.54 181.65c-.45 2.67-.57 9.35-.26 14.85.36 6.37 1.33 12.18 2.69 16 1.17 3.3 3.51 8.7 5.21 12 1.69 3.3 4.74 8.25 6.77 11 2.03 2.75 5.01 6.05 6.62 7.34l2.93 2.35c6.2-6.81 9.77-11.47 11.94-14.74 2.17-3.27 5.03-8.65 6.36-11.95 1.33-3.3 3.03-8.93 3.79-12.5.76-3.57 1.39-10.1 1.4-14.5.02-4.4-.14-9.5-.35-11.34-.35-3.08-.61-3.3-3.26-2.79-1.58.31-6.93 1.1-11.88 1.77-7.07.96-10.82.96-17.5 0-4.68-.67-9.65-1.47-11.06-1.78-2.41-.53-2.62-.26-3.4 4.29z" fill="#ff1001"/><path d="M136 37.5c-5.22 1.27-11.97 3.4-15 4.72-3.03 1.33-8.2 4.23-11.5 6.45-3.3 2.21-8.7 6.98-12 10.58-3.3 3.6-7.46 8.95-9.25 11.9-1.8 2.94-4.7 9.4-6.46 14.35-3 8.42-3.21 9.88-3.25 22.67-.02 7.51.18 13.88.46 14.14.28.26 3.42-.18 7-.98s11-1.47 16.5-1.49c6.85-.02 12.36.59 17.5 1.94 4.13 1.09 10.31 3.38 13.75 5.1 3.44 1.72 8.5 4.69 11.25 6.62l5 3.5c7.36-5.24 12.65-8.33 16.5-10.25 3.85-1.93 10.15-4.19 14-5.03 3.85-.84 9.47-1.8 12.5-2.14 3.19-.35 9.27.01 14.5.87 4.95.81 9.9 1.61 11 1.76 1.76.26 2.1-.53 2.91-6.71.59-4.52.53-10.01-.15-15.5-.59-4.67-2.04-11.42-3.23-15s-3.88-9.42-5.97-13c-2.1-3.58-6.23-9.15-9.18-12.39-2.96-3.24-8.08-7.82-11.38-10.18-3.3-2.36-8.7-5.48-12-6.95-3.3-1.46-10.61-3.74-16.25-5.07-5.64-1.32-11.94-2.37-14-2.32-2.06.06-8.03 1.14-13.25 2.41z" fill="#0079cc"/><path d="M146.45 141.27c-2.17 1.91-6.06 6.56-8.63 10.35-2.57 3.78-5.43 8.9-6.35 11.38-.92 2.47-2.19 6.59-2.82 9.15l-1.15 4.65c10.07 2.09 17.5 2.68 23 2.65 5.5-.02 12.7-.63 16-1.35l6-1.3c-1.02-4.88-2.34-9-3.6-12.3-1.25-3.3-4.41-9.15-7.01-13-2.6-3.85-6.25-8.5-8.11-10.34l-3.38-3.35z" fill="#000700"/><path d="M219.39 125.86c-.32 2-1.68 6.34-3.04 9.64-1.36 3.3-4.41 8.93-6.79 12.5-2.38 3.57-7.19 9.15-10.69 12.39-3.51 3.23-9.29 7.6-12.87 9.71-3.57 2.11-7.85 4.3-9.5 4.88l-3 1.06c.6 15.86.23 23.61-.44 27.46-.66 3.85-2.43 10.15-3.92 14-1.5 3.85-4.5 9.67-6.68 12.94-2.18 3.27-5.86 8-8.18 10.5l-4.23 4.56c8.87 6.47 14.38 9.69 17.95 11.32 3.58 1.64 9.99 3.7 14.25 4.58 4.26.88 11.46 1.59 16 1.58 4.54-.01 11.4-.69 15.25-1.51 3.85-.82 11.05-3.46 16-5.87 6.37-3.1 11.16-6.39 16.37-11.24 4.06-3.77 9.28-9.79 11.62-13.36 2.33-3.57 5.4-9.43 6.82-13 1.42-3.57 3.11-8.97 3.76-12 .72-3.37.99-10.33.7-18-.3-8.15-1.07-14.24-2.2-17.5-.95-2.75-3.31-8.15-5.24-12-1.92-3.85-5.15-9.01-7.17-11.46-2.01-2.46-4.58-5.38-5.7-6.5s-4.04-3.7-6.5-5.74c-2.45-2.03-8.41-5.69-13.23-8.13l-8.77-4.44z" fill="#ff80d7"/><path d="M191.5 119.67c-1.65.21-6.38 1.1-10.5 1.97-4.13.88-10.65 3.17-14.5 5.1-3.85 1.93-9.14 5.02-11.75 6.88L150 137c8.14 9.13 12.2 14.65 14.29 18.14 2.08 3.5 4.78 9.64 6 13.64 2.09 6.87 2.35 7.25 4.71 6.69 1.38-.32 5.82-2.47 9.88-4.78 4.05-2.3 10.3-6.89 13.87-10.19 3.57-3.3 8.44-8.93 10.82-12.5 2.37-3.57 5.41-9.2 6.76-12.5 1.34-3.3 2.72-7.46 3.05-9.25.57-3 .37-3.32-2.63-4.2-1.79-.53-6.74-1.43-11-2-4.26-.58-8.54-.98-9.5-.9-.96.08-3.1.32-4.75.52z" fill="#003dac"/><path d="M73.8 125.38c-2.91 1.2-7.97 3.97-11.23 6.15-3.27 2.19-8.6 6.67-11.86 9.97-3.25 3.3-7.67 8.93-9.8 12.5-2.14 3.57-5.07 9.88-6.5 14-1.43 4.13-3.01 11.1-3.5 15.5-.49 4.4-.64 10.25-.33 13s1.03 7.47 1.6 10.5c.57 3.03 2.16 8.2 3.53 11.5 1.38 3.3 4.42 8.93 6.77 12.5 2.35 3.57 7.59 9.59 11.65 13.36 5.21 4.85 10 8.14 16.37 11.24 4.95 2.41 12.15 5.05 16 5.87 3.85.82 10.71 1.5 15.25 1.51 4.54.01 11.74-.7 16-1.59 4.26-.88 10-2.6 12.75-3.82 2.75-1.22 7.47-3.85 10.5-5.84 3.03-2 6.4-4.32 7.5-5.16 1.97-1.5 1.95-1.56-.93-3.8-1.61-1.25-4.59-4.52-6.63-7.27-2.03-2.75-5.27-8.15-7.19-12-1.92-3.85-4.34-9.47-5.37-12.5-1.5-4.4-1.88-8.44-1.88-20.21v-14.71c-6.2-2.32-11.37-5.19-15.5-7.87-4.12-2.68-10.2-7.8-13.5-11.37-3.3-3.58-7.46-8.94-9.25-11.92-1.79-2.98-4.58-9.09-6.2-13.58l-2.95-8.15z" fill="#ff1e00"/><path d="M90.5 120.57c-4.95.8-9.45 1.91-10 2.47q-1 1.01 1.5 8.21c1.38 3.95 4.08 9.87 6 13.16 1.92 3.28 6.2 8.87 9.5 12.42 3.3 3.54 8.7 8.27 12 10.49 3.3 2.22 8.25 5.08 11 6.35 2.75 1.27 5.56 2.31 6.25 2.32.69.01 1.25-.67 1.25-1.49s1.15-4.76 2.56-8.75c1.41-3.99 4.67-10.35 7.25-14.13 2.58-3.79 6.38-8.4 8.44-10.25 2.06-1.85 3.75-3.59 3.75-3.87 0-.27-2.25-2.07-5-4-2.75-1.93-7.81-4.9-11.25-6.62-3.44-1.72-9.4-3.92-13.25-4.89-3.85-.96-10.15-2.01-14-2.32-4.14-.32-10.67.04-16 .9z" fill="#010f00"/></svg>