<svg xmlns="http://www.w3.org/2000/svg" fill="none" viewBox="0 0 40 40"><g fill-rule="evenodd" clip-path="url(#conv_svg-a)" clip-rule="evenodd"><path fill="#EB5757" d="M28.813 28.865A12.46 12.46 0 0 1 20 32.5c-6.904 0-12.5-5.596-12.5-12.5S13.096 7.5 20 7.5a12.46 12.46 0 0 1 8.813 3.635l5.303-5.303A19.94 19.94 0 0 0 20 0C8.954 0 0 8.954 0 20s8.954 20 20 20c5.51 0 10.499-2.228 14.116-5.832z"/><path fill="#6D6EF3" d="M37.097 9.617 26.715 20l10.382 10.382A19.9 19.9 0 0 0 40 20c0-3.801-1.06-7.355-2.903-10.382"/></g><defs><clipPath id="conv_svg-a"><path fill="#fff" d="M0 0h40v40H0z"/></clipPath></defs></svg>