<svg xmlns="http://www.w3.org/2000/svg" width="64" height="65" fill="none" viewBox="0 0 64 65"><g clip-path="url(#coreum_svg-a)"><rect width="64" height="64" y=".304" fill="#fff" rx="32"/><path fill="#25D695" fill-rule="evenodd" d="M32 .304c17.674 0 32 14.325 32 32 0 17.674-14.326 32-32 32s-32-14.326-32-32c0-17.675 14.326-32 32-32" clip-rule="evenodd"/><path fill="#fff" d="M25.79 31.732c0 .1 0 .192.012.291.007.08.026.16.033.241.013.105.026.204.052.304.013.068.033.136.052.204.026.105.052.216.085.315.02.062.046.124.065.186.04.105.079.217.124.316.026.062.06.117.085.18q.07.149.15.29c.04.068.085.136.124.204.052.08.098.161.15.242l.196.26.117.148c.105.124.216.235.327.353a.1.1 0 0 1 .02.025 5.9 5.9 0 0 0 4.11 1.652c2.916 0 5.324-2.073 5.683-4.747 0-.024.007-.05.013-.074q.018-.178.026-.365c0-.062.013-.118.013-.18v-.08c0-.074-.006-.142-.013-.217 0-.099 0-.204-.013-.303-.006-.087-.026-.173-.039-.26-.013-.086-.026-.18-.046-.266a4 4 0 0 0-.11-.42l-.02-.075c-.698-2.253-2.897-3.899-5.5-3.899-1.951 0-3.674.928-4.712 2.346q.001.001-.006.012-.11.157-.209.316c-.032.049-.065.092-.091.142q-.067.12-.124.241c-.04.08-.085.161-.124.242-.033.068-.052.136-.085.204q-.061.149-.11.297c-.027.068-.04.142-.06.21-.026.1-.058.204-.084.303-.02.081-.026.162-.046.248a5 5 0 0 0-.046.291c-.013.093-.013.186-.02.279 0 .08-.012.16-.012.24v.075c0 .08.006.155.013.235z"/><path fill="#fff" d="M31.662 10c-6.302 0-12.006 2.417-16.131 6.324l1.143 1.123c2.287 2.159 4.58 4.33 6.893 6.527 2.06-1.976 4.925-3.203 8.095-3.203 6.276 0 11.363 4.804 11.363 10.729 0 5.926-5.087 10.728-11.363 10.728-3.157 0-6.01-1.214-8.069-3.177l-8.16 7.527C19.565 50.54 25.308 53 31.662 53c12.578 0 22.771-9.624 22.771-21.5S44.233 10 31.662 10"/></g><rect width="63" height="63" x=".5" y=".804" stroke="#070B14" stroke-opacity=".15" rx="31.5"/><defs><clipPath id="coreum_svg-a"><rect width="64" height="64" y=".304" fill="#fff" rx="32"/></clipPath></defs></svg>