<svg width="64" height="65" viewBox="0 0 64 65" fill="none" xmlns="http://www.w3.org/2000/svg">
<rect y="0.303711" width="64" height="64" rx="32" fill="white"/>
<rect x="0.5" y="0.803711" width="63" height="63" rx="31.5" stroke="#070B14" stroke-opacity="0.15"/>
<path d="M32.3376 20.9727V11.0959C20.6375 11.0959 11.1628 20.5711 11.1628 32.2707C11.1628 43.9708 20.638 53.4465 32.3376 53.4465V43.5696C26.0926 43.5696 21.0396 38.5161 21.0396 32.2707C21.0396 26.0263 26.0926 20.9727 32.3376 20.9727Z" fill="#000426"/>
<path d="M43.6772 20.9727C43.0287 20.9727 42.3865 20.845 41.7874 20.5968C41.1882 20.3486 40.6438 19.9849 40.1852 19.5263C39.7267 19.0677 39.3629 18.5233 39.1147 17.9241C38.8665 17.325 38.7388 16.6828 38.7388 16.0343C38.7388 15.3858 38.8665 14.7436 39.1147 14.1445C39.3629 13.5453 39.7267 13.0009 40.1852 12.5423C40.6438 12.0837 41.1882 11.72 41.7874 11.4718C42.3865 11.2236 43.0287 11.0959 43.6772 11.0959C44.987 11.0959 46.2431 11.6162 47.1692 12.5423C48.0953 13.4685 48.6156 14.7245 48.6156 16.0343C48.6156 17.3441 48.0953 18.6001 47.1692 19.5263C46.2431 20.4524 44.987 20.9727 43.6772 20.9727Z" fill="#00D8D5"/>
<path d="M43.5944 53.4465C42.2847 53.4465 41.0285 52.9262 40.1024 52.0001C39.1763 51.074 38.656 49.8179 38.656 48.5081C38.656 47.1984 39.1763 45.9423 40.1024 45.0161C41.0285 44.09 42.2847 43.5697 43.5944 43.5697C44.9041 43.5697 46.1603 44.09 47.0864 45.0161C48.0125 45.9423 48.5328 47.1984 48.5328 48.5081C48.5328 49.8179 48.0125 51.074 47.0864 52.0001C46.1603 52.9262 44.9041 53.4465 43.5944 53.4465Z" fill="#EA048C"/>
<path d="M43.636 32.2712C43.636 38.5167 38.583 43.5702 32.3375 43.5702V20.9728C38.5824 20.9728 43.636 26.0263 43.636 32.2712Z" fill="#000426"/>
</svg>
