<svg xmlns="http://www.w3.org/2000/svg" width="64" height="65" fill="none" viewBox="0 0 64 65"><rect width="64" height="64" y=".304" fill="#fff" rx="32"/><rect width="63" height="63" x=".5" y=".804" stroke="#070B14" stroke-opacity=".15" rx="31.5"/><path fill="#FF473E" d="M48.843 44.936c-1.098 0-2.03.765-2.263 1.83l-8.736-.416q.05-.249.05-.499c0-.3-.05-.599-.133-.898l3.178-1.83a2.364 2.364 0 0 0 3.212.432 2.343 2.343 0 0 0 .599-3.178 2.36 2.36 0 0 0-3.145-.766 2.346 2.346 0 0 0-.932 3.095l-3.078 1.78a3.214 3.214 0 0 0-4.127-1.597 3.223 3.223 0 0 0-1.814 4.044l-5.724 1.38a3.18 3.18 0 0 0-.915-2.08l1.032-1.43a2.33 2.33 0 0 0 2.912-1.331 2.32 2.32 0 0 0-1.165-2.979 2.333 2.333 0 0 0-3.045.999 2.346 2.346 0 0 0 .832 3.095l-.949 1.314a3.27 3.27 0 0 0-2.346-.616l-.982-5.607a3.2 3.2 0 0 0 2.446-2.446 3.2 3.2 0 0 0-1.198-3.245 3.2 3.2 0 0 0-3.444-.283l-2.48-4.842a3.24 3.24 0 0 0 1.282-1.182l2.063.55c-.017.116-.033.216-.033.332 0 1.198.915 2.213 2.113 2.33a2.32 2.32 0 0 0 2.512-1.897 2.31 2.31 0 0 0-1.664-2.663 2.324 2.324 0 0 0-2.812 1.415l-1.947-.516a3.16 3.16 0 0 0 .15-1.997l5.741-2.646a3.23 3.23 0 0 0 4.393.616 3.195 3.195 0 0 0 .832-4.343l3.66-3.578c.45.283.966.466 1.482.5v1.58a2.319 2.319 0 0 0 .25 4.626 2.32 2.32 0 0 0 2.312-2.196 2.31 2.31 0 0 0-2.063-2.43v-1.58a3.2 3.2 0 0 0 1.298-.383l4.01 4.576a3.236 3.236 0 0 0 .15 4.093 3.22 3.22 0 0 0 4.06.616 3.23 3.23 0 0 0 1.381-3.86l1.248-.7a2.31 2.31 0 0 0 3.162.35 2.305 2.305 0 0 0 .532-3.128 2.305 2.305 0 0 0-3.095-.699 2.324 2.324 0 0 0-.865 3.062l-1.181.665a3.208 3.208 0 0 0-5.042-.765l-3.928-4.476c.383-.3.7-.7.916-1.132l3.444.566a2.29 2.29 0 0 0 2.63 1.764 2.304 2.304 0 0 0 1.913-2.53c-.133-1.214-1.198-2.13-2.413-2.063a2.315 2.315 0 0 0-2.196 2.297l-3.195-.533a3.24 3.24 0 0 0-1.73-3.844 3.21 3.21 0 0 0-4.044 1.148 3.214 3.214 0 0 0 .549 4.177l-3.561 3.478a3.22 3.22 0 0 0-2.163-1.099v-2.429a2.323 2.323 0 0 0 2.063-2.43 2.29 2.29 0 0 0-2.296-2.18 2.32 2.32 0 0 0-2.313 2.197 2.31 2.31 0 0 0 2.063 2.43v2.412a3.23 3.23 0 0 0-2.596 1.698 3.23 3.23 0 0 0 .05 3.111l-5.59 2.563a3.2 3.2 0 0 0-.916-1.231l2.18-3.927c.2.05.383.083.582.083a2.335 2.335 0 0 0 2.313-2.047c.15-1.165-.616-2.246-1.747-2.53a2.32 2.32 0 0 0-2.73 1.432 2.334 2.334 0 0 0 1.1 2.879l-2.114 3.827a3.204 3.204 0 0 0-3.944.516 3.22 3.22 0 0 0-.432 3.943 3.226 3.226 0 0 0 3.727 1.381l2.513 4.91a3.18 3.18 0 0 0-1.232 1.93l-1.83-.533c.05-.183.066-.383.066-.566a2.307 2.307 0 0 0-2.046-2.296 2.33 2.33 0 0 0-2.53 1.764 2.295 2.295 0 0 0 1.465 2.712c1.098.4 2.33-.083 2.862-1.132l1.947.566v.15a3.16 3.16 0 0 0 1.48 2.696l-1.247 1.63a2.304 2.304 0 0 0-3.179.117 2.303 2.303 0 0 0-.066 3.178 2.31 2.31 0 0 0 3.178.233 2.32 2.32 0 0 0 .416-3.162l1.348-1.763c.4.183.848.266 1.298.266.066 0 .133 0 .2-.017l.998 5.641a3.26 3.26 0 0 0-2.313 2.996 3.21 3.21 0 0 0 2.146 3.111 3.21 3.21 0 0 0 3.628-1.081l4.66 2.08a2.7 2.7 0 0 0-.067.515c0 1.182.882 2.18 2.063 2.313a2.32 2.32 0 0 0 2.53-1.78 2.33 2.33 0 0 0-1.498-2.712 2.317 2.317 0 0 0-2.862 1.181l-4.543-2.03c.2-.366.333-.766.366-1.181l5.924-1.448a3.23 3.23 0 0 0 2.18 1.614 3.23 3.23 0 0 0 2.629-.632l2.213 1.913a2.316 2.316 0 0 0 1.032 3.029c1.098.582 2.446.2 3.078-.866a2.34 2.34 0 0 0-.682-3.128 2.327 2.327 0 0 0-3.162.516L37.03 47.98c.316-.333.549-.749.699-1.181l8.802.432a2.32 2.32 0 0 0 2.33 2.297 2.294 2.294 0 0 0 2.296-2.313c0-1.248-1.031-2.28-2.313-2.28"/></svg>