<?xml version="1.0" encoding="UTF-8"?>
<svg version="1.1" xmlns="http://www.w3.org/2000/svg" width="150" height="150">
<path d="M0 0 C3.21279451 1.4169868 6.10848636 3.23527847 9.0625 5.125 C9.9179541 5.65544922 10.7734082 6.18589844 11.65478516 6.73242188 C14.44752575 8.47138384 17.22427776 10.23401826 20 12 C21.99586734 13.25817174 23.99196338 14.51598074 25.98828125 15.7734375 C31.34195463 19.15706089 36.68007193 22.56358257 42 26 C42.95374512 26.60521484 42.95374512 26.60521484 43.92675781 27.22265625 C47.88655784 29.77311569 47.88655784 29.77311569 49 32 C49.49931446 40.99676595 48.73110673 50.06147721 48.16015625 59.0390625 C48.0726034 60.45525489 47.98532361 61.87146419 47.89830017 63.28768921 C47.71646893 66.2342582 47.5321912 69.18065982 47.34594727 72.12695312 C47.10902304 75.87626622 46.87703745 79.6258642 46.6467371 83.37558937 C46.46723707 86.29270951 46.28574273 89.20970285 46.10360527 92.12665939 C46.01744512 93.50832667 45.93173553 94.89002212 45.84651375 96.27174759 C45.65231356 99.40909278 45.44870386 102.54529258 45.22903442 105.68096924 C45.08381834 107.78535437 44.95768261 109.8912143 44.8576355 111.99822998 C44.77426437 113.32240936 44.77426437 113.32240936 44.68920898 114.67333984 C44.65157944 115.4217514 44.61394989 116.17016296 44.57518005 116.94125366 C43.71599695 120.01653429 42.60458692 121.14562597 40 123 C37.11080944 123.39460126 34.60292245 123.54742446 31.71484375 123.51757812 C30.88187775 123.5245874 30.04891174 123.53159668 29.19070435 123.53881836 C26.43929639 123.55641319 23.68891829 123.54477059 20.9375 123.53125 C19.0246562 123.53394449 17.11181372 123.53782656 15.19897461 123.54284668 C11.19078526 123.54874374 7.18295257 123.54017208 3.17480469 123.52148438 C-1.96365242 123.49869472 -7.10127387 123.51181669 -12.23970032 123.53577423 C-16.18939514 123.55022659 -20.13889175 123.5456288 -24.08859253 123.53526306 C-25.98322651 123.53259422 -27.87787847 123.53587106 -29.77249146 123.54518127 C-32.42042728 123.55533765 -35.06700884 123.53985924 -37.71484375 123.51757812 C-38.49834198 123.52567505 -39.28184021 123.53377197 -40.08908081 123.54211426 C-43.57130758 123.48781431 -45.62056246 123.27538765 -48.47421265 121.20426941 C-50.76943104 117.88842091 -50.7862441 114.48997014 -50.9765625 110.58203125 C-51.03215836 109.74432693 -51.08775421 108.90662262 -51.14503479 108.04353333 C-51.32274721 105.30064235 -51.47412662 102.55698698 -51.625 99.8125 C-51.74229761 97.9151023 -51.86120767 96.01780364 -51.98168945 94.12060547 C-52.22316494 90.27023261 -52.4538945 86.41944975 -52.67529297 82.56787109 C-52.96877248 77.47712619 -53.29349255 72.38891006 -53.62890625 67.30078125 C-53.81654807 64.40894601 -54.00237882 61.51699759 -54.1875 58.625 C-54.2714502 57.31635986 -54.35540039 56.00771973 -54.44189453 54.65942383 C-54.65631901 51.1070632 -54.83347695 47.55488276 -55 44 C-55.07428223 42.87948242 -55.14856445 41.75896484 -55.22509766 40.60449219 C-55.56039138 32.82520378 -55.56039138 32.82520378 -53.0078125 29.06640625 C-49.359191 26.55975589 -45.69231721 24.17890998 -41.875 21.9375 C-40.27263307 20.97790449 -38.67109918 20.01691686 -37.0703125 19.0546875 C-36.24176758 18.55807617 -35.41322266 18.06146484 -34.55957031 17.54980469 C-30.25455501 14.94314338 -26.00182452 12.25476695 -21.75 9.5625 C-20.57219971 8.81891235 -20.57219971 8.81891235 -19.37060547 8.06030273 C-18.62439941 7.58794189 -17.87819336 7.11558105 -17.109375 6.62890625 C-16.39974609 6.18305176 -15.69011719 5.73719727 -14.95898438 5.27783203 C-13.21920365 4.14298503 -11.54836917 2.90398225 -9.890625 1.65234375 C-6.1440923 -0.48925535 -4.27090438 -0.65984343 0 0 Z M-9.42578125 15.21875 C-11.08770508 16.24742188 -11.08770508 16.24742188 -12.78320312 17.296875 C-13.9597184 18.03111704 -15.13615045 18.76549247 -16.3125 19.5 C-18.0119102 20.55505758 -19.71208456 21.60887544 -21.412323 22.66259766 C-22.54763979 23.36753412 -23.68185624 24.07424575 -24.81497192 24.78271484 C-27.76463839 26.62544745 -30.72707306 28.43954418 -33.72021484 30.2109375 C-34.6191169 30.74805359 -34.6191169 30.74805359 -35.53617859 31.29602051 C-37.20050384 32.28860499 -38.87000635 33.2724934 -40.53979492 34.25585938 C-43.27101636 35.82798689 -43.27101636 35.82798689 -44 39 C-43.98650344 41.0972902 -43.90107549 43.1943621 -43.77807617 45.28808594 C-43.70437302 46.58663513 -43.63066986 47.88518433 -43.55473328 49.2230835 C-43.46783681 50.64353597 -43.3805728 52.06396599 -43.29296875 53.484375 C-43.20636214 54.94303715 -43.12004742 56.40171666 -43.03401184 57.8604126 C-42.85207128 60.92054163 -42.66566658 63.98035978 -42.47631836 67.04003906 C-42.23497958 70.94767989 -42.00604068 74.85593177 -41.78068066 78.76452255 C-41.60520494 81.7795848 -41.42236132 84.79416725 -41.23742104 87.80866241 C-41.15009719 89.24851309 -41.06518982 90.68851253 -40.98280907 92.12865448 C-40.86615176 94.15099959 -40.7383294 96.17269111 -40.61010742 98.19433594 C-40.54047287 99.34222595 -40.47083832 100.49011597 -40.39909363 101.67279053 C-40.00893063 105.66769546 -40.00893063 105.66769546 -38 112 C-14.9 112 8.2 112 32 112 C33.46499753 106.87250864 34.30805459 103.2446148 34.6418457 98.10253906 C34.70803352 97.12800026 34.70803352 97.12800026 34.77555847 96.1337738 C34.91722211 94.0115007 35.04725267 91.88873132 35.17578125 89.765625 C35.26956398 88.28064566 35.36357708 86.79568085 35.45780945 85.31072998 C35.65235783 82.21121248 35.84045419 79.11137904 36.0246582 76.01123047 C36.26187118 72.03661114 36.52091024 68.06373868 36.78541279 64.09085464 C36.98578895 61.0306196 37.17181887 57.96963661 37.35378075 54.90825653 C37.44319578 53.44229989 37.53775323 51.97664755 37.637537 50.51136017 C37.77509488 48.46810925 37.89261403 46.4246445 38.00512695 44.37988281 C38.07681595 43.21741028 38.14850494 42.05493774 38.22236633 40.85723877 C38.25810748 38.00743148 38.25810748 38.00743148 36.64576721 36.20066833 C34.45444138 34.60198808 32.22082665 33.13579892 29.9140625 31.70703125 C28.40223389 30.76645874 28.40223389 30.76645874 26.85986328 29.80688477 C25.25860596 28.81966431 25.25860596 28.81966431 23.625 27.8125 C22.54331543 27.14210693 21.46163086 26.47171387 20.34716797 25.78100586 C18.20381608 24.45327287 16.05947086 23.12714187 13.9140625 21.80273438 C11.46780492 20.28939942 9.02828582 18.76645357 6.59375 17.234375 C5.43752254 16.51038066 4.28127508 15.78641828 3.125 15.0625 C2.15820312 14.45535156 1.19140625 13.84820312 0.1953125 13.22265625 C-3.90638388 10.93825951 -5.6756767 12.88672672 -9.42578125 15.21875 Z " fill="#E0AA4C" transform="translate(78,13)"/>
<path d="M0 0 C2.75488281 1.47460937 2.75488281 1.47460937 5.703125 3.34375 C6.7653125 4.01277344 7.8275 4.68179688 8.921875 5.37109375 C10.02015625 6.07363281 11.1184375 6.77617188 12.25 7.5 C13.36375 8.20253906 14.4775 8.90507813 15.625 9.62890625 C23.80839909 14.80839909 23.80839909 14.80839909 25 16 C25.14393457 20.33530918 25.04212061 24.66157731 25 29 C20.05 29 15.1 29 10 29 C9.34 27.02 8.68 25.04 8 23 C5.8420606 20.94571275 5.8420606 20.94571275 3.1875 19.5 C2.33542969 18.9740625 1.48335937 18.448125 0.60546875 17.90625 C-1.97504279 16.731513 -1.97504279 16.731513 -4.55859375 17.7109375 C-5.36425781 18.13632812 -6.16992188 18.56171875 -7 19 C-7.72703125 19.33257812 -8.4540625 19.66515625 -9.203125 20.0078125 C-9.87859375 20.37648438 -10.5540625 20.74515625 -11.25 21.125 C-11.93578125 21.47820313 -12.6215625 21.83140625 -13.328125 22.1953125 C-15.86232617 24.57887539 -15.86232617 24.57887539 -16 32 C-2.8 32 10.4 32 24 32 C24 41.99735874 23.89117906 51.60351155 23 61.5 C22.67 65.295 22.34 69.09 22 73 C5.5 73 -11 73 -28 73 C-29.125 64 -29.125 64 -29.09765625 60.71875 C-29.09443359 60.02265625 -29.09121094 59.3265625 -29.08789062 58.609375 C-29.07951172 57.91328125 -29.07113281 57.2171875 -29.0625 56.5 C-29.05798828 55.77296875 -29.05347656 55.0459375 -29.04882812 54.296875 C-29.03721193 52.53121319 -29.01928441 50.7655947 -29 49 C-24.38 49 -19.76 49 -15 49 C-14.67 52.3 -14.34 55.6 -14 59 C-6.74 59 0.52 59 8 59 C8.33 55.04 8.66 51.08 9 47 C7.854104 47.00523682 6.70820801 47.01047363 5.52758789 47.01586914 C1.29159318 47.03391717 -2.94439812 47.04543128 -7.18041992 47.05493164 C-9.01668875 47.05997231 -10.85295354 47.06680477 -12.68920898 47.07543945 C-15.32276401 47.08751672 -17.95626616 47.09323081 -20.58984375 47.09765625 C-21.82890724 47.10539818 -21.82890724 47.10539818 -23.09300232 47.11329651 C-25.06236368 47.11349205 -27.03161614 47.06204152 -29 47 C-31.64788581 44.35211419 -30.69669642 37.66765532 -30.87402344 34.08496094 C-31.00190562 31.96846133 -31.20568552 29.86775056 -31.4140625 27.7578125 C-32.21189532 17.60923805 -32.21189532 17.60923805 -29.33203125 13.78515625 C-26.66533634 11.88675535 -23.91829978 10.48529953 -21 9 C-19.63950484 8.12774023 -18.28983018 7.23845907 -16.94921875 6.3359375 C-15.52879597 5.39039942 -14.10822305 4.44508685 -12.6875 3.5 C-12.00623047 3.04125488 -11.32496094 2.58250977 -10.62304688 2.10986328 C-9.63981445 1.48313721 -9.63981445 1.48313721 -8.63671875 0.84375 C-8.05623779 0.46412109 -7.47575684 0.08449219 -6.87768555 -0.30664062 C-4.19697037 -1.29652895 -2.71411524 -0.85085459 0 0 Z " fill="#E1AA4C" transform="translate(78,40)"/>
</svg>
