<svg xmlns="http://www.w3.org/2000/svg" width="40" height="40" fill="none" viewBox="0 0 40 40"><g clip-path="url(#cvxon_svg-a)"><path fill="#CCDCEE" d="M20 0c11.046 0 20 8.954 20 20s-8.954 20-20 20S0 31.046 0 20 8.954 0 20 0"/><path fill="#0050AA" d="M26 6a8 8 0 0 1 8 8v12a8 8 0 0 1-8 8H14a8 8 0 0 1-8-8V14a8 8 0 0 1 8-8z"/><path fill="#fff" d="m29.583 25.265-9.582 3.196-9.58-3.195-.003.001-.001-6.39 9.58 3.193 9.586-3.193zm0-7.391-9.582 3.196-9.58-3.195-.003.001-.001-6.39 9.58 3.193 9.586-3.193z"/></g><defs><clipPath id="cvxon_svg-a"><path fill="#fff" d="M0 0h40v40H0z"/></clipPath></defs></svg>