<?xml version="1.0" encoding="UTF-8"?>
<svg version="1.1" xmlns="http://www.w3.org/2000/svg" viewBox="0 0 256 256" width="256" height="256">
<path d="M0 0 C2.52096309 2.2275585 4.98034211 4.50638231 7.42578125 6.81640625 C8.17601562 7.5021875 8.92625 8.18796875 9.69921875 8.89453125 C25.98970564 24.32762409 36.54719771 45.38249626 42.42578125 66.81640625 C42.93431641 68.57791016 42.93431641 68.57791016 43.453125 70.375 C51.37949267 103.7241875 43.69917207 138.85763396 26.42578125 167.81640625 C21.49702501 175.46447627 15.66316104 182.21338695 9.42578125 188.81640625 C8.74 189.56664062 8.05421875 190.316875 7.34765625 191.08984375 C-8.08543659 207.38033064 -29.14030876 217.93782271 -50.57421875 223.81640625 C-51.74855469 224.15542969 -52.92289063 224.49445313 -54.1328125 224.84375 C-87.482 232.77011767 -122.61544646 225.08979707 -151.57421875 207.81640625 C-159.22228877 202.88765001 -165.97119945 197.05378604 -172.57421875 190.81640625 C-173.32445312 190.130625 -174.0746875 189.44484375 -174.84765625 188.73828125 C-191.13814314 173.30518841 -201.69563521 152.25031624 -207.57421875 130.81640625 C-207.91324219 129.64207031 -208.25226563 128.46773437 -208.6015625 127.2578125 C-216.52793017 93.908625 -208.84760957 58.77517854 -191.57421875 29.81640625 C-186.64546251 22.16833623 -180.81159854 15.41942555 -174.57421875 8.81640625 C-173.8884375 8.06617188 -173.20265625 7.3159375 -172.49609375 6.54296875 C-157.06300091 -9.74751814 -136.00812874 -20.30501021 -114.57421875 -26.18359375 C-113.39988281 -26.52261719 -112.22554688 -26.86164062 -111.015625 -27.2109375 C-72.53579317 -36.35674638 -29.92130312 -25.38089294 0 0 Z " fill="#0C9B00" transform="translate(210.57421875,29.18359375)"/>
<path d="M0 0 C2.52096309 2.2275585 4.98034211 4.50638231 7.42578125 6.81640625 C8.17601562 7.5021875 8.92625 8.18796875 9.69921875 8.89453125 C25.98970564 24.32762409 36.54719771 45.38249626 42.42578125 66.81640625 C42.93431641 68.57791016 42.93431641 68.57791016 43.453125 70.375 C51.37949267 103.7241875 43.69917207 138.85763396 26.42578125 167.81640625 C21.49702501 175.46447627 15.66316104 182.21338695 9.42578125 188.81640625 C8.74 189.56664062 8.05421875 190.316875 7.34765625 191.08984375 C-8.08543659 207.38033064 -29.14030876 217.93782271 -50.57421875 223.81640625 C-51.74855469 224.15542969 -52.92289063 224.49445313 -54.1328125 224.84375 C-87.482 232.77011767 -122.61544646 225.08979707 -151.57421875 207.81640625 C-159.22228877 202.88765001 -165.97119945 197.05378604 -172.57421875 190.81640625 C-173.32445312 190.130625 -174.0746875 189.44484375 -174.84765625 188.73828125 C-191.13814314 173.30518841 -201.69563521 152.25031624 -207.57421875 130.81640625 C-207.91324219 129.64207031 -208.25226563 128.46773437 -208.6015625 127.2578125 C-216.52793017 93.908625 -208.84760957 58.77517854 -191.57421875 29.81640625 C-186.64546251 22.16833623 -180.81159854 15.41942555 -174.57421875 8.81640625 C-173.8884375 8.06617188 -173.20265625 7.3159375 -172.49609375 6.54296875 C-157.06300091 -9.74751814 -136.00812874 -20.30501021 -114.57421875 -26.18359375 C-113.39988281 -26.52261719 -112.22554688 -26.86164062 -111.015625 -27.2109375 C-72.53579317 -36.35674638 -29.92130312 -25.38089294 0 0 Z M-158.57421875 32.81640625 C-165.4979444 41.33150566 -171.21263982 50.74795618 -175.57421875 60.81640625 C-175.950625 61.68136719 -176.32703125 62.54632813 -176.71484375 63.4375 C-185.7380469 86.09651388 -185.29716558 113.02726864 -176.0859375 135.48828125 C-171.61633606 145.32833404 -166.69664797 154.61112376 -159.57421875 162.81640625 C-158.92066406 163.61304688 -158.26710938 164.4096875 -157.59375 165.23046875 C-141.73755168 183.88821759 -118.03398627 196.6076647 -93.57421875 198.81640625 C-66.14120016 200.48141605 -39.71801954 194.16985415 -18.57421875 175.81640625 C-17.77757812 175.16285156 -16.9809375 174.50929687 -16.16015625 173.8359375 C2.80486238 157.71860742 15.0649691 133.52026337 17.42578125 108.81640625 C19.42420692 80.47894176 11.62390009 53.90969127 -7.15063477 32.27441406 C-21.12236273 16.92012232 -39.99995084 4.81516679 -60.57421875 0.81640625 C-61.41726562 0.6153125 -62.2603125 0.41421875 -63.12890625 0.20703125 C-98.35631188 -7.17775067 -134.87612572 6.22037498 -158.57421875 32.81640625 Z " fill="#B6F6AF" transform="translate(210.57421875,29.18359375)"/>
<path d="M0 0 C0.99644531 0.46277344 1.99289063 0.92554688 3.01953125 1.40234375 C25.50219672 12.7588878 42.87971529 33.5415506 51.20288086 57.18408203 C59.72111157 83.13310702 57.55667258 109.49933792 46 134 C45.53722656 134.99644531 45.07445312 135.99289063 44.59765625 137.01953125 C35.66061437 154.71228373 21.20622888 168.49898769 4 178 C2.9996875 178.55558594 1.999375 179.11117187 0.96875 179.68359375 C-21.96860569 191.78606695 -49.30566014 193.57307401 -74 186 C-84.63925638 182.50231876 -94.03486503 177.77450171 -103 171 C-103.93328125 170.30003906 -104.8665625 169.60007813 -105.828125 168.87890625 C-126.95065078 152.32899429 -140.25882753 128.51110611 -144 102 C-146.09150363 76.33092092 -140.55650699 51.7620693 -125 31 C-124.38511719 30.15179688 -123.77023438 29.30359375 -123.13671875 28.4296875 C-107.84501947 8.23071413 -85.04542121 -5.12327978 -60.171875 -9.53125 C-38.88581152 -12.28862034 -19.26922417 -9.08906518 0 0 Z M-93 37 C-93.92232422 37.77923828 -93.92232422 37.77923828 -94.86328125 38.57421875 C-104.19500456 47.09075704 -110.30198236 59.09797684 -114 71 C-114.36738281 72.17175781 -114.36738281 72.17175781 -114.7421875 73.3671875 C-119.30588563 91.43443079 -115.2898763 110.14330846 -106.6640625 126.2890625 C-103.84216506 130.88623814 -100.57306022 134.96885514 -97 139 C-96.48050781 139.61359375 -95.96101563 140.2271875 -95.42578125 140.859375 C-83.95011164 153.4623774 -66.13195429 161.22015966 -49.31640625 162.21875 C-28.40620677 162.89146419 -10.08944926 156.14271814 5.7578125 142.65234375 C19.94595362 129.31028444 27.65857892 110.63139659 28.34326172 91.25439453 C28.64124721 71.84866268 21.73623542 55.53143812 9 41 C8.39542969 40.30003906 7.79085937 39.60007812 7.16796875 38.87890625 C-5.64464233 25.04128628 -24.41145518 18.46738623 -42.91040039 17.61499023 C-62.16626275 17.14533505 -78.63271058 24.46262352 -93 37 Z " fill="#08DB10" transform="translate(172,38)"/>
<path d="M0 0 C8.29678932 6.78475762 14.46571335 16.49993563 16.5078125 27.05078125 C17.69047632 41.24274705 14.56769697 53.88273135 5.5078125 65.05078125 C-1.10575683 71.86229191 -8.57051379 75.13528339 -17.4921875 78.05078125 C-18.4821875 78.38078125 -19.4721875 78.71078125 -20.4921875 79.05078125 C-33.59071678 80.01828625 -43.69840411 77.46912354 -54.4921875 70.05078125 C-55.5440625 69.32890625 -56.5959375 68.60703125 -57.6796875 67.86328125 C-66.38612949 59.15683926 -71.57981781 47.80660998 -71.9296875 35.48828125 C-71.41466748 21.56612714 -66.03986224 10.67072009 -55.98828125 1.09375 C-39.15615227 -12.68278123 -17.66554634 -12.02596231 0 0 Z " fill="#F0F1F0" transform="translate(155.4921875,92.94921875)"/>
</svg>
