<?xml version="1.0" encoding="UTF-8"?>
<svg version="1.1" xmlns="http://www.w3.org/2000/svg" width="1000" height="1000">
<path d="M0 0 C1.27020996 -0.00701431 2.54041992 -0.01402863 3.84912109 -0.02125549 C7.92289105 -0.03865347 11.9965134 -0.04568922 16.0703125 -0.046875 C16.76456581 -0.04731686 17.45881912 -0.04775871 18.17411041 -0.04821396 C39.00392375 -0.05516587 59.53495936 0.26638086 80.1953125 3.203125 C81.47712402 3.37473145 82.75893555 3.54633789 84.07958984 3.72314453 C136.72886454 10.80313602 187.41984761 26.03663576 235.1953125 49.203125 C237.04550779 50.08216835 238.89576633 50.96107858 240.74609375 51.83984375 C262.18575156 62.1592026 282.70502917 74.57028187 302.1953125 88.203125 C303.30543701 88.9775293 303.30543701 88.9775293 304.43798828 89.76757812 C315.40848632 97.45977824 325.91075784 105.6199186 336.1953125 114.203125 C336.77120117 114.67991699 337.34708984 115.15670898 337.94042969 115.64794922 C338.49633789 116.10830566 339.05224609 116.56866211 339.625 117.04296875 C340.10308105 117.43863037 340.58116211 117.83429199 341.07373047 118.24194336 C352.52522513 127.88685269 363.3365857 138.17367356 373.89990234 148.77734375 C375.58707208 150.46993847 377.27961446 152.15703097 378.97265625 153.84375 C384.59344408 159.46079194 390.07163768 165.12214579 395.1953125 171.203125 C396.07202764 172.21301206 396.94958389 173.22216977 397.828125 174.23046875 C405.30356161 182.95962278 412.32541342 191.99144427 419.1953125 201.203125 C419.73978027 201.93192871 420.28424805 202.66073242 420.84521484 203.41162109 C429.21019763 214.6602235 436.89982497 226.23544827 444.1953125 238.203125 C444.62408691 238.90228027 445.05286133 239.60143555 445.49462891 240.32177734 C453.00679924 252.62321273 459.70095916 265.34004679 466.1953125 278.203125 C466.66614258 279.13398926 467.13697266 280.06485352 467.62207031 281.02392578 C498.51091715 342.57433642 517.14162781 413.93218386 517.3984375 483.0078125 C517.40545181 484.27802246 517.41246613 485.54823242 517.41969299 486.85693359 C517.43709097 490.93070355 517.44412672 495.0043259 517.4453125 499.078125 C517.44575436 499.77237831 517.44619621 500.46663162 517.44665146 501.18192291 C517.45360337 522.01173625 517.13205664 542.54277186 514.1953125 563.203125 C513.93790283 565.12584229 513.93790283 565.12584229 513.67529297 567.08740234 C506.59530148 619.73667704 491.36180174 670.42766011 468.1953125 718.203125 C467.31626915 720.05332029 466.43735892 721.90357883 465.55859375 723.75390625 C455.2392349 745.19356406 442.82815563 765.71284167 429.1953125 785.203125 C428.67904297 785.94320801 428.16277344 786.68329102 427.63085938 787.44580078 C419.93865926 798.41629882 411.7785189 808.91857034 403.1953125 819.203125 C402.71852051 819.77901367 402.24172852 820.35490234 401.75048828 820.94824219 C401.05995361 821.78210449 401.05995361 821.78210449 400.35546875 822.6328125 C399.95980713 823.11089355 399.56414551 823.58897461 399.15649414 824.08154297 C389.51158481 835.53303763 379.22476394 846.3443982 368.62109375 856.90771484 C366.92849903 858.59488458 365.24140653 860.28742696 363.5546875 861.98046875 C357.93764556 867.60125658 352.27629171 873.07945018 346.1953125 878.203125 C345.18542544 879.07984014 344.17626773 879.95739639 343.16796875 880.8359375 C334.43881472 888.31137411 325.40699323 895.33322592 316.1953125 902.203125 C315.46650879 902.74759277 314.73770508 903.29206055 313.98681641 903.85302734 C302.738214 912.21801013 291.16298923 919.90763747 279.1953125 927.203125 C278.49615723 927.63189941 277.79700195 928.06067383 277.07666016 928.50244141 C264.77522477 936.01461174 252.05839071 942.70877166 239.1953125 949.203125 C238.26444824 949.67395508 237.33358398 950.14478516 236.37451172 950.62988281 C174.82410108 981.51872965 103.46625364 1000.14944031 34.390625 1000.40625 C33.12041504 1000.41326431 31.85020508 1000.42027863 30.54150391 1000.42750549 C26.46773395 1000.44490347 22.3941116 1000.45193922 18.3203125 1000.453125 C17.62605919 1000.45356686 16.93180588 1000.45400871 16.21651459 1000.45446396 C-4.61329875 1000.46141587 -25.14433436 1000.13986914 -45.8046875 997.203125 C-47.08649902 997.03151855 -48.36831055 996.85991211 -49.68896484 996.68310547 C-102.33823954 989.60311398 -153.02922261 974.36961424 -200.8046875 951.203125 C-202.65488279 950.32408165 -204.50514133 949.44517142 -206.35546875 948.56640625 C-227.79512656 938.2470474 -248.31440417 925.83596813 -267.8046875 912.203125 C-268.54477051 911.68685547 -269.28485352 911.17058594 -270.04736328 910.63867188 C-281.01786132 902.94647176 -291.52013284 894.7863314 -301.8046875 886.203125 C-302.66852051 885.48793701 -302.66852051 885.48793701 -303.54980469 884.75830078 C-304.38366699 884.06776611 -304.38366699 884.06776611 -305.234375 883.36328125 C-305.71245605 882.96761963 -306.19053711 882.57195801 -306.68310547 882.16430664 C-318.13460013 872.51939731 -328.9459607 862.23257644 -339.50927734 851.62890625 C-341.19644708 849.93631153 -342.88898946 848.24921903 -344.58203125 846.5625 C-350.20281908 840.94545806 -355.68101268 835.28410421 -360.8046875 829.203125 C-361.68140264 828.19323794 -362.55895889 827.18408023 -363.4375 826.17578125 C-370.91293661 817.44662722 -377.93478842 808.41480573 -384.8046875 799.203125 C-385.34915527 798.47432129 -385.89362305 797.74551758 -386.45458984 796.99462891 C-394.81957263 785.7460265 -402.50919997 774.17080173 -409.8046875 762.203125 C-410.23346191 761.50396973 -410.66223633 760.80481445 -411.10400391 760.08447266 C-418.61617424 747.78303727 -425.31033416 735.06620321 -431.8046875 722.203125 C-432.27551758 721.27226074 -432.74634766 720.34139648 -433.23144531 719.38232422 C-464.12029215 657.83191358 -482.75100281 586.47406614 -483.0078125 517.3984375 C-483.01482681 516.12822754 -483.02184113 514.85801758 -483.02906799 513.54931641 C-483.04646597 509.47554645 -483.05350172 505.4019241 -483.0546875 501.328125 C-483.05512936 500.63387169 -483.05557121 499.93961838 -483.05602646 499.22432709 C-483.06297837 478.39451375 -482.74143164 457.86347814 -479.8046875 437.203125 C-479.63308105 435.92131348 -479.46147461 434.63950195 -479.28466797 433.31884766 C-472.20467648 380.66957296 -456.97117674 329.97858989 -433.8046875 282.203125 C-432.92564415 280.35292971 -432.04673392 278.50267117 -431.16796875 276.65234375 C-420.8486099 255.21268594 -408.43753063 234.69340833 -394.8046875 215.203125 C-394.0302832 214.09300049 -394.0302832 214.09300049 -393.24023438 212.96044922 C-385.54803426 201.98995118 -377.3878939 191.48767966 -368.8046875 181.203125 C-368.32789551 180.62723633 -367.85110352 180.05134766 -367.35986328 179.45800781 C-366.89950684 178.90209961 -366.43915039 178.34619141 -365.96484375 177.7734375 C-365.37135132 177.05631592 -365.37135132 177.05631592 -364.76586914 176.32470703 C-355.12095981 164.87321237 -344.83413894 154.0618518 -334.23046875 143.49853516 C-332.53787403 141.81136542 -330.85078153 140.11882304 -329.1640625 138.42578125 C-323.54702056 132.80499342 -317.88566671 127.32679982 -311.8046875 122.203125 C-310.79480044 121.32640986 -309.78564273 120.44885361 -308.77734375 119.5703125 C-300.04818972 112.09487589 -291.01636823 105.07302408 -281.8046875 98.203125 C-281.07588379 97.65865723 -280.34708008 97.11418945 -279.59619141 96.55322266 C-268.347589 88.18823987 -256.77236423 80.49861253 -244.8046875 73.203125 C-244.10553223 72.77435059 -243.40637695 72.34557617 -242.68603516 71.90380859 C-230.38459977 64.39163826 -217.66776571 57.69747834 -204.8046875 51.203125 C-203.87382324 50.73229492 -202.94295898 50.26146484 -201.98388672 49.77636719 C-140.43347608 18.88752035 -69.07562864 0.25680969 0 0 Z " fill="#561D62" transform="translate(482.8046875,-0.203125)"/>
<path d="M0 0 C0.67969975 -0.00282738 1.35939949 -0.00565475 2.0596962 -0.00856781 C5.67342749 -0.02345952 9.28712006 -0.03274596 12.90087891 -0.03710938 C15.81507214 -0.04144597 18.72896126 -0.05516238 21.64306641 -0.078125 C41.79771053 -0.23360798 61.42211018 0.74313842 81.4453125 3.203125 C82.71775314 3.35767654 83.99019379 3.51222809 85.30119324 3.67146301 C103.26128411 5.8717404 120.82200383 9.10861133 138.4453125 13.203125 C139.19425781 13.37279785 139.94320312 13.5424707 140.71484375 13.71728516 C145.32393403 14.76449079 149.88898492 15.94916443 154.4453125 17.203125 C155.50991699 17.49525879 156.57452148 17.78739258 157.67138672 18.08837891 C224.88496683 36.69929251 288.51076399 66.92759428 343.4453125 110.203125 C344.36441406 110.92371094 345.28351562 111.64429688 346.23046875 112.38671875 C348.65163506 114.30643794 351.05089159 116.2502003 353.4453125 118.203125 C354.76402344 119.26080078 354.76402344 119.26080078 356.109375 120.33984375 C361.79707195 124.93005552 367.27583008 129.68885975 372.64453125 134.6484375 C374.08807224 135.96514016 375.53526242 137.27914039 377.02758789 138.5402832 C383.87628365 144.34970071 390.14614539 150.75358872 396.48168945 157.10913086 C398.50295518 159.1357548 400.52950824 161.15698047 402.55664062 163.17773438 C408.72955263 169.3471776 414.84843238 175.49759123 420.4453125 182.203125 C421.32158372 183.21339728 422.19913432 184.22256166 423.078125 185.23046875 C430.55381334 193.95991674 437.5391514 203.01918493 444.4453125 212.203125 C445.02120117 212.96818359 445.59708984 213.73324219 446.19042969 214.52148438 C449.61683986 219.07598599 453.03449736 223.63693464 456.4453125 228.203125 C452.89519846 235.67145246 448.8457657 242.70610282 444.4453125 249.703125 C443.45954224 251.27416992 443.45954224 251.27416992 442.45385742 252.87695312 C436.96181386 261.54574754 431.13991715 269.91091529 424.99511719 278.12695312 C423.4473401 280.20040875 421.917544 282.28615127 420.390625 284.375 C413.79878567 293.34314094 406.79405816 301.84793292 399.4453125 310.203125 C398.78789063 310.96109375 398.13046875 311.7190625 397.453125 312.5 C395.7945569 314.41079274 394.1210967 316.30741982 392.4453125 318.203125 C391.8462207 318.88705322 391.24712891 319.57098145 390.62988281 320.27563477 C384.55133012 327.13469918 378.16059351 333.64139836 371.67016602 340.10864258 C369.878553 341.8948717 368.09238195 343.68641847 366.30664062 345.47851562 C360.52282806 351.26599001 354.71393121 356.93558543 348.4453125 362.203125 C347.43531139 363.07970876 346.42615071 363.95726211 345.41796875 364.8359375 C336.68881472 372.31137411 327.65699323 379.33322592 318.4453125 386.203125 C317.71650879 386.74759277 316.98770508 387.29206055 316.23681641 387.85302734 C304.988214 396.21801013 293.41298923 403.90763747 281.4453125 411.203125 C280.74615723 411.63189941 280.04700195 412.06067383 279.32666016 412.50244141 C267.02522477 420.01461174 254.30839071 426.70877166 241.4453125 433.203125 C240.51444824 433.67395508 239.58358398 434.14478516 238.62451172 434.62988281 C177.07410108 465.51872965 105.71625364 484.14944031 36.640625 484.40625 C35.37041504 484.41326431 34.10020508 484.42027863 32.79150391 484.42750549 C28.71773395 484.44490347 24.6441116 484.45193922 20.5703125 484.453125 C19.87605919 484.45356686 19.18180588 484.45400871 18.46651459 484.45446396 C-2.36329875 484.46141587 -22.89433436 484.13986914 -43.5546875 481.203125 C-44.83649902 481.03151855 -46.11831055 480.85991211 -47.43896484 480.68310547 C-100.08823954 473.60311398 -150.77922261 458.36961424 -198.5546875 435.203125 C-200.40488279 434.32408165 -202.25514133 433.44517142 -204.10546875 432.56640625 C-225.54512656 422.2470474 -246.06440417 409.83596813 -265.5546875 396.203125 C-266.29477051 395.68685547 -267.03485352 395.17058594 -267.79736328 394.63867188 C-278.76786132 386.94647176 -289.27013284 378.7863314 -299.5546875 370.203125 C-300.13057617 369.72633301 -300.70646484 369.24954102 -301.29980469 368.75830078 C-301.85571289 368.29794434 -302.41162109 367.83758789 -302.984375 367.36328125 C-303.46245605 366.96761963 -303.94053711 366.57195801 -304.43310547 366.16430664 C-315.88460013 356.51939731 -326.6959607 346.23257644 -337.25927734 335.62890625 C-338.94644708 333.93631153 -340.63898946 332.24921903 -342.33203125 330.5625 C-347.95281908 324.94545806 -353.43101268 319.28410421 -358.5546875 313.203125 C-359.43140264 312.19323794 -360.30895889 311.18408023 -361.1875 310.17578125 C-368.66293661 301.44662722 -375.68478842 292.41480573 -382.5546875 283.203125 C-383.09915527 282.47432129 -383.64362305 281.74551758 -384.20458984 280.99462891 C-392.56871589 269.74717858 -400.26918331 258.17570288 -407.5546875 246.203125 C-408.04195312 245.40293945 -408.52921875 244.60275391 -409.03125 243.77832031 C-410.44429303 241.44623258 -411.84628814 239.1080085 -413.2421875 236.765625 C-413.66459717 236.06171631 -414.08700684 235.35780762 -414.5222168 234.63256836 C-418.17731745 228.41759976 -418.17731745 228.41759976 -418.5546875 225.203125 C-417.64941406 223.41064453 -417.64941406 223.41064453 -416.1953125 221.5859375 C-415.66228516 220.9038623 -415.12925781 220.22178711 -414.58007812 219.51904297 C-413.99419922 218.79604004 -413.40832031 218.07303711 -412.8046875 217.328125 C-412.20849609 216.57289551 -411.61230469 215.81766602 -410.99804688 215.03955078 C-409.77391073 213.49047754 -408.54471891 211.9453863 -407.31054688 210.40429688 C-405.75208236 208.45058218 -404.21724673 206.48220535 -402.6953125 204.5 C-395.98350756 195.77908544 -388.89422569 187.40167644 -381.5546875 179.203125 C-380.78858154 178.34726807 -380.02247559 177.49141113 -379.2331543 176.60961914 C-372.1618035 168.80067307 -364.80750689 161.30150391 -357.34692383 153.86499023 C-355.35575973 151.87922824 -353.37005529 149.8881176 -351.38476562 147.89648438 C-345.27987957 141.78812018 -339.18706748 135.74486905 -332.5546875 130.203125 C-331.54445709 129.32680552 -330.53529297 128.44925486 -329.52734375 127.5703125 C-321.51517603 120.70888564 -313.25269992 114.23522738 -304.81689453 107.90332031 C-303.30708196 106.76859824 -301.80024234 105.6299098 -300.29638672 104.48730469 C-225.20591283 47.44881906 -135.52772033 14.47942412 -42.4921875 3.078125 C-41.7896283 2.99167725 -41.08706909 2.90522949 -40.36322021 2.81616211 C-38.31148065 2.56478905 -36.25934262 2.31696953 -34.20703125 2.0703125 C-33.02101318 1.92706543 -31.83499512 1.78381836 -30.61303711 1.63623047 C-20.3938696 0.51102236 -10.28147742 0.03393466 0 0 Z " fill="#FEFEFE" transform="translate(480.5546875,515.796875)"/>
<path d="M0 0 C1.61648438 -0.00299103 1.61648438 -0.00299103 3.265625 -0.00604248 C49.71128212 0.0036927 94.37241985 9.37600385 136.875 28.375 C137.75591309 28.76800293 138.63682617 29.16100586 139.54443359 29.56591797 C184.7295616 49.94481319 228.56627887 81.84188548 258.875 121.375 C259.75948609 122.4835559 260.64635456 123.59021369 261.53515625 124.6953125 C285.07231229 154.06583778 303.17405443 186.98639473 315.875 222.375 C316.28661377 223.50905273 316.28661377 223.50905273 316.70654297 224.66601562 C329.69349043 260.74354685 334.03858587 297.75069836 334.0625 335.875 C334.06358765 336.82291412 334.06467529 337.77082825 334.0657959 338.74746704 C334.06543954 341.48797367 334.05624404 344.22827795 334.04296875 346.96875 C334.04114845 348.19092476 334.04114845 348.19092476 334.03929138 349.43778992 C333.92800932 363.26898136 333.92800932 363.26898136 331.875 367.375 C328.48722683 366.09689066 325.44263249 364.63321561 322.34765625 362.7578125 C321.48462891 362.23944824 320.62160156 361.72108398 319.73242188 361.18701172 C318.81009766 360.63029785 317.88777344 360.07358398 316.9375 359.5 C241.02253663 314.21584162 157.68561101 286.69236365 70 276.0625 C69.33184265 275.98118835 68.6636853 275.89987671 67.97528076 275.81610107 C53.74416184 274.10409009 39.62442581 273.21462182 25.28515625 273.20703125 C23.81001253 273.20379907 22.33486909 273.20043373 20.85972595 273.19694519 C17.77797712 273.19100257 14.69625609 273.18909971 11.61450195 273.18969727 C8.52687617 273.18977769 5.4394014 273.18296195 2.35180664 273.16918945 C-25.04394089 273.04912795 -52.26287555 273.87438828 -79.4375 277.6875 C-80.22885345 277.7954892 -81.02020691 277.90347839 -81.83554077 278.01473999 C-166.93638755 289.64242232 -250.30719329 319.86925289 -322.48291016 366.53198242 C-326.91828368 369.375 -326.91828368 369.375 -329.125 369.375 C-330.9344207 362.39812646 -331.44416388 355.96568415 -331.4609375 348.7734375 C-331.47350586 347.12003357 -331.47350586 347.12003357 -331.48632812 345.43322754 C-331.50583413 341.87200536 -331.50591404 338.31126666 -331.5 334.75 C-331.49945618 333.53459534 -331.49891235 332.31919067 -331.49835205 331.06695557 C-331.45935335 312.15757571 -330.66250778 293.97967056 -327.125 275.375 C-326.90537598 274.18422852 -326.68575195 272.99345703 -326.45947266 271.76660156 C-317.18054955 222.4760164 -297.06369598 175.66978228 -267.125 135.375 C-266.70154297 134.79991699 -266.27808594 134.22483398 -265.84179688 133.63232422 C-263.01838476 129.81221631 -260.11029482 126.06984967 -257.125 122.375 C-256.69268066 121.8382666 -256.26036133 121.3015332 -255.81494141 120.74853516 C-248.4099685 111.6607349 -240.25995428 103.30368214 -232 95 C-231.24260529 94.23470474 -231.24260529 94.23470474 -230.46990967 93.45394897 C-223.70511805 86.63464909 -216.68777113 80.31321906 -209.125 74.375 C-208.41053711 73.80652344 -207.69607422 73.23804688 -206.95996094 72.65234375 C-147.48783478 25.61027039 -75.78433266 0.03699336 0 0 Z " fill="#FEFEFE" transform="translate(497.125,165.625)"/>
<path d="M0 0 C3.57138246 0.01067315 7.14225623 0.00007097 10.71362305 -0.01269531 C30.28117838 -0.02586859 49.6270861 1.02863164 68.90698242 4.51074219 C70.12998047 4.72907715 71.35297852 4.94741211 72.61303711 5.17236328 C129.10508178 15.5741432 183.4022242 39.53186837 228.40698242 75.26074219 C229.32737305 75.97875 230.24776367 76.69675781 231.19604492 77.43652344 C233.62580805 79.34788434 236.01942334 81.29696538 238.40698242 83.26074219 C239.35444336 84.02257812 240.3019043 84.78441406 241.27807617 85.56933594 C249.54597518 92.34672003 257.14915662 99.78795748 264.71948242 107.32324219 C265.4870285 108.08302368 265.4870285 108.08302368 266.27008057 108.8581543 C273.12230233 115.65569896 279.39003632 122.69899894 285.40698242 130.26074219 C286.28190116 131.30018062 287.16202568 132.33530607 288.05151367 133.36230469 C302.21147717 149.84399193 313.8215442 168.44823867 324.71948242 187.19824219 C325.11095459 187.85445557 325.50242676 188.51066895 325.90576172 189.18676758 C327.27429945 191.5951272 328.38482852 193.58874055 328.47729492 196.39355469 C326.83854487 199.25239603 324.49099875 201.14876151 321.96948242 203.19824219 C321.39456055 203.67350342 320.81963867 204.14876465 320.22729492 204.63842773 C301.60461323 219.80872803 281.22565365 233.30746424 260.40698242 245.26074219 C259.76889648 245.63054199 259.13081055 246.0003418 258.47338867 246.38134766 C188.51706153 286.76305794 106.75107079 312.1621719 25.60229492 312.46386719 C24.33208496 312.4708815 23.061875 312.47789581 21.75317383 312.48512268 C17.67940388 312.50252066 13.60578152 312.5095564 9.53198242 312.51074219 C8.83772911 312.51118404 8.1434758 312.5116259 7.42818451 312.51208115 C-13.40162883 312.51903306 -33.93266443 312.19748632 -54.59301758 309.26074219 C-55.8748291 309.08913574 -57.15664063 308.9175293 -58.47729492 308.74072266 C-111.12656961 301.66073117 -161.81755269 286.42723143 -209.59301758 263.26074219 C-211.44321287 262.38169884 -213.2934714 261.50278861 -215.14379883 260.62402344 C-236.58345664 250.30466459 -257.10273425 237.89358532 -276.59301758 224.26074219 C-277.70314209 223.48633789 -277.70314209 223.48633789 -278.83569336 222.69628906 C-291.23186838 214.00444494 -303.94789051 205.08381851 -314.59301758 194.26074219 C-296.28471888 160.48887916 -273.85704493 130.33496027 -246.69165039 103.17407227 C-245.22095348 101.70118247 -243.75848224 100.22043953 -242.29614258 98.73925781 C-236.06361529 92.46995853 -229.52048166 86.75843396 -222.59301758 81.26074219 C-221.41906293 80.28432506 -220.24797424 79.30443919 -219.08129883 78.31933594 C-207.90030749 69.02794258 -195.78519327 61.15006043 -183.59301758 53.26074219 C-182.55902832 52.58688477 -182.55902832 52.58688477 -181.50415039 51.89941406 C-173.57697832 46.75393499 -165.34406793 42.4456698 -156.84301758 38.35107422 C-154.46983212 37.2010475 -152.10967806 36.0265895 -149.74926758 34.85058594 C-115.96561944 18.1856718 -78.97995264 7.01526559 -41.59301758 2.26074219 C-40.401521 2.09155273 -39.21002441 1.92236328 -37.98242188 1.74804688 C-25.33248717 0.05827083 -12.74741759 -0.04516357 0 0 Z " fill="#2B113A" transform="translate(491.593017578125,687.7392578125)"/>
</svg>
