<svg xmlns="http://www.w3.org/2000/svg" width="40" height="40" fill="none" viewBox="0 0 40 40"><g clip-path="url(#dashon_svg-a)"><path fill="#FFD6CE" d="M20 0c11.046 0 20 8.954 20 20s-8.954 20-20 20S0 31.046 0 20 8.954 0 20 0"/><path fill="#FF3008" d="M26 6a8 8 0 0 1 8 8v12a8 8 0 0 1-8 8H14a8 8 0 0 1-8-8V14a8 8 0 0 1 8-8z"/><g clip-path="url(#dashon_svg-b)"><path fill="#fff" d="M29.226 17.007a5.08 5.08 0 0 0-4.497-2.69H10.487a.49.49 0 0 0-.345.836l3.103 3.122a1.46 1.46 0 0 0 1.035.43h10.04a1.295 1.295 0 1 1 .026 2.59h-6.921a.492.492 0 0 0-.346.836l3.104 3.122a1.46 1.46 0 0 0 1.035.43h3.131c4.073 0 7.153-4.354 4.877-8.677"/></g></g><defs><clipPath id="dashon_svg-a"><path fill="#fff" d="M0 0h40v40H0z"/></clipPath><clipPath id="dashon_svg-b"><path fill="#fff" d="M10 10h20v20H10z"/></clipPath></defs></svg>