<svg xmlns="http://www.w3.org/2000/svg" fill="none" viewBox="0 0 250 250"><g clip-path="url(#dawn_svg-a)"><path fill="url(#dawn_svg-b)" d="M124.498 250c68.758 0 124.498-55.964 124.498-125S193.256 0 124.498 0 0 55.964 0 125s55.74 125 124.498 125"/><path fill="url(#dawn_svg-c)" d="M112.808 1.273a.98.98 0 0 1 .891-.84c41.206-3.423 83.248 13.502 110.222 48.66 42.096 54.859 31.562 133.32-23.526 175.235-27.598 21-61.136 28.846-93.048 24.528a.99.99 0 0 1-.803-.658c-3.983-11.556-6.406-24.787-4.849-38.688 4.817-43.004 35.02-55.092 47.853-97.502 12.756-42.112-41.837-74.31-36.74-110.735"/><path fill="url(#dawn_svg-d)" d="M112.925.5c41.453-3.701 83.854 13.215 110.997 48.592 42.095 54.86 31.561 133.321-23.526 175.236-27.772 21.133-61.56 28.944-93.652 24.445 18.411-3.919 96.66-43.38 77.474-124.869C174.068 80.781 106.936 37.243 112.925.5"/><path fill="url(#dawn_svg-e)" d="M150.057 3.054c28.51 5.84 55.116 21.515 74.187 46.286 42.032 54.607 31.515 132.705-23.49 174.426-27.73 21.035 55.626-39.502 12.781-111.131-14.739-24.64-31.078-34.143-49.355-64.904-14.097-23.72-20.487-45.977-14.123-44.677"/></g><defs><linearGradient id="dawn_svg-b" x1="124.498" x2="10.498" y1="0" y2="199.748" gradientUnits="userSpaceOnUse"><stop stop-color="#20175A"/><stop offset="1" stop-color="#3D347C"/></linearGradient><linearGradient id="dawn_svg-c" x1="175.467" x2="175.467" y1="0" y2="250" gradientUnits="userSpaceOnUse"><stop stop-color="#F54D59"/><stop offset="1" stop-color="#6C4562"/></linearGradient><linearGradient id="dawn_svg-d" x1="178.23" x2="178.23" y1="0" y2="250" gradientUnits="userSpaceOnUse"><stop stop-color="#FF755B"/><stop offset="1" stop-color="#EE4B5D"/></linearGradient><linearGradient id="dawn_svg-e" x1="198.795" x2="198.795" y1="3" y2="228" gradientUnits="userSpaceOnUse"><stop stop-color="#FE927E"/><stop offset="1" stop-color="#EE4B5D"/></linearGradient><clipPath id="dawn_svg-a"><path fill="#fff" d="M0 0h250v250H0z"/></clipPath></defs></svg>