<svg xmlns="http://www.w3.org/2000/svg" fill="none" viewBox="0 0 56 80"><path fill="url(#dia_svg-a)" d="M.008 7.687 11.396.203V60.35c11.155-.679 27.91-3.89 29.613-20.373 0 0 2.615 10.115-3.384 18.217-6.392 8.637-21.255 14.5-37.625 14.5V7.687z"/><path fill="url(#dia_svg-b)" d="M22.852 14.23v10.017c4.643 1.274 15.308 5.367 18.18 15.805 0 0 .03.159.09.46.015.083.023.158.038.241.46 2.397 1.515 10.522-3.527 17.441C31.415 66.726 16.175 72.695.008 72.695l14.056 6.15s29.983-.444 39.11-26.816c.852-2.457 1.312-4.847 1.394-7.16-.821-18.624-16.114-28.943-31.716-30.631z"/><path fill="url(#dia_svg-c)" d="M48.071 15.142C41.672 6.722 27.427.203 11.396.203V60.35a71 71 0 0 0 6.618-.701 49 49 0 0 0 3.263-.618c.513-.12 1.078-.249 1.583-.385V14.237c15.602 1.688 31 12.06 31.716 30.759 0 0 3.708-16.438-6.497-29.854z"/><defs><linearGradient id="dia_svg-a" x1="-16.031" x2="48.071" y1="27.012" y2="54.832" gradientUnits="userSpaceOnUse"><stop offset=".02" stop-color="#1D39BE" stop-opacity=".8"/><stop offset=".14" stop-color="#1D39BE" stop-opacity=".76"/><stop offset=".32" stop-color="#1D39BE" stop-opacity=".65"/><stop offset=".55" stop-color="#1D39BE" stop-opacity=".46"/><stop offset=".61" stop-color="#1D39BE" stop-opacity=".4"/><stop offset=".8" stop-color="#1D39BE" stop-opacity=".28"/><stop offset=".96" stop-color="#1D39BE" stop-opacity=".2"/></linearGradient><linearGradient id="dia_svg-b" x1="45" x2="12.602" y1="23" y2="71.987" gradientUnits="userSpaceOnUse"><stop stop-color="#1D39BE" stop-opacity=".2"/><stop offset=".05" stop-color="#1D39BE" stop-opacity=".29"/><stop offset=".18" stop-color="#1D39BE" stop-opacity=".48"/><stop offset=".3" stop-color="#1D39BE" stop-opacity=".63"/><stop offset=".44" stop-color="#1D39BE" stop-opacity=".75"/><stop offset=".59" stop-color="#1D39BE" stop-opacity=".83"/><stop offset=".76" stop-color="#1D39BE" stop-opacity=".88"/><stop offset=".98" stop-color="#1D39BE" stop-opacity=".9"/></linearGradient><linearGradient id="dia_svg-c" x1="-4.997" x2="51.772" y1="37.474" y2="16.815" gradientUnits="userSpaceOnUse"><stop offset=".21" stop-color="#1D39BE"/><stop offset=".34" stop-color="#1D39BE" stop-opacity=".98"/><stop offset=".47" stop-color="#1D39BE" stop-opacity=".92"/><stop offset=".6" stop-color="#1D39BE" stop-opacity=".82"/><stop offset=".72" stop-color="#1D39BE" stop-opacity=".68"/><stop offset=".83" stop-color="#1D39BE" stop-opacity=".51"/><stop offset=".95" stop-color="#1D39BE" stop-opacity=".3"/></linearGradient></defs></svg>