<svg xmlns="http://www.w3.org/2000/svg" width="40" height="40" fill="none" viewBox="0 0 40 40"><g clip-path="url(#dison_svg-a)"><path fill="#D9D9D9" d="M20 0c11.046 0 20 8.954 20 20s-8.954 20-20 20S0 31.046 0 20 8.954 0 20 0"/><path fill="#000" d="M26 6a8 8 0 0 1 8 8v12a8 8 0 0 1-8 8H14a8 8 0 0 1-8-8V14a8 8 0 0 1 8-8z"/><path fill="#fff" d="M14.122 11.85c1.767-.065 3.438.241 5.148.758.98.293 2.263.786 3.2 1.235.673.322 1.735.916 2.332 1.304.188.123 1.288.925 1.459 1.066.356.29.823.706 1.16 1.039.653.643 1.466 1.627 1.861 2.409.094.188.169.372.29.589.042.073.224.519.254.647.03.127.072.313.079.321.009.069.092.45.085.598.04.35-.052 1.013-.067 1.101a5 5 0 0 1-.207.724 8 8 0 0 1-.375.744c-.222.396-.747 1.022-1.06 1.29-1.16.997-2.959 1.565-4.502 1.752a11.6 11.6 0 0 1-3.357-.097c-.377-.07-.934-.196-.948-.199 0 .002 0 .226-.018.384a1.6 1.6 0 0 1-.095.324c-.08.165-.212.25-.404.287-.233.044-.48.057-.694-.033-.353-.148-.48-.476-.54-.852a17 17 0 0 1-.102-.828s-.264-.124-.484-.233c-.675-.33-1.317-.73-1.877-1.143a22 22 0 0 1-.971-.808c-.413-.388-.785-.776-1.069-1.273-.22-.389-.283-.735-.116-1.146.232-.574 1.06-1.006 1.627-1.253.417-.182 1.71-.602 2.25-.68.252-.035.645-.104.67-.12a.1.1 0 0 0 .024-.023c.012-.02.033-.586.03-.793-.005-.204.152-1.546.202-1.83.027-.154.145-.745.265-.9.077-.104.216-.096.328-.026.617.38.803 1.7.85 2.372.027.409.04 1.025.04 1.025s.708-.02 1.144-.009c.422.01.888.078 1.327.147.563.088 1.658.325 2.286.642.518.26 1.002.7 1.158 1.164.146.425.124.719-.098 1.103-.25.434-.721.756-1.2.783-.143.01-.679-.061-.844-.188-.065-.051-.061-.143-.014-.204.017-.023.267-.153.416-.231a1 1 0 0 0 .192-.135c.124-.109.235-.227.223-.365-.018-.18-.21-.292-.393-.363-.857-.338-2.57-.62-3.398-.668a41 41 0 0 0-.785-.035l.098 4.538c.01.002.385.073.681.121.174.025.903.09 1.096.095 1.477.039 3.126-.092 4.481-.728.595-.278 1.14-.623 1.554-1.091.545-.622.83-1.47.755-2.356-.083-.97-.77-2.117-1.317-2.817-1.448-1.85-3.93-3.37-6.112-4.26-2.23-.91-4.432-1.434-6.799-1.521-.61-.022-1.94.009-2.61.193-.097.027-.194.06-.283.079a.8.8 0 0 0-.211.087l-.035.032c.003.001.043.023.082.04.071.031.37.049.525.077.138.026.284.1.34.2.055.096.063.172-.002.251-.153.185-.727.153-.979.114-.262-.042-.588-.121-.648-.348-.07-.267.057-.53.196-.772.277-.484.674-.736 1.256-.893a13 13 0 0 1 2.65-.414m3.498 9.447c-.017.001-.681.048-1.139.098-.59.063-1.701.254-2.341.482-.193.067-.584.23-.618.425-.034.205.092.363.234.528.082.096.544.537.674.645.544.45 1.646 1.146 2.46 1.484a18 18 0 0 0 .74.278c0-.016-.035-1.313-.028-2.59.003-.674.017-1.34.018-1.35"/></g><defs><clipPath id="dison_svg-a"><path fill="#fff" d="M0 0h40v40H0z"/></clipPath></defs></svg>