<svg width="64" height="65" viewBox="0 0 64 65" fill="none" xmlns="http://www.w3.org/2000/svg">
<g clip-path="url(#clip0_11313_5056)">
<rect y="0.303711" width="64" height="64" rx="32" fill="white"/>
<path d="M32 64.3037C49.6731 64.3037 64 49.9768 64 32.3037C64 14.6306 49.6731 0.303711 32 0.303711C14.3269 0.303711 0 14.6306 0 32.3037C0 49.9768 14.3269 64.3037 32 64.3037Z" fill="#988430"/>
<path d="M32 63.2784C49.107 63.2784 62.975 49.4105 62.975 32.3035C62.975 15.1965 49.107 1.32849 32 1.32849C14.893 1.32849 1.02502 15.1965 1.02502 32.3035C1.02502 49.4105 14.893 63.2784 32 63.2784Z" fill="#7A6A2A"/>
<path d="M32 62.6259C48.7465 62.6259 62.3223 49.0501 62.3223 32.3035C62.3223 15.557 48.7465 1.9812 32 1.9812C15.2534 1.9812 1.67761 15.557 1.67761 32.3035C1.67761 49.0501 15.2534 62.6259 32 62.6259Z" fill="#BA9F33"/>
<path fill-rule="evenodd" clip-rule="evenodd" d="M13.991 28.8862C13.8097 28.7207 13.6182 28.5548 13.4421 28.3892C13.266 28.2237 13.0851 28.0578 12.9038 27.8923L12.3652 27.3803C12.2771 27.2922 12.184 27.2147 12.0959 27.1263C12.0078 27.0488 11.9044 26.9608 11.8163 26.8829C11.1016 26.2047 10.3827 25.5265 9.67789 24.8479C10.408 25.5159 11.1228 26.1791 11.8529 26.857L12.1065 27.1109C12.1945 27.1987 12.2877 27.2765 12.3758 27.3646L12.9141 27.8615C13.0953 28.0271 13.2714 28.193 13.4527 28.3735C13.6339 28.5541 13.8101 28.7203 13.9913 28.8855L13.991 28.8862ZM4.50498 28.7838C4.50498 28.7838 7.10423 29.0528 8.37297 29.234C9.54818 29.3999 13.2247 29.9641 13.2247 29.9641L4.50498 28.7838ZM4.50498 28.7838C5.23509 28.8459 5.9652 28.9234 6.69532 29.0012C7.06805 29.0374 7.42543 29.0787 7.7828 29.1149L8.33133 29.1774C8.51258 29.203 8.6887 29.2289 8.86995 29.2549L11.0449 29.6017L12.1321 29.7829C12.4894 29.845 12.8468 29.9126 13.2196 29.9747C12.8622 29.9385 12.4894 29.8867 12.1321 29.8348L11.0449 29.6795L8.86995 29.3586C8.6887 29.3327 8.51258 29.2962 8.33133 29.2706L7.78246 29.2074C7.42509 29.1712 7.05235 29.1193 6.69497 29.0777C5.96486 28.99 5.23475 28.8965 4.50464 28.7828L4.50498 28.7838ZM12.966 30.6414C12.966 30.6414 10.1906 31.3459 9.25327 31.6152C8.33167 31.8688 5.54059 32.718 5.54059 32.718L12.9656 30.6417L12.966 30.6414Z" fill="#CFB66C"/>
<path fill-rule="evenodd" clip-rule="evenodd" d="M12.9654 30.6413C12.3493 30.8225 11.7366 30.9987 11.1116 31.1646L9.2578 31.6615C8.64169 31.8428 8.029 32.0189 7.4146 32.2002L6.493 32.4538C6.1875 32.5418 5.87689 32.6193 5.56116 32.7077C5.86631 32.6053 6.17726 32.5005 6.48276 32.4125L7.40436 32.1176C8.02046 31.9257 8.63316 31.7445 9.24756 31.553C9.8739 31.3977 10.4904 31.2318 11.1167 31.0816C11.712 30.9314 12.3387 30.7816 12.9654 30.6416V30.6413ZM5.92877 34.4267C6.23393 34.3127 9.75512 32.6715 10.5733 32.2882C10.9829 32.0964 12.1735 31.6738 12.1735 31.6738L5.92877 34.4267Z" fill="#CFB66C"/>
<path fill-rule="evenodd" clip-rule="evenodd" d="M5.92893 34.4267C6.1979 34.3243 6.45185 34.199 6.71058 34.0799L7.47688 33.7225L9.01492 32.9822C9.52692 32.7388 10.0246 32.4702 10.5526 32.2415C10.8219 32.1278 11.0913 32.0346 11.3602 31.9466L11.7698 31.8172C11.9094 31.781 12.0391 31.7394 12.1794 31.7032C11.6674 31.9466 11.1285 32.1537 10.6158 32.3917C10.1038 32.6456 9.58017 32.8528 9.05179 33.0805L7.48814 33.7689C6.96317 33.9816 6.45117 34.2093 5.92859 34.4267H5.92893ZM6.27026 35.8603C6.27026 35.8603 9.45968 33.9911 10.5574 33.3904C11.1322 33.0695 12.9911 32.1476 12.9911 32.1476L6.27026 35.8603Z" fill="#CFB66C"/>
<path fill-rule="evenodd" clip-rule="evenodd" d="M6.27063 35.8612C6.80891 35.5298 7.35778 35.1932 7.90664 34.8516L8.72584 34.3542C9.00539 34.1887 9.2747 34.0334 9.55972 33.8678C9.83927 33.702 10.1086 33.5364 10.3933 33.3811C10.5288 33.2974 10.6708 33.2247 10.8179 33.1637L11.2527 32.9462C11.8275 32.6667 12.4023 32.3817 13.0082 32.1383C12.4593 32.4854 11.8948 32.7807 11.3306 33.0858C11.051 33.2412 10.766 33.3811 10.4864 33.5364C10.2069 33.6917 9.93757 33.8576 9.65256 34.0078C9.37301 34.1733 9.1037 34.3286 8.81902 34.4788L7.97491 34.9396L6.27131 35.8612H6.27063ZM12.9655 32.5575C12.9655 32.5575 10.9824 34.0798 10.3403 34.5665C9.6983 35.0533 7.80834 36.4203 7.80834 36.4203L12.9655 32.5575Z" fill="#CFB66C"/>
<path fill-rule="evenodd" clip-rule="evenodd" d="M24.3471 44.8345L23.3323 42.9135L23.9224 40.5109L28.1321 38.8851L26.3404 35.2089L27.2259 31.4962L28.8882 28.1717L34.0249 27.3641L37.7993 23.7654L45.9497 24.3815L47.5495 33.0961L44.4687 44.0682L42.7135 49.7487L35.5988 50.018L32.2953 47.7294L28.4274 46.1135L24.3471 44.8345Z" fill="#E2CC85"/>
<path fill-rule="evenodd" clip-rule="evenodd" d="M36.8261 44.7723C36.8261 44.7723 35.8421 45.2228 34.1637 45.1191C33.678 44.4668 30.2763 44.1613 30.2763 44.1613C30.2763 44.1613 29.8517 44.0319 29.1007 44.3425C28.345 44.6497 27.6303 44.6118 26.9623 44.7774C26.2943 44.9429 25.6311 44.0732 25.1191 43.892C24.6071 43.7005 23.9282 43.2397 23.9282 43.2397L22.4946 43.0997L19.6158 41.8829L15.0423 37.3264L13.7995 39.272L13.4161 41.6798L14.7989 44.533L18.5218 47.9245L25.7813 49.7677L30.0841 48.5L35.4745 46.2216L36.8261 44.7719V44.7723Z" fill="#F1D789"/>
<path fill-rule="evenodd" clip-rule="evenodd" d="M11.0342 28.6689L11.9558 25.8782L13.0539 24.076L16.5901 23.7807L15.5286 26.8773L12.5723 32.1382L13.7994 36.8347L11.6248 37.9218L10.9564 36.8968L10.4181 34.546L10.382 31.9051L11.0342 28.6689Z" fill="#F4ECB4"/>
<path fill-rule="evenodd" clip-rule="evenodd" d="M15.0006 44.5808L14.3224 43.6333C14.3224 43.6333 14.1411 43.1827 14.2449 42.7891C14.3473 42.3905 14.3326 42.3645 14.2811 42.2143C14.2296 42.0641 13.7944 41.5463 13.8203 41.1009C13.8459 40.6503 13.7841 40.5002 14.1152 40.1431C14.462 39.7963 14.3586 39.1956 14.3586 39.1956L14.8091 39.4751L14.9115 39.3198C14.9115 39.3198 15.0771 39.4492 15.0771 39.6513C15.1133 39.3717 14.9631 38.077 15.3048 37.7821C15.6464 37.4872 16.2523 39.1645 16.2523 39.1645L15.8796 36.7308L14.9214 34.2353L13.2178 31.9569L13.1154 29.4454V29.228C13.1154 29.228 12.3334 30.4295 12.116 31.3784C11.9607 32.0307 12.3334 32.8229 12.256 33.7602C12.1935 34.6924 12.116 34.6197 12.3437 34.989C12.5714 35.3583 13.1257 36.1178 12.9083 36.6666C12.7168 37.138 12.0641 36.8066 12.0641 36.8066C12.0641 36.8066 11.9348 37.1896 11.7586 37.3295C11.6965 37.1018 11.6293 36.9568 11.505 36.8175C11.4944 36.9056 11.4688 37.0247 11.4688 37.0247C11.4688 37.0247 11.3548 36.6673 11.2408 36.2168C11.0859 35.6164 10.92 34.8241 10.7698 34.3995C10.7077 34.6429 10.5524 35.3832 10.5524 35.3832L10.6404 36.5226L11.0651 38.0862L11.4747 39.1102L11.8733 40.3633L12.2198 41.205L12.4993 41.8471L12.7427 43.2919L13.9179 44.5344L14.5446 44.8143L14.9999 44.5811L15.0006 44.5808Z" fill="#F3E19D"/>
<path fill-rule="evenodd" clip-rule="evenodd" d="M11.6503 26.3907C11.6503 26.3907 10.8062 27.8243 10.5632 29.2695C10.3201 30.7147 10.1024 32.2419 10.256 34.2093C10.4113 36.1928 10.7065 37.4093 10.9448 38.2794C11.3544 39.7242 12.4152 41.7333 12.4152 41.7333L12.4514 41.6555C12.2731 41.3175 12.1308 40.9617 12.0268 40.5939C11.8869 40.0451 11.835 39.3928 11.7056 39.0975C11.5916 38.8026 11.4001 38.5487 11.3069 38.1862C11.2189 37.8394 11.2045 37.2905 10.9342 36.8816C10.8202 36.7157 10.6803 36.2808 10.6389 35.846C10.5871 35.1934 10.6649 34.4632 10.6028 33.8628C10.4888 32.8634 10.4113 32.1852 10.5147 31.6619C10.6181 31.1387 11.1571 29.6532 11.4885 28.4725C11.706 27.7165 11.5763 27.0795 11.9749 26.4218C12.3736 25.7695 12.6173 25.1947 12.705 24.796C12.8074 24.4335 11.649 26.3907 11.649 26.3907H11.6503Z" fill="#F2E8B0"/>
<path fill-rule="evenodd" clip-rule="evenodd" d="M15.6532 25.8155C15.6532 25.8155 15.2183 25.9452 15.0111 26.1729C14.804 26.3903 14.7159 26.5715 14.4363 26.9392C14.1568 27.3068 14.1411 27.6071 13.9131 28.0679C13.6854 28.5185 13.183 29.1967 13.1208 29.4401C13.0587 29.6835 12.9553 30.8225 12.8259 31.3611C12.7119 31.8998 12.9553 32.5626 12.9553 32.5626L13.2502 32.5002C13.2502 32.5002 13.2502 32.8835 13.5455 33.1426C13.8404 33.3962 13.8923 32.2827 13.8923 32.2827L14.9951 28.5598L16.6571 27.431L16.8383 26.5197L15.6525 25.8155H15.6532Z" fill="#F5EEC0"/>
<path fill-rule="evenodd" clip-rule="evenodd" d="M16.461 27.504C16.461 27.504 15.679 27.5555 15.296 27.8354C15.1407 27.9491 15.0786 28.0423 14.913 28.1822C14.6075 28.4358 14.2966 28.669 14.1467 29.0014C13.9809 29.3325 13.7996 29.8349 13.6754 30.7825C13.6235 31.1812 13.6235 31.5488 13.5873 31.87C13.5354 32.3048 13.4579 32.6516 13.4992 32.894C13.5511 33.391 14.0638 33.65 14.1136 34.2143L15.1752 33.676L16.1746 29.7353L18.2977 28.4041L17.0962 27.0579L16.4596 27.5016L16.461 27.504Z" fill="#E6DB9D"/>
<path fill-rule="evenodd" clip-rule="evenodd" d="M10.8606 54.0397C10.865 54.0008 10.8694 53.9619 10.8739 53.9219C11.0288 52.5907 11.0551 51.5818 11.1688 50.95C11.3343 50.0543 11.4483 49.7211 11.4224 49.386C11.3862 48.8477 11.3449 48.4541 11.3968 48.0397C11.4743 47.4909 12.0129 46.8386 11.9976 46.388C11.987 46.0307 11.8057 45.7979 11.6504 45.5804C11.4951 45.363 11.3709 45.1818 11.3709 45.1818C11.3709 45.1818 12.4324 44.4516 12.4222 41.5104C12.4438 41.5165 12.4647 41.5252 12.4843 41.5363L13.0072 43.0221L13.3646 43.457L14.7368 46.015L16.5025 47.7291L19.112 49.4843L20.7483 51.265L20.9139 56.0133L18.7754 58.7887L18.4252 59.4229C15.6429 58.0261 13.0915 56.2104 10.8602 54.0394L10.8606 54.0397Z" fill="#E5CB7A"/>
<path fill-rule="evenodd" clip-rule="evenodd" d="M17.3929 58.582C17.3929 58.582 17.4291 57.9918 17.9159 57.6085C17.9937 57.7379 18.0452 57.8624 18.0299 57.9553C18.1179 57.8003 18.734 56.806 20.127 56.5469C21.52 56.2933 21.8566 55.2785 21.8566 55.2785L24.8128 52.5912L28.1941 49.4793L32.3055 48.0344L34.2268 47.563C34.2268 47.563 34.263 47.703 34.1906 48.0136C34.5477 47.988 35.3399 47.8068 36.1632 47.5166C36.4946 47.3873 36.8056 47.3354 36.9711 47.5064C37.2145 47.7341 37.2507 48.2727 37.2661 48.5935C37.6647 48.5055 38.1255 48.1225 38.4949 48.1587C39.0854 48.2208 39.6083 48.9147 40.209 48.9147C41.0013 48.9147 41.3583 48.428 41.9126 48.0447C42.2441 47.817 42.7202 47.5327 42.9895 47.3405C43.6316 46.8691 50.4251 44.7928 50.4251 44.7928L52.807 44.9481L53.1903 47.506L52.9855 54.1928C52.9602 54.217 52.935 54.2423 52.9094 54.2665L42.0795 59.9227L27.0677 62.224C23.705 61.6746 20.4599 60.5584 17.4708 58.923L17.394 58.5816L17.3929 58.582Z" fill="#D8C173"/>
<path fill-rule="evenodd" clip-rule="evenodd" d="M11.7709 54.8902C11.9842 54.4441 12.176 54.071 12.2098 53.9376C12.2365 54.2065 12.2853 54.7967 12.3836 55.4241C12.1772 55.2486 11.9729 55.0706 11.7709 54.8899V54.8902Z" fill="#F1D789"/>
<path fill-rule="evenodd" clip-rule="evenodd" d="M22.737 61.1831L24.6785 60.6431L24.8441 60.695C24.8441 60.695 24.9321 60.7469 24.9321 60.9227C25.1755 60.783 25.3827 60.8087 25.5329 60.7158C25.6104 60.8814 25.6878 61.4302 26.0299 61.4975C26.3869 61.5753 26.7702 61.3422 27.1586 61.0472C27.5416 60.7417 27.9778 60.3584 28.3079 60.2031C28.429 60.4258 28.5363 60.6557 28.6291 60.8916C29.064 60.5448 29.82 59.1365 30.8969 59.1621C31.2082 58.4265 31.7282 57.7983 32.3926 57.355C33.3921 56.6768 34.0184 56.6249 34.8004 56.687C35.111 56.2836 35.4937 55.9412 35.9292 55.6774C36.0586 55.7293 36.4159 55.9467 36.8614 55.7395C37.3119 55.5327 37.8192 54.7298 38.4872 54.6264C38.8471 54.5769 39.2131 54.6537 39.5228 54.8438C39.5228 54.8438 41.4684 52.9122 42.8108 52.2702C42.7589 52.1149 42.6555 51.5298 44.2294 50.2352C44.3175 50.313 44.2553 50.5304 44.3175 50.5424C44.3431 50.5424 44.7271 50.3768 45.2131 50.0037C45.8139 49.5535 46.5334 49.0821 46.9683 48.9528C47.7875 48.7094 48.6565 49.2064 48.6565 49.2064C48.7304 49.1546 48.8127 49.116 48.8999 49.0924C49.1067 49.0562 49.2569 49.0303 49.3709 48.99C49.3607 49.2593 49.5109 49.7201 49.3709 50.1188C49.533 50.2099 49.7047 50.2829 49.8829 50.3362C49.7952 50.5277 49.6034 51.0144 49.2825 51.2476C49.5515 51.3769 49.5877 51.5271 49.971 51.6572C49.8157 51.8746 49.5614 52.2477 49.4481 52.4764C49.334 52.7197 48.9248 53.7294 48.7435 54.1124C48.552 54.4957 48.2933 55.1999 48.1687 55.3412C48.0441 55.4825 47.5939 56.0815 47.2471 56.3764C47.5543 56.2624 48.8111 55.8795 49.3443 55.7344C49.1856 55.9672 48.381 57.1608 47.6076 58.3087C43.9043 60.5284 39.7704 61.9333 35.4815 62.4298C31.1926 62.9263 26.8471 62.5031 22.7346 61.1882L22.737 61.1831Z" fill="#E0CD81"/>
<path fill-rule="evenodd" clip-rule="evenodd" d="M16.5888 27.3639C16.5888 27.3639 16.1386 27.3639 16.0506 27.426C15.9625 27.4881 16.5011 27.6178 16.6667 27.6799C16.8322 27.7421 17.1896 28.0267 17.2828 28.2547C17.3708 28.4722 20.5189 29.7406 20.5189 29.7406L22.7455 29.6266L23.5131 28.566L22.0529 27.2871L23.0769 24.2683L21.7204 24.4857L18.4583 26.4313L16.822 27.058L16.5888 27.3639Z" fill="#DFC57C"/>
<path fill-rule="evenodd" clip-rule="evenodd" d="M21.4785 28.3633C21.5107 28.4154 21.556 28.4581 21.6099 28.4872C21.6639 28.5162 21.7245 28.5306 21.7857 28.5288C22.2465 28.5288 22.6708 28.6428 22.8469 28.8756C23.1422 29.2487 23.9603 30.4396 23.9603 30.4396L25.9175 31.1438L26.0438 28.8391L23.9054 27.3533L21.4717 28.2489V28.3629H21.4771L21.4785 28.3633Z" fill="#E5CC7C"/>
<path fill-rule="evenodd" clip-rule="evenodd" d="M21.0943 29.2175C21.0943 29.2175 21.4513 29.2435 21.9019 29.0776C22.3525 28.9117 23.0928 28.5547 23.414 28.6946C23.8642 28.8861 23.771 29.4868 24.2581 30.0258C24.553 30.3572 25.0917 30.347 25.3971 30.7044C25.7026 31.0618 26.7536 30.8959 26.7536 30.8959L27.1523 33.0463L25.5525 35.097L25.0292 37.6444H22.8658L20.8895 36.8603L19.916 34.5051L20.4028 32.1233L21.0943 29.2175Z" fill="#D2C281"/>
<path fill-rule="evenodd" clip-rule="evenodd" d="M25.2791 29.321C25.3327 29.3376 25.3885 29.3463 25.4446 29.347C25.3825 29.3989 25.2528 29.5125 25.3047 29.8078C25.3566 30.103 25.5221 30.4758 25.3825 30.7034C25.4939 30.8253 25.5771 30.9703 25.6259 31.1281C25.7139 31.382 25.7399 31.6148 26.3143 31.6513C26.2314 31.7024 26.155 31.7632 26.0867 31.8326C26.0867 31.8326 26.4853 32.1794 26.6874 32.5002C26.8943 32.4913 27.4431 32.3207 27.4431 32.3207L27.5571 32.3985L27.8005 32.2961C27.8005 32.2961 27.5728 32.208 27.7384 31.6541C27.8937 31.1673 28.0336 31.1933 28.0456 31.1571C28.0575 31.1209 28.1596 30.6082 28.1596 30.401C28.2371 30.1321 28.2992 29.3139 28.2992 29.3139L28.1336 27.5069L27.2018 26.9423L26.444 26.2108L25.7293 27.557L25.2586 28.0264L25.2224 29.1913L25.2791 29.321Z" fill="#E2C270"/>
<path fill-rule="evenodd" clip-rule="evenodd" d="M27.521 27.8094C27.521 27.8094 27.6865 28.2804 27.749 28.6429C27.771 28.5725 27.7832 28.4993 27.7852 28.4255C27.7852 28.4255 27.9146 29.1403 27.9402 29.4355C27.992 29.4249 28.0426 29.4096 28.0542 29.4611C28.0658 29.5126 28.1839 30.0878 28.1566 30.4086C28.3722 30.0529 28.6705 29.7545 29.0263 29.5389C29.2335 29.4092 29.4768 29.2696 29.7308 29.259C30.1295 29.2488 30.4193 29.513 30.8958 29.513C32.045 29.513 33.0861 28.6689 33.8524 28.4101C34.4166 28.2183 34.9034 28.0787 35.245 27.7677C35.4109 27.6281 35.7062 27.3175 35.9751 26.8564C36.3325 26.242 36.7053 25.7071 37.0783 25.6399C36.9095 25.6709 36.7378 25.683 36.5663 25.6761C36.5663 25.6761 36.6803 25.5621 36.8735 25.4067C37.0667 25.2514 37.2981 25.06 37.6292 25.06C38.2197 25.06 38.5147 25.1477 38.8461 25.1477C39.1775 25.1374 39.369 25.06 39.369 25.06C39.369 25.06 39.7162 25.3033 40.4978 25.3033C41.2798 25.3136 41.8027 25.3808 42.212 25.4173C42.6212 25.4539 43.9931 25.3033 44.3866 25.3149C44.6432 25.3248 44.8951 25.3865 45.1273 25.4962L43.8586 21.8098L39.3011 17.8264L36.5878 19.7474L32.414 23.9209L28.3754 25.4173L27.5312 26.3649V27.8094H27.521Z" fill="#CCB360"/>
<path fill-rule="evenodd" clip-rule="evenodd" d="M36.5827 25.6966C36.5827 25.6966 36.6967 25.5829 36.8878 25.4276C37.079 25.2723 37.3128 25.0805 37.6439 25.0805C38.2341 25.0805 38.5293 25.1686 38.8607 25.1686C39.1922 25.1583 39.3837 25.0805 39.3837 25.0805C39.3837 25.0805 39.7311 25.3235 40.5125 25.3235C41.2945 25.3338 41.8174 25.401 42.2266 25.4372C42.6359 25.4734 44.0077 25.3235 44.4013 25.3348C44.6578 25.3445 44.9097 25.4061 45.1416 25.516L44.5668 23.8538L43.8992 22.5854L41.9935 20.4984C41.9935 20.4984 39.7066 19.1522 39.6892 19.142C39.6789 19.1317 38.8969 18.9246 38.8969 18.9246L36.8257 20.1776L34.9463 25.0399L34.9102 26.0639L36.1267 26.6387C36.4322 26.1267 36.7691 25.7171 37.0848 25.6652C36.7998 25.6963 36.5823 25.6963 36.5823 25.6963L36.5827 25.6966Z" fill="#D5B457"/>
<path fill-rule="evenodd" clip-rule="evenodd" d="M36.5567 26.0437C36.3755 26.0539 36.2256 26.0177 36.184 25.8884C36.0287 25.4535 35.9045 25.3914 35.7744 25.3914C35.6444 25.3914 35.4689 25.6709 35.3648 25.6965C35.2607 25.7221 35.1371 25.3757 35.1371 25.3757L35.0231 25.3238C35.0231 25.3238 34.3551 25.7587 33.8841 26.2713C33.4131 26.784 32.6413 27.6541 32.2945 27.809C31.9477 27.964 30.7565 28.0162 30.3489 28.1043C29.9414 28.1924 29.4894 28.4876 29.4273 28.5549C29.3652 28.6221 29.6089 28.6945 29.6451 28.7617C29.6813 28.8238 29.2461 28.7979 29.2099 28.8641C29.1843 28.916 29.3123 29.2109 29.3758 29.3611C29.4869 29.3058 29.6088 29.2758 29.7328 29.273C30.1315 29.2628 30.4216 29.527 30.8978 29.527C32.0474 29.527 33.0881 28.6829 33.8544 28.4238C34.419 28.2323 34.9057 28.0923 35.2474 27.7817C35.4129 27.6421 35.7082 27.3312 35.9775 26.8704C36.1741 26.5546 36.3659 26.2594 36.5578 26.042L36.5567 26.0437Z" fill="#D2B257"/>
<path fill-rule="evenodd" clip-rule="evenodd" d="M20.0705 51.6698C20.0705 51.6698 19.9681 51.2865 19.0192 50.2977C18.7499 50.0181 18.5844 49.7857 18.4031 49.6195C17.9526 49.1945 17.6884 49.0808 17.3675 48.8375C16.6633 48.3145 15.897 48.3145 15.3069 47.6725C14.7167 47.0304 14.0289 45.8037 13.5511 44.55C13.08 43.2969 12.9503 42.8983 12.9503 42.8621C12.9503 42.8259 13.08 42.5825 13.2456 42.6187C13.4111 42.6549 13.4111 42.9757 13.4528 43.0536C13.5352 43.1806 13.6288 43.3001 13.7323 43.4106C13.9757 43.6905 14.3225 44.025 14.4986 44.524C14.4624 44.0994 14.3174 43.6284 14.3174 43.6284C14.3174 43.6284 15.2287 44.2032 16.0053 44.8036C16.7872 45.4043 17.1081 45.6115 17.3365 45.9945C17.5648 46.3775 18.1027 47.3875 18.3605 47.6827C18.6182 47.978 22.1493 49.0911 22.1493 49.0911L23.829 50.3434L24.6628 52.1713L24.0102 53.1953L22.7572 53.4646L20.7221 52.5532L20.0705 51.6695V51.6698Z" fill="#D2B159"/>
<path fill-rule="evenodd" clip-rule="evenodd" d="M15.5494 45.3729C15.5494 45.3729 15.9741 46.0511 17.0097 46.6931C17.9418 47.2577 19.4174 47.7704 20.7329 48.0759C21.4886 48.2571 22.2447 48.3967 22.9229 48.4073C24.7508 48.4329 26.0089 47.9103 27.5678 47.7393C28.4119 47.6513 29.4475 47.584 30.5244 47.3297C31.9068 46.9983 32.725 46.6252 33.8384 46.1009C34.646 45.7282 35.3867 45.4486 35.9871 45.0913C36.8312 44.5943 37.4473 44.0403 38.1621 43.8748C38.074 44.1181 37.9808 44.553 37.2767 45.0035C37.6494 44.993 38.1621 44.9674 38.1621 44.9674C38.1621 44.9674 37.6651 45.2623 36.7899 45.9251C36.2513 46.3347 35.5369 47.028 34.8068 47.4888C34.3354 47.784 33.8227 48.0008 33.4862 48.1776C32.667 48.6282 32.3366 48.8558 31.7983 49.4064C31.9898 49.3962 32.0055 49.4064 32.0055 49.4064C32.0055 49.4064 31.3269 49.4945 30.8405 49.7532C30.7381 49.7532 30.5606 49.717 30.25 49.8051C30.0066 49.8826 29.6854 50.059 29.3543 50.1519C28.8829 50.2918 28.728 50.2297 28.728 50.2297L28.8055 50.385C28.8055 50.385 28.1911 50.3744 27.9863 50.3952C28.0224 50.4055 28.0122 50.4212 28.0122 50.4212C27.9762 50.4272 27.9416 50.4395 27.9098 50.4574C27.8112 50.5212 27.7028 50.5684 27.5889 50.597C27.5268 50.6072 27.4749 50.6072 27.3971 50.6229C27.4231 50.685 27.6251 51.0325 27.7183 51.2373C27.6408 51.2892 26.4755 52.1695 26.4755 52.1695C26.5117 52.2264 26.5412 52.2872 26.5636 52.3507C26.5998 52.4644 26.6155 52.6303 26.6516 52.7078C26.7394 52.8631 26.7913 52.889 26.7913 52.889C26.7913 52.889 26.6516 52.915 26.4079 52.9771C26.2011 53.029 25.9471 53.1167 25.5887 53.1686C25.4788 53.1829 25.3681 53.1915 25.2573 53.1945C25.3092 53.3085 25.5369 53.7434 25.1174 54.2455C24.6979 54.7476 24.5685 54.8206 24.4391 55.1415C24.374 55.0922 24.3047 55.0488 24.2319 55.0118C24.0923 54.9497 23.9005 54.8568 23.8333 54.7322C23.7941 54.8982 23.7421 55.0609 23.6779 55.219C23.5486 55.5658 23.3571 55.9078 23.3209 56.1665C23.181 56.0112 22.9222 55.7057 22.5649 55.7678C22.2075 55.83 21.9228 56.3167 21.8607 56.4566C21.8607 56.3686 21.7986 56.3013 21.7832 56.4048C21.7726 56.5188 21.576 57.7093 20.4783 58.6726C20.4681 58.4292 20.4681 57.8906 20.4421 57.7148C20.3397 57.8172 20.2144 57.9684 19.4686 58.2896C18.7385 58.6105 18.8542 58.9317 18.8542 58.9317C18.8542 58.9317 18.7921 58.4197 19.1857 57.8803C19.5843 57.3421 19.8277 57.0881 19.8277 57.0468C19.8213 57.0047 19.8033 56.9653 19.7758 56.9328C19.7239 56.8809 19.6205 56.8188 19.6205 56.7775C19.6826 56.7519 20.2988 56.4566 20.2626 55.8453C20.2264 55.2968 19.9936 55.0118 19.8277 54.8101C19.8021 54.7841 20.0714 54.5926 20.0349 54.5305C20.009 54.4943 19.6779 54.2506 19.6362 54.1209C19.646 54.0435 19.6634 53.9672 19.6881 53.8932C19.7243 53.7792 19.7502 53.7014 19.74 53.6239C19.714 53.4946 19.5741 53.1372 19.5328 53.101C19.569 53.1112 19.8277 53.101 19.8277 53.101C19.8277 53.101 19.6209 52.7696 19.5843 52.6143C19.5478 52.4589 19.4703 52.0497 19.429 51.9722C19.5171 51.9824 19.7345 51.9978 19.7345 51.9722C19.7451 51.8944 19.543 51.765 19.6321 51.665C19.6942 51.6752 19.8134 51.7271 19.927 51.8722C19.8649 51.7063 19.7615 51.3855 19.5437 51.2561C19.6461 51.2199 19.9943 51.1264 20.2998 51.3076C20.6053 51.4889 20.7094 51.7425 20.7094 51.7425C20.7094 51.7425 20.8906 51.8824 21.1705 52.0896C21.4914 52.3432 21.9003 52.704 22.5529 52.9593C22.6929 53.0372 23.0499 53.0372 23.309 52.9853C23.4218 52.9584 23.5299 52.9148 23.6298 52.8559C23.6659 52.8347 23.7041 52.8173 23.7438 52.804C23.6882 52.6923 23.6242 52.5849 23.5523 52.4828C23.6404 52.4828 23.7438 52.4934 23.7438 52.4934C23.7438 52.4934 23.806 52.3535 23.5264 52.0838C23.5885 52.0217 23.6663 51.9814 23.6663 51.8766C23.5783 51.8664 23.423 51.737 23.3868 51.6851C23.4383 51.649 23.5162 51.5298 23.6042 51.4937C23.5264 51.4315 23.3349 51.1725 23.2468 51.1469C23.331 51.1156 23.4124 51.0775 23.4902 51.0329C23.4902 51.0329 23.0554 50.9189 22.9154 50.8257C22.7755 50.7233 22.5686 50.5461 22.4444 50.4942C22.3147 50.4424 22.087 50.4168 21.9938 50.313C22.0815 50.3389 22.2215 50.313 22.3252 50.313C22.4027 50.313 22.4393 50.3232 22.4649 50.3232C22.4546 50.287 22.4546 50.2092 22.6567 50.1836C22.7539 50.169 22.8482 50.1393 22.9362 50.0956C22.9362 50.0956 22.7444 50.0853 22.5266 49.8781C22.3089 49.6709 22.128 49.5054 22.0037 49.4794C21.8743 49.4535 21.631 49.5675 21.4808 49.5569C21.2736 49.5313 21.1855 49.4276 21.1855 49.4276C21.1855 49.4276 20.4971 49.4897 18.9696 48.5578C17.649 47.7499 17.0742 47.0355 17.0742 47.0355C16.9506 46.9906 16.8311 46.9351 16.7171 46.8696C16.2202 46.6109 15.5313 46.0723 15.5522 45.3677L15.5494 45.3729Z" fill="#C2A44D"/>
<path fill-rule="evenodd" clip-rule="evenodd" d="M34.5992 14.2946C34.719 14.3335 34.8255 14.4053 34.9064 14.5017C35.1498 14.7813 35.3051 15.3093 34.7511 15.8739C34.9685 15.9514 35.0583 15.9763 35.2481 15.9514C35.0566 16.1794 34.6218 16.6661 34.5958 17.0908C34.5699 17.4375 34.7873 17.5413 34.7873 17.5413C34.7873 17.5413 34.4559 17.9243 34.4405 18.5653C34.597 18.3888 34.7683 18.226 34.9525 18.0786C35.3358 17.7731 35.8639 17.4263 36.2212 17.2089C36.2164 17.3 36.2287 17.3912 36.2574 17.4778C36.2574 17.4778 36.9251 16.929 37.4862 17.1727C37.7398 17.2867 37.6258 17.6437 37.6258 17.6437C37.6258 17.6437 37.973 17.5143 38.2163 17.7577C38.4597 18.0011 38.8038 18.6288 38.9802 18.8722C39.0577 18.9862 39.2598 19.2036 39.4666 19.5402C39.7492 20.0114 39.9852 20.509 40.1711 21.026C40.1814 20.7567 40.2486 20.3375 41.0153 20.6014C41.7816 20.8707 42.6513 21.4352 43.3814 22.547C44.1115 23.6587 44.2924 24.9138 44.66 25.3916C45.0328 25.8524 45.4161 26.6187 45.442 26.9399C45.468 27.2611 45.328 28.2964 46.0943 31.0977C46.3117 30.228 46.6432 28.2964 46.6432 28.2964L46.8244 26.5928L47.0316 21.3216L41.5273 16.7487L37.2244 13.6262L34.4231 13.8955L34.5989 14.2942L34.5992 14.2946Z" fill="#CAA13E"/>
<path fill-rule="evenodd" clip-rule="evenodd" d="M44.8259 22.1392C44.8259 22.1392 44.7481 21.6272 43.4538 20.7568C42.1591 19.8973 41.1494 19.8973 40.2176 19.1672C39.5029 18.5924 38.7574 17.2718 38.272 16.8369C37.8006 16.4072 37.7231 15.1644 37.7231 15.1644L39.3127 13.8332L41.6768 10.4161L43.6753 8.21552L44.6331 9.54672L45.9643 11.1104L46.7046 14.2482L46.974 18.8412L44.8236 22.1395L44.8259 22.1392Z" fill="#B59544"/>
<path fill-rule="evenodd" clip-rule="evenodd" d="M46.4262 27.6444C46.4654 26.9478 46.3793 26.2499 46.1722 25.5837C45.8309 24.5222 45.0851 22.6374 44.7386 21.9315C44.5987 21.1495 44.7024 21.0874 44.8526 20.9993C45.0028 20.9112 45.5674 20.5897 45.8766 19.4616C46.1859 18.3335 47.1454 18.2966 47.1454 18.2966L47.7355 17.8618L48.6315 20.1036L49.4132 22.1284L49.6566 23.6767L49.8378 24.997L49.4132 27.7881L47.3164 29.6832L46.4258 27.6444H46.4262Z" fill="#C89D3A"/>
<path fill-rule="evenodd" clip-rule="evenodd" d="M17.1653 58.7533V58.6959C17.2089 58.6687 17.2473 58.6341 17.2789 58.5935C17.3151 58.5417 17.3414 58.4795 17.367 58.4642C17.4189 58.4382 17.6623 58.3618 17.7916 58.3864C17.921 58.4109 18.263 58.5519 18.4443 58.5417C18.817 58.5314 19.2519 58.2464 19.9407 58.3761C20.9763 58.5676 21.2196 59.2718 21.8204 59.6705C22.23 59.9503 22.6539 59.8258 22.716 59.8258H22.8556C22.8816 59.8258 23.0731 59.6083 23.1768 59.6189C23.384 59.6292 23.4045 59.8002 23.5339 59.8104C23.8394 59.8466 24.4299 59.6551 24.7251 59.7329C24.8127 59.7603 24.8923 59.8085 24.9572 59.8734C25.0221 59.9382 25.0704 60.0178 25.0979 60.1053C25.16 60.2968 25.1081 60.5402 24.9579 60.6801C24.6371 60.975 24.3316 61.2549 24.2695 61.4993C24.3485 61.5596 24.4243 61.6238 24.4968 61.6918C21.9348 61.0391 19.4698 60.0521 17.1653 58.7564V58.7533Z" fill="#CEB052"/>
<path fill-rule="evenodd" clip-rule="evenodd" d="M44.7378 48.4075C44.7378 48.4075 45.5454 47.3306 45.8253 46.7971C46.1048 46.2472 44.9399 39.284 44.9399 39.284L47.2804 31.6156L47.2179 29.1198C47.2179 29.1198 47.3319 26.8154 47.6012 25.816C47.9224 26.3908 48.9219 27.0847 49.1393 27.4524C49.2417 26.7478 49.5895 25.262 49.538 23.6776C49.7295 23.9725 50.1903 26.9397 50.1903 26.9397L50.6511 28.9382L51.2518 31.0613L51.9198 33.3035L52.3185 34.8518L52.5461 35.2245L52.738 35.8768L52.9192 36.5813L53.4421 38.233L53.7493 39.5895L53.9927 42.0491C54.0456 42.2375 54.0838 42.4297 54.1067 42.6239C54.117 42.8933 54.0705 43.0486 54.0705 43.0953C54.0705 43.1421 54.1586 43.6855 54.1224 44.0947C54.0705 44.5043 54.0705 44.8249 53.7493 45.1187C53.4281 45.4126 53.2264 47.1691 53.2264 47.1691L52.6516 46.7862C52.6516 46.7862 52.7656 46.2629 52.4963 45.7867C52.227 45.3106 51.7041 45.2119 51.4088 45.2898C51.1139 45.3519 50.5237 45.4447 50.3319 45.6106C50.1507 45.7762 49.7056 46.2888 49.2963 46.522C48.7843 46.8292 47.9501 46.8534 47.505 46.9568C47.0544 47.0592 46.5574 47.3664 46.0342 47.7231C45.6239 47.9887 45.1907 48.2172 44.7398 48.4058L44.7378 48.4075Z" fill="#CCA847"/>
<path fill-rule="evenodd" clip-rule="evenodd" d="M44.7378 59.7216C44.7378 59.7216 44.7719 59.7438 44.8378 59.7799C48.5165 58.0564 51.8127 55.6133 54.5317 52.5949C54.502 51.547 54.4634 50.4728 54.4211 50.0748C54.3334 49.2307 54.3955 48.3712 54.3695 47.8742C54.3436 47.3773 54.064 45.3525 53.9347 44.8295C53.7947 44.3066 53.5251 44.0475 53.4841 44.0475C53.4479 44.0581 53.2302 45.0316 53.2302 45.2763C53.2302 45.5211 53.1783 46.1102 53.1783 46.2604C53.1421 46.2498 53.1267 46.158 53.1267 46.1205C53.0749 46.2498 53.0127 46.4778 52.9868 46.5038C52.9609 46.5297 53.023 46.2864 52.9868 46.2345C52.9506 46.1826 52.8844 46.2085 52.8987 46.0792C52.9049 46.0024 52.917 45.9263 52.9349 45.8515C52.9349 45.8515 52.7796 46.0792 52.6659 46.6591C52.5519 47.2339 52.5519 47.2496 52.5106 47.3011C52.4745 47.3636 52.2673 47.5704 52.2567 47.6483C52.2464 47.7879 52.4485 47.9278 52.4639 48.0053C52.4741 48.135 52.2826 48.7354 52.2205 49.0293C52.1584 49.3232 52.1843 49.899 52.1181 50.1943C52.0662 50.4636 52.0157 50.6189 51.8385 50.7326C51.9679 50.7585 52.0922 50.7947 52.0922 50.7947C52.0922 50.7947 52.2734 51.561 51.8126 52.2136C51.6471 52.4413 51.6058 52.545 51.4296 52.7522C51.0825 53.1352 50.8132 53.5714 50.7872 53.8551C50.7693 53.7714 50.7572 53.6865 50.7511 53.6011C50.7511 53.6011 50.2128 54.2278 49.9848 54.5852C49.6899 55.046 49.2806 55.02 49.1656 55.1341C49.0505 55.2481 49.0256 55.4549 49.0632 55.6208C48.9608 55.6464 48.7683 55.6829 48.6385 56.0816C48.5764 56.2884 48.4211 56.4912 48.1777 56.6305C47.9344 56.7697 47.6391 56.8117 47.4889 56.8479C47.6183 56.8841 47.6702 56.8841 47.7323 56.9254C47.6548 57.0547 47.2974 57.2568 46.8988 57.5159C46.5001 57.7592 46.3083 58.1163 46.21 58.3494C46.1076 58.5668 45.9564 58.7068 45.713 58.7327C45.8154 58.7949 45.9669 58.9396 46.0444 58.9863C45.9304 59.0123 45.7372 59.0123 45.3921 59.3075C45.0296 59.6079 44.9054 59.696 44.7395 59.7219L44.7378 59.7216Z" fill="#C39D3C"/>
<path fill-rule="evenodd" clip-rule="evenodd" d="M37.533 62.121C37.7312 61.982 37.946 61.8681 38.1723 61.782C38.9799 61.4612 39.8342 61.399 40.1708 61.2956C40.492 61.1932 40.7456 61.0519 41.1443 60.9744C41.1337 61.0652 41.1248 61.1506 41.1153 61.2311C39.9399 61.6006 38.743 61.8978 37.5312 62.121H37.533Z" fill="#D2BA6B"/>
<path fill-rule="evenodd" clip-rule="evenodd" d="M52.4286 40.8788C52.4286 40.8788 52.2631 41.7745 51.9678 42.339C51.6725 42.9036 51.3534 43.6852 51.3534 43.6852C51.3553 43.5091 51.3762 43.3337 51.4155 43.162C51.0428 43.3794 50.1365 43.9027 49.8795 44.1355C49.6361 44.3529 49.2269 44.7362 49.1235 44.9175C49.3668 44.203 49.6204 43.561 49.6621 43.2657C49.2894 43.5351 47.5492 44.9693 46.6433 45.9169L43.8212 48.2004C43.4955 48.3761 43.1601 48.5331 42.8167 48.6708C42.3303 48.8776 41.7554 49.0537 41.3308 49.2196C41.4448 48.9141 41.6257 48.6445 41.8797 48.3857C42.149 48.1321 42.9566 47.257 43.0808 46.8497C43.1948 46.4251 43.2208 46.1715 43.0706 45.8141C42.9307 45.8503 42.6098 45.866 42.3924 45.9281C42.1749 45.9903 41.9418 46.2231 41.9418 46.2231C41.9418 46.2231 42.1074 45.2755 42.4647 44.3799C42.1954 44.3901 41.7346 44.4676 41.7346 44.4676C41.7346 44.4676 42.3767 43.3907 43.4754 42.6401C43.1389 42.7117 42.8097 42.8138 42.4917 42.9452C41.8497 43.2145 41.1455 43.6132 40.6226 43.8306C40.9175 43.421 42.9887 40.4651 44.2212 37.7102C45.45 34.9608 45.9091 34.2566 46.1784 32.781C46.318 32.0509 46.2808 30.9719 46.318 30.0056C46.3542 29.0475 46.4734 28.188 46.3959 27.6132C46.7167 28.0119 47.9182 29.1356 47.9595 31.6471C47.9957 34.1583 46.8103 37.5501 45.5518 39.3776C45.859 39.4657 46.6549 39.5694 47.4728 38.1488C48.2906 36.7282 48.2807 36.3316 48.576 35.741C48.6121 36.0363 48.6016 36.1397 48.6016 36.1397C48.6016 36.1397 49.7928 34.6952 50.357 32.8776C50.4711 33.6596 50.8076 34.3484 50.2792 35.7827C49.8082 37.077 49.1921 37.3931 49.1921 37.3931C49.1921 37.3931 49.4976 37.3412 49.9478 37.0719C50.0256 37.2634 50.0102 37.4815 50.1396 37.5586C50.269 37.6358 50.4451 37.7658 50.4711 37.8901C50.6107 37.6829 50.8281 37.4187 50.8957 37.2221C50.8438 37.6317 50.8076 39.4227 50.9981 40.334C51.3971 40.2978 51.806 40.2719 52.0856 39.552C51.8941 40.2565 51.8941 40.6808 52.0234 41.2816C52.2357 41.1368 52.4272 40.8778 52.4272 40.8778L52.4286 40.8788Z" fill="#C0993A"/>
<path fill-rule="evenodd" clip-rule="evenodd" d="M38.9748 12.3375C38.9748 12.3375 38.5761 12.5031 37.8979 12.5031C37.3077 12.5031 37.4732 12.2754 36.5516 12.2754C35.1331 12.2754 30.1776 13.0946 29.3075 13.083C28.743 13.0727 31.2128 13.3264 31.2128 13.3264L37.5251 13.4144L38.7935 13.312L39.2649 12.3529L38.9748 12.3375Z" fill="#A88F33"/>
<path fill-rule="evenodd" clip-rule="evenodd" d="M22.6071 24.6767C22.6071 24.6767 21.7992 25.2928 21.4575 25.7642C21.1158 26.2355 20.9346 26.5458 20.5461 26.9291C20.6373 26.9326 20.7284 26.9204 20.8155 26.893C20.8155 26.893 20.8155 26.9954 20.7533 27.0223C20.807 27.0163 20.8614 27.0224 20.9124 27.0401C20.9634 27.0578 21.0098 27.0867 21.0482 27.1247C20.9342 27.1868 20.6236 27.4978 20.867 27.8654C21.0482 28.145 21.4316 28.1706 21.4316 28.1706C21.4316 28.1706 21.3435 28.4245 21.7111 28.3986C22.5033 28.3624 23.3888 28.0153 23.7977 28.1033C24.2073 28.2057 24.4401 28.2433 24.7299 28.7457C25.0371 29.2427 25.3047 29.3205 25.3047 29.3205C25.3047 29.3205 25.4859 28.8594 25.4446 28.1709C25.5932 27.7998 25.6756 27.4055 25.688 27.0059L25.4187 25.0228L24.2435 23.5366L22.7211 24.3807L22.6071 24.6757V24.6767Z" fill="#E3C571"/>
<path fill-rule="evenodd" clip-rule="evenodd" d="M24.0515 24.3811C24.0515 24.3811 24.1655 24.6505 24.642 24.6761C24.5901 24.7901 24.5901 24.8058 24.6058 24.8935C24.6161 24.9815 24.6314 25.1109 24.6314 25.1109C24.6839 25.0855 24.7313 25.0508 24.7714 25.0085C24.7973 25.1225 24.7454 25.3034 24.7714 25.4331C24.7874 25.512 24.8134 25.5885 24.8489 25.6608C24.8564 25.6431 24.8651 25.6259 24.8748 25.6093C24.885 25.5833 24.9772 25.8888 25.2322 26.1213C25.232 26.0855 25.2408 26.0503 25.2578 26.0189C25.2617 26.0838 25.2832 26.1464 25.3199 26.2001C25.3008 26.191 25.2834 26.1788 25.2684 26.1639C25.2684 26.1639 25.294 26.9831 25.4339 27.4067C25.4573 27.3793 25.4781 27.3499 25.496 27.3187C25.496 27.2931 25.4858 27.5467 25.4599 27.7283C25.4237 27.9095 25.4496 28.1631 25.4496 28.1631C25.543 28.0896 25.6456 28.0287 25.7548 27.9819C25.9101 27.9194 26.1644 27.7279 26.3193 27.3033C26.4092 27.0628 26.4785 26.8151 26.5265 26.5629C26.5766 26.6593 26.6111 26.763 26.6289 26.8701C26.6395 26.9995 26.8829 26.9323 26.8829 26.9323L26.9348 26.3677L27.242 25.0887L27.5215 24.2965L28.8677 22.1997L31.3001 20.3264L33.4232 20.8132L35.2145 18.3795L32.1285 16.5257L29.208 16.8312L26.5576 20.5022L24.4348 23.8319L24.0515 24.3808V24.3811Z" fill="#D8B65B"/>
<path fill-rule="evenodd" clip-rule="evenodd" d="M39.3476 19.0688C39.3476 19.0688 39.1663 19.105 38.6434 19.376C38.1205 19.6471 37.758 19.7331 37.5559 20.1318C37.3538 20.5304 37.3385 20.8465 37.3385 20.8465C37.3385 20.8465 37.6959 20.6912 37.903 20.6393C38.1205 20.5878 38.3638 20.6031 38.3379 20.6912C38.313 20.7516 38.2784 20.8075 38.2355 20.8568C38.2355 20.8568 38.6451 20.8465 38.6342 21.0486C38.6233 21.2506 38.5567 21.4732 38.4792 21.5715C38.4014 21.6739 38.0805 21.8255 38.0444 21.9446C37.9563 22.188 38.0805 22.1982 38.0338 22.3948C37.9976 22.5866 37.8269 22.9594 37.2675 23.6117C36.6927 24.2643 36.4483 24.7251 36.4483 24.7251C36.4483 24.7251 36.1687 24.2022 36.0237 23.7516C35.9213 23.8031 35.3714 24.1086 35.3714 24.1086L34.0975 19.6713L34.1231 19.376C34.1231 19.376 34.2371 19.2364 34.2631 18.9774C34.0716 18.9152 34.0456 18.8634 33.7917 18.6203C33.5377 18.3773 33.3309 18.0817 32.9066 17.8796C32.8445 17.7656 32.7667 17.6107 32.456 17.5482C32.1454 17.4857 31.9591 17.4345 31.9591 17.4345C31.9591 17.4345 32.1246 17.3721 32.2024 17.2427C32.0106 17.2687 31.8556 17.3308 31.4361 17.3205C31.0115 17.31 30.9648 17.2946 30.732 17.3308C30.4992 17.367 30.22 17.4707 30.1159 17.1133C30.0019 17.0253 29.7585 17.1031 29.5513 17.4083C29.3441 17.7134 29.2718 17.9571 28.8731 18.0762C28.845 18.252 28.7835 18.4207 28.6918 18.5732C28.5778 18.7651 28.3966 18.9565 28.1532 19.2412C27.7699 19.6918 27.832 20.4321 27.221 20.9967C26.6049 21.5609 27.3234 19.4327 27.3234 19.4327L28.3071 17.0775L31.1085 14.3383L35.4581 14.0434L35.8827 16.2962L38.0058 17.0263L39.3469 19.0716L39.3476 19.0688Z" fill="#D3AE4D"/>
<path fill-rule="evenodd" clip-rule="evenodd" d="M40.0363 19.5659L38.2085 16.9304L36.9295 15.9464C36.9295 15.9464 36.0181 14.2691 35.956 14.2172C35.9041 14.181 35.0446 14.0878 34.4958 14.0516L34.5982 14.3052C34.718 14.3442 34.8244 14.416 34.9054 14.5124C35.1487 14.792 35.3041 15.32 34.7501 15.8846C34.9675 15.9621 35.0573 15.987 35.247 15.9621C35.0556 16.1901 34.6207 16.6768 34.5948 17.1014C34.5688 17.4482 34.7862 17.5517 34.7862 17.5517C34.7862 17.5517 34.4548 17.935 34.4395 18.5757C34.596 18.3992 34.7673 18.2363 34.9515 18.0889C35.3348 17.7817 35.8628 17.4363 36.2202 17.2189C36.2153 17.3101 36.2276 17.4015 36.2564 17.4882C36.2564 17.4882 36.924 16.9393 37.4852 17.1827C37.7388 17.2967 37.6248 17.6541 37.6248 17.6541C37.6248 17.6541 37.9719 17.5247 38.2153 17.7681C38.4587 18.0114 38.8054 18.6378 38.9816 18.8815C39.0591 18.9955 39.2611 19.2129 39.468 19.5492C39.7506 20.0204 39.9866 20.5182 40.1725 21.0353C40.1827 20.8281 40.2244 20.5383 40.5821 20.5383L40.0383 19.5649L40.0363 19.5659Z" fill="#CAA13E"/>
<path fill-rule="evenodd" clip-rule="evenodd" d="M12.6343 27.0535C12.6343 27.0535 12.5049 26.7323 12.6343 26.1059C12.7636 25.4796 12.9657 25.1843 13.033 24.2627C13.1002 23.3411 13.7009 22.1915 13.7009 22.1915L15.3629 21.4358L16.5384 21.7566L16.8852 23.3309L15.3991 24.1501C15.3991 24.1501 15.3216 24.4969 14.9021 24.7764C14.4826 25.056 13.9027 25.2734 13.7631 25.5584C13.6796 25.7329 13.6187 25.9174 13.5818 26.1073C13.5818 26.1073 13.1572 26.0192 12.9036 26.2988C12.6343 26.5838 12.6445 26.8374 12.6343 27.0548V27.0535Z" fill="#F4EFC8"/>
<path fill-rule="evenodd" clip-rule="evenodd" d="M15.9897 26.6339C15.9897 26.6339 15.8497 26.722 15.7463 26.9411C15.6439 26.7756 15.3992 25.7915 15.3889 24.9061C15.3787 24.0207 15.3258 23.8012 15.5306 23.496C15.7354 23.1909 16.5386 22.8693 16.4245 22.3198C16.3105 21.7969 15.834 21.5794 15.249 21.7296C14.8394 21.832 14.5346 22.7031 14.11 23.138C13.7888 23.4694 13.4058 23.4175 13.3024 23.5988C13.1624 23.8421 13.2918 24.0855 13.2505 24.2408C13.2399 24.2927 13.1105 24.5723 12.8774 24.9088C12.4064 25.587 11.609 26.5452 11.5052 27.4046C11.5414 26.9179 11.5158 26.9077 11.6452 26.369L11.5674 26.2397L12.0794 24.562L12.4108 23.1796L13.1515 20.8647L14.4561 18.4986L15.7248 17.0797L17.0451 17.1677L17.2004 19.1509L17.9564 22.8741L19.546 24.8313L16.9983 26.5458L15.9887 26.6339H15.9897Z" fill="#EBCC73"/>
<path fill-rule="evenodd" clip-rule="evenodd" d="M16.7819 27.3373C16.7819 27.3373 16.5645 27.3892 16.4867 27.3479C16.4089 27.3066 16.3317 27.2598 16.3573 27.2079C16.3829 27.156 16.5229 27.0683 16.5229 27.0267C16.5257 26.989 16.5138 26.9518 16.4897 26.9228C16.4655 26.8938 16.431 26.8753 16.3935 26.8714C16.2744 26.856 16.2382 26.9335 16.2382 26.9335C16.2382 26.9335 16.1242 26.8458 16.0314 26.8311C16.0863 26.8244 16.1416 26.8208 16.1969 26.8205C16.0538 26.7557 15.902 26.7121 15.7463 26.6911C15.8757 26.6136 16.1297 26.3856 16.2952 26.3856C16.4607 26.3856 16.5645 26.36 16.5386 26.272C16.5126 26.1839 16.3833 26.0545 16.2437 26.0027C16.2952 25.9405 16.3317 25.8474 16.2075 25.5931C16.0778 25.3395 16.1297 25.1684 16.1713 25.1067C16.2075 25.0288 16.3368 24.8892 16.399 24.8012C16.4611 24.7131 16.513 24.594 16.6164 24.5319C16.6683 24.4957 16.8338 24.4295 16.9997 24.3663C17.181 24.3042 17.3311 24.2264 17.4346 24.3042C17.5486 24.3817 17.4967 24.4854 17.4967 24.4854C17.4967 24.4854 17.8541 24.3557 18.1749 24.5216C18.4961 24.6766 19.2781 24.7752 19.2781 24.7752L19.5583 25.3398L17.7046 26.9294L16.9383 27.3127L16.783 27.3383L16.7819 27.3373Z" fill="#E5C66B"/>
<path fill-rule="evenodd" clip-rule="evenodd" d="M19.3553 24.7389C19.3553 24.7389 18.7805 25.1222 18.6511 25.2618C18.7286 25.2724 18.858 25.3243 18.8061 25.4018C18.744 25.4793 18.3713 25.7486 18.1641 26.0025C17.9466 26.2561 17.7394 26.5773 17.6671 26.7326C17.5896 26.8723 16.9991 27.2815 16.7974 27.333C17.222 27.333 18.0763 26.8101 18.3972 26.8101C18.387 26.9654 18.4853 27.1416 18.6665 27.1569C18.8478 27.1723 19.3707 27.2709 20.0748 26.8361C20.779 26.4114 20.5462 26.0954 20.8411 25.8885C21.4057 25.5154 21.6334 25.184 21.944 24.9772C22.2546 24.7703 22.4154 24.7232 22.4154 24.7232C22.4154 24.7232 22.4256 24.5679 22.5178 24.5836C22.543 24.5865 22.5669 24.5962 22.587 24.6118C22.6071 24.6273 22.6226 24.648 22.6318 24.6717C22.6318 24.6717 23.1704 24.2884 23.8606 24.1849C23.8445 24.1777 23.8316 24.1649 23.8244 24.1488C23.8244 24.1488 23.8759 24.1228 23.8865 24.0969C23.8865 24.0969 23.9227 24.045 23.9486 24.0709C23.9746 24.0969 24.0108 24.2884 24.0626 24.3662C24.1767 24.3143 24.3941 23.8276 24.3941 23.8276L24.9173 22.3312V20.9641L24.5077 21.0419L21.4357 22.3465L19.5714 24.2781L19.354 24.7389H19.3553Z" fill="#E6BD62"/>
<path fill-rule="evenodd" clip-rule="evenodd" d="M28.1992 18.033C28.3654 17.9927 28.5247 17.9281 28.672 17.8412C28.6099 18.0071 28.6099 18.1883 28.3405 18.5819C28.0712 18.9755 28.061 19.0325 27.8436 19.4414C27.6261 19.866 27.6002 20.477 27.393 20.746C27.4859 20.7008 27.5855 20.6712 27.6879 20.6582C27.6879 20.6582 27.4811 20.8395 27.393 21.031C27.3049 21.2225 27.1496 21.6211 26.7667 21.8648C26.3837 22.1086 25.8966 22.2635 25.3737 22.8383C24.8504 23.4026 24.3121 24.1173 24.0425 24.3743C24.1824 24.131 24.3739 23.6442 24.4258 23.3234C24.4777 23.0025 24.4152 22.6189 24.5033 22.1946C24.5913 21.7703 24.5913 21.4645 25.0153 20.7238C25.4392 19.9831 26.1649 17.4098 26.1649 17.4098L27.7285 16.9128L28.1999 18.0313L28.1992 18.033Z" fill="#B6933F"/>
<path fill-rule="evenodd" clip-rule="evenodd" d="M27.0704 17.0856C27.0704 17.0856 26.5994 17.7638 26.47 18.3646C26.3406 18.9653 26.4594 18.9134 26.3819 19.2087C26.3356 19.3887 26.3356 19.5775 26.3819 19.7575C26.5451 19.4947 26.7684 19.2745 27.0335 19.1152C27.479 18.8462 27.8415 18.6544 28.0575 18.4267C28.275 18.1833 28.4562 17.7846 28.9272 17.4791C28.7358 17.4532 28.4664 17.3651 28.4152 17.3767C28.6071 17.1593 29.1815 16.8279 29.7615 16.4292C30.3363 16.0196 30.3001 15.8544 31.2323 15.4455C30.9268 15.4974 30.7817 15.4195 30.5278 15.4455C30.6302 15.2281 30.9886 15.1243 31.347 14.7673C31.7054 14.4102 31.1193 13.8818 31.1193 13.8818L28.3886 15.5335L27.0683 17.087L27.0704 17.0856Z" fill="#C49937"/>
<path fill-rule="evenodd" clip-rule="evenodd" d="M19.6609 15.8531L19.723 15.3561L20.505 14.1031L21.3232 11.9025V8.894L21.2611 7.15423L21.3904 6.01486L21.4887 5.6527L21.5925 5.51276L22.2601 5.85955L23.1821 7.11259L23.2701 9.53093L22.3741 13.347L19.8162 16.1381L19.6609 15.8531Z" fill="#DFC068"/>
<path fill-rule="evenodd" clip-rule="evenodd" d="M21.6958 5.37288C21.6958 5.37288 21.2862 5.38346 21.1988 7.08706C21.1114 8.79065 21.0691 9.68631 21.007 10.5304C20.9449 11.3745 20.8001 11.8869 20.7274 12.3842C20.6547 12.8815 20.6134 13.5594 20.3806 13.9738C20.2782 14.1653 20.0594 14.766 19.5468 15.2166C18.9719 15.7136 18.1132 16.0607 17.9831 16.0867C17.7551 16.1382 16.6004 16.2522 16.1293 16.5113C15.9638 16.5993 15.6788 16.7028 15.363 16.998C14.7363 17.5622 13.9028 18.5719 13.3021 19.7888C12.3805 21.6063 11.4589 26.7376 11.4589 26.7376L11.6661 26.3908C11.6661 26.3908 11.692 25.93 12.1528 25.1221C12.6034 24.3145 12.474 23.4083 13.1003 21.86C13.3437 21.2698 13.6492 20.5035 14.0219 19.8509C14.6124 18.7893 15.3269 17.878 16.0467 17.381C17.2219 16.5734 18.5166 16.3973 18.5166 16.3973L19.9096 15.4757C19.9096 15.4757 20.153 15.0046 20.4742 14.466C20.9244 13.7103 21.4982 12.8662 21.6234 11.6391C21.8153 9.82148 21.3541 8.63056 21.3801 7.55366C21.406 6.47675 21.4162 5.68452 21.634 5.49269C21.8518 5.30086 21.6961 5.37356 21.6961 5.37356L21.6958 5.37288Z" fill="#A88F33"/>
<path fill-rule="evenodd" clip-rule="evenodd" d="M21.6957 13.5023C21.6957 13.5023 22.3101 11.9902 22.5914 10.6491C22.6433 10.3798 22.7467 10.1108 22.7727 9.89338C22.902 8.62465 22.9382 8.10172 22.7727 7.40779C22.6433 6.89579 22.1463 6.43431 21.8872 6.07659C21.6336 5.70351 21.5145 5.56459 21.5664 5.48609C21.6183 5.40758 21.82 5.27924 22.0166 5.2946C22.2256 5.30068 22.4312 5.34921 22.6208 5.43722C22.8105 5.52524 22.9802 5.65091 23.1198 5.8066C23.5185 6.2674 23.8342 7.83139 23.8342 7.83139L24.1663 9.89509L25.0104 12.4943L21.6964 13.5043L21.6957 13.5023Z" fill="#C99E3D"/>
<path fill-rule="evenodd" clip-rule="evenodd" d="M27.4691 11.9284C27.4691 11.9284 27.355 11.98 27.1482 11.9284C27.157 12.0129 27.1423 12.0983 27.1058 12.175C27.0692 12.2517 27.0122 12.3169 26.941 12.3633C26.7236 12.2752 24.6882 12.4513 24.6882 12.4513C24.6882 12.4513 23.7407 12.2855 23.4454 11.0324C23.2386 10.1985 23.6007 9.04927 23.4816 8.29322C23.3003 7.17979 23.0467 6.96202 23.0208 6.61556C22.9949 6.26911 22.9689 6.18071 22.9689 5.96328C22.8549 5.93733 22.7877 5.90115 22.674 5.90115C22.6481 5.79875 22.6996 5.70932 22.5859 5.52808C22.6481 5.55402 23.0727 5.6059 23.5697 6.07694C23.9793 6.46026 23.9793 6.59986 24.041 6.67769C24.1185 6.75517 24.7452 7.29209 25.0145 7.8273C25.2838 8.36251 25.8068 10.0692 25.9259 10.3487C25.9621 10.4627 26.0399 10.5767 26.2331 10.8355C26.5335 11.2085 26.9734 11.8253 27.4704 11.9277L27.4691 11.9284Z" fill="#B58634"/>
<path fill-rule="evenodd" clip-rule="evenodd" d="M24.114 6.70349C24.4277 7.2102 24.7095 7.73596 24.9578 8.27772C25.2633 8.96619 25.4445 9.53076 25.8278 9.99156C25.6207 9.39115 25.253 8.21048 25.0356 7.79098C24.7922 7.34725 24.2953 6.86938 24.114 6.70383V6.70349Z" fill="#A88F33"/>
<path fill-rule="evenodd" clip-rule="evenodd" d="M20.593 15.2165C20.593 15.2165 20.07 15.3458 19.0966 15.8585C18.7754 16.0241 18.4702 16.1637 18.175 16.2934C17.408 16.6402 16.5854 16.9607 15.9327 17.1375C15.9846 17.1996 16.0102 17.2252 16.0102 17.2252C16.0102 17.2252 16.0102 17.4792 16.1502 17.6239C16.0727 17.7017 15.0367 18.4059 15.3426 20.7618C15.5494 20.6843 15.7928 20.5805 15.829 20.5805C15.8914 20.5911 15.9068 20.7618 15.9843 20.7618C16.0618 20.7618 16.3157 20.6594 16.585 20.3112C16.5748 20.4512 16.4195 21.8595 17.253 22.807C17.4083 22.6258 17.8019 22.025 17.8019 22.025L17.8121 21.8336C17.8121 21.8336 17.8483 21.1656 18.0661 20.5546C18.2838 19.9436 18.7081 19.493 18.7081 19.493L20.9237 16.3292L20.5923 15.2161L20.593 15.2165Z" fill="#E6C367"/>
<path fill-rule="evenodd" clip-rule="evenodd" d="M18.5218 19.8621C18.4204 19.9337 18.3086 19.9896 18.1904 20.0276C18.1542 19.8982 18.1023 19.4528 18.4078 19.0179C18.7652 18.4947 19.5468 17.8165 19.7643 17.2771C19.9042 16.93 19.8421 16.0603 21.0849 14.9469C22.3277 13.8334 22.8141 13.4505 22.8141 13.4505L24.8232 12.4408L27.2931 13.4143L26.066 18.2237L25.1133 20.4765L21.3245 19.7621L18.5215 19.8621H18.5218Z" fill="#DCBA5A"/>
<path fill-rule="evenodd" clip-rule="evenodd" d="M19.968 18.556L20.4394 17.9658V17.5463C20.4394 17.5463 20.9623 17.4064 21.5265 16.8316C22.0908 16.2567 22.8728 15.1539 23.5616 15.2211C24.2504 15.299 24.3176 16.7175 24.3436 17.1166C24.3695 17.5156 24.4576 18.4211 24.5972 18.9082C24.7525 19.395 22.9195 21.2382 22.9195 21.2382L21.6747 22.1857L19.968 18.556Z" fill="#E9CE77"/>
<path fill-rule="evenodd" clip-rule="evenodd" d="M21.4265 23.47C21.4265 23.47 21.8098 22.8693 21.5289 22.7399C21.6945 22.3672 22 21.9736 22 21.9736C22 21.9736 22.2174 21.4353 22.9216 20.7725C23.6257 20.1096 24.0609 19.6693 24.1749 19.2242C24.2452 18.9341 24.2834 18.6372 24.2889 18.3387C24.3651 18.4009 24.4465 18.4563 24.5323 18.5043C24.6463 18.5562 25.1846 19.0013 25.1071 19.8973C25.0296 20.7933 24.6975 21.166 24.6975 21.166C24.6975 21.166 24.3767 21.4869 24.149 21.6528C23.9053 21.8183 23.8176 22.0098 23.4083 22.0255C23.4504 21.992 23.4976 21.9658 23.5482 21.9477C23.5482 21.9477 23.1236 21.8961 22.8956 22.103C22.6676 22.3098 22.1829 22.9471 21.9395 23.1389C21.6962 23.2942 21.4275 23.4704 21.4275 23.4704L21.4265 23.47Z" fill="#CDAE50"/>
<path fill-rule="evenodd" clip-rule="evenodd" d="M38.6432 13.3986C38.0314 13.1757 37.3886 13.0499 36.7379 13.0259C35.6504 12.9897 34.0608 13.0518 32.5023 13.0621C30.8246 13.0723 29.3023 12.4873 27.1898 12.3838C26.843 12.1767 25.961 11.2704 23.2078 13.1914C23.3733 13.1812 25.2066 12.7668 25.8432 13.5645C26.4852 14.3567 26.304 15.703 26.2163 16.0238C26.0504 16.7386 25.5118 17.7793 25.2947 18.5094C25.0776 19.2395 25.1288 19.6232 24.9735 20.1352C24.8182 20.6472 24.4765 20.9015 24.6782 21.4916C24.9475 21.3261 25.0878 21.3261 25.5377 20.3164C25.9876 19.3068 25.8951 18.5869 26.6409 17.7325C27.371 16.8731 28.5865 15.6975 29.0487 15.4023C29.5108 15.107 33.1805 13.2017 37.0229 15.0193C37.9496 14.921 38.6435 13.3983 38.6435 13.3983L38.6432 13.3986Z" fill="#D2A83E"/>
<path fill-rule="evenodd" clip-rule="evenodd" d="M24.7558 12.694C24.752 12.6551 24.7434 12.6168 24.7302 12.58C24.6943 12.5043 24.6471 12.4345 24.5902 12.3729C24.5902 12.3729 23.6789 12.2073 23.2181 12.2588C22.4101 12.3469 21.68 13.3463 21.3384 13.859C20.9967 14.3717 20.5721 15.1636 20.1113 15.5729C20.1163 15.533 20.1071 15.4926 20.0853 15.4588C20.0853 15.4588 20.1113 15.495 20.0597 15.5469C20.0082 15.5988 20.0078 15.6244 20.0338 15.6493L20.1116 15.7268C20.1372 15.7268 20.852 15.4056 21.8254 14.498C22.861 13.5505 23.6533 13.0644 24.0677 12.8978C24.2886 12.8039 24.5196 12.7355 24.7561 12.694H24.7558Z" fill="#C29637"/>
<path fill-rule="evenodd" clip-rule="evenodd" d="M42.434 8.80072C42.434 8.80072 42.2681 9.00757 42.0609 9.23558C41.6001 9.72232 40.9993 10.2708 40.4866 10.8354C40.0002 11.374 39.4514 11.7935 38.8349 12.4977C38.2185 13.2019 37.5037 13.9835 37.3228 14.2115C37.1573 14.4395 37.0279 14.8123 37.0279 15.0038C36.9399 14.9416 36.8364 14.8744 36.8364 14.8744C36.88 14.9557 36.932 15.0321 36.9917 15.1024C37.1211 15.2837 37.3228 15.512 37.4266 15.6513C37.5539 15.8286 37.6453 16.0291 37.6956 16.2414C37.7577 16.2517 38.1564 16.3295 38.6537 15.5113C39.151 14.6932 39.803 13.7975 39.803 13.7975L40.8386 12.2595L41.4912 10.9549L42.3104 9.49465L42.435 8.80072H42.434Z" fill="#AC8132"/>
<path fill-rule="evenodd" clip-rule="evenodd" d="M43.4954 7.75507C43.4954 7.75507 42.8687 8.26707 42.6254 8.57427C42.382 8.88147 41.8062 9.6877 41.8062 9.6877L42.0133 9.66175L43.0646 8.72991L43.4742 7.9998L43.4951 7.75643L43.4954 7.75507Z" fill="#A88F33"/>
<path fill-rule="evenodd" clip-rule="evenodd" d="M43.3035 48.9043C43.3035 48.9043 43.2933 48.4797 43.5315 48.2261C43.7749 47.9722 44.391 47.5994 44.9917 46.2013C45.5925 44.8032 45.6594 44.4875 45.6594 44.4875C45.6594 44.4875 44.5825 45.4091 43.9186 45.6265C44.0739 45.3053 44.162 45.0776 44.2398 44.9118C44.1517 44.8343 43.779 44.7462 43.7428 44.7049C43.9497 44.4977 44.0637 43.9902 44.4832 43.6536C45.0218 43.244 46.0055 42.5402 46.7701 41.9128C47.5347 41.2854 49.0379 39.8262 49.2297 39.4016C49.3437 39.5672 49.3693 39.6706 49.3693 39.6706C49.3693 39.6706 48.6136 40.6546 48.2201 41.281C47.8729 41.8196 47.8989 42.1251 47.8989 42.1251L48.6136 41.8179C48.6136 41.8179 48.8205 42.5842 47.8835 43.7495C48.2931 43.5942 48.4583 43.6874 48.6911 43.5577C48.3078 43.8014 47.7798 44.1328 47.2828 45.0439C46.796 45.9552 46.1332 47.0168 45.015 47.6793C43.9275 48.3783 43.3008 48.9013 43.3008 48.9013L43.3035 48.9043Z" fill="#A67A2E"/>
<path fill-rule="evenodd" clip-rule="evenodd" d="M40.4971 13.9377C40.4971 13.9377 40.0724 14.8228 40.0103 15.5116C40.0001 15.6775 39.9584 15.8069 39.9584 15.9983C39.9482 16.6144 39.9946 17.3033 39.856 17.6241C39.8042 17.4947 39.7782 17.4067 39.7263 17.3551C39.6489 17.5726 39.5089 18.2508 39.3949 18.5044C39.3434 18.3389 39.2294 17.7641 39.2399 17.0858C39.2505 16.4076 39.2655 16.2779 39.2655 16.1383C39.2399 16.3451 39.1 16.625 39.0481 16.7906C38.9706 16.651 38.8826 16.4697 38.7788 16.3195C38.7167 16.4219 38.6392 16.5731 38.5719 16.651C38.5614 16.5888 38.5358 16.423 38.5201 16.1902C38.5098 15.9209 38.4941 15.5741 38.5098 15.5014C38.5354 15.3618 38.7532 14.8129 39.214 14.3104C39.7629 13.7097 40.3274 12.5553 40.493 12.1979C40.6585 11.8406 41.3627 10.3547 41.3627 10.3547H41.9013L41.1193 12.1358C41.1193 12.1358 40.6483 13.1093 40.4049 13.467C40.1615 13.8247 39.6489 14.8498 39.4208 15.2484C39.5864 15.031 39.7263 14.917 39.8922 14.7098C40.0526 14.5647 40.4977 13.9384 40.4977 13.9384L40.4971 13.9377Z" fill="#8C6228"/>
<path fill-rule="evenodd" clip-rule="evenodd" d="M43.5055 7.68756C43.4175 7.95835 43.2785 8.20978 43.0959 8.42825C42.7747 8.81157 42.0859 9.32391 41.7497 9.73283C41.4425 10.1315 40.8281 11.219 41.1073 12.5082C41.2097 12.2287 41.4026 11.6747 41.9152 11.048C42.4279 10.4213 42.9768 9.70177 43.2464 9.14267C43.5154 8.5781 43.5516 8.133 43.5516 8.133L43.654 8.00364L43.5919 7.70838L43.5038 7.68756H43.5055Z" fill="#CBA94C"/>
<path fill-rule="evenodd" clip-rule="evenodd" d="M53.9912 42.0331C53.9912 42.0331 53.784 41.4688 53.7219 40.9561C53.6598 40.4435 53.8243 40.3417 53.6339 39.755C53.5199 39.3976 53.313 39.4478 53.2611 39.3976C53.2092 39.3474 53.1731 38.8075 53.1833 38.5122C53.1935 38.2169 53.1731 37.834 53.1212 37.6681C53.0437 37.606 52.9918 37.5541 52.8778 37.1711C52.7484 36.7878 52.6863 36.5963 52.6242 36.4826C52.5621 36.369 52.3805 36.2652 52.3805 36.1512C52.3805 35.9232 52.5877 35.8044 52.5877 35.7416C52.5774 35.6122 52.4221 35.716 52.3805 35.6795C52.3289 35.6174 52.5102 35.2446 52.443 35.1927C52.417 35.1671 52.2358 35.3846 52.189 35.3224C52.1371 35.26 52.075 34.6439 51.9818 34.2349C51.8941 33.8363 51.8006 33.5465 51.7903 33.4274C51.7801 33.3133 51.0756 31.3043 50.9049 30.8175C50.7674 30.4062 50.6516 29.988 50.5581 29.5645C50.5062 29.3211 50.47 28.8238 50.4441 28.8757C50.4182 28.9276 50.4339 29.1812 50.3922 29.1709C50.356 29.1603 50.2267 28.2753 50.1854 28.1353C50.1492 27.9954 49.9314 27.5209 49.8782 27.1775C49.8263 26.8304 49.7126 25.9242 49.6348 25.3081C49.557 24.692 49.5208 24.4383 49.5208 24.2841C49.5335 23.9067 49.5127 23.529 49.4587 23.1553C49.3563 22.5026 49.1515 21.7104 48.9719 21.2499C48.6251 20.3799 47.7032 18.1534 47.5383 17.5994C47.5383 17.4594 47.7196 17.5373 47.7196 17.5373C47.7196 17.5373 48.1698 18.6661 48.5012 19.5358C48.8224 20.4058 49.1279 21.1721 49.2057 21.2499C49.2679 21.3274 49.7546 22.1818 49.972 23.5799C50.1895 24.978 50.2669 26.2672 50.3967 27.1267C50.4588 27.5363 50.5107 27.9708 50.64 28.4057C50.7796 28.877 50.9971 29.3638 51.2821 30.1093C51.5254 30.7359 51.7067 31.2589 51.805 31.7094C51.919 32.2842 51.919 32.7191 51.9862 33.0041C52.0487 33.2475 52.1416 33.7339 52.3593 34.4377C52.5771 35.1415 52.8976 36.0481 53.115 36.6123C53.54 37.7411 53.7294 38.6835 53.7936 39.186C53.8503 39.7038 54.0421 41.4955 53.9902 42.0337L53.9912 42.0331Z" fill="#A88F33"/>
<path fill-rule="evenodd" clip-rule="evenodd" d="M43.5316 7.62554L43.5056 7.68766C43.5056 7.68766 43.5831 7.7136 43.5678 7.81737C43.5689 7.95934 43.5602 8.10121 43.5418 8.24199C43.5162 8.42324 43.4643 8.56284 43.4541 8.67685C43.4541 8.92022 43.4903 9.19977 43.1469 9.8937C43.0445 10.0852 42.9813 10.2507 42.9295 10.3647C42.8001 10.6443 42.7742 10.6859 42.6602 10.8153C42.8414 10.7129 43.494 10.3033 43.8251 10.3647C43.5975 10.4941 43.2503 10.7481 43.0329 11.0795C43.0848 11.0897 43.3022 11.1314 43.6473 11.0795C44.2221 10.9914 44.8641 10.7842 45.4284 10.8255C46.0448 10.8617 45.8014 10.0852 45.8014 10.0852L45.0901 8.52154L43.7439 7.57434L43.5316 7.62588V7.62554Z" fill="#BE9C44"/>
<path fill-rule="evenodd" clip-rule="evenodd" d="M47.0424 19.3382C47.0424 19.3382 46.4416 18.7374 46.1982 16.6758C45.9549 14.6046 46.0068 11.5558 46.0068 11.5558L45.52 10.3649C45.52 10.3649 45.4176 9.57263 45.1626 9.27772C44.9077 8.98281 44.4069 8.48549 44.1789 8.24212C43.9509 7.99875 43.6922 7.66731 43.5369 7.61543C43.6143 7.48606 43.9615 6.75595 45.292 6.74571C46.6225 6.73547 47.0328 7.47582 47.1717 7.74513C47.3106 8.01445 47.938 9.17874 48.1708 11.3974C48.3882 13.6133 48.3988 13.7792 48.3626 14.5455C48.3367 14.9701 48.1967 15.9539 47.953 17.0048C47.7305 17.8957 47.4871 18.89 47.0417 19.3402L47.0424 19.3382Z" fill="#A17C34"/>
<path fill-rule="evenodd" clip-rule="evenodd" d="M45.1585 21.1037C45.3587 21.1182 45.5587 21.073 45.7333 20.974C45.9247 20.9638 46.6187 21.0518 47.1518 20.3736C47.188 20.5286 47.2815 20.9484 47.0378 21.3211C47.1675 21.1914 47.359 21.1399 47.385 21.1037C47.3952 21.2952 47.5765 21.8854 46.8102 23.3196C47.017 23.092 47.2604 23.1022 47.4778 23.0763C47.4884 23.3456 47.6331 24.2515 47.2501 24.7386C46.9965 25.07 46.5822 24.9662 46.5822 24.9662C46.5882 24.8939 46.5882 24.8212 46.5822 24.7488C46.5719 24.6089 46.52 24.4693 46.5566 24.3761C46.3563 24.2846 46.1739 24.1583 46.0179 24.003C45.5674 23.5784 44.9823 22.8537 44.941 22.3151C44.8891 21.7144 45.4278 21.585 45.4278 21.585C45.3826 21.5446 45.3442 21.4974 45.3138 21.445C45.2878 21.3573 45.2619 21.2174 45.1585 21.1037Z" fill="#8C6228"/>
<path fill-rule="evenodd" clip-rule="evenodd" d="M41.1648 14.59C41.1648 14.59 41.1389 14.5538 40.9993 14.7194C41.0252 14.5538 41.0511 14.3982 41.0614 14.248C41.1275 14.109 41.213 13.98 41.3153 13.865C41.2375 14.02 41.1856 14.1599 41.1856 14.1599C41.1856 14.1599 41.3775 13.8026 41.657 13.5851C41.8485 13.4298 42.0919 13.3575 42.1953 13.2124C42.3093 13.0571 42.2834 13.0312 42.3093 13.0052C42.3093 13.0052 42.5633 12.8397 42.9517 12.3526C43.0032 12.2905 43.0811 12.2232 43.1329 12.1611C43.2207 12.1249 43.4279 12.0317 43.6712 11.9071C43.9252 11.7675 44.2098 11.5761 44.386 11.4975C44.7328 11.3422 45.1007 11.3579 45.2714 11.1142C45.4008 11.0781 45.5404 10.6896 45.5148 10.3585C45.7063 10.436 46.69 11.047 47.0269 12.383C47.2702 13.3305 46.835 14.7907 46.6538 15.4952C46.4725 16.1998 46.4469 16.7223 46.193 17.0432C45.8718 17.4682 44.8365 18.0672 44.5826 18.3638C44.3652 18.6072 43.7129 19.2233 43.7385 19.6684C43.7644 19.9998 44.1733 20.1804 44.2617 20.2432C44.3501 20.306 44.3495 20.3831 44.5153 20.3456C44.6812 20.308 44.743 20.2316 44.8106 20.2316C44.8881 20.2418 44.8881 20.2575 44.9243 20.2575C44.9505 20.2567 44.9766 20.2532 45.0021 20.2469C45.0021 20.2469 44.9761 20.7183 43.8733 20.8613C43.7955 20.8719 43.718 20.8975 43.6193 20.9132C43.749 20.8511 43.8265 20.8511 43.9665 20.6596C43.8112 20.6337 43.3657 20.6077 43.2517 20.5716C43.2879 20.5094 43.407 20.3435 43.5053 20.2661C43.5934 20.1886 43.4951 20.1637 43.4176 20.2039C43.2842 20.2947 43.1562 20.3932 43.0343 20.4989C42.9049 20.6129 42.7909 20.7682 42.5837 20.9085C42.5216 20.7013 42.5319 20.3077 42.7756 20.023C42.7131 20.0333 42.594 20.2145 42.4803 20.1783C42.4598 19.9895 42.472 19.7985 42.5165 19.6138C42.5786 19.3806 42.9152 18.9717 42.9152 18.9717L44.5409 16.0666L44.8877 13.8661L41.1648 14.5893V14.59Z" fill="#92723A"/>
<path fill-rule="evenodd" clip-rule="evenodd" d="M41.0772 14.7141C41.0772 14.7141 40.9891 14.7763 41.1653 14.8954C41.1393 14.9316 41.0772 15.0609 40.9994 15.149C40.9116 15.2514 40.8181 15.3149 40.7819 15.403C40.7045 15.5842 40.6423 15.7085 40.6423 15.7863C40.6423 15.8641 40.6164 16.3611 40.399 16.6819C40.3211 16.7959 40.2331 16.9874 40.1709 17.1168C40.0416 17.3445 39.9276 17.5264 39.9016 17.6288C39.8501 17.81 39.8139 18.307 39.8139 18.307C39.8139 18.307 39.9279 18.1671 39.9692 18.1155C39.9068 18.2449 39.8395 18.3845 39.7412 18.4883C39.8033 18.4364 39.9846 18.307 40.2901 18.0377C40.7147 17.6807 41.3776 17.0799 42.1855 16.6041C41.9418 16.6922 41.7349 16.6922 41.5694 16.7181C41.6988 16.5888 42.8637 15.2217 43.4747 15.0923C43.5118 15.0453 43.5303 14.9863 43.5266 14.9265L43.0033 14.8749L41.9418 15.1026L41.7868 14.2834L41.0772 14.7131V14.7141Z" fill="#B18E3E"/>
<path fill-rule="evenodd" clip-rule="evenodd" d="M42.7653 19.3742C42.7653 19.3742 42.6253 19.5138 42.496 19.8609C42.3964 19.7569 42.311 19.6402 42.242 19.5138C42.0505 19.1929 41.7556 18.7836 41.0668 19.0168C41.0566 18.7993 41.0409 18.6853 41.0668 18.53C41.1808 18.5044 41.5276 18.2249 41.8744 17.8156C42.1181 17.5361 42.3458 17.2149 42.5011 16.806C42.6035 16.7281 42.7806 16.5988 43.0131 16.4486C43.3445 16.2209 43.7432 15.91 43.8053 15.5632C43.65 15.6253 43.3186 15.7806 42.8212 15.755C43.0131 15.6669 43.308 15.5737 43.2718 15.1904C43.3496 15.1385 43.4118 15.1024 43.4118 15.1024C43.3534 15.0829 43.292 15.0741 43.2305 15.0764C43.2199 15.0402 43.2046 14.9887 43.1165 15.0143C43.0284 15.0399 43.0141 15.0402 43.0025 15.0764C42.9663 15.087 42.8472 15.0764 42.7591 15.1389C42.6711 15.2014 42.4277 15.4079 42.3345 15.444C42.3707 15.3819 42.4222 15.2891 42.4222 15.2891C42.4222 15.2891 42.1686 15.3147 41.9874 15.3915C41.6559 15.5055 41.273 15.7127 40.8845 15.9144C40.9207 15.8523 40.9364 15.812 40.962 15.8004C40.9876 15.7888 41.0501 15.7748 41.0501 15.7642C41.0501 15.7536 41.0245 15.6618 41.0398 15.6246C41.1559 15.3786 41.293 15.143 41.4494 14.9204C41.6307 14.6767 41.6669 14.3299 41.6669 14.3299L42.4591 13.9313L44.6856 13.4193L46.1305 13.5073L45.9492 14.5067L45.0959 16.2516L44.3658 17.8412L43.5319 18.815L42.7656 19.3742H42.7653Z" fill="#543E26"/>
<path fill-rule="evenodd" clip-rule="evenodd" d="M46.3744 15.0496C46.3744 15.0496 45.5043 16.1265 45.2609 16.2924C45.4162 15.9609 46.3744 13.988 46.7211 13.4392C46.6437 13.377 46.5399 13.377 46.7833 12.4152C46.5764 12.9016 46.5037 13.1555 46.3331 13.2849C46.1624 13.4142 46.1412 13.3729 46.0259 13.3729C46.0476 13.3335 46.0566 13.2883 46.0515 13.2436C46.0515 13.2436 45.3213 13.1555 44.8227 13.1555C44.324 13.1555 43.3368 13.4248 42.7876 13.6423C42.3528 13.8235 42.1094 13.8235 41.9541 13.9372C41.7988 14.0665 41.7107 14.2065 41.6329 14.2427C41.5708 14.2788 41.2759 14.372 41.2083 14.4703C41.1461 14.5727 41.0427 14.6878 41.0427 14.7137C41.0427 14.7396 41.0168 14.7762 41.0946 14.7499C41.1202 14.7396 41.312 14.6359 41.5295 14.5065C41.8244 14.341 42.1818 14.1495 42.4408 14.0355C43.1812 13.7402 43.4143 13.7921 43.7454 13.73C44.0922 13.6679 44.5895 13.5228 44.9206 13.5228C45.252 13.5125 45.8787 13.5228 46.0238 13.5487C45.9617 13.6006 45.9098 13.6627 45.9357 13.8802C45.9357 13.9423 45.8839 14.0095 45.8333 14.1597C45.6784 14.5843 45.3831 15.2885 45.2189 15.6459C44.9913 16.1323 44.7325 16.5415 44.6045 16.7952C44.4765 17.0488 44.1949 17.7168 43.9161 18.0741C43.6372 18.4315 43.4914 18.6489 43.4041 18.7268C43.3167 18.8046 42.6893 19.265 42.7361 19.4309C42.8501 19.3947 43.57 19.1237 44.0925 18.5353C44.6151 17.9468 44.7192 17.5877 45.1281 17.2665C45.5371 16.9453 45.8583 16.4071 46.0497 15.962C46.2102 15.5476 46.174 15.4182 46.3757 15.0506L46.3744 15.0496Z" fill="#806031"/>
<path fill-rule="evenodd" clip-rule="evenodd" d="M27.625 23.0871C27.625 23.0871 27.511 23.5582 27.2519 23.7913C26.9983 24.0193 26.5477 24.2159 26.4962 24.5992C26.4341 24.9822 26.9467 25.174 26.9467 25.174C26.9467 25.174 26.6669 25.6348 26.6669 25.9816C26.6669 26.339 26.6566 26.4062 26.6928 26.7479C26.6517 26.7743 26.6168 26.8093 26.5904 26.8503C26.5904 26.8503 26.616 27.1818 26.8699 27.3886C27.1239 27.5954 27.341 27.72 27.4704 27.6682C27.4901 27.7104 27.5074 27.7537 27.5222 27.7979C27.5222 27.7979 27.7141 27.3111 27.8434 26.8865C27.9728 26.4516 28.0868 26.5134 28.1383 25.9284C28.1899 25.3433 28.7527 24.3388 28.7527 24.3388L29.1367 23.4803L28.5104 22.9936L27.625 23.0868V23.0871Z" fill="#B6903C"/>
<path fill-rule="evenodd" clip-rule="evenodd" d="M28.7898 23.9308C28.6607 24.0634 28.5415 24.2053 28.4331 24.3554C28.2676 24.5834 28.1382 24.7903 27.8949 24.8787C27.6515 24.9671 27.4962 24.9664 27.5115 25.2101C27.5269 25.4538 27.7549 25.5569 27.8843 25.6811C28.0242 25.8105 28.1382 26.0279 28.0761 26.2717C28.1536 26.2355 28.2935 26.1938 28.4229 25.9143C28.5523 25.6347 29.4571 23.9311 29.4571 23.9311H28.7898V23.9308Z" fill="#685026"/>
<path fill-rule="evenodd" clip-rule="evenodd" d="M32.3586 20.0007C32.3586 20.0007 32.4361 19.7938 32.3586 19.6436C32.2808 19.4883 31.8097 19.4365 31.5766 19.2603C31.3332 19.0791 31.038 18.9531 30.7946 19.0327C30.8308 18.9446 30.9758 18.7528 30.8567 18.7115C30.7427 18.6753 30.3184 18.8668 30.2044 18.9548C30.0904 19.0429 29.8313 19.1463 29.7798 19.2088C29.7283 19.2713 29.6399 19.39 29.588 19.3382C29.5361 19.302 29.5105 19.2088 29.4224 19.2603C29.3344 19.3119 28.9104 19.659 28.8323 19.8611C28.7541 20.0631 28.5783 20.5137 28.0503 21.026C27.5222 21.5384 27.2942 21.8702 27.4495 22.0617C27.6048 22.2531 27.6775 22.1135 27.7035 22.2791C27.7234 22.4416 27.7146 22.6064 27.6775 22.7658C27.6154 23.0351 27.512 23.2887 27.6516 23.3406C28.009 23.4546 28.3561 23.2382 28.4336 23.3044C28.5889 23.4441 28.3455 23.9465 28.7131 24.0448C29.0862 24.1472 29.4538 23.9567 29.4538 23.9567L30.8103 23.2266L32.1152 22.5382L32.7829 21.2175L32.4248 20.1147L32.3565 20.0007H32.3586Z" fill="#D4B968"/>
<path fill-rule="evenodd" clip-rule="evenodd" d="M31.0785 23.1542C31.0785 23.1542 30.8505 22.8074 31.1304 22.5016C31.4103 22.1958 31.8086 22.0667 31.9639 21.8753C31.9344 21.8388 31.8947 21.8118 31.8499 21.7978C31.953 21.6133 32.1103 21.465 32.3005 21.3728C32.223 21.2953 32.1192 21.2332 32.0056 21.2332C31.7516 21.2332 31.596 21.3885 31.3632 21.3885C31.1355 21.3885 31.1096 21.2745 31.1096 21.2745C31.1096 21.2745 31.4929 21.2383 31.4564 21.0673C31.4202 20.8861 31.354 20.8861 31.354 20.8861C31.354 20.8861 32.0943 20.5789 32.2237 20.415C32.3531 20.2512 32.3377 20.0577 32.3636 19.9802C32.4514 19.9802 32.964 19.7109 33.1712 19.8249C33.3784 19.9389 33.2334 20.2495 33.2334 20.2495C33.2334 20.2495 33.8604 19.7781 34.1799 19.3159C34.4594 19.3419 34.5895 19.1245 34.7943 19.1245C35.0482 19.1245 35.4469 19.4712 35.5244 20.2116C35.5763 20.6362 35.6538 20.8796 35.5763 21.6305C35.5401 22.0551 35.5503 22.9617 35.6787 23.4116C35.7664 23.769 35.9736 23.7328 35.9736 23.7328C35.9418 23.8417 35.8788 23.9389 35.7923 24.0123C35.6524 24.1417 35.637 24.4837 35.6524 24.6131C35.673 24.7077 35.699 24.801 35.7302 24.8926C35.7302 24.8926 35.5647 25.0841 35.523 25.2138C35.4868 25.3432 35.3162 25.4313 35.1916 25.4313C35.067 25.4313 35.1295 25.4207 34.9639 25.4313C34.7984 25.4418 34.7465 25.4674 34.6427 25.4313C34.539 25.3951 34.4615 25.3534 34.5031 25.0217C34.5393 24.6902 33.2241 23.9188 33.2241 23.9188L31.0737 23.1525L31.0785 23.1542Z" fill="#CCA849"/>
<path fill-rule="evenodd" clip-rule="evenodd" d="M28.6084 26.4264C28.6084 26.4264 29.0794 27.0531 31.0162 27.0531C31.9378 27.0531 32.259 26.965 32.4498 26.9132C32.6569 26.8613 33.4335 26.5561 34.2155 25.6342C34.9196 24.8006 34.7643 24.459 34.7643 24.459L34.3547 24.3969L33.0235 24.5781L29.0846 26.2558L28.6067 26.4264H28.6084Z" fill="#585136"/>
<path fill-rule="evenodd" clip-rule="evenodd" d="M30.0529 26.5819C30.0529 26.5819 28.3752 26.955 28.3752 25.8934C28.3752 24.8578 29.4108 23.7703 29.6699 23.5789C29.9392 23.387 30.5813 23.1693 30.5813 23.1693H32.1296L32.4245 23.9512L32.2951 25.6391L30.0529 26.5816V26.5819Z" fill="#252211"/>
<path fill-rule="evenodd" clip-rule="evenodd" d="M31.6012 23.4855C31.6012 23.4855 31.2804 23.1902 30.5503 23.5879C29.8202 23.9856 29.2297 24.8167 29.1935 25.5714C29.1573 26.239 29.7423 26.7364 30.6537 26.7623C31.3319 26.7879 31.7412 26.7104 31.9484 26.6599C31.8965 26.5978 31.6272 26.2612 31.6272 26.2612L31.6016 23.4858L31.6012 23.4855Z" fill="#C3B378"/>
<path fill-rule="evenodd" clip-rule="evenodd" d="M31.2855 23.651C31.2855 23.651 31.2081 23.5888 30.9783 23.7131C30.7869 23.8155 30.5073 24.0862 30.2899 24.2777C30.1499 24.3917 30.0619 24.4432 29.9827 24.5313C29.6615 24.9146 29.3922 25.5413 29.5478 25.8519C29.7035 26.1625 30.2158 26.5199 31.5207 26.2765L31.2818 23.6513L31.2855 23.651Z" fill="#E6D89C"/>
<path fill-rule="evenodd" clip-rule="evenodd" d="M30.8609 24.2931C30.8609 24.2931 30.6537 24.6143 30.6537 25.127C30.6537 25.6499 30.949 26.4834 32.0365 26.5455C32.87 26.5974 33.4291 25.3444 34.035 24.8576C34.4958 24.4849 34.7753 24.4743 34.7753 24.4743C34.7753 24.4743 34.3043 23.9623 33.0461 23.2991C31.8033 22.6311 30.4104 22.5431 29.6543 23.5684C30.0117 23.5425 31.1664 23.2472 31.1664 23.2472L31.731 23.4285L30.8609 24.2934V24.2931Z" fill="#252211"/>
<path fill-rule="evenodd" clip-rule="evenodd" d="M32.4868 24.9716C32.4506 24.8941 32.4247 24.7903 32.5748 24.7647C32.725 24.7391 32.7923 24.7541 32.8442 24.8671C32.896 24.9801 32.9466 25.0743 32.8698 25.1211C32.7923 25.1624 32.5902 25.1211 32.4864 24.9709L32.4868 24.9716ZM32.2434 24.2415C32.2434 24.2415 32.1915 24.2776 32.2175 24.2053C32.2277 24.1176 32.2953 23.9619 32.4608 23.9984C32.6264 24.035 32.5905 24.2159 32.5632 24.2677C32.5359 24.3196 32.3977 24.4074 32.2939 24.3701C32.2808 24.3668 32.2686 24.3604 32.2584 24.3514C32.2482 24.3425 32.2402 24.3312 32.2352 24.3186C32.2301 24.306 32.2281 24.2924 32.2293 24.2789C32.2305 24.2654 32.2349 24.2523 32.242 24.2408L32.2434 24.2415Z" fill="#6F674D"/>
<path fill-rule="evenodd" clip-rule="evenodd" d="M18.2273 24.5723C18.2273 24.5723 18.6369 24.8795 19.1127 24.8676C19.5838 24.857 20.1896 24.3706 20.4692 24.0596C20.6347 23.8784 20.7764 23.6869 20.93 23.5367C21.0597 23.4073 21.1474 23.3452 21.2095 23.2572C21.2976 23.1548 21.3908 22.9622 21.4375 22.8998C21.3235 22.9878 21.158 23.1435 20.987 23.2469C20.8214 23.3493 20.4641 23.5418 20.319 23.5937C20.1794 23.6456 18.7294 24.4129 18.7294 24.4129L18.2273 24.5723Z" fill="#AC924C"/>
<path fill-rule="evenodd" clip-rule="evenodd" d="M18.853 20.7466C18.853 20.7466 19.0807 20.5913 19.521 20.4926C19.9456 20.3902 20.8 20.3114 20.8 20.3114L21.5042 20.6186L21.7837 21.6801L21.2717 22.7833L20.6194 23.1929L19.8787 22.002L18.8547 20.7486L18.853 20.7466Z" fill="#9F8E57"/>
<path fill-rule="evenodd" clip-rule="evenodd" d="M17.9317 21.694L17.688 21.8759C17.688 21.8759 17.7505 21.7619 17.802 21.4151C17.8535 21.0683 18.1232 20.2242 18.5167 19.7375C18.9103 19.2507 18.9001 19.2767 18.9001 19.2767C18.8638 19.27 18.8266 19.2712 18.7909 19.2801C18.7552 19.289 18.7218 19.3054 18.6929 19.3282C18.7448 19.2135 19.0762 18.8039 19.4076 18.5991C19.7391 18.3943 19.8684 18.3298 20.2152 18.4967C20.562 18.6636 20.6501 18.7503 20.904 18.7401C21.158 18.7298 21.3751 18.4605 21.3751 18.4605C21.3751 18.4605 21.427 18.6261 21.2355 19.0094C21.044 19.3927 20.2879 20.1744 20.2879 20.1744L18.7137 21.2513L17.9317 21.695V21.694Z" fill="#EAC970"/>
<path fill-rule="evenodd" clip-rule="evenodd" d="M19.0961 20.617C19.0961 20.617 20.2355 20.7723 20.5823 20.4514C20.5925 20.4876 20.6341 20.4876 20.6341 20.5136C20.6314 20.5331 20.6222 20.5512 20.6082 20.5651C20.6459 20.5591 20.684 20.5557 20.7222 20.5549C20.7678 20.5684 20.8147 20.5771 20.8622 20.5808C20.9004 20.58 20.9385 20.5764 20.9762 20.5702C20.9726 20.596 20.9638 20.6207 20.9504 20.643C20.9371 20.6653 20.9193 20.6846 20.8983 20.6999C20.9502 20.6999 21.0007 20.7102 21.0007 20.7515C21.0007 20.7928 21.011 20.9174 20.9488 20.9433C20.8974 20.9575 20.8426 20.9538 20.7935 20.9327C20.7977 21.0308 20.8243 21.1265 20.8714 21.2126C20.9738 21.4041 21.1922 21.6222 21.4858 21.5594C21.4858 21.5594 21.6407 21.9321 20.9884 22.7606C20.9007 22.8746 20.8072 23.0299 20.6935 23.1592C20.6486 23.2571 20.6143 23.3595 20.5911 23.4647C20.5911 23.4647 21.6943 23.0401 22.0101 22.0718C22.3313 21.0983 22.3934 20.1405 22.3312 19.2448C22.3207 18.9909 22.2794 18.81 22.2172 18.6803C22.0619 18.3591 21.6267 18.411 21.451 18.5922C21.197 18.8462 20.7724 19.4776 20.1822 19.9125C19.5815 20.3473 19.5559 20.4245 19.0947 20.617H19.0961Z" fill="#D7BC6B"/>
<path fill-rule="evenodd" clip-rule="evenodd" d="M17.7294 22.0152C17.7294 22.0152 17.512 22.1445 17.398 22.6296C17.284 23.1265 17.5004 23.7324 17.6256 23.9239C17.7509 24.1154 18.0352 24.6386 18.6251 24.6646C18.7711 24.6638 18.9154 24.6339 19.0497 24.5765C19.2556 24.4821 19.4487 24.362 19.6245 24.2191C19.8784 24.0277 20.0853 23.8621 20.0594 23.8464C19.9972 23.8205 18.4957 22.5777 18.4957 22.5777L17.9311 21.9476L17.7291 22.0158L17.7294 22.0152Z" fill="#585136"/>
<path fill-rule="evenodd" clip-rule="evenodd" d="M19.1488 24.0758C19.1488 24.0758 19.4543 24.0502 19.6355 23.9362C19.8168 23.8222 18.574 22.59 18.574 22.59L18.662 23.9212L19.1488 24.0758Z" fill="#453A25"/>
<path fill-rule="evenodd" clip-rule="evenodd" d="M17.8278 21.9216C17.8278 21.9216 17.6725 22.2169 17.6725 22.2947C17.6465 22.5483 17.7244 23.3457 17.7865 23.5993C17.8486 23.8686 18.1852 24.2775 18.6204 24.2775C18.8893 24.2775 19.2624 24.112 19.2624 24.0707C19.2624 24.0188 18.8791 23.9683 18.7757 23.7754C18.7136 23.673 18.6876 23.4184 18.6733 23.161C18.663 22.9955 18.663 22.8142 18.7252 22.7514C18.8651 22.5961 18.8907 22.1507 18.8907 22.1507L19.3877 21.2274H18.734L17.952 21.7141L17.8278 21.9216Z" fill="#84754B"/>
<path fill-rule="evenodd" clip-rule="evenodd" d="M17.6365 22.2067C17.6365 22.2067 18.1485 21.5285 18.61 21.3728C19.0714 21.2172 19.2779 21.3107 19.2779 21.3107L19.0086 21.9995L18.6253 22.4241L18.6513 22.6416C18.6513 22.6416 18.5888 23.2164 18.9721 23.615C19.3554 24.0137 19.6401 23.9984 19.806 23.9984C19.9719 23.9984 20.448 23.8584 20.6914 23.2836C20.9088 22.7453 21.0901 22.0548 20.6552 21.3626C20.2303 20.6738 19.4797 20.6472 19.3346 20.6472C19.1895 20.6472 18.0505 20.7042 17.6365 22.2057V22.2067Z" fill="#252211"/>
<path fill-rule="evenodd" clip-rule="evenodd" d="M30.7831 24.5107C30.5917 24.4226 30.7729 23.8844 30.9644 23.7185C31.1559 23.5526 31.3993 23.3614 31.8242 23.3351C31.9792 23.3249 32.1294 23.4232 32.1038 23.527C32.0676 23.7185 31.7983 23.9878 31.5549 24.1793C31.2184 24.4435 31.0006 24.609 30.7831 24.5107Z" fill="#F7F7E7"/>
<path fill-rule="evenodd" clip-rule="evenodd" d="M20.4269 21.575C20.5668 21.5647 20.7481 21.6774 20.7843 21.8289C20.8205 21.9945 20.6962 22.3259 20.4269 22.3259C20.2095 22.3259 20.0955 22.0566 20.0955 21.9791C20.0979 21.9154 20.1157 21.8532 20.1473 21.7979C20.1576 21.7822 20.1835 21.6009 20.4269 21.575Z" fill="#F8F6DE"/>
<path fill-rule="evenodd" clip-rule="evenodd" d="M18.4078 21.694C18.4078 21.694 18.0504 21.8596 17.8848 22.206C17.7665 22.4619 17.7308 22.7482 17.7824 23.0252C17.8084 23.1546 17.9377 23.4755 18.0258 23.5895C18.1139 23.7035 18.233 23.7813 18.3211 23.7707C18.4091 23.7601 18.59 23.5273 18.59 23.3877C18.59 23.2481 18.6006 22.6576 18.7713 22.3364C18.9215 22.0156 18.4088 21.6944 18.4088 21.6944L18.4078 21.694Z" fill="#D4C38B"/>
<path fill-rule="evenodd" clip-rule="evenodd" d="M18.4596 21.6681C18.3975 21.7043 18.2941 21.7562 18.3197 21.8234C18.3456 21.8856 18.563 21.9258 18.6409 22.0774C18.7289 22.2327 18.7289 22.3982 18.703 22.4761C18.7706 22.4439 18.832 22.4 18.8842 22.3464C18.9982 22.217 19.1378 22.0412 19.257 22.0412C19.3348 22.0412 19.4123 22.0774 19.485 22.0774C19.599 22.0774 19.7126 22.0412 19.7283 21.9221C19.7539 21.7668 19.5109 21.6268 19.371 21.6528C19.3969 21.5504 19.4331 21.3992 19.3191 21.2954C19.2051 21.1916 18.8481 21.3732 18.7702 21.4251C18.6924 21.477 18.4596 21.6685 18.4596 21.6685V21.6681Z" fill="#E2D59D"/>
<path fill-rule="evenodd" clip-rule="evenodd" d="M26.6874 32.5471L27.4537 32.3208L27.6711 32.4761C27.6711 32.4761 27.8261 32.8075 28.0698 32.8488C27.992 33.0144 27.7899 33.156 27.8005 33.2735C27.8111 33.3909 27.9145 33.4807 27.9145 33.4807C27.9145 33.4807 27.2257 34.6197 28.5825 35.7676C28.2613 35.8969 27.8524 36.0748 27.6349 36.1772C27.7899 36.2134 28.1213 36.2796 28.2613 36.4052C28.4012 36.5308 28.4012 36.5707 28.5306 36.6486C28.66 36.7264 28.7374 36.8298 28.7118 36.8762C28.6238 36.8244 28.3285 36.6694 28.277 36.8141C28.2254 36.9588 26.998 36.9022 26.998 36.9022L24.9268 37.3009C24.9268 37.3009 25.0043 37.0937 24.7868 36.9022C24.5332 36.6745 24.2226 36.9124 23.8912 36.6588C23.4563 36.3274 23.4406 35.9441 23.301 35.7993C23.4406 35.7113 23.7256 35.5819 24.4039 35.4921C24.3779 35.4402 24.2899 35.2849 24.3418 35.1453C24.4039 34.9641 24.6626 34.8501 24.5851 34.6333C24.6991 34.6074 24.7507 34.6074 25.0357 34.25C25.305 33.8926 25.4705 33.8152 25.6777 33.7892C25.8849 33.7633 26.0092 33.7892 26.3925 33.4318C26.6614 33.1782 26.5737 32.9608 26.5737 32.9608C26.5737 32.9608 26.7495 32.9038 26.6877 32.5464L26.6874 32.5471Z" fill="#CBAC5A"/>
<path fill-rule="evenodd" clip-rule="evenodd" d="M24.4248 32.6621C24.435 32.6102 24.4767 32.5843 24.7562 32.6102C25.0358 32.6361 26.8066 32.4446 27.2882 32.4187C27.775 32.3825 29.4888 32.4081 30.3227 32.5843C31.1566 32.7604 32.0003 32.9676 32.4093 33.071C32.8189 33.185 32.9479 33.226 32.9322 33.2778C32.9219 33.3297 32.8298 33.3802 32.7769 33.3659C32.7253 33.3557 31.3685 32.9413 30.9494 32.8539C30.5302 32.7665 29.0799 32.5327 28.287 32.5467C27.5466 32.5573 27.2514 32.5365 26.625 32.6088C25.9983 32.6867 24.9627 32.7901 24.6521 32.7488C24.3449 32.7126 24.4084 32.7126 24.4241 32.6607L24.4248 32.6621Z" fill="#D6BC6F"/>
<path fill-rule="evenodd" clip-rule="evenodd" d="M28.5928 36.7204C28.5928 36.7204 29.6543 37.2952 30.0376 37.9994C30.3172 38.5223 29.8721 38.7814 29.8721 38.7814C29.8721 38.7814 30.4728 38.7814 30.395 39.1128C30.3588 39.3197 29.3594 39.8788 28.6914 40.174C28.0132 40.4693 28.0391 40.4539 27.7077 40.5055C27.3865 40.5573 26.5062 40.4031 26.325 40.6608C26.1437 40.9185 26.2226 41.184 26.2731 41.2253C26.325 41.2615 26.7445 41.3134 26.7445 41.3134C26.7445 41.3134 26.6564 41.5568 25.7867 41.5827C24.917 41.6086 24.6992 41.6704 24.6473 41.764C24.5954 41.8517 24.8129 41.8001 25.2119 41.8664C25.6106 41.9285 26.1697 41.9688 26.1697 41.9688C26.1697 41.9688 25.9884 42.1241 25.5174 42.2483C24.9787 42.3879 24.1346 42.5176 23.881 42.6729C24.0104 42.761 24.2022 42.8904 24.2906 42.9006C24.0732 42.9525 23.7674 43.0665 23.7158 43.1078C23.7933 43.1597 23.8971 43.2218 23.8971 43.2218C23.8971 43.2218 23.4619 43.7447 23.2082 43.8744C22.9546 44.0041 21.4944 44.682 20.992 44.5526C19.7389 44.2212 19.5836 42.8491 19.2781 42.7456C18.8173 42.5903 18.5999 42.9006 18.1906 42.6832C18.3719 42.5538 18.4705 42.4763 18.662 42.3883C18.4548 42.2859 17.3831 41.6063 17.3831 41.6063C17.271 41.362 17.1466 41.1235 17.0103 40.8918C16.8031 40.5345 16.4983 40.058 16.2696 39.6385C15.7726 38.7169 15.7467 38.2923 15.2961 37.7693C15.374 37.6669 15.6429 37.6813 15.6429 37.6813L19.4181 38.9241L26.112 39.1179L27.8528 36.6327L28.5931 36.7208L28.5928 36.7204Z" fill="#DFC677"/>
<path fill-rule="evenodd" clip-rule="evenodd" d="M18.677 40.511C18.7174 40.5559 18.7645 40.5944 18.8166 40.625C18.9463 40.713 19.1378 40.8168 19.2672 40.9718C19.319 40.8943 19.4484 40.7543 19.6768 40.9718C19.9051 41.1892 20.1888 41.0342 20.3652 41.0858C20.5465 41.1482 20.5567 41.1738 20.5567 41.1738C20.5567 41.1738 20.6591 41.0858 20.8882 40.9926C21.0281 40.9407 21.1937 40.9045 21.3749 40.853C21.5404 40.8168 21.7217 40.7649 21.8463 40.7649C21.9603 40.8424 22.3692 41.2769 24.0107 40.6355C25.559 40.0348 25.916 39.9676 26.1751 40.0604C26.201 39.9983 26.227 39.8791 26.6256 39.8948C26.6256 39.7293 26.2942 39.1647 26.2942 39.1647L24.4664 38.5384H23.4666L20.4687 39.0873L18.8074 40.0351L18.678 40.513L18.677 40.511Z" fill="#C4A859"/>
<path fill-rule="evenodd" clip-rule="evenodd" d="M17.6776 39.4596C17.6776 39.4596 17.7138 39.7392 18.1282 40.0345C18.5378 40.3294 18.6665 40.5055 18.6665 40.5055C18.6665 40.5055 18.7443 40.4031 18.8064 40.2986C18.8685 40.1846 18.9204 40.0553 19.0238 40.0191C19.231 39.931 19.7021 40.0966 19.8058 40.0706C19.8939 40.045 19.8679 39.8638 19.9611 39.8638C20.1786 39.8532 20.3182 40.0034 20.396 40.0034C20.4738 40.0034 20.665 39.9931 20.6909 39.9518C20.7168 39.9105 20.7271 39.4805 21.0223 39.2733C21.3435 39.0456 21.7371 39.1439 21.8415 39.1958C21.8415 39.2733 21.8518 39.4651 22.059 39.4753C22.2662 39.4856 22.2866 39.4494 22.4686 39.5115C22.6505 39.5737 22.8672 39.5013 22.9655 39.8064C23.0536 39.7808 23.2608 39.7549 23.2089 39.4596C23.3113 39.3822 23.4007 39.3303 23.6185 39.0248C23.6704 38.9473 23.7581 38.8592 23.8257 38.7452C24.007 38.7452 24.2244 38.7091 24.5142 38.9627C24.4261 39.0248 24.3742 39.0651 24.3486 39.1282C24.4244 39.2033 24.4936 39.2847 24.5555 39.3716C24.6333 39.474 24.6852 39.5996 24.7835 39.6255C25.0009 39.6877 25.3583 39.5996 25.757 39.6255C26.1403 39.6515 26.4611 39.7911 26.6011 39.8791C26.653 39.8535 26.653 39.843 26.7823 39.8689C26.9117 39.8948 27.01 39.9051 26.8704 39.7395C26.9479 39.7757 27.0359 39.8535 27.1138 39.7757C27.1916 39.6979 27.2534 39.5842 27.4708 39.5583C27.6882 39.5324 27.7661 39.5685 27.8541 39.3409C27.9681 39.0613 27.5746 39.0613 27.5746 39.0613C27.5746 39.0613 27.7558 38.8954 27.9579 38.678C28.2013 38.4503 28.4808 38.1551 28.5481 37.7926C28.6621 37.1246 28.0098 37.0369 28.0098 37.0369L24.846 38.0103L20.978 37.8185L17.6797 39.46L17.6776 39.4596Z" fill="#927D49"/>
<path fill-rule="evenodd" clip-rule="evenodd" d="M14.8351 30.3204C14.8351 30.3204 14.7327 30.4498 14.6696 30.7553C14.6064 31.0608 14.6334 31.0246 14.5815 31.242C14.5296 31.4594 13.8923 33.6238 14.1313 34.354C14.3702 35.0841 14.7839 35.3534 15.0426 35.9435C15.0945 36.0729 15.145 36.1507 15.172 36.2647C15.2601 36.6477 15.1826 36.943 15.286 37.3263C15.3222 37.4557 15.4157 37.6058 15.5553 37.7611C15.8625 38.082 16.3633 38.3875 16.5793 38.6049C16.8845 38.9261 17.3197 39.5787 17.8737 39.6405C18.1689 39.6767 18.5884 39.5525 18.9352 39.3456C19.2424 39.1538 19.4322 38.8848 19.7544 38.7312C19.9821 38.6172 20.2254 38.5759 20.4429 38.524C20.8934 38.436 21.3027 38.4216 21.5461 38.4721C21.9188 38.55 22.7991 38.8193 23.2869 38.8193C23.668 38.8131 24.047 38.761 24.4157 38.664C25.156 38.4465 26.0517 38.0735 26.6422 37.9079C26.989 37.8055 27.2685 37.7786 27.5535 37.7164C28.0403 37.6024 28.4492 37.4471 28.6823 37.1519C28.527 36.9706 28.3355 36.6911 27.2996 36.7013C26.1244 36.7272 24.7676 37.3795 24.0996 37.4833C23.4316 37.5871 23.1418 37.6748 22.396 37.4055C21.6649 37.1334 21.6406 36.9535 21.6406 36.9535C21.6406 36.9535 20.873 36.4166 20.5518 35.0479C20.2306 33.6791 20.5518 32.6818 21.3856 31.7339C21.6031 31.4905 21.5512 31.2731 21.5512 31.2731C21.5512 31.2731 22.1 30.5327 21.9499 29.8395C21.7843 29.1507 20.7228 29.2906 20.7228 29.2906L14.8355 30.3204H14.8351Z" fill="#6E6342"/>
<path fill-rule="evenodd" clip-rule="evenodd" d="M15.7204 32.6248C15.6748 32.7106 15.6533 32.8072 15.6583 32.9043C15.6685 33.0439 15.7102 33.2252 16.1293 33.6344C16.4867 33.9915 16.4089 34.3901 16.4089 34.3901C16.4089 34.3901 16.5888 34.4263 17.0769 34.198C17.4602 34.0167 17.5889 34.3379 17.5889 34.3379C17.7005 34.2794 17.8214 34.2408 17.9463 34.2239C18.0594 34.2135 18.1689 34.1785 18.2671 34.1215C18.2671 34.1215 18.7177 34.5823 19.1112 34.7997C19.4686 34.9916 19.6758 35.1209 19.8519 34.9916C20.0175 34.8776 20.0175 34.6444 20.0069 34.541C19.9658 34.4455 19.9138 34.3552 19.8519 34.2717C19.7379 34.1061 19.5567 33.9143 19.5447 33.7597C19.5188 33.4027 19.814 32.9777 19.7516 32.8743C19.6891 32.7708 19.4567 32.7449 18.8819 32.9521C18.2866 33.1487 15.718 32.6258 15.718 32.6258L15.7204 32.6248Z" fill="#39331F"/>
<path fill-rule="evenodd" clip-rule="evenodd" d="M17.077 34.9396C17.077 34.9396 16.7821 34.6601 16.8855 33.3033C17.0107 33.3015 17.1357 33.3136 17.2583 33.3395C17.2583 33.3395 17.419 34.3908 17.077 34.9396Z" fill="#292311"/>
<path fill-rule="evenodd" clip-rule="evenodd" d="M14.9749 29.2849C15.016 29.2544 15.0542 29.2201 15.0889 29.1825C14.9865 29.3739 14.5138 30.1402 14.8971 31.3469C15.2804 32.548 16.2433 33.4437 17.4291 33.4853C18.6149 33.527 19.2382 32.9467 19.9509 32.077C20.2304 31.7302 20.5516 31.295 20.8363 31.0001C21.2609 30.5389 21.5923 30.4096 21.5923 29.9645C21.5923 29.0531 20.6601 28.6438 19.288 28.2349C17.9158 27.826 16.6782 27.8765 16.0361 28.1564C15.4098 28.4616 15.1404 28.7828 14.9746 29.2852L14.9749 29.2849Z" fill="#252211"/>
<path fill-rule="evenodd" clip-rule="evenodd" d="M19.3811 35.3485L19.4835 35.2967C19.4835 35.2967 19.5091 34.8871 19.675 34.898C19.8406 34.9239 19.9184 35.1417 19.9027 35.2192C19.8925 35.2967 19.8512 35.4264 19.6853 35.4107C19.4678 35.4158 19.3801 35.3485 19.3801 35.3485H19.3811Z" fill="#3F3824"/>
<path fill-rule="evenodd" clip-rule="evenodd" d="M18.9204 33.6085C18.9204 33.6085 19.0228 33.5723 19.1481 33.6965C19.2505 33.6965 19.6969 33.6447 19.8369 33.7327C19.9768 33.8208 20.0181 33.8983 20.0181 33.8983C20.0181 33.8983 19.4952 34.0123 19.2102 33.8983C18.9204 33.8 18.9204 33.6085 18.9204 33.6085Z" fill="#2D2815"/>
<path fill-rule="evenodd" clip-rule="evenodd" d="M21.2247 33.6861C21.2247 33.6602 20.9452 33.4687 20.6499 33.4062C20.598 33.396 20.5875 33.4322 20.5475 33.4322C20.5216 33.4219 20.5113 33.3441 20.5113 33.3441L20.3434 33.4325C20.3434 33.4325 20.3175 33.4687 20.4055 33.5349C20.483 33.597 20.6127 33.6489 20.6489 33.7524C20.6851 33.8558 20.6851 33.892 20.7008 33.9077C20.711 33.9179 20.8923 33.9077 20.9803 33.8558C21.0684 33.8039 21.2343 33.7192 21.2237 33.6851L21.2247 33.6861Z" fill="#82764F"/>
<path fill-rule="evenodd" clip-rule="evenodd" d="M18.6099 34.7373C18.6099 34.7373 18.6614 34.3803 19.0085 34.3646C19.3656 34.3387 19.4332 34.6855 19.4332 34.6855L19.226 34.8926C19.226 34.8875 19.0707 34.6701 18.6116 34.7373H18.6099Z" fill="#2D2816"/>
<path fill-rule="evenodd" clip-rule="evenodd" d="M20.8623 33.1992C20.8623 33.1992 20.6705 33.4064 20.2462 33.4685C20.21 33.4166 20.1322 33.3132 20.2462 33.1476C20.3602 32.9821 20.4896 32.9302 20.619 32.9818C20.676 32.991 20.7293 33.0164 20.7724 33.0549C20.8155 33.0934 20.8467 33.1435 20.8623 33.1992Z" fill="#574F35"/>
<path fill-rule="evenodd" clip-rule="evenodd" d="M21.6439 33.4533C21.6545 33.4015 21.6183 33.3912 21.6439 33.3653C21.6695 33.3393 21.8098 33.2878 21.8357 33.3134C21.8459 33.324 21.8357 33.3653 21.8357 33.4158C21.8357 33.4663 21.8357 33.5182 21.8098 33.5554C21.7736 33.6073 21.6702 33.6332 21.6183 33.6179C21.5664 33.6025 21.5562 33.5298 21.5562 33.5155C21.5818 33.5052 21.6439 33.4793 21.6439 33.4533ZM22.5279 32.8942C22.5279 32.8683 22.616 32.8164 22.6679 32.8164C22.7454 32.8164 22.7454 32.8785 22.7559 32.8942C22.7815 32.9045 22.7815 32.8836 22.8075 32.9304C22.8334 32.9772 22.8699 33.0598 22.8437 33.1117C22.8174 33.1635 22.7143 33.1994 22.6887 33.1891C22.6525 33.1632 22.5385 32.9304 22.5279 32.8942Z" fill="#82764F"/>
<path fill-rule="evenodd" clip-rule="evenodd" d="M20.7485 33.5724C20.7485 33.5724 20.8625 33.598 21.0178 33.7277C20.966 33.7639 20.8881 33.8052 20.8881 33.8052C20.8881 33.8052 20.8779 33.686 20.7485 33.572V33.5724Z" fill="#6E6342"/>
<path fill-rule="evenodd" clip-rule="evenodd" d="M20.4946 32.433C20.4686 32.4074 20.5721 32.3453 20.6342 32.3555C20.6963 32.3658 20.7222 32.4074 20.7895 32.4177C20.8567 32.4279 20.8673 32.3917 20.8919 32.3658C20.9165 32.3398 21.0059 32.3555 21.0212 32.3658C21.0308 32.3771 21.0395 32.3892 21.0472 32.402C21.0483 32.3823 21.0534 32.363 21.0623 32.3454C21.0711 32.3278 21.0836 32.3122 21.0987 32.2996C21.1186 32.285 21.1415 32.275 21.1657 32.2706C21.19 32.2661 21.2149 32.2671 21.2387 32.2736C21.2489 32.3098 21.3008 32.4392 21.2906 32.4651C21.2803 32.491 21.125 32.5276 21.0987 32.5013C21.1247 32.5637 21.2387 32.6931 21.254 32.7187C21.2694 32.7443 21.14 32.8068 21.0885 32.7965C21.0161 32.7914 20.5707 32.5323 20.4932 32.434L20.4946 32.433ZM21.1728 31.5735C21.1632 31.5475 21.1449 31.5255 21.1209 31.5114C21.0847 31.5012 20.9656 31.5114 20.9656 31.5735C20.9656 31.6357 21.068 31.9831 21.183 32.164C21.3127 32.3453 21.4005 32.4951 21.4885 32.5368C21.5162 32.5494 21.5476 32.551 21.5764 32.5414C21.6052 32.5318 21.6293 32.5116 21.6438 32.4849C21.6541 32.459 21.68 32.2675 21.6698 31.8169C21.6595 31.3663 21.6438 30.9315 21.6179 30.9055C21.592 30.8796 21.4885 30.8799 21.4524 30.9315C21.4162 30.983 21.183 31.4961 21.1725 31.5735H21.1728Z" fill="#585136"/>
<path fill-rule="evenodd" clip-rule="evenodd" d="M20.712 34.2247C20.712 34.2247 20.5308 34.1107 20.3546 34.1885C20.1891 34.2663 20.1993 34.5718 20.1993 34.5718C20.2366 34.5864 20.2768 34.5917 20.3166 34.5871C20.3563 34.5826 20.3943 34.5685 20.4274 34.5459C20.5414 34.4684 20.6861 34.339 20.712 34.225V34.2247Z" fill="#574F35"/>
<path fill-rule="evenodd" clip-rule="evenodd" d="M21.0538 34.6341C21.0436 34.5317 20.9514 34.5317 20.9514 34.4787C20.9578 34.4535 20.9724 34.431 20.993 34.4151C21.0136 34.3991 21.039 34.3905 21.0651 34.3907C21.117 34.3907 21.1675 34.4528 21.231 34.4931C21.2931 34.5293 21.3863 34.5955 21.3965 34.6743C21.4068 34.7532 21.2941 34.9692 21.1688 34.9692C21.0436 34.9692 21.0808 34.7361 21.0548 34.6327L21.0538 34.6341ZM22.0532 34.4941C22.0532 34.4941 21.846 34.5562 21.8614 34.4941C21.8768 34.432 21.9239 34.4166 21.9911 34.4166C22.0253 34.3809 22.0712 34.3587 22.1205 34.3542C22.1487 34.3528 22.1763 34.362 22.198 34.3801C22.198 34.3801 22.3379 34.318 22.3792 34.3542C22.4205 34.3903 22.3898 34.3903 22.4154 34.432C22.448 34.4782 22.4694 34.5314 22.4779 34.5873C22.4779 34.6286 22.3226 34.7167 22.198 34.7013C22.0532 34.6702 22.0788 34.5201 22.0532 34.4941ZM23.2595 34.261C23.2595 34.261 23.3216 34.2972 23.2701 34.3388C23.2339 34.375 23.0527 34.4412 22.897 34.4528C22.7417 34.4528 22.6021 34.4784 22.6021 34.4269C22.6021 34.3753 22.7315 34.2716 22.809 34.2456C22.8245 34.2262 22.8442 34.2105 22.8667 34.1997C22.8892 34.1889 22.9138 34.1834 22.9387 34.1835C23.0008 34.1835 23.2438 34.1576 23.3114 34.1473C23.3735 34.1367 23.4254 34.1729 23.3889 34.2248C23.3735 34.261 23.2595 34.261 23.2595 34.261ZM23.6169 32.6622C23.6169 32.6622 23.5391 32.8277 23.4513 32.8277C23.3633 32.8175 23.3633 32.7915 23.3633 32.7656C23.3633 32.7294 23.4513 32.6362 23.4408 32.6103C23.4152 32.6103 23.3527 32.6103 23.3633 32.5482C23.3633 32.4963 23.4513 32.4342 23.5288 32.4458C23.5874 32.3977 23.6603 32.3704 23.736 32.3683C23.8241 32.3683 23.9016 32.3939 23.9016 32.4458C23.9016 32.4977 23.7992 32.6113 23.7616 32.6376C23.7203 32.6789 23.6684 32.7059 23.6169 32.6632V32.6622ZM22.4362 35.7222C22.4362 35.7222 22.3338 35.7328 22.3338 35.7843C22.3338 35.8103 22.3594 35.8103 22.3959 35.7949C22.417 35.7937 22.4378 35.7902 22.4581 35.7843C22.4683 35.7949 22.4683 35.8465 22.5461 35.8465C22.61 35.8378 22.6716 35.8167 22.7274 35.7843C22.7895 35.7587 22.8414 35.7325 22.8414 35.6819C22.8154 35.5939 22.7636 35.5522 22.6861 35.5522C22.6464 35.5497 22.6068 35.5587 22.5721 35.5782C22.5721 35.5782 22.5461 35.5263 22.4581 35.5782C22.37 35.6301 22.3802 35.6301 22.4062 35.656C22.4526 35.6973 22.4372 35.7243 22.4372 35.7243L22.4362 35.7222ZM21.8512 36.2609C21.8512 36.2349 21.9805 36.183 22.0167 36.1987C22.0529 36.209 22.1563 36.4056 22.1563 36.4264C22.1563 36.4523 22.027 36.5145 21.9751 36.5145C21.9232 36.5145 21.8355 36.4264 21.8355 36.4121C21.8355 36.4018 21.8976 36.3865 21.8976 36.3759C21.913 36.3503 21.8512 36.2878 21.8512 36.2619V36.2609ZM21.4416 35.5048C21.4675 35.4946 21.4675 35.4686 21.5037 35.4427C21.515 35.4351 21.5279 35.4303 21.5414 35.4285C21.5549 35.4267 21.5686 35.4281 21.5815 35.4324C21.5906 35.4161 21.6033 35.4021 21.6185 35.3913C21.6337 35.3805 21.6512 35.3732 21.6696 35.37C21.7317 35.3597 21.7836 35.37 21.772 35.3959C21.772 35.4737 21.8239 35.5253 21.8239 35.5874C21.8239 35.6495 21.7877 35.7273 21.6583 35.7792C21.529 35.8154 21.3528 35.8154 21.3269 35.8052C21.3009 35.7949 21.275 35.6912 21.3009 35.6393C21.3269 35.5874 21.3992 35.5307 21.4409 35.5048H21.4416Z" fill="#82764F"/>
<path fill-rule="evenodd" clip-rule="evenodd" d="M21.6063 35.5402C21.6063 35.5402 21.5182 35.592 21.5182 35.618C21.5104 35.643 21.507 35.6692 21.508 35.6955C21.508 35.7108 21.622 35.6852 21.6374 35.6695C21.6425 35.6593 21.6063 35.5671 21.6063 35.5402Z" fill="#6E6342"/>
<path fill-rule="evenodd" clip-rule="evenodd" d="M20.8362 35.2963C20.8878 35.3069 20.9758 35.2963 21.0431 35.3222C21.0949 35.3482 21.1311 35.4001 21.0792 35.4622C21.0274 35.5243 20.9768 35.6175 20.8618 35.6018C20.7325 35.5916 20.6082 35.5243 20.6082 35.4724C20.606 35.4396 20.6104 35.4067 20.6211 35.3756C20.6317 35.3445 20.6485 35.3158 20.6703 35.2912C20.7222 35.2499 20.7478 35.2758 20.8359 35.2963H20.8362Z" fill="#585136"/>
<path fill-rule="evenodd" clip-rule="evenodd" d="M20.7743 35.3485C20.7743 35.3485 20.6087 35.4779 20.5671 35.5403C20.5152 35.6025 20.2616 35.9233 20.1841 35.9906C20.2099 35.9452 20.2392 35.9019 20.2719 35.8612C20.1695 35.9267 20.0927 36.0254 20.0544 36.1407C19.9923 36.3326 20.4016 36.436 20.6705 36.5138C20.9395 36.5916 21.0436 36.6162 21.0436 36.6162C20.9446 36.4674 20.8596 36.3097 20.7897 36.1452C20.6873 35.9018 20.6343 35.8759 20.7016 35.7619C20.7535 35.6479 20.8313 35.5704 20.8313 35.4823C20.8002 35.4004 20.7743 35.3485 20.7743 35.3485Z" fill="#574F35"/>
<path fill-rule="evenodd" clip-rule="evenodd" d="M14.8712 35.7577C14.9089 35.7646 14.9475 35.7646 14.9852 35.7577C15.0627 35.7471 15.8706 35.4505 16.7147 35.5038C17.3466 35.542 17.973 35.6449 18.5838 35.811C19.6454 36.0905 20.9657 36.6445 21.82 36.9606C22.0477 37.0483 22.2706 37.2039 22.4344 37.2657C23.0871 37.5197 23.1127 37.5197 23.496 37.5869C23.9465 37.649 24.4073 37.4989 24.889 37.3954C25.4791 37.2657 26.4888 37.2036 27.3742 37.0742C27.6605 37.0346 27.9429 36.9705 28.2183 36.8828C28.2183 36.8828 27.5142 37.5869 25.8259 37.8405C25.1435 37.9442 24.4501 37.9529 23.7653 37.8665C23.2267 37.8146 22.8696 37.7368 22.6003 37.6593C22.2948 37.5712 21.6681 37.3381 20.8967 37.1473C20.3581 37.0073 19.7574 36.9039 19.0689 36.7746C17.3704 36.4636 15.5272 36.1066 14.8705 35.7598L14.8712 35.7577Z" fill="#252211"/>
<path fill-rule="evenodd" clip-rule="evenodd" d="M12.9655 32.5576C12.5559 32.9044 12.1214 33.2358 11.6971 33.5566L10.4181 34.5393C9.98326 34.8602 9.55864 35.1916 9.12344 35.5128C8.68824 35.834 8.25372 36.1392 7.79224 36.4344C8.20184 36.0876 8.63635 35.7664 9.07121 35.4507C9.50607 35.135 9.95697 34.8254 10.3765 34.5052L11.6554 33.5211C12.0954 33.2003 12.52 32.8689 12.9655 32.5582V32.5576ZM10.7028 36.1822C10.7028 36.1822 11.1636 35.7989 11.7384 35.2606C12.4528 34.5929 13.328 33.7382 13.6075 33.5833L10.7024 36.1825L10.7028 36.1822Z" fill="#CFB66C"/>
<path fill-rule="evenodd" clip-rule="evenodd" d="M10.7029 36.1819C10.9309 35.9542 11.1743 35.7316 11.4176 35.5139L11.7904 35.193C11.9044 35.0906 12.0341 34.9756 12.1477 34.8616C12.3754 34.6339 12.5983 34.3902 12.826 34.1574C12.9388 34.0403 13.0581 33.9297 13.1834 33.826C13.246 33.7706 13.3155 33.7235 13.3902 33.686C13.4527 33.6498 13.5199 33.5836 13.6076 33.572C13.5561 33.6498 13.494 33.686 13.4421 33.7533C13.38 33.8052 13.3281 33.8673 13.2765 33.9188C13.1625 34.0328 13.0332 34.1362 12.9192 34.24C12.6758 34.4472 12.4222 34.6496 12.1788 34.8664C11.9354 35.0831 11.7078 35.3169 11.4641 35.5343C11.2002 35.7572 10.9568 35.9747 10.7029 36.1829V36.1819ZM13.7995 34.1106C13.7995 34.1106 12.1116 35.7627 11.7644 36.0317L13.7995 34.1106Z" fill="#CFB66C"/>
<path fill-rule="evenodd" clip-rule="evenodd" d="M13.7993 34.1106C13.6475 34.2864 13.4847 34.4524 13.3119 34.6076L12.7999 35.0943C12.6343 35.2599 12.4787 35.4258 12.3029 35.5913C12.1217 35.7466 11.9561 35.8985 11.7643 36.0419L12.2613 35.5551C12.4272 35.3896 12.6084 35.25 12.7845 35.0841L13.2815 34.5973C13.4522 34.4267 13.6181 34.2608 13.7993 34.1106ZM13.8768 35.0063C13.7212 35.4405 13.5379 35.8643 13.3279 36.275C12.8931 37.145 12.2408 38.2322 11.9558 38.7865L13.8768 35.0063Z" fill="#CFB66C"/>
<path fill-rule="evenodd" clip-rule="evenodd" d="M13.877 35.0068C13.877 35.1983 13.8251 35.3642 13.763 35.5298C13.7024 35.6954 13.6334 35.8579 13.5561 36.0165C13.4783 36.1718 13.3902 36.3377 13.3022 36.4879C13.2141 36.6381 13.1107 36.793 13.0328 36.9487L12.5099 37.8703C12.3287 38.1775 12.1525 38.4864 11.9611 38.7816C12.0904 38.4502 12.2666 38.1396 12.4324 37.8341C12.6137 37.5269 12.7792 37.2197 12.9444 36.9019C13.0251 36.7436 13.0977 36.5812 13.1619 36.4155C13.2394 36.2496 13.3168 36.0943 13.3793 35.9441C13.4568 35.7786 13.5189 35.6229 13.5967 35.4731C13.6845 35.3123 13.7572 35.157 13.8763 35.0068H13.877Z" fill="#CFB66C"/>
<path fill-rule="evenodd" clip-rule="evenodd" d="M15.7204 39.2524C15.7204 39.2524 15.2084 39.9307 15.2596 40.7901C15.3992 40.3399 15.5753 39.6511 15.7204 39.2524ZM16.2071 39.9324C16.2071 39.9324 16.0259 41.7756 15.8757 42.6818C16.088 41.6343 16.1293 41.7223 16.2071 39.9324ZM19.5986 42.7907C19.5986 42.7907 18.8323 45.0435 18.8166 45.6695C18.9825 45.0258 19.3034 43.7106 19.5986 42.789V42.7907Z" fill="#DEC270"/>
<path fill-rule="evenodd" clip-rule="evenodd" d="M21.3904 39.1133C21.3904 39.1133 22.6332 41.1637 23.5654 42.9137C23.3131 42.033 22.7328 40.4179 21.3904 39.1133Z" fill="#CBAF59"/>
<path fill-rule="evenodd" clip-rule="evenodd" d="M24.7302 42.1318C25.4126 43.338 26.0279 44.5809 26.5734 45.8548C26.47 44.9745 26.1901 43.4678 24.7302 42.1318Z" fill="#E3C677"/>
<path fill-rule="evenodd" clip-rule="evenodd" d="M34.5478 45.1547C34.7547 45.0254 35.1639 44.3209 35.5213 44.1451C35.8783 43.9638 36.1476 43.9277 36.4688 43.5703C36.7897 43.1972 36.8784 42.9695 37.5819 42.6746C38.566 42.2497 37.8891 41.7008 37.8891 41.7008C37.9975 41.5943 38.1134 41.4958 38.2359 41.4059C38.4899 41.2144 38.7848 40.9813 38.7592 40.572C38.723 39.8835 38.5936 38.8841 38.0291 38.3042C38.5779 38.1902 39.6289 38.1127 40.2819 37.9472C41.0376 37.7553 41.3847 37.486 41.3847 37.486C41.3847 37.486 40.9499 36.7457 41.654 36.0002C42.3582 35.2547 42.933 34.8093 43.3576 33.9754C42.8709 33.9133 42.1288 33.6545 40.2351 34.3741C40.3373 34.4222 40.436 34.4775 40.5304 34.5396C40.5304 34.5396 39.3654 34.8608 38.9408 35.2182C38.2001 35.8445 38.1069 36.3572 37.3044 36.7405C36.5019 37.1239 35.694 37.0201 35.0264 37.3307C34.3587 37.6413 34.2601 37.9055 34.0163 38.0195C34.0682 38.0816 34.0061 38.1851 34.1044 38.2731C34.0423 38.3612 33.6798 38.9514 33.3122 38.9514C33.3484 39.0913 33.659 39.1947 33.659 39.1947C33.659 39.1947 33.4313 39.3606 32.8514 39.4019C33.1463 39.7091 33.4262 40.044 34.1976 40.5307C34.1355 40.6601 33.8764 40.8519 33.9802 41.0953C34.0942 41.3386 34.3898 41.6701 35.5698 41.9394C34.969 41.965 34.2652 42.1049 33.317 41.9756C32.3694 41.8616 32.2141 41.7943 31.6291 41.9394C31.6912 42.0015 31.8567 42.0015 32.0018 42.1671C31.8465 42.1773 30.873 42.0531 30.5416 42.4883C30.1948 42.9385 30.0446 43.6792 30.0705 44.1761C29.8893 44.2642 29.7132 44.4195 29.8012 44.7407C29.8893 45.0619 30.3501 45.1653 30.6453 45.3671C30.9403 45.5845 30.9662 45.662 31.2461 45.6104C31.541 45.5483 31.9759 45.2534 32.2298 45.2534C32.4838 45.2534 32.6647 45.4449 32.6647 45.4449C32.6647 45.4449 33.3535 45.1134 33.4207 45.1756C33.4828 45.2377 33.431 45.6364 33.4982 45.6985C33.5665 45.7453 34.3423 45.2845 34.5495 45.1547H34.5478Z" fill="#ECD592"/>
<path fill-rule="evenodd" clip-rule="evenodd" d="M49.6001 24.4333C46.364 16.0761 38.3638 14.5278 38.3638 14.5278H15.5392L15.6272 23.0403H20.1728V42.0488H15.5388V50.5459H37.732C43.0807 50.5459 47.3682 45.171 47.3682 45.171C54.2341 35.4262 49.5998 24.4333 49.5998 24.4333H49.6001ZM37.8511 39.4441C37.8511 39.4441 36.1103 41.9556 34.2162 41.9556H30.4274L30.3377 23.0611H35.2C35.2 23.0611 37.4528 23.5321 39.0266 27.9903C39.0266 27.9903 41.1132 34.3732 37.8511 39.4441Z" fill="white" fill-opacity="0.8"/>
</g>
<rect x="0.5" y="0.803711" width="63" height="63" rx="31.5" stroke="#070B14" stroke-opacity="0.15"/>
<defs>
<clipPath id="clip0_11313_5056">
<rect y="0.303711" width="64" height="64" rx="32" fill="white"/>
</clipPath>
</defs>
</svg>
