<svg xmlns="http://www.w3.org/2000/svg" fill="none" viewBox="0 0 27 36"><g clip-path="url(#eden_svg-a)"><path fill="url(#eden_svg-b)" d="M26.484 13.242 13.242 0 2.207 11.035 0 13.242v11.051L5.51 29.8l2.207 2.21 2.207-2.21 1.758-1.758v7.913H14.8v-7.911l1.75 1.75L18.76 32l2.207-2.207 5.517-5.517zM14.8 20.509V5.975l7.267 7.267zM11.681 5.975v14.534l-7.267-7.267zM3.121 23v-6.637l7.914 7.914L7.716 27.6zm12.328 1.277 7.914-7.914v6.621l-4.6 4.6z"/></g><defs><linearGradient id="eden_svg-b" x1="25.425" x2="-1.09" y1="11.398" y2="19.705" gradientUnits="userSpaceOnUse"><stop stop-color="#C7F222"/><stop offset=".75" stop-color="#00D37F"/></linearGradient><clipPath id="eden_svg-a"><path fill="#fff" d="M0 0h26.48v35.958H0z"/></clipPath></defs></svg>