<svg xmlns="http://www.w3.org/2000/svg" width="292" height="292" viewBox="0 0 292 292"><path fill="#190C6C" d="M0 0h292v292H0z"/><path fill="#8FFE01" d="M146 86h20v40h40v40h20v40h-40v40h-20v-40h-60v-80h40zM66 46h40v80H66z"/><path fill="#98EC42" d="M146 86h20v40h-2V91l-4-1-4-1v7h-2v-6h-2v2l-2 1-1 19h3v2h2v3h-5c.344 2.473.344 2.473 1 5l2 1v-3h2v4h-3l-1 3c-13.497 2.25-27.323 1.61-41 2l-1 74h2l1-2 1 2q10.248.037 20.496.055 3.482.008 6.965.02c3.347.013 6.693.018 10.039.023l3.123.015c5.557 0 10.88-.286 16.377-1.113l-.493 1.754c-.815 3.612-.628 7.265-.605 10.95l.005 2.538c.005 2.67.018 5.339.03 8.008q.008 2.718.014 5.438c.01 4.437.03 8.874.049 13.312l17 1v-38h1v39h-20v-40h-60v-80h40z"/><path fill="#0F1C2E" d="M65 47h1v79h40v80h60v40h20v-40h40v-40h2c.842 7.007 1.128 13.884 1.063 20.938l-.014 2.822q-.014 2.565-.033 5.13c-.024 3.159.074 6.168.484 9.298L230 208l-2.937-.062c-2.938-.294-2.938-.294-4.063 1.062-2.52.088-5.014.115-7.535.098l-2.283-.005c-2.415-.005-4.83-.018-7.244-.03l-4.9-.014q-6.02-.017-12.038-.049c.01.973.02 1.947.032 2.95.036 3.625.059 7.25.078 10.874q.016 2.35.04 4.7c.025 2.256.037 4.512.045 6.769l.032 2.11c0 4.024-.567 6.95-2.227 10.597-.381 2.326-.725 4.66-1 7h-2v-6h-2v2h-12v-2h-2v6h-2l-.437-3.437c-.175-3.37-.175-3.37-1.563-4.563a222 222 0 0 1-.098-8.41l.005-2.552c.005-2.7.018-5.4.03-8.1l.014-5.479q.017-6.73.049-13.459l-1.927.007q-9.952.032-19.905.048-3.712.008-7.423.02c-3.562.013-7.124.018-10.686.023l-3.338.015h-3.153l-2.752.007c-3.29-.14-6.556-.654-9.816-1.12v-80H65z"/><path fill="#91F81C" d="M66 46h40v80H66zm3 2v66l4-1-1.062 1.75c-1.11 2.174-1.11 2.174-.75 4.375.768 2.237.768 2.237 3.812 3.875 2.649.26 2.649.26 5.621.16l3.334-.033 3.483-.064q3.404-.053 6.808-.09l3.053-.055c2.419.073 4.396.382 6.701 1.082l-1-6h-3v-4h3V48z"/><path fill="#121B2F" d="m106 47 2 1v75h36V83l2-1v2c.595-.01 1.19-.02 1.804-.032 2.69-.041 5.38-.067 8.071-.093.937-.017 1.874-.034 2.84-.05l2.715-.02 2.507-.032C166 84 166 84 168 86c1.6 7.744.886 15.65.563 23.5l-.159 4.227Q168.21 118.864 168 124h2v-2l1.631.482c2.79.61 5.416.716 8.271.8l3.448.113 3.588.105q3.514.104 7.027.219l3.144.092c2.717.178 5.24.586 7.891 1.189v1h-39V86h-20v40h-40z"/><path fill="#8FFD03" d="M127 46h20v20h-20z"/><path fill="#96ED41" d="M167 126h39v40h20v40h-39v-1h38v-37l-9.75-.125-3.054-.055-2.43-.015-2.476-.032c-2.509.249-4.124.97-6.29 2.227a100 100 0 0 1 0-5l1-1c.16-2.592.26-5.16.316-7.754l.063-2.35q.097-3.729.184-7.458l.13-5.045q.161-6.197.307-12.393l-2.982-.06a2432 2432 0 0 1-10.952-.257q-2.37-.059-4.74-.105c-2.272-.046-4.543-.104-6.814-.164l-2.14-.035c-3.65-.11-5.254-.3-8.372-2.379"/><path fill="#94F22F" d="M146 86h20v40h-2V91l-4-1-4-1v7h-2v-6h-2v2l-2 1-1 19h3v2h2v3h-5c.344 2.473.344 2.473 1 5l2 1v-3h2v4h-3l-1 3h-5z"/><path fill="#9BE35F" d="M66 46h40v80H66zm1 1c-.058 13.257-.058 13.257-.098 26.514-.012 5.405-.026 10.81-.053 16.216a3449 3449 0 0 0-.039 13.072q-.004 2.495-.021 4.991c-.015 2.327-.017 4.654-.016 6.982l-.022 2.092c.016 3.619.179 5.027 2.249 8.133h36V47z"/><path fill="#90FA19" d="M208 168h17v37l-8.277.184q-3.953.093-7.903.188-2.755.066-5.51.125-3.95.088-7.9.187l-2.503.05c-3.762-.256-3.762-.256-6.907 1.266-.16 2.81-.26 5.598-.316 8.41l-.063 2.552q-.097 4.05-.184 8.1l-.13 5.479A6566 6566 0 0 0 185 245l-4-1h3l-.016-3.425q-.026-6.296-.039-12.59a2721 2721 0 0 0-.02-5.448q-.018-3.917-.023-7.834l-.015-2.456c0-3.589.143-6.794 1.113-10.247l3.033.494c3.867.493 7.537.62 11.432.604l3.761-.008 4.712-.028L223 203v-34h-15z"/><path fill="#95E73D" d="M127 46h20v20h-20zm2 4a153 153 0 0 0-.062 6.563L129 63h15V49l-6.937-.062-3.903-.036c-3.023-.267-3.023-.267-4.16 1.098"/><path fill="#101E23" d="M226 166h2c.842 7.007 1.128 13.884 1.063 20.938l-.014 2.822q-.014 2.565-.033 5.13c-.035 4.6.39 8.351.984 13.11l-43-1v38h-1v-39h40z"/><path fill="#162333" d="M126 45h20v1h-19v20h20V46l3 1v17h2v5h-7v-2h-19z"/><path fill="#101C2E" d="m206 127 2 1v35h16l2 1v2h-20z"/><path fill="#151156" d="M125 46h1v21h19v2h5v3h-21l-1-3-3-1z"/><path fill="#92F529" d="M104 47h1v78H72v-1h24v-2c2.763.523 5.326 1.109 8 2z"/><path fill="#17163D" d="m64 42 2.526.508c3.772.534 7.253.508 11.06.37l2.127-.07q3.33-.116 6.662-.245 2.271-.081 4.543-.159Q96.459 42.211 102 42v2l3 1v1l-40 1z"/><path fill="#8CFC11" d="M104 47v75l-1-4h-3v-4h3l-1-65H76v-1q6.156-.252 12.313-.5l3.537-.145 3.388-.136 3.127-.127C100.242 47.026 102.12 47 104 47"/><path fill="#180F5D" d="M102 198h2l1 9 57 1v1a3540 3540 0 0 1-22.87.207q-5.31.03-10.62.095c-4.072.052-8.142.071-12.213.089l-3.848.062-3.579.001-3.15.027c-3.385-.599-4.563-1.877-6.72-4.481 1.875-4.75 1.875-4.75 3-7"/><path fill="#93F528" d="m185 202 2.499.48c3.849.572 7.642.745 11.524.836l2.262.063q3.544.096 7.09.184l4.832.13q5.896.16 11.793.307v1l-3.472.076q-6.355.142-12.708.296-2.755.066-5.51.125-3.95.088-7.9.187l-2.503.05c-3.762-.256-3.762-.256-6.907 1.266-.16 2.81-.26 5.598-.316 8.41l-.063 2.552q-.097 4.05-.184 8.1l-.13 5.479A6566 6566 0 0 0 185 245l-4-1h3l-.016-3.425q-.026-6.296-.039-12.59a2721 2721 0 0 0-.02-5.448q-.018-3.917-.023-7.834l-.015-2.456c0-3.589.143-6.794 1.113-10.247"/><path fill="#160F5E" d="m140.875 39.813 2.664.04c2.154.036 4.308.09 6.461.147v3h-5l-1 2h-18l-1-2c5.38-3.36 9.754-3.367 15.875-3.187"/><path fill="#92FC12" d="M108 129h1l1 65 2 1v3h-3l-1 4z"/><path fill="#8EFB12" d="M183 208h1v36c-3.015 1.005-5.042 1.103-8.187 1.063l-2.731-.028L171 245l3-1v-4h4v3h3c1.149-3.712 1.205-7.303 1.316-11.172l.063-2.068q.097-3.255.184-6.51l.13-4.426q.16-5.412.307-10.824"/><path fill="#93FB0F" d="M160 94h4v28l-1-4-3-1v-3h2l1-18h-3z"/><path fill="#160B79" d="m181 251 1 3h-12l-1-3c4.333-.928 7.667-.928 12 0"/><path fill="#1C0C5E" d="M168 94h1l.06 2.355c.095 3.507.205 7.013.315 10.52.03 1.223.062 2.447.094 3.707l.117 3.535.095 3.27c.066 2.77.066 2.77 2.319 4.613h-2v2h-2z"/><path fill="#96EA52" d="M66 112h1l.184 2.082.254 2.73c.08.894.162 1.787.246 2.708.25 2.607.25 2.607 1.316 5.48l-3-1z"/></svg>