<svg xmlns="http://www.w3.org/2000/svg" width="50" height="50"><path d="M0 0v50h50V0z" style="fill:#fcfcf7;stroke:none"/><path d="M21 7v1h8c-2.773-2.744-4.505-2.577-8-1" style="fill:#f0cca9;stroke:none"/><path d="M7 18v2c9.152 5.216 9.27-.98 18-.98 8.775 0 10.282 7.287 19-.02L25 7.02z" style="fill:#b77034;stroke:none"/><path d="m26 6 1 1zm-4 1 1 1zm5 0 1 1z" style="fill:#e19c60;stroke:none"/><path d="m19 8-1 2z" style="fill:#f0cca9;stroke:none"/><path d="m20 8 1 1zm9 0 2 2z" style="fill:#e19c60;stroke:none"/><path d="m30 8 1 1z" style="fill:#f0cca9;stroke:none"/><path d="m19 9 1 1z" style="fill:#e19c60;stroke:none"/><path d="m31 9 1 1zm-15 1-2 3z" style="fill:#f0cca9;stroke:none"/><path d="m17 10 1 1z" style="fill:#e19c60;stroke:none"/><path d="M32 10v1l3 1z" style="fill:#f0cca9;stroke:none"/><path d="m16 11 1 1zm17 0 1 1zm-18 1 1 1zm20 0 3 3z" style="fill:#e19c60;stroke:none"/><path d="m36 12 1 1zm-24 1-1 2z" style="fill:#f0cca9;stroke:none"/><path d="m13 13 1 1z" style="fill:#e19c60;stroke:none"/><path d="m37 13 1 1z" style="fill:#f0cca9;stroke:none"/><path d="m12 14 1 1z" style="fill:#e19c60;stroke:none"/><path d="m38.667 14.333.666.334zM9 15l-1 2z" style="fill:#f0cca9;stroke:none"/><path d="m10 15 1 1zm29 0 1 1zM9 16l1 1zm31 0v1l4 2v-1z" style="fill:#e19c60;stroke:none"/><path d="m41 16 1 1zM6.667 17.333l.666.334zM43 17l1 1z" style="fill:#f0cca9;stroke:none"/><path d="M6 18c0 3.85-1.174 10.05 1.028 13.402C19.606 50.553 44 40.407 44 20l-2 7-3 3h-1l2-7-5 1c-7.052 8.662-11.416 6.884-20 2v-1l3-3-7 3 1 3-1-4v-1zm17 0-1 2z" style="fill:#e19c60;stroke:none"/><path d="M23 19v1h4z" style="fill:#f0cca9;stroke:none"/><path d="m26 18 1 1z" style="fill:#e19c60;stroke:none"/><path d="M44 18v14h1zM5 19l1 1z" style="fill:#f0cca9;stroke:none"/><path d="M17 24c.893 1.747 1.537 2.983 3.149 4.22 12.118 9.299 14.685-13.532 1.876-7.549-1.791.837-3.422 2.196-5.025 3.329" style="fill:#fcfcf7;stroke:none"/><path d="m27 19 1 1z" style="fill:#e19c60;stroke:none"/><path d="m8 20 1 1z" style="fill:#e98c3e;stroke:none"/><path d="m20 20-1 2z" style="fill:#e19c60;stroke:none"/><path d="m21 20 1 1zm7 0 2 2z" style="fill:#f0cca9;stroke:none"/><path d="m29 20 1 1z" style="fill:#e19c60;stroke:none"/><path d="m41 20 1 1z" style="fill:#e98c3e;stroke:none"/><path d="M5 21v11h1z" style="fill:#f0cca9;stroke:none"/><path d="m9 21 2 2v1c-2.742 1.572-1.84 3.391 1 4l2-3v-1z" style="fill:#e98c3e;stroke:none"/><path d="m20 21 1 1z" style="fill:#f0cca9;stroke:none"/><path d="m30 21 1 1z" style="fill:#e19c60;stroke:none"/><path d="m18.667 22.333.666.334zM31 22l1 5 3-1v-2z" style="fill:#f0cca9;stroke:none"/><path d="m32 22 1 1z" style="fill:#e19c60;stroke:none"/><path d="m39 22-1 8h1l3-3zM8 23l1 1z" style="fill:#e98c3e;stroke:none"/><path d="m17 23 1 1z" style="fill:#f0cca9;stroke:none"/><path d="m33 23 1 1z" style="fill:#e19c60;stroke:none"/><path d="m37.667 23.333.666.334z" style="fill:#e98c3e;stroke:none"/><path d="m16 24 3 4z" style="fill:#f0cca9;stroke:none"/><path d="m36 24 1 1zm-23 3 1 1z" style="fill:#e98c3e;stroke:none"/><path d="m31 27 1 1zm-12 1 8 4v-1zm9 2 3-2z" style="fill:#f0cca9;stroke:none"/><path d="m33.667 28.333.666.334zM11 30l1 1z" style="fill:#e98c3e;stroke:none"/><path d="m27 30 1 1z" style="fill:#f0cca9;stroke:none"/><path d="M13 32v1h5zm19 3 4-1v-3z" style="fill:#e98c3e;stroke:none"/><path d="m7 32 1 1z" style="fill:#f0cca9;stroke:none"/><path d="m15 32 1 1z" style="fill:#e19c60;stroke:none"/><path d="m19 32-1 3z" style="fill:#e98c3e;stroke:none"/><path d="m42 32 1 1zM8 33l3 2zm31 2 3-2zm-28 0 1 1z" style="fill:#f0cca9;stroke:none"/><path d="m23 35 1 1z" style="fill:#e98c3e;stroke:none"/><path d="m38 35 1 1zm-25.333 1.333.666.334zM35 38l3-2zm-21-1 1 1z" style="fill:#f0cca9;stroke:none"/><path d="m22 40 5-3z" style="fill:#e98c3e;stroke:none"/><path d="m15.667 38.333.666.334zM32 40l3-2zm-15-1 1 1zm1 1 3 2zm10 3 4-3zm-7-1 1 1zm1.667 1.333.666.334zM24 44v1l4-1z" style="fill:#f0cca9;stroke:none"/></svg>