<svg xmlns="http://www.w3.org/2000/svg" width="50" height="50"><path d="M0 0v50h50V0H0z" fill="#fcfcf7"/><path d="M21 7v1h8c-2.773-2.744-4.505-2.577-8-1z" fill="#f0cca9"/><path d="M7 18v2c9.152 5.216 9.27-.98 18-.98 8.775 0 10.282 7.287 19-.02L25 7.02 7 18z" fill="#b77034"/><path d="M26 6l1 1-1-1m-4 1l1 1-1-1m5 0l1 1-1-1z" fill="#e19c60"/><path d="M19 8l-1 2 1-2z" fill="#f0cca9"/><path d="M20 8l1 1-1-1m9 0l2 2-2-2z" fill="#e19c60"/><path d="M30 8l1 1-1-1z" fill="#f0cca9"/><path d="M19 9l1 1-1-1z" fill="#e19c60"/><path d="M31 9l1 1-1-1m-15 1l-2 3 2-3z" fill="#f0cca9"/><path d="M17 10l1 1-1-1z" fill="#e19c60"/><path d="M32 10v1l3 1-3-2z" fill="#f0cca9"/><path d="M16 11l1 1-1-1m17 0l1 1-1-1m-18 1l1 1-1-1m20 0l3 3-3-3z" fill="#e19c60"/><path d="M36 12l1 1-1-1m-24 1l-1 2 1-2z" fill="#f0cca9"/><path d="M13 13l1 1-1-1z" fill="#e19c60"/><path d="M37 13l1 1-1-1z" fill="#f0cca9"/><path d="M12 14l1 1-1-1z" fill="#e19c60"/><path d="M38.667 14.333l.666.334-.666-.334M9 15l-1 2 1-2z" fill="#f0cca9"/><path d="M10 15l1 1-1-1m29 0l1 1-1-1M9 16l1 1-1-1m31 0v1l4 2v-1l-4-2z" fill="#e19c60"/><path d="M41 16l1 1-1-1M6.667 17.333l.666.334-.666-.334M43 17l1 1-1-1z" fill="#f0cca9"/><path d="M6 18c0 3.85-1.174 10.05 1.028 13.402C19.606 50.553 44 40.407 44 20l-2 7-3 3h-1l2-7-5 1c-7.052 8.662-11.416 6.884-20 2v-1l3-3-7 3 1 3-1-4v-1l-5-5m17 0l-1 2 1-2z" fill="#e19c60"/><path d="M23 19v1h4l-4-1z" fill="#f0cca9"/><path d="M26 18l1 1-1-1z" fill="#e19c60"/><path d="M44 18v14h1l-1-14M5 19l1 1-1-1z" fill="#f0cca9"/><path d="M17 24c.893 1.747 1.537 2.983 3.149 4.22 12.118 9.299 14.685-13.532 1.876-7.549-1.791.837-3.422 2.196-5.025 3.329z" fill="#fcfcf7"/><path d="M27 19l1 1-1-1z" fill="#e19c60"/><path d="M8 20l1 1-1-1z" fill="#e98c3e"/><path d="M20 20l-1 2 1-2z" fill="#e19c60"/><path d="M21 20l1 1-1-1m7 0l2 2-2-2z" fill="#f0cca9"/><path d="M29 20l1 1-1-1z" fill="#e19c60"/><path d="M41 20l1 1-1-1z" fill="#e98c3e"/><path d="M5 21v11h1L5 21z" fill="#f0cca9"/><path d="M9 21l2 2v1c-2.742 1.572-1.84 3.391 1 4l2-3v-1l-5-3z" fill="#e98c3e"/><path d="M20 21l1 1-1-1z" fill="#f0cca9"/><path d="M30 21l1 1-1-1z" fill="#e19c60"/><path d="M18.667 22.333l.666.334-.666-.334M31 22l1 5 3-1v-2l-4-2z" fill="#f0cca9"/><path d="M32 22l1 1-1-1z" fill="#e19c60"/><path d="M39 22l-1 8h1l3-3-3-5M8 23l1 1-1-1z" fill="#e98c3e"/><path d="M17 23l1 1-1-1z" fill="#f0cca9"/><path d="M33 23l1 1-1-1z" fill="#e19c60"/><path d="M37.667 23.333l.666.334-.666-.334z" fill="#e98c3e"/><path d="M16 24l3 4-3-4z" fill="#f0cca9"/><path d="M36 24l1 1-1-1m-23 3l1 1-1-1z" fill="#e98c3e"/><path d="M31 27l1 1-1-1m-12 1l8 4v-1l-8-3m9 2l3-2-3 2z" fill="#f0cca9"/><path d="M33.667 28.333l.666.334-.666-.334M11 30l1 1-1-1z" fill="#e98c3e"/><path d="M27 30l1 1-1-1z" fill="#f0cca9"/><path d="M13 32v1h5l-5-1m19 3l4-1v-3l-4 4z" fill="#e98c3e"/><path d="M7 32l1 1-1-1z" fill="#f0cca9"/><path d="M15 32l1 1-1-1z" fill="#e19c60"/><path d="M19 32l-1 3 1-3z" fill="#e98c3e"/><path d="M42 32l1 1-1-1M8 33l3 2-3-2m31 2l3-2-3 2m-28 0l1 1-1-1z" fill="#f0cca9"/><path d="M23 35l1 1-1-1z" fill="#e98c3e"/><path d="M38 35l1 1-1-1m-25.333 1.333l.666.334-.666-.334M35 38l3-2-3 2m-21-1l1 1-1-1z" fill="#f0cca9"/><path d="M22 40l5-3-5 3z" fill="#e98c3e"/><path d="M15.667 38.333l.666.334-.666-.334M32 40l3-2-3 2m-15-1l1 1-1-1m1 1l3 2-3-2m10 3l4-3-4 3m-7-1l1 1-1-1m1.667 1.333l.666.334-.666-.334M24 44v1l4-1h-4z" fill="#f0cca9"/></svg>