<svg xmlns="http://www.w3.org/2000/svg" width="40" height="40" fill="none" viewBox="0 0 40 40"><g clip-path="url(#eqixon_svg-a)"><path fill="#FBD3D3" d="M20 0c11.046 0 20 8.954 20 20s-8.954 20-20 20S0 31.046 0 20 8.954 0 20 0"/><path fill="#ED2224" d="M26 6a8 8 0 0 1 8 8v12a8 8 0 0 1-8 8H14a8 8 0 0 1-8-8V14a8 8 0 0 1 8-8z"/><g clip-path="url(#eqixon_svg-b)"><path fill="#fff" d="M28.666 16.49v5.838l-1.332.467v-6.77l-4-1.394v9.56l-1.335.464V14.163L20 13.467l-2 .696v10.492l-1.332-.464v-9.56l-4.001 1.396v6.767l-1.333-.466v-5.836L10 16.957v6.319l4.001 1.396v-7.7l1.333-.465v8.63l4 1.396V15.111l.666-.234.667.234v11.423l4-1.396v-8.63l1.333.465v7.7l4-1.398v-6.317z"/></g></g><defs><clipPath id="eqixon_svg-a"><path fill="#fff" d="M0 0h40v40H0z"/></clipPath><clipPath id="eqixon_svg-b"><path fill="#fff" d="M10 10h20v20H10z"/></clipPath></defs></svg>