<svg width="32" height="32" viewBox="0 0 1000 900" xmlns="http://www.w3.org/2000/svg">
<rect width="100%" height="100%" fill="#1a1a1a" shape-rendering="crispEdges"/>
<ellipse cx="499.863" cy="499.478" rx="288.184" ry="287.675" fill="black"/>
<path d="M899.999 498.992C899.999 551.388 889.653 603.272 869.551 651.679C849.449 700.087 819.986 744.072 782.842 781.122C745.699 818.172 701.603 847.561 653.073 867.613C604.543 887.664 552.528 897.984 500 897.984C447.471 897.984 395.456 887.664 346.926 867.613C298.396 847.561 254.3 818.172 217.157 781.122C180.013 744.072 150.55 700.087 130.448 651.679C110.346 603.271 99.9996 551.388 99.9996 498.992L500 498.992H899.999Z" fill="black"/>
<g filter="url(#filter0_d_2335_218)">
<path d="M100 500C100 393.913 142.14 292.172 217.15 217.157C292.16 142.143 393.896 100 499.976 100C606.057 100 707.792 142.143 782.802 217.157C857.812 292.172 899.953 393.913 899.953 500L787.959 500C787.959 423.617 757.618 350.364 703.611 296.353C649.604 242.343 576.354 212 499.976 212C423.598 212 350.349 242.343 296.342 296.353C242.334 350.364 211.993 423.617 211.993 500L100 500Z" fill="url(#paint0_linear_2335_218)"/>
<path d="M787.941 500.362C787.941 576.735 757.602 649.98 703.598 703.984C649.594 757.988 576.349 788.327 499.976 788.327C423.603 788.327 350.358 757.988 296.354 703.984C242.351 649.98 212.011 576.735 212.011 500.362L321.438 500.362C321.438 547.713 340.248 593.125 373.731 626.608C407.213 660.09 452.625 678.9 499.976 678.9C547.328 678.9 592.739 660.09 626.222 626.608C659.704 593.125 678.514 547.713 678.514 500.362H787.941Z" fill="url(#paint1_linear_2335_218)"/>
</g>
<path d="M480.251 360.828V411.656H602.841V462.484H480.251V499.597H547.491V542.761H480.251V581.891H419.981V542.761H388.001V499.597H419.981V310H613.091V360.828H480.251Z" fill="white"/>
<defs>
<filter id="filter0_d_2335_218" x="0" y="0" width="999.953" height="888.327" filterUnits="userSpaceOnUse" color-interpolation-filters="sRGB">
<feFlood flood-opacity="0" result="BackgroundImageFix"/>
<feColorMatrix in="SourceAlpha" type="matrix" values="0 0 0 0 0 0 0 0 0 0 0 0 0 0 0 0 0 0 127 0" result="hardAlpha"/>
<feOffset/>
<feGaussianBlur stdDeviation="50"/>
<feComposite in2="hardAlpha" operator="out"/>
<feColorMatrix type="matrix" values="0 0 0 0 0.992157 0 0 0 0 0.298039 0 0 0 0 0.152941 0 0 0 0.4 0"/>
<feBlend mode="normal" in2="BackgroundImageFix" result="effect1_dropShadow_2335_218"/>
<feBlend mode="normal" in="SourceGraphic" in2="effect1_dropShadow_2335_218" result="shape"/>
</filter>
<linearGradient id="paint0_linear_2335_218" x1="490.5" y1="499.989" x2="621.93" y2="45.6168" gradientUnits="userSpaceOnUse">
<stop stop-color="#FA0A30"/>
<stop offset="1" stop-color="#FF6623"/>
</linearGradient>
<linearGradient id="paint1_linear_2335_218" x1="538.95" y1="444.559" x2="454.557" y2="788.624" gradientUnits="userSpaceOnUse">
<stop stop-color="#FF6623"/>
<stop offset="1" stop-color="#FA0A30"/>
</linearGradient>
</defs>
</svg>
