<svg xmlns="http://www.w3.org/2000/svg" width="300" height="300"><path fill="#F0F2F3" d="M200.172 39.146a185 185 0 0 0 4.984 2.217C232.662 53.896 254.516 80.037 265 108c9.487 28.826 9.72 63.108-3 91l-1.523 3.41C251.104 222.277 236.763 238.25 219 251l-2.77 1.992c-26.009 17.548-60.298 22.089-90.858 16.88-9.231-1.886-17.845-4.87-26.372-8.872l-3.25-1.52C66.288 244.641 47.135 220.157 35 190l-.937-2.293C23.802 160.077 27.164 126.523 39 100c4.593-9.773 10.525-18.41 17-27l2.176-2.906L60 68h2l.75-1.875C64.228 63.613 65.44 63.239 68 62l1-3c14.65-12.64 32.202-22.322 51-27 1.201-.3 2.403-.598 3.64-.906 25.496-5.683 52.93-3.011 76.532 8.052"/><path fill="#09253B" d="M200.172 39.146a185 185 0 0 0 4.984 2.217C232.662 53.896 254.516 80.037 265 108c9.487 28.826 9.72 63.108-3 91l-1.523 3.41C251.104 222.277 236.763 238.25 219 251l-2.77 1.992c-26.009 17.548-60.298 22.089-90.858 16.88-9.231-1.886-17.845-4.87-26.372-8.872l-3.25-1.52C66.288 244.641 47.135 220.157 35 190l-.937-2.293C23.802 160.077 27.164 126.523 39 100c4.593-9.773 10.525-18.41 17-27l2.176-2.906L60 68h2l.75-1.875C64.228 63.613 65.44 63.239 68 62l1-3c14.65-12.64 32.202-22.322 51-27 1.201-.3 2.403-.598 3.64-.906 25.496-5.683 52.93-3.011 76.532 8.052M136 52l-1.633 1.418C130.435 57.429 130.13 61.663 130 67l-2.875.25c-12.001 1.8-23.462 9.045-32.062 17.313-3.7 3.437-3.7 3.437-7 3.437L85 87c-6.29-.545-11.492-.366-17 3-6.453 5.978-6.453 5.978-9.133 13.898l.008 3.477-.008 3.46c.11 2.597.368 4.701 1.133 7.165h2l.813 2.313c.95 2.697.95 2.697 2.812 4.019C67 126 67 126 66.855 128.398l-.668 2.977c-1.11 6.146-1.425 12.069-1.437 18.313l-.027 2.624c.023 5.343.645 10.189 1.946 15.375.51 3.564.035 6.315-2.044 9.262L63 178.688c-4.474 4.85-4.342 8.427-4.277 14.98.564 6.78 3.77 11.603 8.718 16.145 4.903 3.735 10.67 3.62 16.559 3.187l3.625-.937C91 212 91 212 92.425 213.14q1.633 1.805 3.25 3.62C103.766 224.553 118.536 234 130 234l.125 3c.87 6.126 5.148 10.47 9.625 14.438 5.11 3.548 10.184 3.176 16.25 2.562 6.286-1.716 10.096-4.483 13.563-10 1.48-2.683 2.39-4.65 2.796-7.695L173 234c2.012-1.117 2.012-1.117 4.688-1.875C190.403 227.991 202.476 221.524 212 212c2.71-.015 5.36.06 8.063.188 8.15.185 13.483-.961 19.546-6.715 4.667-5.152 4.686-10.049 4.606-16.715-.31-3.983-1.173-6.308-3.215-9.758l-2.687-2c-2.313-2-2.313-2-2.75-5.187.318-2.775.734-5.036 1.437-7.688 2.596-10.83 1.244-22.377-1-33.125-.437-3.312-.437-3.312 0-6 1.185-1.538 2.38-3.073 3.688-4.508 3.608-4.102 4.773-8.044 4.535-13.476-.8-7.24-3.399-11.474-8.723-16.266-4.224-2.957-7.134-2.739-12.236-2.329-8.567.55-13.27-.791-19.722-6.43l-1.55-1.382C197.727 76.89 193.065 74.46 188 72l-2.473-1.215c-4.165-1.954-7.899-3.31-12.527-3.785l-.191-1.687c-1.209-7.53-4.589-12.152-10.66-16.7C152.813 43.14 143.821 45.168 136 52"/><path fill="#102B41" d="M199 183h3l-.176 2.527c-.285 7.113.066 11.76 4.18 17.668L207 205c-1.304 3.913-3.704 5.38-6.937 7.688-.61.435-1.218.87-1.845 1.32C190.942 219.002 179.987 226 171 226l-1.687-3.25c-3.195-5.56-7.578-8.083-13.313-10.75v-4l2.79-.629c15.053-3.664 28.178-9.45 38.085-21.871z"/><path fill="#112C42" d="M101 183c3 0 3 0 4.648 1.574l1.727 2.113 1.875 2.223L111 191c9.555 10.561 22.835 16.267 37 17v4l-1.793.7c-6.059 2.5-10.628 4.915-13.52 11.113L132 226c-13.257-.904-27.082-9.288-36-19 1.802-5.665 1.802-5.665 3.031-7.75 1.358-3.154 1.404-6.084 1.594-9.5l.227-3.828z"/><path fill="#0F2A40" d="M99 123a46 46 0 0 1-1.973 6.531c-4.45 12.123-5.322 25.837-.527 37.969l1.406 2.969C99 173 99 173 99 177c-3.644-.56-6.103-1.509-9.187-3.5-4.85-2.833-9.264-3.373-14.813-3.5-1.887-4.004-2.257-7.212-2.266-11.621l-.007-3.834.023-3.982-.023-3.971.007-3.838.007-3.49c.268-3.378 1.055-6.108 2.259-9.264l1.836-.008c6.524-.3 10.581-2.007 15.937-5.715C95 123 95 123 99 123"/><path fill="#0F2B41" d="M171 75c13.6 0 25.303 9.291 35 18-.589 2.658-1.258 4.485-2.562 6.938-2.418 5.35-1.67 11.326-1.438 17.062-3.649-.553-4.907-1.739-7.125-4.625C185.452 101.245 170.287 94.296 156 92c.365-2.577.6-3.694 2.707-5.309l2.106-1.129c4.723-2.746 7.179-6.05 10.187-10.562"/><path fill="#0D293F" d="m206 123 2.02 1.277c6.741 4.008 12.136 5.693 19.98 5.723 1.55 4.138 2.256 7.579 2.266 11.992l.007 3.387-.023 3.496.023 3.473c-.014 6.237-.426 11.686-2.273 17.652l-2.527.262c-6.813.85-12.001 2.015-17.766 5.812L206 177l-2-1c.433-4.006 1.51-7.262 3.063-10.937 3.852-10.296 3.401-24.442-1.196-34.555-1.015-2.937-.71-4.56.133-7.508"/><path fill="#102B41" d="m132 74 1.438 3.625C136.29 83.423 141.378 86.189 147 89v3l-2.5.375c-13.63 2.434-28.452 8.116-36.977 19.617l-1.335 1.945L104 117h-3l-.113-3.324q-.099-2.183-.2-4.364l-.068-2.185c-.233-4.646-1.176-7.11-3.619-11.127-.055-2.52-.055-2.52 1-5 2.617-2.387 2.617-2.387 5.875-4.687l3.242-2.325C112.9 80 112.9 80 117 80v-2a415 415 0 0 1 4.688-2l2.636-1.125c2.733-.894 4.823-1.04 7.676-.875"/><path fill="#153045" d="M148 100v43c-4.22-.844-5.9-1.298-9.312-3.437l-2.575-1.598L133 136l-4.207-2.621A3966 3966 0 0 1 117 126c1.055-9.212 7.49-16.198 14.031-22.437C136.328 99.359 141.377 100 148 100"/><path fill="#102B41" d="M155 100c15.135 1.514 15.135 1.514 21.395 8.573 8.92 11.06 8.92 11.06 9.605 17.427l-1.478.807c-8.692 4.757-17.315 9.496-25.553 15.013C157 143 157 143 155 143z"/><path fill="#0D283F" d="M148 157v37l-9.75.313-3.054.137c-6.582.103-6.582.103-9.633-2.645L124 189l-1.703-2.605-1.547-2.583-1.578-2.605C118 179 118 179 118 177h-2v-3l2.34-1.345a18566 18566 0 0 0 12.325-7.095q2.678-1.54 5.355-3.083l3.253-1.873C145.4 157 145.4 157 148 157"/><path fill="#142E44" d="M190.047 131.89c3.152 1.791 4.516 4.774 6.203 7.86l1.102 1.883c2 3.564 3.32 6.27 2.648 10.367-.953 1.992-.953 1.992-2.25 3.875-2.423 3.63-4.61 7.32-6.75 11.125-4.454.409-6.604-.687-10.25-3.187-4.803-3.203-9.683-6.056-14.75-8.813-2.34-1.323-4.67-2.661-7-4v-2c2.124-1.465 2.124-1.465 5.074-3.152l3.213-1.854 3.4-1.931 6.575-3.778 2.967-1.691a187 187 0 0 0 5.502-3.292C188 132 188 132 190.047 131.89"/><path fill="#0E2940" d="M111 132c5.54 1.29 10.08 4.2 15 7l2.172 1.229c2.344 1.33 4.68 2.674 7.016 4.021l2.324 1.322c1.864 1.086 3.681 2.25 5.488 3.428v2l-5.081 2.846q-2.18 1.222-4.361 2.44c-3.419 1.916-6.816 3.849-10.152 5.905l-3.156 1.934-2.797 1.758C115 167 115 167 112.994 166.756c-3.421-1.297-4.888-4.52-6.744-7.506l-1.246-1.883c-3.912-6.16-3.912-6.16-3.004-10.367 1.312-2.73 2.874-5.26 4.5-7.812l1.3-2.1A631 631 0 0 1 111 132"/><path fill="#0F2A40" d="M155 157c3.442 1.377 6.287 2.633 9.434 4.46l2.466 1.43 2.537 1.485 2.526 1.46c4.448 2.589 8.794 5.253 13.037 8.165-.555 4.555-2.51 7.893-4.937 11.688-.36.58-.721 1.16-1.092 1.76-1.514 2.41-2.951 4.532-4.971 6.552-1.971.227-1.971.227-4.352.195l-2.322-.015-2.951-.055L155 194z"/><path fill="#294155" d="M69 182c1.96.656 1.96.656 4 2 .54 2.531.54 2.531.625 5.5-.051 4.254-.051 4.254 2.375 7.5l2.438.875c2.91 1.277 3.956 2.42 5.562 5.125v2c-8.381.91-8.381.91-12.187-1.23-3.614-3.05-5.59-5.195-6.016-10.11l-.047-2.597-.078-2.59c.39-2.934 1.394-4.28 3.328-6.473"/><path fill="#223B4F" d="M231 182h3c2.256 2.757 2.968 4.786 3.5 8.313-.785 5.791-3.413 9.882-7.812 13.687-3.723 1.385-6.729 1.201-10.688 1 .5-2.187.5-2.187 2-5a83 83 0 0 1 4.063-2.062c2.229-1.12 2.229-1.12 3.937-2.938.777-3.223.937-6.142.965-9.453C230 183 230 183 231 182"/><path fill="#1E384C" d="M138 235c2.343.256 4.678.593 7 1l1 2c2.017.583 2.017.583 4.375.813l2.398.332c2.838-.185 3.346-1.116 5.227-3.145 3.688-.687 3.688-.687 7-1-.576 3.89-2.367 6.142-5 9-4.455 2.71-8.93 2.894-14 2-4-2.151-6.523-4.537-7.937-8.875z"/><path fill="#1E384D" d="M155 54c3.388 1.562 6.419 3.282 9 6v4c-4.682.32-6.342-.257-10-3-3-.583-3-.583-6 0l-2 2c-2 2-2 2-5.25 2.25L138 65c.257-4.376 1.933-6.927 5.07-9.816 3.85-2.362 7.63-2.161 11.93-1.184"/><path fill="#193348" d="M219 95c6.13-.423 9.06-.022 14 4l1.645 1.266c1.976 2.528 1.753 4.504 1.73 7.671l.023 3.153c-.44 3.21-1.137 4.622-3.398 6.91h-2c-1.416-2.833-1.346-5.475-1.562-8.625l-.254-3.602L229 103l-3.312-.75c-3.747-1.27-4.878-1.842-6.688-5.25z"/><path fill="#152F45" d="m79.188 94.875 2.73.055L84 95c-2.19 4.692-4.2 6.154-9 8-2.092 2.092-1.381 6.502-1.523 9.336-.526 2.936-1.173 3.853-3.477 5.664-3.469-4.192-3.5-8.187-3.36-13.402.488-3.524 1.719-5.259 4.36-7.598 3.314-2.21 4.345-2.225 8.188-2.125"/><path fill="#637483" d="M148 157v37h-20v-1h19l-1-34-4 1c2.625-3 2.625-3 6-3"/><path fill="#2D4558" d="M90 100c3 1 3 1 4 3 .07 1.54.085 3.083.063 4.625l-.028 2.477L94 112c-2.915-1.074-4.778-1.778-7-4-.312-2.437-.312-2.437 0-5 1.5-1.812 1.5-1.812 3-3"/><path fill="#374D60" d="M148 220v7h-2v2h-7c.35-3.143.84-4.795 2.813-7.312C144 220 144 220 148 220"/><path fill="#334A5D" d="M94 188c.25 7.625.25 7.625-2 11-3.875-.875-3.875-.875-5-2-.375-2.875-.375-2.875 0-6 2.389-1.886 3.919-3 7-3"/><path fill="#2E4559" d="M211 100c1.938.625 1.938.625 4 2 .75 3.125.75 3.125 1 6-3.625 3-3.625 3-7 3-.286-7.429-.286-7.429 2-11"/><path fill="#2A4256" d="M209 189c4 1 4 1 6 2 .813 2.313.813 2.313 1 5-1.437 2.313-1.437 2.313-3 4l-4-2z"/><path fill="#294155" d="m78 178 3.813-.125 2.144-.07C86 178 86 178 89 180c-1 3-1 3-3 4-3 .188-3 .188-6 0l-2-2z"/><path fill="#2D4558" d="M220.125 115.313C223 116 223 116 224 117c.04 1.666.043 3.334 0 5a764 764 0 0 1-4.375-.437l-2.46-.247C215 121 215 121 213 120c1.39-4.17 2.735-5.126 7.125-4.687"/><path fill="#273F53" d="M224 178c.188 2.375.188 2.375 0 5-3 2-3 2-5.562 1.875C216 184 216 184 214.688 181.938L214 180c3.508-1.604 6.144-2.22 10-2"/><path fill="#253E52" d="M84 115.188c2.245.911 3.422 1.997 5 3.812-3.833 2.706-6.325 3.326-11 3 .313-2.375.313-2.375 1-5 3-2 3-2 5-1.812"/><path fill="#233B50" d="M160.625 71.875 164 72c-.336 3.135-1.027 4.025-3.375 6.25C158 80 158 80 155 80c-.125-2.875-.125-2.875 0-6 2-2 2-2 5.625-2.125"/><path fill="#243D51" d="M155 220c4.248.472 6.268 2.889 9 6v2c-6.75.125-6.75.125-9-1z"/><path fill="#183248" d="M139 72h7l1 8h-3v-2l-1.937-.75C140 76 140 76 139.25 73.875z"/><path fill="#334A5D" d="m212 211 3 1c-8.077 7.667-8.077 7.667-14 9 3.49-3.592 6.966-7.019 11-10"/><path fill="#C4CBD0" d="m117 102 2 1-10 10-2-1c2.97-4 6.13-6.921 10-10"/><path fill="#3D5365" d="m84 95-1 2-3.625-.312c-3.49-.032-5.212.55-7.875 2.812L69 102c0-3 0-3 1.875-5.187C75.255 94.272 79.052 94.654 84 95"/><path fill="#4E6272" d="m90 100 3 1v2l-1.875.813C88.7 104.956 88.7 104.956 87 108c-.37-4.554-.37-4.554 1.5-6.812z"/><path fill="#BEC5CB" d="M140 50c-1.453 3.83-3.429 5.12-7 7 3.138-7 3.138-7 7-7"/></svg>