<svg xmlns="http://www.w3.org/2000/svg" width="512" height="512" fill="none" viewBox="0 0 512 512"><g clip-path="url(#ethfi_svg-a)"><path fill="url(#ethfi_svg-b)" d="M0 0h512v512H0z"/><path fill="url(#ethfi_svg-c)" d="m445.365 278.625-14.356-55.964c-.412-1.646-1.738-2.926-3.384-3.338l-55.461-13.671a6 6 0 0 0-1.28-.137c-1.326-.137-2.698.274-3.703 1.28l-93.594 93.594-12.39-48.374c-.412-1.646-1.738-2.927-3.384-3.338l-47.642-11.751 93.547-93.547c.549-.549.869-1.235 1.098-1.921.411-.914.548-1.966.274-2.972l-14.357-55.964c-.411-1.646-1.737-2.926-3.383-3.337l-55.461-13.671c-1.098-.275-2.195-.092-3.155.365h-.046c-.274.138-.503.32-.777.503-.229.183-.549.275-.732.503L67.518 226.456s-.275.457-.458.686c-1.006 1.188-1.371 2.743-.914 4.252l15.5 54.089c.457 1.555 1.646 2.743 3.154 3.155l51.941 14.905 14.905 51.895c.457 1.555 1.646 2.743 3.155 3.155l52.123 14.951 14.952 52.123c.457 1.555 1.645 2.744 3.154 3.155l54.318 15.591c.412.138.869.183 1.28.183.092 0 .183-.045.321-.045h.091a4.64 4.64 0 0 0 3.292-1.372L444.04 283.471c.548-.548.868-1.234 1.097-1.92.411-.914.549-1.966.274-2.972zm-71.6 62.045-11.66-45.494 25.833-25.787 44.397 12.756-58.525 58.571zm-90.576 90.575-11.659-45.493 46.728-46.728 44.396 12.756zm36.029-106.258-11.156-38.864 40.098 9.876-28.942 28.942zm35.298-22.221 10.241 39.916-39.001-11.202 28.76-28.76zm1.325-14.402-45.447-11.202 58.387-58.388 12.619 44.031zm-56.741.045 12.62 44.031-46.5 46.499-45.448-11.202zm123.633-60.856 11.659 45.494-44.076-12.665-12.619-43.939zM212.914 360.97l-11.659-45.493 16.826-16.826 44.396 12.757zm6.127-76.356-11.156-38.863 40.098 9.876-28.942 28.942zm45.539 17.741-39.001-11.202 28.759-28.76 10.242 39.916zm-52.992-10.242-16.597 16.597-45.448-11.202 49.426-49.426zm-52.306-144.345 12.619 44.03-46.911 46.911-45.448-11.202zm69.269-69.27 12.619 44.031-25.147 25.147-45.448-11.201zm5.395 121.485-11.659-45.448 25.422-25.422 44.396 12.711zM179.4 184.346l-11.157-38.864 40.099 9.876L179.4 184.3zm35.297-22.221 10.242 39.915-38.955-11.202 28.759-28.759zm-36.212 36.212 44.396 12.71-79.876 79.877-11.659-45.448zM282.503 87.369l11.659 45.493-44.076-12.665-12.619-43.939zM77.256 236.515l40.099 9.876-28.943 28.942-11.156-38.864zm17.695 45.402 28.759-28.759 10.242 39.915-38.955-11.202zm64.88 68.537-12.62-43.939 45.037 11.111 11.659 45.493zm57.655 26.291 40.099 9.876-28.943 28.942-11.156-38.864zm17.695 45.402 28.759-28.76 10.242 39.916-39.001-11.202z"/></g><defs><linearGradient id="ethfi_svg-b" x1="-71.467" x2="858.512" y1="506.027" y2="-215.095" gradientUnits="userSpaceOnUse"><stop offset=".332" stop-color="#19163B"/><stop offset="1" stop-color="#4C09A2"/></linearGradient><linearGradient id="ethfi_svg-c" x1="92.253" x2="420.95" y1="314.517" y2="194.862" gradientUnits="userSpaceOnUse"><stop stop-color="#29BCFA"/><stop offset=".43" stop-color="#6464E4"/><stop offset="1" stop-color="#B45AFA"/></linearGradient><clipPath id="ethfi_svg-a"><path fill="#fff" d="M0 0h512v512H0z"/></clipPath></defs></svg>