<svg version="1.1" xmlns="http://www.w3.org/2000/svg" width="798" height="831">
<path d="M0 0 C263.34 0 526.68 0 798 0 C798 274.23 798 548.46 798 831 C534.66 831 271.32 831 0 831 C0 556.77 0 282.54 0 0 Z " fill="#60DEFE" transform="translate(0,0)"/>
<path d="M0 0 C24.75 0 49.5 0 75 0 C75 92.4 75 184.8 75 280 C159.48 280 243.96 280 331 280 C331 302.44 331 324.88 331 348 C221.77 348 112.54 348 0 348 C0 233.16 0 118.32 0 0 Z " fill="#121212" transform="translate(199,276)"/>
<path d="M0 0 C14.23012227 12.06916671 22.92466671 27.72808494 24.92236328 46.30957031 C26.30096926 63.84359512 21.33743485 81.58616208 10.14453125 95.34765625 C-0.95433108 108.29963929 -16.2071432 117.78447227 -33.3125 120.125 C-52.6451623 121.58900147 -69.64989634 118.02556532 -85.1875 105.75 C-86.9200524 104.23560208 -88.63016744 102.69499874 -90.3125 101.125 C-91.38951172 100.12919922 -91.38951172 100.12919922 -92.48828125 99.11328125 C-105.59334209 85.75375321 -110.59350315 66.96365419 -110.62939453 48.77270508 C-110.32532096 31.38983242 -101.94621483 15.86926565 -89.9296875 3.71484375 C-81.40208518 -4.2914788 -72.46720266 -9.42235394 -61.3125 -12.875 C-60.631875 -13.101875 -59.95125 -13.32875 -59.25 -13.5625 C-38.63514391 -19.36042828 -16.49787372 -12.60568129 0 0 Z " fill="#121212" transform="translate(572.3125,222.875)"/>
</svg>