<svg xmlns="http://www.w3.org/2000/svg" xml:space="preserve" viewBox="0 0 490 464"><path fill="#F5F9FE" d="M1 311V1.066h490c0 72.622 0 145.311-.366 218.507-.984.75-1.619.956-2.216 1.24-7.581 3.61-8.492 2.933-8.48-5.249.008-5.447-.464-10.908-1.02-16.332-.1-.987-1.639-1.827-2.513-2.735-.087 1.219-.216 2.437-.251 3.658-.044 1.517-.01 3.035-.01 4.553l-1.625 1.055c-1.833-5.236-4.36-5.468-7.593-2.366-.596.572-1.885.546-2.861.577-4.698.152-8.934.975-9.987 6.357h-7.966c-1.142-1.295-2.042-2.316-3.031-3.724a74 74 0 0 1-.197-5.535c-.628-1.627-1.303-2.832-2.278-4.21-.373-1.08-.446-1.989-.264-3.138-.228-1.735-.712-3.231-1.306-5.101-2.933-8.46-5.167-16.81-8.686-24.578-11.756-25.953-27.565-49.004-49.034-68.123-18.124-16.139-38.319-28.319-60.817-37.503-17.09-6.977-34.727-11.087-52.725-12.822-18.706-1.803-37.558-1.108-56.229 3.076-13.804 3.093-27.324 6.713-40.262 12.383-18.233 7.991-34.973 18.393-50.102 31.369-14.55 12.48-27.24 26.694-37.177 43.014-6.565 10.784-12.018 22.339-16.992 33.966-3.59 8.39-6.085 17.349-8.134 26.268-2.439 10.618-5.145 21.43-5.455 32.222-.464 16.178 1.059 32.412 1.69 49.027.53 1.63 1.106 2.856 1.773 4.468.153 1.963.215 3.538.247 5.462.517.95 1.062 1.552 1.72 2.558.2 1.8.287 3.194-.028 4.59-2.221 1.342-3.955 2.826-5.884 3.986-1.863 1.12-4.193 2.94-5.822 2.523-1.401-.36-2.515-3.346-2.986-5.351-.382-1.626.38-3.521.674-5.574-1.072-.2-2.313-.837-2.876-.46-1.707 1.14-3.032 2.844-4.718 4.025-5.82 4.075-11.657 8.137-17.675 11.907-1.015.636-2.95-.272-4.466-.333-1.379-.056-3.896-.2-3.98.153C9.773 310.46 4.143 308.677 1 311"/><path fill="#EFF5FE" d="m443.17 206.994 2.942 3.337h7.966c1.053-5.382 5.29-6.205 9.987-6.357.976-.031 2.265-.005 2.86-.577 3.235-3.102 5.761-2.87 7.594 2.366l1.624-1.055c0-1.518-.033-3.036.011-4.553.035-1.22.164-2.439.25-3.658.875.908 2.414 1.748 2.515 2.735.555 5.424 1.027 10.885 1.02 16.332-.013 8.182.898 8.858 8.479 5.249.597-.284 1.232-.49 2.216-.773.366 81.586.366 163.213.366 244.9H1V311.469c3.141-2.792 8.773-1.008 10.093-6.593.083-.352 2.6-.21 3.979-.153 1.516.061 3.45.969 4.466.333 6.018-3.77 11.855-7.832 17.675-11.907 1.686-1.181 3.011-2.884 4.718-4.025.563-.377 1.804.26 2.876.46-.294 2.053-1.056 3.948-.674 5.574.471 2.005 1.585 4.99 2.986 5.35 1.63.419 3.959-1.403 5.822-2.522 1.929-1.16 3.663-2.644 6.155-3.74 1.022.587 1.55.867 1.691 1.279 3.024 8.864 5.164 18.143 9.153 26.544 11.497 24.212 26.731 45.744 46.636 64.064 15.608 14.366 32.992 25.796 52.11 34.5 9.783 4.454 20.281 7.483 30.662 10.43 8.736 2.48 17.738 5.304 26.68 5.51 18.002.415 36.093-.233 54.051-1.661 10.124-.805 20.34-3.18 29.996-6.401 10.77-3.594 21.049-8.748 31.369-13.59 14.571-6.838 27.204-16.625 39.257-27.125 16.087-14.015 29.113-30.653 39.563-49.154 5.033-8.912 8.94-18.513 12.752-28.043 2.69-6.726 4.632-13.79 6.423-20.826 2.076-8.158 4.179-16.38 5.23-24.705.935-7.396.775-14.982.514-22.463-.415-11.88-1.317-23.742-2.012-35.61"/><path fill="#4074C5" d="M443.081 206.607c.785 12.256 1.687 24.119 2.102 35.998.261 7.481.421 15.067-.513 22.463-1.052 8.325-3.155 16.547-5.231 24.705-1.791 7.036-3.732 14.1-6.423 20.826-3.812 9.53-7.719 19.131-12.752 28.043-10.45 18.501-23.476 35.139-39.563 49.154-12.053 10.5-24.686 20.287-39.257 27.125-10.32 4.842-20.598 9.996-31.369 13.59-9.656 3.222-19.872 5.596-29.996 6.401-17.958 1.428-36.049 2.076-54.052 1.66-8.94-.205-17.943-3.029-26.68-5.509-10.38-2.947-20.878-5.976-30.66-10.43-19.119-8.704-36.503-20.134-52.111-34.5-19.905-18.32-35.14-39.852-46.636-64.064-3.989-8.401-6.129-17.68-9.153-26.544-.14-.412-.67-.692-1.289-1.28-.358-1.64-.445-3.036-.616-5.176-.63-1.352-1.174-1.959-1.72-2.565-.061-1.576-.123-3.151-.223-5.493-.618-2.008-1.199-3.25-1.78-4.494-.677-16.21-2.2-32.444-1.736-48.622.31-10.793 3.016-21.604 5.455-32.222 2.05-8.92 4.545-17.878 8.134-26.268 4.974-11.627 10.427-23.182 16.992-33.966 9.937-16.32 22.626-30.534 37.177-43.014 15.129-12.976 31.87-23.378 50.102-31.369 12.938-5.67 26.458-9.29 40.262-12.383 18.67-4.184 37.523-4.879 56.23-3.076 17.997 1.735 35.634 5.845 52.724 12.822 22.498 9.184 42.693 21.364 60.817 37.503 21.47 19.12 37.278 42.17 49.034 68.123 3.519 7.768 5.753 16.119 8.641 24.963.41 2.159.753 3.558 1.096 4.956.073.91.146 1.818.57 3.28.96 1.784 1.57 3.016 2.18 4.249.052 1.576.103 3.152.244 5.114m-204.58 28.398c3.664 0 7.398-.45 10.977.101 5.914.91 9.517-1.916 12.517-6.362 1.35-2 3.402-3.77 4.002-5.956.514-1.873-.012-4.615-1.163-6.172-.867-1.173-3.443-1.47-5.266-1.49-11.444-.125-22.891-.063-35.072-.063 3.923-11.072 8.798-20.606 18.866-25.991 7.914-4.234 16.728-4.658 24.49-.09 5.044 2.967 9.07 7.852 13.089 12.295 1.99 2.2 3.542 4.474 6.741 3.176 4.148-1.683 8.325-3.43 12.148-5.72 1.71-1.024 4.3-2.708 1.923-5.862-1.91-2.536-3.02-5.668-4.878-8.25-7.17-9.96-16.535-17.135-28.68-19.445-6.94-1.32-13.911-2.079-21.394-.705-9.965 1.83-18.442 5.512-25.983 11.93-11.945 10.163-18.457 23.537-22.548 38.664-5.178 0-10.33-.15-15.463.09-1.575.075-3.563.82-4.557 1.959-2.624 3.006-5.094 6.23-7.093 9.676-2.704 4.663-.544 8.126 4.847 8.194 6.28.079 12.563.018 18.874.018v12.262c-3.613 0-6.945-.303-10.188.102-2.323.29-5.178.918-6.645 2.478-2.82 2.999-5.079 6.623-7.1 10.25-2.494 4.479-.965 6.97 4.163 7.097 6.16.152 12.335-.143 18.482.185 1.815.097 4.461 1.205 5.153 2.62 1.887 3.857 2.632 8.26 4.377 12.205 3.877 8.766 9.061 16.71 16.405 23.025 7.047 6.06 14.818 10.326 24.183 12.373 10.81 2.362 20.994 1.875 31.195-2.082 12.934-5.016 21.057-14.98 27.178-26.789.769-1.484-.195-5.34-1.542-6.169-3.9-2.4-8.313-4.103-12.706-5.52-3.15-1.017-5.237.717-6.954 3.716-5.88 10.268-14.358 16.699-26.793 16.141-9.39-.421-15.947-5.838-21.283-12.966-3.62-4.836-6.904-9.904-7.73-16.68 9.816 0 19.122.136 28.419-.109 2.014-.053 4.464-.993 5.878-2.378 2.25-2.205 3.936-5.041 5.616-7.762 3.151-5.104.745-9.55-5.348-9.692-7.492-.174-14.99-.045-22.486-.046h-15.846v-12.258zM135.178 197.85c1.492-3.394 2.526-7.097 4.564-10.125 6.106-9.073 12.088-18.312 19.063-26.701 12.296-14.788 28.369-24.595 45.971-31.885 5.298-2.195 8.76-5.712 8.114-11.715-.249-2.305-.024-4.66-.044-6.992-.057-6.415-4.081-9.459-10.123-7.017-8.042 3.251-16.066 6.672-23.716 10.74-19.016 10.11-34.738 24.197-47.763 41.296-10.996 14.436-18.663 30.572-23.692 47.944-1.398 4.832-2.138 9.882-2.856 14.879-1.206 8.396-3.029 16.836-2.969 25.246.063 8.945 1.574 17.96 3.264 26.79 1.674 8.739 3.657 17.547 6.769 25.85 4.57 12.198 11.026 23.452 18.704 34.15 8.902 12.4 19.418 23.068 31.592 31.915 12.894 9.37 26.746 17.275 42.487 21.255 4.276 1.081 7.99-.879 8.255-5.306.2-3.32-.064-6.666.078-9.992.2-4.683-2.025-7.654-6.199-9.367-23.09-9.476-42.49-23.744-57.258-44.04-12.333-16.95-19.643-36.123-22.01-56.67-2.326-20.197-.292-40.33 7.769-60.255m232.013 79.026c-1.545 5.079-2.494 10.441-4.742 15.187-8.502 17.943-19.64 34.04-35.422 46.428-9.865 7.744-20.152 14.825-32.271 18.888-3.245 1.087-7.633 2.01-7.793 6.887-.17 5.158-.174 10.327-.079 15.488.074 4.01 3.578 4.876 6.03 4.155 7.24-2.127 14.538-4.466 21.276-7.807 17.886-8.867 33.572-20.908 46.602-36.018 13.001-15.077 22.412-32.227 28.65-51.306 4.102-12.544 6.595-25.272 7.251-38.272.438-8.662-.974-17.418-1.56-26.132-.902-13.443-4.955-26.068-10.095-38.388-12.269-29.403-32.32-52.237-59.486-68.576-9.28-5.58-19.54-9.567-29.48-13.996-5.368-2.393-9.174.267-9.295 6.063-.075 3.664.08 7.334-.022 10.997-.132 4.73 2.96 6.773 6.642 8.525 6.64 3.16 13.517 5.954 19.78 9.75 15.892 9.63 28.991 22.258 39.065 37.995 11.035 17.239 18.286 35.692 19.031 56.377.06 1.657.012 3.367.408 4.954 2.435 9.76-1.13 19.152-1.747 28.716-.201 3.124-1.683 6.167-2.743 10.085"/><path fill="#EFF5FE" d="M440.342 193.724c-.598-1.158-.942-2.557-1.24-4.341.528 1.11 1.012 2.606 1.24 4.341m2.542 7.348c-.656-.812-1.266-2.044-1.927-3.657.624.825 1.3 2.03 1.927 3.657m-387.771 75.85c.627.838 1.208 2.081 1.736 3.703-.63-.847-1.206-2.073-1.736-3.703m2.02 9.93c.575.258 1.12.865 1.637 1.813q-.862-.388-1.637-1.813"/><path fill="#FBFCFE" d="M238.001 235.005h-16.695v12.258h15.846c7.495.001 14.994-.128 22.486.046 6.093.142 8.5 4.588 5.348 9.692-1.68 2.72-3.365 5.557-5.616 7.762-1.414 1.385-3.864 2.325-5.878 2.378-9.297.245-18.603.108-28.42.108.827 6.777 4.11 11.845 7.73 16.68 5.337 7.129 11.894 12.546 21.284 12.967 12.435.558 20.913-5.873 26.793-16.14 1.717-3 3.804-4.734 6.954-3.717 4.393 1.417 8.805 3.12 12.706 5.52 1.347.829 2.31 4.685 1.542 6.17-6.12 11.808-14.244 21.772-27.178 26.788-10.2 3.957-20.385 4.444-31.195 2.082-9.365-2.047-17.136-6.314-24.183-12.373-7.344-6.315-12.528-14.259-16.405-23.025-1.745-3.945-2.49-8.348-4.377-12.206-.692-1.414-3.338-2.522-5.153-2.619-6.147-.328-12.323-.033-18.482-.185-5.128-.126-6.657-2.618-4.163-7.096 2.021-3.628 4.28-7.252 7.1-10.251 1.467-1.56 4.322-2.187 6.645-2.478 3.243-.405 6.575-.102 10.188-.102v-12.262c-6.31 0-12.593.06-18.874-.018-5.391-.068-7.55-3.531-4.847-8.194 2-3.446 4.47-6.67 7.093-9.676.994-1.14 2.982-1.884 4.557-1.958 5.133-.242 10.285-.09 15.463-.09 4.091-15.128 10.603-28.502 22.548-38.666 7.541-6.417 16.018-10.1 25.983-11.929 7.483-1.374 14.453-.614 21.394.705 12.145 2.31 21.51 9.484 28.68 19.444 1.859 2.583 2.967 5.715 4.878 8.25 2.377 3.155-.213 4.84-1.923 5.863-3.823 2.29-8 4.037-12.148 5.72-3.199 1.298-4.751-.976-6.741-3.176-4.02-4.443-8.045-9.328-13.089-12.295-7.762-4.568-16.576-4.144-24.49.09-10.068 5.385-14.943 14.92-18.866 25.991 12.18 0 23.628-.062 35.072.064 1.823.02 4.4.316 5.266 1.49 1.15 1.556 1.677 4.298 1.163 6.17-.6 2.186-2.652 3.957-4.002 5.957-3 4.446-6.603 7.272-12.517 6.362-3.58-.55-7.313-.101-11.477-.101"/><path fill="#FBFCFE" d="M135.12 198.252c-8.003 19.522-10.037 39.656-7.71 59.852 2.366 20.548 9.676 39.721 22.009 56.672 14.767 20.295 34.168 34.563 57.258 44.04 4.174 1.712 6.398 4.683 6.199 9.366-.142 3.326.122 6.672-.078 9.992-.266 4.427-3.979 6.387-8.255 5.306-15.741-3.98-29.593-11.885-42.487-21.255-12.174-8.847-22.69-19.515-31.592-31.916-7.678-10.697-14.134-21.95-18.704-34.148-3.112-8.304-5.095-17.112-6.769-25.85-1.69-8.83-3.2-17.846-3.264-26.79-.06-8.411 1.763-16.85 2.969-25.247.718-4.997 1.458-10.047 2.856-14.88 5.029-17.371 12.696-33.507 23.692-47.943 13.025-17.1 28.747-31.185 47.763-41.296 7.65-4.068 15.674-7.489 23.716-10.74 6.042-2.442 10.066.602 10.123 7.017.02 2.332-.205 4.687.044 6.992.646 6.003-2.816 9.52-8.114 11.715-17.602 7.29-33.675 17.097-45.971 31.885-6.975 8.389-12.957 17.628-19.063 26.701-2.038 3.028-3.072 6.73-4.621 10.527"/><path fill="#FCFDFE" d="M367.273 276.457c.978-3.5 2.46-6.542 2.661-9.666.617-9.564 4.182-18.956 1.747-28.716-.396-1.587-.348-3.297-.408-4.954-.745-20.685-7.996-39.138-19.03-56.377-10.075-15.737-23.174-28.365-39.066-37.996-6.263-3.795-13.14-6.589-19.78-9.75-3.682-1.751-6.774-3.793-6.642-8.524.101-3.663-.053-7.333.022-10.997.12-5.796 3.927-8.456 9.296-6.063 9.94 4.43 20.2 8.415 29.479 13.996 27.166 16.339 47.217 39.173 59.486 68.576 5.14 12.32 9.193 24.945 10.096 38.388.585 8.714 1.997 17.47 1.56 26.132-.657 13-3.15 25.728-7.252 38.272-6.238 19.08-15.649 36.229-28.65 51.306-13.03 15.11-28.716 27.15-46.602 36.018-6.738 3.34-14.037 5.68-21.276 7.807-2.452.72-5.956-.146-6.03-4.155-.095-5.161-.091-10.33.079-15.488.16-4.876 4.548-5.8 7.793-6.887 12.12-4.063 22.406-11.144 32.271-18.888 15.782-12.389 26.92-28.485 35.422-46.428 2.248-4.746 3.197-10.108 4.824-15.606"/></svg>