<svg version="1.1" id="Layer_1" xmlns="http://www.w3.org/2000/svg" xmlns:xlink="http://www.w3.org/1999/xlink" x="0px" y="0px"
	 width="100%" viewBox="0 0 490 464" enable-background="new 0 0 490 464" xml:space="preserve">
<path fill="#F5F9FE" opacity="1.000000" stroke="none" 
	d="
M1.000000,311.000000 
	C1.000000,207.710709 1.000000,104.421410 1.000000,1.066057 
	C164.219666,1.066057 327.439362,1.066057 491.000000,1.066057 
	C491.000000,73.688324 491.000000,146.377182 490.633850,219.573196 
	C489.650238,220.322754 489.015381,220.528625 488.417938,220.813049 
	C480.836639,224.422333 479.926392,223.745819 479.938080,215.563980 
	C479.945892,210.116791 479.473724,204.656372 478.918671,199.232346 
	C478.817627,198.245041 477.279358,197.404800 476.404602,196.496674 
	C476.317566,197.716049 476.189209,198.934235 476.153992,200.155106 
	C476.110229,201.671585 476.143494,203.190308 476.143494,204.708054 
	C475.601868,205.059555 475.060272,205.411041 474.518646,205.762543 
	C472.686188,200.526581 470.159790,200.294846 466.925781,203.397202 
	C466.329559,203.969147 465.040985,203.942856 464.064941,203.974411 
	C459.367126,204.126221 455.130676,204.948944 454.077759,210.331390 
	C451.028656,210.331390 448.300140,210.331390 446.111847,210.331390 
	C444.970032,209.035873 444.070312,208.015060 443.080994,206.607407 
	C442.940063,204.644562 442.888733,203.068558 442.884216,201.071625 
	C442.256226,199.445251 441.581421,198.239792 440.605957,196.862625 
	C440.232544,195.782013 440.159760,194.873108 440.342346,193.724182 
	C440.114044,191.988571 439.630402,190.492981 439.036316,188.622604 
	C436.103027,180.163818 433.868713,171.813217 430.349731,164.044540 
	C418.594177,138.092148 402.785248,115.041443 381.315552,95.922325 
	C363.192444,79.783379 342.997253,67.603378 320.499390,58.419254 
	C303.408722,51.442486 285.771698,47.332249 267.774170,45.597347 
	C249.067825,43.794113 230.215744,44.489006 211.545380,48.672905 
	C197.741333,51.766289 184.220764,55.385765 171.282898,61.056309 
	C153.050385,69.047462 136.309921,79.449059 121.181229,92.424904 
	C106.630081,104.905396 93.940643,119.119415 84.004387,135.439240 
	C77.438751,146.222977 71.985664,157.777832 67.011620,169.405441 
	C63.422848,177.794693 60.927231,186.753647 58.878239,195.673111 
	C56.439053,206.291183 53.732559,217.102432 53.422989,227.895432 
	C52.958981,244.072800 54.481770,260.307159 55.112816,276.921936 
	C55.642632,278.552399 56.219257,279.778198 56.886436,281.390442 
	C57.038757,283.352570 57.100521,284.928223 57.133369,286.852386 
	C57.649914,287.802612 58.195370,288.404358 58.853504,289.410400 
	C59.053177,291.209412 59.140171,292.604156 58.825256,293.999695 
	C56.603973,295.342377 54.869831,296.826080 52.940842,297.985596 
	C51.077911,299.105438 48.748291,300.926575 47.119293,300.508514 
	C45.718029,300.148834 44.604206,297.163208 44.133217,295.157837 
	C43.751259,293.531616 44.512909,291.636749 44.806999,289.584259 
	C43.734573,289.384277 42.493618,288.747223 41.930511,289.123779 
	C40.224186,290.264862 38.898907,291.967712 37.212860,293.148560 
	C31.393400,297.224304 25.555698,301.286041 19.538498,305.055511 
	C18.522579,305.691956 16.587654,304.784363 15.071943,304.722748 
	C13.693033,304.666718 11.176012,304.523865 11.092816,304.875916 
	C9.772884,310.461243 4.141406,308.677246 1.000000,311.000000 
z"/>
<path fill="#EFF5FE" opacity="1.000000" stroke="none" 
	d="
M443.170624,206.994247 
	C444.070312,208.015060 444.970032,209.035873 446.111847,210.331390 
	C448.300140,210.331390 451.028656,210.331390 454.077759,210.331390 
	C455.130676,204.948944 459.367126,204.126221 464.064941,203.974411 
	C465.040985,203.942856 466.329559,203.969147 466.925781,203.397202 
	C470.159790,200.294846 472.686188,200.526581 474.518646,205.762543 
	C475.060272,205.411041 475.601868,205.059555 476.143494,204.708054 
	C476.143494,203.190308 476.110229,201.671585 476.153992,200.155106 
	C476.189209,198.934235 476.317566,197.716049 476.404602,196.496674 
	C477.279358,197.404800 478.817627,198.245041 478.918671,199.232346 
	C479.473724,204.656372 479.945892,210.116791 479.938080,215.563980 
	C479.926392,223.745819 480.836639,224.422333 488.417938,220.813049 
	C489.015381,220.528625 489.650238,220.322754 490.633850,220.040176 
	C491.000000,301.626465 491.000000,383.252899 491.000000,464.939697 
	C327.787323,464.939697 164.574615,464.939697 1.000000,464.939697 
	C1.000000,413.979675 1.000000,362.958496 1.000000,311.468658 
	C4.141406,308.677246 9.772884,310.461243 11.092816,304.875916 
	C11.176012,304.523865 13.693033,304.666718 15.071943,304.722748 
	C16.587654,304.784363 18.522579,305.691956 19.538498,305.055511 
	C25.555698,301.286041 31.393400,297.224304 37.212860,293.148560 
	C38.898907,291.967712 40.224186,290.264862 41.930511,289.123779 
	C42.493618,288.747223 43.734573,289.384277 44.806999,289.584259 
	C44.512909,291.636749 43.751259,293.531616 44.133217,295.157837 
	C44.604206,297.163208 45.718029,300.148834 47.119293,300.508514 
	C48.748291,300.926575 51.077911,299.105438 52.940842,297.985596 
	C54.869831,296.826080 56.603973,295.342377 59.096474,294.246094 
	C60.117630,294.833008 60.646488,295.112579 60.787067,295.524689 
	C63.811176,304.389160 65.950966,313.667725 69.940262,322.069244 
	C81.436783,346.281036 96.671249,367.813324 116.575912,386.133453 
	C132.183578,400.498688 149.568115,411.928772 168.686386,420.633118 
	C178.468887,425.086975 188.967041,428.116394 199.347946,431.063202 
	C208.083939,433.543060 217.086075,436.366852 226.027206,436.572876 
	C244.030441,436.987671 262.121338,436.339569 280.079224,434.911957 
	C290.202850,434.107147 300.419281,431.732819 310.075134,428.510742 
	C320.845764,424.916718 331.123657,419.763214 341.443512,414.920868 
	C356.015411,408.083374 368.648346,398.296173 380.700592,387.796387 
	C396.788422,373.780792 409.814270,357.143463 420.263672,338.642334 
	C425.297119,329.730408 429.203796,320.129333 433.016449,310.598572 
	C435.706848,303.873077 437.647949,296.808929 439.438782,289.772614 
	C441.514893,281.615173 443.617645,273.393097 444.669678,265.067749 
	C445.604187,257.672485 445.444489,250.086166 445.183167,242.604630 
	C444.768219,230.725555 443.866455,218.863495 443.170624,206.994247 
z"/>
<path fill="#4074C5" opacity="1.000000" stroke="none" 
	d="
M443.080994,206.607407 
	C443.866455,218.863495 444.768219,230.725555 445.183167,242.604630 
	C445.444489,250.086166 445.604187,257.672485 444.669678,265.067749 
	C443.617645,273.393097 441.514893,281.615173 439.438782,289.772614 
	C437.647949,296.808929 435.706848,303.873077 433.016449,310.598572 
	C429.203796,320.129333 425.297119,329.730408 420.263672,338.642334 
	C409.814270,357.143463 396.788422,373.780792 380.700592,387.796387 
	C368.648346,398.296173 356.015411,408.083374 341.443512,414.920868 
	C331.123657,419.763214 320.845764,424.916718 310.075134,428.510742 
	C300.419281,431.732819 290.202850,434.107147 280.079224,434.911957 
	C262.121338,436.339569 244.030441,436.987671 226.027206,436.572876 
	C217.086075,436.366852 208.083939,433.543060 199.347946,431.063202 
	C188.967041,428.116394 178.468887,425.086975 168.686386,420.633118 
	C149.568115,411.928772 132.183578,400.498688 116.575912,386.133453 
	C96.671249,367.813324 81.436783,346.281036 69.940262,322.069244 
	C65.950966,313.667725 63.811176,304.389160 60.787067,295.524689 
	C60.646488,295.112579 60.117630,294.833008 59.498390,294.245300 
	C59.140171,292.604156 59.053177,291.209412 58.882187,289.068970 
	C58.252892,287.716797 57.707592,287.110352 57.162289,286.503906 
	C57.100521,284.928223 57.038757,283.352570 56.939362,281.011414 
	C56.321026,279.003052 55.740322,277.760162 55.159622,276.517273 
	C54.481770,260.307159 52.958981,244.072800 53.422989,227.895432 
	C53.732559,217.102432 56.439053,206.291183 58.878239,195.673111 
	C60.927231,186.753647 63.422848,177.794693 67.011620,169.405441 
	C71.985664,157.777832 77.438751,146.222977 84.004387,135.439240 
	C93.940643,119.119415 106.630081,104.905396 121.181229,92.424904 
	C136.309921,79.449059 153.050385,69.047462 171.282898,61.056309 
	C184.220764,55.385765 197.741333,51.766289 211.545380,48.672905 
	C230.215744,44.489006 249.067825,43.794113 267.774170,45.597347 
	C285.771698,47.332249 303.408722,51.442486 320.499390,58.419254 
	C342.997253,67.603378 363.192444,79.783379 381.315552,95.922325 
	C402.785248,115.041443 418.594177,138.092148 430.349731,164.044540 
	C433.868713,171.813217 436.103027,180.163818 438.991455,189.008026 
	C439.400360,191.166901 439.743683,192.565552 440.086975,193.964203 
	C440.159760,194.873108 440.232544,195.782013 440.656708,197.243103 
	C441.617859,199.027725 442.227600,200.260147 442.837341,201.492554 
	C442.888733,203.068558 442.940063,204.644562 443.080994,206.607407 
M238.500549,235.004913 
	C242.165039,235.004913 245.898697,234.555557 249.478424,235.106384 
	C255.391556,236.016281 258.995026,233.189575 261.994873,228.744217 
	C263.344513,226.744247 265.397125,224.973465 265.997223,222.787521 
	C266.511383,220.914536 265.984528,218.173111 264.834351,216.616455 
	C263.967102,215.442703 261.391022,215.146469 259.568237,215.126541 
	C248.123611,215.001419 236.676941,215.063263 224.495621,215.063263 
	C228.419052,203.991211 233.294434,194.457413 243.361801,189.071579 
	C251.275589,184.837875 260.089783,184.414261 267.852478,188.981781 
	C272.896118,191.949387 276.921204,196.833786 280.940826,201.277191 
	C282.930664,203.476822 284.483429,205.751236 287.681976,204.453110 
	C291.830231,202.769531 296.007355,201.023071 299.830444,198.733368 
	C301.540466,197.709213 304.129791,196.025497 301.752838,192.870804 
	C299.842438,190.335342 298.733917,187.203339 296.874664,184.620331 
	C289.705353,174.660431 280.340027,167.485703 268.194733,165.176285 
	C261.254333,163.856583 254.283997,163.097321 246.800766,164.471039 
	C236.835739,166.300385 228.359131,169.982986 220.817612,176.400116 
	C208.872864,186.563934 202.361496,199.937683 198.270248,215.065079 
	C193.092377,215.065079 187.940292,214.914062 182.806717,215.155518 
	C181.231735,215.229630 179.243851,215.974121 178.249603,217.113617 
	C175.626419,220.119949 173.156097,223.344009 171.157349,226.790207 
	C168.453094,231.452744 170.613037,234.916122 176.003891,234.983871 
	C182.284729,235.062820 188.567322,235.002289 194.877991,235.002289 
	C194.877991,239.331238 194.877991,243.066864 194.877991,247.263916 
	C191.265427,247.263916 187.933228,246.960556 184.689682,247.366119 
	C182.367004,247.656555 179.511658,248.283997 178.045334,249.843613 
	C175.225433,252.842834 172.966064,256.467224 170.945450,260.094818 
	C168.451111,264.572937 169.980408,267.064758 175.107590,267.190918 
	C181.267212,267.342560 187.443481,267.047729 193.589569,267.376190 
	C195.405365,267.473236 198.051025,268.580841 198.742767,269.995056 
	C200.630051,273.853363 201.374527,278.256500 203.119629,282.201416 
	C206.997360,290.967133 212.181061,298.911133 219.524994,305.225769 
	C226.572464,311.285461 234.342651,315.552399 243.707748,317.598969 
	C254.518311,319.961426 264.702179,319.474060 274.903320,315.517426 
	C287.837097,310.500946 295.960205,300.537109 302.080597,288.728394 
	C302.849915,287.244171 301.886230,283.387909 300.539215,282.559357 
	C296.638336,280.159943 292.225616,278.455811 287.833160,277.038574 
	C284.683136,276.022186 282.596161,277.756012 280.878723,280.755432 
	C274.999481,291.022919 266.520630,297.453705 254.085953,296.896057 
	C244.696014,296.474976 238.139145,291.057739 232.802841,283.929932 
	C229.182510,279.094177 225.899490,274.025543 225.072052,267.249054 
	C234.889206,267.249054 244.195389,267.385773 253.491531,267.141144 
	C255.505585,267.088135 257.956146,266.147766 259.369995,264.762939 
	C261.620728,262.558441 263.306091,259.721588 264.985779,257.001038 
	C268.137146,251.896988 265.730896,247.451202 259.638031,247.309357 
	C252.146225,247.134949 244.647339,247.264389 237.151520,247.263306 
	C231.891098,247.262543 226.630676,247.263168 221.306030,247.263168 
	C221.306030,242.838043 221.306030,239.102570 221.306030,235.004913 
	C226.900879,235.004913 232.201126,235.004913 238.500549,235.004913 
M135.177856,197.849777 
	C136.670395,194.455673 137.704178,190.752869 139.741516,187.725372 
	C145.847626,178.651688 151.829681,169.412674 158.804886,161.023712 
	C171.100815,146.235580 187.173508,136.428741 204.776138,129.138672 
	C210.074417,126.944420 213.536148,123.426994 212.889542,117.424271 
	C212.641190,115.118752 212.866272,112.763947 212.845627,110.431862 
	C212.788834,104.017265 208.764587,100.973152 202.722992,103.415428 
	C194.681427,106.666176 186.656921,110.087448 179.007492,114.154640 
	C159.990799,124.265770 144.268631,138.351761 131.244232,155.450897 
	C120.248413,169.886780 112.580833,186.022568 107.552460,203.394608 
	C106.153702,208.227051 105.413750,213.276962 104.695953,218.273712 
	C103.489784,226.670074 101.667282,235.109985 101.726967,243.520050 
	C101.790459,252.465057 103.300774,261.480927 104.991425,270.310364 
	C106.664650,279.048859 108.647995,287.856812 111.759514,296.160614 
	C116.330032,308.358063 122.785713,319.611725 130.464249,330.309052 
	C139.365616,342.709961 149.881546,353.377838 162.055893,362.224792 
	C174.949997,371.594757 188.801529,379.500061 204.543472,383.480347 
	C208.819153,384.561462 212.532089,382.601105 212.798187,378.174316 
	C212.997757,374.854279 212.733887,371.508362 212.875580,368.182434 
	C213.075089,363.499390 210.851364,360.528381 206.677094,358.815277 
	C183.587128,349.339264 164.186371,335.071472 149.418991,314.775909 
	C137.085510,297.825409 129.776093,278.651825 127.409317,258.104370 
	C125.082947,237.907654 127.116539,217.774384 135.177856,197.849777 
M367.191132,276.875824 
	C365.645691,281.954987 364.697174,287.317017 362.448547,292.063019 
	C353.947357,310.006042 342.809113,326.102081 327.027069,338.491028 
	C317.162445,346.234772 306.875366,353.316376 294.755585,357.378754 
	C291.511383,358.466187 287.122986,359.389832 286.962524,364.265625 
	C286.792786,369.424194 286.788940,374.592926 286.884247,379.754028 
	C286.958344,383.763214 290.462128,384.629517 292.913971,383.909027 
	C300.153442,381.781555 307.452148,379.442535 314.190155,376.102020 
	C332.076172,367.234589 347.761993,355.194244 360.791718,340.084106 
	C373.793060,325.006836 383.203735,307.857208 389.442078,288.778137 
	C393.543640,276.234131 396.036865,263.505768 396.693176,250.506180 
	C397.130554,241.843872 395.719086,233.088135 395.133911,224.374298 
	C394.231079,210.930939 390.177856,198.305847 385.037567,185.986343 
	C372.769012,156.582581 352.718201,133.748566 325.551575,117.409904 
	C316.272675,111.829346 306.012054,107.843155 296.072876,103.413673 
	C290.703979,101.020973 286.897583,103.680794 286.777466,109.476524 
	C286.701508,113.140930 286.856415,116.810738 286.754547,120.473862 
	C286.622955,125.204620 289.715027,127.246696 293.396973,128.998932 
	C300.037079,132.158981 306.913605,134.952728 313.176971,138.748367 
	C329.068787,148.378983 342.168152,161.006531 352.242249,176.744064 
	C363.277344,193.982895 370.528168,212.436157 371.273315,233.121216 
	C371.333008,234.777939 371.284637,236.488113 371.680695,238.075043 
	C374.116486,247.834534 370.551270,257.226868 369.934235,266.790558 
	C369.732635,269.915405 368.250549,272.957672 367.191132,276.875824 
z"/>
<path fill="#EFF5FE" opacity="1.000000" stroke="none" 
	d="
M440.342346,193.724182 
	C439.743683,192.565552 439.400360,191.166901 439.101929,189.382812 
	C439.630402,190.492981 440.114044,191.988571 440.342346,193.724182 
z"/>
<path fill="#EFF5FE" opacity="1.000000" stroke="none" 
	d="
M442.884186,201.071640 
	C442.227600,200.260147 441.617859,199.027725 440.957336,197.414825 
	C441.581421,198.239792 442.256226,199.445251 442.884186,201.071640 
z"/>
<path fill="#EFF5FE" opacity="1.000000" stroke="none" 
	d="
M55.112816,276.921936 
	C55.740322,277.760162 56.321026,279.003052 56.848804,280.625000 
	C56.219257,279.778198 55.642632,278.552399 55.112816,276.921936 
z"/>
<path fill="#EFF5FE" opacity="1.000000" stroke="none" 
	d="
M57.133373,286.852386 
	C57.707592,287.110352 58.252892,287.716797 58.769512,288.664673 
	C58.195370,288.404358 57.649914,287.802612 57.133373,286.852386 
z"/>
<path fill="#FBFCFE" opacity="1.000000" stroke="none" 
	d="
M238.000961,235.004913 
	C232.201126,235.004913 226.900879,235.004913 221.306030,235.004913 
	C221.306030,239.102570 221.306030,242.838043 221.306030,247.263168 
	C226.630676,247.263168 231.891098,247.262543 237.151520,247.263306 
	C244.647339,247.264389 252.146225,247.134949 259.638031,247.309357 
	C265.730896,247.451202 268.137146,251.896988 264.985779,257.001038 
	C263.306091,259.721588 261.620728,262.558441 259.369995,264.762939 
	C257.956146,266.147766 255.505585,267.088135 253.491531,267.141144 
	C244.195389,267.385773 234.889206,267.249054 225.072052,267.249054 
	C225.899490,274.025543 229.182510,279.094177 232.802841,283.929932 
	C238.139145,291.057739 244.696014,296.474976 254.085953,296.896057 
	C266.520630,297.453705 274.999481,291.022919 280.878723,280.755432 
	C282.596161,277.756012 284.683136,276.022186 287.833160,277.038574 
	C292.225616,278.455811 296.638336,280.159943 300.539215,282.559357 
	C301.886230,283.387909 302.849915,287.244171 302.080597,288.728394 
	C295.960205,300.537109 287.837097,310.500946 274.903320,315.517426 
	C264.702179,319.474060 254.518311,319.961426 243.707748,317.598969 
	C234.342651,315.552399 226.572464,311.285461 219.524994,305.225769 
	C212.181061,298.911133 206.997360,290.967133 203.119629,282.201416 
	C201.374527,278.256500 200.630051,273.853363 198.742767,269.995056 
	C198.051025,268.580841 195.405365,267.473236 193.589569,267.376190 
	C187.443481,267.047729 181.267212,267.342560 175.107590,267.190918 
	C169.980408,267.064758 168.451111,264.572937 170.945450,260.094818 
	C172.966064,256.467224 175.225433,252.842834 178.045334,249.843613 
	C179.511658,248.283997 182.367004,247.656555 184.689682,247.366119 
	C187.933228,246.960556 191.265427,247.263916 194.877991,247.263916 
	C194.877991,243.066864 194.877991,239.331238 194.877991,235.002289 
	C188.567322,235.002289 182.284729,235.062820 176.003891,234.983871 
	C170.613037,234.916122 168.453094,231.452744 171.157349,226.790207 
	C173.156097,223.344009 175.626419,220.119949 178.249603,217.113617 
	C179.243851,215.974121 181.231735,215.229630 182.806717,215.155518 
	C187.940292,214.914062 193.092377,215.065079 198.270248,215.065079 
	C202.361496,199.937683 208.872864,186.563934 220.817612,176.400116 
	C228.359131,169.982986 236.835739,166.300385 246.800766,164.471039 
	C254.283997,163.097321 261.254333,163.856583 268.194733,165.176285 
	C280.340027,167.485703 289.705353,174.660431 296.874664,184.620331 
	C298.733917,187.203339 299.842438,190.335342 301.752838,192.870804 
	C304.129791,196.025497 301.540466,197.709213 299.830444,198.733368 
	C296.007355,201.023071 291.830231,202.769531 287.681976,204.453110 
	C284.483429,205.751236 282.930664,203.476822 280.940826,201.277191 
	C276.921204,196.833786 272.896118,191.949387 267.852478,188.981781 
	C260.089783,184.414261 251.275589,184.837875 243.361801,189.071579 
	C233.294434,194.457413 228.419052,203.991211 224.495621,215.063263 
	C236.676941,215.063263 248.123611,215.001419 259.568237,215.126541 
	C261.391022,215.146469 263.967102,215.442703 264.834351,216.616455 
	C265.984528,218.173111 266.511383,220.914536 265.997223,222.787521 
	C265.397125,224.973465 263.344513,226.744247 261.994873,228.744217 
	C258.995026,233.189575 255.391556,236.016281 249.478424,235.106384 
	C245.898697,234.555557 242.165039,235.004913 238.000961,235.004913 
z"/>
<path fill="#FBFCFE" opacity="1.000000" stroke="none" 
	d="
M135.120728,198.251877 
	C127.116539,217.774384 125.082947,237.907654 127.409317,258.104370 
	C129.776093,278.651825 137.085510,297.825409 149.418991,314.775909 
	C164.186371,335.071472 183.587128,349.339264 206.677094,358.815277 
	C210.851364,360.528381 213.075089,363.499390 212.875580,368.182434 
	C212.733887,371.508362 212.997757,374.854279 212.798187,378.174316 
	C212.532089,382.601105 208.819153,384.561462 204.543472,383.480347 
	C188.801529,379.500061 174.949997,371.594757 162.055893,362.224792 
	C149.881546,353.377838 139.365616,342.709961 130.464249,330.309052 
	C122.785713,319.611725 116.330032,308.358063 111.759514,296.160614 
	C108.647995,287.856812 106.664650,279.048859 104.991425,270.310364 
	C103.300774,261.480927 101.790459,252.465057 101.726967,243.520050 
	C101.667282,235.109985 103.489784,226.670074 104.695953,218.273712 
	C105.413750,213.276962 106.153702,208.227051 107.552460,203.394608 
	C112.580833,186.022568 120.248413,169.886780 131.244232,155.450897 
	C144.268631,138.351761 159.990799,124.265770 179.007492,114.154640 
	C186.656921,110.087448 194.681427,106.666176 202.722992,103.415428 
	C208.764587,100.973152 212.788834,104.017265 212.845627,110.431862 
	C212.866272,112.763947 212.641190,115.118752 212.889542,117.424271 
	C213.536148,123.426994 210.074417,126.944420 204.776138,129.138672 
	C187.173508,136.428741 171.100815,146.235580 158.804886,161.023712 
	C151.829681,169.412674 145.847626,178.651688 139.741516,187.725372 
	C137.704178,190.752869 136.670395,194.455673 135.120728,198.251877 
z"/>
<path fill="#FCFDFE" opacity="1.000000" stroke="none" 
	d="
M367.272583,276.456787 
	C368.250549,272.957672 369.732635,269.915405 369.934235,266.790558 
	C370.551270,257.226868 374.116486,247.834534 371.680695,238.075043 
	C371.284637,236.488113 371.333008,234.777939 371.273315,233.121216 
	C370.528168,212.436157 363.277344,193.982895 352.242249,176.744064 
	C342.168152,161.006531 329.068787,148.378983 313.176971,138.748367 
	C306.913605,134.952728 300.037079,132.158981 293.396973,128.998932 
	C289.715027,127.246696 286.622955,125.204620 286.754547,120.473862 
	C286.856415,116.810738 286.701508,113.140930 286.777466,109.476524 
	C286.897583,103.680794 290.703979,101.020973 296.072876,103.413673 
	C306.012054,107.843155 316.272675,111.829346 325.551575,117.409904 
	C352.718201,133.748566 372.769012,156.582581 385.037567,185.986343 
	C390.177856,198.305847 394.231079,210.930939 395.133911,224.374298 
	C395.719086,233.088135 397.130554,241.843872 396.693176,250.506180 
	C396.036865,263.505768 393.543640,276.234131 389.442078,288.778137 
	C383.203735,307.857208 373.793060,325.006836 360.791718,340.084106 
	C347.761993,355.194244 332.076172,367.234589 314.190155,376.102020 
	C307.452148,379.442535 300.153442,381.781555 292.913971,383.909027 
	C290.462128,384.629517 286.958344,383.763214 286.884247,379.754028 
	C286.788940,374.592926 286.792786,369.424194 286.962524,364.265625 
	C287.122986,359.389832 291.511383,358.466187 294.755585,357.378754 
	C306.875366,353.316376 317.162445,346.234772 327.027069,338.491028 
	C342.809113,326.102081 353.947357,310.006042 362.448547,292.063019 
	C364.697174,287.317017 365.645691,281.954987 367.272583,276.456787 
z"/>
</svg>