<svg xmlns="http://www.w3.org/2000/svg" width="200" height="200" viewBox="0 0 200 200"><path fill="#f8f9fa" fill-rule="evenodd" d="M66.66 55.165c-2.045 9.534-4.278 20.121-4.964 23.526-.685 3.406-1.481 6.428-1.77 6.716s-4.722 1.648-9.854 3.021-9.52 2.687-9.752 2.919c-.55.55 3.608 16.928 4.543 17.893.394.406 3.736-.124 7.427-1.18l6.71-1.919.15 3.43c.082 1.886.195 3.989.25 4.674.057.709-2.481 1.928-5.9 2.834-3.3.874-5.988 2.002-5.974 2.505.09 3.189 4.1 16.719 5.066 17.09.645.247 3.813-.241 7.04-1.085 3.698-.968 5.995-1.165 6.21-.535.189.55 2.049 3.159 4.135 5.798 12.258 15.508 33.727 22.889 53.023 18.231 6.747-1.628 17.582-7.145 22.666-11.54l3.786-3.273-4.174-5.385c-2.296-2.962-5.435-6.842-6.976-8.624l-2.802-3.238-5.803 3.956c-3.191 2.176-7.466 4.418-9.5 4.983-5.369 1.491-14.293 1.268-19.253-.482C96.661 133.969 90 129.536 90 128.196c0-.386 8.55-2.925 19-5.643s19.006-5.417 19.014-5.998c.037-2.959-4.468-17.553-5.415-17.542-.605.007-9.403 2.227-19.552 4.934-10.149 2.706-18.811 4.699-19.25 4.428-.438-.271-.797-2.254-.797-4.406 0-4.474-2.106-3.559 23.872-10.373 7.355-1.929 13.572-3.706 13.814-3.949.501-.501-3.697-16.769-4.607-17.854-.327-.389-6.779.922-14.338 2.914-7.56 1.992-13.914 3.436-14.12 3.208s.762-5.888 2.15-12.578l2.525-12.163-2.398-4.837c-2.746-5.539-7.657-8.769-14.959-9.839l-4.561-.668z"/><path fill="#3657be" fill-rule="evenodd" d="M82.66.985c-39.075 7.066-69.508 35.55-80.42 75.27-2.443 8.893-2.443 38.597 0 47.49 9.087 33.076 31.727 58.617 62.091 70.045 11.93 4.49 21.516 6.14 35.669 6.14 20.35 0 36.938-4.653 53.509-15.011 15.445-9.653 30.897-27.283 38.009-43.364 3.214-7.267 7.482-21.875 7.482-25.608 0-1.556.45-3.107 1-3.447.584-.361 1-6.03 1-13.618 0-7.15-.389-12.76-.864-12.466-.475.293-1.125-1.679-1.446-4.382-.924-7.803-6.397-22.833-11.471-31.501-14.116-24.115-34.291-39.764-61.356-47.593C120.134 1.283 115.061.732 103 .46 94.475.267 85.322.503 82.66.985m-16 54.18c-2.045 9.534-4.278 20.121-4.964 23.526-.685 3.406-1.481 6.428-1.77 6.716s-4.722 1.648-9.854 3.021-9.52 2.687-9.752 2.919c-.55.55 3.608 16.928 4.543 17.893.394.406 3.736-.124 7.427-1.18l6.71-1.919.15 3.43c.082 1.886.195 3.989.25 4.674.057.709-2.481 1.928-5.9 2.834-3.3.874-5.988 2.002-5.974 2.505.09 3.189 4.1 16.719 5.066 17.09.645.247 3.813-.241 7.04-1.085 3.698-.968 5.995-1.165 6.21-.535.189.55 2.049 3.159 4.135 5.798 12.258 15.508 33.727 22.889 53.023 18.231 6.747-1.628 17.582-7.145 22.666-11.54l3.786-3.273-4.174-5.385c-2.296-2.962-5.435-6.842-6.976-8.624l-2.802-3.238-5.803 3.956c-3.191 2.176-7.466 4.418-9.5 4.983-5.369 1.491-14.293 1.268-19.253-.482C96.661 133.969 90 129.536 90 128.196c0-.386 8.55-2.925 19-5.643s19.006-5.417 19.014-5.998c.037-2.959-4.468-17.553-5.415-17.542-.605.007-9.403 2.227-19.552 4.934-10.149 2.706-18.811 4.699-19.25 4.428-.438-.271-.797-2.254-.797-4.406 0-4.474-2.106-3.559 23.872-10.373 7.355-1.929 13.572-3.706 13.814-3.949.501-.501-3.697-16.769-4.607-17.854-.327-.389-6.779.922-14.338 2.914-7.56 1.992-13.914 3.436-14.12 3.208s.762-5.888 2.15-12.578l2.525-12.163-2.398-4.837c-2.746-5.539-7.657-8.769-14.959-9.839l-4.561-.668zM.392 100c0 7.425.157 10.463.35 6.75s.192-9.787 0-13.5c-.193-3.713-.35-.675-.35 6.75"/></svg>