<svg xmlns="http://www.w3.org/2000/svg" width="64" height="65" fill="none" viewBox="0 0 64 65"><rect width="64" height="64" y=".304" fill="#3036DA" rx="32"/><rect width="63" height="63" x=".5" y=".804" stroke="#070B14" stroke-opacity=".15" rx="31.5"/><path fill="#fff" d="M32.881 43.312c-3.238 0-6.075-2.178-7.616-5.42h10.191v-4.49H24.08a14 14 0 0 1 0-2.195h11.376v-4.492H25.265c1.54-3.24 4.378-5.418 7.616-5.418 3.096 0 6.01 2.07 7.606 5.402l4.055-1.937c-2.35-4.91-6.818-7.958-11.66-7.958-3.641 0-7.039 1.662-9.568 4.685a15.9 15.9 0 0 0-2.884 5.226h-4.888v4.492h4.032a18 18 0 0 0 0 2.194h-4.032v4.492h4.888a15.9 15.9 0 0 0 2.884 5.222c2.53 3.023 5.927 4.689 9.567 4.689 4.843 0 9.31-3.048 11.661-7.958l-4.055-1.94c-1.596 3.335-4.51 5.406-7.606 5.406"/></svg>