<svg xmlns="http://www.w3.org/2000/svg" width="94" height="24" fill="none" viewBox="0 0 94 24"><g clip-path="url(#exrd_svg-a)"><path fill="#003057" d="M22.106 9.765h6.349c1.79 0 3.195.523 4.11 1.41a4.25 4.25 0 0 1 1.177 3.043v.04c0 2.319-1.405 3.709-3.378 4.274l3.846 5.342h-2.972l-3.5-4.918h-3.133v4.918h-2.5zm6.166 6.995c1.79 0 2.93-.935 2.93-2.358v-.042c0-1.51-1.099-2.338-2.951-2.338h-3.646v4.738zm15.604-7.093h2.32l6.267 14.216h-2.644l-1.444-3.406h-6.736l-1.466 3.406H37.61zm3.587 8.604-2.454-5.645-2.455 5.649zm9.077-8.506h5.31c4.477 0 7.57 3.043 7.57 7.016v.04c0 3.97-3.093 7.055-7.57 7.055h-5.31zm2.503 2.257v9.596h2.807c2.99 0 4.945-1.996 4.945-4.757v-.04c0-2.762-1.954-4.799-4.945-4.799zM76.3 9.765h-2.503v14.11H76.3zm17.515 0-4.963 6.894 5.167 7.217h-2.95l-3.764-5.382-3.746 5.382h-2.868l5.15-7.178-4.946-6.933h2.95l3.541 5.12 3.561-5.12z"/><path fill="#00C389" d="M10.428 20.906a1.43 1.43 0 0 1-1.148-.583l-5.617-7.708H0V9.809h4.388a1.42 1.42 0 0 1 1.148.582l4.59 6.296L17.128.84c.11-.25.292-.463.522-.612s.5-.228.775-.228h8.763v2.806h-7.836l-7.625 17.259a1.42 1.42 0 0 1-1.154.832q-.075.005-.151 0"/></g><defs><clipPath id="exrd_svg-a"><path fill="#fff" d="M0 0h94v23.873H0z"/></clipPath></defs></svg>