<svg width="32" height="32" viewBox="0 0 32 32" fill="none" xmlns="http://www.w3.org/2000/svg"><path d="M0 0h32v32H0V0z" fill="#000"/><path d="M5.807 5.926l3.777 4.984 4.883-4.984h-8.66zm11.828 0l4.818 4.918 3.668-4.918h-8.486zm-1.584.053l-5.295 5.404h10.59L16.05 5.979zm11.119.494l-3.664 4.91h7.402l-3.738-4.91zm-22.38.046l-3.61 4.864h7.298L4.791 6.52zm-3.655 6.032L14.16 26.826l-5.2-14.275H1.135zm9.066 0l5.85 16.052 5.85-16.052H10.2zm12.941 0l-5.2 14.275 13.025-14.275h-7.825z" fill="#fff"/></svg>