<svg xmlns="http://www.w3.org/2000/svg" width="40" height="40" fill="none" viewBox="0 0 40 40"><g clip-path="url(#figon_svg-a)"><path fill="#FFD7D7" d="M20 0c11.046 0 20 8.954 20 20s-8.954 20-20 20S0 31.046 0 20 8.954 0 20 0"/><path fill="#FF3737" d="M26 6a8 8 0 0 1 8 8v12a8 8 0 0 1-8 8H14a8 8 0 0 1-8-8V14a8 8 0 0 1 8-8z"/><path fill="#fff" fill-rule="evenodd" d="M16.775 17.483A2.53 2.53 0 0 0 14.235 20a2.53 2.53 0 0 0 2.54 2.517h2.607v-5.034zm6.382-1.224h.069a2.53 2.53 0 0 0 2.539-2.517 2.53 2.53 0 0 0-2.54-2.517h-2.607v5.034zm2.138.612A3.73 3.73 0 0 0 27 13.74c0-2.064-1.69-3.74-3.774-3.74h-6.452C14.69 10 13 11.675 13 13.742a3.73 3.73 0 0 0 1.705 3.129A3.73 3.73 0 0 0 13 20a3.73 3.73 0 0 0 1.705 3.13A3.73 3.73 0 0 0 13 26.258C13 28.329 14.711 30 16.792 30c2.099 0 3.826-1.686 3.826-3.776V22.77a3.78 3.78 0 0 0 2.539.973h.069C25.31 23.742 27 22.066 27 20a3.73 3.73 0 0 0-1.705-3.13m-2.07.612h-.068A2.53 2.53 0 0 0 20.617 20a2.53 2.53 0 0 0 2.54 2.517h.069A2.53 2.53 0 0 0 25.765 20a2.53 2.53 0 0 0-2.54-2.517m-8.99 8.776a2.53 2.53 0 0 1 2.54-2.518h2.607v2.483c0 1.405-1.165 2.552-2.59 2.552-1.407 0-2.557-1.132-2.557-2.517m5.147-10h-2.608a2.53 2.53 0 0 1-2.539-2.517 2.53 2.53 0 0 1 2.54-2.517h2.607z" clip-rule="evenodd"/></g><defs><clipPath id="figon_svg-a"><path fill="#fff" d="M0 0h40v40H0z"/></clipPath></defs></svg>