<?xml version="1.0" encoding="UTF-8"?>
<!DOCTYPE svg PUBLIC "-//W3C//DTD SVG 1.1//EN" "http://www.w3.org/Graphics/SVG/1.1/DTD/svg11.dtd">
<svg xmlns="http://www.w3.org/2000/svg" version="1.1" width="200px" height="200px" style="shape-rendering:geometricPrecision; text-rendering:geometricPrecision; image-rendering:optimizeQuality; fill-rule:evenodd; clip-rule:evenodd" xmlns:xlink="http://www.w3.org/1999/xlink">
<g><path style="opacity:0.183" fill="#01f5ac" d="M 126.5,4.5 C 125.5,4.5 124.5,4.5 123.5,4.5C 122.5,4.5 121.5,4.5 120.5,4.5C 113.73,2.99931 106.73,2.33264 99.5,2.5C 92.2703,2.33264 85.2703,2.99931 78.5,4.5C 76.5,4.5 74.5,4.5 72.5,4.5C 90.5,-0.833333 108.5,-0.833333 126.5,4.5 Z"/></g>
<g><path style="opacity:0.908" fill="#01bad2" d="M 120.5,4.5 C 114.509,4.03431 108.509,3.70098 102.5,3.5C 96.9738,3.17859 91.6405,3.51192 86.5,4.5C 83.8333,4.5 81.1667,4.5 78.5,4.5C 85.2703,2.99931 92.2703,2.33264 99.5,2.5C 106.73,2.33264 113.73,2.99931 120.5,4.5 Z"/></g>
<g><path style="opacity:1" fill="#00a6df" d="M 86.5,4.5 C 91.6405,3.51192 96.9738,3.17859 102.5,3.5C 103.209,4.40397 104.209,4.73731 105.5,4.5C 105.649,5.55198 105.483,6.55198 105,7.5C 103.217,10.9075 100.384,12.7408 96.5,13C 94.9632,14.1096 94.2965,15.6096 94.5,17.5C 93.5,17.5 92.5,17.5 91.5,17.5C 90.9992,20.1779 89.4992,22.1779 87,23.5C 86.586,23.0426 86.086,22.7093 85.5,22.5C 84.8333,23.8333 84.1667,25.1667 83.5,26.5C 82.8333,26.1667 82.1667,25.8333 81.5,25.5C 80.3044,25.8457 80.3044,26.3457 81.5,27C 80.552,27.4828 79.552,27.6495 78.5,27.5C 77.318,29.8144 75.9847,32.1477 74.5,34.5C 73.1166,31.9244 72.2833,32.2577 72,35.5C 71.6667,35.1667 71.3333,34.8333 71,34.5C 67.0949,38.199 63.2615,41.8657 59.5,45.5C 54.8333,45.5 50.1667,45.5 45.5,45.5C 45.8333,48.1667 46.1667,50.8333 46.5,53.5C 45.748,55.1003 44.748,56.6003 43.5,58C 38.7154,61.9306 33.7154,65.7639 28.5,69.5C 28,70.5 27.5,71.5 27,72.5C 26.6667,72.1667 26.3333,71.8333 26,71.5C 25,72.8333 24,74.1667 23,75.5C 22.6667,74.8333 22.3333,74.1667 22,73.5C 21.6905,74.7659 21.1905,75.9326 20.5,77C 16.8247,78.5128 14.4914,80.6795 13.5,83.5C 12.2713,84.2811 10.938,84.7811 9.5,85C 10.1667,85.3333 10.8333,85.6667 11.5,86C 9.26001,86.977 6.92668,87.477 4.5,87.5C 4.57153,84.8067 4.90487,82.1401 5.5,79.5C 5.63985,77.9704 6.30652,76.9704 7.5,76.5C 8.23891,76.631 8.90558,76.4643 9.5,76C 8.16667,75 8.16667,74 9.5,73C 11.7654,71.8822 14.0987,71.0488 16.5,70.5C 16.1167,67.538 17.1167,66.538 19.5,67.5C 20.3857,66.675 20.719,65.675 20.5,64.5C 22.6984,63.9856 24.6984,62.9856 26.5,61.5C 30.0148,57.7641 33.5148,54.0974 37,50.5C 38.4177,53.001 39.4177,52.6677 40,49.5C 41.2051,48.9288 42.3717,48.2621 43.5,47.5C 42.9747,46.8076 42.3081,46.3076 41.5,46C 44.209,45.4592 46.209,43.9592 47.5,41.5C 48.1924,42.0253 48.6924,42.6919 49,43.5C 49.49,42.2068 49.6567,40.8734 49.5,39.5C 50.9778,39.762 52.3112,39.4287 53.5,38.5C 54.439,36.9466 55.6057,35.6133 57,34.5C 58.2349,35.6155 59.4016,35.6155 60.5,34.5C 63.256,29.0411 67.5894,25.2078 73.5,23C 73.1667,22.6667 72.8333,22.3333 72.5,22C 76.2874,20.2127 79.1208,17.3794 81,13.5C 81.3333,14.5 81.6667,15.5 82,16.5C 83.4381,15.0997 84.2714,13.433 84.5,11.5C 88.1824,9.55004 91.849,7.38337 95.5,5C 92.5184,4.50204 89.5184,4.33537 86.5,4.5 Z"/></g>
<g><path style="opacity:1" fill="#00abdb" d="M 102.5,3.5 C 108.509,3.70098 114.509,4.03431 120.5,4.5C 121.5,4.5 122.5,4.5 123.5,4.5C 124.635,5.47449 125.635,6.64116 126.5,8C 125.167,9.33333 125.167,10.6667 126.5,12C 119.459,15.3589 113.459,20.0256 108.5,26C 101.063,31.4546 93.7292,36.9546 86.5,42.5C 85.5,43.8333 84.5,45.1667 83.5,46.5C 81.7859,45.3915 81.1192,46.0582 81.5,48.5C 79.5,49.1667 77.5,49.8333 75.5,50.5C 75.762,51.9778 75.4287,53.3112 74.5,54.5C 73.914,54.2907 73.414,53.9574 73,53.5C 70.73,56.7754 67.5634,58.1087 63.5,57.5C 63.1543,54.1149 62.4877,50.7816 61.5,47.5C 61.2528,46.2867 60.5862,45.62 59.5,45.5C 63.2615,41.8657 67.0949,38.199 71,34.5C 71.3333,34.8333 71.6667,35.1667 72,35.5C 72.2833,32.2577 73.1166,31.9244 74.5,34.5C 75.9847,32.1477 77.318,29.8144 78.5,27.5C 79.552,27.6495 80.552,27.4828 81.5,27C 80.3044,26.3457 80.3044,25.8457 81.5,25.5C 82.1667,25.8333 82.8333,26.1667 83.5,26.5C 84.1667,25.1667 84.8333,23.8333 85.5,22.5C 86.086,22.7093 86.586,23.0426 87,23.5C 89.4992,22.1779 90.9992,20.1779 91.5,17.5C 92.5,17.5 93.5,17.5 94.5,17.5C 94.2965,15.6096 94.9632,14.1096 96.5,13C 100.384,12.7408 103.217,10.9075 105,7.5C 105.483,6.55198 105.649,5.55198 105.5,4.5C 104.209,4.73731 103.209,4.40397 102.5,3.5 Z"/></g>
<g><path style="opacity:0.945" fill="#06b8d3" d="M 72.5,4.5 C 74.5,4.5 76.5,4.5 78.5,4.5C 74.8088,6.48989 70.8088,7.82322 66.5,8.5C 68.1954,6.65628 70.1954,5.32294 72.5,4.5 Z"/></g>
<g><path style="opacity:1" fill="#00a2e2" d="M 78.5,4.5 C 81.1667,4.5 83.8333,4.5 86.5,4.5C 89.5184,4.33537 92.5184,4.50204 95.5,5C 91.849,7.38337 88.1824,9.55004 84.5,11.5C 84.2714,13.433 83.4381,15.0997 82,16.5C 81.6667,15.5 81.3333,14.5 81,13.5C 79.1208,17.3794 76.2874,20.2127 72.5,22C 72.8333,22.3333 73.1667,22.6667 73.5,23C 67.5894,25.2078 63.256,29.0411 60.5,34.5C 59.4016,35.6155 58.2349,35.6155 57,34.5C 55.6057,35.6133 54.439,36.9466 53.5,38.5C 52.3112,39.4287 50.9778,39.762 49.5,39.5C 49.6567,40.8734 49.49,42.2068 49,43.5C 48.6924,42.6919 48.1924,42.0253 47.5,41.5C 46.209,43.9592 44.209,45.4592 41.5,46C 42.3081,46.3076 42.9747,46.8076 43.5,47.5C 42.3717,48.2621 41.2051,48.9288 40,49.5C 39.4177,52.6677 38.4177,53.001 37,50.5C 33.5148,54.0974 30.0148,57.7641 26.5,61.5C 24.6984,62.9856 22.6984,63.9856 20.5,64.5C 20.719,65.675 20.3857,66.675 19.5,67.5C 17.1167,66.538 16.1167,67.538 16.5,70.5C 14.0987,71.0488 11.7654,71.8822 9.5,73C 8.16667,74 8.16667,75 9.5,76C 8.90558,76.4643 8.23891,76.631 7.5,76.5C 7.33788,74.4727 7.50454,72.4727 8,70.5C 10.9996,64.8276 13.1663,58.8276 14.5,52.5C 15.2167,49.7634 16.5501,47.4301 18.5,45.5C 19.2389,45.631 19.9056,45.4643 20.5,45C 26.8333,36 34.5,28.3333 43.5,22C 44.8228,21.1841 45.4894,20.0174 45.5,18.5C 48.1667,16.5 50.8333,14.5 53.5,12.5C 57.6835,10.8381 62.0168,9.50472 66.5,8.5C 70.8088,7.82322 74.8088,6.48989 78.5,4.5 Z"/></g>
<g><path style="opacity:0.098" fill="#07efaf" d="M 72.5,4.5 C 70.1954,5.32294 68.1954,6.65628 66.5,8.5C 62.0168,9.50472 57.6835,10.8381 53.5,12.5C 57.3043,9.71326 61.471,7.37992 66,5.5C 68.0989,4.71348 70.2655,4.38014 72.5,4.5 Z"/></g>
<g><path style="opacity:1" fill="#00b2d7" d="M 123.5,4.5 C 124.5,4.5 125.5,4.5 126.5,4.5C 129.808,7.06361 133.641,8.73028 138,9.5C 139.03,9.83611 139.53,10.5028 139.5,11.5C 140.736,13.0428 142.402,14.0428 144.5,14.5C 145.086,18.9242 143.086,21.9242 138.5,23.5C 137.749,24.376 137.249,25.376 137,26.5C 136.667,26.1667 136.333,25.8333 136,25.5C 133.944,26.5832 132.611,28.2499 132,30.5C 131.667,29.8333 131.333,29.1667 131,28.5C 130.51,29.7932 130.343,31.1266 130.5,32.5C 129.167,32.5 127.833,32.5 126.5,32.5C 126.649,33.552 126.483,34.552 126,35.5C 125.282,34.5494 124.449,34.3828 123.5,35C 122.5,36.6667 121.5,38.3333 120.5,40C 117.179,42.0466 113.845,44.2133 110.5,46.5C 109.416,47.6651 108.583,48.9984 108,50.5C 107.282,49.5494 106.449,49.3828 105.5,50C 100.703,54.461 95.8696,58.961 91,63.5C 90.6667,63.1667 90.3333,62.8333 90,62.5C 87.2912,67.1506 83.4579,70.3172 78.5,72C 76.2794,75.94 72.9461,78.1066 68.5,78.5C 67.9346,76.0479 67.2679,73.7146 66.5,71.5C 64.7389,67.0301 63.7389,62.3634 63.5,57.5C 67.5634,58.1087 70.73,56.7754 73,53.5C 73.414,53.9574 73.914,54.2907 74.5,54.5C 75.4287,53.3112 75.762,51.9778 75.5,50.5C 77.5,49.8333 79.5,49.1667 81.5,48.5C 81.1192,46.0582 81.7859,45.3915 83.5,46.5C 84.5,45.1667 85.5,43.8333 86.5,42.5C 93.7292,36.9546 101.063,31.4546 108.5,26C 113.459,20.0256 119.459,15.3589 126.5,12C 125.167,10.6667 125.167,9.33333 126.5,8C 125.635,6.64116 124.635,5.47449 123.5,4.5 Z"/></g>
<g><path style="opacity:0.051" fill="#07f2b3" d="M 126.5,4.5 C 128.199,4.33982 129.866,4.50649 131.5,5C 134.734,7.07945 138.234,8.57945 142,9.5C 149.611,12.7498 156.445,16.9164 162.5,22C 169.085,28.2479 175.252,34.7479 181,41.5C 183.88,44.9543 185.714,48.9543 186.5,53.5C 185.246,51.4622 183.579,49.7956 181.5,48.5C 177.04,39.3654 170.707,31.6988 162.5,25.5C 162.586,24.5041 162.252,23.6708 161.5,23C 156.772,19.6376 151.772,16.8042 146.5,14.5C 144.491,12.9348 142.157,11.9348 139.5,11.5C 139.53,10.5028 139.03,9.83611 138,9.5C 133.641,8.73028 129.808,7.06361 126.5,4.5 Z"/></g>
<g><path style="opacity:1" fill="#00b8d2" d="M 139.5,11.5 C 142.157,11.9348 144.491,12.9348 146.5,14.5C 151.423,18.6465 156.423,22.8132 161.5,27C 159.782,27.346 158.115,27.846 156.5,28.5C 155.234,30.7098 153.734,32.7098 152,34.5C 150.189,35.0779 148.355,35.5779 146.5,36C 144.308,40.0229 141.308,43.1896 137.5,45.5C 136.022,46.4475 135.022,47.7809 134.5,49.5C 133.284,49.2642 132.117,49.2642 131,49.5C 130.51,50.7932 130.343,52.1266 130.5,53.5C 128.549,53.2267 127.049,53.8934 126,55.5C 125.282,54.5494 124.449,54.3828 123.5,55C 121.989,60.0573 118.655,62.8906 113.5,63.5C 111.624,66.057 109.791,68.7237 108,71.5C 107.282,70.5494 106.449,70.3828 105.5,71C 101.624,73.5725 98.291,76.7392 95.5,80.5C 94.2638,81.2458 92.9305,81.5792 91.5,81.5C 91.5875,84.5983 91.0875,84.9316 90,82.5C 88.6401,85.7702 86.1401,87.4369 82.5,87.5C 82.6495,88.552 82.4828,89.552 82,90.5C 78.6739,92.994 75.5073,95.6607 72.5,98.5C 72.4349,95.5718 71.7682,92.9052 70.5,90.5C 69.4746,86.5726 68.8079,82.5726 68.5,78.5C 72.9461,78.1066 76.2794,75.94 78.5,72C 83.4579,70.3172 87.2912,67.1506 90,62.5C 90.3333,62.8333 90.6667,63.1667 91,63.5C 95.8696,58.961 100.703,54.461 105.5,50C 106.449,49.3828 107.282,49.5494 108,50.5C 108.583,48.9984 109.416,47.6651 110.5,46.5C 113.845,44.2133 117.179,42.0466 120.5,40C 121.5,38.3333 122.5,36.6667 123.5,35C 124.449,34.3828 125.282,34.5494 126,35.5C 126.483,34.552 126.649,33.552 126.5,32.5C 127.833,32.5 129.167,32.5 130.5,32.5C 130.343,31.1266 130.51,29.7932 131,28.5C 131.333,29.1667 131.667,29.8333 132,30.5C 132.611,28.2499 133.944,26.5832 136,25.5C 136.333,25.8333 136.667,26.1667 137,26.5C 137.249,25.376 137.749,24.376 138.5,23.5C 143.086,21.9242 145.086,18.9242 144.5,14.5C 142.402,14.0428 140.736,13.0428 139.5,11.5 Z"/></g>
<g><path style="opacity:0.192" fill="#08f1b4" d="M 53.5,12.5 C 50.8333,14.5 48.1667,16.5 45.5,18.5C 43.0179,20.2433 40.3512,21.7433 37.5,23C 33.3333,28.5 28.5,33.3333 23,37.5C 21.7433,40.3512 20.2433,43.0179 18.5,45.5C 16.5501,47.4301 15.2167,49.7634 14.5,52.5C 13.8333,52.8333 13.1667,53.1667 12.5,53.5C 13.2864,48.9543 15.1197,44.9543 18,41.5C 21.2583,37.4004 24.7583,33.4004 28.5,29.5C 32.7455,25.4366 37.0788,21.6033 41.5,18C 44.9543,15.1197 48.9543,13.2864 53.5,12.5 Z"/></g>
<g><path style="opacity:0.996" fill="#04b0d8" d="M 45.5,18.5 C 45.4894,20.0174 44.8228,21.1841 43.5,22C 34.5,28.3333 26.8333,36 20.5,45C 19.9056,45.4643 19.2389,45.631 18.5,45.5C 20.2433,43.0179 21.7433,40.3512 23,37.5C 28.5,33.3333 33.3333,28.5 37.5,23C 40.3512,21.7433 43.0179,20.2433 45.5,18.5 Z"/></g>
<g><path style="opacity:1" fill="#00bdcd" d="M 146.5,14.5 C 151.772,16.8042 156.772,19.6376 161.5,23C 162.252,23.6708 162.586,24.5041 162.5,25.5C 164.625,29.3429 167.458,32.6762 171,35.5C 171.49,36.7932 171.657,38.1266 171.5,39.5C 169.042,39.2275 167.375,40.2275 166.5,42.5C 164.275,43.8935 161.942,45.0602 159.5,46C 160.308,46.3076 160.975,46.8076 161.5,47.5C 159.5,48.3333 157.5,49.1667 155.5,50C 154.324,52.9758 152.658,55.4758 150.5,57.5C 152.071,53.6765 153.071,49.6765 153.5,45.5C 148.167,45.5 142.833,45.5 137.5,45.5C 141.308,43.1896 144.308,40.0229 146.5,36C 148.355,35.5779 150.189,35.0779 152,34.5C 153.734,32.7098 155.234,30.7098 156.5,28.5C 158.115,27.846 159.782,27.346 161.5,27C 156.423,22.8132 151.423,18.6465 146.5,14.5 Z"/></g>
<g><path style="opacity:1" fill="#00c3c9" d="M 162.5,25.5 C 170.707,31.6988 177.04,39.3654 181.5,48.5C 178.788,52.4792 175.955,55.8125 173,58.5C 172.667,58.1667 172.333,57.8333 172,57.5C 170.89,59.0368 169.39,59.7035 167.5,59.5C 167.67,60.8221 167.337,61.9887 166.5,63C 163.987,64.0389 161.653,65.3722 159.5,67C 160.167,67.3333 160.833,67.6667 161.5,68C 157.264,69.1948 154.098,71.6948 152,75.5C 150.2,76.3195 148.366,76.9862 146.5,77.5C 147.907,72.6037 148.907,67.6037 149.5,62.5C 150.301,60.9582 150.634,59.2915 150.5,57.5C 152.658,55.4758 154.324,52.9758 155.5,50C 157.5,49.1667 159.5,48.3333 161.5,47.5C 160.975,46.8076 160.308,46.3076 159.5,46C 161.942,45.0602 164.275,43.8935 166.5,42.5C 167.375,40.2275 169.042,39.2275 171.5,39.5C 171.657,38.1266 171.49,36.7932 171,35.5C 167.458,32.6762 164.625,29.3429 162.5,25.5 Z"/></g>
<g><path style="opacity:1" fill="#00373a" d="M 137.5,45.5 C 142.833,45.5 148.167,45.5 153.5,45.5C 153.071,49.6765 152.071,53.6765 150.5,57.5C 150.634,59.2915 150.301,60.9582 149.5,62.5C 147.292,63.023 145.792,64.3563 145,66.5C 144.667,65.8333 144.333,65.1667 144,64.5C 142.299,66.4101 140.133,67.5768 137.5,68C 138.308,68.3076 138.975,68.8076 139.5,69.5C 135.152,69.8172 132.152,71.8172 130.5,75.5C 130.5,74.8333 130.5,74.1667 130.5,73.5C 131.709,65.4592 133.042,57.4592 134.5,49.5C 135.022,47.7809 136.022,46.4475 137.5,45.5 Z"/></g>
<g><path style="opacity:1" fill="#00bbcc" d="M 134.5,49.5 C 133.042,57.4592 131.709,65.4592 130.5,73.5C 129.504,73.5858 128.671,73.2524 128,72.5C 126.98,73.8905 126.147,75.3905 125.5,77C 124.551,77.6172 123.718,77.4506 123,76.5C 121.98,77.8905 121.147,79.3905 120.5,81C 115.78,83.6466 111.446,86.8132 107.5,90.5C 105.731,88.6125 104.398,86.2792 103.5,83.5C 100.572,82.5159 97.5719,82.1826 94.5,82.5C 91.9394,92.439 88.9394,102.106 85.5,111.5C 85.5,110.5 85.5,109.5 85.5,108.5C 84.5,108.5 83.5,108.5 82.5,108.5C 82.6495,109.552 82.4828,110.552 82,111.5C 79.9817,112.223 78.1484,113.223 76.5,114.5C 74.2038,109.421 72.8705,104.088 72.5,98.5C 75.5073,95.6607 78.6739,92.994 82,90.5C 82.4828,89.552 82.6495,88.552 82.5,87.5C 86.1401,87.4369 88.6401,85.7702 90,82.5C 91.0875,84.9316 91.5875,84.5983 91.5,81.5C 92.9305,81.5792 94.2638,81.2458 95.5,80.5C 98.291,76.7392 101.624,73.5725 105.5,71C 106.449,70.3828 107.282,70.5494 108,71.5C 109.791,68.7237 111.624,66.057 113.5,63.5C 118.655,62.8906 121.989,60.0573 123.5,55C 124.449,54.3828 125.282,54.5494 126,55.5C 127.049,53.8934 128.549,53.2267 130.5,53.5C 130.343,52.1266 130.51,50.7932 131,49.5C 132.117,49.2642 133.284,49.2642 134.5,49.5 Z"/></g>
<g><path style="opacity:1" fill="#00cac4" d="M 181.5,48.5 C 183.579,49.7956 185.246,51.4622 186.5,53.5C 186.517,55.5648 186.85,57.5648 187.5,59.5C 187.229,61.8211 187.896,63.8211 189.5,65.5C 187.737,68.0196 185.737,70.3529 183.5,72.5C 179.784,74.0376 176.451,76.0376 173.5,78.5C 172.956,80.5795 172.122,82.5795 171,84.5C 170.692,83.6919 170.192,83.0253 169.5,82.5C 167.878,83.9328 166.545,85.5995 165.5,87.5C 163.162,85.9893 162.496,86.3227 163.5,88.5C 160.734,90.4475 158.401,92.7808 156.5,95.5C 155.914,95.2907 155.414,94.9574 155,94.5C 153.333,95.7859 151.499,97.6192 149.5,100C 148.552,100.483 147.552,100.649 146.5,100.5C 146.649,101.552 146.483,102.552 146,103.5C 143.833,104.488 142,105.821 140.5,107.5C 140.963,104.518 141.296,101.518 141.5,98.5C 142.748,97.6661 143.415,96.3328 143.5,94.5C 144.381,88.7673 145.381,83.1006 146.5,77.5C 148.366,76.9862 150.2,76.3195 152,75.5C 154.098,71.6948 157.264,69.1948 161.5,68C 160.833,67.6667 160.167,67.3333 159.5,67C 161.653,65.3722 163.987,64.0389 166.5,63C 167.337,61.9887 167.67,60.8221 167.5,59.5C 169.39,59.7035 170.89,59.0368 172,57.5C 172.333,57.8333 172.667,58.1667 173,58.5C 175.955,55.8125 178.788,52.4792 181.5,48.5 Z"/></g>
<g><path style="opacity:1" fill="#00abdb" d="M 46.5,53.5 C 47.7479,54.3339 48.4146,55.6672 48.5,57.5C 48.9657,60.4922 49.2991,63.4922 49.5,66.5C 49.5,68.8333 49.5,71.1667 49.5,73.5C 46.2819,73.6509 45.9485,74.4842 48.5,76C 44.6817,76.7445 41.6817,78.7445 39.5,82C 38.552,82.4828 37.552,82.6495 36.5,82.5C 36.6495,83.552 36.4828,84.552 36,85.5C 35.6667,85.1667 35.3333,84.8333 35,84.5C 34.2904,85.9733 33.1238,86.6399 31.5,86.5C 31.5,87.5 31.5,88.5 31.5,89.5C 28.6118,89.2196 27.1118,90.5529 27,93.5C 25.9125,91.0684 25.4125,91.4017 25.5,94.5C 24.448,94.3505 23.448,94.5172 22.5,95C 18.4718,99.0128 13.8052,102.013 8.5,104C 7.66337,105.011 7.33003,106.178 7.5,107.5C 6.5,107.5 5.5,107.5 4.5,107.5C 3.31655,100.807 3.31655,94.1407 4.5,87.5C 6.92668,87.477 9.26001,86.977 11.5,86C 10.8333,85.6667 10.1667,85.3333 9.5,85C 10.938,84.7811 12.2713,84.2811 13.5,83.5C 14.4914,80.6795 16.8247,78.5128 20.5,77C 21.1905,75.9326 21.6905,74.7659 22,73.5C 22.3333,74.1667 22.6667,74.8333 23,75.5C 24,74.1667 25,72.8333 26,71.5C 26.3333,71.8333 26.6667,72.1667 27,72.5C 27.5,71.5 28,70.5 28.5,69.5C 33.7154,65.7639 38.7154,61.9306 43.5,58C 44.748,56.6003 45.748,55.1003 46.5,53.5 Z"/></g>
<g><path style="opacity:0.141" fill="#06f0af" d="M 12.5,53.5 C 12.6567,54.8734 12.49,56.2068 12,57.5C 9.64381,62.6696 7.14381,67.6696 4.5,72.5C 4.38014,70.2655 4.71348,68.0989 5.5,66C 7.37992,61.471 9.71326,57.3043 12.5,53.5 Z"/></g>
<g><path style="opacity:0.141" fill="#01f4ae" d="M 186.5,53.5 C 189.287,57.3043 191.62,61.471 193.5,66C 194.489,69.4468 195.156,72.9468 195.5,76.5C 195.5,77.1667 195.167,77.5 194.5,77.5C 194.41,75.3037 194.077,73.137 193.5,71C 191.412,67.9982 190.079,64.6649 189.5,61C 189.164,59.9701 188.497,59.4701 187.5,59.5C 186.85,57.5648 186.517,55.5648 186.5,53.5 Z"/></g>
<g><path style="opacity:1" fill="#004d4a" d="M 59.5,45.5 C 60.5862,45.62 61.2528,46.2867 61.5,47.5C 62.4877,50.7816 63.1543,54.1149 63.5,57.5C 63.7389,62.3634 64.7389,67.0301 66.5,71.5C 62.1591,72.8398 58.1591,74.8398 54.5,77.5C 53.6143,78.325 53.281,79.325 53.5,80.5C 52.4796,75.7531 51.1463,71.0864 49.5,66.5C 49.2991,63.4922 48.9657,60.4922 48.5,57.5C 48.4146,55.6672 47.7479,54.3339 46.5,53.5C 46.1667,50.8333 45.8333,48.1667 45.5,45.5C 50.1667,45.5 54.8333,45.5 59.5,45.5 Z"/></g>
<g><path style="opacity:1" fill="#00b1d6" d="M 14.5,52.5 C 13.1663,58.8276 10.9996,64.8276 8,70.5C 7.50454,72.4727 7.33788,74.4727 7.5,76.5C 6.30652,76.9704 5.63985,77.9704 5.5,79.5C 4.90487,82.1401 4.57153,84.8067 4.5,87.5C 3.31655,94.1407 3.31655,100.807 4.5,107.5C 5.5,107.5 6.5,107.5 7.5,107.5C 7.33003,106.178 7.66337,105.011 8.5,104C 13.8052,102.013 18.4718,99.0128 22.5,95C 23.448,94.5172 24.448,94.3505 25.5,94.5C 25.4125,91.4017 25.9125,91.0684 27,93.5C 27.1118,90.5529 28.6118,89.2196 31.5,89.5C 31.5,88.5 31.5,87.5 31.5,86.5C 33.1238,86.6399 34.2904,85.9733 35,84.5C 35.3333,84.8333 35.6667,85.1667 36,85.5C 36.4828,84.552 36.6495,83.552 36.5,82.5C 37.552,82.6495 38.552,82.4828 39.5,82C 41.6817,78.7445 44.6817,76.7445 48.5,76C 45.9485,74.4842 46.2819,73.6509 49.5,73.5C 49.5,71.1667 49.5,68.8333 49.5,66.5C 51.1463,71.0864 52.4796,75.7531 53.5,80.5C 54.1266,85.1408 54.4599,89.8075 54.5,94.5C 50.926,93.9079 48.926,95.4079 48.5,99C 46.1609,100.343 43.8276,101.676 41.5,103C 42.1667,103.333 42.8333,103.667 43.5,104C 41.3072,103.43 39.3072,103.764 37.5,105C 39.6447,105.743 39.8114,106.576 38,107.5C 37.0546,107.095 36.3879,106.428 36,105.5C 35.4569,107.631 34.6236,109.631 33.5,111.5C 31.0795,111.522 28.7461,112.522 26.5,114.5C 25.2888,115.274 25.2888,116.107 26.5,117C 23.2958,117.263 21.2958,118.93 20.5,122C 17.8907,123.023 15.5574,124.523 13.5,126.5C 12.1468,127.524 11.4802,128.857 11.5,130.5C 10.5,130.5 9.5,130.5 8.5,130.5C 7.98572,125.608 6.31905,121.275 3.5,117.5C 2.0488,102.465 2.38213,87.4651 4.5,72.5C 7.14381,67.6696 9.64381,62.6696 12,57.5C 12.49,56.2068 12.6567,54.8734 12.5,53.5C 13.1667,53.1667 13.8333,52.8333 14.5,52.5 Z"/></g>
<g><path style="opacity:1" fill="#00c2c8" d="M 130.5,73.5 C 130.5,74.1667 130.5,74.8333 130.5,75.5C 127.986,84.6178 126.653,93.9512 126.5,103.5C 126.167,103.5 125.833,103.5 125.5,103.5C 126.032,93.9856 124.366,93.3189 120.5,101.5C 118.344,103.009 116.01,104.009 113.5,104.5C 113.567,105.959 113.234,107.292 112.5,108.5C 109.612,102.959 107.945,96.9595 107.5,90.5C 111.446,86.8132 115.78,83.6466 120.5,81C 121.147,79.3905 121.98,77.8905 123,76.5C 123.718,77.4506 124.551,77.6172 125.5,77C 126.147,75.3905 126.98,73.8905 128,72.5C 128.671,73.2524 129.504,73.5858 130.5,73.5 Z"/></g>
<g><path style="opacity:1" fill="#00d0c0" d="M 187.5,59.5 C 188.497,59.4701 189.164,59.9701 189.5,61C 190.079,64.6649 191.412,67.9982 193.5,71C 194.077,73.137 194.41,75.3037 194.5,77.5C 194.5,79.8333 194.5,82.1667 194.5,84.5C 192.592,84.8834 191.092,85.8834 190,87.5C 189.586,87.0426 189.086,86.7093 188.5,86.5C 186.518,90.9921 183.185,93.8255 178.5,95C 175.82,99.3726 172.153,102.539 167.5,104.5C 166.833,105.833 166.167,107.167 165.5,108.5C 164.549,107.674 163.549,107.508 162.5,108C 162.833,108.333 163.167,108.667 163.5,109C 162.027,109.71 161.36,110.876 161.5,112.5C 158.671,112.325 157.004,113.658 156.5,116.5C 155.117,113.924 154.283,114.258 154,117.5C 153.667,117.167 153.333,116.833 153,116.5C 148.39,121.377 143.556,126.044 138.5,130.5C 137.808,129.975 137.308,129.308 137,128.5C 136.59,129.901 136.09,131.234 135.5,132.5C 131.14,131.993 126.807,131.327 122.5,130.5C 121.833,132.167 121.167,133.833 120.5,135.5C 120.116,133.071 119.449,130.737 118.5,128.5C 118.082,127.778 117.416,127.278 116.5,127C 119.024,123.572 122.357,121.406 126.5,120.5C 130.154,120.942 133.821,121.276 137.5,121.5C 138.586,116.862 139.586,112.195 140.5,107.5C 142,105.821 143.833,104.488 146,103.5C 146.483,102.552 146.649,101.552 146.5,100.5C 147.552,100.649 148.552,100.483 149.5,100C 151.499,97.6192 153.333,95.7859 155,94.5C 155.414,94.9574 155.914,95.2907 156.5,95.5C 158.401,92.7808 160.734,90.4475 163.5,88.5C 162.496,86.3227 163.162,85.9893 165.5,87.5C 166.545,85.5995 167.878,83.9328 169.5,82.5C 170.192,83.0253 170.692,83.6919 171,84.5C 172.122,82.5795 172.956,80.5795 173.5,78.5C 176.451,76.0376 179.784,74.0376 183.5,72.5C 185.737,70.3529 187.737,68.0196 189.5,65.5C 187.896,63.8211 187.229,61.8211 187.5,59.5 Z"/></g>
<g><path style="opacity:1" fill="#00252c" d="M 149.5,62.5 C 148.907,67.6037 147.907,72.6037 146.5,77.5C 145.381,83.1006 144.381,88.7673 143.5,94.5C 143.415,96.3328 142.748,97.6661 141.5,98.5C 141.649,97.448 141.483,96.448 141,95.5C 136.129,98.2741 131.296,100.941 126.5,103.5C 126.653,93.9512 127.986,84.6178 130.5,75.5C 132.152,71.8172 135.152,69.8172 139.5,69.5C 138.975,68.8076 138.308,68.3076 137.5,68C 140.133,67.5768 142.299,66.4101 144,64.5C 144.333,65.1667 144.667,65.8333 145,66.5C 145.792,64.3563 147.292,63.023 149.5,62.5 Z"/></g>
<g><path style="opacity:1" fill="#003f3f" d="M 66.5,71.5 C 67.2679,73.7146 67.9346,76.0479 68.5,78.5C 68.8079,82.5726 69.4746,86.5726 70.5,90.5C 67.0778,90.5279 64.4112,91.8613 62.5,94.5C 61.2713,95.2811 59.938,95.7811 58.5,96C 57.7476,96.6708 57.4142,97.5041 57.5,98.5C 56.0221,97.5525 55.0221,96.2191 54.5,94.5C 54.4599,89.8075 54.1266,85.1408 53.5,80.5C 53.281,79.325 53.6143,78.325 54.5,77.5C 58.1591,74.8398 62.1591,72.8398 66.5,71.5 Z"/></g>
<g><path style="opacity:1" fill="#00d6bd" d="M 194.5,84.5 C 195.579,90.4492 195.746,96.4492 195,102.5C 194.411,104.863 192.911,105.863 190.5,105.5C 190.881,107.942 190.214,108.609 188.5,107.5C 187.21,109.792 185.543,111.792 183.5,113.5C 182.914,113.291 182.414,112.957 182,112.5C 176.684,119.149 170.184,124.316 162.5,128C 162.957,128.414 163.291,128.914 163.5,129.5C 162.088,130.806 160.421,131.64 158.5,132C 157.663,133.011 157.33,134.178 157.5,135.5C 154.412,135.197 152.746,136.53 152.5,139.5C 150.167,140.167 147.833,140.833 145.5,141.5C 145.883,144.462 144.883,145.462 142.5,144.5C 141.376,145.914 140.376,147.414 139.5,149C 138.552,149.483 137.552,149.649 136.5,149.5C 136.5,150.5 136.5,151.5 136.5,152.5C 134.833,152.5 133.167,152.5 131.5,152.5C 132.004,145.658 133.338,138.991 135.5,132.5C 136.09,131.234 136.59,129.901 137,128.5C 137.308,129.308 137.808,129.975 138.5,130.5C 143.556,126.044 148.39,121.377 153,116.5C 153.333,116.833 153.667,117.167 154,117.5C 154.283,114.258 155.117,113.924 156.5,116.5C 157.004,113.658 158.671,112.325 161.5,112.5C 161.36,110.876 162.027,109.71 163.5,109C 163.167,108.667 162.833,108.333 162.5,108C 163.549,107.508 164.549,107.674 165.5,108.5C 166.167,107.167 166.833,105.833 167.5,104.5C 172.153,102.539 175.82,99.3726 178.5,95C 183.185,93.8255 186.518,90.9921 188.5,86.5C 189.086,86.7093 189.586,87.0426 190,87.5C 191.092,85.8834 192.592,84.8834 194.5,84.5 Z"/></g>
<g><path style="opacity:1" fill="#002b30" d="M 107.5,90.5 C 107.945,96.9595 109.612,102.959 112.5,108.5C 112.286,110.144 112.62,111.644 113.5,113C 111.866,113.494 110.199,113.66 108.5,113.5C 106.052,112.527 103.385,112.194 100.5,112.5C 99.4546,100.871 98.1213,100.871 96.5,112.5C 93.4486,112.364 90.4486,112.698 87.5,113.5C 86.2867,113.253 85.62,112.586 85.5,111.5C 88.9394,102.106 91.9394,92.439 94.5,82.5C 97.5719,82.1826 100.572,82.5159 103.5,83.5C 104.398,86.2792 105.731,88.6125 107.5,90.5 Z"/></g>
<g><path style="opacity:0.175" fill="#00f6ab" d="M 196.5,78.5 C 199.167,92.5 199.167,106.5 196.5,120.5C 195.502,116.994 195.502,113.328 196.5,109.5C 196.29,98.975 196.29,88.6417 196.5,78.5 Z"/></g>
<g><path style="opacity:0.185" fill="#01f5ac" d="M 4.5,72.5 C 2.38213,87.4651 2.0488,102.465 3.5,117.5C 3.96286,120.482 4.29619,123.482 4.5,126.5C -0.833333,108.5 -0.833333,90.5 4.5,72.5 Z"/></g>
<g><path style="opacity:1" fill="#011b24" d="M 141.5,98.5 C 141.296,101.518 140.963,104.518 140.5,107.5C 139.586,112.195 138.586,116.862 137.5,121.5C 133.821,121.276 130.154,120.942 126.5,120.5C 126.179,118.952 125.179,118.285 123.5,118.5C 123.5,116.5 123.5,114.5 123.5,112.5C 125.256,111.448 125.923,109.781 125.5,107.5C 125.5,106.167 125.5,104.833 125.5,103.5C 125.833,103.5 126.167,103.5 126.5,103.5C 131.296,100.941 136.129,98.2741 141,95.5C 141.483,96.448 141.649,97.448 141.5,98.5 Z"/></g>
<g><path style="opacity:1" fill="#00b7d2" d="M 54.5,94.5 C 55.0221,96.2191 56.0221,97.5525 57.5,98.5C 57.7244,102.179 58.0578,105.846 58.5,109.5C 55.2819,109.651 54.9485,110.484 57.5,112C 54.3069,113.289 51.3069,114.956 48.5,117C 49.3363,118.243 49.003,119.41 47.5,120.5C 46.8076,119.975 46.3076,119.308 46,118.5C 45.8882,121.447 44.3882,122.78 41.5,122.5C 41.5875,125.598 41.0875,125.932 40,123.5C 39.5,124.667 38.6667,125.5 37.5,126C 38.1667,126.333 38.8333,126.667 39.5,127C 38.2161,127.684 37.0495,127.517 36,126.5C 35.0589,128.772 33.7255,130.772 32,132.5C 31.6667,131.833 31.3333,131.167 31,130.5C 27.4419,133.95 24.1086,137.616 21,141.5C 20,140.167 19,140.167 18,141.5C 17.5899,142.901 17.0899,144.234 16.5,145.5C 15.6236,145.631 14.9569,145.298 14.5,144.5C 13.0156,139.54 11.0156,134.873 8.5,130.5C 9.5,130.5 10.5,130.5 11.5,130.5C 11.4802,128.857 12.1468,127.524 13.5,126.5C 15.5574,124.523 17.8907,123.023 20.5,122C 21.2958,118.93 23.2958,117.263 26.5,117C 25.2888,116.107 25.2888,115.274 26.5,114.5C 28.7461,112.522 31.0795,111.522 33.5,111.5C 34.6236,109.631 35.4569,107.631 36,105.5C 36.3879,106.428 37.0546,107.095 38,107.5C 39.8114,106.576 39.6447,105.743 37.5,105C 39.3072,103.764 41.3072,103.43 43.5,104C 42.8333,103.667 42.1667,103.333 41.5,103C 43.8276,101.676 46.1609,100.343 48.5,99C 48.926,95.4079 50.926,93.9079 54.5,94.5 Z"/></g>
<g><path style="opacity:1" fill="#003236" d="M 70.5,90.5 C 71.7682,92.9052 72.4349,95.5718 72.5,98.5C 72.8705,104.088 74.2038,109.421 76.5,114.5C 76.6495,115.552 76.4828,116.552 76,117.5C 73.901,118.131 72.0677,119.131 70.5,120.5C 67.128,121.449 63.7947,121.449 60.5,120.5C 59.5881,116.867 58.9215,113.2 58.5,109.5C 58.0578,105.846 57.7244,102.179 57.5,98.5C 57.4142,97.5041 57.7476,96.6708 58.5,96C 59.938,95.7811 61.2713,95.2811 62.5,94.5C 64.4112,91.8613 67.0778,90.5279 70.5,90.5 Z"/></g>
<g><path style="opacity:1" fill="#00ddb9" d="M 195.5,76.5 C 196.338,76.8417 196.672,77.5084 196.5,78.5C 196.29,88.6417 196.29,98.975 196.5,109.5C 194.864,115.114 193.031,120.781 191,126.5C 189.989,127.337 188.822,127.67 187.5,127.5C 187.649,128.552 187.483,129.552 187,130.5C 182.566,132.934 178.732,136.101 175.5,140C 174.167,140.333 172.833,140.667 171.5,141C 170.167,142 170.167,143 171.5,144C 168.102,144.288 166.102,146.121 165.5,149.5C 164.549,148.674 163.549,148.508 162.5,149C 162.833,149.333 163.167,149.667 163.5,150C 160.337,152.416 157.004,154.582 153.5,156.5C 151.119,160.481 148.119,163.815 144.5,166.5C 142.936,163.864 141.603,164.031 140.5,167C 140.833,167.333 141.167,167.667 141.5,168C 138.184,168.455 136.018,170.288 135,173.5C 132.342,172.306 131.176,173.306 131.5,176.5C 130.127,176.343 128.793,176.51 127.5,177C 127.833,177.333 128.167,177.667 128.5,178C 124.672,180.843 121.172,184.009 118,187.5C 117.667,187.167 117.333,186.833 117,186.5C 116.517,187.448 116.351,188.448 116.5,189.5C 113.193,191.859 109.526,193.692 105.5,195C 98.8417,195.5 92.175,195.666 85.5,195.5C 82.9407,195.198 80.6074,195.532 78.5,196.5C 77.5084,196.672 76.8417,196.338 76.5,195.5C 74.1661,194.513 71.4994,193.18 68.5,191.5C 74.0725,192.221 79.5725,193.221 85,194.5C 85.1118,191.553 86.6118,190.22 89.5,190.5C 89.2196,187.612 90.5529,186.112 93.5,186C 94.7433,184.846 95.7433,183.512 96.5,182C 100.615,180.616 104.282,178.783 107.5,176.5C 107.33,175.178 107.663,174.011 108.5,173C 113.547,168.957 118.88,165.124 124.5,161.5C 125.364,159.803 126.697,158.637 128.5,158C 128.043,157.586 127.709,157.086 127.5,156.5C 129.332,155.943 130.665,154.943 131.5,153.5C 131.5,153.167 131.5,152.833 131.5,152.5C 133.167,152.5 134.833,152.5 136.5,152.5C 136.5,151.5 136.5,150.5 136.5,149.5C 137.552,149.649 138.552,149.483 139.5,149C 140.376,147.414 141.376,145.914 142.5,144.5C 144.883,145.462 145.883,144.462 145.5,141.5C 147.833,140.833 150.167,140.167 152.5,139.5C 152.746,136.53 154.412,135.197 157.5,135.5C 157.33,134.178 157.663,133.011 158.5,132C 160.421,131.64 162.088,130.806 163.5,129.5C 163.291,128.914 162.957,128.414 162.5,128C 170.184,124.316 176.684,119.149 182,112.5C 182.414,112.957 182.914,113.291 183.5,113.5C 185.543,111.792 187.21,109.792 188.5,107.5C 190.214,108.609 190.881,107.942 190.5,105.5C 192.911,105.863 194.411,104.863 195,102.5C 195.746,96.4492 195.579,90.4492 194.5,84.5C 194.5,82.1667 194.5,79.8333 194.5,77.5C 195.167,77.5 195.5,77.1667 195.5,76.5 Z"/></g>
<g><path style="opacity:1" fill="#00c7c3" d="M 125.5,103.5 C 125.5,104.833 125.5,106.167 125.5,107.5C 123.744,108.552 123.077,110.219 123.5,112.5C 123.5,114.5 123.5,116.5 123.5,118.5C 125.179,118.285 126.179,118.952 126.5,120.5C 122.357,121.406 119.024,123.572 116.5,127C 117.416,127.278 118.082,127.778 118.5,128.5C 114.19,127.92 109.857,127.586 105.5,127.5C 106.77,130.382 107.77,133.382 108.5,136.5C 106.929,135.803 105.429,135.47 104,135.5C 102.29,139.117 99.4565,141.45 95.5,142.5C 96.6405,143.425 96.6405,144.259 95.5,145C 94.1667,145.333 92.8333,145.667 91.5,146C 92.3081,146.308 92.9747,146.808 93.5,147.5C 91.3921,148.944 89.0588,149.61 86.5,149.5C 86.7148,151.179 86.0481,152.179 84.5,152.5C 86.036,144.024 88.036,135.69 90.5,127.5C 89.1667,127.5 87.8333,127.5 86.5,127.5C 87.7311,126.282 88.8978,124.949 90,123.5C 91.0875,125.932 91.5875,125.598 91.5,122.5C 92.552,122.649 93.552,122.483 94.5,122C 96.8333,119.5 99.1667,117 101.5,114.5C 103.747,113.626 106.08,113.292 108.5,113.5C 110.199,113.66 111.866,113.494 113.5,113C 112.62,111.644 112.286,110.144 112.5,108.5C 113.234,107.292 113.567,105.959 113.5,104.5C 116.01,104.009 118.344,103.009 120.5,101.5C 124.366,93.3189 126.032,93.9856 125.5,103.5 Z"/></g>
<g><path style="opacity:1" fill="#00c2c7" d="M 108.5,113.5 C 106.08,113.292 103.747,113.626 101.5,114.5C 99.1667,117 96.8333,119.5 94.5,122C 93.552,122.483 92.552,122.649 91.5,122.5C 91.5875,125.598 91.0875,125.932 90,123.5C 88.8978,124.949 87.7311,126.282 86.5,127.5C 84.5328,127.261 82.6995,127.594 81,128.5C 79.5382,130.988 78.5382,133.655 78,136.5C 77.5045,134.527 77.3379,132.527 77.5,130.5C 72.7984,130.95 68.1317,131.617 63.5,132.5C 64.6544,139.539 65.9878,146.539 67.5,153.5C 65.7988,153.966 64.2988,153.966 63,153.5C 61.6547,157.397 59.1547,159.064 55.5,158.5C 54.7836,161.684 52.7836,163.184 49.5,163C 50.5,163.333 51.5,163.667 52.5,164C 50.9391,164.318 49.7724,165.151 49,166.5C 48.6924,165.692 48.1924,165.025 47.5,164.5C 46.1025,166.898 44.1025,168.565 41.5,169.5C 42.0253,170.192 42.6919,170.692 43.5,171C 41.8632,171.601 40.1966,172.101 38.5,172.5C 36.0641,170.384 33.3974,168.717 30.5,167.5C 28.2312,165.418 25.7312,163.418 23,161.5C 19.6501,156 16.1501,150.666 12.5,145.5C 11.6618,145.158 11.3284,144.492 11.5,143.5C 9.91273,137.433 7.5794,131.766 4.5,126.5C 4.29619,123.482 3.96286,120.482 3.5,117.5C 6.31905,121.275 7.98572,125.608 8.5,130.5C 11.0156,134.873 13.0156,139.54 14.5,144.5C 14.9569,145.298 15.6236,145.631 16.5,145.5C 17.5466,150.386 20.0466,154.386 24,157.5C 27.0402,155.793 29.3735,153.46 31,150.5C 31.3333,151.5 31.6667,152.5 32,153.5C 33.6278,151.347 34.9611,149.013 36,146.5C 36.3333,147.167 36.6667,147.833 37,148.5C 37.2835,146.114 38.2835,145.448 40,146.5C 41.487,145.747 41.6537,144.914 40.5,144C 43.4226,143.793 45.2559,142.293 46,139.5C 48.8333,140.667 49.6667,139.833 48.5,137C 51.6703,135.583 54.6703,133.916 57.5,132C 56.8333,131.667 56.1667,131.333 55.5,131C 57.6942,128.825 60.3608,127.492 63.5,127C 63.1667,126.667 62.8333,126.333 62.5,126C 63.938,125.781 65.2713,125.281 66.5,124.5C 67.3681,122.603 68.7014,121.27 70.5,120.5C 72.0677,119.131 73.901,118.131 76,117.5C 76.4828,116.552 76.6495,115.552 76.5,114.5C 78.1484,113.223 79.9817,112.223 82,111.5C 82.4828,110.552 82.6495,109.552 82.5,108.5C 83.5,108.5 84.5,108.5 85.5,108.5C 85.5,109.5 85.5,110.5 85.5,111.5C 85.62,112.586 86.2867,113.253 87.5,113.5C 90.4486,112.698 93.4486,112.364 96.5,112.5C 98.1213,100.871 99.4546,100.871 100.5,112.5C 103.385,112.194 106.052,112.527 108.5,113.5 Z"/></g>
<g><path style="opacity:1" fill="#00bdce" d="M 58.5,109.5 C 58.9215,113.2 59.5881,116.867 60.5,120.5C 63.7947,121.449 67.128,121.449 70.5,120.5C 68.7014,121.27 67.3681,122.603 66.5,124.5C 65.2713,125.281 63.938,125.781 62.5,126C 62.8333,126.333 63.1667,126.667 63.5,127C 60.3608,127.492 57.6942,128.825 55.5,131C 56.1667,131.333 56.8333,131.667 57.5,132C 54.6703,133.916 51.6703,135.583 48.5,137C 49.6667,139.833 48.8333,140.667 46,139.5C 45.2559,142.293 43.4226,143.793 40.5,144C 41.6537,144.914 41.487,145.747 40,146.5C 38.2835,145.448 37.2835,146.114 37,148.5C 36.6667,147.833 36.3333,147.167 36,146.5C 34.9611,149.013 33.6278,151.347 32,153.5C 31.6667,152.5 31.3333,151.5 31,150.5C 29.3735,153.46 27.0402,155.793 24,157.5C 20.0466,154.386 17.5466,150.386 16.5,145.5C 17.0899,144.234 17.5899,142.901 18,141.5C 19,140.167 20,140.167 21,141.5C 24.1086,137.616 27.4419,133.95 31,130.5C 31.3333,131.167 31.6667,131.833 32,132.5C 33.7255,130.772 35.0589,128.772 36,126.5C 37.0495,127.517 38.2161,127.684 39.5,127C 38.8333,126.667 38.1667,126.333 37.5,126C 38.6667,125.5 39.5,124.667 40,123.5C 41.0875,125.932 41.5875,125.598 41.5,122.5C 44.3882,122.78 45.8882,121.447 46,118.5C 46.3076,119.308 46.8076,119.975 47.5,120.5C 49.003,119.41 49.3363,118.243 48.5,117C 51.3069,114.956 54.3069,113.289 57.5,112C 54.9485,110.484 55.2819,109.651 58.5,109.5 Z"/></g>
<g><path style="opacity:1" fill="#006e71" d="M 125.5,107.5 C 125.923,109.781 125.256,111.448 123.5,112.5C 123.077,110.219 123.744,108.552 125.5,107.5 Z"/></g>
<g><path style="opacity:1" fill="#00e2b6" d="M 196.5,109.5 C 195.502,113.328 195.502,116.994 196.5,120.5C 196.672,121.492 196.338,122.158 195.5,122.5C 193.866,125.883 192.033,129.883 190,134.5C 186.956,135.803 185.789,138.136 186.5,141.5C 185.167,141.5 183.833,141.5 182.5,141.5C 182.931,144.522 181.931,146.855 179.5,148.5C 178.833,147.833 178.167,147.167 177.5,146.5C 177.317,148.844 176.317,151.177 174.5,153.5C 172.477,152.959 170.477,153.459 168.5,155C 169.308,155.308 169.975,155.808 170.5,156.5C 166.656,156.985 164.156,158.985 163,162.5C 162.667,161.5 162.333,160.5 162,159.5C 160.676,161.828 159.343,164.161 158,166.5C 157.174,164.595 156.007,164.261 154.5,165.5C 155.55,167.102 154.883,167.935 152.5,168C 153.601,170.292 152.768,171.792 150,172.5C 148.951,171.483 147.784,171.316 146.5,172C 147.167,172.333 147.833,172.667 148.5,173C 147.333,173.5 146.5,174.333 146,175.5C 145.667,174.833 145.333,174.167 145,173.5C 143.614,176.291 141.78,178.791 139.5,181C 137.213,180.042 135.547,180.876 134.5,183.5C 134.709,184.086 135.043,184.586 135.5,185C 132.099,184.734 130.433,186.234 130.5,189.5C 128.799,189.966 127.299,189.966 126,189.5C 125.1,190.77 123.934,191.77 122.5,192.5C 118.289,193.902 113.956,194.736 109.5,195C 108.944,195.383 108.611,195.883 108.5,196.5C 100.648,196.825 92.9818,196.492 85.5,195.5C 92.175,195.666 98.8417,195.5 105.5,195C 109.526,193.692 113.193,191.859 116.5,189.5C 116.351,188.448 116.517,187.448 117,186.5C 117.333,186.833 117.667,187.167 118,187.5C 121.172,184.009 124.672,180.843 128.5,178C 128.167,177.667 127.833,177.333 127.5,177C 128.793,176.51 130.127,176.343 131.5,176.5C 131.176,173.306 132.342,172.306 135,173.5C 136.018,170.288 138.184,168.455 141.5,168C 141.167,167.667 140.833,167.333 140.5,167C 141.603,164.031 142.936,163.864 144.5,166.5C 148.119,163.815 151.119,160.481 153.5,156.5C 157.004,154.582 160.337,152.416 163.5,150C 163.167,149.667 162.833,149.333 162.5,149C 163.549,148.508 164.549,148.674 165.5,149.5C 166.102,146.121 168.102,144.288 171.5,144C 170.167,143 170.167,142 171.5,141C 172.833,140.667 174.167,140.333 175.5,140C 178.732,136.101 182.566,132.934 187,130.5C 187.483,129.552 187.649,128.552 187.5,127.5C 188.822,127.67 189.989,127.337 191,126.5C 193.031,120.781 194.864,115.114 196.5,109.5 Z"/></g>
<g><path style="opacity:1" fill="#011c25" d="M 86.5,127.5 C 87.8333,127.5 89.1667,127.5 90.5,127.5C 88.036,135.69 86.036,144.024 84.5,152.5C 84.5,152.833 84.5,153.167 84.5,153.5C 78.8333,153.5 73.1667,153.5 67.5,153.5C 65.9878,146.539 64.6544,139.539 63.5,132.5C 68.1317,131.617 72.7984,130.95 77.5,130.5C 77.3379,132.527 77.5045,134.527 78,136.5C 78.5382,133.655 79.5382,130.988 81,128.5C 82.6995,127.594 84.5328,127.261 86.5,127.5 Z"/></g>
<g><path style="opacity:1" fill="#010e19" d="M 118.5,128.5 C 119.449,130.737 120.116,133.071 120.5,135.5C 120.783,136.289 121.283,136.956 122,137.5C 122.497,135.19 122.663,132.857 122.5,130.5C 126.807,131.327 131.14,131.993 135.5,132.5C 133.338,138.991 132.004,145.658 131.5,152.5C 131.5,152.833 131.5,153.167 131.5,153.5C 125.31,153.823 119.31,153.49 113.5,152.5C 112.74,146.769 111.074,141.435 108.5,136.5C 107.77,133.382 106.77,130.382 105.5,127.5C 109.857,127.586 114.19,127.92 118.5,128.5 Z"/></g>
<g><path style="opacity:1" fill="#005c5d" d="M 122.5,130.5 C 122.663,132.857 122.497,135.19 122,137.5C 121.283,136.956 120.783,136.289 120.5,135.5C 121.167,133.833 121.833,132.167 122.5,130.5 Z"/></g>
<g><path style="opacity:0.098" fill="#03f2ad" d="M 4.5,126.5 C 7.5794,131.766 9.91273,137.433 11.5,143.5C 9.24561,140.344 7.24561,136.844 5.5,133C 4.71348,130.901 4.38014,128.734 4.5,126.5 Z"/></g>
<g><path style="opacity:1" fill="#00d0c1" d="M 108.5,136.5 C 111.074,141.435 112.74,146.769 113.5,152.5C 112.778,152.082 112.278,151.416 112,150.5C 109.667,152.833 107.333,155.167 105,157.5C 104.667,156.833 104.333,156.167 104,155.5C 103.691,156.766 103.191,157.933 102.5,159C 100.045,160.641 97.545,162.141 95,163.5C 94.5172,164.448 94.3505,165.448 94.5,166.5C 88.8904,169.789 83.5571,173.622 78.5,178C 76.0756,181.753 72.7423,184.42 68.5,186C 67.1772,186.816 66.5106,187.983 66.5,189.5C 61.7552,186.752 56.5885,185.086 51,184.5C 49.6898,183.87 48.8565,182.87 48.5,181.5C 50.0481,181.179 50.7148,180.179 50.5,178.5C 51.8333,178.5 53.1667,178.5 54.5,178.5C 54.3505,177.448 54.5172,176.448 55,175.5C 57.5572,176.646 58.8905,175.646 59,172.5C 59.7175,173.451 60.5509,173.617 61.5,173C 64.9388,168.886 68.9388,165.553 73.5,163C 72.6637,161.757 72.997,160.59 74.5,159.5C 75.1924,160.025 75.6924,160.692 76,161.5C 78.4253,158.236 81.2587,155.57 84.5,153.5C 84.5,153.167 84.5,152.833 84.5,152.5C 86.0481,152.179 86.7148,151.179 86.5,149.5C 89.0588,149.61 91.3921,148.944 93.5,147.5C 92.9747,146.808 92.3081,146.308 91.5,146C 92.8333,145.667 94.1667,145.333 95.5,145C 96.6405,144.259 96.6405,143.425 95.5,142.5C 99.4565,141.45 102.29,139.117 104,135.5C 105.429,135.47 106.929,135.803 108.5,136.5 Z"/></g>
<g><path style="opacity:1" fill="#01e9b3" d="M 195.5,122.5 C 195.156,126.053 194.489,129.553 193.5,133C 190.66,139.423 187.66,145.757 184.5,152C 179.943,158.367 174.943,164.533 169.5,170.5C 163.618,175.259 157.785,179.926 152,184.5C 141.891,189.591 131.391,193.591 120.5,196.5C 116.667,195.595 112.667,195.595 108.5,196.5C 108.611,195.883 108.944,195.383 109.5,195C 113.956,194.736 118.289,193.902 122.5,192.5C 123.934,191.77 125.1,190.77 126,189.5C 127.299,189.966 128.799,189.966 130.5,189.5C 130.433,186.234 132.099,184.734 135.5,185C 135.043,184.586 134.709,184.086 134.5,183.5C 135.547,180.876 137.213,180.042 139.5,181C 141.78,178.791 143.614,176.291 145,173.5C 145.333,174.167 145.667,174.833 146,175.5C 146.5,174.333 147.333,173.5 148.5,173C 147.833,172.667 147.167,172.333 146.5,172C 147.784,171.316 148.951,171.483 150,172.5C 152.768,171.792 153.601,170.292 152.5,168C 154.883,167.935 155.55,167.102 154.5,165.5C 156.007,164.261 157.174,164.595 158,166.5C 159.343,164.161 160.676,161.828 162,159.5C 162.333,160.5 162.667,161.5 163,162.5C 164.156,158.985 166.656,156.985 170.5,156.5C 169.975,155.808 169.308,155.308 168.5,155C 170.477,153.459 172.477,152.959 174.5,153.5C 176.317,151.177 177.317,148.844 177.5,146.5C 178.167,147.167 178.833,147.833 179.5,148.5C 181.931,146.855 182.931,144.522 182.5,141.5C 183.833,141.5 185.167,141.5 186.5,141.5C 185.789,138.136 186.956,135.803 190,134.5C 192.033,129.883 193.866,125.883 195.5,122.5 Z"/></g>
<g><path style="opacity:1" fill="#00d7bd" d="M 113.5,152.5 C 119.31,153.49 125.31,153.823 131.5,153.5C 130.665,154.943 129.332,155.943 127.5,156.5C 127.709,157.086 128.043,157.586 128.5,158C 126.697,158.637 125.364,159.803 124.5,161.5C 118.88,165.124 113.547,168.957 108.5,173C 107.663,174.011 107.33,175.178 107.5,176.5C 104.282,178.783 100.615,180.616 96.5,182C 95.7433,183.512 94.7433,184.846 93.5,186C 90.5529,186.112 89.2196,187.612 89.5,190.5C 86.6118,190.22 85.1118,191.553 85,194.5C 79.5725,193.221 74.0725,192.221 68.5,191.5C 67.1667,191.5 66.5,190.833 66.5,189.5C 66.5106,187.983 67.1772,186.816 68.5,186C 72.7423,184.42 76.0756,181.753 78.5,178C 83.5571,173.622 88.8904,169.789 94.5,166.5C 94.3505,165.448 94.5172,164.448 95,163.5C 97.545,162.141 100.045,160.641 102.5,159C 103.191,157.933 103.691,156.766 104,155.5C 104.333,156.167 104.667,156.833 105,157.5C 107.333,155.167 109.667,152.833 112,150.5C 112.278,151.416 112.778,152.082 113.5,152.5 Z"/></g>
<g><path style="opacity:1" fill="#00ccc5" d="M 67.5,153.5 C 73.1667,153.5 78.8333,153.5 84.5,153.5C 81.2587,155.57 78.4253,158.236 76,161.5C 75.6924,160.692 75.1924,160.025 74.5,159.5C 72.997,160.59 72.6637,161.757 73.5,163C 68.9388,165.553 64.9388,168.886 61.5,173C 60.5509,173.617 59.7175,173.451 59,172.5C 58.8905,175.646 57.5572,176.646 55,175.5C 54.5172,176.448 54.3505,177.448 54.5,178.5C 53.1667,178.5 51.8333,178.5 50.5,178.5C 50.7148,180.179 50.0481,181.179 48.5,181.5C 47.0695,181.579 45.7362,181.246 44.5,180.5C 42.11,178.107 39.4433,176.107 36.5,174.5C 33.974,172.582 31.974,170.249 30.5,167.5C 33.3974,168.717 36.0641,170.384 38.5,172.5C 40.1966,172.101 41.8632,171.601 43.5,171C 42.6919,170.692 42.0253,170.192 41.5,169.5C 44.1025,168.565 46.1025,166.898 47.5,164.5C 48.1924,165.025 48.6924,165.692 49,166.5C 49.7724,165.151 50.9391,164.318 52.5,164C 51.5,163.667 50.5,163.333 49.5,163C 52.7836,163.184 54.7836,161.684 55.5,158.5C 59.1547,159.064 61.6547,157.397 63,153.5C 64.2988,153.966 65.7988,153.966 67.5,153.5 Z"/></g>
<g><path style="opacity:0.995" fill="#08ecb4" d="M 12.5,145.5 C 16.1501,150.666 19.6501,156 23,161.5C 25.7312,163.418 28.2312,165.418 30.5,167.5C 31.974,170.249 33.974,172.582 36.5,174.5C 39.4433,176.107 42.11,178.107 44.5,180.5C 45.7362,181.246 47.0695,181.579 48.5,181.5C 48.8565,182.87 49.6898,183.87 51,184.5C 56.5885,185.086 61.7552,186.752 66.5,189.5C 66.5,190.833 67.1667,191.5 68.5,191.5C 71.4994,193.18 74.1661,194.513 76.5,195.5C 72.9468,195.156 69.4468,194.489 66,193.5C 57.848,189.175 49.6814,185.008 41.5,181C 31.0674,172.571 22.0674,162.904 14.5,152C 13.3906,149.953 12.7239,147.787 12.5,145.5 Z"/></g>
<g><path style="opacity:0.176" fill="#00f6ab" d="M 78.5,196.5 C 80.6074,195.532 82.9407,195.198 85.5,195.5C 92.9818,196.492 100.648,196.825 108.5,196.5C 112.667,195.595 116.667,195.595 120.5,196.5C 106.5,199.167 92.5,199.167 78.5,196.5 Z"/></g>
</svg>
