<svg id="Layer_1" data-name="Layer 1" xmlns="http://www.w3.org/2000/svg" viewBox="0 0 908.29 874.87"><defs><linearGradient id="linear-gradient" x1="21.4" y1="437.44" x2="886.89" y2="437.44" gradientUnits="userSpaceOnUse"><stop offset="0" stop-color="#7fcdd7"/><stop offset=".02" stop-color="#7ccbd8"/><stop offset=".15" stop-color="#69bbdc"/><stop offset=".28" stop-color="#5db1de"/><stop offset=".42" stop-color="#59aedf"/><stop offset=".74" stop-color="#5596d0"/><stop offset="1" stop-color="#5288c7"/></linearGradient><style>.cls-2{fill:#fff}</style></defs><path d="M483.27 854.26h-62.5l-2.35-.63L403 853c-15.36-.63-30.5-1.79-45-3.42-16.44-1.86-32.49-4.44-47.69-7.66a377.29 377.29 0 01-95-33.59 329.55 329.55 0 01-86.3-64.19 339.44 339.44 0 01-44.14-57 396.25 396.25 0 01-40.49-89.74 485.66 485.66 0 01-16.17-69.74c-2-12.44-3.48-25.12-4.53-37.69-.84-10.09-1.64-20.91-1.85-32.12l-.43-2v-36.94l.43-2.75c0-2.24 0-4.48.19-6.71l.42-6.51c.52-8 1-16.07 1.82-24.07 1.09-11.06 2.43-21.86 4-32.13a468.65 468.65 0 0111.39-53.56 414.57 414.57 0 0134-86.39 341.59 341.59 0 0168.43-89.39 333.13 333.13 0 0181.79-55.65A382 382 0 01314.8 31.5a428.74 428.74 0 0143.44-6.7c13.4-1.3 25.45-2.31 36.82-3.06 5.47-.37 10.95-.48 16.43-.57l4.7-.1 2.17-.46h70.75l2.11.4c13.66.1 28.09.87 45.16 2.38 15.23 1.35 30.17 3.28 44.41 5.75a398.9 398.9 0 0170.34 18.59c49.61 18.26 92.48 45.84 127.43 82A340.36 340.36 0 01824.87 190c18.48 30.52 33.06 64.92 43.34 102.26a508.81 508.81 0 0115 79.55c1.68 15.4 2.56 30.77 3.13 42.43 0 .39.1.85.16 1.31l.41 5.16v37.51l-.63 2-1.2 21.2c-.7 11.77-2 24.35-4 38.44A501.52 501.52 0 01870.12 575a420.14 420.14 0 01-34.44 90.25 346 346 0 01-57.31 79.65 327 327 0 01-61.65 49.82 358.88 358.88 0 01-78.34 36.37 420.24 420.24 0 01-72.13 16.46c-9.94 1.39-20.47 2.58-31.31 3.52-9.44.82-18.84 1.35-27.94 1.86l-4.65.26c-3.5.2-7 .31-10.54.41l-2.29.08-2.07.61zm-68.36-1.65l.17.06zm469.85-388l-.08.22c.03-.09.05-.16.08-.24zM488.58 21z" fill="url(#linear-gradient)"/><path class="cls-2" d="M278.77 456.27h326.32c-38.85 138.5-150.83 134.32-241.24 130.93-49.63-1.86-88.85-3.32-106.85 19.66-8.74 11.17-11.07 26.92-7 47.88-13.59-4.63-35.22-14.94-49-36.13-14.87-22.84-17.5-53.14-7.88-89.88 3.58-12.49 11-30.61 25.78-46a85.19 85.19 0 0159.87-26.46z"/><path class="cls-2" d="M201 618.61c13.79 21.19 35.42 31.5 49 36.13-4.05-21-1.72-36.71 7-47.88 18-23 57.2-21.52 106.83-19.66 90.41 3.39 202.39 7.57 241.24-130.93h-326.3a85.19 85.19 0 00-59.88 26.46c-14.82 15.39-22.2 33.51-25.78 46-9.62 36.74-6.99 67.04 7.89 89.88zm128.62-334.87c-38.7 26.56-55.58 69.17-62.9 103.4q20.85-.19 41.58-.19c17.12 0 34.12.1 50.88.3 17.46.21 33.19.5 48.07.78 45.86.86 82.1 1.54 135.61-.78 23.38-1 36.17-1.56 41.2-2.47 52.21-9.54 98.19-51.15 136.78-123.72-87.31-1.43-179-2.15-279.93-2.2-35.15-.05-74.97-.05-111.29 24.88z"/><path class="cls-2" d="M584.06 384.78c-5 .91-17.82 1.46-41.2 2.47-53.51 2.32-89.75 1.64-135.61.78-14.88-.28-30.61-.57-48.07-.78-16.76-.2-33.76-.3-50.88-.3q-20.7 0-41.58.19c7.32-34.23 24.2-76.84 62.9-103.4 36.32-24.93 76.14-24.93 111.29-24.88 100.89.05 192.62.77 279.93 2.2-38.59 72.57-84.57 114.18-136.78 123.72z"/></svg>