<svg xmlns="http://www.w3.org/2000/svg" width="32" height="32" fill="none" viewBox="0 0 32 32"><path fill="#000" d="M15.998 31.965c8.818 0 15.966-7.148 15.966-15.966S24.816.033 15.998.033.03 7.18.03 15.999s7.15 15.966 15.968 15.966"/><path fill="#fff" d="M7.19 7.118a92 92 0 0 0-1.234 1.313c-.006.017.6.611 1.346 1.318.746.713 1.397 1.335 1.442 1.375l.084.078-.152.253a8.61 8.61 0 0 0-.768 7.282c.157.46.426 1.049.656 1.436.112.19.163.314.152.337-.011.022-.69.74-1.51 1.598-.818.853-1.486 1.566-1.497 1.577-.006.017 2.289 2.233 2.507 2.412l.085.073 1.296-1.352 1.48-1.554.191-.19.18.111c.914.584 1.986.988 3.17 1.201.594.107 1.728.135 2.361.056a8.65 8.65 0 0 0 3.428-1.15l.258-.157.275.27c.6.583 2.845 2.715 2.867 2.726s2.485-2.564 2.48-2.598a213 213 0 0 0-2.727-2.608l-.342-.326.157-.258a8.63 8.63 0 0 0 .74-7.304 11.6 11.6 0 0 0-.718-1.537l-.106-.185 1.442-1.51c.79-.824 1.436-1.514 1.43-1.531-.022-.056-2.547-2.44-2.58-2.44-.023 0-.657.645-1.414 1.441a77 77 0 0 1-1.403 1.448c-.011.005-.084-.028-.151-.079a8.7 8.7 0 0 0-3.411-1.251c-.46-.067-1.84-.078-2.267-.017-1.02.146-1.857.399-2.71.825a9 9 0 0 0-.645.342l-.202.124-.23-.225c-.123-.123-.684-.65-1.24-1.184a141 141 0 0 1-1.256-1.2l-.247-.241zm9.42 3.658c.891.107 1.688.41 2.423.926.376.263.937.824 1.2 1.2a5.176 5.176 0 0 1-.673 6.772 5.155 5.155 0 0 1-5.896.841 5.2 5.2 0 0 1-2.732-3.635c-.101-.505-.101-1.448 0-1.947.095-.494.224-.847.465-1.34a5.15 5.15 0 0 1 5.212-2.817"/></svg>