<svg xmlns="http://www.w3.org/2000/svg" xml:space="preserve" viewBox="0 0 2500 2500"><radialGradient id="front_svg-a" cx="892.72" cy="1499.81" r="800" gradientTransform="matrix(1.5625 0 0 -1.5625 -844.5 3043.203)" gradientUnits="userSpaceOnUse"><stop offset="0" style="stop-color:#ef7937"/><stop offset=".502" style="stop-color:#ea7839"/><stop offset=".784" style="stop-color:#df773d"/><stop offset="1" style="stop-color:#d57641"/></radialGradient><path d="M509.1 0H1991c280 0 509.1 229.1 509.1 509.1V1991c0 280-229.1 509.1-509.1 509.1H509.1C229.1 2500 0 2270.9 0 1990.9V509.1C0 229.1 229.1 0 509.1 0" style="fill-rule:evenodd;clip-rule:evenodd;fill:url(#front_svg-a)"/><path d="m1960.3 430.2-38.4 103.4-19.6 50.8c-148.7 380.7-264.3 561.4-387.2 561.4-70.8 0-112.8-21.2-167-70.8l-15.7-14.7c-39.1-37.3-55.5-46.5-93.1-46.5-19.6 0-54.6 26-98.9 86.5-46 62.8-96.4 155.6-150.6 277.8l-5 11.4h527.4l-65.7 140.9H953.9V2109H809.2V430zm-205.2 141-801.2-.1v559.6c96-172.2 187.2-258.7 285.3-258.7 76.3 0 121.2 22.2 178 73.9l16.2 15.2c36.5 34.8 50.5 42.8 81.6 42.8 34.4 0 125.6-149.6 240.1-432.7" style="fill-rule:evenodd;clip-rule:evenodd;fill:#fff"/></svg>