<svg xmlns="http://www.w3.org/2000/svg" width="64" height="65" fill="none" viewBox="0 0 64 65"><rect width="64" height="64" y=".304" fill="#13B5EC" rx="32"/><rect width="63" height="63" x=".5" y=".804" stroke="#070B14" stroke-opacity=".15" rx="31.5"/><path fill="#fff" fill-rule="evenodd" d="m34.4 26.204 7.2-4.2v8.4zm7.2 18-9.6 5.6-9.6-5.6v-9.8l9.6 5.6 9.6-5.6zm-19.2-22.2 7.2 4.2-7.2 4.2zm10.8 6.2 7.2 4.2-7.2 4.2zm-2.4 8.4-7.2-4.2 7.2-4.2zm9.6-16.6-8.4 4.8-8.4-4.8 8.4-5zm-20.4-.8v26.2l12 6.8 12-6.8v-26.2l-12-6.8z" clip-rule="evenodd"/></svg>