<svg xmlns="http://www.w3.org/2000/svg" width="40" height="40" fill="none" viewBox="0 0 40 40"><g clip-path="url(#futuon_svg-a)"><path fill="#CCDCF7" d="M20 0c11.046 0 20 8.954 20 20s-8.954 20-20 20S0 31.046 0 20 8.954 0 20 0"/><path fill="#0052D9" d="M26 6a8 8 0 0 1 8 8v12a8 8 0 0 1-8 8H14a8 8 0 0 1-8-8V14a8 8 0 0 1 8-8z"/><path fill="#fff" d="M27.773 11.667a.56.56 0 0 1 .559.558l-.006 3.052a.56.56 0 0 1-.559.558H18.94a3.107 3.107 0 0 0-3.106 3.113v8.828a.56.56 0 0 1-.559.557h-3.054a.56.56 0 0 1-.558-.557v-9.882a6.227 6.227 0 0 1 6.228-6.227zm-4.17 8.315c.31 0 .562.25.562.56v3.05a.56.56 0 0 1-.561.56h-3.05a.56.56 0 0 1-.56-.56v-3.05c0-.31.251-.56.56-.56z"/></g><defs><clipPath id="futuon_svg-a"><path fill="#fff" d="M0 0h40v40H0z"/></clipPath></defs></svg>