<svg xmlns="http://www.w3.org/2000/svg" width="100" height="100" version="1.2" viewBox="0 0 100 100"><path d="M100 50c0 27.6-22.4 50-50 50S0 77.6 0 50 22.4 0 50 0s50 22.4 50 50" style="fill:#dba68a"/><path d="M57.1 59.9v-4.6c0-1.2 1-2.2 2.2-2.2h4.1c1.2 0 2.2-1 2.2-2.2V37.2c0-1.2-1-2.2-2.2-2.2h-4.1c-1.2 0-2.2-1-2.2-2.2v-4.6c0-1.2 1-2.2 2.2-2.2h4.1c1.2 0 2.2-1 2.2-2.3v-4c0-1.6-.8-2.2-2.2-2.2h-4.1c-.8 0-2.2.6-2.2 2.1v4.1c0 1.3-1 2.3-2.2 2.3h-9.8c-1.2 0-2.2 1-2.2 2.2v4.6c0 1.2-1 2.2-2.2 2.2h-4.1c-1.2 0-2.2 1-2.2 2.2v13.7c0 1.2 1 2.2 2.2 2.2h4.1c1.2 0 2.2 1 2.2 2.2v4.6c0 1.2 1 2.2 2.2 2.2h9.8c1.2 0 2.2 1 2.2 2.3v7c0 1.2-1 2.2-2.2 2.2h-9.8c-1.2 0-2.2-1-2.2-2.2v-4.5c0-1.2-1-1.9-2.2-1.9h-4.1c-1.2 0-2.2.7-2.2 1.9v4.5c0 1.2 1 2.2 2.2 2.2h4.1c1.2 0 2.2 1 2.2 2.2v4.5c0 1.2 1 2.2 2.2 2.2h9.8c1.2 0 2.2-1 2.2-2.2v-4.5c0-1.2 1-2.2 2.2-2.2h4.1c1.2 0 2.2-1 2.2-2.2v-7c0-1.3-1-2.3-2.2-2.3h-4.1c-1.2 0-2.2-1-2.2-2.2m0-9c0 1.2-1 2.2-2.2 2.2h-9.8c-1.2 0-2.2-1-2.2-2.2V37.2c0-1.2 1-2.2 2.2-2.2h9.8c1.2 0 2.2 1 2.2 2.2z" style="fill:#fff"/></svg>