<?xml version="1.0" encoding="UTF-8"?>
<svg version="1.1" xmlns="http://www.w3.org/2000/svg" width="96" height="96">
<path d="M0 0 C1.31653564 0.01135986 1.31653564 0.01135986 2.65966797 0.02294922 C9.45144448 0.1952272 15.06562583 1.23369297 21.125 4.4375 C21.98222656 4.87320312 22.83945313 5.30890625 23.72265625 5.7578125 C36.08766834 12.58374678 43.23004062 22.68856753 47.52075195 36.01293945 C48.54203578 40.11086661 48.61362209 44.10669413 48.5625 48.3125 C48.55492676 49.19019043 48.54735352 50.06788086 48.53955078 50.97216797 C48.3672728 57.76394448 47.32880703 63.37812583 44.125 69.4375 C43.47144531 70.72333984 43.47144531 70.72333984 42.8046875 72.03515625 C35.97875322 84.40016834 25.87393247 91.54254062 12.54956055 95.83325195 C8.45163339 96.85453578 4.45580587 96.92612209 0.25 96.875 C-0.62769043 96.86742676 -1.50538086 96.85985352 -2.40966797 96.85205078 C-9.20144448 96.6797728 -14.81562583 95.64130703 -20.875 92.4375 C-22.16083984 91.78394531 -22.16083984 91.78394531 -23.47265625 91.1171875 C-35.83766834 84.29125322 -42.98004062 74.18643247 -47.27075195 60.86206055 C-48.29203578 56.76413339 -48.36362209 52.76830587 -48.3125 48.5625 C-48.30492676 47.68480957 -48.29735352 46.80711914 -48.28955078 45.90283203 C-48.1172728 39.11105552 -47.07880703 33.49687417 -43.875 27.4375 C-43.43929687 26.58027344 -43.00359375 25.72304688 -42.5546875 24.83984375 C-35.72875322 12.47483166 -25.62393247 5.33245938 -12.29956055 1.04174805 C-8.20163339 0.02046422 -4.20580587 -0.05112209 0 0 Z " fill="#2AD359" transform="translate(47.875,-0.4375)"/>
<path d="M0 0 C6.8283132 4.95124534 11.56389984 10.30253545 15 18 C15.433125 18.928125 15.86625 19.85625 16.3125 20.8125 C17 23 17 23 17 27 C13.7 27 10.4 27 7 27 C6.46375 25.659375 5.9275 24.31875 5.375 22.9375 C1.95407835 15.30344327 -2.4795816 10.62094219 -10 7 C-17.77120446 4.56741709 -26.38871464 5.25975682 -33.7421875 8.60546875 C-38.87374531 11.77496034 -43.47361931 17.04833659 -45.55859375 22.765625 C-47.2780075 31.46920612 -47.11599428 40.17248997 -42.55078125 47.9140625 C-38.47871239 53.39135411 -33.58931693 57.0556114 -27 59 C-17.94429999 59.91190266 -9.64073528 59.04810119 -2.25 53.4375 C2.49956329 49.04139258 4.98407015 43.04778954 7 37 C10.3 37 13.6 37 17 37 C17.2041769 41.52016244 17.32793748 46.03913311 17.4375 50.5625 C17.52547852 52.47772461 17.52547852 52.47772461 17.61523438 54.43164062 C17.78425362 63.72769912 17.78425362 63.72769912 15.48095703 67.46435547 C13.7359121 69.26007321 12.14719786 70.71548001 10 72 C9.34 72 8.68 72 8 72 C7.67 66.72 7.34 61.44 7 56 C5.02 58.97 5.02 58.97 3 62 C0.81640625 63.828125 0.81640625 63.828125 -1.4375 65.25 C-2.17871094 65.72953125 -2.91992188 66.2090625 -3.68359375 66.703125 C-11.75857397 71.22402455 -22.10407812 71.82982825 -31.07568359 69.44921875 C-41.14735197 65.81173348 -48.42992293 59.20097965 -53.375 49.8125 C-57.91151634 40.08230842 -58.82197927 29.42369442 -55.4375 19.125 C-51.05965336 8.78713759 -43.54247849 1.45279116 -33.5 -3.375 C-22.45554644 -7.40197768 -9.97497024 -6.06987551 0 0 Z " fill="#F9FDFA" transform="translate(68,15)"/>
<path d="M0 0 C4.11289267 0.85685264 5.59686932 2.20235933 8 5.625 C8 9.14455419 7.63108355 11.47420059 5.9375 14.5625 C2.74497633 16.31323879 -0.45322589 16.15072226 -4 15.625 C-6.95167993 14.00633681 -7.03225355 12.51614428 -8 9.25 C-8 5.625 -8 5.625 -5.9375 2.6875 C-3 0.625 -3 0.625 0 0 Z " fill="#F6FDF8" transform="translate(58,33.375)"/>
<path d="M0 0 C4.11289267 0.85685264 5.59686932 2.20235933 8 5.625 C8 9.14455419 7.63108355 11.47420059 5.9375 14.5625 C2.72688264 16.32316113 -0.49995202 16.37853146 -4 15.625 C-6.73080856 13.23554251 -7.76900145 11.65166021 -8.5625 8.125 C-7.50109364 3.40763841 -4.65431864 0.96964972 0 0 Z " fill="#F7FDF8" transform="translate(38,33.375)"/>
</svg>
