<svg xmlns="http://www.w3.org/2000/svg" width="40" height="40" fill="none" viewBox="0 0 40 40"><g clip-path="url(#gmeon_svg-a)"><path fill="#D9D9D9" d="M20 0c11.046 0 20 8.954 20 20s-8.954 20-20 20S0 31.046 0 20 8.954 0 20 0"/><path fill="#000" d="M26 6a8 8 0 0 1 8 8v12a8 8 0 0 1-8 8H14a8 8 0 0 1-8-8V14a8 8 0 0 1 8-8z"/><g clip-path="url(#gmeon_svg-b)"><path fill="#fff" d="M29.077 18.692q.218-.001.38.096.163.1.2.23.044.127.042.433v1.086c0 .241-.013.404-.049.506a.42.42 0 0 1-.205.242.73.73 0 0 1-.374.09.75.75 0 0 1-.325-.067 1 1 0 0 1-.271-.205v.88h-.863v-3.279h.856v.26a.9.9 0 0 1 .278-.206.9.9 0 0 1 .331-.066m-17.968-.675c.29 0 .525.048.718.157.193.102.313.223.373.367.06.14.085.344.085.615l-.983.14V19c0-.187-.012-.308-.03-.35q-.025-.073-.133-.073-.09-.002-.126.06c-.024.043-.03.145-.03.314v1.574a1 1 0 0 0 .03.29q.034.072.133.072.108.001.145-.08a.9.9 0 0 0 .035-.306v-.386h-.192v-.416h1.151v1.682h-.639l-.072-.235a.6.6 0 0 1-.253.223.84.84 0 0 1-.362.072 1.1 1.1 0 0 1-.464-.102.78.78 0 0 1-.465-.584 3.5 3.5 0 0 1-.03-.514v-.97q-.002-.473.06-.681c.036-.145.151-.272.338-.393.18-.12.422-.18.711-.18m11.155 0q.38 0 .651.108c.18.072.296.163.356.272q.09.164.09.554v.133h-.91v-.241q0-.172-.037-.218-.035-.046-.113-.048-.089-.002-.133.06c-.03.037-.042.103-.042.188q0 .164.054.247c.03.054.127.12.277.199.44.229.711.416.826.56q.17.216.17.694c0 .235-.037.41-.098.518-.066.109-.187.205-.368.278a1.55 1.55 0 0 1-.626.114q-.396 0-.676-.127-.278-.134-.367-.33c-.055-.133-.085-.254-.085-.501v-.115h.91v.23q0 .188.037.24c.03.036.072.055.139.055q.099-.002.144-.067a.37.37 0 0 0 .048-.198q0-.29-.09-.38c-.06-.06-.217-.163-.458-.302-.241-.144-.404-.24-.483-.307a.7.7 0 0 1-.198-.265 1 1 0 0 1-.08-.428q0-.382.11-.556a.73.73 0 0 1 .355-.27q.245-.099.597-.097m3.907.669q.324-.002.549.079c.15.048.265.12.35.205a.7.7 0 0 1 .169.265q.047.137.048.41v.639q.002.354-.043.518a.74.74 0 0 1-.18.308.9.9 0 0 1-.356.21 1.7 1.7 0 0 1-.495.067 2.2 2.2 0 0 1-.53-.06.8.8 0 0 1-.338-.175.7.7 0 0 1-.168-.283 1.7 1.7 0 0 1-.055-.5v-.67q0-.36.09-.567a.74.74 0 0 1 .338-.325q.243-.12.621-.121m-12.493 0q.471 0 .717.144.245.144.29.35.046.209.048.85v1.303h-.916v-.235a.6.6 0 0 1-.223.21.7.7 0 0 1-.326.073.9.9 0 0 1-.452-.114q-.207-.116-.205-.513v-.217q0-.29.109-.398c.072-.072.253-.151.542-.247q.46-.153.494-.206a.6.6 0 0 0 .03-.216q0-.2-.035-.265c-.024-.042-.067-.061-.121-.061q-.088 0-.114.054t-.025.272h.012v.144h-.886V19.5c0-.205.03-.29.084-.398q.08-.162.332-.29.246-.127.645-.127m6.108-.006q.397 0 .657.127c.175.084.29.199.362.338.066.144.102.337.102.59h-.005v.338h-1.224v.56c0 .121.012.193.03.23.024.03.06.047.12.047q.11-.001.145-.065c.024-.043.036-.133.036-.26v-.301h.893v.156c0 .157-.013.284-.037.368a.66.66 0 0 1-.168.277c-.09.097-.2.17-.338.218a1.6 1.6 0 0 1-.513.072q-.298 0-.524-.072a.9.9 0 0 1-.356-.2.66.66 0 0 1-.175-.276 1.7 1.7 0 0 1-.048-.447v-.76q0-.336.109-.537a.73.73 0 0 1 .361-.3q.246-.102.573-.103m-1.99.006q.236-.002.398.096c.103.067.175.145.2.241.03.097.041.248.041.465v1.845h-.916v-1.694c0-.224-.006-.356-.024-.41q-.028-.08-.121-.079-.099-.001-.126.078-.028.084-.03.41v1.695H16.3V19.68q.002-.378-.024-.458-.02-.081-.12-.08a.15.15 0 0 0-.11.043.13.13 0 0 0-.048.097q-.007.055-.005.247v1.803h-.911v-2.599h.916v.247a.76.76 0 0 1 .26-.223.8.8 0 0 1 .343-.072q.38-.002.598.295a.8.8 0 0 1 .265-.223.75.75 0 0 1 .331-.072m6.868-.024h.3v.326h-.3v1.604q.002.252.03.288.028.029.265.03v.423h-.38a2 2 0 0 1-.403-.025.5.5 0 0 1-.242-.102.35.35 0 0 1-.133-.186q-.025-.108-.023-.495v-1.532h-.181v-.325h.18v-.356h.887zm-10.877 1.435q-.225.145-.26.235a.8.8 0 0 0-.036.272.7.7 0 0 0 .03.259q.029.062.12.06.09-.002.115-.048a.2.2 0 0 0 .02-.082l.01-.16zm14.826-.953q-.092 0-.12.06-.026.056-.025.284v1.08a1 1 0 0 0 .03.294c.018.043.06.06.12.06.055 0 .098-.018.11-.054a.3.3 0 0 0 .019-.093l-.001-.172V19.48q0-.234-.018-.289c-.012-.03-.055-.048-.115-.048m-2.412 0c-.054 0-.097.018-.115.054a.7.7 0 0 0-.03.253v1.17c0 .127.012.205.03.242q.034.054.115.054c.06 0 .097-.012.115-.048a.2.2 0 0 0 .022-.077l.002-.14v-1.2q.002-.2-.024-.254c-.018-.036-.06-.054-.115-.054m-6.367 0c-.072 0-.108.018-.126.049q-.026.054-.025.27v.212h.284v-.212c0-.132-.006-.222-.024-.258q-.027-.062-.11-.06"/></g></g><defs><clipPath id="gmeon_svg-a"><path fill="#fff" d="M0 0h40v40H0z"/></clipPath><clipPath id="gmeon_svg-b"><path fill="#fff" d="M10 10h20v20H10z"/></clipPath></defs></svg>