<svg xmlns="http://www.w3.org/2000/svg" width="64" height="64" fill="none" viewBox="0 0 64 64"><path fill="#131313" d="M0 32C0 14.327 14.327 0 32 0s32 14.327 32 32-14.327 32-32 32S0 49.673 0 32"/><path stroke="#070B14" stroke-opacity=".15" d="M32 .5C49.397.5 63.5 14.603 63.5 32S49.397 63.5 32 63.5.5 49.397.5 32 14.603.5 32 .5Z"/><path fill="#fff" d="M43.949 24.121c-.38-4.249-4.019-5.71-8.644-6.146l.02-5.937-3.583.019.019 5.748c-.948 0-1.952 0-2.919.018V12l-3.62.019.019 5.9c-.777.018-7.241.018-7.241.018v3.775h4.587l-.019 18.969-4.018.019-.038 4.325s5.686-.02 6.52-.02l.02 5.976 3.563.019.037-5.937 2.863.057-.02 5.88h3.62l-.018-5.937c6.027-.304 10.273-1.802 10.842-7.455.455-4.571-1.668-6.62-5.099-7.455 2.085-1.062 3.393-2.921 3.109-6.032m-5.1 12.71c-.037 4.457-7.58 3.907-10.026 3.888l-.019-7.91c2.445.019 10.084-.626 10.046 4.021m-1.591-11.154c-.038 4.059-6.331 3.547-8.34 3.528l-.02-7.17c2.01 0 8.379-.588 8.36 3.642"/></svg>