<svg xmlns="http://www.w3.org/2000/svg" width="24" height="24" fill="none" viewBox="0 0 24 24"><path fill="#0A5DD1" d="M0 12C0 5.373 5.373 0 12 0s12 5.373 12 12-5.373 12-12 12S0 18.627 0 12"/><path fill="#fff" fill-rule="evenodd" d="M8.087 4.162a8.85 8.85 0 0 1 5.024-.824 8.85 8.85 0 0 1 7.632 7.559.75.75 0 1 1-1.486.206 7.35 7.35 0 0 0-6.339-6.277 7.35 7.35 0 0 0-6.38 2.339 1.75 1.75 0 1 1-1.22-.886c.77-.878 1.71-1.6 2.769-2.117m1.261 5.186a3.75 3.75 0 1 1 5.304 5.304 3.75 3.75 0 0 1-5.304-5.304M12 9.75a2.25 2.25 0 1 0 0 4.5 2.25 2.25 0 0 0 0-4.5m-8.103 2.507a.75.75 0 0 1 .846.64A7.35 7.35 0 0 0 17.46 16.83a1.75 1.75 0 1 1 1.217.89 8.85 8.85 0 0 1-15.42-4.618.75.75 0 0 1 .64-.846" clip-rule="evenodd"/></svg>