<svg xmlns="http://www.w3.org/2000/svg" width="240" height="240" fill="none" viewBox="0 0 240 240"><circle cx="120" cy="120" r="120" fill="#68B1F5"/><path fill="#fff" d="M119.63 213s72.125-34.209 72.125-73.504V58.75A173.26 173.26 0 0 0 47.5 58.704c.041 30.49.004 50.302.004 80.792 0 39.295 72.126 73.504 72.126 73.504"/><path fill="#68B1F5" fill-rule="evenodd" d="M132.84 71.332h-9.299l-1.117 7.946a43 43 0 0 0-1.028-.013c-15.551 0-27.777 9.116-27.777 23.38 0 14.401 11.445 18.048 22.6 20.782l-3.078 21.903c-5.256-2.116-9.905-6.117-13.409-11.584l-10.617 8.902c4.46 7.326 12.881 12.583 22.322 14.804l-1.303 9.275h9.299l1.14-8.11q.465.01.93.01c15.872 0 29.171-9.33 29.171-24.452 0-15.096-12.137-18.841-23.648-21.477l2.835-20.17c4.26 1.906 7.52 5.219 10.195 9.366l9.974-8.58c-3.736-5.838-10.185-10.602-18.484-12.776zm-12.027 19.41c-8.176.05-13.895 4.22-13.895 10.509 0 5.508 3.991 7.523 11.103 9.359zm4.399 34.865-3.013 21.436c8.554-.083 14.962-4.15 14.962-11.474 0-5.959-4.661-8.066-11.949-9.962" clip-rule="evenodd"/></svg>