<svg xmlns="http://www.w3.org/2000/svg" width="40" height="40" fill="none" viewBox="0 0 40 40"><g clip-path="url(#gson_svg-a)"><path fill="#E3EBF4" d="M20 0c11.046 0 20 8.954 20 20s-8.954 20-20 20S0 31.046 0 20 8.954 0 20 0"/><path fill="#7399C6" d="M26 6a8 8 0 0 1 8 8v12a8 8 0 0 1-8 8H14a8 8 0 0 1-8-8V14a8 8 0 0 1 8-8z"/><path fill="#fff" fill-opacity=".95" d="M16.453 12.97c-1.596 0-2.93.426-3.914 1.305-1.338 1.199-2.04 3.204-2.04 5.776 0 3.475.69 6.983 5.536 6.983h8.555c3.238 0 4.91-1.6 4.91-4.023 0-1.884-1.106-2.872-2.85-4.08l-1.904-1.32c-1.225-.85-1.575-1.479-1.575-2.29 0-1.021.675-1.68 2.01-1.68 1.372 0 2.339.853 3.065 3.142h.684v-3.817h-3.703c-1.296 0-2.584.291-3.475 1.216-.532.553-.886 1.321-.886 2.356 0 .764.122 1.321.426 1.891.515.955 1.355 1.558 1.718 1.808l1.49 1.03c1.217.84 2.378 1.587 2.378 2.96 0 1.367-.967 2.132-2.495 2.132-2.85 0-3.707-2.47-3.707-5.586v-1.136h-4.544v.659c1.212.19 1.829.532 1.829 1.824v1.617c0 1.659-.423 2.622-1.867 2.622-.641 0-1.064-.211-1.393-.625-.587-.743-.828-2.403-.828-5.683 0-1.676.11-3.006.321-4.011.347-1.647 1.01-2.44 2.078-2.44 1.27 0 1.946.975 2.706 3.183l.684.004V12.97z"/></g><defs><clipPath id="gson_svg-a"><path fill="#fff" d="M0 0h40v40H0z"/></clipPath></defs></svg>