<svg xmlns="http://www.w3.org/2000/svg" width="64" height="65" fill="none" viewBox="0 0 64 65"><rect width="64" height="64" y=".304" fill="#005BAC" rx="32"/><rect width="63" height="63" x=".5" y=".804" stroke="#070B14" stroke-opacity=".15" rx="31.5"/><path fill="#fff" d="M32.008 47.155C45.248 47.155 56 40.683 56 32.722a7.7 7.7 0 0 0-.169-1.634c0-.102-.087-.133-.18-.133H32.009a2.264 2.264 0 1 0 0 4.521h14.085c-1.695 4.409-7.353 7.68-14.07 7.68-8.064 0-14.592-4.67-14.592-10.404s6.528-10.404 14.592-10.404c4.383 0 8.33 1.378 11.003 3.585a.4.4 0 0 0 .112 0H52.8a.164.164 0 0 0 .164-.164c0-.046 0-.113-.036-.113-4.147-4.378-11.96-7.352-20.92-7.352C18.752 18.304 8 24.76 8 32.722s10.767 14.433 24.008 14.433"/></svg>