<?xml version="1.0" encoding="UTF-8"?>
<!-- Generator: visioncortex VTracer 0.6.12 -->
<svg version="1.1" xmlns="http://www.w3.org/2000/svg" width="32" viewBox="0 0 256 256" height="32">
  <rect width="256" height="256" fill="#111111"/>
<path d="M0 0 C84.48 0 168.96 0 256 0 C256 84.48 256 168.96 256 256 C171.52 256 87.04 256 0 256 C0 171.52 0 87.04 0 0 Z " fill="#111111" transform="translate(0,0)"/>
<path d="M0 0 C1.68 1.035 1.68 1.035 2.68 3.035 C4.335 4.054 6.002 5.053 7.68 6.035 C8.01 6.365 8.01 6.365 9.68 8.035 C10.876 8.097 12.072 8.159 13.305 8.223 C19.665 8.965 23.18 12.91 27.055 17.754 C35.297 28.451 35.297 28.451 38.195 33.867 C40.06 36.59 41.511 37.093 44.617 38.098 C51.551 40.648 51.551 40.648 53.68 44.035 C54.305 47.285 54.305 47.285 53.68 51.035 C52.213 53.134 50.659 54.992 48.895 56.848 C47.427 59.49 47.778 60.911 48.341 63.805 C49.104 68.826 48.864 73.968 48.867 79.035 C48.879 80.185 48.892 81.335 48.904 82.52 C48.914 88.416 48.722 93.481 46.68 99.035 C43.638 97.929 40.893 96.618 38.117 94.973 C35.459 93.474 33.63 92.507 30.68 92.035 C32.303 95.282 35.434 95.737 38.68 97.035 C38.68 97.695 38.68 98.355 38.68 99.035 C39.67 99.035 40.66 99.035 41.68 99.035 C41.68 99.695 41.68 100.355 41.68 101.035 C42.298 101.159 42.917 101.283 43.555 101.41 C45.68 102.035 45.68 102.035 47.68 104.035 C47.02 104.035 46.36 104.035 45.68 104.035 C45.68 106.015 45.68 107.995 45.68 110.035 C40.789 110.035 39.381 108.326 36.117 105.098 C31.038 100.155 31.038 100.155 27.68 99.035 C30.612 103.067 33.969 106.124 37.777 109.289 C39.706 111.059 41.178 112.897 42.68 115.035 C41.69 117.345 40.7 119.655 39.68 122.035 C39.02 122.035 38.36 122.035 37.68 122.035 C36.487 120.331 35.374 118.57 34.305 116.785 C32.049 113.028 29.775 110.116 26.68 107.035 C26.68 106.375 26.68 105.715 26.68 105.035 C25.69 105.035 24.7 105.035 23.68 105.035 C26.55 110.082 30.106 114.47 33.719 119 C35.79 122.205 36.584 124.233 36.68 128.035 C29.469 136.327 16.889 142.501 6.047 143.684 C3.68 144.035 3.68 144.035 1.422 144.977 C-2.333 146.426 -6.106 146.975 -10.07 147.598 C-10.831 147.723 -11.591 147.849 -12.375 147.979 C-14.687 148.353 -17.002 148.7 -19.32 149.035 C-19.986 149.136 -20.652 149.237 -21.337 149.341 C-28.288 150.264 -35.276 150.221 -42.274 150.22 C-44.42 150.223 -46.565 150.241 -48.711 150.26 C-64.82 150.326 -79.256 147.85 -94.32 142.035 C-95.31 141.705 -96.3 141.375 -97.32 141.035 C-97.32 140.375 -97.32 139.715 -97.32 139.035 C-97.98 138.808 -98.64 138.581 -99.32 138.348 C-101.862 137.236 -104.18 136.057 -106.57 134.66 C-107.256 134.261 -107.942 133.861 -108.648 133.449 C-110.32 132.035 -110.32 132.035 -111.305 130.168 C-111.329 126.848 -109.582 125.622 -107.32 123.285 C-106.493 122.415 -105.665 121.545 -104.812 120.648 C-103.99 119.786 -103.168 118.924 -102.32 118.035 C-100.472 115.881 -98.645 113.712 -96.828 111.531 C-95.32 110.035 -95.32 110.035 -92.32 109.035 C-92.32 108.375 -92.32 107.715 -92.32 107.035 C-99.048 110.008 -102.824 114.379 -107.32 120.035 C-108.654 121.368 -109.987 122.702 -111.32 124.035 C-111.65 124.695 -111.98 125.355 -112.32 126.035 C-114.508 125.973 -114.508 125.973 -117.32 125.035 C-119.252 122.863 -120.802 120.509 -122.32 118.035 C-121.99 117.375 -121.66 116.715 -121.32 116.035 C-120.33 116.035 -119.34 116.035 -118.32 116.035 C-118.064 115.428 -117.808 114.82 -117.545 114.194 C-116.173 111.776 -115.08 110.928 -112.73 109.492 C-112.029 109.058 -111.327 108.625 -110.604 108.178 C-109.871 107.739 -109.138 107.3 -108.383 106.848 C-108.018 106.622 -108.018 106.622 -106.174 105.482 C-103.217 103.675 -100.623 102.136 -97.32 101.035 C-97.32 100.375 -97.32 99.715 -97.32 99.035 C-98.64 99.035 -99.96 99.035 -101.32 99.035 C-101.32 99.695 -101.32 100.355 -101.32 101.035 C-101.903 101.292 -102.486 101.548 -103.086 101.812 C-110.622 105.332 -116.817 109.906 -123.32 115.035 C-125.441 112.42 -127.451 109.839 -129.32 107.035 C-128.945 104.348 -128.945 104.348 -128.32 102.035 C-127.165 101.705 -127.165 101.705 -121.32 100.035 C-121.32 99.375 -121.32 98.715 -121.32 98.035 C-120.76 97.86 -120.76 97.86 -117.926 96.977 C-116.453 96.517 -114.98 96.057 -113.508 95.598 C-112.77 95.368 -112.032 95.137 -111.271 94.9 C-108.28 93.966 -105.293 93.026 -102.32 92.035 C-101.99 91.375 -101.66 90.715 -101.32 90.035 C-101.961 90.242 -102.601 90.449 -103.26 90.662 C-106.175 91.602 -109.092 92.537 -112.008 93.473 C-112.512 93.635 -112.512 93.635 -115.061 94.459 C-116.037 94.772 -117.013 95.084 -118.02 95.406 C-118.915 95.694 -119.811 95.982 -120.733 96.279 C-123.249 97.014 -125.744 97.562 -128.32 98.035 C-128.32 98.695 -128.32 99.355 -128.32 100.035 C-129.31 100.035 -130.3 100.035 -131.32 100.035 C-135.32 91.218 -135.82 83.181 -135.64 73.603 C-135.655 70.959 -135.711 68.609 -136.32 66.035 C-139.27 63.496 -139.27 63.496 -142.32 62.035 C-144.259 59.506 -144.326 58.306 -144.258 55.098 C-143.088 51.276 -141.369 49.563 -138.32 47.035 C-137.66 47.035 -137 47.035 -136.32 47.035 C-135.99 46.045 -135.66 45.055 -135.32 44.035 C-133.684 42.965 -133.684 42.965 -131.633 41.91 C-127.222 39.336 -125.091 36.185 -122.547 31.828 C-122.142 31.236 -121.737 30.645 -121.32 30.035 C-120.66 30.035 -120 30.035 -119.32 30.035 C-119.097 29.496 -118.874 28.958 -118.645 28.402 C-116.89 25.266 -114.569 22.771 -112.133 20.16 C-111.637 19.627 -111.142 19.094 -110.632 18.545 C-103.813 11.285 -96.832 4.102 -86.34 3.531 C-84.604 3.493 -82.869 3.474 -81.133 3.473 C-71.207 3.422 -71.207 3.422 -66.32 0.035 C-58.776 -2.39 -51.261 -3.24 -43.383 -3.277 C-42.686 -3.283 -41.989 -3.288 -41.271 -3.294 C-36.65 -3.23 -32.719 -2.308 -28.32 -0.965 C-25.525 -1.231 -23.55 -1.86 -21 -3.02 C-13.975 -5.498 -6.483 -3.034 0 0 Z " fill="#F2DEBE" transform="translate(169.3203125,54.96484375)"/>
<path d="M0 0 C1.68 1.035 1.68 1.035 2.68 3.035 C4.335 4.054 6.002 5.053 7.68 6.035 C8.01 6.365 8.01 6.365 9.68 8.035 C10.876 8.097 12.072 8.159 13.305 8.223 C19.665 8.965 23.18 12.91 27.055 17.754 C35.297 28.451 35.297 28.451 38.195 33.867 C40.06 36.59 41.511 37.093 44.617 38.098 C51.551 40.648 51.551 40.648 53.68 44.035 C54.54 48.508 53.834 51.407 51.464 55.186 C49.4 57.806 48.192 58.885 44.969 59.831 C41.466 60.209 38.031 60.326 34.508 60.367 C33.148 60.411 31.789 60.459 30.43 60.51 C26.711 60.64 22.993 60.722 19.273 60.796 C15.32 60.883 11.37 61.016 7.418 61.144 C0.551 61.362 -6.316 61.554 -13.185 61.732 C-24.906 62.038 -36.625 62.432 -48.344 62.836 C-52.391 62.975 -56.438 63.114 -60.485 63.253 C-61.48 63.287 -62.475 63.321 -63.5 63.356 C-70.343 63.591 -77.187 63.815 -84.03 64.034 C-84.494 64.049 -84.494 64.049 -86.839 64.125 C-91.31 64.269 -95.782 64.41 -100.253 64.547 C-107.377 64.769 -114.488 65.013 -121.601 65.483 C-122.635 65.549 -123.669 65.614 -124.735 65.681 C-126.526 65.802 -128.317 65.939 -130.105 66.101 C-135.444 66.461 -138.226 65.461 -142.32 62.035 C-144.259 59.506 -144.326 58.306 -144.258 55.098 C-143.088 51.276 -141.369 49.563 -138.32 47.035 C-137.66 47.035 -137 47.035 -136.32 47.035 C-135.99 46.045 -135.66 45.055 -135.32 44.035 C-133.684 42.965 -133.684 42.965 -131.633 41.91 C-127.222 39.336 -125.091 36.185 -122.547 31.828 C-122.142 31.236 -121.737 30.645 -121.32 30.035 C-120.66 30.035 -120 30.035 -119.32 30.035 C-119.097 29.496 -118.874 28.958 -118.645 28.402 C-116.89 25.266 -114.569 22.771 -112.133 20.16 C-111.637 19.627 -111.142 19.094 -110.632 18.545 C-103.813 11.285 -96.832 4.102 -86.34 3.531 C-84.604 3.493 -82.869 3.474 -81.133 3.473 C-71.207 3.422 -71.207 3.422 -66.32 0.035 C-58.776 -2.39 -51.261 -3.24 -43.383 -3.277 C-42.686 -3.283 -41.989 -3.288 -41.271 -3.294 C-36.65 -3.23 -32.719 -2.308 -28.32 -0.965 C-25.525 -1.231 -23.55 -1.86 -21 -3.02 C-13.975 -5.498 -6.483 -3.034 0 0 Z " fill="#C0AA95" transform="translate(169.3203125,54.96484375)"/>
<path d="M0 0 C6.049 5.167 11.828 10.742 14 18.562 C13.672 25.846 10.752 28.529 5.629 33.316 C1.428 36.906 -1.82 39.159 -7.375 40.188 C-15.458 38.794 -21.335 32.91 -26.453 26.789 C-28.69 23.569 -29.285 21.48 -29 17.562 C-26.677 9.756 -20.618 3.975 -14 -0.438 C-8.872 -2.147 -4.927 -2.361 0 0 Z " fill="#4E4740" transform="translate(150,120.4375)"/>
<path d="M0 0 C1.32 0 2.64 0 4 0 C4 0.66 4 1.32 4 2 C1.91 3.516 1.91 3.516 -0.938 5.25 C-1.436 5.559 -1.436 5.559 -3.957 7.121 C-4.961 7.741 -5.965 8.361 -7 9 C-8.715 10.094 -10.424 11.197 -12.125 12.312 C-12.849 12.783 -13.574 13.254 -14.32 13.738 C-16 15 -16 15 -17 17 C-17.99 17.33 -18.98 17.66 -20 18 C-21.648 19.637 -21.648 19.637 -23.375 21.688 C-23.986 22.403 -24.597 23.118 -25.227 23.855 C-26.321 25.178 -27.402 26.512 -28.461 27.863 C-29.584 29.289 -30.786 30.651 -32 32 C-32.99 32 -33.98 32 -35 32 C-35.25 29.75 -35.25 29.75 -35 27 C-33.125 24.688 -33.125 24.688 -31 23 C-30.34 23 -29.68 23 -29 23 C-28.745 22.404 -28.49 21.808 -28.227 21.193 C-26.867 18.762 -25.57 17.592 -23.367 15.906 C-22.643 15.351 -21.918 14.795 -21.172 14.223 C-20.414 13.654 -19.656 13.086 -18.875 12.5 C-18.508 12.216 -18.508 12.216 -16.648 10.777 C-5.081 2 -5.081 2 0 2 C0 1.34 0 0.68 0 0 Z " fill="#655C52" transform="translate(68,154)"/>
<path d="M0 0 C-0.33 0.99 -0.66 1.98 -1 3 C-3.64 4.048 -6.157 4.905 -8.875 5.688 C-9.242 5.8 -9.242 5.8 -11.098 6.369 C-14.153 7.284 -16.795 8 -20 8 C-20 8.66 -20 9.32 -20 10 C-21.114 10.536 -22.227 11.072 -23.375 11.625 C-27.646 13.746 -31.668 16.193 -35.703 18.73 C-37.841 19.912 -39.615 20.546 -42 21 C-41.801 18.707 -41.801 18.707 -41 16 C-38.855 14.199 -38.855 14.199 -36.188 12.688 C-35.315 12.176 -34.442 11.664 -33.543 11.137 C-31 10 -31 10 -27 10 C-27 9.34 -27 8.68 -27 8 C-24.313 7.039 -21.626 6.081 -18.938 5.125 C-18.561 4.99 -18.561 4.99 -16.658 4.309 C-4.521 0 -4.521 0 0 0 Z " fill="#716960" transform="translate(68,145)"/>
<path d="M0 0 C0 0.66 0 1.32 0 2 C-1.434 3.34 -1.434 3.34 -3.438 4.938 C-9.314 9.933 -16.348 16.236 -18 24 C-22.757 29.529 -22.757 29.529 -27 30 C-26.292 26.32 -24.871 23.238 -23 20 C-22.01 19.67 -21.02 19.34 -20 19 C-19.711 18.257 -19.422 17.515 -19.125 16.75 C-17.46 12.679 -14.783 9.866 -10.812 7.938 C-8.445 6.713 -8.144 5.36 -7 3 C-4.397 0.649 -3.579 0 0 0 Z " fill="#695F55" transform="translate(77,162)"/>
<path d="M0 0 C4.143 0.598 7.182 2.007 10.812 4.062 C11.788 4.61 12.764 5.158 13.77 5.723 C14.506 6.144 15.242 6.566 16 7 C16.33 5.68 16.66 4.36 17 3 C17.215 3.905 17.431 4.81 17.652 5.742 C19.297 9.717 20.984 10.82 24.562 13.125 C29.825 16.533 29.825 16.533 30.84 19.242 C30.893 19.822 30.946 20.402 31 21 C26.835 20.46 24.456 19.169 21.188 16.562 C20.397 15.945 19.607 15.328 18.793 14.691 C18.201 14.133 17.61 13.575 17 13 C17 12.34 17 11.68 17 11 C15.02 10.34 13.04 9.68 11 9 C11 8.34 11 7.68 11 7 C10.01 7 9.02 7 8 7 C8 6.34 8 5.68 8 5 C6.866 4.732 5.731 4.464 4.562 4.188 C3.387 3.796 2.211 3.404 1 3 C0.67 2.01 0.34 1.02 0 0 Z " fill="#746F6C" transform="translate(200,147)"/>
<path d="M0 0 C4.169 0.526 6.268 2.805 9.25 5.625 C13.201 9.328 17.203 12.938 21.344 16.43 C23.15 18.142 24.561 19.974 26 22 C25.67 22.66 25.34 23.32 25 24 C21.738 23.404 19.868 22.356 17.375 20.188 C16.785 19.686 16.194 19.185 15.586 18.668 C14 17 14 17 13.172 15.152 C11.405 11.908 8.63 9.766 5.875 7.375 C3.861 5.624 1.924 3.853 0 2 C0 1.34 0 0.68 0 0 Z " fill="#68625C" transform="translate(197,154)"/>
<path d="M0 0 C0.99 0 1.98 0 3 0 C4.684 1.758 4.684 1.758 6.438 4.125 C7.046 4.944 7.654 5.762 8.281 6.605 C8.848 7.396 9.416 8.186 10 9 C10.443 9.615 10.887 10.23 11.344 10.863 C14 14.686 14 14.686 14 17 C14.66 17 15.32 17 16 17 C16.33 18.98 16.66 20.96 17 23 C17.66 23 18.32 23 19 23 C19 23.99 19 24.98 19 26 C16.75 26.062 16.75 26.062 14 25 C12.862 22.965 12.085 20.863 11.238 18.691 C8.591 12.938 4.476 7.476 0 3 C0 2.01 0 1.02 0 0 Z " fill="#5F574D" transform="translate(193,160)"/>
<path d="M0 0 C3 0 3 0 4.605 1.426 C5.128 2.048 5.65 2.671 6.188 3.312 C6.717 3.927 7.247 4.542 7.793 5.176 C9 7 9 7 9 10 C4.175 9.062 4.175 9.062 1.875 8.25 C1.256 8.167 0.637 8.085 0 8 C-1.562 9.438 -1.562 9.438 -3 11 C-3.99 11 -4.98 11 -6 11 C-5.554 5.95 -3.442 3.524 0 0 Z " fill="#585048" transform="translate(141,164)"/>
<path d="M0 0 C2.5 0.125 2.5 0.125 5 1 C6.878 3.391 7.038 4.596 6.75 7.625 C6 10 6 10 4 12 C1.438 11.75 1.438 11.75 -1 11 C-2.507 7.987 -2.178 5.317 -2 2 C-1.34 1.34 -0.68 0.68 0 0 Z " fill="#574E46" transform="translate(83,106)"/>
<path d="M0 0 C1.938 0.562 1.938 0.562 4 2 C4.875 5.438 4.875 5.438 5 9 C4.67 9.495 4.67 9.495 3 12 C1.35 11.67 -0.3 11.34 -2 11 C-3.354 4.6 -3.354 4.6 -1.562 1.562 C-1.047 1.047 -0.531 0.531 0 0 Z " fill="#504942" transform="translate(178,102)"/>
<path d="M0 0 C-0.33 0.99 -0.66 1.98 -1 3 C-3.578 4.029 -6.031 4.863 -8.688 5.625 C-9.396 5.842 -10.104 6.058 -10.834 6.281 C-14.865 7.487 -18.825 8.408 -23 9 C-22.67 8.01 -22.34 7.02 -22 6 C-20.19 5.109 -20.19 5.109 -17.852 4.395 C-17.011 4.133 -16.171 3.872 -15.305 3.604 C-14.42 3.342 -13.536 3.081 -12.625 2.812 C-12.187 2.676 -12.187 2.676 -9.969 1.986 C-3.457 0 -3.457 0 0 0 Z " fill="#5D554C" transform="translate(68,145)"/>
<path d="M0 0 C0 3 0 3 -1.68 4.938 C-2.404 5.618 -3.129 6.299 -3.875 7 C-6.301 9.295 -8.135 11.203 -10 14 C-10.99 14 -11.98 14 -13 14 C-13.25 11.75 -13.25 11.75 -13 9 C-11 6.688 -11 6.688 -9 5 C-8.34 5.33 -7.68 5.66 -7 6 C-6 6 -6 6 -4.59 4.688 C-4.045 4.131 -3.499 3.574 -2.938 3 C-2.39 2.443 -1.842 1.886 -1.277 1.312 C-0.856 0.879 -0.434 0.446 0 0 Z " fill="#706C68" transform="translate(46,172)"/>
<path d="M0 0 C3.76 0.581 6.53 1.652 9.812 3.562 C10.603 4.018 11.393 4.473 12.207 4.941 C12.799 5.291 13.39 5.64 14 6 C14 6.66 14 7.32 14 8 C13.01 7.835 13.01 7.835 8 7 C8 6.34 8 5.68 8 5 C6.866 4.732 5.731 4.464 4.562 4.188 C3.387 3.796 2.211 3.404 1 3 C0.67 2.01 0.34 1.02 0 0 Z " fill="#635A51" transform="translate(200,147)"/>
<path d="M0 0 C0.33 0 0.66 0 1 0 C1.186 0.887 1.371 1.774 1.562 2.688 C3.516 7.188 5.891 8.413 10 11 C4.448 11 -0.831 8.648 -5 5 C-3.35 4.67 -1.7 4.34 0 4 C0 2.68 0 1.36 0 0 Z " fill="#6F6861" transform="translate(216,150)"/>
<path d="M0 0 C0.66 0 1.32 0 2 0 C1.67 1.32 1.34 2.64 1 4 C1.99 3.67 2.98 3.34 4 3 C4.33 3.66 4.66 4.32 5 5 C-0.143 10.571 -0.143 10.571 -4 11 C-3.294 7.329 -1.693 4.312 0 1 C0 0.67 0 0.34 0 0 Z " fill="#8A847E" transform="translate(54,181)"/>
<path d="M0 0 C-1.98 1.815 -1.98 1.815 -12 11 C-12 6.638 -10.034 4.034 -7 1 C-2.385 -1.192 -2.385 -1.192 0 0 Z " fill="#58514C" transform="translate(50,170)"/>
<path d="M0 0 C0.99 0.33 1.98 0.66 3 1 C2.01 1.66 1.02 2.32 0 3 C0.66 3.66 1.32 4.32 2 5 C-1.625 8 -1.625 8 -5 8 C-4.663 4.88 -4.379 3.379 -2.125 1.125 C-1.424 0.754 -0.723 0.382 0 0 Z " fill="#7B7875" transform="translate(31,158)"/>
<path d="M0 0 C0.66 0 1.32 0 2 0 C2.33 1.98 2.66 3.96 3 6 C3.66 6 4.32 6 5 6 C5 6.99 5 7.98 5 9 C3.35 8.67 1.7 8.34 0 8 C-0.33 6.68 -0.66 5.36 -1 4 C-0.34 4 0.32 4 1 4 C0.67 2.68 0.34 1.36 0 0 Z " fill="#716D69" transform="translate(207,177)"/>
<path d="M0 0 C-1.28 2.559 -2.242 2.699 -4.875 3.688 C-5.574 3.959 -6.272 4.231 -6.992 4.512 C-9 5 -9 5 -12 4 C-11 2 -11 2 -8.812 0.875 C-5.732 -0.083 -3.207 -0.149 0 0 Z " fill="#5F564D" transform="translate(57,149)"/>
<path d="M0 0 C4.248 0.472 6.2 2.967 9 6 C8.01 6.33 7.02 6.66 6 7 C2.812 4.688 2.812 4.688 0 2 C0 1.34 0 0.68 0 0 Z " fill="#5F574D" transform="translate(197,154)"/>
<path d="M0 0 C0.66 0.33 1.32 0.66 2 1 C1.34 2.65 0.68 4.3 0 6 C-0.99 5.67 -1.98 5.34 -3 5 C-3.99 5 -4.98 5 -6 5 C-4.02 3.35 -2.04 1.7 0 0 Z " fill="#6F655A" transform="translate(51,165)"/>
<path d="M0 0 C-0.33 1.32 -0.66 2.64 -1 4 C-2.32 4.33 -3.64 4.66 -5 5 C-4.625 3.062 -4.625 3.062 -4 1 C-2 0 -2 0 0 0 Z " fill="#6E6965" transform="translate(55,187)"/>
<path d="M0 0 C0.33 0.99 0.66 1.98 1 3 C-0.32 4.32 -1.64 5.64 -3 7 C-3.66 6.67 -4.32 6.34 -5 6 C-2.25 1.125 -2.25 1.125 0 0 Z " fill="#514942" transform="translate(59,179)"/>
<path d="M0 0 C0.99 0.33 1.98 0.66 3 1 C3.33 2.98 3.66 4.96 4 7 C3.34 7 2.68 7 2 7 C0.539 4.353 0 3.106 0 0 Z " fill="#554D46" transform="translate(204,174)"/>
<path d="M0 0 C1.32 0.66 2.64 1.32 4 2 C2.71 3.376 1.373 4.708 0 6 C-0.66 6 -1.32 6 -2 6 C-1.34 4.02 -0.68 2.04 0 0 Z " fill="#242220" transform="translate(211,171)"/>
<path d="M0 0 C-0.33 0.99 -0.66 1.98 -1 3 C-2.65 2.67 -4.3 2.34 -6 2 C-3 0 -3 0 0 0 Z " fill="#776D5F" transform="translate(68,145)"/>
<path d="M0 0 C0.99 0 1.98 0 3 0 C3.33 0.99 3.66 1.98 4 3 C2.68 3 1.36 3 0 3 C0 2.01 0 1.02 0 0 Z " fill="#635A50" transform="translate(193,160)"/>
<path d="M0 0 C0.825 0.165 0.825 0.165 5 1 C5 1.66 5 2.32 5 3 C3.062 2.625 3.062 2.625 1 2 C0.67 1.34 0.34 0.68 0 0 Z " fill="#544C45" transform="translate(209,152)"/>
<path d="M0 0 C0.99 0.33 1.98 0.66 3 1 C2.67 1.99 2.34 2.98 2 4 C1.34 2.68 0.68 1.36 0 0 Z " fill="#242320" transform="translate(215,159)"/>
</svg>
