<svg xmlns="http://www.w3.org/2000/svg" width="64px" height="64px" version="1.1" viewBox="0 0 64 63"><g><rect width="64" height="63" fill="#edfcec" /><path d="m44.7 1.93c-0.32 0.05-0.55 0.09-0.95 0.2-0.2 0.05-1.7 0.56-1.86 0.64-0.05 0.02-0.19 0.07-0.29 0.1-0.1 0.04-0.23 0.09-0.29 0.11-0.06 0.02-0.19 0.07-0.29 0.11-0.1 0.04-0.23 0.08-0.29 0.1-0.11 0.05-1.16 0.41-1.6 0.55-0.13 0.04-0.28 0.1-0.34 0.12-0.06 0.03-0.26 0.09-0.45 0.16-0.35 0.11-0.53 0.18-0.69 0.27-0.05 0.03-0.13 0.05-0.18 0.05-0.04 0-0.12 0.02-0.17 0.05-0.08 0.05-0.7 0.26-1.53 0.54-1.05 0.35-1.29 0.45-1.45 0.63-0.15 0.16-0.17 0.22-0.17 0.45 0 0.34 0.12 0.54 0.39 0.67 0.18 0.09 0.33 0.11 1 0.11 1.03 0 2.18 0.1 2.96 0.25 0.66 0.13 0.84 0.17 1.05 0.22 0.13 0.03 0.31 0.07 0.41 0.08 0.09 0.02 0.18 0.05 0.2 0.07 0.02 0.03 0.08 0.05 0.16 0.05 0.07 0 0.17 0.02 0.22 0.05 0.05 0.03 0.2 0.08 0.33 0.12 0.34 0.1 0.79 0.55 0.94 0.95 0.1 0.27 0.11 0.41 0.11 1.43 0 1.2 0.02 1.3 0.29 1.87 0.21 0.43 0.89 1.03 1.94 1.72 0.83 0.55 1.36 0.74 2 0.68 0.34-0.03 0.84-0.16 1.14-0.29 0.05-0.03 0.2-0.07 0.31-0.11 0.12-0.04 0.23-0.09 0.26-0.11 0.03-0.02 0.1-0.04 0.16-0.04 0.07 0 0.14-0.02 0.15-0.05 0.02-0.03 0.08-0.05 0.15-0.05 0.06 0 0.15-0.03 0.18-0.07 0.04-0.04 0.23-0.06 0.55-0.05 0.53 0 0.73 0.08 1.08 0.4 0.17 0.16 0.68 0.87 0.9 1.26 0.06 0.11 0.15 0.27 0.2 0.36 0.13 0.23 0.54 1.05 0.68 1.36 0.41 0.89 0.47 1.06 0.85 2.18 0.25 0.76 0.43 0.94 0.93 0.94 0.27-0 0.38-0.07 0.58-0.34 0.11-0.16 0.11-0.2 0.17-5.01 0.06-4.9 0.06-5.14-0.11-5.95-0.03-0.14-0.08-0.3-0.11-0.35-0.03-0.05-0.05-0.13-0.05-0.17 0-0.04-0.02-0.12-0.05-0.17-0.03-0.05-0.14-0.29-0.27-0.52-0.12-0.24-0.31-0.57-0.43-0.73-0.25-0.34-0.95-1.04-1.29-1.31-0.12-0.1-0.31-0.26-0.42-0.34-0.11-0.09-0.29-0.23-0.39-0.31-0.11-0.09-0.32-0.25-0.46-0.36-0.14-0.11-0.28-0.2-0.3-0.2-0.03 0-0.05-0.02-0.05-0.04 0-0.02-0.1-0.09-0.21-0.17-0.12-0.07-0.21-0.14-0.21-0.17 0-0.02-0.05-0.05-0.11-0.07-0.05-0.02-0.14-0.06-0.17-0.09-0.09-0.08-0.82-0.56-0.86-0.56-0.02 0-0.09-0.04-0.17-0.1-0.37-0.26-1.3-0.73-1.66-0.84-0.11-0.04-0.25-0.09-0.3-0.11-0.05-0.03-0.14-0.05-0.21-0.05-0.05 0-0.14-0.02-0.19-0.05-0.13-0.07-1.35-0.11-1.74-0.06z" /><path d="m17.5 1.99c-0.38 0.09-0.63 0.16-0.73 0.2-0.06 0.02-0.16 0.06-0.24 0.09-0.34 0.12-1.01 0.48-1.34 0.7-0.2 0.14-0.39 0.25-0.42 0.27-0.07 0.03-1.2 0.78-1.23 0.82-0.02 0.02-0.21 0.17-0.45 0.34-0.23 0.17-0.5 0.38-0.61 0.47s-0.25 0.2-0.32 0.26c-1.73 1.36-2.46 2.49-2.73 4.16-0.05 0.29-0.05 0.8-0.03 1.75 0.02 0.74 0.05 1.92 0.06 2.64 0.02 0.71 0.05 1.93 0.07 2.7 0.03 0.76 0.05 1.81 0.05 2.32 0 0.86 0.01 0.96 0.11 1.15 0.15 0.28 0.48 0.45 0.75 0.41 0.3-0.05 0.56-0.35 0.7-0.79 0.39-1.21 0.95-2.5 1.48-3.43 0.12-0.21 0.26-0.46 0.31-0.55 0.25-0.43 0.84-1.26 0.99-1.38 0.39-0.32 1.08-0.5 1.37-0.34 0.07 0.04 0.12 0.04 0.17 0 0.04-0.04 0.08-0.02 0.12 0.05 0.04 0.05 0.12 0.1 0.19 0.1s0.14 0.02 0.16 0.05c0.02 0.03 0.08 0.05 0.14 0.05 0.05 0 0.14 0.02 0.2 0.05 0.05 0.02 0.3 0.11 0.55 0.18 0.78 0.23 1.46 0.19 2.1-0.13 0.48-0.25 1.64-1.09 2.11-1.55 0.18-0.16 0.43-0.53 0.53-0.74 0.2-0.43 0.2-0.48 0.18-1.83-0.01-1.36-0-1.41 0.21-1.87 0.12-0.25 0.58-0.69 0.72-0.69 0.05 0 0.11-0.02 0.13-0.05 0.02-0.03 0.08-0.05 0.13-0.05 0.05 0 0.14-0.02 0.2-0.05 0.09-0.04 0.17-0.07 0.73-0.21 1.11-0.28 2.57-0.44 4.45-0.48 0.57-0.02 0.71-0.04 0.84-0.12 0.3-0.2 0.39-0.34 0.39-0.64 0-0.25-0.02-0.29-0.23-0.51-0.12-0.13-0.29-0.23-0.34-0.23-0.06 0-0.15-0.02-0.2-0.05-0.14-0.08-8.72-2.91-9.03-2.97-0.16-0.03-0.37-0.08-0.48-0.11-0.24-0.06-1.53-0.05-1.8 0.02z" /><path d="m55.11 24.3c-0.33 0.1-0.55 0.46-0.48 0.83 0.02 0.11 0.11 0.41 0.2 0.68 0.09 0.27 0.18 0.58 0.21 0.68 0.02 0.1 0.08 0.31 0.12 0.47 0.04 0.16 0.11 0.43 0.14 0.6 0.04 0.17 0.09 0.39 0.11 0.5 0.09 0.38 0.2 1.31 0.25 2.24 0.05 0.89 0.03 1.16-0.14 1.51-0.24 0.52-0.55 0.7-2.03 1.14-1.31 0.4-1.76 0.87-2.27 2.38-0.21 0.62-0.34 1.09-0.44 1.63-0.05 0.27-0.05 0.4 0.01 0.7 0.09 0.52 0.32 0.94 0.95 1.73 0.77 0.98 0.83 1.08 0.92 1.46 0.12 0.51 0.02 0.89-0.43 1.48-0.93 1.25-1.93 2.18-4.04 3.8-0.45 0.35-0.57 0.73-0.32 1.1 0.27 0.41 0.53 0.43 1.5 0.11 0.16-0.05 0.47-0.14 0.68-0.21 0.21-0.06 0.43-0.13 0.48-0.16 0.05-0.03 0.13-0.05 0.18-0.05 0.04 0 0.12-0.02 0.17-0.05 0.05-0.03 0.36-0.13 0.69-0.23 1.91-0.58 2.3-0.7 2.43-0.77 0.05-0.03 0.15-0.05 0.22-0.05 0.07 0 0.15-0.03 0.16-0.05 0.02-0.03 0.08-0.05 0.14-0.05 0.05 0 0.14-0.02 0.19-0.05 0.05-0.03 0.38-0.13 0.72-0.23 0.86-0.26 1.97-0.61 2.1-0.66 0.06-0.02 0.2-0.07 0.32-0.11 0.28-0.09 1.02-0.47 1.32-0.68 0.38-0.26 1.08-0.97 1.36-1.4 0.27-0.4 0.52-0.88 0.68-1.3 0.05-0.13 0.11-0.29 0.13-0.36 0.12-0.29 0.15-0.36 0.21-0.53 0.04-0.1 0.08-0.23 0.11-0.29 0.12-0.29 0.53-1.59 0.68-2.16 0.09-0.36 0.18-0.74 0.21-0.84 0.03-0.1 0.07-0.31 0.11-0.47s0.08-0.39 0.11-0.51c0.07-0.3 0.06-1.46-0.01-1.77-0.11-0.45-0.16-0.67-0.21-0.8-0.03-0.07-0.07-0.18-0.09-0.23-0.22-0.59-0.45-0.96-1.21-1.96-1.17-1.53-1.54-2.01-1.56-2.03-0.03-0.03-0.32-0.4-0.85-1.1-0.18-0.24-0.37-0.49-0.43-0.55-0.1-0.12-0.54-0.71-1.65-2.16-0.76-1-0.98-1.25-1.09-1.25-0.03 0-0.13-0.01-0.21-0.03-0.09-0.01-0.22 0-0.3 0.03z" /><path d="m8.02 24.5c-0.13 0.06-0.69 0.79-2.46 3.17-0.26 0.34-0.7 0.93-0.98 1.3-0.52 0.7-1.16 1.57-1.68 2.27-0.16 0.21-0.35 0.48-0.43 0.57-0.45 0.59-1.05 1.67-1.05 1.89 0 0.05-0.02 0.09-0.05 0.11-0.03 0.02-0.06 0.1-0.07 0.2-0.02 0.09-0.07 0.39-0.12 0.66-0.11 0.62-0.06 1.45 0.12 2.18 0.03 0.12 0.08 0.31 0.11 0.42 0.03 0.11 0.07 0.29 0.11 0.39 0.06 0.2 0.08 0.27 0.23 0.82 0.12 0.42 0.45 1.42 0.51 1.52 0.04 0.05 0.05 0.11 0.05 0.14s0.05 0.15 0.1 0.28c0.05 0.12 0.14 0.32 0.18 0.45 0.13 0.33 0.62 1.43 0.67 1.49 0.03 0.02 0.14 0.19 0.25 0.36 0.28 0.43 0.93 1.09 1.4 1.41 0.43 0.3 1.39 0.7 2.16 0.91 0.35 0.1 0.53 0.14 1.06 0.3 0.3 0.09 0.64 0.19 0.76 0.22 0.49 0.14 0.9 0.27 0.98 0.31 0.05 0.03 0.15 0.05 0.22 0.05 0.07 0 0.14 0.02 0.16 0.05 0.02 0.03 0.09 0.06 0.17 0.07 0.19 0.04 0.34 0.08 1.33 0.38 0.79 0.23 0.96 0.29 1.33 0.39 0.09 0.03 0.27 0.08 0.4 0.12 0.13 0.04 0.34 0.11 0.47 0.14 0.13 0.04 0.27 0.08 0.32 0.09s0.11 0.03 0.13 0.03c0.03 0 0.13 0.03 0.21 0.06 0.18 0.07 0.81 0.25 1.04 0.31 0.23 0.05 0.57-0.14 0.71-0.39 0.23-0.39 0.12-0.71-0.36-1.07-0.17-0.13-0.33-0.23-0.36-0.23-0.02 0-0.05-0.02-0.07-0.04-0-0.02-0.26-0.23-0.57-0.48-1.18-0.93-3.05-2.95-3.34-3.59-0.18-0.38-0.17-0.81 0-1.24 0.07-0.17 0.13-0.34 0.13-0.38 0-0.03 0.02-0.06 0.05-0.06 0.07 0 0.12-0.05 0.5-0.55 0.38-0.5 0.71-1 0.71-1.07 0-0.03 0.02-0.09 0.05-0.14 0.15-0.3 0.2-0.96 0.11-1.34-0.22-0.84-0.26-0.98-0.32-1.09-0.02-0.05-0.05-0.13-0.05-0.17 0-0.05-0.05-0.18-0.11-0.3-0.05-0.12-0.1-0.24-0.1-0.27s-0.1-0.25-0.22-0.5c-0.42-0.87-0.91-1.22-2.2-1.57-0.13-0.03-0.28-0.08-0.33-0.11-0.05-0.03-0.14-0.05-0.2-0.05-0.05 0-0.14-0.02-0.2-0.05-0.05-0.03-0.19-0.08-0.32-0.12-0.5-0.14-0.91-0.52-1.1-1-0.18-0.48-0.14-1.33 0.13-3.03 0.13-0.81 0.41-2.02 0.49-2.18 0.03-0.05 0.05-0.14 0.05-0.2 0-0.06 0.02-0.15 0.05-0.2 0.12-0.23 0.27-0.81 0.27-1.05 0-0.25-0.02-0.29-0.23-0.5-0.21-0.21-0.26-0.23-0.46-0.23-0.12 0-0.29 0.04-0.37 0.08z" /><path d="m43.16 49.62c-0.14 0.07-0.3 0.17-0.37 0.23-0.52 0.47-2.71 1.71-3.7 2.1-0.22 0.09-0.47 0.19-0.56 0.23-0.09 0.04-0.24 0.09-0.34 0.13-0.1 0.04-0.24 0.09-0.31 0.12-0.07 0.03-0.33 0.06-0.57 0.05-0.66 0-1-0.18-1.38-0.72-0.99-1.45-1.36-1.81-2.07-2.07-0.29-0.11-0.41-0.12-1.68-0.12-1.53-0-1.8 0.04-2.32 0.35-0.43 0.25-0.58 0.42-1.15 1.26-0.95 1.39-1.21 1.6-1.95 1.61-0.43 0-0.78-0.09-1.52-0.43-0.13-0.06-0.33-0.14-0.45-0.19-0.37-0.16-1.25-0.61-1.6-0.82-0.19-0.12-0.41-0.25-0.5-0.3-0.14-0.08-0.57-0.36-1.2-0.79-0.06-0.04-0.22-0.15-0.34-0.24-0.33-0.23-0.61-0.31-0.85-0.23-0.39 0.13-0.62 0.54-0.49 0.89 0.07 0.22 0.16 0.36 0.54 0.86 0.27 0.37 1.23 1.71 1.86 2.61 0.19 0.27 0.39 0.55 0.46 0.63 0.12 0.16 0.57 0.79 1 1.38 0.15 0.21 0.46 0.64 0.67 0.94 0.22 0.3 0.49 0.69 0.61 0.86 0.2 0.29 0.41 0.56 0.72 0.94 0.6 0.71 1.55 1.34 2.46 1.61 1.05 0.3 1.85 0.37 4.09 0.33 2.31-0.04 3.02-0.11 3.98-0.44 0.87-0.3 1.81-0.98 2.37-1.71 0.12-0.17 0.24-0.31 0.26-0.33 0.02-0.02 0.05-0.06 0.08-0.11 0.17-0.29 1.42-2.06 1.45-2.07 0.02-0.01 0.04-0.04 0.04-0.07 0-0.05 0.65-1.01 0.8-1.17 0.05-0.06 0.09-0.13 0.09-0.16s0.02-0.07 0.04-0.08c0.02-0.01 0.18-0.21 0.34-0.46 0.7-1.04 1.65-2.41 1.73-2.49 0.05-0.05 0.08-0.12 0.08-0.15s0.02-0.07 0.04-0.08c0.03-0.01 0.2-0.25 0.39-0.53 0.3-0.43 0.35-0.54 0.35-0.73 0-0.28-0.17-0.54-0.42-0.67-0.25-0.12-0.4-0.11-0.7 0.03z" /></g></svg>