<svg xmlns="http://www.w3.org/2000/svg" width="64" height="64" viewBox="0 0 64 64" fill="none">
  <circle cx="32" cy="32" r="32" fill="#FF4600"/>
  <circle cx="32" cy="32" r="31.5" stroke="#070B14" stroke-opacity=".15" stroke-width="1" fill="none"/>
  <g transform="translate(32,32) scale(0.074) translate(-430.5,-433)">
    <path d="M502.875 7.154L450.375 317.031H410.25L357.75 7.154C357 3.012 353.25.377 349.125 1.13C146.625 39.535 0 218.006 0 433C0 647.994 146.625 826.465 349.5 864.871C353.625 865.624 357.375 862.988 358.125 858.846L410.625 548.969H450.75L503.25 858.846C504 862.988 507.75 865.624 511.875 864.871C714.75 826.842 861.375 647.994 861.375 433C861.375 218.006 714.375 39.535 511.5 1.13C507.375.377 503.625 3.012 502.875 7.154Z" fill="#FFFFFF"/>
  </g>
</svg>
