<svg xmlns="http://www.w3.org/2000/svg" width="200" height="200" viewBox="0 0 200 200" version="1.1"><path d="M 110.035 41.750 C 110.055 42.163, 111.853 45.425, 114.032 49 L 117.993 55.500 110.037 55.790 L 102.082 56.080 99.504 60.816 L 96.926 65.552 86.213 65.638 C 77.429 65.709, 74.213 66.182, 68.354 68.265 C 53.124 73.680, 40.835 84.530, 34.527 98.134 L 32.039 103.500 49.779 104 L 67.518 104.500 90.733 118 C 110.597 129.551, 114.191 132.005, 115.635 135 C 116.562 136.925, 119.949 142.929, 123.161 148.343 C 126.372 153.757, 129 158.632, 129 159.176 C 129 161.366, 131.698 159.084, 135.154 153.970 C 141.267 144.926, 143.500 136.505, 143.500 122.500 C 143.500 108.712, 141.577 101.773, 134.999 91.819 L 131.245 86.139 134.037 81.319 L 136.829 76.500 133.415 70.338 C 131.537 66.948, 130 63.911, 130 63.588 C 130 63.264, 133.895 63, 138.655 63 L 147.310 63 145.405 60.862 C 142.529 57.634, 137.723 56, 131.106 56 L 125.147 56 122.015 50.527 C 118.837 44.972, 114.493 41, 111.596 41 C 110.718 41, 110.016 41.337, 110.035 41.750 M 83.701 88.594 C 81.611 92.135, 80.143 95.422, 80.438 95.900 C 80.733 96.377, 82.893 97.723, 85.237 98.890 C 87.582 100.057, 90.175 101.439, 91 101.962 C 100.762 108.150, 113.600 114.742, 114.456 114.008 C 115.890 112.778, 121.503 102.146, 120.948 101.711 C 120.702 101.518, 114.425 97.841, 107 93.539 C 99.575 89.238, 92.150 84.917, 90.500 83.937 L 87.500 82.157 83.701 88.594 M 60 117.599 C 60 117.846, 63.432 123.887, 67.628 131.024 L 75.255 144 90.850 144 C 108.192 144, 108.012 144.190, 96.500 138.034 C 93.200 136.269, 83.638 130.848, 75.250 125.987 C 66.862 121.127, 60 117.352, 60 117.599" stroke="none" fill="#fafbfb" fill-rule="evenodd"/><path d="M 94.500 3.045 C 91.750 4.647, 87.783 6.892, 85.685 8.033 C 83.587 9.174, 74.362 14.520, 65.185 19.913 C 56.008 25.306, 46.700 30.686, 44.500 31.870 C 42.300 33.053, 39.825 34.435, 39 34.942 C 38.175 35.449, 31.983 39.060, 25.241 42.967 L 12.982 50.071 13.241 100.180 L 13.500 150.289 28.500 158.969 C 61.975 178.339, 83.689 190.919, 87 192.862 C 88.925 193.991, 92.656 196.050, 95.292 197.437 L 100.084 199.960 111.792 193.340 C 118.231 189.698, 132.500 181.451, 143.500 175.012 C 154.500 168.572, 165.975 161.950, 169 160.296 C 172.025 158.641, 177.313 155.626, 180.750 153.596 L 187 149.904 187 100 L 187 50.096 180.750 46.411 C 174.636 42.807, 170.173 40.238, 166.387 38.144 C 165.349 37.570, 155.275 31.741, 144 25.191 C 120.441 11.503, 100.130 -0.030, 99.757 0.066 C 99.616 0.103, 97.250 1.444, 94.500 3.045 M 110.035 41.750 C 110.055 42.163, 111.853 45.425, 114.032 49 L 117.993 55.500 110.037 55.790 L 102.082 56.080 99.504 60.816 L 96.926 65.552 86.213 65.638 C 77.429 65.709, 74.213 66.182, 68.354 68.265 C 53.124 73.680, 40.835 84.530, 34.527 98.134 L 32.039 103.500 49.779 104 L 67.518 104.500 90.733 118 C 110.597 129.551, 114.191 132.005, 115.635 135 C 116.562 136.925, 119.949 142.929, 123.161 148.343 C 126.372 153.757, 129 158.632, 129 159.176 C 129 161.366, 131.698 159.084, 135.154 153.970 C 141.267 144.926, 143.500 136.505, 143.500 122.500 C 143.500 108.712, 141.577 101.773, 134.999 91.819 L 131.245 86.139 134.037 81.319 L 136.829 76.500 133.415 70.338 C 131.537 66.948, 130 63.911, 130 63.588 C 130 63.264, 133.895 63, 138.655 63 L 147.310 63 145.405 60.862 C 142.529 57.634, 137.723 56, 131.106 56 L 125.147 56 122.015 50.527 C 118.837 44.972, 114.493 41, 111.596 41 C 110.718 41, 110.016 41.337, 110.035 41.750 M 83.701 88.594 C 81.611 92.135, 80.143 95.422, 80.438 95.900 C 80.733 96.377, 82.893 97.723, 85.237 98.890 C 87.582 100.057, 90.175 101.439, 91 101.962 C 100.762 108.150, 113.600 114.742, 114.456 114.008 C 115.890 112.778, 121.503 102.146, 120.948 101.711 C 120.702 101.518, 114.425 97.841, 107 93.539 C 99.575 89.238, 92.150 84.917, 90.500 83.937 L 87.500 82.157 83.701 88.594 M 60 117.599 C 60 117.846, 63.432 123.887, 67.628 131.024 L 75.255 144 90.850 144 C 108.192 144, 108.012 144.190, 96.500 138.034 C 93.200 136.269, 83.638 130.848, 75.250 125.987 C 66.862 121.127, 60 117.352, 60 117.599" stroke="none" fill="#4c74e4" fill-rule="evenodd"/></svg>