<svg xmlns="http://www.w3.org/2000/svg" width="200" height="200" viewBox="0 0 200 200"><path fill="#fafbfb" fill-rule="evenodd" d="M110.035 41.75c.02.413 1.818 3.675 3.997 7.25l3.961 6.5-7.956.29-7.955.29-2.578 4.736-2.578 4.736-10.713.086c-8.784.071-12 .544-17.859 2.627-15.23 5.415-27.519 16.265-33.827 29.869l-2.488 5.366 17.74.5 17.739.5L90.733 118c19.864 11.551 23.458 14.005 24.902 17 .927 1.925 4.314 7.929 7.526 13.343S129 158.632 129 159.176c0 2.19 2.698-.092 6.154-5.206 6.113-9.044 8.346-17.465 8.346-31.47 0-13.788-1.923-20.727-8.501-30.681l-3.754-5.68 2.792-4.82 2.792-4.819-3.414-6.162c-1.878-3.39-3.415-6.427-3.415-6.75s3.895-.588 8.655-.588h8.655l-1.905-2.138C142.529 57.634 137.723 56 131.106 56h-5.959l-3.132-5.473C118.837 44.972 114.493 41 111.596 41c-.878 0-1.58.337-1.561.75M83.701 88.594c-2.09 3.541-3.558 6.828-3.263 7.306s2.455 1.823 4.799 2.99 4.938 2.549 5.763 3.072c9.762 6.188 22.6 12.78 23.456 12.046 1.434-1.23 7.047-11.862 6.492-12.297-.246-.193-6.523-3.87-13.948-8.172-7.425-4.301-14.85-8.622-16.5-9.602l-3-1.78zM60 117.599c0 .247 3.432 6.288 7.628 13.425L75.255 144H90.85c17.342 0 17.162.19 5.65-5.966-3.3-1.765-12.862-7.186-21.25-12.047-8.388-4.86-15.25-8.635-15.25-8.388"/><path fill="#4c74e4" fill-rule="evenodd" d="M94.5 3.045a425 425 0 0 1-8.815 4.988c-2.098 1.141-11.323 6.487-20.5 11.88S46.7 30.686 44.5 31.87c-2.2 1.183-4.675 2.565-5.5 3.072s-7.017 4.118-13.759 8.025l-12.259 7.104.259 50.109.259 50.109 15 8.68c33.475 19.37 55.189 31.95 58.5 33.893 1.925 1.129 5.656 3.188 8.292 4.575l4.792 2.523 11.708-6.62c6.439-3.642 20.708-11.889 31.708-18.328 11-6.44 22.475-13.062 25.5-14.716 3.025-1.655 8.313-4.67 11.75-6.7l6.25-3.692V50.096l-6.25-3.685c-6.114-3.604-10.577-6.173-14.363-8.267-1.038-.574-11.112-6.403-22.387-12.953C120.441 11.503 100.13-.03 99.757.066c-.141.037-2.507 1.378-5.257 2.979m15.535 38.705c.02.413 1.818 3.675 3.997 7.25l3.961 6.5-7.956.29-7.955.29-2.578 4.736-2.578 4.736-10.713.086c-8.784.071-12 .544-17.859 2.627-15.23 5.415-27.519 16.265-33.827 29.869l-2.488 5.366 17.74.5 17.739.5L90.733 118c19.864 11.551 23.458 14.005 24.902 17 .927 1.925 4.314 7.929 7.526 13.343S129 158.632 129 159.176c0 2.19 2.698-.092 6.154-5.206 6.113-9.044 8.346-17.465 8.346-31.47 0-13.788-1.923-20.727-8.501-30.681l-3.754-5.68 2.792-4.82 2.792-4.819-3.414-6.162c-1.878-3.39-3.415-6.427-3.415-6.75s3.895-.588 8.655-.588h8.655l-1.905-2.138C142.529 57.634 137.723 56 131.106 56h-5.959l-3.132-5.473C118.837 44.972 114.493 41 111.596 41c-.878 0-1.58.337-1.561.75M83.701 88.594c-2.09 3.541-3.558 6.828-3.263 7.306s2.455 1.823 4.799 2.99 4.938 2.549 5.763 3.072c9.762 6.188 22.6 12.78 23.456 12.046 1.434-1.23 7.047-11.862 6.492-12.297-.246-.193-6.523-3.87-13.948-8.172-7.425-4.301-14.85-8.622-16.5-9.602l-3-1.78zM60 117.599c0 .247 3.432 6.288 7.628 13.425L75.255 144H90.85c17.342 0 17.162.19 5.65-5.966-3.3-1.765-12.862-7.186-21.25-12.047-8.388-4.86-15.25-8.635-15.25-8.388"/></svg>