<?xml version="1.0" encoding="UTF-8"?>
<svg xmlns="http://www.w3.org/2000/svg" xmlns:xlink="http://www.w3.org/1999/xlink" width="64px" height="64px" viewBox="0 0 64 64" version="1.1">
<g id="surface1">
<path style=" stroke:none;fill-rule:nonzero;fill:rgb(0%,0%,0%);fill-opacity:1;" d="M 44.375 0.148438 C 43.023438 0.351562 38.375 1.550781 37.875 1.824219 C 36.125 2.75 25.648438 13.550781 26.351562 13.699219 C 26.574219 13.75 27.625 13.601562 28.675781 13.398438 C 33.074219 12.523438 41.375 11.25 42.726562 11.25 C 43.976562 11.25 44.074219 11.601562 44.125 16.949219 C 44.199219 21.75 44.625 28.476562 44.898438 28.75 C 44.976562 28.800781 45.125 28.699219 45.25 28.5 C 45.773438 27.574219 50.273438 21.675781 52.75 18.726562 C 55.050781 15.925781 55.476562 15.273438 55.625 14.300781 C 56.199219 10.425781 55.75 5.875 54.5 3.375 C 53.75 1.824219 52.925781 1.125 51.25 0.523438 C 50.351562 0.199219 45.675781 -0.0507812 44.375 0.148438 Z M 44.375 0.148438 "/>
<path style=" stroke:none;fill-rule:nonzero;fill:rgb(0%,0%,0%);fill-opacity:1;" d="M 34 14.75 C 29.476562 15.523438 24.175781 16.648438 23.351562 17 C 22.523438 17.324219 16.148438 25.476562 12.75 30.476562 L 11.675781 32.074219 L 11.976562 34.101562 C 12.148438 35.226562 12.625 37.851562 13.023438 39.949219 L 13.773438 43.773438 L 12.773438 46.824219 C 11.148438 51.851562 8.25 62.601562 8.25 63.625 C 8.25 63.949219 8.476562 64 9.273438 63.949219 L 10.300781 63.875 L 11.25 61.375 C 17.125 45.699219 26.476562 29.824219 37.675781 16.449219 C 38.675781 15.273438 39.5 14.226562 39.5 14.148438 C 39.5 13.875 38.175781 14.023438 34 14.75 Z M 34 14.75 "/>
<path style=" stroke:none;fill-rule:nonzero;fill:rgb(0%,0%,0%);fill-opacity:1;" d="M 39.25 18.425781 C 35.125 23.375 30.175781 30.226562 26.949219 35.375 C 23.425781 41.050781 18.050781 51.101562 18.449219 51.324219 C 18.550781 51.398438 19.75 51 21.125 50.425781 C 22.5 49.875 26.148438 48.574219 29.25 47.523438 L 34.851562 45.625 L 35.976562 43.625 C 36.574219 42.523438 38.351562 39.449219 39.925781 36.773438 L 42.800781 31.949219 L 42.648438 30.523438 C 42.425781 28.375 42.300781 26.625 42.101562 23.5 C 42 21.925781 41.898438 20.351562 41.875 20 C 41.851562 19.648438 41.800781 18.625 41.800781 17.675781 C 41.773438 16.75 41.648438 16 41.5 16 C 41.375 16 40.351562 17.101562 39.25 18.425781 Z M 39.25 18.425781 "/>
<path style=" stroke:none;fill-rule:nonzero;fill:rgb(0%,0%,0%);fill-opacity:1;" d="M 24.875 51.351562 C 23.226562 51.925781 20.800781 52.851562 19.5 53.398438 L 17.125 54.375 L 16.226562 56.5 C 15.726562 57.675781 15.375 58.648438 15.476562 58.699219 C 15.574219 58.726562 18.199219 57.523438 21.324219 56 L 26.976562 53.25 L 27.625 52.023438 C 28.273438 50.726562 28.398438 50.25 28.074219 50.273438 C 27.949219 50.273438 26.523438 50.75 24.875 51.351562 Z M 24.875 51.351562 "/>
</g>
</svg>
