<?xml version="1.0" encoding="UTF-8"?>
<svg xmlns="http://www.w3.org/2000/svg" xmlns:xlink="http://www.w3.org/1999/xlink" width="64px" height="64px" viewBox="0 0 64 64" version="1.1">
<g id="surface1">
<path style=" stroke:none;fill-rule:nonzero;fill:rgb(0%,0%,0%);fill-opacity:1;" d="M 31.808594 0.128906 C 31.847656 0.191406 31.960938 0.257812 32.0625 0.257812 C 32.167969 0.257812 32.28125 0.191406 32.320312 0.128906 C 32.371094 0.0507812 32.257812 0 32.0625 0 C 31.871094 0 31.757812 0.0507812 31.808594 0.128906 Z M 31.808594 0.128906 "/>
<path style=" stroke:none;fill-rule:nonzero;fill:rgb(0%,0%,0%);fill-opacity:1;" d="M 16.574219 2.328125 C 14.859375 2.917969 13.875 3.777344 13.082031 5.363281 C 12.621094 6.296875 12.609375 6.363281 12.621094 7.667969 C 12.621094 9.191406 12.824219 9.867188 13.621094 10.980469 C 14.476562 12.171875 15.71875 12.914062 17.28125 13.183594 C 20.671875 13.761719 23.9375 10.753906 23.640625 7.308594 C 23.460938 5.09375 21.914062 3.109375 19.851562 2.445312 C 18.957031 2.152344 17.28125 2.097656 16.574219 2.328125 Z M 16.574219 2.328125 "/>
<path style=" stroke:none;fill-rule:nonzero;fill:rgb(0%,0%,0%);fill-opacity:1;" d="M 45.621094 2.367188 C 42.929688 3.210938 41.355469 5.734375 41.742188 8.5625 C 42.164062 11.53125 45.132812 13.707031 48.089844 13.183594 C 49.921875 12.863281 51.417969 11.726562 52.25 9.984375 C 52.964844 8.523438 52.875 6.363281 52.058594 4.992188 C 51.265625 3.660156 50.355469 2.917969 48.921875 2.445312 C 48.011719 2.136719 46.464844 2.097656 45.621094 2.367188 Z M 45.621094 2.367188 "/>
<path style=" stroke:none;fill-rule:nonzero;fill:rgb(0%,0%,0%);fill-opacity:1;" d="M 12.964844 16.921875 C 12.59375 17.101562 12.503906 17.523438 12.609375 18.675781 C 12.980469 22.824219 14.847656 27.085938 17.703125 30.207031 C 17.984375 30.527344 18.328125 30.910156 18.46875 31.066406 L 18.726562 31.347656 L 17.996094 32.140625 C 17.585938 32.574219 17.023438 33.253906 16.730469 33.652344 C 16.433594 34.046875 16.152344 34.378906 16.101562 34.40625 C 16.039062 34.433594 16 34.507812 16 34.558594 C 16 34.625 15.832031 34.917969 15.628906 35.226562 C 14.066406 37.582031 12.851562 41.175781 12.59375 44.25 C 12.519531 45.132812 12.542969 45.285156 12.773438 45.566406 L 13.03125 45.886719 L 17.945312 45.925781 C 23 45.953125 23.308594 45.925781 23.566406 45.441406 C 23.617188 45.335938 23.742188 44.761719 23.859375 44.171875 C 24.34375 41.496094 26.253906 39.027344 28.734375 37.835938 C 30.078125 37.183594 31.21875 36.929688 32.703125 36.941406 C 34.238281 36.953125 35.238281 37.195312 36.734375 37.925781 C 37.621094 38.347656 38.042969 38.667969 38.976562 39.617188 C 40.359375 41 41.089844 42.328125 41.421875 44.058594 C 41.703125 45.464844 41.792969 45.683594 42.1875 45.835938 C 42.40625 45.914062 44.328125 45.953125 47.371094 45.925781 C 51.902344 45.886719 52.210938 45.875 52.46875 45.644531 C 52.8125 45.324219 52.824219 44.558594 52.480469 42.597656 C 51.828125 38.796875 49.957031 34.996094 47.4375 32.292969 L 46.554688 31.347656 L 47.066406 30.808594 C 49.894531 27.851562 51.789062 24.128906 52.480469 20.160156 C 52.824219 18.136719 52.824219 17.371094 52.453125 17.023438 C 52.1875 16.78125 52.03125 16.769531 47.207031 16.769531 L 42.226562 16.769531 L 41.921875 17.089844 C 41.726562 17.265625 41.601562 17.546875 41.601562 17.753906 C 41.601562 18.316406 41.113281 19.917969 40.691406 20.773438 C 39.511719 23.167969 37.414062 24.832031 34.726562 25.535156 C 33.765625 25.792969 31.511719 25.777344 30.527344 25.535156 C 30.105469 25.433594 29.210938 25.074219 28.542969 24.742188 C 26.496094 23.71875 24.972656 21.976562 24.179688 19.726562 C 23.988281 19.1875 23.796875 18.40625 23.742188 17.996094 C 23.578125 16.691406 23.898438 16.769531 18.1875 16.78125 C 15.015625 16.78125 13.144531 16.832031 12.964844 16.921875 Z M 12.964844 16.921875 "/>
<path style=" stroke:none;fill-rule:nonzero;fill:rgb(0%,0%,0%);fill-opacity:1;" d="M 0 32.050781 C 0 32.332031 0.0390625 32.398438 0.140625 32.292969 C 0.242188 32.191406 0.242188 32.089844 0.140625 31.910156 C 0.0273438 31.707031 0.0117188 31.730469 0 32.050781 Z M 0 32.050781 "/>
<path style=" stroke:none;fill-rule:nonzero;fill:rgb(0%,0%,0%);fill-opacity:1;" d="M 17.214844 49.496094 C 15.246094 49.921875 13.886719 50.96875 13.019531 52.734375 C 12.644531 53.515625 12.621094 53.65625 12.609375 54.976562 C 12.609375 56.34375 12.621094 56.410156 13.082031 57.34375 C 13.671875 58.558594 14.515625 59.40625 15.71875 60.007812 C 16.539062 60.402344 16.804688 60.46875 17.792969 60.519531 C 19.148438 60.582031 20.007812 60.351562 21.121094 59.636719 C 22.746094 58.585938 23.78125 56.5625 23.640625 54.71875 C 23.4375 52.070312 21.707031 50.113281 19.097656 49.546875 C 18.417969 49.40625 17.714844 49.382812 17.214844 49.496094 Z M 17.214844 49.496094 "/>
<path style=" stroke:none;fill-rule:nonzero;fill:rgb(0%,0%,0%);fill-opacity:1;" d="M 45.992188 49.585938 C 43.1875 50.265625 41.382812 52.839844 41.714844 55.679688 C 41.957031 57.652344 43.058594 59.160156 44.929688 60.070312 C 45.707031 60.453125 45.847656 60.480469 47.167969 60.480469 C 48.5 60.480469 48.628906 60.453125 49.472656 60.058594 C 50.457031 59.597656 51.53125 58.625 52.019531 57.792969 C 52.890625 56.257812 52.980469 54.257812 52.238281 52.683594 C 51.457031 51.035156 49.945312 49.867188 48.203125 49.546875 C 47.269531 49.371094 46.847656 49.382812 45.992188 49.585938 Z M 45.992188 49.585938 "/>
</g>
</svg>
