<?xml version="1.0" encoding="UTF-8"?>
<!-- Generator: visioncortex VTracer 0.6.12 -->
<svg version="1.1" xmlns="http://www.w3.org/2000/svg" width="32" viewBox="0 0 256 256" height="32">
  <rect width="256" height="256" fill="#111111"/>
<path d="M0 0 C84.48 0 168.96 0 256 0 C256 84.48 256 168.96 256 256 C171.52 256 87.04 256 0 256 C0 171.52 0 87.04 0 0 Z " fill="#121112" transform="translate(0,0)"/>
<path d="M0 0 C-0.787 3.41 -1.871 6.689 -3 10 C-3.66 10 -4.32 10 -5 10 C-5.144 10.763 -5.289 11.526 -5.438 12.312 C-6 15 -6 15 -7 18 C-7.66 18 -8.32 18 -9 18 C-9.103 18.69 -9.206 19.379 -9.312 20.09 C-10.126 23.531 -11.462 26.376 -13 29.562 C-13.639 30.903 -14.277 32.244 -14.914 33.586 C-15.253 34.3 -15.593 35.014 -15.942 35.749 C-17.802 39.707 -19.587 43.697 -21.375 47.688 C-21.749 48.521 -22.123 49.355 -22.508 50.214 C-23.278 51.93 -24.047 53.646 -24.816 55.362 C-26.031 58.068 -27.249 60.773 -28.469 63.477 C-28.872 64.37 -29.275 65.264 -29.69 66.185 C-30.457 67.887 -31.225 69.588 -31.994 71.29 C-32.344 72.067 -32.694 72.844 -33.055 73.645 C-33.359 74.318 -33.663 74.992 -33.976 75.687 C-35.345 78.78 -36.672 81.89 -38 85 C-33.533 85.055 -29.07 85.057 -24.603 85.012 C-23.085 85.004 -21.567 85.01 -20.049 85.031 C-7.581 85.186 -7.581 85.186 -4.005 82.504 C-2.61 80.379 -1.797 78.411 -1 76 C-0.392 74.519 0.218 73.039 0.828 71.559 C1.15 70.714 1.471 69.87 1.803 69 C3.285 65.286 4.936 61.665 6.609 58.035 C6.94 57.317 7.27 56.599 7.611 55.859 C8.656 53.593 9.703 51.328 10.75 49.062 C20.535 27.86 20.535 27.86 24.704 17.067 C25.391 15.345 26.185 13.665 27 12 C27.99 11.67 28.98 11.34 30 11 C32.234 12.441 32.234 12.441 34.75 14.562 C35.629 15.299 36.508 16.035 37.414 16.793 C37.841 17.157 37.841 17.157 40 19 C40.365 19.297 40.365 19.297 42.211 20.801 C43.851 22.149 45.432 23.568 47 25 C47 25.66 47 26.32 47 27 C47.66 27 48.32 27 49 27 C49 27.99 49 28.98 49 30 C49.66 30 50.32 30 51 30 C68.842 50.098 75.678 78.757 74.259 105.066 C73.053 118.731 69.624 131.972 63 144 C62.527 144.936 62.054 145.872 61.566 146.836 C56.779 156.1 51.184 164.72 43.031 171.336 C41 173 41 173 39.094 174.852 C20.663 192.644 -5.383 200.486 -30.538 200.363 C-38.69 200.162 -48.623 199.689 -56 196 C-55.39 192.442 -54.422 189.317 -53 186 C-52.34 186 -51.68 186 -51 186 C-51.041 185.237 -51.082 184.474 -51.125 183.688 C-51 181 -51 181 -49 178 C-48.34 178 -47.68 178 -47 178 C-46.867 177.374 -46.734 176.747 -46.598 176.102 C-46.421 175.284 -46.244 174.467 -46.062 173.625 C-45.888 172.813 -45.714 172.001 -45.535 171.164 C-45 169 -45 169 -44 167 C-43.34 167 -42.68 167 -42 167 C-41.898 166.149 -41.796 165.298 -41.691 164.422 C-40.928 160.642 -39.627 157.714 -37.938 154.25 C-37.302 152.928 -36.668 151.605 -36.035 150.281 C-35.703 149.588 -35.37 148.894 -35.028 148.18 C-33.245 144.399 -31.562 140.574 -29.875 136.75 C-26.962 130.145 -23.988 123.573 -21 117 C-31.89 117 -42.78 117 -54 117 C-54.66 118.98 -55.32 120.96 -56 123 C-56.509 124.276 -57.035 125.546 -57.586 126.805 C-57.875 127.466 -58.163 128.127 -58.461 128.809 C-58.763 129.491 -59.064 130.173 -59.375 130.875 C-59.69 131.59 -60.004 132.304 -60.328 133.041 C-62.092 137.024 -63.914 140.956 -65.91 144.828 C-68.747 150.482 -71.346 156.258 -74 162 C-74.229 162.494 -74.229 162.494 -75.387 164.992 C-78.42 171.595 -81.243 178.277 -84 185 C-88.397 183.55 -91.588 181.155 -95.062 178.188 C-95.579 177.761 -96.095 177.335 -96.627 176.896 C-99.833 174.197 -102.577 171.423 -105 168 C-105 167.34 -105 166.68 -105 166 C-105.66 166 -106.32 166 -107 166 C-125.168 145.535 -131.581 116.744 -130.254 90.085 C-128.407 67.681 -119.098 45.703 -104 29 C-103.34 29 -102.68 29 -102 29 C-102 28.01 -102 27.02 -102 26 C-99.854 24.078 -97.735 22.347 -95.438 20.625 C-94.828 20.156 -94.219 19.687 -93.592 19.203 C-91.74 17.785 -89.874 16.388 -88 15 C-87.398 14.552 -86.796 14.104 -86.175 13.642 C-64.774 -2.006 -25.262 -12.631 0 0 Z " fill="#C24DE3" transform="translate(156,30)"/>
<path d="M0 0 C0.33 0.99 0.66 1.98 1 3 C0.67 3.66 0.34 4.32 0 5 C-0.66 5 -1.32 5 -2 5 C-2.103 5.619 -2.206 6.237 -2.312 6.875 C-3 9 -3 9 -6 11 C-4.55 6.89 -2.489 3.567 0 0 Z " fill="#B54AB5" transform="translate(47,65)"/>
<path d="M0 0 C0.33 0.99 0.66 1.98 1 3 C0.67 3.66 0.34 4.32 0 5 C-1.32 4.34 -2.64 3.68 -4 3 C-3.34 3 -2.68 3 -2 3 C-1.67 2.34 -1.34 1.68 -1 1 C-0.67 0.67 -0.34 0.34 0 0 Z " fill="#A744C4" transform="translate(72,210)"/>
<path d="M0 0 C0.66 0.99 1.32 1.98 2 3 C1.01 3.33 0.02 3.66 -1 4 C-0.67 2.68 -0.34 1.36 0 0 Z " fill="#2C1938" transform="translate(137,71)"/>
</svg>
