<svg xmlns="http://www.w3.org/2000/svg" width="80" height="80" fill="none" viewBox="0 0 80 80"><g clip-path="url(#hwhlp_svg-a)"><path fill="#051212" d="M40 80c22.167 0 40-17.833 40-40S62.167 0 40 0 0 17.833 0 40s17.833 40 40 40"/><path fill="url(#hwhlp_svg-b)" d="M40 80c22.167 0 40-17.833 40-40S62.167 0 40 0 0 17.833 0 40s17.833 40 40 40"/><path fill="url(#hwhlp_svg-c)" d="M6 40c0 9.205 3.683 17.525 9.614 23.634l.581.584c6.095 5.984 14.232 9.554 22.96 9.771L40 74c8.763 0 16.983-3.383 23.208-9.21l.596-.572C70.075 58.06 74 49.5 74 40s-3.925-18.06-10.196-24.218l-.596-.571C56.983 9.384 48.763 6 40 6V5l.872.01c8.696.217 16.82 3.668 23.019 9.47l.614.588c6.251 6.138 10.24 14.6 10.483 24.018L75 40c0 9.478-3.794 18.044-9.897 24.33l-.598.6C58.032 71.287 49.315 75 40 75l-.871-.01c-8.987-.224-17.363-3.902-23.634-10.06C9.042 58.596 5 49.784 5 40l.012-.914c.243-9.418 4.232-17.88 10.483-24.018l.613-.588C22.514 8.485 30.975 5 40 5v1c-9.047 0-17.513 3.605-23.805 9.782l-.58.584C9.682 22.475 6 30.796 6 40"/><path fill="#21F1A6" d="M1 40c0 10.559 4.225 20.103 11.028 27.11l.666.67c6.991 6.863 16.324 10.959 26.335 11.208L40 79c10.052 0 19.48-3.881 26.621-10.565l.684-.656C74.498 60.717 79 50.9 79 40s-4.502-20.717-11.695-27.78l-.684-.655C59.481 4.881 50.052 1 40 1V0l.996.013c9.939.247 19.224 4.19 26.308 10.822l.7.672c7.145 7.014 11.704 16.685 11.982 27.448L80 40c0 10.832-4.336 20.622-11.311 27.806l-.684.687C60.607 75.757 50.645 80 40 80l-.996-.013c-10.27-.256-19.843-4.457-27.01-11.494C4.62 61.253 0 51.181 0 40l.014-1.045c.278-10.763 4.836-20.434 11.98-27.448l.701-.672C20.015 3.983 29.686 0 40 0v1C29.623 1 19.91 5.136 12.694 12.22l-.666.67C5.225 19.898 1 29.443 1 40"/><path fill="url(#hwhlp_svg-d)" d="M75 40c0-9.468-3.784-18.029-9.897-24.324l-.6-.602C58.22 8.904 49.846 5.234 40.87 5.011L40 5c-9.011 0-17.47 3.477-23.888 9.484l-.615.59C9.033 21.42 5 30.227 5 40s4.033 18.58 10.496 24.926h.001C21.984 71.294 30.697 75 40 75v4l-.972-.012c-9.69-.241-18.742-4.087-25.65-10.552l-.683-.656C5.505 60.72 1 50.902 1 40c0-10.561 4.228-20.106 11.03-27.11l.665-.67C19.908 5.138 29.62 1 40 1l.97.012c10.015.25 19.348 4.347 26.336 11.208C74.496 19.28 79 29.099 79 40s-4.504 20.72-11.694 27.78l-.684.656C59.485 75.116 50.056 79 40 79v-4c9.303 0 18.018-3.705 24.504-10.073l.599-.603C71.215 58.03 75 49.468 75 40"/><path fill="#051212" d="M40 14c6.92 0 13.395 2.758 18.204 7.48C62.997 26.186 66 32.732 66 40s-3.003 13.814-7.796 18.52C53.395 63.242 46.92 66 40 66s-13.394-2.759-18.203-7.48C17.003 53.814 14 47.268 14 40s3.003-13.814 7.797-18.52C26.605 16.758 33.08 14 40 14"/><path fill="url(#hwhlp_svg-e)" d="M65 40c0-6.767-2.707-12.885-7.07-17.377l-.427-.43c-4.483-4.4-10.465-7.025-16.88-7.185L40 15c-6.443 0-12.486 2.488-17.064 6.773l-.439.42C17.885 26.721 15 33.014 15 40s2.885 13.279 7.497 17.807l.439.42C27.514 62.514 33.557 65 40 65v1l-.648-.008c-6.46-.16-12.495-2.725-17.1-7.035l-.455-.437c-4.644-4.559-7.607-10.845-7.788-17.84L14 40c0-7.04 2.819-13.404 7.352-18.073l.445-.447C26.606 16.758 33.08 14 40 14l.648.008c6.675.166 12.898 2.898 17.556 7.472C62.998 26.186 66 32.732 66 40l-.009.679c-.18 6.996-3.143 13.282-7.787 17.841l-.456.437C52.99 63.411 46.704 66 40 66v-1c6.651 0 12.876-2.65 17.503-7.193l.428-.43C62.293 52.885 65 46.767 65 40"/><path fill="#21F1A6" d="M50 45.95c0-5.373-3.134-7.216-9.403-7.983-4.478-.614-5.373-1.842-5.373-3.992s1.493-3.53 4.477-3.53c2.687 0 4.18.92 4.926 3.223.15.46.597.768 1.045.768h2.388c.597 0 1.044-.46 1.044-1.075v-.153c-.597-3.378-3.283-5.988-6.716-6.295V23.23c0-.615-.448-1.075-1.194-1.229h-2.239c-.597 0-1.045.46-1.194 1.229v3.53c-4.478.615-7.313 3.685-7.313 7.523 0 5.067 2.985 7.062 9.253 7.83 4.18.768 5.523 1.689 5.523 4.145 0 2.457-2.09 4.146-4.925 4.146-3.881 0-5.225-1.69-5.672-3.992-.15-.614-.597-.922-1.045-.922h-2.538c-.596 0-1.044.461-1.044 1.075v.154c.597 3.838 2.985 6.601 7.91 7.37v3.684c0 .614.448 1.074 1.194 1.228h2.24c.596 0 1.044-.46 1.193-1.228v-3.685C47.015 53.32 50 50.095 50 45.95"/></g><defs><linearGradient id="hwhlp_svg-b" x1="0" x2="80" y1="40" y2="40" gradientUnits="userSpaceOnUse"><stop stop-color="#97FCE4"/><stop offset="1" stop-color="#97FCE4" stop-opacity=".2"/></linearGradient><linearGradient id="hwhlp_svg-c" x1="3.411" x2="69.004" y1="40.901" y2="40.901" gradientUnits="userSpaceOnUse"><stop stop-color="#21F1A6" stop-opacity=".6"/><stop offset="1" stop-color="#21F1A6" stop-opacity=".2"/></linearGradient><linearGradient id="hwhlp_svg-d" x1="80.77" x2="-51" y1="38.996" y2="38.996" gradientUnits="userSpaceOnUse"><stop stop-color="#051212"/><stop offset="1" stop-color="#051212" stop-opacity=".76"/></linearGradient><linearGradient id="hwhlp_svg-e" x1="67.18" x2="18.454" y1="39.331" y2="39.331" gradientUnits="userSpaceOnUse"><stop stop-color="#21F1A6"/><stop offset="1" stop-color="#21F1A6" stop-opacity="0"/></linearGradient><clipPath id="hwhlp_svg-a"><path fill="#fff" d="M0 0h80v80H0z"/></clipPath></defs></svg>