<?xml version="1.0" standalone="no"?>
<!DOCTYPE svg PUBLIC "-//W3C//DTD SVG 20010904//EN"
 "http://www.w3.org/TR/2001/REC-SVG-20010904/DTD/svg10.dtd">
<svg version="1.0" xmlns="http://www.w3.org/2000/svg"
 width="225.000000pt" height="225.000000pt" viewBox="0 0 225.000000 225.000000"
 preserveAspectRatio="xMidYMid meet">

<g transform="translate(0.000000,225.000000) scale(0.100000,-0.100000)"
fill="#000000" stroke="none">
<path d="M0 1125 l0 -1125 1125 0 1125 0 0 1125 0 1125 -1125 0 -1125 0 0
-1125z m909 598 c13 -11 57 -108 109 -238 l88 -220 152 -3 c84 -1 152 0 152 2
0 3 -38 103 -85 222 -47 120 -85 226 -85 236 0 17 12 18 149 18 127 0 152 -3
170 -17 14 -11 64 -124 135 -304 l113 -286 -109 -279 c-59 -153 -113 -289
-119 -300 -19 -36 -53 -44 -195 -44 -114 0 -136 2 -141 16 -3 9 31 114 76 233
44 120 81 221 81 224 0 4 -67 7 -149 7 l-149 0 -15 -37 c-8 -21 -47 -123 -87
-226 -62 -160 -78 -191 -101 -203 -41 -21 -297 -20 -305 1 -4 8 44 150 106
315 l111 301 -111 285 c-62 156 -109 291 -106 299 4 12 32 15 150 15 122 0
147 -3 165 -17z"/>
</g>
</svg>
