<svg xmlns="http://www.w3.org/2000/svg" width="64" height="65" fill="none" viewBox="0 0 64 65"><rect width="64" height="64" y=".304" fill="#072723" rx="32"/><rect width="63" height="63" x=".5" y=".804" stroke="#070B14" stroke-opacity=".15" rx="31.5"/><path fill="#97FDE5" d="M45.729 50.29C51.68 49.908 56 42.598 56 33.243s-4.835-16.94-10.799-16.94c-4.15 0-7.653 4.029-9.4 9.63-3.837 6.414-9.426 7.023-13.772 1.202-1.374-2.546-3.425-4.162-5.716-4.162-4.137 0-6.313 3.647-6.313 10.142s2.176 13.379 6.313 13.379c2.585 0 4.865-2.057 6.21-5.186 7.014-9.544 12.63-1.812 14.276 1.094 1.886 4.612 4.845 8.15 8.93 7.888"/></svg>