<?xml version="1.0" encoding="UTF-8"?>
<!-- Generator: visioncortex VTracer 0.6.12 -->
<svg version="1.1" xmlns="http://www.w3.org/2000/svg" width="32" viewBox="0 0 256 256" height="32">
  <rect width="256" height="256" fill="#111111"/>
<path d="M0 0 C84.48 0 168.96 0 256 0 C256 84.48 256 168.96 256 256 C171.52 256 87.04 256 0 256 C0 171.52 0 87.04 0 0 Z " fill="#D531B8" transform="translate(0,0)"/>
<path d="M0 0 C84.48 0 168.96 0 256 0 C256 84.48 256 168.96 256 256 C171.52 256 87.04 256 0 256 C0 171.52 0 87.04 0 0 Z M52.027 58.668 C32.05 81.648 24.232 108.805 26 139 C28.753 166.401 42.649 190.744 63.742 208.293 C86.54 225.529 113.12 232.912 141.643 229.703 C168.605 225.934 193.169 212.107 209.71 190.264 C226.43 167.406 233.342 139.937 229.352 111.781 C224.814 84.945 210.541 61.071 188.438 44.938 C145.518 14.784 88.296 21.064 52.027 58.668 Z " fill="#121111" transform="translate(0,0)"/>
<path d="M0 0 C4.249 -0.174 8.498 -0.281 12.75 -0.375 C13.957 -0.425 15.163 -0.476 16.406 -0.527 C16.986 -0.537 16.986 -0.537 19.922 -0.586 C20.99 -0.617 22.058 -0.649 23.159 -0.681 C26 0 26 0 28.191 2.581 C30.043 6.081 31.62 9.598 33.016 13.297 C33.276 13.972 33.537 14.647 33.806 15.342 C34.35 16.756 34.891 18.171 35.429 19.587 C36.254 21.761 37.091 23.929 37.93 26.098 C38.459 27.476 38.988 28.855 39.516 30.234 C39.766 30.883 40.015 31.532 40.273 32.201 C42 36.767 42 36.767 42 39 C50.58 39 59.16 39 68 39 C64 29 64 29 62.188 25 C60.049 20.251 58.149 15.411 56.25 10.562 C55.932 9.756 55.614 8.95 55.286 8.119 C54.99 7.359 54.695 6.599 54.391 5.816 C54.123 5.13 53.855 4.444 53.579 3.737 C53 2 53 2 53 0 C57.271 -0.087 61.541 -0.14 65.812 -0.188 C66.42 -0.2 66.42 -0.2 69.494 -0.264 C70.076 -0.269 70.076 -0.269 73.02 -0.293 C74.093 -0.309 75.167 -0.324 76.273 -0.341 C79 0 79 0 80.736 1.202 C82.283 3.402 83.222 5.551 84.199 8.059 C84.601 9.075 85.002 10.091 85.415 11.138 C85.835 12.227 86.255 13.316 86.688 14.438 C87.569 16.709 88.452 18.98 89.336 21.25 C89.778 22.386 90.22 23.521 90.675 24.691 C91.898 27.745 93.194 30.749 94.539 33.75 C94.924 34.63 95.308 35.51 95.704 36.416 C96.421 38.047 97.161 39.669 97.927 41.277 C100.715 47.758 99.515 51.603 97 58 C96.494 59.391 95.991 60.784 95.492 62.178 C94.033 66.228 92.531 70.26 91.012 74.288 C90.059 76.821 89.12 79.358 88.182 81.896 C87.571 83.521 86.96 85.146 86.348 86.77 C86.071 87.522 85.795 88.274 85.511 89.049 C83.906 93.252 82.361 96.878 79 100 C76.159 100.568 76.159 100.568 72.922 100.488 C72.342 100.48 72.342 100.48 69.406 100.439 C68.2 100.398 66.993 100.356 65.75 100.312 C64.528 100.29 63.306 100.267 62.047 100.244 C59.03 100.185 56.016 100.103 53 100 C54.548 91.808 57.61 83.889 61.062 76.312 C63.306 71.319 65.129 66.145 67 61 C62.875 61.165 62.875 61.165 42 62 C41.257 64.104 40.515 66.207 39.75 68.375 C37.638 74.31 35.398 80.175 33 86 C32.575 87.06 32.149 88.119 31.711 89.211 C31.27 90.296 30.829 91.382 30.375 92.5 C29.97 93.5 29.565 94.501 29.148 95.531 C28 98 28 98 26 100 C23.386 100.227 23.386 100.227 20.117 100.195 C18.951 100.189 17.784 100.182 16.582 100.176 C15.359 100.159 14.135 100.142 12.875 100.125 C11.644 100.116 10.413 100.107 9.145 100.098 C6.096 100.074 3.048 100.041 0 100 C0.562 94.536 1.968 90.056 4.062 85 C7.033 77.607 9.765 70.153 12.375 62.625 C12.548 62.129 12.548 62.129 13.422 59.617 C17.383 48.142 17.383 48.142 14.438 41.312 C13.872 39.97 13.309 38.626 12.75 37.281 C12.459 36.581 12.167 35.881 11.867 35.16 C10.433 31.588 9.188 27.952 7.938 24.312 C5.839 18.224 3.521 12.299 0.883 6.418 C0 4 0 4 0 0 Z " fill="#FCFCFD" transform="translate(84,78)"/>
<path d="M0 0 C3.96 0 7.92 0 12 0 C14.008 5.33 16.005 10.665 18 16 C18.407 17.087 18.814 18.175 19.233 19.295 C20.575 22.883 21.913 26.473 23.25 30.062 C23.686 31.228 24.122 32.393 24.572 33.593 C25.387 35.786 26.191 37.984 26.981 40.187 C27.774 42.378 28.631 44.546 29.512 46.703 C30.245 51.651 28.498 55.174 26.562 59.688 C25.807 61.55 25.055 63.413 24.305 65.277 C23.919 66.223 23.533 67.169 23.136 68.144 C21.351 72.633 19.763 77.184 18.188 81.75 C17.91 82.546 17.633 83.342 17.348 84.163 C15.522 89.428 13.754 94.711 12 100 C8.04 100 4.08 100 0 100 C0.678 96.609 1.317 93.849 2.475 90.672 C2.772 89.851 3.069 89.03 3.375 88.184 C3.535 87.747 3.535 87.747 4.344 85.535 C5.02 83.665 5.695 81.794 6.371 79.924 C7.436 76.989 8.503 74.056 9.571 71.122 C10.604 68.282 11.63 65.44 12.656 62.598 C12.976 61.726 13.296 60.854 13.625 59.955 C16.204 52.798 17.798 47.961 14.902 40.598 C14.433 39.384 13.963 38.17 13.48 36.919 C12.966 35.634 12.452 34.348 11.938 33.062 C11.425 31.751 10.915 30.44 10.405 29.127 C8.286 23.69 6.116 18.274 3.93 12.863 C3.789 12.516 3.789 12.516 3.078 10.756 C2.371 9.018 1.649 7.286 0.926 5.555 C0 3 0 3 0 0 Z " fill="#2A64C1" transform="translate(72,78)"/>
<path d="M0 0 C3.96 0 7.92 0 12 0 C10.897 5.602 9.585 9.892 7 15 C5.934 17.601 4.965 20.235 4 22.875 C3.5 24.227 3 25.578 2.5 26.93 C2.256 27.592 2.013 28.254 1.762 28.937 C0.522 32.296 -0.74 35.648 -2 39 C-5.63 39 -9.26 39 -13 39 C-12.427 33.944 -11.317 29.625 -9.531 24.824 C-9.291 24.173 -9.051 23.522 -8.803 22.851 C-8.042 20.794 -7.271 18.741 -6.5 16.688 C-5.982 15.291 -5.466 13.895 -4.949 12.498 C-1.213 2.425 -1.213 2.425 0 0 Z " fill="#2E66C2" transform="translate(139,139)"/>
<path d="M0 0 C3.63 0 7.26 0 11 0 C11.312 0.801 11.625 1.602 11.946 2.427 C13.123 5.442 14.301 8.455 15.48 11.469 C15.987 12.765 16.493 14.061 16.999 15.358 C19.624 22.092 22.256 28.801 25.327 35.348 C26 37 26 37 26 39 C22.04 39 18.08 39 14 39 C10.621 31.043 7.38 23.034 4.188 15 C3.983 14.492 3.983 14.492 2.948 11.924 C2.567 10.959 2.186 9.994 1.793 9 C1.62 8.567 1.62 8.567 0.747 6.375 C0 4 0 4 0 0 Z " fill="#2E66C2" transform="translate(126,78)"/>
</svg>
