<svg xmlns="http://www.w3.org/2000/svg" width="32" height="32" viewBox="0 0 32 32"><path d="M19.84.32q.198.049.402.102a16.6 16.6 0 0 1 4.238 1.816v.32l.282.06c.383.109.636.26.957.491l.297.211.222.2v.32h.48q.33.395.641.8c.184.133.184.133.368.27.546.465.906.985 1.304 1.578.074.117.153.23.235.348 1.136 1.707 1.894 3.344 2.414 5.324l.12.457c.473 2.238.446 5.004-.12 7.223q-.049.198-.102.402a16.6 16.6 0 0 1-1.816 4.238h-.32l-.06.282c-.109.383-.26.636-.491.957l-.211.297-.2.222h-.32v.48q-.395.33-.8.641-.135.181-.27.368c-.465.546-.985.906-1.578 1.304-.117.074-.23.153-.348.235-1.707 1.136-3.344 1.894-5.324 2.414l-.457.12c-2.238.473-5.004.446-7.223-.12q-.198-.049-.402-.102a16.6 16.6 0 0 1-4.238-1.816v-.32l-.282-.06c-.383-.109-.636-.26-.957-.491l-.297-.211c-.113-.098-.113-.098-.222-.2v-.32h-.48a25 25 0 0 1-.641-.8q-.181-.135-.368-.27c-.546-.465-.906-.985-1.304-1.578a9 9 0 0 0-.235-.348C1.598 23.457.84 21.82.32 19.84l-.12-.457c-.473-2.238-.446-5.004.12-7.223q.049-.198.102-.402A16.6 16.6 0 0 1 2.238 7.52h.32l.06-.282c.109-.383.26-.636.491-.957l.211-.297.2-.222h.32v-.48q.395-.33.8-.641c.133-.184.133-.184.27-.368.465-.546.985-.906 1.578-1.304.117-.074.23-.153.348-.235C8.543 1.598 10.18.84 12.16.32l.457-.12c2.238-.473 5.004-.446 7.223.12m0 0" style="stroke:none;fill-rule:nonzero;fill:#072723;fill-opacity:1"/><path d="M24 8v.32c.09.035.18.075.27.11.476.27.804.605 1.171 1.011v.32h.32c1.602 3.368 1.887 6.794.825 10.372-.703 1.922-1.703 3.226-3.555 4.097-1.05.2-2.031-.05-2.922-.628-.132-.122-.132-.122-.27-.243v-.32l-.48-.16c-.285-.41-.285-.41-.578-.93l-.297-.512c-.199-.386-.328-.695-.406-1.117h-.316c-.64-.867-.64-.867-.64-1.28l-.481-.161v-.32h-.48c-.056-.106-.106-.211-.161-.32-.824-.384-1.652-.583-2.559-.477-.523.226-.523.226-.96.476h-.32v.32l-.34.262c-.59.489-.989 1.051-1.43 1.668-1.055 1.473-1.055 1.473-1.59 1.75-.75.117-1.492.09-2.211-.148-1.422-1.34-1.883-2.996-1.969-4.883A62 62 0 0 1 4.61 16l-.004-.406c-.003-1.64.297-3.262 1.485-4.473.625-.496 1.203-.512 1.976-.46 1.012.148 1.524.648 2.157 1.402.175.257.175.257.175.578h.32c.227.234.227.234.473.539.317.394.54.613.97.898v.32q.178.036.37.07c.43.09.43.09.91.25 1.012.071 1.778-.113 2.72-.48v-.316q.186-.151.378-.3c.398-.325.559-.517.742-.981h.32l.063-.286c.48-1.78 1.613-3.64 3.137-4.683C21.973 7.305 22.89 7.57 24 8m0 0" style="stroke:none;fill-rule:nonzero;fill:#96fae2;fill-opacity:1"/><path d="M19.84.32q.198.049.402.102a16.6 16.6 0 0 1 4.238 1.816v.32l.282.06c.383.109.636.26.957.491l.297.211.222.2v.32h.48q.33.395.641.8c.184.133.184.133.368.27.546.465.906.985 1.304 1.578.074.117.153.23.235.348 1.136 1.707 1.894 3.344 2.414 5.324l.12.457c.473 2.238.446 5.004-.12 7.223q-.049.198-.102.402a16.6 16.6 0 0 1-1.816 4.238h-.32l-.06.282c-.109.383-.26.636-.491.957l-.211.297-.2.222h-.32v.48q-.395.33-.8.641-.135.181-.27.368c-.465.546-.985.906-1.578 1.304-.117.074-.23.153-.348.235-1.707 1.136-3.344 1.894-5.324 2.414l-.457.12c-2.238.473-5.004.446-7.223-.12q-.198-.049-.402-.102a16.6 16.6 0 0 1-4.238-1.816v-.32l-.282-.06c-.383-.109-.636-.26-.957-.491l-.297-.211c-.113-.098-.113-.098-.222-.2v-.32h-.48a25 25 0 0 1-.641-.8q-.181-.135-.368-.27c-.546-.465-.906-.985-1.304-1.578a9 9 0 0 0-.235-.348C1.598 23.457.84 21.82.32 19.84l-.12-.457c-.473-2.238-.446-5.004.12-7.223q.049-.198.102-.402A16.6 16.6 0 0 1 2.238 7.52h.32l.06-.282c.109-.383.26-.636.491-.957l.211-.297.2-.222h.32v-.48q.395-.33.8-.641c.133-.184.133-.184.27-.368.465-.546.985-.906 1.578-1.304.117-.074.23-.153.348-.235C8.543 1.598 10.18.84 12.16.32l.457-.12c2.238-.473 5.004-.446 7.223.12M9.762 1.762v.316q-.17.029-.34.05c-.524.126-.95.34-1.422.59v.321l-.27.047c-1.058.324-1.972 1.16-2.609 2.035l-.375.285c-.457.38-.77.766-1.117 1.242l-.336.461C3 7.508 3 7.508 3.039 8h-.32C1.379 10.617.539 12.914.55 15.922v.336c.004 2.488.547 4.582 1.687 6.781l.48.961h.321l.047.27c.324 1.058 1.16 1.972 2.035 2.609l.285.375c.38.457.766.77 1.242 1.117l.461.336c.399.293.399.293.891.254v.32c2.617 1.34 4.914 2.18 7.922 2.168h.336c2.488-.004 4.582-.547 6.781-1.687l.961-.48v-.321l.27-.047c1.058-.324 1.972-1.16 2.609-2.035l.375-.285c.457-.38.77-.766 1.117-1.242l.336-.461c.293-.399.293-.399.254-.891h.32c1.32-2.578 2.172-4.84 2.149-7.8v-.317c-.008-1.66-.16-3.117-.711-4.684q-.072-.233-.149-.472a28 28 0 0 0-.332-.965h-.316q-.029-.17-.05-.34c-.126-.524-.34-.95-.59-1.422h-.321l-.047-.27c-.324-1.058-1.16-1.972-2.035-2.609l-.285-.375c-.38-.457-.766-.77-1.242-1.117l-.461-.336C24.492 3 24.492 3 24 3.039v-.32c-1.41-.75-2.773-1.34-4.32-1.758l-.52-.164c-.992-.258-1.984-.242-3-.246-.113 0-.226-.004-.34-.004-2.156-.008-4.05.41-6.058 1.215m0 0" style="stroke:none;fill-rule:nonzero;fill:#0e3832;fill-opacity:1"/></svg>