<svg xmlns="http://www.w3.org/2000/svg" width="40" height="40" fill="none" viewBox="0 0 40 40"><g clip-path="url(#ibmon_svg-a)"><path fill="#CDD6EF" d="M20 0c11.046 0 20 8.954 20 20s-8.954 20-20 20S0 31.046 0 20 8.954 0 20 0"/><path fill="#0530AD" d="M26 6a8 8 0 0 1 8 8v12a8 8 0 0 1-8 8H14a8 8 0 0 1-8-8V14a8 8 0 0 1 8-8z"/><path fill="#fff" d="M20.016 23.447c-.374.345-.876.56-1.43.56L14.443 24v-.554zm3.875.56h-2.78v-.559h2.78zm6.109 0h-2.78v-.559H30zm-16.112-.001H10v-.56h3.888zM25.554 24l-.191-.553h.384zm-11.666-1.062H10v-.56h3.888zm6.758-.56a2 2 0 0 1-.222.56h-5.98v-.56zm3.245.56h-2.78v-.56h2.78zm2.032 0h-.737l-.196-.56h1.131zm4.077 0h-2.78v-.56H30zm-17.222-1.066h-1.669v-.559h1.668zm4.443 0h-1.666v-.559h1.666zm3.411-.559q.075.269.075.559H18.89v-.559zm3.256.559h-1.667v-.559h1.667zm2.41 0h-1.486l-.196-.559h1.877zm2.59-.559v.559h-1.667v-.559zm-16.11-.507h-1.669v-.559h1.668zm7.18-.559q.276.236.466.56h-4.869v-.56zm3.93.56h-1.667v-.56h1.667zm2.784 0H24.44l-.192-.56h2.615zm2.216 0h-1.667v-.56h1.667zm-16.11-1.067h-1.669v-.559h1.668zm7.646-.559a2.1 2.1 0 0 1-.465.56h-4.404v-.56zm5.131.452.156-.452h3.177v.56h-1.667v-.514l-.177.513h-2.98l-.176-.513v.513h-1.667v-.559h3.177zm-12.777-.96h-1.669v-.559h1.668zm4.443 0h-1.666v-.559h1.666zm3.486-.559q0 .29-.075.559H18.89v-.559zm4.515.559h-3.001v-.559h2.81zm3.666 0h-3l.192-.559h2.808zm-15-1.066H10v-.559h3.888zm6.536-.559q.143.26.222.559h-6.203v-.559zm4.43.559h-3.742v-.559h3.55zm5.146 0h-3.742l.19-.559H30zm-16.112-1.066H10v-.559h3.888zm4.698-.559c.55 0 1.055.215 1.428.56h-5.57v-.56zm5.899.56h-3.373v-.56h3.18zm5.515 0h-3.373l.192-.56H30z"/></g><defs><clipPath id="ibmon_svg-a"><path fill="#fff" d="M0 0h40v40H0z"/></clipPath></defs></svg>