<?xml version="1.0" encoding="UTF-8"?>
<svg version="1.1" xmlns="http://www.w3.org/2000/svg" width="500" height="500">
<path d="M0 0 C0.91909149 0.00215515 1.83818298 0.0043103 2.78512573 0.00653076 C54.01026782 0.1987285 104.96661169 15.65793194 146.375 46.3125 C146.95717285 46.73917969 147.5393457 47.16585937 148.13916016 47.60546875 C155.06389624 52.70439648 161.57791526 58.14674809 167.8828125 64.00390625 C170.07209164 66.03190621 172.29799995 67.99461183 174.5625 69.9375 C182.34806607 76.74195815 188.96709438 84.20649938 195.375 92.3125 C196.56609375 93.79556641 196.56609375 93.79556641 197.78125 95.30859375 C222.31078736 126.39745359 238.65189378 162.83868446 246.625 201.5625 C246.77622314 202.29299561 246.92744629 203.02349121 247.08325195 203.77612305 C250.0524564 219.15529437 250.74842002 234.37476521 250.6875 250 C250.68476578 251.4567514 250.68476578 251.4567514 250.68197632 252.94293213 C250.63775255 266.93291134 250.26830981 280.578294 247.375 294.3125 C247.19275879 295.21468262 247.01051758 296.11686523 246.82275391 297.04638672 C245.49983488 303.51067526 243.99719393 309.91724044 242.375 316.3125 C242.10115479 317.41489014 242.10115479 317.41489014 241.82177734 318.53955078 C235.28441412 344.3690773 223.15757081 370.83066751 207.375 392.3125 C206.94251953 392.91046387 206.51003906 393.50842773 206.06445312 394.12451172 C197.08488286 406.51915174 187.50993879 418.29078232 176.75 429.1875 C176.24082031 429.70602539 175.73164063 430.22455078 175.20703125 430.75878906 C171.62156894 434.3125 171.62156894 434.3125 169.375 434.3125 C169.375 434.9725 169.375 435.6325 169.375 436.3125 C166.40279439 439.07623428 163.17646717 441.53266324 159.98681641 444.04052734 C158.45393178 445.25021061 156.93551434 446.47816012 155.41796875 447.70703125 C111.39304027 482.68961242 56.71883863 500.86254634 0.75 500.625 C-0.16909149 500.62284485 -1.08818298 500.6206897 -2.03512573 500.61846924 C-40.21132518 500.47523139 -76.25718959 492.00461598 -110.625 475.3125 C-111.34606934 474.96493652 -112.06713867 474.61737305 -112.81005859 474.25927734 C-136.57733618 462.65917221 -157.55869473 446.50844612 -176.625 428.3125 C-177.49769531 427.48105469 -178.37039062 426.64960938 -179.26953125 425.79296875 C-185.21147529 419.99706327 -190.55582775 413.87883342 -195.625 407.3125 C-196.14078613 406.65137207 -196.65657227 405.99024414 -197.18798828 405.30908203 C-225.20150601 369.19000705 -242.81161776 326.63951227 -248.625 281.3125 C-248.71232895 280.64062653 -248.7996579 279.96875305 -248.88963318 279.27651978 C-249.5655594 273.69796806 -249.7989823 268.19848475 -249.828125 262.58203125 C-249.83509399 261.67715973 -249.84206299 260.77228821 -249.84924316 259.83999634 C-249.86655049 256.93494979 -249.87296308 254.03009596 -249.875 251.125 C-249.87600708 250.13484894 -249.87701416 249.14469788 -249.87805176 248.12454224 C-249.86828138 233.95735716 -249.43068782 220.2381445 -246.625 206.3125 C-246.34227367 204.74245263 -246.06103877 203.17213601 -245.78125 201.6015625 C-239.67224661 168.83201638 -226.42306449 135.27327888 -206.625 108.3125 C-205.90828125 107.32507813 -205.1915625 106.33765625 -204.453125 105.3203125 C-164.9303125 51.76008729 -107.2362223 12.86753724 -40.67550659 2.61564636 C-27.09913964 0.6085198 -13.71263526 -0.0582 0 0 Z " fill="#6818AD" transform="translate(249.625,-0.3125)"/>
<path d="M0 0 C6.27 0 12.54 0 19 0 C19 10.56 19 21.12 19 32 C24.28 32 29.56 32 35 32 C35 21.44 35 10.88 35 0 C41.6 0 48.2 0 55 0 C55 10.56 55 21.12 55 32 C57.97 32.33 60.94 32.66 64 33 C77.04377952 35.58092243 89.62655251 38.84184941 98 50 C102.9872411 59.61308791 104.90325451 70.45415529 101.8203125 81.02734375 C98.86511366 88.13389335 93.97162249 94.51418876 87 98 C87.75023437 98.25652344 88.50046875 98.51304687 89.2734375 98.77734375 C99.34153582 102.54337045 107.31512237 107.64633771 112.125 117.5625 C116.61179842 130.05234666 114.63029549 144.51399753 109.125 156.375 C102.77074425 167.89357597 92.32751512 173.3128764 80 177 C71.14242095 178.89524696 63.16878957 179 54 179 C54 189.89 54 200.78 54 212 C47.4 212 40.8 212 34 212 C34 201.44 34 190.88 34 180 C28.72 180 23.44 180 18 180 C18 190.56 18 201.12 18 212 C11.73 212 5.46 212 -1 212 C-1 201.11 -1 190.22 -1 179 C-14.2 179 -27.4 179 -41 179 C-39 162 -39 162 -37 156 C-35.89140625 155.95101562 -34.7828125 155.90203125 -33.640625 155.8515625 C-32.17705935 155.77650785 -30.71351888 155.70096119 -29.25 155.625 C-28.15558594 155.57859375 -28.15558594 155.57859375 -27.0390625 155.53125 C-21.71089086 155.26167333 -21.71089086 155.26167333 -17 153 C-15.34937074 149.69874148 -15.84365852 146.02061491 -15.83886719 142.39111328 C-15.83390228 141.49991791 -15.82893738 140.60872253 -15.82382202 139.69052124 C-15.80918216 136.73377722 -15.8023955 133.77708685 -15.796875 130.8203125 C-15.79112522 128.77009072 -15.78536747 126.71986896 -15.77960205 124.66964722 C-15.76908698 120.3671646 -15.76324757 116.0647007 -15.75976562 111.76220703 C-15.75427867 106.24497426 -15.73024841 100.727988 -15.70179367 95.2108326 C-15.68318459 90.97467319 -15.67796262 86.73857339 -15.67642975 82.50237656 C-15.67339897 80.46817552 -15.6653562 78.43397564 -15.65224457 76.39981461 C-15.63521965 73.55557665 -15.63705559 70.71194379 -15.64355469 67.86767578 C-15.6343399 67.02493103 -15.62512512 66.18218628 -15.6156311 65.31390381 C-15.63954911 61.97814258 -15.74291876 59.4799128 -17.33477783 56.50827026 C-20.09826802 54.00524685 -22.8793942 53.85130363 -26.44921875 53.68359375 C-27.21322998 53.64548584 -27.97724121 53.60737793 -28.7644043 53.56811523 C-29.72902588 53.52501221 -30.69364746 53.48190918 -31.6875 53.4375 C-34.760625 53.293125 -37.83375 53.14875 -41 53 C-41 46.07 -41 39.14 -41 32 C-27.47 32 -13.94 32 0 32 C0 21.44 0 10.88 0 0 Z " fill="#FEFDFE" transform="translate(218,142)"/>
<path d="M0 0 C1.22589844 -0.0299707 1.22589844 -0.0299707 2.4765625 -0.06054688 C14.80573217 -0.05094472 24.98460736 5.56667452 35.4375 11.5625 C36.6381674 12.24163396 37.83926372 12.92001015 39.04077148 13.59765625 C46.6755677 17.91546017 54.25739556 22.32283531 61.796875 26.8046875 C76.50533134 35.53315627 91.39645406 43.95872133 106.25 52.4375 C145.43577129 74.8080439 145.43577129 74.8080439 161.25 84.4375 C159.04903268 89.94586686 154.36147327 91.92400694 149.25 94.4375 C138.37136303 98.75365538 127.03054085 99.00229146 116.25 94.4375 C112.51060584 92.50547968 108.91534923 90.36161249 105.3125 88.1875 C103.17622617 86.91982284 101.0394915 85.65292203 98.90234375 84.38671875 C97.80519043 83.73364746 96.70803711 83.08057617 95.57763672 82.40771484 C90.20330612 79.22570106 84.78919287 76.1135397 79.375 73 C77.19264995 71.7422888 75.01035858 70.48447577 72.828125 69.2265625 C70.6354595 67.96346731 68.44275111 66.70044656 66.25 65.4375 C61.87457171 62.91740911 57.49949029 60.39671881 53.125 57.875 C52.05983154 57.26100342 50.99466309 56.64700684 49.8972168 56.0144043 C41.330351 51.07135593 32.784329 46.09306275 24.25146484 41.09155273 C21.58831977 39.53319055 18.91944439 37.9850373 16.25 36.4375 C15.42894775 35.95112061 14.60789551 35.46474121 13.76196289 34.96362305 C7.32220219 31.22950955 2.72817769 29.73906642 -4.75 31.4375 C-10.18665403 33.65305126 -15.16012295 36.80285306 -20.15429688 39.85888672 C-23.82209042 42.08950683 -27.53830078 44.23371967 -31.25244141 46.38598633 C-34.31121699 48.16051463 -37.36320157 49.94627811 -40.4140625 51.734375 C-46.80282089 55.47384646 -53.21123097 59.17862713 -59.625 62.875 C-60.69661377 63.49286377 -61.76822754 64.11072754 -62.87231445 64.74731445 C-68.46126711 67.96876821 -74.05229637 71.18659158 -79.64453125 74.40234375 C-81.90889545 75.70565745 -84.17321901 77.00904176 -86.4375 78.3125 C-87.52587158 78.93793701 -88.61424316 79.56337402 -89.7355957 80.20776367 C-95.010758 83.24709023 -100.2497395 86.32765118 -105.42871094 89.52807617 C-116.30958305 96.22497375 -125.87575795 99.13865889 -138.75 97.4375 C-146.42431629 95.38516856 -152.74747058 91.574959 -158.75 86.4375 C-157.4720314 82.6035942 -156.27549332 82.33113185 -152.78125 80.43359375 C-151.22603638 79.57822021 -151.22603638 79.57822021 -149.6394043 78.70556641 C-148.52090088 78.10147949 -147.40239746 77.49739258 -146.25 76.875 C-143.93282033 75.60166685 -141.61641429 74.32692488 -139.30078125 73.05078125 C-137.60236084 72.11806396 -137.60236084 72.11806396 -135.86962891 71.16650391 C-132.01769417 69.03163133 -128.21888799 66.81928366 -124.4375 64.5625 C-117.07079876 60.18292028 -109.63396505 55.92947461 -102.1875 51.6875 C-93.34736274 46.65054202 -84.52994892 41.57899795 -75.75 36.4375 C-62.47454993 28.66868031 -49.12507205 21.03314383 -35.75 13.4375 C-34.33509277 12.63094971 -34.33509277 12.63094971 -32.89160156 11.80810547 C-30.43127586 10.40735274 -27.96668367 9.01451773 -25.5 7.625 C-24.47447021 7.03960449 -24.47447021 7.03960449 -23.42822266 6.44238281 C-15.57953209 2.05374046 -9.05445299 -0.077089 0 0 Z " fill="#FDFCFE" transform="translate(248.75,46.5625)"/>
<path d="M0 0 C0.0702062 20.78451962 0.12304495 41.56901957 0.15543652 62.35363388 C0.17087893 72.00516483 0.19191804 81.65662193 0.22631836 91.30810547 C0.25630133 99.7242816 0.27559407 108.14040422 0.28226548 116.55663228 C0.28616271 121.00938752 0.29526654 125.46198974 0.31719017 129.91469574 C0.33769618 134.11387876 0.34380557 138.31284708 0.33932304 142.51207542 C0.34014198 144.04542651 0.34602304 145.57878549 0.35761642 147.11209297 C0.46924524 162.65039636 -2.19999913 179.09062406 -13.25 190.9375 C-20.9456716 197.58371044 -30.29451074 202.42430349 -39.0625 207.5 C-40.08907715 208.09675537 -41.1156543 208.69351074 -42.17333984 209.30834961 C-50.91101802 214.38275654 -59.66920677 219.42161586 -68.42602539 224.46289062 C-76.21157431 228.95131103 -83.9555917 233.50575746 -91.68334961 238.09277344 C-98.65274928 242.22232317 -105.66379005 246.27613868 -112.6875 250.3125 C-134.39262931 262.68480373 -134.39262931 262.68480373 -155.69799805 275.72363281 C-158 277 -158 277 -160.3125 276.6875 C-161.1478125 276.3471875 -161.1478125 276.3471875 -162 276 C-162.42541515 262.41822734 -162.32073034 250.86134693 -153 240 C-147.50251286 234.47265144 -140.93825433 230.85457797 -134.1875 227.0625 C-132.44623349 226.0712702 -130.70497338 225.08002894 -128.96411133 224.08808899 C-127.16568273 223.06456522 -125.3654693 222.04423956 -123.56494141 221.02441406 C-117.98383412 217.85973391 -112.43047371 214.64689091 -106.875 211.4375 C-105.26081177 210.50659546 -105.26081177 210.50659546 -103.61401367 209.55688477 C-95.41767794 204.82792138 -87.23994724 200.06763806 -79.07373047 195.28686523 C-73.73172156 192.16295325 -68.37575974 189.06544898 -63 186 C-61.82026204 185.32560909 -60.64057421 184.6511305 -59.4609375 183.9765625 C-57.21871336 182.69601463 -54.97406526 181.41969801 -52.7265625 180.1484375 C-39.0825932 172.69059049 -39.0825932 172.69059049 -31 160 C-30.90820665 158.20832578 -30.8753506 156.41339362 -30.87542725 154.61936951 C-30.87286423 153.50220047 -30.87030121 152.38503143 -30.86766052 151.23400879 C-30.86976028 150.0075061 -30.87186005 148.78100342 -30.87402344 147.51733398 C-30.87115564 145.53496095 -30.86827994 143.55258791 -30.86510801 141.57021534 C-30.86242663 139.43754436 -30.86198304 137.30488135 -30.86190033 135.17220879 C-30.86075893 130.72073045 -30.84791122 126.26933487 -30.83233643 121.81788635 C-30.82976357 121.06604252 -30.82719072 120.31419868 -30.8245399 119.5395717 C-30.81927312 118.00194734 -30.81398764 116.46432304 -30.80868387 114.9266988 C-30.77361285 104.56464534 -30.74701667 94.20269394 -30.74951172 83.84057617 C-30.75110445 76.85002337 -30.73496573 69.85975247 -30.69880509 62.86928993 C-30.68040653 59.17333458 -30.67094786 55.47784946 -30.68328094 51.78185844 C-30.69693288 47.65032866 -30.67168915 43.51988453 -30.64355469 39.38842773 C-30.65375137 38.17609467 -30.66394806 36.9637616 -30.67445374 35.71469116 C-30.54714116 25.25815614 -27.18330521 17.57781162 -20.10546875 9.890625 C-14.44584911 4.80851757 -7.74134558 -0.20371962 0 0 Z " fill="#FDFCFE" transform="translate(434,169)"/>
<path d="M0 0 C9.71005028 1.22721572 16.32438531 5.51636975 22.5 13.125 C27.6499678 19.9552539 30.12007538 24.97290054 30.13130188 33.59663391 C30.13531006 34.71102844 30.13931824 35.82542297 30.14344788 36.97358704 C30.14291916 38.18669052 30.14239044 39.39979401 30.1418457 40.6496582 C30.14717909 42.62234562 30.15251845 44.59503303 30.15808237 46.56771982 C30.16327088 48.68354232 30.16619018 50.79935863 30.16866493 52.91518593 C30.17459259 57.33267215 30.1911496 61.75007856 30.21000671 66.16752625 C30.2163436 67.68212218 30.22266923 69.19671817 30.22898388 70.7113142 C30.23214969 71.46968559 30.2353155 72.22805697 30.23857725 73.00940931 C30.28059335 83.28872952 30.3136247 93.56801171 30.32592773 103.84741211 C30.33431998 110.7881277 30.35685157 117.72864453 30.3952834 124.66926068 C30.41500128 128.33822997 30.42746287 132.00690247 30.42244911 135.67592812 C30.41692011 139.77161385 30.44225737 143.86656239 30.4699707 147.9621582 C30.46336929 149.169189 30.45676788 150.37621979 30.44996643 151.61982727 C30.52683044 158.5423065 31.24970204 163.12362237 35 169 C37.29683115 171.13716016 37.29683115 171.13716016 39.99609375 172.5625 C40.9691748 173.13226563 41.94225586 173.70203125 42.94482422 174.2890625 C44.45713623 175.13597656 44.45713623 175.13597656 46 176 C47.94923707 177.14580216 49.89845566 178.29163578 51.84765625 179.4375 C53.91785188 180.62747198 55.98952636 181.81487405 58.0625 183 C59.77677756 183.98466941 61.49105296 184.96934262 63.2052002 185.95423889 C64.9695131 186.96752547 66.73444333 187.97972932 68.49951172 188.99169922 C74.04656672 192.17289212 79.58592361 195.36744087 85.125 198.5625 C86.19999756 199.1824585 87.27499512 199.80241699 88.38256836 200.44116211 C96.6258256 205.19867787 104.85762504 209.9756322 113.0690918 214.7878418 C118.20093909 217.79422807 123.34649821 220.77198249 128.51953125 223.70703125 C129.59380371 224.32118896 130.66807617 224.93534668 131.77490234 225.56811523 C133.81068039 226.73121492 135.85104803 227.88633669 137.89697266 229.03149414 C148.04954416 234.85721595 155.66764081 240.89941702 160 252 C160.36867187 252.91007813 160.73734375 253.82015625 161.1171875 254.7578125 C162.22817126 258.83797411 162.25601045 262.54562215 162.1875 266.75 C162.1865332 267.90048828 162.1865332 267.90048828 162.18554688 269.07421875 C162.14091099 274.71817801 162.14091099 274.71817801 161 277 C156.61119967 276.04774725 153.00258187 273.94231865 149.125 271.75 C148.33544922 271.30744873 147.54589844 270.86489746 146.73242188 270.40893555 C139.67143285 266.42784207 132.69503519 262.30661559 125.7277832 258.16430664 C118.62388821 253.94421331 111.47741008 249.80302005 104.3125 245.6875 C95.33362759 240.52651563 86.40045979 235.29503128 77.5 230 C68.49514905 224.64299728 59.4562291 219.35149697 50.375 214.125 C49.29404053 213.50085205 48.21308105 212.8767041 47.09936523 212.23364258 C42.40747773 209.52621522 37.71066219 206.83140303 32.98046875 204.19140625 C21.29406818 197.61294392 10.620321 190.72345009 5 178 C4.1646875 176.2984375 4.1646875 176.2984375 3.3125 174.5625 C-0.24935762 164.89460074 -0.27810819 155.26556437 -0.22705078 145.08544922 C-0.22648569 143.49778755 -0.22680514 141.91012536 -0.22793579 140.32246399 C-0.22850648 136.04008835 -0.21679846 131.75782616 -0.20278788 127.47547674 C-0.19023289 122.98985218 -0.18910627 118.50422463 -0.18673706 114.01858521 C-0.18053625 105.53676915 -0.16414447 97.05500504 -0.14403808 88.57321179 C-0.1216354 78.91174417 -0.11067469 69.25027399 -0.10064721 59.58878684 C-0.07977693 39.72582898 -0.04462831 19.86291777 0 0 Z " fill="#FDFCFE" transform="translate(66,169)"/>
<path d="M0 0 C39.50493189 -0.42251264 39.50493189 -0.42251264 51.859375 9.4921875 C55.82029765 13.96491476 55.66388526 19.23330712 55.4140625 24.97265625 C54.66086274 30.47954126 52.03929157 33.33047063 47.875 36.6875 C40.16199545 41.84609014 30.36944058 43.13930936 21.2890625 43.09765625 C20.16709473 43.09515869 19.04512695 43.09266113 17.88916016 43.09008789 C16.4819873 43.08098389 15.07481445 43.07187988 13.625 43.0625 C6.880625 43.0315625 6.880625 43.0315625 0 43 C0 28.81 0 14.62 0 0 Z " fill="#691AAD" transform="translate(237,255)"/>
<path d="M0 0 C10.44420725 0.12855608 22.41954918 0.97123107 30.20410156 8.73535156 C34.02124694 13.07937052 35.03234185 16.43140038 34.92675781 22.19628906 C34.45888 26.75376557 32.34193977 29.5589498 29.34082031 32.87597656 C20.37561838 39.84142167 7.16483251 40.42751738 -3.72167969 40.31347656 C-4.54861328 40.30896484 -5.37554687 40.30445313 -6.22753906 40.29980469 C-8.24645115 40.28813468 -10.26532543 40.27020375 -12.28417969 40.25097656 C-12.30882744 34.71509123 -12.32701464 29.17923756 -12.33911133 23.64331055 C-12.34415213 21.75853927 -12.35098467 19.87377192 -12.35961914 17.98901367 C-12.37169586 15.2859602 -12.37741037 12.58295825 -12.38183594 9.87988281 C-12.38699722 9.03196671 -12.39215851 8.1840506 -12.3974762 7.31044006 C-12.39767164 5.29026588 -12.34624179 3.27019722 -12.28417969 1.25097656 C-9.91774383 -1.1154593 -3.32393604 0.00125007 0 0 Z " fill="#6B1EAF" transform="translate(249.2841796875,195.7490234375)"/>
</svg>
