<svg xmlns="http://www.w3.org/2000/svg" width="64" height="65" fill="none" viewBox="0 0 64 65"><g clip-path="url(#icp_svg-a)"><rect width="64" height="64" y=".304" fill="#fff" rx="32"/><g clip-path="url(#icp_svg-b)"><path fill="url(#icp_svg-c)" d="M45.633 18c-3.065 0-6.423 1.697-9.964 5.046-1.67 1.573-3.142 3.285-4.215 4.64 0 0 1.717 2.01 3.602 4.174 1.027-1.308 2.484-3.084 4.185-4.688 3.142-2.99 5.197-3.597 6.377-3.597 4.415 0 8.002 3.769 8.002 8.425 0 4.61-3.587 8.378-8.002 8.425a4 4 0 0 1-.767-.093c1.288.607 2.683 1.043 3.986 1.043 8.094 0 9.688-5.684 9.78-6.09a15 15 0 0 0 .368-3.254C58.969 24.291 52.99 18 45.633 18"/><path fill="url(#icp_svg-d)" d="M17.351 46c3.066 0 6.423-1.697 9.964-5.046 1.671-1.572 3.143-3.285 4.216-4.64 0 0-1.717-2.01-3.603-4.174-1.027 1.308-2.483 3.084-4.184 4.688-3.143 2.958-5.212 3.597-6.377 3.597-4.415 0-8.002-3.769-8.002-8.425 0-4.61 3.587-8.378 8.002-8.425.214 0 .46.031.766.094-1.287-.608-2.682-1.044-3.985-1.044-8.094-.015-9.688 5.669-9.78 6.09A15 15 0 0 0 4 31.968C4 39.709 9.978 46 17.351 46"/><path fill="#29ABE2" fill-rule="evenodd" d="M23.514 27.297c-.89-.872-5.212-4.438-9.351-4.563-7.388-.187-9.55 5.264-9.75 5.965C5.84 22.594 11.114 18.03 17.368 18c5.104 0 10.27 5.092 14.087 9.686l.015-.015s1.717 2.009 3.603 4.173c0 0 2.146 2.57 4.414 4.828.89.872 5.197 4.391 9.336 4.516 7.587.218 9.688-5.544 9.795-5.98-1.395 6.151-6.684 10.73-12.968 10.76-5.105 0-10.27-5.092-14.103-9.686 0 .016-.015.016-.015.032 0 0-1.717-2.01-3.603-4.174.016 0-2.13-2.585-4.414-4.843" clip-rule="evenodd"/></g></g><rect width="63" height="63" x=".5" y=".804" stroke="#070B14" stroke-opacity=".15" rx="31.5"/><defs><linearGradient id="icp_svg-c" x1="17.987" x2="38.347" y1="20.658" y2="54.348" gradientUnits="userSpaceOnUse"><stop offset=".21" stop-color="#F15A24"/><stop offset=".684" stop-color="#FBB03B"/></linearGradient><linearGradient id="icp_svg-d" x1="45.008" x2="24.647" y1="43.346" y2="9.655" gradientUnits="userSpaceOnUse"><stop offset=".21" stop-color="#ED1E79"/><stop offset=".893" stop-color="#522785"/></linearGradient><clipPath id="icp_svg-a"><rect width="64" height="64" y=".304" fill="#fff" rx="32"/></clipPath><clipPath id="icp_svg-b"><path fill="#fff" d="M4 18h55v28H4z"/></clipPath></defs></svg>