<?xml version="1.0" encoding="UTF-8"?>
<svg version="1.1" xmlns="http://www.w3.org/2000/svg" width="64" height="64">
<path d="M0 0 C7.45749546 5.35696757 13.09330159 12.33719812 14.65625 21.55859375 C15.51318934 32.66764376 13.85472937 40.8219794 6.6796875 49.48046875 C-0.13018334 56.47439016 -7.50604292 59.56411818 -17.21875 59.87109375 C-27.14748165 59.64853189 -34.20437056 56.51009479 -41.34375 49.55859375 C-48.43517237 40.98221542 -50.23371865 32.53965858 -49.34375 21.55859375 C-47.75711304 12.48591515 -42.28822701 5.35509465 -34.84375 0.12109375 C-24.12496193 -6.38223817 -10.73896721 -6.60446484 0 0 Z " fill="#1DEEA3" transform="translate(49.34375,4.44140625)"/>
<path d="M0 0 C0.97646484 -0.02384766 1.95292969 -0.04769531 2.95898438 -0.07226562 C7.58306341 -0.06286072 11.00662858 -0.01717081 14.69140625 2.97265625 C19.2244858 7.92394412 18.35431441 12.85427338 18.4375 19.3125 C18.49357422 20.94058594 18.49357422 20.94058594 18.55078125 22.6015625 C18.64972746 31.59467365 18.64972746 31.59467365 15.7265625 35.265625 C10.94567782 39.38756076 6.19022753 38.77834508 0.1875 38.8125 C-0.71097656 38.833125 -1.60945313 38.85375 -2.53515625 38.875 C-7.49791596 38.90432207 -10.92204774 38.824063 -14.9375 35.5625 C-19.233358 30.8063715 -19.14181963 25.93398027 -19.1875 19.75 C-19.208125 19.06357422 -19.22875 18.37714844 -19.25 17.66992188 C-19.29608176 11.58136887 -17.91803078 6.93682052 -13.93359375 2.16015625 C-9.36966809 -0.27354074 -5.09343204 -0.05692856 0 0 Z " fill="#1EEFA4" transform="translate(31.9375,12.4375)"/>
<path d="M0 0 C0.97646484 -0.02384766 1.95292969 -0.04769531 2.95898438 -0.07226562 C7.58306341 -0.06286072 11.00662858 -0.01717081 14.69140625 2.97265625 C19.2244858 7.92394412 18.35431441 12.85427338 18.4375 19.3125 C18.49357422 20.94058594 18.49357422 20.94058594 18.55078125 22.6015625 C18.64972746 31.59467365 18.64972746 31.59467365 15.7265625 35.265625 C10.94567782 39.38756076 6.19022753 38.77834508 0.1875 38.8125 C-0.71097656 38.833125 -1.60945313 38.85375 -2.53515625 38.875 C-7.49791596 38.90432207 -10.92204774 38.824063 -14.9375 35.5625 C-19.233358 30.8063715 -19.14181963 25.93398027 -19.1875 19.75 C-19.208125 19.06357422 -19.22875 18.37714844 -19.25 17.66992188 C-19.29608176 11.58136887 -17.91803078 6.93682052 -13.93359375 2.16015625 C-9.36966809 -0.27354074 -5.09343204 -0.05692856 0 0 Z M-12.53125 6.96875 C-14.75009099 11.06127894 -14.51599853 14.98341891 -14.4375 19.5625 C-14.45296875 20.46484375 -14.4684375 21.3671875 -14.484375 22.296875 C-14.46193619 26.08903462 -14.35493841 28.79255804 -12.53125 32.15625 C-8.43872106 34.37509099 -4.51658109 34.14099853 0.0625 34.0625 C1.41601562 34.08570313 1.41601562 34.08570313 2.796875 34.109375 C6.58903462 34.08693619 9.29255804 33.97993841 12.65625 32.15625 C14.87509099 28.06372106 14.64099853 24.14158109 14.5625 19.5625 C14.57796875 18.66015625 14.5934375 17.7578125 14.609375 16.828125 C14.58693619 13.03596538 14.47993841 10.33244196 12.65625 6.96875 C8.56372106 4.74990901 4.64158109 4.98400147 0.0625 5.0625 C-0.83984375 5.04703125 -1.7421875 5.0315625 -2.671875 5.015625 C-6.46403462 5.03806381 -9.16755804 5.14506159 -12.53125 6.96875 Z " fill="#000000" transform="translate(31.9375,12.4375)"/>
<path d="M0 0 C1.2065625 0.0309375 1.2065625 0.0309375 2.4375 0.0625 C3.0625 2.4375 3.0625 2.4375 3.4375 5.0625 C2.7775 5.7225 2.1175 6.3825 1.4375 7.0625 C-0.6875 6.6875 -0.6875 6.6875 -2.5625 6.0625 C-2.94468767 4.40635343 -3.27645102 2.73792976 -3.5625 1.0625 C-2.5625 0.0625 -2.5625 0.0625 0 0 Z " fill="#000000" transform="translate(38.5625,35.9375)"/>
<path d="M0 0 C2.125 0.375 2.125 0.375 4 1 C4.38218767 2.65614657 4.71395102 4.32457024 5 6 C4 7 4 7 1.4375 7.0625 C0.2309375 7.0315625 0.2309375 7.0315625 -1 7 C-1.625 4.625 -1.625 4.625 -2 2 C-1.34 1.34 -0.68 0.68 0 0 Z " fill="#000000" transform="translate(37,25)"/>
</svg>
