<svg xmlns="http://www.w3.org/2000/svg" width="64" height="65" fill="none" viewBox="0 0 64 65"><rect width="64" height="64" y=".304" fill="#fff" rx="32"/><rect width="63" height="63" x=".5" y=".804" stroke="#070B14" stroke-opacity=".15" rx="31.5"/><path fill="url(#inj_svg-a)" d="M11.15 14.297c.343-.43.705-.843 1.067-1.256.016-.02.053-.025.07-.046.032-.04.085-.065.117-.106l.033-.04c.252-.234.521-.488.83-.71 1.097-.832 2.234-1.464 3.434-1.88 3.846-1.35 8.128-.518 11.486 2.652 4.689 4.395 4.27 11.475.526 16.18-4.73 7.016-12.858 16.803-1.604 25.57 2.024 1.577 3.525 2.876 9.9 4.718-4.17.768-8.035.53-12.337-.57-3.044-1.717-7.828-5.395-9.456-10.362-2.46-7.533 4.332-18.793 7.614-23.13 4.507-6.002-2.786-12.5-8.154-5.246-2.806 3.78-7.716 14.478-6.01 22.412.998 4.5 2.327 7.78 7.6 12.286a25 25 0 0 1-2.849-1.964C1.168 41.395 2.59 23.754 11.151 14.297"/><path fill="url(#inj_svg-b)" d="M52.85 50.31c-.342.43-.704.844-1.067 1.257-.016.02-.053.025-.069.045-.032.041-.085.066-.118.107l-.032.04c-.253.234-.522.488-.831.71-1.096.831-2.234 1.463-3.433 1.88-3.847 1.35-8.129.517-11.487-2.653-4.689-4.395-4.269-11.474-.526-16.18 4.73-7.015 12.858-16.802 1.604-25.57-2.023-1.576-3.525-2.876-9.899-4.718 4.17-.768 8.034-.529 12.337.57 3.043 1.718 7.828 5.396 9.456 10.363 2.46 7.532-4.332 18.793-7.614 23.13-4.507 6.002 2.785 12.5 8.154 5.246 2.806-3.78 7.715-14.478 6.01-22.413-.998-4.5-2.328-7.78-7.6-12.285a25 25 0 0 1 2.848 1.963c12.25 11.41 10.828 29.052 2.267 38.509"/><defs><linearGradient id="inj_svg-a" x1="4.477" x2="59.523" y1="32.305" y2="32.305" gradientUnits="userSpaceOnUse"><stop stop-color="#0082FA"/><stop offset="1" stop-color="#00F2FE"/></linearGradient><linearGradient id="inj_svg-b" x1="4.477" x2="59.524" y1="32.302" y2="32.302" gradientUnits="userSpaceOnUse"><stop stop-color="#0082FA"/><stop offset="1" stop-color="#00F2FE"/></linearGradient></defs></svg>