<svg xmlns="http://www.w3.org/2000/svg" width="40" height="40" fill="none" viewBox="0 0 40 40"><g clip-path="url(#intcon_svg-a)"><path fill="#CCE3F3" d="M20 0c11.046 0 20 8.954 20 20s-8.954 20-20 20S0 31.046 0 20 8.954 0 20 0"/><path fill="#0071C5" d="M26 6a8 8 0 0 1 8 8v12a8 8 0 0 1-8 8H14a8 8 0 0 1-8-8V14a8 8 0 0 1 8-8z"/><g clip-path="url(#intcon_svg-b)"><path fill="#fff" d="M28.504 15.782V24.1H30v-8.318zM10 15.899v1.575h1.574v-1.575zm8.862.32v5.484q0 .699.118 1.171.12.463.399.75c.184.19.43.326.727.41q.456.125 1.138.123h.195v-1.39a3.4 3.4 0 0 1-.537-.033.6.6 0 0 1-.353-.157.63.63 0 0 1-.157-.342 4 4 0 0 1-.034-.549V19.71h1.081v-1.283h-1.08V16.22zm-3.176 2.095a2.2 2.2 0 0 0-.98.218 2.1 2.1 0 0 0-.745.605l-.079.106v-.817h-1.473v5.669h1.485v-2.912q.023-.799.392-1.178a1.28 1.28 0 0 1 .946-.403c.432 0 .762.135.98.392.214.258.326.622.326 1.088v3.012h1.507v-3.215c.005-.807-.208-1.445-.622-1.894q-.624-.672-1.737-.671m9.12.005a2.95 2.95 0 0 0-2.089.857 2.9 2.9 0 0 0-.627.936 2.85 2.85 0 0 0-.23 1.154q0 .616.218 1.154a2.8 2.8 0 0 0 1.558 1.563 3.1 3.1 0 0 0 1.216.236c1.266 0 2.05-.577 2.521-1.114l-1.076-.82c-.224.27-.762.634-1.434.634-.42 0-.768-.095-1.031-.291a1.44 1.44 0 0 1-.538-.79l-.017-.051h4.454v-.532q-.002-.612-.213-1.148a3.1 3.1 0 0 0-.599-.936 2.7 2.7 0 0 0-.924-.627 3 3 0 0 0-1.188-.225m-14.767.107v5.669h1.496v-5.67zm14.75 1.165c1.026 0 1.508.723 1.508 1.137l-3.008.006c0-.415.476-1.137 1.5-1.143"/></g></g><defs><clipPath id="intcon_svg-a"><path fill="#fff" d="M0 0h40v40H0z"/></clipPath><clipPath id="intcon_svg-b"><path fill="#fff" d="M10 10h20v20H10z"/></clipPath></defs></svg>