<svg xmlns="http://www.w3.org/2000/svg" width="40" height="40" fill="none" viewBox="0 0 40 40"><g clip-path="url(#intuon_svg-a)"><path fill="#D3E2FF" d="M20 0c11.046 0 20 8.954 20 20s-8.954 20-20 20S0 31.046 0 20 8.954 0 20 0"/><path fill="#236CFF" d="M26 6a8 8 0 0 1 8 8v12a8 8 0 0 1-8 8H14a8 8 0 0 1-8-8V14a8 8 0 0 1 8-8z"/><g clip-path="url(#intuon_svg-b)"><path fill="#fff" d="M20.267 20.317c0 .978.811 1.694 1.842 1.694 1.03 0 1.843-.716 1.843-1.694v-2.25h-.998V20.2c0 .527-.367.883-.847.883-.481 0-.848-.353-.848-.883v-2.133h-.998l.006 2.249m6.353-1.35h1.19v2.97h1v-2.97H30v-.9h-3.38zm-.645-.9h-.998v3.87h.998zm-9.74.9h1.192v2.97h.997v-2.97h1.19v-.9h-3.38zm-5.237-.9H10v3.87h.998zm4.711 1.616c0-.978-.812-1.693-1.843-1.693-1.032 0-1.844.715-1.844 1.693v2.255h.999v-2.134c0-.527.366-.883.847-.883s.849.354.849.883v2.134h.997z"/></g></g><defs><clipPath id="intuon_svg-a"><path fill="#fff" d="M0 0h40v40H0z"/></clipPath><clipPath id="intuon_svg-b"><path fill="#fff" d="M10 10h20v20H10z"/></clipPath></defs></svg>