<svg version="1.2" xmlns="http://www.w3.org/2000/svg" viewBox="0 0 300 300" width="300" height="300">
	<style>
		.s0 { opacity: 1;fill: #ec753f } 
		.s1 { opacity: 1;fill: #ee843b } 
		.s2 { opacity: 1;fill: #e96443 } 
		.s3 { opacity: 1;fill: #e2554c } 
		.s4 { opacity: 1;fill: #ad3280 } 
		.s5 { opacity: 1;fill: #be387a } 
		.s6 { opacity: 1;fill: #d64c5b } 
		.s7 { opacity: 1;fill: #ca426b } 
		.s8 { opacity: .44;fill: #eb7140 } 
		.s9 { opacity: .65;fill: #ce4566 } 
		.s10 { opacity: .75;fill: #ea6f41 } 
		.s11 { opacity: .19;fill: #e56249 } 
		.s12 { opacity: .24;fill: #bb3978 } 
		.s13 { opacity: .66;fill: #b1337f } 
	</style>
	<g id="Background">
		<path id="Path 0" class="s0" d="m202.63 38.7c-0.41 2.64-1.44 7.27-2.29 10.3-1.46 5.25-1.43 5.68 0.57 9.5 1.7 3.24 2.1 5.79 2.1 13.5 0.01 7.25-0.42 10.33-1.81 13-1.82 3.5-1.82 3.5 1.49 12.75 1.82 5.09 3.76 9.03 4.31 8.75 0.55-0.28 1.4 0.29 1.89 1.25 0.74 1.44 1.03 1.13 1.61-1.75 0.39-1.93 1.68-4.52 2.86-5.78 1.9-2.01 3.08-2.27 10.39-2.25 8.21 0.03 8.25 0.02 8.79-2.72 0.29-1.51 0.73-8.6 0.98-15.75 0.31-9.05 1.17-15.88 2.81-22.5 1.3-5.23 2.21-9.84 2.02-10.25-0.19-0.41-3.05-2.1-6.35-3.75-3.3-1.65-9.71-4.07-14.25-5.38-4.54-1.31-9.63-2.68-11.31-3.05-3.02-0.67-3.08-0.61-3.81 4.13zm5.85 85.8c-0.27 0.83-0.82 1.3-1.23 1.05-0.41-0.25-1.54 1.1-2.5 3-0.99 1.95-1.3 3.45-0.7 3.45 0.57 0 2.15-1.13 3.5-2.5 1.35-1.38 2.45-3.4 2.45-4.5 0-1.1-0.24-2-0.52-2-0.29 0-0.74 0.67-1 1.5zm5.52 11.42c-2.77 2.85-2.85 3.23-2.92 14-0.08 11.02-0.06 11.1 2.92 14.08 2.82 2.82 3.48 3 10.75 3.01h7.75c1.14-13.29 0.94-19.92 0.21-25.27l-1.21-8.77c-14.1 0.03-14.87 0.25-17.5 2.95zm-10.93 33.33c0.04 0.69 0.91 3.05 1.93 5.25 1.63 3.51 1.87 3.69 1.96 1.5l0.11-2.5 2.86 5c0.06-4.39-0.94-6.51-2.43-8-1.37-1.37-2.95-2.5-3.5-2.5-0.55 0-0.97 0.56-0.93 1.25zm3.04 20.75c-0.09 0.82-1.94 6-4.11 11.5l-3.94 10c4.2 4.4 4.47 5.87 4.73 15.83 0.22 8.76-0.05 11.66-1.25 13.42-1.37 2-1.38 2.78-0.08 7 0.8 2.61 1.93 7.79 2.5 11.5l1.04 6.75c14.34-3.94 22.21-6.86 26.75-9.04 4.54-2.18 8.24-4.52 8.23-5.21-0.01-0.69-0.71-4.4-1.56-8.25-0.85-3.85-1.93-13.3-2.41-21-0.48-7.7-1.13-15.24-1.44-16.75-0.57-2.73-0.64-2.75-9.49-3-7.98-0.22-9.19-0.51-11.5-2.75-1.53-1.49-2.82-4.12-3.19-6.5-0.57-3.74-0.7-3.87-1.96-2-1.31 1.95-1.35 1.93-1.75-0.5-0.22-1.38-0.48-1.82-0.57-1z"/>
		<path id="Path 1" class="s1" d="m238.64 48.17c-0.31 0.73-1.52 5.38-2.69 10.33-1.38 5.82-2.26 13.42-2.5 21.5-0.21 6.87-0.61 13.74-0.91 15.25-0.52 2.67-0.41 2.75 3.96 2.75 3.78 0 4.9 0.48 7 3 2.35 2.82 2.5 3.7 2.5 14.5 0 10.49-0.2 11.73-2.25 14.08-1.59 1.83-3.67 2.78-7.07 3.25l-4.81 0.67c1.26 10.07 1.52 17.61 1.38 23.25l-0.25 10.25c6.06 0 7.81 0.81 10 3 2.97 2.97 3 3.11 3 14 0 7.78-0.44 11.88-1.5 14-1.13 2.25-2.64 3.31-6.05 4.25-4.16 1.14-4.5 1.47-3.94 3.75 0.35 1.37 1.02 8.8 1.5 16.5 0.48 7.7 1.6 17.37 2.5 21.5 0.9 4.12 1.81 7.72 2.03 8 0.22 0.28 3.12-2.43 6.46-6 3.33-3.57 7.58-9.43 9.44-13 1.85-3.57 4.53-10.32 5.94-15 1.41-4.68 3.25-12.78 4.09-18 0.84-5.22 1.99-17.6 2.56-27.5 0.71-12.43 0.71-24.81-0.01-40-0.58-12.1-1.73-26.28-2.56-31.5-0.83-5.22-2.4-12.76-3.49-16.75-1.08-3.99-3.35-10.29-5.03-14-1.68-3.71-4.94-9.17-7.25-12.13-2.3-2.96-5.83-6.71-7.84-8.34-2.7-2.17-3.8-2.6-4.21-1.61z"/>
		<path id="Path 2" class="s2" d="m166 33.75c0 1.51 0.46 6.58 1.04 11.25 0.57 4.67 1.24 9.29 1.5 10.25 0.42 1.6 0.7 1.62 3.21 0.26 1.93-1.05 5.81-1.5 13-1.5 5.64-0.01 11.04 0.41 12 0.92 1.52 0.8 1.98 0.05 3.5-5.75 0.97-3.68 2.03-8.57 2.37-10.88 0.56-3.84 0.41-4.25-1.75-4.71-1.3-0.28-6.98-0.98-12.62-1.55-5.64-0.57-12.95-1.04-16.25-1.04-5.88 0-6 0.06-6 2.75zm30.96 55.28c-0.8 0.52-6.54 0.95-12.76 0.95-10.71 0.02-11.42 0.15-13.75 2.52-2.31 2.36-2.45 3.14-2.45 14 0 11.33-0.04 11.55-3 15l-3 3.5 8.09 24.5c-2.35 9.3-4.11 15.15-5.44 19l-2.41 7c5.7 6.43 5.76 6.75 5.72 17.75-0.04 9.68 0.23 11.6 1.91 13.75 1.85 2.37 2.62 2.53 14.79 3.1 7.06 0.33 13.16 0.33 13.55 0 0.4-0.33 2.52-5.32 4.72-11.1 2.21-5.78 4.01-9.38 4.02-8 0.02 2.44 0.05 2.45 1.5 0.5 0.86-1.16 1.5-4.22 1.52-7.25 0.02-2.89-0.53-6.45-1.22-7.91l-1.25-2.67c-1.03 4.51-1.36 4.15-3.05-0.36l-1.95-5.19c-21.24-0.61-21.78-0.73-24.09-3.37-2.25-2.57-2.41-3.52-2.41-14.25 0-6.32 0.45-12.4 1-13.5 0.55-1.1 2.35-2.68 4-3.5 2.04-1.02 6.06-1.5 12.5-1.5h9.5c3.03-5.81 3.92-7.05 3.94-6.5 0.01 0.55 0.69 0.1 1.51-1 0.93-1.25 1.5-4.33 1.52-8.25 0.02-3.44-0.42-7.15-0.97-8.25-0.55-1.1-1.34-1.79-1.75-1.54-0.41 0.26-2.27-3.45-4.13-8.25-1.85-4.79-3.67-9.03-4.04-9.42-0.36-0.39-1.32-0.28-2.12 0.24zm-27.4 155.78c-0.21 0.38-1.07 4.29-1.91 8.69-0.84 4.4-1.78 9.69-2.09 11.75l-0.56 3.75c10.46 0 19.35-0.69 26.5-1.54 7.15-0.85 13.13-1.64 13.29-1.75 0.17-0.12-0.36-3.81-1.16-8.21-0.8-4.4-1.92-9.28-2.49-10.85-0.82-2.26-1.41-2.68-2.84-2.03-0.99 0.46-6.52 0.97-12.3 1.14-5.78 0.18-11.75-0.12-13.28-0.66-1.53-0.54-2.95-0.67-3.16-0.29z"/>
		<path id="Path 3" class="s3" d="m136.63 39.75c-0.35 5.36-1.09 12.45-1.64 15.75-0.55 3.3-1.29 9.38-1.65 13.5l-0.64 7.5 8.3 12.5c19.14 0 20.24-0.21 22.75-2.41 2.64-2.32 2.78-2.92 3.5-15.25 0.41-7.06 0.81-13.74 0.9-14.84 0.09-1.1-0.44-7.17-1.17-13.5-0.72-6.33-1.81-11.83-2.4-12.23-0.59-0.41-6.99-0.75-14.2-0.75l-13.12-0.02zm14.62 84.95l-8.25 0.3c-3.16 12.29-3.99 18.82-4 23.5 0 4.4 0.69 10.7 1.54 14 0.85 3.3 1.96 7.57 2.47 9.5l0.94 3.5h18.36c2.93-8.53 4.66-14.26 5.74-18.25l1.95-7.25c-6.59-20.16-8.95-25.92-9.5-25.8-0.55 0.11-4.71 0.34-9.25 0.5zm-12.85 92.44c-1.6 3.38-3.01 5.41-3.15 4.5-0.14-0.9-0.7-1.42-1.25-1.14-0.55 0.28-1 3.2-1 6.5 0 3.3 0.45 6.22 1 6.5 0.55 0.28 0.99-0.06 0.98-0.75q-0.01-1.23 0.92-0.25c0.51 0.55 1.81 3.7 2.88 7 1.08 3.3 2.47 10.05 3.1 15 0.62 4.95 1.24 10.35 1.38 12l0.24 3c20.07 0.49 20.54 0.4 21.37-1.75 0.47-1.24 1.16-4.73 1.53-7.75 0.37-3.02 1.33-7.86 2.13-10.75 1.3-4.63 1.29-5.57-0.02-8-1.06-1.95-1.5-5.87-1.5-13.5-0.01-10.61-0.05-10.79-3.01-13.75-2.93-2.93-3.24-3-12.85-3h-9.86z"/>
		<path id="Path 4" class="s4" d="m48.72 58.58c-2.6 3.26-6.13 9.3-7.84 13.42-1.72 4.13-3.97 10.88-5.02 15-1.05 4.13-2.58 12.67-3.41 19-0.82 6.33-1.77 19.6-2.1 29.5-0.33 9.9-0.1 26.55 0.53 37 0.62 10.45 1.79 23.05 2.6 28 0.81 4.95 2.42 12.38 3.56 16.5 1.15 4.13 3.61 10.65 5.46 14.5 1.86 3.85 5.32 9.22 7.69 11.92 3.14 3.6 4.68 4.68 5.67 4 0.75-0.5 1.14-1.6 0.87-2.42-0.28-0.82 0.31-3.97 1.29-7 0.99-3.03 2.34-10.68 3.01-17 0.67-6.32 1.6-12.85 2.07-14.5 0.6-2.1 0.49-3.22-0.37-3.73-0.68-0.41-1.79-0.75-2.48-0.75-0.69-0.01-2.37-1.37-3.75-3.02-2.33-2.79-2.5-3.75-2.5-13.75 0.01-8.99 0.33-11.28 2-14q2-3.25 5-3.75l3-0.5c-2.94-8.45-3.17-11.59-2.72-19 0.32-5.22 1.07-9.95 1.67-10.5 0.6-0.55 1.08-1.79 1.07-2.75-0.01-1.08-0.79-1.75-2.02-1.75-1.1 0-3.24-1.09-4.75-2.41-2.66-2.34-2.76-2.79-3.1-14.25-0.34-11.33-0.25-11.97 2.08-14.84 1.35-1.65 3.64-3.34 5.11-3.75 2.14-0.6 2.55-1.19 2.09-3-0.32-1.24-1.2-4.72-1.96-7.75-0.76-3.03-2.06-8.87-2.89-13-0.84-4.12-2.33-10.61-3.32-14.42l-1.81-6.91z"/>
		<path id="Path 5" class="s5" d="m75.5 39.58c-3.85 1.37-8.8 3.55-11 4.84-2.2 1.28-5.46 3.51-7.25 4.96-1.94 1.57-3.24 3.52-3.23 4.87 0 1.24 0.95 5.4 2.1 9.25 1.15 3.85 2.71 10.6 3.47 15 0.77 4.4 2.18 10.38 3.15 13.28l1.76 5.28c13.56 0.34 18.04 0.44 18.69 0.44 0.71 0 2.29-4.89 3.89-12 2.47-11 2.6-12.5 1.45-18-0.68-3.3-1.75-8.7-2.37-12-0.63-3.3-1.39-8.81-1.69-12.25-0.31-3.44-0.88-6.23-1.26-6.21-0.39 0.02-3.86 1.16-7.71 2.54zm-11.48 95.17c0.01 0.96-0.56 2.33-1.25 3.05-0.87 0.89-1.27 4.81-1.27 12.5 0 6.83 0.49 12.27 1.25 13.95 1.24 2.72 1.35 2.75 10.83 2.75 9.32 0 9.65-0.08 12.5-3 2.87-2.95 2.92-3.19 2.92-14 0-10.89-0.03-11.03-3-14-2.91-2.91-3.28-3-12.5-3-8.39 0-9.5 0.2-9.48 1.75zm9.23 67.96l-9.25 0.29c-1.47 5.81-2.42 12.45-3.05 18.5-0.62 6.05-1.95 13.48-2.95 16.5-0.99 3.03-1.62 6.06-1.4 6.75 0.22 0.69-0.05 1.93-0.6 2.75-0.78 1.17-0.07 2.18 3.25 4.59 2.34 1.7 5.83 3.89 7.75 4.86 1.92 0.98 6.31 2.74 9.75 3.91 3.44 1.18 6.59 2.14 7 2.14 0.41 0.01 1.33-2.81 2.04-6.25 0.72-3.44 1.92-8.95 2.67-12.25 0.75-3.3 1.41-4.87 1.46-3.5 0.06 1.96 0.73 1.2 3.06-3.5 1.64-3.3 3.55-6.79 4.25-7.75 1.04-1.42 1-2.15-0.2-4-0.81-1.24-2.7-4.72-4.2-7.75l-2.73-5.5c-0.26 7.59-0.57 7.05-3.09-1.25-1.55-5.09-3.19-9.16-3.66-9.04-0.47 0.11-5.01 0.34-10.1 0.5z"/>
		<path id="Path 6" class="s6" d="m123 31.1c-5.78 0.44-10.64 0.94-10.81 1.1-0.18 0.17-0.03 5.02 0.32 10.8l0.63 10.5c12.77 0.87 15.2 1.51 16.81 3 1.19 1.1 2.53 3.35 2.97 5 0.76 2.85 0.83 2.74 1.47-2 0.37-2.75 1.11-7.48 1.65-10.5 0.54-3.03 0.97-8.54 0.97-12.25-0.01-5.82-0.25-6.73-1.76-6.6-0.96 0.08-6.47 0.51-12.25 0.95zm10 49.4c0 1.44 1.27 3.77 3 5.5 1.65 1.65 3.45 3 4 3 0.55 0-0.52-2.47-2.37-5.5-1.85-3.03-3.65-5.5-4-5.5-0.35 0-0.63 1.12-0.63 2.5zm-20.38 20.25c-0.36 5.91-0.93 15.25-1.28 20.75l-0.63 10c6.81 1.14 9.59 2.27 10.58 3.24 0.98 0.97 2.21 3.11 2.74 4.76 0.52 1.65 0.76 7.28 0.53 12.5-0.32 7.36-0.84 10.06-2.32 12-1.15 1.5-3.63 2.9-6.2 3.5l-4.29 1c1.02 9.3 1.78 18.3 2.35 26 0.57 7.7 1.23 14.34 1.47 14.75 0.24 0.41 3.13 0.75 6.43 0.75 5.39 0 6.21-0.28 8.03-2.75 1.75-2.35 2.03-4.23 2-13-0.02-7.17 0.42-11.15 1.47-13.25 0.82-1.65 2.4-3.45 3.5-4 1.1-0.55 3.13-1 4.5-1 1.89 0 2.39-0.43 2.05-1.75-0.25-0.96-1.38-5.35-2.51-9.75-1.24-4.82-2.05-11.18-2.05-16 0-4.91 0.78-10.8 2.01-15.25 1.1-3.99 2-7.7 2-8.25 0-0.55-0.9-1-2-1-1.1 0-2.9-0.45-4-1-1.1-0.55-2.68-2.35-3.5-4-1.05-2.1-1.49-6.08-1.47-13.25 0.03-8.77-0.25-10.65-2-13-1.89-2.57-2.52-2.75-9.39-2.75h-7.36zm23.37 113.17c-1.56 1.61-2.88 3.86-2.92 5-0.04 1.15 0.37 1.86 0.92 1.58 0.55-0.28 1.03 0.29 1.05 1.25 0.03 0.96 1.36-0.72 2.95-3.75 1.6-3.03 2.93-5.84 2.96-6.25 0.02-0.41-0.44-0.75-1.03-0.75-0.59 0-2.36 1.32-3.93 2.92zm-0.89 19.02c-0.06 0.58-0.56 0.84-1.11 0.56-0.57-0.29-1 1-1 3 0 2.29-0.82 4.41-2.4 6.15-1.93 2.14-3.55 2.75-8.25 3.14-3.21 0.26-6.18 0.98-6.58 1.59-0.4 0.62-0.74 5.51-0.75 10.87-0.01 9.32 0.08 9.77 2.23 10.19 1.24 0.24 7.65 0.71 14.25 1.04l12 0.6c-0.43-5.87-1.02-11.18-1.58-15.58-0.56-4.4-2.01-11.09-3.22-14.87-1.21-3.78-2.49-7.07-2.84-7.31-0.36-0.24-0.7 0.04-0.75 0.62z"/>
		<path id="Path 7" class="s7" d="m99 33.57c-4.67 0.75-9.85 1.76-11.5 2.24-2.82 0.81-3 1.16-2.96 5.78 0.02 2.7 0.63 8.29 1.37 12.41 0.73 4.12 1.91 10.2 2.6 13.5 1.17 5.54 1.06 6.92-1.48 18l-2.75 12c5.06 5.46 5.25 6.38 5.72 18.16 0.47 11.89 0.63 12.62 3 14.47 1.98 1.55 4.05 1.95 10 1.92l7.5-0.04c1.16-16.28 1.79-25.62 2.14-31.26l0.64-10.25c-9.47-1.13-11.33-1.93-13.03-3.9-2.06-2.38-2.25-3.59-2.25-14.6 0-11.41 0.12-12.13 2.48-14.63 1.81-1.91 3.89-2.8 7.64-3.25l5.15-0.62c-0.99-11.63-1.28-16.46-1.27-18.25 0-2.73-0.36-3.23-2.25-3.15-1.24 0.05-6.08 0.71-10.75 1.47zm-6.13 136.34c-2.21 1.78-2.4 2.75-2.87 14.43-0.48 12.14-0.59 12.62-3.34 15.35l-2.83 2.81c5.78 17.3 6.02 17.69 6.14 14l0.13-4c4.57 9.3 6.36 12.45 6.92 13 0.68 0.67 1.01-0.54 1-3.75-0.01-2.61 0.43-5.65 0.98-6.75 0.55-1.1 2.58-2.68 4.5-3.5 1.92-0.82 5.41-1.5 7.75-1.5l4.25-0.01c-1.1-12-2-21.46-2.71-28.75l-1.29-13.26c-14.62 0.02-16.73 0.4-18.63 1.93zm3.42 61.13c-0.63 0.8-2.27 3.93-3.65 6.96-2.19 4.81-2.56 5.19-2.94 3l-0.43-2.5c-0.24 3.87-1.19 8.37-2.27 12.5-1.08 4.12-1.98 8.62-2 10-0.03 2.2 0.61 2.66 5.23 3.78 2.9 0.71 9.41 1.83 14.46 2.5 5.05 0.67 9.4 0.99 9.66 0.72 0.25-0.27 0.62-5.29 0.81-11.15l0.34-10.65c-11.06-0.62-12.94-1.2-14.72-2.98-1.65-1.64-2.43-3.86-2.82-7.96-0.42-4.5-0.77-5.38-1.67-4.22z"/>
		<path id="Path 8" class="s8" d="m246 52.5c1.93 1.94 3.72 3.54 4 3.54 0.28 0-0.92-1.59-2.65-3.52-1.73-1.94-3.53-3.53-4-3.54-0.47-0.01 0.72 1.58 2.65 3.52zm-66.5 2.24c2.75 0.2 7.47 0.2 10.5 0 3.03-0.2 0.78-0.37-5-0.37-5.78 0-8.25 0.17-5.5 0.37zm-12.13 16.26c0 5.78 0.17 8.03 0.37 5 0.2-3.03 0.2-7.75 0-10.5-0.2-2.75-0.37-0.28-0.37 5.5zm0 36c0 5.78 0.17 8.03 0.37 5 0.2-3.03 0.2-7.75 0-10.5-0.2-2.75-0.37-0.28-0.37 5.5zm54.13-8.26c3.3 0.2 8.93 0.2 12.5 0 3.57-0.19 0.87-0.35-6-0.35-6.88 0-9.8 0.16-6.5 0.35zm23.87 16.76c0.01 6.05 0.17 8.3 0.37 5 0.2-3.3 0.2-8.25 0-11-0.21-2.75-0.37-0.05-0.37 6zm23.92 16c0 2.83 0.19 3.7 0.42 2 0.23-1.65 0.23-3.9-0.01-5-0.24-1.1-0.42 0.25-0.41 3zm-80.79 1.24c2.75 0.2 7.47 0.2 10.5 0 3.03-0.2 0.78-0.37-5-0.37-5.78 0-8.25 0.17-5.5 0.37zm34 0c2.75 0.2 7.47 0.2 10.5 0 3.03-0.2 0.78-0.37-5-0.37-5.78 0-8.25 0.17-5.5 0.37zm-34 35c2.75 0.2 7.47 0.2 10.5 0 3.03-0.2 0.78-0.37-5-0.37-5.78 0-8.25 0.17-5.5 0.37zm35 0c3.3 0.2 8.25 0.2 11 0 2.75-0.21 0.05-0.37-6-0.37-6.05 0.01-8.3 0.17-5 0.37zm21.87 16.76c0.01 6.05 0.17 8.3 0.37 5 0.2-3.3 0.2-8.25 0-11-0.21-2.75-0.37-0.05-0.37 6zm-78 8.5c0 5.78 0.17 8.03 0.37 5 0.2-3.03 0.2-7.75 0-10.5-0.2-2.75-0.37-0.28-0.37 5.5zm0 35.5c0.01 6.05 0.17 8.3 0.37 5 0.2-3.3 0.2-8.25 0-11-0.21-2.75-0.37-0.05-0.37 6zm78.57 19.25l-3.44 3.75c5.84-5.43 7.53-7.11 7.52-7.25-0.01-0.14-0.16-0.25-0.33-0.25-0.17 0-1.85 1.69-3.75 3.75zm-66.44-2.01c2.75 0.2 7.47 0.2 10.5 0 3.03-0.2 0.78-0.37-5-0.37-5.78 0-8.25 0.17-5.5 0.37z"/>
		<path id="Path 9" class="s9" d="m110.5 54.74c3.3 0.2 8.25 0.2 11 0 2.75-0.21 0.05-0.37-6-0.37-6.05 0.01-8.3 0.17-5 0.37zm0 35c3.3 0.2 8.25 0.2 11 0 2.75-0.21 0.05-0.37-6-0.37-6.05 0.01-8.3 0.17-5 0.37zm21.87 16.76c0.01 6.05 0.17 8.3 0.37 5 0.2-3.3 0.2-8.25 0-11-0.21-2.75-0.37-0.05-0.37 6zm-43 9c0.01 6.05 0.17 8.3 0.37 5 0.2-3.3 0.2-8.25 0-11-0.21-2.75-0.37-0.05-0.37 6zm12.13 17.24c2.75 0.2 7.47 0.2 10.5 0 3.03-0.2 0.78-0.37-5-0.37-5.78 0-8.25 0.17-5.5 0.37zm0 35c2.75 0.2 7.47 0.2 10.5 0 3.03-0.2 0.78-0.37-5-0.37-5.78 0-8.25 0.17-5.5 0.37zm-12.13 17.26c0 5.78 0.17 8.03 0.37 5 0.2-3.03 0.2-7.75 0-10.5-0.2-2.75-0.37-0.28-0.37 5.5zm43 8.5c0.01 6.05 0.17 8.3 0.37 5 0.2-3.3 0.2-8.25 0-11-0.21-2.75-0.37-0.05-0.37 6zm-21.87 17.24c2.75 0.2 7.47 0.2 10.5 0 3.03-0.2 0.78-0.37-5-0.37-5.78 0-8.25 0.17-5.5 0.37zm0 35c3.3 0.2 8.25 0.2 11 0 2.75-0.21 0.05-0.37-6-0.37-6.05 0.01-8.3 0.17-5 0.37z"/>
		<path id="Path 10" class="s10" d="m202.37 72c0 5.78 0.17 8.03 0.37 5 0.2-3.03 0.2-7.75 0-10.5-0.2-2.75-0.37-0.28-0.37 5.5zm-21.87 17.74c3.3 0.2 8.25 0.2 11 0 2.75-0.21 0.05-0.37-6-0.37-6.05 0.01-8.3 0.17-5 0.37zm29.87 25.76c0 5.5 0.17 7.53 0.37 4.5 0.2-3.03 0.2-7.53-0.01-10-0.2-2.47-0.37 0-0.36 5.5zm-63.87 9.23c2.2 0.21 6.02 0.21 8.5 0 2.47-0.21 0.68-0.38-4-0.38-4.68 0-6.7 0.17-4.5 0.38zm122.77 15.27c0 2.47 0.2 3.38 0.44 2 0.23-1.38 0.23-3.4 0-4.5-0.24-1.1-0.44 0.03-0.44 2.5zm-145 5c0 2.47 0.2 3.38 0.44 2 0.23-1.38 0.23-3.4 0-4.5-0.24-1.1-0.44 0.03-0.44 2.5zm144.98 21.5c0.01 2.39 0.2 2.99 0.45 1.5 0.24-1.38 0.23-3.18-0.02-4-0.25-0.82-0.44 0.3-0.43 2.5zm-121.25 9.23c1.93 0.21 5.3 0.21 7.5 0 2.2-0.22 0.63-0.39-3.5-0.39-4.12 0-5.93 0.17-4 0.39zm62.37 8.77c0 5.5 0.17 7.53 0.37 4.5 0.2-3.03 0.2-7.53-0.01-10-0.2-2.47-0.37 0-0.36 5.5zm12.13 18.24c2.75 0.2 7.48 0.2 10.5 0 3.03-0.2 0.78-0.37-5-0.37-5.77 0-8.25 0.17-5.5 0.37zm-42.5 8c3.03 0.2 7.53 0.2 10-0.01 2.48-0.2 0-0.37-5.5-0.36-5.5 0-7.52 0.17-4.5 0.37zm22.37 17.76c0.01 6.05 0.17 8.3 0.37 5 0.2-3.3 0.2-8.25 0-11-0.21-2.75-0.37-0.05-0.37 6z"/>
		<path id="Path 11" class="s11" d="m201.38 72c0 6.33 0.16 8.8 0.36 5.5 0.2-3.3 0.2-8.47 0-11.5-0.2-3.02-0.36-0.33-0.36 6zm-69.01 0c0 5.78 0.17 8.03 0.37 5 0.2-3.03 0.2-7.75 0-10.5-0.2-2.75-0.37-0.28-0.37 5.5zm12.13 17.74c2.75 0.2 7.48 0.2 10.5 0 3.03-0.2 0.78-0.37-5-0.37-5.77 0-8.25 0.17-5.5 0.37zm-0.5 34c3.03 0.2 8.2 0.2 11.5 0 3.3-0.2 0.82-0.36-5.5-0.36-6.32 0-9.02 0.16-6 0.36zm-20.62 26.26c0 6.32 0.16 8.8 0.36 5.5 0.2-3.3 0.2-8.47 0-11.5-0.2-3.03-0.36-0.32-0.36 6zm52.99 0c0 5.78 0.17 8.03 0.37 5 0.2-3.03 0.2-7.75 0-10.5-0.2-2.75-0.37-0.28-0.37 5.5zm-32.37 26.74c3.03 0.2 8.2 0.2 11.5 0 3.3-0.2 0.82-0.36-5.5-0.36-6.32 0-9.03 0.16-6 0.36zm79.5 25c3.3 0.2 8.25 0.2 11 0 2.75-0.21 0.05-0.37-6-0.37-6.05 0.01-8.3 0.17-5 0.37zm-77.5 9c3.03 0.2 7.53 0.2 10-0.01 2.47-0.2 0-0.37-5.5-0.36-5.5 0-7.53 0.17-4.5 0.37zm55.38 17.26c0 6.32 0.16 8.8 0.36 5.5 0.2-3.3 0.2-8.47 0-11.5-0.2-3.03-0.36-0.32-0.36 6zm-69.01 0c0 5.78 0.17 8.03 0.37 5 0.2-3.03 0.2-7.75 0-10.5-0.2-2.75-0.37-0.28-0.37 5.5z"/>
		<path id="Path 12" class="s12" d="m98.38 72c0 6.33 0.16 8.8 0.36 5.5 0.2-3.3 0.2-8.47 0-11.5-0.2-3.02-0.36-0.33-0.36 6zm-32.38 26.74c3.03 0.2 8.2 0.2 11.5 0 3.3-0.2 0.83-0.36-5.5-0.36-6.32 0-9.02 0.16-6 0.36zm1 34c3.03 0.2 7.53 0.2 10-0.01 2.48-0.2 0-0.37-5.5-0.36-5.5 0-7.52 0.17-4.5 0.37zm22.37 17.26c0 5.78 0.17 8.03 0.37 5 0.2-3.03 0.2-7.75 0-10.5-0.2-2.75-0.37-0.28-0.37 5.5zm-21.87 17.74c2.75 0.2 7.48 0.2 10.5 0 3.03-0.2 0.78-0.37-5-0.37-5.77 0-8.25 0.17-5.5 0.37zm-37.25 10.76c0.01 2.39 0.2 2.99 0.45 1.5 0.24-1.37 0.23-3.18-0.02-4-0.25-0.82-0.44 0.3-0.43 2.5zm35.75 23.24c3.03 0.2 8.2 0.2 11.5 0 3.3-0.2 0.83-0.36-5.5-0.36-6.32 0-9.02 0.16-6 0.36zm32.38 26.26c0 6.32 0.16 8.8 0.36 5.5 0.2-3.3 0.2-8.47 0-11.5-0.2-3.03-0.36-0.32-0.36 6z"/>
		<path id="Path 13" class="s13" d="m52.94 52.75l-3.44 3.75c5.84-5.42 7.53-7.11 7.52-7.25-0.01-0.14-0.16-0.25-0.33-0.25-0.17 0-1.85 1.69-3.75 3.75zm13.56 44.99c2.75 0.2 7.47 0.2 10.5 0 3.03-0.2 0.78-0.37-5-0.37-5.78 0-8.25 0.17-5.5 0.37zm-12.12 17.26c0 6.32 0.16 8.8 0.36 5.5 0.2-3.3 0.2-8.47 0-11.5-0.2-3.03-0.36-0.33-0.36 6zm-24.13 10.5c0.01 2.39 0.2 2.99 0.45 1.5 0.24-1.38 0.23-3.18-0.02-4-0.25-0.83-0.44 0.3-0.43 2.5zm0.05 44.5c0 3.03 0.19 4.15 0.42 2.5 0.23-1.65 0.23-4.13 0-5.5-0.23-1.38-0.42-0.03-0.42 3zm24.08 15c0 6.32 0.16 8.8 0.36 5.5 0.2-3.3 0.2-8.47 0-11.5-0.2-3.03-0.36-0.32-0.36 6zm12.12 17.74c2.75 0.2 7.47 0.2 10.5 0 3.03-0.2 0.78-0.37-5-0.37-5.78 0-8.25 0.17-5.5 0.37zm-13.5 44.76c1.93 1.94 3.73 3.54 4 3.54 0.28 0-0.92-1.59-2.65-3.52-1.73-1.94-3.53-3.53-4-3.54-0.47-0.01 0.73 1.58 2.65 3.52z"/>
		<path id="Path 14" class="s3" d="m171.03 149.5c0 3.59 0.27 4.58 0.97 3.5 0.53-0.82 0.97-2.4 0.97-3.5 0-1.1-0.44-2.68-0.97-3.5-0.7-1.08-0.97-0.09-0.97 3.5z"/>
	</g>
</svg>