<?xml version="1.0" encoding="UTF-8"?>
<svg version="1.1" xmlns="http://www.w3.org/2000/svg" width="250" height="250">
<path d="M0 0 C1.03133057 -0.00143509 1.03133057 -0.00143509 2.08349609 -0.00289917 C3.52897229 -0.00357597 4.97445161 -0.00175679 6.41992188 0.00244141 C8.61855976 0.00779681 10.81699339 0.00247941 13.015625 -0.00390625 C14.42708378 -0.00324538 15.83854243 -0.00196403 17.25 0 C18.52101563 0.00112793 19.79203125 0.00225586 21.1015625 0.00341797 C26.0051818 0.18349822 29.50061976 0.38322568 33.625 3.1328125 C36.73420013 3.97541416 39.86238821 4.65760798 43.0078125 5.3515625 C43.87148437 5.609375 44.73515625 5.8671875 45.625 6.1328125 C45.955 6.7928125 46.285 7.4528125 46.625 8.1328125 C48.50763881 9.03624934 48.50763881 9.03624934 50.6875 9.7578125 C51.42097656 10.01820312 52.15445313 10.27859375 52.91015625 10.546875 C53.47605469 10.74023438 54.04195312 10.93359375 54.625 11.1328125 C54.625 11.7928125 54.625 12.4528125 54.625 13.1328125 C55.594375 13.4215625 56.56375 13.7103125 57.5625 14.0078125 C60.625 15.1328125 60.625 15.1328125 61.625 17.1328125 C63.93465848 18.18634093 66.2679774 19.19000346 68.625 20.1328125 C68.625 21.7828125 68.625 23.4328125 68.625 25.1328125 C67.75875 25.5246875 66.8925 25.9165625 66 26.3203125 C61.73068693 28.61309174 58.31521235 31.31258382 55 34.8828125 C51.77345015 37.81603963 47.24418168 37.26726016 43.125 37.2578125 C42.0009375 37.26039062 40.876875 37.26296875 39.71875 37.265625 C33.45016864 36.99651923 33.45016864 36.99651923 31.203125 34.64453125 C30.54570312 33.74154297 30.54570312 33.74154297 29.875 32.8203125 C26.67369778 28.86528596 23.28069293 27.02558939 18.625 25.1328125 C17.84125 24.78476562 17.0575 24.43671875 16.25 24.078125 C6.75081122 20.65728618 -3.98737858 21.94456372 -13.375 25.1328125 C-15.07097698 26.60923063 -15.07097698 26.60923063 -16.375 28.1328125 C-17.86 28.6278125 -17.86 28.6278125 -19.375 29.1328125 C-21.08608689 30.75384218 -22.74753306 32.42784713 -24.375 34.1328125 C-26.04166667 35.79947917 -27.70833333 37.46614583 -29.375 39.1328125 C-30.096875 39.8959375 -30.81875 40.6590625 -31.5625 41.4453125 C-33.375 43.1328125 -33.375 43.1328125 -35.375 43.1328125 C-35.478125 43.7721875 -35.58125 44.4115625 -35.6875 45.0703125 C-35.914375 45.7509375 -36.14125 46.4315625 -36.375 47.1328125 C-37.365 47.4628125 -38.355 47.7928125 -39.375 48.1328125 C-38.22784551 51.57427596 -36.98727933 52.6656598 -34.375 55.1328125 C-32.70833333 56.79947917 -31.04166667 58.46614583 -29.375 60.1328125 C-24.88395104 57.95533422 -22.23089687 54.86023608 -19.0703125 51.125 C-13.51208989 44.59344808 -7.93650445 38.7613936 0.94921875 37.91015625 C6.86397435 37.70182642 11.31613432 38.47837966 16.625 41.1328125 C18.125 43.3203125 18.125 43.3203125 18.625 45.1328125 C19.285 45.1328125 19.945 45.1328125 20.625 45.1328125 C21.07875 45.59558594 21.5325 46.05835938 22 46.53515625 C23.82603303 48.33046277 25.21275488 48.89579944 27.625 49.6953125 C30.40072269 50.62581045 32.12061903 51.46322519 34.625 53.1328125 C37.44002705 53.35558442 40.12394994 53.45726471 42.9375 53.4453125 C43.68451172 53.46142578 44.43152344 53.47753906 45.20117188 53.49414062 C50.11971274 53.49845892 53.29549084 52.67655972 57.625 50.1328125 C58.553125 49.7821875 59.48125 49.4315625 60.4375 49.0703125 C62.79015569 48.34078633 62.79015569 48.34078633 63.625 46.1328125 C65.38101346 45.03100013 67.19588501 44.09562692 69.03125 43.1328125 C70.80044341 42.21521481 70.80044341 42.21521481 71.625 40.1328125 C75.77990787 38.72653599 80.30667928 38.3857266 84.625 39.1328125 C86.5625 41.4453125 86.5625 41.4453125 87.625 44.1328125 C88.285 45.1228125 88.945 46.1128125 89.625 47.1328125 C90.625 49.46614583 91.625 51.79947917 92.625 54.1328125 C93.285 55.1228125 93.945 56.1128125 94.625 57.1328125 C95.22239945 59.17986475 95.75909983 61.24514358 96.25 63.3203125 C96.51039063 64.40699219 96.77078125 65.49367188 97.0390625 66.61328125 C97.23242188 67.44472656 97.42578125 68.27617188 97.625 69.1328125 C97.955 69.1328125 98.285 69.1328125 98.625 69.1328125 C99.68793862 73.46056657 99.7701945 77.67238008 99.7578125 82.1015625 C99.75876923 82.85949097 99.75972595 83.61741943 99.76071167 84.39831543 C99.76138988 85.99519942 99.75956068 87.59208621 99.75537109 89.18896484 C99.75001775 91.62473784 99.75532824 94.06032645 99.76171875 96.49609375 C99.7610579 98.05208374 99.75977661 99.60807361 99.7578125 101.1640625 C99.75983673 101.88815308 99.76186096 102.61224365 99.76394653 103.35827637 C99.74682302 107.07511777 99.51268051 110.51862173 98.625 114.1328125 C97.965 114.1328125 97.305 114.1328125 96.625 114.1328125 C96.439375 115.89625 96.439375 115.89625 96.25 117.6953125 C95.76064065 121.67401676 94.8194795 125.31047809 93.625 129.1328125 C92.965 129.1328125 92.305 129.1328125 91.625 129.1328125 C90.635 132.1028125 89.645 135.0728125 88.625 138.1328125 C85.26955768 138.51629162 83.98553398 138.40795686 81.25 136.3203125 C80.38375 135.5984375 79.5175 134.8765625 78.625 134.1328125 C76.3302596 132.98783765 74.01658756 132.07068997 71.625 131.1328125 C71.625 130.4728125 71.625 129.8128125 71.625 129.1328125 C63.375 129.1328125 55.125 129.1328125 46.625 129.1328125 C46.625 129.7928125 46.625 130.4528125 46.625 131.1328125 C40 134.0078125 40 134.0078125 36.625 135.1328125 C35.77548589 136.25147959 34.9672297 137.40193248 34.1875 138.5703125 C30.67009313 142.81214808 27.07400284 143.44611043 21.73828125 144.05078125 C17.22489396 144.16970363 12.80352627 143.95645774 8.625 142.1328125 C7.59529741 140.82228194 6.59296925 139.48957826 5.625 138.1328125 C4.635 137.8028125 3.645 137.4728125 2.625 137.1328125 C1.965 136.1428125 1.305 135.1528125 0.625 134.1328125 C-1.32332935 133.13112719 -1.32332935 133.13112719 -3.5 132.4453125 C-4.22445312 132.19394531 -4.94890625 131.94257813 -5.6953125 131.68359375 C-6.24960938 131.50183594 -6.80390625 131.32007813 -7.375 131.1328125 C-7.375 130.4728125 -7.375 129.8128125 -7.375 129.1328125 C-16.14887981 128.42524155 -24.6228303 127.76528598 -33.375 129.1328125 C-33.375 129.7928125 -33.375 130.4528125 -33.375 131.1328125 C-34.48875 131.5865625 -35.6025 132.0403125 -36.75 132.5078125 C-40.33699008 133.85747236 -40.33699008 133.85747236 -42.375 136.1328125 C-44.55193854 137.88645743 -46.73773484 139.62844434 -48.9296875 141.36328125 C-51.87204786 143.74205518 -54.1341595 146.10767783 -56.375 149.1328125 C-57.035 149.1328125 -57.695 149.1328125 -58.375 149.1328125 C-58.375 149.7928125 -58.375 150.4528125 -58.375 151.1328125 C-60.025 151.4628125 -61.675 151.7928125 -63.375 152.1328125 C-63.478125 151.5346875 -63.58125 150.9365625 -63.6875 150.3203125 C-64.48635651 147.77849633 -65.47571545 146.95904764 -67.375 145.1328125 C-68.38687895 143.47333102 -69.3876546 141.80700688 -70.375 140.1328125 C-71.035 139.4728125 -71.695 138.8128125 -72.375 138.1328125 C-73.39029541 135.80609385 -74.38988198 133.4724678 -75.375 131.1328125 C-76.035 130.1428125 -76.695 129.1528125 -77.375 128.1328125 C-77.96821869 126.25247253 -78.50595819 124.35411042 -79 122.4453125 C-79.39058594 120.95451172 -79.39058594 120.95451172 -79.7890625 119.43359375 C-79.98242188 118.67433594 -80.17578125 117.91507812 -80.375 117.1328125 C-80.705 117.1328125 -81.035 117.1328125 -81.375 117.1328125 C-82.27913673 113.29557078 -82.48076898 109.75778976 -82.4375 105.8203125 C-82.42847656 104.75167969 -82.41945312 103.68304688 -82.41015625 102.58203125 C-82.39855469 101.77378906 -82.38695312 100.96554688 -82.375 100.1328125 C-81.446875 99.730625 -81.446875 99.730625 -80.5 99.3203125 C-78.0754767 98.17724402 -78.0754767 98.17724402 -76.375 95.1328125 C-68.66083089 92.64858855 -62.1352388 92.39390469 -54.375 95.1328125 C-53.715 95.7928125 -53.055 96.4528125 -52.375 97.1328125 C-41.54534129 106.15752809 -32.49203555 110.06895544 -18.375 109.1328125 C-14.20355432 108.47977468 -10.93406518 107.50552262 -7.375 105.1328125 C-6.529375 104.6378125 -5.68375 104.1428125 -4.8125 103.6328125 C-2.31082181 102.223048 -2.31082181 102.223048 -0.375 100.1328125 C0.7696875 99.4521875 0.7696875 99.4521875 1.9375 98.7578125 C5.32158827 96.71161959 8.43252241 94.48083064 11.0625 91.5078125 C15.30052759 87.77834822 20.79409802 87.7579611 26.1640625 87.87890625 C33.34836396 88.6201437 38.33740546 92.79075142 43.25 97.8203125 C45.47848846 100.32578044 45.47848846 100.32578044 48.625 101.1328125 C50.21249782 102.82191018 51.59891918 104.61683193 53.02734375 106.44140625 C54.76070338 108.27647892 56.37287199 109.04671319 58.625 110.1328125 C58.955 110.7928125 59.285 111.4528125 59.625 112.1328125 C60.2025 111.2046875 60.78 110.2765625 61.375 109.3203125 C63.378731 106.48169359 64.85161923 105.07417904 67.625 103.1328125 C68.615 101.6478125 68.615 101.6478125 69.625 100.1328125 C69.295 99.8028125 68.965 99.4728125 68.625 99.1328125 C68.068125 98.5346875 67.51125 97.9365625 66.9375 97.3203125 C64.61444066 94.99621015 64.61444066 94.99621015 61.5 93.0703125 C58.625 91.1328125 58.625 91.1328125 56.625 88.1328125 C55.635 87.8028125 54.645 87.4728125 53.625 87.1328125 C50.88685953 84.59502377 48.69904293 82.2438769 46.625 79.1328125 C44.30691636 78.09795373 41.97324702 77.0972711 39.625 76.1328125 C38.965 75.4728125 38.305 74.8128125 37.625 74.1328125 C27.64539483 71.12780128 18.64361751 72.07015595 8.625 74.1328125 C8.625 74.7928125 8.625 75.4528125 8.625 76.1328125 C6.20520341 77.14106108 3.95399792 78.06884068 1.375 78.5703125 C0.7975 78.7559375 0.22 78.9415625 -0.375 79.1328125 C-0.87 80.6178125 -0.87 80.6178125 -1.375 82.1328125 C-2.69907669 82.81767975 -4.03409241 83.48151453 -5.375 84.1328125 C-6.035 84.7928125 -6.695 85.4528125 -7.375 86.1328125 C-9.32059591 88.07840841 -10.93377425 88.95428973 -13.375 90.1328125 C-13.705 90.7928125 -14.035 91.4528125 -14.375 92.1328125 C-17.77555172 93.38901631 -21.22162777 93.29955601 -24.8125 93.3203125 C-26.48119141 93.34158203 -26.48119141 93.34158203 -28.18359375 93.36328125 C-34.96768236 92.87336543 -37.91871535 89.82680211 -42.3125 85.0078125 C-44.57890659 82.94744288 -46.513976 82.15984676 -49.375 81.1328125 C-50.365 80.4728125 -51.355 79.8128125 -52.375 79.1328125 C-60.59940129 76.50489729 -68.00864443 76.54872041 -76.296875 78.6953125 C-78.375 79.1328125 -78.375 79.1328125 -82.375 79.1328125 C-82.56508264 67.91793647 -82.56508264 67.91793647 -79.375 63.1328125 C-78.78662754 61.41897529 -78.24780046 59.68761409 -77.75 57.9453125 C-77.35941406 56.59373047 -77.35941406 56.59373047 -76.9609375 55.21484375 C-76.76757812 54.52777344 -76.57421875 53.84070313 -76.375 53.1328125 C-75.715 53.1328125 -75.055 53.1328125 -74.375 53.1328125 C-74.19324219 52.44574219 -74.01148438 51.75867188 -73.82421875 51.05078125 C-73.57285156 50.14972656 -73.32148437 49.24867187 -73.0625 48.3203125 C-72.81886719 47.42699219 -72.57523438 46.53367188 -72.32421875 45.61328125 C-71.3382691 43.03682846 -70.37408651 41.96176399 -68.375 40.1328125 C-67.18472016 37.53365712 -67.18472016 37.53365712 -66.375 35.1328125 C-65.715 35.1328125 -65.055 35.1328125 -64.375 35.1328125 C-64.00375 34.4521875 -63.6325 33.7715625 -63.25 33.0703125 C-61.02486511 29.58426784 -58.38695872 27.39219006 -55.21484375 24.78125 C-53.1558183 23.07438188 -53.1558183 23.07438188 -51.375 20.1328125 C-50.05032254 19.449108 -48.71636367 18.78317064 -47.375 18.1328125 C-46.900625 17.6378125 -46.42625 17.1428125 -45.9375 16.6328125 C-43.96193436 14.73626949 -41.90273381 14.14390603 -39.375 13.1328125 C-38.88 12.6378125 -38.385 12.1428125 -37.875 11.6328125 C-35.90859594 9.66640844 -34.0013826 8.98638685 -31.375 8.1328125 C-30.385 8.1328125 -29.395 8.1328125 -28.375 8.1328125 C-28.375 7.4728125 -28.375 6.8128125 -28.375 6.1328125 C-26.62683142 5.62644643 -24.87637737 5.12796631 -23.125 4.6328125 C-22.15046875 4.354375 -21.1759375 4.0759375 -20.171875 3.7890625 C-17.375 3.1328125 -17.375 3.1328125 -13.375 3.1328125 C-13.375 2.4728125 -13.375 1.8128125 -13.375 1.1328125 C-8.86420859 0.25928039 -4.59165302 0.00407474 0 0 Z " fill="#84DD82" transform="translate(116.375,33.8671875)"/>
<path d="M0 0 C2.875 2.5 2.875 2.5 5 5 C5 5.66 5 6.32 5 7 C5.556875 7.12375 6.11375 7.2475 6.6875 7.375 C9.22114364 8.05976855 11.57921032 8.99133763 14 10 C14 10.66 14 11.32 14 12 C18.81922556 13.23443278 23.56041177 13.18371777 28.5 13.1875 C29.34175781 13.19974609 30.18351562 13.21199219 31.05078125 13.22460938 C35.49948182 13.23511812 38.97037455 13.09023352 43 11 C43.76441406 10.62101563 44.52882813 10.24203125 45.31640625 9.8515625 C49.45729456 7.5902774 52.76494706 5.49385717 56 2 C56.66 2 57.32 2 58 2 C58 1.34 58 0.68 58 0 C65.89161968 -1.76273292 72.18326735 -2.24817532 80 0 C80 0.66 80 1.32 80 2 C80.639375 2.226875 81.27875 2.45375 81.9375 2.6875 C84 4 84 4 84.875 6.4375 C85 9 85 9 83 12 C82.01 12.33 81.02 12.66 80 13 C77.26185953 15.53778873 75.07404293 17.8889356 73 21 C69.375 22.1875 69.375 22.1875 66 23 C66 23.66 66 24.32 66 25 C65.45730469 25.26554687 64.91460937 25.53109375 64.35546875 25.8046875 C63.64003906 26.15789062 62.92460937 26.51109375 62.1875 26.875 C61.47980469 27.22304687 60.77210938 27.57109375 60.04296875 27.9296875 C57.78753582 29.0656486 57.78753582 29.0656486 55 31 C51.0967901 32.27741415 48.12760017 33 44 33 C44 33.66 44 34.32 44 35 C41.12518149 35.82021363 38.57203699 36.12625932 35.58618164 36.12939453 C34.72170914 36.13254669 33.85723663 36.13569885 32.96656799 36.13894653 C32.04045212 36.1369223 31.11433624 36.13489807 30.16015625 36.1328125 C29.20104843 36.13376923 28.24194061 36.13472595 27.25376892 36.13571167 C25.2272027 36.13639156 23.20063429 36.13455057 21.17407227 36.13037109 C18.07758673 36.12502604 14.98124662 36.13031954 11.88476562 36.13671875 C9.91406218 36.13605782 7.94335883 36.13477635 5.97265625 36.1328125 C5.04856461 36.13483673 4.12447296 36.13686096 3.17237854 36.13894653 C-7.34891746 36.10072169 -7.34891746 36.10072169 -12 33 C-13.71383721 32.41162754 -15.44519841 31.87280046 -17.1875 31.375 C-18.08855469 31.11460937 -18.98960938 30.85421875 -19.91796875 30.5859375 C-20.60503906 30.39257812 -21.29210937 30.19921875 -22 30 C-22 29.34 -22 28.68 -22 28 C-23.11375 27.71125 -24.2275 27.4225 -25.375 27.125 C-29 26 -29 26 -31 24 C-32.010625 23.566875 -33.02125 23.13375 -34.0625 22.6875 C-37 21 -37 21 -38.25 18.75 C-37.85902821 14.4493103 -35.16482168 11.80312778 -32 9 C-31.01 8.67 -30.02 8.34 -29 8 C-27.96434215 6.69417053 -26.96873032 5.35622245 -26 4 C-19.93213164 -3.36812587 -8.29159269 -3.95735106 0 0 Z " fill="#83DD82" transform="translate(107,180)"/>
<path d="" fill="#85DA7D" transform="translate(0,0)"/>
<path d="" fill="#00DD00" transform="translate(0,0)"/>
<path d="" fill="#990B4C" transform="translate(0,0)"/>
<path d="" fill="#82D180" transform="translate(0,0)"/>
<path d="" fill="#8AD980" transform="translate(0,0)"/>
</svg>
