<svg version="1.2" xmlns="http://www.w3.org/2000/svg" viewBox="0 0 300 300" width="300" height="300">
	<style>
		.s0 { opacity: 1;fill: #be9e34 } 
		.s1 { opacity: .99;fill: #775f14 } 
		.s2 { opacity: .99;fill: #624a10 } 
		.s3 { opacity: .99;fill: #d6b648 } 
		.s4 { opacity: .99;fill: #ae8e25 } 
		.s5 { opacity: 1;fill: #91761b } 
		.s6 { opacity: .98;fill: #e2c676 } 
		.s7 { opacity: .2;fill: #040511 } 
		.s8 { opacity: 1;fill: #f5d45b } 
		.s9 { opacity: 1;fill: #ecdba2 } 
		.s10 { opacity: 1;fill: #f3ebd9 } 
		.s11 { opacity: .18;fill: #805b32 } 
		.s12 { opacity: .54;fill: #3f3b1a } 
		.s13 { opacity: .98;fill: #b19f4a } 
		.s14 { opacity: .77;fill: #907534 } 
		.s15 { opacity: .56;fill: #ded2d4 } 
		.s16 { opacity: .55;fill: #b49d46 } 
		.s17 { opacity: .17;fill: #0304e2 } 
		.s18 { opacity: .12;fill: #08094a } 
	</style>
	<g id="Background">
		<path id="Path 0" class="s0" d="m149 33.98c-0.94 0.6-1.74 3.31-2.14 7.24-0.35 3.45-1.47 10.68-2.5 16.05l-1.86 9.78c4.22 7.93 4.4 9.27 3.74 15.15-0.61 5.49-0.47 6.81 0.76 7.33 0.82 0.35 2.63 0.08 4-0.6 1.38-0.68 4.53-2.84 7-4.79 2.47-1.94 4.95-3.97 5.5-4.49q0.97-0.92-0.25-0.3c-0.9 0.47-1.46-0.98-2-5.1-0.41-3.16-0.67-12.27-0.57-20.25 0.1-7.97 0.44-15.51 0.75-16.75 0.31-1.24 1.36-2.29 2.32-2.35q1.75-0.1-0.75-0.9c-1.38-0.44-4.75-0.84-7.5-0.89-2.75-0.04-5.68 0.35-6.5 0.87zm-72.7 64.27c-1.11 1.24-2.77 4.5-3.68 7.25-0.9 2.75-1.63 5.22-1.62 5.5 0.02 0.28 1.04-1.27 2.27-3.44 1.22-2.17 3.81-4.84 5.73-5.93 2.41-1.36 6.05-2.12 11.66-2.44 4.81-0.27 9.43 0.01 11.25 0.68 2.43 0.89 2.99 0.86 2.61-0.12-0.26-0.69-1.49-1.57-2.75-1.95-1.25-0.39-6.84-0.61-12.42-0.5-5.59 0.11-9.64-0.13-9-0.53q1.15-0.74-0.43-0.75c-0.87-0.01-2.5 0.99-3.62 2.23zm31.36 2.5c-0.37 0.41 1.69 2.05 4.58 3.64 2.89 1.59 5.71 2.95 6.26 3.03 0.55 0.07 1.56 0.46 2.25 0.86 0.69 0.4 1.81 0.03 2.5-0.82 1.05-1.3 0.92-1.56-0.75-1.62-1.1-0.04-2.34-0.02-2.75 0.04-0.41 0.07-0.75-0.33-0.75-0.88 0-0.55-0.34-0.9-0.75-0.79-0.41 0.12-1.76-0.33-3-1-1.24-0.66-2.16-0.97-2.05-0.69 0.11 0.29-0.94-0.16-2.33-1-1.39-0.84-2.84-1.19-3.21-0.77zm47.84 0.79c-2.29 1.04-2.52 1.37-1 1.38 1.1 0.01 2.9-0.65 4-1.47 1.1-0.82 1.55-1.44 1-1.39-0.55 0.06-2.35 0.72-4 1.48zm-72.78 40.19c-1.47 4.27-2.93 9.12-3.24 10.77-0.31 1.65-0.73 4.13-0.94 5.5-0.21 1.38-0.53 2.95-0.71 3.5-0.18 0.55 0.12 1.15 0.67 1.34 0.55 0.18 1.56 0.74 2.25 1.25 0.69 0.5 1.03 1.36 0.75 1.91-0.28 0.55 0.51 1.22 1.75 1.49 1.24 0.26 2.47 0.49 2.75 0.5 0.28 0.01 0.57-0.77 0.66-1.74 0.09-0.96 1.09-5.57 2.22-10.25 1.14-4.68 2.75-10.64 3.59-13.25 0.84-2.61 1.08-4.53 0.53-4.25-0.55 0.28-1 1.18-1 2 0 0.82-0.34 1.52-0.75 1.54-0.41 0.03-1.27-0.53-1.9-1.25-0.64-0.71-1.31-2.38-1.5-3.71-0.19-1.33-0.82-2.58-1.4-2.77-0.57-0.2-2.25 3.14-3.73 7.42zm53.28-5.03c-1.93 0.84-4.04 2.12-4.7 2.84-0.66 0.72-3.59 1.54-6.5 1.83-2.92 0.29-6.88 1-8.8 1.57-1.92 0.57-5.08 1.83-7 2.8-1.92 0.97-4.04 2.44-4.69 3.26-0.98 1.24-1.55 1.28-3.25 0.25-1.31-0.79-2.24-0.89-2.56-0.25-0.28 0.55-0.8 6.06-1.17 12.25-0.67 11.1-0.65 11.27 1.75 13.05 1.33 0.99 10.07 7.44 19.42 14.33 15.17 11.19 17.51 12.58 21.75 12.95 2.61 0.23 6.89 1.5 9.5 2.82 2.61 1.32 5.71 3.46 6.87 4.75 1.17 1.29 2.56 3.7 3.08 5.35 0.76 2.39 1.65 3.1 4.38 3.5 2.71 0.4 3.49 1.02 3.78 3 0.2 1.38 1.77 4.41 3.5 6.74 2.82 3.81 3.26 4.07 4.32 2.5 0.67-0.99 1.25-6.05 1.36-11.74 0.1-5.5 0.64-10.9 1.2-12 0.56-1.1 2.65-3.57 4.65-5.5 2-1.93 3.99-4.4 4.42-5.5 0.58-1.45 0.98-1.65 1.49-0.71 0.49 0.9 2.19-0.33 5.56-4 2.67-2.91 6.09-6.64 7.61-8.29 1.52-1.65 5.06-4.8 7.87-7 2.81-2.2 5.61-5.12 6.21-6.5 0.96-2.18 0.62-2.04-2.72 1.12-2.11 1.99-6.08 4.87-8.83 6.4-2.75 1.53-7.25 4.13-10 5.79-3.86 2.32-5.68 2.85-8 2.34-1.67-0.36-4.44-0.1-6.26 0.6-1.8 0.69-3.25 1.7-3.23 2.25 0.02 0.55-2.57 1.55-5.74 2.23-3.17 0.67-6.22 0.85-6.77 0.39-0.55-0.46-2.01-1.12-3.25-1.48-1.8-0.51-2.25-0.24-2.25 1.36q0 2-2 2c-1.1 0-3.13-1.12-4.5-2.5-1.38-1.37-2.72-2.28-3-2-0.28 0.28-1.63-0.62-3-2-1.96-1.96-2.39-3.2-1.99-5.75 0.28-1.79 1.29-4.24 2.25-5.46 0.96-1.21 2.08-2.23 2.49-2.25 0.41-0.02 0.76 0.97 0.76 2.21 0.01 1.46 1.6-0.66 4.5-6 2.47-4.54 4.49-8.93 4.49-9.75 0-0.82-0.45-1.28-1-1-0.6 0.3-1-1.5-1-4.5 0-3.35-0.73-6.24-2.2-8.75-1.21-2.06-2.34-3.19-2.5-2.5-0.17 0.69-0.78 1-1.37 0.69-0.59-0.31-1.04-1.66-1-3 0.04-1.34-0.32-2.69-0.8-2.99-0.48-0.3-2.5-0.08-4.5 0.5-3.03 0.88-3.63 0.8-3.63-0.45 0-0.82-0.34-1.46-0.75-1.42-0.41 0.05-2.32 0.77-4.25 1.62zm90.71 35.03c-0.25 0.43-0.14 1.67 0.25 2.77 0.68 1.93 0.73 1.92 1.37-0.25 0.37-1.24 0.26-2.48-0.24-2.77-0.51-0.28-1.13-0.17-1.38 0.25zm-1.09 6.77c0.41 2.3 0.29 2.65-0.53 1.5-0.91-1.29-1.06-1.26-1.07 0.25-0.01 0.96 0.54 1.6 1.23 1.42 0.69-0.19 1.39-1.2 1.56-2.25 0.18-1.06-0.14-2.37-0.7-2.92-0.7-0.68-0.85-0.03-0.49 2zm-2.9 6.5c-0.34 1.38-0.41 2.72-0.14 3 0.26 0.28 0.46-0.06 0.45-0.75-0.02-0.69 0.42-1.03 0.97-0.75 0.55 0.28 1.22-0.18 1.5-1 0.28-0.82 0.05-1.28-0.5-1-0.55 0.28-1.15-0.06-1.33-0.75-0.17-0.69-0.6-0.12-0.95 1.25zm-180.64 11.75c0.04 0.96 0.67 3.55 1.4 5.75l1.32 4c-1.15-8.52-0.96-9.82 0.2-10.54 1.2-0.74 1.05-0.93-0.75-0.94q-2.26-0.03-2.17 1.73zm178.42 4.5c-0.36 1.79-0.27 3.56 0.18 3.94 0.45 0.38 0.88-1.08 0.95-3.25 0.07-2.17-0.02-3.94-0.19-3.94-0.17 0-0.59 1.46-0.94 3.25zm-102.89 6c0.29 0.69-0.22 3.5-1.14 6.25-1.34 4.02-1.54 7.06-1.02 15.5 0.36 5.78 1.3 11.85 2.1 13.5 0.79 1.65 2.45 3.62 3.69 4.38l2.26 1.38c-3.47-3.73-4.88-7.14-5.48-10.26-0.57-3.03-1.02-9.1-1-13.5 0.03-6.12 0.56-9.1 2.26-12.7 1.66-3.52 1.91-4.84 0.97-5.25-0.69-0.3-1.68-0.55-2.2-0.55-0.53 0-0.72 0.56-0.44 1.25z"/>
		<path id="Path 1" class="s1" d="m185.74 36.25c-1.53 1.12-1.6 2.26-0.69 11.25 0.55 5.5 1.22 11.46 1.48 13.25 0.3 2.08 1.1 3.35 2.22 3.54 1.23 0.21 0.49 1.02-2.49 2.75-2.34 1.35-4.25 2.8-4.25 3.21-0.01 0.41 1.34 1.31 3 2 1.65 0.69 3 1.59 3 2-0.01 0.41 1.34 0.08 2.99-0.75 2.33-1.17 3-2.17 3-4.5v-3c6.2 3.1 8.24 3.89 8.53 3.75 0.29-0.14-0.15-3.85-0.97-8.25-0.83-4.4-1.74-9.13-2.03-10.5-0.3-1.38-0.87-5.54-1.28-9.26l-0.75-6.76c-7.79 0.02-10.82 0.58-11.76 1.27zm-90.24 45.09c-1.65 1.28-3.56 3.75-4.25 5.49l-1.25 3.17c7.52-0.57 11.06-1.72 13.24-3.11 2.05-1.32 3.74-2.73 3.75-3.14 0-0.41-0.44-0.75-0.99-0.75-0.55 0-1.23 0.67-1.5 1.5-0.32 0.95-1.78 1.5-4 1.5-1.93 0-3.73-0.45-4-1-0.28-0.55 0.15-2.13 0.94-3.5 0.79-1.38 1.36-2.5 1.25-2.49-0.1 0.01-1.54 1.06-3.19 2.33zm96.5 9.36c-1.38 0.24-4.19 0.85-6.25 1.37-2.06 0.51-4.43 1.6-5.25 2.43-0.83 0.82-1.5 2.74-1.5 4.25-0.01 2.49 0.48 2.87 5.25 4.01 2.89 0.69 6.31 1.59 7.6 2 2.26 0.71 2.31 0.62 1.21-2.26-0.63-1.65-0.97-4.13-0.75-5.5 0.22-1.38 0.88-3.51 1.48-4.75 0.59-1.24 0.99-2.19 0.89-2.11-0.1 0.07-1.31 0.33-2.68 0.56zm-45.9 3.79c-1.87 0.78-3.34 1.77-3.27 2.21 0.07 0.44 1.37 1.79 2.9 2.99 2.46 1.95 2.99 2.04 4.77 0.79 1.1-0.78 1.55-1.44 1-1.46-0.55-0.03-0.33-0.49 0.5-1.02q1.5-0.97 0.25-0.98c-0.69-0.01-1.25-0.92-1.25-2.02 0-1.1-0.34-1.98-0.75-1.96-0.41 0.02-2.28 0.67-4.15 1.45zm-64.1 1.51c-1.17 0.76-0.89 0.97 1.25 0.98 1.51 0.01 2.52-0.43 2.25-0.98-0.28-0.55-0.84-0.99-1.25-0.98-0.41 0-1.43 0.45-2.25 0.98zm71.66 7.75c-0.37 0.41 0.34 1.77 1.58 3.03 1.28 1.29 3.45 2.26 5.01 2.25 1.51-0.02 2.97-0.48 3.25-1.03 0.27-0.55 1.62-1 3-1 1.37 0 2.84-0.5 3.25-1.11 0.41-0.61 0.07-1.51-0.75-1.99-0.83-0.48-4.46-0.88-8.08-0.88-3.62-0.01-6.89 0.32-7.26 0.73zm81.98 0c-0.24 0.41-1.84 4.8-3.54 9.75-1.7 4.95-4.11 9.99-5.35 11.2-1.48 1.45-4.9 2.73-10 3.75-6.27 1.25-8.13 1.31-9.72 0.3-1.08-0.69-2.15-2.15-2.38-3.25-0.23-1.1-0.24 0.25-0.04 3 0.21 2.75 0.38 7.59 0.38 10.75 0.01 3.16 0.35 5.75 0.76 5.75 0.41 0 0.88-1.23 1.03-2.75 0.16-1.51 0.51-2.97 0.78-3.25 0.27-0.28 0.48 0.62 0.45 2-0.02 1.37 0.53 3.07 1.22 3.77 0.7 0.69 2.98 1.26 5.07 1.25 2.71-0.02 4.49-0.73 6.25-2.52 1.35-1.38 2.45-2.95 2.45-3.5 0-0.55 0.45-0.78 1-0.5 0.55 0.28 1.22-0.4 1.5-1.5 0.27-1.1 0.16-2.56-0.25-3.24-0.55-0.91-0.36-0.98 0.71-0.25 1.19 0.81 1.33 0.57 0.75-1.26-0.44-1.39-0.33-2.06 0.29-1.75 0.55 0.28 2.63-4.76 4.64-11.25 2-6.46 3.96-12.99 4.35-14.5 0.39-1.51 0.57-2.75 0.41-2.75-0.17 0-0.51 0.34-0.76 0.75zm-162.64 13.37c-3.14 0.81-3.98 1.85-8.19 10.14-2.58 5.08-5.9 13.29-7.38 18.24-1.69 5.66-2.74 11.6-2.81 16l-0.12 7c8.76 0 10.79-0.28 10.15-0.63-0.69-0.38-0.25-0.88 1.1-1.25 1.24-0.34 2.47-0.17 2.75 0.38 0.27 0.55 1.29 0.96 2.25 0.92 0.96-0.04 1.19-0.27 0.5-0.5-0.69-0.23-1.25-0.87-1.25-1.42 0-0.55 1.01-1.46 2.25-2.01 1.24-0.56 3.21-3.15 4.38-5.75 1.18-2.61 3.31-8.56 4.74-13.24 1.44-4.68 3.04-9.18 3.57-10 0.84-1.31 1.5-1.24 5.26 0.56l4.3 2.05c7.42-8.38 7.57-8.71 5-6.79-1.65 1.24-3.34 2.23-3.75 2.21-0.41-0.01-0.75-0.71-0.75-1.53 0-0.82 1.18-3.64 2.63-6.25l2.63-4.75c-11.69 10.2-12.9 10.95-10.89 8.5 1.58-1.92 3.49-4.74 4.25-6.25 1.1-2.18 1.12-2.92 0.13-3.57-0.69-0.46-3.05-1.35-5.25-1.99-2.2-0.64-5.8-1.12-8-1.07-2.2 0.05-5.58 0.5-7.5 1zm-16 80.53c-1.93 0.85-4.19 2.29-5.04 3.2-0.84 0.91-2.15 3.22-2.89 5.15-0.78 2.02-1.09 4.77-0.71 6.5 0.35 1.65 2.05 5.93 3.77 9.5 1.71 3.57 3.62 7.62 4.23 9 0.62 1.37 2.59 4.86 4.38 7.75 2.78 4.48 3.04 5.4 1.76 6.25-0.83 0.55-1.28 1.45-1 2 0.27 0.55 2.97 1 6 1 3.02 0 5.31-0.34 5.08-0.75-0.23-0.41 3.26-1.1 7.75-1.53 4.49-0.43 8.39-0.58 8.67-0.32 0.27 0.26-2.43 0.74-6 1.08-3.58 0.34-7.18 1.07-8 1.62-1.03 0.7 0.98 0.81 6.5 0.38 4.4-0.35 11.92-0.72 16.71-0.81 4.79-0.09 7.94-0.48 7-0.85-1.49-0.59-1.45-0.7 0.29-0.83 1.59-0.12 1.44-0.34-0.75-1.07-1.51-0.51-2.53-1.37-2.25-1.92 0.27-0.55 1.62-1 3-1 1.95 0 2.36-0.39 1.88-1.75-0.33-0.96-0.99-3.32-1.44-5.25-0.46-1.93-2.88-7.55-5.38-12.5-2.49-4.95-4.54-10.01-4.55-11.25 0-1.24-0.8-3.81-1.76-5.73-1.12-2.22-2.47-3.47-3.75-3.47-1.1 0-5.04-1.14-8.75-2.53-3.71-1.38-7.65-2.3-8.75-2.02-1.1 0.28-1.97 0.16-1.94-0.26 0.03-0.41-2.33-0.84-5.25-0.94-3-0.1-6.83 0.49-8.81 1.35zm-11.99 17.35c-0.03 0.28 0.85 2.64 1.97 5.25 1.11 2.61 2.24 4.75 2.52 4.75 0.27 0-0.1-1.46-0.83-3.25-0.73-1.79-1.84-4.15-2.47-5.25-0.63-1.1-1.16-1.78-1.19-1.5z"/>
		<path id="Path 2" class="s2" d="m198.35 42.25c0.36 3.44 0.9 7.38 1.2 8.75 0.29 1.38 1.24 6.33 2.11 11l1.57 8.5c7.81 5.42 12.93 9.59 16.42 12.75 3.49 3.16 6.35 6.09 6.35 6.5 0 0.41-6.98 0.64-15.5 0.5-15.19-0.24-15.52-0.2-16.65 2-0.63 1.24-1.32 3.38-1.54 4.75-0.22 1.38 0.07 3.74 0.65 5.25 0.6 1.59 1.78 2.73 2.79 2.71 0.96-0.03 2.25 0.53 2.86 1.25 0.61 0.71 2.29 5 3.75 9.54 1.45 4.54 2.64 9.04 2.64 10-0.01 0.96 0.89 2.31 2 3 1.62 1.01 3.48 0.95 9.75-0.3 5.12-1.02 8.51-2.29 9.99-3.75 1.23-1.21 4.08-7.37 6.33-13.7 2.26-6.33 5.36-16.22 6.9-22 1.54-5.78 3.39-13.65 4.1-17.5 0.91-4.91 1.51-6.4 1.98-5 0.38 1.1 1.49 2.67 2.48 3.5 1.7 1.42 1.76 1.25 1.09-3-0.4-2.47-1.37-5.4-2.17-6.5-0.8-1.1-2.95-4.25-4.78-7-1.83-2.75-4.98-6.46-7-8.25-2.02-1.79-5.13-3.98-6.92-4.88-1.79-0.89-6.18-2.23-9.75-2.98-3.57-0.75-9.83-1.36-13.9-1.37l-7.41-0.02zm-78.28 8.94c-0.06 0.17 0.84 2.56 2.02 5.31l2.14 5c2.87-3.95 3.27-5.42 2.78-6-0.47-0.55-2.2-1.81-3.84-2.81-1.64-0.99-3.03-1.67-3.1-1.5zm-21.15 28.81c-1.6 1.65-2.77 3.56-2.59 4.25 0.18 0.69 1.98 1.36 4 1.5 2.54 0.17 3.82-0.21 4.17-1.25 0.29-0.86 1.25-1.3 2.25-1.02 0.96 0.26 2.43 0.06 3.25-0.45 0.83-0.5 1.28-1.09 1-1.29-0.27-0.2-1.85-1.37-3.5-2.59-1.65-1.22-3.6-2.2-4.33-2.18-0.73 0.01-2.64 1.38-4.25 3.03zm20.08 30.84c-3.57 1.53-9.42 4.62-13 6.85-4.5 2.82-7.19 5.34-8.75 8.19-1.24 2.27-2.25 4.8-2.25 5.62 0 1.08 0.64 1.32 2.25 0.87l2.25-0.64c-3.05 3.7-1.47 2.47 1.53-0.34 3.01-2.81 8.51-7.65 12.22-10.75 3.71-3.1 8.66-6.6 11-7.76 2.34-1.17 4.48-2.32 4.75-2.56 0.28-0.24-0.17-0.85-1-1.36-0.82-0.51-1.72-0.92-2-0.92-0.27 0.01-3.42 1.27-7 2.8zm-46 56.21c-1.92 0.47-7.55 1.77-12.5 2.9-4.95 1.13-9.95 2.33-11.11 2.67-1.15 0.34-2.17 1.01-2.25 1.5-0.07 0.48 2.34 0.88 5.36 0.88 3.03 0 8.09-0.65 11.25-1.43 3.16-0.79 9.35-2.21 13.75-3.15l8-1.72c-6.88-2.09-8.9-2.65-8.94-2.6-0.03 0.06-1.63 0.49-3.56 0.95zm143.08 43.2c-1.71 5.09-3.21 10.26-3.34 11.5-0.13 1.24-0.58 2.25-0.99 2.25-0.41 0-0.52 0.45-0.25 1 0.28 0.55 0.11 1.56-0.37 2.25-0.48 0.69-1.43 3.05-2.12 5.25-0.69 2.2-2.55 6.47-4.13 9.5-1.58 3.03-4.79 7.4-7.13 9.73-2.34 2.33-5.37 5.16-6.75 6.3-1.8 1.49-1.31 1.36 1.75-0.48 2.34-1.4 5.04-2.54 6-2.52 0.96 0.01 2.75-1 3.98-2.25 1.23-1.26 2.24-2.84 2.25-3.53 0.01-0.69 0.36-1.25 0.77-1.24 0.41 0 1.5-1.46 2.42-3.25 0.92-1.79 2.37-5.51 3.21-8.26 0.85-2.75 2.65-9.5 4.02-15 1.37-5.5 2.73-11.13 3.03-12.5 0.3-1.38 0.79-3.74 1.08-5.25 0.3-1.51 0.35-2.75 0.11-2.75-0.24 0-1.83 4.16-3.54 9.25zm1.22 10.4c-0.64 2.12-1.73 5.88-2.41 8.35-0.69 2.47-1.3 4.72-1.36 5-0.06 0.28-0.71 2.3-1.45 4.5-0.73 2.2-2.79 6.47-4.58 9.5-1.79 3.03-5.67 7.69-8.63 10.37-2.95 2.67-4.65 4.47-3.77 4 0.88-0.48 2.92-1.99 4.53-3.37 1.61-1.37 4.74-4.75 6.94-7.5 2.23-2.77 4.99-7.9 6.21-11.5 1.2-3.57 3.03-10.08 4.07-14.46 1.03-4.38 1.82-8.13 1.74-8.35-0.07-0.22-0.65 1.34-1.29 3.46zm-155.68 26.1c-0.27 0.41-0.18 1.26 0.2 1.88 0.37 0.63 3.61 1.3 7.18 1.49 3.58 0.19 11.68-0.03 18-0.5 8.23-0.61 13.21-0.5 17.5 0.39 3.3 0.68 16.58 4.77 29.5 9.08 12.93 4.32 23.69 7.64 23.92 7.38 0.23-0.26-0.22-0.48-1-0.49-1.17-0.01-1.15-0.18 0.08-0.95 1.28-0.81 1.3-1.13 0.1-2.24-1.05-0.97-1.23-0.98-0.75-0.04 0.36 0.69 0.54 1.26 0.4 1.26-0.14 0.01-3.51-1.12-7.5-2.5-4.17-1.44-7.9-2.19-8.77-1.76-0.96 0.47-1.99 0.13-2.75-0.9-0.68-0.9-5.73-3.1-11.23-4.87-5.5-1.77-12.02-3.89-14.5-4.7-2.47-0.8-8.1-1.65-12.5-1.88-4.4-0.22-9.57 0.1-11.5 0.72-2.26 0.72-7.49 0.9-14.75 0.5-6.93-0.38-11.07-1-10.79-1.62 0.26-0.55 0.28-1 0.05-1-0.22 0-0.63 0.34-0.89 0.75zm97.37 18.25c-0.03 2.01 0.6 2.65 3.24 3.26 1.8 0.42 3.83 0.76 4.52 0.75 0.69 0 1.25-0.69 1.25-1.51 0-0.96-1.35-1.71-3.75-2.09-2.06-0.33-4.08-1.12-4.48-1.75-0.43-0.68-0.75-0.12-0.78 1.34z"/>
		<path id="Path 3" class="s3" d="m141.14 42.5c-0.63 5.23-1.13 12.54-1.12 16.25 0.02 5.01 0.51 7.39 1.9 9.25l1.87 2.5c-0.74-4.65-0.18-9.83 0.77-14.5 0.94-4.67 1.99-11.33 2.33-14.78 0.38-3.95 1.17-6.64 2.11-7.24 1.09-0.69 0.38-0.95-2.61-0.96l-4.1-0.02zm80.34-5.61q-0.85 1.08 0.83 0.6c0.92-0.27 1.91-0.04 2.18 0.51 0.28 0.55 0.95 0.77 1.5 0.5 0.55-0.27 1-0.05 1 0.5 0 0.55 0.45 0.77 1 0.5 0.55-0.27 1-0.05 1 0.5 0 0.55 0.45 0.77 1 0.5 0.55-0.27 1.01-0.16 1.02 0.25 0.01 0.41 1.92 2.3 4.25 4.2 2.65 2.15 3.48 2.56 2.23 1.08-1.74-2.06-1.77-2.28-0.25-1.7 0.97 0.37 1.76 0.33 1.77-0.08 0-0.41-2.36-2.2-5.25-3.97-2.9-1.78-6.65-3.51-8.34-3.85-1.78-0.37-3.44-0.17-3.94 0.46zm-76.93 51.11c-0.41 1.92-0.59 4.26-0.4 5.19 0.29 1.44 0.86 1.28 3.84-1.13 3.31-2.67 3.37-2.82 1.07-2.69-1.82 0.1-2.61-0.51-3.11-2.37-0.63-2.37-0.7-2.32-1.4 1zm-65.29-0.75c-0.52 0.69-1.75 3.28-2.72 5.75-0.97 2.47-2.01 5.17-2.32 6-0.33 0.92 0.39 0.63 1.86-0.73 1.33-1.22 2.86-2.23 3.41-2.24 0.55 0 3.25-2.35 6-5.21 2.75-2.87 4.22-4.68 3.25-4.02-1.11 0.77-1.93 0.84-2.25 0.2-0.27-0.55-1.8-1-3.38-1-1.59 0-3.32 0.56-3.85 1.25zm160.36 39.38c-0.45 1.58-1.25 4.67-1.77 6.87-0.51 2.2-0.81 4.1-0.65 4.23 0.16 0.13 1.03-2.74 1.93-6.37 0.9-3.64 1.57-6.83 1.48-7.1-0.08-0.27-0.53 0.79-0.99 2.37zm-185.09 20.66c-1.63 5.62-2.98 11-3 11.96-0.02 0.96-0.37 1.75-0.79 1.75-0.41 0-0.52 0.9-0.25 2 0.28 1.1 0.05 2-0.5 2-0.58 0-0.7 0.94-0.29 2.25 0.52 1.63 0.38 2.04-0.5 1.5-0.87-0.54-1-0.19-0.46 1.23 0.42 1.1 0.82 1.88 0.9 1.75 0.08-0.12 1.37-4.95 2.86-10.73 1.49-5.78 3.56-13.2 4.6-16.5 1.04-3.3 1.56-6.32 1.14-6.71-0.41-0.39-2.08 3.89-3.71 9.5zm96.15-6.85c-0.38 0.86-0.24 1.78 0.31 2.06 0.55 0.28 1 0.16 1-0.25 0-0.41 0.64-0.75 1.41-0.75 0.77 0 1.22 0.34 1 0.75-0.22 0.41 0.03 1.54 0.56 2.5 0.79 1.42 0.98 1.14 1-1.5 0.02-1.79-0.42-3.25-0.97-3.25-0.55 0-1.59-0.25-2.31-0.56-0.72-0.3-1.62 0.15-2 1zm78.99 17.56c-0.32 1.37-0.37 2.72-0.11 3 0.26 0.28 0.95 0.05 1.54-0.5q1.08-1 0.12-3c-0.92-1.9-0.99-1.88-1.55 0.5zm-1 5.75c-0.24 0.41-0.1 1.65 0.29 2.75 0.64 1.77 0.76 1.69 1.13-0.73 0.22-1.5 0.09-2.74-0.3-2.75-0.38-0.01-0.89 0.32-1.12 0.73zm-12.94 5.92c-0.39 1.01-3.02 3.63-5.85 5.83-2.84 2.2-6.4 5.35-7.91 7-1.52 1.65-4.95 5.38-7.62 8.29-3.37 3.67-5.07 4.9-5.55 4-0.51-0.94-0.92-0.74-1.49 0.71-0.44 1.1-2.43 3.57-4.43 5.5-2 1.93-4.09 4.4-4.65 5.5-0.55 1.1-1.09 6.5-1.2 12-0.1 5.69-0.69 10.75-1.36 11.74-1.06 1.57-1.5 1.31-4.32-2.5-1.73-2.33-3.3-5.37-3.5-6.74-0.28-1.98-1.06-2.6-3.78-3-2.72-0.4-3.61-1.11-4.37-3.5-0.53-1.65-1.92-4.06-3.08-5.35-1.17-1.29-4.15-3.37-6.63-4.63-2.47-1.25-6.41-2.56-8.75-2.9-2.33-0.34-4.2-0.28-4.15 0.13 0.05 0.41 2.19 2.54 4.75 4.73 3.33 2.85 3.94 3.16 2.15 1.09-2.21-2.56-2.27-2.81-0.5-2.18 1.1 0.4 3.35 1.63 5 2.75 1.65 1.12 4.02 3.57 5.25 5.44 1.24 1.88 1.92 3.41 1.5 3.4-0.41-0.01-1.67-0.8-2.81-1.75-1.13-0.95-0.23-0.04 2 2.02 2.24 2.06 3.61 3.74 3.06 3.75-0.6 0-0.85 2.67-0.63 6.75 0.21 3.71 0.66 5.98 1 5.03 0.35-0.94 0.76 4.91 0.91 13 0.15 8.1 0.6 15.09 1 15.53 0.4 0.45 4.36 0.67 8.81 0.5 7.49-0.29 8.35-0.55 11.75-3.56 2.01-1.79 4.23-3.08 4.91-2.86 0.69 0.21 2.48-0.58 3.98-1.75 1.9-1.49 3.68-4.87 5.88-11.14 2.57-7.36 3.1-10.28 2.89-16-0.15-3.85-0.29-12.18-0.33-18.5-0.06-10.53 0.16-11.92 2.55-16.5 1.44-2.75 5.16-7.47 8.27-10.5 3.11-3.03 6.3-7.07 7.09-9 0.78-1.93 1.3-3.65 1.15-3.83-0.16-0.17-0.6 0.5-0.99 1.5zm-176.15 26.83c-0.32 0.82-0.14 1.5 0.41 1.5 0.55 0 0.95 1.01 0.9 2.25-0.06 1.24 1.66 6.3 3.83 11.25 2.17 4.95 5.39 11.7 7.16 15 1.77 3.3 3 5.32 2.73 4.5-0.26-0.82-2.47-6-4.89-11.5-2.43-5.5-5.16-13.26-6.06-17.25-0.9-3.99-2.06-7.25-2.57-7.25-0.51 0-1.19 0.68-1.51 1.5zm79.51 16.08c-1.17 2.91-1.9 7.39-1.98 12.25-0.08 4.22 0.33 10.14 0.91 13.17 0.61 3.2 1.97 6.45 3.26 7.78 1.22 1.25 2.66 2.28 3.21 2.29 0.56 0.01 0.46-0.56-0.21-1.28-0.66-0.71-1.73-6.24-2.37-12.29-0.95-8.98-0.91-11.97 0.21-16.27 0.75-2.9 1.71-5.26 2.12-5.25 0.42 0.01 0.75-0.43 0.75-0.98 0-0.55-0.56-0.7-1.25-0.34-0.72 0.38-0.89 0.28-0.41-0.25 0.45-0.5 1.24-1.02 1.75-1.16 0.5-0.14 1.25-0.28 1.66-0.32 0.42-0.04-0.15-0.46-1.25-0.93-1.1-0.47-2.57-0.89-3.27-0.93-0.71-0.04-2.12 1.99-3.13 4.51zm8.4 36.84c1.1 0.83 2.45 1.9 3 2.37 0.55 0.47 2.02 1.38 3.25 2.03 1.24 0.65 2.27 1.07 2.28 0.93 0.02-0.14-0.89-1.38-2.03-2.75-1.13-1.38-2.03-2.15-1.99-1.72 0.04 0.42-1.4 0.06-3.22-0.8-2.77-1.33-2.97-1.34-1.29-0.06zm35.5 14.92c1.58 0.93 5.66 1.55 11 1.67 4.68 0.11 9.18 0.1 10-0.02 0.83-0.12-0.07-0.59-2-1.05-1.92-0.46-4.85-1.09-6.5-1.4-2.45-0.46-2.63-0.39-1 0.43 1.49 0.74 0.45 0.89-4 0.6-3.3-0.21-6.9-0.68-8-1.04q-1.97-0.64 0.5 0.81z"/>
		<path id="Path 4" class="s4" d="m163.78 34.69c-0.94 0.25-1.99 1.44-2.32 2.63-0.33 1.2-0.68 8.71-0.78 16.68-0.1 7.98 0.16 17.09 0.57 20.25 0.49 3.79 1.18 5.66 2 5.48 0.69-0.15 4.75-2.51 9.03-5.25 4.27-2.74 7.76-5.09 7.75-5.23-0.02-0.14-1.15 0.31-2.52 1-1.37 0.69-2.67 1.03-2.9 0.75-0.23-0.28-0.68-8.26-1.01-17.75l-0.6-17.25c3.49-0.74 6.07-1.12 8-1.32 1.93-0.2-0.78-0.38-6-0.4-5.22-0.03-10.27 0.16-11.22 0.41zm-78.86 57.16c-2.43 2.51-3.52 3.85-2.42 2.99 1.1-0.87 2.56-1.41 3.25-1.21 0.69 0.2 1.25 1.05 1.25 1.87 0 1.02 1.04 1.51 3.25 1.53 2.59 0.02 3.51-0.53 4.53-2.75 0.7-1.53 1.02-3 0.72-3.28-0.3-0.28-2.11 0.29-4.02 1.25-1.92 0.96-3.48 1.3-3.48 0.75 0-0.55 0.45-1.9 1-3 0.55-1.1 0.85-2.16 0.67-2.36-0.19-0.2-2.32 1.7-4.75 4.21zm75.08 8.37c-2.38 1.49-3.02 2.32-2 2.59 0.82 0.22 2.4 0.16 3.5-0.13 1.1-0.29 2.34-1.47 2.75-2.61 0.41-1.14 0.41-2.06 0-2.05-0.41 0.01-2.32 1-4.25 2.2zm-76.5-0.34c-1.65 0.37-4.24 1.45-5.75 2.4-1.53 0.96-4.11 4.48-5.84 7.97l-3.09 6.25c4.51-5.42 7.81-8.01 10.25-9.24 2.44-1.23 5.67-2.24 7.18-2.25 1.51 0 5.67 1.57 9.25 3.49 4.78 2.57 6.63 4.16 7 6 0.28 1.38-0.06 3.2-0.75 4.07-0.69 0.86 3.36-0.83 8.99-3.75 5.63-2.93 10.09-5.77 9.91-6.32-0.17-0.55-0.5-0.79-0.73-0.53-0.23 0.25-3.12-1.07-6.42-2.94-3.3-1.86-6.34-3.99-6.75-4.71-0.41-0.73-1.2-1.32-1.75-1.32-0.55 0-0.78 0.45-0.5 1q0.5 1-2 0c-1.38-0.55-5.54-0.95-9.25-0.9-3.71 0.06-8.1 0.41-9.75 0.78zm41.95 12.71c-2.72 1.42-7.2 4.27-9.95 6.32-2.75 2.05-7.23 6.85-9.96 10.66-3.92 5.46-5.19 8.23-6 13.07-0.57 3.38-0.82 6.13-0.54 6.1 0.28-0.03 1.4 0.31 2.5 0.75q2 0.82 3-0.59c0.55-0.77 2.58-2.19 4.5-3.16 1.92-0.97 5.08-2.23 7-2.8 1.92-0.57 5.97-1.27 9-1.54 3.03-0.27 5.95-1.09 6.5-1.82 0.55-0.73 2.8-2.07 5-2.98 2.2-0.91 4.11-1.64 4.25-1.62 0.14 0.01 0.36 0.63 0.5 1.37 0.2 1.09 1 1.14 4.06 0.25l3.82-1.1c-5.45-10.85-9.3-16.59-12.08-19.75-2.78-3.16-5.41-5.75-5.85-5.75-0.43 0-3.02 1.16-5.75 2.59zm28.05 3.19c0.55 0.45 3.59 2.93 6.75 5.52l5.75 4.7c-1.49-5.04-1.71-6.84-1.46-7.25 0.25-0.41-1.9-1.43-4.79-2.26-2.89-0.83-5.7-1.51-6.25-1.52q-1 0 0 0.81zm-65.68 21.06c0.25 1.46 0.95 3.24 1.56 3.95 0.62 0.72 1.46 1.28 1.87 1.25 0.41-0.02 0.75-0.72 0.75-1.54 0-0.82 0.34-1.32 0.75-1.1 0.41 0.23 0.78-0.18 0.81-0.89 0.03-0.71-1.35-1.98-3.06-2.81-3.12-1.52-3.12-1.52-2.68 1.14zm77.93 7.35c-0.93 2.92-2.83 6.88-4.23 8.81-1.41 1.93-2.55 4.29-2.54 5.25 0.01 0.96-2 5.46-4.47 10-2.9 5.34-4.49 7.46-4.5 6 0-1.24-0.35-2.23-0.76-2.21-0.41 0.02-1.53 1.04-2.49 2.25-0.96 1.22-1.97 3.67-2.25 5.46-0.4 2.55 0.03 3.79 1.99 5.75 1.37 1.38 2.72 2.28 3 2 0.28-0.27 1.62 0.63 3 2 1.37 1.38 3.4 2.5 4.5 2.5 1.23 0 2.01-0.67 2.02-1.75 0.01-1.26 0.72-1.68 2.5-1.5 1.36 0.14 2.26 0.7 1.98 1.25-0.3 0.6 0.8 0.84 2.75 0.61 1.79-0.22 4.94-0.67 7-1 2.06-0.34 3.74-1.17 3.74-1.86-0.01-0.69 1.45-1.81 3.25-2.5 1.82-0.7 4.59-0.96 6.26-0.6 2.32 0.51 4.13-0.02 8-2.36 2.75-1.65 7.47-4.4 10.5-6.09 3.03-1.69 6.9-4.56 8.6-6.39 1.71-1.82 3.85-5.22 4.75-7.56 0.91-2.34 1.64-4.36 1.62-4.5-0.02-0.14-1.71 1.33-3.75 3.26-2.23 2.1-6.53 4.51-10.72 6.02-4.69 1.68-9.05 2.51-13.22 2.49-4.38-0.01-6.31 0.37-6.5 1.3-0.21 0.97-1.22 0.7-3.72-1-2.04-1.37-4.88-4.97-6.96-8.82-1.94-3.57-4.45-10.02-5.59-14.31l-2.08-7.82zm65.45 17.99c-1.27 5.13-2.56 10.23-2.88 11.33-0.31 1.1-0.29 1.77 0.04 1.5 0.34-0.28 1.76-5 3.16-10.5 1.4-5.5 2.42-10.38 2.26-10.83-0.15-0.45-1.31 3.37-2.58 8.5zm-152.55 1.78c-0.36 0.57 0.03 1.38 0.86 1.8 0.83 0.41 1.74 0.52 2.03 0.25 0.28-0.28-0.11-1.09-0.87-1.8q-1.38-1.31-2.02-0.25zm147.06 11.8c-0.39 1.78-0.47 4.71-0.19 6.5 0.43 2.65 0.34 2.88-0.49 1.25l-1.01-2c0.4 3.1 0.95 3.77 1.5 3.5 0.54-0.28 0.89-2.3 0.78-4.5-0.14-2.83 0.03-3.42 0.58-2 0.77 1.93 0.81 1.92 1.46-0.25 0.38-1.28 0.23-2.25-0.34-2.25-0.55 0-1.13-0.79-1.29-1.75-0.17-1.01-0.6-0.37-1 1.5zm-4.21 19.25c0 1.65 0.34 3 0.75 3 0.42 0 0.75-0.9 0.75-2 0-1.1 0-2.34 0-2.75 0-0.42-0.33-0.87-0.75-1-0.41-0.14-0.75 1.1-0.75 2.75zm-176.34 0.76c-1.04 0.57-1.16 2.1-0.54 6.74 0.66 4.9 0.86 5.35 1.12 2.5 0.16-1.93 0.52-4.52 0.78-5.75 0.27-1.24 1.5-2.68 2.73-3.19 2.25-0.94 2.25-0.94-0.25-0.99-1.37-0.02-3.1 0.29-3.84 0.69zm64.7 9.19c1.8 2.56 2.04 3.89 1.5 8.3-0.35 2.88-0.1 9.07 0.57 13.75 0.66 4.67 1.74 10.23 2.39 12.35 0.65 2.12 1.99 4.59 2.97 5.5 0.98 0.9 1.77 1.42 1.77 1.15-0.01-0.28-0.68-1.85-1.49-3.5-0.84-1.7-1.76-7.56-2.12-13.5-0.52-8.43-0.32-11.49 1.02-15.5 0.92-2.75 1.44-5.45 1.15-6-0.28-0.55-0.31-1.34-0.07-1.75 0.25-0.42 1.58-0.08 2.95 0.75 1.38 0.82 2.41 1.1 2.3 0.61-0.11-0.48-1.12-1.21-2.25-1.61-1.13-0.4-2.61-0.67-3.3-0.61-0.68 0.06-1.81-0.28-2.5-0.76-0.68-0.47-2.55-1.17-4.14-1.54l-2.9-0.68zm-56.37 22.54c0.83 1.93 1.18 4.06 0.78 4.75-0.55 0.92-0.36 0.99 0.72 0.25 1.17-0.79 1.32-0.64 0.74 0.75-0.43 1.05-0.33 1.55 0.28 1.25 0.55-0.27 1.47 0.29 2.05 1.25 0.59 0.96 0.9 1.3 0.71 0.75-0.2-0.55-1.5-3.59-2.9-6.75-1.4-3.16-2.85-5.75-3.22-5.75-0.38 0 0 1.58 0.84 3.5z"/>
		<path id="Path 5" fill-rule="evenodd" class="s5" d="m181.5 35c5.08-0.03 5.74 0.16 4.27 1.23-1.56 1.15-1.63 2.24-0.72 11.27 0.55 5.5 1.22 11.46 1.48 13.25 0.3 2.08 1.1 3.35 2.22 3.54 1.23 0.21 0.49 1.02-2.49 2.75-2.34 1.35-4.25 2.8-4.25 3.21-0.01 0.41 1.34 1.31 3 2 1.65 0.69 3 1.59 3 2-0.01 0.41-3.95 3.05-8.76 5.85-4.81 2.81-12.91 8.21-18 12-5.09 3.8-9.59 6.89-10 6.88-0.41 0-0.07-0.45 0.75-0.98q1.5-0.97 0.25-0.98c-0.69-0.01-1.25-0.92-1.25-2.02 0-1.1-0.22-2-0.5-2-0.28 0-1.74 0.48-3.25 1.06-1.51 0.59-2.3 0.68-1.75 0.2 0.55-0.48 4.15-3.38 8-6.44 3.85-3.07 11.28-8.37 16.5-11.79 5.22-3.41 9.72-6.43 10-6.71 0.28-0.27-0.73 0.1-2.24 0.84-1.5 0.74-2.92 1.12-3.15 0.84-0.22-0.28-0.7-8.15-1.05-17.5-0.51-13.4-0.37-17.16 0.65-17.73 0.71-0.41 3.99-0.75 7.29-0.77zm-90.11 50c0.2 0-0.03 1.13-0.51 2.5-0.87 2.47-0.82 2.49 3.62 2 2.47-0.28 4.51-0.16 4.53 0.25 0.02 0.41-0.91 1.65-2.08 2.75-1.82 1.73-2.03 1.76-1.53 0.25 0.32-0.96 0.13-1.75-0.42-1.75-0.55 0-2.35 0.67-4 1.5-1.65 0.83-3.02 1.1-3.05 0.62-0.02-0.48 0.66-2.51 1.51-4.5 0.86-1.99 1.73-3.62 1.93-3.62zm-5.92 8.67c0.79 0.3 1.48 1.28 1.53 2.19 0.07 1.35-0.18 1.42-1.46 0.39-0.84-0.69-2.1-0.94-2.79-0.56-0.98 0.54-0.98 0.34 0.02-0.94 0.7-0.9 1.91-1.38 2.7-1.08zm95.85-0.59c0.45-0.04 0.12 0.59-0.75 1.42-0.86 0.83-1.57 2.74-1.57 4.25-0.01 2.63 0.36 2.83 8.25 4.6 4.54 1.02 9.26 2.26 10.5 2.75 1.39 0.56 2.26 1.76 2.27 3.15 0.02 2.04-0.27 2.18-3.25 1.43-1.8-0.45-5.97-1.23-9.27-1.73-3.3-0.5-10.05-0.98-15-1.07-4.95-0.08-7.87-0.35-6.5-0.6 1.38-0.25 2.95-0.88 3.5-1.41q0.99-0.95-0.5-1.9c-0.82-0.52-2.85-0.95-4.5-0.97-1.65-0.02-2.52-0.36-1.93-0.77 0.59-0.4 1.38-1.52 1.75-2.48 0.43-1.1 3.55-2.65 8.43-4.17 4.26-1.33 8.12-2.45 8.57-2.5zm-95.1 11.92c1.53 0 5.7 1.58 9.28 3.5 3.58 1.92 6.5 3.61 6.5 3.75 0 0.14 0.45 1.71 1 3.5q1 3.25 0 2.75c-0.55-0.28-1.34 0.06-1.75 0.75-0.41 0.69-3.9 3.95-7.75 7.25-5.08 4.35-6.21 5.04-4.13 2.5 1.58-1.92 3.49-4.74 4.25-6.25 1.1-2.18 1.12-2.92 0.13-3.57-0.69-0.46-3.05-1.35-5.25-1.99-2.2-0.64-5.58-1.16-7.5-1.17-1.92 0-5.3 0.49-7.5 1.1-2.2 0.61-4.33 1.62-4.73 2.24-0.53 0.82-0.74 0.79-0.75-0.11-0.01-0.69 1.44-3.13 3.23-5.42 1.79-2.3 5.26-5.22 7.72-6.5 2.45-1.28 5.71-2.33 7.25-2.33zm82.57 14.56c2.04 0.85 5.74 2.85 8.21 4.43 2.48 1.59 5.69 4.15 7.14 5.7 1.45 1.55 6.13 8.21 10.39 14.81 6.5 10.06 7.88 11.68 8.54 10 0.44-1.1 0.82-3.46 0.86-5.25 0.04-1.79 0.63-3.48 1.32-3.76 0.69-0.28 1.38-1.74 1.53-3.25 0.16-1.51 0.51-2.96 0.78-3.24 0.27-0.28 0.48 0.63 0.45 2-0.02 1.38 0.53 3.07 1.22 3.77 0.7 0.69 2.98 1.26 5.07 1.25 2.71-0.02 4.49-0.73 6.25-2.52 1.35-1.38 2.45-2.95 2.45-3.5 0-0.55 0.55-0.66 1.23-0.25 0.87 0.53 1.02 0.24 0.5-1-0.52-1.23-0.37-1.53 0.48-1 0.89 0.55 1.02 0.08 0.5-1.75-0.56-1.99-0.45-2.25 0.54-1.27 1 0.98 0.71 2.69-1.44 8.5-1.47 4-3.61 9.41-4.75 12.02-1.13 2.61-3.52 5.84-5.31 7.18-1.79 1.33-6.18 3.48-9.75 4.77-4.26 1.55-8.64 2.35-12.72 2.33-4.38-0.02-6.31 0.36-6.5 1.29-0.21 0.97-1.22 0.7-3.73-1-2.14-1.44-4.87-4.97-7.19-9.32-2.05-3.85-4.44-9.81-5.3-13.25-0.86-3.44-1.57-8.84-1.59-12-0.01-4.03-0.54-6.31-1.75-7.61-0.94-1.02-1.75-3.27-1.79-5-0.03-1.73 0.1-3.47 0.29-3.88 0.2-0.41 2.03-0.05 4.07 0.8zm62.72 1.73c0.04 0.21-0.29 1.81-0.72 3.55-0.43 1.74-1.01 3.05-1.28 2.91-0.27-0.14 0.05-1.74 0.72-3.55 0.66-1.82 1.24-3.13 1.28-2.91zm-153.2 33.71c0.18 0-0.08 2.14-0.59 4.75-0.5 2.61-1.65 5.32-2.56 6.02-0.91 0.69-2.45 1.26-3.41 1.25-0.96-0.01-1.75-0.47-1.75-1.02 0-0.55 1.14-1.56 2.53-2.25 1.38-0.69 3.18-2.94 3.99-5 0.81-2.06 1.61-3.75 1.79-3.75zm-24.81 3.5l0.25 4.75c0.14 2.61 0.81 5.01 1.5 5.32 0.69 0.31 3.86-0.03 7.06-0.75 3.19-0.73 6.01-0.98 6.25-0.57 0.24 0.41-0.35 0.76-1.31 0.77-0.96 0.01-5.03 0.79-16.34 3.48l0.56-2.5c0.32-1.37 0.9-4.3 1.3-6.5zm1.75 36.58c2.06-0.04 3.97 0.37 4.25 0.92 0.27 0.55-0.96 1.44-2.75 1.99-1.79 0.54-3.93 1.78-4.75 2.75-0.83 0.97-2.06 3-2.75 4.51-0.69 1.51-1.28 3.76-1.32 5-0.07 2.15-0.11 2.16-0.93 0.25-0.47-1.1-0.9-4.03-0.95-6.5-0.04-2.47 0.49-5.24 1.18-6.13 0.7-0.9 1.94-1.88 2.77-2.18 0.82-0.29 3.19-0.57 5.25-0.61zm45.1 6.05c4.49 0.13 8.05 0.49 7.93 0.8-0.12 0.32 0.66 1.81 1.75 3.32 1.62 2.26 1.85 3.69 1.33 8-0.36 2.89-0.1 9.07 0.56 13.75 0.67 4.68 1.75 10.27 2.4 12.44 0.87 2.92 2.41 4.81 5.93 7.25 2.61 1.82 4.52 3.76 4.25 4.31-0.28 0.55-0.16 0.91 0.25 0.79 0.41-0.12 3.35 0.67 6.53 1.75 3.18 1.08 5.77 2.3 5.75 2.71-0.02 0.41-0.59 0.57-1.28 0.35-0.69-0.23-5.19-1.69-10-3.25-5.7-1.86-8.31-3.14-7.5-3.69q1.22-0.83-0.5-0.25c-0.96 0.32-2.88 0.37-4.25 0.09q-2.49-0.5-1.75-1.74 0.74-1.23-0.5-0.5c-0.69 0.41-2.71 0.45-4.5 0.1-2.75-0.55-2.94-0.75-1.25-1.34 1.8-0.63 1.72-0.77-0.75-1.36-1.51-0.36-2.53-1.11-2.25-1.66 0.27-0.55 1.62-1 3-1 1.95 0 2.36-0.39 1.88-1.75-0.33-0.96-0.99-3.32-1.44-5.25-0.46-1.93-2.88-7.55-5.38-12.5-2.49-4.95-4.54-10.12-4.54-11.5 0-1.37-0.61-3.4-1.35-4.5-0.73-1.1-1.59-2.81-1.9-3.8-0.52-1.64 0.13-1.78 7.58-1.57zm10.9 0.99c0.96-0.07 3.1 0.56 4.75 1.38 1.65 0.82 3 1.72 3 2 0 0.28-0.79 0.21-1.75-0.16-0.96-0.36-2.2-0.98-2.75-1.39-0.55-0.4-1.9-0.96-3-1.23-1.62-0.39-1.67-0.51-0.25-0.6zm61 64c2.34 0.06 5.6 0.46 7.25 0.88 2.83 0.72 2.86 0.77 0.5 0.95-1.38 0.11-4.15 0.27-6.16 0.37-2.01 0.1-3.54-0.23-3.4-0.74 0.13-0.51-0.36-0.62-1.1-0.25-0.74 0.37-1.34 0.22-1.34-0.33 0-0.55 1.91-0.95 4.25-0.88z"/>
		<path id="Path 6" fill-rule="evenodd" class="s6" d="m133 31.27c2.47 0 3.38 0.2 2 0.44-1.38 0.23-3.4 0.23-4.5 0-1.1-0.24 0.03-0.44 2.5-0.44zm17 1.03c3.03 0 4.15 0.19 2.5 0.42-1.65 0.23-4.13 0.23-5.5 0-1.38-0.23-0.03-0.42 3-0.42zm59.5 2.94l5.75-0.12c3.91-0.08 6.23 0.36 7.25 1.38 1.33 1.33 1.25 1.44-0.75 0.95-1.24-0.3-4.5-0.92-7.25-1.38zm-107.75 1.77c0.33 0-0.6 1.23-2.05 2.75-1.46 1.51-3.55 4.32-4.66 6.25-1.1 1.92-2.97 5.52-4.16 8-1.18 2.47-3.42 7.65-4.99 11.5-1.56 3.85-2.85 6.55-2.88 6-0.02-0.55 0.91-3.93 2.06-7.5 1.15-3.58 3.17-8.75 4.5-11.5 1.33-2.75 4.47-7.37 6.99-10.25 2.52-2.89 4.86-5.25 5.19-5.25zm148.85 27c0.34 0 0.4 4.83 0.14 10.75-0.33 7.61-1.53 15.12-4.09 25.75-1.99 8.25-4.32 17.47-5.19 20.5-0.86 3.02-1.73 5.27-1.93 5-0.2-0.28 0.29-2.98 1.08-6 0.8-3.03 3.23-13.38 5.41-23 2.17-9.63 3.92-18.63 3.88-20-0.05-1.38-1.12 2.45-2.39 8.5-1.27 6.05-4.4 19.55-6.96 30-2.71 11.05-4.41 20.04-4.07 21.5 0.46 1.99 0.36 2.2-0.53 1-0.87-1.17-0.99-0.72-0.54 2 0.45 2.65 0.33 3.13-0.49 2-0.85-1.19-1.01-0.92-0.75 1.31 0.18 1.55-0.01 3.01-0.42 3.25-0.41 0.24-0.56 1-0.33 1.69 0.23 0.68-0.05 3.27-0.62 5.75-0.76 3.3-1.27 4.1-1.91 3-0.69-1.21-0.86-1.12-0.85 0.5 0.01 1.1-0.23 1.77-0.52 1.5-0.3-0.28 0.97-6.8 2.81-14.5 1.84-7.7 3.88-16.48 4.53-19.5 0.64-3.03 2.81-13.15 4.81-22.5 2.01-9.35 4.2-20.15 4.88-24 0.68-3.85 1.28-6.44 1.34-5.75 0.06 0.68 0.56 1.02 1.11 0.75 0.55-0.28 1-2.53 1-5 0-2.48 0.27-4.5 0.6-4.5zm-40.6 12.07c3.03 2.12 7.75 6.13 10.5 8.9 2.92 2.95 4.38 5.06 3.5 5.06-0.82 0.01-3.3-1.48-5.5-3.31-2.2-1.82-6.36-4.98-9.25-7.02-3.59-2.53-5.17-4.3-5-5.6 0.22-1.67 0.9-1.43 5.75 1.97zm-77.28 5.82c1.22 0.88 2.23 1.94 2.25 2.36 0.02 0.41 0.48 0.52 1.03 0.25 0.58-0.29 0.98 1.07 0.92 7l-1.46-2.75c-0.8-1.52-1.91-2.75-2.46-2.75-0.55 0-1.16 0.56-1.35 1.25-0.2 0.68-0.53-0.6-0.75-2.86-0.4-4.08-0.39-4.1 1.82-2.5zm-64.03 32.65c0.17 0.25-1.43 3.94-3.55 8.21-2.13 4.26-4.41 9.55-5.07 11.75-0.67 2.2-1.39 3.77-1.61 3.5-0.22-0.28 0.35-3.2 1.26-6.5 0.9-3.3 2.03-6.23 2.49-6.5 0.46-0.28 0.56-1.4 0.22-2.5-0.38-1.23-0.29-1.53 0.23-0.79 0.58 0.84 1.6-0.17 3.28-3.21 1.34-2.43 2.58-4.22 2.75-3.96zm83.14 19.28c0.99 0.92 2.18 2.8 2.64 4.18 0.77 2.27 0.7 2.36-0.78 1-0.89-0.83-2.31-2.07-3.16-2.75-0.84-0.69-1.3-1.89-1.02-2.68 0.43-1.18 0.81-1.14 2.32 0.25zm38.39 1.66c1.25 1.65 4.33 6.15 6.83 10 2.5 3.86 4.87 7.58 5.25 8.27 0.39 0.68 0.48 1.25 0.2 1.25-0.27 0-3.65-4.73-7.5-10.5-3.85-5.78-7.02-10.84-7.03-11.25-0.02-0.42 0.99 0.59 2.25 2.23zm36.35 6.95c0.04 0.24-0.33 2.15-0.82 4.25-0.49 2.1-1.07 3.59-1.28 3.32-0.22-0.28 0.15-2.19 0.81-4.25 0.67-2.07 1.24-3.56 1.29-3.32zm-12.15 32.99c0.05 0.2-0.5 2.1-1.22 4.22-0.72 2.12-2.86 5.32-4.75 7.11-2.09 1.96-3.89 4.93-4.56 7.5-0.61 2.33-1.05 7.62-0.97 11.75 0.08 4.12 0.39 8.4 0.69 9.5 0.3 1.1-0.21 5.15-1.13 9-0.93 3.85-2.78 10.15-4.12 14-1.34 3.85-3.43 8.77-4.65 10.93-1.22 2.16-4.91 6.05-8.21 8.65-5.73 4.51-6.38 4.75-14.65 5.56-4.76 0.47-8.47 0.52-8.25 0.11 0.22-0.42-0.61-0.77-1.85-0.79-1.24-0.03-5.18-1.09-8.75-2.36-5.12-1.83-6.45-2.72-6.28-4.21 0.12-1.04 0.01-1.33-0.25-0.64-0.26 0.68-1.71 1.23-3.22 1.21-2.64-0.03-2.67-0.08-0.75-1.4 1.84-1.26 1.86-1.42 0.25-1.97-0.96-0.33-2.2-0.59-2.75-0.59-0.55 0-0.77 0.67-0.5 1.5 0.41 1.24 0.11 1.3-1.75 0.39-1.86-0.91-1.99-1.25-0.75-1.94 1.19-0.67 0.94-1.06-1.25-1.9-1.51-0.58-3.2-1.05-3.75-1.05-0.55 0-2.17-1.02-3.6-2.25-1.42-1.24-3.22-3.49-4-5-0.89-1.75-1.49-6.71-1.65-13.56-0.24-10.31-0.12-11 5.25-19.19l3.75 1.2c2.06 0.67 3.19 1.34 2.5 1.5-0.69 0.16-2.22 2.21-3.4 4.55-1.55 3.06-2.29 6.76-2.63 13.25-0.42 7.79-0.2 9.56 1.65 13.25 1.66 3.32 3.28 4.79 7.38 6.72 2.89 1.35 7.05 2.74 9.25 3.07 3.44 0.52 4.21 0.28 5.5-1.72 1.09-1.69 1.64-6.36 2-17.12 0.46-13.59 0.64-14.69 2.15-13.5 1.19 0.93 1.83 3.57 2.25 9.3 0.33 4.4 0.89 11.6 1.25 16 0.62 7.65 0.54 8.07-1.75 9.75-1.94 1.43-2.07 1.76-0.65 1.75 0.96 0 1.8-0.57 1.87-1.25 0.06-0.69 0.41 0.1 1.41 4.75h8.57c8.25 0 8.71-0.13 12.24-3.25 2.01-1.79 4.22-3.08 4.91-2.87 0.69 0.21 2.48-0.57 3.98-1.75 1.9-1.49 3.68-4.87 5.87-11.13 2.58-7.36 3.11-10.28 2.89-16-0.14-3.85-0.29-12.18-0.32-18.5-0.06-10.11 0.21-12.05 2.23-16 1.27-2.48 5.03-7.3 8.37-10.73 3.33-3.42 6.1-6.06 6.15-5.85zm-70.92 30.06c1.1 0.34 3.35 1.54 5 2.66 1.65 1.11 4.01 3.56 5.25 5.44 1.24 1.88 1.91 3.42 1.5 3.42-0.41 0.01-3.68-2.73-7.25-6.07-3.57-3.34-5.6-5.8-4.5-5.45zm41.31 58.49c3.52 0.44 3.55 0.48 0.69 0.79-1.65 0.18-3.31-0.03-3.69-0.47-0.38-0.44 0.97-0.58 3-0.32z"/>
		<path id="Path 7" class="s7" d="m129.19 63.25c0.81 2.52 1.24 2.91 1.91 1.75 0.76-1.32 1.23-1.29 3.88 0.25 1.66 0.96 3.02 1.53 3.02 1.25 0-0.28-2.03-1.85-4.5-3.5-2.47-1.65-4.69-3-4.93-3-0.23 0 0.05 1.46 0.62 3.25zm122.24 10.56c-0.05 10.2-0.59 13.86-4.23 28.69-2.3 9.35-5.55 22.85-7.23 30-1.69 7.15-4.17 17.72-5.53 23.5-1.35 5.78-2.68 11.51-2.95 12.75-0.27 1.24-0.04 2.25 0.51 2.25 0.55 0 1.64-2.14 2.42-4.75 0.78-2.61 2.78-10.6 4.45-17.75 1.67-7.15 5.62-24.03 8.78-37.5 5-21.31 5.75-25.8 5.73-34.5-0.01-5.5-0.43-10.98-0.95-12.19-0.65-1.53-0.95 1.32-1 9.5zm-67.06 4.04c-5.43 3.14-12.57 7.56-15.87 9.83-3.3 2.27-9.15 6.63-13 9.7-6.72 5.35-7.08 5.51-9 3.88l-2-1.69 4 4.67c6.98-3.2 10.8-5.57 13-7.32 2.2-1.76 8.28-6.01 13.5-9.44 5.23-3.43 12.31-7.64 15.75-9.36l6.25-3.12c6.59 3.35 10.75 5.78 13.5 7.56 2.75 1.78 6.01 4.19 7.25 5.34 1.24 1.16 2.27 1.76 2.29 1.35 0.02-0.41-2.57-2.68-5.75-5.04-3.19-2.35-9-6.03-12.92-8.17l-7.12-3.89zm-50.29-3.6c-0.05 0.41 0.64 2.43 1.52 4.5 0.88 2.06 1.85 7.8 2.15 12.75 0.34 5.65 0.12 10.21-0.61 12.25-0.9 2.54-0.88 3.25 0.1 3.27 0.69 0.01 1.6-1.45 2.01-3.25 0.42-1.8 0.77-5.07 0.77-7.27-0.01-2.2-0.48-6.48-1.06-9.5-0.58-3.03-1.9-7.3-2.93-9.5-1.03-2.2-1.91-3.67-1.95-3.25zm-30.09 13.1c-3.02 2.39-6.4 5.33-7.5 6.53l-2 2.18c4.27-0.05 5.84-0.73 6.25-1.54 0.42-0.82 3-3.08 5.75-5.02 2.75-1.95 5.68-3.52 6.5-3.5 0.83 0.03 2.2 0.6 3.06 1.27 0.85 0.68 0.18-0.02-1.5-1.53-1.68-1.52-3.51-2.76-4.06-2.75-0.55 0-3.47 1.97-6.5 4.36zm52.25 22.02c2.73 2.61 2.84 2.62 14.5 2.07 8.06-0.39 14.43-0.11 20.25 0.88 4.68 0.8 8.73 1.27 9 1.06 0.28-0.21 0.11-0.72-0.36-1.13-0.47-0.42-4.3-1.32-8.5-2.02-4.2-0.7-13.71-1.25-21.14-1.22-8.8 0.04-14.02-0.34-15-1.1-0.82-0.64-0.26 0.02 1.25 1.46zm-57.4 24.38c-1.96 2.06-4.25 5.55-5.09 7.75-0.84 2.2-2.6 7.7-3.89 12.24-1.3 4.53-2.02 8.58-1.61 9 0.42 0.41 0.99-0.71 1.25-2.49 0.34-2.26 0.88-3.03 1.74-2.51q1.25 0.73 0.5-0.5c-0.41-0.68-0.37-1.81 0.1-2.49 0.46-0.69 1.47-3.5 2.23-6.25 0.77-2.75 3.21-8.04 5.44-11.75 2.22-3.72 3.78-6.75 3.46-6.75-0.32 0-2.18 1.68-4.13 3.75zm57.86 9.75c0.3 2.75 0.92 6.8 1.39 9 0.69 3.32 0.79 2.8 0.54-3-0.17-3.85-0.79-7.9-1.39-9-0.85-1.58-0.96-0.95-0.54 3zm-76.21 26.49c-1.65 0.44-8.06 1.97-14.25 3.41-6.18 1.43-12.71 2.59-14.5 2.58-2.29-0.01-2.95 0.31-2.25 1.07 0.55 0.6 3.03 1.09 5.5 1.08 2.48 0 9.23-1.12 15-2.47 5.78-1.36 11.97-2.74 13.75-3.07 1.96-0.36 3.25-1.19 3.25-2.09 0-0.83-0.78-1.46-1.75-1.41-0.96 0.05-3.1 0.45-4.75 0.9zm140.45 41.39c-2.39 9.96-5.39 21.49-6.67 25.62-1.28 4.12-4 9.92-6.05 12.88-2.05 2.97-5.53 6.99-7.73 8.94-2.2 1.95-6.7 4.8-10 6.34-3.3 1.53-7.68 3.02-9.75 3.31-2.69 0.38-3.75 1.02-3.77 2.28-0.01 1.48 0.56 1.64 3.75 1.04 2.08-0.39 6.25-1.64 9.27-2.77 3.03-1.14 7.98-4 11-6.35 3.03-2.35 7.14-6.73 9.14-9.73 2-2.99 4.8-9.27 6.21-13.94 1.42-4.68 4.4-15.93 6.63-25 2.24-9.08 4.28-17.29 4.54-18.25 0.27-0.97-0.13-1.92-0.87-2.12-1-0.27-2.51 4.41-5.7 17.75zm-157.95 39.53c1.46 1.13 4.59 2.11 7.5 2.34 2.75 0.22 9.73-0.02 15.5-0.52 5.78-0.51 12.98-0.68 16-0.37 3.03 0.31 13.83 3.33 24 6.71 10.18 3.38 21.77 7.22 25.75 8.54 4.11 1.35 7.14 1.92 7 1.31-0.13-0.6-11.5-4.84-25.25-9.44-13.75-4.59-27.92-8.92-31.5-9.62-5.16-1.02-8.14-1.03-14.5-0.07-4.4 0.66-11.03 1.2-14.75 1.2-3.71 0.01-7.98-0.45-9.5-1.01l-2.75-1.02z"/>
		<path id="Path 8" class="s8" d="m115 31.97c-2.47 0.46-5.63 1.29-7 1.84-1.38 0.55-4.46 2.73-6.85 4.84-2.4 2.12-4.91 4.98-5.59 6.35-0.68 1.38-2.13 4.08-3.22 6-1.09 1.92-3.7 7.78-5.81 13-2.1 5.22-4.89 12.65-6.19 16.5-1.3 3.85-2.38 7.22-2.4 7.5-0.01 0.28 0.55-0.07 1.27-0.77 0.71-0.71 2.64-1.16 4.29-1 2.06 0.18 2.9 0.74 2.68 1.77-0.17 0.83 1.63-0.36 4-2.64 2.38-2.27 6.35-5.35 8.82-6.85 4.03-2.42 4.75-2.57 6.87-1.36 1.31 0.74 8.4 7.31 15.75 14.6 7.36 7.29 13.83 13.03 14.38 12.75 0.55-0.28 1-3.2 1-6.5 0-3.33-0.67-7.33-1.5-9-0.82-1.65-1.95-3-2.5-3-0.55 0-1.19 0.56-1.42 1.25-0.23 0.69-0.46-0.33-0.51-2.25-0.05-1.92-1.6-7.78-3.44-13-1.84-5.22-4.54-12.09-5.99-15.25-1.45-3.16-2.19-5.75-1.64-5.75 0.55 0 3.59 1.75 6.75 3.88 3.16 2.14 7.32 5.27 9.25 6.97l3.5 3.08c0.33-7.31 1.01-14.49 1.72-20.67 0.95-8.38 1.66-11.34 2.78-11.63 0.82-0.22-1.43-0.46-5-0.53-3.57-0.08-9.43-0.32-13-0.55-3.58-0.23-8.53-0.04-11 0.42zm80.16 37.75c0.19 0.94 2.14 2.72 4.34 3.94 2.92 1.63 4.19 1.91 4.69 1.04 0.38-0.66 0.16-1.82-0.5-2.57-0.65-0.75-2.43-1.99-3.94-2.75-1.51-0.76-3.24-1.38-3.84-1.38-0.6 0-0.94 0.77-0.75 1.72zm-45.14 69.53c0.01 1.76 0.2 1.93 0.88 0.75 0.48-0.82 1.38-1.16 1.99-0.75 0.61 0.41 1.22 0.35 1.34-0.14 0.13-0.49-0.54-1.17-1.5-1.5-0.95-0.34-1.95-0.61-2.23-0.61-0.28 0-0.49 1.01-0.48 2.25zm7.7 94c-0.26 1.24-0.13 2.93 0.29 3.75 0.49 0.96 0.78 0.15 0.83-2.25 0.03-2.06-0.09-3.75-0.29-3.75-0.19 0-0.57 1.01-0.83 2.25z"/>
		<path id="Path 9" fill-rule="evenodd" class="s9" d="m141 31.27c2.47 0 3.38 0.2 2 0.44-1.38 0.23-3.4 0.23-4.5 0-1.1-0.24 0.03-0.44 2.5-0.44zm18 1c2.47 0 3.38 0.2 2 0.44-1.38 0.23-3.4 0.23-4.5 0-1.1-0.24 0.03-0.44 2.5-0.44zm18 1.03c3.03 0 4.15 0.19 2.5 0.42-1.65 0.23-4.13 0.23-5.5 0-1.38-0.23-0.03-0.42 3-0.42zm22.75 0.86c5.09-0.09 9.43 0.18 9.66 0.59 0.22 0.41-2.59 0.63-6.25 0.47-3.66-0.15-8.01-0.41-9.66-0.59-1.65-0.17 1.16-0.38 6.25-0.47zm-99.03 2.84c0.2 0-1.68 2.36-4.19 5.25-2.5 2.89-5.61 7.5-6.9 10.25-1.29 2.75-2.83 6.35-3.43 8-0.59 1.65-2.56 7.83-4.39 13.72-1.82 5.9-3.45 10.63-3.63 10.5-0.18-0.12 1.09-5.84 2.82-12.72 1.91-7.62 4.58-15.22 6.82-19.45 2.02-3.82 5.67-8.89 8.11-11.25 2.44-2.37 4.6-4.3 4.79-4.3zm29.52 20.5c0.69 0.23 2.05 1.56 3.01 2.96 1.08 1.57 2.22 2.25 2.99 1.79q1.23-0.74 0.5 0.5c-0.55 0.93-1.75 0.54-4.63-1.5-2.13-1.51-3.71-3.07-3.51-3.46 0.21-0.38 0.95-0.52 1.64-0.29zm116.31 13.5c0.25 0 0.39 1.91 0.19 8.5l-0.68-3.5c-0.37-1.92-0.51-3.84-0.32-4.25 0.2-0.41 0.56-0.75 0.81-0.75zm3.24 5.5c0.18 1.1-0.86 7.4-2.31 14-1.45 6.6-4.19 18.53-6.09 26.5-1.91 7.97-4.24 17.51-5.18 21.19-0.94 3.68-1.86 6.6-2.04 6.5-0.17-0.11 0.21-2.66 0.86-5.69 0.65-3.03 3.63-15.63 6.61-28 2.98-12.38 5.97-25.65 6.62-29.5 0.66-3.85 1.35-6.1 1.53-5zm-119.29 0.5c0.28 0 1.61 1.01 2.96 2.25 1.35 1.24 2.48 3.04 2.5 4 0.03 1.44-0.5 1.26-2.99-1-1.67-1.51-3.02-3.31-3-4 0.02-0.69 0.25-1.25 0.53-1.25zm112.19 17.39c0.11 0.18-1.17 7.25-2.83 15.72-1.66 8.46-3.22 15.61-3.47 15.89-0.24 0.28-0.44-0.03-0.42-0.67 0.01-0.64 1.2-6.94 2.64-14 1.45-7.06 2.91-13.83 3.26-15.05 0.35-1.22 0.72-2.07 0.82-1.89zm-171.98 13.08c0.16 0.29-0.55 2.44-1.58 4.78-1.03 2.34-3.07 6.28-4.54 8.75-2.3 3.89-2.56 4.09-1.98 1.5 0.36-1.65 1.17-3.58 1.78-4.29 0.61-0.72 0.77-1.28 0.36-1.25-0.41 0.02 0.16-0.97 1.26-2.21 1.11-1.24 2.55-3.5 3.21-5.03 0.65-1.53 1.32-2.54 1.49-2.25zm72.63 13.07c1.36 1.63 2.24 3.41 1.96 3.96-0.31 0.59-1.05 0.38-1.8-0.5-0.71-0.83-1.59-2.61-1.96-3.96-0.66-2.36-0.58-2.34 1.8 0.5zm3.71 4.46c0.52 0 2.09 2.36 3.49 5.25 1.4 2.89 1.84 4.35 0.99 3.25-1.17-1.49-1.56-1.62-1.56-0.5 0 0.82-1.05-0.3-2.33-2.5-1.28-2.2-2.15-4.34-1.93-4.75 0.21-0.41 0.82-0.75 1.34-0.75zm88.53 2.2c0.23 0.39 0.19 2.42-0.11 4.5-0.29 2.09-0.76 3.58-1.03 3.3-0.28-0.28-0.23-2.3 0.1-4.5 0.34-2.2 0.8-3.68 1.04-3.3zm-1.9 9.28c0.09 0.21-0.58 3.77-1.5 7.91-0.93 4.13-1.82 7.42-2 7.31-0.17-0.11 0.51-3.67 1.5-7.9 1-4.24 1.9-7.53 2-7.32zm-10.19 17.94c0.03 0.27-1.01 3.55-2.32 7.29-1.31 3.73-4.33 12.41-6.7 19.29-2.38 6.87-5.73 19.25-7.45 27.5-1.72 8.25-3.32 15.22-3.56 15.5-0.24 0.28-0.36-1.75-0.26-4.5 0.11-2.75 0.05-8.6-0.12-13-0.16-4.4 0.2-9.91 0.81-12.25 0.67-2.57 2.59-5.73 4.86-8 2.94-2.94 4.93-6.83 9.21-18.04 3.01-7.86 5.49-14.07 5.53-13.79zm0.07 23.92c0.06 0.27-0.61 2.98-1.48 6.03-0.87 3.06-1.71 5.46-1.87 5.34-0.15-0.11 0.51-2.83 1.49-6.03 0.97-3.21 1.81-5.61 1.86-5.34zm-90.54 34.66c0.54 0 3.79 1.07 7.23 2.39 3.44 1.31 7.72 3 12.77 5.11l-0.01 13.25c-0.01 9.54-0.43 14.23-1.51 16.75-1.45 3.38-1.66 3.49-6.4 3.25-2.7-0.14-4.74-0.47-4.53-0.75 0.21-0.28-1.86-1.51-4.6-2.75-3.87-1.75-5.44-3.19-7.1-6.5-1.85-3.68-2.07-5.45-1.65-13.25 0.35-6.53 1.07-10.17 2.65-13.25 1.19-2.34 2.61-4.25 3.15-4.25zm69.48 12.18c0.22 0.37 0.16 2.17-0.11 4-0.28 1.83-0.73 3.1-1.01 2.82-0.27-0.28-0.22-2.07 0.12-4 0.34-1.93 0.79-3.19 1-2.82zm-1.95 8.09c0.06 0.22-0.43 2.39-1.07 4.82-0.65 2.42-2.26 6.62-3.58 9.31-1.32 2.7-4.76 7.09-7.65 9.75-2.89 2.67-5.79 4.85-6.45 4.85-0.73 0-0.82-0.32-0.25-0.8 0.52-0.44 3.09-2.47 5.7-4.5 2.77-2.16 5.74-5.68 7.11-8.45 1.3-2.61 3.2-7.14 4.22-10.06 1.02-2.93 1.91-5.14 1.97-4.92zm-2.55 23.8q1.48-0.02-1 1.98c-1.38 1.11-3.74 2.67-5.25 3.48-1.51 0.81-3.99 1.35-8.25 0.94l3.25-1.73c1.79-0.96 2.93-1.23 2.54-0.61-0.41 0.65-0.19 0.97 0.5 0.75 0.67-0.21 1.1-0.8 0.96-1.31-0.14-0.51 1.1-1.5 2.75-2.2 1.65-0.7 3.67-1.29 4.5-1.3z"/>
		<path id="Path 10" class="s10" d="m123.5 30.7c6.05 0.15 23.49 0.96 38.75 1.79 15.26 0.83 30.56 1.45 34 1.37 3.44-0.07 5.35-0.28 4.25-0.47-1.1-0.19-15.72-1.03-32.5-1.87-16.78-0.84-36.13-1.43-43-1.31l-12.5 0.21zm-20.03 3.21c-4.08 1.99-7.95 5.07-12.26 9.75-5.73 6.24-6.58 7.77-9.68 17.35-1.86 5.77-4.58 14.55-6.04 19.5-1.45 4.95-3.04 10.12-3.51 11.5-0.48 1.37-2.27 7.22-3.97 13-1.71 5.77-2.97 10.61-2.81 10.74 0.17 0.14 1.49-1.89 2.95-4.5 1.46-2.61 3.81-8.12 5.22-12.24 1.41-4.13 4.41-14.7 6.67-23.5 2.7-10.57 5.34-18.37 7.78-22.96 2.02-3.82 5.71-8.91 8.18-11.3 2.47-2.4 7.2-5.69 10.5-7.32 3.3-1.63 5.31-2.96 4.47-2.94-0.84 0.01-4.21 1.32-7.5 2.92zm107.34 0.8c1.28 0.24 3.08 0.23 4-0.02 0.93-0.25-0.11-0.44-2.31-0.43-2.2 0.01-2.96 0.21-1.69 0.45zm30.9 15.54c2.64 3.09 5.01 5.44 5.29 5.21 0.28-0.23-0.63-1.98-2-3.88-1.38-1.9-3.75-4.25-5.29-5.21-2.21-1.4-1.81-0.61 2 3.88zm-115.95 10.76c-0.19 1.37 0.74 5.42 2.05 9 1.31 3.57 3.47 7.51 4.79 8.75 1.32 1.23 2.4 1.8 2.4 1.25 0-0.55-1.64-5.17-3.65-10.25-2-5.09-4.01-9.7-4.45-10.25-0.46-0.59-0.94 0.04-1.14 1.5zm119.41 13.5c-0.08 1.1-3.49 15.27-7.58 31.5-4.09 16.22-9 34.45-10.92 40.5-1.91 6.05-4.47 13.47-5.67 16.5-1.21 3.02-4.15 11.12-6.53 18-2.38 6.87-5.53 18.35-7 25.5-1.47 7.15-3.25 15.25-3.96 18-0.71 2.75-2.08 7.7-3.04 11-0.96 3.3-2.92 8.42-4.36 11.39-1.43 2.97-4.52 7.13-6.86 9.25-2.34 2.12-3.91 3.87-3.5 3.88 0.41 0.02 2.55-1.25 4.75-2.82 2.2-1.56 5.93-5.06 8.29-7.77 2.37-2.72 5.13-6.73 6.15-8.93 1.02-2.2 5.53-17.05 10.04-33 4.5-15.95 9.43-33.95 10.97-40 1.53-6.05 4.61-19.1 6.86-29 2.24-9.9 4.36-19.8 4.72-22 0.35-2.2 2.44-11.65 4.63-21 2.2-9.35 3.8-18.35 3.57-20-0.22-1.65-0.48-2.1-0.56-1z"/>
		<path id="Path 11" class="s11" d="m202 89.74c3.57 0.2 8.97 0.19 12 0 3.03-0.2 0.1-0.36-6.5-0.36-6.6 0-9.07 0.17-5.5 0.36zm-105.71 75.76c0 2.83 0.19 3.7 0.42 2 0.23-1.65 0.23-3.9-0.01-5-0.24-1.1-0.42 0.25-0.41 3zm38.67 38.25c-0.03 0.41 0.67 1.43 1.54 2.25 0.87 0.82 1.57 1.05 1.55 0.5-0.02-0.55 0.63 0.24 1.46 1.75 0.82 1.51 1.26 3.2 0.99 3.75-0.28 0.55 0.18 1 1 1 0.82 0 2.51 0.65 3.75 1.45 1.24 0.8 3.22 1.37 4.41 1.25 1.19-0.11 1.97-0.54 1.75-0.95-0.23-0.41-1.39-0.75-2.58-0.75-1.19 0-1.86-0.34-1.49-0.75 0.37-0.41-0.34-1.77-1.58-3.03-1.24-1.25-2.6-2.26-3.01-2.25-0.41 0.02-1.65-1.1-2.75-2.47-1.1-1.38-2.68-2.5-3.5-2.5-0.82 0-1.52 0.34-1.54 0.75z"/>
		<path id="Path 12" class="s12" d="m97.94 91.75l-3.44 3.75c5.84-5.42 7.53-7.11 7.52-7.25-0.01-0.14-0.16-0.25-0.33-0.25-0.17 0-1.85 1.69-3.75 3.75zm73.56 16.96c1.1 0.23 3.13 0.23 4.5 0 1.38-0.24 0.47-0.44-2-0.44-2.47 0-3.6 0.2-2.5 0.44zm-121.07 67.01c1.62 0.23 3.87 0.22 5-0.02 1.14-0.23-0.18-0.42-2.93-0.41-2.76 0-3.68 0.2-2.07 0.43zm16.38 74.99c1.28 0.24 3.08 0.23 4-0.02 0.93-0.25-0.11-0.45-2.31-0.44-2.2 0.01-2.96 0.22-1.69 0.46zm11 0c1.28 0.24 3.08 0.23 4-0.02 0.93-0.25-0.11-0.45-2.31-0.44-2.2 0.01-2.96 0.22-1.69 0.46zm91.19 19.01c1.93 0.22 4.63 0.22 6-0.01 1.38-0.22-0.2-0.41-3.5-0.4-3.3 0.01-4.43 0.19-2.5 0.41z"/>
		<path id="Path 13" class="s13" d="m136.04 113.21c-0.04 0.16 1.08 1.87 2.48 3.79 1.41 1.93 2.88 3.51 3.27 3.52 0.39 0 1.39 0.43 2.21 0.94 1.26 0.78 1.3 0.66 0.25-0.77-0.69-0.93-1.7-1.46-2.25-1.19-0.55 0.28-1.22-0.62-1.5-2-0.27-1.37-1.37-2.97-2.44-3.54-1.07-0.56-1.98-0.9-2.02-0.75zm1.4 145.04c0.31 0.96 1.24 1.75 2.06 1.75 0.82 0 1.84-0.55 2.25-1.23q0.78-1.25-0.75-0.56c-0.82 0.37-2.09 0.13-2.81-0.52-1.04-0.95-1.19-0.83-0.75 0.56z"/>
		<path id="Path 14" class="s14" d="m164.81 108.71c1.28 0.24 3.08 0.23 4-0.02 0.93-0.25-0.11-0.45-2.31-0.44-2.2 0.01-2.96 0.22-1.69 0.46zm39.54 29.29c0 4.68 0.17 6.48 0.38 4 0.21-2.47 0.21-6.3 0-8.5-0.21-2.2-0.38-0.18-0.38 4.5zm-37.08-3c0 2.48 0.2 3.38 0.44 2 0.23-1.37 0.23-3.4 0-4.5-0.24-1.1-0.44 0.03-0.44 2.5zm-106.77 60.71c1.1 0.23 3.12 0.23 4.5 0 1.37-0.24 0.47-0.44-2-0.44-2.48 0-3.6 0.2-2.5 0.44z"/>
		<path id="Path 15" class="s15" d="m111.78 29.82c-0.94 0.37 4.68 0.55 12.5 0.4 7.82-0.15 15.57-0.42 17.22-0.59 1.65-0.17-3.97-0.35-12.5-0.4-8.53-0.05-16.27 0.22-17.22 0.59zm36.72 0.9c1.65 0.23 4.57 0.23 6.5 0 1.93-0.22 0.57-0.4-3-0.4-3.57 0-5.15 0.18-3.5 0.4zm21 1c1.65 0.23 4.57 0.23 6.5 0 1.93-0.22 0.57-0.4-3-0.4-3.57 0-5.15 0.18-3.5 0.4zm19.5 1c1.93 0.22 4.63 0.22 6-0.01 1.38-0.22-0.2-0.41-3.5-0.4-3.3 0.01-4.43 0.19-2.5 0.41zm16 1c1.93 0.22 4.63 0.22 6-0.01 1.38-0.22-0.2-0.41-3.5-0.4-3.3 0.01-4.43 0.19-2.5 0.41zm-113.04 7.79c-2.45 2.49-4.23 4.52-3.96 4.52 0.28 0 2.5-2.03 4.95-4.52 2.45-2.48 4.23-4.51 3.96-4.51-0.27 0-2.5 2.03-4.95 4.51z"/>
		<path id="Path 16" class="s16" d="m231 38.3c0.28 0.19 2.07 1.36 4 2.61l3.5 2.26c-4.65-4-6.45-5.17-7-5.19-0.55-0.02-0.78 0.12-0.5 0.32zm-85.42 41.2c-0.45 2.75-1.44 6.8-2.22 9-0.77 2.2-1.4 4.67-1.41 5.5 0 0.83 0.2 1.28 0.45 1 0.25-0.28 1.42-4.33 2.6-9 1.19-4.67 1.98-9.17 1.77-10-0.21-0.83-0.75 0.75-1.19 3.5zm-106.94 115.25c-0.25 0.41 2.09 0.62 5.2 0.47 3.11-0.16 6.78-0.43 8.16-0.6 1.37-0.18-0.97-0.39-5.2-0.47-4.24-0.08-7.91 0.19-8.16 0.6z"/>
		<path id="Path 17" class="s17" d="m93.22 153.25c-1.17 1.24-3.06 5.18-4.19 8.75-1.14 3.57-2.03 7.4-1.98 8.5 0.07 1.73 0.23 1.67 1.18-0.5 0.6-1.38 1.61-3.63 2.25-5 0.64-1.38 1.13-3.68 1.09-5.12-0.05-1.95 0.32-2.47 1.43-2.02q1.51 0.61 0.75-0.63c-0.43-0.71-0.04-1.76 0.94-2.48 1.47-1.09 1.59-0.99 0.93 0.75-0.42 1.1-0.39 1.63 0.06 1.17 0.45-0.46 0.84-1.92 0.86-3.25 0.01-1.33-0.25-2.42-0.59-2.42-0.33 0-1.57 1.01-2.73 2.25zm138.73 17.6c-0.76 0.91-1.45 2.33-1.53 3.15-0.08 0.82-0.51 2.4-0.96 3.5-0.45 1.1-0.85 3.87-0.89 6.15-0.04 2.29-0.29 4.02-0.57 3.85-0.27-0.17-0.54 0.21-0.59 0.85-0.05 0.63-0.39 2.16-0.75 3.4-0.37 1.27-0.23 2.25 0.34 2.25 0.55 0 1.45-1.8 2-4 0.55-2.2 0.78-4.68 0.5-5.5-0.27-0.82-0.05-1.72 0.5-2 0.55-0.28 0.78-0.95 0.5-1.5-0.27-0.55-0.05-1.68 0.5-2.5 0.55-0.82 0.77-2.29 0.49-3.25-0.28-0.96 0.28-2.54 1.25-3.51 0.97-0.96 1.5-1.93 1.18-2.15-0.32-0.21-1.21 0.35-1.97 1.26zm-63.94 101.14c-0.01 1.19 0.7 2.07 1.74 2.16 0.96 0.09 2.65 0.14 3.75 0.12 1.1-0.02 2.34-0.09 2.75-0.15 0.41-0.07 0.75-0.95 0.76-1.96 0.01-1.49-0.85-1.87-4.49-2.01-3.9-0.14-4.5 0.1-4.51 1.84z"/>
		<path id="Path 18" class="s18" d="m159.06 269.71c0.24 0.9 1.68 2.02 3.19 2.47 2.09 0.62 2.73 0.49 2.68-0.58-0.04-0.77-1.48-1.89-3.2-2.47-2.71-0.93-3.06-0.86-2.67 0.58z"/>
		<path id="Path 19" class="s1" d="m165.5 80.67c-0.46 0.36-0.78 1.6-0.71 2.75 0.11 1.86 0.29 1.92 1.71 0.58 0.87-0.83 1.57-2.06 1.54-2.75-0.02-0.69-0.42-1.25-0.87-1.25-0.46 0-1.21 0.3-1.67 0.67zm-5.95 3.33c-0.3 0.55-0.1 1.22 0.45 1.5 0.55 0.28 1.44-0.17 1.99-1 0.72-1.1 0.6-1.5-0.45-1.5-0.8 0-1.69 0.45-1.99 1z"/>
	</g>
</svg>