<svg xmlns="http://www.w3.org/2000/svg" width="204" height="192" viewBox="0 0 204 192" version="1.1"><path d="M 0 96.005 L 0 192.009 102.250 191.755 L 204.500 191.500 204.755 95.750 L 205.010 0 102.505 0 L 0 0 0 96.005 M 0.480 96.500 C 0.480 149.300, 0.602 170.753, 0.750 144.174 C 0.898 117.595, 0.898 74.395, 0.750 48.174 C 0.601 21.953, 0.480 43.700, 0.480 96.500 M 83 3.360 C 75.435 5.128, 64.307 8.873, 59.500 11.270 C 45.965 18.017, 29.925 32.880, 22.447 45.603 C 12.867 61.902, 9.499 74.372, 9.642 93 C 9.764 108.793, 11.730 117.710, 17.969 130.759 C 23.045 141.379, 26.832 146.876, 34.939 155.394 C 46.885 167.947, 64.858 177.880, 82.500 181.678 C 91.400 183.594, 114.757 182.973, 123.354 180.592 C 155.859 171.591, 179.792 147.698, 188.710 115.348 C 191.016 106.982, 191.426 103.544, 191.431 92.500 C 191.438 78.474, 189.607 69.182, 184.364 56.629 C 178.442 42.451, 165.083 26.472, 151.500 17.320 C 135.772 6.722, 123.450 2.940, 103 2.434 C 93.481 2.198, 86.611 2.516, 83 3.360 M 88.500 16.453 C 62.906 20.779, 42.440 35.833, 31.038 58.721 C 25.943 68.948, 24.031 76.335, 23.319 88.541 C 21.197 124.957, 44.676 157.122, 80.701 167.150 C 90.953 170.004, 108.330 170.217, 118.500 167.614 C 150.177 159.505, 172.986 133.795, 177.034 101.638 C 180.470 74.339, 169.290 48.171, 147 31.343 C 130.004 18.511, 108.581 13.058, 88.500 16.453 M 92.500 22.574 C 91.400 22.835, 87.350 23.769, 83.500 24.650 C 47.361 32.914, 24.398 69.114, 31.478 106.662 C 32.423 111.677, 34.638 117.921, 37.628 124 C 41.475 131.822, 43.730 134.913, 50.400 141.500 C 63.106 154.049, 74.724 159.729, 92.542 162.101 C 100.229 163.124, 103.025 163.059, 111.295 161.662 C 127.686 158.892, 139.654 152.686, 151 141.072 C 158.806 133.082, 164.129 124.292, 167.695 113.500 C 169.999 106.528, 170.342 103.830, 170.364 92.500 C 170.387 80.757, 170.117 78.727, 167.567 71.500 C 159.161 47.670, 142.349 31.624, 118.829 24.981 C 111.752 22.982, 96.609 21.597, 92.500 22.574 M 113.255 49.821 C 112.570 50.256, 108.217 54.273, 103.583 58.747 C 91.153 70.745, 84.624 71.623, 75.797 62.482 C 73.434 60.035, 70.941 58.026, 70.259 58.017 C 68.969 57.999, 63 63.754, 63 65.016 C 63 66.297, 73.394 75.131, 77.210 77.093 C 79.795 78.422, 82.979 78.997, 87.710 78.991 C 96.855 78.978, 101.560 76.139, 115 62.527 C 124.968 52.432, 125.402 51.820, 123.559 50.447 C 121.478 48.896, 115.302 48.521, 113.255 49.821 M 122.643 60.935 C 115.795 68.115, 114 72.026, 114 79.772 C 114 88.496, 117.063 93.628, 129.911 106.423 C 139.131 115.604, 141.118 117.147, 142.375 116.104 C 144.485 114.353, 145.270 109.840, 144.031 106.583 C 143.453 105.062, 139.391 100.328, 135.004 96.063 C 122.055 83.475, 121.206 78.212, 130.501 68.172 L 135.916 62.324 132.137 58.634 L 128.358 54.944 122.643 60.935 M 58.035 70.934 C 57.466 71.998, 57 74.534, 57 76.569 C 57 79.873, 57.950 81.245, 65.874 89.385 C 70.754 94.398, 75.254 99.483, 75.874 100.684 C 78.714 106.193, 75.945 113.810, 68.968 119.680 C 67.336 121.054, 66 122.725, 66 123.393 C 66 124.061, 67.516 126.077, 69.369 127.873 L 72.739 131.139 77.944 125.820 C 85.352 118.248, 87.425 113.917, 87.429 106 C 87.432 101.664, 86.828 98.335, 85.616 96 C 83.859 92.615, 61.280 69, 59.801 69 C 59.399 69, 58.605 69.870, 58.035 70.934 M 104.684 107.387 C 102.585 108.170, 99.885 109.621, 98.684 110.612 C 93.111 115.212, 76 132.594, 76 133.655 C 76 135.348, 82.308 137.212, 85.406 136.434 C 86.841 136.074, 91.051 132.792, 94.764 129.140 C 106.007 118.079, 107.596 117, 112.642 117 C 118.209 117, 120.233 118.015, 126.329 123.866 L 131.158 128.500 134.602 124.557 L 138.045 120.615 133.273 115.726 C 130.648 113.038, 126.713 109.915, 124.529 108.786 C 119.463 106.168, 109.786 105.486, 104.684 107.387" stroke="none" fill="#f9f9f9" fill-rule="evenodd"/><path d="M 83 3.360 C 75.435 5.128, 64.307 8.873, 59.500 11.270 C 45.965 18.017, 29.925 32.880, 22.447 45.603 C 12.867 61.902, 9.499 74.372, 9.642 93 C 9.764 108.793, 11.730 117.710, 17.969 130.759 C 23.045 141.379, 26.832 146.876, 34.939 155.394 C 46.885 167.947, 64.858 177.880, 82.500 181.678 C 91.400 183.594, 114.757 182.973, 123.354 180.592 C 155.859 171.591, 179.792 147.698, 188.710 115.348 C 191.016 106.982, 191.426 103.544, 191.431 92.500 C 191.438 78.474, 189.607 69.182, 184.364 56.629 C 178.442 42.451, 165.083 26.472, 151.500 17.320 C 135.772 6.722, 123.450 2.940, 103 2.434 C 93.481 2.198, 86.611 2.516, 83 3.360 M 88.500 16.453 C 62.906 20.779, 42.440 35.833, 31.038 58.721 C 25.943 68.948, 24.031 76.335, 23.319 88.541 C 21.197 124.957, 44.676 157.122, 80.701 167.150 C 90.953 170.004, 108.330 170.217, 118.500 167.614 C 150.177 159.505, 172.986 133.795, 177.034 101.638 C 180.470 74.339, 169.290 48.171, 147 31.343 C 130.004 18.511, 108.581 13.058, 88.500 16.453 M 92.500 22.574 C 91.400 22.835, 87.350 23.769, 83.500 24.650 C 47.361 32.914, 24.398 69.114, 31.478 106.662 C 32.423 111.677, 34.638 117.921, 37.628 124 C 41.475 131.822, 43.730 134.913, 50.400 141.500 C 63.106 154.049, 74.724 159.729, 92.542 162.101 C 100.229 163.124, 103.025 163.059, 111.295 161.662 C 127.686 158.892, 139.654 152.686, 151 141.072 C 158.806 133.082, 164.129 124.292, 167.695 113.500 C 169.999 106.528, 170.342 103.830, 170.364 92.500 C 170.387 80.757, 170.117 78.727, 167.567 71.500 C 159.161 47.670, 142.349 31.624, 118.829 24.981 C 111.752 22.982, 96.609 21.597, 92.500 22.574 M 113.255 49.821 C 112.570 50.256, 108.217 54.273, 103.583 58.747 C 91.153 70.745, 84.624 71.623, 75.797 62.482 C 73.434 60.035, 70.941 58.026, 70.259 58.017 C 68.969 57.999, 63 63.754, 63 65.016 C 63 66.297, 73.394 75.131, 77.210 77.093 C 79.795 78.422, 82.979 78.997, 87.710 78.991 C 96.855 78.978, 101.560 76.139, 115 62.527 C 124.968 52.432, 125.402 51.820, 123.559 50.447 C 121.478 48.896, 115.302 48.521, 113.255 49.821 M 122.643 60.935 C 115.795 68.115, 114 72.026, 114 79.772 C 114 88.496, 117.063 93.628, 129.911 106.423 C 139.131 115.604, 141.118 117.147, 142.375 116.104 C 144.485 114.353, 145.270 109.840, 144.031 106.583 C 143.453 105.062, 139.391 100.328, 135.004 96.063 C 122.055 83.475, 121.206 78.212, 130.501 68.172 L 135.916 62.324 132.137 58.634 L 128.358 54.944 122.643 60.935 M 58.035 70.934 C 57.466 71.998, 57 74.534, 57 76.569 C 57 79.873, 57.950 81.245, 65.874 89.385 C 70.754 94.398, 75.254 99.483, 75.874 100.684 C 78.714 106.193, 75.945 113.810, 68.968 119.680 C 67.336 121.054, 66 122.725, 66 123.393 C 66 124.061, 67.516 126.077, 69.369 127.873 L 72.739 131.139 77.944 125.820 C 85.352 118.248, 87.425 113.917, 87.429 106 C 87.432 101.664, 86.828 98.335, 85.616 96 C 83.859 92.615, 61.280 69, 59.801 69 C 59.399 69, 58.605 69.870, 58.035 70.934 M 104.684 107.387 C 102.585 108.170, 99.885 109.621, 98.684 110.612 C 93.111 115.212, 76 132.594, 76 133.655 C 76 135.348, 82.308 137.212, 85.406 136.434 C 86.841 136.074, 91.051 132.792, 94.764 129.140 C 106.007 118.079, 107.596 117, 112.642 117 C 118.209 117, 120.233 118.015, 126.329 123.866 L 131.158 128.500 134.602 124.557 L 138.045 120.615 133.273 115.726 C 130.648 113.038, 126.713 109.915, 124.529 108.786 C 119.463 106.168, 109.786 105.486, 104.684 107.387" stroke="none" fill="#0a0a0a" fill-rule="evenodd"/></svg>