<svg xmlns="http://www.w3.org/2000/svg" width="40" height="40" fill="none" viewBox="0 0 40 40"><g clip-path="url(#jpmon_svg-a)"><path fill="#D9D9D9" d="M20 0c11.046 0 20 8.954 20 20s-8.954 20-20 20S0 31.046 0 20 8.954 0 20 0"/><path fill="#000" d="M26 6a8 8 0 0 1 8 8v12a8 8 0 0 1-8 8H14a8 8 0 0 1-8-8V14a8 8 0 0 1 8-8z"/><path fill="#fff" d="M24.451 22.088q.204.082.603.105v.114h-3.006v-.113q.4-.025.603-.106a.48.48 0 0 0 .281-.261q.078-.18.077-.53v-3.633h-.024l-2.06 4.75H20.9l-2.208-4.733h-.024v3.616q0 .35.082.53.08.18.28.26.2.082.599.107v.113h-2.293v-.113q.399-.025.598-.106a.5.5 0 0 0 .281-.261q.081-.18.082-.53v-3.641q0-.35-.082-.53a.5.5 0 0 0-.28-.26q-.2-.082-.6-.106v-.114h2.058l1.879 4.101 1.822-4.101h1.96v.114q-.399.024-.603.106a.5.5 0 0 0-.285.264q-.082.183-.082.526v3.641q0 .35.082.53t.285.26m3.828-.132c-1.201.008-2.154-.958-2.154-2.525 0-1.656.887-2.622 1.902-2.622s1.45.914 1.673 1.813l.162-.003v-1.653c-.381-.211-1.007-.45-1.916-.45-1.753 0-3.077 1.284-3.077 2.997 0 1.631 1.104 2.922 3.004 2.914 1.048-.008 1.778-.633 2.127-1.112l-.113-.122c-.236.268-.707.755-1.608.763m-13.416-2.117v1.458q0 .342.098.526.098.183.326.265t.692.105v.114h-3.152v-.113q.4-.025.598-.106a.5.5 0 0 0 .281-.261q.082-.18.082-.53V17.68c0-.745-.337-.896-.848-.896-.56 0-.903.15-.903.871v4.047c0 .915-.595 1.784-1.768 1.784q-.135 0-.269-.015v-.098q.419-.024.676-.286.285-.289.285-.95v-4.482q0-.343-.081-.526a.5.5 0 0 0-.285-.264q-.204-.082-.595-.106v-.114h5.567c1.266 0 2.05.633 2.05 1.588 0 1.094-1.075 1.605-2.035 1.605zm0-.218h.389c.66 0 1.216-.387 1.216-1.378 0-1.212-.8-1.378-1.196-1.378h-.409z"/></g><defs><clipPath id="jpmon_svg-a"><path fill="#fff" d="M0 0h40v40H0z"/></clipPath></defs></svg>