<svg xmlns="http://www.w3.org/2000/svg" width="64" height="65" fill="none" viewBox="0 0 64 65"><rect width="64" height="64" y=".304" fill="#7D43FF" rx="32"/><rect width="63" height="63" x=".5" y=".804" stroke="#070B14" stroke-opacity=".15" rx="31.5"/><path fill="#fff" d="M44.014 26.304h2.688a3.3 3.3 0 0 0 3.3-3.302v-8.698h-8.699a3.303 3.303 0 0 0-3.302 3.3v2.7a6 6 0 1 1-12 0v-2.819a3.184 3.184 0 0 0-3.184-3.181H14v36.001h8.75a3.25 3.25 0 0 0 3.25-3.25v-2.75a6 6 0 0 1 6-6v.011a6 6 0 0 1 6 6v2.714a3.276 3.276 0 0 0 3.277 3.276H50V41.58a3.275 3.275 0 0 0-3.275-3.276H44a6 6 0 0 1-6-6h.012a6 6 0 0 1 6-6"/></svg>