<svg xmlns="http://www.w3.org/2000/svg" width="64" height="65" fill="none" viewBox="0 0 64 65"><g clip-path="url(#knc_svg-a)"><rect width="64" height="64" y=".304" fill="#31CB9E" rx="32"/><path fill="#fff" d="M28.544 35.312 47.36 45.424c.64.32.704 1.152.128 1.536l-12.736 9.152c-.576.448-1.408.128-1.6-.576zM27.968 9.52c.768-.512 1.792.064 1.6.96l-5.056 21.824 4.992 21.824c.192.832-.832 1.472-1.6.96l-12.8-9.152a2.46 2.46 0 0 1-1.024-1.984V20.656c0-.768.384-1.536 1.024-1.984zM48.576 22c.64-.384 1.536.064 1.536.832v18.944c0 .704-.832 1.152-1.536.832L29.44 32.304zM33.152 9.072c.128-.704 1.024-.96 1.6-.576l12.736 9.088c.576.384.512 1.216-.128 1.536L28.544 29.296z"/></g><rect width="63" height="63" x=".5" y=".804" stroke="#070B14" stroke-opacity=".15" rx="31.5"/><defs><clipPath id="knc_svg-a"><rect width="64" height="64" y=".304" fill="#fff" rx="32"/></clipPath></defs></svg>