<?xml version="1.0" encoding="UTF-8"?>
<svg version="1.1" xmlns="http://www.w3.org/2000/svg" width="250" height="250">
<path d="M0 0 C82.5 0 165 0 250 0 C250 82.5 250 165 250 250 C167.5 250 85 250 0 250 C0 167.5 0 85 0 0 Z " fill="#000000" transform="translate(0,0)"/>
<path d="M0 0 C1.40166664 -0.00956978 1.40166664 -0.00956978 2.83164978 -0.01933289 C3.84828201 -0.02044571 4.86491425 -0.02155853 5.91235352 -0.02270508 C6.94940933 -0.02603348 7.98646515 -0.02936188 9.0549469 -0.03279114 C11.25326085 -0.03786493 13.45158254 -0.04019932 15.64990234 -0.04003906 C19.02332177 -0.04222471 22.39641394 -0.06037347 25.76977539 -0.0793457 C27.90063364 -0.08227962 30.03149345 -0.08426443 32.16235352 -0.08520508 C33.17696152 -0.09239059 34.19156952 -0.09957611 35.23692322 -0.10697937 C36.17451981 -0.10390274 37.11211639 -0.10082611 38.078125 -0.09765625 C38.90561752 -0.09908127 39.73311005 -0.10050629 40.5856781 -0.10197449 C42.60375977 0.14526367 42.60375977 0.14526367 44.60375977 2.14526367 C44.8442688 4.96731567 44.8442688 4.96731567 44.83081055 8.61450195 C44.8311026 9.2780368 44.83139465 9.94157166 44.83169556 10.62521362 C44.83030032 12.82213339 44.81473044 15.01871553 44.79907227 17.21557617 C44.79534281 18.73729263 44.79249552 20.25901149 44.79049683 21.7807312 C44.782855 25.78882459 44.7632019 29.79677338 44.74108887 33.80480957 C44.7206422 37.89353479 44.71149764 41.98228333 44.70141602 46.07104492 C44.67995644 54.09585092 44.64581397 62.12053931 44.60375977 70.14526367 C45.79979324 70.13860184 45.79979324 70.13860184 47.01998901 70.13180542 C54.52459254 70.09177534 62.0291445 70.06130311 69.53382683 70.04163933 C73.39230773 70.03119024 77.25070062 70.01701067 81.10913086 69.99438477 C84.83088169 69.97269627 88.55254771 69.96070353 92.27435684 69.95550919 C93.69617168 69.95180622 95.11798174 69.94457548 96.53976059 69.93380356 C98.5270309 69.91934248 100.51438607 69.91844721 102.50170898 69.91821289 C103.63422089 69.91377167 104.76673279 69.90933044 105.93356323 69.90475464 C108.60375977 70.14526367 108.60375977 70.14526367 110.60375977 72.14526367 C110.85099792 74.01148987 110.85099792 74.01148987 110.84667969 76.30371094 C110.85129463 77.58998131 110.85129463 77.58998131 110.85600281 78.90223694 C110.84522453 80.29290627 110.84522453 80.29290627 110.83422852 81.71166992 C110.83377029 82.66089828 110.83331207 83.61012665 110.83283997 84.58811951 C110.82981615 86.5963567 110.82192601 88.60459151 110.80957031 90.61279297 C110.79131416 93.69857016 110.78906058 96.7840475 110.78930664 99.86987305 C110.7843916 101.81714128 110.77856334 103.76440748 110.77172852 105.71166992 C110.77061569 106.64080704 110.76950287 107.56994415 110.76835632 108.52723694 C110.76197647 109.38159836 110.75559662 110.23595978 110.74902344 111.11621094 C110.74521164 111.8718483 110.74139984 112.62748566 110.73747253 113.40602112 C110.60375977 115.14526367 110.60375977 115.14526367 109.60375977 116.14526367 C91.01653829 118.32613904 91.01653829 118.32613904 83.97875977 113.39526367 C82.80860779 112.01565728 81.68839431 110.59306799 80.60375977 109.14526367 C79.27804094 107.69720166 77.95139538 106.2498773 76.60913086 104.81713867 C75.16864872 103.27282482 73.75395535 101.70788074 72.34204102 100.13745117 C69.92622148 97.47166083 67.41765697 94.9198507 64.85375977 92.39526367 C62.1299084 89.71011712 59.53548925 86.98237582 57.04125977 84.08276367 C53.41703958 79.93138418 49.50048426 76.04198817 45.60375977 72.14526367 C45.27375977 86.66526367 44.94375977 101.18526367 44.60375977 116.14526367 C37.64367674 116.16816705 30.68372344 116.18809586 23.72363281 116.20019531 C21.35383665 116.20523709 18.98404361 116.21207032 16.61425781 116.22070312 C13.21621938 116.23277557 9.81822191 116.23849338 6.42016602 116.24291992 C5.35351212 116.24808121 4.28685822 116.25324249 3.18788147 116.25856018 C2.20694016 116.25863571 1.22599884 116.25871124 0.21533203 116.25878906 C-0.65292709 116.26100967 -1.52118622 116.26323029 -2.41575623 116.26551819 C-4.39624023 116.14526367 -4.39624023 116.14526367 -5.39624023 115.14526367 C-5.49925437 113.80532751 -5.53472476 112.46008402 -5.54150391 111.11621094 C-5.54788376 110.26184952 -5.55426361 109.4074881 -5.56083679 108.52723694 C-5.56194962 107.59809982 -5.56306244 106.66896271 -5.56420898 105.71166992 C-5.56753738 104.76339828 -5.57086578 103.81512665 -5.57429504 102.83811951 C-5.57936843 100.82811978 -5.58170324 98.81811159 -5.58154297 96.80810547 C-5.58372845 93.72438748 -5.60187706 90.64102761 -5.62084961 87.55737305 C-5.62378358 85.60880657 -5.62576835 83.66023838 -5.62670898 81.71166992 C-5.6338945 80.78455704 -5.64108002 79.85744415 -5.64848328 78.90223694 C-5.64540665 78.04472336 -5.64233002 77.18720978 -5.63916016 76.30371094 C-5.64058517 75.54727798 -5.64201019 74.79084503 -5.64347839 74.01148987 C-5.39624023 72.14526367 -5.39624023 72.14526367 -3.39624023 70.14526367 C-1.40939331 69.86679077 -1.40939331 69.86679077 1.0534668 69.82641602 C1.97427032 69.80654633 2.89507385 69.78667664 3.84378052 69.76620483 C5.33758743 69.74887802 5.33758743 69.74887802 6.86157227 69.73120117 C8.38885452 69.70215195 8.38885452 69.70215195 9.94699097 69.67251587 C13.20749465 69.61261013 16.46803344 69.56629069 19.72875977 69.52026367 C21.93580664 69.48209402 24.14283845 69.4430429 26.34985352 69.40307617 C31.76768887 69.30689973 37.18561449 69.22188468 42.60375977 69.14526367 C33.15191175 58.51292279 23.07654406 48.53418264 12.97875977 38.52026367 C9.71288321 35.28093381 6.45031841 32.03831989 3.18969727 28.79370117 C2.4419101 28.05421234 1.69412292 27.31472351 0.92367554 26.55282593 C0.23850861 25.87096222 -0.44665833 25.18909851 -1.15258789 24.48657227 C-2.05879379 23.58822159 -2.05879379 23.58822159 -2.98330688 22.67172241 C-5.33067275 20.13575201 -5.52392277 18.40077016 -5.52905273 15.04760742 C-5.5303418 14.24645508 -5.53163086 13.44530273 -5.53295898 12.61987305 C-5.5290918 11.78262695 -5.52522461 10.94538086 -5.52124023 10.08276367 C-5.52510742 9.24165039 -5.52897461 8.40053711 -5.53295898 7.53393555 C-5.52085829 0.025456 -5.52085829 0.025456 0 0 Z " fill="#FEFEFE" transform="translate(72.396240234375,66.854736328125)"/>
<path d="M0 0 C0.33 0 0.66 0 1 0 C1 22.44 1 44.88 1 68 C22.12 68 43.24 68 65 68 C65 68.33 65 68.66 65 69 C44.21 69.33 23.42 69.66 2 70 C1.67 84.52 1.34 99.04 1 114 C0.67 114 0.34 114 0 114 C0 99.15 0 84.3 0 69 C-15.51 69 -31.02 69 -47 69 C-47 68.67 -47 68.34 -47 68 C-24.23 67.505 -24.23 67.505 -1 67 C-0.67 44.89 -0.34 22.78 0 0 Z " fill="#E4E4E4" transform="translate(116,69)"/>
</svg>
