<svg xmlns="http://www.w3.org/2000/svg" width="400" height="400" viewBox="0 0 400 400"><path fill="#F3F7F6" d="M0 0h400v400H0z"/><path fill="#6C9C7F" d="M191.372 153.78a175 175 0 0 0 5.03 3.61c11.735 8.167 22.679 17.27 33.598 26.485l1.612 1.356c2.318 1.964 4.585 3.956 6.794 6.042l2.094 1.977 1.719 1.703c1.784 1.26 1.784 1.26 4.199.984 3.22-1.169 4.947-2.798 7.395-5.187 3.58-3.368 6.991-6.129 11.3-8.484 2.085-1.307 2.085-1.307 4.235-3.653 7.671-7.558 19.757-14.503 30.715-15.05 9.912 1.1 19.337 4.47 26.238 11.921 7.037 9.109 9.884 18.027 8.699 29.516-1.89 10.484-7.122 18.327-15.695 24.562-7.32 4.566-15.754 6.384-24.305 5.438-10.704-2.839-21.967-9.592-30-17.14-2.473-2.3-5.069-4.416-7.687-6.548l-2.7-2.199L252 207l-2.582-2.332c-2.195-1.827-2.195-1.827-4.352-1.762-3.17 1.679-5.579 4.115-8.128 6.594a1266 1266 0 0 1-3.524 3.32l-1.76 1.654c-4.039 3.728-8.343 7.122-12.654 10.526l-2.021 1.603C207.538 234.076 198.039 241.34 188 248l-1.669 1.12c-21.302 14.25-41.643 24.824-67.956 19.88-19.632-5.34-34.763-17.445-45.05-34.832-8.849-16.4-11.081-34.915-6.825-53.043 5.765-18.38 17.78-34.837 35.004-44.063 32.669-16.54 62.52-4.118 89.868 16.717"/><path fill="#10777A" d="M319.125 169.5c7.864 5.003 13.275 12.934 15.477 21.969 1.76 11.184-.184 21.166-6.805 30.426-6.795 7.96-15.374 12.263-25.75 13.3-6.011.316-12.017-.712-17.047-4.195-1.145-2.25-1.145-2.25-1-5 1.88-2.382 3.614-4.273 5.813-6.312l1.697-1.667C295.69 214 295.69 214 298 214l.402-1.828.536-2.422.527-2.39c.335-1.48.696-2.954 1.094-4.419 1.265-5.564.366-11.39-.559-16.941l-1.812-.312c-2.547-.8-3.32-1.82-5.188-3.688a134 134 0 0 0-6-3v-2l-1.937-.75c-2.063-1.25-2.063-1.25-3-3.187C282 171 282 171 283.172 169.508c10.78-8.892 24.67-5.996 35.953-.008"/><path fill="#A7B282" d="m281 170 2 1 .438 1.938c.424 2.444.424 2.444 3.562 4.062v2l2.938.813L293 181l1 3 2.938.75C300 186 300 186 301.375 189.125c1.45 8.989.459 16.514-3.375 24.875-2.374 2.81-5.029 4.856-8 7-3.28 3.065-4.971 4.942-7 9l-13-8 4-5 1.438-2.5c1.562-2.5 1.562-2.5 4.046-4.605 3.285-3.78 3.69-6.856 4.329-11.708l.365-2.388c.292-1.93.56-3.864.822-5.799l-3.379-.914c-4.913-1.473-4.913-1.473-6.621-4.086v-4l-6-2a37.5 37.5 0 0 1 12-9"/><path fill="#679C7F" d="m281 170 2 1 .438 1.938c.424 2.444.424 2.444 3.562 4.062v2l2.938.813L293 181l1 3 2.938.75C300 186 300 186 301.375 189.125c1.45 8.989.459 16.514-3.375 24.875-2.374 2.81-5.029 4.856-8 7-3.03 2.832-5.425 5.135-7 9-1.562-1.25-1.562-1.25-3-3 .392-3.3 1.585-4.972 3.938-7.25l1.59-1.578C287 217 287 217 289 217l.813-3.125c.652-2.51 1.45-4.34 2.75-6.625 1.689-3.82 1.779-7.04 1.625-11.125l-.042-2.086c-.035-1.68-.088-3.36-.146-5.039l-1.617-.715c-3.067-1.654-5.756-3.728-8.508-5.847-3.77-2.976-3.77-2.976-7.875-5.438v-4c2.375-1.812 2.375-1.812 5-3"/><path fill="#52957D" d="m287 168 .688 2.188c2.343 5.022 5.51 7.696 10.625 9.625L302 181v2h-4l1.875.688c2.848 1.759 3.146 3.131 4.125 6.312.195 3.332.195 3.332.125 6.813l-.055 3.519L304 203c2.784-1.392 2.979-3.156 4-6h1c.313 2.625.313 2.625 0 6-1.217 1.506-2.442 3.01-3.762 4.426-2.006 2.55-2.49 5.464-3.238 8.574-.625 1.354-1.272 2.7-2 4h-3l-.773 1.734c-1.358 2.508-2.947 4.399-4.852 6.516l-1.914 2.14L288 232l-4-2c.375-5 2.97-7.513 6.438-10.812l1.525-1.522C295.719 214 295.719 214 298 214l.402-1.828.536-2.422.527-2.39c.335-1.48.696-2.954 1.094-4.419 1.265-5.564.366-11.39-.559-16.941l-1.812-.312c-2.547-.8-3.32-1.82-5.188-3.688a134 134 0 0 0-6-3v-2l-1.937-.75c-2.063-1.25-2.063-1.25-3-3.187C282 171 282 171 283.313 169.25 285 168 285 168 287 168"/><path fill="#E8C785" d="M275 183c1.817.59 3.629 1.197 5.438 1.813l3.058 1.019L286 187l1 3h2c2.486 4.972 1.722 11.823.023 16.945-3.436 7.232-3.436 7.232-8.023 9.055v2l-1.875.688c-2.74 1.691-3.175 3.304-4.125 6.312l-5-3 1.813-2.187c2.186-2.678 2.186-2.678 3.625-5.313 1.562-2.5 1.562-2.5 4.046-4.605 3.285-3.78 3.69-6.856 4.329-11.708l.365-2.388c.292-1.93.56-3.864.822-5.799-1.115-.3-2.23-.598-3.379-.906-4.734-1.43-4.734-1.43-6.621-4.094z"/><path fill="#8EAB82" d="m278 172 1.75 2.313c2.084 2.696 2.084 2.696 4.5 4.375L286 180v2l1.688.188c3.452 1.213 5.019 2.976 7.312 5.812 3.158 7.579 2.703 15.345-.094 22.906-2.387 5.517-6.028 9.404-10.32 13.48-1.798 1.729-1.798 1.729-3.586 4.614-.937-2.062-.937-2.062-1-5 2.02-2.687 4.336-4.95 7-7h2l.813-3.125c.652-2.51 1.45-4.34 2.75-6.625 1.689-3.82 1.779-7.04 1.625-11.125l-.042-2.086c-.035-1.68-.088-3.36-.146-5.039l-1.617-.715c-3.067-1.654-5.756-3.728-8.508-5.847-3.77-2.976-3.77-2.976-7.875-5.438v-4z"/><path fill="#BBBA84" d="m275 174 1 3 3 1c2.688 2.438 2.688 2.438 5 5v2l1.813.875c4.98 2.561 4.98 2.561 5.859 4.953 1.122 7.428.37 13.328-2.672 20.172h-2c.875-4.75.875-4.75 2-7 .071-2.374.084-4.75.063-7.125l-.028-3.883L289 190h-2l-1.367-1.406c-2.323-2.268-4.84-2.812-7.89-3.75L276 184l-1-3c-3.008-1.225-3.008-1.225-6-2 3.75-3.875 3.75-3.875 6-5"/><path fill="#D2C185" d="M287 190h2c2.486 4.972 1.722 11.823.023 16.945-3.436 7.232-3.436 7.232-8.023 9.055v2l-1.875.688c-2.74 1.691-3.175 3.304-4.125 6.312l-5-3c2.625-3.5 4.74-6.063 8.625-8.125 4.755-2.642 5.88-4.366 7.563-9.5 1.09-4.776.992-9.503.812-14.375"/><path fill="#388C7C" d="M302 210c1.6 3.2.032 5.723-1 9l-1.875.25c-2.827.998-2.823 2.108-4.125 4.75a103 103 0 0 1-3.625 4.25l-1.914 2.14L288 232l-2-2c2.126-6.026 5.075-9.585 9.688-13.937l1.837-1.784A598 598 0 0 1 302 210"/><path fill="#6BA181" d="m281 170 2 1 .438 1.938c.424 2.444.424 2.444 3.562 4.062v2l3 1c4.592 3.95 7.688 7.809 8.555 13.895.12 4.832-.018 9.495-1.555 14.105h-2l.5-1.5c.702-3.512.641-6.94.5-10.5l-.086-2.227c-.138-2.412-.138-2.412-.914-5.773-1.867-1.392-1.867-1.392-4-2l-2-3-3-1v-2l-1.812-.812c-2.234-1.213-3.687-2.135-5.188-4.188.251-2.137.46-3.46 2-5"/><path fill="#459480" d="m287 168 .688 2.188c2.343 5.022 5.51 7.696 10.625 9.625L302 181v2a709 709 0 0 1-5.812-.875l-3.27-.492C290 181 290 181 287 179v-2l-1.937-.75c-2.063-1.25-2.063-1.25-3-3.187C282 171 282 171 283.313 169.25 285 168 285 168 287 168"/><path fill="#7CA580" d="M293 209h2c-1.007 6.546-5.821 11.025-10.414 15.387-1.798 1.728-1.798 1.728-3.586 4.613-.937-2.062-.937-2.062-1-5 2.02-2.687 4.336-4.95 7-7h2l.875-2.312C291 212 291 212 293 209"/><path fill="#7EA480" d="M290 184c2.926.314 3.985.985 6.121 3.074 2.409 3.75 2.318 6.13 2.192 10.551l-.075 3.977C298 205 298 205 297 208h-2l.5-1.5c.702-3.512.641-6.94.5-10.5l-.086-2.227c-.138-2.412-.138-2.412-.914-5.773-1.902-1.452-1.902-1.452-4-2z"/><path fill="#2F8A7C" d="m285 170 1 2 1.813.875C290 174 290 174 291.75 175.938c3.129 2.868 6.235 3.724 10.25 5.062v2c-7.485-.613-7.485-.613-9.75-2.312L291 179l-2.187-2.062C287 175 287 175 287 173h-2z"/><path fill="#DCC484" d="M275 183c1.817.59 3.629 1.197 5.438 1.813l3.058 1.019L286 187l1 3c-5.241-.411-8.24-1.24-12-5z"/><path fill="#96AF83" d="m289 213 1 2c-5 5-5 5-7.25 7.063-1.835 2.031-2.368 3.261-2.75 5.937l-3-2v-3l5-3a59 59 0 0 0 2.688-3.125C287 214 287 214 289 213"/><path fill="#4B927D" d="M294 182c3.313.625 3.313.625 7 2 2.134 3.236 3 5.121 3 9h-3l-1-7-1.875-.437C296 185 296 185 294 184z"/><path fill="#B9B983" d="m286 211 1 2-5 5-1-2zm-7 7 2 1-2 4h-2l-1 3c-1-3-1-3-.187-5.125C277 219 277 219 279 218"/><path fill="#1B827A" d="M288 172c5.75 1.625 5.75 1.625 8 5 2.552 1.205 2.552 1.205 5 2v2c-3.375-.75-3.375-.75-7-2-1.187-2-1.187-2-2-4-2.034-1.268-2.034-1.268-4-2z"/><path fill="#23847B" d="m300 216 2 2-2 2h-3l-.687 1.688c-1.672 2.944-3.866 4.994-6.313 7.312 1.954-5.698 5.02-9.62 10-13"/><path fill="#418E7C" d="M308 197h1c.25 2.813.25 2.813 0 6-1.875 1.875-1.875 1.875-4 3h-2l1-3 2-1a78 78 0 0 0 2-5m-4 9v3Z"/><path fill="#C9C088" d="M281 216v2l-5 2v-2c3-2 3-2 5-2m-6 4 1 3-2 2c0-4 0-4 1-5"/></svg>