<?xml version="1.0" encoding="UTF-8"?>
<!DOCTYPE svg PUBLIC "-//W3C//DTD SVG 1.1//EN" "http://www.w3.org/Graphics/SVG/1.1/DTD/svg11.dtd">
<svg xmlns="http://www.w3.org/2000/svg" version="1.1" width="200px" height="200px" style="shape-rendering:geometricPrecision; text-rendering:geometricPrecision; image-rendering:optimizeQuality; fill-rule:evenodd; clip-rule:evenodd" xmlns:xlink="http://www.w3.org/1999/xlink">
<g><path style="opacity:1" fill="#fceac5" d="M 79.5,53.5 C 63.3246,53.1703 47.3246,53.5036 31.5,54.5C 30.9569,54.44 30.6236,54.1067 30.5,53.5C 46.9951,52.1732 63.3285,52.1732 79.5,53.5 Z"/></g>
<g><path style="opacity:1" fill="#c0a555" d="M 31.5,54.5 C 47.3246,53.5036 63.3246,53.1703 79.5,53.5C 79.5,53.8333 79.5,54.1667 79.5,54.5C 73.1667,54.5 66.8333,54.5 60.5,54.5C 57.075,54.3668 56.7417,55.0335 59.5,56.5C 58.1667,56.5 56.8333,56.5 55.5,56.5C 49.2504,54.5411 42.5837,53.8745 35.5,54.5C 34.1667,54.5 32.8333,54.5 31.5,54.5 Z"/></g>
<g><path style="opacity:1" fill="#c9ab62" d="M 167.5,54.5 C 165.833,54.5 164.167,54.5 162.5,54.5C 156.167,54.5 149.833,54.5 143.5,54.5C 142.209,54.7373 141.209,54.404 140.5,53.5C 147.206,53.757 153.872,53.4237 160.5,52.5C 163.029,52.9289 165.362,53.5955 167.5,54.5 Z"/></g>
<g><path style="opacity:1" fill="#d9c78c" d="M 79.5,54.5 C 79.5,54.1667 79.5,53.8333 79.5,53.5C 82.6883,53.6178 85.6883,54.4511 88.5,56C 90.8706,58.706 93.5372,61.0394 96.5,63C 100.192,63.6573 103.525,62.8239 106.5,60.5C 107.167,60.5 107.5,60.8333 107.5,61.5C 107.389,62.1174 107.056,62.6174 106.5,63C 107.793,63.49 109.127,63.6567 110.5,63.5C 111.167,63.5 111.833,63.5 112.5,63.5C 113.791,63.7373 114.791,63.404 115.5,62.5C 118.518,62.3354 121.518,62.502 124.5,63C 122.942,63.21 121.609,63.71 120.5,64.5C 116.249,65.7825 111.749,65.7825 107,64.5C 99.8656,65.3148 100.032,65.9815 107.5,66.5C 107.371,68.2161 107.038,69.8828 106.5,71.5C 105.662,71.8417 105.328,72.5084 105.5,73.5C 105.167,73.5 104.833,73.5 104.5,73.5C 104.5,72.8333 104.167,72.5 103.5,72.5C 102.71,71.5987 101.71,70.9321 100.5,70.5C 99.8333,70.5 99.1667,70.5 98.5,70.5C 98.5,70.1667 98.5,69.8333 98.5,69.5C 98.5,68.8333 98.5,68.1667 98.5,67.5C 98.8333,67.5 99.1667,67.5 99.5,67.5C 98.8333,66.8333 98.1667,66.1667 97.5,65.5C 98.8333,65.1667 98.8333,64.8333 97.5,64.5C 95.7659,63.438 94.0992,63.438 92.5,64.5C 92.5,64.1667 92.5,63.8333 92.5,63.5C 92.5,62.1667 91.8333,61.5 90.5,61.5C 89.8333,61.5 89.5,61.1667 89.5,60.5C 89.1667,59.1667 88.8333,59.1667 88.5,60.5C 80.7989,60.6911 73.1322,60.3577 65.5,59.5C 66.9187,58.5489 68.5853,58.2155 70.5,58.5C 70.8333,59.8333 71.1667,59.8333 71.5,58.5C 73.8333,58.5 76.1667,58.5 78.5,58.5C 78.8333,59.8333 79.1667,59.8333 79.5,58.5C 80.5,58.5 81.5,58.5 82.5,58.5C 82.8333,59.8333 83.1667,59.8333 83.5,58.5C 85.3786,58.6068 85.7119,58.1068 84.5,57C 76.1733,56.5003 67.84,56.3336 59.5,56.5C 56.7417,55.0335 57.075,54.3668 60.5,54.5C 67.4082,55.8124 73.7415,55.8124 79.5,54.5 Z"/></g>
<g><path style="opacity:1" fill="#ddcc93" d="M 119.5,53.5 C 119.5,53.8333 119.5,54.1667 119.5,54.5C 123.922,55.808 128.922,55.808 134.5,54.5C 135.833,54.1667 135.833,53.8333 134.5,53.5C 136.76,52.6209 138.76,52.6209 140.5,53.5C 141.209,54.404 142.209,54.7373 143.5,54.5C 143.167,55.1667 142.833,55.8333 142.5,56.5C 133.959,56.3674 125.292,56.3674 116.5,56.5C 116.167,55.1667 115.833,55.1667 115.5,56.5C 115.5,57.1667 115.167,57.5 114.5,57.5C 112.708,56.5272 111.375,57.1939 110.5,59.5C 109.167,59.8333 109.167,60.1667 110.5,60.5C 110.842,61.3382 111.508,61.6716 112.5,61.5C 112.5,61.8333 112.5,62.1667 112.5,62.5C 112.5,62.8333 112.5,63.1667 112.5,63.5C 111.833,63.5 111.167,63.5 110.5,63.5C 109.71,62.5987 108.71,61.9321 107.5,61.5C 107.5,60.8333 107.167,60.5 106.5,60.5C 110.119,56.1981 114.452,53.8648 119.5,53.5 Z"/></g>
<g><path style="opacity:1" fill="#d1b670" d="M 134.5,53.5 C 135.833,53.8333 135.833,54.1667 134.5,54.5C 129.5,54.5 124.5,54.5 119.5,54.5C 119.5,54.1667 119.5,53.8333 119.5,53.5C 124.423,52.7161 129.423,52.7161 134.5,53.5 Z"/></g>
<g><path style="opacity:1" fill="#dfce9a" d="M 162.5,54.5 C 164.167,54.5 165.833,54.5 167.5,54.5C 165.819,56.0075 163.819,57.0075 161.5,57.5C 160.432,56.5655 159.099,56.2322 157.5,56.5C 159.167,55.8333 160.833,55.1667 162.5,54.5 Z"/></g>
<g><path style="opacity:1" fill="#dec787" d="M 31.5,54.5 C 32.8333,54.5 34.1667,54.5 35.5,54.5C 37.3159,56.4414 39.3159,57.1081 41.5,56.5C 43.6353,58.369 46.3019,59.0356 49.5,58.5C 49.1667,59.1667 48.8333,59.8333 48.5,60.5C 48.1667,60.5 47.8333,60.5 47.5,60.5C 47.1667,59.1667 46.8333,59.1667 46.5,60.5C 45.8333,60.5 45.5,60.8333 45.5,61.5C 40.579,59.5356 35.9123,57.2023 31.5,54.5 Z"/></g>
<g><path style="opacity:1" fill="#cba342" d="M 55.5,56.5 C 56.8333,56.5 58.1667,56.5 59.5,56.5C 67.84,56.3336 76.1733,56.5003 84.5,57C 85.7119,58.1068 85.3786,58.6068 83.5,58.5C 83.1667,58.5 82.8333,58.5 82.5,58.5C 81.5,58.5 80.5,58.5 79.5,58.5C 79.1667,58.5 78.8333,58.5 78.5,58.5C 76.1667,58.5 73.8333,58.5 71.5,58.5C 71.1667,58.5 70.8333,58.5 70.5,58.5C 68.5853,58.2155 66.9187,58.5489 65.5,59.5C 64.8333,59.5 64.1667,59.5 63.5,59.5C 62.4324,58.5655 61.099,58.2322 59.5,58.5C 58.5,58.5 57.5,58.5 56.5,58.5C 54.8333,58.5 53.1667,58.5 51.5,58.5C 50.8333,58.5 50.1667,58.5 49.5,58.5C 46.3019,59.0356 43.6353,58.369 41.5,56.5C 46.2401,56.3267 50.9068,56.3267 55.5,56.5 Z"/></g>
<g><path style="opacity:1" fill="#cda64c" d="M 142.5,56.5 C 147.534,56.3502 152.534,56.3502 157.5,56.5C 159.099,56.2322 160.432,56.5655 161.5,57.5C 160.292,58.2341 158.959,58.5674 157.5,58.5C 155.833,58.5 154.167,58.5 152.5,58.5C 152.167,58.5 151.833,58.5 151.5,58.5C 150.833,58.5 150.167,58.5 149.5,58.5C 148.5,58.5 147.5,58.5 146.5,58.5C 145.167,58.5 143.833,58.5 142.5,58.5C 141.5,58.5 140.5,58.5 139.5,58.5C 137.833,58.5 136.167,58.5 134.5,58.5C 133.5,58.5 132.5,58.5 131.5,58.5C 130.167,58.5 128.833,58.5 127.5,58.5C 125.833,58.5 124.167,58.5 122.5,58.5C 120.167,58.5 117.833,58.5 115.5,58.5C 114.833,58.5 114.5,58.1667 114.5,57.5C 115.167,57.5 115.5,57.1667 115.5,56.5C 115.833,56.5 116.167,56.5 116.5,56.5C 125.292,56.3674 133.959,56.3674 142.5,56.5 Z"/></g>
<g><path style="opacity:1" fill="#fefcd5" d="M 51.5,58.5 C 53.1667,58.5 54.8333,58.5 56.5,58.5C 56.5,59.1667 56.5,59.8333 56.5,60.5C 56.1667,60.5 55.8333,60.5 55.5,60.5C 54.8333,59.1667 54.1667,59.1667 53.5,60.5C 53.1667,60.5 52.8333,60.5 52.5,60.5C 52.1667,59.8333 51.8333,59.1667 51.5,58.5 Z"/></g>
<g><path style="opacity:1" fill="#fffed6" d="M 59.5,58.5 C 61.099,58.2322 62.4324,58.5655 63.5,59.5C 62.8333,59.5 62.5,59.8333 62.5,60.5C 61.5,60.5 60.5,60.5 59.5,60.5C 59.5,59.8333 59.5,59.1667 59.5,58.5 Z"/></g>
<g><path style="opacity:1" fill="#d2bf84" d="M 114.5,57.5 C 114.5,58.1667 114.833,58.5 115.5,58.5C 117.833,59.8333 120.167,59.8333 122.5,58.5C 124.167,58.5 125.833,58.5 127.5,58.5C 127.842,59.3382 128.508,59.6716 129.5,59.5C 129.5,59.8333 129.5,60.1667 129.5,60.5C 123.167,60.5 116.833,60.5 110.5,60.5C 110.5,60.1667 110.5,59.8333 110.5,59.5C 112.062,59.2671 113.395,58.6005 114.5,57.5 Z"/></g>
<g><path style="opacity:1" fill="#cdab5e" d="M 63.5,59.5 C 64.1667,59.5 64.8333,59.5 65.5,59.5C 66.8021,61.0276 68.4687,62.0276 70.5,62.5C 65.5,62.5 60.5,62.5 55.5,62.5C 55.1667,62.5 54.8333,62.5 54.5,62.5C 53.8333,62.5 53.1667,62.5 52.5,62.5C 51.1667,62.5 49.8333,62.5 48.5,62.5C 47.209,62.7373 46.209,62.404 45.5,61.5C 45.5,60.8333 45.8333,60.5 46.5,60.5C 46.8333,60.5 47.1667,60.5 47.5,60.5C 47.8333,60.5 48.1667,60.5 48.5,60.5C 49.8333,60.5 51.1667,60.5 52.5,60.5C 52.8333,60.5 53.1667,60.5 53.5,60.5C 54.1667,60.5 54.8333,60.5 55.5,60.5C 55.8333,60.5 56.1667,60.5 56.5,60.5C 57.5,60.5 58.5,60.5 59.5,60.5C 60.5,60.5 61.5,60.5 62.5,60.5C 63.1667,60.5 63.5,60.1667 63.5,59.5 Z"/></g>
<g><path style="opacity:1" fill="#cfa233" d="M 65.5,59.5 C 73.1322,60.3577 80.7989,60.6911 88.5,60.5C 82.9345,61.2073 77.2678,61.8739 71.5,62.5C 71.1667,62.5 70.8333,62.5 70.5,62.5C 68.4687,62.0276 66.8021,61.0276 65.5,59.5 Z"/></g>
<g><path style="opacity:1" fill="#caa334" d="M 110.5,60.5 C 116.833,60.5 123.167,60.5 129.5,60.5C 130.239,60.369 130.906,60.5357 131.5,61C 129.942,61.21 128.609,61.71 127.5,62.5C 122.595,61.5546 117.595,61.2213 112.5,61.5C 111.508,61.6716 110.842,61.3382 110.5,60.5 Z"/></g>
<g><path style="opacity:1" fill="#d4b870" d="M 88.5,60.5 C 88.8333,60.5 89.1667,60.5 89.5,60.5C 89.5,61.1667 89.8333,61.5 90.5,61.5C 91.8333,61.5 92.5,62.1667 92.5,63.5C 92.5,63.8333 92.5,64.1667 92.5,64.5C 87.3054,64.1795 82.3054,64.5128 77.5,65.5C 77.5,66.1667 77.5,66.8333 77.5,67.5C 71.7414,67.2143 66.0748,67.5476 60.5,68.5C 59.5084,68.6716 58.8417,68.3382 58.5,67.5C 59.9187,66.5489 61.5853,66.2155 63.5,66.5C 63.8333,66.5 64.1667,66.5 64.5,66.5C 65.8333,66.5 67.1667,66.5 68.5,66.5C 71.517,66.4437 71.8503,66.1103 69.5,65.5C 70.2625,64.7321 71.2625,64.2321 72.5,64C 71.944,63.6174 71.6107,63.1174 71.5,62.5C 77.2678,61.8739 82.9345,61.2073 88.5,60.5 Z"/></g>
<g><path style="opacity:1" fill="#d0b56a" d="M 131.5,58.5 C 132.5,58.5 133.5,58.5 134.5,58.5C 134.5,58.8333 134.5,59.1667 134.5,59.5C 134.5,60.1667 134.833,60.5 135.5,60.5C 136.167,60.5 136.833,60.5 137.5,60.5C 139.833,60.5 142.167,60.5 144.5,60.5C 145.167,60.5 145.833,60.5 146.5,60.5C 147.873,60.6567 149.207,60.49 150.5,60C 149.944,59.6174 149.611,59.1174 149.5,58.5C 150.167,58.5 150.833,58.5 151.5,58.5C 151.833,59.8333 152.167,59.8333 152.5,58.5C 154.167,58.5 155.833,58.5 157.5,58.5C 157.047,59.4584 156.381,60.2917 155.5,61C 150.217,63.2618 144.883,65.4285 139.5,67.5C 135.731,67.244 132.064,67.5773 128.5,68.5C 126.621,67.6586 124.621,67.3253 122.5,67.5C 122.672,66.5084 122.338,65.8417 121.5,65.5C 120.833,65.5 120.5,65.1667 120.5,64.5C 121.609,63.71 122.942,63.21 124.5,63C 121.518,62.502 118.518,62.3354 115.5,62.5C 114.5,62.5 113.5,62.5 112.5,62.5C 112.5,62.1667 112.5,61.8333 112.5,61.5C 117.595,61.2213 122.595,61.5546 127.5,62.5C 128.609,61.71 129.942,61.21 131.5,61C 130.906,60.5357 130.239,60.369 129.5,60.5C 129.5,60.1667 129.5,59.8333 129.5,59.5C 130.492,59.6716 131.158,59.3382 131.5,58.5 Z M 146.5,58.5 C 147.5,58.5 148.5,58.5 149.5,58.5C 149.611,59.1174 149.944,59.6174 150.5,60C 149.207,60.49 147.873,60.6567 146.5,60.5C 146.5,59.8333 146.5,59.1667 146.5,58.5 Z M 139.5,58.5 C 140.5,58.5 141.5,58.5 142.5,58.5C 143.167,59.1667 143.833,59.8333 144.5,60.5C 142.167,60.5 139.833,60.5 137.5,60.5C 138.167,59.8333 138.833,59.1667 139.5,58.5 Z"/></g>
<g><path style="opacity:1" fill="#fffdd4" d="M 134.5,59.5 C 134.5,59.1667 134.5,58.8333 134.5,58.5C 136.167,58.5 137.833,58.5 139.5,58.5C 138.833,59.1667 138.167,59.8333 137.5,60.5C 136.833,60.5 136.167,60.5 135.5,60.5C 134.833,60.5 134.5,60.1667 134.5,59.5 Z"/></g>
<g><path style="opacity:1" fill="#fffbd4" d="M 142.5,58.5 C 143.833,58.5 145.167,58.5 146.5,58.5C 146.5,59.1667 146.5,59.8333 146.5,60.5C 145.833,60.5 145.167,60.5 144.5,60.5C 143.833,59.8333 143.167,59.1667 142.5,58.5 Z"/></g>
<g><path style="opacity:1" fill="#eddeb2" d="M 143.5,62.5 C 143.833,62.5 144.167,62.5 144.5,62.5C 141.913,63.8164 138.913,64.483 135.5,64.5C 132.5,64.3333 129.5,64.1667 126.5,64C 132.348,63.8272 138.015,63.3272 143.5,62.5 Z"/></g>
<g><path style="opacity:1" fill="#decb8e" d="M 48.5,62.5 C 49.8333,62.5 51.1667,62.5 52.5,62.5C 53.1667,63.8333 53.8333,63.8333 54.5,62.5C 54.8333,62.5 55.1667,62.5 55.5,62.5C 60.5,63.8333 65.5,63.8333 70.5,62.5C 70.8333,62.5 71.1667,62.5 71.5,62.5C 71.6107,63.1174 71.944,63.6174 72.5,64C 71.2625,64.2321 70.2625,64.7321 69.5,65.5C 68.8333,65.5 68.5,65.8333 68.5,66.5C 67.1667,66.5 65.8333,66.5 64.5,66.5C 64.1667,65.1667 63.8333,65.1667 63.5,66.5C 61.5853,66.2155 59.9187,66.5489 58.5,67.5C 54.822,66.3277 51.4887,64.6611 48.5,62.5 Z"/></g>
<g><path style="opacity:1" fill="#fff2b5" d="M 97.5,64.5 C 97.5,64.8333 97.5,65.1667 97.5,65.5C 90.8333,65.5 84.1667,65.5 77.5,65.5C 82.3054,64.5128 87.3054,64.1795 92.5,64.5C 94.0992,63.438 95.7659,63.438 97.5,64.5 Z"/></g>
<g><path style="opacity:1" fill="#c5a345" d="M 77.5,65.5 C 84.1667,65.5 90.8333,65.5 97.5,65.5C 98.1667,66.1667 98.8333,66.8333 99.5,67.5C 99.1667,67.5 98.8333,67.5 98.5,67.5C 97.8333,67.5 97.1667,67.5 96.5,67.5C 91.6367,67.1805 86.97,67.5139 82.5,68.5C 81.8333,68.5 81.1667,68.5 80.5,68.5C 79.791,67.596 78.791,67.2627 77.5,67.5C 77.5,66.8333 77.5,66.1667 77.5,65.5 Z"/></g>
<g><path style="opacity:1" fill="#fceaa7" d="M 77.5,67.5 C 78.791,67.2627 79.791,67.596 80.5,68.5C 74.31,68.1771 68.31,68.5104 62.5,69.5C 61.5084,69.6716 60.8417,69.3382 60.5,68.5C 66.0748,67.5476 71.7414,67.2143 77.5,67.5 Z"/></g>
<g><path style="opacity:1" fill="#e5d496" d="M 62.5,69.5 C 68.31,68.5104 74.31,68.1771 80.5,68.5C 81.1667,68.5 81.8333,68.5 82.5,68.5C 83.4293,69.3149 84.4293,70.1482 85.5,71C 84.9056,71.4643 84.2389,71.631 83.5,71.5C 83.1667,70.1667 82.8333,70.1667 82.5,71.5C 80.1667,71.5 77.8333,71.5 75.5,71.5C 75.1667,70.1667 74.8333,70.1667 74.5,71.5C 72.901,71.2322 71.5676,71.5655 70.5,72.5C 67.6733,71.8916 65.0067,70.8916 62.5,69.5 Z"/></g>
<g><path style="opacity:1" fill="#d7bb6c" d="M 96.5,67.5 C 96.5,68.1667 96.5,68.8333 96.5,69.5C 95.9232,71.6516 94.7565,71.985 93,70.5C 93.096,72.3806 92.9293,74.0473 92.5,75.5C 91.9094,74.8485 91.2427,74.1818 90.5,73.5C 85.533,72.3377 80.533,72.1711 75.5,73C 77.5,73.3333 79.5,73.6667 81.5,74C 78.854,74.4974 76.1873,74.6641 73.5,74.5C 72.2905,74.0679 71.2905,73.4013 70.5,72.5C 71.5676,71.5655 72.901,71.2322 74.5,71.5C 74.8333,71.5 75.1667,71.5 75.5,71.5C 77.8333,71.5 80.1667,71.5 82.5,71.5C 82.8333,71.5 83.1667,71.5 83.5,71.5C 84.2389,71.631 84.9056,71.4643 85.5,71C 84.4293,70.1482 83.4293,69.3149 82.5,68.5C 86.97,67.5139 91.6367,67.1805 96.5,67.5 Z"/></g>
<g><path style="opacity:1" fill="#e0ce98" d="M 121.5,65.5 C 122.338,65.8417 122.672,66.5084 122.5,67.5C 122.389,68.1174 122.056,68.6174 121.5,69C 124.039,69.7958 126.372,69.6291 128.5,68.5C 132.064,67.5773 135.731,67.244 139.5,67.5C 135.631,69.6837 131.631,71.6837 127.5,73.5C 123.066,73.3076 118.399,72.9742 113.5,72.5C 115.631,71.6862 117.964,71.1862 120.5,71C 119.5,70.6667 118.5,70.3333 117.5,70C 117.833,69.6667 118.167,69.3333 118.5,69C 116.833,68.6667 115.167,68.3333 113.5,68C 115.764,67.7638 117.931,67.2638 120,66.5C 121.107,67.7119 121.607,67.3786 121.5,65.5 Z M 122.5,67.5 C 124.621,67.3253 126.621,67.6586 128.5,68.5C 126.372,69.6291 124.039,69.7958 121.5,69C 122.056,68.6174 122.389,68.1174 122.5,67.5 Z"/></g>
<g><path style="opacity:1" fill="#e0cb8a" d="M 92.5,75.5 C 92.1667,75.5 91.8333,75.5 91.5,75.5C 88.6254,77.0509 85.6254,78.3842 82.5,79.5C 79.3327,78.0114 76.3327,76.3447 73.5,74.5C 76.1873,74.6641 78.854,74.4974 81.5,74C 79.5,73.6667 77.5,73.3333 75.5,73C 80.533,72.1711 85.533,72.3377 90.5,73.5C 91.2427,74.1818 91.9094,74.8485 92.5,75.5 Z"/></g>
<g><path style="opacity:1" fill="#d4be7c" d="M 96.5,69.5 C 97.1667,69.5 97.8333,69.5 98.5,69.5C 98.5,69.8333 98.5,70.1667 98.5,70.5C 99.1667,71.8333 99.8333,71.8333 100.5,70.5C 101.71,70.9321 102.71,71.5987 103.5,72.5C 104.167,72.5 104.5,72.8333 104.5,73.5C 104.833,73.5 105.167,73.5 105.5,73.5C 103.223,75.038 103.556,76.3713 106.5,77.5C 105.833,78.8333 104.833,79.8333 103.5,80.5C 102.514,78.5923 100.848,77.5923 98.5,77.5C 97.5,78.5 96.5,79.5 95.5,80.5C 94.7893,78.1582 93.456,77.8249 91.5,79.5C 90.375,78.3478 90.375,77.3478 91.5,76.5C 91.5,76.1667 91.5,75.8333 91.5,75.5C 91.8333,75.5 92.1667,75.5 92.5,75.5C 92.9293,74.0473 93.096,72.3806 93,70.5C 94.7565,71.985 95.9232,71.6516 96.5,69.5 Z"/></g>
<g><path style="opacity:1" fill="#d4c17a" d="M 113.5,72.5 C 118.399,72.9742 123.066,73.3076 127.5,73.5C 122.814,75.8678 118.147,78.2011 113.5,80.5C 113.119,79.0689 112.119,78.2355 110.5,78C 111.337,76.9887 111.67,75.8221 111.5,74.5C 109.901,74.7678 108.568,74.4345 107.5,73.5C 109.565,73.4828 111.565,73.1495 113.5,72.5 Z"/></g>
<g><path style="opacity:1" fill="#d2b35f" d="M 91.5,75.5 C 91.5,75.8333 91.5,76.1667 91.5,76.5C 90.375,77.3478 90.375,78.3478 91.5,79.5C 90.5707,80.3149 89.5707,81.1482 88.5,82C 90.4247,81.8651 92.4247,81.6984 94.5,81.5C 93.9423,82.7899 92.9423,83.6232 91.5,84C 92.6364,85.1451 93.6364,86.3117 94.5,87.5C 93.7893,89.8418 92.456,90.1751 90.5,88.5C 89.9264,87.4719 89.593,86.4719 89.5,85.5C 88.5748,86.3569 87.9081,87.3569 87.5,88.5C 86.3774,89.7574 85.7107,89.4241 85.5,87.5C 85.7822,86.2223 86.4489,85.2223 87.5,84.5C 87.1583,83.6618 86.4916,83.3284 85.5,83.5C 85.5,82.8333 85.1667,82.5 84.5,82.5C 85.4908,80.8773 84.8241,79.8773 82.5,79.5C 85.6254,78.3842 88.6254,77.0509 91.5,75.5 Z"/></g>
<g><path style="opacity:1" fill="#caa135" d="M 98.5,77.5 C 100.848,77.5923 102.514,78.5923 103.5,80.5C 103.167,80.5 102.833,80.5 102.5,80.5C 101.128,81.5116 99.795,82.5116 98.5,83.5C 95.9017,84.5278 95.9017,85.5278 98.5,86.5C 97.0413,86.4326 95.7079,86.7659 94.5,87.5C 93.6364,86.3117 92.6364,85.1451 91.5,84C 92.9423,83.6232 93.9423,82.7899 94.5,81.5C 94.5,80.8333 94.8333,80.5 95.5,80.5C 96.5,79.5 97.5,78.5 98.5,77.5 Z"/></g>
<g><path style="opacity:1" fill="#cecbaf" d="M 84.5,82.5 C 85.1667,82.5 85.5,82.8333 85.5,83.5C 85.8417,84.3382 86.5084,84.6716 87.5,84.5C 86.4489,85.2223 85.7822,86.2223 85.5,87.5C 81.8333,87.5 78.1667,87.5 74.5,87.5C 77.6414,86.6787 80.9748,86.1787 84.5,86C 83.552,85.5172 82.552,85.3505 81.5,85.5C 82.1667,84.1667 83.1667,83.1667 84.5,82.5 Z"/></g>
<g><path style="opacity:1" fill="#ceab4e" d="M 106.5,71.5 C 107.338,71.8417 107.672,72.5084 107.5,73.5C 108.568,74.4345 109.901,74.7678 111.5,74.5C 111.67,75.8221 111.337,76.9887 110.5,78C 112.119,78.2355 113.119,79.0689 113.5,80.5C 110.811,81.1894 109.144,82.856 108.5,85.5C 107.167,85.8333 107.167,86.1667 108.5,86.5C 107.489,89.2302 105.822,89.8968 103.5,88.5C 102.957,88.44 102.624,88.1067 102.5,87.5C 103.513,85.4734 104.513,83.4734 105.5,81.5C 109.888,80.1826 110.221,78.8493 106.5,77.5C 103.556,76.3713 103.223,75.038 105.5,73.5C 105.328,72.5084 105.662,71.8417 106.5,71.5 Z"/></g>
<g><path style="opacity:1" fill="#b7d0d6" d="M 125.5,86.5 C 126.251,85.4265 127.251,85.2599 128.5,86C 127.552,86.4828 126.552,86.6495 125.5,86.5 Z"/></g>
<g><path style="opacity:1" fill="#f0deb4" d="M 90.5,88.5 C 89.6522,89.625 88.6522,89.625 87.5,88.5C 87.9081,87.3569 88.5748,86.3569 89.5,85.5C 89.593,86.4719 89.9264,87.4719 90.5,88.5 Z"/></g>
<g><path style="opacity:1" fill="#dfc988" d="M 102.5,80.5 C 103.209,81.404 104.209,81.7373 105.5,81.5C 104.513,83.4734 103.513,85.4734 102.5,87.5C 102.624,88.1067 102.957,88.44 103.5,88.5C 102.238,88.9066 100.905,89.24 99.5,89.5C 98.6143,88.675 98.281,87.675 98.5,86.5C 95.9017,85.5278 95.9017,84.5278 98.5,83.5C 99.795,82.5116 101.128,81.5116 102.5,80.5 Z"/></g>
<g><path style="opacity:1" fill="#19364f" d="M 108.5,85.5 C 112.833,85.5 117.167,85.5 121.5,85.5C 121.778,98.8699 121.445,112.203 120.5,125.5C 119.833,125.5 119.5,125.167 119.5,124.5C 120.442,111.87 120.775,99.2037 120.5,86.5C 116.5,86.5 112.5,86.5 108.5,86.5C 107.167,86.1667 107.167,85.8333 108.5,85.5 Z"/></g>
<g><path style="opacity:1" fill="#b7cbd1" d="M 124.5,90.5 C 123.427,89.7494 123.26,88.7494 124,87.5C 124.483,88.448 124.649,89.448 124.5,90.5 Z"/></g>
<g><path style="opacity:1" fill="#bfd8e1" d="M 125.5,90.5 C 125.262,86.9007 126.262,86.5673 128.5,89.5C 127.606,89.5173 126.606,89.8506 125.5,90.5 Z"/></g>
<g><path style="opacity:1" fill="#b9d7d7" d="M 129.5,87.5 C 130.573,88.2506 130.74,89.2506 130,90.5C 129.517,89.552 129.351,88.552 129.5,87.5 Z"/></g>
<g><path style="opacity:1" fill="#d5e8e7" d="M 124.5,90.5 C 124.833,90.5 125.167,90.5 125.5,90.5C 125.5,90.8333 125.5,91.1667 125.5,91.5C 125.167,91.1667 124.833,90.8333 124.5,90.5 Z"/></g>
<g><path style="opacity:1" fill="#c7dadc" d="M 125.5,91.5 C 126.552,91.3505 127.552,91.5172 128.5,92C 127.251,92.7401 126.251,92.5735 125.5,91.5 Z"/></g>
<g><path style="opacity:1" fill="#868a95" d="M 80.5,93.5 C 81.3864,92.2241 82.3864,92.2241 83.5,93.5C 82.7666,94.087 81.7666,94.087 80.5,93.5 Z"/></g>
<g><path style="opacity:1" fill="#788f9c" d="M 92.5,93.5 C 96.0412,92.1439 96.3745,92.8105 93.5,95.5C 93.6716,94.5084 93.3382,93.8417 92.5,93.5 Z"/></g>
<g><path style="opacity:1" fill="#7f9298" d="M 107.5,94.5 C 107.5,93.8333 107.167,93.5 106.5,93.5C 105.504,93.4142 104.671,93.7476 104,94.5C 103.833,94.1667 103.667,93.8333 103.5,93.5C 105.167,92.1667 106.833,92.1667 108.5,93.5C 108.376,94.1067 108.043,94.44 107.5,94.5 Z"/></g>
<g><path style="opacity:1" fill="#9ca3b1" d="M 86.5,93.5 C 87.3864,92.2241 88.3864,92.2241 89.5,93.5C 88.7666,94.087 87.7666,94.087 86.5,93.5 Z"/></g>
<g><path style="opacity:1" fill="#566b8c" d="M 114.5,93.5 C 116.377,92.0716 117.711,92.5716 118.5,95C 118.293,96.9497 117.293,98.1164 115.5,98.5C 115.678,97.3052 116.011,96.1385 116.5,95C 116.164,93.9701 115.497,93.4701 114.5,93.5 Z"/></g>
<g><path style="opacity:1" fill="#2c4c6e" d="M 106.5,93.5 C 107.167,93.5 107.5,93.8333 107.5,94.5C 106.5,95.8333 105.5,97.1667 104.5,98.5C 103.833,98.5 103.5,98.1667 103.5,97.5C 104.5,96.1667 105.5,94.8333 106.5,93.5 Z"/></g>
<g><path style="opacity:1" fill="#354b76" d="M 112.5,93.5 C 111.662,93.8417 111.328,94.5084 111.5,95.5C 110.596,96.209 110.263,97.209 110.5,98.5C 109.833,98.5 109.167,98.5 108.5,98.5C 109.15,96.5648 109.483,94.5648 109.5,92.5C 110.791,92.2627 111.791,92.596 112.5,93.5 Z"/></g>
<g><path style="opacity:1" fill="#45597a" d="M 101.5,98.5 C 101.167,98.5 100.833,98.5 100.5,98.5C 99.791,97.596 98.791,97.2627 97.5,97.5C 100.72,90.6073 102.053,90.9406 101.5,98.5 Z"/></g>
<g><path style="opacity:1" fill="#4e708b" d="M 92.5,93.5 C 93.3382,93.8417 93.6716,94.5084 93.5,95.5C 93.5,96.5 93.5,97.5 93.5,98.5C 92.8333,98.5 92.1667,98.5 91.5,98.5C 91.6287,96.7839 91.962,95.1172 92.5,93.5 Z"/></g>
<g><path style="opacity:1" fill="#4d647f" d="M 112.5,93.5 C 113.167,93.5 113.833,93.5 114.5,93.5C 114.322,94.6948 113.989,95.8615 113.5,97C 113.836,98.0299 114.503,98.5299 115.5,98.5C 112.67,100.035 111.337,99.0348 111.5,95.5C 112.338,95.1583 112.672,94.4916 112.5,93.5 Z"/></g>
<g><path style="opacity:1" fill="#556a85" d="M 80.5,93.5 C 81.5123,95.8897 83.1789,97.5563 85.5,98.5C 86.1667,98.3333 86.8333,98.1667 87.5,98C 85.5339,96.6534 85.2006,95.1534 86.5,93.5C 87.7401,94.973 88.7401,96.6396 89.5,98.5C 85.8333,99.8333 82.1667,99.8333 78.5,98.5C 79.2624,98.0894 80.2624,97.9227 81.5,98C 79.5339,96.6534 79.2006,95.1534 80.5,93.5 Z"/></g>
<g><path style="opacity:1" fill="#a6b3c1" d="M 97.5,97.5 C 96.8478,98.7251 95.6811,99.3917 94,99.5C 92.1102,99.6296 91.2769,99.2963 91.5,98.5C 92.1667,98.5 92.8333,98.5 93.5,98.5C 94.8333,98.1667 96.1667,97.8333 97.5,97.5 Z"/></g>
<g><path style="opacity:1" fill="#8f9fb2" d="M 103.5,97.5 C 103.5,98.1667 103.833,98.5 104.5,98.5C 105.964,97.5946 107.298,97.5946 108.5,98.5C 109.167,98.5 109.833,98.5 110.5,98.5C 106.577,99.7995 103.244,99.7995 100.5,98.5C 100.833,98.5 101.167,98.5 101.5,98.5C 102.167,98.1667 102.833,97.8333 103.5,97.5 Z"/></g>
<g><path style="opacity:1" fill="#2f5072" d="M 116.5,121.5 C 115.51,115.355 115.177,109.022 115.5,102.5C 113.5,102.5 111.5,102.5 109.5,102.5C 107.833,102.5 106.167,102.5 104.5,102.5C 100.167,102.5 95.8333,102.5 91.5,102.5C 87.5,102.5 83.5,102.5 79.5,102.5C 79.3339,108.176 79.5006,113.843 80,119.5C 80.2321,120.737 80.7321,121.737 81.5,122.5C 81.5,123.5 81.5,124.5 81.5,125.5C 80.207,124.158 79.3736,122.491 79,120.5C 78.5005,114.175 78.3338,107.842 78.5,101.5C 91.1711,101.333 103.838,101.5 116.5,102C 117.627,108.443 117.627,114.943 116.5,121.5 Z"/></g>
<g><path style="opacity:1" fill="#7acff3" d="M 91.5,102.5 C 91.1894,113.914 91.5227,125.248 92.5,136.5C 91.5084,136.672 90.8417,136.338 90.5,135.5C 88.9257,133.357 87.5923,131.024 86.5,128.5C 85.7261,127.289 84.8928,127.289 84,128.5C 83.9303,125.407 84.2636,122.407 85,119.5C 84.2411,121.063 83.0744,122.063 81.5,122.5C 80.7321,121.737 80.2321,120.737 80,119.5C 79.5006,113.843 79.3339,108.176 79.5,102.5C 83.5,102.5 87.5,102.5 91.5,102.5 Z"/></g>
<g><path style="opacity:1" fill="#7dcff4" d="M 104.5,102.5 C 106.167,102.5 107.833,102.5 109.5,102.5C 108.229,106.748 107.563,111.248 107.5,116C 107.615,121.008 108.282,125.841 109.5,130.5C 108.5,131.833 107.5,133.167 106.5,134.5C 105.833,134.5 105.167,134.5 104.5,134.5C 104.5,123.833 104.5,113.167 104.5,102.5 Z"/></g>
<g><path style="opacity:1" fill="#79d0f5" d="M 109.5,102.5 C 111.5,102.5 113.5,102.5 115.5,102.5C 115.177,109.022 115.51,115.355 116.5,121.5C 116.5,122.167 116.167,122.5 115.5,122.5C 113.559,124.316 112.892,126.316 113.5,128.5C 113.167,129.5 112.5,130.167 111.5,130.5C 111.062,129.494 110.396,129.494 109.5,130.5C 108.282,125.841 107.615,121.008 107.5,116C 107.563,111.248 108.229,106.748 109.5,102.5 Z"/></g>
<g><path style="opacity:1" fill="#445a74" d="M 81.5,85.5 C 82.552,85.3505 83.552,85.5172 84.5,86C 80.9748,86.1787 77.6414,86.6787 74.5,87.5C 74.3335,97.5056 74.5002,107.506 75,117.5C 75.5334,120.929 76.3668,124.262 77.5,127.5C 77.5,128.167 77.1667,128.5 76.5,128.5C 75.3756,125.958 74.5423,123.292 74,120.5C 73.5001,108.838 73.3335,97.1714 73.5,85.5C 76.1667,85.5 78.8333,85.5 81.5,85.5 Z"/></g>
<g><path style="opacity:1" fill="#40658b" d="M 115.5,122.5 C 115.396,124.703 114.73,126.703 113.5,128.5C 112.892,126.316 113.559,124.316 115.5,122.5 Z"/></g>
<g><path style="opacity:1" fill="#67b1d5" d="M 90.5,135.5 C 86.1053,133.438 83.1053,130.104 81.5,125.5C 81.5,124.5 81.5,123.5 81.5,122.5C 83.0744,122.063 84.2411,121.063 85,119.5C 84.2636,122.407 83.9303,125.407 84,128.5C 84.8928,127.289 85.7261,127.289 86.5,128.5C 87.5923,131.024 88.9257,133.357 90.5,135.5 Z"/></g>
<g><path style="opacity:1" fill="#456f93" d="M 111.5,130.5 C 110.415,132.587 108.749,133.92 106.5,134.5C 107.5,133.167 108.5,131.833 109.5,130.5C 110.396,129.494 111.062,129.494 111.5,130.5 Z"/></g>
<g><path style="opacity:1" fill="#6980a0" d="M 77.5,127.5 C 80.0917,131.432 83.0917,135.099 86.5,138.5C 85.8333,138.5 85.5,138.833 85.5,139.5C 81.3954,136.73 78.3954,133.063 76.5,128.5C 77.1667,128.5 77.5,128.167 77.5,127.5 Z"/></g>
<g><path style="opacity:1" fill="#6e859b" d="M 104.5,134.5 C 105.167,134.5 105.833,134.5 106.5,134.5C 104.015,136.913 101.015,138.58 97.5,139.5C 95.6036,138.725 93.937,137.725 92.5,136.5C 96.9956,138.265 100.996,137.599 104.5,134.5 Z"/></g>
<g><path style="opacity:1" fill="#46607f" d="M 119.5,124.5 C 119.5,125.167 119.833,125.5 120.5,125.5C 116.45,135.957 108.95,142.624 98,145.5C 93.4714,144.152 89.3048,142.152 85.5,139.5C 85.5,138.833 85.8333,138.5 86.5,138.5C 90.1322,140.565 93.9655,142.231 98,143.5C 108.204,140.456 115.37,134.122 119.5,124.5 Z"/></g>
</svg>
