<svg width="64" height="65" viewBox="0 0 64 65" fill="none" xmlns="http://www.w3.org/2000/svg">
<rect y="0.303711" width="64" height="64" rx="32" fill="url(#paint0_linear_28696_5939)"/>
<rect x="0.5" y="0.803711" width="63" height="63" rx="31.5" stroke="#070B14" stroke-opacity="0.15"/>
<mask id="mask0_28696_5939" style="mask-type:luminance" maskUnits="userSpaceOnUse" x="16" y="30" width="32" height="25">
<path d="M31.7409 37.4941L18.8185 30.1165L18.4705 30.6501C14.5033 36.7517 15.3849 44.7325 20.6049 49.8597C26.7529 55.8917 36.7289 55.8917 42.8769 49.8597C48.0969 44.7325 48.9785 36.7517 45.0113 30.6501L44.6633 30.1165L31.7409 37.4941Z" fill="white"/>
</mask>
<g mask="url(#mask0_28696_5939)">
<path d="M31.7408 54.8476C40.4409 54.8476 47.4936 47.7949 47.4936 39.0948C47.4936 30.3948 40.4409 23.342 31.7408 23.342C23.0408 23.342 15.988 30.3948 15.988 39.0948C15.988 47.7949 23.0408 54.8476 31.7408 54.8476Z" fill="url(#paint1_radial_28696_5939)"/>
</g>
<path d="M31.7642 22.6693L18.8186 30.1165L31.741 37.4941L44.6402 30.1165L31.7642 22.6693Z" fill="url(#paint2_radial_28696_5939)"/>
<path d="M31.741 10.3037L20.605 27.3789L31.741 33.7357V10.3037Z" fill="url(#paint3_linear_28696_5939)"/>
<path d="M31.741 33.7357L42.877 27.3789L31.741 10.3037V33.7357Z" fill="url(#paint4_linear_28696_5939)"/>
<defs>
<linearGradient id="paint0_linear_28696_5939" x1="32" y1="0.303711" x2="32" y2="64.3037" gradientUnits="userSpaceOnUse">
<stop stop-color="#F89791"/>
<stop offset="1" stop-color="#F7C882"/>
</linearGradient>
<radialGradient id="paint1_radial_28696_5939" cx="0" cy="0" r="1" gradientUnits="userSpaceOnUse" gradientTransform="translate(31.7111 51.9885) rotate(-90.4664) scale(21.0371 25.0749)">
<stop stop-color="#C5C6AB"/>
<stop offset="1" stop-color="#7985AB"/>
</radialGradient>
<radialGradient id="paint2_radial_28696_5939" cx="0" cy="0" r="1" gradientUnits="userSpaceOnUse" gradientTransform="translate(31.7294 30.0817) scale(0.649786)">
<stop stop-color="#AEE6F9" stop-opacity="0.8588"/>
<stop offset="1" stop-color="#C8D6DC"/>
</radialGradient>
<linearGradient id="paint3_linear_28696_5939" x1="26.173" y1="9.14371" x2="26.173" y2="32.3437" gradientUnits="userSpaceOnUse">
<stop stop-color="#77D4FF"/>
<stop offset="1" stop-color="#93D6F2" stop-opacity="0.898"/>
</linearGradient>
<linearGradient id="paint4_linear_28696_5939" x1="37.309" y1="9.14371" x2="37.309" y2="32.3437" gradientUnits="userSpaceOnUse">
<stop stop-color="#506AAC"/>
<stop offset="1" stop-color="#96CFEF" stop-opacity="0.8196"/>
</linearGradient>
</defs>
</svg>
