<svg xmlns="http://www.w3.org/2000/svg" width="64" height="65" fill="none" viewBox="0 0 64 65"><rect width="64" height="64" y=".304" fill="url(#lido2_svg-a)" rx="32"/><rect width="63" height="63" x=".5" y=".804" stroke="#070B14" stroke-opacity=".15" rx="31.5"/><mask id="lido2_svg-b" width="32" height="25" x="16" y="30" maskUnits="userSpaceOnUse" style="mask-type:luminance"><path fill="#fff" d="m31.74 37.494-12.92-7.378-.348.534c-3.968 6.102-3.086 14.083 2.134 19.21 6.148 6.032 16.124 6.032 22.272 0 5.22-5.127 6.101-13.108 2.134-19.21l-.348-.534z"/></mask><g mask="url(#lido2_svg-b)"><path fill="url(#lido2_svg-c)" d="M31.74 54.848c8.7 0 15.754-7.053 15.754-15.753S40.44 23.342 31.74 23.342s-15.753 7.053-15.753 15.753S23.04 54.848 31.74 54.848"/></g><path fill="url(#lido2_svg-d)" d="M31.764 22.67 18.82 30.115l12.922 7.378 12.9-7.378z"/><path fill="url(#lido2_svg-e)" d="M31.741 10.304 20.605 27.379l11.136 6.357z"/><path fill="url(#lido2_svg-f)" d="m31.741 33.736 11.136-6.357-11.136-17.075z"/><defs><linearGradient id="lido2_svg-a" x1="32" x2="32" y1=".304" y2="64.304" gradientUnits="userSpaceOnUse"><stop stop-color="#F89791"/><stop offset="1" stop-color="#F7C882"/></linearGradient><linearGradient id="lido2_svg-e" x1="26.173" x2="26.173" y1="9.144" y2="32.344" gradientUnits="userSpaceOnUse"><stop stop-color="#77D4FF"/><stop offset="1" stop-color="#93D6F2" stop-opacity=".898"/></linearGradient><linearGradient id="lido2_svg-f" x1="37.309" x2="37.309" y1="9.144" y2="32.344" gradientUnits="userSpaceOnUse"><stop stop-color="#506AAC"/><stop offset="1" stop-color="#96CFEF" stop-opacity=".82"/></linearGradient><radialGradient id="lido2_svg-c" cx="0" cy="0" r="1" gradientTransform="rotate(-90.466 41.64 10.267)scale(21.0371 25.0749)" gradientUnits="userSpaceOnUse"><stop stop-color="#C5C6AB"/><stop offset="1" stop-color="#7985AB"/></radialGradient><radialGradient id="lido2_svg-d" cx="0" cy="0" r="1" gradientTransform="translate(31.73 30.082)scale(.64979)" gradientUnits="userSpaceOnUse"><stop stop-color="#AEE6F9" stop-opacity=".859"/><stop offset="1" stop-color="#C8D6DC"/></radialGradient></defs></svg>