<svg xmlns="http://www.w3.org/2000/svg" fill="none" viewBox="0 0 82 80"><path fill="url(#lina_svg-a)" d="M37.851 73.935c-2.835-2.227-4.243-4.54-4.236-6.936a8.3 8.3 0 0 1 2.256-5.933l32.145-32.145c2.213 1.888 3.521 4.03 3.946 6.449a7.25 7.25 0 0 1-2.05 6.505zM26.396 62.48c-2.843-2.234-4.25-4.546-4.236-6.936a8.3 8.3 0 0 1 2.256-5.933l32.145-32.145q3.309 2.82 3.946 6.449a7.25 7.25 0 0 1-2.058 6.498zM14.934 51.018c-2.843-2.234-4.25-4.547-4.236-6.937a8.3 8.3 0 0 1 2.256-5.932L45.099 6.004c2.213 1.888 3.521 4.03 3.946 6.449a7.25 7.25 0 0 1-2.051 6.505z"/><defs><linearGradient id="lina_svg-a" x1="-734.734" x2="1923.55" y1="-4470.04" y2="-1811.76" gradientUnits="userSpaceOnUse"><stop stop-color="#7EB5FF"/><stop offset="1" stop-color="#1A38F8"/></linearGradient></defs></svg>