<svg xmlns="http://www.w3.org/2000/svg" width="40" height="40" fill="none" viewBox="0 0 40 40"><g clip-path="url(#linon_svg-a)"><path fill="#CCDDE9" d="M20 0c11.046 0 20 8.954 20 20s-8.954 20-20 20S0 31.046 0 20 8.954 0 20 0"/><path fill="#005590" d="M26 6a8 8 0 0 1 8 8v12a8 8 0 0 1-8 8H14a8 8 0 0 1-8-8V14a8 8 0 0 1 8-8z"/><path fill="#fff" d="M28.4 21.125c.112-.321.466-1.01.895-1.01.08 0 .132.039.158.095a.28.28 0 0 1-.007.212c-.15.359-.578.625-1.046.703m-2.649-.598c-.015.304-.444 1.258-.982 1.258-.234 0-.245-.233-.198-.44.075-.329.531-1.132.951-1.132.173 0 .237.157.23.314m-12.663 1.057c-.4.256-.802.412-1.209.412-.613 0-.957-.236-.957-.535 0-.212.2-.403.558-.403.479 0 1.023.249 1.608.526m15.266-.242c.349-.056 1.457-.233 1.613-.787.129-.456-.3-.68-.738-.68-.873 0-1.756.541-1.98 1.43a1 1 0 0 0-.024.142c-.271.232-.536.358-.683.358-.161 0-.182-.112-.107-.256l1.39-2.693h-1.132l-.742 1.437c-.055-.2-.283-.435-.782-.435-.951 0-1.506.789-1.702 1.325a1.2 1.2 0 0 0-.066.271c-.267.228-.528.351-.673.351-.161 0-.182-.112-.108-.256l.403-.78c.208-.403.023-.845-.534-.845-.484 0-.927.26-1.469.657l.304-.589h-1.168l-.344.667c-.374.725-1.036 1.146-1.306 1.146-.16 0-.184-.114-.107-.256l.844-1.557h-1.167l-.47.866c-.175.324-.61.802-1.319.802-.48 0-.972-.123-1.482-.28a10.2 10.2 0 0 0 2.383-2.045c1.498-1.732 2.49-2.389 4.132-2.389 2.12 0 2.912.802 2.912 1.464 0 .508-.242.67-.44.762l.029.172c.94-.036 1.467-.498 1.467-1.034 0-.932-1.602-1.643-4.13-1.643-2.175 0-4.061.898-5.333 2.247-.69.731-1.369 1.536-2.049 2.139-.574-.174-1.171-.317-1.794-.317-1.211 0-1.982.305-1.982.834 0 .469.859.76 1.874.76.574 0 1.225-.142 1.905-.425.535.234 1.094.424 1.658.424.74 0 1.361-.378 1.768-.728-.195.4.053.728.5.728.422 0 1.08-.247 1.64-.765l-.36.697h1.169l.103-.201c.241-.47.843-1.543 1.434-1.543.173 0 .211.16.127.323l-.376.728c-.216.419.025.761.485.761.384 0 .955-.205 1.474-.633.05.374.332.633.73.633.462 0 1.011-.38 1.2-.559-.03.27.108.56.502.56.32 0 .883-.21 1.402-.649.065.361.371.692 1.047.692.556 0 1.262-.24 1.718-.535l-.004-.209c-.377.181-.72.326-1.106.326-.388 0-.61-.273-.537-.613m-8.618-2.243c.045-.295-.182-.534-.508-.534s-.626.239-.672.534.181.534.508.534c.325 0 .626-.239.672-.534"/></g><defs><clipPath id="linon_svg-a"><path fill="#fff" d="M0 0h40v40H0z"/></clipPath></defs></svg>