<svg xmlns="http://www.w3.org/2000/svg" width="261" height="254" viewBox="0 0 261 254" version="1.1"><path d="M 89 70.665 C 87.625 70.953, 83.184 72.717, 79.132 74.584 C 65.495 80.867, 53.455 96.377, 48.482 114.066 C 45.251 125.556, 45.208 135.512, 48.334 148.134 C 53.923 170.694, 68.672 189.131, 89.397 199.465 C 113.171 211.319, 141.500 212.329, 163.500 202.106 C 184.599 192.303, 200.843 174.551, 210.147 151.129 C 215.047 138.795, 217.392 114.596, 213.896 112.436 C 213.353 112.100, 210.116 113.626, 206.704 115.827 C 194.702 123.570, 186.720 125.322, 175.964 122.574 C 164.917 119.752, 157.536 113.640, 141.798 94.286 C 126.460 75.424, 119.042 71.039, 101.500 70.467 C 96 70.288, 90.375 70.377, 89 70.665 M 85.500 85.866 C 71.620 92.187, 67.354 111.482, 77.197 123.423 C 81.976 129.220, 87.202 131.450, 96.078 131.477 C 102.791 131.497, 104.216 131.154, 108.552 128.474 C 117.665 122.839, 122.253 110.504, 118.996 100.396 C 117.224 94.899, 111.385 88.079, 106.581 85.897 C 101.153 83.432, 90.878 83.416, 85.500 85.866" stroke="none" fill="#06b6cd" fill-rule="evenodd"/><path d="M -0 127.004 L -0 254.007 130.750 253.754 L 261.500 253.500 261.754 126.750 L 262.008 -0 131.004 -0 L 0 0 -0 127.004 M 0.485 127.500 C 0.485 197.350, 0.604 225.778, 0.750 190.672 C 0.896 155.567, 0.896 98.417, 0.750 63.672 C 0.604 28.928, 0.485 57.650, 0.485 127.500 M 89 70.665 C 87.625 70.953, 83.184 72.717, 79.132 74.584 C 65.495 80.867, 53.455 96.377, 48.482 114.066 C 45.251 125.556, 45.208 135.512, 48.334 148.134 C 53.923 170.694, 68.672 189.131, 89.397 199.465 C 113.171 211.319, 141.500 212.329, 163.500 202.106 C 184.599 192.303, 200.843 174.551, 210.147 151.129 C 215.047 138.795, 217.392 114.596, 213.896 112.436 C 213.353 112.100, 210.116 113.626, 206.704 115.827 C 194.702 123.570, 186.720 125.322, 175.964 122.574 C 164.917 119.752, 157.536 113.640, 141.798 94.286 C 126.460 75.424, 119.042 71.039, 101.500 70.467 C 96 70.288, 90.375 70.377, 89 70.665 M 85.500 85.866 C 71.620 92.187, 67.354 111.482, 77.197 123.423 C 81.976 129.220, 87.202 131.450, 96.078 131.477 C 102.791 131.497, 104.216 131.154, 108.552 128.474 C 117.665 122.839, 122.253 110.504, 118.996 100.396 C 117.224 94.899, 111.385 88.079, 106.581 85.897 C 101.153 83.432, 90.878 83.416, 85.500 85.866" stroke="none" fill="#f4f4f4" fill-rule="evenodd"/></svg>