<svg xmlns="http://www.w3.org/2000/svg" width="64" height="65" fill="none" viewBox="0 0 64 65"><rect width="64" height="64" y=".304" fill="#fff" rx="32"/><rect width="63" height="63" x=".5" y=".804" stroke="#070B14" stroke-opacity=".15" rx="31.5"/><path fill="#fff" d="M32.037 53.98c11.905 0 21.557-9.652 21.557-21.557 0-11.906-9.652-21.557-21.557-21.557S10.48 20.517 10.48 32.423s9.651 21.556 21.557 21.556"/><path fill="#00934B" d="m9.231 21.29.17.068 1.585.708 1.754.776a20.28 20.28 0 0 1 9.716-9.716l-.776-1.754-1.113-2.564c-1.249-2.496-3.509-1.653-4.319-1.248a28.4 28.4 0 0 0-8.77 8.569c-.034.034-.034.067-.034.135-1.417 3.306 1.079 4.689 1.787 5.026"/><path fill="#22D511" d="m12.773 22.808 2.834 1.249 2.463 1.079 1.956.877a12.46 12.46 0 0 1 5.668-5.667l-.877-1.957-1.08-2.463-1.248-2.833a20.43 20.43 0 0 0-9.716 9.715"/><path fill="#BEF000" d="m19.993 26.013 4.082 1.788 3.778 1.653c.506-.034.945-.371 1.147-.843a1.2 1.2 0 0 0 .101-.473l-1.653-3.744-1.788-4.082a12.7 12.7 0 0 0-5.667 5.701"/><path fill="#00934B" d="M60.677 26.25c-1.315-3.273-4.014-2.53-4.757-2.227l-.202.067-1.653.641-1.788.709a20.3 20.3 0 0 1 0 13.763l1.788.709 2.294.877c2.665 1.113 3.778-.776 4.183-1.788a28.05 28.05 0 0 0 .135-12.752"/><path fill="#22D511" d="m52.312 25.44-2.868 1.113-2.53.978-1.99.776c.91 2.699.877 5.499 0 8.029l1.956.776 2.53.978 2.868 1.113c1.586-4.318 1.687-9.142.034-13.763"/><path fill="#BEF000" d="m44.957 28.307-4.15 1.62-3.846 1.518c-.337.37-.438.91-.236 1.416.068.135.135.27.236.371l3.846 1.485 4.15 1.619c.843-2.53.91-5.33 0-8.029"/><path fill="#00934B" d="m9.906 39.912 1.788-.709a20.3 20.3 0 0 1 0-13.763l-1.788-.709-2.328-.91c-2.698-1.08-3.778.91-4.149 1.888a28.1 28.1 0 0 0-.135 12.55v.034c1.316 3.373 4.048 2.597 4.79 2.327z"/><path fill="#22D511" d="m11.694 39.204 2.868-1.114 2.496-.978 1.99-.776c-.91-2.699-.877-5.499 0-8.029l-1.99-.776-2.496-.944-2.868-1.114a20.2 20.2 0 0 0 0 13.73"/><path fill="#BEF000" d="m19.082 36.336 4.149-1.62 3.812-1.484c.337-.37.439-.91.236-1.417a1.2 1.2 0 0 0-.27-.404l-3.812-1.485-4.15-1.619a12.58 12.58 0 0 0 .035 8.029"/><path fill="#00934B" d="m12.807 41.835-1.754.776-1.822.81s-3.205 1.72-1.72 5.026v.034a28.1 28.1 0 0 0 8.906 8.703c.91.439 3.204 1.18 4.351-1.62l.979-2.226.776-1.754c-4.116-1.99-7.624-5.33-9.716-9.75"/><path fill="#22D511" d="m24.885 46.254.843-1.923a12.46 12.46 0 0 1-5.668-5.667l-1.956.843-2.463 1.08-2.834 1.248a20.35 20.35 0 0 0 9.75 9.715l1.248-2.833z"/><path fill="#BEF000" d="m25.728 44.297 1.788-4.081 1.653-3.745a1.36 1.36 0 0 0-.843-1.18 1.1 1.1 0 0 0-.473-.102l-3.744 1.653-4.082 1.788a12.53 12.53 0 0 0 5.701 5.667"/><path fill="#00934B" d="m51.232 22.842 1.754-.776 1.956-.877-.168.034c.708-.338 3.17-1.687 1.788-4.926-2.362-3.71-5.533-6.713-9.176-8.906-2.564-1.315-4.15 1.687-4.15 1.687l-.978 2.26-.776 1.755a20.28 20.28 0 0 1 9.75 9.749"/><path fill="#22D511" d="m39.154 18.355-.843 1.957a12.6 12.6 0 0 1 5.701 5.701l1.957-.843 2.462-1.08 2.8-1.248a20.42 20.42 0 0 0-9.749-9.75l-1.248 2.834z"/><path fill="#BEF000" d="m38.311 20.312-1.788 4.082-1.653 3.812c.034.506.337.944.843 1.147.135.067.304.101.473.101l3.778-1.653 4.082-1.788a13 13 0 0 0-5.735-5.701"/><path fill="#00934B" d="m39.593 54.384-.708-1.788a20.3 20.3 0 0 1-13.764 0l-.709 1.788-1.147 2.969s-.573 2.328 2.8 3.61a.5.5 0 0 0 .203.067c3.88.81 7.961.81 11.976-.101.573-.169 3.373-1.046 2.361-3.981z"/><path fill="#22D511" d="m38.918 52.596-1.113-2.867-.978-2.53-.776-1.957c-2.7.91-5.5.877-8.03 0l-.775 1.957-.978 2.53-1.114 2.867a20.3 20.3 0 0 0 13.764 0"/><path fill="#BEF000" d="m36.017 45.242-1.62-4.15-1.484-3.811c-.37-.338-.944-.439-1.45-.237-.135.068-.27.135-.371.237l-1.485 3.812-1.619 4.149c2.564.843 5.33.91 8.029 0"/><path fill="#00934B" d="m24.379 10.225.708 1.788a20.5 20.5 0 0 1 13.764-.034l.708-1.788.709-1.821c.27-.742 1.046-3.509-2.328-4.79-.034 0-.034-.034-.067-.034-4.015-.81-8.232-.81-12.381.168-.945.304-3.171 1.383-1.99 4.25z"/><path fill="#22D511" d="m25.087 12.013 1.113 2.868.978 2.496.776 1.99c2.699-.91 5.499-.877 8.03 0l.775-1.99.978-2.496 1.114-2.868a20.3 20.3 0 0 0-13.764 0"/><path fill="#BEF000" d="m27.954 19.367 1.62 4.15 1.517 3.88c.372.303.911.404 1.384.202a1.2 1.2 0 0 0 .404-.27l1.485-3.846 1.62-4.15c-2.531-.81-5.331-.876-8.03.034"/><path fill="#00934B" d="m54.774 43.353-.203-.068-1.585-.708-1.755-.776c-1.956 4.15-5.296 7.624-9.749 9.75l.776 1.754.978 2.226c1.282 3.104 3.914 1.89 4.588 1.485a28.1 28.1 0 0 0 8.637-8.502c.033-.034.033-.067.067-.135 1.45-3.306-1.046-4.689-1.754-5.026"/><path fill="#22D511" d="m51.232 41.801-2.834-1.248-2.497-1.08-1.923-.843c-1.18 2.395-3.137 4.385-5.667 5.634l.843 1.922 1.08 2.497 1.248 2.834a20.2 20.2 0 0 0 9.75-9.716"/><path fill="#BEF000" d="m43.978 38.664-4.082-1.788-3.71-1.62c-.135 0-.304.034-.44.102a1.34 1.34 0 0 0-.741.742.9.9 0 0 0-.101.438l1.619 3.711 1.788 4.082c2.53-1.282 4.487-3.272 5.667-5.667"/></svg>