<svg xmlns="http://www.w3.org/2000/svg" width="64" height="65" fill="none" viewBox="0 0 64 65"><g clip-path="url(#ltc_svg-a)"><rect width="64" height="64" y=".304" fill="#fff" rx="32"/><path fill="#345D9D" d="M32 .304a32 32 0 1 0 32 32 31.907 31.907 0 0 0-31.814-32zm.542 33.085-3.331 11.234h17.82a.9.9 0 0 1 .93.868v.294l-1.55 5.347a1.155 1.155 0 0 1-1.162.852H17.976l4.571-15.574-5.114 1.55 1.163-3.564 5.113-1.55 6.431-21.85a1.17 1.17 0 0 1 1.163-.852h6.896a.9.9 0 0 1 .93.868v.294l-5.424 18.44 5.113-1.549-1.084 3.72z"/></g><rect width="63" height="63" x=".5" y=".804" stroke="#070B14" stroke-opacity=".15" rx="31.5"/><defs><clipPath id="ltc_svg-a"><rect width="64" height="64" y=".304" fill="#fff" rx="32"/></clipPath></defs></svg>