<svg xmlns="http://www.w3.org/2000/svg" width="64" height="65" fill="none" viewBox="0 0 64 65"><g clip-path="url(#mana_svg-a)"><rect width="64" height="64" y=".304" fill="#fff" rx="32"/><path fill="url(#mana_svg-b)" d="M32 64.304c17.673 0 32-14.327 32-32s-14.327-32-32-32-32 14.327-32 32 14.327 32 32 32"/><path fill="url(#mana_svg-c)" fill-rule="evenodd" d="M22.672 21.104v24h20z" clip-rule="evenodd"/><path fill="#fff" fill-rule="evenodd" d="M2.672 45.104h20v-24z" clip-rule="evenodd"/><path fill="#FC9965" fill-rule="evenodd" d="M6.4 51.504a32.8 32.8 0 0 0 6.4 6.4h38.4a32.8 32.8 0 0 0 6.4-6.4z" clip-rule="evenodd"/><path fill="#FF2D55" fill-rule="evenodd" d="M12.8 57.904c5.344 4.016 12 6.4 19.2 6.4s13.856-2.384 19.2-6.4z" clip-rule="evenodd"/><path fill="url(#mana_svg-d)" fill-rule="evenodd" d="M42.928 33.904v17.6H57.6z" clip-rule="evenodd"/><path fill="#FFBC5B" fill-rule="evenodd" d="M42.928 45.104H2.672a32 32 0 0 0 3.728 6.4h36.544v-6.4z" clip-rule="evenodd"/><path fill="#fff" fill-rule="evenodd" d="M28.272 51.504h14.656v-17.6z" clip-rule="evenodd"/><path fill="#FFC95B" d="M42.928 29.104a8 8 0 1 0 0-16 8 8 0 0 0 0 16m-20.256-12.8a4 4 0 1 0 0-8 4 4 0 0 0 0 8"/></g><rect width="63" height="63" x=".5" y=".804" stroke="#070B14" stroke-opacity=".15" rx="31.5"/><defs><linearGradient id="mana_svg-b" x1="5462.72" x2="937.28" y1="937.583" y2="5463.02" gradientUnits="userSpaceOnUse"><stop stop-color="#FF2D55"/><stop offset="1" stop-color="#FFBC5B"/></linearGradient><linearGradient id="mana_svg-c" x1="1021.99" x2="1021.99" y1="21.104" y2="2421.1" gradientUnits="userSpaceOnUse"><stop stop-color="#A524B3"/><stop offset="1" stop-color="#FF2D55"/></linearGradient><linearGradient id="mana_svg-d" x1="776.029" x2="776.029" y1="33.904" y2="1793.9" gradientUnits="userSpaceOnUse"><stop stop-color="#A524B3"/><stop offset="1" stop-color="#FF2D55"/></linearGradient><clipPath id="mana_svg-a"><rect width="64" height="64" y=".304" fill="#fff" rx="32"/></clipPath></defs></svg>