<svg width="64" height="65" viewBox="0 0 64 65" fill="none" xmlns="http://www.w3.org/2000/svg">
<g clip-path="url(#clip0_11313_5284)">
<rect y="0.303711" width="64" height="64" rx="32" fill="white"/>
<path d="M32 64.3037C49.6731 64.3037 64 49.9768 64 32.3037C64 14.6306 49.6731 0.303711 32 0.303711C14.3269 0.303711 0 14.6306 0 32.3037C0 49.9768 14.3269 64.3037 32 64.3037Z" fill="url(#paint0_linear_11313_5284)"/>
<path fill-rule="evenodd" clip-rule="evenodd" d="M22.6719 21.1038V45.1038H42.6719L22.6719 21.1038Z" fill="url(#paint1_linear_11313_5284)"/>
<path fill-rule="evenodd" clip-rule="evenodd" d="M2.67188 45.1038H22.6719V21.1038L2.67188 45.1038Z" fill="white"/>
<path fill-rule="evenodd" clip-rule="evenodd" d="M6.40002 51.5037C8.22402 53.9197 10.384 56.0797 12.8 57.9037H51.2C53.616 56.0797 55.776 53.9197 57.6 51.5037H6.40002Z" fill="#FC9965"/>
<path fill-rule="evenodd" clip-rule="evenodd" d="M12.8 57.9037C18.144 61.9197 24.8 64.3037 32 64.3037C39.2001 64.3037 45.8561 61.9197 51.2001 57.9037H12.8Z" fill="#FF2D55"/>
<path fill-rule="evenodd" clip-rule="evenodd" d="M42.9281 33.9037V51.5037H57.6001L42.9281 33.9037Z" fill="url(#paint2_linear_11313_5284)"/>
<path fill-rule="evenodd" clip-rule="evenodd" d="M42.9279 45.1038H2.67188C3.66387 47.3918 4.92787 49.5358 6.39987 51.5038H42.9439V45.1038H42.9279Z" fill="#FFBC5B"/>
<path fill-rule="evenodd" clip-rule="evenodd" d="M28.2719 51.5037H42.9278V33.9037L28.2719 51.5037Z" fill="white"/>
<path d="M42.9281 29.1038C47.3464 29.1038 50.9281 25.522 50.9281 21.1038C50.9281 16.6855 47.3464 13.1038 42.9281 13.1038C38.5098 13.1038 34.9281 16.6855 34.9281 21.1038C34.9281 25.522 38.5098 29.1038 42.9281 29.1038Z" fill="#FFC95B"/>
<path d="M22.6719 16.3037C24.881 16.3037 26.6719 14.5128 26.6719 12.3037C26.6719 10.0946 24.881 8.30371 22.6719 8.30371C20.4627 8.30371 18.6719 10.0946 18.6719 12.3037C18.6719 14.5128 20.4627 16.3037 22.6719 16.3037Z" fill="#FFC95B"/>
</g>
<rect x="0.5" y="0.803711" width="63" height="63" rx="31.5" stroke="#070B14" stroke-opacity="0.15"/>
<defs>
<linearGradient id="paint0_linear_11313_5284" x1="5462.72" y1="937.583" x2="937.28" y2="5463.02" gradientUnits="userSpaceOnUse">
<stop stop-color="#FF2D55"/>
<stop offset="1" stop-color="#FFBC5B"/>
</linearGradient>
<linearGradient id="paint1_linear_11313_5284" x1="1021.99" y1="21.1038" x2="1021.99" y2="2421.1" gradientUnits="userSpaceOnUse">
<stop stop-color="#A524B3"/>
<stop offset="1" stop-color="#FF2D55"/>
</linearGradient>
<linearGradient id="paint2_linear_11313_5284" x1="776.029" y1="33.9037" x2="776.029" y2="1793.9" gradientUnits="userSpaceOnUse">
<stop stop-color="#A524B3"/>
<stop offset="1" stop-color="#FF2D55"/>
</linearGradient>
<clipPath id="clip0_11313_5284">
<rect y="0.303711" width="64" height="64" rx="32" fill="white"/>
</clipPath>
</defs>
</svg>
