<svg xmlns="http://www.w3.org/2000/svg" width="40" height="40" fill="none" viewBox="0 0 40 40"><g clip-path="url(#maon_svg-a)"><path fill="#CCC" d="M20 0c11.046 0 20 8.954 20 20s-8.954 20-20 20S0 31.046 0 20 8.954 0 20 0"/><path fill="#000" d="M26 6a8 8 0 0 1 8 8v12a8 8 0 0 1-8 8H14a8 8 0 0 1-8-8V14a8 8 0 0 1 8-8z"/><path fill="#fff" d="m19.453 25.026.15.122a6.16 6.16 0 0 1-3.422 1.031 6.18 6.18 0 1 1 3.42-11.328c-.05.043-.1.082-.138.126a6.64 6.64 0 0 0-2.3 5.023c0 1.926.834 3.758 2.29 5.026M23.82 13.82c-1.267 0-2.442.38-3.42 1.032.05.042.1.081.137.125a6.64 6.64 0 0 1 2.3 5.023 6.67 6.67 0 0 1-2.29 5.026l-.15.122a6.16 6.16 0 0 0 3.422 1.031 6.18 6.18 0 0 0 0-12.36M20 15.145q-.12.093-.233.193A6.16 6.16 0 0 0 17.64 20 6.16 6.16 0 0 0 20 24.856q.12-.093.233-.193A6.16 6.16 0 0 0 22.36 20 6.16 6.16 0 0 0 20 15.145"/></g><defs><clipPath id="maon_svg-a"><path fill="#fff" d="M0 0h40v40H0z"/></clipPath></defs></svg>