<svg xmlns="http://www.w3.org/2000/svg" width="40" height="40" fill="none" viewBox="0 0 40 40"><g clip-path="url(#maraon_svg-a)"><path fill="#D4D3D3" d="M20 0c11.046 0 20 8.954 20 20s-8.954 20-20 20S0 31.046 0 20 8.954 0 20 0"/><path fill="#272525" d="M26 6a8 8 0 0 1 8 8v12a8 8 0 0 1-8 8H14a8 8 0 0 1-8-8V14a8 8 0 0 1 8-8z"/><path fill="#fff" d="M27.327 26.702c.174 0 .315.141.315.316v2.03a.12.12 0 0 1-.118.119H12.662a.316.316 0 0 1-.316-.316v-2.03c0-.066.053-.119.119-.119zM16.034 10.833c.04 0 .075.024.09.06l3.676 8.618h.402l3.675-8.618a.1.1 0 0 1 .09-.06h3.59a.1.1 0 0 1 .098.1v12.123a.1.1 0 0 1-.098.098h-2.281a.1.1 0 0 1-.1-.098V14.6h-.4l-3.624 8.494a.1.1 0 0 1-.09.06H18.94a.1.1 0 0 1-.09-.06L15.225 14.6h-.401v8.456a.1.1 0 0 1-.099.098h-2.281a.1.1 0 0 1-.099-.098V10.932a.1.1 0 0 1 .099-.099z"/></g><defs><clipPath id="maraon_svg-a"><path fill="#fff" d="M0 0h40v40H0z"/></clipPath></defs></svg>