<svg xmlns="http://www.w3.org/2000/svg" width="64" height="65" fill="none" viewBox="0 0 64 65"><g clip-path="url(#matic_svg-a)"><rect width="64" height="64" y=".304" fill="#7B3FE4" rx="32"/><path fill="#fff" d="M53.333 33.05v9.655a3.49 3.49 0 0 1-1.706 2.977l-8.334 4.817a3.32 3.32 0 0 1-3.413 0l-8.333-4.817a3.47 3.47 0 0 1-1.707-2.977v-2.71l4.266-2.485v4.71l7.467 4.348 7.467-4.348v-8.678l-7.467-4.348L24.08 39.363a3.47 3.47 0 0 1-3.413 0l-8.334-4.837a3.47 3.47 0 0 1-1.667-2.974v-9.654a3.49 3.49 0 0 1 1.707-2.977l8.333-4.817a3.35 3.35 0 0 1 3.414 0l8.333 4.817a3.47 3.47 0 0 1 1.707 2.977v2.71l-4.293 2.468v-4.683L22.4 18.044l-7.467 4.35v8.666l7.467 4.35 17.493-10.17a3.47 3.47 0 0 1 3.413 0l8.334 4.838a3.48 3.48 0 0 1 1.693 2.974"/></g><rect width="63" height="63" x=".5" y=".804" stroke="#070B14" stroke-opacity=".15" rx="31.5"/><defs><clipPath id="matic_svg-a"><rect width="64" height="64" y=".304" fill="#fff" rx="32"/></clipPath></defs></svg>