<svg id="svg" version="1.1" xmlns="http://www.w3.org/2000/svg" xmlns:xlink="http://www.w3.org/1999/xlink" width="400" height="400" viewBox="0, 0, 400,400"><g id="svgg"><path id="path0" d="M300.613 128.448 C 299.988 129.595,298.970 130.783,298.299 131.148 C 296.322 132.223,294.870 133.567,293.986 135.140 C 293.526 135.958,292.634 136.974,292.003 137.398 C 290.756 138.236,290.754 138.840,292.000 138.600 C 292.431 138.517,292.889 138.621,293.019 138.831 C 293.149 139.041,293.410 139.117,293.600 139.000 C 293.977 138.767,294.528 139.474,294.663 140.365 C 294.710 140.676,295.210 141.392,295.775 141.957 L 296.801 142.983 297.980 141.792 L 299.158 140.600 297.546 138.800 C 296.659 137.810,296.065 137.270,296.226 137.600 C 296.447 138.055,296.400 138.092,296.031 137.753 C 294.545 136.384,295.304 134.246,297.678 133.114 C 300.093 131.963,300.611 131.335,301.642 128.300 C 302.487 125.812,302.010 125.881,300.613 128.448 M289.147 139.595 C 286.804 142.650,285.853 143.610,284.230 144.561 C 283.275 145.121,282.379 145.879,282.238 146.246 C 282.034 146.776,282.095 146.819,282.531 146.458 C 282.832 146.207,284.039 145.820,285.212 145.598 C 287.806 145.106,288.677 144.375,289.215 142.236 C 289.442 141.336,289.808 140.172,290.029 139.648 C 290.628 138.226,290.216 138.201,289.147 139.595 M281.057 148.040 C 280.733 148.502,279.608 149.447,278.557 150.140 C 277.340 150.942,276.192 152.176,275.398 153.533 C 274.586 154.924,273.514 156.063,272.320 156.806 C 271.313 157.433,269.968 158.723,269.331 159.673 C 268.694 160.623,267.302 161.972,266.236 162.671 C 265.170 163.370,264.096 164.158,263.849 164.423 C 263.602 164.687,263.919 164.574,264.554 164.171 C 265.189 163.767,266.179 163.389,266.754 163.330 C 267.329 163.271,268.340 163.140,269.000 163.039 C 269.660 162.938,270.313 162.843,270.451 162.828 C 270.590 162.812,270.935 162.241,271.218 161.557 L 271.733 160.314 272.272 161.343 C 273.827 164.310,280.888 163.844,284.763 160.519 L 286.127 159.349 285.083 157.068 C 284.218 155.180,283.829 154.746,282.819 154.544 C 282.149 154.410,281.600 154.143,281.600 153.950 C 281.600 153.758,280.891 153.600,280.024 153.600 C 278.505 153.600,277.203 152.814,278.676 152.787 C 280.030 152.762,281.128 151.399,281.517 149.259 C 281.936 146.954,281.894 146.844,281.057 148.040 M262.252 166.865 C 261.653 167.780,261.453 168.288,261.808 167.994 C 262.412 167.492,263.785 165.200,263.481 165.200 C 263.405 165.200,262.852 165.949,262.252 166.865 M257.956 170.700 C 257.409 171.305,256.702 172.319,256.385 172.952 C 256.068 173.586,254.818 174.760,253.607 175.561 C 252.208 176.487,251.056 177.651,250.447 178.755 C 249.920 179.711,248.876 180.854,248.127 181.296 C 246.478 182.269,246.640 182.710,248.328 181.837 C 249.601 181.179,251.019 179.601,251.391 178.429 C 251.514 178.042,252.696 177.258,254.019 176.687 C 256.179 175.755,256.505 175.455,257.232 173.725 C 257.677 172.666,258.312 171.305,258.643 170.700 C 258.974 170.095,259.179 169.600,259.097 169.600 C 259.016 169.600,258.502 170.095,257.956 170.700 M243.827 185.547 C 243.480 186.219,242.421 187.223,241.473 187.778 C 240.526 188.333,239.312 189.285,238.776 189.894 L 237.800 191.000 238.800 190.144 C 239.350 189.673,240.719 188.829,241.842 188.267 C 243.255 187.560,244.042 186.865,244.396 186.010 C 245.078 184.364,244.628 183.998,243.827 185.547 M195.328 189.011 C 194.629 189.562,193.667 190.645,193.190 191.416 C 192.018 193.313,190.762 193.863,187.089 194.089 C 183.617 194.304,182.688 194.867,181.076 197.736 C 179.882 199.860,178.633 200.400,174.916 200.400 C 171.500 200.400,170.330 201.028,169.018 203.565 C 167.740 206.036,166.259 206.800,162.743 206.800 C 158.853 206.800,158.385 207.031,156.756 209.755 C 154.984 212.717,154.020 213.200,149.878 213.200 L 146.479 213.200 145.339 214.634 C 144.713 215.423,143.546 216.773,142.747 217.634 L 141.294 219.200 137.693 219.200 L 134.093 219.200 132.746 220.826 C 132.006 221.720,130.746 223.160,129.947 224.026 L 128.494 225.600 124.886 225.600 L 121.279 225.600 120.139 227.034 C 119.513 227.823,118.346 229.173,117.547 230.034 L 116.094 231.600 112.693 231.600 L 109.293 231.600 107.946 233.226 C 107.206 234.120,105.946 235.560,105.147 236.426 L 103.694 238.000 100.409 238.000 C 96.585 238.000,95.302 238.648,93.975 241.249 C 92.754 243.642,91.203 244.397,87.506 244.399 C 82.636 244.401,80.539 246.795,83.686 248.761 C 84.351 249.176,84.332 249.076,83.546 248.012 L 82.638 246.784 83.500 245.923 C 84.352 245.070,84.379 245.069,85.981 245.791 C 88.051 246.725,87.877 247.570,85.400 248.616 C 84.802 248.869,85.255 249.024,87.200 249.230 C 90.870 249.620,300.800 249.669,300.800 249.281 C 300.800 248.330,286.381 248.211,194.400 248.400 C 129.865 248.533,96.730 248.465,96.200 248.200 C 94.538 247.369,94.010 246.729,94.394 246.011 C 94.597 245.632,94.947 244.180,95.171 242.785 C 95.742 239.244,95.954 239.101,99.956 239.548 C 105.125 240.127,107.729 239.021,108.228 236.036 C 108.359 235.246,108.636 234.044,108.843 233.365 L 109.219 232.131 111.509 232.905 C 117.041 234.774,120.259 233.422,121.158 228.850 C 121.423 227.502,121.676 226.404,121.720 226.408 C 121.764 226.412,123.192 226.661,124.893 226.961 C 130.212 227.899,132.850 226.753,133.415 223.259 C 133.545 222.457,133.814 221.398,134.014 220.907 L 134.377 220.013 135.888 220.901 C 136.720 221.389,138.047 222.467,138.838 223.295 C 140.651 225.192,140.738 225.185,143.287 222.932 C 145.611 220.877,145.901 220.290,145.960 217.526 C 145.982 216.495,146.179 215.181,146.398 214.605 L 146.796 213.558 148.139 214.879 C 148.877 215.606,149.591 216.652,149.724 217.204 C 149.975 218.241,151.823 219.600,152.982 219.600 C 155.321 219.600,158.615 215.081,159.069 211.249 L 159.300 209.295 161.106 209.048 C 162.099 208.911,163.972 208.800,165.269 208.800 C 169.616 208.800,170.692 207.993,171.208 204.344 C 171.637 201.310,171.474 201.425,174.228 202.225 C 179.269 203.691,182.829 202.402,183.415 198.898 C 184.047 195.118,183.940 195.189,188.122 195.751 C 192.772 196.376,195.771 194.976,196.254 191.955 C 196.709 189.105,197.481 189.906,198.418 194.200 C 198.936 196.575,199.004 216.373,198.504 219.600 C 197.409 226.681,204.575 229.427,207.411 223.013 C 208.549 220.441,208.975 220.098,211.200 219.966 C 213.595 219.824,213.836 219.577,213.665 217.430 L 213.520 215.601 212.650 216.901 C 212.171 217.615,210.974 218.721,209.990 219.358 C 209.005 219.994,207.570 221.419,206.800 222.524 C 204.676 225.572,203.523 226.304,202.204 225.439 C 199.589 223.726,199.603 223.828,199.601 206.342 L 199.600 190.485 198.440 189.242 C 197.043 187.747,196.941 187.740,195.328 189.011 M226.731 201.900 C 226.171 202.505,225.393 203.561,225.002 204.246 C 224.611 204.931,223.731 205.811,223.046 206.202 C 221.204 207.253,219.626 208.828,218.915 210.324 C 218.569 211.053,217.636 212.098,216.843 212.648 L 215.400 213.647 217.000 213.375 C 219.031 213.030,219.210 212.849,219.791 210.561 C 220.244 208.776,220.408 208.607,222.835 207.437 C 224.429 206.668,225.580 205.821,225.875 205.200 C 226.915 203.013,227.896 200.800,227.825 200.800 C 227.783 200.800,227.291 201.295,226.731 201.900 M220.976 215.238 C 220.488 216.029,221.775 216.953,222.369 216.238 C 222.644 215.906,222.753 215.447,222.611 215.218 C 222.273 214.670,221.320 214.683,220.976 215.238 M213.793 221.120 C 213.851 221.646,214.277 222.455,214.739 222.917 L 215.580 223.758 216.592 222.807 L 217.604 221.856 216.732 220.927 C 215.523 219.641,213.645 219.764,213.793 221.120 " stroke="none" fill="#f4f9f4" fill-rule="evenodd"></path><path id="path1" d="M302.258 126.700 C 301.949 127.305,301.578 128.340,301.433 129.000 C 301.031 130.832,299.886 132.061,297.537 133.181 C 295.307 134.244,294.589 136.425,296.031 137.753 C 296.400 138.092,296.447 138.055,296.226 137.600 C 296.065 137.270,296.659 137.810,297.546 138.800 L 299.158 140.600 297.958 141.800 L 296.758 143.000 295.567 141.681 C 294.913 140.955,294.475 140.202,294.595 140.008 C 294.799 139.679,294.179 139.083,293.500 138.956 C 293.335 138.925,293.155 138.862,293.100 138.815 C 293.045 138.769,292.431 138.671,291.735 138.599 C 290.355 138.456,290.084 138.848,289.220 142.236 C 288.677 144.369,287.805 145.106,285.248 145.591 C 283.433 145.935,281.073 147.036,281.568 147.308 C 282.829 148.000,280.318 152.756,278.676 152.787 C 277.203 152.814,278.505 153.600,280.024 153.600 C 280.891 153.600,281.600 153.758,281.600 153.950 C 281.600 154.143,282.149 154.410,282.819 154.544 C 283.829 154.746,284.218 155.180,285.083 157.068 L 286.127 159.349 284.763 160.519 C 280.888 163.844,273.827 164.310,272.272 161.343 L 271.733 160.314 271.218 161.557 C 270.935 162.241,270.590 162.812,270.451 162.827 C 270.313 162.842,269.570 162.952,268.800 163.071 C 268.030 163.190,266.978 163.304,266.463 163.324 C 265.423 163.364,263.959 164.688,262.657 166.767 C 262.185 167.519,261.233 168.419,260.540 168.767 C 259.269 169.406,258.727 170.220,257.240 173.725 C 256.508 175.449,256.174 175.757,254.037 176.679 C 252.277 177.439,251.527 178.011,251.174 178.862 C 250.643 180.146,248.856 181.801,247.558 182.213 C 246.359 182.594,244.803 184.030,244.786 184.772 C 244.756 186.096,243.636 187.339,241.384 188.546 C 239.835 189.377,238.623 190.408,237.794 191.600 C 237.106 192.590,235.795 193.816,234.882 194.324 C 233.968 194.833,232.811 195.797,232.310 196.467 C 231.459 197.606,229.492 199.677,227.914 201.095 C 227.536 201.434,226.944 202.565,226.597 203.609 C 225.837 205.896,225.283 206.429,222.300 207.743 C 220.558 208.510,220.000 208.959,220.000 209.591 C 220.000 211.738,218.964 213.085,217.096 213.365 C 214.602 213.739,213.502 214.985,213.643 217.277 C 213.785 219.598,213.585 219.831,211.337 219.947 C 209.002 220.068,208.562 220.412,207.411 223.013 C 204.575 229.427,197.409 226.681,198.504 219.600 C 199.004 216.373,198.936 196.575,198.418 194.200 C 197.481 189.906,196.709 189.105,196.254 191.955 C 195.771 194.976,192.772 196.376,188.122 195.751 C 183.940 195.189,184.047 195.118,183.415 198.898 C 182.829 202.402,179.269 203.691,174.228 202.225 C 171.474 201.425,171.637 201.310,171.208 204.344 C 170.692 207.993,169.616 208.800,165.269 208.800 C 163.972 208.800,162.099 208.911,161.106 209.048 L 159.300 209.295 159.069 211.249 C 158.615 215.081,155.321 219.600,152.982 219.600 C 151.823 219.600,149.975 218.241,149.724 217.204 C 149.591 216.652,148.877 215.606,148.139 214.879 L 146.796 213.558 146.398 214.605 C 146.179 215.181,145.982 216.495,145.960 217.526 C 145.901 220.290,145.611 220.877,143.287 222.932 C 140.738 225.185,140.651 225.192,138.838 223.295 C 138.047 222.467,136.720 221.389,135.888 220.901 L 134.377 220.013 134.014 220.907 C 133.814 221.398,133.545 222.457,133.415 223.259 C 132.850 226.753,130.212 227.899,124.893 226.961 C 123.192 226.661,121.764 226.412,121.720 226.408 C 121.676 226.404,121.423 227.502,121.158 228.850 C 120.259 233.422,117.041 234.774,111.509 232.905 L 109.219 232.131 108.843 233.365 C 108.636 234.044,108.359 235.246,108.228 236.036 C 107.729 239.021,105.125 240.127,99.956 239.548 C 95.954 239.101,95.742 239.244,95.171 242.785 C 94.947 244.180,94.597 245.632,94.394 246.011 C 94.010 246.729,94.538 247.369,96.200 248.200 C 96.730 248.465,129.865 248.533,194.400 248.400 C 274.917 248.235,292.802 248.295,297.580 248.748 L 303.359 249.295 304.480 248.041 L 305.600 246.787 305.600 187.424 L 305.600 128.061 304.564 126.831 C 303.292 125.319,302.974 125.300,302.258 126.700 M222.611 215.218 C 222.753 215.447,222.644 215.906,222.369 216.238 C 221.775 216.953,220.488 216.029,220.976 215.238 C 221.320 214.683,222.273 214.670,222.611 215.218 M216.732 220.927 L 217.604 221.856 216.592 222.807 L 215.580 223.758 214.739 222.917 C 214.277 222.455,213.851 221.646,213.793 221.120 C 213.645 219.764,215.523 219.641,216.732 220.927 M83.423 245.975 C 82.716 246.756,82.799 247.190,83.902 248.477 C 84.513 249.189,85.212 248.993,86.900 247.638 C 87.879 246.852,87.794 246.641,86.186 245.874 C 84.409 245.026,84.277 245.031,83.423 245.975 " stroke="none" fill="#fcf8fb" fill-rule="evenodd"></path><path id="path2" d="M301.400 123.004 C 299.539 123.659,298.059 125.205,297.733 126.835 C 297.460 128.198,297.077 128.542,295.132 129.168 C 293.302 129.758,292.850 130.298,292.002 132.915 C 291.353 134.918,291.241 135.028,289.173 135.702 C 286.629 136.530,285.812 137.260,285.092 139.344 C 284.662 140.589,284.259 140.992,283.015 141.419 C 280.968 142.123,279.926 143.231,279.200 145.475 C 278.681 147.080,278.387 147.403,277.018 147.872 C 274.844 148.618,273.757 149.752,273.237 151.820 C 272.789 153.598,271.925 154.400,270.457 154.400 C 269.085 154.400,267.294 156.258,267.003 157.984 C 266.700 159.777,266.379 160.109,264.313 160.775 C 262.714 161.289,260.800 163.233,260.800 164.342 C 260.800 165.534,259.663 166.699,258.238 166.966 C 256.267 167.336,255.130 168.417,254.392 170.624 C 253.797 172.402,253.599 172.597,251.774 173.195 C 249.777 173.849,249.265 174.472,247.800 178.029 C 247.545 178.649,246.826 179.188,245.811 179.519 C 243.753 180.191,242.862 181.016,241.974 183.073 C 241.377 184.456,240.848 184.942,238.926 185.873 C 236.862 186.873,236.532 187.202,235.995 188.800 C 235.148 191.316,235.026 191.448,233.091 191.935 C 230.986 192.465,229.814 193.663,229.224 195.888 C 228.829 197.374,228.593 197.625,227.240 197.989 C 225.065 198.575,223.694 199.792,223.145 201.626 C 222.594 203.464,222.322 203.728,220.307 204.377 C 218.653 204.909,217.323 206.486,216.949 208.357 C 216.657 209.815,216.386 210.046,213.873 210.975 C 212.324 211.547,211.825 211.973,211.332 213.143 C 210.017 216.264,209.814 216.496,207.699 217.279 C 205.613 218.051,205.001 218.695,204.164 221.000 C 203.925 221.660,203.475 222.200,203.164 222.200 C 202.274 222.200,202.083 219.058,202.040 203.687 C 201.996 188.045,201.903 187.391,199.562 186.180 C 196.309 184.498,192.496 185.680,188.376 189.648 C 187.144 190.834,186.378 191.186,184.136 191.596 C 179.650 192.416,178.863 192.930,178.720 195.136 L 178.600 197.000 175.800 197.272 C 167.165 198.111,167.034 198.169,166.669 201.251 C 166.336 204.055,166.410 204.015,161.622 203.970 C 155.628 203.913,154.422 204.615,154.405 208.169 C 154.396 210.166,153.511 210.747,151.138 210.316 C 146.099 209.400,141.300 211.117,141.122 213.899 L 141.000 215.800 137.993 216.045 C 131.762 216.552,129.189 217.787,128.835 220.443 L 128.600 222.200 125.050 222.470 C 118.673 222.956,116.000 224.253,116.000 226.862 L 116.000 228.400 114.300 228.410 C 108.996 228.439,104.007 230.550,103.994 232.770 C 103.983 234.627,103.547 234.854,99.756 234.985 C 94.471 235.166,92.867 236.020,91.550 239.354 L 90.901 241.000 86.950 241.455 C 81.223 242.114,80.405 242.549,79.401 245.470 C 78.844 247.088,79.191 248.787,80.357 250.155 C 82.072 252.169,75.613 252.063,193.705 252.016 C 314.507 251.968,305.580 252.164,307.190 249.524 C 308.330 247.653,308.481 127.735,307.346 125.343 C 306.291 123.119,303.828 122.150,301.400 123.004 M304.564 126.831 L 305.600 128.061 305.600 187.424 L 305.600 246.787 304.433 248.094 L 303.266 249.400 194.093 249.400 C 104.835 249.400,84.742 249.304,83.942 248.876 C 80.425 246.994,82.489 244.401,87.506 244.399 C 91.203 244.397,92.754 243.642,93.975 241.249 C 95.302 238.648,96.585 238.000,100.409 238.000 L 103.694 238.000 105.147 236.426 C 105.946 235.560,107.206 234.120,107.946 233.226 L 109.293 231.600 112.693 231.600 L 116.094 231.600 117.547 230.034 C 118.346 229.173,119.513 227.823,120.139 227.034 L 121.279 225.600 124.886 225.600 L 128.494 225.600 129.947 224.026 C 130.746 223.160,132.006 221.720,132.746 220.826 L 134.093 219.200 137.693 219.200 L 141.294 219.200 142.747 217.634 C 143.546 216.773,144.713 215.423,145.339 214.634 L 146.479 213.200 149.878 213.200 C 154.020 213.200,154.984 212.717,156.756 209.755 C 158.385 207.031,158.853 206.800,162.743 206.800 C 166.259 206.800,167.740 206.036,169.018 203.565 C 170.330 201.028,171.500 200.400,174.916 200.400 C 178.633 200.400,179.882 199.860,181.076 197.736 C 182.661 194.915,183.622 194.317,186.881 194.118 C 190.741 193.884,191.810 193.420,193.221 191.370 C 194.830 189.031,196.545 187.835,197.533 188.364 C 199.581 189.460,199.600 189.625,199.601 206.486 C 199.603 223.811,199.592 223.728,202.204 225.439 C 203.523 226.304,204.676 225.572,206.800 222.524 C 207.570 221.419,209.009 219.994,209.997 219.358 C 210.985 218.721,212.364 217.328,213.060 216.261 C 213.756 215.195,215.216 213.723,216.303 212.991 C 217.391 212.258,218.565 211.061,218.913 210.329 C 219.626 208.828,221.202 207.254,223.046 206.202 C 223.731 205.811,224.612 204.931,225.003 204.246 C 226.019 202.469,227.180 201.244,228.879 200.161 C 229.692 199.641,230.920 198.358,231.608 197.308 C 232.296 196.259,233.691 194.860,234.707 194.200 C 235.723 193.540,237.118 192.190,237.806 191.200 C 238.495 190.210,239.989 188.770,241.128 188.000 C 242.266 187.230,243.716 185.774,244.349 184.765 C 245.037 183.668,246.304 182.435,247.501 181.699 C 248.787 180.908,249.843 179.850,250.454 178.743 C 251.061 177.643,252.217 176.481,253.644 175.537 C 254.965 174.663,256.141 173.512,256.513 172.728 C 257.183 171.319,258.684 169.790,260.508 168.658 C 261.118 168.280,262.144 167.122,262.787 166.085 C 263.469 164.987,264.838 163.614,266.066 162.796 C 267.226 162.024,268.695 160.617,269.332 159.669 C 269.968 158.721,271.313 157.433,272.320 156.806 C 273.514 156.063,274.586 154.924,275.398 153.533 C 276.196 152.169,277.340 150.942,278.574 150.129 C 279.635 149.430,281.011 148.089,281.633 147.150 C 282.255 146.211,283.397 145.060,284.171 144.593 C 286.131 143.410,287.152 142.440,288.244 140.721 C 288.760 139.908,290.072 138.661,291.158 137.949 C 292.245 137.238,293.513 135.981,293.977 135.155 C 294.873 133.562,296.316 132.226,298.325 131.133 C 298.999 130.766,299.922 129.738,300.375 128.848 C 302.035 125.594,303.095 125.084,304.564 126.831 " stroke="none" fill="#8434dc" fill-rule="evenodd"></path><path id="path3" d="M176.789 193.888 C 173.821 195.952,173.702 197.282,176.500 197.121 L 178.600 197.000 178.722 195.100 C 178.858 192.979,178.458 192.728,176.789 193.888 M163.135 199.008 C 161.578 199.819,158.400 202.963,158.400 203.693 C 158.400 204.061,165.924 204.047,166.151 203.679 C 166.271 203.485,166.537 202.263,166.741 200.963 C 167.259 197.672,166.496 197.258,163.135 199.008 M151.687 205.465 C 150.327 206.136,149.096 207.582,148.643 209.043 C 148.405 209.812,148.597 209.921,150.791 210.275 C 153.586 210.725,154.400 210.233,154.400 208.095 C 154.400 207.411,154.576 206.390,154.790 205.826 C 155.271 204.562,153.854 204.397,151.687 205.465 M139.800 212.866 C 138.712 213.466,136.800 215.270,136.800 215.696 C 136.800 215.886,137.745 215.987,138.900 215.921 L 141.000 215.800 141.123 214.100 C 141.253 212.306,141.090 212.154,139.800 212.866 M126.443 220.209 C 124.331 222.117,124.374 222.471,126.700 222.322 C 128.538 222.204,128.604 222.156,128.729 220.849 C 128.932 218.722,128.288 218.542,126.443 220.209 M114.129 226.500 C 112.606 228.192,112.633 228.400,114.376 228.400 C 115.965 228.400,116.000 228.370,116.000 227.000 C 116.000 225.355,115.323 225.174,114.129 226.500 M102.000 232.298 C 101.450 232.657,100.579 233.322,100.064 233.776 L 99.129 234.600 101.064 234.850 C 103.259 235.133,104.121 234.523,103.917 232.831 C 103.770 231.609,103.268 231.470,102.000 232.298 " stroke="none" fill="#5c0ccc" fill-rule="evenodd"></path><path id="path4" d="M0.000 200.000 L 0.000 400.000 200.000 400.000 L 400.000 400.000 400.000 200.000 L 400.000 0.000 200.000 0.000 L 0.000 0.000 0.000 200.000 M305.646 123.433 C 308.149 124.705,308.000 120.667,307.999 187.460 C 307.997 255.863,308.265 250.061,305.038 251.410 C 302.990 252.266,84.378 252.339,82.358 251.485 C 79.756 250.384,78.552 247.937,79.401 245.470 C 80.405 242.549,81.223 242.114,86.950 241.455 L 90.901 241.000 91.550 239.354 C 92.665 236.532,94.467 235.200,97.173 235.200 C 97.906 235.200,98.884 234.765,99.686 234.082 C 101.519 232.523,103.225 231.492,103.507 231.774 C 103.638 231.904,104.246 231.531,104.858 230.944 C 105.665 230.172,106.872 229.682,109.236 229.169 C 112.094 228.549,112.647 228.283,113.679 227.030 C 114.328 226.244,115.093 225.600,115.380 225.600 C 115.667 225.600,116.135 225.320,116.419 224.977 C 117.135 224.114,119.194 223.309,121.969 222.806 C 123.942 222.448,124.599 222.095,126.110 220.585 C 127.316 219.379,128.118 218.871,128.553 219.037 C 128.909 219.174,129.200 219.091,129.200 218.853 C 129.200 218.218,131.225 217.278,133.975 216.637 C 135.767 216.219,136.653 215.761,137.407 214.864 C 138.768 213.247,142.971 210.956,145.200 210.616 C 148.042 210.183,148.209 210.085,148.949 208.407 C 149.848 206.368,151.494 205.214,154.113 204.786 C 157.696 204.201,158.159 203.967,159.699 201.965 C 161.806 199.228,163.812 198.294,167.898 198.149 C 171.695 198.014,174.400 197.395,174.400 196.661 C 174.400 195.849,176.807 193.611,177.953 193.357 C 178.529 193.229,179.540 192.893,180.200 192.610 C 180.860 192.327,182.631 191.871,184.136 191.596 C 186.378 191.186,187.144 190.834,188.376 189.648 C 192.496 185.680,196.309 184.498,199.562 186.180 C 201.903 187.391,201.996 188.045,202.040 203.687 C 202.083 219.058,202.274 222.200,203.164 222.200 C 203.475 222.200,203.925 221.660,204.164 221.000 C 205.001 218.695,205.613 218.051,207.699 217.279 C 209.814 216.496,210.017 216.264,211.332 213.143 C 211.825 211.973,212.324 211.547,213.873 210.975 C 216.386 210.046,216.657 209.815,216.949 208.357 C 217.323 206.486,218.653 204.909,220.307 204.377 C 222.322 203.728,222.594 203.464,223.145 201.626 C 223.694 199.792,225.065 198.575,227.240 197.989 C 228.593 197.625,228.829 197.374,229.224 195.888 C 229.814 193.663,230.986 192.465,233.091 191.935 C 235.026 191.448,235.148 191.316,235.995 188.800 C 236.532 187.202,236.862 186.873,238.926 185.873 C 240.848 184.942,241.377 184.456,241.974 183.073 C 242.862 181.016,243.753 180.191,245.811 179.519 C 246.826 179.188,247.545 178.649,247.800 178.029 C 249.265 174.472,249.777 173.849,251.774 173.195 C 253.599 172.597,253.797 172.402,254.392 170.624 C 255.130 168.417,256.267 167.336,258.238 166.966 C 259.663 166.699,260.800 165.534,260.800 164.342 C 260.800 163.233,262.714 161.289,264.313 160.775 C 266.379 160.109,266.700 159.777,267.003 157.984 C 267.294 156.258,269.085 154.400,270.457 154.400 C 271.925 154.400,272.789 153.598,273.237 151.820 C 273.757 149.752,274.844 148.618,277.018 147.872 C 278.387 147.403,278.681 147.080,279.200 145.475 C 279.926 143.231,280.968 142.123,283.015 141.419 C 284.259 140.992,284.662 140.589,285.092 139.344 C 285.812 137.260,286.629 136.530,289.173 135.702 C 291.241 135.028,291.353 134.918,292.002 132.915 C 292.850 130.298,293.302 129.758,295.132 129.168 C 297.077 128.542,297.460 128.198,297.733 126.835 C 298.059 125.205,299.539 123.659,301.400 123.004 C 303.041 122.427,303.822 122.506,305.646 123.433 " stroke="none" fill="#6404fc" fill-rule="evenodd"></path></g></svg>