<?xml version="1.0" encoding="UTF-8"?>
<svg version="1.1" xmlns="http://www.w3.org/2000/svg" width="64" height="64">
<path d="M0 0 C21.12 0 42.24 0 64 0 C64 21.12 64 42.24 64 64 C42.88 64 21.76 64 0 64 C0 42.88 0 21.76 0 0 Z " fill="#E9E9EA" transform="translate(0,0)"/>
<path d="M0 0 C9 0 9 0 12.06640625 2.1875 C13.30197266 3.5796875 13.30197266 3.5796875 14.5625 5 C15.40941406 5.928125 16.25632812 6.85625 17.12890625 7.8125 C17.74636719 8.534375 18.36382813 9.25625 19 10 C23.31191951 8.19146864 25.57509714 5.21369466 28.51171875 1.6796875 C31 0 31 0 40 0 C40 9.9 40 19.8 40 30 C34 26 34 26 33 24 C32.92805131 21.11629667 32.90708292 18.25760336 32.9375 15.375 C32.94201172 14.57320312 32.94652344 13.77140625 32.95117188 12.9453125 C32.96296832 10.96350994 32.98090395 8.98174567 33 7 C32.32904297 7.68835938 32.32904297 7.68835938 31.64453125 8.390625 C28.25029352 11.83552299 24.86423288 15.07255085 21 18 C15.42567264 15.62960846 11.39522195 11.04823074 7 7 C7 12.28 7 17.56 7 23 C7.99 22.34 8.98 21.68 10 21 C10.66 21.99 11.32 22.98 12 24 C10.63875 24.6496875 10.63875 24.6496875 9.25 25.3125 C6.07225128 26.84980836 6.07225128 26.84980836 3.75 28.6875 C2 30 2 30 0 30 C0 20.1 0 10.2 0 0 Z " fill="#7D37FB" transform="translate(12,17)"/>
<path d="M0 0 C9 0 9 0 12.0625 3 C12.701875 3.99 13.34125 4.98 14 6 C13.34 7.32 12.68 8.64 12 10 C8.125 8.125 8.125 8.125 7 7 C7 12.28 7 17.56 7 23 C7.99 22.34 8.98 21.68 10 21 C10.66 21.99 11.32 22.98 12 24 C10.63875 24.6496875 10.63875 24.6496875 9.25 25.3125 C6.07225128 26.84980836 6.07225128 26.84980836 3.75 28.6875 C2 30 2 30 0 30 C0 20.1 0 10.2 0 0 Z " fill="#5C8DF2" transform="translate(12,17)"/>
<path d="M0 0 C8.51357072 6.14093625 8.51357072 6.14093625 11 10 C11 10.66 11 11.32 11 12 C11.99 13.485 11.99 13.485 13 15 C8.70907137 20.51690823 5.19711808 23.97184027 -2 25 C-2 23.68 -2 22.36 -2 21 C-0.02 20.01 1.96 19.02 4 18 C4 17.34 4 16.68 4 16 C2.02 16.99 2.02 16.99 0 18 C0 12.06 0 6.12 0 0 Z " fill="#DDD7E8" transform="translate(18,23)"/>
<path d="M0 0 C0 9.9 0 19.8 0 30 C-6 26 -6 26 -7 24 C-7.04099129 21.06033888 -6.99567026 18.18321554 -6.875 15.25 C-6.8646875 14.45078125 -6.854375 13.6515625 -6.84375 12.828125 C-6.67882755 8.97147692 -5.51222253 0 0 0 Z " fill="#8C0FF3" transform="translate(52,17)"/>
<path d="M0 0 C-0.02094727 0.55985596 -0.04189453 1.11971191 -0.06347656 1.6965332 C-0.14666202 4.23500586 -0.19866381 6.773192 -0.25 9.3125 C-0.28351562 10.19357422 -0.31703125 11.07464844 -0.3515625 11.98242188 C-0.60941947 17.04962019 -0.60941947 17.04962019 2.015625 21.10546875 C2.67046875 21.40066406 3.3253125 21.69585937 4 22 C3.67 22.99 3.34 23.98 3 25 C0.5625 24.3125 0.5625 24.3125 -2 23 C-2.144375 22.21625 -2.28875 21.4325 -2.4375 20.625 C-2.76610781 17.69526423 -2.76610781 17.69526423 -5.8125 15.875 C-6.864375 15.25625 -7.91625 14.6375 -9 14 C-10.34271821 13.01263705 -11.67810771 12.01507564 -13 11 C-11.02354928 9.16365966 -9.044035 7.33083938 -7.0625 5.5 C-6.49853516 4.97535156 -5.93457031 4.45070313 -5.35351562 3.91015625 C-1.11328125 0 -1.11328125 0 0 0 Z " fill="#EAE1ED" transform="translate(46,23)"/>
<path d="M0 0 C2.64 0 5.28 0 8 0 C6.44997253 3.88397689 3.99523379 6.02979619 0.875 8.75 C-0.49011719 9.94882812 -0.49011719 9.94882812 -1.8828125 11.171875 C-2.58148438 11.77515625 -3.28015625 12.3784375 -4 13 C-4.99 12.34 -5.98 11.68 -7 11 C-6.66226563 10.54109375 -6.32453125 10.0821875 -5.9765625 9.609375 C-2.63691049 5.01807574 -2.63691049 5.01807574 0 0 Z " fill="#802EF7" transform="translate(43,17)"/>
<path d="M0 0 C0 6.27 0 12.54 0 19 C-1.32 18.67 -2.64 18.34 -4 18 C-4.0809723 15.56183415 -4.14046972 13.12635616 -4.1875 10.6875 C-4.21263672 9.99720703 -4.23777344 9.30691406 -4.26367188 8.59570312 C-4.33807332 3.46200317 -4.33807332 3.46200317 -2.55078125 1.01953125 C-1 0 -1 0 0 0 Z " fill="#9602FC" transform="translate(51,26)"/>
<path d="M0 0 C0.33 1.65 0.66 3.3 1 5 C1.99 4.34 2.98 3.68 4 3 C4.99 4.485 4.99 4.485 6 6 C5.0925 6.433125 4.185 6.86625 3.25 7.3125 C0.07225128 8.84980836 0.07225128 8.84980836 -2.25 10.6875 C-4 12 -4 12 -6 12 C-6 8.37 -6 4.74 -6 1 C-5.34 1.66 -4.68 2.32 -4 3 C-3.525625 2.505 -3.05125 2.01 -2.5625 1.5 C-1 0 -1 0 0 0 Z " fill="#744DF7" transform="translate(18,35)"/>
<path d="M0 0 C0.33 0 0.66 0 1 0 C1.29036649 3.38115651 1.44908891 6.62919149 1 10 C-1.5 12.625 -1.5 12.625 -4 14 C-4.27377394 8.61577922 -4.37535297 5.45546592 -1 1 C-0.67 0.67 -0.34 0.34 0 0 Z " fill="#6079FE" transform="translate(17,25)"/>
<path d="M0 0 C0.66 0.33 1.32 0.66 2 1 C0.60364382 4.37452744 -0.8606353 6.11638118 -4 8 C-6.75 8.6875 -6.75 8.6875 -9 9 C-9 7.68 -9 6.36 -9 5 C-8.071875 4.54625 -7.14375 4.0925 -6.1875 3.625 C-2.96078611 2.0578367 -2.96078611 2.0578367 0 0 Z " fill="#E7D3F9" transform="translate(25,39)"/>
<path d="M0 0 C3.82822759 0.41386244 6.13951888 1.43543072 9 4 C9.99 5.485 9.99 5.485 11 7 C10.67 7.66 10.34 8.32 10 9 C8.125 8.6875 8.125 8.6875 6 8 C5.34 7.01 4.68 6.02 4 5 C3.319375 4.835 2.63875 4.67 1.9375 4.5 C1.298125 4.335 0.65875 4.17 0 4 C-0.33 3.01 -0.66 2.02 -1 1 C-0.67 0.67 -0.34 0.34 0 0 Z " fill="#F6D8FC" transform="translate(34,36)"/>
<path d="M0 0 C3.36720387 1.39332574 4.9859524 2.9789286 7 6 C5.68 6.99 4.36 7.98 3 9 C1.35 7.02 -0.3 5.04 -2 3 C-1.34 2.01 -0.68 1.02 0 0 Z " fill="#6B60FC" transform="translate(25,23)"/>
<path d="M0 0 C2.31 0 4.62 0 7 0 C5.50902342 3.7952131 3.24299151 5.61042731 0 8 C0 5.36 0 2.72 0 0 Z " fill="#509EFE" transform="translate(13,17)"/>
<path d="M0 0 C0.33 0.99 0.66 1.98 1 3 C-0.32810215 4.67083819 -1.66172696 6.33729713 -3 8 C-3 9.32 -3 10.64 -3 12 C-3.66 12 -4.32 12 -5 12 C-5 8.37 -5 4.74 -5 1 C-4.34 1.66 -3.68 2.32 -3 3 C-2.01 2.01 -1.02 1.02 0 0 Z " fill="#6F5CEE" transform="translate(17,35)"/>
<path d="M0 0 C0.86625 0.556875 0.86625 0.556875 1.75 1.125 C1.09 2.775 0.43 4.425 -0.25 6.125 C-3.41115776 4.75516497 -4.2427092 4.1359362 -6.25 1.125 C-2.80384615 -1.09038462 -2.80384615 -1.09038462 0 0 Z " fill="#627BF7" transform="translate(24.25,20.875)"/>
<path d="M0 0 C0.66 0 1.32 0 2 0 C3.2890625 1.53125 3.2890625 1.53125 4.625 3.5 C5.07101563 4.1496875 5.51703125 4.799375 5.9765625 5.46875 C6.31429687 5.9740625 6.65203125 6.479375 7 7 C3.4390538 7 2.65674999 6.22824192 0 4 C-0.66 3.34 -1.32 2.68 -2 2 C-1.34 1.34 -0.68 0.68 0 0 Z " fill="#A374C7" transform="translate(37,33)"/>
<path d="M0 0 C0.33 1.32 0.66 2.64 1 4 C-0.65 5.32 -2.3 6.64 -4 8 C-3.50168276 4.31245243 -2.89932357 2.39509338 0 0 Z " fill="#6867FE" transform="translate(17,31)"/>
<path d="M0 0 C0.99 0.99 1.98 1.98 3 3 C1.02 3.99 -0.96 4.98 -3 6 C-3.33 5.01 -3.66 4.02 -4 3 C-2.68 2.01 -1.36 1.02 0 0 Z " fill="#977CCF" transform="translate(21,38)"/>
<path d="M0 0 C0.99 0.99 1.98 1.98 3 3 C1.68 3.99 0.36 4.98 -1 6 C-1.66 4.68 -2.32 3.36 -3 2 C-2.34 2 -1.68 2 -1 2 C-0.67 1.34 -0.34 0.68 0 0 Z " fill="#7449FE" transform="translate(29,26)"/>
</svg>
