<svg xmlns="http://www.w3.org/2000/svg" width="40" height="40" fill="none" viewBox="0 0 40 40"><g clip-path="url(#mcdon_svg-a)"><path fill="#F8CFD2" d="M20 0c11.046 0 20 8.954 20 20s-8.954 20-20 20S0 31.046 0 20 8.954 0 20 0"/><path fill="#DB1020" d="M26 6a8 8 0 0 1 8 8v12a8 8 0 0 1-8 8H14a8 8 0 0 1-8-8V14a8 8 0 0 1 8-8z"/><path fill="#fff" d="M24.15 12.88c1.636 0 2.963 6.898 2.963 15.42H29.5c0-9.174-2.408-16.6-5.356-16.6-1.684 0-3.173 2.225-4.155 5.722-.983-3.496-2.47-5.722-4.141-5.722-2.949 0-5.348 7.42-5.348 16.594h2.386c0-8.521 1.313-15.414 2.948-15.414s2.962 6.373 2.962 14.234h2.373c0-7.861 1.333-14.234 2.968-14.234z"/></g><defs><clipPath id="mcdon_svg-a"><path fill="#fff" d="M0 0h40v40H0z"/></clipPath></defs></svg>