<svg xmlns="http://www.w3.org/2000/svg" width="40" height="40" fill="none" viewBox="0 0 40 40"><g clip-path="url(#melion_svg-a)"><path fill="#CCEFFB" d="M20 0c11.046 0 20 8.954 20 20s-8.954 20-20 20S0 31.046 0 20 8.954 0 20 0"/><path fill="#00B1EA" d="M26 6a8 8 0 0 1 8 8v12a8 8 0 0 1-8 8H14a8 8 0 0 1-8-8V14a8 8 0 0 1 8-8z"/><g clip-path="url(#melion_svg-b)"><path fill="#fff" d="M19.263 23.733a.777.777 0 0 1-.783-.739c-.002-.035-.005-.129-.086-.129-.033 0-.061.02-.094.05a.55.55 0 0 1-.383.17.7.7 0 0 1-.254-.054c-.446-.178-.452-.482-.434-.604.005-.032.005-.067-.017-.092l-.027-.025h-.028c-.023 0-.046.01-.078.033a.66.66 0 0 1-.378.133.6.6 0 0 1-.21-.042c-.59-.225-.543-.773-.515-.938q.006-.051-.025-.077l-.042-.033-.039.036a.61.61 0 0 1-.851-.007.6.6 0 0 1-.18-.428c0-.334.274-.602.61-.602.304 0 .563.225.601.525l.022.163.091-.138c.009-.015.256-.383.71-.383q.129 0 .264.041c.361.109.423.434.432.567.007.078.063.083.075.083.031 0 .054-.02.07-.037a.62.62 0 0 1 .45-.188q.16 0 .334.075c.575.244.316.965.312.973-.048.12-.05.172-.004.203l.022.011h.017c.025 0 .059-.012.112-.03a1 1 0 0 1 .306-.066.79.79 0 0 1 .783.775.777.777 0 0 1-.783.774m6.085-3.476c-.949-.817-3.14-2.7-3.735-3.142-.338-.252-.57-.385-.773-.444a1.3 1.3 0 0 0-.38-.058q-.228 0-.483.079c-.384.12-.765.42-1.135.711l-.02.015c-.344.27-.7.55-.97.609q-.176.04-.358.04c-.301 0-.572-.086-.675-.215q-.024-.03.034-.104l.006-.006.834-.89c.652-.645 1.27-1.255 2.691-1.287h.071c.885 0 1.767.39 1.867.437.792.39 1.663.597 2.547.603.896 0 1.823-.22 2.794-.662a8 8 0 0 0-.337-.265q-1.28.55-2.455.55c-.802 0-1.604-.19-2.382-.566-.041-.019-1.016-.473-2.033-.475l-.08.001c-1.195.028-1.867.447-2.318.814-.44.01-.819.115-1.157.208-.3.083-.56.155-.816.154-.104 0-.292-.008-.308-.01-.292-.008-1.763-.364-2.932-.801q-.178.124-.346.258c1.222.494 2.709.877 3.177.907.13.009.27.023.41.023.31 0 .62-.086.92-.17.177-.049.37-.102.576-.141l-.163.162-.848.906c-.067.066-.212.244-.117.464.05.1.127.185.224.243.202.135.564.225.9.226q.19 0 .358-.037c.356-.079.728-.373 1.124-.683.314-.247.761-.56 1.103-.652a1.2 1.2 0 0 1 .387-.037c.225.028.444.104.836.393.696.517 3.776 3.18 3.805 3.205.002.002.198.17.183.447a.48.48 0 0 1-.245.389.75.75 0 0 1-.403.125.67.67 0 0 1-.357-.104c-.011-.008-1.066-.964-1.455-1.285-.061-.05-.121-.096-.183-.096a.1.1 0 0 0-.08.037c-.06.075.008.177.087.245l1.234 1.225a.57.57 0 0 1 .17.33q.014.305-.292.505a.8.8 0 0 1-.438.142.64.64 0 0 1-.35-.106l-.178-.172q-.435-.435-.9-.84c-.06-.049-.124-.094-.185-.094a.1.1 0 0 0-.078.032c-.027.03-.047.086.023.177q.03.036.063.069l.898.998c.009.009.185.217.02.426l-.032.04a1 1 0 0 1-.083.08c-.153.125-.358.137-.439.137a1 1 0 0 1-.122-.01q-.134-.023-.177-.075l-.011-.01c-.05-.05-.502-.508-.878-.817-.05-.042-.111-.092-.175-.092a.1.1 0 0 0-.08.035c-.075.08.036.2.083.244l.767.836a.2.2 0 0 1-.028.052c-.027.037-.12.13-.399.163a1 1 0 0 1-.102.006c-.287 0-.593-.136-.751-.22a1.12 1.12 0 0 0 .015-.923 1.135 1.135 0 0 0-1.09-.688c.02-.285-.021-.825-.581-1.061a1.2 1.2 0 0 0-.48-.104q-.182 0-.35.062a.96.96 0 0 0-.559-.47 1.3 1.3 0 0 0-.411-.07q-.35 0-.64.2a.973.973 0 0 0-1.435-.078c-.24-.181-1.188-.775-3.723-1.344a15 15 0 0 1-.576-.158q-.043.204-.065.412l.559.13c2.59.569 3.447 1.16 3.59 1.271a.95.95 0 0 0 .278 1.11.97.97 0 0 0 .796.202c.08.39.338.684.732.836a.9.9 0 0 0 .567.038c.073.184.236.411.603.557.12.05.25.076.38.078a.9.9 0 0 0 .296-.052 1.14 1.14 0 0 0 1.058.7c.308.002.605-.122.82-.341.185.1.574.284.97.284q.075 0 .146-.008c.391-.05.574-.2.657-.319l.04-.065c.092.027.195.049.311.049.213 0 .418-.072.625-.221.203-.145.348-.354.37-.531v-.008q.105.021.21.021c.22 0 .438-.068.643-.201.4-.259.469-.596.462-.817a1.07 1.07 0 0 0 .815-.162.87.87 0 0 0 .418-.673.9.9 0 0 0-.133-.544c.67-.285 2.197-.836 3.996-1.236a4 4 0 0 0-.056-.41 23 23 0 0 0-4.207 1.35zm4.269-.636c0 3.356-4.305 6.077-9.614 6.077s-9.615-2.721-9.615-6.077c0-3.357 4.304-6.078 9.615-6.078 5.31 0 9.614 2.721 9.614 6.078m.383.003c0-3.56-4.478-6.462-10-6.462-5.521 0-9.998 2.902-9.998 6.463l-.002.378c0 3.778 3.913 6.836 10 6.836 6.122 0 10-3.058 10-6.836z"/></g></g><defs><clipPath id="melion_svg-a"><path fill="#fff" d="M0 0h40v40H0z"/></clipPath><clipPath id="melion_svg-b"><path fill="#fff" d="M10 10h20v20H10z"/></clipPath></defs></svg>