<svg xmlns="http://www.w3.org/2000/svg" width="200" height="200" viewBox="0 0 200 200" version="1.1"><path d="M 85 42.117 C 73.609 43.967, 60.399 53.222, 54.505 63.480 C 49.595 72.027, 46.822 81.970, 46.267 93.026 C 45.658 105.154, 46.682 111.137, 50.998 120.655 C 54.360 128.071, 55.771 128.859, 53.337 121.961 C 51.170 115.822, 50.436 100.567, 51.984 93.875 C 55.450 78.898, 66.482 64.943, 80.243 58.129 C 101.949 47.381, 123.874 50.560, 141.420 67 L 148.357 73.500 145.980 69.225 C 140.780 59.871, 127.999 49.760, 115.952 45.468 C 106.499 42.100, 93.660 40.710, 85 42.117 M 149.401 77.586 C 153.761 88.840, 154.136 101.762, 150.425 112.824 C 146.243 125.291, 139.667 134.183, 129.558 141.044 C 120.583 147.136, 114.046 149.201, 101.988 149.755 C 84.502 150.558, 73.734 146.536, 61.815 134.750 C 58.617 131.588, 56 129.261, 56 129.581 C 56 129.900, 57.624 132.608, 59.609 135.598 C 67.098 146.880, 79.748 155.068, 95.968 159.131 C 113.258 163.463, 129.387 159.918, 141.038 149.225 C 157.554 134.069, 163.084 101.905, 152.736 81.187 C 150.518 76.745, 148.039 74.068, 149.401 77.586" stroke="none" fill="#e2e2e2" fill-rule="evenodd"/><path d="M -0 100.005 L -0 200.010 100.250 199.755 L 200.500 199.500 200.755 99.750 L 201.010 0 100.505 0 L 0 0 -0 100.005 M 0.481 100.500 C 0.481 155.500, 0.602 178.147, 0.750 150.826 C 0.898 123.506, 0.898 78.506, 0.750 50.826 C 0.602 23.147, 0.481 45.500, 0.481 100.500 M 85 42.117 C 73.609 43.967, 60.399 53.222, 54.505 63.480 C 49.595 72.027, 46.822 81.970, 46.267 93.026 C 45.658 105.154, 46.682 111.137, 50.998 120.655 C 54.360 128.071, 55.771 128.859, 53.337 121.961 C 51.170 115.822, 50.436 100.567, 51.984 93.875 C 55.450 78.898, 66.482 64.943, 80.243 58.129 C 101.949 47.381, 123.874 50.560, 141.420 67 L 148.357 73.500 145.980 69.225 C 140.780 59.871, 127.999 49.760, 115.952 45.468 C 106.499 42.100, 93.660 40.710, 85 42.117 M 149.401 77.586 C 153.761 88.840, 154.136 101.762, 150.425 112.824 C 146.243 125.291, 139.667 134.183, 129.558 141.044 C 120.583 147.136, 114.046 149.201, 101.988 149.755 C 84.502 150.558, 73.734 146.536, 61.815 134.750 C 58.617 131.588, 56 129.261, 56 129.581 C 56 129.900, 57.624 132.608, 59.609 135.598 C 67.098 146.880, 79.748 155.068, 95.968 159.131 C 113.258 163.463, 129.387 159.918, 141.038 149.225 C 157.554 134.069, 163.084 101.905, 152.736 81.187 C 150.518 76.745, 148.039 74.068, 149.401 77.586" stroke="none" fill="#0b0b0b" fill-rule="evenodd"/></svg>