<svg width="410" height="410" viewBox="0 0 410 410" fill="none" xmlns="http://www.w3.org/2000/svg">
<rect width="410" height="410" rx="205" fill="black"/>
<path d="M136.018 28.0077C41.6182 62.8077 16.0182 153.508 15.0182 194.508C85.8182 198.908 144.852 241.008 165.518 261.508C148.318 161.908 184.685 100.674 205.018 82.5077C191.818 58.9077 153.518 36.341 136.018 28.0077Z" fill="#006847"/>
<path d="M273.508 28.0077C367.908 62.8077 393.508 153.508 394.508 194.508C323.708 198.908 264.675 241.008 244.008 261.508C261.208 161.908 224.841 100.674 204.508 82.5077C217.708 58.9077 256.008 36.341 273.508 28.0077Z" fill="#CE1126"/>
<path d="M139.52 26.0002L205.02 81.0002L270.52 26.0002C217.32 4.00015 161.02 16.8335 139.52 26.0002Z" fill="white"/>
<path d="M201.018 340.005L137.018 382.005L201.018 397.005V340.005Z" fill="white"/>
<path d="M209.517 340.005L273.517 382.005L209.517 397.005V340.005Z" fill="white"/>
<path d="M204.508 83.5011C172.175 117.668 126.908 216.101 204.508 336.501C237.508 291.168 283.708 177.101 204.508 83.5011Z" fill="white"/>
<path d="M141.141 382.504C37.1413 345.704 15.1413 243.838 17.1413 197.504C127.541 193.904 188.141 289.004 204.641 337.004L141.141 382.504Z" fill="#006847"/>
<path d="M269.52 382.504C373.52 345.704 395.52 243.838 393.52 197.504C283.12 193.904 222.52 289.004 206.02 337.004L269.52 382.504Z" fill="#CE1126"/>
<g clip-path="url(#clip0_4503_9003)">
<mask id="mask0_4503_9003" style="mask-type:luminance" maskUnits="userSpaceOnUse" x="23" y="23" width="364" height="364">
<path d="M386.82 205.008C386.82 104.593 305.417 23.1903 205.002 23.1903C104.586 23.1903 23.1835 104.593 23.1835 205.008C23.1835 305.424 104.586 386.827 205.002 386.827C305.417 386.827 386.82 305.424 386.82 205.008Z" fill="white"/>
</mask>
<g mask="url(#mask0_4503_9003)">
<path d="M350.461 395.911C455.898 395.911 541.37 310.438 541.37 205.001C541.37 99.5651 455.898 14.0924 350.461 14.0924C245.025 14.0924 159.552 99.5651 159.552 205.001C159.552 310.438 245.025 395.911 350.461 395.911Z" stroke="black" stroke-width="18.1818"/>
<path d="M59.5506 395.911C-45.8856 395.911 -131.358 310.438 -131.358 205.001C-131.358 99.5651 -45.8856 14.0924 59.5506 14.0924C164.987 14.0924 250.46 99.5651 250.46 205.001C250.46 310.438 164.987 395.911 59.5506 395.911Z" stroke="black" stroke-width="18.1818"/>
<path d="M395.913 577.734C501.349 577.734 586.822 492.262 586.822 386.825C586.822 281.389 501.349 195.916 395.913 195.916C290.476 195.916 205.004 281.389 205.004 386.825C205.004 492.262 290.476 577.734 395.913 577.734Z" stroke="black" stroke-width="18.1818"/>
<path d="M14.0866 577.734C-91.3497 577.734 -176.822 492.262 -176.822 386.825C-176.822 281.389 -91.3497 195.916 14.0866 195.916C119.523 195.916 204.996 281.389 204.996 386.825C204.996 492.262 119.523 577.734 14.0866 577.734Z" stroke="black" stroke-width="18.1818"/>
</g>
<path d="M395.927 205.003C395.927 99.567 310.454 14.0941 205.018 14.0941C99.5814 14.0941 14.1085 99.567 14.1085 205.003C14.1085 310.439 99.5814 395.912 205.018 395.912C310.454 395.912 395.927 310.439 395.927 205.003Z" stroke="black" stroke-width="18.1818"/>
</g>
<defs>
<clipPath id="clip0_4503_9003">
<rect width="400" height="400" fill="white" transform="translate(5.01545 5.00488)"/>
</clipPath>
</defs>
</svg>
