<svg xmlns="http://www.w3.org/2000/svg" width="64" height="65" fill="none" viewBox="0 0 64 65"><rect width="64" height="64" y=".304" fill="#2D2D2D" rx="32"/><rect width="63" height="63" x=".5" y=".804" stroke="#070B14" stroke-opacity=".15" rx="31.5"/><path fill="#fff" fill-rule="evenodd" d="M17.747 16.026c.648-.741 1.543-1.056 2.453-1.056.832 0 1.674.215 2.378.83.679.594 1.078 1.432 1.315 2.38l.02.079.103.822c2.759 1.043 4.309 3.681 4.708 7.063v.004l2.081 16.836a8.3 8.3 0 0 0 2.39 0l2.086-16.878.006-.034c.32-1.809.872-3.432 1.815-4.71a6.46 6.46 0 0 1 3.084-2.298l.092-.737.002-.012c.129-.902.47-1.748 1.102-2.379.65-.65 1.501-.966 2.418-.966.91 0 1.805.315 2.453 1.056.628.718.88 1.67.88 2.678v.706a6.44 6.44 0 0 1 2.576 2.23c.825 1.236 1.224 2.757 1.224 4.464v23.133h-6.466v-27.85a10 10 0 0 0-1.882-.063l-2.262 17.345v.004c-.228 1.816-.866 3.323-1.865 4.478a7 7 0 0 1-2.878 1.98l-.249 1.494a3.1 3.1 0 0 1-.263 1.195 3.4 3.4 0 0 1-.725 1.026L34.19 49l-.194.096-.03.016c-.413.206-1.05.525-1.966.525s-1.553-.319-1.965-.525l-.031-.016L29.81 49l-.153-.154a3.4 3.4 0 0 1-.725-1.026 3.2 3.2 0 0 1-.263-1.195l-.25-1.495a6.55 6.55 0 0 1-2.805-2.012c-.942-1.162-1.513-2.663-1.737-4.445v-.004l-2.271-17.412c-.261-.02-.518-.02-.806-.02-.363 0-.806.055-1.267.14v27.86h-6.466V26.104c0-1.707.4-3.228 1.224-4.465a6.44 6.44 0 0 1 2.576-2.23v-.705c0-1.008.252-1.96.88-2.678m1.786 2.648a9 9 0 0 1 1.267-.104h.02q.199 0 .415.003c-.147-.469-.31-.675-.413-.766-.096-.084-.254-.17-.622-.17-.29 0-.395.086-.447.145-.07.08-.215.321-.22.892m4.922 3.808 2.068 15.853v.003c.177 1.416.605 2.414 1.163 3.101q.132.163.28.31l-1.89-15.286v-.004c-.217-1.84-.792-3.14-1.621-3.977m-7.588.182a4 4 0 0 0-.358.454c-.475.714-.776 1.693-.776 2.986V46.57h1.134zm14.352 23.045.114.684v.11c0 .145.023.206.035.234a.5.5 0 0 0 .05.082c.239.112.378.151.582.151s.343-.04.582-.15a.4.4 0 0 0 .05-.083.55.55 0 0 0 .035-.233v-.11l.114-.685q-.78.056-1.562 0m8.541-23.34-2.083 15.966v.003c-.173 1.383-.635 2.374-1.236 3.069q-.194.225-.416.418l1.894-15.323c.281-1.574.726-2.74 1.329-3.556q.233-.318.512-.578m3.167-3.727c.506-.01 1.024.006 1.54.06 0-.591-.149-.838-.22-.92-.052-.06-.157-.145-.447-.145-.283 0-.432.084-.532.184-.115.115-.266.356-.34.821m4.206 4.022V46.57h1.134V26.104c0-1.293-.3-2.272-.776-2.986a4 4 0 0 0-.358-.454" clip-rule="evenodd"/></svg>