<svg version="1.2" xmlns="http://www.w3.org/2000/svg" viewBox="0 0 300 300" width="300" height="300">
	<style>
		.s0 { fill: #0239ff } 
		.s1 { fill: #ffffff } 
	</style>
	<g id="Background">
		<path id="Path 0" class="s0" d="m130 31.47c-4.13 0.69-12.45 2.94-18.5 5-6.05 2.06-13.92 5.34-17.5 7.3-3.58 1.95-9.42 5.57-13 8.03-3.58 2.46-10.24 8.13-14.82 12.59-4.58 4.46-10.69 11.49-13.58 15.61-2.89 4.13-6.86 10.43-8.82 14-1.96 3.58-5.25 11.45-7.3 17.5-2.06 6.05-4.35 14.83-5.1 19.5-0.76 4.68-1.37 13.11-1.38 18.75 0 5.64 0.49 13.51 1.09 17.5 0.59 3.99 2.14 11.07 3.43 15.75 1.28 4.68 3.87 11.88 5.75 16 1.88 4.13 5.35 10.65 7.71 14.5 2.36 3.85 7.09 10.38 10.52 14.5 3.43 4.13 9.56 10.23 13.62 13.57 4.06 3.34 9.41 7.44 11.88 9.12 2.47 1.67 7.76 4.68 11.75 6.68 3.99 2 11.41 5.04 16.5 6.75 5.09 1.72 12.63 3.73 16.75 4.47 4.13 0.74 13.35 1.35 20.5 1.37 7.15 0.01 15.93-0.45 19.5-1.03 3.57-0.57 10.55-2.17 15.5-3.55 4.95-1.38 13.5-4.76 19-7.52 5.5-2.76 12.93-7.1 16.5-9.64 3.57-2.55 10.35-8.47 15.05-13.17 4.7-4.7 10.62-11.48 13.17-15.05 2.54-3.57 6.88-11 9.64-16.5 2.76-5.5 6.14-14.05 7.52-19 1.38-4.95 2.98-11.93 3.55-15.5 0.58-3.57 1.04-12.35 1.03-19.5-0.02-7.15-0.63-16.37-1.37-20.5-0.74-4.12-2.75-11.66-4.47-16.75-1.71-5.09-4.75-12.51-6.75-16.5-2-3.99-5-9.28-6.68-11.75-1.67-2.47-5.83-7.87-9.24-12-3.4-4.12-9.51-10.25-13.57-13.61-4.06-3.36-10.53-8.04-14.38-10.41-3.85-2.36-10.38-5.83-14.5-7.71-4.13-1.88-11.32-4.47-16-5.75-4.68-1.29-11.76-2.84-15.75-3.43-3.99-0.6-12.31-1.04-18.5-0.99-6.19 0.06-14.63 0.67-18.75 1.37z"/>
		<path id="Path 1" class="s1" d="m78.5 102.67c-0.46 0.36-0.76 2.16-0.67 4l0.17 3.33c23.8 0.49 24.36 0.6 26.15 3 1.86 2.5 1.86 2.51-11.65 43-7.43 22.28-13.5 40.84-13.5 41.25 0 0.41 6.41 0.75 14.25 0.74l14.25-0.01c24.42-73.22 31.51-94.82 31.51-95.23-0.01-0.41-13.43-0.75-29.84-0.75-16.41 0-30.21 0.3-30.67 0.67zm72.65 2.08c-0.57 1.51-6.01 17.49-12.09 35.5-6.08 18.01-11.06 32.97-11.06 33.25 0 0.28 6.53 0.5 14.5 0.5h14.5c17.82-53.86 23-70.06 23-70.75 0-0.94-3.45-1.25-13.9-1.25h-13.91zm41.85-2.5c0.01 0.14-3.32 10.15-7.4 22.25-4.07 12.1-7.67 22.79-8 23.75-0.55 1.61 0.52 1.75 13.65 1.78l14.25 0.04c4.15-11.29 7.69-21.54 10.55-30.07 2.86-8.53 5.37-16.06 5.57-16.75 0.29-0.96-2.99-1.25-14.12-1.25-7.98 0-14.5 0.11-14.5 0.25z"/>
	</g>
</svg>