<svg xmlns="http://www.w3.org/2000/svg" width="300" height="300"><path fill="#794B39" d="M30 30h240v240H30z"/><path fill="#5B98E0" d="M30 30h240v125c-22 0-22 0-31-1v3c-6.625.125-6.625.125-10-1v-2l-2.012-.332c-9.106-1.635-9.106-1.635-12.988-4.668-2-3-2-3-2-6h-2l-.687-2.125c-1.812-3.967-4.31-7.874-8.313-9.875v-10h-5v4l-9-1-.06 1.988c-.095 2.963-.205 5.925-.315 8.887-.03 1.033-.062 2.065-.094 3.129l-.117 2.988-.095 2.761C186 146 186 146 184 148a4259 4259 0 0 1-.062-13.375l-.026-3.852-.01-3.671-.016-3.396C184 121 184 121 185 119a159 159 0 0 0-3-5v-2h-2c-2.034-3.73-3-5.67-3-10l-1.937-.687L173 100l-1-5c-1.967-1.15-1.967-1.15-4-2l-1-3a312 312 0 0 0-5-2l-2-3h2v-2c3.508-1.604 6.144-2.22 10-2v-2l4-1v-2h2c-.95-3.354-1.897-6.692-3-10-7.192-1.555-15.266-2.367-22 1-1.209 2-1.209 2-2 4l-2 1c-.685 1.888-.685 1.888-1.125 4.063l-.508 2.222L147 80l-3.312-1c-8.018-1.959-16.073-1.083-24.188-.187l-2.105.211c-3.9.481-5.836 1.023-8.395 3.976a83 83 0 0 1-5 2 537 537 0 0 0-6.75 3l-3.484 1.563C90.902 90.707 90.902 90.707 90 93l-3.437 1.375c-3.602 1.26-3.602 1.26-5 3.813L81 100h-3l-1 3c-3.062 1.188-3.062 1.188-6 2 .813-1.937.813-1.937 2-4l3-1 .434-1.906C77 96 77 96 78.785 94.656l2.278-1.156 2.44-1.273a321 321 0 0 1 4.837-2.329c1.915-.907 3.792-1.897 5.66-2.898l1-3 2-1-1-1.812C95 79 95 79 95 76h-2c-1.437-1.828-1.437-1.828-3-4.25l-1.562-2.39C87 67 87 67 85.977 64.8c-.926-2.073-.926-2.073-3.602-3.362L80 60v-3h-2l-1-4h-6l-1 3c-2.062.688-2.062.688-4 1v4l-1.875.813C61.7 62.956 61.7 62.956 60 66l-3 1a499 499 0 0 0-3 4h-2l-.812 1.938C50 75 50 75 47 76l-.875 1.75C43.63 82.74 40.057 85.087 35 87l-2 3h-3z"/><path fill="#B6A996" d="M215 153c2.438.375 2.438.375 5 1l1 2c1.883.903 1.883.903 4.063 1.625.733.26 1.466.52 2.222.79.566.192 1.132.386 1.715.585v2l2.25.25c3.325.907 4.415 2.269 6.75 4.75l2.313 1.25c3.929 2.559 6.911 5.982 9.687 9.75v2h4v3l1.875.75c2.52 1.483 3.137 2.534 4.125 5.25v3h3l2 9h2v2h3v68H105l-3-6-2-3a86 86 0 0 1-1.5-4.375c-.792-2.497-1.584-4.807-2.687-7.187-1.182-3.544-.94-6.713-.813-10.438l2.379.07c5.969.103 10.995-.024 16.621-2.07v-2l2.047-.156c5.41-.552 5.41-.552 9.508-3.758.97-2.006 1.782-3.96 2.445-6.086 2.468 1.152 4.048 2.048 6 4 2.072.319 2.072.319 4.375.25l2.336.016c3.737-.434 5.748-1.655 8.226-4.453C151 223 151 223 153.5 223c2.925 1.17 4.327 2.757 6.5 5 4.276 1.425 8.55 1.144 13 1l3.5-.062c7.641-2.047 12.695-7.968 17.5-13.938h2l.313-1.812c.806-2.568 1.797-3.298 3.687-5.188a130 130 0 0 0 4-7l1.332-2.504c2.167-4.19 3.908-7.804 4.668-12.496h2c2.218-8.28 2.603-16.48 3-25h6l-6-3z"/><path fill="#744A38" d="M172.5 64.688c3.155 1.656 4.131 3.042 5.5 6.312.188 2.813.188 2.813 0 5-3.889 1.944-9.035 1.03-13.348.96l-2.394-.022-2.183-.036c-2.146.101-4.014.508-6.075 1.098l-1 7h2v4l3-1c2.188.938 2.188.938 4 2v2l1.813.773c5.865 3.29 9.87 11.075 12.187 17.227.574 2.82.89 5.163 1 8l.121 2.973c.37 18.29.37 18.29-4.121 25.027h-2l-.312 1.813c-.805 2.558-1.7 3.42-3.688 5.187l-2.187 2.188L163 157c.665-4.389 2.188-7.981 4-12h-2l-.516 1.793c-1.501 4.895-3.035 8.327-6.484 12.207l-1.437 2.438C153.91 165.786 150.64 170.68 146 173c-3.75-.312-3.75-.312-7-1l.813-1.937L141 167c.264-.632.529-1.263.8-1.914 2.456-6.4 2.51-12.287 2.2-19.086-3.281 0-6.017 1.714-9 3-3.866 1.316-7.793 1.126-11.828 1.098l-2.27-.005c-2.384-.005-4.768-.018-7.152-.03l-4.86-.014A4927 4927 0 0 1 97 150v1l2.352-.035c8.263-.07 16.415.344 24.648 1.035l-2 2h-3v5h-2v2l-1.375 1.25c-2.165 2.331-2.752 4.728-3.625 7.75h-2c-.274-5.394-.36-8.52 3-13-5.04 2.302-5.04 2.302-8.25 6.5L104 166l-1.562 2.063c-1.495 2.014-2.001 3.492-2.438 5.937-2 0-2 0-4.062-2l-1.31-1.355c-2.029-2.05-4.125-4.01-6.253-5.958l-2.29-2.113C84.037 160.7 84.037 160.7 81 161l-1 3h-9l-1 2c-.494-.36-.987-.722-1.496-1.094l-1.942-1.406-1.933-1.406c-1.44-1.187-1.44-1.187-2.629-1.094-.961-4.807-1.387-9.122-1-14l2-2.437c2.565-3.287 2.51-5.364 2.336-9.43-.45-2.856-1.759-4.736-3.336-7.133-.687-3.812-.687-3.812-1-7l-2.25-.687C55.391 118.71 53.972 117.14 52 114c-.25-2.812-.25-2.812 0-5h-2c-1.57-3.139-1.352-5.539-1-9 2.01-2.953 3.459-4.631 7.008-5.48 2.117-.145 2.117-.145 5.992.48 3.112 3.613 4 7.322 4 12l1.645-.84 2.168-1.097 2.144-1.09C74 103 74 103 77 102l1-2h3l.75-2.375C83 95 83 95 84.938 93.688 87 93 87 93 90 93l1-3c1.672-1.098 1.672-1.098 3.75-2.062l2.2-1.028c3.6-1.598 6.964-2.889 10.8-3.847L111 82l1-3c25.025-3.517 25.025-3.517 35 1l.313-3.875c.175-2.18.175-2.18.687-4.125l3-2 .875-2c3.597-6.395 14.59-4.498 20.625-3.312"/><path fill="#022441" d="M71 53h6l1 4h2l1 3 2.375 1.375C86.446 63.276 87.312 64.844 89 68l2.188 3.188C93 74 93 74 93 76h2c1.688 2.313 1.688 2.313 3 5l-1 3h-2l-.281 1.879C94 88 94 88 92.469 89.089l-1.969.849c-1.07.49-1.07.49-2.16.992L86 92a232 232 0 0 0-4.937 2.563l-2.278 1.19C76.683 96.958 76.683 96.958 76 100a142 142 0 0 1-5 5l-2 2h-3l-1 3 .105-1.863.082-2.45.106-2.425c-.36-2.783-1.3-3.394-3.293-5.262v-3c-1.628.255-3.252.53-4.875.813l-2.742.457c-2.727.56-2.727.56-4.383 3.73-.241 2.286-.241 2.286-.125 4.688l.055 2.449L50 109h2l.688 2.688c1.732 4.373 4.472 6.745 8 9.75C62.59 123.704 63.14 126.192 64 129l1.035 1.914C66.693 134.5 66.6 138.138 66 142a263 263 0 0 1-4 5c-.43 2.717-.256 5.272 0 8l.063 2.688c1.499 3.698 4.321 5.727 7.937 7.312 2.667-.583 2.667-.583 5-2 2.41-.328 2.41-.328 5 0 3.687 3.016 6.633 6.854 7.445 11.602-.007 2.46-.007 2.46-.445 6.398h-2l-.312 1.938c-.564 2.51-1.24 4.82-2.063 7.25L81 195l-.828 2.453c-3.22 10.036-3.988 20.404-2.672 30.86.7 5.554.585 11.098.5 16.687l-4 1c.588 3.024 1.227 6.018 2 9l-5-2v-4h-4l.563 2.438L68 254c-1 1-1 1-4.062 1.063L61 255v-2l-2.032.016q-4.578.029-9.156.047l-3.197.025-3.095.01-2.841.016c-2.66-.113-5.088-.52-7.679-1.114v-2h-3V90h3l.625-1.812C35 86 35 86 37.75 84.688c3.575-1.857 5.135-3.701 7.602-6.782 2.38-2.753 5.117-5.009 7.914-7.328C55.228 68.921 55.228 68.921 57 66l3-1 2.063-2.062L64 61h2v-4l1.938-.875c2.214-.953 2.214-.953 3.062-3.125"/><path fill="#5B97E2" d="M180.09 41.992c3.217 1.698 5.202 4.412 7.43 7.23 1.374 1.892 1.374 1.892 3.48 2.778v3c4.102 1.015 4.102 1.015 8 0 2.03-.016 4.061.036 6.09.121l3.791.147 2.009.085c3.419.141 6.839.261 10.258.381l2.05.073c5.622.195 11.24.34 16.864.38l2.264.04c4.006.007 7.069-.449 10.674-2.227l1.938 2.313C258.317 59.75 262.444 60.779 267 62v2h3v91c-22 0-22 0-31-1v3c-6.625.125-6.625.125-10-1v-2l-2.012-.332c-9.106-1.635-9.106-1.635-12.988-4.668-2-3-2-3-2-6h-2l-.687-2.125c-1.812-3.967-4.31-7.874-8.313-9.875v-10h-5v4l-9-1-.06 1.988c-.095 2.963-.205 5.925-.315 8.887-.03 1.033-.062 2.065-.094 3.129l-.117 2.988-.095 2.761C186 146 186 146 184 148a4259 4259 0 0 1-.062-13.375l-.026-3.852-.01-3.671-.016-3.396C184 121 184 121 185 119a159 159 0 0 0-3-5v-2h-2c-2.034-3.73-3-5.67-3-10l-1.875-.687c-2.782-1.719-3.22-3.223-4.125-6.313v-3h-2l-2-4h-3l-1-3c5.619-1.95 11.211-3.632 17-5v-6c3 0 3 0 4.688 1.25C186 77 186 77 186 81c3.83-.547 5.37-2.282 8-5h2v-5l-2.187-.687c-3.377-1.576-5.37-3.522-7.813-6.313v-2h-3c-4.39-3.602-6.938-7.783-9-13v-2h-2v-5c3.171-1.057 4.915-.965 8.09-.008"/><path fill="#B8AA97" d="M215 153c2.438.375 2.438.375 5 1l1 2c1.883.903 1.883.903 4.063 1.625.733.26 1.466.52 2.222.79L229 159v2l2.25.25c3.325.907 4.415 2.269 6.75 4.75l2.313 1.25c3.929 2.559 6.911 5.982 9.687 9.75v2h4v3l1.875.75c2.52 1.483 3.137 2.534 4.125 5.25v3h3l2 9h2v2h3v68c-17.1.12-17.1.12-24.38.146-4.972.018-9.943.04-14.914.08-4.007.033-8.014.05-12.02.059q-2.295.008-4.59.032c-2.14.022-4.28.025-6.421.024l-3.695.02C201 270 201 270 199.208 268.604L198 267l-2-2h3l2-4 2 2c5.168 1.071 5.168 1.071 10.25.313 1.893-1.356 1.893-1.356 3.875-3.438L219 258h2l.375-2.312C222 253 222 253 224 250c-.157-2.128-.157-2.128-1-4l-2-1v-4l-3-1v-1h7l.688-1.625c1.768-3.2 3.849-5.665 6.312-8.375h2v-4l2-1c.652-2.025.652-2.025 1-4h2v-5h9l-.875-4.25-.492-2.39c-.543-2.368-.543-2.368-1.696-4.391-1.565-3.287-1.057-6.373-.937-9.969h-2v-3l-3-1c-1.448-2.896-2-4.742-2-8h-2l-.75-2.937L233 176c-2.032-.969-2.032-.969-4-1v-2l-2.25-.875A82 82 0 0 1 220 169v-2h-4v-6h5l-6-3z"/><path fill="#5D98DF" d="M119 30h151v34h-3v-2l-3.687-.25c-4.108-.503-6.343-1.78-9.313-4.75l-1-2-2.133.986c-3.118 1.103-5.444 1.258-8.742 1.244-1.14 0-2.281-.002-3.457-.004L235 57.188l-3.764-.018c-8.597-.067-17.17-.338-25.75-.902-3.314-.204-6.096-.349-9.365.33C194 57 194 57 191 55v-3l-3-1a78 78 0 0 1-3.312-4c-2.32-2.719-3.34-3.872-6.75-5.125-3.375.144-5.873.7-8.938 2.125l-1 3-2.117.332-2.758.48-2.742.458c-2.727.56-2.727.56-4.383 3.73-3.04.293-3.04.293-6.625.188l-3.602-.083L143 52l-1-7-3.312-.25c-4.32-.879-4.282-1.382-6.688-4.75-1.952-1.111-3.959-2.04-5.992-2.992-2.668-1.34-4.834-2.97-7.008-5.008z"/><path fill="#0C4D82" d="M80 163c3.687 3.016 6.633 6.854 7.445 11.602-.007 2.46-.007 2.46-.445 6.398h-2l-.312 1.938c-.564 2.51-1.24 4.82-2.063 7.25L81 195l-.828 2.453c-3.22 10.036-3.988 20.404-2.672 30.86.7 5.554.585 11.098.5 16.687l-4 1c.588 3.024 1.227 6.018 2 9l-5-2v-4h-4l.563 2.438L68 254c-1 1-1 1-4.062 1.063L61 255v-2l-2.032.016q-4.578.029-9.156.047l-3.197.025-3.095.01-2.841.016c-2.66-.113-5.088-.52-7.679-1.114v-2h-3v-49h3v2h4c1.625 1.438 1.625 1.438 3 3l2 1v2l2.203.316c3.052.746 4.967 1.851 7.547 3.621l2.36 1.59C56 216 56 216 57 218c2.527.656 2.527.656 5 1v2l4 1v2h4v-8l-9-1v-5l10 4-.07-2.668-.055-3.52-.07-3.48c.19-3.25.801-5.419 2.195-8.332h3v-6l5-2-1-3 1-3-2 1-1 3h-2l-2 5h-2l-.75 2.438c-.99 2.822-2 5.604-3.125 8.375l-.93 2.332C66 206 66 206 63.867 206.762L62 207c2.964-15.293 2.964-15.293 8-21 .79-2.685.79-2.685 1-5h3l.688-2.75c1.51-3.742 3.174-4.836 6.312-7.25.87-2.13.87-2.13 1-4-4.811 1.526-4.811 1.526-8 5h-3v-8c3.1-.919 5.772-1.345 9-1"/><path fill="#BEBEBF" d="M180.09 41.992c3.217 1.698 5.202 4.412 7.43 7.23 1.374 1.892 1.374 1.892 3.48 2.778v3c4.102 1.015 4.102 1.015 8 0 10.136.047 19.062.973 28.188 5.625C230.163 62.08 232.726 62.61 236 63v2l30 1c1.872 3.744 2.24 4.84 2.125 8.75l-.055 2.422L268 79c-3.598 1.572-6.937 2.458-10.812 3.063l-3.16.496A372 372 0 0 1 243 84v2c-10.884 3.055-22.116 3.055-33 0v-2l-2.25-.875c-4.914-2.01-4.914-2.01-6.75-3.125l-1-3c-2-1.209-2-1.209-4-2v-4l-2.187-.687c-3.377-1.576-5.37-3.522-7.813-6.313v-2h-3c-4.39-3.602-6.938-7.783-9-13v-2h-2v-5c3.171-1.057 4.915-.965 8.09-.008"/><path fill="#7FB3C7" d="M83 167c2.578.356 3.77.763 5.607 2.65 1.799 3.035 1.807 5.173 1.87 8.69l.093 3.72.055 3.877q.077 3.795.164 7.59l.053 3.399c.144 2.799.525 5.349 1.158 8.074q-1.617 1.228-3.25 2.438l-1.828 1.37C85 210 85 210 82.879 210.497c-2.208.375-2.208.375-3.692 3.129-1.474 4.19-1.419 6.1-.187 10.375 2.565 5.058 5.146 8.664 10.125 11.438 3.98 2.67 4.663 5.547 5.66 10.011q.456 2.37.848 4.752c.818 4.899 2.092 8.746 4.554 13.077C101 265 101 265 101 268h2v2H30v-20h3v2l28 1v2l6-1v-5h4v4l5 2-1.562-2.75C73 249 73 249 73.125 246.688 74 245 74 245 77 244c.088-5.241.154-10.417-.5-15.625-1.896-15.553 1.077-33.523 8.5-47.375h2c-.34-5.38-.686-9.533-4-14"/><path fill="#C0CED2" d="M215 153c2.438.375 2.438.375 5 1l1 2c1.883.903 1.883.903 4.063 1.625.733.26 1.466.52 2.222.79L229 159v2l2.25.25c3.325.907 4.415 2.269 6.75 4.75l2.313 1.25c3.929 2.559 6.911 5.982 9.687 9.75v2h4v3l1.875.75c2.52 1.483 3.137 2.534 4.125 5.25v3h3l2 9h2v2h3v68h-22l1-2h4l2-15h2v-15c-2.542 5.627-4.347 11.253-5.93 17.215-1.42 4.89-3.2 7.46-7.07 10.785.506-2.169 1-4 2-6a95 95 0 0 0 .063-5.125L246 250l-12 1c2-4 2-4 5-6 4.648.295 7.904.764 12 3l.402-3.027.536-3.91.527-3.903C253 234 253 234 254 233a132.6 132.6 0 0 0-1.312-28.312l-.357-2.404c-.742-4.415-1.818-7.505-4.331-11.284l-1-3.75-1-3.25-3-1a206 206 0 0 1-2-5c-4.77-6.578-9.635-10.729-17-14v-3l-2.812-.375C218 160 218 160 215 158c-.187-2.625-.187-2.625 0-5"/><path fill="#011F35" d="M30 30h41l1 11a171 171 0 0 0 1 6h-2l-.66 1.75c-1.77 2.973-3.926 4.311-6.778 6.25C60 57.43 57.53 59.533 55 63h-2l-.781 1.766c-1.317 2.414-2.77 4.051-4.719 5.984l-1.844 1.86C44 74 44 74 42 74v2l-2.187 1.688c-2.443 2.008-3.766 3.506-5.5 6.062L32 87h-2z"/><path fill="#B3C4CD" d="M71 30h15l1 7c3.064 7.09 7.602 17.413 14.973 20.945 2.4 1.249 3.58 2.646 5.277 4.743 3.12 3.716 6.49 6.802 10.246 9.867L119 74v2h8c-3.954 2.636-7.534 2.752-12.187 3.34-3.086.724-3.738 1.41-5.813 3.66a83 83 0 0 1-5 2 537 537 0 0 0-6.75 3l-3.484 1.563C90.902 90.707 90.902 90.707 90 93l-3.437 1.375c-3.602 1.26-3.602 1.26-5 3.813L81 100h-3l-1 3c-3.062 1.188-3.062 1.188-6 2 .813-1.937.813-1.937 2-4l3-1 .434-1.906C77 96 77 96 78.785 94.656l2.278-1.156 2.44-1.273a321 321 0 0 1 4.837-2.329c1.915-.907 3.792-1.897 5.66-2.898l1-3 2-1-1-1.812C95 79 95 79 95 76h-2c-1.437-1.828-1.437-1.828-3-4.25l-1.562-2.39C87 67 87 67 85.977 64.8c-.926-2.073-.926-2.073-3.602-3.362L80 60v-3h-2l-1-4h-6l-1 3c-2.062.688-2.062.688-4 1v4l-1.875.813C61.7 62.956 61.7 62.956 60 66l-3 1a499 499 0 0 0-3 4h-2l-.812 1.938C50 75 50 75 47 76l-.875 1.75C43.63 82.74 40.057 85.087 35 87l-2 3h-3v-3h2l.813-1.766c1.202-2.262 2.525-4.04 4.187-5.984l1.563-1.86C40 76 40 76 42 76v-2c1.574-1.55 1.574-1.55 3.688-3.312 4.029-3.433 7.913-6.818 11.097-11.075 2.4-2.83 4.854-4.696 7.903-6.8C68.442 50.434 68.442 50.434 71 47h2l-1-2.312C70.64 39.67 70.873 35.194 71 30"/><path fill="#8DC7D5" d="M187 119q3.188-.04 6.375-.062l3.586-.036C200 119 200 119 202 120l.848 1.938c1.928 3.45 4.953 3.85 8.566 5.054 11.988 3.37 24.25 5.418 36.586 7.008q4.406.6 8.811 1.205 6.594.903 13.189 1.795v18q-5.22.04-10.437.063l-2.952.025c-5.959.02-11.702-.312-17.611-1.088v3c-6.625.125-6.625.125-10-1v-2l-2.012-.332c-9.106-1.635-9.106-1.635-12.988-4.668-2-3-2-3-2-6h-2l-.687-2.125c-1.812-3.967-4.31-7.874-8.313-9.875v-10h-5v4l-9-1-.06 1.988c-.095 2.963-.205 5.925-.315 8.887-.03 1.033-.062 2.065-.094 3.129l-.117 2.988-.095 2.761C186 146 186 146 184 148v-27h2z"/><path fill="#1E5927" d="M214 30h56v32l-6-1v-3l-2.75-.25c-3.723-.86-4.7-2.03-7.25-4.75-2.138-.787-2.138-.787-4-1l-1 3h-15l-1-3-3.375-1.25c-3.381-1.306-3.54-1.574-5.25-5.125L223 42c-2.396-2.646-2.396-2.646-5-5-4-4.649-4-4.649-4-7"/><path fill="#082B45" d="m214 149 15 5v2l10 1v-3l31 1v47h-3v-2h-2c-1.858-3.135-2.201-5.375-2-9h-3l-.805-1.715-1.07-2.222-1.055-2.215c-.938-2.011-.938-2.011-3.07-2.848v-3h-4l-.75-2.375c-1.445-3.034-2.306-3.295-5.25-4.625l-1-3a104 104 0 0 0-5-2c-2.312-1.5-2.312-1.5-4-3v-2l-2.437-.375L229 161l-1-2c-1.883-.903-1.883-.903-4.062-1.625-.734-.26-1.467-.52-2.223-.79L220 156v-2l-5-1z"/><path fill="#B16859" d="M143 144c2.606 2.606 2.328 3.805 2.375 7.438-.098 6.262-1.287 12.057-4.375 17.562l-3 1c-.6 1.902-.6 1.902-1 4l-2 3h-2l-.687 1.813c-1.67 2.78-3.441 3.751-6.313 5.187h-2v2l-4-1c2.536-2.717 4.709-4.354 8-6 3.966-3.223 6.1-7.33 8-12v-2l-1 2h-2l-.625 1.688c-1.882 3.164-4.487 5.123-7.375 7.312l-2.812 2.25c-4.057 2.227-7.623 2.547-12.188 2.75l2-1v-2h-7v-3l-3-1 2-7h2l1-5h2v10h2c.182-.71.364-1.42.55-2.152l.763-2.786.738-2.777L114 162l3-1v-2h2v-5l3-1c-9.36-.993-18.604-1.107-28-1 1.023-1.488 1.023-1.488 3-3a62 62 0 0 1 7.633-.187c.751.01 1.502.022 2.276.034 3.209.049 6.416.133 9.623.215 12.54.417 12.54.417 24.468-3.062z"/><path fill="#1F5927" d="M119 30h71c-1 6-1 6-2 7l-3.5.438L181 38l-1 2-8-1-.375 1.938L171 43l-2 1-1 3-2.117.332-2.758.48-2.742.458c-2.727.56-2.727.56-4.383 3.73-3.04.293-3.04.293-6.625.188l-3.602-.083L143 52l-1-7-3.312-.25c-4.32-.879-4.282-1.382-6.688-4.75-1.952-1.111-3.959-2.04-5.992-2.992-2.668-1.34-4.834-2.97-7.008-5.008z"/><path fill="#7E4834" d="M93 201c2.928 1.464 3.043 3.737 4.082 6.676 1.576 3.99 3.758 7.627 5.918 11.324l1.563 2.813c2.35 3.577 4.34 5.822 8.437 7.187q1.53 1.47 3 3l3 2-5 1v2c-5.73 2.99-10.556 3.613-17 3l-2-1c.94 6.215 1.963 11.432 5 17l1 3.625c.95 3.205 1.982 4.807 4 7.375v3h-2v-2h-2l-4-10-1.062-2.516c-.949-2.513-1.55-4.912-2.063-7.547l-.508-2.535C93 243 93 243 93 239l-1.781-.832C85.007 234.898 80.889 230.334 78 224c-1.235-4.323-1.174-6.45.188-10.75 2.254-3.596 5.06-4.181 9.062-5.187 1.911-.382 3.827-.746 5.75-1.063z"/><path fill="#BCBEC0" d="M180.09 41.992c3.217 1.698 5.202 4.412 7.43 7.23 1.374 1.892 1.374 1.892 3.48 2.778v3c4.102 1.015 4.102 1.015 8 0 10.136.047 19.062.973 28.188 5.625C230.163 62.08 232.726 62.61 236 63v1l-9 1v2l-3.375 1.375c-3.587 1.35-3.587 1.35-5.625 3.625l-3.375.438c-3.695.573-4.803 1.345-7.625 3.562l-3-1c1.375-1.5 1.375-1.5 3-3h2v-2c-4.352 1.623-8.696 3.252-13 5v-4l-2.187-.687c-3.377-1.576-5.37-3.522-7.813-6.313v-2h-3c-4.39-3.602-6.938-7.783-9-13v-2h-2v-5c3.171-1.057 4.915-.965 8.09-.008"/><path fill="#1C588C" d="m30 253 3.688.805c8.921 1.83 17.729 3.273 26.828 3.765l2.19.119q5.424.278 10.853.451l4.02.173 3.606.113C84 259 84 259 85.4 261.043L86 263h3l1-3h3c1.316 3.62 2 6.096 2 10H30z"/><path fill="#5D97DF" d="M270 109v28c-6.744 0-11.346-.04-17.625-1.375-5.508-1.126-10.975-2-16.562-2.625-7.086-.827-13.908-2.226-20.813-4v-1l1.68.14c2.523.199 5.046.373 7.57.548l2.645.22c4.994.35 4.994.35 9.695-1.103 1.786-2.286 1.86-3.494 1.722-6.368l-.074-2.378c-.126-2.12-.126-2.12-1.238-4.059h2l1-2 1 1c2.101.126 4.207.176 6.313.188l3.488.042c3.023-.217 4.665-.647 7.199-2.23v2l2.25-1.375C266.385 109 266.385 109 270 109"/><path fill="#BCBEBD" d="M101 30h18v2l1.625.75c2.938 1.546 5.614 3.41 8.375 5.25l2.125.813c3.101 1.964 4.61 4.844 5.875 8.187.48 2.923.357 4.995 0 8-4.065 2.71-7.235 2.406-12 2-3.5-.875-3.5-.875-6-2l-1-2a161 161 0 0 0-7-3v-3h-2v-2h-2c-1.257-2.906-2-4.796-2-8h-2z"/><path fill="#02365B" d="M79 182h2v6l-5 2v6h-3l-2 18c-4.366-.873-6.425-1.651-10-4v5l3.375-.062C68 215 68 215 70 216v8h-4v-2l-4-1v-2h-5l-1-3a123 123 0 0 0-5-2 749 749 0 0 1-6-4l-3-1v-2l-5-2v-2h-4v-2h-3v-15h3l.25 2.375c.456 2.702.456 2.702 2.438 3.688L38 193c3.426 2.18 6.67 4.512 9.875 7 3.835 2.917 7.76 4.973 12.125 7l2-4v4l4-1 .352-1.652c.766-2.776 1.844-5.284 3.023-7.91l1.273-2.88c1.254-2.373 2.402-3.766 4.352-5.558l1-2h2z"/><path fill="#0D4A67" d="M80 163c3.687 3.016 6.633 6.854 7.445 11.602-.007 2.46-.007 2.46-.445 6.398h-2l-.312 1.938c-.564 2.51-1.24 4.82-2.063 7.25L81 195l-.828 2.453C76.918 207.597 76.85 217.41 77 228l-1-2a280 280 0 0 0-4-1c-2-2-2-2-2.125-5.625L70 216l-9-1v-5l10 4-.07-2.668-.055-3.52-.07-3.48c.19-3.25.801-5.419 2.195-8.332h3v-6l5-2-1-3 1-3-2 1-1 3h-2l-2 5h-2l-.75 2.438c-.99 2.822-2 5.604-3.125 8.375l-.93 2.332C66 206 66 206 63.867 206.762L62 207c2.964-15.293 2.964-15.293 8-21 .79-2.685.79-2.685 1-5h3l.688-2.75c1.51-3.742 3.174-4.836 6.312-7.25.87-2.13.87-2.13 1-4-4.811 1.526-4.811 1.526-8 5h-3v-8c3.1-.919 5.772-1.345 9-1"/><path fill="#8E7F6D" d="M233.813 219.188 236 220l-2 9h-2l-.687 1.625c-1.784 3.228-3.731 5.734-6.313 8.375-3.312.875-3.312.875-6 1l2 1v4l3 1c.688 2.25.688 2.25 1 5-1.375 2.125-1.375 2.125-3 4l-1 3-5 2-1 3c-3.727 1.864-5.63 2.074-9.75 1.25C202 263 202 263 200 261c-.437-2.812-.437-2.812 0-6 3.204-3.98 7.508-7.499 12-10h3l-1-10c4-2 4-2 6-2 1.416-1.853 1.416-1.853 2.813-4.187 6.461-9.928 6.461-9.928 11-9.625"/><path fill="#F5ECE5" d="m216 161 8 1v2l2.188.813c5.84 2.465 9.218 5.533 13.261 10.347 1.571 1.917 1.571 1.917 3.551 3.84l.375 1.875c.482 2.285.482 2.285 2.5 3.938 8.52 8.77 8.303 23.789 8.188 35.25l-.014 2.623q-.02 3.157-.049 6.314h-2a895 895 0 0 1-1.5-4.812l-.844-2.708C249 219 249 219 249 216l-9 2v-2c2.709-1.354 5.01-1.065 8-1a513 513 0 0 0-.875-4.25l-.492-2.39c-.543-2.368-.543-2.368-1.696-4.391-1.565-3.287-1.057-6.373-.937-9.969h-2v-3l-3-1c-1.448-2.896-2-4.742-2-8h-2l-.75-2.937L233 176c-2.032-.969-2.032-.969-4-1v-2l-2.25-.875A82 82 0 0 1 220 169v-2h-4z"/><path fill="#621A04" d="m124 152-2 2h-3v5h-2v2l-1.375 1.25c-2.165 2.331-2.752 4.728-3.625 7.75h-2c-.274-5.394-.36-8.52 3-13-5.04 2.302-5.04 2.302-8.25 6.5L104 166l-1.562 2.063c-1.495 2.014-2.001 3.492-2.438 5.937-2 0-2 0-4.062-2l-1.32-1.352C89.608 165.48 89.608 165.48 84 161c-3.452-.225-3.452-.225-6 1 2.798-4.313 5.225-5.796 9.945-7.309 2.305-.714 2.305-.714 5.243-2.379 8.954-3.869 21.397-1.102 30.812-.312"/><path fill="#E76567" d="M135 153c-.351 8.222-.351 8.222-2.875 11.25L130 166l-1.437 2.5c-1.815 2.903-3.76 4.56-6.563 6.5h-2l-1 5-9 1 2-1v-2h-7v-3l-3-1 2-7h2l1-5h2v10h2c.182-.71.364-1.42.55-2.152l.763-2.786.738-2.777L114 162l3-1v-2h2v-2c5.549-2.818 9.741-4.533 16-4"/><path fill="#60B8D2" d="M260 215c2.296 3.445 2.54 5.938 3 10l6-2c.138 7.066-.252 13.974-1 21h-2l-1 9h-2l.188 2.25c-.22 3.225-.97 4.447-3.188 6.75h-2v3c3.094-.427 6.059-.93 9-2 1.676-2.47 1.676-2.47 2-5h1v12h-22l1-2h4l2-15h2l1-20h1z"/><path fill="#BED5DB" d="M187 119q3.188-.04 6.375-.062l3.586-.036C200 119 200 119 202 120c1.07 2.434 1.07 2.434 2.125 5.438l1.07 2.996C206 131 206 131 206 133h4l1 7 18 2v1h-14v5c18.333 1.512 36.613 2.484 55 3v4c-3.48.03-6.958.047-10.437.063l-2.952.025c-5.959.02-11.702-.312-17.611-1.088v3c-6.625.125-6.625.125-10-1v-2l-2.012-.332c-9.106-1.635-9.106-1.635-12.988-4.668-2-3-2-3-2-6h-2l-.687-2.125c-1.812-3.967-4.31-7.874-8.313-9.875v-10h-5v4l-9-1-.06 1.988c-.095 2.963-.205 5.925-.315 8.887-.03 1.033-.062 2.065-.094 3.129l-.117 2.988-.095 2.761C186 146 186 146 184 148v-27h2z"/><path fill="#DEE8E8" d="M73 30h9l.988 2.414c2.645 6.498 2.645 6.498 5.762 12.773C90.466 49.048 90.73 52.817 91 57h3l.55 1.715.763 2.222.738 2.215c.861 2.207.861 2.207 3.949 2.848v3h2v2h2c2.61 2.848 4.427 5.13 5 9l-6 1-1-4h-2c-1.508-1.46-1.508-1.46-3.125-3.375l-1.633-1.898C94 70 94 70 94 68l-1.875-.75C89.593 65.76 89.193 64.624 88 62l-1.625-1.5C85 59 85 59 85 55h-2v-3h-2l-1-5h-5l.07-2.047.055-2.703.07-2.672C74.99 36.856 74.268 35.375 73 33z"/><path fill="#1F5A2F" d="M235 117q2 1.002 4 2c.313 3.25.313 3.25 0 7-2.716 2.899-4.243 3.935-8.234 4.277C216.609 128.91 216.609 128.91 211 126c-1.734-3.469-1.59-7.215-1-11 6.925-7.372 17.706-1.79 25 2"/><path fill="#A7D2E4" d="M82 30h4c.1 1.02.199 2.042.3 3.094C87.918 42.126 93.57 50.57 100 57l1.973.945c2.4 1.249 3.58 2.646 5.277 4.743 3.12 3.716 6.49 6.802 10.246 9.867L119 74v2h8c-3.954 2.636-7.534 2.752-12.187 3.34-3.014.707-3.872 1.355-5.813 3.66-3.737 1.967-5.947 2.158-10 1l1-7h2l1 4 5-2-1-5-3-1v-2h-2v-2h-2v-3l-1.875-.25C96 65 96 65 94.75 63.188 94 61 94 61 94 57h-3l-.297-1.723c-.919-4.743-2.136-8.422-4.683-12.515C83.737 38.818 82 34.582 82 30"/><path fill="#A83B36" d="m113 157-1 1.875c-1.404 4.387-1.16 8.557-1 13.125h-2v-10l-2 1-.5 2-.5 2-2 1c-.658 3.03-.658 3.03-1 6l2 1v3h7v2l9 1-1 2.375c-1.119 2.468-1.119 2.468-1 4.625-6.483 2.631-12.023 3.393-19 3l-.262-2.125c-1.223-8.26-3.498-14.296-9.925-19.812C87.219 167.04 87.219 167.04 85 166v-2h-2v-2c4.14.562 6.592 2.827 9.75 5.438l2.984 2.433L98 172v2h2l.313-2.812c.735-3.411 1.25-3.945 3.687-6.188l.875-2.5c1.576-3.502 4.193-5.5 8.125-5.5"/><path fill="#61594E" d="M229 182c3.237 1.505 4.673 2.256 6.125 5.563L236 190l3 2c.293 3.04.293 3.04.188 6.625l-.083 3.602L239 205c-3.212 1.906-5.539 2.223-9.25 2.125l-2.703-.055L225 207c-6.01-17.173-6.01-17.173-3-25 2.752-1.376 4.062-.82 7 0"/><path fill="#5C97DE" d="M251 54c3 1 3 1 5.188 3.438 3.6 3.28 6.081 3.68 10.812 4.562v2h3v12h-2l-2-10-2.43.016q-5.442.029-10.882.046l-3.827.026-3.662.01-3.38.016C239 66 239 66 236 65v-2l-2.648.148c-3.619-.16-5.743-.947-8.977-2.523l-2.79-1.336A5596 5596 0 0 1 215 56a2320 2320 0 0 0 13.934.11q2.37.015 4.74.04c2.272.025 4.543.036 6.814.045l2.14.032c3.694 0 5.211-.12 8.372-2.227"/><path fill="#7E5754" d="m162.328 76.023 2.422.157 2.5.195 2.547.172c2.068.14 4.136.296 6.203.453l-4 2v2l-10 2v4c2.254 1.52 2.254 1.52 5 3 3.8 3.347 5.833 6.459 8 11l2 1c.852 2.285.852 2.285 1.625 5.063l.79 2.785L180 112h2l-1 2-2-1 .488 2.598c1.19 7.912 1.286 15.851-1.488 23.402l-1 3.25c-1 2.75-1 2.75-3 5.75h-2l.621-1.687c4.26-12.067 5.535-27.01 1.379-39.313-3.205-5.775-7.29-10.433-12-15v-2c-4.102-1.015-4.102-1.015-8 0l1-5h-2c.25-3.375.25-3.375 1-7 2.817-1.947 4.967-2.217 8.328-1.977"/><path fill="#632C17" d="M168 182h3c-.375 1.938-.375 1.938-1 4l-2 1a132 132 0 0 0-3 5l-2 3c-.39 1.99-.732 3.99-1 6l3 1v1l-2.117.402-2.758.536-2.742.527C155 204.9 155 204.9 153 206l-1 3 3-1c3.563-.187 3.563-.187 7 0l2 2-10 1v9l3-1c2 2 2 2 2 5l3-1 2 1v3l7 1 2-3h2l1-2 1 4c5.919-3.133 10.217-6.326 14-12h2v-2h2c-3.059 6.718-8.456 12.592-15 16-6.572 1.488-14.931 2.468-21-1l-1.937-2.187c-1.989-2.15-1.989-2.15-5.125-1.813-3.384 1.152-3.883 2.23-5.938 5-2.687.25-2.687.25-5 0l2-1v-2a142 142 0 0 1 5-5l1-1c-.348-3.537-.781-7.057-1.234-10.582.234-3.418.234-3.418 2.468-5.805C153 202 153 202 155.148 201.551c2.085-.404 2.085-.404 3.266-2.696l1.211-2.667 1.227-2.645L162 191c1.378-2.915 2.67-4.771 5-7z"/><path fill="#96312D" d="M81 220c1.46.087 2.918.195 4.375.313l2.46.175C90 221 90 221 92 224l2.75 1.125c4.57 2.637 6.608 6.406 9.25 10.875-2.247 2.247-4 3.025-7 4l-2-1c.94 6.215 1.963 11.432 5 17l1 3.625c.95 3.205 1.982 4.807 4 7.375v3h-2v-2h-2l-4-10-1.062-2.516c-.949-2.513-1.55-4.912-2.063-7.547l-.508-2.535C93 243 93 243 93 239l-1.773-.82c-2.21-1.171-3.95-2.438-5.852-4.055-.59-.492-1.18-.985-1.79-1.492-1.753-1.806-2.7-3.278-3.585-5.633.375-3.75.375-3.75 1-7"/><path fill="#6E4431" d="M172.5 64.688c3.155 1.656 4.131 3.042 5.5 6.312.188 2.813.188 2.813 0 5h-2l-1-5-3-1v-2h-4v2l-3.062 1.25a68 68 0 0 0-7.688 3.875C154 77 154 77 151 78c-2.209 1.875-2.209 1.875-4 4v2l-3.06-.988c-3.71-1.055-7.1-1.242-10.967-1.207l-3.897.02-4.013.05q-2.049.016-4.096.027-4.984.036-9.967.098l1-3c25.025-3.517 25.025-3.517 35 1l.313-3.875c.175-2.18.175-2.18.687-4.125l3-2 .875-2c3.597-6.395 14.59-4.498 20.625-3.312"/><path fill="#D6DEE6" d="M85 235c3.429.612 5.532 1.513 8 4 .993 2.833 1.485 5.735 2 8.688 1.026 5.73 2.31 10.502 5.195 15.596C101 265 101 265 101 268h2v2h-8l-2-10h-3l-1 4c-1.937-.312-1.937-.312-4-1l-1-3-2.62-.12C39.758 257.879 39.758 257.879 30 253v-3h3v2l2.203.148c7.356.547 14.542 1.527 21.797 2.852v2h34l-1-6c-.063-1.79-.087-3.583-.062-5.375l.027-2.648L90 241l-1.953-.867C86 239 86 239 85.25 236.875z"/><path fill="#CDD6D6" d="M83 167c2.578.356 3.77.763 5.607 2.65 1.799 3.035 1.807 5.173 1.87 8.69l.093 3.72.055 3.877q.077 3.795.164 7.59l.053 3.399c.144 2.799.525 5.349 1.158 8.074-4.668 3.62-8.24 5.707-14 7-.914-10.785 1.919-21.507 7-31h2c-.34-5.38-.686-9.533-4-14"/><path fill="#0B485D" d="m214 149 15 5v2l10 1v-3l31 1v3h-23l2 6h2v3l2 1c-6.625-.75-6.625-.75-10-3v-2h-4l-1 4c-2-1.375-2-1.375-4-3v-2l-2.437-.375L229 161l-1-2c-1.883-.903-1.883-.903-4.062-1.625-.734-.26-1.467-.52-2.223-.79L220 156v-2l-5-1z"/><path fill="#E6EEEE" d="M214 142c7.515.41 14.92.944 22.375 2 11.15 1.485 22.392 1.67 33.625 2v5c-39.37.563-39.37.563-55-3z"/><path fill="#247C9E" d="M268 206h2q.113 10.943.165 21.887.022 3.721.061 7.444c.037 3.57.054 7.138.067 10.708.015 1.107.03 2.213.047 3.353.001 5.564-.01 9.884-3.34 14.608-2.262.805-2.262.805-4.687.875l-2.45.117L258 265v-3l1.938-1.875c2.342-2.413 2.697-3.841 3.062-7.125h2l1-9h2v-20l-5 1a647 647 0 0 1-1.5-4.75l-.844-2.672C260 215 260 215 260 211l3.438-.812L267 209z"/><path fill="#0B5A78" d="M80 163c2.698 2.219 4.498 4.855 6 8-.437 3.438-.437 3.438-2 6l-3 1v4l-2 1-1 3h-2l-2 5h-2l-.75 2.438c-.99 2.822-2 5.604-3.125 8.375l-.93 2.332C66 206 66 206 63.867 206.762L62 207c2.964-15.293 2.964-15.293 8-21 .79-2.685.79-2.685 1-5h3l.688-2.75c1.51-3.742 3.174-4.836 6.312-7.25.87-2.13.87-2.13 1-4-4.811 1.526-4.811 1.526-8 5h-3v-8c3.096-.917 5.776-1.323 9-1"/><path fill="#78422F" d="M58 99c1.875.188 1.875.188 4 1 2.323 4.035 2.537 8.447 3 13l1-2h3l1-3c1 3 1 3-.437 6-2.223 4.77-2.196 9.836-1.563 15l2 3 1-7 4-1-1 4 4-1-1 9 3 1-1 3h-3v-2l-4 1-1-3c-3-1.709-3-1.709-6-3v-12h-3l-1-6-2 1c-2.247-3.37-2.246-4.561-2.187-8.5l.019-2.906C57 102 57 102 58 99m11 40 3 1v3h-2z"/><path fill="#08507F" d="m70 226 7 2c.904 3.837 1.106 7.375 1.063 11.313l-.028 3.238L78 245l-4 1c.588 3.024 1.227 6.018 2 9l-5-2v-4h-4l.563 2.438L68 254c-1 1-1 1-4.062 1.063L61 255v-1h5l-.254-2.266-.308-2.984-.317-2.953c-.11-2.56.102-4.378.879-6.797h-3l-1-7 7 2-.062-3.437C69 227 69 227 70 226"/><path fill="#77352A" d="M62 95c3.112 3.613 4 7.322 4 12l5-2c-.506 2.169-1 4-2 6h-3l-1 4-.367-2.012c-1.14-6.713-1.14-6.713-3.633-12.988l-3-1v14l4 2c.813 2 .813 2 1 4l-1 2h3l1 11c-3.123-2.518-3.945-3.726-4.75-7.75L61 121l-2.25-.687C55.391 118.71 53.972 117.14 52 114c-.25-2.812-.25-2.812 0-5h-2c-1.57-3.139-1.352-5.539-1-9 3.69-5.42 6.855-5.991 13-5"/><path fill="#624F43" d="M245 253c-.027 5.77-.847 10.93-4.504 15.535-5.875 3.448-13.938 1.96-20.496 1.465 1.184-3.414 2.142-5.528 5.063-7.687 2.951-1.986 2.951-1.986 3.937-4.313l2.438-.375L234 257c1.15-1.967 1.15-1.967 2-4 3.478-1.16 5.459-.708 9 0"/><path fill="#0C3A50" d="M71 53h6l1 4h2l1 3 2.375 1.375C86.446 63.276 87.312 64.844 89 68l2.188 3.188C93 74 93 74 93 76h2c1.688 2.313 1.688 2.313 3 5l-1 3h-2l-.312 1.938L94 88l-3 1 1-5h-2l-1-4h-2c-1.46-2.647-2-3.894-2-7h-2v-2h-2l-.375-1.937L80 67l-2-1c-1.991-2.986-2.941-5.597-4-9-2.763.523-5.326 1.109-8 2v-2l1.938-.875c2.214-.953 2.214-.953 3.062-3.125"/><path fill="#9E8684" d="M77.25 50.625c2.124 1.669 2.4 2.744 2.75 5.375l1.938.313L84 57l1 3 2.438 1.438c2.87 1.75 3.18 2.624 4.562 5.562 2.136 2.245 4.267 4.397 6.66 6.367 1.795 2.188 1.56 3.419 1.34 6.195-.25 2.327-.25 2.327 0 4.438l3 2-3.75 1.375c-5.519 1.7-5.519 1.7-9.25 5.625l-3.437 1.375c-3.602 1.26-3.602 1.26-5 3.813L81 100h-3l-1 3c-3.062 1.188-3.062 1.188-6 2 .813-1.937.813-1.937 2-4l3-1 .434-1.906C77 96 77 96 78.785 94.656l2.278-1.156 2.44-1.273a321 321 0 0 1 4.837-2.329c1.915-.907 3.792-1.897 5.66-2.898l1-3 2-1-1-1.812C95 79 95 79 95 76h-2c-1.437-1.828-1.437-1.828-3-4.25l-1.562-2.39C87 67 87 67 85.977 64.8c-.926-2.073-.926-2.073-3.602-3.362-.784-.475-1.567-.95-2.375-1.438v-3h-2l-1-4h-6l-1 3c-2.062.688-2.062.688-4 1 2.937-4.134 5.777-7.895 11.25-6.375"/><path fill="#A3B7CF" d="M239 66h27c1.872 3.744 2.24 4.84 2.125 8.75l-.055 2.422L268 79c-3.598 1.572-6.937 2.458-10.812 3.063l-3.16.496A372 372 0 0 1 243 84v2c-10.884 3.055-22.116 3.055-33 0v-2l-2.25-.875A82 82 0 0 1 201 80v-3l4 1v2l5 1v2c3.609.81 7.045 1.178 10.738 1.316l3.233.127 3.341.12 3.4.13q4.144.159 8.288.307v-2c3.42-2.28 4.682-2.22 8.688-2.125l3.011.055L253 81v-2c3.473-1.158 6.36-1.069 10-1 1.51-3.386 1.51-3.386 2-7h-2v-4h-24z"/><path fill="#7C615B" d="M253 201c2 1 2 1 2.852 3.45 1.987 8.319 2.571 16.015 2.148 24.55l-.129 2.637c-.342 4.29-1.313 7.47-3.08 11.438-.804 1.957-1.422 3.899-2.002 5.933l-.586 2.05a323 323 0 0 0-1.133 4.157c-1.42 4.89-3.2 7.46-7.07 10.785.506-2.169 1-4 2-6a95 95 0 0 0 .063-5.125L246 250l-12 1c2-4 2-4 5-6 4.648.295 7.904.764 12 3l.402-3.027.536-3.91.527-3.903C253 234 253 234 254 233c.1-2.926.139-5.824.125-8.75l.012-2.46c-.007-4.089-.244-7.787-1.137-11.79a88 88 0 0 1-.062-4.812l.027-2.395z"/><path fill="#E3DAD1" d="m95 239 5 1v13h2v2c16.966-2.53 16.966-2.53 33.633-6.484 2.833-.618 5.476-.6 8.367-.516l-1 3q-3.413.684-6.828 1.36a516 516 0 0 0-6.719 1.406c-8.16 1.726-16.122 2.827-24.453 3.234l.938 2.813L108 266h2v4h-5l-1.375-2.812c-1.567-3.227-1.567-3.227-3.625-6.188a86 86 0 0 1-1.5-4.375c-.792-2.497-1.584-4.807-2.687-7.187-1.182-3.544-.94-6.713-.813-10.438"/><path fill="#022C46" d="M247 158h23v17l-3-3-3-1-1-3-3-1-1 3-1-2c-2.169.506-4 1-6 2l-3-2 2-1v-3h-2z"/><path fill="#5B96B9" d="M59 258a296 296 0 0 1 18.563.25l3.566.14C84 259 84 259 85.402 261.048L86 263h3l1-3h3c1.316 3.62 2 6.096 2 10H75c-4-7-4-7-4-10l-2.117.07-2.758.055-2.742.07C61 260 61 260 59 258"/><path fill="#336B9A" d="M77 205h1v7l2 1-1.062 1.563c-1.338 3.478-.759 5.84.062 9.437a157 157 0 0 0 3 5l-1 2-1-1-1 4h2v22c-26.298.383-26.298.383-36-2v-1h16v2l6-1v-5h4v4l5 2-1.562-2.75C73 249 73 249 73.125 246.688 74 245 74 245 77 244c.088-5.241.154-10.417-.5-15.625-.98-7.88-.42-15.51.5-23.375"/><path fill="#5A95C5" d="M86 30h15l2 7h2v5H95c-1.534 3.069-.55 5.7 0 9-4.43-3.61-7.138-8.666-9-14z"/><path fill="#885540" d="M165 145h2c-.587 3.942-1.81 6.755-3.812 10.188-2.887 5.12-5.156 10.303-7.188 15.812 4.091-2.6 4.091-2.6 7.75-5.75L165 164h2l-3 6h-2v2l-2.937 1.125c-3.075 1.305-5.696 2.909-8.438 4.813C145.653 181.35 140.175 185 134 185v-2l10-5v-4c1.395-1.23 2.803-2.449 4.277-3.582 6.444-5.304 10.265-12.36 13.91-19.73l1.606-3.239z"/><path fill="#ED666A" d="M135 153c-.351 8.222-.351 8.222-2.875 11.25L130 166l-1.562 2.688C127 171 127 171 124 172c.61-3.558 1.578-6.683 3-10h-4l-.875 1.875C121 166 121 166 119 168c-2.625.125-2.625.125-5 0-.625-1.812-.625-1.812-1-4l2-3h2v-2h2v-2c5.549-2.818 9.741-4.533 16-4"/><path fill="#A3CEDA" d="m210 134 1.184 1.926c2.262 2.583 3.522 2.774 6.879 3.262l2.66.417L224 140l2.186.268c6.554.737 13.035.883 19.626.857l3.061.012 2.959-.004 2.648-.004c2.594-.133 4.984-.584 7.52-1.129a71 71 0 0 1 4.313-.062L270 140v6c-13.826.215-27.33.282-41-2v-2l-3.395-.113-4.417-.2-2.237-.068c-5.406-.269-5.406-.269-7.963-1.912C210 138 210 138 210 134"/><path fill="#043454" d="M82 167c-.152 2.667-.494 4.45-2.332 6.445C75.494 177 75.494 177 73 177c-3.919 2.645-5.401 4.63-7 9a210 210 0 0 1-4 5l-1.625 2.813L59 196h-2c-.081-1.437-.14-2.874-.187-4.312l-.106-2.426c.361-2.79 1.25-3.424 3.293-5.262l1-3h2l.375-2.187C64.012 175.944 64.6 173.59 66 171c2.625-1.312 2.625-1.312 5-2v3h3l.875-1.937C76.771 166.586 77.978 167 82 167"/><path fill="#662E1D" d="M168 68h4v2l4 1v6l-3.797-.035-4.953-.028-2.5-.025-2.422-.01-2.222-.016c-2.152.116-4.037.523-6.106 1.114l-1 7h2c-.613 2.962-1.254 4.38-3 7-2.437-.75-2.437-.75-5-2-.812-2.125-.812-2.125-1-4h2l-2-5 1.938-.312L150 80l1-3c1.89-1.062 1.89-1.062 4.25-2 2.724-1.124 5.097-2.211 7.625-3.75C165 70 165 70 168 70z"/><path fill="#625B50" d="M217.563 245.938 220 246c.289 4.905.262 8.155-3 12h-4v3c-3.52 1.174-6.306 1.201-10 1l-2-2v-4h3l1-6 1.934-.621 2.504-.816 2.496-.81c4.932-1.799 4.932-1.799 5.629-1.815"/><path fill="#623B31" d="M179 113c4.828 1.773 4.828 1.773 6.375 3.813.625 2.187.625 2.187.168 4.21-.778 4.267-.647 8.463-.606 12.79l.014 2.677q.02 3.255.049 6.51h-2l-1 5-2-3-3-1q.21-2.72.438-5.437c.08-1.01.162-2.02.246-3.06C178 133 178 133 179 132a63 63 0 0 0 .098-4.254l-.01-2.588-.025-2.72-.014-2.733q-.018-3.353-.049-6.705"/><path fill="#7E7A70" d="M112.313 255.25c3.687.75 3.687.75 5.624 3.168a151 151 0 0 1 3.583 6.078c1.236 2.608 1.236 2.608 3.48 3.504v2h-15v-4h-2c-2.217-2.303-2.968-3.525-3.187-6.75L105 257c2.39-.765 4.865-1.196 7.313-1.75"/><path fill="#B3BAC5" d="M270 109v15c-2.76.92-4.634 1.193-7.5 1.25l-2.344.078C258 125 258 125 256.2 123.652c-1.2-1.652-1.2-1.652-.888-4.34L256 117h2v-3c2.25-1.562 2.25-1.562 5-3l2.125-1.187C267 109 267 109 270 109"/><path fill="#EFC9B5" d="M257 233h1q.04 3.875.063 7.75l.025 2.21c.016 3.527-.135 6.65-1.088 10.04h-2l-.184 2.773-.254 3.602c-.08 1.183-.162 2.367-.246 3.586C254 266 254 266 253 268c-3.453 1.727-6.158 2.22-10 2 1.628-5.635 1.628-5.635 3.484-7.457 1.745-1.776 2.234-3.05 2.953-5.418l.743-2.387L251 252l2.063-6.687.972-3.2A386 386 0 0 1 257 233"/><path fill="#4884A1" d="M215 34a105 105 0 0 1 5 4v2l1.875.563c3.181 2.151 3.32 4.812 4.125 8.437l2.313.375C231 50 231 50 234 52v3q3.719-.171 7.438-.375c.707-.03 1.414-.062 2.142-.094 1.812-.104 3.618-.31 5.42-.531l1-2c3.375.547 5.082 1.055 8 3v2l6 1v3l6 1v2h-3v-2l-3.687-.25c-4.108-.503-6.343-1.78-9.313-4.75l-1-2-2.133.984c-7.002 2.48-14.997 1.54-21.867-.984l-2.875-.875C224 53 224 53 223.25 51.25c-.199-1.79-.383-3.582-.562-5.375L222 43c-1.883-1.108-1.883-1.108-4-2-3-4.286-3-4.286-3-7"/><path fill="#912A22" d="M136 164c1 3 1 3 .11 5.227-.45.791-.898 1.583-1.36 2.398l-1.328 2.414C132 176 132 176 129 177c-1.209 2-1.209 2-2 4h-3l-1 3-2 1 6 1c-3.6 4.744-8.357 5.991-14 7-4.348.225-8.651.184-13 0v-2c1.429-.2 1.429-.2 2.887-.402l3.8-.536 3.762-.527c2.876-.433 5.707-.931 8.551-1.535v-2l-3-1 1.938-.875c2.214-.953 2.214-.953 3.062-3.125l-4-1q1.932-1.257 3.875-2.5l2.18-1.406C125 175 125 175 127 175l.75-1.75c1.433-2.58 3.034-4.311 5.25-6.25h2z"/><path fill="#3792AD" d="M252 179h2v3l1.875.75c2.52 1.483 3.137 2.534 4.125 5.25v3h3l2 9h2v2l2 1c-6.5 4-6.5 4-11 4a480 480 0 0 1-1.5-3.812l-.844-2.145C255 199 255 199 255 196l-3-1 1-2h5c-1.415-3.436-2.774-6.624-4.687-9.812C252 181 252 181 252 179"/><path fill="#D7776E" d="M143 147h1c.3 7.847.484 16.275-4 23h-2l-.375 1.813C137 174 137 174 135 177h-2l-.687 1.813c-1.67 2.78-3.441 3.751-6.313 5.187h-2v2l-4-1c2.536-2.717 4.709-4.354 8-6 3.57-2.901 5.262-6.201 7.168-10.293C136 167 136 167 137 166c.206-1.328.366-2.663.5-4 .389-3.889.389-3.889 1.5-5 .23-1.347.412-2.704.563-4.062L140 149h3z"/><path fill="#B0A39D" d="m225 61 2.125.438c2.95.577 5.908 1.079 8.875 1.562v1l-9 1v2l-3.375 1.375c-3.587 1.35-3.587 1.35-5.625 3.625l-3.375.438c-3.695.573-4.803 1.345-7.625 3.562l-3-1c1.375-1.5 1.375-1.5 3-3h2v-2c-4.352 1.623-8.696 3.252-13 5v-3l9-3v-2q2.435-1.005 4.875-2l2.742-1.125C215 63 215 63 217 63v4l11-3v-2z"/><path fill="#9279CD" d="M255 253h2v4l4 1h-2l-1 7c3.094-.427 6.059-.93 9-2 1.676-2.47 1.676-2.47 2-5h1v12h-22l1-2h4z"/><path fill="#6A4B3C" d="M233.813 219.188 236 220l-2 9h-2l-.687 1.625c-1.778 3.217-3.743 5.745-6.313 8.375-2.812.375-2.812.375-5 0-.854-5.548 1.232-8.544 4.352-12.871 5.575-7.2 5.575-7.2 9.46-6.941"/><path fill="#83736E" d="m109 239 .402 2.047.535 2.703.528 2.672c.459 2.21.968 4.393 1.535 6.578-3.644 2.43-5.712 2.162-10 2v-2h-2v-13c6.75-1 6.75-1 9-1"/><path fill="#AF5547" d="M83 162c6.132.94 10.8 5.742 15 10 3.092 5.026 4.625 10.061 4 16q2.156.039 4.313.063l2.425.035c2.43-.001 2.43-.001 5.262-1.098l-4-2c3.44-2.294 4.723-3 9-3v6c-6.483 2.631-12.023 3.393-19 3l-.262-2.125c-1.223-8.26-3.498-14.296-9.925-19.812C87.219 167.04 87.219 167.04 85 166v-2h-2z"/><path fill="#3C5665" d="M66 30h5l.184 2.195c.43 4.976.886 9.892 1.816 14.805h-2l-.66 1.75c-1.77 2.973-3.926 4.311-6.778 6.25C60 57.43 57.53 59.533 55 63h-2l-.781 1.766c-1.317 2.414-2.77 4.051-4.719 5.984l-1.844 1.86C44 74 44 74 42 74v-3c1.934-1.754 1.934-1.754 4.438-3.562 3.316-2.26 3.316-2.26 5.562-5.438h2l.625-2.187C56.488 56 58.549 54.465 62 52h3v-2h3c1.066-3.19.971-4.72-.437-7.75C65.796 37.977 65.754 34.592 66 30"/><path fill="#205D3C" d="M255 105c.204 3.68-.254 5.784-2 9-1.603.081-3.208.14-4.812.188l-2.708.105C243 114 243 114 241.203 112.676c-1.883-2.623-1.659-4.55-1.203-7.676 4.407-5.06 9.518-1.912 15 0"/><path fill="#6B3B26" d="M193 213h2c-3.059 6.718-8.456 12.592-15 16-6.572 1.488-14.931 2.468-21-1l-4-4c-2.138-.787-2.138-.787-4-1l2-6 1 3 3-1c2 2 2 2 2 5l3-1 2 1v3l7 1 2-3h2l1-2 1 4c5.919-3.133 10.217-6.326 14-12h2z"/><path fill="#7F4E37" d="M95 210c1.369 4.517.47 7.588-1 12l-1.672-.96c-2.613-1.167-4.734-1.44-7.578-1.665l-2.703-.227L80 219l-1 5c-1.704-2.606-2.006-3.9-1.812-7.062.818-2.96 1.439-4.08 3.812-5.938l1 2 1.574-.91c6.927-3.777 6.927-3.777 11.426-2.09"/><path fill="#A397A0" d="M187 119q3.188-.04 6.375-.062l3.586-.036C200 119 200 119 202 120c1.07 2.434 1.07 2.434 2.125 5.438l1.07 2.996C206 131 206 131 206 133h4l1 10-2-4a75 75 0 0 0-3-3.687l-1.562-1.825c-1.388-1.602-1.388-1.602-3.438-2.488v-10h-5v4l-9-1-.06 1.988c-.095 2.963-.205 5.925-.315 8.887-.03 1.033-.062 2.065-.094 3.129l-.117 2.988-.095 2.761C186 146 186 146 184 148v-27h2z"/><path fill="#86C2DD" d="M95 53c5.665 3.391 10.047 6.86 14.227 11.973 2.494 2.85 5.34 5.191 8.27 7.582L119 74v2h-10v-4h-4l-.812-2.375c-1.036-2.906-1.036-2.906-4.188-4.625-1.133-2.059-1.133-2.059-2.125-4.437l-1.008-2.372A100 100 0 0 1 95 53"/><path fill="#752F21" d="M79 217c6.505.765 11.205 2.277 16.625 5.938l2.29 1.527c1.907 1.404 3.546 2.736 5.085 4.535v2h2l2 5 7-2v-2l5 1c-3 2-3 2-5 2v2c-5.364 2.682-9.01 3.315-15 3l-1-2 5-2c-3.33-5.633-5.697-9.508-12-12l-1-2c-2.118-.687-2.118-.687-4.562-1.125l-2.504-.508L81 220v7c-2-2-2-2-2.195-3.945z"/><path fill="#023657" d="M79 182h2v6l-5 2v6h-3l-2 18-5-1c-1.027-8.594 1.46-14.741 6-22a73 73 0 0 1 3-3l1-2h2z"/><path fill="#A3B8D3" d="M119 32c3.582 1.653 6.723 3.816 10 6l2.125.813c3.101 1.964 4.61 4.844 5.875 8.187.48 2.923.357 4.995 0 8-4.07 2.713-7.231 2.398-12 2-3.5-.812-3.5-.812-6-2l-1-3q3.5-.062 7 0l1 1q3.51-.43 7-1l1-6h-2c-2.125-1.812-2.125-1.812-4-4v-3l-2.25-.75c-2.964-1.347-4.625-2.81-6.75-5.25z"/><path fill="#864344" d="m162.328 76.023 2.422.157 2.5.195 2.547.172c2.068.14 4.136.296 6.203.453l-4 2v2a895 895 0 0 1-4.812 1.5l-2.708.844C162 84 162 84 159 84v3h-4v-2h-2c.25-3.375.25-3.375 1-7 2.817-1.947 4.967-2.217 8.328-1.977"/><path fill="#E6E9E9" d="M73 30h8q.722 2.812 1.438 5.625l.808 3.164C83.965 41.85 84.52 44.895 85 48l-3-1-2 2v-2h-5l.07-2.047.055-2.703.07-2.672C74.99 36.856 74.268 35.375 73 33z"/><path fill="#5A2110" d="M124 102c3.418.253 4.277 1.284 6.75 3.813C133 109 133 109 133 113c-8.035 2.276-8.035 2.276-12.062 1.125L119 113v-8h5z"/><path fill="#19758F" d="M80 163c2.66 2.237 4.463 4.892 6 8-.375 2.938-.375 2.938-2 5-2.125.813-2.125.813-4 1v4l-4 1c-.312-3.25-.312-3.25 0-7 2.438-2.187 2.438-2.187 5-4 .87-2.13.87-2.13 1-4-4.811 1.526-4.811 1.526-8 5h-3v-8c3.096-.917 5.775-1.328 9-1"/><path fill="#789ED2" d="M229 61c4.232-.154 7.853-.133 11.938 1 4.631 1.146 9.13 1.192 13.875 1.188l2.247.001c3.442-.034 6.652-.11 9.94-1.189v2h3v12h-2l-2-10-2.43.016q-5.442.029-10.882.046l-3.827.026-3.662.01-3.38.016C239 66 239 66 236 65v-2h-6z"/><path fill="#886A5E" d="m147 80 1-2-1 6-3.06-.988c-3.71-1.055-7.1-1.242-10.967-1.207l-3.897.02-4.013.05q-2.049.016-4.096.027-4.984.036-9.967.098l1-3c25.025-3.517 25.025-3.517 35 1"/><path fill="#9F907E" d="M198.563 265.875 201 268v2h-28c2.75-4.126 5.378-4.273 10.047-5.422 5.575-1.091 10.518-1.82 15.516 1.297"/><path fill="#41A1C0" d="M260 215c2.296 3.445 2.54 5.938 3 10l6-2c.138 7.066-.252 13.974-1 21h-2l-1 9h-2v-9l4-1v-4l-4 1v-14h-2z"/><path fill="#609AAC" d="m218 150 2.195.481c2.605.482 5.044.71 7.687.816l2.85.121 3.038.117 3.14.13q4.95.203 9.903.398 3.362.136 6.724.275 8.232.337 16.463.662v2c-3.48.03-6.958.047-10.437.063l-2.952.025c-5.959.02-11.702-.312-17.611-1.088v3c-6.625.125-6.625.125-10-1v-2l-2.152-.367-2.786-.508-2.777-.492L219 152z"/><path fill="#A1AEBE" d="m191 55 2.875.563c3.024.724 3.024.724 5.125-.563 8.612.04 17.073.384 25 4l1 3h3v2q-1.903.758-3.812 1.5l-2.145.844C220 67 220 67 217 67v-4l-2-1 2-1c-5.822-3.01-10.445-3.38-16.937-3.187l-2.65.04A607 607 0 0 0 191 58z"/><path fill="#E6E5E2" d="M215 153c2.438.375 2.438.375 5 1l1 2c1.883.903 1.883.903 4.063 1.625.733.26 1.466.52 2.222.79L229 159v2l2.25.25c3.304.901 4.477 2.25 6.75 4.75l3 2v4l2 1c-4.081-.57-6.424-2.759-9.562-5.312-4.824-3.806-9.482-6.217-15.356-8.032C216 159 216 159 215 158a100 100 0 0 1 0-5"/><path fill="#79B3C0" d="m269 202 1 4h-2l-1 4-7 1v29h-1v-7h-2v-25z"/><path fill="#6898D5" d="M135 44q3.5-.062 7 0c1 1 1 1 1.063 4.563L143 52h-4l-.812 2.375C137 57 137 57 134 59c-7.035.628-14.774-.32-20.848-4.172C111.75 53.562 111.75 53.562 110 51c.188-2.312.188-2.312 1-4l1 3a252 252 0 0 0 7 3l1 2c4.634 1.448 11.559 2.22 16 0l.063-3.812.035-2.145c-.015-2.246-.015-2.246-1.098-5.043"/><path fill="#226294" d="M77 233h1v12l-4 1c.588 3.024 1.227 6.018 2 9l-5-2v-4h-4l.563 2.438L68 254c-1 1-1 1-4.062 1.063L61 255v-1h5c-.095-.748-.19-1.495-.29-2.266-.11-.984-.22-1.97-.335-2.984l-.352-2.953C65 242.866 65.47 241.455 67 239l3 6h2v-6h4z"/><path fill="#804837" d="M58 99c1.875.188 1.875.188 4 1 1.91 3.82 2.53 7.609 3.125 11.813l.508 3.519L66 118h-4l-1-3-2 1c-2.247-3.37-2.246-4.561-2.187-8.5l.019-2.906C57 102 57 102 58 99"/><path fill="#A37066" d="M66 133c2.438.75 2.438.75 5 2 .813 2.125.813 2.125 1 4h-3l1 4h-3c-1.19 5.38-2.292 10.453-2 16h2l1 3-6-1c-.961-4.807-1.387-9.122-1-14a1049 1049 0 0 1 4-5c.633-2.99.867-5.95 1-9"/><path fill="#D0C5B4" d="m144 248-1 3q-3.413.684-6.828 1.36a516 516 0 0 0-6.719 1.406c-8.16 1.726-16.122 2.827-24.453 3.234v5c-1.746-2.62-2.387-4.038-3-7 .664-.105 1.328-.21 2.013-.32 15.95-2.417 15.95-2.417 31.62-6.164 2.833-.618 5.476-.6 8.367-.516"/><path fill="#6C99D2" d="M262 81c-1 2-1 2-4 3.063-3.59.95-7.154 1.304-10.844 1.652-2.868.38-5.463 1.25-8.156 2.285v2h-24v-2h-2v-2l2.543.492c9.044 1.329 18.43.775 27.457-.492v-2c6.504-2.009 12.178-3.386 19-3"/><path fill="#DEE7E7" d="M81 30c1.647 2.47 2.777 4.614 3.938 7.313 1.175 2.72 2.382 5.27 3.812 7.874C90.153 48.346 90.244 50.582 90 54l-3-1 1 8h-2l-1-6h-2v-3h-2v-6l3 1a75 75 0 0 0-2.062-8.5c-.82-3.06-1.128-5.37-.938-8.5"/><path fill="#349DB8" d="M268 209c1.173 4.546 1.541 9.33 1 14l-2 2h-4a647 647 0 0 1-1.5-4.75l-.844-2.672C260 215 260 215 260 211c6.875-2 6.875-2 8-2"/><path fill="#868784" d="M244 180c7.004 3.268 7.004 3.268 9 6 .688 2.688.688 2.688 1 5h2v2l-3 2 2 1c.852 1.996.852 1.996 1.625 4.438.26.803.52 1.606.79 2.433C258 205 258 205 258 207l2 1h-3l-1 3-.367-1.934-.508-2.504-.492-2.496L254 202l-2-1c-.676-1.715-.676-1.715-1.312-3.937-1.435-4.615-3.439-8.735-5.7-12.997C244 182 244 182 244 180"/><path fill="#083D5A" d="M264 172h4c2.36 3.54 2.235 5.011 2.195 9.2l-.02 3.661-.05 3.827-.027 3.86q-.036 4.727-.098 9.452h-3v-2h-2l-2-6h5l-.562-3.75c-.399-3.102-.27-5.233.562-8.25-.386-2.681-.386-2.681-1-5h-2z"/><path fill="#255365" d="M86 172h1v9h-2l-.312 1.938c-.754 3.354-1.812 6.519-2.922 9.769-1.026 3.072-1.903 6.172-2.766 9.293l-3-2c-.293-2.383-.293-2.383-.187-5.125l.082-2.758L76 190l5-2-1-3c.452-6.333.452-6.333 2.438-8.75L84 175z"/><path fill="#2A6B7C" d="m239 154 31 1v2h-26l1 5c-2.187.313-2.187.313-5 0-2.812-2.5-2.812-2.5-5-5h4z"/><path fill="#C2E0E5" d="M229 143h41v3c-13.826.215-27.33.282-41-2z"/><path fill="#10202D" d="M92 84c-.2 2.3-.2 2.3-1 5-2.145 1.73-2.145 1.73-4.812 3.188l-2.645 1.48a76 76 0 0 1-4.805 2.32c-2.088.96-2.088.96-2.738 4.012-2.562 1.688-2.562 1.688-5 3l1-4h3l1-10 4.75-.812C84.868 87.483 88.269 84 92 84"/><path fill="#F8FBF5" d="M250 200c2.49 1.84 2.983 2.916 3.594 6 .576 4.639.515 9.27.469 13.938l-.014 2.65q-.02 3.206-.049 6.412h-2c-2.43-9.514-3.75-18.16-3-28z"/><path fill="#05354E" d="m260 167 4 1v3l3 1h-3l1 5h2c1.125 3.313 1.125 3.313 2 7l-2 3-3-1a511 511 0 0 1-2-7l-2.187-3.187C258 173 258 173 258.188 170.75A141 141 0 0 1 260 167"/><path fill="#8D7070" d="M62 95c3.112 3.613 4 7.322 4 12l5-2c-.506 2.169-1 4-2 6h-3l-1 4-.367-2.012C63.464 106.83 61.89 101.574 59 96l-2.375 1.5C54 99 54 99 52 99l-1 8h-2c-.417-4.25-.44-6.353 2-9.937C55.15 94.209 57.042 94.2 62 95"/><path fill="#9AB8D6" d="m84 260 2 3h3l1-3h3c1.316 3.62 2 6.096 2 10-1.77.108-3.54.186-5.312.25l-2.989.14C84 270 84 270 82.145 268.173 81 266 81 266 81 263h3z"/><path fill="#CC5753" d="m113 157-1 1.875c-1.404 4.387-1.16 8.557-1 13.125h-2v-10l-2 1-.5 2-.5 2-2 1c-.658 3.03-.658 3.03-1 6l2 1v3h7v2c-2.829 1.414-4.874 1.319-8 1-1.875-1.437-1.875-1.437-3-4-.397-3.054-.57-5.966 0-9 1.469-1.621 1.469-1.621 3-3l.875-2.5c1.576-3.502 4.193-5.5 8.125-5.5"/><path fill="#012038" d="M262.285 160.902 270 161v14l-3-3-3-1-1-3-3-1a88 88 0 0 1-1-5c1-1 1-1 3.285-1.098"/><path fill="#A4B8CD" d="M172 43h3c1.5 2.188 1.5 2.188 3 5l1.688 2.563C181 53 181 53 181 57h4v4l3 1 1.438 2c1.79 2.292 2.743 2.611 5.562 3l1 4c-4.428-1.392-6.956-3.52-10-7v-2h-3c-4.39-3.602-6.938-7.783-9-13v-2h-2z"/><path fill="#998978" d="M245.059 245.508c2.485.63 4.1 1.727 5.941 3.492l-2 2 .563 3.313c.503 4.24.002 5.389-2.563 8.687-1.687 1.813-1.687 1.813-3 3 .506-2.169 1-4 2-6a95 95 0 0 0 .063-5.125L246 250l-12 1c2.893-5.785 4.803-6.437 11.059-5.492"/><path fill="#0B5173" d="M74 201c2 2 2 2 2.125 5.625L76 210h-2l1 9h-4v-3l-10-1v-5l10 4 .148-2.59.227-3.347c.07-1.103.14-2.205.21-3.34L72 202z"/><path fill="#588EBB" d="m253 104 5 1v5l2.625-.937c3.137-.988 6.126-1.599 9.375-2.063v2l-3.375 1.375c-3.587 1.35-3.587 1.35-5.625 3.625l-1.937-.5L257 113l-3 2c-3.066.266-3.066.266-6.562.25l-3.504.016C241 115 241 115 239 113c-.27-2.688-.087-5.291 0-8h1l1 8 12 1 2-9z"/><path fill="#2B6152" d="M93 30h8c3 6.5 3 6.5 3 11-3.473.316-5.376.422-8.312-1.562-2.156-3.114-2.4-5.704-2.688-9.438"/><path fill="#846958" d="m239 252 6 1c-.029 6.223-1.198 10.657-5.168 15.535-2.205 1.763-3.412 1.96-6.207 1.965L230 270v-2h4l.813-1.812C236 264 236 264 237.5 262.563c1.899-1.979 2.599-3.999 3.5-6.563h-2z"/><path fill="#9A9181" d="M222 245c2 1 2 1 2.813 3.313.235 3.378-.648 4.19-2.813 6.687l-1 3-5 2-1 3c-3.727 1.864-5.63 2.074-9.75 1.25C202 263 202 263 200 261c-.437-2.937-.437-2.937 0-6 2.5-1.875 2.5-1.875 5-3l-1 4h-3l2 5h10v-3h5c1.576-2.886 2.463-5.533 3.125-8.75l.508-2.422z"/><path fill="#6A8A9D" d="M77 205h1v7l2 1-1.062 1.563c-1.338 3.478-.759 5.84.062 9.437a157 157 0 0 0 3 5l-1 2-1-1-1 4h2v17c-2.367-3.55-2.556-5.908-3.062-10.125l-.25-2.043q-.35-2.916-.688-5.832l-.348-2.672c-1.076-8.553-.651-16.782.348-25.328"/><path fill="#B9B3B4" d="M110 76h17c-3.954 2.636-7.534 2.752-12.187 3.34-3.014.707-3.872 1.355-5.813 3.66-3.737 1.967-5.947 2.158-10 1l1-7h2l1 4c3.545-1.398 3.545-1.398 7-3z"/><path fill="#7A3B30" d="M168 68h4v2l4 1v6h-10l2-1v-2h-8c2-3 2-3 5.125-3.687L168 70z"/><path fill="#CBC3BF" d="M85 235c3.419.61 5.53 1.53 8 4 .772 2.798 1.327 5.34 1.75 8.188l.379 2.271c.305 1.845.59 3.693.871 5.541h-4l-1 2c-1.129-5.361-1.097-10.553-1-16l-1.953-.867C86 239 86 239 85.25 236.875z"/><path fill="#4B291D" d="M179 113c4.615 1.457 4.615 1.457 6.375 3.938C186 119 186 119 185 122c-.228 2.733-.417 5.45-.562 8.188l-.131 2.271q-.158 2.77-.307 5.541l-1-3h-2v-16h-2z"/><path fill="#BD9182" d="M177 113c4.14 6.21 3.865 13.977 2.621 21.2-.463 1.623-1.039 3.215-1.621 4.8l-1 3.25c-1 2.75-1 2.75-3 5.75h-2l1.426-3.652c2.066-6.199 2.37-12.426 2.762-18.91l.248-3.635q.297-4.4.564-8.803"/><path fill="#AF7763" d="M93 178h1l.148 3.035.227 4.028c.07 1.31.14 2.621.21 3.972.405 3.87 1.316 7.244 2.415 10.965v4h2l1 9c-5.625-4.655-7.067-11.01-8-18q-.134-3.593-.125-7.187l-.008-3.668C92 181 92 181 93 178"/><path fill="#43251A" d="M196 122h4v9l-2.312-1.062c-2.736-1.262-2.736-1.262-5.688.062l-.25 3.875c-.14 2.18-.14 2.18-.75 4.125-2.047 1.258-2.047 1.258-4 2q.212-3.187.438-6.375c.08-1.183.162-2.367.246-3.586C188 127 188 127 189 125l7 2z"/><path fill="#654536" d="M172 105c3 2 3 2 3.73 4.145C177.59 120 177.71 130.286 175 141h-1c-.095-9.072-.145-17.982 1-27h-2c-.544-3.058-1-5.888-1-9"/><path fill="#BF8D79" d="m167 164-3 6h-2v2l-2.937 1.125c-3.075 1.305-5.696 2.909-8.438 4.813C145.653 181.35 140.175 185 134 185v-2l3.332-1.469c9.517-4.282 18.976-8.612 26.332-16.261C165 164 165 164 167 164"/><path fill="#E1CBC5" d="m88 194 2 1c.633 2.285.633 2.285 1.125 5.063l.508 2.785L92 205a164 164 0 0 1-3.25 2.563l-1.828 1.44C85 210 85 210 82.766 209.654L81 209c1.75-4.875 1.75-4.875 4-6 .648-1.855.648-1.855 1.063-4 .844-3.907.844-3.907 1.937-5"/><path fill="#874F3C" d="M90 172h1c2.388 24.983 2.388 24.983 2 35l2 1-9 1a91 91 0 0 1 4-4h2l-.988-2.087c-1.166-3.355-1.24-5.98-1.207-9.526l.02-3.78.05-3.92.027-3.978q.036-4.855.098-9.709"/><path fill="#848DAD" d="m151 66 2 1c-1.75 3.875-1.75 3.875-4 5-.685 1.888-.685 1.888-1.125 4.063l-.508 2.222L147 80l-3.062-1c-6.488-1.666-13.292-1.156-19.938-1 2.963-1.976 3.68-2.264 7.012-2.414l2.295-.117 2.38-.094 2.417-.117A891 891 0 0 1 144 75l.344-2.39C145 70 145 70 147.5 68.25L150 67z"/><path fill="#174C60" d="M66 30h5l.184 2.195c.43 4.976.886 9.892 1.816 14.805l-3 1c-2.87-6.252-4.511-11.096-4-18"/><path fill="#DFEFEE" d="M257 233h1q.04 3.875.063 7.75l.025 2.21c.016 3.527-.135 6.65-1.088 10.04h-2v5h-2c-.304-7.48-.485-13.309 3-20 .691-2.779.691-2.779 1-5"/><path fill="#7593C5" d="M172 97c1.875.25 1.875.25 4 1a90 90 0 0 1 2 4l3 1 1 7h2v4h2l1 7c-2.174-2.174-3.522-4.313-5-7v-2h-2c-2.034-3.73-3-5.67-3-10l-1.937-.812C173 100 173 100 172 97"/><path fill="#652E18" d="m114 196 3 1q1.546 3.48 3 7c1.54 1.88 1.54 1.88 3 3l1-8h2c.953 4.763 1.083 9.167 1 14l-3-1v-2l-1.797-.125c-3.37-1.339-3.952-3.662-5.453-6.875l-1.578-3.312C114 197 114 197 114 196"/><path fill="#78382B" d="m153 217 1 3 3-1c2 2 2 2 2 5l3-1 2 1v3l5 1c-3 2-3 2-6.437 1.375-3.594-1.387-4.995-2.63-7.563-5.375-2.138-.787-2.138-.787-4-1z"/><path fill="#9C7763" d="M209 186h1c-.484 5.804-2.167 9.946-5 15l-1.152 2.063A451 451 0 0 1 201 208h-3c0-5.245 2.956-8.942 6-13a402 402 0 0 0 3-6z"/><path fill="#B7413F" d="m134 158 1 4Zm-2 4 3 1v4h-2l-.625 1.688c-3.07 5.163-8.037 7.897-13.375 10.312.372-2.625.695-3.739 2.742-5.492l2.133-1.383c3.699-2.6 5.435-4.85 7.125-9.125z"/><path fill="#915045" d="m59 96 1 3h-2l-2 11-6-2c1.318-8.274 1.318-8.274 3.938-11.062C56 96 56 96 59 96"/><path fill="#7B5B47" d="m231 219 5 1-2 9h-2l-.687 1.625c-1.747 3.16-3.953 5.643-6.313 8.375l-2-4 2.188-2.062c3.047-3.03 5.384-6.4 7.812-9.938l-3-1v2l-2-1z"/><path fill="#195065" d="m214 149 15 5v2l3 1h-2v3h3l-1 2-3-1-1-2c-1.883-.903-1.883-.903-4.062-1.625-.734-.26-1.467-.52-2.223-.79L220 156v-2l-5-1z"/><path fill="#175F91" d="M61 260h10c1.723 3.295 3.294 6.331 4 10h-7l-2-4 2-1-1-2h-4z"/><path fill="#4293B1" d="m84 240 6 1v15h-3q-.755-3.155-1.5-6.312l-.844-3.551C84 243 84 243 84 240"/><path fill="#0E5B79" d="m82 176 2 1-3 1v4l-2 1-1 3-4 1-1 3h-3l1-9h3l2-4v5l4-1v-4z"/><path fill="#C89985" d="m100 119 4 1-4 2v2c-5.09 2.375-10.077 3.873-15.547 5.156-2.602.895-3.624 1.86-5.453 3.844h-2v-2c1.645-1.473 1.645-1.473 3.813-3.062l2.144-1.598c3.975-2.607 7.412-2.427 12.043-2.34v-2l5-1z"/><path fill="#643E2E" d="m186 123 10 2v2h-5v-2h-2q-.29 3.938-.562 7.875l-.17 2.262c-.402 4.054-.402 4.054.732 7.863a136 136 0 0 1-3 7c-.994-3.253-1.048-6.035-.879-9.422l.147-3.105.17-3.223.158-3.27q.196-3.99.404-7.98m3 17 2 2h-2z"/><path fill="#798BBC" d="M176 76h2c-.25 2.813-.25 2.813-2 6-3.91 1.487-7.886 2.283-12 3v3l4-1 1 5h2l-1 3c-1.5-1.375-1.5-1.375-3-3v-2l-2.375-.812C162 88 162 88 160 85h2v-2c3.508-1.604 6.144-2.22 10-2v-2l4-1z"/><path fill="#3F6A77" d="M77.25 50.625c2.124 1.669 2.4 2.744 2.75 5.375l1.828.227c2.949 1.05 3.488 2.413 4.922 5.148l1.297 2.398C89 66 89 66 89 69c-2.248-2.052-3.002-3.007-4-6l-2.562-1.5L80 60v-3h-2l-1-4h-6l-1 3c-2.062.688-2.062.688-4 1 2.937-4.134 5.777-7.895 11.25-6.375"/><path fill="#692410" d="M127 187c-9.015 5.52-16.506 6.284-27 6v-2l2.746-.332c6.416-.835 12.381-1.714 18.387-4.18 2.275-.595 3.661-.218 5.867.512"/><path fill="#B24A46" d="M161.688 75.875c3.52.038 6.853.433 10.312 1.125-1.457 2.913-3.354 3.055-6.375 4.125l-2.96 1.07C160 83 160 83 157 83c-.043-2-.04-4 0-6 1-1 1-1 4.688-1.125"/><path fill="#316C6D" d="M215 34a105 105 0 0 1 5 4v2l1.875.563c3.181 2.151 3.32 4.812 4.125 8.437l2.313.375C231 50 231 50 234 52v2c-3.681-.708-6.745-2.16-10-4-2-3-2-3-2-7l-1.812-.687c-2.781-1.67-3.752-3.441-5.188-6.313z"/><path fill="#C06EC6" d="m253 266 1 2 2-1c2.371-.23 4.747-.411 7.125-.562l3.883-.254L270 266v4h-22l1-2h4z"/><path fill="#99302A" d="m117 154-2 2c-.643 2.069-.643 2.069-1 4h2l1-3h2v2h-2v2l-1.375 1.25c-2.165 2.331-2.752 4.728-3.625 7.75h-2c-.274-5.394-.36-8.52 3-13l-6 2v-2h3v-2c3.625-2.125 3.625-2.125 7-1"/><path fill="#ADD8E1" d="m94 57 .75 1.938c1.047 2.261 1.047 2.261 3.313 2.624L100 62l1 3 2.063 1.438L105 68v4h4l1 6h-2l-.312-1.937L107 74l-3-1v-2h-2v-2h-2v-3l-1.875-.25C96 65 96 65 94.75 63.188 94 61 94 61 94 57"/><path fill="#723827" d="m104 231 2 4c3.113 0 5.108-.174 8-1v-2l5 1c-3 2-3 2-5 2v2c-5.364 2.682-9.01 3.315-15 3l-1-2 2.438-.687L103 236c.894-2.548.894-2.548 1-5"/><path fill="#683421" d="M93 201c2.601 1.3 2.642 2.3 3.563 5 .827 2.74.827 2.74 2.437 5 .04 1.666.043 3.334 0 5l-3-1c-1.187-2.562-1.187-2.562-2-5-4.609.72-8.672 2.313-13 4v-4l12-3z"/><path fill="#033754" d="M82 167c-.152 2.667-.494 4.45-2.332 6.445C75.494 177 75.494 177 73 177a83 83 0 0 0-4 3v-3h2l.25-1.687c.986-3.041 2.636-4.943 4.75-7.313 2-1 2-1 6-1"/><path fill="#D55A5A" d="m135 153-1 9h-1l1-8h-2l-1 2h-7v2l-1.812.688c-2.398 1.2-2.398 1.2-3.688 3.875-1.5 2.437-1.5 2.437-3.687 3.25L113 166l2-5h2v-2h2v-2c5.549-2.818 9.741-4.533 16-4"/><path fill="#692412" d="M152 139c-1 3-1 3-3 4-.356 2.846-.356 2.846-.437 6.188-.313 5.085-.65 8.618-3.563 12.812l-2 1 .52-2.062c.557-3.408.357-6.493.167-9.938-.073-6.38-.073-6.38 1.575-9.023 2.135-1.789 3.897-2.977 6.738-2.977"/><path fill="#F0F4F4" d="M223 144q2.625-.04 5.25-.062l2.953-.036c2.455.086 4.459.39 6.797 1.098v2l7 2v1h-11l-1-3-3.875.063c-3.875.062-3.875.062-6.125-1.063z"/><path fill="#94B6CF" d="M30 250h3v2l2.203.148c7.356.547 14.542 1.527 21.797 2.852v1c-8.603 1.68-19.038.98-27-3z"/><path fill="#7F392D" d="m84 160 1 2h-2v2h2v2l2.188.625c3.73 1.824 5.46 3.976 7.812 7.375.813 3.375.813 3.375 1 6l-1-3h-3l-1 4v-9l-4-2-1-2-2.562-1.375L81 165v-4z"/><path fill="#772D1D" d="M97 151c9.053-.135 17.979.243 27 1l-2 2h-3v3c-1.375 1.688-1.375 1.688-3 3h-2l1-5h-5l-1 2v-5H97z"/><path fill="#172438" d="M61 123h1l.875 2.75c.97 3.091.97 3.091 2.172 5.172 1.64 3.576 1.56 7.23.953 11.078-2 2.563-2 2.563-4 4-.961-3.738-.862-6.263 0-10v-4l-1-1c-.141-2.67-.042-5.324 0-8"/><path fill="#8DC7D5" d="m105 67 5 1v3l2.25-.187c3.225.22 4.447.97 6.75 3.187v2h-10v-4h-4z"/><path fill="#D0BCB7" d="M83 167c2.639.364 3.776.76 5.618 2.735 1.63 2.673 1.732 4.144 1.675 7.25l-.03 2.831c-.024.968-.05 1.937-.076 2.934l-.04 2.98A663 663 0 0 1 90 193h-1l-1-11h-2l-1 4-1-2 1-3h2c-.34-5.38-.686-9.533-4-14"/><path fill="#2A4457" d="M48 62h4c-1.589 4.289-4.431 6.323-8 9h-2l.375 2.25C42 76 42 76 39 78.313L36 80v-4h2v-4c2.313-2.75 2.313-2.75 5-5h3z"/><path fill="#31839B" d="M253 193h5c.725 1.764 1.43 3.537 2.125 5.313l1.195 2.988L262 204l-2 3h-2a480 480 0 0 1-1.5-3.812l-.844-2.145C255 199 255 199 255 196l-3-1z"/><path fill="#367489" d="M80 163c1.813 2 1.813 2 3 4l-3.375.813c-3.843.845-3.843.845-5.625 4.187h-3v-8c3.082-.913 5.793-1.411 9-1"/><path fill="#91B2C9" d="M83 247c2.044 3.544 2.267 5.602 3 10H57v-1h24v-8z"/><path fill="#D4BFB0" d="M254 215h1q.04 4.469.063 8.938l.025 2.576.01 2.45.016 2.27C255 233 255 233 254 234c-.281 2.32-.448 4.639-.621 6.969L253 243l-2 1 .035-2.012c.046-4.512-.104-8.567-1.035-12.988-.086-2.673-.045-5.324 0-8 1.765 3.088 2 4.233 2 8h2z"/><path fill="#687D8A" d="m55 66 2 1c-1.375 2-1.375 2-3 4h-2l-.812 1.938C50 75 50 75 47 76l-.875 1.75C44.604 80.792 42.513 82.738 40 85h-2c.562-3.372 1.425-4.692 4.125-6.75 3.576-2.883 6.46-6.089 9.395-9.613C53 67 53 67 55 66"/><path fill="#6E655A" d="m142 264.875 2.125-.008C146 265 146 265 148 266v4h-13l1-4c2.245-1.123 3.515-1.134 6-1.125"/><path fill="#906C64" d="M94 244c3.267 4.901 5.483 10.143 7.063 15.813.91 3.098 1.98 4.697 3.937 7.187v3h-2v-2h-2l-4-10-1.094-2.531c-.916-2.495-1.295-4.642-1.531-7.281l-.227-2.395z"/><path fill="#7D5744" d="M213 165h2c.349 7.63.002 13.924-3 21l-2-2c.156-2.708.42-5.264.813-7.937l.29-2.21c.42-3.072.914-5.905 1.897-8.853"/><path fill="#DB756E" d="M143 147h1c.252 6.583.527 13.801-2 20-2.078 1.281-2.078 1.281-4 2q.174-2.157.375-4.312c.07-.801.14-1.602.21-2.426C139 160 139 160 141 157c.24-2.057.24-2.057.125-4.187L141 149h2z"/><path fill="#B45C4C" d="M83 162c4.042.584 6.492 2.667 9.625 5.188l2.914 2.292c2.697 2.762 3.548 4.81 4.461 8.52l-3 1-1.625-3.187C92.861 171.387 89.599 168.3 85 166v-2h-2z"/><path fill="#987265" d="m254 233 3 1c-.722 3.907-1.695 7.687-2.812 11.5l-.958 3.344c-1.291 3.313-2.878 5.513-5.23 8.156-.235-3.374-.375-5.397 1.441-8.316 1.773-3.052 2.212-5.452 2.684-8.934.787-5.662.787-5.662 1.875-6.75"/><path fill="#064967" d="M71 169v3l2 1-2 4h-2l-1 4h-4c.255-1.628.53-3.252.813-4.875l.457-2.742C66.227 170.26 67.646 169 71 169"/><path fill="#1A0401" d="M119 105c3.313-.25 3.313-.25 7 0 1.938 1.75 1.938 1.75 3 4v4c-3.443.393-4.817.114-7.812-1.75C119 109 119 109 119 105"/><path fill="#913832" d="m81 220 9 1-2.562 1.438c-2.67 2.248-2.67 2.248-2.547 4.832A73 73 0 0 0 86 234c-4.875-4.75-4.875-4.75-6-7q.421-3.511 1-7"/><path fill="#CFAA97" d="m244 251 3 1c.25 7.625.25 7.625-2 11q-.548 2.49-1 5l-1 2h-5c1.209-3.44 2.386-5.5 5-8 .917-2.75 1.109-4.36 1.063-7.187z"/><path fill="#EA7371" d="M127 162c-.504 4.409-1.911 6.826-5 10-2.75 1.313-2.75 1.313-5 2 2.824-12 2.824-12 10-12"/><path fill="#153B52" d="M230 157c6.533.616 6.533.616 8.75 2.438L240 161l3 2h-4l-1 4a141 141 0 0 1-5-5v-2h-3z"/><path fill="#84BFDE" d="M228 132c8.52.397 16.72.782 25 3v1q-4.062.08-8.125.125c-.76.017-1.521.034-2.305.05-4.584.04-8.29-.315-12.57-2.175z"/><path fill="#81635F" d="m161.688 64.938 3.011.027L167 65c-1 2-1 2-3.18 2.816l-2.695.746c-.884.25-1.769.498-2.68.754L156 70l-3 1v3h-2l-1 3c-1-2-1-2-.328-4.129l1.078-2.433 1.047-2.442c2.265-3.759 5.923-3.105 9.89-3.058"/><path fill="#205D46" d="m255 51 3 2-1 2-7-3-1 3h-15v-3l2.047.035 2.703.028 2.672.035c4.672-.177 8.79-1.36 13.578-1.098"/><path fill="#57AAC8" d="M264 239h3v4h-2c-1.337 4.01-1.275 7.883-1.426 12.09-.686 3.48-1.885 4.683-4.574 6.91v-4l-2-1 1-4 1 3h3l-.07-2.703-.055-3.547-.07-3.516c.185-3.062.587-4.676 2.195-7.234"/><path fill="#123146" d="m55 69 1 3c-1.328 1.938-1.328 1.938-3.25 4l-1.89 2.063L49 80l-1.484 1.75C46 83 46 83 42 83c1.13-3.388 2.123-4.197 4.813-6.437 2.855-2.42 5.592-4.86 8.187-7.563"/><path fill="#013357" d="M64 215q3.012.43 6 1v8h-4v-2h-2a129 129 0 0 1-1-6z"/><path fill="#316E6C" d="m234 117 5 2c.313 3.25.313 3.25 0 7-2.844 3.102-4.308 3.967-8.55 4.172l-3.762-.422-3.801-.39c-.953-.12-1.906-.238-2.887-.36v-1l15-1c.369-6.42.369-6.42-1-10"/><path fill="#258CA9" d="m260 211 5 1 2 7-3 3 2 1-3 2a647 647 0 0 1-1.5-4.75l-.844-2.672C260 215 260 215 260 211"/><path fill="#18546C" d="M81 186c1.38 3.767.596 6.448-.437 10.25l-.872 3.266L79 202l-3-2c-.293-2.383-.293-2.383-.187-5.125l.082-2.758L76 190l5-2z"/><path fill="#95796F" d="M224 162c4.614.502 7.046 2.296 10.563 5.25l2.816 2.328c2.52 2.33 4.63 4.63 6.621 7.422v2c-4.473-1.823-7.732-5.007-10.312-9.062-2.62-3.009-6.089-4.33-9.688-5.938z"/><path fill="#7CB3C2" d="m218 150 2.128.48c2.976.539 5.807.728 8.829.836l3.37.127 3.486.12 3.544.13q4.322.159 8.643.307v1h-11v2c-4.03 1.594-7.152.37-11.187-.812l-3.793-1.083C219 152 219 152 218 150"/><path fill="#876158" d="m62 146 1 3 3-3-1 13h2l1 3-6-1c-.953-4.767-1.164-9.16-1-14z"/><path fill="#707DA2" d="m163.46 61.734 2.915.016 2.898-.016c2.782.271 4.387.773 6.727 2.266 3.165 3.956 3.293 7.027 3 12h-1l-.937-3.312A170 170 0 0 0 175 66l-16-2c2-2 2-2 4.46-2.266"/><path fill="#F7F7F1" d="m230 171 6 2v2l3 1 1 5-2 1-3-1c-1.187-2.562-1.187-2.562-2-5h-2z"/><path fill="#2E6A66" d="M212 113h3l-1 4h-2c.55 3.43.55 3.43 2 7 2.984 1.994 2.984 1.994 6 3v1l-3.875-.312-2.18-.176C212 127 212 127 210 124c-.266-2.191-.266-2.191-.25-4.562l-.016-2.38C210 115 210 115 212 113"/><path fill="#93847C" d="m100 240 4 1a1126 1126 0 0 1-.937 4.375l-.528 2.46C102 250 102 250 101 252l4-2 1 3 3 2h-7v-2h-2z"/><path fill="#282E37" d="m76 90 3 1v2h2v-2l6-1c-2.286 2.55-4.081 4.04-7.187 5.563C76.697 96.74 76.697 96.74 76 100c-2.562 1.688-2.562 1.688-5 3l1-4h3z"/><path fill="#47769D" d="M76 260h8v3h-3l1.5 2.375C84 268 84 268 84 270c-3 0-3 0-5.125-1.625-2.224-2.817-2.554-4.844-2.875-8.375"/><path fill="#518CB1" d="M221 109.5c5.923.106 10.412 2.935 15 6.5l2 3-1.707-.871c-7.073-3.482-13.398-5.62-21.293-6.129 2.302-2.302 2.862-2.365 6-2.5"/><path fill="#648FD0" d="M194 71h2v5l-2.437.813L191 78l-1 3h-4l1-5 3-1 1-2h3z"/><path fill="#D3E0ED" d="M81 30c1.647 2.47 2.777 4.614 3.938 7.313a129 129 0 0 0 3.812 8.062C90 48 90 48 90 51c-3.68-1.227-3.912-2.07-5.625-5.437C81.895 40.4 81.133 35.687 81 30"/><path fill="#325995" d="M267 258v6l-9 1c0-3 0-3 1.688-5.187 2.708-2.124 3.96-2.186 7.312-1.813"/><path fill="#D1C9C2" d="M121 253c-1.913 2.576-2.902 2.984-6.137 3.512l-3.55.175-3.575.2L105 257v5c-1.746-2.62-2.387-4.038-3-7 6.378-1.173 12.503-2.295 19-2"/><path fill="#142232" d="M55 93c3.1.013 6.002.176 9 1 2.655 3.62 3 5.497 3 10l4 1-2 2h-3l-1 3 .105-1.863.082-2.45.106-2.425c-.36-2.783-1.3-3.394-3.293-5.262v-3h-8z"/><path fill="#CFDFE5" d="M53 63h4v3l-1.777.742c-3.303 1.87-5.196 4.646-7.54 7.578C46 76 46 76 43 76c1.396-3.186 3.046-5.24 5.563-7.625C51.14 65.955 51.14 65.955 53 63"/><path fill="#6A9AD3" d="M264 62h3v2h3v12h-2l-.937-3.312C265.83 67.434 265.83 67.434 262 64z"/><path fill="#7C7364" d="M186.5 247.875C189 248 189 248 190 249c.04 2 .043 4 0 6-5.75-.875-5.75-.875-8-2 1.12-4.956 1.12-4.956 4.5-5.125"/><path fill="#7E4F3A" d="M105 228c3 0 3 0 4.5 1.438L111 231l3 1v2l-8 3c-1.478-2.957-1.06-5.742-1-9"/><path fill="#C2BAAC" d="M231 176h2c2 3 2 3 2 6h2l.586 1.715.789 2.222.773 2.215c.705 2.035.705 2.035 2.852 2.848v3h2l-1 3-2-2v-3h-3l-1-6h-2v-3h-2z"/><path fill="#A4483F" d="M110 151q4.594-.04 9.188-.062l2.619-.026c4.196-.016 8.102.012 12.193 1.088v1l-2.52.621-3.292.816c-1.619.4-1.619.4-3.27.81A90 90 0 0 0 119 157v-3l3-1-12-1z"/><path fill="#F4F2F4" d="m265.125 146.938 2.758.027L270 147v3h-24v-1l2.555-.184 3.32-.254c1.09-.08 2.181-.162 3.305-.246 3.604-.404 6.199-1.427 9.945-1.379"/><path fill="#772416" d="M58 99h3l-1 17c-3-3-3-3-3.328-5.594l.078-2.906c.015-.96.03-1.918.047-2.906C57 102 57 102 58 99"/><path fill="#94B9E2" d="M82 30h4l.25 3.063c.406 3.029 1.27 5.093 2.875 7.687L91 44l-1 3-.812-1.875C88.044 42.7 88.044 42.7 85 41c-.95-1.84-.95-1.84-1.687-3.937l-.762-2.09C82 33 82 33 82 30"/><path fill="#7B786A" d="m107 243 2 1c.414 2.285.414 2.285.625 5.063l.227 2.785L110 254l-5-1c-.832-3.33-1.276-5.753 0-9z"/><path fill="#8C4535" d="M92 177c2.375-.187 2.375-.187 5 0 2 3 2 3 1.625 5.188L98 184l-1-1-2 10h-1l-.184-2.484-.254-3.266c-.08-1.067-.162-2.135-.246-3.234-.257-2.453-.634-4.655-1.316-7.016"/><path fill="#2D313C" d="M60 152c2 3 2 3 2.125 5.313 1.26 3.869 3.876 5.213 7.16 7.453L71 166v1c-3.465.396-4.782.144-7.75-1.812-2.44-2.373-3.185-3.832-3.348-7.231z"/><path fill="#B68675" d="m62 100 4 1v6l5-2c-.506 2.169-1 4-2 6h-3l-1 4z"/><path fill="#729ED2" d="m110 47 1.688 1.875c2.39 2.197 4.316 2.992 7.312 4.125l1 2c2.113.907 2.113.907 4.563 1.625.826.26 1.652.52 2.503.79L129 58c-4.89 1.63-9.293-.207-14-2-2.372-1.522-3.332-2.641-5-5z"/><path fill="#23582A" d="M95 30h6l1 8-6-1z"/><path fill="#ECF6F8" d="M92 255h4l1 10-2-2v-4H83l-1-2h10z"/><path fill="#5682A5" d="M45 253h16v2l11-1 1 2c-9.573.219-18.577-.001-28-2z"/><path fill="#E3F5F8" d="m269 202 1 4c-4.284 2.57-8.173 4.587-13 6v-4z"/><path fill="#98B8C2" d="M79 197h1v6h3c.255 3.064.219 4.632-1.375 7.313L80 212h-2c-.185-10.558-.185-10.558 1-15"/><path fill="#E9E7E5" d="M89 181v10l-6 2c.898-7.786.898-7.786 3-11 2-1 2-1 3-1"/><path fill="#C75C57" d="M140 149c1.483 2.356 2.078 3.517 1.625 6.313L141 158l-.535 2.676L139 168l2-1-1 3c-3.062 1.188-3.062 1.188-6 2 1.875-4.875 1.875-4.875 3-6 .206-1.328.366-2.663.5-4 .389-3.889.389-3.889 1.5-5 .23-1.347.412-2.704.563-4.062z"/><path fill="#96634E" d="M134 147v2c-3.587 1.196-6.293 1.018-10.074.879l-2.072-.072q-3.271-.116-6.541-.244l-4.44-.159A3774 3774 0 0 1 100 149v-1c11.346-.64 22.632-1.17 34-1"/><path fill="#9E7871" d="M147 78c1 3 1 3 0 6l-2.812-.937C139.22 81.622 134.138 81.353 129 81v-2q3.938-.04 7.875-.062l2.262-.026c5.636-.025 5.636-.025 7.863 1.088z"/><path fill="#95BAC4" d="M86 61c3.555 1.422 4.367 2.637 6 6 2.202 2.315 4.475 4.511 6.813 6.688C100 75 100 75 100 77c-3-1-3-1-5-4l-2.5-.875C90 71 90 71 88.813 68.688L88 66l-1.125-2.812z"/><path fill="#55868D" d="M190 30h1c.063 3.25.063 3.25-1 7-5.255 3.956-11.63 4.596-18 5v-3l8 1 1-3 7-1z"/><path fill="#D9DEDC" d="M91 241h1v5h2l2 9h-4l-1 2z"/><path fill="#0F558B" d="M61 248h5v6l-9-1 1-4 3 1z"/><path fill="#287E93" d="M239 154h9v1h-8v2l4 1 1 4c-2.187.313-2.187.313-5 0-2.812-2.5-2.812-2.5-5-5h4z"/><path fill="#C5BFB8" d="m203 126 2 1c.625 3.063.625 3.063 1 6h4l1 10-2-4a75 75 0 0 0-3-3.687l-1.562-1.825c-1.388-1.602-1.388-1.602-3.438-2.488z"/><path fill="#9B7A75" d="M78 95h4l-1 5h-3l-1 3c-3.062 1.188-3.062 1.188-6 2 .813-1.937.813-1.937 2-4l3-1c.662-1.98.662-1.98 1-4z"/><path fill="#759DD0" d="M198.813 75.813 201 77v3l2.25.813c2.616 1.13 4.552 2.396 6.75 4.187-4.128-.607-7.332-2.038-11-4v-4l-2.25 1.438c-2.36 1.34-4.116 2.074-6.75 2.562 1-3 1-3 3.25-4.812C196 75 196 75 198.813 75.812"/><path fill="#003E65" d="M64 226c2 0 2 0 3.563 1.188 1.764 2.224 2.061 4.03 2.437 6.812-3.767 0-4.912-.235-8-2 .506-2.169 1-4 2-6"/><path fill="#D56260" d="M98 177c1.708 1.634 2.935 2.87 4 5 .04 2 .043 4 0 6l4 2v1h-6q-.505-2.655-1-5.312l-.562-2.989C98 180 98 180 98 177"/><path fill="#753924" d="m137 182-3 2-1 3-9-1v-2c1.412-.534 2.83-1.052 4.25-1.562l2.39-.88c2.551-.603 3.913-.405 6.36.442"/><path fill="#5E98A8" d="m237 127 1 3-1 2c-7.742.394-14.52-1.058-22-3v-1l1.697.124c2.538.178 5.076.34 7.615.501l2.67.195 2.569.157 2.364.158c2.395.02 2.395.02 5.085-2.135"/><path fill="#6A9AD7" d="M258 112v5h-2c-.2 3.716-.152 4.772 2 8l-5-1v-5l-2-1c4.615-6 4.615-6 7-6"/><path fill="#B3B2B4" d="M209 70c0 2 0 2-2.062 4.688C204 77 204 77 200.188 76.812L197 76c4.085-4.306 5.909-6 12-6"/><path fill="#BEBABB" d="m220 61 8 1v2q-1.903.758-3.812 1.5l-2.145.844C220 67 220 67 217 67l1-4h2z"/><path fill="#9CBCCE" d="M255 253h2v4l4 1h-2l-1 6-4 1z"/><path fill="#9ACEDA" d="M251 179c7 8.75 7 8.75 7 14h-2v-2h-2l-1-5-3-1z"/><path fill="#B68571" d="m156 162 1 3c-2.656 4.304-6.79 8.269-11 11l-3-1 1.32-1.066c4.382-3.633 8.106-7.509 11.68-11.934"/><path fill="#F1C4B6" d="m248 261 3 3-2 1v2l4 1c-3.508 1.604-6.144 2.22-10 2 1.09-3.775 1.908-6.47 5-9"/><path fill="#A2715C" d="M165 145h2c-.607 4.058-1.92 7.152-3.875 10.75l-1.555 2.922C160 161 160 161 157 162c.415-2.322.852-3.81 2.313-5.687 2.53-3.47 4.027-7.37 5.687-11.313"/><path fill="#5893A2" d="M91 71c3.909 1.303 6.46 2.708 9 6 .25 2.75.25 2.75 0 5l-2 1c-3-3.625-3-3.625-3-7h-2z"/><path fill="#88A0A1" d="M119 32c3.582 1.653 6.723 3.816 10 6l2.25 1c2.243 1.282 2.807 2.642 3.75 5l-7-2v-3l-2.25-.75c-2.964-1.347-4.625-2.81-6.75-5.25z"/><path fill="#427BA6" d="M263 253h7c-.75 6.625-.75 6.625-3 10v-5h-4z"/><path fill="#54B4CD" d="M260 219h1v7h2v10h-2l-1 2z"/><path fill="#0A4976" d="M49 213c4.648 1.633 4.648 1.633 6.5 3.563 2.007 1.923 3.797 2.072 6.5 2.437l-1.937.375L58 220l-1 2-6-3v-3l-3-1z"/><path fill="#2B758F" d="M252 179h2v3l1.875.75c2.52 1.483 3.137 2.534 4.125 5.25v3h3l-1 4-1-2-3-1a100 100 0 0 1-3-6l-1.687-2.75C252 181 252 181 252 179"/><path fill="#D1CBC5" d="M215 153c2.438.375 2.438.375 5 1l1 2c2.017 1.134 2.017 1.134 4 2h-3l1 3c-6.875-1.875-6.875-1.875-8-3a100 100 0 0 1 0-5"/><path fill="#162333" d="m49 96 3 1-2 3c-.241 2.286-.241 2.286-.125 4.688l.055 2.449L50 109h2v5c-3.127-2.085-3.83-2.58-5-6-.443-4.395-.53-8.205 2-12"/><path fill="#886F5C" d="m194 266 6 1 1 3h-15c2-2 2-2 5.125-2.125L194 268z"/><path fill="#2D6093" d="m52 267 1 3H40v-3c4.256-1.16 7.684-.762 12 0"/><path fill="#C6AE9C" d="M234 229c1 3 1 3-.187 5.688L232 237h-4l1 3-3-1c.556-3.6 1.749-5 4.563-7.25l1.94-1.578z"/><path fill="#3C130A" d="m72 124 3 1-1 3 4-1-1 5-5 1c-.879-6.152-.879-6.152-1-8z"/><path fill="#B87D6A" d="M70 112c.934 3.01 1.044 3.867 0 7a83 83 0 0 0-.125 4.938l-.008 2.59c.124 2.299.489 4.268 1.133 6.472-2-1.312-2-1.312-4-4-.928-6.26-.505-11.596 3-17"/><path fill="#8D736E" d="m59 117 3 2v2h3l1 11c-3.123-2.518-3.945-3.726-4.75-7.75L61 121h-2z"/><path fill="#5B2511" d="m124 99-3 1v5h-2v4h-2l-1-8c3.228-2.152 4.284-2.2 8-2"/><path fill="#A1B6D0" d="m191 55 2.875.563c3.024.724 3.024.724 5.125-.563 2.724.09 5.41.234 8.125.438l2.285.158q2.796.196 5.59.404v1l-24 1z"/><path fill="#508BB1" d="M225 51c3.152.493 5.709 1.288 8.688 2.5 4.675 1.832 9.332 2.204 14.312 2.5v1c-9.043.267-15.654-.46-24-4z"/><path fill="#3678A3" d="M67 249h4v4l9 2 1-4v5c-9.677.161-9.677.161-14-2z"/><path fill="#F1E4D6" d="m95 239 4 1v11c-2-1.5-2-1.5-4-4-.358-2.759-.187-5.201 0-8"/><path fill="#BC8975" d="M126 196h3v14h-2c-1.206-4.672-1.094-9.215-1-14"/><path fill="#0D426B" d="M46 201c5.679 1.42 9.532 4.394 14 8-1.707.672-1.707.672-4 1-2.324-1.11-2.324-1.11-4.687-2.75l-2.387-1.61C47 204 47 204 46 201"/><path fill="#ECEBE9" d="m88 194 2 1v8l-6 2q.713-2.47 1.438-4.937l.808-2.778C87 195 87 195 88 194"/><path fill="#9F7E7C" d="m159 84 3 1v2l3 2c1.188 3.125 1.188 3.125 2 6-2.5-1.375-2.5-1.375-5-3v-2c-4.102-1.015-4.102-1.015-8 0l1-3h4z"/><path fill="#67A0E2" d="M86 30h4v12c-2.976-3.068-3.965-4.462-4.25-8.812z"/><path fill="#F1F2F2" d="M78 30h3q.722 2.812 1.438 5.625l.808 3.164C83.965 41.85 84.52 44.895 85 48c-3.21-1.605-3.917-4.756-5-8-.785-3.315-1.426-6.643-2-10"/><path fill="#B6826D" d="M100 213c3.323 3.143 5.662 6.103 8 10a140 140 0 0 0 5 5l-3 1c-3.299-3.12-5.805-6.028-8-10l-2-3z"/><path fill="#7F3A2F" d="m76 134 1 2 3 1-1 3h-3v-2l-4 1-1-4c3-1 3-1 5-1m-7 5 3 1v3h-2z"/><path fill="#A0826C" d="M188 222v3l-2 2h-3l-1 3c-5.72.832-11.222 1.12-17 1v-1l3-.227c8.007-.747 14.133-1.812 20-7.773"/><path fill="#B09680" d="M151 223c2.75.25 2.75.25 5 1-2.544 3.816-4.718 4.523-9 6-2.437-.312-2.437-.312-4-1l1.75-.75c2.391-1.165 2.391-1.165 4.188-3.437z"/><path fill="#05425F" d="M73 196h3l2 2c-.375 2.625-.375 2.625-1 5l-5-1v7h-1c-.167-4.921-.248-8.503 2-13"/><path fill="#C14C4A" d="m113 157-1 1.875c-1.404 4.387-1.16 8.557-1 13.125h-2v-10l-4-1c5.75-4 5.75-4 8-4"/><path fill="#D7DCDC" d="M222 158h6l1 3 5 1c-1.562 1.188-1.562 1.188-4 2-3.687-1.187-3.687-1.187-7-3z"/><path fill="#5D3124" d="M210 145c2 1.5 2 1.5 4 4 .358 2.759.187 5.201 0 8l-4-1q-.29-2.468-.562-4.937l-.317-2.778L209 146z"/><path fill="#6CA7D7" d="M248 134q4.094-.04 8.188-.062l2.33-.026c3.967-.017 7.608.102 11.482 1.088v2c-7.551.3-14.589-.574-22-2z"/><path fill="#574148" d="m133.5 76.813 2.844.019c2.362.15 4.393.5 6.656 1.168v2l-19-1c3.91-1.955 5.322-2.25 9.5-2.187"/><path fill="#376A5D" d="m125 36 9 1 1 4h3v2l2 1c-2.312.25-2.312.25-5 0a496 496 0 0 1-3-4c-2.281-1.225-4.568-2.082-7-3z"/><path fill="#D1B3A0" d="M229 258c-1.558 3.824-3.916 6.292-7 9h-3c.063-2.25.063-2.25 1-5 2.657-2.09 5.536-4 9-4"/><path fill="#B8A18D" d="m241.688 249.938 2.449.027L246 250l-1 3-1.863.113-2.45.2-2.425.175c-2.625.594-3.57 1.47-5.262 3.512l-1-4h2v-2c2.882-.96 4.699-1.106 7.688-1.062"/><path fill="#16608C" d="m70 226 7 2v5h-3l-1-2c-2.017-1.134-2.017-1.134-4-2z"/><path fill="#6C4C3B" d="m80 211 1 4h3v3l-4 1-1 5c-1.72-2.63-2.01-3.872-1.75-7.062C78 214 78 214 80 211"/><path fill="#50A0AD" d="M261 196c3 2 3 2 3.688 4.625L265 203l3 1a101 101 0 0 1-6 3l-2-1 1-2c.069-1.373.085-2.75.063-4.125z"/><path fill="#A03B31" d="M131 172h2c-.312 1.938-.312 1.938-1 4l-3 1c-1.209 2-1.209 2-2 4h-5c2.625-3.875 2.625-3.875 6-5a499 499 0 0 0 3-4"/><path fill="#7F7378" d="M210 66c-1 3-1 3-3.18 4.352l-2.695 1.273c-.884.425-1.769.85-2.68 1.29C199 74 199 74 196 75v-3l9-3v-2c2-1 2-1 5-1"/><path fill="#84A4AF" d="M74 49c3.344.557 6.033 1.352 9 3v3h2l1 6c-2-1-2-1-3-4l-3-1c-1.687-2.562-1.687-2.562-3-5l-5 1z"/><path fill="#B4CCD4" d="m80 47 1 5-3-2c-2.841.355-5.28 1.093-8 2l1-5c3.478-1.16 5.459-.708 9 0"/><path fill="#6C3622" d="m114 196 3 1q1.546 3.48 3 7a100 100 0 0 0 3 3v3c-2.942-1.05-3.893-1.815-5.484-4.566l-1.266-2.996-1.297-3.004C114 197 114 197 114 196"/><path fill="#ADB1B1" d="M253 196h2q.755 2.186 1.5 4.375l.844 2.46C258 205 258 205 258 207l2 1h-3l-1 3-.367-1.898-.508-2.477-.492-2.46c-.5-2.352-.5-2.352-2.633-4.165.375-2.125.375-2.125 1-4"/><path fill="#A7735F" d="m85 125 2 1q3.511-.421 7-1l-1 2c-2.751.856-5.53 1.473-8.336 2.121-2.756.91-3.76 1.782-5.664 3.879h-2v-2c1.75-1.508 1.75-1.508 4-3.125l2.25-1.633z"/><path fill="#8392B8" d="M172 97c2.867.573 3.861.861 6 3a120 120 0 0 1 2.125 6.125l1.07 3.32L182 112h-2c-2.034-3.73-3-5.67-3-10l-1.937-.812C173 100 173 100 172 97"/><path fill="#39747D" d="M250 52c3.375.547 5.082 1.055 8 3v2l-7-2-1 1c-2.02.072-4.042.084-6.062.063l-3.348-.028L238 56v-1l2.371-.148 3.066-.227c1.01-.07 2.02-.14 3.06-.21L249 54z"/><path fill="#678DB2" d="M84 260c2.296 3.445 2.54 5.938 3 10h-3c-2.357-2.532-3-3.472-3-7h3z"/><path fill="#3497B3" d="M260 215c2.075 3.112 2.71 5.33 3.563 8.938l.753 3.152L265 230q.495 2.001 1 4h-3v-8h-2z"/><path fill="#835746" d="m176 144 2 1c-1.493 3.8-3.624 5.75-7 8h-4l1-3 2-1 2-3v2h2z"/><path fill="#633323" d="m205 138 5 1 1 5-5 1c-1.062-2.375-1.062-2.375-2-5z"/><path fill="#694E5F" d="M171 65c1.813.188 1.813.188 4 1 2.623 3.373 3.364 5.757 3 10h-2l-1-5-3-1v-2h-2z"/><path fill="#5A3736" d="M158 64c1.791-.054 3.583-.093 5.375-.125l3.023-.07C169 64 169 64 171 66l-1 2c-2.322.407-4.657.744-7 1v-2l3-1h-9z"/><path fill="#697E88" d="m54 61 2 1-3 1a102 102 0 0 0-2 4c-1.656 1.922-1.656 1.922-3.5 3.75l-1.844 1.86C44 74 44 74 42 74v-3c1.863-1.719 1.863-1.719 4.313-3.5 2.765-2.03 5.332-4 7.687-6.5"/><path fill="#706A5D" d="M216 246h4c.289 4.905.262 8.155-3 12h-4v-2l2-1.312c2.276-1.533 2.276-1.533 2.313-4.25-.177-2.441-.177-2.441-1.313-4.438"/><path fill="#177692" d="M72 182h3l1 5h-2l-1 3h-3v-4h2z"/><path fill="#2D879D" d="m83 168 3 3c-.625 2.438-.625 2.438-2 5-3.125.813-3.125.813-6 1l1-3h3z"/><path fill="#CEBBB7" d="m187 119 1.688 1c2.615 1.131 4.493 1.157 7.312 1v4l-9-1z"/><path fill="#A4BACF" d="M270 109v2h-3v2c-2.983 1.524-5.818 2.94-9 4v-3c2.25-1.562 2.25-1.562 5-3l2.125-1.187C267 109 267 109 270 109"/><path fill="#664E56" d="M165 90c2 0 2 0 4.438 2.125 3.437 3.857 5.583 7.784 6.562 12.875-2.982-2.777-4.914-5.524-7-9l-2.187-2.187L165 92z"/><path fill="#7596CF" d="m161.625 60.938 3.04.027L167 61v1l-3.812.875c-3.042.698-4.495 1.33-7.188 3.125h-3c.375-1.937.375-1.937 1-4 2.645-1.322 4.678-1.097 7.625-1.062"/><path fill="#A3B7D1" d="M106 41c3.782 1.26 5.37 3.032 8 6 1.313 2.813 1.313 2.813 2 5l-5-2v-3h-2v-2h-2z"/><path fill="#457E8E" d="m171 42 1 2c-2.358 3.065-3.71 4.72-7.559 5.555A103 103 0 0 1 157 50c1-2 1-2 4-3a195 195 0 0 1 7 0l.375-1.937L169 43z"/><path fill="#A7C8DF" d="M42 254c10.558-.185 10.558-.185 15 1v1c-10.558 1.333-10.558 1.333-15 0z"/><path fill="#672C1A" d="M126 215h2c1.42 4.258 1.727 8.23 0 12.438L127 229h-1z"/><path fill="#7E3D2E" d="m171 212 1 3-5-1v-2l-9-1v-1c5.458-1.464 8.193-.64 13 2"/><path fill="#1F3B4C" d="M48 62h4c-1.517 4.55-5.169 6.5-9 9v-4h3z"/><path fill="#6F9CD0" d="m171 44 1 3h2c2.32 3.25 3.437 6.059 4 10h-2v-4l-1.812-.75c-2.474-1.414-3.622-2.9-5.188-5.25z"/><path fill="#4C798C" d="M66 30h5v7h-3c-2-3-2-3-2-7"/><path fill="#085270" d="m65 196 .375 1.875c.497 2.316.497 2.316 2.625 4.125-.75 1.938-.75 1.938-2 4-2.125.75-2.125.75-4 1 .672-3.806 1.727-7.352 3-11"/><path fill="#0E4D6E" d="m263 195 7 1v6h-3v-2h-2z"/><path fill="#628F9C" d="M253 193h5v8h-2l-1-5-3-1z"/><path fill="#0F637F" d="m74 187 2 1-2 3h-2l-1 5h-3l1-8 1 2 3-1z"/><path fill="#406C78" d="m214 149 8 3v3l3 2-5-1v-2l-5-1z"/><path fill="#4B3526" d="M172 105c3 2 3 2 4 5 .04 2.333.044 4.667 0 7l-1-3h-2c-.544-3.058-1-5.888-1-9"/><path fill="#7E3226" d="M153 79c1.125 3.75 1.125 3.75 0 6h2c-.573 2.867-.861 3.861-3 6-1.51-3.019-1.175-5.673-1-9z"/><path fill="#70828F" d="M66 57v4l-1.875.813C61.7 62.956 61.7 62.956 60 66h-3c1.543-3.788 4.553-9 9-9"/><path fill="#9D9583" d="m228 181 7 2v3h2l1 6c-3.893-2.512-3.893-2.512-4.437-5-.412-2.302-.412-2.302-3.125-3.687L228 182z"/><path fill="#619CC4" d="M209 117h1l.332 1.898.48 2.477.458 2.46c.605 2.523.605 2.523 3.73 4.165-3.806-.672-7.352-1.727-11-3l1.938-.625c2.411-1.27 2.411-1.27 2.812-4.5z"/><path fill="#6A3420" d="M71 121h5l1 7h-3v-3l-4-1z"/><path fill="#4C6879" d="M36 85h2c-.472 4.248-2.889 6.268-6 9h-2v-4h3l.938-1.937C35 86 35 86 36 85"/><path fill="#7393C8" d="m151 66 2 1-2 4h-4v5l-3-1c.188-2.312.188-2.312 1-5 2.5-1.75 2.5-1.75 5-3z"/><path fill="#749DCF" d="M215 56q2.656.212 5.313.438c.986.08 1.972.162 2.988.246C226 57 226 57 229 58v3c-4.847-.782-9.377-2.398-14-4z"/><path fill="#90715F" d="m239 252 6 1-1 9h-1v-8h-2v2h-2z"/><path fill="#002C4B" d="M71 201v8l-2 1-2-1c-.368-4.536-.368-4.536 1.438-6.812C70 201 70 201 71 201"/><path fill="#63331D" d="M168 182h3c-.375 1.938-.375 1.938-1 4l-2 1a113 113 0 0 0-3 5l-2-2c1.016-3.049 1.774-3.867 4-6z"/><path fill="#91513E" d="M136 174c1 3 1 3 0 7l-8 2a159 159 0 0 1 5-6h2z"/><path fill="#C6625A" d="m58 96 2 3-4 1v6l-3 1v-6l1.938-.812C57.33 99.113 57.33 99.113 58 96"/><path fill="#CA625B" d="M162 77h10c-1 2-1 2-4.437 3.188C164 81 164 81 162 80z"/><path fill="#873229" d="M174 72h2v5h-10c2.23-2.23 4.091-2.881 7-4z"/><path fill="#A4D3DD" d="m101 66 4 2v4h4l1 6h-2l-.312-1.937L107 74l-3-1c-1.687-3.562-1.687-3.562-3-7"/><path fill="#9A7162" d="M167 65c-1 2-1 2-3.18 2.852l-2.695.773-2.68.79C156 70 156 70 153 70c4.486-4.967 7.456-5.149 14-5"/><path fill="#528393" d="M81 56c3.642 1.214 3.917 2.09 5.688 5.375l1.324 2.398C89 66 89 66 89 69c-2.248-2.052-3.002-3.007-4-6l-2.062-2C81 59 81 59 81 56"/><path fill="#A2C3D9" d="M84 259h8l-2 1c-.652 2.025-.652 2.025-1 4l-4-1z"/><path fill="#7F503F" d="M252 244h1c-.387 5.712-.87 8.737-5 13-.328-4.703.317-7.136 3-11z"/><path fill="#9C8F7F" d="M107 239h2l.402 2.047 1.063 5.375c.459 2.21.968 4.393 1.535 6.578h-2l-.367-1.828-.508-2.422-.492-2.39c-.625-2.328-1.481-4.25-2.633-6.36z"/><path fill="#A88F7A" d="m217 233 3 1v5c-3 1-3 1-6 1-.187-2.375-.187-2.375 0-5z"/><path fill="#76422F" d="M129 218c2.418 2.418 3.5 4.939 5 8l2 3c-2.233-.385-3.837-.895-5.75-2.125-1.915-2.872-1.44-5.52-1.25-8.875"/><path fill="#9D6853" d="M114 200c3 1 3 1 4.168 3.066l1.02 2.496 1.042 2.504L121 210h-5l-.437-2.75c-.427-2.465-.914-4.838-1.563-7.25"/><path fill="#8B644F" d="M204 198c1 3 1 3 .223 4.824L201 208h-3c0-3.204.743-5.094 2-8h3z"/><path fill="#043E5D" d="M65 174c1 3 1 3 .063 5.188L64 181l3 1a181 181 0 0 1-4 4h-1q.174-2.157.375-4.312c.07-.801.14-1.602.21-2.426C63 177 63 177 65 174"/><path fill="#712613" d="M91 172h3c1.43 2.354 2.087 3.48 1.625 6.25L95 180v-3h-3l-1 4z"/><path fill="#9CA2AD" d="m225 61 2.125.438c2.95.577 5.908 1.079 8.875 1.562v1l-9 1v2l-4 1 1-3c2.063-.687 2.063-.687 4-1v-2z"/><path fill="#326E74" d="m143 48 1.938 1c4.074 1.33 7.814 1.167 12.062 1l-1 2h-13z"/><path fill="#225D42" d="M161 48c-5.68 2.491-8.945 3.388-15 2v-1c1.748-.365 3.498-.716 5.25-1.062l2.953-.598c2.665-.324 4.286-.195 6.797.66"/><path fill="#5F94B1" d="M135 44q3.5-.062 7 0c1 1 1 1 1.063 3.563L143 50h-2l-1-3-5-1z"/><path fill="#EDCCD0" d="M253 258h2l-1 8-5 1-1-3 5-1z"/><path fill="#55819C" d="M90 260h3c2.429 6.286 2.429 6.286 1 10-4-5.5-4-5.5-4-10"/><path fill="#E5D5CA" d="M256 238h1l-1 10-3 1c.551-3.95 1.39-7.35 3-11"/><path fill="#9D857E" d="m253 201 2 1c1.198 4.575.832 8.38 0 13h-1c-1.206-4.672-1.094-9.215-1-14"/><path fill="#E0DBD2" d="M235 181c1.875.188 1.875.188 4 1 1.522 2.891 2 4.718 2 8h2l-1 4v-3l-3-1c-1.448-2.896-2-4.742-2-8z"/><path fill="#08617E" d="m70 169 1 3 2 1-2 4h-4c.547-3.375 1.055-5.082 3-8"/><path fill="#F89993" d="M125 163c.75 1.688.75 1.688 1 4-1.75 2.75-1.75 2.75-4 5h-3l2-5h3z"/><path fill="#A2322E" d="m135 154 2 1c.414 2.504.414 2.504.625 5.563l.227 3.066L138 166l-3-1c-1.35-4.05-.62-6.792 0-11"/><path fill="#7DB7DC" d="m228 132 16 1v1c-2.102.249-4.207.473-6.312.688l-3.551.386C231 135 231 135 228 132"/><path fill="#62281C" d="M71 126h1v7l4 1-7 1-2-4 3 1z"/><path fill="#9F8275" d="M173 117h2c.178 4.548-.002 7.88-2 12h-1c-.082-4.161.018-7.947 1-12"/><path fill="#493128" d="M104 86v5h-4l-1-2h-3c2.466-3.115 4.108-3.316 8-3"/><path fill="#918778" d="m142 264.813 2.125-.043C146 265 146 265 148 267h-9l-1 3h-3c.375-1.937.375-1.937 1-4 2.229-1.114 3.53-1.165 6-1.187"/><path fill="#7E7768" d="M220 245v1l-6 2-3.25 1.188C208 250 208 250 206 249c4.91-3.927 7.74-4.432 14-4"/><path fill="#60301A" d="m114 232 5 1c-3 2-3 2-5 2v2l-6 1a91 91 0 0 1 4-4h2z"/><path fill="#E2D9CD" d="M248 209h1l1 10-1-3-9 2v-2c2.709-1.354 5.01-1.065 8-1z"/><path fill="#AFCBD2" d="m80 195 4 2h-2v3h2l-1 4-3-1z"/><path fill="#E0D9CD" d="m244 197 3 1 1 10c-3.112-4.15-3.52-6.008-4-11"/><path fill="#BBD8E3" d="M83 186h1l-1 7 3-1-1 3h-4c.875-7.875.875-7.875 2-9"/><path fill="#942F25" d="M103 186h12l-1 2c-3.473 1.158-6.36 1.069-10 1z"/><path fill="#76291C" d="m96 182 3 2c.188 3.625.188 3.625 0 7h-3z"/><path fill="#602B15" d="m153 126 3 1c.305 5.28.317 6.577-3 11z"/><path fill="#B98D81" d="M167 95c3.491 1.164 3.852 1.89 5.688 4.938l1.324 2.152C175 104 175 104 175 106c-3.702-1.234-4.312-2.894-6.133-6.21C168 98 168 98 167 95"/><path fill="#6D8AC3" d="M172 63c2.938.304 3.84.807 5.75 3.125 1.508 3.468 1.47 6.132 1.25 9.875h-1l-.937-3.312A170 170 0 0 0 175 66h-3z"/><path fill="#776353" d="m235 265 1 2h2v3h-8v-2h4z"/><path fill="#39678D" d="M30 249c4.877-.348 7.77.583 12 3-3.325 1.108-5.622.845-9 0v-2z"/><path fill="#854B3C" d="m91 236 8 3-2 1-2-1v5l-2-1v-4h-2z"/><path fill="#6F3C26" d="M105 225c1.938.375 1.938.375 4 1l1 2 3 1 1 3-5-1-1-3h-2z"/><path fill="#EEE4D7" d="m250 219 4 2v8h-2z"/><path fill="#FAF3EB" d="M253 210h1v11l-4-2 1-4 1 1z"/><path fill="#B2A9A6" d="M80 163c1.813 2 1.813 2 3 4-7.429-1-7.429-1-11-2 3.221-2.148 4.26-2.561 8-2"/><path fill="#6D3926" d="M167 144h1c-.35 8.193-.35 8.193-3.062 11.563L163 157c.72-4.609 2.313-8.672 4-13"/><path fill="#66301B" d="M152 139c-1 3-1 3-3 4-.47 3.046-.47 3.046-.625 6.563l-.227 3.628L148 156h-1c-.081-2.27-.14-4.541-.187-6.812l-.106-3.833c.293-3.355.293-3.355 1.68-5.304C150 139 150 139 152 139"/><path fill="#9E3F38" d="m139 147 4 2h-3v8l-2 1a758 758 0 0 1-.062-4.937l-.036-2.778C138 148 138 148 139 147"/><path fill="#412F3E" d="M66 136c.25 2.75.25 2.75 0 6-2 2.375-2 2.375-4 4l-1-3h2v-6c2-1 2-1 3-1"/><path fill="#4A1C10" d="m119 109 2.25 1.375A89 89 0 0 0 128 114c-2.788 1.033-3.868 1.045-6.75.063L119 113z"/><path fill="#3E7C9A" d="m253 104 5 1c-.35 3.242-.562 4.615-3.062 6.813L253 113l2-8z"/><path fill="#604D4A" d="M65 100h2v4l4 1-2 2h-3l-1 3z"/><path fill="#4883A3" d="M240 101c8.193-.473 8.193-.473 11.563 1.5L253 104c-.603-.095-1.207-.19-1.828-.29-.8-.11-1.599-.22-2.422-.335l-2.39-.352c-2.682-.026-4.087.611-6.36 1.977z"/><path fill="#354F5C" d="M36 80a56.5 56.5 0 0 1-4 7h-2c-.187-2.375-.187-2.375 0-5 3-2 3-2 6-2"/><path fill="#6996D4" d="M179 71h1l1 9-5 1z"/><path fill="#674B4A" d="M149 71h2v3l2 3c-1.375 1.5-1.375 1.5-3 3h-2c-.098-6.152-.098-6.152 0-8z"/><path fill="#8595A1" d="m55 66 2 1c-3.11 3.288-6.016 5.837-10 8 1.583-4.274 4.506-6.265 8-9"/><path fill="#1A5569" d="M84 62c4.07 2.035 5.485 6.922 7 11-4.06-1.353-4.921-3.344-7-7z"/><path fill="#205D45" d="M138 42h7l1 7-3-1-1-3c-1.997-1.685-1.997-1.685-4-3"/><path fill="#C77FB7" d="m253 266 1 2h5l-1 2h-10l1-2h4z"/><path fill="#256696" d="M61 260h10l-1 2-3-1-1 3c-3.875-1.75-3.875-1.75-5-4"/><path fill="#9A6D58" d="M247 255h3c-.373 5.35-1.996 7.51-6 11 .888-3.699 1.946-7.346 3-11"/><path fill="#AE8E79" d="m120 235-7 5-2-2 3-1v-2c2-1 2-1 6 0"/><path fill="#B39984" d="M196 212c.93 2.606 1.15 3.642.063 6.25L195 220l-4-1c1.375-2 1.375-2 3-4h2z"/><path fill="#D8746D" d="M119 182v3l-9 1c1.954-3.909 4.866-4 9-4"/><path fill="#C36356" d="m128 179 1 3-5 2v2l-4-1c2.49-2.667 4.634-4.557 8-6"/><path fill="#BA4846" d="m102 183 8 2v2l-2.875-.062c-3.032-.164-3.032-.164-5.125 1.062z"/><path fill="#A8A2A4" d="M83 167c2.486.331 3.675.613 5.313 2.563 1.036 3.673.312 6.686-.313 10.437h-1l-.312-3.687c-.45-3.724-1.472-6.23-3.688-9.313"/><path fill="#8C5E4A" d="M213 165h2q-.173 2.22-.375 4.438l-.21 2.496L214 174l-2 1c-.125-6.625-.125-6.625 1-10"/><path fill="#DA6764" d="m126 165 3 1c-.25 1.875-.25 1.875-1 4-2.062 1.25-2.062 1.25-4 2 .875-4.75.875-4.75 2-7"/><path fill="#F9F6EE" d="M217 163h4v3l2 1c-2.667 1.333-4.167.671-7 0z"/><path fill="#6D433E" d="M182 114c3 2 3 2 3.688 5.125L186 122l-3 2c-1-7.75-1-7.75-1-10"/><path fill="#976A52" d="M122 115v3h-11v-1c3.823-1.423 6.913-2.24 11-2"/><path fill="#4972AC" d="M196 74v2l-2.437.813L191 78l-1 3h-3c1.542-4.066 4.432-7 9-7"/><path fill="#294354" d="m55 69 1 3a483 483 0 0 1-3.375 3l-1.898 1.688C49 78 49 78 47 78v-2c1.75-1.727 1.75-1.727 4-3.625l2.25-1.914z"/><path fill="#E9F0EE" d="m87 53 3 1v7l-3-1c-1.125-4.75-1.125-4.75 0-7"/><path fill="#709AC9" d="m186 40-3 3h2l1 4-2.25-1.875c-2.238-1.73-4.187-2.986-6.75-4.125 5.625-2.125 5.625-2.125 9-1"/><path fill="#205E4B" d="M188 30h2c-.875 5.875-.875 5.875-2 7q-3.5.062-7 0c3-2 3-2 6-2z"/><path fill="#9E9685" d="m120 263 4 1v3l1.938.375L128 268l1 2h-4v-2l-3-1c-1.187-2.062-1.187-2.062-2-4"/><path fill="#4282AC" d="M77 263c2.798.386 3.82.801 5.75 2.938C84 268 84 268 84 270c-3 0-3 0-5.187-1.812C77 266 77 266 77 263"/><path fill="#325F8D" d="m30 253 12 2v1H30z"/><path fill="#8E8A83" d="m100 250 1 2 4-2 1 3 3 2h-7v-2h-2z"/><path fill="#9EA6B4" d="m79 229 8 5c-3.29 1.097-4.713.8-8 0z"/><path fill="#63331E" d="m147 223 2 2c-1.187 2-1.187 2-3 4-2.687.25-2.687.25-5 0l2-1v-2c2-1.625 2-1.625 4-3"/><path fill="#0A3F68" d="M38 196c2.375-.125 2.375-.125 5 0 2 2 2 2 2 5l-4-1v-2l-3-1z"/><path fill="#7F1F15" d="m118 153 2 1c-.999 2.997-1.651 4.027-4 6h-2c.313-2.375.313-2.375 1-5z"/><path fill="#A7B3C7" d="M270 119v5h-7v-2c5.875-3 5.875-3 7-3"/><path fill="#614745" d="M50 108h3l1.375 3.25c1.126 2.63 2.304 5.21 3.625 7.75-3.161-1.37-3.993-1.99-6-5-.125-2.687-.125-2.687 0-5z"/><path fill="#102D40" d="m38 85 4 1-9 8v-3q1.977-1.53 4-3z"/><path fill="#24604B" d="M214 30c1.875.25 1.875.25 4 1 1.313 1.875 1.313 1.875 2 4l-1 3c-5-5.75-5-5.75-5-8"/><path fill="#7B5B4D" d="M100 262c2.5 2.313 2.5 2.313 5 5v3h-2v-2h-2z"/><path fill="#9D9484" d="M190 250h1v6c-2.812.688-2.812.688-6 1-1.875-1.437-1.875-1.437-3-3 2-1 2-1 5.125-.062.949.35 1.898.7 2.875 1.062z"/><path fill="#C5BDA8" d="m144 248-1 3-9-1c3.991-1.996 5.7-2.195 10-2"/><path fill="#0C6A86" d="M260 211h3v9c-2.762-2.762-2.579-5.207-3-9"/><path fill="#053B56" d="M86 176v4l-5 2v-4c3-2 3-2 5-2"/><path fill="#F38885" d="M104 167h3v6l-3 1z"/><path fill="#07213A" d="M239 163h4l2 4c-3 1-3 1-6 0z"/><path fill="#6F2713" d="m82 157 4 2-1 3c-4 0-4 0-7-1z"/><path fill="#AE817A" d="m62 100 4 1-1 10h-1z"/><path fill="#5A94C8" d="m244 99 8 1 1 3-9-2z"/><path fill="#462B21" d="M129 81c1.77-.054 3.541-.093 5.313-.125l2.988-.07C140 81 140 81 143 83c-3.121 1.003-4.883.917-8 0a447 447 0 0 0-6-1z"/><path fill="#827670" d="M223 66v2c-5.75 3-5.75 3-8 3 1-3 1-3 2.875-4.187C220 66 220 66 223 66"/><path fill="#C4DEEB" d="M85 41c2.284 2.203 3.795 4.034 5 7v3l-3-1c-.73-2.066-.73-2.066-1.187-4.562-.16-.827-.318-1.653-.481-2.504z"/><path fill="#979186" d="M109 256c3.313-.25 3.313-.25 7 0 1.938 1.813 1.938 1.813 3 4v3h-2l-.625-2.437L115 258c-3.053-.898-3.053-.898-6-1z"/><path fill="#5F9DB5" d="m87 240 3 1v8l-2-1c-.594-2.649-.742-5.292-1-8"/><path fill="#886757" d="m227 232 3 1-5 6-2-4c1.813-1.562 1.813-1.562 4-3"/><path fill="#86362C" d="m161 223 3 1v3l5 1-3 2c-2.785-1.392-4.123-3.56-6-6z"/><path fill="#B8A28E" d="m231 215 6 1-1 3-6 1z"/><path fill="#61A2B4" d="M267 207v3l-7 1-1 4v-5z"/><path fill="#054678" d="M43 210c2.438.375 2.438.375 5 1l1 2h-2v2l-3-1c-.687-2.062-.687-2.062-1-4"/><path fill="#C4917B" d="m95 203 1 2h2c2.125 4.625 2.125 4.625 1 8-4-6.625-4-6.625-4-10"/><path fill="#662312" d="M127 187c-3.061 2.624-3.732 3-8 3v-3c3.053-.981 4.947-.981 8 0"/><path fill="#B87C69" d="M143 180v2c-5.625 3-5.625 3-9 3v-2c6.75-3 6.75-3 9-3"/><path fill="#952A21" d="M100 170h1l2 11-3-1c-1.187-3.062-1.187-3.062-2-6h2z"/><path fill="#E6716F" d="M107 162h2l-1 10h-1q-.29-2.218-.562-4.437l-.317-2.497L106 163z"/><path fill="#812518" d="m104 160 2 1c-1.25 3.653-1.671 4.78-5 7l1-6h2z"/><path fill="#62B0C6" d="M227 153h10v2c-3.815 1.467-6.29.433-10-1z"/><path fill="#AD7B65" d="M152 129h2l-1 8-3 1z"/><path fill="#5C97C2" d="m237 127 1 3-1 2h-9v-1h6v-2z"/><path fill="#6A96D9" d="m200 119 5 1v3l3-1 1 2h-6l-.375-1.937L202 120z"/><path fill="#622917" d="M70 108c1.255 3.766.37 5.372-1 9h-2c-.262-3.146-.248-4.618 1.5-7.312z"/><path fill="#260902" d="M119 105h7v3l-5-1 1 3-3-1z"/><path fill="#6590CD" d="m196 75 3 2c-2.972 1.899-5.515 3.355-9 4 1.245-3.736 2.634-4.188 6-6"/><path fill="#32495B" d="M59 54h2c0 3 0 3-2 5.188L57 61l-3-1a159 159 0 0 1 5-6"/><path fill="#5690BC" d="M167 49v1h-5v2h-6c2.782-4.174 6.466-3.223 11-3"/><path fill="#698E9A" d="M71 37c2.063 2.188 2.063 2.188 4 5-.25 2.813-.25 2.813-1 5-1.884-3.265-2.493-6.281-3-10"/><path fill="#C8A28F" d="M241 264c2 3 2 3 2 6h-5c1.875-4.875 1.875-4.875 3-6"/><path fill="#A79E8D" d="M216 262c-2.336 1.825-4.089 3.01-7.113 2.977-1.972-.26-3.932-.612-5.887-.977v-1a690 690 0 0 1 5.375-1.062l3.023-.598C214 261 214 261 216 262"/><path fill="#8C7C66" d="M242 247v2c-2.906 1.257-4.796 2-8 2l1-3c2.477-.908 4.336-1 7-1"/><path fill="#107395" d="M267 244h3v5l-4 1z"/><path fill="#64A6B8" d="M83 234c3 3 3 3 4 6h-3l-1 3z"/><path fill="#692E1D" d="M158 224c2.884 1.293 4.872 2.66 7 5-2.375.125-2.375.125-5 0l-2-2z"/><path fill="#BFE1E5" d="m269 202 1 4-4 2v-2l-3-1z"/><path fill="#70B8CB" d="M254 185c3 2 3 2 3.688 5.125L258 193h-2v-2h-2z"/><path fill="#E48578" d="M100 186a250 250 0 0 1 6 4v1h-6z"/><path fill="#D9DCD9" d="m239 167 2 1v4l2 1c-3.796-.542-5.472-2.201-8-5l4 1z"/><path fill="#83533E" d="m116 118-1 2h-8v-2c3.069-1.534 5.7-.55 9 0"/><path fill="#B84A43" d="M56 100h2l-2 10-3-1 1-3h2z"/><path fill="#968282" d="M51 99c.981 3.053.981 4.947 0 8h-2v-7z"/><path fill="#C2C8CC" d="M100 77h2l2 5-5 2z"/><path fill="#0D4E63" d="m91 73 2 1v2h2l2 5h-3v-2h-2z"/><path fill="#857973" d="M213 72c-2.812 2.063-2.812 2.063-6 4l-3-1c2.921-3.2 4.625-4.458 9-3"/><path fill="#2A4658" d="m62 62 2 1c-3.613 4.688-3.613 4.688-5 6h-3l1-3 3-1z"/><path fill="#C8D8DF" d="M53 63h4v3l-5 2c0-3 0-3 1-5"/><path fill="#AFBDC9" d="m59 57 2 1-2 3 2 1-4 2-2-2z"/><path fill="#BEE0E5" d="m94 57 2 4h2v5l-3-2c-.687-3.625-.687-3.625-1-7"/><path fill="#4BA2C5" d="M76 266c1.938.313 1.938.313 4 1l1 3h-5z"/><path fill="#7A5D4E" d="m226 262 3 2-2 1-2 3-3-3z"/><path fill="#4B8EAB" d="M89 249h1v7h-3v-5h2z"/><path fill="#83443D" d="M80 227h3v2h2l1 5c-4.875-4.75-4.875-4.75-6-7"/><path fill="#61402B" d="m233 221 1 2c-1.375 2-1.375 2-3 4h-2l1-5z"/><path fill="#2F96B3" d="M268 218h1c.125 2.375.125 2.375 0 5l-2 2-3-1v-3h4z"/><path fill="#41A2C2" d="M261 196c3 2 3 2 3.688 4.625L265 203l-4-2z"/><path fill="#C55B50" d="m95 172 5 4c-1 2-1 2-3 3-2-3-2-3-2-7"/><path fill="#B14640" d="m113 157-2 4h-2q-2.007.47-4 1c4.839-5 4.839-5 8-5"/><path fill="#CD9E87" d="m161 155 1 3c-1.312 2.188-1.312 2.188-3 4h-2c.564-3.27 1.5-4.826 4-7"/><path fill="#847675" d="M100.125 83.938 103 85c-2.354 1.43-3.48 2.087-6.25 1.625L95 86v-2c2-1 2-1 5.125-.062"/><path fill="#BCB0AE" d="M211 72c3.125-.187 3.125-.187 6 0-2.312 2.063-2.312 2.063-5 4l-3-1z"/><path fill="#8DADCC" d="m188 66 7 1 1 4c-3.375-1.186-5.647-2.276-8-5"/><path fill="#C3B7B4" d="M210 64v2l-5 1v2l-3 1v-3c5.75-3 5.75-3 8-3"/><path fill="#7EA3D1" d="m181 59 2 1v2h3l2 4c-2.915-1.074-4.778-1.778-7-4z"/><path fill="#D6E2E9" d="M66 55c0 2 0 2-1.812 4.125C62 61 62 61 59 61c1.475-3.403 2.856-6 7-6"/><path fill="#67A4D7" d="M95 51c2.438.688 2.438.688 5 2 .813 2.625.813 2.625 1 5a159 159 0 0 1-6-5z"/><path fill="#2F5B44" d="m181 37-1 3-8-1c3.435-2.29 4.985-2.178 9-2"/></svg>