<?xml version="1.0" encoding="UTF-8"?>
<svg version="1.1" xmlns="http://www.w3.org/2000/svg" width="32" height="32">
<path d="M0 0 C10.56 0 21.12 0 32 0 C32 10.56 32 21.12 32 32 C21.44 32 10.88 32 0 32 C0 21.44 0 10.88 0 0 Z " fill="#18A906" transform="translate(0,0)"/>
<path d="M0 0 C1.98 0 3.96 0 6 0 C6 3.96 6 7.92 6 12 C4.35 12 2.7 12 1 12 C1 12.66 1 13.32 1 14 C-0.32 14 -1.64 14 -3 14 C-3.33 12.68 -3.66 11.36 -4 10 C-4.33 11.98 -4.66 13.96 -5 16 C-6.65 16 -8.3 16 -10 16 C-10 12.37 -10 8.74 -10 5 C-8.35 5 -6.7 5 -5 5 C-5 4.01 -5 3.02 -5 2 C-3.35 2 -1.7 2 0 2 C0 1.34 0 0.68 0 0 Z " fill="#F2FAF1" transform="translate(18,8)"/>
</svg>
