<svg xmlns="http://www.w3.org/2000/svg" width="222" height="147" fill="none" viewBox="0 0 222 147"><path fill="#000" d="M221.343 139.591c1.853 3.172-.434 7.158-4.108 7.158h-41.336a4.76 4.76 0 0 1-4.105-2.353L91.583 7.503C89.724 4.33 92.012.34 95.688.34h41.567c1.691 0 3.255.897 4.108 2.358zM110.03 102.38a4.76 4.76 0 0 1-.183 5.145l-23.001 33.109c-1.983 2.853-6.256 2.689-8.013-.309L1.008 7.503C-.85 4.33 1.437.34 5.113.34h41.59c1.679 0 3.233.884 4.09 2.328zm-72.115 35.888c1.881 3.172-.405 7.185-4.092 7.185H5.304a4.76 4.76 0 0 1-4.758-4.757V92.621c0-4.838 6.382-6.588 8.85-2.427z"/></svg>