<svg xmlns="http://www.w3.org/2000/svg" width="40" height="40" fill="none" viewBox="0 0 40 40"><g clip-path="url(#msfton_svg-a)"><path fill="#D9D9D9" d="M20 0c11.046 0 20 8.954 20 20s-8.954 20-20 20S0 31.046 0 20 8.954 0 20 0"/><path fill="#000" d="M26 6a8 8 0 0 1 8 8v12a8 8 0 0 1-8 8H14a8 8 0 0 1-8-8V14a8 8 0 0 1 8-8z"/><path fill="#fff" d="M11.5 11.5h8.095v8.095H11.5zm8.905 0H28.5v8.095h-8.095zM11.5 20.405h8.095V28.5H11.5zm8.905 0H28.5V28.5h-8.095z"/></g><defs><clipPath id="msfton_svg-a"><path fill="#fff" d="M0 0h40v40H0z"/></clipPath></defs></svg>