<svg xmlns="http://www.w3.org/2000/svg" width="937" height="937" fill="none" viewBox="0 0 937 937"><g filter="url(#msn_svg-a)"><rect width="937" height="937" fill="#fff" rx="468.5"/><path stroke="#000" stroke-width="15" d="M421.69 250.59 105.727 604.708m662.364-279.524L105.727 604.706m320.669 89.603-321.537-89.172M430.258 247.16l-103.32 268.805m115.329 171.491L329.086 512.539M429.414 235.59l339.542 64.307m-340.401-68.17 313.39 250.369m50.158-131.616-51.017 132.903m-306.953-254.66 17.148 476.731m329.233-367.837L449.117 704.169m270.53-204.927L464.133 691.735"/><circle cx="812.642" cy="307.517" r="77.548" fill="#FFC107"/><circle cx="450.432" cy="694.272" r="68.713" fill="#2196F4"/><circle cx="434.717" cy="233.897" r="58.897" fill="#F34335"/><circle cx="434" cy="232" r="75" fill="#F34335"/><circle cx="326.741" cy="510.71" r="58.897" fill="#9C27AF"/><circle cx="104.897" cy="604.948" r="58.897" fill="#F34335"/><circle cx="741.96" cy="488.131" r="58.897" fill="#8BC349"/></g><defs><filter id="msn_svg-a" width="945" height="945" x="-4" y="-4" color-interpolation-filters="sRGB" filterUnits="userSpaceOnUse"><feFlood flood-opacity="0" result="BackgroundImageFix"/><feGaussianBlur in="BackgroundImageFix" stdDeviation="2"/><feComposite in2="SourceAlpha" operator="in" result="effect1_backgroundBlur_1103_578"/><feBlend in="SourceGraphic" in2="effect1_backgroundBlur_1103_578" result="shape"/></filter></defs></svg>