<svg xmlns="http://www.w3.org/2000/svg" width="40" height="40" fill="none" viewBox="0 0 40 40"><g clip-path="url(#mson_svg-a)"><path fill="#D9D9D9" d="M20 0c11.046 0 20 8.954 20 20s-8.954 20-20 20S0 31.046 0 20 8.954 0 20 0"/><path fill="#000" d="M26 6a8 8 0 0 1 8 8v12a8 8 0 0 1-8 8H14a8 8 0 0 1-8-8V14a8 8 0 0 1 8-8z"/><path fill="#fff" d="m27.54 21.487.932 2.646.914-2.646H30l-1.393 3.848c-.211.594-.505.856-1.03.856a1.24 1.24 0 0 1-.581-.128l.166-.473c.14.064.262.096.377.096.275 0 .384-.16.53-.543l.09-.237-1.265-3.42zm-2.212-.064c.824 0 1.38.581 1.38 1.674v.218h-2.23c.038.786.396 1.118.881 1.118.365 0 .64-.179.85-.562l.46.268c-.293.486-.677.755-1.322.755-.882 0-1.483-.582-1.483-1.733 0-1.131.6-1.738 1.464-1.738m-8.297-.007c.742 0 1.15.422 1.15 1.061v1.688c0 .14.064.204.205.204q.058.002.115-.006v.441a1 1 0 0 1-.243.038c-.338 0-.55-.115-.639-.358-.281.237-.633.403-.965.403-.71 0-1.036-.435-1.036-.914 0-.518.326-.927 1.298-1.15l.665-.154v-.147c0-.332-.128-.613-.62-.613-.32 0-.659.185-.953.53l-.39-.332c.34-.422.85-.69 1.413-.69m-5.452-1.125c.665 0 1.265.307 1.566.972l-.505.262c-.205-.441-.588-.71-1.061-.71-.448 0-.812.199-.812.665 0 .441.435.595.997.78.933.307 1.477.563 1.477 1.368 0 .799-.697 1.253-1.528 1.253-.754 0-1.4-.34-1.713-.96l.499-.293c.23.466.67.729 1.214.729.48 0 .889-.205.889-.684 0-.492-.467-.652-1.08-.844-.85-.268-1.388-.562-1.388-1.304 0-.786.659-1.234 1.445-1.234m3.03.275v.92h.626v.474h-.626v2.07c0 .237.115.34.37.34.103 0 .154 0 .256-.014v.442c-.14.025-.262.044-.384.044-.594 0-.856-.249-.856-.715V21.96h-.55v-.473h.55v-.92zm8.443-.217v3.688c0 .224.096.313.313.313q.104 0 .218-.019v.467a1.3 1.3 0 0 1-.352.044c-.543 0-.793-.268-.793-.728V20.35zm-2.384 1.067c.595 0 .978.365.978 1.055v2.352h-.62v-2.378c0-.364-.217-.55-.518-.55q-.443 0-.837.423v2.505h-.62v-3.336h.62v.345a1.4 1.4 0 0 1 .997-.416M16.98 23.27c-.575.147-.754.37-.754.684 0 .262.172.492.537.492.287 0 .568-.147.818-.358v-.965zm8.341-1.38c-.434 0-.76.287-.83.977h1.623c-.051-.684-.365-.978-.793-.978m-3.62-7.008c.37 0 .633.134.882.339v-.275h.607v3.375c0 .825-.556 1.33-1.438 1.33-.48 0-.978-.167-1.24-.34l.25-.479c.274.18.594.314.958.314.646 0 .844-.346.844-.915v-.242c-.25.21-.512.351-.876.351-.71 0-1.355-.48-1.355-1.726 0-1.24.646-1.732 1.368-1.732m-5.299 0c.889 0 1.47.62 1.47 1.739 0 1.118-.581 1.732-1.47 1.732-.888 0-1.47-.614-1.47-1.732 0-1.119.582-1.739 1.47-1.739m8.782-.006c.742 0 1.151.422 1.151 1.06v1.688c0 .14.064.205.205.205q.057.002.115-.007v.441a1 1 0 0 1-.243.039c-.34 0-.55-.115-.64-.358-.28.236-.632.403-.965.403-.71 0-1.035-.435-1.035-.915 0-.517.326-.926 1.298-1.15l.664-.153v-.147c0-.333-.128-.614-.62-.614-.32 0-.658.185-.952.53l-.39-.332c.339-.422.85-.69 1.413-.69m-13.902-1.068.978 3.35.985-3.35h1.035v4.475h-.626V14.32l-1.183 3.963h-.46l-1.183-3.976.007 3.976h-.588v-4.475zm8.738 1.036c.083 0 .153.013.198.025v.57a.6.6 0 0 0-.198-.026c-.294 0-.582.134-.895.62v2.25h-.613v-3.337h.613v.537c.236-.416.588-.64.895-.64m8.802.032c.594 0 .977.364.977 1.054v2.353h-.62v-2.378c0-.364-.217-.55-.517-.55-.294 0-.576.14-.838.422v2.506h-.62v-3.337h.62v.345a1.4 1.4 0 0 1 .997-.415m-3.689 1.853c-.575.147-.754.371-.754.684 0 .262.173.492.537.492.288 0 .569-.146.818-.357v-.966zm-8.73-1.38c-.5 0-.857.396-.857 1.272 0 .875.357 1.265.856 1.265.505 0 .857-.39.857-1.265 0-.876-.352-1.272-.857-1.272m5.375.006c-.448 0-.831.345-.831 1.266 0 .914.383 1.259.83 1.259.307-.006.518-.115.787-.345v-1.828c-.269-.237-.473-.352-.786-.352"/></g><defs><clipPath id="mson_svg-a"><path fill="#fff" d="M0 0h40v40H0z"/></clipPath></defs></svg>