<svg xmlns="http://www.w3.org/2000/svg" width="64" height="65" fill="none" viewBox="0 0 64 65"><g clip-path="url(#multiple_svg-a)"><rect width="30.476" height="30.476" y=".304" fill="#F7931A" rx="15.238"/><rect width="29.476" height="29.476" x=".5" y=".804" stroke="#070B14" stroke-opacity=".15" rx="14.738"/><path fill="#fff" d="M21.956 13.37c.303-2.027-1.24-3.117-3.352-3.844l.685-2.747-1.672-.417-.667 2.675c-.44-.11-.891-.213-1.34-.316l.672-2.692-1.671-.417-.686 2.746a55 55 0 0 1-1.067-.25l.002-.01-2.306-.575-.445 1.786s1.24.284 1.214.302c.678.169.8.617.78.972l-1.877 7.526c-.083.205-.293.514-.766.397.017.024-1.215-.303-1.215-.303l-.83 1.914 2.175.542c.405.102.802.208 1.193.308l-.692 2.778 1.67.417.685-2.75q.684.186 1.333.347l-.683 2.736 1.672.416.692-2.773c2.851.54 4.995.322 5.898-2.257.727-2.076-.037-3.274-1.537-4.055 1.093-.252 1.916-.97 2.135-2.455m-3.82 5.358c-.518 2.076-4.014.954-5.147.672l.918-3.68c1.133.283 4.768.842 4.228 3.008m.516-5.387c-.471 1.888-3.38.929-4.325.694l.833-3.339c.944.235 3.983.675 3.492 2.645"/></g><g clip-path="url(#multiple_svg-b)"><g clip-path="url(#multiple_svg-c)"><rect width="30.476" height="30.476" x="33.524" y=".304" fill="#fff" rx="15.238"/><path fill="#345D9D" d="M48.762.304A15.238 15.238 0 1 0 64 15.542 15.194 15.194 0 0 0 48.85.304zm.258 15.754-1.586 5.35h8.486a.426.426 0 0 1 .442.413v.14l-.737 2.547a.55.55 0 0 1-.554.405H42.084l2.177-7.416-2.436.738.554-1.697 2.435-.738 3.062-10.405a.56.56 0 0 1 .554-.405h3.284a.427.427 0 0 1 .442.413v.14l-2.582 8.781 2.435-.738-.517 1.771z"/></g><rect width="29.476" height="29.476" x="34.024" y=".804" stroke="#070B14" stroke-opacity=".15" rx="14.738"/></g><g clip-path="url(#multiple_svg-d)"><rect width="30.476" height="30.476" y="33.828" fill="#627EEA" rx="15.238"/><rect width="29.476" height="29.476" x=".5" y="34.328" stroke="#070B14" stroke-opacity=".15" rx="14.738"/><path fill="#fff" fill-opacity=".602" d="M15.712 37.637v8.448l7.14 3.19z"/><path fill="#fff" d="M15.713 37.637 8.572 49.275l7.14-3.19z"/><path fill="#fff" fill-opacity=".602" d="M15.712 54.75v5.74l7.145-9.885z"/><path fill="#fff" d="M15.713 60.49v-5.742l-7.141-4.143z"/><path fill="#fff" fill-opacity=".2" d="m15.712 53.421 7.14-4.146-7.14-3.188z"/><path fill="#fff" fill-opacity=".602" d="m8.572 49.275 7.14 4.146v-7.334z"/></g><g clip-path="url(#multiple_svg-e)"><rect width="30.476" height="30.476" x="33.524" y="33.828" fill="#000" rx="15.238"/><rect width="29.476" height="29.476" x="34.024" y="34.328" stroke="#fff" stroke-opacity=".15" rx="14.738"/><path fill="url(#multiple_svg-f)" d="M42.331 52.922a.62.62 0 0 1 .44-.186h15.19c.276 0 .415.342.219.541l-3.002 3.061a.62.62 0 0 1-.439.185H39.55c-.276 0-.415-.34-.22-.54z"/><path fill="url(#multiple_svg-g)" d="M42.331 41.487a.62.62 0 0 1 .44-.185h15.19c.276 0 .415.341.219.541l-3.002 3.06a.62.62 0 0 1-.439.186H39.55c-.276 0-.415-.341-.22-.541z"/><path fill="url(#multiple_svg-h)" d="M55.178 47.168a.62.62 0 0 0-.439-.185H39.55c-.276 0-.415.341-.22.54l3.002 3.061a.62.62 0 0 0 .44.186h15.19c.276 0 .415-.342.219-.541z"/></g><defs><clipPath id="multiple_svg-a"><rect width="30.476" height="30.476" y=".304" fill="#fff" rx="15.238"/></clipPath><clipPath id="multiple_svg-b"><rect width="30.476" height="30.476" x="33.524" y=".304" fill="#fff" rx="15.238"/></clipPath><clipPath id="multiple_svg-c"><rect width="30.476" height="30.476" x="33.524" y=".304" fill="#fff" rx="15.238"/></clipPath><clipPath id="multiple_svg-d"><rect width="30.476" height="30.476" y="33.828" fill="#fff" rx="15.238"/></clipPath><clipPath id="multiple_svg-e"><rect width="30.476" height="30.476" x="33.524" y="33.828" fill="#fff" rx="15.238"/></clipPath><linearGradient id="multiple_svg-f" x1="56.508" x2="45.668" y1="39.483" y2="59.843" gradientUnits="userSpaceOnUse"><stop stop-color="#00FFA3"/><stop offset="1" stop-color="#DC1FFF"/></linearGradient><linearGradient id="multiple_svg-g" x1="51.912" x2="41.072" y1="37.027" y2="57.386" gradientUnits="userSpaceOnUse"><stop stop-color="#00FFA3"/><stop offset="1" stop-color="#DC1FFF"/></linearGradient><linearGradient id="multiple_svg-h" x1="54.196" x2="43.355" y1="38.247" y2="58.607" gradientUnits="userSpaceOnUse"><stop stop-color="#00FFA3"/><stop offset="1" stop-color="#DC1FFF"/></linearGradient></defs></svg>