<svg xmlns="http://www.w3.org/2000/svg" width="40" height="40" fill="none" viewBox="0 0 40 40"><g clip-path="url(#muon_svg-a)"><path fill="#CFCFCF" d="M20 0c11.046 0 20 8.954 20 20s-8.954 20-20 20S0 31.046 0 20 8.954 0 20 0"/><path fill="#100F0D" d="M26 6a8 8 0 0 1 8 8v12a8 8 0 0 1-8 8H14a8 8 0 0 1-8-8V14a8 8 0 0 1 8-8z"/><path fill="#fff" d="M25.564 14.75c2.913 0 4.436 1.698 4.436 4.949v5.563h-2.167V19.7c0-2.006-.805-2.972-2.27-2.972-1.463 0-2.269.966-2.269 2.972v5.563h-2.167V19.7c0-2.006-.805-2.972-2.27-2.972-1.463 0-2.269.966-2.269 2.972v2.181c0 2.43-1.17 3.382-3.514 3.382H10v-1.976h3.075c.922 0 1.347-.366 1.347-1.406V19.7c0-3.25 1.522-4.949 4.436-4.949 1.523 0 2.68.542 3.367 1.581.718-1.04 1.816-1.581 3.339-1.581"/></g><defs><clipPath id="muon_svg-a"><path fill="#fff" d="M0 0h40v40H0z"/></clipPath></defs></svg>