<svg xmlns="http://www.w3.org/2000/svg" width="64" height="65" fill="none" viewBox="0 0 64 65"><g clip-path="url(#near_svg-a)"><rect width="64" height="64" y=".304" fill="#fff" rx="32"/><path fill="#fff" d="M32 64.304c17.673 0 32-14.327 32-32s-14.327-32-32-32-32 14.327-32 32 14.327 32 32 32"/><path fill="#000" d="m42.317 16.918-7.22 10.714c-.499.73.461 1.612 1.152.998l7.104-6.182c.192-.154.461-.039.461.23v19.315c0 .27-.345.384-.499.192L21.811 16.457c-.691-.844-1.69-1.305-2.803-1.305h-.768c-1.997 0-3.648 1.65-3.648 3.686v27.187a3.687 3.687 0 0 0 3.686 3.687 3.7 3.7 0 0 0 3.15-1.767l7.218-10.713c.5-.73-.46-1.613-1.152-.999l-7.104 6.144c-.192.154-.46.039-.46-.23V22.87c0-.269.345-.384.499-.192l21.504 25.728a3.6 3.6 0 0 0 2.803 1.306h.768a3.687 3.687 0 0 0 3.686-3.687V18.838a3.687 3.687 0 0 0-3.686-3.686 3.72 3.72 0 0 0-3.187 1.766"/></g><rect width="63" height="63" x=".5" y=".804" stroke="#070B14" stroke-opacity=".15" rx="31.5"/><defs><clipPath id="near_svg-a"><rect width="64" height="64" y=".304" fill="#fff" rx="32"/></clipPath></defs></svg>