<svg xmlns="http://www.w3.org/2000/svg" width="40" height="40" fill="none" viewBox="0 0 40 40"><g clip-path="url(#nflxon_svg-a)"><path fill="#FACED0" d="M20 0c11.046 0 20 8.954 20 20s-8.954 20-20 20S0 31.046 0 20 8.954 0 20 0"/><path fill="#E50914" d="M26 6a8 8 0 0 1 8 8v12a8 8 0 0 1-8 8H14a8 8 0 0 1-8-8V14a8 8 0 0 1 8-8z"/><path fill="#fff" d="m14.773 10.5 6.61 18.685c1.857.047 3.844.315 3.844.315l-6.72-19zm6.72 0v7.261l3.734 10.553V10.5zm-6.72 1.188V29.5a42 42 0 0 1 3.733-.315V22.24z"/></g><defs><clipPath id="nflxon_svg-a"><path fill="#fff" d="M0 0h40v40H0z"/></clipPath></defs></svg>