<svg width="64" height="65" viewBox="0 0 64 65" fill="none" xmlns="http://www.w3.org/2000/svg">
<rect y="0.303711" width="64" height="64" rx="32" fill="#050708"/>
<rect x="0.5" y="0.803711" width="63" height="63" rx="31.5" stroke="white" stroke-opacity="0.15"/>
<path d="M52.376 40.169C52.3772 34.9233 52.3772 29.6777 52.376 24.4322C52.3972 23.8959 52.1279 23.3621 51.6974 23.0459C45.4465 18.4787 39.1956 13.9107 32.9446 9.34203C32.7555 9.1942 32.537 9.08858 32.3037 9.03227C32.0704 8.97596 31.8278 8.97027 31.5921 9.01557C31.3008 9.0727 31.0383 9.21844 30.8044 9.39379C24.598 13.9301 18.3912 18.4662 12.1842 23.0021C11.9522 23.1634 11.7629 23.3786 11.6326 23.6294C11.5023 23.8801 11.435 24.1587 11.4364 24.4413C11.4327 29.6856 11.4327 34.9296 11.4364 40.1734C11.4282 40.7414 11.723 41.2927 12.19 41.6126C18.3965 46.1466 24.6016 50.6816 30.8056 55.2176C31.3992 55.7255 32.3306 55.7656 32.9434 55.2706C39.1744 50.7209 45.403 46.169 51.6293 41.6149C52.0983 41.299 52.4016 40.7379 52.3755 40.1692" fill="white"/>
<path d="M29.7442 12.7696C29.9088 12.5831 30.0757 12.2923 30.3651 12.331C31.3494 12.3368 32.336 12.3156 33.32 12.3415C33.4905 12.4474 33.6211 12.6062 33.7668 12.7426C33.7631 13.7583 33.7631 14.7743 33.7668 15.7905C33.4739 15.794 33.1801 15.8071 32.8872 15.787C32.8695 15.7152 32.8343 15.5741 32.8173 15.5025C32.8173 14.744 32.883 13.9845 32.8196 13.2271C32.0963 13.2282 31.3734 13.2282 30.651 13.2271C30.6475 13.4822 30.6463 13.7387 30.644 13.9938C30.3395 13.9938 30.0338 13.9938 29.7281 13.9915C29.7302 13.5855 29.6854 13.1728 29.7442 12.7696Z" fill="#050708"/>
<path d="M27.2901 14.0089C27.6229 13.9961 27.9556 13.9961 28.2896 14.0042C28.2942 15.4094 28.3001 16.8134 28.2861 18.2174C27.9685 18.2244 27.6511 18.2244 27.3347 18.222C27.229 16.823 27.3135 15.4129 27.2901 14.0089Z" fill="#050708"/>
<path d="M35.7547 15.5187C36.6408 15.507 37.5255 15.5105 38.4111 15.5163C38.4158 15.8409 38.4158 16.1644 38.4111 16.4887C37.525 16.498 36.6389 16.5015 35.7528 16.4864C35.7496 16.1641 35.7496 15.8398 35.7528 15.5187" fill="#050708"/>
<path d="M30.3817 15.9973C30.7391 15.9891 31.0966 15.9903 31.4543 15.9903C31.7964 16.6558 32.2257 17.2767 32.5036 17.9739C32.1756 17.9893 31.8463 17.9893 31.5182 17.9905C31.1283 17.3322 30.752 16.6663 30.3817 15.9973Z" fill="#050708"/>
<path d="M34.0315 17.1673C34.3407 17.1603 34.6499 17.1615 34.9605 17.1662C35.8023 18.472 36.6205 19.7932 37.4686 21.096C37.4686 21.4924 37.4686 21.8888 37.4616 22.2852C37.3697 22.2687 37.1888 22.2369 37.0983 22.2218C36.3787 21.1492 35.7167 20.0383 35.0052 18.961C34.9936 20.1735 35.0087 21.3861 34.9971 22.5986C34.6748 22.6045 34.3519 22.6045 34.0282 22.5986C34.0242 20.7889 34.0184 18.978 34.0315 17.1673Z" fill="#050708"/>
<path d="M37.8743 17.9022C38.2036 17.8952 38.534 17.8952 38.8633 17.9045C38.8656 18.2149 38.8656 18.5267 38.8633 18.8373C38.534 18.8454 38.2036 18.8454 37.8755 18.8396C37.8732 18.5277 37.8732 18.2153 37.8755 17.9022" fill="#050708"/>
<path d="M21.5965 18.2088C21.8563 18.2042 22.1163 18.2053 22.376 18.2077C23.0697 18.161 23.7623 18.1748 24.4563 18.2147C24.4586 18.5157 24.4563 18.8179 24.4539 19.1189C23.4279 19.735 22.442 20.4182 21.4013 21.0077C21.0944 20.8911 20.8603 20.6456 20.6099 20.4409C21.2908 20.0258 21.9575 19.5883 22.6454 19.1849C22.2972 19.1672 21.9481 19.1695 21.6 19.166C21.5939 18.8461 21.5928 18.527 21.5965 18.2088Z" fill="#050708"/>
<path d="M29.8043 18.5664C30.1231 18.5571 30.4428 18.5582 30.7604 18.5664C30.7685 18.8863 30.7685 19.2049 30.7604 19.5248C30.4417 19.5341 30.123 19.5345 29.8043 19.5259C29.7969 19.206 29.7969 18.8862 29.8043 18.5664Z" fill="#050708"/>
<path d="M25.1264 19.5026C25.6369 20.2763 26.1319 21.0607 26.6491 21.8297C27.1654 21.0514 27.6639 20.2611 28.1849 19.4862C28.1849 19.9992 28.2189 20.5176 28.1744 21.0301C27.7017 21.8402 27.1549 22.6057 26.6456 23.3937C26.1447 22.6188 25.6142 21.8603 25.1392 21.0702C25.0854 20.5502 25.1241 20.0246 25.1264 19.5026Z" fill="#050708"/>
<path d="M39.2571 19.6332C40.7891 19.6262 42.3213 19.6266 43.8536 19.6344C43.8536 19.9447 43.8536 20.2565 43.8522 20.5671C42.3211 20.5707 40.7894 20.5711 39.2571 20.5683C39.2557 20.2565 39.2548 19.944 39.2571 19.6332Z" fill="#050708"/>
<path d="M31.147 20.8466C31.455 20.8408 31.7642 20.8408 32.0737 20.8443C32.0891 22.2035 32.0737 23.5641 32.0818 24.925C31.9384 25.0614 31.7962 25.2001 31.6563 25.3389C30.5943 25.3505 29.5327 25.3389 28.4719 25.3447C28.332 25.2106 28.1886 25.0824 28.0627 24.9378C28.0086 24.5216 28.0484 24.0969 28.0473 23.6786C28.3426 23.6763 28.6389 23.6763 28.9362 23.6786C28.9443 23.9185 28.9432 24.1583 28.9397 24.3982C29.67 24.4805 30.4059 24.4215 31.1398 24.4392C31.1435 23.2419 31.1318 22.0426 31.147 20.8466Z" fill="#050708"/>
<path d="M45.9597 24.8643C45.9501 23.8383 45.9501 22.8118 45.9597 21.7847C46.2808 21.7777 46.6017 21.7765 46.924 21.7847C46.9344 22.8107 46.9344 23.8376 46.924 24.8655C46.6026 24.8709 46.2818 24.8697 45.9607 24.8655" fill="#050708"/>
<path d="M41.3844 22.5599C41.9907 22.554 42.6003 22.4598 43.2033 22.5575C43.5983 23.8452 43.9371 25.1526 44.3298 26.4426C44.0194 26.4449 43.7077 26.4449 43.3971 26.4449C43.1007 25.4443 42.8479 24.4319 42.5422 23.4334C42.3717 23.4357 42.2013 23.438 42.0306 23.4392C41.7767 24.447 41.471 25.4394 41.2086 26.4435C40.8957 26.4446 40.5829 26.4442 40.2703 26.4424C40.6553 25.1526 41.0165 23.854 41.3844 22.5599Z" fill="#050708"/>
<path d="M15.4642 23.0514C16.8612 23.0433 18.2594 23.0398 19.6562 23.0514C19.6643 23.3725 19.6643 23.6922 19.6573 24.0133C18.2582 24.0261 16.861 24.0226 15.4628 24.0145C15.4584 23.6934 15.4584 23.3704 15.4642 23.0502" fill="#050708"/>
<path d="M20.3149 23.0527C20.6325 23.0504 20.9499 23.0492 21.2686 23.0527C21.2756 23.375 21.2756 23.6981 21.2686 24.0204C20.9499 24.0239 20.6325 24.0227 20.3149 24.0204C20.3112 23.6981 20.3112 23.3771 20.3149 23.055" fill="#050708"/>
<path d="M23.826 23.0923C24.1375 23.0899 24.4504 23.0911 24.762 23.0946C24.7713 23.8408 24.7666 24.5891 24.7666 25.336C24.4502 25.3383 24.134 25.3395 23.819 25.336C23.8157 24.5898 23.8059 23.8396 23.826 23.0911" fill="#050708"/>
<path d="M48.2456 23.7628C48.6043 23.7558 48.9641 23.757 49.3227 23.7558C49.6779 24.4143 50.1095 25.0383 50.3739 25.7418C50.0475 25.7535 49.7189 25.7546 49.392 25.756C49.0054 25.094 48.6372 24.4211 48.2454 23.7628" fill="#050708"/>
<path d="M34.1068 24.5617C34.4177 24.5594 34.7286 24.5594 35.0395 24.5617C35.0465 25.5847 35.0416 26.6076 35.0416 27.6309C34.7289 27.6332 34.4172 27.6344 34.1047 27.6344C34.1047 26.6104 34.1031 25.5851 34.1068 24.5605" fill="#050708"/>
<path d="M37.387 25.8052C37.3833 25.4853 37.3833 25.1647 37.387 24.8433C37.7009 24.8387 38.0166 24.8387 38.3311 24.8468C38.3311 25.1668 38.3335 25.4865 38.3288 25.8064C38.0154 25.8075 37.6992 25.8064 37.3858 25.8064" fill="#050708"/>
<path d="M19.6398 27.2233C20.3935 26.673 21.198 26.1945 21.9717 25.6747C22.4833 25.6806 22.9935 25.6747 23.5051 25.6817C22.7454 26.225 21.9376 26.6942 21.1733 27.2303C21.9589 27.7242 22.7291 28.2416 23.5098 28.7401C22.9842 28.7495 22.4586 28.7436 21.933 28.7448C21.1744 28.2299 20.3865 27.7554 19.6398 27.2233Z" fill="#050708"/>
<path d="M45.9609 26.3307C46.2829 26.3237 46.6052 26.3226 46.9286 26.3307C46.9366 26.653 46.9356 26.9738 46.9263 27.2961C46.6052 27.3031 46.2832 27.3019 45.9621 27.2961C45.9551 26.9749 45.9551 26.6539 45.9621 26.3331" fill="#050708"/>
<path d="M12.8808 26.4627C14.4898 26.4534 16.1015 26.4499 17.7126 26.465C17.7161 26.7696 17.7161 27.0753 17.7172 27.381C16.9976 27.8525 16.278 28.3263 15.5384 28.7638C15.2257 28.6497 14.9892 28.3907 14.7222 28.2006C15.1207 27.949 15.5253 27.7056 15.9115 27.4362C14.9013 27.4316 13.8914 27.4421 12.8801 27.4304C12.8754 27.1082 12.8754 26.7856 12.8801 26.4627" fill="#050708"/>
<path d="M26.6575 27.3964C28.051 27.4023 29.4443 27.3894 30.8366 27.4023C30.8705 27.7191 30.8662 28.039 30.8238 28.3548C29.435 28.3606 28.0475 28.356 26.6601 28.3571C26.6576 28.0358 26.6567 27.7156 26.6575 27.3964Z" fill="#050708"/>
<path d="M31.7467 27.4019C32.0818 27.3949 32.4157 27.3949 32.7511 27.4066C32.7521 27.7193 32.7517 28.0313 32.7497 28.3426C32.4157 28.3519 32.0807 28.3519 31.747 28.3461C31.7437 28.031 31.7437 27.7165 31.747 27.4019" fill="#050708"/>
<path d="M36.1294 28.7497C36.0858 28.4193 36.4246 28.25 36.5986 28.0231C37.0078 28.0231 37.4168 28.0208 37.8263 28.029C37.8356 28.337 37.8356 28.645 37.8307 28.9545C37.5724 28.9591 37.3121 28.9591 37.0538 28.9626V31.1569C38.2565 31.165 39.4595 31.1522 40.6625 31.1639C40.666 31.4754 40.666 31.7872 40.6579 32.0966C39.3033 32.1059 37.9473 32.0978 36.5928 32.1013C36.42 31.8755 36.0884 31.7049 36.1306 31.377C36.1245 30.5016 36.1245 29.6259 36.1306 28.7497" fill="#050708"/>
<path d="M40.6905 28.4579C41.0221 28.4462 41.356 28.4462 41.6888 28.4579C41.6923 28.7753 41.6923 29.0928 41.6888 29.4104C41.356 29.4221 41.0244 29.4221 40.6917 29.4104C40.6882 29.0917 40.6882 28.7743 40.6917 28.4555" fill="#050708"/>
<path d="M43.8597 28.4578C45.2614 28.4389 46.6619 28.452 48.0635 28.4508C48.0659 28.7742 48.0659 29.0988 48.0621 29.422C46.6616 29.422 45.2614 29.4337 43.8606 29.4162C43.856 29.0963 43.856 28.7768 43.8606 28.4578" fill="#050708"/>
<path d="M24.4434 29.5761C25.229 29.575 26.0132 29.5761 26.7986 29.575C26.8056 29.9014 26.8056 30.2279 26.7986 30.5543C26.0141 30.5556 25.2302 30.5556 24.4467 30.5543C24.433 30.2279 24.4323 29.9018 24.4446 29.5761" fill="#050708"/>
<path d="M29.6231 29.5761C30.8555 29.575 32.0879 29.5761 33.32 29.5738C33.7677 29.5038 34.2162 29.9688 34.1595 30.4109C34.1568 31.3161 34.1564 32.2224 34.1581 33.1296C34.0005 33.3 33.8419 33.4682 33.6831 33.6375C33.275 33.6375 32.8684 33.6375 32.4603 33.6328C32.4569 33.3219 32.4565 33.0114 32.4591 32.7015C32.7142 32.698 32.9698 32.6956 33.2247 32.6921C33.2247 31.9795 33.2247 31.2658 33.227 30.5532C32.0298 30.4461 30.8236 30.5354 29.6229 30.5037C29.6199 30.1928 29.6199 29.8836 29.6229 29.5761" fill="#050708"/>
<path d="M20.938 29.863C21.5401 29.8595 22.141 29.856 22.7431 29.8653C23.1075 31.1669 23.499 32.4615 23.8437 33.7692C23.5405 33.7692 23.2374 33.7692 22.9359 33.7716C22.6267 32.7672 22.3879 31.7443 22.0692 30.7449C21.8975 30.7553 21.7259 30.7682 21.5541 30.7812C21.326 31.7879 21.0002 32.7684 20.751 33.7704C20.4394 33.7704 20.1277 33.7704 19.8182 33.7669C20.189 32.4655 20.5581 31.1623 20.9375 29.863" fill="#050708"/>
<path d="M47.204 31.039C48.2533 31.0285 49.3041 31.0178 50.352 31.0425C50.6167 31.2057 50.9151 31.4706 50.8575 31.8185C50.8575 32.5647 50.8529 33.313 50.8575 34.0599C50.8482 34.4185 50.8645 34.7771 50.854 35.1358C50.8706 35.4287 50.7906 35.7166 50.8074 36.0107C50.5087 36.0107 50.21 36.0107 49.9113 36.0072C49.9148 34.6596 49.9113 33.3109 49.9136 31.9633C49.1807 31.9433 48.4485 31.9587 47.7159 31.9528C47.7145 32.2033 47.7145 32.4537 47.71 32.7053C47.4018 32.71 47.0936 32.7115 46.7855 32.71C46.7796 32.2973 46.781 31.8834 46.782 31.4706C46.924 31.3284 47.0639 31.1847 47.2038 31.039" fill="#050708"/>
<path d="M17.3432 31.0766H18.3179C18.3203 32.1008 18.3179 33.1238 18.3179 34.147H17.3386C17.3432 33.124 17.3397 32.0998 17.3421 31.0766" fill="#050708"/>
<path d="M14.2848 31.9329C14.6047 31.9282 14.9244 31.9375 15.2432 31.9587C15.2467 32.262 15.2467 32.5658 15.2432 32.87C14.9209 32.8735 14.5989 32.8747 14.2766 32.87C14.2731 32.5571 14.2743 32.2455 14.2848 31.934" fill="#050708"/>
<path d="M25.7381 37.5453C25.7297 35.7344 25.7293 33.9234 25.7369 32.1122C26.0545 32.1075 26.3719 32.1075 26.6895 32.1145C27.4356 33.3175 28.2052 34.5074 28.9672 35.702C29.2964 36.1264 29.0989 36.6956 29.1519 37.1895C29.0413 37.1895 28.9308 37.1918 28.8215 37.1942C28.1359 36.1052 27.4198 35.0351 26.7636 33.9296C26.6449 35.1314 26.7424 36.3438 26.7037 37.5502C26.3807 37.5535 26.0589 37.5535 25.7381 37.5453Z" fill="#050708"/>
<path d="M29.9717 32.8091C30.2949 32.8021 30.6183 32.8013 30.9418 32.8067C30.9465 33.5981 30.9453 34.3896 30.9418 35.1808C30.6172 35.1866 30.2938 35.1866 29.9694 35.1784C29.964 34.3884 29.9626 33.5981 29.9694 32.8091" fill="#050708"/>
<path d="M35.8342 33.8672C36.1506 33.8649 36.468 33.8637 36.7856 33.8672C36.7915 34.1895 36.7915 34.5117 36.7856 34.8338C36.468 34.835 36.1509 34.835 35.8342 34.8338C35.8305 34.5128 35.8305 34.191 35.8342 33.8684" fill="#050708"/>
<path d="M38.9185 33.9094C39.904 33.8966 40.8894 33.9036 41.876 33.9059C41.9159 34.1939 41.9406 34.4868 41.9124 34.7785C41.8191 34.9678 41.5959 34.8925 41.429 34.9102C40.5895 34.8855 39.7475 34.9585 38.9139 34.8636C38.908 34.5444 38.908 34.227 38.9185 33.9094Z" fill="#050708"/>
<path d="M42.8943 34.0459C43.2119 34.0412 43.5328 34.02 43.8504 34.0692C43.8809 35.1815 43.8632 36.2975 43.8574 37.4112C43.5363 37.4171 43.2157 37.4171 42.8955 37.4112C42.8848 36.2899 42.8848 35.1685 42.8955 34.047" fill="#050708"/>
<path d="M34.1068 34.7048C34.4172 34.7048 34.7289 34.7025 35.0395 34.7048C35.043 35.0247 35.044 35.3456 35.0395 35.6678C34.7286 35.6725 34.4177 35.6725 34.1068 35.6678C34.1045 35.347 34.1045 35.0247 34.1068 34.7036" fill="#050708"/>
<path d="M19.1565 35.3885C20.2641 35.2686 21.3824 35.3638 22.4947 35.3285C22.7813 35.3249 23.0679 35.3378 23.3531 35.3672C23.3577 35.6907 23.3566 36.0153 23.3531 36.3385C21.954 36.3361 20.5579 36.3454 19.1611 36.3338C19.1527 36.0188 19.1527 35.7042 19.1553 35.3885" fill="#050708"/>
<path d="M12.882 36.1041C13.0338 35.956 13.1865 35.8065 13.3395 35.6585C13.744 35.6561 14.1484 35.655 14.552 35.6631C14.5567 35.9688 14.5567 36.2757 14.5543 36.5814C14.3027 36.5872 14.0523 36.5884 13.8007 36.5907C13.8065 37.3199 13.7972 38.0488 13.8065 38.778C14.9976 38.7815 16.189 38.7698 17.3801 38.7838C17.3859 39.0848 17.3859 39.3847 17.3836 39.6858C17.0884 39.6869 16.792 39.6881 16.4975 39.6881C15.4404 39.6776 14.382 39.7058 13.3262 39.6753C13.1499 39.5752 12.9722 39.4106 12.8922 39.2238C12.8645 38.1845 12.8889 37.1438 12.8831 36.1041" fill="#050708"/>
<path d="M37.5934 36.7101C37.7521 36.5608 37.9121 36.4114 38.0756 36.2656C39.1055 36.2738 40.1358 36.2656 41.1657 36.2691C41.321 36.4172 41.4761 36.5667 41.6321 36.7136C41.6333 37.733 41.6333 38.7521 41.6321 39.7708C41.3182 39.7732 41.0041 39.7708 40.6914 39.7627C40.6914 38.9055 40.6844 38.0495 40.6949 37.1923C39.9721 37.1911 39.2522 37.1923 38.5312 37.1911C38.5324 37.4521 38.5312 37.7132 38.5254 37.9741C38.2162 37.9788 37.907 37.9788 37.5987 37.9776C37.5887 37.5551 37.591 37.1331 37.5922 36.7101" fill="#050708"/>
<path d="M44.2064 38.5098C45.349 37.7655 46.5031 37.0408 47.6552 36.3132C47.9304 36.4968 48.2009 36.6896 48.469 36.8824C47.6398 37.411 46.8112 37.9382 45.9833 38.4641C47.2003 38.4769 48.4175 38.4641 49.6356 38.4711C49.638 38.7945 49.638 39.1191 49.6356 39.4423C47.8268 39.4482 46.0182 39.4482 44.2099 39.4423C44.2053 39.1306 44.2053 38.819 44.2076 38.5096" fill="#050708"/>
<path d="M31.2752 38.6942C32.4218 37.931 33.6047 37.2231 34.7511 36.4601C35.0237 36.6483 35.2932 36.84 35.5707 37.0197C34.7779 37.577 33.9363 38.0628 33.1284 38.6C34.3383 38.6212 35.5483 38.5977 36.7583 38.6128C36.7665 38.9456 36.7665 39.2795 36.7583 39.6123C34.9474 39.6228 33.1363 39.6158 31.3251 39.6158C31.2785 39.3105 31.2785 39.0013 31.2764 38.6931" fill="#050708"/>
<path d="M19.3728 37.8708C19.8761 38.6403 20.3807 39.4098 20.878 40.1814C21.4118 39.4193 21.8894 38.619 22.4185 37.853C22.429 38.3716 22.4208 38.8914 22.4255 39.41C21.8987 40.1814 21.4165 40.9833 20.8757 41.7442C20.3748 40.9798 19.8891 40.2052 19.367 39.4548C19.3619 38.9268 19.3565 38.3978 19.3728 37.8708Z" fill="#050708"/>
<path d="M24.8883 39.8455C24.8767 39.5162 24.8755 39.187 24.8942 38.8589C25.2106 38.8554 25.5291 38.8565 25.8456 38.8822C25.8526 39.2031 25.8526 39.5241 25.8456 39.8452C25.5275 39.8478 25.2087 39.849 24.8895 39.8452" fill="#050708"/>
<path d="M29.3715 40.3207C29.6926 40.3173 30.0146 40.3161 30.3357 40.3207C30.3439 41.5165 30.3357 42.7125 30.3404 43.9083C30.1124 43.9176 29.8841 43.9283 29.656 43.9493C29.583 43.9351 29.4373 43.9094 29.3643 43.8964C29.3715 42.7053 29.3585 41.513 29.3715 40.3219" fill="#050708"/>
<path d="M36.014 41.0706C36.6203 41.0589 37.2249 41.0671 37.8307 41.0636C38.2023 42.3652 38.5743 43.6669 38.9467 44.9687C38.634 44.9687 38.3211 44.9687 38.0096 44.9617C37.7437 43.9669 37.4558 42.978 37.1853 41.9844C37.016 41.9739 36.8467 41.9667 36.6774 41.9585C36.3976 42.9626 36.1185 43.9665 35.8403 44.9701C35.5276 44.9701 35.2158 44.9701 34.9043 44.9654C35.2851 43.6696 35.6637 42.3738 36.014 41.0713" fill="#050708"/>
<path d="M22.2855 43.227C23.4391 42.4862 24.5903 41.7407 25.76 41.0246C26.0293 41.214 26.301 41.3977 26.5677 41.5915C25.7306 42.1124 24.9098 42.6604 24.0643 43.1671C25.2897 43.1904 26.516 43.1636 27.7425 43.1813C27.7483 43.5036 27.7495 43.8256 27.7402 44.1479C25.9234 44.1537 24.1067 44.1621 22.29 44.1444C22.2809 43.8384 22.2821 43.5327 22.2855 43.227Z" fill="#050708"/>
<path d="M31.8139 41.2613C32.1516 41.265 32.4892 41.2446 32.824 41.2002C33.2205 41.8531 33.6882 42.5007 33.8918 43.2438C33.5754 43.2462 33.2592 43.2462 32.9441 43.2485C32.572 42.583 32.1952 41.9206 31.8139 41.2613Z" fill="#050708"/>
<path d="M45.1683 41.6595C45.4987 41.649 45.8303 41.649 46.1617 41.656C46.1631 41.9722 46.1631 42.2889 46.1617 42.6062C45.8303 42.6144 45.4997 42.6144 45.1693 42.6004C45.1634 42.2863 45.1634 41.9736 45.1693 41.6595" fill="#050708"/>
<path d="M42.7332 44.1903C43.1331 43.5472 43.561 42.9227 43.9632 42.2808C43.9749 42.757 43.9821 43.2345 43.9702 43.7118C43.9819 43.8907 43.8515 44.0294 43.768 44.174C43.325 44.829 42.9001 45.4968 42.4653 46.1561C41.942 45.3754 41.4353 44.5863 40.9178 43.8009C40.9155 43.2788 40.9109 42.7567 40.9237 42.2358C41.4316 42.9967 41.9114 43.7774 42.4312 44.531C42.5779 44.469 42.6439 44.3116 42.7343 44.1903" fill="#050708"/>
<path d="M18.1242 43.265C18.972 43.2368 19.821 43.2508 20.6701 43.2568C20.6747 43.5707 20.6948 43.8864 20.6547 44.1998C19.8126 44.2409 18.9673 44.2211 18.1253 44.2057C18.1218 43.8918 18.1218 43.5789 18.1242 43.265Z" fill="#050708"/>
<path d="M28.4603 45.3145C29.8195 45.2944 31.1778 45.3145 32.537 45.304C32.6925 45.4594 32.8479 45.6158 33.0034 45.7731C32.9975 46.8115 32.9999 47.851 33.001 48.8915C32.8647 49.0337 32.7298 49.1776 32.5965 49.3231C32.1613 49.3324 31.7262 49.3336 31.2906 49.3208C31.2965 49.0267 31.2589 48.7268 31.3293 48.4389C31.5751 48.413 31.8221 48.4223 32.0702 48.42C32.0725 47.6922 32.0702 46.9654 32.0702 46.2388C30.866 46.2318 29.6607 46.2542 28.4579 46.2271C28.4542 45.9226 28.4542 45.6184 28.4579 45.3145" fill="#050708"/>
<path d="M21.9304 45.6602C22.2478 45.6556 22.5658 45.6563 22.8841 45.6626C22.8888 45.9798 22.8892 46.2981 22.8853 46.6174C22.5654 46.6221 22.2467 46.6225 21.9292 46.6186C21.9249 46.2987 21.9249 45.9792 21.9292 45.6602" fill="#050708"/>
<path d="M38.7481 46.1738C39.1079 45.8706 39.4348 46.3759 39.7428 46.5235C39.7428 46.5518 39.7428 46.6093 39.7428 46.6376C38.9386 47.1562 38.1154 47.6465 37.3287 48.1922L37.785 48.1887C38.0271 48.1887 38.2701 48.1914 38.5142 48.1969C38.5165 48.5144 38.5165 48.833 38.5119 49.1506C37.5218 49.1648 36.5317 49.1611 35.5416 49.1529C35.5215 48.853 35.5182 48.552 35.5157 48.2533C36.5727 47.5304 37.6757 46.8775 38.7469 46.1738" fill="#050708"/>
<path d="M23.7166 47.0555C25.0019 47.0508 26.2884 47.0438 27.5735 47.059C27.5758 47.3752 27.5758 47.6919 27.5735 48.0092C26.287 48.0281 25.0017 48.0197 23.7154 48.0139C23.7096 47.6942 23.7108 47.3743 23.7154 47.0555" fill="#050708"/>
<path d="M27.1421 49.4971C27.5042 49.4936 27.8663 49.4924 28.2287 49.4994C28.5638 50.1661 29.0094 50.7801 29.2671 51.4843C28.9425 51.502 28.619 51.502 28.2947 51.5043C27.8983 50.8423 27.5277 50.1645 27.1421 49.4971Z" fill="#050708"/>
<path d="M33.5611 50.5107C33.8776 50.5084 34.1938 50.5131 34.5088 50.534C34.5146 50.8505 34.5123 51.1678 34.4724 51.4831C34.1702 51.4843 33.8688 51.4843 33.5681 51.4831C33.5565 51.1566 33.5565 50.8342 33.5609 50.5107" fill="#050708"/>
<path d="M31.3564 53.6578C31.3564 52.9193 31.3398 52.1796 31.368 51.4411C31.6868 51.4411 32.0065 51.4589 32.3241 51.4878C32.3277 52.2109 32.3277 52.9345 32.3241 53.6585C32.0014 53.6634 31.6788 53.6634 31.3564 53.6585" fill="#050708"/>
</svg>
