<?xml version="1.0" encoding="UTF-8"?>
<!-- Generator: visioncortex VTracer 0.6.12 -->
<svg version="1.1" xmlns="http://www.w3.org/2000/svg" width="32" viewBox="0 0 256 256" height="32">
  <rect width="256" height="256" fill="#111111"/>
<path d="M0 0 C84.48 0 168.96 0 256 0 C256 84.48 256 168.96 256 256 C171.52 256 87.04 256 0 256 C0 171.52 0 87.04 0 0 Z " fill="#A6FA97" transform="translate(0,0)"/>
<path d="M0 0 C84.48 0 168.96 0 256 0 C256 84.48 256 168.96 256 256 C171.52 256 87.04 256 0 256 C0 171.52 0 87.04 0 0 Z M57 53 C56.308 53.592 55.616 54.183 54.902 54.793 C37.397 70.942 25.977 97.339 25 121 C24.948 122.007 24.897 123.014 24.844 124.051 C24.582 133.663 26.058 142.638 28 152 C28.134 152.722 28.267 153.444 28.405 154.188 C29.541 159.952 31.506 164.972 34.062 170.25 C34.461 171.077 34.859 171.904 35.27 172.756 C46.772 196.038 64.45 212.483 88 223 C89.116 223.513 90.233 224.026 91.383 224.555 C95.344 226.137 99.223 227.19 103.375 228.125 C104.129 228.297 104.883 228.469 105.659 228.646 C110.766 229.783 115.761 230.784 121 231 C122.007 231.052 123.014 231.103 124.051 231.156 C133.676 231.418 142.633 229.978 152 228 C152.471 227.909 152.471 227.909 154.855 227.449 C169.193 224.182 182.885 216.447 194 207 C194.857 206.304 195.714 205.608 196.598 204.891 C217.053 187.565 228.632 161.956 231.243 135.545 C232.937 107.235 223.131 79.683 204.378 58.502 C194.197 47.405 181.698 39.163 168 33 C167.488 32.758 167.488 32.758 164.895 31.535 C127.889 15.842 86.192 27.531 57 53 Z " fill="#111111" transform="translate(0,0)"/>
<path d="M0 0 C5.61 0 11.22 0 17 0 C17 53.79 17 107.58 17 163 C11.39 163 5.78 163 0 163 C0 109.21 0 55.42 0 0 Z " fill="#1C1B1B" transform="translate(120,47)"/>
<path d="M0 0 C5.94 0 11.88 0 18 0 C18 22.11 18 44.22 18 67 C12.06 67 6.12 67 0 67 C0 44.89 0 22.78 0 0 Z " fill="#21251F" transform="translate(87,63)"/>
<path d="M0 0 C5.61 0 11.22 0 17 0 C17 21.78 17 43.56 17 66 C11.39 66 5.78 66 0 66 C0 44.22 0 22.44 0 0 Z " fill="#1C1D1B" transform="translate(153,128)"/>
<path d="M0 0 C5.61 0 11.22 0 17 0 C17 21.78 17 43.56 17 66 C11.39 66 5.78 66 0 66 C0 44.22 0 22.44 0 0 Z " fill="#1E1E1C" transform="translate(55,96)"/>
<path d="M0 0 C5.61 0 11.22 0 17 0 C17 21.45 17 42.9 17 65 C11.39 65 5.78 65 0 65 C0 43.55 0 22.1 0 0 Z " fill="#1C1C1A" transform="translate(185,96)"/>
<path d="M0 0 C5.94 0 11.88 0 18 0 C18 11.88 18 23.76 18 36 C12.06 36 6.12 36 0 36 C0 24.12 0 12.24 0 0 Z " fill="#232821" transform="translate(152,63)"/>
<path d="M0 0 C5.61 0 11.22 0 17 0 C17 11.55 17 23.1 17 35 C11.39 35 5.78 35 0 35 C0 23.45 0 11.9 0 0 Z " fill="#1A1919" transform="translate(88,159)"/>
<path d="M0 0 C0.33 0 0.66 0 1 0 C1 10.89 1 21.78 1 33 C1.66 33 2.32 33 3 33 C2.67 33.99 2.34 34.98 2 36 C1.34 36 0.68 36 0 36 C0 24.12 0 12.24 0 0 Z M4 4 C4.33 4 4.66 4 5 4 C5 13.57 5 23.14 5 33 C4.34 33 3.68 33 3 33 C2.975 29.031 2.957 25.061 2.945 21.092 C2.94 19.741 2.933 18.39 2.925 17.038 C2.912 15.1 2.907 13.161 2.902 11.223 C2.897 10.055 2.892 8.887 2.886 7.684 C3 5 3 5 4 4 Z " fill="#B4FBA6" transform="translate(105,159)"/>
<path d="M0 0 C5.28 0 10.56 0 16 0 C16 11.55 16 23.1 16 35 C15.67 35 15.34 35 15 35 C14.67 24.44 14.34 13.88 14 3 C11.03 3 8.06 3 5 3 C1.938 2.5 1.938 2.5 0 2 C0 1.34 0 0.68 0 0 Z " fill="#2D3C29" transform="translate(89,159)"/>
<path d="M0 0 C-1.651 4.292 -4.738 6.879 -8 10 C-8.99 9.67 -9.98 9.34 -11 9 C-9.548 7.494 -8.088 5.995 -6.625 4.5 C-6.219 4.082 -6.219 4.082 -4.164 1.969 C-2 0 -2 0 0 0 Z " fill="#94DA87" transform="translate(61,51)"/>
</svg>
