<svg xmlns="http://www.w3.org/2000/svg" width="64" height="65" fill="none" viewBox="0 0 64 65"><rect width="64" height="64" y=".304" fill="#fff" rx="32"/><rect width="63" height="63" x=".5" y=".804" stroke="#070B14" stroke-opacity=".15" rx="31.5"/><path fill="#0018FF" d="M46.757 49.92c2.543-.986 4.227-3.058 4.73-5.707q.026-.121.047-.242l.018-.103c.076-.459.12-.936.12-1.424l-.017-1.375c.006-8.571-.003-17.146.017-25.717 0-.724-.223-.898-.915-.895-7.088.024-14.176.015-21.266.018-.253 0-.507.035-.79.059.045.168.048.244.083.303 1.275 2.146 2.54 4.3 3.85 6.423.142.226.554.397.842.403 1.666.038 3.335-.009 5.004.026 2.838.06 5.204-.992 7.188-2.967.444-.444.827-.953 1.23-1.424l2.175 2.066c-.385.28-.685.456-.938.689-2.552 2.322-3.65 5.23-3.612 8.66.053 4.535 0 9.074.023 13.613.003.624-.15.9-.82.85-.707-.05-1.428.036-2.132-.035-.309-.03-.71-.23-.868-.477-.898-1.4-1.734-2.843-2.59-4.27-4.69-7.8-9.378-15.598-14.052-23.407-.236-.391-.51-.536-.948-.524-.81.024-1.62.03-2.429 0-4.318-.141-7.98 3.335-7.982 8.012-.006 9.025.006 18.052-.018 27.077 0 .7.227.857.88.854 7.112-.021 14.226-.012 21.34-.015.23 0 .46-.03.754-.05-.07-.203-.091-.324-.15-.421-1.219-2.04-2.452-4.068-3.65-6.117-.244-.417-.521-.573-.995-.57-1.84.02-3.68-.006-5.52.014-1.68.02-3.278.442-4.64 1.416-1.066.762-2.002 1.713-2.991 2.584-.245.215-.45.486-.783.112-.468-.527-.957-1.039-1.652-1.79.324-.206.65-.353.898-.582 2.56-2.36 3.75-5.257 3.67-8.775-.102-4.536-.014-9.074-.035-13.61 0-.568.147-.804.742-.771.71.038 1.425.038 2.134 0 .533-.03.83.173 1.107.635 5.224 8.745 10.502 17.458 15.67 26.235.701 1.187 1.422 1.796 2.664 1.752h1.54a7.6 7.6 0 0 0 1.704-.136 3 3 0 0 0 .398-.08c.07-.017.135-.04.206-.061.056-.015.111-.035.17-.05q.301-.093.589-.203z"/></svg>