<svg xmlns="http://www.w3.org/2000/svg" width="40" height="40" fill="none" viewBox="0 0 40 40"><g clip-path="url(#nowon_svg-a)"><path fill="#D4D8D9" d="M20 0c11.046 0 20 8.954 20 20s-8.954 20-20 20S0 31.046 0 20 8.954 0 20 0"/><path fill="#293E40" d="M26 6a8 8 0 0 1 8 8v12a8 8 0 0 1-8 8H14a8 8 0 0 1-8-8V14a8 8 0 0 1 8-8z"/><path fill="#fff" fill-rule="evenodd" d="M20 10c-5.6 0-10 4.4-10 10 0 2.933 1.2 5.6 3.067 7.467.666.666 1.866.666 2.666.133C16.8 26.667 18.4 26.133 20 26.133c1.733 0 3.067.534 4.267 1.467.8.667 1.866.533 2.666-.267C28.8 25.467 30 22.933 30 20c-.133-5.467-4.533-10-10-10m-.133 15.2c-3.067 0-5.067-2.267-5.067-5.067s2-5.066 5.067-5.066c3.066 0 5.066 2.266 5.066 5.066s-2 5.067-5.066 5.067" clip-rule="evenodd"/></g><defs><clipPath id="nowon_svg-a"><path fill="#fff" d="M0 0h40v40H0z"/></clipPath></defs></svg>