<svg xmlns="http://www.w3.org/2000/svg" width="300" height="300"><path fill="#F7F7F7" d="M147.427 29.609c2.073.016 4.144 0 6.218-.02 13.368-.022 26.138 2.117 38.73 6.723l2.574.924C201.123 39.521 206.562 42.278 212 46l2.578 1.508c7.566 4.475 13.724 10.032 20 16.117 1.23 1.19 2.479 2.36 3.73 3.527C241.518 70.2 243.8 72.601 245 77h2c1.51 1.97 2.86 3.91 4.188 6l1.21 1.903c12.008 19.431 18.03 41.502 17.915 64.284l-.018 3.563c-.409 29.6-11.324 58.438-31.967 80.047-2.345 2.219-4.808 4.187-7.328 6.203l-2.273 2.328c-21.965 21.524-52.763 29.088-82.554 28.97C125.285 269.966 105.926 265.04 88 254l-3.105-1.86c-5.722-3.509-5.722-3.509-7.895-5.14v-2l-2.035-.555c-4.263-2.078-7.115-5.2-10.402-8.57l-1.948-1.938c-21.603-21.844-33.025-51.576-32.93-82.062.002-2.109-.021-4.216-.046-6.324-.063-13.145 1.776-25.855 6.549-38.176l.908-2.396C41.429 93.926 47.36 84.098 55 75l2.496-3.121C63.354 64.635 69.488 58.585 77 53l2.352-1.824c19.684-14.648 43.713-21.791 68.075-21.567"/><path fill="#74D5FB" d="m179 44 2.695.586c24.84 6.312 48.496 25.82 61.618 47.445C258.541 118.823 263.34 147.893 256 178h-1c.768-9.363 1.88-18.673 3-28h-28v9c-1.203 9.91-3.678 20.428-9 29a369 369 0 0 1-5 2c-.663 2.378-.663 2.378-1 5-1.453 2.281-1.453 2.281-3.25 4.5l-1.895 2.34A92 92 0 0 1 203 209l-2.012-.621-2.675-.816-2.637-.81c-6.14-1.729-12.04-2.019-18.399-2.276-3.404-.496-4.922-.999-7.277-3.477v-3l2.125-.418c6.55-1.753 9.981-4.146 13.375-10.02A342 342 0 0 0 189 181c.512-.835 1.024-1.67 1.55-2.531 5.103-8.691 7.615-17.399 6.45-27.469l-1-2c-.2-3.51-.345-7.013-.43-10.527-.205-4.91-1.142-8.105-3.57-12.473-.555-2.273-.555-2.273-.875-4.375-1.908-9.112-7.746-15.247-15.125-20.625-12.433-7.394-24.449-9.67-38.73-7.605-2.561.664-4.844 1.545-7.27 2.605l-1.779.734c-8.863 3.745-14.446 7.107-18.338 16.336-2.06 6.833-2.13 13.531-2.195 20.618l-.088 3.107c-.078 9.402 2.304 16.877 7.15 24.893 4.096 7.925 3.314 18.296 1.125 26.75-2.316 6.407-5.273 12.096-11.312 15.5-1.176.35-2.352.7-3.563 1.062l-2 .61c-1.658.494-3.328.946-5 1.39v-2h-2l-1-2-2.344-1.344C77.316 194.586 72.956 177.098 70 165c-1.125-5.272-1-9.323-1-15H42c1.788 24.54 7.184 46.525 23 66l-1 2c-18.793-21.21-24.702-49.081-24.203-76.703C40 138 40 138 41 137c.28-1.85.522-3.705.75-5.562C44.643 112.233 52.535 94.877 65 80l2.559-3.055c16.545-19.157 41.653-33.812 67.2-35.816 15.006-.863 29.59-.62 44.241 2.871"/><path fill="#ACACAC" d="M180 103c7.723 6.488 11.76 13.006 13.508 22.922.388 2.097.388 2.097 1.512 3.805 1.52 3.525 1.412 7.095 1.542 10.898-.02 5.351-.02 5.351 1.438 10.375 1.51 13.051-3.718 23.133-10.062 34.125l-1.283 2.227c-2.686 4.488-4.814 7.768-10.014 9.378l-2.391.458-2.422.48L170 198c1.309 3.122 1.309 3.122 4 5 2.103.132 4.207.23 6.313.313 6.453.385 11.904 1.79 17.945 4.042 2.656.866 2.656.866 4.887 0 2.13-1.556 3.716-3.213 5.417-5.23l1.754-2.055c3.287-3.766 3.287-3.766 5.184-8.257L216 190l3-1c-4.048 13.936-17.409 24.521-29.732 31.3-19.605 10.38-41.925 13.35-63.46 7.09C112.104 222.63 98.65 214.954 89 204v-2l3 1v2h2v2c7.778-2.296 13.904-4.187 17.922-11.57L113 193l1.016-2.242c3.787-10.227 3.66-20.918-.835-30.746a235 235 0 0 0-3.333-6.465c-3.344-6.42-3.031-12.168-3.035-19.297l-.038-3.21c-.018-9.746 1.389-18.932 7.225-27.04 3.112-2.507 6.417-4.255 10-6l2.145-1.18c17.59-9.506 38.41-5.632 53.855 6.18"/><path fill="#070809" d="m179 44 2.695.586c24.84 6.312 48.496 25.82 61.618 47.445C258.541 118.823 263.34 147.893 256 178h-1c.768-9.363 1.88-18.673 3-28h-28v9c-.437 3.066-.437 3.066-1 5.563l-.562 2.566L228 169h-1l.032-2.795q.05-5.19.078-10.382.015-2.237.04-4.472c.092-8.03.083-15.562-2.15-23.351l-.824-3.082c-3.4-10.753-8.704-19.535-16.176-27.918v-2l-1.773-.797c-2.327-1.257-3.934-2.641-5.852-4.453-4.417-3.963-9.233-6.83-14.375-9.75l-2.367-1.54c-3.119-1.73-6.134-2.637-9.57-3.585l-3.59-1.008c-7.16-1.788-13.872-2.05-21.223-2.055l-3.133-.037C135.533 71.755 126.642 73.697 117 78l-2.02.867c-19.278 8.874-33.048 25.76-40.294 45.353-1.677 4.981-2.207 9.425-1.8 14.643C73 141 73 141 72 144c-.652 12.11-.325 23.876 4.75 35.125C78 182 78 182 77 185c-2.899-5.695-4.755-11.315-6.25-17.5l-.53-2.119C68.962 159.94 69 155.84 69 150H42c1.788 24.54 7.184 46.525 23 66l-1 2c-18.793-21.21-24.702-49.081-24.203-76.703C40 138 40 138 41 137c.28-1.85.522-3.705.75-5.562C44.643 112.233 52.535 94.877 65 80l2.559-3.055c16.545-19.157 41.653-33.812 67.2-35.816 15.006-.863 29.59-.62 44.241 2.871"/><path fill="#F2F2F2" d="M147.427 29.609c2.073.016 4.144 0 6.218-.02 13.368-.022 26.138 2.117 38.73 6.723l2.574.924C201.123 39.521 206.562 42.278 212 46l2.578 1.508c7.566 4.475 13.724 10.032 20 16.117 1.23 1.19 2.479 2.36 3.73 3.527C241.518 70.2 243.8 72.601 245 77h2c1.51 1.97 2.86 3.91 4.188 6l1.21 1.903c12.008 19.431 18.03 41.502 17.915 64.284l-.018 3.563c-.409 29.6-11.324 58.438-31.967 80.047-2.345 2.219-4.808 4.187-7.328 6.203l-2.273 2.328c-21.965 21.524-52.763 29.088-82.554 28.97C125.285 269.966 105.926 265.04 88 254l-3.105-1.86c-5.722-3.509-5.722-3.509-7.895-5.14v-2l-2.035-.555c-4.263-2.078-7.115-5.2-10.402-8.57l-1.948-1.938c-21.603-21.844-33.025-51.576-32.93-82.062.002-2.109-.021-4.216-.046-6.324-.063-13.145 1.776-25.855 6.549-38.176l.908-2.396C41.429 93.926 47.36 84.098 55 75l2.496-3.121C63.354 64.635 69.488 58.585 77 53l2.352-1.824c19.684-14.648 43.713-21.791 68.075-21.567M79 66l-2.43 2.004C66.076 76.88 58.06 87.704 52 100l-1.07 1.895c-5.49 9.921-8.201 21.566-9.57 32.726C41 137 41 137 40 138c-1.426 23.137 2.866 44.591 13.5 65.125l1.077 2.081C58.296 212.06 62.897 217.182 69 222l1.813 2.312c8.259 10.147 20.866 18.876 32.98 23.653C106 249 106 249 107.367 250.469c2.507 2.35 5.328 3.026 8.57 4.093l3.715 1.254c9.769 2.854 19.529 3.543 29.66 3.496l3.562-.003c8.7-.096 16.744-.95 25.126-3.309v-2l3.914-.742c5.166-1.154 9.711-3.081 14.461-5.383l2.522-1.215c24.788-12.246 42.861-33.832 52.939-59.215 1.072-3.172 1.728-6.132 2.164-9.445h2c7.136-29.267 3.066-58.94-12-85-14.797-23.219-36.019-39.313-62-48l-2.957-1.04C145.868 33.486 104.59 42.84 79 66"/><path fill="#141414" d="M147.427 29.609c2.073.016 4.144 0 6.218-.02 13.368-.022 26.138 2.117 38.73 6.723l2.574.924C201.123 39.521 206.562 42.278 212 46l2.578 1.508c7.566 4.475 13.724 10.032 20 16.117 1.23 1.19 2.479 2.36 3.73 3.527C241.518 70.2 243.8 72.601 245 77h2c1.51 1.97 2.86 3.91 4.188 6l1.21 1.903c12.008 19.431 18.03 41.502 17.915 64.284l-.018 3.563c-.409 29.6-11.324 58.438-31.967 80.047-2.345 2.219-4.808 4.187-7.328 6.203l-2.273 2.328c-21.965 21.524-52.763 29.088-82.554 28.97C125.285 269.966 105.926 265.04 88 254l-3.105-1.86c-5.722-3.509-5.722-3.509-7.895-5.14v-2l-2.035-.555c-4.263-2.078-7.115-5.2-10.402-8.57l-1.948-1.938c-21.603-21.844-33.025-51.576-32.93-82.062.002-2.109-.021-4.216-.046-6.324-.063-13.145 1.776-25.855 6.549-38.176l.908-2.396C41.429 93.926 47.36 84.098 55 75l2.496-3.121C63.354 64.635 69.488 58.585 77 53l2.352-1.824c19.684-14.648 43.713-21.791 68.075-21.567M74 58l-1.567 1.302c-22.67 19.02-37.844 46.601-41.187 76.104-1.505 21.974.97 42.306 9.754 62.594l.812 1.924c12.324 28.685 36.945 49.452 65.223 61.353 28.49 10.864 62.198 9.916 90.09-2.09C217.852 249.817 235.21 235.911 248 217l2-2.926c8.52-13.095 14.694-27.578 17-43.074l.547-3.496c2.81-23.44.448-46.099-9.547-67.504l-.875-1.878c-14.024-29.444-39.379-50.46-69.812-61.435C180.952 34.484 174.702 32.8 168 32l-2.55-.332C132.272 27.982 99.703 36.248 74 58"/><path fill="#161616" d="M147.427 29.609c2.073.016 4.144 0 6.218-.02 13.368-.022 26.138 2.117 38.73 6.723l2.574.924C201.123 39.521 206.562 42.278 212 46l2.578 1.508c7.566 4.475 13.724 10.032 20 16.117 1.23 1.19 2.479 2.36 3.73 3.527C241.518 70.2 243.8 72.601 245 77h2a82 82 0 0 1 4.188 6l1.203 1.88C258.743 95.114 265.488 107.804 265 120h-1l-.594-2.246c-9.022-31.772-29.875-56.222-58.37-72.442C193.587 39.282 180.886 34.538 168 33l-2.55-.332c-31.83-3.537-63.425 3.837-88.696 24.012L74 59l-2.973 2.445c-21.63 18.384-36.532 46.922-38.88 75.272-.606 9.416-.885 18.852-1.147 28.283h-1c-.595-33.514 2.582-63.303 25-90l2.496-3.121C63.354 64.635 69.488 58.585 77 53l2.352-1.824c19.684-14.648 43.713-21.791 68.075-21.567"/><path fill="#0B0B0B" d="M122 33c-1 2-1 2-4.437 3.191q-2.28.688-4.563 1.371C98.49 42.175 85.708 49.236 74 59l-2.98 2.45c-21.538 18.639-36.51 46.734-38.873 75.267-.606 9.416-.885 18.852-1.147 28.283h-1c-.595-33.514 2.582-63.303 25-90l2.496-3.121C63.354 64.635 69.488 58.585 77 53l2.352-1.824C90.159 43.133 108.202 32.18 122 33"/><path fill="#F0F0F0" d="M201 224c2.952 2.573 3.856 4.218 4.563 8.063C205 235 205 235 202.875 237.438c-2.875 1.562-2.875 1.562-6 1.5-4.261-1.39-4.261-1.39-5.875-3.938-.937-3.437-.937-3.437-1-7 2.788-4.53 5.944-4.813 11-4"/><path fill="#141414" d="M31 158h1l.41 3.926C33.908 174.795 36.857 186.12 42 198l.812 1.924C48.32 212.745 57.075 223.407 66 234c-6.284-.71-10.258-7.4-14-12-2.284-3.206-4.166-6.52-6-10l-.929-1.706C37.017 195.447 26.99 175.245 31 158"/><path fill="#3C3C3C" d="M105 225c3.912 1.156 6.875 2.355 10 5l-1 5-4 1 1 2c.04 2 .043 4 0 6l-3-1v-8l-5 1-1 3h-2c.654-5.07 2.855-9.42 5-14"/><path fill="#343434" d="m118 231 10 3 1 5-2 2h-3l1 1.813c1 2.187 1 2.187 1 5.187h-2l-3-7h-3l-1 5h-3q.717-2.907 1.438-5.812l.808-3.27A90 90 0 0 1 118 231"/><path fill="#364043" d="M115 163c1.87 1.577 2.897 2.487 3.388 4.926l.01 2.172.02 2.414-.043 2.55-.03 2.603c-.255 10.398-2.495 17.4-9.345 25.335l1 2-2.117.367-2.758.508-2.742.492c-2.548.463-2.548.463-4.383 2.633l1.426 1.207 1.886 1.606 1.864 1.582A88 88 0 0 1 108 218c-3.973-1.379-6.816-3.216-10.062-5.875l-2.536-2.055c-2.254-1.943-4.404-3.864-6.402-6.07v-2l3 1v2h2v2c7.778-2.296 13.904-4.187 17.922-11.57L113 193l1.016-2.242c2.972-8.027 3.595-19.546.984-27.758"/><path fill="#C8C8C8" d="m159 50 3.813-.125 2.144-.07C167 50 167 50 170 52c.375 2.5.375 2.5 0 5l-3 2 2 3v3h-2l-1.25-2.937c-1.399-3.186-1.399-3.186-3.937-3.938L160 58l-1 6h-2q.214-2.376.438-4.75c.08-.882.162-1.763.246-2.672A44 44 0 0 1 159 50"/><path fill="#CDCDCD" d="M135 51c2 2 2 2 2.313 4.5L137 58c-3.228 2.152-4.284 2.2-8 2l1 7-3-1q-.506-2.373-1-4.75l-.562-2.672C125 56 125 56 125 52c3.394-.776 6.516-1.282 10-1"/><path fill="#DADADA" d="M121 56c1 1 1 1 1.375 3.375C122 62 122 62 119.625 63.813 117 65 117 65 115 65l2 6-3-1c-1.168-2.723-1.168-2.723-2.187-6.062l-1.043-3.348L110 58c7.51-3.61 7.51-3.61 11-2"/><path fill="#3D3D3D" d="M132 235q2.22.173 4.438.375c.823.07 1.647.14 2.496.21L141 236l1 2h-8l1 3 6 1v2h-8v4l8 1v2l-3.812.063-2.145.035C133 251 133 251 130 250q.212-3.187.438-6.375c.08-1.183.162-2.367.246-3.586C131 237 131 237 132 235"/><path fill="#070707" d="M147.5 50.75C150 51 150 51 152 53c.328 2.715.13 5.252 0 8-1 1-1 1-4.5 1.125C144 62 144 62 143 61c-.273-5.736-.273-5.736 0-8 2-2 2-2 4.5-2.25"/><path fill="#D2D2D2" d="M150 49c2.375.938 2.375.938 4 3 .508 3.064.613 5.95 0 9-1.309 1.762-1.309 1.762-3 3-4.367.39-6.305.463-10-2-.96-2.98-1.177-5.88-1-9 2.585-4.24 5.222-4.697 10-4m-7 4c-.328 2.715-.13 5.252 0 8 1.177 1.404 1.177 1.404 4.5 1.125 3.323.28 3.323.28 4.5-1.125.23-4.017.23-4.017 0-8-1.827-2.25-1.827-2.25-4.5-2.25s-2.673 0-4.5 2.25"/><path fill="#222" d="M31 158h1l.41 3.926c1.422 12.17 4.143 22.909 8.882 34.209.734 1.933 1.245 3.852 1.708 5.865-3-1-3-1-4.246-3.414C28.548 171.079 28.548 171.079 31 158"/><path fill="#303030" d="M145 237c4.386 2.193 5.513 3.914 8 8l1-8h2v14c-3.35-1.117-3.793-1.747-5.687-4.562l-1.325-1.942L148 243l-1 8h-2z"/><path fill="#1C1C1C" d="M202 257v2c-10.82 4.757-22.038 9.62-34 10-2.246-.992-2.246-.992-4-2l1.706-.272c10.83-1.772 20.765-3.755 30.677-8.556C199 257 199 257 202 257"/><path fill="#252525" d="M213 209c2 0 2 0 3.656 1.645l1.844 2.167 1.844 2.145C222 217 222 217 224 220c-3.272 1.073-5.43.893-8.75.063l-2.422-.59L211 219l5 6-1 2a865 865 0 0 1-4.5-4.375l-2.531-2.46C206 218 206 218 206 216q2.407.212 4.813.438c.893.08 1.786.162 2.707.246C216 217 216 217 219 218l-1.312-1.46-1.688-1.915-1.687-1.898C213 211 213 211 213 209"/><path fill="#D0D0D0" d="M222 77v2h2c1.625 2 1.625 2 3 4l-1 2-1.812-2c-2.063-2.337-2.063-2.337-5.188-2l.875 1.75L223 89l-8-4c0 4.68.996 5.621 4 9-2.54-.385-3.728-.701-5.484-2.629l-1.266-1.933-1.297-1.942L210 86a564 564 0 0 1 4.313-4.5l2.425-2.531C219 77 219 77 222 77"/><path fill="#C9C9C9" d="M90.125 70.875 93 71v2l-6 1-1 4 3.188-1.562C92.485 75.003 94.506 74.835 98 76c.813 2.188.813 2.188 1 5-2.125 2.875-2.125 2.875-5 5-2.812-.187-2.812-.187-5-1v-2l3.438-.812L96 81l1-3-2.336.508-3.039.617-3.023.633L86 80l-2-2c.459-4.59 1.136-6.925 6.125-7.125"/><path fill="#212121" d="M201 224c2.952 2.573 3.856 4.218 4.563 8.063C205 235 205 235 202.875 237.438c-2.875 1.562-2.875 1.562-6 1.5-4.261-1.39-4.261-1.39-5.875-3.938-.937-3.437-.937-3.437-1-7 2.788-4.53 5.944-4.813 11-4m-7.812 2.125c-1.471 1.928-1.471 1.928-1.063 4.875 1.021 3.72 1.021 3.72 3.875 6 3.15-.233 3.15-.233 6-1 .864-2.757.864-2.757 1-6-1.543-2.95-1.543-2.95-4-5-3.79-.352-3.79-.352-5.812 1.125"/><path fill="#242424" d="M267 163h1c1.548 7.317.148 12.917-2 20l-.589 1.957c-4.08 13.4-4.08 13.4-7.411 16.043l-1-2a116 116 0 0 1 2.75-6.25c4.29-9.497 6.216-19.407 7.25-29.75"/><path fill="#D5D5D5" d="M206 66h2l-1 7 5 2 2-3h2c-1.476 4.428-3.73 8.634-7 12h-3v-2h2l1-5c-2.7-2.268-2.7-2.268-5.125-1.75-2.07.587-2.07.587-2.875 2.75h-2c1.497-4.49 3.834-8.478 7-12"/><path fill="#404040" d="M172 149c2.113 2.113 2.584 3.25 3.508 6.027l.8 2.4.817 2.51.84 2.499C180 168.606 180 168.606 180 172h-20v-2h18c-1.968-5.417-1.968-5.417-3.95-10.83-.243-.68-.486-1.36-.738-2.06-.25-.692-.502-1.383-.761-2.095C172 153 172 153 172 149"/><path fill="#303030" d="m94 218 2 1-1.129 1.355c-3.159 3.827-3.159 3.827-3.683 8.583L92 231h5l.75-2.312c1.36-2.924 2.566-3.988 5.25-5.688-.881 4.741-3.428 7.85-7 11-3.069.714-4.168.517-6.812-1.125-1.784-2.816-1.638-4.594-1.188-7.875 3.158-5.579 3.158-5.579 6-7"/><path fill="#212121" d="M84.625 209.5c3.375.5 3.375.5 5.313 1.688 1.39 2.372 1.281 4.109 1.062 6.812h-2l-1-6c-3.432.264-3.432.264-7 1-2.334 2.781-2.334 2.781-1.625 5.688L80 221l6 1v2c-3.312.25-3.312.25-7 0-2.35-2.046-2.879-3.41-3.5-6.437 1.013-5.193 4.056-7.364 9.125-8.063"/><path fill="#DADADA" d="M104 60h2c4.977 7.75 4.977 7.75 5.063 12.438C110 75 110 75 108.25 76.438c-2.856.713-4.444.45-7.25-.438-1.8-1.996-1.8-1.996-3.312-4.437l-1.551-2.434C95 67 95 67 95 65c3.532 1.177 3.863 1.956 5.688 5.063l1.324 2.222L103 74l5-1c-.609-4.14-2.105-7.293-4-11z"/><path fill="#262626" d="m186 230 2 3-3.437-.062c-3.379-.354-3.379-.354-4.563 1.062-.263 4.032-.294 5.559 2 9l5-1 1-4h3c-.75 4.75-.75 4.75-3 7-7.13.68-7.13.68-10-1.562-1.389-3.386-1.453-5.813-1-9.438 2.524-3.646 4.58-4.814 9-4"/><path fill="#D1D1D1" d="m159 50 3.813-.125 2.144-.07C167 50 167 50 170 52c.375 2.5.375 2.5 0 5l-3 2 2 3v3h-2l-1.375-2.875c-1.427-3.128-1.427-3.128-3.625-5.125l5-1v-3l-6-1-2 4z"/><path fill="#2D2D2D" d="M105 225c3.912 1.156 6.875 2.355 10 5l-1 5-2-1c-.625-2.062-.625-2.062-1-4l-4-1-5 10h-2c.654-5.07 2.855-9.42 5-14"/><path fill="#3E4B51" d="m89 202 3 1v2h2v2l8-3v2c-2 1.625-2 1.625-4 3l1.426 1.207 1.886 1.606 1.864 1.582A88 88 0 0 1 108 218c-3.973-1.379-6.816-3.216-10.062-5.875l-2.536-2.055c-2.254-1.943-4.404-3.864-6.402-6.07z"/><path fill="#D2D2D2" d="m193 58 11 5v2c-2.169-.506-4-1-6-2l-.812 2.688C196.075 68.79 194.898 71.31 193 74h-2c1.418-4.472 3.113-8.711 5-13l-3-1z"/><path fill="#141414" d="M116 237q2.438.464 4.875.938l2.742.527C126 239 126 239 128 240l-4 1 1 1.813c1 2.187 1 2.187 1 5.187h-2l-3-7h-3l-1 5h-3z"/><path fill="#262626" d="M169 235v2h-4l.496 1.703c.533 2.428.603 4.566.566 7.047l-.027 2.422L166 250h-2l-1-12h-5c3.369-3.369 6.457-3.101 11-3"/><path fill="#D2D2D2" d="M174 52c3.95.551 7.35 1.39 11 3v1l-5 1-3 11h-2q.465-2.657.938-5.312l.527-2.989C177 57 177 57 178 54h-4z"/><path fill="#101010" d="m84 48 1 3-2.23 1.61-2.957 2.14-2.918 2.11A222 222 0 0 0 69 63l-2-1q2.836-2.663 5.688-5.312l1.607-1.514C77.352 52.342 80.312 50.004 84 48"/><path fill="#0B0B0B" d="M182 142c2.125.375 2.125.375 4 1a88 88 0 0 1 1 5c-1 1-1 1-3.562 1.063L181 149c-.625-2.375-.625-2.375-1-5z"/><path fill="#0C0C0C" d="M150 142h4q.57 2.988 1 6c-1 1-1 1-3.562 1.063L149 149c-.625-2.375-.625-2.375-1-5z"/><path fill="#1C1C1C" d="M53 219c10.676 10.353 10.676 10.353 13 15-4.415-.402-6.537-3.404-9.25-6.562l-1.39-1.577A516 516 0 0 1 52 222z"/><path fill="#494949" d="m131 243 2 1v4l8 1v2l-3.812.063-2.145.035C133 251 133 251 130 250c-.043-2-.04-4 0-6z"/><path fill="#222" d="M183 264v2c-12.485 3.629-12.485 3.629-19 2v-1q3.623-.757 7.25-1.5l2.066-.434c3.33-.679 6.267-1.066 9.684-1.066"/><path fill="#171717" d="M131.063 52.938 134 53l1 4c-2.647 1.46-3.894 2-7 2a88 88 0 0 1-1-5c1-1 1-1 4.063-1.062"/><path fill="#E1E1E1" d="m120 234 7 2-1 4-6-1c-.562-1.937-.562-1.937-1-4z"/><path fill="#121212" d="M120 57v5l-6 1-1-5c2.463-1.231 4.28-1.072 7-1"/><path fill="#303030" d="m192 232 1.625 2c2.275 2.31 2.275 2.31 5.625 2.25L202 236l1-3h2c-1.37 3.161-1.99 3.993-5 6-3.294-.206-5.311-.426-7.875-2.562L191 235z"/><path fill="#212121" d="M179 33c5.691 1.097 10.746 2.54 16 5v2c-5.361-1.59-10.708-3.19-16-5z"/><path fill="#F0F0F0" d="M107 228c2.438.75 2.438.75 5 2 .813 2.125.813 2.125 1 4-3.716.2-4.772.152-8-2z"/><path fill="#272727" d="m102 223 1 3c-1.258 2.043-1.258 2.043-3.125 4.188l-1.82 2.167C95.525 234.38 94.16 234.333 91 234v-2l2.875-.187L97 231c1.261-2.362 1.261-2.362 2-5 1.625-1.812 1.625-1.812 3-3"/><path fill="#0E0E0E" d="m258 200 1 2a89 89 0 0 1-3.312 6.563l-.975 1.826c-2.448 4.479-2.448 4.479-4.713 5.611.58-4.026 1.856-6.808 4-10.25l1.625-2.64C257 201 257 201 258 200"/><path fill="#D3D3D3" d="M95 65c3.498 1.166 3.742 1.798 5.5 4.875 1.593 2.768 3.15 4.952 5.5 7.125-3.193-.31-4.613-.571-6.8-2.996l-1.513-2.442-1.55-2.433C95 67 95 67 95 65"/><path fill="#0D0D0D" d="M241 228c0 2 0 2-2.187 4.375C236 235 236 235 233.25 237.188c-2.325 1.615-2.325 1.615-3.25 3.812h-2c1.532-3.63 3.718-5.986 6.5-8.75l2.406-2.422C239 228 239 228 241 228"/><path fill="#131313" d="m118 264 16 3c-3.843 2.562-5.232 1.92-9.687 1.125l-3.575-.617L118 267z"/><path fill="#2A2A2A" d="M202 219c3.593 1.198 4.42 2.468 6.688 5.438l1.886 2.433C212 229 212 229 212 231c-3.392-1.416-5.097-3.042-7.25-6l-1.578-2.125C202 221 202 221 202 219"/><path fill="#1A1A1A" d="M213 209c2 0 2 0 3.656 1.645l1.844 2.167 1.844 2.145C222 217 222 217 224 220l-4 1-.687-2.187c-1.558-3.337-3.694-5.262-6.313-7.813z"/><path fill="#DDD" d="M206 66h2c-1.109 5.173-2.982 8.484-7 12h-2c1.497-4.49 3.834-8.478 7-12"/><path fill="#060606" d="M161 52h6l1 4h-8z"/><path fill="#171717" d="M89 72c2.125.938 2.125.938 4 2-1.812 2-1.812 2-4 4h-3c.375-2.437.375-2.437 1-5z"/><path fill="#44B1E7" d="m208 200 3 1a680 680 0 0 1-3.875 4l-2.18 2.25C203 209 203 209 201 209c1.555-3.817 4.036-6.192 7-9"/><path fill="#DFDFDF" d="M74 84c4.672 2.825 7.66 5.678 11 10h-3v-2l-1.75-.75C77.67 89.817 75.939 88.216 74 86z"/><path fill="#B0B0B0" d="M142 54h1l1 7 7 2v1c-6.326.358-6.326.358-9-1.062-1.585-3.071-.68-5.66 0-8.938"/><path fill="#1E1E1E" d="M228 240c-1.49 3.792-3.587 5.806-7 8-2.164-.395-2.164-.395-4-1a791 791 0 0 1 4.375-3.5l2.46-1.969C226 240 226 240 228 240"/><path fill="#E6E6E6" d="M169 56v2l-2 1 2 3v3h-2l-1.375-2.875c-1.427-3.128-1.427-3.128-3.625-5.125 4.75-1 4.75-1 7-1"/><path fill="#242424" d="M104 229c.688 1.625.688 1.625 1 4-1.437 3.25-1.437 3.25-3 6h-2c.565-3.958 1.809-6.666 4-10"/><path fill="#343434" d="m77 219 3 2c1.99.39 3.99.732 6 1v2c-3.375.125-3.375.125-7 0l-2-2z"/><path fill="#3D3D3D" d="M86 210c3.875 1.875 3.875 1.875 5 3 .04 1.666.043 3.334 0 5h-2l-1-6h-5z"/><path fill="#D6D6D6" d="M127 59h6l-4 1 1 7-3-1z"/><path fill="#131313" d="M227 57q1.724 1.432 3.438 2.875l1.933 1.617C234 63 234 63 235 65c-3.785-.54-5.592-2.076-8-5z"/><path fill="#060606" d="m145 237 3 1-2 13h-1z"/><path fill="#161616" d="M33 179h2c1.423 3.823 2.24 6.913 2 11-2.313-2.313-2.496-3.479-3.125-6.625l-.508-2.477z"/><path fill="#4A4A4A" d="M188 238h3c-.25 2.375-.25 2.375-1 5-2.062 1.313-2.062 1.313-4 2z"/><path fill="#494949" d="M116 237c2.09 4.18 2.166 4.804 1 9h-3z"/><path fill="#161616" d="M75 56c-1.393 3.367-2.979 4.986-6 7l-2-1a376 376 0 0 1 2.875-3l1.617-1.687C73 56 73 56 75 56"/><path fill="#DCDCDC" d="M210 86c4.274 1.583 6.265 4.506 9 8-2.54-.385-3.728-.701-5.484-2.629l-1.266-1.933-1.297-1.942z"/><path fill="#494949" d="M124 233c2.625.938 2.625.938 5 2v4h-2l-1-3c-2-1.209-2-1.209-4-2z"/></svg>