<svg xmlns="http://www.w3.org/2000/svg" width="40" height="40" fill="none" viewBox="0 0 40 40"><g clip-path="url(#nvdaon_svg-a)"><path fill="#E4F1CC" d="M20 0c11.046 0 20 8.954 20 20s-8.954 20-20 20S0 31.046 0 20 8.954 0 20 0"/><path fill="#76B900" d="M26 6a8 8 0 0 1 8 8v12a8 8 0 0 1-8 8H14a8 8 0 0 1-8-8V14a8 8 0 0 1 8-8z"/><path fill="#fff" d="M17.457 17.332V16.14a6 6 0 0 1 .353-.015c3.268-.103 5.41 2.812 5.41 2.812s-2.31 3.209-4.79 3.209c-.332 0-.657-.052-.966-.154V18.37c1.274.154 1.531.714 2.29 1.987l1.7-1.428s-1.244-1.627-3.334-1.627a5 5 0 0 0-.663.03m0-3.946v1.781l.353-.022c4.542-.154 7.508 3.725 7.508 3.725s-3.4 4.137-6.941 4.137c-.309 0-.611-.03-.913-.081v1.104c.25.03.509.052.759.052 3.297 0 5.683-1.686 7.994-3.674.382.31 1.95 1.053 2.275 1.377-2.195 1.84-7.31 3.32-10.211 3.32-.28 0-.544-.015-.81-.044v1.553H30V13.386zm0 8.605v.942c-3.048-.545-3.895-3.716-3.895-3.716s1.466-1.62 3.895-1.885v1.03h-.007c-1.273-.155-2.275 1.038-2.275 1.038s.567 2.01 2.282 2.592m-5.41-2.909s1.803-2.664 5.416-2.944v-.972c-4.002.325-7.463 3.71-7.463 3.71s1.958 5.669 7.457 6.184V24.03c-4.034-.5-5.41-4.947-5.41-4.947"/></g><defs><clipPath id="nvdaon_svg-a"><path fill="#fff" d="M0 0h40v40H0z"/></clipPath></defs></svg>