<svg xmlns="http://www.w3.org/2000/svg" width="40" height="40" fill="none" viewBox="0 0 40 40"><g clip-path="url(#nvoon_svg-a)"><path fill="#CCD1E0" d="M20 0c11.046 0 20 8.954 20 20s-8.954 20-20 20S0 31.046 0 20 8.954 0 20 0"/><path fill="#001965" d="M26 6a8 8 0 0 1 8 8v12a8 8 0 0 1-8 8H14a8 8 0 0 1-8-8V14a8 8 0 0 1 8-8z"/><path fill="#fff" d="M11.768 13.955c0-.465.164-.442.278-.124.117.317.623 1.577 1.93 2.042s2.475.085 3.297-.594c.303-.251.408-.107.134.34-.36.584-.95.927-1.63 1.295-.143.078-.299.139.015.284 1.812.842 4.167 1.434 6.273 1.434 1.552 0 3.068-.238 3.866-.3.776-.059 2.23-.007 2.587 1.674.254 1.192.233 4.674.233 8.045 0 .23.012.376-.262.373-.857-.009-.894.027-.973.25-.128.361-.164.543-.26.912-.079.302-.137.412-.339.412h-1.084c-.164 0-.254-.203-.11-.462 1.38-2.49 1.28-4.426.466-5.484-.26.977-.37 1.409-.5 1.506-1.674 1.26-2.52 3.954-2.6 4.162s-.182.279-.439.279L21.454 30c-.335 0-.324-.255-.11-.482 1.861-1.979 2.333-2.73 2.876-4.407.548-1.694-.736-2.229-1.724-1.35-2.554-1.164-3.233.351-3.082 1.202.239 1.347 1.143 3.63 1.202 4.714.015.265-.222.322-.366.322h-1.14c-.353 0-.214-.335-.183-.484.576-2.769-.6-4.356-1.786-5.094-.708.518-1.643 3.552-1.755 5.202-.013.19-.11.375-.286.375-.149 0-1.069.003-1.314 0-.216-.002-.248-.239-.088-.526.675-1.211 1.736-3.122 1.715-5.14 0-.235 0-.928-.323-1.313-.723-.865-1.129-1.905-1.5-2.572-.257-.46-.584-.612-.844-.66-.264-.049-.477.03-.704-.076-.226-.107-.345-.342-.53-.547-.155-.171-.267-.416-.084-.648.321-.404.532-.638.59-.803.056-.164.043-.24.054-.38.01-.133.292-.464.547-.774.096-.116.015-.316-.158-.518-.174-.203-.693-.913-.693-2.086m16.077 7.605c-.054-.057-.143-.06-.15.019-.07.914-.264 2.016-.2 2.377.067.386.275 1.302.32 1.705.036.313.182.19.202.038.081-.623.218-3.728-.172-4.139m-10.56-3.198c-.657-.248-.686-.269-.85-.048-1.175 1.59-1.409 2.462-1.305 3.11.103.648.659 1.311 1.49 1.795.832.485 1.346.757 1.91 1.369.058.063.137.089.158-.048.29-1.874 1.869-2.146 3.924-2.109 2.893.052 3.447 1.003 3.803.845s.586-1.62.649-2.655.132-1.882-1.152-1.765c.303.623.367 1.308-.2 1.698s-.971.201-.971-.164c0-.337-.057-.852-.464-1.331-.195.026-.362.044-.558.062.119.563.268 1.597-.165 2.02s-1.645.464-2.898.365c-.24-.02-.535-.116-.663-.409-.065-.15-.158-.513-.19-2.104a13 13 0 0 1-.598-.109c-.228 1.535-.745 2.108-1.29 2.236-.544.129-1.163.008-1.052-.549.11-.549.371-1.146.422-2.209m2.976.698c.022.477.039 1.193.111 1.587.061.33.2.353.322.372.47.07 2.106.145 2.467-.222.229-.232.249-1.03.087-1.638-.996.064-1.998.03-2.988-.1m-5.606-1.89c-.94-.568-1.185-.682-1.484-.422-.27.235-.546.6-.59.724-.045.125-.024.414-.135.564-.11.15-.376.503-.376.504-.236.289-.133.311.12.615.236.283.757-.09 1.36.386.315.248.677 1.134.956 1.501.196-1.28 1-2.323 1.248-2.714.39-.618.042-.469-1.1-1.158m3.118 1.351c-.072.606-.209 1.35-.342 1.793s.245.403.422.332c.228-.092.662-.481.879-1.866a15 15 0 0 1-.96-.259m7.696.37q-.36.044-.718.1c.259.378.407.797.417 1.348.079.027.436-.117.517-.375.08-.257.065-.558-.216-1.072m-12.49-1.027c-.277-.396.737-.508.786-.386.049.123-.508.782-.786.386m2.2-7.864a2.656 2.656 0 1 1 0 5.313 2.656 2.656 0 0 1 0-5.313m.072.62a1.762 1.762 0 1 0-.002 3.52 1.762 1.762 0 0 0 .002-3.52"/></g><defs><clipPath id="nvoon_svg-a"><path fill="#fff" d="M0 0h40v40H0z"/></clipPath></defs></svg>