<svg xmlns="http://www.w3.org/2000/svg" xml:space="preserve" id="nym_svg-Layer_1" x="0" y="0" version="1.1" viewBox="0 0 200 200"><style>.nym_svg-nym-st0{fill:#141521}</style><path d="M170.7 29.3c-39-39.1-102.4-39.1-141.4 0-39.1 39.1-39.1 102.4 0 141.4 39.1 39.1 102.4 39.1 141.4 0 39.1-39 39.1-102.4 0-141.4m-8.6 132.8c-34.3 34.3-90 34.3-124.3 0s-34.3-90 0-124.3 90-34.3 124.3 0c34.4 34.4 34.4 90 0 124.3" class="nym_svg-nym-st0"/><path d="M162.1 37.9c-34.3-34.3-90-34.3-124.3 0s-34.3 90 0 124.3 90 34.3 124.3 0c34.4-34.4 34.4-90 0-124.3M63 170.7c-6.2-3.3-11.9-7.5-16.9-12.3V41.7c5.2-5 11.1-9.2 17.5-12.6L137 140.9V29.3c6.2 3.3 11.9 7.5 16.9 12.3v116.7c-5.2 5-11.1 9.2-17.5 12.6L63 59.1z" style="fill:#fff"/><path d="M154 158.3V41.7c-5.1-4.8-10.8-9-16.9-12.3v111.5L63.5 29c-6.4 3.4-12.3 7.6-17.5 12.6v116.7c5.1 4.8 10.8 9 16.9 12.3V59.1L136.5 171c6.4-3.4 12.3-7.7 17.5-12.7" class="nym_svg-nym-st0"/></svg>