<svg width="64" height="65" viewBox="0 0 64 65" fill="none" xmlns="http://www.w3.org/2000/svg">
<rect y="0.303711" width="64" height="64" rx="32" fill="white"/>
<rect x="0.5" y="0.803711" width="63" height="63" rx="31.5" stroke="#070B14" stroke-opacity="0.15"/>
<path d="M15.6225 32.4293C15.6228 32.8988 15.4837 33.3579 15.223 33.7485C14.9623 34.139 14.5916 34.4435 14.1579 34.6234C13.7241 34.8032 13.2468 34.8504 12.7862 34.7589C12.3256 34.6675 11.9025 34.4415 11.5704 34.1095C11.2383 33.7776 11.012 33.3546 10.9204 32.894C10.8287 32.4335 10.8756 31.9561 11.0552 31.5223C11.2349 31.0884 11.5392 30.7176 11.9296 30.4567C12.32 30.1958 12.779 30.0565 13.2486 30.0565C13.878 30.0565 14.4816 30.3064 14.9268 30.7514C15.372 31.1963 15.6222 31.7999 15.6225 32.4293ZM53.3408 32.4293C53.341 32.8989 53.202 33.358 52.9412 33.7486C52.6805 34.1392 52.3097 34.4436 51.8759 34.6235C51.4421 34.8033 50.9646 34.8504 50.504 34.7589C50.0434 34.6673 49.6203 34.4412 49.2882 34.1091C48.9562 33.777 48.73 33.3539 48.6385 32.8933C48.5469 32.4327 48.594 31.9553 48.7739 31.5214C48.9537 31.0876 49.2581 30.7168 49.6487 30.4561C50.0393 30.1953 50.4984 30.0563 50.9681 30.0565C51.5964 30.0581 52.1985 30.3087 52.6424 30.7535C53.0863 31.1983 53.3357 31.8009 53.336 32.4293M34.4823 41.7945C34.4825 42.2641 34.3434 42.7233 34.0827 43.1139C33.8219 43.5044 33.4512 43.8089 33.0173 43.9887C32.5835 44.1686 32.1061 44.2157 31.6455 44.1241C31.1849 44.0325 30.7618 43.8064 30.4297 43.4743C30.0976 43.1423 29.8715 42.7192 29.7799 42.2586C29.6884 41.7979 29.7355 41.3205 29.9153 40.8867C30.0951 40.4529 30.3996 40.0821 30.7902 39.8213C31.1808 39.5606 31.6399 39.4215 32.1095 39.4218C32.7387 39.4221 33.342 39.6722 33.7869 40.1171C34.2319 40.562 34.4819 41.1653 34.4823 41.7945ZM24.9877 37.1712C24.9877 37.6407 24.8485 38.0997 24.5876 38.4901C24.3268 38.8805 23.956 39.1847 23.5222 39.3644C23.0885 39.5441 22.6111 39.5911 22.1506 39.4995C21.6901 39.4079 21.2672 39.1818 20.9352 38.8498C20.6031 38.5178 20.3771 38.0948 20.2855 37.6343C20.1939 37.1738 20.2409 36.6965 20.4205 36.2627C20.6002 35.8289 20.9045 35.4582 21.2949 35.1973C21.6853 34.9365 22.1443 34.7972 22.6138 34.7972C23.2434 34.7972 23.8472 35.0473 24.2924 35.4925C24.7376 35.9377 24.9877 36.5416 24.9877 37.1712ZM43.8474 37.1712C43.8486 37.6412 43.7103 38.1009 43.4499 38.4922C43.1896 38.8835 42.819 39.1887 42.385 39.3691C41.9511 39.5496 41.4733 39.5972 41.0123 39.5059C40.5513 39.4146 40.1277 39.1885 39.7953 38.8562C39.4629 38.524 39.2366 38.1005 39.1451 37.6396C39.0535 37.1786 39.1009 36.7008 39.2811 36.2668C39.4613 35.8327 39.7663 35.4619 40.1575 35.2014C40.5486 34.9408 41.0083 34.8023 41.4783 34.8032C42.106 34.8045 42.7077 35.0543 43.1517 35.4981C43.5957 35.9419 43.8459 36.5434 43.8474 37.1712ZM14.8524 39.6146C14.8521 39.9318 14.7578 40.2418 14.5814 40.5054C14.405 40.769 14.1544 40.9744 13.8612 41.0956C13.5681 41.2167 13.2456 41.2483 12.9345 41.1861C12.6235 41.124 12.3378 40.9711 12.1137 40.7466C11.8896 40.5221 11.737 40.2363 11.6754 39.9251C11.6137 39.614 11.6457 39.2915 11.7673 38.9985C11.8889 38.7056 12.0947 38.4553 12.3586 38.2792C12.6224 38.1032 12.9326 38.0094 13.2498 38.0096C13.4604 38.0098 13.6689 38.0514 13.8634 38.1321C14.058 38.2129 14.2347 38.3312 14.3835 38.4802C14.5323 38.6292 14.6503 38.8061 14.7307 39.0008C14.8112 39.1954 14.8525 39.404 14.8524 39.6146ZM52.5706 39.6146C52.5704 39.9318 52.4761 40.2418 52.2997 40.5054C52.1233 40.769 51.8726 40.9744 51.5795 41.0956C51.2864 41.2167 50.9639 41.2483 50.6528 41.1861C50.3417 41.124 50.0561 40.9711 49.832 40.7466C49.6078 40.5221 49.4553 40.2363 49.3937 39.9251C49.332 39.614 49.364 39.2915 49.4856 38.9985C49.6072 38.7056 49.813 38.4553 50.0768 38.2792C50.3407 38.1032 50.6509 38.0094 50.9681 38.0096C51.3933 38.0099 51.8011 38.179 52.1017 38.4797C52.4025 38.7804 52.5715 39.1881 52.5718 39.6134M33.7121 49.1068C33.7123 49.4241 33.6185 49.7344 33.4423 49.9983C33.2662 50.2622 33.0157 50.468 32.7226 50.5895C32.4295 50.711 32.1069 50.7429 31.7957 50.6811C31.4845 50.6192 31.1986 50.4664 30.9743 50.2421C30.7499 50.0177 30.5971 49.7318 30.5353 49.4206C30.4735 49.1094 30.5053 48.7868 30.6268 48.4937C30.7484 48.2006 30.9541 47.9501 31.2181 47.774C31.482 47.5979 31.7922 47.504 32.1095 47.5042C32.5344 47.5049 32.9416 47.6739 33.242 47.9743C33.5424 48.2747 33.7115 48.682 33.7121 49.1068ZM24.2188 44.3577C24.2188 44.675 24.1247 44.9851 23.9484 45.2489C23.7721 45.5126 23.5216 45.7182 23.2284 45.8395C22.9353 45.9609 22.6128 45.9926 22.3017 45.9306C21.9905 45.8686 21.7047 45.7158 21.4805 45.4913C21.2563 45.2669 21.1036 44.981 21.0419 44.6699C20.9801 44.3587 21.012 44.0362 21.1336 43.7431C21.2552 43.4501 21.4609 43.1997 21.7248 43.0236C21.9887 42.8475 22.2989 42.7537 22.6162 42.7539C22.8267 42.7539 23.0352 42.7954 23.2297 42.876C23.4242 42.9566 23.601 43.0748 23.7498 43.2237C23.8986 43.3727 24.0166 43.5495 24.0971 43.7441C24.1776 43.9386 24.2189 44.1472 24.2188 44.3577ZM43.0785 44.3577C43.0792 44.6752 42.9857 44.9858 42.8097 45.2501C42.6338 45.5144 42.3833 45.7205 42.0901 45.8423C41.7969 45.9642 41.4741 45.9962 41.1627 45.9345C40.8513 45.8727 40.5652 45.7199 40.3407 45.4954C40.1162 45.2708 39.9633 44.9847 39.9016 44.6733C39.8398 44.3619 39.8719 44.0391 39.9937 43.7459C40.1155 43.4527 40.3216 43.2023 40.5859 43.0263C40.8502 42.8503 41.1608 42.7568 41.4783 42.7575C41.9022 42.7588 42.3084 42.9278 42.608 43.2277C42.9076 43.5275 43.0763 43.9338 43.0773 44.3577M14.0834 45.2584C14.0834 45.4243 14.0342 45.5864 13.9421 45.7242C13.85 45.8621 13.719 45.9696 13.5658 46.033C13.4126 46.0965 13.2441 46.1131 13.0814 46.0807C12.9188 46.0484 12.7694 45.9685 12.6521 45.8513C12.5349 45.734 12.455 45.5846 12.4227 45.422C12.3903 45.2594 12.4069 45.0908 12.4704 44.9376C12.5338 44.7844 12.6413 44.6534 12.7792 44.5613C12.9171 44.4692 13.0792 44.42 13.245 44.42C13.4674 44.42 13.6806 44.5083 13.8378 44.6656C13.9951 44.8228 14.0834 45.0361 14.0834 45.2584ZM51.8017 45.2584C51.8017 45.4243 51.7525 45.5864 51.6604 45.7242C51.5683 45.8621 51.4373 45.9696 51.2841 46.033C51.1309 46.0965 50.9623 46.1131 50.7997 46.0807C50.6371 46.0484 50.4877 45.9685 50.3704 45.8513C50.2532 45.734 50.1733 45.5846 50.1409 45.422C50.1086 45.2594 50.1252 45.0908 50.1887 44.9376C50.2521 44.7844 50.3596 44.6534 50.4975 44.5613C50.6353 44.4692 50.7974 44.42 50.9633 44.42C51.1856 44.42 51.3989 44.5083 51.5561 44.6656C51.7134 44.8228 51.8017 45.0361 51.8017 45.2584ZM32.942 54.753C32.942 54.9189 32.8928 55.081 32.8007 55.2188C32.7085 55.3567 32.5776 55.4642 32.4244 55.5276C32.2712 55.5911 32.1026 55.6077 31.94 55.5754C31.7773 55.543 31.6279 55.4632 31.5107 55.3459C31.3934 55.2286 31.3136 55.0793 31.2812 54.9166C31.2489 54.754 31.2655 54.5854 31.3289 54.4322C31.3924 54.279 31.4998 54.148 31.6377 54.0559C31.7756 53.9638 31.9377 53.9146 32.1035 53.9146C32.3259 53.9146 32.5392 54.0029 32.6964 54.1602C32.8536 54.3174 32.942 54.5307 32.942 54.753ZM23.4486 50.0063C23.4486 50.1722 23.3994 50.3343 23.3073 50.4721C23.2152 50.61 23.0842 50.7175 22.931 50.7809C22.7778 50.8444 22.6093 50.861 22.4466 50.8287C22.284 50.7963 22.1346 50.7164 22.0173 50.5992C21.9001 50.4819 21.8202 50.3325 21.7879 50.1699C21.7555 50.0073 21.7721 49.8387 21.8356 49.6855C21.899 49.5323 22.0065 49.4013 22.1444 49.3092C22.2823 49.2171 22.4444 49.1679 22.6102 49.1679C22.8325 49.1679 23.0458 49.2562 23.203 49.4135C23.3603 49.5707 23.4486 49.784 23.4486 50.0063ZM42.3083 50.0063C42.3083 50.1722 42.2592 50.3343 42.167 50.4721C42.0749 50.61 41.944 50.7175 41.7908 50.7809C41.6376 50.8444 41.469 50.861 41.3063 50.8287C41.1437 50.7963 40.9943 50.7164 40.8771 50.5992C40.7598 50.4819 40.68 50.3325 40.6476 50.1699C40.6153 50.0073 40.6319 49.8387 40.6953 49.6855C40.7588 49.5323 40.8662 49.4013 41.0041 49.3092C41.142 49.2171 41.3041 49.1679 41.4699 49.1679C41.6923 49.1679 41.9055 49.2562 42.0628 49.4135C42.22 49.5707 42.3083 49.784 42.3083 50.0063ZM35.25 14.1479C35.25 14.7824 35.0618 15.4027 34.7093 15.9302C34.3567 16.4577 33.8556 16.8689 33.2694 17.1116C32.6831 17.3543 32.0381 17.4176 31.4158 17.2937C30.7935 17.1697 30.222 16.864 29.7735 16.4152C29.325 15.9663 29.0197 15.3946 28.8962 14.7722C28.7727 14.1498 28.8366 13.5048 29.0797 12.9187C29.3229 12.3327 29.7344 11.8319 30.2622 11.4797C30.79 11.1276 31.4103 10.9398 32.0448 10.9403C32.8951 10.9409 33.7104 11.2792 34.3114 11.8806C34.9124 12.4821 35.25 13.2976 35.25 14.1479ZM35.25 23.6365C35.25 24.271 35.0619 24.8912 34.7094 25.4187C34.3569 25.9462 33.8558 26.3573 33.2697 26.6001C32.6835 26.8428 32.0385 26.9063 31.4162 26.7824C30.794 26.6585 30.2225 26.3529 29.7739 25.9042C29.3254 25.4555 29.02 24.8839 28.8964 24.2616C28.7727 23.6393 28.8364 22.9943 29.0794 22.4082C29.3223 21.8221 29.7336 21.3212 30.2613 20.9689C30.7889 20.6166 31.4092 20.4287 32.0436 20.4289C32.8941 20.4293 33.7097 20.7673 34.311 21.3688C34.9122 21.9703 35.25 22.786 35.25 23.6365ZM35.25 33.003C35.25 33.6374 35.0619 34.2576 34.7094 34.7851C34.3569 35.3127 33.8558 35.7238 33.2697 35.9665C32.6835 36.2093 32.0385 36.2727 31.4162 36.1489C30.794 36.025 30.2225 35.7194 29.7739 35.2707C29.3254 34.822 29.02 34.2503 28.8964 33.628C28.7727 33.0057 28.8364 32.3607 29.0794 31.7747C29.3223 31.1886 29.7336 30.6877 30.2613 30.3354C30.7889 29.9831 31.4092 29.7952 32.0436 29.7954C32.4652 29.7955 32.8825 29.8788 33.2719 30.0404C33.6612 30.2019 34.0149 30.4386 34.3127 30.737C34.6104 31.0353 34.8465 31.3894 35.0073 31.7791C35.1682 32.1687 35.2506 32.5862 35.25 33.0078M54.1109 23.6365C54.1109 24.2709 53.9228 24.8911 53.5704 25.4186C53.2179 25.9461 52.717 26.3572 52.1309 26.6C51.5448 26.8427 50.8998 26.9062 50.2776 26.7825C49.6554 26.6587 49.0839 26.3532 48.6353 25.9046C48.1867 25.456 47.8812 24.8845 47.7574 24.2623C47.6337 23.6401 47.6972 22.9951 47.94 22.409C48.1827 21.8229 48.5939 21.322 49.1213 20.9695C49.6488 20.6171 50.269 20.4289 50.9034 20.4289C51.7541 20.4289 52.5699 20.7669 53.1715 21.3684C53.773 21.97 54.1109 22.7858 54.1109 23.6365ZM16.3927 23.6365C16.3936 24.2711 16.2063 24.8918 15.8544 25.4199C15.5026 25.948 15.0019 26.3599 14.4159 26.6034C13.8299 26.8469 13.1848 26.9111 12.5623 26.7879C11.9398 26.6646 11.3678 26.3595 10.9187 25.9111C10.4696 25.4627 10.1637 24.8912 10.0395 24.2689C9.91537 23.6465 9.97861 23.0013 10.2212 22.4149C10.4639 21.8285 10.875 21.3273 11.4026 20.9746C11.9302 20.622 12.5505 20.4337 13.1851 20.4337C14.035 20.4337 14.8501 20.771 15.4515 21.3715C16.0529 21.972 16.3914 22.7867 16.3927 23.6365ZM25.886 18.8898C25.887 19.5242 25.6998 20.1447 25.3481 20.6727C24.9964 21.2007 24.4961 21.6125 23.9104 21.8562C23.3246 22.0998 22.6798 22.1643 22.0574 22.0415C21.435 21.9187 20.863 21.614 20.4138 21.1661C19.9645 20.7182 19.6582 20.1471 19.5335 19.5251C19.4088 18.903 19.4713 18.258 19.7132 17.6715C19.9551 17.0851 20.3655 16.5835 20.8924 16.2303C21.4194 15.877 22.0393 15.688 22.6737 15.687C23.5244 15.687 24.3402 16.025 24.9418 16.6265C25.5433 17.228 25.8812 18.0439 25.8812 18.8946M25.8812 28.2599C25.8812 28.8943 25.6931 29.5144 25.3407 30.0419C24.9882 30.5694 24.4873 30.9805 23.9011 31.2233C23.315 31.4661 22.6701 31.5296 22.0479 31.4058C21.4257 31.2821 20.8542 30.9766 20.4056 30.528C19.957 30.0794 19.6515 29.5078 19.5277 28.8856C19.404 28.2634 19.4675 27.6185 19.7103 27.0324C19.953 26.4463 20.3642 25.9453 20.8916 25.5929C21.4191 25.2404 22.0393 25.0523 22.6737 25.0523C23.5244 25.0523 24.3402 25.3902 24.9418 25.9918C25.5433 26.5933 25.8812 27.4092 25.8812 28.2599ZM44.7458 18.8946C44.7458 19.529 44.5576 20.1492 44.2052 20.6767C43.8527 21.2041 43.3518 21.6153 42.7657 21.858C42.1796 22.1008 41.5346 22.1643 40.9124 22.0406C40.2902 21.9168 39.7187 21.6113 39.2701 21.1627C38.8215 20.7141 38.516 20.1426 38.3923 19.5204C38.2685 18.8982 38.332 18.2532 38.5748 17.6671C38.8176 17.081 39.2287 16.58 39.7562 16.2276C40.2836 15.8751 40.9038 15.687 41.5382 15.687C42.3889 15.687 43.2047 16.025 43.8063 16.6265C44.4078 17.228 44.7458 18.0439 44.7458 18.8946ZM44.7458 28.2599C44.7458 28.8943 44.5576 29.5144 44.2052 30.0419C43.8527 30.5694 43.3518 30.9805 42.7657 31.2233C42.1796 31.4661 41.5346 31.5296 40.9124 31.4058C40.2902 31.2821 39.7187 30.9766 39.2701 30.528C38.8215 30.0794 38.516 29.5078 38.3923 28.8856C38.2685 28.2634 38.332 27.6185 38.5748 27.0324C38.8176 26.4463 39.2287 25.9453 39.7562 25.5929C40.2836 25.2404 40.9038 25.0523 41.5382 25.0523C42.3889 25.0523 43.2047 25.3902 43.8063 25.9918C44.4078 26.5933 44.7458 27.4092 44.7458 28.2599Z" fill="#141414"/>
</svg>
