<svg width="1160" height="1160" viewBox="0 0 1160 1160" fill="none" xmlns="http://www.w3.org/2000/svg">
<g filter="url(#filter0_d_2690_62172)">
<rect width="1000" height="1000" transform="translate(80 80)" fill="#1A1A1A"/>
<path fill-rule="evenodd" clip-rule="evenodd" d="M635.649 325L458.911 826.519H586.373L763.111 325H635.649Z" fill="white"/>
<path fill-rule="evenodd" clip-rule="evenodd" d="M870 730.609C870 788.135 823.37 834.75 765.859 834.75C708.349 834.75 661.719 788.135 661.719 730.609C661.719 673.102 708.349 626.469 765.859 626.469C823.37 626.469 870 673.102 870 730.609" fill="white"/>
<path fill-rule="evenodd" clip-rule="evenodd" d="M490.502 325C473.433 386.766 409.513 440.249 328.559 428.202L289 540.689C481.321 564.133 567.381 469.268 615.125 325H490.502Z" fill="white"/>
</g>
<defs>
<filter id="filter0_d_2690_62172" x="0" y="0" width="1160" height="1160" filterUnits="userSpaceOnUse" color-interpolation-filters="sRGB">
<feFlood flood-opacity="0" result="BackgroundImageFix"/>
<feColorMatrix in="SourceAlpha" type="matrix" values="0 0 0 0 0 0 0 0 0 0 0 0 0 0 0 0 0 0 127 0" result="hardAlpha"/>
<feMorphology radius="20" operator="dilate" in="SourceAlpha" result="effect1_dropShadow_2690_62172"/>
<feOffset/>
<feGaussianBlur stdDeviation="30"/>
<feComposite in2="hardAlpha" operator="out"/>
<feColorMatrix type="matrix" values="0 0 0 0 0 0 0 0 0 0 0 0 0 0 0 0 0 0 0.05 0"/>
<feBlend mode="normal" in2="BackgroundImageFix" result="effect1_dropShadow_2690_62172"/>
<feBlend mode="normal" in="SourceGraphic" in2="effect1_dropShadow_2690_62172" result="shape"/>
</filter>
</defs>
</svg>
