<svg xmlns="http://www.w3.org/2000/svg" width="1160" height="1160" fill="none" viewBox="0 0 1160 1160"><g filter="url(#ofc_svg-a)"><path fill="#1A1A1A" d="M80 80h1000v1000H80z"/><path fill="#fff" fill-rule="evenodd" d="M635.649 325 458.911 826.519h127.462L763.111 325zM870 730.609c0 57.526-46.63 104.141-104.141 104.141-57.51 0-104.14-46.615-104.14-104.141 0-57.507 46.63-104.14 104.14-104.14 57.511 0 104.141 46.633 104.141 104.14M490.502 325c-17.069 61.766-80.989 115.249-161.943 103.202L289 540.689C481.321 564.133 567.381 469.268 615.125 325z" clip-rule="evenodd"/></g><defs><filter id="ofc_svg-a" width="1160" height="1160" x="0" y="0" color-interpolation-filters="sRGB" filterUnits="userSpaceOnUse"><feFlood flood-opacity="0" result="BackgroundImageFix"/><feColorMatrix in="SourceAlpha" result="hardAlpha" values="0 0 0 0 0 0 0 0 0 0 0 0 0 0 0 0 0 0 127 0"/><feMorphology in="SourceAlpha" operator="dilate" radius="20" result="effect1_dropShadow_2690_62172"/><feOffset/><feGaussianBlur stdDeviation="30"/><feComposite in2="hardAlpha" operator="out"/><feColorMatrix values="0 0 0 0 0 0 0 0 0 0 0 0 0 0 0 0 0 0 0.05 0"/><feBlend in2="BackgroundImageFix" result="effect1_dropShadow_2690_62172"/><feBlend in="SourceGraphic" in2="effect1_dropShadow_2690_62172" result="shape"/></filter></defs></svg>