<svg xmlns="http://www.w3.org/2000/svg" width="64" height="65" fill="none" viewBox="0 0 64 65"><g clip-path="url(#ondo_svg-a)"><rect width="64" height="64" y=".304" fill="#fff" rx="32"/><path fill="#fff" fill-rule="evenodd" d="M32 .304c17.674 0 32 14.325 32 32 0 17.674-14.326 32-32 32s-32-14.326-32-32c0-17.675 14.326-32 32-32" clip-rule="evenodd"/><mask id="ondo_svg-b" width="49" height="49" x="8" y="8" maskUnits="userSpaceOnUse" style="mask-type:luminance"><path fill="#fff" d="M56 8.304H8v48h48z"/></mask><g fill="#06070A" mask="url(#ondo_svg-b)"><path d="M33.702 56.304H32c-13.255 0-24-10.745-24-24s10.745-24 24-24 24 10.745 24 24q0 1.782-.253 3.496h-3.36q.293-1.704.295-3.496c0-11.422-9.26-20.681-20.682-20.681s-20.68 9.259-20.68 20.681S20.578 52.986 32 52.986h12.3a23.9 23.9 0 0 1-10.598 3.318"/><path d="M48.899 49.43H32c-9.458 0-17.126-7.667-17.126-17.126 0-9.458 7.668-17.126 17.126-17.126s17.126 7.668 17.126 17.126c0 1.197-.123 2.367-.357 3.496h-3.407a14 14 0 0 0 .446-3.496c0-7.626-6.182-13.807-13.808-13.807s-13.807 6.182-13.807 13.807c0 7.626 6.182 13.808 13.807 13.808h19.706a24 24 0 0 1-2.807 3.318"/><path d="M53.772 42.556H32c-5.662 0-10.252-4.59-10.252-10.252S26.338 22.052 32 22.052s10.252 4.59 10.252 10.252a10.2 10.2 0 0 1-.612 3.496h-3.651A6.933 6.933 0 1 0 32 39.237h23.045a24 24 0 0 1-1.273 3.319"/></g></g><rect width="63" height="63" x=".5" y=".804" stroke="#070B14" stroke-opacity=".15" rx="31.5"/><defs><clipPath id="ondo_svg-a"><rect width="64" height="64" y=".304" fill="#fff" rx="32"/></clipPath></defs></svg>