<?xml version="1.0" encoding="UTF-8"?>
<!DOCTYPE svg PUBLIC "-//W3C//DTD SVG 1.1//EN" "http://www.w3.org/Graphics/SVG/1.1/DTD/svg11.dtd">
<svg xmlns="http://www.w3.org/2000/svg" version="1.1" width="200px" height="200px" style="shape-rendering:geometricPrecision; text-rendering:geometricPrecision; image-rendering:optimizeQuality; fill-rule:evenodd; clip-rule:evenodd" xmlns:xlink="http://www.w3.org/1999/xlink">
<g><path style="opacity:0.004" fill="#55b2ff" d="M 95.5,31.5 C 97.8333,30.1667 100.167,30.1667 102.5,31.5C 100.167,31.5 97.8333,31.5 95.5,31.5 Z"/></g>
<g><path style="opacity:0.012" fill="#429bff" d="M 95.5,31.5 C 93.7116,32.6225 91.7116,32.7891 89.5,32C 91.4727,31.5045 93.4727,31.3379 95.5,31.5 Z"/></g>
<g><path style="opacity:0.016" fill="#579dff" d="M 102.5,31.5 C 104.857,31.3367 107.19,31.5034 109.5,32C 106.961,32.7958 104.628,32.6291 102.5,31.5 Z"/></g>
<g><path style="opacity:0.948" fill="#4aa5ff" d="M 55.5,34.5 C 55.5,35.1667 55.8333,35.5 56.5,35.5C 56.5,36.1667 56.8333,36.5 57.5,36.5C 57.5,37.1667 57.8333,37.5 58.5,37.5C 58.5,38.1667 58.8333,38.5 59.5,38.5C 59.5,39.1667 59.8333,39.5 60.5,39.5C 60.5,40.1667 60.8333,40.5 61.5,40.5C 61.5,41.1667 61.8333,41.5 62.5,41.5C 62.5,42.1667 62.8333,42.5 63.5,42.5C 64.1217,43.6266 64.955,44.6266 66,45.5C 82.2027,32.6134 100.036,29.7801 119.5,37C 127.308,41.5961 134.475,46.4294 141,51.5C 142.833,54.5 144.667,57.5 146.5,60.5C 145.339,62.2237 145.505,63.8904 147,65.5C 147.333,64.8333 147.667,64.1667 148,63.5C 149.796,65.7203 149.963,68.0536 148.5,70.5C 149.064,72.8193 149.564,75.1526 150,77.5C 150.667,152.167 151.333,152.167 152,77.5C 152.667,96.5 152.667,115.5 152,134.5C 151.617,135.056 151.117,135.389 150.5,135.5C 150.167,134.167 149.833,134.167 149.5,135.5C 148.508,135.328 147.842,135.662 147.5,136.5C 146.5,136.5 145.5,136.5 144.5,136.5C 141.037,132.536 137.37,128.702 133.5,125C 131.86,124.652 130.527,125.152 129.5,126.5C 128.833,126.5 128.5,126.833 128.5,127.5C 127.833,127.5 127.5,127.833 127.5,128.5C 126.508,128.328 125.842,128.662 125.5,129.5C 124.508,129.328 123.842,129.662 123.5,130.5C 122.833,130.5 122.5,130.833 122.5,131.5C 121.209,131.263 120.209,131.596 119.5,132.5C 118.508,132.328 117.842,132.662 117.5,133.5C 116.209,133.263 115.209,133.596 114.5,134.5C 99.8621,138.06 85.8621,136.393 72.5,129.5C 72.1667,128.167 71.8333,128.167 71.5,129.5C 69.2547,129.459 68.5881,128.625 69.5,127C 68.6266,125.955 67.6266,125.122 66.5,124.5C 66.5,123.833 66.1667,123.5 65.5,123.5C 63.0784,123.083 60.9117,121.749 59,119.5C 58.3828,118.551 58.5494,117.718 59.5,117C 55.9997,115.709 53.6664,112.876 52.5,108.5C 53.8333,107.833 53.8333,107.167 52.5,106.5C 52.6716,105.508 52.3382,104.842 51.5,104.5C 51.7373,103.209 51.404,102.209 50.5,101.5C 50.7373,100.209 50.404,99.209 49.5,98.5C 49.7678,96.901 49.4345,95.5676 48.5,94.5C 48.1667,15.8333 47.8333,15.8333 47.5,94.5C 46.3375,74.6709 46.1709,54.6709 47,34.5C 48.6597,34.6759 50.3264,34.0093 52,32.5C 53.1127,33.305 54.2794,33.9717 55.5,34.5 Z M 107.5,42.5 C 101.974,42.1786 96.6405,42.5119 91.5,43.5C 89.8333,43.5 88.1667,43.5 86.5,43.5C 90.3911,41.9926 94.5578,41.3259 99,41.5C 102.021,41.5022 104.854,41.8356 107.5,42.5 Z M 86.5,43.5 C 86.5,43.8333 86.5,44.1667 86.5,44.5C 85.5084,44.3284 84.8417,44.6618 84.5,45.5C 83.5,45.5 82.5,45.5 81.5,45.5C 82.7804,44.0687 84.4471,43.4021 86.5,43.5 Z M 91.5,43.5 C 98.7875,43.0695 105.954,43.7362 113,45.5C 113.765,45.4301 114.265,45.0967 114.5,44.5C 116.553,44.4021 118.22,45.0687 119.5,46.5C 118.761,46.369 118.094,46.5357 117.5,47C 119.078,48.0945 120.745,48.9278 122.5,49.5C 122.842,50.3382 123.508,50.6716 124.5,50.5C 126.833,53.5 129.5,56.1667 132.5,58.5C 132.427,60.0269 133.094,61.0269 134.5,61.5C 134.328,62.4916 134.662,63.1583 135.5,63.5C 136.264,66.0177 137.264,68.351 138.5,70.5C 138.232,72.099 138.566,73.4324 139.5,74.5C 139.216,76.4147 139.549,78.0813 140.5,79.5C 140.667,92.1711 140.5,104.838 140,117.5C 138.629,115.959 137.129,114.625 135.5,113.5C 135.167,112.5 134.5,111.833 133.5,111.5C 133.167,110.5 132.5,109.833 131.5,109.5C 131.167,108.5 130.5,107.833 129.5,107.5C 129.167,106.5 128.5,105.833 127.5,105.5C 110.202,87.7014 92.7017,70.0348 75,52.5C 74.9115,50.8866 75.7448,49.7199 77.5,49C 79.9252,47.7874 82.2585,46.6207 84.5,45.5C 85.4916,45.6716 86.1583,45.3382 86.5,44.5C 88.4147,44.7845 90.0813,44.4511 91.5,43.5 Z M 73.5,50.5 C 73.5,51.1667 73.5,51.8333 73.5,52.5C 71.0673,51.4523 71.0673,50.7856 73.5,50.5 Z M 59.5,51.5 C 62.8333,55.5 66.5,59.1667 70.5,62.5C 72.7657,66.4356 75.7657,69.7689 79.5,72.5C 83.5,77.1667 87.8333,81.5 92.5,85.5C 92.8333,86.5 93.5,87.1667 94.5,87.5C 94.8333,88.5 95.5,89.1667 96.5,89.5C 96.8333,90.5 97.5,91.1667 98.5,91.5C 106.964,100.465 115.631,109.298 124.5,118C 119.655,121.422 114.322,123.755 108.5,125C 109.793,125.49 111.127,125.657 112.5,125.5C 106.997,128.031 101.33,128.698 95.5,127.5C 97.8568,127.663 100.19,127.497 102.5,127C 88.9009,126.531 77.2343,121.697 67.5,112.5C 67.573,110.973 66.9063,109.973 65.5,109.5C 65.5,108.833 65.1667,108.5 64.5,108.5C 64.6716,107.508 64.3382,106.842 63.5,106.5C 62.342,103.011 61.0086,99.6777 59.5,96.5C 59.7678,94.901 59.4345,93.5676 58.5,92.5C 58.171,78.6565 58.5043,64.9898 59.5,51.5 Z"/></g>
<g><path style="opacity:0.008" fill="#6275ff" d="M 84.5,33.5 C 85.6009,32.4017 86.9343,32.235 88.5,33C 87.2068,33.49 85.8734,33.6567 84.5,33.5 Z"/></g>
<g><path style="opacity:0.016" fill="#518dff" d="M 55.5,34.5 C 55.8966,33.475 56.5632,33.3083 57.5,34C 59.6667,36.1667 61.8333,38.3333 64,40.5C 64.6917,41.4368 64.525,42.1034 63.5,42.5C 62.8333,42.5 62.5,42.1667 62.5,41.5C 61.8333,41.5 61.5,41.1667 61.5,40.5C 60.8333,40.5 60.5,40.1667 60.5,39.5C 59.8333,39.5 59.5,39.1667 59.5,38.5C 58.8333,38.5 58.5,38.1667 58.5,37.5C 57.8333,37.5 57.5,37.1667 57.5,36.5C 56.8333,36.5 56.5,36.1667 56.5,35.5C 55.8333,35.5 55.5,35.1667 55.5,34.5 Z"/></g>
<g><path style="opacity:0.012" fill="#55a7ff" d="M 57.5,49.5 C 57.8333,49.5 58.1667,49.5 58.5,49.5C 58.5,50.1667 58.8333,50.5 59.5,50.5C 59.5,50.8333 59.5,51.1667 59.5,51.5C 58.5043,64.9898 58.171,78.6565 58.5,92.5C 58.1667,92.5 57.8333,92.5 57.5,92.5C 57.5,78.1667 57.5,63.8333 57.5,49.5 Z"/></g>
<g><path style="opacity:0.016" fill="#4f85ff" d="M 70.5,62.5 C 70.8333,62.5 71.1667,62.5 71.5,62.5C 71.5,63.1667 71.8333,63.5 72.5,63.5C 72.5,64.1667 72.8333,64.5 73.5,64.5C 73.5,65.1667 73.8333,65.5 74.5,65.5C 74.5,66.1667 74.8333,66.5 75.5,66.5C 75.5,67.1667 75.8333,67.5 76.5,67.5C 76.5,68.1667 76.8333,68.5 77.5,68.5C 77.5,69.1667 77.8333,69.5 78.5,69.5C 78.5,70.1667 78.8333,70.5 79.5,70.5C 79.5,71.1667 79.8333,71.5 80.5,71.5C 80.5,71.8333 80.5,72.1667 80.5,72.5C 80.1667,72.5 79.8333,72.5 79.5,72.5C 75.7657,69.7689 72.7657,66.4356 70.5,62.5 Z"/></g>
<g><path style="opacity:0.016" fill="#44a0ff" d="M 47.5,94.5 C 47.8333,94.5 48.1667,94.5 48.5,94.5C 48.5,95.8333 48.5,97.1667 48.5,98.5C 47.5655,97.4324 47.2322,96.099 47.5,94.5 Z"/></g>
<g><path style="opacity:0.016" fill="#69a0ff" d="M 48.5,98.5 C 48.8333,98.5 49.1667,98.5 49.5,98.5C 49.5,99.5 49.5,100.5 49.5,101.5C 48.596,100.791 48.2627,99.791 48.5,98.5 Z"/></g>
<g><path style="opacity:0.016" fill="#3f9eff" d="M 49.5,101.5 C 49.8333,101.5 50.1667,101.5 50.5,101.5C 50.5,102.5 50.5,103.5 50.5,104.5C 49.596,103.791 49.2627,102.791 49.5,101.5 Z"/></g>
<g><path style="opacity:0.008" fill="#73e2ff" d="M 50.5,104.5 C 50.8333,104.5 51.1667,104.5 51.5,104.5C 51.5,105.167 51.5,105.833 51.5,106.5C 50.6618,106.158 50.3284,105.492 50.5,104.5 Z"/></g>
<g><path style="opacity:0.012" fill="#6c8eff" d="M 51.5,106.5 C 51.8333,106.5 52.1667,106.5 52.5,106.5C 52.5,107.167 52.5,107.833 52.5,108.5C 51.6618,108.158 51.3284,107.492 51.5,106.5 Z"/></g>
<g><path style="opacity:0.972" fill="#4fabff" d="M 57.5,145.5 C 56.5525,146.978 55.2191,147.978 53.5,148.5C 51.8297,148.249 50.3297,147.582 49,146.5C 48.3333,117.167 47.6667,117.167 47,146.5C 46.0363,138.335 46.3697,130.335 48,122.5C 49.9743,122.626 52.141,122.792 54.5,123C 55,123.5 55.5,124 56,124.5C 56.1715,131.679 56.6715,138.679 57.5,145.5 Z"/></g>
<g><path style="opacity:0.008" fill="#3075ff" d="M 65.5,123.5 C 66.1667,123.5 66.5,123.833 66.5,124.5C 65.5029,125.713 64.5029,125.546 63.5,124C 64.0944,123.536 64.7611,123.369 65.5,123.5 Z"/></g>
<g><path style="opacity:0.012" fill="#53b1ff" d="M 57.5,145.5 C 57.3337,138.492 57.5004,131.492 58,124.5C 58.8213,131.679 58.6546,138.679 57.5,145.5 Z"/></g>
<g><path style="opacity:0.008" fill="#2ea8ff" d="M 129.5,127.5 C 129.5,127.167 129.5,126.833 129.5,126.5C 132.167,126.833 132.167,127.167 129.5,127.5 Z"/></g>
<g><path style="opacity:0.016" fill="#3f7eff" d="M 128.5,127.5 C 128.833,127.5 129.167,127.5 129.5,127.5C 129.315,128.17 128.981,128.17 128.5,127.5 Z"/></g>
<g><path style="opacity:0.012" fill="#55aaff" d="M 127.5,128.5 C 127.833,128.5 128.167,128.5 128.5,128.5C 128.315,129.17 127.981,129.17 127.5,128.5 Z"/></g>
<g><path style="opacity:0.008" fill="#7f7fff" d="M 71.5,129.5 C 71.8333,129.5 72.1667,129.5 72.5,129.5C 72.3147,130.17 71.9813,130.17 71.5,129.5 Z"/></g>
<g><path style="opacity:0.004" fill="#3de2ff" d="M 125.5,130.5 C 125.5,130.167 125.5,129.833 125.5,129.5C 126.167,129.5 126.833,129.5 127.5,129.5C 127.158,130.338 126.492,130.672 125.5,130.5 Z"/></g>
<g><path style="opacity:0.008" fill="#b0a7ff" d="M 123.5,131.5 C 123.5,131.167 123.5,130.833 123.5,130.5C 124.167,130.5 124.833,130.5 125.5,130.5C 125.158,131.338 124.492,131.672 123.5,131.5 Z"/></g>
<g><path style="opacity:0.012" fill="#55aaff" d="M 122.5,131.5 C 122.833,131.5 123.167,131.5 123.5,131.5C 123.315,132.17 122.981,132.17 122.5,131.5 Z"/></g>
<g><path style="opacity:0.012" fill="#4ec6ff" d="M 119.5,133.5 C 119.5,133.167 119.5,132.833 119.5,132.5C 122.167,132.833 122.167,133.167 119.5,133.5 Z"/></g>
<g><path style="opacity:0.012" fill="#55aaff" d="M 117.5,134.5 C 117.5,134.167 117.5,133.833 117.5,133.5C 118.167,133.5 118.833,133.5 119.5,133.5C 119.158,134.338 118.492,134.672 117.5,134.5 Z"/></g>
<g><path style="opacity:0.012" fill="#61b4ff" d="M 114.5,135.5 C 114.5,135.167 114.5,134.833 114.5,134.5C 115.5,134.5 116.5,134.5 117.5,134.5C 116.791,135.404 115.791,135.737 114.5,135.5 Z"/></g>
<g><path style="opacity:0.016" fill="#4ba9ff" d="M 114.5,135.5 C 113.749,136.573 112.749,136.74 111.5,136C 112.448,135.517 113.448,135.351 114.5,135.5 Z"/></g>
<g><path style="opacity:0.004" fill="#00fffe" d="M 149.5,135.5 C 149.833,135.5 150.167,135.5 150.5,135.5C 150.315,136.17 149.981,136.17 149.5,135.5 Z"/></g>
<g><path style="opacity:0.008" fill="#79a0ff" d="M 147.5,136.5 C 148.167,136.5 148.833,136.5 149.5,136.5C 149.672,137.492 149.338,138.158 148.5,138.5C 148.167,137.833 147.833,137.167 147.5,136.5 Z"/></g>
<g><path style="opacity:0.012" fill="#57b1ff" d="M 100.5,139.5 C 99.8333,138.167 99.1667,138.167 98.5,139.5C 90.5211,138.135 90.6878,137.468 99,137.5C 101.167,137.667 103.333,137.833 105.5,138C 103.846,138.608 102.179,139.108 100.5,139.5 Z"/></g>
<g><path style="opacity:0.004" fill="#36e9ff" d="M 144.5,136.5 C 144.833,137.167 145.167,137.833 145.5,138.5C 144.833,138.5 144.167,138.5 143.5,138.5C 143.328,137.508 143.662,136.842 144.5,136.5 Z"/></g>
<g><path style="opacity:0.956" fill="#4aa4ff" d="M 98.5,139.5 C 99.1667,139.5 99.8333,139.5 100.5,139.5C 101.846,141.127 103.346,141.794 105,141.5C 105.667,149.167 105.667,156.833 105,164.5C 104.617,165.056 104.117,165.389 103.5,165.5C 103.167,164.167 102.833,164.167 102.5,165.5C 101.508,165.328 100.842,165.662 100.5,166.5C 98.114,165.5 95.9474,164.833 94,164.5C 93.3333,156.833 93.3333,149.167 94,141.5C 95.6536,141.794 97.1536,141.127 98.5,139.5 Z"/></g>
<g><path style="opacity:0.957" fill="#4ba4ff" d="M 143.5,138.5 C 144.167,139.833 144.833,139.833 145.5,138.5C 146.5,138.5 147.5,138.5 148.5,138.5C 148.783,139.289 149.283,139.956 150,140.5C 150.499,145.823 150.666,151.156 150.5,156.5C 150.5,156.833 150.5,157.167 150.5,157.5C 149.833,157.5 149.5,157.833 149.5,158.5C 146.09,158.601 143.257,157.934 141,156.5C 140.333,151.5 140.333,146.5 141,141.5C 141.377,140.058 142.21,139.058 143.5,138.5 Z"/></g>
<g><path style="opacity:0.008" fill="#70f6ff" d="M 150.5,158.5 C 150.5,158.167 150.5,157.833 150.5,157.5C 150.5,157.167 150.5,156.833 150.5,156.5C 151.327,151.349 151.827,146.016 152,140.5C 152.667,146.167 152.667,151.833 152,157.5C 151.617,158.056 151.117,158.389 150.5,158.5 Z"/></g>
<g><path style="opacity:0.004" fill="#414eff" d="M 53.5,149.5 C 53.5,149.167 53.5,148.833 53.5,148.5C 56.1667,148.833 56.1667,149.167 53.5,149.5 Z"/></g>
<g><path style="opacity:0.004" fill="#4f6dff" d="M 53.5,149.5 C 53.1034,150.525 52.4368,150.692 51.5,150C 52.0944,149.536 52.7611,149.369 53.5,149.5 Z"/></g>
<g><path style="opacity:0.004" fill="#0000ff" d="M 149.5,158.5 C 149.833,158.5 150.167,158.5 150.5,158.5C 150.315,159.17 149.981,159.17 149.5,158.5 Z"/></g>
<g><path style="opacity:0.016" fill="#4c76ff" d="M 149.5,159.5 C 148.054,160.613 146.387,160.78 144.5,160C 146.134,159.506 147.801,159.34 149.5,159.5 Z"/></g>
<g><path style="opacity:0.004" fill="#0000ff" d="M 102.5,165.5 C 102.833,165.5 103.167,165.5 103.5,165.5C 103.315,166.17 102.981,166.17 102.5,165.5 Z"/></g>
<g><path style="opacity:0.004" fill="#3de2ff" d="M 100.5,167.5 C 100.5,167.167 100.5,166.833 100.5,166.5C 101.167,166.5 101.833,166.5 102.5,166.5C 102.158,167.338 101.492,167.672 100.5,167.5 Z"/></g>
<g><path style="opacity:0.004" fill="#0000ff" d="M 100.5,167.5 C 100.103,168.525 99.4368,168.692 98.5,168C 99.0944,167.536 99.7611,167.369 100.5,167.5 Z"/></g>
</svg>
