<svg xmlns="http://www.w3.org/2000/svg" width="400" height="400" viewBox="0 0 400 400"><path fill="#FEFEFF" d="M0 0h400v400H0z"/><path fill="#6503FF" d="M245 183c4.516 1.505 7.7 2.807 11.695 5.152l3.168 1.854 3.262 1.931 3.285 1.92c5.864 3.447 5.864 3.447 8.59 5.143l2.132 1.056c2.958 3.078 2.391 6.6 2.322 10.638l.002 2.691a908 908 0 0 1-.065 8.814q-.012 3.054-.018 6.108c-.015 5.361-.054 10.722-.098 16.083-.041 5.47-.06 10.94-.08 16.409A8388 8388 0 0 1 279 293l-2.161 1.207q-4.029 2.25-8.057 4.503l-5.154 2.88c-6.058 3.389-12.095 6.806-18.065 10.348l-2.077 1.231-1.888 1.12c-6.006 3.554-12.054 7.036-18.098 10.524l-3.33 1.923q-3.135 1.808-6.28 3.602c-1.854 1.067-3.7 2.15-5.53 3.257l-2.391 1.417-2.05 1.245c-2.495.966-3.432.705-5.919-.257a140 140 0 0 1-5.684-3.055l-3.31-1.863-3.443-1.957-3.432-1.934A1311 1311 0 0 1 173 322l-2.864-1.583L168 319v-2l1.914-1.063c12.843-7.141 25.623-14.367 38.3-21.8 7.67-4.495 15.374-8.924 23.101-13.32l2.447-1.391 2.251-1.279a186 186 0 0 0 4.944-2.979C243 274 243 274 245 274z"/><path fill="#6502FF" d="M239 86a317 317 0 0 1 23.125 12.438l6.293 3.699 3.263 1.92c4.46 2.612 8.937 5.196 13.423 7.766a435 435 0 0 1 6.617 3.903c5.554 3.318 10.651 6.074 16.96 7.628 3.875 1.817 6.787 4.18 9.319 7.646.98 3.11 1.039 6.043 1.027 9.29l.066 2.627c.152 9.044-.382 18.07-1.093 27.083-8.048-4.258-16.082-8.516-23.937-13.125l-2.354-1.371Q287.853 153.255 284 151l-5.879-3.43-3.048-1.778q-3.061-1.785-6.129-3.564c-4.863-2.824-9.7-5.678-14.483-8.634l-2.61-1.586a264 264 0 0 1-4.788-2.985c-4.166-2.544-4.166-2.544-8.915-2.691-4.71 2.496-9.32 5.124-13.898 7.856l-6.477 3.82-3.38 1.997c-5.484 3.224-11.002 6.389-16.518 9.558-6.47 3.718-12.925 7.454-19.336 11.273l-3.085 1.838a1575 1575 0 0 0-5.779 3.467l-2.581 1.543-2.26 1.36C163 170 163 170 161 170v-39l12.5-7.125a3092 3092 0 0 0 30.721-17.767c8.14-4.759 16.337-9.41 24.56-14.023l2.739-1.538 2.409-1.349c1.73-1 3.408-2.09 5.071-3.198"/><path fill="#6502FF" d="M200.794 63.195c2.924 1.067 5.48 2.525 8.179 4.078l1.71.984q1.783 1.027 3.562 2.062a982 982 0 0 0 5.444 3.134q1.737 1.003 3.471 2.008l3.176 1.837c2.235 1.428 3.916 2.732 5.664 4.702l-1.73.971c-11.034 6.2-22.037 12.445-32.957 18.841a3270 3270 0 0 1-25.733 14.915l-3.76 2.16a2552 2552 0 0 1-5.246 3.008l-3.044 1.745C157 125 157 125 154 126v91l-15-8-5.096-2.252c-10.438-4.71-10.438-4.71-12.888-9.787-1.706-6.009-1.578-12.155-1.52-18.352q-.044-2.988-.1-5.977c-.056-4.168-.048-8.33.003-12.497a289 289 0 0 0-.143-12.749c-1.122-33.918-1.122-33.918 5.02-42.605 5.553-4.969 11.806-7.569 18.842-9.815 3.801-1.274 6.79-3.054 10.175-5.193l5.895-3.398 3.221-1.859q7.832-4.517 15.689-8.989l2.895-1.648q2.666-1.515 5.336-3.024c3.45-1.96 6.792-3.908 10-6.25C199 63 199 63 200.793 63.195M81 232l2.768 1.587c6.51 3.73 13.03 7.429 19.607 11.038 7.207 3.98 14.332 8.092 21.438 12.25l3.047 1.778a2306 2306 0 0 1 15.199 8.945l5.691 3.34 2.652 1.595 2.457 1.432 2.14 1.27c2.53.967 3.492.735 6.001-.235a109 109 0 0 0 5.016-2.668l3.004-1.686 3.23-1.834 3.369-1.9c12.65-7.157 25.185-14.507 37.715-21.871q4.988-2.93 9.978-5.853l3.112-1.834 2.877-1.686 2.536-1.491C235 233 235 233 238 232v37l-12.375 7.063a7670 7670 0 0 0-25.68 14.72q-3.19 1.839-6.385 3.672a741 741 0 0 0-16.345 9.666l-3.321 2.004a491 491 0 0 0-6.245 3.836l-2.825 1.7c-.814.5-1.627 1.002-2.466 1.519-2.358.82-2.358.82-4.895.112L155 312l-2.115-1.106-2.123-1.222-2.448-1.402-2.626-1.52-2.78-1.598a3997 3997 0 0 1-23.927-13.918 1889 1889 0 0 0-23.032-13.24 206 206 0 0 1-4.709-2.755c-2.197-1.303-2.197-1.303-4.59-2.026-2.74-1.086-3.936-1.784-5.65-4.213-1.015-6.291-.75-12.465-.5-18.812q.06-2.64.11-5.28c.087-4.305.225-8.605.39-12.908"/><path fill="#6502FF" d="M81 168h34v36l6 2a93 93 0 0 1 4.922 2.73l2.817 1.66 3.011 1.798 6.477 3.82 3.38 1.997c5.484 3.224 11.002 6.389 16.518 9.558 11.68 6.721 23.292 13.551 34.875 20.437-4.97 3.902-10.483 6.95-15.935 10.117a422 422 0 0 0-3.87 2.287 462 462 0 0 1-5.625 3.3l-3.382 1.988c-3.713 1.523-5.381 1.445-9.188.308-2.288-1.069-2.288-1.069-4.484-2.414l-2.544-1.534-2.722-1.677q-2.958-1.785-5.918-3.566l-3.13-1.892c-5.384-3.224-10.824-6.351-16.264-9.48a6014 6014 0 0 0-27.354-15.67l-2.416-1.376-2.085-1.187L86 226l-2.595-1.238C81 223 81 223 80.4 220.552l.033-2.941.002-3.337.078-3.598.021-3.687c.028-3.893.09-7.784.154-11.677q.038-3.954.069-7.908c.05-6.469.149-12.935.244-19.404"/><path fill="#6501FF" d="M239.261 134.78c3.19.256 4.834 1.108 7.563 2.755l2.826 1.68 3.037 1.848 6.52 3.882 3.4 2.036c5.391 3.208 10.83 6.332 16.268 9.457l6.453 3.718 3.276 1.887q9.011 5.195 18.021 10.395L318 179v53h-32v-35l-5-2a201 201 0 0 1-5.36-2.906l-3.104-1.739-3.286-1.855-3.403-1.914a1060 1060 0 0 1-20.579-11.888c-6.55-3.886-13.164-7.655-19.789-11.413A738 738 0 0 1 208 153a66 66 0 0 1 10.484-7.2c1.017-.568 2.035-1.137 3.082-1.724l3.184-1.763q3.15-1.755 6.297-3.512l2.807-1.558c4.019-2.328 4.019-2.328 5.407-2.464"/><path fill="#6C0EFF" d="M115 113v25H81v-6c2.176-1.95 2.176-1.95 5.313-3.687l1.706-.971a333 333 0 0 1 3.814-2.133c2.42-1.35 4.805-2.754 7.19-4.166q2.582-1.523 5.165-3.043l2.538-1.495 2.38-1.38 2.13-1.242C113 113 113 113 115 113"/><path fill="#6604FF" d="M286 263h32c0 7 0 7-1.354 8.586l-1.908 1.004-2.124 1.176-2.301 1.171a2761 2761 0 0 0-4.672 2.551l-2.366 1.264c-3.324 1.823-6.515 3.838-9.712 5.873C288.233 288 288.233 288 286 288z"/><path fill="#6705FF" d="M286 243h32v9h-32z"/><path fill="#6400FF" d="M81 149h33v8H81z"/></svg>