<svg xmlns="http://www.w3.org/2000/svg" width="32" height="32" viewBox="0 0 32 32"><path d="M32 16c0 8.836-7.164 16-16 16S0 24.836 0 16 7.164 0 16 0s16 7.164 16 16zm0 0" fill="#ffd15c"/><path d="M8.25 22.555a.849.849 0 00.332-.434.89.89 0 00-.004-.523c-.004-.004-.004-.008-.004-.012l.028-.152c.074.039.156.093.253.164.024.015.055.039.09.062.043.031.09.067.121.086.055.04.13.09.211.133 2.133 1.328 3.899 1.875 5.301 1.805 1.45-.07 2.465-.797 2.988-1.864.508-1.027.524-2.3.168-3.48a5.986 5.986 0 00-2.226-3.14c-1.89-1.348-3.617-3.395-4.492-5.138C10.57 9.18 10.395 8.47 10.44 8c.02-.215.086-.348.168-.43.078-.086.223-.18.5-.222.594-.098 1.278-.313 1.97-.528.269-.082.538-.168.808-.246 1-.293 2.054-.539 3.168-.535 2.156.004 4.687.941 7.355 4.836 3.422 5.004 1.543 10.598-2.402 13.535-1.965 1.465-4.422 2.242-6.942 1.945-2.273-.265-4.648-1.41-6.816-3.8zm.398-1.293l-.003.004.003-.004zm-.214.097h.007-.007zm0 0" fill="#fff" stroke-width="1.288" stroke="#000"/><path d="M10.21 7.602s6.118-1.63 7.454-1.63c1.34 0 6.691 2.598 8.254 7.348 2.215 6.73-3.809 11.145-4.488 10.711 6.476-5.355-4.125-15.254-9.336-14.511-.653.093-.293.652-.293.652l-.145 1.445L10.57 9.81zm0 0"/><path d="M25.027 11.297c1.93 3.398 1.528 1.453 1.102 5.34.793-1.285 2.031-.325 2.547.168.09.086.242.03.238-.094-.02-.578-.187-1.824-1.14-3.16-1.31-1.832-2.747-2.254-2.747-2.254zm0 0"/><path d="M26.129 16.637c.426-3.887.828-1.942-1.102-5.34 0 0 1.438.422 2.746 2.254.954 1.336 1.122 2.582 1.141 3.16.004.125-.148.18-.238.094-.516-.493-1.754-1.453-2.547-.168zm0 0l.187-.469" fill="none" stroke-width=".072" stroke="#000"/><path d="M9.488 16.117C8.672 17.497 7 17.395 7.031 19.04c1.492 3.316 1.504 3.078 1.504 3.078 2.766-1.55 1.63-4.984 1.219-5.992-.047-.113-.203-.113-.266-.008zm0 0"/><path d="M3.215 19.168c1.59.207 2.539-1.176 3.816-.137 1.696 3.219 1.5 3.082 1.5 3.082-2.926 1.223-4.93-1.785-5.472-2.73-.063-.11.035-.23.156-.215zm13.328-2.047s1.594 1.629.762 1.883c-1.04-.64-2.899-.145-3.813.164-.222.074-.441-.125-.363-.348.312-.851 1.078-2.43 2.547-2.64.867-.22.867.941.867.941zm0 0"/><path d="M17.52 9.156c-.18-.25-.543-.937.582-.937 1.12 0 2.835 1.27 3.183 1.738-.11.285-.832.352-1.195.324-.36-.027-.977-.09-1.445-.324-.473-.234-.942-.547-1.125-.8zm0 0" fill="#fff"/></svg>