<svg xmlns="http://www.w3.org/2000/svg" width="40" height="40" fill="none" viewBox="0 0 40 40"><g clip-path="url(#orclon_svg-a)"><path fill="#FBD1D3" d="M20 0c11.046 0 20 8.954 20 20s-8.954 20-20 20S0 31.046 0 20 8.954 0 20 0"/><path fill="#EA1B22" d="M26 6a8 8 0 0 1 8 8v12a8 8 0 0 1-8 8H14a8 8 0 0 1-8-8V14a8 8 0 0 1 8-8z"/><path fill="#fff" fill-rule="evenodd" d="M10.125 20a6.25 6.25 0 0 0 6.246 6.25h7.258A6.25 6.25 0 0 0 29.875 20a6.25 6.25 0 0 0-6.246-6.25H16.37A6.25 6.25 0 0 0 10.125 20m17.389 0a4.045 4.045 0 0 1-4.043 4.046h-6.937a4.045 4.045 0 0 1-.003-8.091h6.939A4.044 4.044 0 0 1 27.514 20" clip-rule="evenodd"/></g><defs><clipPath id="orclon_svg-a"><path fill="#fff" d="M0 0h40v40H0z"/></clipPath></defs></svg>