<svg xmlns="http://www.w3.org/2000/svg" width="1801" height="2176" fill="none" viewBox="0 0 1801 2176"><path fill="url(#oseth_svg-a)" d="M900.48 2175.2.885 1715.89 900.48 1274.7z"/><path stroke="#5A9DDB" stroke-miterlimit="10" stroke-width=".05" d="M900.48 2175.2.885 1716.8l900.501-442.1v900.5z"/><path fill="url(#oseth_svg-b)" d="M900.405 1274.7 1800 1718.61 900.405 2175.2z"/><path stroke="url(#oseth_svg-c)" stroke-miterlimit="10" stroke-width=".05" d="M900.405 1274.7 1800 1718.61 901.311 2175.2v-900.5z"/><path fill="url(#oseth_svg-d)" d="m1432.19 1015.63 367.81 702.1-899.595-443.91z"/><path stroke="#3FAEFF" stroke-miterlimit="10" stroke-width=".05" d="m1433.1 1015.52 366.9 702.1-899.595-443 531.785-260.01z"/><path fill="url(#oseth_svg-e)" d="m369.622 1013.88 530.878 260.9L0 1715.07z"/><path stroke="#69A5FF" stroke-miterlimit="10" stroke-width=".05" d="m369.601 1013.88 531.785 260-900.5 442.1z"/><path fill="url(#oseth_svg-f)" d="M900.54 1274.5V1.66L370.568 1014.5l531.784 260z"/><path stroke="#88AABD" stroke-miterlimit="10" stroke-width=".05" d="M900.504 1274.67V.922L371.438 1013.76l530.878 260.91z"/><path fill="url(#oseth_svg-g)" d="M900.405 1274.5V1.66L1432.19 1015.4z"/><path stroke="#51A2ED" stroke-miterlimit="10" stroke-width=".05" d="M900.405 1274.67V.922L1433.1 1015.57l-532.695 258.19z"/><path fill="url(#oseth_svg-h)" d="M900.48 2175.2.885 1715.89 900.48 1274.7z"/><path stroke="#5A9DDB" stroke-miterlimit="10" stroke-width=".05" d="M900.48 2175.2.885 1716.8l900.501-442.1v900.5z"/><path fill="url(#oseth_svg-i)" d="M900.405 1274.7 1800 1718.61 900.405 2175.2z"/><path stroke="url(#oseth_svg-j)" stroke-miterlimit="10" stroke-width=".05" d="M900.405 1274.7 1800 1718.61 901.311 2175.2v-900.5z"/><path fill="url(#oseth_svg-k)" d="m1432.19 1015.63 367.81 702.1-899.595-443.91z"/><path stroke="#3FAEFF" stroke-miterlimit="10" stroke-width=".05" d="m1433.1 1015.52 366.9 702.1-899.595-443 531.785-260.01z"/><path fill="url(#oseth_svg-l)" d="m369.622 1013.88 530.878 260.9L0 1715.07z"/><path stroke="#69A5FF" stroke-miterlimit="10" stroke-width=".05" d="m369.601 1013.88 531.785 260-900.5 442.1z"/><path fill="url(#oseth_svg-m)" d="M900.54 1274.5V1.66L370.568 1014.5l531.784 260z"/><path stroke="#88AABD" stroke-miterlimit="10" stroke-width=".05" d="M900.504 1274.67V.922L371.438 1013.76l530.878 260.91z"/><path fill="url(#oseth_svg-n)" d="M900.405 1274.5V1.66L1432.19 1015.4z"/><path stroke="#51A2ED" stroke-miterlimit="10" stroke-width=".05" d="M900.405 1274.67V.922L1433.1 1015.57l-532.695 258.19z"/><path fill="url(#oseth_svg-o)" d="M900.48 2175.2.885 1715.89 900.48 1274.7z"/><path stroke="#5A9DDB" stroke-miterlimit="10" stroke-width=".05" d="M900.48 2175.2.885 1716.8l900.501-442.1v900.5z"/><path fill="url(#oseth_svg-p)" d="M900.405 1274.7 1800 1718.61 900.405 2175.2z"/><path stroke="url(#oseth_svg-q)" stroke-miterlimit="10" stroke-width=".05" d="M900.405 1274.7 1800 1718.61 901.311 2175.2v-900.5z"/><path fill="url(#oseth_svg-r)" d="m1432.19 1015.63 367.81 702.1-899.595-443.91z"/><path stroke="#3FAEFF" stroke-miterlimit="10" stroke-width=".05" d="m1433.1 1015.52 366.9 702.1-899.595-443 531.785-260.01z"/><path fill="url(#oseth_svg-s)" d="m369.622 1013.88 530.878 260.9L0 1715.07z"/><path stroke="#69A5FF" stroke-miterlimit="10" stroke-width=".05" d="m369.601 1013.88 531.785 260-900.5 442.1z"/><path fill="url(#oseth_svg-t)" d="M900.54 1274.5V1.66L370.568 1014.5l531.784 260z"/><path stroke="#88AABD" stroke-miterlimit="10" stroke-width=".05" d="M900.504 1274.67V.922L371.438 1013.76l530.878 260.91z"/><path fill="url(#oseth_svg-u)" d="M900.405 1274.5V1.66L1432.19 1015.4z"/><path stroke="#51A2ED" stroke-miterlimit="10" stroke-width=".05" d="M900.405 1274.67V.922L1433.1 1015.57l-532.695 258.19z"/><path fill="url(#oseth_svg-v)" d="M900.48 2175.2.885 1715.89 900.48 1274.7z"/><path stroke="#5A9DDB" stroke-miterlimit="10" stroke-width=".05" d="M900.48 2175.2.885 1716.8l900.501-442.1v900.5z"/><path fill="url(#oseth_svg-w)" d="M900.405 1274.7 1800 1718.61 900.405 2175.2z"/><path stroke="url(#oseth_svg-x)" stroke-miterlimit="10" stroke-width=".05" d="M900.405 1274.7 1800 1718.61 901.311 2175.2v-900.5z"/><path fill="url(#oseth_svg-y)" d="m1432.19 1015.63 367.81 702.1-899.595-443.91z"/><path stroke="#3FAEFF" stroke-miterlimit="10" stroke-width=".05" d="m1433.1 1015.52 366.9 702.1-899.595-443 531.785-260.01z"/><path fill="url(#oseth_svg-z)" d="m369.622 1013.88 530.878 260.9L0 1715.07z"/><path stroke="#69A5FF" stroke-miterlimit="10" stroke-width=".05" d="m369.601 1013.88 531.785 260-900.5 442.1z"/><path fill="url(#oseth_svg-A)" d="M900.54 1274.5V1.66L370.568 1014.5l531.784 260z"/><path stroke="#88AABD" stroke-miterlimit="10" stroke-width=".05" d="M900.504 1274.67V.922L371.438 1013.76l530.878 260.91z"/><path fill="url(#oseth_svg-B)" d="M900.405 1274.5V1.66L1432.19 1015.4z"/><path stroke="#51A2ED" stroke-miterlimit="10" stroke-width=".05" d="M900.405 1274.67V.922L1433.1 1015.57l-532.695 258.19z"/><defs><linearGradient id="oseth_svg-a" x1="195.662" x2="1115.19" y1="1413.31" y2="1876.24" gradientUnits="userSpaceOnUse"><stop stop-color="#45C7FF"/><stop offset="1" stop-color="#0E2450"/></linearGradient><linearGradient id="oseth_svg-b" x1="893.158" x2="1561.74" y1="2264.89" y2="1285.57" gradientUnits="userSpaceOnUse"><stop stop-color="#3B9CF7"/><stop offset=".2" stop-color="#579CED"/><stop offset=".703" stop-color="#3789D7"/><stop offset="1" stop-color="#A5C4DA"/></linearGradient><linearGradient id="oseth_svg-c" x1="901.311" x2="1800.91" y1="-7869.82" y2="-7869.82" gradientUnits="userSpaceOnUse"><stop stop-color="#4FB8D9"/><stop offset=".6" stop-color="#39D8FB"/><stop offset="1" stop-color="#3F5FBC"/></linearGradient><linearGradient id="oseth_svg-d" x1="1289.96" x2="1992.06" y1="1482.19" y2="707.615" gradientUnits="userSpaceOnUse"><stop stop-color="#33B6FF"/><stop offset="1" stop-color="#6562FD"/></linearGradient><linearGradient id="oseth_svg-e" x1="454.78" x2="553.527" y1="1446.91" y2="1149.77" gradientUnits="userSpaceOnUse"><stop stop-color="#4AB0EA"/><stop offset="1" stop-color="#6D7F9B"/></linearGradient><linearGradient id="oseth_svg-f" x1="1021.94" x2="555.378" y1="637.627" y2="637.627" gradientUnits="userSpaceOnUse"><stop stop-color="#695CFB"/><stop offset="1" stop-color="#479AFD"/></linearGradient><linearGradient id="oseth_svg-g" x1="1051.7" x2="1381.46" y1="784.389" y2="1096.94" gradientUnits="userSpaceOnUse"><stop stop-color="#57E"/><stop offset="1" stop-color="#84A6FF"/></linearGradient><linearGradient id="oseth_svg-h" x1="195.662" x2="1115.19" y1="1413.31" y2="1876.24" gradientUnits="userSpaceOnUse"><stop stop-color="#45C7FF"/><stop offset="1" stop-color="#0E2450"/></linearGradient><linearGradient id="oseth_svg-i" x1="893.158" x2="1561.74" y1="2264.89" y2="1285.57" gradientUnits="userSpaceOnUse"><stop stop-color="#3B9CF7"/><stop offset=".2" stop-color="#579CED"/><stop offset=".703" stop-color="#3789D7"/><stop offset="1" stop-color="#A5C4DA"/></linearGradient><linearGradient id="oseth_svg-j" x1="901.311" x2="1800.91" y1="-7869.82" y2="-7869.82" gradientUnits="userSpaceOnUse"><stop stop-color="#4FB8D9"/><stop offset=".6" stop-color="#39D8FB"/><stop offset="1" stop-color="#3F5FBC"/></linearGradient><linearGradient id="oseth_svg-k" x1="1289.96" x2="1992.06" y1="1482.19" y2="707.615" gradientUnits="userSpaceOnUse"><stop stop-color="#33B6FF"/><stop offset="1" stop-color="#6562FD"/></linearGradient><linearGradient id="oseth_svg-l" x1="454.78" x2="553.527" y1="1446.91" y2="1149.77" gradientUnits="userSpaceOnUse"><stop stop-color="#4AB0EA"/><stop offset="1" stop-color="#6D7F9B"/></linearGradient><linearGradient id="oseth_svg-m" x1="1021.94" x2="555.378" y1="637.627" y2="637.627" gradientUnits="userSpaceOnUse"><stop stop-color="#695CFB"/><stop offset="1" stop-color="#479AFD"/></linearGradient><linearGradient id="oseth_svg-n" x1="1051.7" x2="1381.46" y1="784.389" y2="1096.94" gradientUnits="userSpaceOnUse"><stop stop-color="#57E"/><stop offset="1" stop-color="#84A6FF"/></linearGradient><linearGradient id="oseth_svg-o" x1="195.662" x2="1115.19" y1="1413.31" y2="1876.24" gradientUnits="userSpaceOnUse"><stop stop-color="#45C7FF"/><stop offset="1" stop-color="#0E2450"/></linearGradient><linearGradient id="oseth_svg-p" x1="893.158" x2="1561.74" y1="2264.89" y2="1285.57" gradientUnits="userSpaceOnUse"><stop stop-color="#3B9CF7"/><stop offset=".2" stop-color="#579CED"/><stop offset=".703" stop-color="#3789D7"/><stop offset="1" stop-color="#A5C4DA"/></linearGradient><linearGradient id="oseth_svg-q" x1="901.311" x2="1800.91" y1="-7869.82" y2="-7869.82" gradientUnits="userSpaceOnUse"><stop stop-color="#4FB8D9"/><stop offset=".6" stop-color="#39D8FB"/><stop offset="1" stop-color="#3F5FBC"/></linearGradient><linearGradient id="oseth_svg-r" x1="1289.96" x2="1992.06" y1="1482.19" y2="707.615" gradientUnits="userSpaceOnUse"><stop stop-color="#33B6FF"/><stop offset="1" stop-color="#6562FD"/></linearGradient><linearGradient id="oseth_svg-s" x1="454.78" x2="553.527" y1="1446.91" y2="1149.77" gradientUnits="userSpaceOnUse"><stop stop-color="#4AB0EA"/><stop offset="1" stop-color="#6D7F9B"/></linearGradient><linearGradient id="oseth_svg-t" x1="1021.94" x2="555.378" y1="637.627" y2="637.627" gradientUnits="userSpaceOnUse"><stop stop-color="#695CFB"/><stop offset="1" stop-color="#479AFD"/></linearGradient><linearGradient id="oseth_svg-u" x1="1051.7" x2="1381.46" y1="784.389" y2="1096.94" gradientUnits="userSpaceOnUse"><stop stop-color="#57E"/><stop offset="1" stop-color="#84A6FF"/></linearGradient><linearGradient id="oseth_svg-v" x1="195.662" x2="1115.19" y1="1413.31" y2="1876.24" gradientUnits="userSpaceOnUse"><stop stop-color="#45C7FF"/><stop offset="1" stop-color="#0E2450"/></linearGradient><linearGradient id="oseth_svg-w" x1="893.158" x2="1561.74" y1="2264.89" y2="1285.57" gradientUnits="userSpaceOnUse"><stop stop-color="#3B9CF7"/><stop offset=".2" stop-color="#579CED"/><stop offset=".703" stop-color="#3789D7"/><stop offset="1" stop-color="#A5C4DA"/></linearGradient><linearGradient id="oseth_svg-x" x1="901.311" x2="1800.91" y1="-7869.82" y2="-7869.82" gradientUnits="userSpaceOnUse"><stop stop-color="#4FB8D9"/><stop offset=".6" stop-color="#39D8FB"/><stop offset="1" stop-color="#3F5FBC"/></linearGradient><linearGradient id="oseth_svg-y" x1="1289.96" x2="1992.06" y1="1482.19" y2="707.615" gradientUnits="userSpaceOnUse"><stop stop-color="#33B6FF"/><stop offset="1" stop-color="#6562FD"/></linearGradient><linearGradient id="oseth_svg-z" x1="454.78" x2="553.527" y1="1446.91" y2="1149.77" gradientUnits="userSpaceOnUse"><stop stop-color="#4AB0EA"/><stop offset="1" stop-color="#6D7F9B"/></linearGradient><linearGradient id="oseth_svg-A" x1="1021.94" x2="555.378" y1="637.627" y2="637.627" gradientUnits="userSpaceOnUse"><stop stop-color="#695CFB"/><stop offset="1" stop-color="#479AFD"/></linearGradient><linearGradient id="oseth_svg-B" x1="1051.7" x2="1381.46" y1="784.389" y2="1096.94" gradientUnits="userSpaceOnUse"><stop stop-color="#57E"/><stop offset="1" stop-color="#84A6FF"/></linearGradient></defs></svg>