<svg xmlns="http://www.w3.org/2000/svg" width="64" height="65" fill="none" viewBox="0 0 64 65"><rect width="64" height="64" y=".304" fill="#fff" rx="32"/><rect width="63" height="63" x=".5" y=".804" stroke="#070B14" stroke-opacity=".15" rx="31.5"/><path fill="#5E12A0" d="M52.456 17.9c-.458-1.74-1.93-3.48-4.579-5.416-2.125-1.544-4.381-2.43-6.18-2.43-.36 0-.686.033-1.013.098-.818.165-1.537.756-1.995 1.642-.556 1.05-.687 2.463-.327 3.316.131.263.294.591.49.887-1.732 1.05-2.713 1.346-2.844 1.379 4.512 1.51 8.273 4.662 10.627 8.766l.033-.394c.098-1.116.425-2.331.883-3.612q.686.198 1.373.197c1.21 0 2.256-.492 2.91-1.378.654-.887.916-2.036.621-3.054"/><path fill="url(#osmo_svg-a)" d="M47.745 21.186c2.976.82 4.185-1.478 3.793-3.02-.392-1.544-1.798-3.12-4.218-4.893s-4.872-2.495-6.442-2.167-2.027 2.725-1.635 3.645c.164.36.523.886 1.014 1.477-.622.427-1.21.755-1.7 1.05a19.35 19.35 0 0 1 7.585 6.075c.23-.887.556-1.675.85-2.364.23.065.491.131.753.197"/><path fill="url(#osmo_svg-b)" d="M30.711 53.4c10.095 0 18.28-8.217 18.28-18.353s-8.185-18.354-18.28-18.354-18.278 8.217-18.278 18.354S20.616 53.4 30.71 53.4"/><path fill="#A98698" d="M50.033 16.694c-2.485-2.627-4.578-3.316-7.096-3.875-1.961-.46-1.438-1.576.949-1.346-1.145-.394-2.224-.492-3.008-.328-1.57.328-2.028 2.725-1.635 3.644.163.362.523.887 1.013 1.478A25 25 0 0 1 38 17.613c.294.131.654.296 1.079.525 1.112.591 2.322 1.576 2.322 1.576-1.831-1.576-1.439-2.298 1.079-4.071.785-.558 2.223-.492 3.564.197 1.34.69 2.91 2.43 2.91 2.43l-1.504 2.889.294.099c.949.262 1.7.196 2.29-.033.686-.427 2.484-1.905 0-4.531" opacity=".6"/><path fill="#5E12A0" d="M42.905 14.39c.654.263 1.504.723 2.55 1.412 1.243.821 2.322 1.74 3.009 2.463-1.145 1.51-1.897 3.579-2.355 5.023.229.329.49.657.72.985a27 27 0 0 1 1.144-3.25c.13.033.294.033.458.033.392 0 .85-.066 1.21-.361.261-.198.556-.559.523-1.215 0-.624-.49-1.412-1.504-2.364-.72-.69-1.7-1.445-2.682-2.134-2.812-1.872-4.774-2.397-5.657-1.51-.588.59-.523 1.313-.327 1.838a38 38 0 0 1-2.517 1.51c.392.132.752.296 1.144.46 1.046-.591 2.55-1.543 4.283-2.89m6.18 4.663c.098.164.13.328.13.427 0 .295-.098.394-.163.46-.13.098-.392.163-.621.163.196-.36.425-.722.654-1.05m-8.077-4.892c.098-.099.36-.164.785-.099-.327.263-.654.493-.981.723-.033-.23 0-.427.196-.624"/><path fill="#5E12A0" d="M30.71 15.61c-10.692 0-19.357 8.7-19.357 19.436s8.665 19.437 19.357 19.437 19.358-8.7 19.358-19.437C50.036 24.31 41.37 15.61 30.71 15.61m0 37.757c-10.104 0-18.278-8.208-18.278-18.353S20.606 16.66 30.71 16.66c10.105 0 18.28 8.208 18.28 18.354-.034 10.145-8.208 18.353-18.28 18.353"/><path fill="url(#osmo_svg-c)" d="M30.711 53.4c10.095 0 18.28-8.217 18.28-18.353s-8.185-18.354-18.28-18.354-18.278 8.217-18.278 18.354S20.616 53.4 30.71 53.4" opacity=".6"/><path fill="#A98698" d="M30.58 51.128c-9.973-1.609-16.741-11.032-15.107-21.046a18.27 18.27 0 0 1 6.082-10.933 18.32 18.32 0 0 0-8.894 12.936C11.06 42.099 17.828 51.522 27.768 53.13c5.56.92 10.922-.821 14.878-4.236a17.9 17.9 0 0 1-12.065 2.233" opacity=".6"/><path fill="url(#osmo_svg-d)" d="M33.617 16.92c-4.611-.754-9.09.296-12.753 2.627l-.131.132c1.406-.854 3.466-1.609 3.466-1.609-5.297 3.086-6.932 6.6-6.932 6.6 2.06-4.006 8.11-6.83 12.85-7.027 4.742-.197 7.848 1.215 11.641 4.268 3.793 3.087 6.083 9.39 5.854 14.381-.197 4.99-2.812 9.03-2.812 9.03 1.798-2.332 2.877-4.04 3.564-5.78.13-.525.261-1.05.327-1.608 1.634-9.981-5.101-19.371-15.074-21.013" opacity=".6"/><path fill="url(#osmo_svg-e)" d="M48.074 34.85c0 9.62-7.782 17.434-17.363 17.434S13.315 44.47 13.315 34.85z"/><path fill="url(#osmo_svg-f)" d="M46.702 34.843c0 9.39-7.39 17.073-16.677 17.435h.687c9.581 0 17.363-7.815 17.363-17.435z" opacity=".6"/><path fill="url(#osmo_svg-g)" d="M15.765 34.843h-2.453c0 9.62 7.783 17.435 17.364 17.435.425 0 .817 0 1.21-.033-8.993-.624-16.121-8.176-16.121-17.402" opacity=".7"/><path fill="url(#osmo_svg-h)" d="M48.042 35.042c0-2.003-3.467-3.152-8.077-3.546-3.335-.262-6.703.066-10.562 1.248-3.335.985-6.343.82-8.534.558-4.873-.558-7.554-.624-7.554 1.74 0 3.415 6.932 7.683 17.33 6.206 5.265-.755 7.98-2.299 11.086-3.35 3.368-1.148 6.31-1.083 6.31-2.856"/><path fill="#fff" d="M36.4 26.737a2.95 2.95 0 0 0 2.942-2.955 2.95 2.95 0 0 0-2.943-2.955 2.95 2.95 0 0 0-2.943 2.955 2.95 2.95 0 0 0 2.943 2.955m4.807 2.199c.686 0 1.242-.558 1.242-1.247s-.556-1.248-1.242-1.248c-.687 0-1.243.559-1.243 1.248s.556 1.247 1.243 1.247"/><path fill="url(#osmo_svg-i)" d="M45.655 21.447h-.065c-.197-.033-.327-.23-.295-.46.295-1.51 1.537-2.955 1.603-3.02a.366.366 0 0 1 .523-.033.37.37 0 0 1 .032.525c-.032.033-1.177 1.38-1.438 2.692a.384.384 0 0 1-.36.296" opacity=".6"/><path fill="#fff" d="M41.697 10.09c1.831 0 4.087.887 6.18 2.43 2.649 1.937 4.12 3.644 4.578 5.417a3.58 3.58 0 0 1-.621 3.02c-.687.887-1.7 1.38-2.91 1.38q-.638 0-1.374-.197c-.294.755-.523 1.51-.687 2.232a19.5 19.5 0 0 1 3.172 10.671c0 10.737-8.665 19.437-19.358 19.437-10.692 0-19.325-8.7-19.325-19.437 0-10.736 8.665-19.437 19.358-19.437 2.354 0 4.61.427 6.703 1.215.393-.197.883-.46 1.439-.788-.196-.296-.392-.591-.49-.886-.36-.887-.23-2.266.326-3.317.458-.853 1.145-1.444 1.995-1.641a5 5 0 0 1 1.014-.099m0-.59c-.393 0-.785.032-1.145.13-.98.23-1.83.887-2.387 1.938-.62 1.215-.784 2.79-.36 3.808.066.132.132.296.23.46-.23.131-.458.263-.687.361a20.1 20.1 0 0 0-6.67-1.149c-2.682 0-5.298.525-7.75 1.576a19.9 19.9 0 0 0-6.344 4.301 20 20 0 0 0-4.284 6.37 19.8 19.8 0 0 0-1.569 7.781c0 2.692.523 5.319 1.57 7.782a20 20 0 0 0 4.283 6.369 19.9 19.9 0 0 0 6.344 4.301 19.6 19.6 0 0 0 7.75 1.576 19.6 19.6 0 0 0 7.749-1.576 19.9 19.9 0 0 0 6.344-4.301 20 20 0 0 0 4.283-6.37 19.8 19.8 0 0 0 1.57-7.78 19.9 19.9 0 0 0-3.14-10.77c.099-.493.262-.985.426-1.478a5.3 5.3 0 0 0 1.013.099c1.374 0 2.584-.558 3.368-1.609.752-.985 1.047-2.364.72-3.513-.524-1.904-2.028-3.71-4.807-5.713-2.19-1.674-4.578-2.594-6.507-2.594"/><path fill="#fff" d="M29.498 48.699a.917.917 0 0 0 .915-.92.92.92 0 0 0-.915-.919.92.92 0 0 0-.916.92c0 .507.41.919.916.919" opacity=".2"/><g opacity=".4"><path fill="url(#osmo_svg-j)" d="M28.973 48.403a.934.934 0 0 1 0-1.313c.066-.066.131-.099.196-.165a.7.7 0 0 0-.327.197.934.934 0 0 0 1.112 1.478.91.91 0 0 1-.98-.197" opacity=".6"/></g><path fill="#fff" d="M29.825 47.517a.197.197 0 1 0 0-.393.197.197 0 0 0 0 .393" opacity=".3"/><path fill="#fff" d="M34.274 48.239a.917.917 0 0 0 .916-.92.92.92 0 0 0-.916-.919.92.92 0 0 0-.916.92c0 .507.41.919.916.919" opacity=".2"/><g opacity=".4"><path fill="url(#osmo_svg-k)" d="M33.75 47.907a.934.934 0 0 1 0-1.313c.066-.066.132-.099.197-.164a.7.7 0 0 0-.327.197.934.934 0 0 0 1.112 1.477.81.81 0 0 1-.981-.197" opacity=".6"/></g><path fill="#fff" d="M34.601 47.057a.197.197 0 1 0 0-.393.197.197 0 0 0 0 .393" opacity=".3"/><path fill="#fff" d="M31.918 50.373c.38 0 .687-.309.687-.69s-.307-.69-.687-.69a.69.69 0 0 0-.686.69c0 .381.307.69.686.69" opacity=".2"/><g opacity=".4"><path fill="url(#osmo_svg-l)" d="M31.527 50.147a.716.716 0 0 1 0-.985c.033-.033.098-.066.13-.099-.097.033-.163.099-.228.164a.716.716 0 0 0 0 .985c.229.23.556.263.85.099-.262.066-.556.033-.752-.164" opacity=".6"/></g><path fill="#fff" d="M32.148 49.46a.131.131 0 1 0-.001-.262.131.131 0 0 0 0 .262" opacity=".3"/><path fill="#fff" d="M36.136 49.884c.38 0 .686-.309.686-.69s-.307-.689-.686-.689a.69.69 0 0 0-.687.69c0 .38.308.69.687.69" opacity=".2"/><g opacity=".4"><path fill="url(#osmo_svg-m)" d="M35.743 49.651a.716.716 0 0 1 0-.985c.032-.032.098-.065.13-.098a.6.6 0 0 0-.228.164.716.716 0 0 0 0 .985c.228.23.556.263.85.099-.262.065-.556.032-.752-.165" opacity=".6"/></g><path fill="#fff" d="M36.365 48.965c.072 0 .13-.06.13-.132a.131.131 0 1 0-.13.132" opacity=".3"/><path fill="#fff" d="M25.609 48.377c.83 0 1.504-.676 1.504-1.51s-.674-1.51-1.505-1.51-1.504.676-1.504 1.51.674 1.51 1.505 1.51" opacity=".2"/><g opacity=".4"><path fill="url(#osmo_svg-n)" d="M24.758 47.849a1.51 1.51 0 0 1 0-2.134c.098-.099.196-.165.327-.23-.196.066-.36.197-.523.328a1.51 1.51 0 0 0 0 2.134 1.48 1.48 0 0 0 1.83.23 1.51 1.51 0 0 1-1.634-.328" opacity=".6"/></g><path fill="#fff" d="M26.132 46.433a.328.328 0 1 0-.002-.655.328.328 0 0 0 .002.655" opacity=".3"/><path fill="#fff" d="M39.05 44.664c.83 0 1.504-.677 1.504-1.51 0-.835-.674-1.511-1.504-1.511-.831 0-1.504.676-1.504 1.51s.673 1.51 1.504 1.51" opacity=".2"/><g opacity=".4"><path fill="url(#osmo_svg-o)" d="M38.166 44.141a1.51 1.51 0 0 1 0-2.134c.098-.098.196-.164.327-.23-.196.066-.36.197-.523.329a1.51 1.51 0 0 0 0 2.134c.49.492 1.242.59 1.831.23-.556.23-1.177.098-1.635-.329" opacity=".6"/></g><path fill="#fff" d="M39.57 42.73a.328.328 0 1 0 0-.656.328.328 0 0 0 0 .655" opacity=".3"/><defs><linearGradient id="osmo_svg-c" x1="27.783" x2="33.676" y1="53.122" y2="16.913" gradientUnits="userSpaceOnUse"><stop stop-color="#81FFFF"/><stop offset=".62" stop-color="#fff" stop-opacity="0"/></linearGradient><linearGradient id="osmo_svg-d" x1="43.588" x2="28.417" y1="22.565" y2="36.428" gradientUnits="userSpaceOnUse"><stop offset=".289" stop-color="#fff"/><stop offset=".78" stop-color="#fff" stop-opacity="0"/></linearGradient><linearGradient id="osmo_svg-e" x1="13.33" x2="48.066" y1="43.574" y2="43.574" gradientUnits="userSpaceOnUse"><stop stop-color="#0002E9"/><stop offset=".995" stop-color="#FF00C7"/></linearGradient><linearGradient id="osmo_svg-f" x1="49.711" x2="30.732" y1="36.391" y2="54.254" gradientUnits="userSpaceOnUse"><stop offset=".289" stop-color="#fff"/><stop offset=".78" stop-color="#fff" stop-opacity="0"/></linearGradient><linearGradient id="osmo_svg-g" x1="13.327" x2="31.911" y1="43.568" y2="43.568" gradientUnits="userSpaceOnUse"><stop stop-color="#000292"/><stop offset=".995" stop-color="#7D00C7"/></linearGradient><linearGradient id="osmo_svg-h" x1="13.353" x2="48.042" y1="36.475" y2="36.475" gradientUnits="userSpaceOnUse"><stop stop-color="#000292"/><stop offset=".995" stop-color="#BE00C7"/></linearGradient><linearGradient id="osmo_svg-i" x1="47.474" x2="44.966" y1="17.791" y2="21.85" gradientUnits="userSpaceOnUse"><stop offset=".289" stop-color="#fff"/><stop offset=".78" stop-color="#fff" stop-opacity="0"/></linearGradient><linearGradient id="osmo_svg-j" x1="28.572" x2="29.955" y1="47.825" y2="47.825" gradientUnits="userSpaceOnUse"><stop offset=".289" stop-color="#fff"/><stop offset=".78" stop-color="#fff" stop-opacity="0"/></linearGradient><linearGradient id="osmo_svg-k" x1="33.346" x2="34.73" y1="47.355" y2="47.355" gradientUnits="userSpaceOnUse"><stop offset=".289" stop-color="#fff"/><stop offset=".78" stop-color="#fff" stop-opacity="0"/></linearGradient><linearGradient id="osmo_svg-l" x1="31.228" x2="32.267" y1="49.712" y2="49.712" gradientUnits="userSpaceOnUse"><stop offset=".289" stop-color="#fff"/><stop offset=".78" stop-color="#fff" stop-opacity="0"/></linearGradient><linearGradient id="osmo_svg-m" x1="35.43" x2="36.469" y1="49.216" y2="49.216" gradientUnits="userSpaceOnUse"><stop offset=".289" stop-color="#fff"/><stop offset=".78" stop-color="#fff" stop-opacity="0"/></linearGradient><linearGradient id="osmo_svg-n" x1="24.105" x2="26.365" y1="46.92" y2="46.92" gradientUnits="userSpaceOnUse"><stop offset=".289" stop-color="#fff"/><stop offset=".78" stop-color="#fff" stop-opacity="0"/></linearGradient><linearGradient id="osmo_svg-o" x1="37.526" x2="39.785" y1="43.211" y2="43.211" gradientUnits="userSpaceOnUse"><stop offset=".289" stop-color="#fff"/><stop offset=".78" stop-color="#fff" stop-opacity="0"/></linearGradient><radialGradient id="osmo_svg-a" cx="0" cy="0" r="1" gradientTransform="matrix(14.6146 0 0 14.6744 50.941 16.114)" gradientUnits="userSpaceOnUse"><stop stop-color="#FFEAFF" stop-opacity=".6"/><stop offset=".681" stop-color="#A087C9"/><stop offset="1" stop-color="#10002F"/></radialGradient><radialGradient id="osmo_svg-b" cx="0" cy="0" r="1" gradientTransform="matrix(35.7567 0 0 35.9031 42.813 22.378)" gradientUnits="userSpaceOnUse"><stop stop-color="#FFEAFF" stop-opacity=".6"/><stop offset=".681" stop-color="#A087C9"/><stop offset="1" stop-color="#10002F"/></radialGradient></defs></svg>