<?xml version="1.0" encoding="UTF-8"?>
<svg version="1.1" xmlns="http://www.w3.org/2000/svg" width="200" height="200">
<path d="M0 0 C66 0 132 0 200 0 C200 66 200 132 200 200 C134 200 68 200 0 200 C0 134 0 68 0 0 Z " fill="#2489FB" transform="translate(0,0)"/>
<path d="M0 0 C1 2 1 2 0.875 5.0625 C1.00636018 9.2003457 1.89823727 12.15644315 3.34375 15.984375 C4 18 4 18 4 21 C2.27734375 22.32421875 2.27734375 22.32421875 -0.0625 23.6875 C-9.33735395 29.62806579 -14.13910146 37.47197124 -17.61328125 47.828125 C-19.77574606 59.97287686 -18.44358336 72.98044541 -11.3125 83.25 C-3.1341866 93.05989712 6.15294578 99.26485898 19 101 C31.17431354 101.83960783 41.31816261 97.78470346 50.9296875 90.546875 C58.64488767 83.75749885 63.51794822 72.77243237 64.23828125 62.65234375 C64.51391926 48.85593599 61.35078035 38.4498775 52 28 C49.9908418 26.24512029 47.9809533 24.6952387 45.76171875 23.21875 C43.95424108 21.96834416 42.5064366 20.5945052 41 19 C41.474375 18.21625 41.94875 17.4325 42.4375 16.625 C44.13601492 12.68444538 44.51580336 9.50504785 44.7890625 5.26953125 C45 3 45 3 46 0 C62.58645394 7.96360745 75.10052844 19.43661645 81.34814453 37.03442383 C86.94939025 53.92417261 86.27969042 71.0757265 78.5 87.1875 C70.83403942 102.12800623 57.90937852 113.45305193 42 119 C25.52232633 123.31434358 9.43594335 123.13985437 -6 115 C-21.87502846 105.04983971 -33.1476963 91.36929455 -37.75390625 72.9921875 C-41.25463186 54.24004894 -37.70769975 37.34244317 -27.3046875 21.40234375 C-19.9254856 11.39751884 -10.9679197 5.42462798 0 0 Z " fill="#2687FA" transform="translate(77,40)"/>
<path d="M0 0 C2.54609512 3.81914268 1.80193846 4.58933847 1 9 C0.54069324 14.06072534 0.22891988 18.33389705 3 22.75 C5.2343196 26.38076936 5.65910834 27.8346514 5 32 C2.5859375 33.87109375 2.5859375 33.87109375 -0.625 35.4375 C-10.28402814 40.61928451 -14.50977526 47.27639321 -18.25 57.375 C-20.49830534 68.24180912 -18.82262447 78.25178736 -12.8203125 87.57421875 C-7.1137999 95.1788203 -0.36197658 100.0336139 9 102 C19.20810414 103.07129682 28.35330953 101.94208404 36.75 95.8125 C44.94768883 88.91833059 49.88210829 80.73176046 51 70 C51.69525355 59.57119673 48.36529004 50.28634605 42 42 C37.58468499 37.81801464 32.32030023 34.88182929 27 32 C26.53183715 27.20133084 27.58893334 24.99873167 30.10546875 20.98828125 C32.25842038 16.20289968 31.28618685 10.57402765 30.375 5.5625 C30 3 30 3 32 0 C46.66748092 1.48908436 60.10760418 11.52238559 69.3125 22.65234375 C81.28327168 39.30612565 86.4293197 57.79392762 83.69970703 78.25048828 C81.33364822 91.3888964 75.83369165 102.98241153 67 113 C66.34386719 113.75023437 65.68773437 114.50046875 65.01171875 115.2734375 C53.60271659 127.49587857 37.22750449 135.61529665 20.38671875 136.30078125 C0.52031655 136.55132968 -16.32119466 131.01822252 -31.31640625 117.69140625 C-45.43625112 103.53045557 -52.18668297 86.43954515 -52.4375 66.625 C-52.29753825 47.39562127 -45.47534859 30.2878087 -31.85546875 16.65625 C-23.45428676 8.84119698 -11.98540421 0 0 0 Z M-29.2734375 22.98828125 C-40.98699213 35.44872804 -46.35841407 51.96310046 -46.1484375 68.82421875 C-45.31084981 86.74418699 -37.80630123 102.11292453 -24.92578125 114.453125 C-13.26862171 124.60061234 1.81770204 130.76581023 17.44921875 130.23828125 C34.43074886 128.65195148 49.25649292 122.63060654 61 110 C61.71671875 109.22914063 62.4334375 108.45828125 63.171875 107.6640625 C73.78550102 95.33469995 78.8500879 79.39088296 78.34765625 63.16015625 C76.33942814 44.90558834 68.67259525 29.26010359 54.6875 17.1875 C49.51597794 13.10243215 44.13209124 10.36032139 38 8 C38.061875 9.299375 38.12375 10.59875 38.1875 11.9375 C38.20862263 16.39437458 37.25627734 19.92128353 35.65625 24.0546875 C34.84017473 26.1315972 34.84017473 26.1315972 35 29 C36.73800496 30.34546508 36.73800496 30.34546508 39 31.5625 C47.77582013 37.15967662 52.94685642 45.16784272 56 55 C56.19207031 55.6084375 56.38414062 56.216875 56.58203125 56.84375 C59.00971371 69.36786884 56.45281037 81.0787297 49.6484375 91.68359375 C43.02126806 100.99618019 33.39548627 106.78803727 22.06640625 108.75390625 C10.30998278 110.15400961 -0.50738986 107.05942845 -10 100 C-18.33924292 93.18497723 -24.00349227 83.89707618 -25.22119141 73.02514648 C-25.97224775 59.66752949 -23.71659238 48.57161089 -15 38 C-11.07818996 34.03966531 -6.94067812 30.62473525 -2 28 C-2.474375 27.113125 -2.94875 26.22625 -3.4375 25.3125 C-6.17696111 19.50484244 -6.12369748 14.30857136 -6 8 C-13.75927891 8 -24.07874744 17.81618436 -29.2734375 22.98828125 Z " fill="#F4FBFD" transform="translate(84,32)"/>
<path d="M0 0 C2 3 2 3 2 5 C2.99 4.67 3.98 4.34 5 4 C5.93065133 6.60582371 6.14917407 7.64198224 5.0625 10.25 C4.711875 10.8275 4.36125 11.405 4 12 C4.66 12 5.32 12 6 12 C6 12.66 6 13.32 6 14 C4.375 14.75 4.375 14.75 2 15 C-1.25 13.0625 -1.25 13.0625 -4 11 C-2.68 7.37 -1.36 3.74 0 0 Z " fill="#2793F5" transform="translate(122,49)"/>
<path d="M0 0 C0.97556564 2.92669691 1.0606341 4.44061321 0.87890625 7.44921875 C0.83056641 8.29677734 0.78222656 9.14433594 0.73242188 10.01757812 C0.67634766 10.89865234 0.62027344 11.77972656 0.5625 12.6875 C0.51029297 13.58017578 0.45808594 14.47285156 0.40429688 15.39257812 C0.2747182 17.5954156 0.13975754 19.79778873 0 22 C-0.99 22.33 -1.98 22.66 -3 23 C-4.57549033 21.42450967 -4.24617765 19.87613745 -4.3125 17.6875 C-4.28497534 11.34765277 -2.25570925 5.86081599 0 0 Z " fill="#3189F2" transform="translate(68,81)"/>
<path d="M0 0 C0.99 0.66 1.98 1.32 3 2 C-3.37295696 5.17476348 -8.84937514 7.59524765 -16 8 C-12.21057758 3.20006493 -9.10992673 2.24703058 -3.109375 1.359375 C-1.01982003 1.21258797 -1.01982003 1.21258797 0 0 Z " fill="#2C7FF3" transform="translate(127,152)"/>
<path d="M0 0 C1 2 1 2 0.1875 5.5 C-1 9 -1 9 -3 11 C-3.66 10.01 -4.32 9.02 -5 8 C-7.55183404 6.79549696 -7.55183404 6.79549696 -10 6 C-6.87567603 3.47650757 -3.61939504 1.72743854 0 0 Z " fill="#2A91F4" transform="translate(77,40)"/>
<path d="M0 0 C4.455 1.98 4.455 1.98 9 4 C9 4.99 9 5.98 9 7 C7.03533587 8.06775224 5.03144641 9.06553465 3 10 C2.34 9.67 1.68 9.34 1 9 C0.40227901 6.0170339 0.25662185 3.03669195 0 0 Z " fill="#2995F4" transform="translate(122,40)"/>
<path d="M0 0 C0.33 0 0.66 0 1 0 C1.26554687 1.00160156 1.53109375 2.00320312 1.8046875 3.03515625 C2.16142431 4.37761321 2.51819707 5.72006061 2.875 7.0625 C3.13603516 8.04766602 3.13603516 8.04766602 3.40234375 9.05273438 C4.55421582 13.38292014 5.75720665 17.69500861 7 22 C5.68 21.67 4.36 21.34 3 21 C2.87625 19.989375 2.7525 18.97875 2.625 17.9375 C2.09744648 14.03373223 2.09744648 14.03373223 0.9375 10.5 C-0.04024777 6.84974167 -0.15348557 3.76039651 0 0 Z " fill="#3482EC" transform="translate(32,109)"/>
<path d="M0 0 C3.63 0 7.26 0 11 0 C9.515 1.98 9.515 1.98 8 4 C4.3125 4.25 4.3125 4.25 1 4 C0.67 2.68 0.34 1.36 0 0 Z " fill="#297AF4" transform="translate(95,168)"/>
<path d="M0 0 C0.66 0 1.32 0 2 0 C1.67 2.31 1.34 4.62 1 7 C0.360625 7.103125 -0.27875 7.20625 -0.9375 7.3125 C-1.618125 7.539375 -2.29875 7.76625 -3 8 C-3.33 8.99 -3.66 9.98 -4 11 C-5.32 11 -6.64 11 -8 11 C-8 11.66 -8 12.32 -8 13 C-9.65 13.33 -11.3 13.66 -13 14 C-10.51547556 11.10138815 -8.26645891 9.60083882 -4.8125 8.125 C-2.71691093 7.22008082 -2.71691093 7.22008082 -1 6 C0.13478935 2.87866256 0.13478935 2.87866256 0 0 Z " fill="#3792ED" transform="translate(89,58)"/>
<path d="M0 0 C2.3125 3 2.3125 3 4 6 C2.37276701 5.54965877 0.74826336 5.08944646 -0.875 4.625 C-1.77992187 4.36976563 -2.68484375 4.11453125 -3.6171875 3.8515625 C-6 3 -6 3 -8 1 C-4.90636811 -0.03121063 -3.20461006 -0.54712855 0 0 Z " fill="#2B7DF4" transform="translate(82,154)"/>
<path d="M0 0 C1.0625 1.8125 1.0625 1.8125 2 4 C1.67 4.99 1.34 5.98 1 7 C0.835 7.845625 0.67 8.69125 0.5 9.5625 C0 12 0 12 -1 14 C-1.66 13.67 -2.32 13.34 -3 13 C-3.33 14.32 -3.66 15.64 -4 17 C-5.22160223 13.3351933 -4.63002724 12.51368316 -3.125 9.0625 C-1.8269267 6.05333007 -0.69920234 3.20591713 0 0 Z " fill="#358BF0" transform="translate(166,114)"/>
<path d="M0 0 C3.50411265 0.3185557 5.5840105 0.69067447 8.4375 2.8125 C10 5 10 5 9.75 7.25 C9.5025 7.8275 9.255 8.405 9 9 C6 6 3 3 0 0 Z " fill="#2F93F4" transform="translate(125,64)"/>
<path d="M0 0 C1.98 0 3.96 0 6 0 C6.33 0.99 6.66 1.98 7 3 C9.01508358 3.73323796 9.01508358 3.73323796 11 4 C11 4.66 11 5.32 11 6 C10.01 6.33 9.02 6.66 8 7 C5.95703125 5.8203125 5.95703125 5.8203125 3.8125 4.125 C3.09707031 3.57070313 2.38164062 3.01640625 1.64453125 2.4453125 C1.10183594 1.96835937 0.55914062 1.49140625 0 1 C0 0.67 0 0.34 0 0 Z " fill="#2E99F4" transform="translate(137,40)"/>
<path d="M0 0 C0 0.66 0 1.32 0 2 C-0.66 2 -1.32 2 -2 2 C-2.33 2.66 -2.66 3.32 -3 4 C-3.33 3.67 -3.66 3.34 -4 3 C-5.53202706 3.25195908 -7.05257128 3.57596777 -8.5625 3.9375 C-9.80193359 4.22947266 -9.80193359 4.22947266 -11.06640625 4.52734375 C-11.70449219 4.68332031 -12.34257812 4.83929688 -13 5 C-4.68085106 -2.34042553 -4.68085106 -2.34042553 0 0 Z " fill="#2D82F2" transform="translate(144,156)"/>
<path d="M0 0 C2.31 0 4.62 0 7 0 C7 3 7 3 6 7 C4.02 4.69 2.04 2.38 0 0 Z " fill="#287FF1" transform="translate(72,121)"/>
<path d="M0 0 C1.32 1.65 2.64 3.3 4 5 C3.01 5.99 2.02 6.98 1 8 C-0.65 6.35 -2.3 4.7 -4 3 C-2.68 2.01 -1.36 1.02 0 0 Z " fill="#2E90F2" transform="translate(78,54)"/>
<path d="M0 0 C1.305239 3.91571701 0.32239848 5.03892997 -1.4375 8.6875 C-1.91058594 9.68136719 -2.38367188 10.67523438 -2.87109375 11.69921875 C-3.42990234 12.83810547 -3.42990234 12.83810547 -4 14 C-4.97591583 10.61682513 -4.85856655 8.4342662 -4 5 C-3.34 5 -2.68 5 -2 5 C-2 4.01 -2 3.02 -2 2 C-1.34 2 -0.68 2 0 2 C0 1.34 0 0.68 0 0 Z " fill="#338AEF" transform="translate(158,116)"/>
<path d="M0 0 C1.66666667 0 3.33333333 0 5 0 C5 3.3 5 6.6 5 10 C2.327664 6.43688534 1.22736029 4.15414253 0 0 Z " fill="#297FF3" transform="translate(42,120)"/>
<path d="M0 0 C2.31509559 3.47264338 2.62582455 5.88407008 3 10 C2.67 10.66 2.34 11.32 2 12 C1.34 12 0.68 12 0 12 C-0.33 10.35 -0.66 8.7 -1 7 C-0.34 7 0.32 7 1 7 C0.67 4.69 0.34 2.38 0 0 Z " fill="#2C8FEF" transform="translate(157,76)"/>
<path d="M0 0 C2.64 1.98 5.28 3.96 8 6 C5.33333333 6 2.66666667 6 0 6 C0 4.02 0 2.04 0 0 Z " fill="#307EF5" transform="translate(49,146)"/>
<path d="M0 0 C0 0.66 0 1.32 0 2 C-1.47000433 3.27400375 -2.94515781 4.5435008 -4.46484375 5.7578125 C-6.09066342 7.07336124 -7.56202021 8.48213245 -9 10 C-9.66 9.34 -10.32 8.68 -11 8 C-9.54712339 6.66072279 -8.08752741 5.32873153 -6.625 4 C-5.81289062 3.2575 -5.00078125 2.515 -4.1640625 1.75 C-2 0 -2 0 0 0 Z " fill="#E8FAFE" transform="translate(130,121)"/>
<path d="M0 0 C2.97 0.495 2.97 0.495 6 1 C6.125 3.875 6.125 3.875 6 7 C5.34 7.66 4.68 8.32 4 9 C2.68 6.03 1.36 3.06 0 0 Z " fill="#2F90EF" transform="translate(135,75)"/>
<path d="M0 0 C0.99 0.66 1.98 1.32 3 2 C1.87926138 2.83905565 0.75325453 3.67107831 -0.375 4.5 C-1.00148437 4.9640625 -1.62796875 5.428125 -2.2734375 5.90625 C-4 7 -4 7 -6 7 C-5.67 6.01 -5.34 5.02 -5 4 C-4.34 3.67 -3.68 3.34 -3 3 C-3 2.34 -3 1.68 -3 1 C-2.01 0.67 -1.02 0.34 0 0 Z " fill="#2E82F0" transform="translate(136,146)"/>
<path d="M0 0 C3.39417765 3.12621626 5.6062718 5.56541027 7 10 C6.34 10 5.68 10 5 10 C5 9.34 5 8.68 5 8 C4.01 7.67 3.02 7.34 2 7 C0.8125 3.4375 0.8125 3.4375 0 0 Z " fill="#3798F4" transform="translate(145,56)"/>
<path d="M0 0 C-4.625 4.875 -4.625 4.875 -8 6 C-7.625 3.5625 -7.625 3.5625 -7 1 C-4.53721199 -0.231394 -2.7204945 -0.07159196 0 0 Z " fill="#3394F4" transform="translate(63,40)"/>
<path d="M0 0 C2.97 1.98 2.97 1.98 6 4 C5.67 4.66 5.34 5.32 5 6 C3.68 5.67 2.36 5.34 1 5 C0.67 3.35 0.34 1.7 0 0 Z " fill="#2C7BF1" transform="translate(57,153)"/>
<path d="M0 0 C4.455 0.99 4.455 0.99 9 2 C5 4 5 4 1 4 C0.67 2.68 0.34 1.36 0 0 Z " fill="#2C79EF" transform="translate(76,164)"/>
<path d="M0 0 C1.32 1.32 2.64 2.64 4 4 C3.67 4.99 3.34 5.98 3 7 C2.01 7 1.02 7 0 7 C0 4.69 0 2.38 0 0 Z " fill="#2A7CF0" transform="translate(41,135)"/>
<path d="M0 0 C1.32 0.66 2.64 1.32 4 2 C2.35 3.32 0.7 4.64 -1 6 C-1 2 -1 2 0 0 Z " fill="#2A84F1" transform="translate(122,122)"/>
<path d="M0 0 C0.66 0.99 1.32 1.98 2 3 C0.625 6.6875 0.625 6.6875 -1 10 C-1.66 9.67 -2.32 9.34 -3 9 C-2.67 7.35 -2.34 5.7 -2 4 C-1.34 4 -0.68 4 0 4 C0 2.68 0 1.36 0 0 Z " fill="#3088F2" transform="translate(61,76)"/>
<path d="M0 0 C0.99 0.33 1.98 0.66 3 1 C2.45276317 4.37462715 1.9451 6.08235 0 9 C-0.33 7.68 -0.66 6.36 -1 5 C-0.34 5 0.32 5 1 5 C0.67 3.35 0.34 1.7 0 0 Z " fill="#2E89F0" transform="translate(35,67)"/>
<path d="M0 0 C0.66 0.99 1.32 1.98 2 3 C1.125 5.6875 1.125 5.6875 0 8 C0.66 8 1.32 8 2 8 C2 8.66 2 9.32 2 10 C0.68 9.67 -0.64 9.34 -2 9 C-1.34 6.03 -0.68 3.06 0 0 Z " fill="#3193EE" transform="translate(122,49)"/>
<path d="M0 0 C0.598125 0.350625 1.19625 0.70125 1.8125 1.0625 C-0.15216413 2.13025224 -2.15605359 3.12803465 -4.1875 4.0625 C-4.8475 3.7325 -5.5075 3.4025 -6.1875 3.0625 C-5.8575 2.0725 -5.5275 1.0825 -5.1875 0.0625 C-2.1875 -0.9375 -2.1875 -0.9375 0 0 Z " fill="#2F92EF" transform="translate(70.1875,34.9375)"/>
</svg>
