<svg xmlns="http://www.w3.org/2000/svg" width="40" height="40" fill="none" viewBox="0 0 40 40"><g clip-path="url(#panwon_svg-a)"><path fill="#FCDCD3" d="M20 0c11.046 0 20 8.954 20 20s-8.954 20-20 20S0 31.046 0 20 8.954 0 20 0"/><path fill="#F04E23" d="M26 6a8 8 0 0 1 8 8v12a8 8 0 0 1-8 8H14a8 8 0 0 1-8-8V14a8 8 0 0 1 8-8z"/><path fill="#fff" d="m18.565 22.87 1.42 1.42-2.854 2.855-2.856-2.855 7.16-7.16-1.42-1.42 2.854-2.855 2.856 2.855zM10 20.013l2.855 2.855 7.16-7.159-2.856-2.855zm9.986 4.275 2.855 2.856L30 19.985l-2.855-2.854z"/></g><defs><clipPath id="panwon_svg-a"><path fill="#fff" d="M0 0h40v40H0z"/></clipPath></defs></svg>