<?xml version="1.0" encoding="UTF-8"?>
<!DOCTYPE svg PUBLIC "-//W3C//DTD SVG 1.1//EN" "http://www.w3.org/Graphics/SVG/1.1/DTD/svg11.dtd">
<svg xmlns="http://www.w3.org/2000/svg" version="1.1" width="200px" height="200px" style="shape-rendering:geometricPrecision; text-rendering:geometricPrecision; image-rendering:optimizeQuality; fill-rule:evenodd; clip-rule:evenodd" xmlns:xlink="http://www.w3.org/1999/xlink">
<g><path style="opacity:0.007" fill="#f5f500" d="M 88.5,-0.5 C 92.8333,-0.5 97.1667,-0.5 101.5,-0.5C 97.1667,0.833333 92.8333,0.833333 88.5,-0.5 Z"/></g>
<g><path style="opacity:0.007" fill="#feff00" d="M 84.5,1.5 C 85.2506,0.426544 86.2506,0.259877 87.5,1C 86.552,1.48278 85.552,1.64945 84.5,1.5 Z"/></g>
<g><path style="opacity:0.008" fill="#feff00" d="M 105.5,1.5 C 104.448,1.64945 103.448,1.48278 102.5,1C 103.749,0.259877 104.749,0.426544 105.5,1.5 Z"/></g>
<g><path style="opacity:0.998" fill="#ece70a" d="M 105.5,2.5 C 105.842,3.33825 106.508,3.67158 107.5,3.5C 107.842,4.33825 108.508,4.67158 109.5,4.5C 109.842,5.33825 110.508,5.67158 111.5,5.5C 111.842,6.33825 112.508,6.67158 113.5,6.5C 114.172,7.26739 115.005,7.93406 116,8.5C 117.84,7.16686 118.34,7.33353 117.5,9C 118.044,9.71719 118.711,10.2172 119.5,10.5C 120.514,11.6737 121.847,12.3404 123.5,12.5C 125.336,14.588 127.669,15.9213 130.5,16.5C 130.842,17.3382 131.508,17.6716 132.5,17.5C 133.5,18.8333 134.5,18.8333 135.5,17.5C 138.568,18.0218 141.568,18.8551 144.5,20C 143.5,20.3333 142.5,20.6667 141.5,21C 143.74,21.977 146.073,22.477 148.5,22.5C 157.68,24.4228 167.013,26.2561 176.5,28C 179.779,28.9728 182.779,30.4728 185.5,32.5C 186.086,32.2907 186.586,31.9574 187,31.5C 187.197,33.5155 188.197,35.5155 190,37.5C 191,37.8333 192,38.1667 193,38.5C 196.856,45.5797 198.023,52.9131 196.5,60.5C 196.269,67.0878 194.936,73.4211 192.5,79.5C 192.167,79.5 191.833,79.5 191.5,79.5C 191.167,79.5 190.833,79.5 190.5,79.5C 190.167,79.5 189.833,79.5 189.5,79.5C 176.652,58.4842 158.986,42.9842 136.5,33C 133.28,31.6476 129.947,30.8143 126.5,30.5C 125.391,30.4431 124.391,30.1098 123.5,29.5C 105.611,20.9847 86.6107,16.6513 66.5,16.5C 66.5,15.8333 66.1667,15.5 65.5,15.5C 66.8361,13.9897 68.0027,12.3231 69,10.5C 69.3333,10.8333 69.6667,11.1667 70,11.5C 72.3256,9.93429 74.4922,8.26762 76.5,6.5C 77.4916,6.67158 78.1583,6.33825 78.5,5.5C 79.1667,5.5 79.5,5.16667 79.5,4.5C 87.9655,1.43855 96.6322,0.771883 105.5,2.5 Z M 195.5,51.5 C 196.477,54.2869 196.81,57.2869 196.5,60.5C 195.691,62.2922 195.191,64.2922 195,66.5C 194.913,61.5116 195.08,56.5116 195.5,51.5 Z"/></g>
<g><path style="opacity:0.009" fill="#f5f500" d="M 105.5,2.5 C 105.5,2.16667 105.5,1.83333 105.5,1.5C 109.187,2.176 112.52,3.676 115.5,6C 114.906,6.46434 114.239,6.63101 113.5,6.5C 113.158,5.66175 112.492,5.32842 111.5,5.5C 111.158,4.66175 110.492,4.32842 109.5,4.5C 109.158,3.66175 108.492,3.32842 107.5,3.5C 107.158,2.66175 106.492,2.32842 105.5,2.5 Z"/></g>
<g><path style="opacity:0.01" fill="#f8f800" d="M 79.5,4.5 C 78.8333,4.5 78.5,4.83333 78.5,5.5C 77.5084,5.32842 76.8417,5.66175 76.5,6.5C 74.6214,6.60682 74.2881,6.10682 75.5,5C 76.9456,3.70204 78.2789,3.53537 79.5,4.5 Z"/></g>
<g><path style="opacity:0.008" fill="#feff00" d="M 119.5,9.5 C 120.833,10.1667 120.833,10.1667 119.5,9.5 Z"/></g>
<g><path style="opacity:0.004" fill="#feff00" d="M 123.5,11.5 C 124.833,12.1667 124.833,12.1667 123.5,11.5 Z"/></g>
<g><path style="opacity:0.981" fill="#b3d234" d="M 65.5,15.5 C 66.1667,15.5 66.5,15.8333 66.5,16.5C 41.3766,38.869 26.21,66.869 21,100.5C 18.9151,116.744 21.7484,132.078 29.5,146.5C 29.9569,147.298 30.6236,147.631 31.5,147.5C 33.2184,151.804 35.0517,156.137 37,160.5C 39.7721,164.388 42.2721,168.388 44.5,172.5C 40.5,171.833 36.5,171.167 32.5,170.5C 31.5,169.167 30.5,169.167 29.5,170.5C 27.4471,170.598 25.7804,169.931 24.5,168.5C 27.1667,168.167 27.1667,167.833 24.5,167.5C 24.1583,166.662 23.4916,166.328 22.5,166.5C 20.8185,164.992 18.8185,163.992 16.5,163.5C 15.205,162.512 13.8717,161.512 12.5,160.5C 10.8968,159.404 9.39683,158.07 8,156.5C 7.66667,156.833 7.33333,157.167 7,157.5C 4.89986,154.949 3.06653,152.283 1.5,149.5C 2.83333,148.833 2.83333,148.167 1.5,147.5C 1.67158,146.508 1.33825,145.842 0.5,145.5C 0.737305,144.209 0.403972,143.209 -0.5,142.5C -0.5,134.5 -0.5,126.5 -0.5,118.5C 0.451145,117.081 0.784479,115.415 0.5,113.5C 1.01514,108.876 2.1818,104.21 4,99.5C 5.94071,95.9523 7.60738,92.2857 9,88.5C 10.016,89.6341 10.6827,89.3008 11,87.5C 12.4891,81.5471 13.6557,75.5471 14.5,69.5C 17.1463,61.7578 18.3129,53.7578 18,45.5C 19.3333,42.1667 20.6667,38.8333 22,35.5C 22.3333,36.1667 22.6667,36.8333 23,37.5C 23.3095,36.2341 23.8095,35.0674 24.5,34C 23.3659,32.984 23.6992,32.3173 25.5,32C 24.8333,31.6667 24.1667,31.3333 23.5,31C 24.7014,30.0975 25.5348,28.9308 26,27.5C 29.3791,25.8566 32.8791,23.6899 36.5,21C 36.8333,20 37.1667,19 37.5,18C 39.5696,16.306 41.7362,16.1393 44,17.5C 51.0576,15.7958 58.2243,15.1292 65.5,15.5 Z"/></g>
<g><path style="opacity:0.008" fill="#f0e800" d="M 130.5,16.5 C 132.338,15.3217 134.005,15.655 135.5,17.5C 134.5,17.5 133.5,17.5 132.5,17.5C 132.158,16.6618 131.492,16.3284 130.5,16.5 Z"/></g>
<g><path style="opacity:1" fill="#52b748" d="M 66.5,16.5 C 86.6107,16.6513 105.611,20.9847 123.5,29.5C 80.9609,27.3449 50.4609,45.3449 32,83.5C 24.8857,104.793 24.7191,126.127 31.5,147.5C 30.6236,147.631 29.9569,147.298 29.5,146.5C 21.7484,132.078 18.9151,116.744 21,100.5C 26.21,66.869 41.3766,38.869 66.5,16.5 Z"/></g>
<g><path style="opacity:0.004" fill="#feff00" d="M 148.5,22.5 C 149.251,21.4265 150.251,21.2599 151.5,22C 150.552,22.4828 149.552,22.6495 148.5,22.5 Z"/></g>
<g><path style="opacity:0.004" fill="#feff00" d="M 162.5,24.5 C 163.251,23.4265 164.251,23.2599 165.5,24C 164.552,24.4828 163.552,24.6495 162.5,24.5 Z"/></g>
<g><path style="opacity:0.004" fill="#e5e500" d="M 167.5,25.5 C 168.946,24.3871 170.613,24.2204 172.5,25C 170.866,25.4935 169.199,25.6602 167.5,25.5 Z"/></g>
<g><path style="opacity:0.992" fill="#015121" d="M 123.5,29.5 C 124.391,30.1098 125.391,30.4431 126.5,30.5C 154.392,46.2303 166.225,70.2303 162,102.5C 160.421,112.645 157.421,122.312 153,131.5C 148.978,137.674 144.811,143.674 140.5,149.5C 121.073,166.093 98.4062,174.426 72.5,174.5C 63.126,174.303 53.7927,173.637 44.5,172.5C 42.2721,168.388 39.7721,164.388 37,160.5C 35.0517,156.137 33.2184,151.804 31.5,147.5C 24.7191,126.127 24.8857,104.793 32,83.5C 50.4609,45.3449 80.9609,27.3449 123.5,29.5 Z M 85.5,46.5 C 92.2966,46.5192 99.2966,46.6859 106.5,47C 108.355,47.4221 110.189,47.9221 112,48.5C 112.765,48.4301 113.265,48.0967 113.5,47.5C 116.912,48.0421 119.912,49.3754 122.5,51.5C 121.167,51.8333 121.167,52.1667 122.5,52.5C 123.911,54.914 125.911,56.5806 128.5,57.5C 129.08,59.7488 130.413,61.4154 132.5,62.5C 132.5,63.1667 132.833,63.5 133.5,63.5C 133.881,64.9311 134.881,65.7645 136.5,66C 135.366,67.016 135.699,67.6827 137.5,68C 136.402,68.7697 136.402,69.603 137.5,70.5C 138.338,70.8417 138.672,71.5084 138.5,72.5C 137.957,72.56 137.624,72.8933 137.5,73.5C 137.994,75.0255 138.661,76.3588 139.5,77.5C 139.595,79.7857 140.262,81.7857 141.5,83.5C 141.216,85.4147 141.549,87.0813 142.5,88.5C 142.503,92.524 142.836,96.524 143.5,100.5C 142.738,105.83 142.072,111.164 141.5,116.5C 140.596,117.209 140.263,118.209 140.5,119.5C 139.326,120.514 138.66,121.847 138.5,123.5C 137.463,124.93 136.796,126.597 136.5,128.5C 135.226,129.189 135.226,130.023 136.5,131C 134.09,131.057 132.756,132.224 132.5,134.5C 131.167,135.167 130.167,136.167 129.5,137.5C 127.973,137.427 126.973,138.094 126.5,139.5C 123.527,141.147 120.86,143.147 118.5,145.5C 117.508,145.328 116.842,145.662 116.5,146.5C 115.184,148.213 112.85,149.379 109.5,150C 97.4555,153.346 85.7888,152.512 74.5,147.5C 75.2389,147.631 75.9056,147.464 76.5,147C 74.5932,145.878 72.5932,145.045 70.5,144.5C 70.0269,143.094 69.0269,142.427 67.5,142.5C 65.6452,140.967 63.8119,139.3 62,137.5C 61.6012,137.728 61.4346,138.062 61.5,138.5C 59.8042,138.315 58.4709,137.481 57.5,136C 58.0944,135.536 58.7611,135.369 59.5,135.5C 58.8333,134.167 57.8333,133.167 56.5,132.5C 56.5,131.833 56.1667,131.5 55.5,131.5C 55.573,129.973 54.9063,128.973 53.5,128.5C 53.5,127.833 53.1667,127.5 52.5,127.5C 51.8333,126.833 51.1667,126.167 50.5,125.5C 49.2616,123.786 48.595,121.786 48.5,119.5C 47.6618,119.158 47.3284,118.492 47.5,117.5C 48.8333,116.5 48.8333,115.5 47.5,114.5C 46.1667,104.833 46.1667,95.1667 47.5,85.5C 48.8333,84.5 48.8333,83.5 47.5,82.5C 48.1667,81.5 48.8333,80.5 49.5,79.5C 48.9569,79.44 48.6236,79.1067 48.5,78.5C 49.1359,76.22 50.1359,74.22 51.5,72.5C 51.8333,73.8333 52.1667,73.8333 52.5,72.5C 53.9063,72.0269 54.573,71.0269 54.5,69.5C 55.9063,69.0269 56.573,68.0269 56.5,66.5C 58.3497,65.7582 59.0164,64.7582 58.5,63.5C 58.427,61.9731 59.0937,60.9731 60.5,60.5C 60.9731,59.0937 61.9731,58.427 63.5,58.5C 64.7582,59.0164 65.7582,58.3497 66.5,56.5C 68.0269,56.573 69.0269,55.9063 69.5,54.5C 70.4734,54.0133 71.4734,53.5133 72.5,53C 73.7383,52.31 73.7383,51.81 72.5,51.5C 74.4261,49.7073 76.7594,48.7073 79.5,48.5C 81.1016,46.9261 83.1016,46.2594 85.5,46.5 Z M 138.5,126.5 C 138.5,125.5 138.5,124.5 138.5,123.5C 139.363,122.537 140.03,122.537 140.5,123.5C 140.058,124.739 139.391,125.739 138.5,126.5 Z"/></g>
<g><path style="opacity:1" fill="#04845c" d="M 126.5,30.5 C 129.947,30.8143 133.28,31.6476 136.5,33C 158.986,42.9842 176.652,58.4842 189.5,79.5C 179.082,107.012 162.749,130.346 140.5,149.5C 144.811,143.674 148.978,137.674 153,131.5C 157.421,122.312 160.421,112.645 162,102.5C 166.225,70.2303 154.392,46.2303 126.5,30.5 Z"/></g>
<g><path style="opacity:0.008" fill="#a1b312" d="M 14.5,69.5 C 14.1667,69.5 13.8333,69.5 13.5,69.5C 13.8333,62.8333 14.1667,62.8333 14.5,69.5 Z"/></g>
<g><path style="opacity:0.004" fill="#e4e400" d="M 13.5,69.5 C 13.6567,70.8734 13.49,72.2068 13,73.5C 12.235,71.9343 12.4017,70.6009 13.5,69.5 Z"/></g>
<g><path style="opacity:0.004" fill="#b9b818" d="M 11.5,74.5 C 12.5735,75.2506 12.7401,76.2506 12,77.5C 11.5172,76.552 11.3505,75.552 11.5,74.5 Z"/></g>
<g><path style="opacity:0.004" fill="#000000" d="M 10.5,79.5 C 11.525,79.8966 11.6917,80.5632 11,81.5C 10.5357,80.9056 10.369,80.2389 10.5,79.5 Z"/></g>
<g><path style="opacity:0.993" fill="#0294d8" d="M 189.5,79.5 C 189.833,79.5 190.167,79.5 190.5,79.5C 190.833,80.8333 191.167,80.8333 191.5,79.5C 191.833,79.5 192.167,79.5 192.5,79.5C 194.243,81.9243 195.576,84.591 196.5,87.5C 195.089,89.0175 195.256,90.3508 197,91.5C 197.333,91.1667 197.667,90.8333 198,90.5C 197.716,92.6792 197.883,94.6792 198.5,96.5C 198.216,98.4147 198.549,100.081 199.5,101.5C 199.5,106.5 199.5,111.5 199.5,116.5C 198.566,117.568 198.232,118.901 198.5,120.5C 197.662,120.842 197.328,121.508 197.5,122.5C 196.167,123.167 196.167,123.833 197.5,124.5C 196.66,126.853 195.326,128.853 193.5,130.5C 193.167,129.167 192.833,129.167 192.5,130.5C 191.833,130.5 191.5,130.833 191.5,131.5C 190.167,131.833 190.167,132.167 191.5,132.5C 191.573,134.027 190.906,135.027 189.5,135.5C 187.708,134.527 186.375,135.194 185.5,137.5C 184.29,137.932 183.29,138.599 182.5,139.5C 181.167,139.833 181.167,140.167 182.5,140.5C 182.027,141.906 181.027,142.573 179.5,142.5C 178.833,141.167 178.167,141.167 177.5,142.5C 176.508,142.328 175.842,142.662 175.5,143.5C 174.508,143.328 173.842,143.662 173.5,144.5C 172.508,144.328 171.842,144.662 171.5,145.5C 170.508,145.328 169.842,145.662 169.5,146.5C 168.508,146.328 167.842,146.662 167.5,147.5C 166.833,147.5 166.5,147.833 166.5,148.5C 165.508,148.328 164.842,148.662 164.5,149.5C 163.448,149.351 162.448,149.517 161.5,150C 160.167,150.667 160.167,151.333 161.5,152C 160.906,152.464 160.239,152.631 159.5,152.5C 159.167,151.167 158.833,151.167 158.5,152.5C 157.508,152.328 156.842,152.662 156.5,153.5C 155.833,153.5 155.5,153.833 155.5,154.5C 154.167,154.833 154.167,155.167 155.5,155.5C 154.745,157.466 153.579,157.8 152,156.5C 150.008,157.328 148.508,158.661 147.5,160.5C 146.833,160.5 146.5,160.833 146.5,161.5C 145.508,161.328 144.842,161.662 144.5,162.5C 143.833,162.5 143.5,162.833 143.5,163.5C 142.833,163.5 142.5,163.833 142.5,164.5C 141.508,164.328 140.842,164.662 140.5,165.5C 139.833,165.5 139.5,165.833 139.5,166.5C 138.833,166.5 138.5,166.833 138.5,167.5C 137.833,167.5 137.5,167.833 137.5,168.5C 136.833,168.5 136.5,168.833 136.5,169.5C 135.833,169.5 135.5,169.833 135.5,170.5C 134.833,170.5 134.5,170.833 134.5,171.5C 133.833,171.5 133.5,171.833 133.5,172.5C 132.833,172.5 132.5,172.833 132.5,173.5C 131.833,173.5 131.5,173.833 131.5,174.5C 130.508,174.328 129.842,174.662 129.5,175.5C 128.833,175.5 128.5,175.833 128.5,176.5C 127.833,176.5 127.5,176.833 127.5,177.5C 126.833,177.5 126.5,177.833 126.5,178.5C 125.833,178.5 125.5,178.833 125.5,179.5C 124.833,179.5 124.5,179.833 124.5,180.5C 123.833,180.5 123.5,180.833 123.5,181.5C 122.833,181.5 122.5,181.833 122.5,182.5C 121.833,182.5 121.5,182.833 121.5,183.5C 120.833,183.5 120.5,183.833 120.5,184.5C 119.833,184.5 119.5,184.833 119.5,185.5C 118.833,185.5 118.5,185.833 118.5,186.5C 116.566,187.11 114.899,188.11 113.5,189.5C 112.833,189.5 112.5,189.833 112.5,190.5C 111.508,190.328 110.842,190.662 110.5,191.5C 109.833,191.5 109.5,191.833 109.5,192.5C 108.508,192.328 107.842,192.662 107.5,193.5C 106.508,193.328 105.842,193.662 105.5,194.5C 104.508,194.328 103.842,194.662 103.5,195.5C 99.644,195.971 95.8107,196.638 92,197.5C 86.7495,196.822 81.5828,195.822 76.5,194.5C 75.791,193.596 74.791,193.263 73.5,193.5C 72.8333,192.167 72.1667,192.167 71.5,193.5C 69.2166,193.392 67.2166,192.559 65.5,191C 66.8333,190.333 66.8333,189.667 65.5,189C 62.7334,187.917 60.0668,186.75 57.5,185.5C 57.1667,184.5 56.5,183.833 55.5,183.5C 55.5,182.833 55.1667,182.5 54.5,182.5C 51.8587,180.196 49.192,177.862 46.5,175.5C 45.8333,174.5 45.1667,173.5 44.5,172.5C 53.7927,173.637 63.126,174.303 72.5,174.5C 98.4062,174.426 121.073,166.093 140.5,149.5C 162.749,130.346 179.082,107.012 189.5,79.5 Z"/></g>
<g><path style="opacity:0.004" fill="#132b2b" d="M 199.5,94.5 C 199.5,95.1667 199.5,95.8333 199.5,96.5C 199.167,96.5 198.833,96.5 198.5,96.5C 198.328,95.5084 198.662,94.8417 199.5,94.5 Z"/></g>
<g><path style="opacity:0.004" fill="#b7deff" d="M -0.5,110.5 C 0.403972,111.209 0.737305,112.209 0.5,113.5C 0.166667,113.5 -0.166667,113.5 -0.5,113.5C -0.5,112.5 -0.5,111.5 -0.5,110.5 Z"/></g>
<g><path style="opacity:0.004" fill="#4f6dff" d="M 198.5,120.5 C 198.833,120.5 199.167,120.5 199.5,120.5C 199.5,121.167 199.5,121.833 199.5,122.5C 199.167,122.5 198.833,122.5 198.5,122.5C 198.5,121.833 198.5,121.167 198.5,120.5 Z"/></g>
<g><path style="opacity:0.004" fill="#00e1e1" d="M 197.5,122.5 C 197.833,122.5 198.167,122.5 198.5,122.5C 198.672,123.492 198.338,124.158 197.5,124.5C 197.5,123.833 197.5,123.167 197.5,122.5 Z"/></g>
<g><path style="opacity:0.012" fill="#00a9ff" d="M 192.5,130.5 C 192.833,130.5 193.167,130.5 193.5,130.5C 193.315,131.17 192.981,131.17 192.5,130.5 Z"/></g>
<g><path style="opacity:0.02" fill="#0099cc" d="M 191.5,131.5 C 191.833,131.5 192.167,131.5 192.5,131.5C 192.315,132.17 191.981,132.17 191.5,131.5 Z"/></g>
<g><path style="opacity:0.004" fill="#0000ff" d="M 189.5,135.5 C 188.833,136.167 188.833,136.167 189.5,135.5 Z"/></g>
<g><path style="opacity:0.004" fill="#00fffe" d="M 185.5,137.5 C 186.833,138.167 186.833,138.167 185.5,137.5 Z"/></g>
<g><path style="opacity:0.008" fill="#0d8007" d="M 129.5,137.5 C 129.5,137.833 129.5,138.167 129.5,138.5C 128.833,138.5 128.5,138.833 128.5,139.5C 127.833,139.5 127.167,139.5 126.5,139.5C 126.973,138.094 127.973,137.427 129.5,137.5 Z"/></g>
<g><path style="opacity:0.016" fill="#007ebf" d="M 182.5,139.5 C 183.833,140.167 183.833,140.167 182.5,139.5 Z"/></g>
<g><path style="opacity:0.008" fill="#0076ed" d="M 177.5,143.5 C 177.5,143.167 177.5,142.833 177.5,142.5C 178.167,142.5 178.833,142.5 179.5,142.5C 179.158,143.338 178.492,143.672 177.5,143.5 Z"/></g>
<g><path style="opacity:0.012" fill="#0b4205" d="M 67.5,143.5 C 67.5,143.167 67.5,142.833 67.5,142.5C 69.0269,142.427 70.0269,143.094 70.5,144.5C 69.8333,144.5 69.1667,144.5 68.5,144.5C 68.5,143.833 68.1667,143.5 67.5,143.5 Z"/></g>
<g><path style="opacity:0.016" fill="#1677c5" d="M 175.5,143.5 C 176.167,143.5 176.833,143.5 177.5,143.5C 176.713,145.104 175.38,145.771 173.5,145.5C 173.5,145.167 173.5,144.833 173.5,144.5C 174.492,144.672 175.158,144.338 175.5,143.5 Z"/></g>
<g><path style="opacity:0.012" fill="#068ce2" d="M 171.5,146.5 C 171.5,146.167 171.5,145.833 171.5,145.5C 172.167,145.5 172.833,145.5 173.5,145.5C 173.158,146.338 172.492,146.672 171.5,146.5 Z"/></g>
<g><path style="opacity:0.004" fill="#8cfffe" d="M -0.5,145.5 C -0.166667,145.5 0.166667,145.5 0.5,145.5C 0.5,146.167 0.5,146.833 0.5,147.5C 0.166667,147.5 -0.166667,147.5 -0.5,147.5C -0.5,146.833 -0.5,146.167 -0.5,145.5 Z"/></g>
<g><path style="opacity:0.012" fill="#00aaa9" d="M 169.5,147.5 C 169.5,147.167 169.5,146.833 169.5,146.5C 170.167,146.5 170.833,146.5 171.5,146.5C 171.158,147.338 170.492,147.672 169.5,147.5 Z"/></g>
<g><path style="opacity:0.008" fill="#1e61ff" d="M 167.5,148.5 C 167.5,148.167 167.5,147.833 167.5,147.5C 168.167,147.5 168.833,147.5 169.5,147.5C 169.158,148.338 168.492,148.672 167.5,148.5 Z"/></g>
<g><path style="opacity:0.004" fill="#e2e135" d="M 0.5,147.5 C 0.833333,147.5 1.16667,147.5 1.5,147.5C 1.5,148.167 1.5,148.833 1.5,149.5C 0.661754,149.158 0.32842,148.492 0.5,147.5 Z"/></g>
<g><path style="opacity:0.004" fill="#00fffe" d="M 166.5,148.5 C 166.833,148.5 167.167,148.5 167.5,148.5C 167.315,149.17 166.981,149.17 166.5,148.5 Z"/></g>
<g><path style="opacity:0.004" fill="#0000ff" d="M 164.5,149.5 C 165.833,150.167 165.833,150.167 164.5,149.5 Z"/></g>
<g><path style="opacity:0.016" fill="#007ebf" d="M 158.5,152.5 C 158.833,152.5 159.167,152.5 159.5,152.5C 159.315,153.17 158.981,153.17 158.5,152.5 Z"/></g>
<g><path style="opacity:0.008" fill="#078798" d="M 156.5,154.5 C 156.5,154.167 156.5,153.833 156.5,153.5C 157.167,153.5 157.833,153.5 158.5,153.5C 158.158,154.338 157.492,154.672 156.5,154.5 Z"/></g>
<g><path style="opacity:0.024" fill="#007ed4" d="M 155.5,154.5 C 155.833,154.5 156.167,154.5 156.5,154.5C 156.315,155.17 155.981,155.17 155.5,154.5 Z"/></g>
<g><path style="opacity:0.004" fill="#00ff00" d="M 12.5,160.5 C 12.1034,161.525 11.4368,161.692 10.5,161C 11.0944,160.536 11.7611,160.369 12.5,160.5 Z"/></g>
<g><path style="opacity:0.004" fill="#00fffe" d="M 147.5,160.5 C 148.833,161.167 148.833,161.167 147.5,160.5 Z"/></g>
<g><path style="opacity:0.004" fill="#0000ff" d="M 146.5,161.5 C 146.833,161.5 147.167,161.5 147.5,161.5C 147.315,162.17 146.981,162.17 146.5,161.5 Z"/></g>
<g><path style="opacity:0.008" fill="#007eff" d="M 144.5,162.5 C 145.833,163.167 145.833,163.167 144.5,162.5 Z"/></g>
<g><path style="opacity:0.004" fill="#feff00" d="M 16.5,163.5 C 15.8333,164.167 15.8333,164.167 16.5,163.5 Z"/></g>
<g><path style="opacity:0.012" fill="#00aaa9" d="M 143.5,163.5 C 143.833,163.5 144.167,163.5 144.5,163.5C 144.315,164.17 143.981,164.17 143.5,163.5 Z"/></g>
<g><path style="opacity:0.008" fill="#007f7e" d="M 142.5,164.5 C 142.833,164.5 143.167,164.5 143.5,164.5C 143.315,165.17 142.981,165.17 142.5,164.5 Z"/></g>
<g><path style="opacity:0.008" fill="#0b8dff" d="M 140.5,166.5 C 140.5,166.167 140.5,165.833 140.5,165.5C 141.167,165.5 141.833,165.5 142.5,165.5C 142.158,166.338 141.492,166.672 140.5,166.5 Z"/></g>
<g><path style="opacity:0.016" fill="#00bfff" d="M 139.5,166.5 C 139.833,166.5 140.167,166.5 140.5,166.5C 140.315,167.17 139.981,167.17 139.5,166.5 Z"/></g>
<g><path style="opacity:0.024" fill="#9ec639" d="M 22.5,166.5 C 22.8417,167.338 23.5084,167.672 24.5,167.5C 24.5,167.833 24.5,168.167 24.5,168.5C 22.8967,168.688 21.5634,168.188 20.5,167C 21.0944,166.536 21.7611,166.369 22.5,166.5 Z"/></g>
<g><path style="opacity:0.02" fill="#0099cc" d="M 138.5,167.5 C 138.833,167.5 139.167,167.5 139.5,167.5C 139.315,168.17 138.981,168.17 138.5,167.5 Z"/></g>
<g><path style="opacity:0.016" fill="#007ebf" d="M 137.5,168.5 C 137.833,168.5 138.167,168.5 138.5,168.5C 138.315,169.17 137.981,169.17 137.5,168.5 Z"/></g>
<g><path style="opacity:0.02" fill="#0065cc" d="M 136.5,169.5 C 136.833,169.5 137.167,169.5 137.5,169.5C 137.315,170.17 136.981,170.17 136.5,169.5 Z"/></g>
<g><path style="opacity:0.016" fill="#c9c93f" d="M 29.5,170.5 C 30.5,170.5 31.5,170.5 32.5,170.5C 32.5,170.833 32.5,171.167 32.5,171.5C 31.209,171.737 30.209,171.404 29.5,170.5 Z"/></g>
<g><path style="opacity:0.012" fill="#00a9ff" d="M 135.5,170.5 C 135.833,170.5 136.167,170.5 136.5,170.5C 136.315,171.17 135.981,171.17 135.5,170.5 Z"/></g>
<g><path style="opacity:0.012" fill="#a4a43e" d="M 32.5,171.5 C 33.791,171.263 34.791,171.596 35.5,172.5C 34.209,172.737 33.209,172.404 32.5,171.5 Z"/></g>
<g><path style="opacity:0.008" fill="#00fffe" d="M 134.5,171.5 C 134.833,171.5 135.167,171.5 135.5,171.5C 135.315,172.17 134.981,172.17 134.5,171.5 Z"/></g>
<g><path style="opacity:0.008" fill="#9cba20" d="M 35.5,172.5 C 36.8734,172.343 38.2068,172.51 39.5,173C 37.9343,173.765 36.6009,173.598 35.5,172.5 Z"/></g>
<g><path style="opacity:0.008" fill="#00fffe" d="M 133.5,172.5 C 133.833,172.5 134.167,172.5 134.5,172.5C 134.315,173.17 133.981,173.17 133.5,172.5 Z"/></g>
<g><path style="opacity:0.008" fill="#007f7e" d="M 132.5,173.5 C 132.833,173.5 133.167,173.5 133.5,173.5C 133.315,174.17 132.981,174.17 132.5,173.5 Z"/></g>
<g><path style="opacity:0.004" fill="#00fffe" d="M 131.5,174.5 C 131.833,174.5 132.167,174.5 132.5,174.5C 132.315,175.17 131.981,175.17 131.5,174.5 Z"/></g>
<g><path style="opacity:0.004" fill="#000000" d="M 46.5,175.5 C 45.8333,176.167 45.8333,176.167 46.5,175.5 Z"/></g>
<g><path style="opacity:0.004" fill="#29e4ff" d="M 129.5,175.5 C 130.167,175.5 130.833,175.5 131.5,175.5C 131.027,176.906 130.027,177.573 128.5,177.5C 128.5,177.167 128.5,176.833 128.5,176.5C 129.167,176.5 129.5,176.167 129.5,175.5 Z"/></g>
<g><path style="opacity:0.016" fill="#007eff" d="M 127.5,177.5 C 127.833,177.5 128.167,177.5 128.5,177.5C 128.315,178.17 127.981,178.17 127.5,177.5 Z"/></g>
<g><path style="opacity:0.016" fill="#00bfff" d="M 126.5,178.5 C 126.833,178.5 127.167,178.5 127.5,178.5C 127.315,179.17 126.981,179.17 126.5,178.5 Z"/></g>
<g><path style="opacity:0.016" fill="#007eff" d="M 125.5,179.5 C 125.833,179.5 126.167,179.5 126.5,179.5C 126.315,180.17 125.981,180.17 125.5,179.5 Z"/></g>
<g><path style="opacity:0.02" fill="#0099cc" d="M 124.5,180.5 C 124.833,180.5 125.167,180.5 125.5,180.5C 125.315,181.17 124.981,181.17 124.5,180.5 Z"/></g>
<g><path style="opacity:0.02" fill="#0065cc" d="M 123.5,181.5 C 123.833,181.5 124.167,181.5 124.5,181.5C 124.315,182.17 123.981,182.17 123.5,181.5 Z"/></g>
<g><path style="opacity:0.008" fill="#327dee" d="M 54.5,182.5 C 55.1667,182.5 55.5,182.833 55.5,183.5C 54.5029,184.713 53.5029,184.546 52.5,183C 53.0944,182.536 53.7611,182.369 54.5,182.5 Z"/></g>
<g><path style="opacity:0.012" fill="#0054ff" d="M 122.5,182.5 C 122.833,182.5 123.167,182.5 123.5,182.5C 123.315,183.17 122.981,183.17 122.5,182.5 Z"/></g>
<g><path style="opacity:0.012" fill="#0054aa" d="M 121.5,183.5 C 121.833,183.5 122.167,183.5 122.5,183.5C 122.315,184.17 121.981,184.17 121.5,183.5 Z"/></g>
<g><path style="opacity:0.012" fill="#0054ff" d="M 120.5,184.5 C 120.833,184.5 121.167,184.5 121.5,184.5C 121.315,185.17 120.981,185.17 120.5,184.5 Z"/></g>
<g><path style="opacity:0.008" fill="#007f7e" d="M 57.5,185.5 C 57.5,185.833 57.5,186.167 57.5,186.5C 56.8299,186.019 56.8299,185.685 57.5,185.5 Z"/></g>
<g><path style="opacity:0.004" fill="#00fffe" d="M 119.5,185.5 C 119.833,185.5 120.167,185.5 120.5,185.5C 120.315,186.17 119.981,186.17 119.5,185.5 Z"/></g>
<g><path style="opacity:0.004" fill="#000000" d="M 57.5,186.5 C 58.8333,187.167 58.8333,187.167 57.5,186.5 Z"/></g>
<g><path style="opacity:0.004" fill="#0000ff" d="M 118.5,186.5 C 118.833,186.5 119.167,186.5 119.5,186.5C 119.315,187.17 118.981,187.17 118.5,186.5 Z"/></g>
<g><path style="opacity:0.008" fill="#007f7e" d="M 113.5,189.5 C 114.833,190.167 114.833,190.167 113.5,189.5 Z"/></g>
<g><path style="opacity:0.012" fill="#00aaa9" d="M 112.5,190.5 C 112.833,190.5 113.167,190.5 113.5,190.5C 113.315,191.17 112.981,191.17 112.5,190.5 Z"/></g>
<g><path style="opacity:0.004" fill="#3864d7" d="M 110.5,191.5 C 111.167,191.5 111.833,191.5 112.5,191.5C 112.027,192.906 111.027,193.573 109.5,193.5C 109.5,193.167 109.5,192.833 109.5,192.5C 110.167,192.5 110.5,192.167 110.5,191.5 Z"/></g>
<g><path style="opacity:0.008" fill="#1587a8" d="M 107.5,194.5 C 107.5,194.167 107.5,193.833 107.5,193.5C 108.167,193.5 108.833,193.5 109.5,193.5C 109.158,194.338 108.492,194.672 107.5,194.5 Z"/></g>
<g><path style="opacity:0.008" fill="#297bea" d="M 71.5,193.5 C 72.1667,193.5 72.8333,193.5 73.5,193.5C 74.209,194.404 75.209,194.737 76.5,194.5C 76.9175,195.222 77.5842,195.722 78.5,196C 75.6609,196.444 73.3276,195.61 71.5,193.5 Z"/></g>
<g><path style="opacity:0.012" fill="#0aa4b5" d="M 105.5,195.5 C 105.5,195.167 105.5,194.833 105.5,194.5C 106.167,194.5 106.833,194.5 107.5,194.5C 107.158,195.338 106.492,195.672 105.5,195.5 Z"/></g>
<g><path style="opacity:0.008" fill="#087fe9" d="M 103.5,196.5 C 103.5,196.167 103.5,195.833 103.5,195.5C 104.167,195.5 104.833,195.5 105.5,195.5C 105.158,196.338 104.492,196.672 103.5,196.5 Z"/></g>
<g><path style="opacity:0.012" fill="#00bebe" d="M 100.5,197.5 C 101.209,196.596 102.209,196.263 103.5,196.5C 102.791,197.404 101.791,197.737 100.5,197.5 Z"/></g>
<g><path style="opacity:0.008" fill="#249bc5" d="M 82.5,198.5 C 83.9464,197.387 85.6131,197.22 87.5,198C 85.8659,198.494 84.1992,198.66 82.5,198.5 Z"/></g>
<g><path style="opacity:0.012" fill="#2163cc" d="M 100.5,197.5 C 99.0536,198.613 97.3869,198.78 95.5,198C 97.1341,197.506 98.8008,197.34 100.5,197.5 Z"/></g>
<g><path style="opacity:0.004" fill="#0000ff" d="M 89.5,199.5 C 91.1667,198.167 92.8333,198.167 94.5,199.5C 92.8333,199.5 91.1667,199.5 89.5,199.5 Z"/></g>
</svg>
