<?xml version="1.0" encoding="UTF-8"?>
<!DOCTYPE svg PUBLIC "-//W3C//DTD SVG 1.1//EN" "http://www.w3.org/Graphics/SVG/1.1/DTD/svg11.dtd">
<svg xmlns="http://www.w3.org/2000/svg" version="1.1" width="225px" height="225px" style="shape-rendering:geometricPrecision; text-rendering:geometricPrecision; image-rendering:optimizeQuality; fill-rule:evenodd; clip-rule:evenodd" xmlns:xlink="http://www.w3.org/1999/xlink">
<g><path style="opacity:1" fill="#fdfdfe" d="M -0.5,-0.5 C 33.8333,-0.5 68.1667,-0.5 102.5,-0.5C 51.9087,6.57279 18.742,34.5728 3,83.5C 1.43784,89.9065 0.271177,96.2398 -0.5,102.5C -0.5,68.1667 -0.5,33.8333 -0.5,-0.5 Z"/></g>
<g><path style="opacity:1" fill="#5718de" d="M 102.5,-0.5 C 107.833,-0.5 113.167,-0.5 118.5,-0.5C 179.456,7.45582 214.789,41.7892 224.5,102.5C 224.5,107.833 224.5,113.167 224.5,118.5C 216.554,179.446 182.221,214.779 121.5,224.5C 115.167,224.5 108.833,224.5 102.5,224.5C 42.2622,214.929 7.92891,179.929 -0.5,119.5C -0.5,113.833 -0.5,108.167 -0.5,102.5C 0.271177,96.2398 1.43784,89.9065 3,83.5C 18.742,34.5728 51.9087,6.57279 102.5,-0.5 Z"/></g>
<g><path style="opacity:1" fill="#fdfdfe" d="M 118.5,-0.5 C 153.833,-0.5 189.167,-0.5 224.5,-0.5C 224.5,33.8333 224.5,68.1667 224.5,102.5C 214.789,41.7892 179.456,7.45582 118.5,-0.5 Z"/></g>
<g><path style="opacity:1" fill="#11fbd2" d="M 76.5,40.5 C 82.3059,40.2679 87.6392,41.7679 92.5,45C 116.334,59.4161 140.001,74.0828 163.5,89C 153.207,94.1464 143.207,99.8131 133.5,106C 130.983,106.257 128.65,105.59 126.5,104C 106.916,91.9585 87.416,79.7918 68,67.5C 61.1366,55.367 63.97,46.367 76.5,40.5 Z"/></g>
<g><path style="opacity:1" fill="#14fad2" d="M 64.5,71.5 C 75.2199,78.6141 86.0533,85.6141 97,92.5C 97.6667,116.833 97.6667,141.167 97,165.5C 93.3288,177.42 85.4954,181.586 73.5,178C 69.6119,175.778 66.7786,172.612 65,168.5C 64.5,136.168 64.3334,103.835 64.5,71.5 Z"/></g>
<g><path style="opacity:1" fill="#10fbd2" d="M 162.5,94.5 C 174.984,92.5617 182.317,97.7284 184.5,110C 184.172,115.988 181.505,120.654 176.5,124C 152.083,138.959 127.583,153.792 103,168.5C 102.167,155.82 102.334,143.154 103.5,130.5C 123.206,118.438 142.873,106.438 162.5,94.5 Z"/></g>
<g><path style="opacity:1" fill="#fdfdfe" d="M -0.5,119.5 C 7.92891,179.929 42.2622,214.929 102.5,224.5C 68.1667,224.5 33.8333,224.5 -0.5,224.5C -0.5,189.5 -0.5,154.5 -0.5,119.5 Z"/></g>
<g><path style="opacity:1" fill="#fdfdfe" d="M 224.5,118.5 C 224.5,153.833 224.5,189.167 224.5,224.5C 190.167,224.5 155.833,224.5 121.5,224.5C 182.221,214.779 216.554,179.446 224.5,118.5 Z"/></g>
</svg>
