<svg width="64" height="65" viewBox="0 0 64 65" fill="none" xmlns="http://www.w3.org/2000/svg">
<g clip-path="url(#clip0_25101_77700)">
<rect y="0.303711" width="64" height="64" rx="32" fill="#29296E"/>
<g clip-path="url(#clip1_25101_77700)">
<path d="M32 64.3037C50.2254 64.3037 65 49.5291 65 31.3037C65 13.0783 50.2254 -1.69629 32 -1.69629C13.7746 -1.69629 -1 13.0783 -1 31.3037C-1 49.5291 13.7746 64.3037 32 64.3037Z" fill="#3D8130"/>
<path d="M44.5684 42.5702L44.5554 42.5573L44.5684 42.5702Z" fill="#3D8130"/>
<path d="M18.6066 24.9873L17.1242 27.8748L15.5902 30.9041L14.5074 33.7401L13.7855 36.7565L13.3344 40.0565L13.0636 42.9053L12.7543 44.7744L13.0636 46.2311L13.5922 47.4815L14.5719 49.2088L16.8406 50.6268L18.5164 51.2842C18.9289 51.4131 19.3672 51.542 19.741 51.658L21.7261 52.019L24.5621 52.1479H26.9082C27.1789 52.1479 29.5508 52.019 29.5637 52.0061L32.5801 52.0576L35.4933 51.6967L36.7566 51.1682L37.6203 50.1369L37.659 48.7705C37.6074 48.6545 37.4398 48.2162 37.3883 48.0487C37.3496 47.9326 36.7695 47.2494 36.241 46.6565L36.2281 46.6436C35.9961 46.3084 35.6222 45.7283 35.6222 45.535C35.6222 45.3416 35.8543 44.7744 35.9058 44.6713L35.9316 44.6197L37.1433 44.2717L37.9426 44.8518L38.6644 44.4522L39.4765 43.6401L40.8945 42.5959L42.1836 41.8612L43.2019 41.6678L44.5426 42.583L44.4523 42.4799L45.0066 41.9901L45.5222 41.1393V40.2498L45.4191 39.992L44.7617 40.5205L43.5886 40.8557H43.5629L41.7582 40.817L39.1414 41.0877L38.3164 41.178L37.6847 41.0877L35.9961 40.8557L34.0883 40.4947L31.0074 39.992H30.9945L28.0426 38.7674L25.4515 37.2721L23.866 36.2022L23.7113 35.4416L23.9176 34.7326L24.5492 34.2686L26.0187 34.6037L29.2285 35.5963C30.8011 35.9186 33.1988 36.3955 33.3535 36.4084C33.4308 36.4084 33.7402 36.46 34.5137 36.5889C35.3386 36.7178 36.473 36.9112 36.7051 36.9112C37.1047 36.9112 40.1855 37.0787 40.366 37.0916C40.5336 37.0916 43.0344 37.0401 43.3051 37.0401C43.4855 37.0401 44.4523 36.7178 45.0324 36.5115L45.909 35.4674L46.7469 34.0108C46.7984 33.5854 46.7469 33.16 46.5922 32.7604C46.3859 32.219 45.9992 31.7549 45.5094 31.4455C45.2515 31.9354 44.9164 32.2448 44.5297 32.3865C44.3879 32.4381 44.2203 32.4639 44.0656 32.4639C43.8336 32.4639 43.6015 32.4123 43.4082 32.3092L43.5371 32.0772C43.8207 32.219 44.143 32.2448 44.4523 32.1416C44.8004 32.0127 45.0969 31.7033 45.3289 31.2264C45.0453 31.3295 44.7359 31.394 44.4265 31.394C44.2332 31.394 44.0398 31.3811 43.8465 31.3295L43.8722 31.2006L43.898 31.0717C43.9109 31.0717 44.9035 31.3166 45.6511 30.7365C46.1797 30.3369 46.4762 29.6151 46.5277 28.6225L45.664 29.6408L44.6199 30.1178C44.1558 30.2338 42.609 30.6205 42.4672 30.6205C42.4156 30.6205 42.2094 30.5948 41.7066 30.5045C41.075 30.4014 40.134 30.2596 39.889 30.2596C39.4508 30.2596 38.832 29.7826 38.7676 29.7311L38.6902 29.6795L39.1801 28.2487L40.5336 26.7147L41.9644 25.6963H43.7433L45.4191 25.8768L46.141 26.7018L46.489 27.2174V25.8252L45.0969 25.3225C44.9422 25.2967 43.5629 25.1033 43.2277 25.1033C42.9054 25.1033 41.6679 25.2967 41.4617 25.3225L39.6699 26.4826L39.5281 26.2635L41.3586 25.0776H41.3844C41.4488 25.0647 42.841 24.8455 43.2148 24.8455C43.5758 24.8455 45.0711 25.0647 45.1355 25.0776L45.1613 25.0905L46.6695 25.6448L46.8113 25.7221L46.8242 25.619L46.1152 25.0002L44.839 24.3815L43.2922 24.2526L41.5133 24.5619L40.8043 24.8713L40.7012 24.6264L41.4488 24.3041L43.2793 23.9819L44.9035 24.1237L44.9679 24.1623L44.4781 23.4018L43.0988 22.1901L43.1117 22.1772L37.7492 22.3319C37.7492 22.3319 37.0531 22.4221 36.2539 22.5252L37.0144 23.6209L37.4011 24.3041L37.2078 24.9873L36.95 24.91L37.1176 24.3299L36.7824 23.7498L35.9703 22.5768L36.0219 22.5381C35.0164 22.667 33.9465 22.7959 33.882 22.7959C33.766 22.7959 29.4605 23.1182 29.2801 23.1182C28.9191 23.0924 28.5582 23.0537 28.2101 22.9764C28.1457 22.9377 25.2711 21.8936 25.1679 21.8291C25.0648 21.7647 24.0594 20.7979 24.0594 20.7979L22.1 20.192L20.3855 22.3061L18.6066 24.9873ZM39.5281 30.9041C39.7859 31.0201 40.0179 31.1619 40.2629 31.3037L41.7324 31.4713L42.5703 31.2908L42.6219 31.5487L41.7453 31.7291L40.7269 31.6131C41.1652 31.9354 41.5648 32.2963 41.9258 32.7088C42.1836 33.0053 42.4156 33.3276 42.609 33.6627L42.3769 33.7916C42.1449 33.4049 41.8742 33.0311 41.5519 32.7088C41.1265 32.2705 40.6496 31.8709 40.134 31.5487L39.3863 31.1233L39.5281 30.9041ZM24.7941 26.083L25.9672 24.9615L26.9855 24.1237L28.4422 23.8401L29.9762 23.7885H31.6133L32.9668 23.8401L35.7125 23.8916L36.5762 24.4201L37.6332 25.3869L38.239 26.1346L38.5226 27.6557L38.2648 27.7073L37.9941 26.2506L37.4398 25.5545L36.4215 24.6264L35.648 24.1494L33.4953 24.1108L34.4363 24.6264C34.939 24.8842 35.8027 25.3483 35.8929 25.5416C35.9574 25.6448 36.6406 26.3151 37.2722 26.908L37.2851 26.9209L38.2519 28.1713L38.3937 29.2026L38.1359 29.2412L38.007 28.2873L37.0918 27.1014C36.7695 26.8049 35.764 25.851 35.6738 25.6705C35.5965 25.5674 34.9262 25.1807 34.3332 24.8713L32.9539 24.1108L31.6262 24.0721H30.0019L28.4808 24.1108L27.1273 24.3686L26.1605 25.1549L25.0648 26.2119L24.9488 26.908L25.1808 27.1143L25.7609 26.8049L26.7148 25.619L28.4422 24.9615L30.6851 24.7295L32.5801 24.91L35.0422 26.1862L36.0605 26.792L37.0402 28.094L37.4914 29.5119L38.1488 29.9373V30.5174L37.5429 31.0717L36.4601 31.5229L35.9961 31.9096L35.5062 32.7088L35.2613 33.1084L35.2355 33.1213C34.9133 33.2889 34.3461 33.5854 34.1914 33.5854C34.0754 33.6112 33.3535 33.9334 32.709 34.2557L32.6445 34.2686C32.5929 34.2815 31.4586 34.6295 31.175 34.6811L31.1363 34.4233C31.3812 34.3846 32.4511 34.0623 32.5543 34.0237C33.1988 33.7143 33.998 33.3405 34.1398 33.3405C34.4492 33.2244 34.7457 33.0826 35.0422 32.9151L35.1582 32.7217L35.7512 31.7549L35.8929 31.6389C35.4804 31.6002 34.939 31.5358 34.7972 31.4584C34.7328 31.4326 34.3461 31.3811 32.3222 31.3811C31.8195 31.3811 30.6336 31.1104 30.466 31.0588C30.3371 31.0201 29.1254 30.6592 29.1125 30.6592L29.0867 30.6463L29.0609 30.6205C29.048 30.6076 27.9265 29.5377 27.1015 29.0608L27.2304 28.8287C28.0297 29.2928 29.048 30.2467 29.2285 30.4143C29.4219 30.4658 30.4273 30.7752 30.5562 30.8139C30.698 30.8655 31.8582 31.1233 32.3222 31.1233C34.7586 31.1233 34.8617 31.1877 34.9262 31.2393C35.0164 31.2908 35.5965 31.3553 36.0863 31.394L36.0734 31.4842L36.2668 31.3166L37.3496 30.8655L37.8265 30.4272V30.1049L37.4914 29.8858L37.5043 29.9244L36.3828 30.3369L34.8359 30.5174C34.7586 30.5174 34.4234 30.5303 34.0496 30.5303C33.6113 30.5303 33.1344 30.5174 32.9926 30.4658C32.7863 30.4014 31.4844 30.1178 30.8398 29.976H30.8269L30.814 29.9631C30.0019 29.5248 28.9965 28.9705 28.9191 28.8287C28.8547 28.7514 28.3519 28.4936 27.9265 28.2873H27.9136L26.4828 27.4494L26.2894 27.4881L26.2636 27.3205L25.8125 27.0627L25.1164 27.4365L24.6265 27.0112L24.7941 26.083ZM25.3871 32.2576L25.4515 32.5155L24.575 32.7217L24.1367 32.8248L24.1109 32.7217L24.0722 32.567L25.3871 32.2576ZM25.9414 33.4823L25.8769 33.7401C25.5804 33.6756 25.2711 33.6885 24.9746 33.7401C24.4847 33.8303 23.7629 34.1139 23.0668 34.9131L22.8734 34.7455C24.3043 33.0698 25.8769 33.4565 25.9414 33.4823Z" fill="#3D8130"/>
<path d="M27.7074 26.9596C27.7847 26.9467 29.6152 26.7276 29.8472 26.7276C29.9375 26.7276 30.1953 26.7534 30.5304 26.7791C30.9816 26.8178 31.7422 26.8823 31.8582 26.8694C32.0386 26.8178 33.8433 26.6631 34.0496 26.6374L35.1195 26.56L34.9004 26.4311L32.4898 25.1807L30.6722 25.0002L28.4808 25.2194L26.8566 25.8381L26.0316 26.8694L26.5601 27.1788L27.7074 26.9596Z" fill="#3D8130"/>
<path d="M34.0625 26.908C33.2632 26.9854 32.0386 27.1014 31.9097 27.1272C31.7937 27.153 31.3812 27.1272 30.5046 27.0498C30.2082 27.024 29.9246 26.9983 29.8472 26.9983C29.6667 26.9983 28.2746 27.1658 27.746 27.2174L26.8953 27.3721L28.0554 28.0553C28.4164 28.2229 29.0351 28.5323 29.1382 28.6869C29.2414 28.7901 30.1179 29.2928 30.93 29.7311C31.1363 29.7698 32.8378 30.1436 33.0957 30.2338C33.2761 30.2983 34.2687 30.2854 34.8488 30.2725L36.3699 30.092L37.2851 29.744L37.2335 29.7182L36.7695 28.2487L35.8542 27.024L35.3128 26.7018L35.3257 26.8307L34.0625 26.908Z" fill="#3D8130"/>
<path d="M45.9734 26.8049L45.3289 26.0831L43.7563 25.9026H42.0805L40.727 26.8694L39.4379 28.326L39.0254 29.5249C39.2316 29.6795 39.6441 29.9374 39.9148 29.9374C40.1855 29.9374 41.0621 30.0791 41.7711 30.1952C42.1062 30.2467 42.4414 30.2983 42.493 30.2983C42.609 30.2854 43.8207 29.9889 44.5684 29.8084L45.5223 29.3702L46.2828 28.4936L46.2184 28.0811L43.8723 27.1272L40.8687 27.037L40.8816 26.7791L43.9367 26.8694L46.4633 27.9006L46.5664 28.5581C46.5664 28.5194 46.5664 28.4807 46.5664 28.442V27.7202L45.9734 26.8049Z" fill="#3D8130"/>
<path d="M43.1633 41.9255L42.2867 42.0931L41.0492 42.8021L39.657 43.8334L39.2703 44.2201L40.1469 44.8388L40.2113 45.3287L39.6184 45.9216L39.4379 45.7412L39.9406 45.2384L39.9148 44.9935L39.0898 44.4134L38.8449 44.6584L38.3293 44.9419L38.1875 45.638L38.9094 46.2697L39.9535 46.231C40.1469 46.0892 40.4691 45.883 40.6238 45.8701C40.7785 45.7798 40.9332 45.6767 41.075 45.5607C41.423 45.29 41.5648 45.1998 41.668 45.1998C41.9773 45.0451 42.2738 44.8775 42.5574 44.6841L42.5961 44.6584L43.8594 44.8001L44.2977 45.2384L44.2074 45.3287C43.9367 45.6251 43.6273 46.0119 43.6145 46.1021C43.6145 46.1666 43.6016 46.231 43.5758 46.2826L43.8723 46.115L45.2645 45.1224L45.4191 45.3416L44.0012 46.347L43.3438 46.708C43.318 46.7466 43.2922 46.7853 43.2793 46.7982L43.2277 46.7595L42.2223 47.3138L41.5262 48.3193L41.2812 48.9123L41.784 49.6212L42.3383 50.2529L42.9957 50.3302L43.6016 50.2013L43.5887 50.0724L44.259 49.0154L45.5223 47.7908L45.7027 47.9841L44.4523 49.1958L43.8465 50.1369L43.8852 50.8459L44.5297 51.2841L45.3805 51.3744L45.8574 51.2326L45.7672 51.0908L45.8316 51.0134C45.8574 50.9748 46.5535 50.1884 46.6953 50.0595C46.7984 49.9564 47.3914 49.2732 47.6879 48.938L47.8813 49.1056C47.8426 49.1443 47.0176 50.1111 46.8758 50.24C46.7727 50.3431 46.2699 50.8974 46.0895 51.1037L46.5406 51.774H47.3012L47.9586 51.4775L48.5 50.6783L49.2219 49.9048L49.4152 50.0853L48.6934 50.8459L48.1391 51.6837L47.3527 52.0318H46.3988L45.9992 51.4388L45.3934 51.6193L44.4266 51.5291L43.6273 50.9748L43.6016 50.4591L42.9957 50.588L42.1965 50.4849L41.5906 49.7888L40.6883 49.2474L39.7473 48.2033L39.5152 46.5791L39.773 46.5404L39.9664 47.9326L41.0879 47.0431L42.2996 45.883L42.9957 44.9291L42.6605 44.8904C42.2867 45.1353 41.8484 45.406 41.6938 45.4318C41.5391 45.522 41.3844 45.6251 41.2426 45.7412C40.8816 46.0119 40.7398 46.1021 40.6496 46.1021C40.4563 46.1923 40.2629 46.3083 40.0953 46.4373L40.0566 46.463L38.832 46.5146L37.9168 45.7025L38.0457 45.0837L37.9555 45.1353L37.1305 44.5423L36.1637 44.8259C36.0605 45.058 35.9832 45.29 35.9316 45.5349C35.9445 45.638 36.2281 46.115 36.4859 46.4888C36.834 46.8755 37.6332 47.7908 37.6848 47.9841C37.7234 48.1259 37.891 48.5384 37.9555 48.6931L37.9684 48.7189L37.9297 50.472L38.4324 51.2197C38.6902 51.3744 40.5852 52.483 40.8043 52.6119C40.959 52.7021 42.3254 53.0888 43.1633 53.3208L45.9863 53.5916L48.2551 53.2822L50.2016 52.3927L51.2586 51.3744L51.0137 50.472L49.7117 48.0486L48.7707 46.6177L47.1336 44.8388L44.723 43.5111L44.3621 42.7376L43.1633 41.9255Z" fill="#3D8130"/>
<path d="M45.2128 36.7049L45.1742 36.7178C44.9164 36.808 43.6015 37.2721 43.3179 37.2721C43.0472 37.2721 40.4046 37.3107 40.3789 37.3236C40.3402 37.3236 37.1175 37.1432 36.7179 37.1432C36.4601 37.1432 35.416 36.9756 34.4878 36.8209C33.9722 36.7307 33.4437 36.6533 33.3664 36.6533C33.1859 36.6533 29.8472 35.9701 29.1769 35.8412H29.164L25.9542 34.8486L24.6136 34.5522L24.1496 34.9002L23.9949 35.4545L24.1109 36.0475L25.6062 37.0529L28.1714 38.5354L31.0847 39.7471L34.1398 40.2369L36.0476 40.5979L38.3292 40.9072L41.7582 40.5463H41.771L43.5628 40.585L44.6457 40.2756L45.5609 39.5408L46.3085 38.3936L46.4761 37.865L46.2312 37.2721C45.1484 38.2518 45.0324 38.2904 44.9679 38.3033L43.8593 38.574L40.7785 38.7158H40.7656L37.5429 38.5354L34.346 37.9553L31.7679 38.0068H31.755L29.0738 37.3236L26.7019 36.4986L25.4386 35.7252L25.5804 35.5061L26.8308 36.2666L29.164 37.0787L31.8066 37.749L34.3847 37.6975H34.3976L37.5945 38.2775L40.7914 38.458L43.8464 38.3291L44.9164 38.0584C44.9808 38.0326 45.3417 37.749 46.1023 37.0529C46.2054 36.9627 46.2699 36.8982 46.2957 36.8725L47.2753 35.5318L47.6105 34.9002C47.5589 34.6811 47.5074 34.4748 47.4816 34.2557C47.3527 34.0494 47.2109 33.8689 47.0433 33.6885C47.0433 33.8045 47.0433 33.9205 47.0175 34.0365V34.0623L46.1281 35.5963L45.2128 36.7049Z" fill="#983B1F"/>
<path d="M51.2199 50.3818L49.9051 47.9326L48.9512 46.476L47.3012 44.6326L44.9164 43.3307L44.5684 42.583L44.5039 42.6217C44.5039 42.6217 44.723 43.4209 44.8777 43.4982C45.0324 43.5756 47.0949 44.6326 47.198 44.6842C47.3012 44.7357 49.093 46.8756 49.093 46.8756L50.5367 49.3893L51.4004 51.3228C51.4004 51.3228 50.2918 52.4572 50.2273 52.4701C50.1629 52.483 48.023 53.5271 47.9586 53.5271C47.8941 53.5271 45.8187 53.7592 45.7027 53.7334C45.5867 53.6947 43.0344 53.4756 42.841 53.4627C42.6348 53.4498 40.2758 52.5088 40.2758 52.5088L38.2391 51.2842L37.659 50.3818L36.8469 51.2971C36.8469 51.2971 35.6996 51.8771 35.5449 51.8771C35.3902 51.8771 32.5801 52.251 32.3609 52.251H26.702C26.702 52.251 21.1074 52.1479 20.8625 52.0318C20.7852 51.9932 20.334 51.8514 19.741 51.658L19.2641 51.5678L18.5164 51.2842C17.6012 51.0006 16.7762 50.7557 16.7762 50.7557L14.4688 49.2603C14.4688 49.2603 13.502 47.5846 13.4633 47.4943C13.4246 47.4041 12.8316 45.999 12.8316 45.9346C12.8316 45.8701 12.6254 44.7486 12.6254 44.7486L13.0379 42.1834L13.2184 39.4893L13.6566 36.5502C13.6566 36.5502 14.3914 33.5982 14.4043 33.4693C14.4172 33.3275 15.6031 30.4143 15.6031 30.4143L16.8535 28.1584L18.5035 24.7553L20.3211 22.19L22.0871 20.0889L22.2031 20.1275L21.9969 19.96L20.2824 22.0869L18.3746 24.8584L16.8793 27.7717L15.3453 30.7881L14.2496 33.6498L13.5148 36.692L13.0637 40.0178L12.793 42.8666L12.4707 44.7873L12.793 46.3084L13.3473 47.5975L14.3656 49.4021L16.6988 50.8717L19.1609 51.8385L21.6746 52.3025L24.5492 52.4443H26.8953C27.166 52.4443 29.4219 52.3154 29.5637 52.3025L32.593 52.3541H32.6059L35.5578 51.9932H35.5707L36.9242 51.426L37.6203 50.5881L38.2004 51.4518L38.2262 51.4646C38.252 51.4775 40.4047 52.7279 40.6238 52.8697C40.8559 53.0115 42.8281 53.5529 43.0602 53.6045L45.9477 53.8752L48.268 53.5529H48.2809L50.2918 52.6377L50.3176 52.6248L51.5164 51.4646L51.2199 50.3818Z" fill="black"/>
<path d="M20.3211 22.19L18.5035 24.7553L16.8535 28.1584L15.6031 30.4143C15.6031 30.4143 14.4172 33.3275 14.4043 33.4693C14.3914 33.6111 13.6566 36.5502 13.6566 36.5502L13.2183 39.4893L13.0379 42.1834L12.6254 44.7486C12.6254 44.7486 12.8316 45.8701 12.8316 45.9346C12.8316 45.999 13.4246 47.4041 13.4633 47.4943C13.5019 47.5846 14.4687 49.2603 14.4687 49.2603L16.7761 50.7557C16.7761 50.7557 17.6011 51.0006 18.5164 51.2842L16.8406 50.6268L14.5719 49.2088L13.5922 47.4814L13.0636 46.2311L12.7543 44.7744L13.0636 42.9053L13.3344 40.0564L13.7855 36.7564L14.5074 33.74L15.5902 30.9041L17.1242 27.8748L18.6066 24.9873L20.5015 22.2416L22.216 20.1275L22.1 20.0889L20.3211 22.19Z" fill="black"/>
<path d="M43.2148 41.6549L42.1965 41.8483L40.9074 42.583L39.4895 43.6272L38.6773 44.4393L37.9555 44.8389L37.1562 44.2588L35.9445 44.6069L35.9187 44.6584C35.8672 44.7744 35.6352 45.3287 35.6352 45.5221C35.6352 45.7155 36.0219 46.3084 36.241 46.6307L36.2539 46.6436C36.7824 47.2365 37.3625 47.9198 37.4012 48.0358C37.4398 48.2033 37.6203 48.6416 37.6719 48.7576L37.6332 50.124L36.7695 51.1553L35.5063 51.6838L32.593 52.0448L29.5766 51.9932C29.5508 51.9932 27.1789 52.135 26.9211 52.135H24.575L21.7391 52.0061L19.7539 51.6451C20.334 51.8256 20.798 51.9803 20.8754 52.019C21.1074 52.135 26.7148 52.2381 26.7148 52.2381H32.3738C32.593 52.2381 35.416 51.8643 35.5578 51.8643C35.7125 51.8643 36.8598 51.2842 36.8598 51.2842L37.6719 50.369L38.252 51.2713L40.2887 52.4959C40.2887 52.4959 42.6477 53.424 42.8539 53.4498C43.0602 53.4627 45.5996 53.6819 45.7156 53.7205C45.8316 53.7592 47.907 53.5143 47.9715 53.5143C48.0359 53.5143 50.1758 52.483 50.2402 52.4573C50.3047 52.4444 51.4133 51.31 51.4133 51.31L50.5496 49.3764L49.1059 46.8627C49.1059 46.8627 47.3141 44.7229 47.2109 44.6713C47.1078 44.6198 45.0453 43.5627 44.8906 43.4854C44.7359 43.408 44.5168 42.6088 44.5168 42.6088L44.5813 42.5701V42.5573L43.2148 41.6549ZM44.7102 43.5112L47.1207 44.8389L48.732 46.6178L49.673 48.0487L50.975 50.4721L51.2199 51.3744L50.1629 52.3928L48.2164 53.2823L45.9477 53.5916L43.1246 53.3209C42.2867 53.0889 40.9203 52.7022 40.7656 52.6119C40.5465 52.483 38.6516 51.3744 38.3938 51.2198L37.891 50.4721L37.9297 48.719V48.7061C37.8652 48.5514 37.6977 48.1389 37.659 47.9971C37.6074 47.8037 36.8082 46.8885 36.4602 46.5018C36.2023 46.1151 35.9059 45.6381 35.9059 45.5479C35.9574 45.303 36.0348 45.0709 36.1379 44.8389L37.1047 44.5553L37.9297 45.1483L38.0199 45.0967L37.891 45.7155L38.8062 46.5276L40.0309 46.476L40.0695 46.4502C40.2371 46.3213 40.4305 46.2053 40.6238 46.1151C40.727 46.1151 40.8559 46.0248 41.2168 45.7541C41.3586 45.6381 41.5133 45.535 41.668 45.4448C41.8227 45.4319 42.2738 45.1483 42.6348 44.9033L42.9699 44.942L42.2738 45.8959L41.0621 47.0561L39.9406 47.9455L39.7473 46.5533L39.4895 46.592L39.7215 48.2162L40.6625 49.2604L41.5648 49.8018L42.1707 50.4979L42.9699 50.601L43.5758 50.4721L43.6016 50.9877L44.4008 51.542L45.3676 51.6323L45.9734 51.4518L46.373 52.0448H47.327L48.1133 51.6967L48.6676 50.8588L49.3895 50.0983L49.1961 49.9178L48.4742 50.6912L47.9328 51.4905L47.2754 51.7869H46.5148L46.0637 51.1166C46.2441 50.9104 46.7469 50.3561 46.85 50.253C46.9918 50.1112 47.8168 49.1573 47.8555 49.1186L47.6621 48.951C47.3656 49.299 46.7727 49.9694 46.6695 50.0725C46.5277 50.2143 45.8316 51.0006 45.8059 51.0264L45.7414 51.1037L45.8316 51.2455L45.3547 51.3873L44.5039 51.2971L43.8594 50.8588L43.8207 50.1498L44.4266 49.2088L45.677 47.9971L45.4965 47.8037L44.2332 49.0283L43.5629 50.0854L43.5758 50.2143L42.9699 50.3432L42.3125 50.2658L41.7582 49.6342L41.2555 48.9252L41.5004 48.3323L42.1965 47.3268L43.202 46.7725L43.2535 46.8112C43.2664 46.7854 43.2922 46.7596 43.318 46.7209L43.9754 46.36L45.3934 45.3545L45.2387 45.1354L43.8465 46.128L43.55 46.2955C43.5758 46.244 43.5887 46.1795 43.5887 46.1151C43.6016 46.0119 43.9109 45.6381 44.1816 45.3416L44.2719 45.2514L43.8336 44.8131L42.5703 44.6713L42.5316 44.6971C42.248 44.8905 41.9516 45.0709 41.6422 45.2127C41.5391 45.2127 41.3973 45.3158 41.0492 45.5737C40.9074 45.6897 40.7527 45.7928 40.598 45.883C40.4434 45.8959 40.134 46.1022 39.9277 46.244L38.8836 46.2826L38.1617 45.651L38.3035 44.9549L38.8191 44.6713L39.0641 44.4264L39.8891 45.0065L39.9148 45.2514L39.4121 45.7541L39.5926 45.9346L40.1855 45.3416L40.1211 44.8518L39.2445 44.233L39.6313 43.8463L41.0234 42.8151L42.2609 42.1061L43.1375 41.9385L44.3234 42.7506L44.7102 43.5112ZM41.1781 49.2733L40.8301 49.067L40.0566 48.2162L41.2426 47.2881L42.4672 46.1022L43.2664 44.9936L43.7176 45.0451L43.9109 45.2385C43.666 45.5092 43.3309 45.9088 43.3309 46.0893C43.2922 46.244 43.2148 46.3858 43.1246 46.5018L42.0031 47.1205L41.2555 48.1905L40.9461 48.9639L41.1781 49.2733Z" fill="black"/>
<path d="M44.3363 23.0022L44.9937 23.8659C44.9937 23.8659 45.316 24.3686 45.432 24.4073C45.548 24.4459 46.6179 25.0647 46.6179 25.0647L47.0562 25.5545L46.966 25.8381L46.6308 25.735L46.6824 27.3979H46.7855V25.9026L47.082 26.0702L47.1593 25.4385L46.3214 24.7038L45.4191 24.2655L45.4578 24.2397L44.7617 23.144L43.3566 21.9065L43.2019 22.087H43.3437L44.3363 23.0022Z" fill="black"/>
<path d="M46.5277 29.7955C46.5277 29.7955 46.0507 30.7494 45.9992 30.7752C45.9476 30.8139 45.5222 30.9944 45.5222 30.9944L45.5609 31.2264C45.7543 31.3682 45.9476 31.5229 46.1152 31.6905C46.141 31.7291 46.4246 32.2963 46.6566 32.7217H46.8886C46.6695 32.0772 46.2312 31.5229 45.6511 31.1748C45.6769 31.1233 45.7027 31.0588 45.7285 31.0073C45.7671 30.9815 45.8187 30.9557 45.8574 30.917C46.489 30.4401 46.8113 29.6151 46.85 28.4549V27.6428L46.6953 27.4108L46.7339 28.6612L46.5277 29.7955Z" fill="black"/>
<path d="M44.5684 23.3373L45.0582 24.0979L44.9938 24.0592L43.3696 23.9174L41.5391 24.2397L40.7915 24.5619L40.8946 24.8069L41.6036 24.4975L43.3825 24.1881L44.9293 24.317L46.2055 24.9358L46.9145 25.5545L46.9016 25.6576L46.7598 25.5803L45.2516 25.026L45.2258 25.0131C45.1614 25.0002 43.679 24.7811 43.3051 24.7811C42.9313 24.7811 41.5391 25.0002 41.4747 25.0131H41.4489L39.6184 26.199L39.7602 26.4182L41.552 25.258C41.7583 25.2323 42.9957 25.0389 43.318 25.0389C43.6532 25.0389 45.0325 25.2451 45.1872 25.258L46.5793 25.7608V27.1787L46.2313 26.6631L45.5094 25.8381L43.8336 25.6576H42.0547L40.6239 26.676L39.2704 28.21L38.7805 29.6408L38.8579 29.6924C38.9223 29.744 39.5411 30.2209 39.9793 30.2209C40.2243 30.2209 41.1782 30.3756 41.7969 30.4658C42.2997 30.5432 42.5059 30.5819 42.5575 30.5819C42.6993 30.5819 44.2461 30.1951 44.7102 30.0791L45.7543 29.6022L46.618 28.5838C46.5665 29.5764 46.27 30.2983 45.7415 30.6979C44.9809 31.278 43.9883 31.033 43.9883 31.033L43.9625 31.1619L43.9368 31.2908C44.1301 31.3295 44.3235 31.3553 44.5168 31.3553C44.8262 31.3553 45.1356 31.3037 45.4192 31.1877C45.1872 31.6647 44.8907 31.9741 44.5426 32.103C44.2461 32.2061 43.911 32.1803 43.6274 32.0385L43.4985 32.2705C43.7047 32.3737 43.9368 32.4252 44.1559 32.4252C44.3106 32.4252 44.4653 32.3994 44.62 32.3479C45.0067 32.2061 45.329 31.8967 45.5997 31.4069C46.0895 31.7162 46.4762 32.1803 46.6825 32.7217H46.7211C46.502 32.2963 46.2055 31.7291 46.1797 31.6905C45.9993 31.5229 45.8188 31.3682 45.6254 31.2264L45.5868 30.9944C45.5868 30.9944 46.0122 30.8139 46.0637 30.7752C46.1153 30.7365 46.5922 29.7955 46.5922 29.7955L46.7985 28.674L46.7598 27.4237L46.7083 25.7608L47.0434 25.8639L47.1336 25.5803L46.6954 25.0905C46.6954 25.0905 45.6254 24.4588 45.5094 24.433C45.3934 24.3944 45.0711 23.8916 45.0711 23.8916L44.4137 23.028L43.4083 22.1256H43.2665L43.2536 22.1385L44.5684 23.3373ZM46.5793 28.558L46.4762 27.9006L43.9497 26.8694L40.8946 26.7791L40.8817 27.0369L43.8852 27.1272L46.2313 28.0811L46.2958 28.4936L45.5352 29.3701L44.5813 29.8084C43.8336 29.9889 42.6219 30.2854 42.5059 30.2983C42.4543 30.2983 42.1192 30.2467 41.784 30.1951C41.075 30.0791 40.1985 29.9373 39.9278 29.9373C39.67 29.9373 39.2575 29.6795 39.0383 29.5248L39.4508 28.326L40.7399 26.8694L42.0934 25.9026H43.7692L45.3418 26.083L45.9864 26.8049L46.5922 27.7201V28.442C46.5793 28.4807 46.5793 28.5194 46.5793 28.558Z" fill="black"/>
<path d="M38.3422 41.1521L39.1672 41.0619H37.7106L38.3422 41.1521Z" fill="black"/>
<path d="M45.6769 41.1135C45.6382 41.1779 44.8906 42.3896 44.8906 42.3896L44.5554 42.5701L44.6328 42.6603L45.2257 42.1447L45.7929 41.1908V41.0619H45.6769C45.6898 41.0877 45.6898 41.1006 45.6769 41.1135Z" fill="black"/>
<path d="M45.677 41.1135C45.677 41.1006 45.6899 41.0748 45.6899 41.0619H45.5481V41.1135L45.0324 41.9642L44.4781 42.4541L44.5684 42.5572L44.5813 42.5701L44.9164 42.3896C44.9035 42.3896 45.6512 41.1908 45.677 41.1135Z" fill="black"/>
<path d="M46.9144 33.2115L47.0304 33.3791C47.0047 33.16 46.966 32.9408 46.8886 32.7217H46.6566C46.7984 32.9924 46.9144 33.2115 46.9144 33.2115Z" fill="black"/>
<path d="M47.7524 34.6552C47.7395 34.7197 47.5848 35.2353 47.5461 35.3127C47.5075 35.4029 46.2958 37.0658 46.2958 37.0658L46.5793 37.6459C46.5793 37.6459 46.6309 38.0584 46.5922 38.1228C46.5536 38.1873 45.4836 39.8502 45.4836 39.8502L45.6512 40.3142C45.6512 40.3142 45.6899 40.8943 45.677 41.0748H45.793V40.1853L45.6512 39.7986L45.7672 39.7084L46.5536 38.4967L46.7598 37.8392L46.4504 37.0787C46.4762 37.0529 46.4891 37.04 46.4891 37.04L47.4946 35.6607L47.8942 34.926L47.8813 34.8744C47.8297 34.6681 47.7782 34.449 47.7524 34.2299C47.7524 34.1783 47.7524 34.0365 47.0821 33.3275L47.0305 33.3791L47.4301 33.9463C47.4301 33.9463 47.7653 34.5908 47.7524 34.6552Z" fill="black"/>
<path d="M46.6567 32.7217H46.618C46.7727 33.1213 46.8242 33.5467 46.7727 33.9721L45.9219 35.4287L45.0453 36.4729C44.4524 36.6791 43.4856 37.0014 43.318 37.0014C43.0473 37.0014 40.5465 37.04 40.3789 37.0529C40.1856 37.04 37.1176 36.8725 36.718 36.8725C36.486 36.8725 35.3516 36.692 34.5266 36.5502C33.766 36.4213 33.4438 36.3697 33.3664 36.3697C33.1989 36.3568 30.8141 35.8799 29.2414 35.5576L26.0317 34.565L24.5621 34.2299L23.9305 34.6939L23.7242 35.4029L23.8789 36.1635L25.4645 37.2334L28.0555 38.7287L31.0074 39.9533H31.0203L34.1012 40.4561L36.009 40.817L37.6977 41.049H39.1672L41.784 40.7783L43.5887 40.817H43.6145L44.7875 40.4818L45.4449 39.9533L45.5481 40.2111V41.049H45.6899C45.7028 40.8686 45.6641 40.2885 45.6641 40.2885L45.4965 39.8244C45.4965 39.8244 46.5664 38.1615 46.6051 38.0971C46.6438 38.0326 46.5922 37.6201 46.5922 37.6201L46.3086 37.04C46.3086 37.04 47.5332 35.3771 47.559 35.2869C47.5977 35.1967 47.7395 34.6939 47.7653 34.6295C47.7781 34.565 47.443 33.9205 47.443 33.9205L47.0434 33.3533L46.9274 33.1857C46.9145 33.2115 46.7985 32.9924 46.6567 32.7217ZM47.0305 34.0365C47.0434 33.9205 47.0563 33.8045 47.0563 33.6885C47.2239 33.8561 47.3657 34.0494 47.4946 34.2557C47.5203 34.4748 47.559 34.6939 47.6235 34.9002L47.2883 35.5318L46.3086 36.8725C46.2828 36.8982 46.2055 36.9627 46.1153 37.0529C45.3547 37.749 45.0067 38.0197 44.9293 38.0584L43.8594 38.3291L40.8043 38.458L37.6074 38.2775L34.4106 37.6975H34.3977L31.8196 37.749L29.177 37.0787L26.8438 36.2666L25.5934 35.5061L25.4516 35.7252L26.7149 36.4986L29.0867 37.3236L31.768 38.0068H31.7809L34.359 37.9553L37.5559 38.5354L40.7785 38.7158H40.7914L43.8723 38.574L44.9809 38.3033C45.0324 38.2904 45.1614 38.2518 46.2442 37.2721L46.4891 37.865L46.3215 38.3936L45.5739 39.5408L44.6586 40.2756L43.5758 40.585L41.784 40.5463H41.7711L38.3422 40.9072L36.0606 40.5979L34.1528 40.2369L31.0977 39.7471L28.1844 38.5354L25.6192 37.0529L24.1239 36.0475L24.0078 35.4545L24.1625 34.9002L24.6266 34.5522L25.9672 34.8486L29.177 35.8412H29.1899C29.8602 35.983 33.186 36.6533 33.3793 36.6533C33.4438 36.6533 33.9852 36.7436 34.5008 36.8209C35.4289 36.9756 36.4731 37.1432 36.7309 37.1432C37.1305 37.1432 40.3531 37.3236 40.3918 37.3236C40.4176 37.3236 43.0602 37.2721 43.3309 37.2721C43.6145 37.2721 44.9293 36.808 45.1871 36.7178L45.2258 36.7049L46.1539 35.5963L47.0434 34.0623L47.0305 34.0365Z" fill="black"/>
<path d="M24.9746 33.7401C25.2711 33.6756 25.5804 33.6756 25.8769 33.7401L25.9414 33.4823C25.8769 33.4694 24.3043 33.0698 22.8734 34.7455L23.0668 34.9131C23.7629 34.101 24.4847 33.8303 24.9746 33.7401Z" fill="black"/>
<path d="M24.5621 32.7216L25.4387 32.5154L25.3871 32.2576L24.0723 32.5669L24.1109 32.7216H24.5621Z" fill="black"/>
<path d="M24.1367 32.8248L24.5621 32.7217H24.111L24.1367 32.8248Z" fill="black"/>
<path d="M40.1598 31.5615C40.6754 31.8967 41.1524 32.2834 41.5778 32.7217H41.9387C41.5778 32.3092 41.1782 31.9482 40.7399 31.626L41.7583 31.742L42.6348 31.5615L42.5833 31.3037L41.7454 31.4842L40.2758 31.3166C40.0438 31.1619 39.7989 31.033 39.5411 30.917L39.425 31.149L40.1598 31.5615Z" fill="black"/>
<path d="M42.3899 33.8045L42.6219 33.6756C42.4285 33.3404 42.1965 33.0182 41.9387 32.7217H41.5778C41.8871 33.0568 42.1578 33.4178 42.3899 33.8045Z" fill="black"/>
<path d="M25.8125 27.0627L26.2637 27.3205L26.2895 27.4881L26.4829 27.4494L27.9137 28.2873H27.9266C28.352 28.4936 28.8547 28.7514 28.9192 28.8287C29.0094 28.9576 30.002 29.5119 30.8141 29.9631L30.827 29.976H30.8399C31.4973 30.1178 32.7864 30.4014 32.9926 30.4658C33.1473 30.5174 33.6243 30.5303 34.0497 30.5303C34.4235 30.5303 34.7715 30.5174 34.836 30.5174L36.3829 30.3369L37.5043 29.9244L37.4915 29.8858L37.8266 30.1049V30.4272L37.3497 30.8655L36.2668 31.3166L36.0735 31.4842L36.0864 31.394C35.5965 31.3553 35.0165 31.278 34.9262 31.2393C34.8618 31.2006 34.7586 31.1233 32.3223 31.1233C31.8583 31.1233 30.6981 30.8655 30.5563 30.8139C30.4274 30.7752 29.4219 30.4658 29.2286 30.4143C29.061 30.2467 28.0426 29.3057 27.2305 28.8287L27.1016 29.0608C27.9395 29.5506 29.061 30.6076 29.061 30.6205L29.0868 30.6463L29.1125 30.6592C29.1254 30.6592 30.3372 31.0201 30.4661 31.0588C30.6208 31.1104 31.8067 31.3811 32.3223 31.3811C34.3461 31.3811 34.72 31.4326 34.7973 31.4584C34.9391 31.5358 35.4805 31.6002 35.893 31.6389L35.7512 31.7549L35.1583 32.7217H35.4676L35.9575 31.9225L36.4215 31.5358L37.5043 31.0846L38.1102 30.5303V29.9502L37.4528 29.5248L37.0016 28.1069L36.0219 26.8049L35.0036 26.199L32.5415 24.9229L30.6465 24.7424L28.4036 24.9744L26.6762 25.6319L25.7223 26.8178L25.1422 27.1272L24.9102 26.9209L25.0262 26.2248L26.1219 25.1678L27.0887 24.3815L28.4422 24.1237L29.9633 24.085H31.5875L32.9153 24.1237L34.2946 24.8842C34.8875 25.1936 35.5708 25.5803 35.6352 25.6834C35.7254 25.8639 36.7309 26.8178 37.0532 27.1143L37.9684 28.3002L38.0973 29.2541L38.3551 29.2155L38.2133 28.1842L37.2465 26.9338L37.2336 26.9209C36.602 26.3408 35.9188 25.6705 35.8543 25.5545C35.7641 25.3612 34.9004 24.8971 34.3977 24.6393L33.4567 24.1237L35.6094 24.1623L36.3829 24.6393L37.4012 25.5674L37.9555 26.2635L38.2262 27.7201L38.484 27.6686L38.2004 26.1475L37.5946 25.3998L36.5375 24.433L35.6739 23.9045L32.9282 23.853L31.5747 23.8014H29.9375L28.4036 23.853L26.9469 24.1365L25.9286 24.9744L24.7555 26.0959L24.6008 27.024L25.0907 27.4494L25.8125 27.0627ZM35.8672 27.0112L36.7825 28.2358L37.2465 29.7053L37.2981 29.7311L36.3829 30.0791L34.8618 30.2596C34.2817 30.2725 33.2891 30.2854 33.1086 30.2209C32.8508 30.1307 31.1493 29.7698 30.943 29.7182C30.1309 29.2799 29.2415 28.7772 29.1512 28.674C29.0481 28.5323 28.4293 28.2229 28.0684 28.0424L26.9083 27.3592L27.759 27.2045C28.2875 27.1401 29.6797 26.9854 29.8602 26.9854C29.9375 26.9854 30.2211 27.0112 30.5176 27.0369C31.3942 27.1143 31.8067 27.1401 31.9227 27.1143C32.0516 27.0885 33.2762 26.9596 34.0754 26.8951L35.3387 26.8049L35.3258 26.676L35.8672 27.0112ZM26.8438 25.851L28.468 25.2322L30.6594 25.0131L32.477 25.1936L34.8875 26.444L35.1067 26.5729L34.0368 26.6502C33.8305 26.6631 32.0258 26.8307 31.8454 26.8823C31.7293 26.908 30.9817 26.8307 30.5176 26.792C30.1825 26.7662 29.9247 26.7405 29.8344 26.7405C29.6024 26.7405 27.7719 26.9596 27.6946 26.9725L26.5344 27.1916L26.0059 26.8823L26.8438 25.851Z" fill="black"/>
<path d="M35.0422 32.915C34.7457 33.0826 34.4492 33.2115 34.1399 33.3404C33.9981 33.3404 33.1989 33.7142 32.5543 34.0236C32.4383 34.0623 31.3813 34.3845 31.1364 34.4232L31.175 34.681C31.4457 34.6294 32.593 34.2814 32.6446 34.2685L32.6574 34.2556C33.302 33.9462 34.0367 33.6111 34.1399 33.5853C34.2946 33.5724 34.8617 33.2888 35.184 33.1212L35.2098 33.1084L35.4547 32.7087H35.1453L35.0422 32.915Z" fill="black"/>
<path d="M36.2796 22.3577L36.1121 22.4737C36.1894 22.4608 36.2668 22.4608 36.3441 22.4479L36.2796 22.3577Z" fill="black"/>
<path d="M36.8856 23.6853L37.2208 24.2654L37.0532 24.8455L37.311 24.9228L37.5043 24.2396L37.1176 23.5564L36.3571 22.4607C36.2797 22.4736 36.2024 22.4736 36.125 22.4865L36.0735 22.5251L36.8856 23.6853Z" fill="black"/>
<path d="M44.7746 23.376L45.9218 23.26C45.9218 23.26 48.7835 24.1108 48.8996 24.2268C49.0156 24.3428 50.4593 24.9744 50.4593 24.9744L51.3101 25.0518L51.4261 24.2783L50.7945 23.376L48.9769 22.0354L46.9015 21.0299L45.5996 20.5787L45.1355 14.0045L44.0398 12.3674L42.4027 11.0268L40.2886 9.98264L38.0972 9.94397L33.9722 10.4596L30.1824 11.2073L29.9632 10.5627C29.6667 10.4854 29.3703 10.4338 29.0738 10.3951C28.8546 10.3951 26.8437 11.0139 26.8437 11.0139L25.6191 11.6584L25.3613 12.4061L23.6082 13.3729L22.1902 15.1518L21.3781 16.8662C21.3781 16.8662 20.9656 18.5807 20.9656 18.6838C20.9656 18.7869 21.1847 19.728 21.3394 19.7924C21.4941 19.8569 22.6414 20.1662 22.6414 20.1662L24.1496 20.9139L26.3281 22.1772L29.0351 23.0666C29.0351 23.0666 31.6003 22.8862 31.8582 22.8862C32.116 22.8862 35.9832 22.4737 36.2023 22.4737C36.4214 22.4737 40.6625 22.1385 40.7785 22.1385C40.8945 22.1385 43.421 22.0998 43.421 22.0998L44.4265 22.9893L44.7746 23.376Z" fill="#C82727"/>
<path d="M43.7691 27.024L44.1043 27.733L44.3105 28.5451L44.2074 29.0607L43.7691 30.1822L42.377 30.4142L40.134 30.0146L39.8633 29.2283L39.9664 28.5193L40.1984 27.3978L40.7785 26.7533L41.1523 26.9595L43.6273 27.024" fill="black"/>
<path d="M33.5598 26.9209L33.9723 27.7072L34.011 28.6611L33.8047 29.5119L33.3665 30.1951L32.6575 30.2338L29.9375 29.4217L28.8547 28.4677L28.9965 27.8619L29.3704 27.2818L29.8731 26.8822L31.7809 26.9338C31.7551 26.9209 33.4825 27.0627 33.5598 26.9209Z" fill="black"/>
<path d="M51.0781 23.4791L50.021 22.551L48.5 21.5326L45.9992 20.6174L45.6511 20.4756L45.548 18.3229C45.4191 17.2658 45.2386 15.6674 45.2386 15.5385C45.2386 15.358 45.1484 14.0432 45.1484 13.9916V13.9658L44.4007 12.6123L43.1503 11.3232L41.2296 10.2275L39.6312 9.77637H37.4398L35.2871 10.0471C34.4234 10.1889 33.0699 10.408 32.9152 10.408C32.6832 10.408 30.8785 10.8205 30.6722 10.8592L30.0406 11.0268L30.1437 10.9752L29.9375 10.5627L29.2671 10.3049L28.2875 10.3951L26.7148 10.7818L25.5289 11.5424L25.2839 12.174L25.4515 12.2385L24.7941 12.4061H24.7683L23.3761 13.2826L22.4093 14.3783L21.5328 15.8479L20.8367 18.2455V19.1092L21.2878 19.9084L24.1109 20.9139L25.0519 21.7646L27.1531 22.7186L29.0093 23.1826L32.4769 22.9506L37.4914 22.4092L41.0621 22.1385L44.0269 22.1771L47.1593 22.6283L49.6343 23.8014L49.7503 23.5693L47.2496 22.3834L44.0656 21.9322L41.0621 21.8807L37.4785 22.1514L32.464 22.6928L29.048 22.9119L27.2691 22.4736L25.2195 21.5326L24.2656 20.6689L21.4812 19.6764L21.1203 19.0318V18.2713L21.7906 15.951L22.6414 14.533L23.5695 13.476L24.8972 12.6381L30.7496 11.1041C31.5101 10.9365 32.7863 10.6529 32.941 10.6529C33.173 10.6529 35.1324 10.3307 35.3515 10.292L37.4656 10.0213H39.6054L41.1136 10.4596L42.9828 11.5295L44.1816 12.767L44.8777 14.0432C44.9035 14.5201 44.9679 15.4096 44.9679 15.5385C44.9679 15.7189 45.2515 18.0908 45.2902 18.3486L45.3933 20.3725L43.8722 19.7924L40.8687 19.4701L38.6 19.2381L36.3699 19.4186L33.7917 19.6893L30.7882 20.3725L28.5324 20.9139L27.0242 21.0041L25.0906 20.6174L26.0703 21.3264L26.8695 21.7904L28.7 22.2416L30.4917 22.2932H30.5046L32.1031 22.1127L34.3589 21.7518L36.5632 21.3908L39.0382 21.2104L40.7527 21.1201L42.8152 21.249L45.6125 21.61L49.2218 22.2932L49.8535 22.7057L50.8589 23.5822L51.1425 24.2396L51.0781 24.7295L50.5367 24.7682L49.4796 24.2783L47.5332 23.5049L45.9992 23.0408L44.6585 23.1826L44.6843 23.4404L45.9734 23.3115L47.43 23.7498L49.3636 24.5104L50.4851 25.026L51.2972 24.9744L51.4132 24.201L51.0781 23.4791ZM25.5546 12.1998L25.748 11.71L26.8179 11.0268L28.3261 10.6658L29.2414 10.5756L29.757 10.7689L29.8988 11.0525L25.5546 12.1998ZM45.6511 21.4037L42.8281 21.0428L40.7398 20.901L39.0125 20.9912L36.5246 21.1717L34.2945 21.5326L32.0386 21.8936L30.466 22.074L28.7257 22.0354L26.9468 21.5971L26.1992 21.1588H26.1863L26.9726 21.3135L28.5324 21.2232L30.814 20.6818L33.7917 20.0115L36.357 19.7408L38.5613 19.5604L40.8042 19.7795L43.7691 20.0889L45.8832 20.901L48.3582 21.8033L48.6418 21.9967L45.6511 21.4037Z" fill="black"/>
<path d="M32.7102 29.0578C33.1401 28.9299 33.4014 28.5331 33.2938 28.1714C33.1863 27.8097 32.7505 27.6202 32.3206 27.7481C31.8907 27.876 31.6294 28.2728 31.737 28.6345C31.8446 28.9961 32.2803 29.1857 32.7102 29.0578Z" fill="white"/>
<path d="M30.6079 28.9834C30.793 28.9834 30.943 28.8334 30.943 28.6483C30.943 28.4632 30.793 28.3131 30.6079 28.3131C30.4228 28.3131 30.2727 28.4632 30.2727 28.6483C30.2727 28.8334 30.4228 28.9834 30.6079 28.9834Z" fill="white"/>
<path d="M30.4016 27.9392C30.5867 27.9392 30.7367 27.7892 30.7367 27.6041C30.7367 27.419 30.5867 27.2689 30.4016 27.2689C30.2165 27.2689 30.0664 27.419 30.0664 27.6041C30.0664 27.7892 30.2165 27.9392 30.4016 27.9392Z" fill="white"/>
<path d="M41.3199 29.4088C41.4907 29.4088 41.6293 29.2703 41.6293 29.0994C41.6293 28.9286 41.4907 28.79 41.3199 28.79C41.149 28.79 41.0105 28.9286 41.0105 29.0994C41.0105 29.2703 41.149 29.4088 41.3199 29.4088Z" fill="white"/>
<path d="M41.2812 28.2357C41.4663 28.2357 41.6164 28.0857 41.6164 27.9006C41.6164 27.7155 41.4663 27.5654 41.2812 27.5654C41.0961 27.5654 40.946 27.7155 40.946 27.9006C40.946 28.0857 41.0961 28.2357 41.2812 28.2357Z" fill="white"/>
<path d="M43.1247 29.1896C43.4593 29.1896 43.7305 28.9184 43.7305 28.5838C43.7305 28.2492 43.4593 27.9779 43.1247 27.9779C42.79 27.9779 42.5188 28.2492 42.5188 28.5838C42.5188 28.9184 42.79 29.1896 43.1247 29.1896Z" fill="white"/>
</g>
</g>
<rect x="0.5" y="0.803711" width="63" height="63" rx="31.5" stroke="#070B14" stroke-opacity="0.15"/>
<defs>
<clipPath id="clip0_25101_77700">
<rect y="0.303711" width="64" height="64" rx="32" fill="white"/>
</clipPath>
<clipPath id="clip1_25101_77700">
<rect width="66" height="66" fill="white" transform="translate(-1 -1.69629)"/>
</clipPath>
</defs>
</svg>
