<svg xmlns="http://www.w3.org/2000/svg" width="40" height="40" fill="none" viewBox="0 0 40 40"><g clip-path="url(#pepon_svg-a)"><path fill="#D4DAE8" d="M20 0c11.046 0 20 8.954 20 20s-8.954 20-20 20S0 31.046 0 20 8.954 0 20 0"/><path fill="#28458E" d="M26 6a8 8 0 0 1 8 8v12a8 8 0 0 1-8 8H14a8 8 0 0 1-8-8V14a8 8 0 0 1 8-8z"/><g clip-path="url(#pepon_svg-b)"><path fill="#fff" d="M19.635 10c1.35 0 2.361.558 2.361 1.61 0 .325-.092.664-.262 1.005.796.3 1.548.688 2.247 1.146.239-.465.369-.924.369-1.358 0-1.365-1.148-1.899-1.461-1.998l.019-.06c1.007.172 2.458 1.006 2.458 2.538 0 .532-.14 1.07-.396 1.6a12.7 12.7 0 0 1 2.075 2.127c.395-.712.615-1.435.615-2.141 0-.676-.184-1.098-.288-1.285l.054-.046c.137.104.96.79.96 2.087 0 .807-.232 1.612-.646 2.388.514.827.911 1.69 1.172 2.55.493-.902.77-1.868.756-2.878l.074-.018c.029.094.178.517.178 1.18 0 .967-.271 1.906-.752 2.791q.106.622.106 1.223c-.006.966-.082 1.564-.218 1.999l-.107-.028a10 10 0 0 0-.21-2.499c-.595.865-1.39 1.666-2.322 2.378q.358 1.152.57 2.348a10.3 10.3 0 0 0 1.577-1.53l.086.058C27.452 27.265 24.477 30 20.075 30c-1.946 0-3.221-.535-3.597-.674l.026-.082a12.1 12.1 0 0 0 3.766.177c-1.045-.384-2.013-1.016-2.857-1.856a14 14 0 0 1-.604.014c-3.14 0-4.779-1.525-5.125-2.144l.056-.042c.869.76 2.58 1.337 4.576 1.337q.172 0 .347-.006a11 11 0 0 1-1.568-2.73c-3.49-.076-5.081-1.836-5.01-3.403h.066c.143.832 1.33 2.32 4.527 2.32h.036a14.2 14.2 0 0 1-.553-2.95c-2.319-.136-3.573-1.364-3.573-2.681 0-.754.375-1.49.469-1.652l.068.027c-.025.084-.117.375-.117.817 0 1.381 1.197 2.334 3.101 2.356l-.001-.17c0-.947.11-1.78.274-2.494-1.344-.108-1.996-.776-1.996-1.555 0-2.2 3.913-4.609 7.25-4.609m2.308 16.675a16.5 16.5 0 0 1-3.74.832c.807.803 1.722 1.433 2.715 1.826a13 13 0 0 0 2.71-.749 16.4 16.4 0 0 1-1.685-1.91m3.977-2a16.2 16.2 0 0 1-3.391 1.785c.488.722.99 1.383 1.495 1.96.976-.42 1.86-.94 2.624-1.502a24 24 0 0 0-.728-2.243m-6.127-1.378c-1.298.396-2.644.64-3.963.69a12 12 0 0 0 1.623 2.686c1.233-.118 2.555-.419 3.857-.873a27 27 0 0 1-1.517-2.503m4.512-2.128a17 17 0 0 1-3.779 1.887c.453.874.929 1.719 1.421 2.508a17.8 17.8 0 0 0 3.579-1.872 29 29 0 0 0-1.221-2.523m3.012-2.864c-.596.866-1.414 1.684-2.384 2.416.428.823.813 1.685 1.14 2.576.952-.72 1.774-1.531 2.392-2.415a12.5 12.5 0 0 0-1.148-2.577m-9.26 1.142c-1.092.321-2.218.51-3.31.526.111 1.002.334 1.985.653 2.918a15.6 15.6 0 0 0 3.818-.721 31 31 0 0 1-1.161-2.723m3.978-1.858a14.4 14.4 0 0 1-3.275 1.632c.368.901.77 1.808 1.197 2.697a17.4 17.4 0 0 0 3.703-1.877 32 32 0 0 0-1.625-2.452m2.613-2.535c-.477.74-1.167 1.452-2 2.094a24 24 0 0 1 1.653 2.436c.953-.718 1.754-1.508 2.335-2.326a13.5 13.5 0 0 0-1.988-2.204m-7.64.831a8.8 8.8 0 0 1-2.16.294 14.3 14.3 0 0 0-.18 2.638 12.2 12.2 0 0 0 2.986-.53 24 24 0 0 1-.646-2.402m2.661-1.161a9.3 9.3 0 0 1-2.17 1.018c.236.751.507 1.533.808 2.328 1.08-.391 2.085-.91 2.954-1.498a30 30 0 0 0-1.592-1.848m1.845-1.728c-.327.492-.805.978-1.393 1.415a19 19 0 0 1 1.714 1.748c.773-.594 1.405-1.24 1.843-1.888a12.5 12.5 0 0 0-2.165-1.275m-2.519-2.684c-2.537 0-5.81 2.025-5.81 3.734 0 .686.504 1.133 1.445 1.228.418-1.268.953-2.017 1.084-2.215l.078.031c-.108.231-.479.988-.766 2.203.595 0 1.215-.1 1.82-.273a13 13 0 0 1-.176-1.958l.099-.03c.125.582.285 1.208.474 1.863a8.5 8.5 0 0 0 1.772-.845q-.772-.766-1.516-1.376l.074-.052a10.5 10.5 0 0 1 1.816 1.174c.504-.364.92-.768 1.198-1.18-.812-.292-1.665-.5-2.55-.604l.011-.075c.944 0 1.855.13 2.723.366.126-.255.196-.509.196-.755 0-.394-.317-1.236-1.972-1.236"/></g></g><defs><clipPath id="pepon_svg-a"><path fill="#fff" d="M0 0h40v40H0z"/></clipPath><clipPath id="pepon_svg-b"><path fill="#fff" d="M10 10h20v20H10z"/></clipPath></defs></svg>