<svg xmlns="http://www.w3.org/2000/svg" width="64" height="65" fill="none" viewBox="0 0 64 65"><g clip-path="url(#perp_svg-a)"><path fill="#fff" d="M64 32.253c0 17.673-14.327 32-32 32s-32-14.327-32-32 14.327-32 32-32 32 14.327 32 32"/><path fill="#3CEAAA" fill-rule="evenodd" d="M23.115 15.02a6.05 6.05 0 0 1 8.47 0l5.57 5.456a6.05 6.05 0 0 1 0 8.646l-9.708 9.51 6.962 6.82a3.362 3.362 0 1 1-4.705 4.803L12.838 33.733a6.05 6.05 0 0 1 0-8.646zm-.472 18.905 9.316-9.126-4.61-4.515-9.315 9.126z" clip-rule="evenodd"/><path fill="#03BCE4" fill-rule="evenodd" d="M37.122 19.63a6.05 6.05 0 0 1 8.47 0l5.57 5.457a6.05 6.05 0 0 1 0 8.646L34.296 50.255a3.362 3.362 0 1 1-4.705-4.804l6.962-6.82-5-4.898a6.05 6.05 0 0 1 0-8.646zm4.235 14.295 4.61-4.515-4.61-4.515-4.61 4.515z" clip-rule="evenodd"/><path fill="#00A4E1" d="m36.745 29.421-4.896-4.65-4.696 4.612 4.78 4.756z" opacity=".95"/></g><defs><clipPath id="perp_svg-a"><path fill="#fff" d="M0 .253h64v64H0z"/></clipPath></defs></svg>