<svg width="64" height="65" viewBox="0 0 64 65" fill="none" xmlns="http://www.w3.org/2000/svg"><g clip-path="url(#clip0)"><path d="M64 32.253c0 17.673-14.327 32-32 32-17.673 0-32-14.327-32-32 0-17.673 14.327-32 32-32 17.673 0 32 14.327 32 32z" fill="#fff"/><path fill-rule="evenodd" clip-rule="evenodd" d="M23.115 15.02a6.052 6.052 0 018.47 0l5.57 5.456a6.052 6.052 0 010 8.646l-9.708 9.51 6.962 6.82a3.362 3.362 0 11-4.705 4.803L12.838 33.733a6.052 6.052 0 010-8.646l10.277-10.068zm-.472 18.905l9.316-9.126-4.61-4.515-9.315 9.126 4.609 4.515z" fill="#3CEAAA"/><path fill-rule="evenodd" clip-rule="evenodd" d="M37.122 19.63a6.052 6.052 0 018.47 0l5.57 5.457a6.052 6.052 0 010 8.646L34.296 50.255a3.362 3.362 0 11-4.705-4.804l6.962-6.82-5-4.898a6.052 6.052 0 010-8.646l5.57-5.457zm4.235 14.295l4.61-4.515-4.61-4.515-4.61 4.515 4.61 4.515z" fill="#03BCE4"/><path opacity=".95" d="M36.745 29.421l-4.896-4.65-4.696 4.612 4.78 4.756 4.812-4.718z" fill="#00A4E1"/></g><defs><clipPath id="clip0"><path fill="#fff" transform="translate(0 .253)" d="M0 0h64v64H0z"/></clipPath></defs></svg>