<svg xmlns="http://www.w3.org/2000/svg" width="40" height="40" fill="none" viewBox="0 0 40 40"><g clip-path="url(#pgon_svg-a)"><path fill="#CCD8ED" d="M20 0c11.046 0 20 8.954 20 20s-8.954 20-20 20S0 31.046 0 20 8.954 0 20 0"/><path fill="#003DA5" d="M26 6a8 8 0 0 1 8 8v12a8 8 0 0 1-8 8H14a8 8 0 0 1-8-8V14a8 8 0 0 1 8-8z"/><path fill="#fff" d="M17.508 25.217c-.82-.044-1.43-.38-1.788-.985-.24-.406-.312-.94-.203-1.485.122-.605.535-1.15 1.168-1.54.364-.226.675-.366 1.31-.589a4 4 0 0 0 .306-.115c.013-.01.014-.046.008-.162a4.7 4.7 0 0 1 .13-1.215c.157-.625.459-1.129.86-1.434a2.5 2.5 0 0 1 1.039-.456c.207-.039.554-.039.75 0 .835.169 1.304.813 1.119 1.538a1.9 1.9 0 0 1-.266.543c-.266.355-.667.671-1.233.972-.071.038-.305.153-.518.255a8 8 0 0 0-.403.2c-.012.013-.01.047.014.164.106.54.285.995.59 1.504.12.203.288.459.308.47.027.018.14-.164.213-.345.091-.223.143-.518.118-.665a.56.56 0 0 0-.15-.287.4.4 0 0 1-.06-.07c0-.005.283-.008.63-.006l.633.003-.004.08c-.005.11-.045.344-.088.51-.12.468-.349.867-.742 1.304a.5.5 0 0 0-.085.113c0 .01.065.082.145.159.498.482 1.38 1.038 2.097 1.323.07.028.127.056.126.063 0 .008-.414.013-1.21.015l-1.211.003-.069-.038c-.14-.08-.452-.331-.751-.608a.7.7 0 0 0-.134-.106 1 1 0 0 0-.156.091 5.7 5.7 0 0 1-1.246.618 3.2 3.2 0 0 1-1.247.178m1.019-1.048c.181-.033.404-.099.608-.18.206-.082.461-.208.47-.232a.8.8 0 0 0-.104-.175 7.8 7.8 0 0 1-.785-1.472 9 9 0 0 1-.24-.713c-.008-.036-.024-.069-.034-.073-.028-.01-.26.113-.46.245-.71.47-1.05 1.046-.974 1.646.033.267.118.462.272.626.284.303.728.42 1.247.328m1.205-4.176c.263-.154.68-.527.913-.818.299-.372.457-.718.457-1 0-.16-.022-.232-.097-.307-.074-.074-.157-.104-.285-.104-.378 0-.788.449-.966 1.06-.09.308-.112.474-.112.85 0 .288.004.352.025.352a.4.4 0 0 0 .065-.033m6.26 5.217c-.624-.063-1.035-.156-1.498-.34-.631-.25-1.025-.56-1.358-1.067a4 4 0 0 1-.324-.647c-.289-.785-.352-1.774-.18-2.806.174-1.044.57-2.05 1.118-2.836a6.7 6.7 0 0 1 1.428-1.453 6.45 6.45 0 0 1 3.088-1.226c.349-.044.545-.055.957-.055a8 8 0 0 1 1.727.173c.4.08 1.038.251 1.05.283.006.016-.398 1.311-.415 1.329a.5.5 0 0 1-.137-.093c-.568-.452-1.156-.728-1.75-.82a3 3 0 0 0-.734 0c-.834.13-1.607.662-2.293 1.58a8 8 0 0 0-.66 1.074 9 9 0 0 0-.616 1.56c-.574 1.913-.603 3.25-.087 3.974.213.298.523.488.918.56.226.042.775.017.83-.037.009-.01.277-.848.596-1.865.524-1.67.58-1.86.587-1.954a.65.65 0 0 0-.073-.35.9.9 0 0 0-.303-.297.4.4 0 0 1-.089-.059c0-.005.88-.01 1.955-.01s1.954.005 1.954.01a.5.5 0 0 1-.106.058q-.458.21-.656.62c-.028.06-.274.824-.644 2l-.598 1.905-.172.082a8 8 0 0 1-2.424.685c-.158.02-.959.035-1.09.022M8 25.07c-.003-.005.023-.027.058-.048a1.55 1.55 0 0 0 .552-.587c.03-.061 2.71-8.6 2.77-8.821a1 1 0 0 0 .019-.182.56.56 0 0 0-.193-.449.4.4 0 0 1-.068-.075c0-.017 4.682-.016 4.897.001.465.037.93.16 1.286.342.608.309.971.778 1.083 1.396.032.172.038.555.012.74a4.55 4.55 0 0 1-.913 2.136c-.754.939-1.989 1.54-3.504 1.704a9 9 0 0 1-1.514.033 2 2 0 0 0-.23-.011c-.016.015-.982 3.117-.993 3.186a.61.61 0 0 0 .265.579c.037.025.065.05.06.057-.009.015-3.577.015-3.587 0m5.315-4.606a2.34 2.34 0 0 0 .962-.403 3.5 3.5 0 0 0 .568-.567c.309-.416.536-.906.719-1.552.116-.412.166-.725.166-1.048 0-.25-.023-.398-.085-.565a.93.93 0 0 0-.523-.54c-.207-.084-.383-.106-.808-.101l-.32.003-.743 2.368a177 177 0 0 0-.739 2.382c.003.008.055.02.114.029l.128.019c.046.011.46-.007.56-.025"/></g><defs><clipPath id="pgon_svg-a"><path fill="#fff" d="M0 0h40v40H0z"/></clipPath></defs></svg>