<?xml version="1.0" encoding="UTF-8"?>
<svg version="1.1" xmlns="http://www.w3.org/2000/svg" width="64" height="64">
<path d="M0 0 C0.62132812 0.391875 1.24265625 0.78375 1.8828125 1.1875 C2.50414062 1.538125 3.12546875 1.88875 3.765625 2.25 C10.62646489 6.5268872 14.82186485 13.48012042 16.8828125 21.1875 C17.87716863 32.24104028 17.21330548 41.82817539 10.2578125 50.9375 C4.64951965 56.97499893 -2.50605931 60.88009145 -10.69140625 61.42578125 C-18.66150733 61.6397242 -25.17355801 61.56688458 -32.1171875 57.1875 C-33.04917969 56.6615625 -33.04917969 56.6615625 -34 56.125 C-40.85959369 51.84888965 -45.05883772 44.8945631 -47.1171875 37.1875 C-48.13414324 25.77631061 -47.25186818 16.99488191 -39.8046875 7.9375 C-29.74713295 -2.85073159 -13.62723426 -7.46129937 0 0 Z " fill="#0209B9" transform="translate(47.1171875,2.8125)"/>
<path d="M0 0 C0 1.98 0 3.96 0 6 C-1.98 6.33 -3.96 6.66 -6 7 C-5.34 7.66 -4.68 8.32 -4 9 C-4 10.32 -4 11.64 -4 13 C-0.535 12.505 -0.535 12.505 3 12 C3 14.97 3 17.94 3 21 C0.69 21.66 -1.62 22.32 -4 23 C-3.67 23.5775 -3.34 24.155 -3 24.75 C-2 27 -2 27 -2 31 C1.96 30.505 1.96 30.505 6 30 C6 33.96 6 37.92 6 42 C1.8911999 43.58471379 -2.23269518 45.11611405 -6.37792969 46.60205078 C-7.78352307 47.11402831 -9.18412458 47.63994162 -10.57910156 48.18017578 C-22.09014081 52.62202474 -22.09014081 52.62202474 -26.68359375 51.12597656 C-30.427847 48.48367126 -32.92827996 45.55481016 -34 41 C-30.93889304 40.01644151 -27.8758844 39.03893981 -24.8125 38.0625 C-23.51602539 37.64581055 -23.51602539 37.64581055 -22.19335938 37.22070312 C-21.35224609 36.95322266 -20.51113281 36.68574219 -19.64453125 36.41015625 C-18.48981323 36.04096069 -18.48981323 36.04096069 -17.31176758 35.66430664 C-14.89173463 34.968889 -12.47441045 34.46120102 -10 34 C-12.7819368 30.72713318 -16.27954067 29.03572303 -20 27 C-20 24.03 -20 21.06 -20 18 C-19.37351562 17.79503906 -18.74703125 17.59007813 -18.1015625 17.37890625 C-17.28429687 17.10949219 -16.46703125 16.84007813 -15.625 16.5625 C-14.81289063 16.29566406 -14.00078125 16.02882813 -13.1640625 15.75390625 C-10.98968201 15.04820271 -10.98968201 15.04820271 -9 14 C-11.64 12.68 -14.28 11.36 -17 10 C-17 8.02 -17 6.04 -17 4 C-14.5424552 3.33030409 -12.08405076 2.6641232 -9.625 2 C-8.92632813 1.80921875 -8.22765625 1.6184375 -7.5078125 1.421875 C-2.2265625 0 -2.2265625 0 0 0 Z " fill="#F4F4FC" transform="translate(40,9)"/>
<path d="M0 0 C0 3.96 0 7.92 0 12 C-4.1088001 13.58471379 -8.23269518 15.11611405 -12.37792969 16.60205078 C-13.78352307 17.11402831 -15.18412458 17.63994162 -16.57910156 18.18017578 C-28.09014081 22.62202474 -28.09014081 22.62202474 -32.68359375 21.12597656 C-36.427847 18.48367126 -38.92827996 15.55481016 -40 11 C-30.20575683 7.80837093 -20.40212398 4.74483886 -10.4375 2.125 C-9.6230542 1.91012939 -8.8086084 1.69525879 -7.96948242 1.47387695 C-2.26939572 0 -2.26939572 0 0 0 Z " fill="#FAFAFD" transform="translate(46,39)"/>
<path d="M0 0 C0 1.98 0 3.96 0 6 C-2.97 6.66 -5.94 7.32 -9 8 C-9.33 9.32 -9.66 10.64 -10 12 C-14.75 11.125 -14.75 11.125 -17 10 C-17 8.02 -17 6.04 -17 4 C-14.5424552 3.33030409 -12.08405076 2.6641232 -9.625 2 C-8.57699219 1.71382812 -8.57699219 1.71382812 -7.5078125 1.421875 C-2.2265625 0 -2.2265625 0 0 0 Z " fill="#F4F4FC" transform="translate(40,9)"/>
<path d="M0 0 C2.4375 0.25 2.4375 0.25 5 1 C7 4 7 4 7 8 C7.66 8.33 8.32 8.66 9 9 C5.52674819 10.1577506 2.63932552 10.06866652 -1 10 C-2.54578627 6.90842747 -1.60277633 4.31526981 -1 1 C-0.67 0.67 -0.34 0.34 0 0 Z " fill="#9396E1" transform="translate(31,32)"/>
<path d="M0 0 C2.475 0.99 2.475 0.99 5 2 C5 3.32 5 4.64 5 6 C5.66 6.33 6.32 6.66 7 7 C4.1875 7.6875 4.1875 7.6875 1 8 C-0.875 6.5625 -0.875 6.5625 -2 5 C-1.34 3.35 -0.68 1.7 0 0 Z " fill="#9EA0E4" transform="translate(31,16)"/>
<path d="M0 0 C1.98 0.99 1.98 0.99 4 2 C4.625 5.0625 4.625 5.0625 5 8 C5.66 8.33 6.32 8.66 7 9 C5.02 9 3.04 9 1 9 C0.67 6.03 0.34 3.06 0 0 Z " fill="#555AD0" transform="translate(33,32)"/>
<path d="M0 0 C0.66 0 1.32 0 2 0 C2 2.31 2 4.62 2 7 C0.35 6.67 -1.3 6.34 -3 6 C-2.34 5.67 -1.68 5.34 -1 5 C-0.34444881 2.47266765 -0.34444881 2.47266765 0 0 Z " fill="#CACBF0" transform="translate(28,33)"/>
<path d="M0 0 C1.98 0.99 1.98 0.99 4 2 C4 3.32 4 4.64 4 6 C4.66 6.33 5.32 6.66 6 7 C4.35 7 2.7 7 1 7 C0.67 4.69 0.34 2.38 0 0 Z " fill="#6064D3" transform="translate(32,16)"/>
<path d="M0 0 C1.98 0.99 1.98 0.99 4 2 C4 2.99 4 3.98 4 5 C4.99 5.33 5.98 5.66 7 6 C5.02 6 3.04 6 1 6 C0.67 4.02 0.34 2.04 0 0 Z " fill="#252BC3" transform="translate(37,34)"/>
</svg>
