<svg xmlns="http://www.w3.org/2000/svg" width="32" height="32" viewBox="0 0 32 32"><path d="M23.559 1.406c.312.196.62.39.941.594.313.176.621.352.941.531C28.871 4.668 30.97 8.145 32 12c.496 5.527.164 10.32-3.312 14.875-2.805 3.02-6.383 4.973-10.477 5.242-3.984.11-7.238.074-10.711-2.117l-.941-.531C3.129 27.332 1.027 23.855 0 20-.508 14.293-.066 9.902 3.656 5.375c5.028-5.395 13.09-7.7 19.903-3.969m0 0" style="stroke:none;fill-rule:nonzero;fill:#0209b9;fill-opacity:1"/><path d="M20 4.5v3c-.988.164-1.98.328-3 .5l1 1v2c1.734-.246 1.734-.246 3.5-.5V15c-1.156.328-2.309.66-3.5 1 .164.29.328.578.5.875C19 18 19 18 19 20c1.98-.246 1.98-.246 4-.5v6a274 274 0 0 1-6.187 2.3q-1.058.387-2.102.79c-5.758 2.223-5.758 2.223-8.055 1.473C4.786 28.743 3.536 27.277 3 25q2.297-.737 4.594-1.469c.648-.207.648-.207 1.308-.422.422-.132.844-.265 1.278-.406l1.164-.371c1.21-.348 2.418-.602 3.656-.832-1.39-1.637-3.14-2.48-5-3.5v-4.5c.313-.102.625-.203.95-.312.41-.133.816-.266 1.238-.407.406-.133.812-.265 1.23-.406 1.086-.352 1.086-.352 2.082-.875l-4-2v-3q1.843-.503 3.688-1 .52-.141 1.058-.29c2.64-.71 2.64-.71 3.754-.71m0 0" style="stroke:none;fill-rule:nonzero;fill:#f4f4fc;fill-opacity:1"/><path d="M23 19.5v6a274 274 0 0 1-6.187 2.3q-1.058.387-2.102.79c-5.758 2.223-5.758 2.223-8.055 1.473C4.786 28.743 3.536 27.277 3 25c4.898-1.598 9.8-3.129 14.781-4.437.407-.11.813-.215 1.235-.325C21.867 19.5 21.867 19.5 23 19.5m0 0" style="stroke:none;fill-rule:nonzero;fill:#fafafd;fill-opacity:1"/><path d="M20 4.5v3c-1.484.328-2.969.66-4.5 1-.164.66-.328 1.32-.5 2-2.375-.437-2.375-.437-3.5-1v-3q1.843-.503 3.688-1c.523-.145.523-.145 1.058-.29 2.64-.71 2.64-.71 3.754-.71m0 0" style="stroke:none;fill-rule:nonzero;fill:#f4f4fc;fill-opacity:1"/><path d="M15.5 16c1.219.125 1.219.125 2.5.5 1 1.5 1 1.5 1 3.5.328.164.66.328 1 .5-1.738.578-3.18.535-5 .5-.773-1.547-.3-2.844 0-4.5zm0 0" style="stroke:none;fill-rule:nonzero;fill:#9396e1;fill-opacity:1"/><path d="M15.5 8 18 9v2c.328.164.66.328 1 .5-1.406.344-1.406.344-3 .5-.937-.719-.937-.719-1.5-1.5.328-.824.66-1.648 1-2.5m0 0" style="stroke:none;fill-rule:nonzero;fill:#9ea0e4;fill-opacity:1"/><path d="M16.5 16c.988.496.988.496 2 1 .313 1.531.313 1.531.5 3 .328.164.66.328 1 .5h-3c-.164-1.484-.328-2.969-.5-4.5m0 0" style="stroke:none;fill-rule:nonzero;fill:#555ad0;fill-opacity:1"/><path d="M14 16.5h1V20l-2.5-.5c.328-.164.66-.328 1-.5.328-1.262.328-1.262.5-2.5m0 0" style="stroke:none;fill-rule:nonzero;fill:#cacbf0;fill-opacity:1"/><path d="M16 8c.988.496.988.496 2 1v2c.328.164.66.328 1 .5h-2.5A1403 1403 0 0 0 16 8m0 0" style="stroke:none;fill-rule:nonzero;fill:#6064d3;fill-opacity:1"/><path d="M18.5 17c.988.496.988.496 2 1v1.5c.496.164.988.328 1.5.5h-3c-.164-.988-.328-1.98-.5-3m0 0" style="stroke:none;fill-rule:nonzero;fill:#252bc3;fill-opacity:1"/></svg>