<svg xmlns="http://www.w3.org/2000/svg" width="1238" height="1238" fill="none" viewBox="0 0 1238 1238"><path fill="#E7FE7F" d="M630.105 607.892c-74.082-74.082-194.056-74.219-267.97-.306L2.255 967.466c74.001-72.786 193.131-72.274 266.836 1.43s74.215 192.844 1.425 266.844l.009.01 359.886-359.889c73.914-73.913 73.777-193.887-.306-267.969"/><path fill="#E7FE7F" d="M645.886 55.562c-74.082-74.082-194.193-74.082-268.276 0L0 433.17c74.17-72.952 193.434-72.576 267.139 1.128 73.706 73.706 74.081 192.974 1.123 267.143l.009.009 377.615-377.614c74.083-74.082 74.083-194.192 0-268.274m536.554 536.549c-74.08-74.082-194.195-74.082-268.278 0L536.552 969.72c74.169-72.953 193.434-72.577 267.139 1.128 73.706 73.702 74.08 192.972 1.123 267.142l.009.01 377.617-377.614c74.08-74.082 74.08-194.193 0-268.275"/><path fill="#E7FE7F" d="M1182.44 55.562c-74.08-74.082-194.195-74.082-268.278 0L554.587 415.135c74.169-72.953 193.435-72.577 267.139 1.128 73.707 73.706 74.081 192.974 1.123 267.143l.009.009 359.582-359.579c74.08-74.082 74.08-194.192 0-268.274"/></svg>