<svg xmlns="http://www.w3.org/2000/svg" xml:space="preserve" id="png_svg-Capa_1" width="32" height="32" x="0" y="0" version="1.1" viewBox="0 0 32 32"><style>.png_svg-png-st0{fill-rule:evenodd;clip-rule:evenodd;fill:#ff6b00}.png_svg-png-st1{fill:#ff6b00}</style><path id="png_svg-Layer" d="M6.4 23.5c.4.2.7.4 1.1.5s.8.3 1.2.4.8.2 1.2.2.8.1 1.2.1h.8c.3 0 .5 0 .8-.1.3 0 .5-.1.7-.1.2-.1.5-.1.7-.2-.7.8-1.5 2-1.6 3.2-1.6-.3-3.2-.7-4.1-1.3h-.1c-.8-.5-1.4-1.4-1.8-2.3 0-.2 0-.3-.1-.4m12.4-4.8c-.1.1-.1.3-.2.4s-.1.3-.2.4-.1.3-.2.4-.1.3-.2.4c-1.7 3.1-6.3 3.5-6.3 3.5-.7.2-.8-.2-.8-.2l-.2-.4-.2-.3c-2-4.1-2-4.1-1.7-4.3.2-.1.4-.3.9-.2.6.1 1.3.5 1.9 1.2.3-.4.8-1.6 2.5-2.1 2.4-.5 3.8.9 4.7 1.2M.9 13.3c-.2 1.2 0 2.1.1 2.6l-.2-.2c-.1 0-.2-.1-.2-.1-.1 0-.2-.1-.3-.1H0c0-.3 0-.6.1-.9 0-.3.1-.6.1-.8 0-.3.1-.6.2-.8.1-.3.1-.6.2-.8.3.3.3.8.3 1.1M18 26.9c-.3.1-.9.5-2.3.6-.7.1-1.6 0-2.4-.1.1-1.3 1.1-2.5 1.9-3.3.7-.7 1.9-1.4 2.6-2.2 0 .2-.1.3-.1.5q-.9 3.3.3 4.5m8.5-18.7c1.1.3 2.6.4 3.8-.1.3.7.6 1.5.8 2.2v.1c.1.2.1.4.2.6s.1.4.1.6.1.4.1.6.1.4.1.6c-2.2.5-3.8-2.2-4.3-3.1-.1-.1-.1-.3-.2-.4.1-.2 0-.3-.1-.4s-.1-.2-.2-.3c-.1-.2-.2-.3-.3-.4m-7.3-5.5c.1-.2.2-.4.2-.6s.1-.4.1-.7V.7c0-.2 0-.5-.1-.7.5.1.9.1 1.4.2.4.1.9.2 1.3.4.4.1.9.3 1.3.5l1.2.6c.5.3 1.1.7 1.5 1.1.5.4 1 .8 1.4 1.3s.8.9 1.2 1.5c.4.5.7 1 1 1.6 0 .1.1.1.1.2-1.8.7-4.3-.3-4.8-.5-1.5-.7-2.8-.9-3.7-.9 1.1-.7 2.3-1.8 2.8-3.1v-.3s0-.1-.1-.1c-.5-.5-2-1-4.8.2m-.5 23.9c-.5-.4-1-1.4-.4-3.9.1-.2.1-.5.2-.7s.1-.5.2-.7.2-.5.2-.7c.1-.2.2-.5.3-.7v-.4c.3 2.2 1.1 4.7 2.4 5.4.1 0 .1.1.2.1-.3.2-.5.3-.8.5-.3.1-.6.3-.8.4-.3.1-.6.3-.8.4-.1 0-.4.2-.7.3m8.7-12.7c0 1.1.1 3.3-.7 4.3l-.2.2-.2.2c-.1.1-.1.1-.2.1s-.2.1-.2.1c-1.2.5-3.1.4-5.6-.4-.1 0-.2-.1-.3-.1-.2-1.1 0-2.3-.3-3.5.2.1.4.1.7.2.2.1.4.1.7.1.2 0 .5.1.7.1h.7c1.6.1 3.2-.4 4.9-1.3" class="png_svg-png-st0"/><path id="png_svg-Layer_1_" d="M22.2 24.2c-1-.6-1.8-2.9-2.1-5 1.3.4 2.7.7 4 .7.8 0 1.5-.1 2.1-.4.2-.1.3-.2.5-.3-.4 1.4-1.4 3.7-3.2 4.7-.5.4-.9.5-1.3.3M19.6 14c-.1-.5-.3-.9-.4-1.3-.1-.2-.1-.4-.2-.5-.2-.4-.7-1.6-1-2.4 1.2.6 3.5 1.2 5.9 0h.1s.1 0 .1-.1c0 0 0-.1.1-.1v-.3c0-.1-.4-1.5-2.9-2.4.9-.1 2.2 0 3.8.7-.1.1.1.3.3.4s.3.3.5.5c.1.2.2.3.3.5l.3.6s.1.1.2.3c.4.8.6 1.9.7 3.2q-3.6 2.1-6.9 1.2c-.1 0-.2 0-.2-.1-.1 0-.2 0-.2-.1-.1 0-.2-.1-.2-.1q-.3.15-.3 0m8.1 10.5.3.3.3.3c.1.1.2.2.3.2.1.1.2.1.4.2-1.3 1.7-2.6 2.8-3 3.1-.4-.2-.7-.6-.9-1.1-.6-1.6.6-4.2 1-4.9 0-.1.1-.1.1-.2.2-.4.5-.9.7-1.4-.1 1.2.1 2.6.8 3.5m-27-3.7c-.4-1.4-.7-3-.7-4.5.8.1 1.3 1.1 1.5 1.7.3 1 .9 1.9 1.7 3-.7-.3-1.5-.4-2.5-.2" class="png_svg-png-st1"/><path id="png_svg-Layer_2_" d="M24.3 27.7c0 .1.1.3.2.4s.1.2.2.4l.3.3.3.3c-.3.2-.7.5-1.1.7s-.7.4-1.1.6-.8.4-1.2.5c-.4.2-.8.3-1.2.4-1.9-3.5 2.1-6 2.2-6.1.1 0 .1-.1.2-.1s.1-.1.2-.1.1-.1.2-.1.1-.1.2-.1l.1-.1c.1 0 .1-.1.2-.1s.1-.1.2-.1.1-.1.2-.1.1-.1.2-.1c-.4.9-.7 2.3-.3 3.4m7.5-14.3c.1 1 .2 1.9.2 2.7v1.5c0 .2 0 .3-.1.5v.1c-.9 0-1.6-.2-2.1-.7-1.2-1-1.5-2.9-1.5-3.8v-.5c0-.5 0-1-.1-1.5 1 1.1 2.1 1.7 3.1 1.7.1.1.3.1.5 0" class="png_svg-png-st1"/><path id="png_svg-Layer_3_" d="M31.8 18.9c-.2 1.1-.5 2.2-1 3.3-.1.2-.2.5-.3.7s-.2.4-.3.7c-.1.2-.2.4-.4.7-.1.2-.3.4-.4.6-.4-.1-.8-.4-1.1-.8-1.2-1.7-.6-5.4-.5-5.9 0-.1.1-.3.1-.4s.1-.3.1-.4.1-.3.1-.4 0-.3.1-.4c.3.6.6 1.2 1.2 1.7.5.4 1.4.7 2.4.6M6.6 25.3c-1.1-.3-2.3-.2-3.1.7-.3-.3-.5-.7-.8-1-.2-.4-.5-.7-.7-1.1s-.4-.8-.6-1.1-.3-.8-.5-1.2c2.9-.4 4.3 1.4 4.8 2.2.1.1.1.3.2.4s.1.3.2.4.2.3.2.4c.2 0 .2.2.3.3m9.3 3-.4.4c-1 1-1.5 2.1-1.5 3.2l-1.8-.3c-.6-.1-1.2-.3-1.7-.5-.6-.2-1.1-.4-1.7-.7-.5-.3-1.1-.6-1.6-.9 1.7-1.6 4.2-1.5 5.1-1.4 1.3.2 2.5.3 3.6.2M8 26.7c.1.1.3.2.4.2.1.1.3.1.4.2s.3.1.5.2.3.1.5.1c-1 .2-2.2.7-3.1 1.6-1.5-1-2.4-2.1-2.7-2.5 1.2-1.4 3.6-.1 4 .2m12.5-.2c-.9 1.2-1.5 2.9-.5 5-.6.2-1.3.3-1.9.4h-.3c-1.5.2-2.6.1-3.1 0-.1-1 .5-1.9 1.1-2.6 1.4-1.5 3.8-2.3 4.7-2.8M6.3 18.4s0-.1 0 0c-.1-.1-.1-.1-.1-.2V18c0-.3.3-.4.7-.5 2.3-.7 3.5-2.8 4.7-5.2.6-1.2 1.6-1.8 2.2-2.3.7 1 2.4 3.4 5.2 4.6.3.8.3 2.3.1 3.5-1.2-.5-2.3-1.7-5.1-1.1-.1-.3-.2-.5-.4-.7-.5.2-.9.5-1.1.5-1.5.7-2.9 1.1-3.8 1.3-1.1.3-1.6.3-1.9.3-.4.1-.4 0-.5 0" class="png_svg-png-st1"/><path id="png_svg-Layer_4_" d="M8.2 13.3c-.6.4-1.5.3-1.7.1-.1-.1-.2-.3 0-.7 0-.1.1-.1.1-.2s.1-.1.1-.2.1-.1.1-.2.1-.1.1-.2c.1-.3.3-.7.4-1v-.2c.4-1 .6-2.2.8-3.7.4-4.2 3.4-5.8 4.5-6.3l.2 1.8.4-.5c2.2-2.3 4.7-2.1 5.5-2 .4 1.8-.7 3.1-.7 3.2l-1.1 1.3v.1l1.5-.8c1.3-.7 3.7-1.7 5.1-.8-1 2-4.1 3.5-4.1 3.5l-.8.4c-.1 0 0 .1 0 .1l.8.2c2.4.6 3.3 1.6 3.6 2.1-3 1.3-5.8-.7-5.8-.7l-1-.7h-.1l.7 1.1c.1.1.2.5.4 1l.4.9.6 1.5c.2.4.3.8.5 1.2 0 0-3-1.4-4.6-4.6h-.3c-.5.4-2.6 2.1-3.4 2.7-.3.3-1.5 1.1-2.2 1.6m3.3-6.8c-.3.5.2 1 .7.7 0 0 .1 0 .1-.1.3-.5-.3-1-.8-.6m-2.6 0c-.4.5.2 1 .7.7 0 0 .1 0 .1-.1.3-.5-.3-1-.8-.6" class="png_svg-png-st0"/></svg>