<svg version="1.2" xmlns="http://www.w3.org/2000/svg" viewBox="0 0 300 300" width="300" height="300">
	<style>
		.s0 { fill: #ffffff } 
		.s1 { fill: #000000 } 
		.s2 { fill: #999999 } 
	</style>
	<g id="Background">
		<path id="Path 0" class="s0" d="m0 150v150h300v-300h-300z"/>
		<path id="Path 1" class="s1" d="m138 30.46c-0.82 0.2-4.88 0.91-9 1.57-4.13 0.67-11.55 2.54-16.5 4.16-4.95 1.62-13.05 5.04-18 7.61-4.95 2.56-12.38 7.2-16.5 10.3-4.13 3.1-10.88 9.2-15 13.56-4.13 4.35-9.61 11.05-12.18 14.88-2.57 3.83-6.81 11.46-9.4 16.96-2.6 5.5-6.08 15.17-7.74 21.5-2.76 10.58-3.01 12.86-3.03 28.5-0.01 12.65 0.42 18.92 1.71 24.5 0.96 4.12 2.88 10.87 4.27 15 1.39 4.12 4.62 11.55 7.18 16.5 2.56 4.95 7.19 12.37 10.29 16.5 3.1 4.12 9.2 10.87 13.56 15 4.35 4.12 11.05 9.61 14.88 12.18 3.83 2.57 11.46 6.81 16.96 9.4 5.8 2.74 14.84 5.93 21.5 7.59 6.32 1.58 12.96 2.86 14.75 2.85 1.79-0.01 3.25 0.43 3.25 0.98 0 0.61 4.33 1 11 1 6.67 0 11-0.39 11-1 0-0.55 1.35-1 3-1 1.65 0 6.26-0.7 10.25-1.55 3.99-0.85 10.63-2.69 14.75-4.08 4.13-1.39 11.55-4.62 16.5-7.18 4.95-2.56 12.38-7.19 16.5-10.29 4.13-3.1 10.88-9.2 15-13.56 4.13-4.35 9.61-11.05 12.18-14.88 2.57-3.83 6.81-11.46 9.4-16.96 2.6-5.5 6.08-15.18 7.74-21.5 2.76-10.58 3.01-12.86 3.03-28.5 0.01-12.65-0.42-18.92-1.71-24.5-0.96-4.13-2.88-10.88-4.27-15-1.39-4.13-4.62-11.55-7.18-16.5-2.56-4.95-7.19-12.38-10.29-16.5-3.1-4.13-9.2-10.88-13.56-15-4.35-4.13-11.05-9.61-14.88-12.18-3.83-2.57-11.46-6.81-16.96-9.4-5.6-2.65-15.06-6.01-21.5-7.65-9.29-2.36-14.19-2.99-25.5-3.3-7.7-0.21-14.68-0.21-15.5-0.01z"/>
		<path id="Path 2" class="s2" d="m124 69.59c-4.13 1.4-10.2 4.04-13.5 5.86-3.3 1.83-9.38 5.98-13.5 9.23-4.53 3.57-10.02 9.26-13.86 14.37-3.5 4.65-7.86 11.6-9.69 15.45-1.83 3.85-4.09 9.7-5.03 13-0.94 3.3-1.42 6.79-1.07 7.75 0.58 1.56 1.88 1.19 11.9-3.39 6.19-2.82 13.05-6.26 15.25-7.64 2.2-1.38 6.9-4.81 10.44-7.61 3.55-2.81 9.12-8.49 12.38-12.61 3.26-4.13 6.86-9.3 8-11.5 1.14-2.2 4.17-8.59 6.74-14.19 2.56-5.61 4.38-10.46 4.05-10.78-0.34-0.32-1.51-0.56-2.61-0.53-1.1 0.03-5.38 1.2-9.5 2.59zm39.92-2.08c-0.23 0.29 1.78 5.58 4.46 11.75 2.68 6.18 6.32 13.49 8.08 16.24 1.76 2.75 5.53 7.81 8.37 11.25 2.84 3.44 8.43 8.66 12.42 11.61 3.99 2.95 9.05 6.31 11.25 7.48 2.2 1.16 8.39 4.15 13.75 6.64 8.72 4.04 9.82 4.33 10.4 2.77 0.35-0.96-0.13-4.45-1.07-7.75-0.94-3.3-3.2-9.15-5.03-13-1.83-3.85-6.19-10.8-9.69-15.45-3.84-5.11-9.33-10.8-13.86-14.37-4.13-3.25-10.2-7.4-13.5-9.23-3.3-1.82-9.49-4.47-13.75-5.88-4.26-1.42-8.57-2.57-9.58-2.57-1.01 0-2.02 0.23-2.25 0.51zm-96.65 97.28c-0.31 0.94 0.21 4.41 1.15 7.71 0.94 3.3 3.2 9.15 5.03 13 1.83 3.85 6.19 10.81 9.69 15.46 4 5.31 9.33 10.8 14.36 14.77 4.4 3.47 11.6 8.08 16 10.24 4.4 2.16 10.7 4.7 14 5.63 3.3 0.93 6.79 1.4 7.75 1.05 1.56-0.58 1.19-1.88-3.38-11.9-2.82-6.19-6.57-13.5-8.33-16.25-1.76-2.75-5.53-7.81-8.37-11.25-2.84-3.44-8.43-8.66-12.42-11.61-3.99-2.95-9.05-6.31-11.25-7.48-2.2-1.16-8.43-4.13-13.84-6.6-8.65-3.95-9.9-4.28-10.39-2.77zm153.19 3.52c-6.03 2.72-13.21 6.38-15.96 8.15-2.75 1.76-7.81 5.53-11.25 8.37-3.44 2.84-8.66 8.43-11.61 12.42-2.95 3.99-6.31 9.05-7.48 11.25-1.16 2.2-4.15 8.39-6.64 13.75-4.04 8.72-4.33 9.82-2.77 10.4 0.96 0.35 4.45-0.12 7.75-1.05 3.3-0.93 9.6-3.47 14-5.63 4.4-2.16 11.6-6.77 16-10.24 5.03-3.97 10.36-9.46 14.36-14.77 3.5-4.65 7.86-11.61 9.7-15.46 1.85-3.85 4.16-10.02 5.15-13.71 1.22-4.6 1.46-6.99 0.75-7.57-0.63-0.52-5.47 1.14-12 4.09z"/>
		<path id="Path 3" class="s0" d="m146.29 108.28c-1.21 0.7-4.13 4.94-6.5 9.42-2.36 4.49-6.09 10.03-8.29 12.33-2.2 2.3-5.57 5.19-7.5 6.41-1.92 1.23-5.69 3.09-8.36 4.15-2.68 1.05-5.52 2.59-6.31 3.41-0.79 0.82-1.52 3.34-1.63 5.6-0.12 2.45 0.4 4.8 1.3 5.84 0.83 0.97 5.1 3.45 9.5 5.53 5.31 2.5 9.58 5.41 12.71 8.65 2.8 2.91 6.09 7.92 8.14 12.38 1.89 4.12 4.23 8.18 5.2 9 0.98 0.82 3.43 1.5 5.46 1.5 2.03 0 4.48-0.68 5.45-1.5 0.96-0.82 3.19-4.65 4.94-8.5 1.75-3.85 5.19-9.2 7.64-11.89 2.45-2.69 6.03-5.88 7.96-7.09 1.93-1.21 5.69-3.05 8.36-4.11 2.68-1.05 5.52-2.59 6.31-3.41 0.79-0.82 1.52-3.34 1.63-5.6 0.12-2.45-0.4-4.8-1.3-5.86-0.82-0.96-4.65-3.19-8.5-4.94-3.85-1.75-9.2-5.19-11.89-7.64-2.69-2.45-5.88-6.04-7.09-7.96-1.21-1.92-3.05-5.69-4.11-8.36-1.05-2.68-2.59-5.44-3.41-6.14-0.82-0.7-2.85-1.55-4.5-1.89-1.73-0.35-3.93-0.07-5.21 0.67z"/>
	</g>
</svg>