<svg xmlns="http://www.w3.org/2000/svg" width="40" height="40" fill="none" viewBox="0 0 40 40"><circle cx="20" cy="20" r="20" fill="#fff"/><path fill="url(#polyx_svg-a)" d="M24.772 18.962c-.6.532-1.578.821-2.98.821h-6.27v9.554h2.622v-7.069h3.977q1.876.002 3.273-.68h.001q1.422-.711 2.224-1.997c.536-.861.8-1.88.8-3.045 0-1.16-.261-2.34-.8-3.206q-.802-1.287-2.224-1.97-1.398-.709-3.274-.707h-6.6v2.485h6.271c1.403 0 2.38.289 2.98.822.594.528.915 1.475.915 2.576 0 1.07-.314 1.864-.915 2.416"/><path fill="url(#polyx_svg-b)" fill-rule="evenodd" d="M40 20c0 11.046-8.954 20-20 20S0 31.046 0 20 8.954 0 20 0s20 8.954 20 20m-2.62 0c0 9.599-7.781 17.38-17.38 17.38S2.62 29.599 2.62 20 10.401 2.62 20 2.62 37.38 10.401 37.38 20" clip-rule="evenodd"/><defs><linearGradient id="polyx_svg-a" x1="92.337" x2="92.267" y1="10.303" y2="46.293" gradientUnits="userSpaceOnUse"><stop stop-color="#FF2E72"/><stop offset=".935" stop-color="#4A125E"/></linearGradient><linearGradient id="polyx_svg-b" x1="92.337" x2="92.267" y1="10.303" y2="46.293" gradientUnits="userSpaceOnUse"><stop stop-color="#FF2E72"/><stop offset=".935" stop-color="#4A125E"/></linearGradient></defs></svg>