<svg width="64" height="65" viewBox="0 0 64 65" fill="none" xmlns="http://www.w3.org/2000/svg">
<g clip-path="url(#clip0_28696_5979)">
<rect y="0.303711" width="64" height="64" rx="32" fill="white"/>
<path d="M39.3444 30.6359C38.4135 31.4917 36.8978 31.9554 34.7238 31.9554H25V47.3037H29.0661V35.9474H35.2337C37.1712 35.9474 38.8665 35.5879 40.3093 34.8559L40.3118 34.8546C41.78 34.0941 42.9325 33.0245 43.76 31.647C44.5912 30.2629 45 28.6274 45 26.7547C45 24.8919 44.5954 22.995 43.76 21.6043C42.9324 20.2265 41.7796 19.1712 40.3105 18.4399C38.8673 17.678 37.1714 17.3037 35.2337 17.3037H25V21.2957H34.7238C36.8994 21.2957 38.4157 21.7601 39.3463 22.617C40.2668 23.4647 40.764 24.987 40.764 26.7547C40.764 28.4725 40.2775 29.7487 39.3444 30.6359Z" fill="black"/>
<path fill-rule="evenodd" clip-rule="evenodd" d="M64 32.3037C64 49.9768 49.6731 64.3037 32 64.3037C14.3269 64.3037 0 49.9768 0 32.3037C0 14.6306 14.3269 0.303711 32 0.303711C49.6731 0.303711 64 14.6306 64 32.3037ZM59.808 32.3037C59.808 47.6616 47.3579 60.1117 32 60.1117C16.6421 60.1117 4.192 47.6616 4.192 32.3037C4.192 16.9458 16.6421 4.49571 32 4.49571C47.3579 4.49571 59.808 16.9458 59.808 32.3037Z" fill="black"/>
</g>
<rect x="0.5" y="0.803711" width="63" height="63" rx="31.5" stroke="white" stroke-opacity="0.15"/>
<defs>
<clipPath id="clip0_28696_5979">
<rect y="0.303711" width="64" height="64" rx="32" fill="white"/>
</clipPath>
</defs>
</svg>
