<?xml version="1.0" encoding="UTF-8"?>
<svg version="1.1" xmlns="http://www.w3.org/2000/svg" width="64" height="64">
<path d="M0 0 C6.47496935 5.28699977 10.89385341 12.01682002 12.48828125 20.3046875 C13.45098895 30.92603642 11.69688696 39.81059549 4.86328125 48.1796875 C-1.65304959 54.98888714 -9.73881 58.38100539 -19.07421875 58.6171875 C-28.91069917 58.48555577 -36.45265729 55.40153127 -43.56640625 48.59375 C-49.91613191 41.12198447 -51.90948271 33.11373067 -51.78125 23.53125 C-50.98490145 13.99815002 -46.7695639 6.47261734 -39.51171875 0.3046875 C-27.03890251 -7.52359656 -12.53369022 -8.45975359 0 0 Z " fill="#FEFEFE" transform="translate(51.51171875,5.6953125)"/>
<path d="M0 0 C6.47496935 5.28699977 10.89385341 12.01682002 12.48828125 20.3046875 C13.45098895 30.92603642 11.69688696 39.81059549 4.86328125 48.1796875 C-1.65304959 54.98888714 -9.73881 58.38100539 -19.07421875 58.6171875 C-28.91069917 58.48555577 -36.45265729 55.40153127 -43.56640625 48.59375 C-49.91613191 41.12198447 -51.90948271 33.11373067 -51.78125 23.53125 C-50.98490145 13.99815002 -46.7695639 6.47261734 -39.51171875 0.3046875 C-27.03890251 -7.52359656 -12.53369022 -8.45975359 0 0 Z M-43.51171875 8.3046875 C-49.20713877 16.06547962 -49.05725102 23.97818386 -48.51171875 33.3046875 C-47.2535918 40.96668061 -41.70129269 47.23008082 -35.57421875 51.7265625 C-27.85794861 56.31641284 -18.84597945 56.34479599 -10.1328125 54.9140625 C-3.04436338 52.68012702 3.23283817 46.86818601 6.98828125 40.5546875 C10.51430235 32.91497513 11.03059404 23.05914156 8.48828125 14.9921875 C5.07255167 7.50013912 -1.1315458 1.71092117 -8.51171875 -1.6953125 C-22.31305779 -6.17469447 -34.08921043 -1.78555763 -43.51171875 8.3046875 Z " fill="#3840C6" transform="translate(51.51171875,5.6953125)"/>
<path d="M0 0 C2.475 0.495 2.475 0.495 5 1 C5 8.26 5 15.52 5 23 C3.35 23.33 1.7 23.66 0 24 C-1.35091528 21.29816945 -1.33858058 18.88191794 -1.5625 15.875 C-1.68818359 14.23144531 -1.68818359 14.23144531 -1.81640625 12.5546875 C-1.90728516 11.29011719 -1.90728516 11.29011719 -2 10 C-2.4031543 10.42933838 -2.80630859 10.85867676 -3.22167969 11.30102539 C-5.05132755 13.23445139 -6.90014175 15.14841056 -8.75 17.0625 C-9.70132813 18.07666992 -9.70132813 18.07666992 -10.671875 19.11132812 C-11.290625 19.74619141 -11.909375 20.38105469 -12.546875 21.03515625 C-13.11245117 21.6269165 -13.67802734 22.21867676 -14.26074219 22.82836914 C-16 24 -16 24 -18.21582031 23.68530273 C-18.80459961 23.45915283 -19.39337891 23.23300293 -20 23 C-19.14360545 17.01291499 -13.82094006 13.2674333 -9.75 9.1875 C-8.89019531 8.29095703 -8.03039062 7.39441406 -7.14453125 6.47070312 C-5.88962891 5.20709961 -5.88962891 5.20709961 -4.609375 3.91796875 C-3.4642041 2.75430786 -3.4642041 2.75430786 -2.29589844 1.56713867 C-1.53825195 1.04998291 -0.78060547 0.53282715 0 0 Z " fill="#3840C7" transform="translate(45,20)"/>
<path d="M0 0 C-0.49269082 4.48175339 -1.96562248 6.47831591 -5.11328125 9.64453125 C-5.94923828 10.48564453 -6.78519531 11.32675781 -7.64648438 12.19335938 C-8.96616211 13.48983398 -8.96616211 13.48983398 -10.3125 14.8125 C-11.18068359 15.69615234 -12.04886719 16.57980469 -12.94335938 17.49023438 C-13.78318359 18.32490234 -14.62300781 19.15957031 -15.48828125 20.01953125 C-16.25696533 20.78370361 -17.02564941 21.54787598 -17.81762695 22.33520508 C-20 24 -20 24 -24 24 C-23.50730918 19.51824661 -22.03437752 17.52168409 -18.88671875 14.35546875 C-18.05076172 13.51435547 -17.21480469 12.67324219 -16.35351562 11.80664062 C-15.47373047 10.94232422 -14.59394531 10.07800781 -13.6875 9.1875 C-12.81931641 8.30384766 -11.95113281 7.42019531 -11.05664062 6.50976562 C-10.21681641 5.67509766 -9.37699219 4.84042969 -8.51171875 3.98046875 C-7.74303467 3.21629639 -6.97435059 2.45212402 -6.18237305 1.66479492 C-4 0 -4 0 0 0 Z " fill="#2DB8E3" transform="translate(37,20)"/>
</svg>
