<svg version="1.2" xmlns="http://www.w3.org/2000/svg" viewBox="0 0 300 300" width="300" height="300">
	<style>
		.s0 { opacity: 1;fill: #c6922f } 
		.s1 { opacity: 1;fill: #f8fafa } 
		.s2 { opacity: 1;fill: #e9bf71 } 
		.s3 { opacity: 1;fill: #946412 } 
		.s4 { opacity: .99;fill: #dfa94b } 
		.s5 { opacity: 1;fill: #eecd8d } 
		.s6 { opacity: 1;fill: #02fdfe } 
		.s7 { opacity: 1;fill: #b57c22 } 
		.s8 { opacity: 1;fill: #82560c } 
		.s9 { opacity: 1;fill: #a2731b } 
		.s10 { opacity: 1;fill: #e89d5a } 
		.s11 { opacity: 1;fill: #e6c3ae } 
		.s12 { fill: #0efbfd } 
		.s13 { opacity: .64;fill: #885b0d } 
		.s14 { opacity: 1;fill: #f013bd } 
		.s15 { opacity: .29;fill: #bd8a2f } 
		.s16 { opacity: .53;fill: #f0d290 } 
		.s17 { opacity: .55;fill: #eac071 } 
		.s18 { opacity: 1;fill: #46cfb7 } 
	</style>
	<g id="Background">
		<path id="Path 0" class="s0" d="m222.18 95.52c-1.2 0.81-2.87 2.94-3.71 4.73-0.84 1.79-3.08 4.38-4.97 5.75-1.9 1.38-3.46 3.06-3.47 3.75-0.02 0.69 1.85 4.74 4.15 9 2.3 4.26 5.24 10.22 6.54 13.25 1.29 3.03 2.28 4.6 2.2 3.5-0.08-1.1-0.1-2.79-0.04-3.75 0.08-1.1 2.16-2.68 5.62-4.25 4.53-2.06 5.5-2.94 5.5-5 0-2.27 0.3-2.45 3.25-1.95 1.79 0.3 4.26 1.65 5.5 3 1.43 1.56 3.34 2.45 5.25 2.45 2.36 0 3.21 0.58 4 2.75 0.87 2.39 0.93 2.23 0.42-1.25-0.32-2.2-1.49-6.7-2.59-10-1.09-3.3-3.29-8.7-4.88-12-1.59-3.3-4.01-7.35-5.39-9-2.12-2.53-2.67-2.76-3.54-1.5-0.64 0.94-1.3 1.13-1.77 0.5-0.41-0.55-1.85-1.15-3.19-1.32-1.34-0.18-3.06 0.27-3.83 1-1.09 1.04-1.55 1.05-2.13 0.09-0.57-0.96-1.23-0.91-2.92 0.25zm31.07 5.54c-1.24 0.52-3.49 0.63-5 0.24-2.46-0.62-2.66-0.49-1.85 1.25 0.49 1.07 2.14 5.33 3.65 9.45 1.51 4.13 3.31 10.2 4 13.5l1.25 6c7.9 0.41 10.78 1.08 11.49 1.76 1.05 1 1.29 0.8 1.25-1.01-0.02-1.24-0.77-5.51-1.66-9.5-0.89-3.99-2.76-10.17-4.14-13.75-1.39-3.57-3.25-7.07-4.13-7.77-0.89-0.69-1.84-1.23-2.11-1.18-0.28 0.04-1.51 0.5-2.75 1.01zm-68.84 13.67q-3.1 0.41-3.84 2.59c-0.74 2.17-0.76 2.17-2.23 0.18-0.82-1.1-1.16-1.32-0.75-0.5 0.41 0.83 1.3 2.18 1.99 3 0.69 0.83 2.52 2.88 4.08 4.56 1.56 1.68 4.53 5.39 6.59 8.25 2.06 2.85 3.75 5.64 3.75 6.19 0 0.55 0.45 0.78 1 0.5 0.55-0.28 0.77 0.18 0.5 1-0.28 0.82-0.05 1.5 0.5 1.5 0.55 0 0.77 0.9 0.5 2-0.29 1.14-0.07 1.79 0.5 1.5 0.55-0.28 1.2 0.06 1.45 0.75 0.25 0.69 0.95 3.28 1.55 5.75 0.85 3.48 1.36 4.22 2.25 3.25 0.63-0.69 1.96-1.25 2.95-1.25 1.52 0 1.71-0.59 1.21-3.75-0.32-2.06-1.43-5.78-2.47-8.25-1.04-2.47-2.81-5.4-3.95-6.5-1.13-1.1-2.05-2.45-2.04-3 0-0.55 1.36 0.57 3.02 2.5 1.66 1.93 3.32 3.16 3.69 2.75 0.37-0.41 0.26-0.75-0.24-0.75-0.51 0-0.94-0.56-0.96-1.25-0.02-0.69-1.52-3.72-3.34-6.75-1.82-3.03-5.02-6.85-7.1-8.5-2.08-1.65-3.61-3.34-3.4-3.75 0.21-0.41-0.3-0.75-1.12-0.75-0.82 0-1.29-0.45-1.04-1 0.26-0.55 0.37-0.93 0.25-0.84-0.11 0.09-1.6 0.35-3.3 0.57zm-34.49 14.7c-0.23 0.25-2.25 0.71-4.48 1.03-2.24 0.31-4.49 0.95-5 1.42-0.52 0.47-2.07 1.18-3.44 1.59-1.38 0.41-4.24 2.39-6.37 4.39-2.12 2-4.44 4.99-5.16 6.64-0.71 1.65-1.1 4.24-0.88 5.75 0.23 1.51-0.04 2.75-0.59 2.75-0.57 0-0.75 1.2-0.42 2.75 0.32 1.51 1.45 4.78 2.5 7.25 1.32 3.08 3.26 5.37 6.17 7.26 2.34 1.53 5.82 3.03 7.75 3.35 2.06 0.34 4.65 0.02 6.29-0.77 1.53-0.74 2.77-1.68 2.75-2.09-0.02-0.41 0.3-0.57 0.71-0.36 0.41 0.21 0.64-0.69 0.5-2-0.14-1.33 0.19-2.17 0.75-1.89 0.55 0.28 0.71 1.06 0.35 1.75-0.45 0.88-0.29 0.96 0.57 0.25 0.66-0.55 1.06-1.9 0.88-3l-0.32-2c-3.14 3.1-5.16 4.08-6.51 4.17-1.36 0.1-3.82-0.22-5.47-0.71-1.65-0.49-3.79-1.69-4.76-2.67-0.96-0.99-1.88-2.47-2.03-3.29-0.14-0.82-0.59-2.06-0.99-2.75-0.4-0.69-0.64-2.94-0.55-5 0.09-2.06 0.78-4.43 1.52-5.25 0.75-0.82 1.24-2.15 1.08-2.95-0.15-0.8 0.18-1.49 0.73-1.52 0.55-0.03 1.56-0.39 2.25-0.8 0.69-0.4 1.07-1.07 0.85-1.48-0.23-0.41 0.34-0.82 1.25-0.91 0.91-0.09 3.9-0.83 6.65-1.66 2.75-0.83 4.32-1.53 3.5-1.57-0.82-0.03-3.19 0.38-5.25 0.91-2.06 0.54-3.58 0.64-3.37 0.23 0.21-0.41 2.24-1.09 4.5-1.5 2.34-0.43 4.88-0.33 5.87 0.22 0.96 0.53 1.3 1 0.75 1.03-0.55 0.04 1.47 0.92 4.5 1.96 3.77 1.29 6.53 3.09 8.76 5.71 1.79 2.11 3.88 5.86 4.65 8.33 0.77 2.47 1.41 6.53 1.42 9 0.02 2.47-0.9 6.53-2.02 9-1.13 2.47-2.31 4.95-2.62 5.5-0.32 0.55 0.07 0.48 0.87-0.15 0.79-0.63 2.56-3.45 3.94-6.27 1.61-3.3 3.12-5.12 4.25-5.11 1 0.02 1.95 0.99 2.21 2.28 0.25 1.24 0.63 3.15 0.83 4.25 0.2 1.1 0.71-0.93 1.12-4.5 0.42-3.57 0.46-8.53 0.09-11-0.36-2.47-0.74-5.29-0.83-6.25-0.09-0.96-0.51-1.75-0.92-1.75-0.41 0-0.53-0.45-0.25-1 0.28-0.55 0.05-1-0.5-1-0.55 0-0.78-0.45-0.5-1 0.28-0.55-0.03-1-0.67-1-0.64 0-0.98-0.22-0.75-0.49 0.23-0.27-1.38-2.49-3.58-4.92-2.3-2.54-6.34-5.48-9.5-6.9-3.03-1.37-7.11-2.76-9.08-3.1-1.98-0.34-3.78-0.41-4-0.16zm-48.21 10c-0.94 0.86-1.98 2.58-2.31 3.82-0.5 1.88-0.76 2-1.58 0.75-0.76-1.14-0.85-0.96-0.41 0.75 0.33 1.24 0.14 2.48-0.41 2.75-0.57 0.29-0.89 3.9-0.75 8.49 0.14 4.4 0.59 8 1 8 0.41 0.01 0.74 0.8 0.73 1.76-0.01 0.96 0.98 4.22 2.2 7.25 1.22 3.03 3.88 7.75 5.9 10.5 2.02 2.75 4.85 6.01 6.3 7.25 1.44 1.24 4.31 3.3 6.37 4.57 2.06 1.28 4.54 2.63 5.5 3 0.96 0.38 1.75 0.46 1.75 0.18 0-0.28-1.46-1.15-3.25-1.95-1.79-0.8-5.39-3.73-8-6.5-2.61-2.78-4.75-5.73-4.75-6.55 0-0.82 0.79-1.49 1.75-1.48 0.96 0.02 4.67 1.58 8.25 3.49 3.57 1.9 6.59 3.35 6.71 3.22 0.11-0.13-2.7-2.37-6.25-4.98-3.55-2.61-6.68-5.65-6.96-6.75-0.28-1.1-0.84-1.98-1.25-1.96-0.41 0.02-1.96-2.57-3.45-5.75-1.48-3.19-2.56-6.69-2.39-7.79 0.17-1.1-0.19-2.37-0.8-2.83-0.7-0.52-0.74-0.98-0.11-1.25 0.57-0.24 0.92-3.94 0.82-8.67-0.12-5.41-0.65-8.71-1.54-9.57-1.12-1.1-1.64-1.06-3.07 0.25zm-43.71 6.03c-1.38 0.76-3.64 1.16-5.03 0.88-1.71-0.33-3.45 0.26-5.37 1.83-2.81 2.3-2.84 2.43-2.23 10.33 0.34 4.4 0.81 9.13 1.04 10.5 0.24 1.38 0.65 3.4 0.92 4.5 0.27 1.1 1.06 4.25 1.75 7l1.27 5 3.15-9 1 13c2.72-3.87 3.53-4.55 3.54-4 0.01 0.55 0.69 0.1 1.51-1 0.82-1.1 1.48-1.55 1.48-1 0 0.55 0.33 0.48 0.74-0.15 0.4-0.64 2.87-1.42 5.48-1.75 2.9-0.37 4.75-0.21 4.75 0.4 0 0.55 2.14 1.01 4.75 1.02 3.66 0.01 5.32 0.57 7.25 2.45 1.59 1.54 2.5 1.93 2.5 1.06 0-0.75-0.22-1.17-0.5-0.93-0.28 0.24-1.74-1.94-3.26-4.83-1.52-2.9-2.98-6.51-3.25-8.02-0.27-1.51-0.04-2.75 0.51-2.75 0.55 0 0.69-0.56 0.31-1.25-0.38-0.69-1-5.53-1.37-10.75-0.37-5.22-1.17-10.4-1.78-11.5-0.6-1.1-1.11-1.44-1.13-0.75-0.02 0.84-1.81 1.25-5.53 1.25-3.56 0-6.03-0.53-7-1.5-0.83-0.82-1.84-1.48-2.25-1.46-0.41 0.01-1.88 0.65-3.25 1.42zm-18.8 13.43c-1.13 1.44-2.6 4.18-3.26 6.11-0.67 1.93-1.61 3.95-2.09 4.5-0.49 0.55-0.88 1.9-0.88 3 0.01 1.1 0.87 5.38 1.93 9.5 1.06 4.13 2.86 9.64 4.01 12.25l2.09 4.75c3.25-4.06 4-6.5 4-9 0-2.47 0.48-4.05 1.25-4.12 0.69-0.06 1.59-0.06 2 0 0.41 0.07 0.56-0.22 0.33-0.63-0.23-0.41-0.66-1.87-0.96-3.25-0.29-1.37-1.16-4.75-1.93-7.5-0.77-2.75-1.75-7.47-2.16-10.5-0.41-3.03-1.1-6-1.52-6.61-0.5-0.73-1.46-0.21-2.81 1.5zm214.82 4.86c-0.01 1.24 0.43 2.47 0.98 2.75 0.55 0.28 0.99-0.06 0.98-0.75 0-0.69-0.45-1.93-0.98-2.75-0.78-1.21-0.97-1.07-0.98 0.75zm-51.26 78.54c-2.06 1.22-3.74 2.55-3.75 2.96-0.01 0.41 1.63-0.26 3.63-1.5 2-1.24 3.78-2.59 3.96-3 0.18-0.41 0.23-0.73 0.11-0.71-0.11 0.03-1.89 1.04-3.95 2.25zm-107.26 0.21c0.28 0.82 0.95 1.28 1.5 1 0.55-0.28 1-0.05 1 0.5 0 0.55 0.67 1.22 1.5 1.5 0.83 0.28 1.54 0.15 1.6-0.28 0.05-0.44-1.3-1.56-3-2.5-2.6-1.44-3.02-1.48-2.6-0.22zm6.49 3.23c-0.04 0.42 2.31 1.84 5.22 3.15 2.91 1.31 7.54 3.02 10.29 3.8 2.75 0.77 5.1 1.28 5.21 1.11 0.12-0.16-2.36-1.13-5.5-2.16-3.14-1.03-7.84-2.95-10.43-4.27-2.6-1.32-4.76-2.05-4.79-1.63zm92.51 1.27c-1.65 1.09-2.66 1.99-2.25 1.99 0.41 0.01 1.89-0.55 3.28-1.24 1.39-0.69 2.51-1.59 2.5-2-0.02-0.41-0.14-0.75-0.28-0.74-0.14 0-1.6 0.9-3.25 1.99zm-9.5 3.66c-2.47 0.82-4.28 1.68-4 1.9 0.28 0.23 2.64-0.26 5.25-1.07 2.61-0.82 4.75-1.71 4.75-1.99 0-0.28-0.34-0.46-0.75-0.42-0.41 0.04-2.78 0.75-5.25 1.58z"/>
		<path id="Path 1" fill-rule="evenodd" class="s1" d="m155 84.8c3.03 0.21 9.32 1.27 14 2.35 4.68 1.08 11.88 3.72 16 5.86 4.13 2.14 10.43 6.55 14 9.81 3.57 3.26 8.06 8.12 9.96 10.8 1.9 2.68 2.67 4.21 1.71 3.38-1.57-1.35-2-1.25-4.46 1.13-1.49 1.44-3.72 3.13-4.96 3.75-1.93 0.96-2.09 1.44-1.14 3.37 0.69 1.41-0.04 0.94-1.96-1.25-1.69-1.92-3.09-3.84-3.11-4.25-0.02-0.41-0.6-0.41-1.28 0q-1.23 0.74-0.5-0.5c0.48-0.81-1.11-2.71-4.51-5.38-2.89-2.27-6.38-4.63-7.75-5.23-1.38-0.61-2.72-1.44-3-1.86-0.28-0.42-3.88-1.93-8-3.35-4.95-1.72-10.56-2.78-16.5-3.13-5.23-0.3-11.51-0.02-15 0.67-3.3 0.66-9.05 2.62-12.78 4.36-3.73 1.74-6.77 3.51-6.75 3.92 0.02 0.41-0.53 0.74-1.22 0.73-0.69-0.02-3.86 2.57-7.06 5.75-3.19 3.17-6.58 7.35-7.53 9.27-0.94 1.92-2.46 4.63-3.37 6-0.9 1.38-2.41 5.43-3.36 9-0.94 3.57-1.76 10.17-1.82 14.66-0.09 6.85-0.33 7.98-1.49 7-0.77-0.64-1.75-2.06-2.19-3.16-0.58-1.44-0.82-0.68-0.87 2.75-0.05 3.82-0.4 4.76-1.81 4.78-0.96 0.02-2.99-0.88-4.5-2-2.21-1.63-2.75-1.73-2.75-0.53 0 0.82-0.45 1.28-1 1q-1-0.5 0-2.5c0.55-1.1 1-2.9 1-4 0-1.1-0.45-1.78-1-1.5-0.64 0.32-0.82-1.93-0.51-6.25 0.26-3.71 0.73-6.97 1.02-7.25 0.3-0.28 0.54-1.4 0.53-2.5-0.01-1.1 1.32-5.82 2.95-10.5 1.67-4.77 5.06-11.53 7.74-15.42 2.62-3.8 7.32-9.2 10.43-12 3.11-2.79 8.06-6.54 11-8.31 2.94-1.78 7.81-4.14 10.84-5.24 3.03-1.1 8.65-2.46 12.5-3.02 3.85-0.56 8.35-1.15 10-1.31 1.65-0.17 5.47-0.12 8.5 0.1zm-5.5 27.33c0.55-0.06 3.93 0.37 7.5 0.97 3.57 0.6 6.95 1.18 7.5 1.3 0.55 0.12 3.47 1.45 6.5 2.95 3.03 1.51 7.86 4.75 10.75 7.2 2.89 2.45 5.03 4.45 4.75 4.45-0.28 0 0.73 1.69 2.24 3.75 1.51 2.06 3.2 4.08 3.75 4.48 0.56 0.41 0.67 0.75 0.26 0.75-0.41 0.01-0.3 0.92 0.25 2.02 0.55 1.1 0.78 2 0.5 2-0.28 0-1.85-2.47-3.5-5.5-2.87-5.26-3.13-5.47-6.07-4.75-2.13 0.52-3.27 0.36-3.75-0.55-0.5-0.95-1.73-1.08-4.58-0.5-2.15 0.44-4.17 1.37-4.5 2.08-0.33 0.7 0.75 2.72 5.4 7.72l-3.5-3.23c-1.93-1.78-4.06-3.25-4.75-3.25-0.69-0.01-1.25-0.47-1.25-1.02 0-0.55-2.47-1.9-5.5-3-3.54-1.29-8-2-12.5-2-5.35 0-8.12 0.56-11.75 2.36-2.61 1.3-6.45 4.33-8.52 6.75-2.07 2.41-4.44 6.42-5.26 8.89-0.82 2.47-1.49 6.19-1.48 8.25 0 2.06 0.61 5.21 1.33 7 0.73 1.79 2.2 4.32 3.25 5.62 1.06 1.31 2.83 3.21 3.93 4.24 1.1 1.02 3.8 2.36 6 2.98 2.3 0.65 5.7 0.82 8 0.41 2.63-0.48 5.11-1.88 7.25-4.11 2.19-2.29 3.25-4.37 3.25-6.39q0-3-1.5-3c-0.82 0-1.5 0.45-1.5 1 0 0.55-1.59 1.79-3.53 2.75-2.83 1.4-4.26 1.55-7.15 0.75-2.58-0.72-4.13-1.99-5.47-4.5-1.02-1.93-1.86-5.07-1.87-7 0-2.15 1.06-5.12 2.76-7.71 1.52-2.32 2.87-4.01 3.01-3.75 0.14 0.25 1.82-0.22 3.75-1.04 1.93-0.82 4.74-1.49 6.25-1.48 1.51 0.01 4.32 0.48 6.25 1.05 1.93 0.57 4.85 2.18 6.5 3.57 1.65 1.38 2.21 2.26 1.25 1.94-1.62-0.54-1.75 0.69-1.81 33.92l2.63-3c1.46-1.67 2.18-2.11 1.62-1-0.55 1.1-3.07 3.91-5.59 6.25-2.53 2.34-4.6 4.03-4.6 3.75 0-0.28-0.9-0.05-2 0.5-1.1 0.55-2 0.78-2 0.5 0-0.28 1.46-1.24 3.25-2.14 2.94-1.49 3.06-1.72 1.25-2.37-1.1-0.4-2.68-1.48-3.5-2.4-0.92-1.03-2.96-1.66-5.25-1.63-2.06 0.02-3.75 0.49-3.75 1.04 0 0.55-0.79 1.02-1.75 1.03-0.96 0.02-2.99-0.88-7.25-4.03l-0.25 2.08c-0.23 1.93-0.47 1.85-6.25-4.12l5 0.1-3-2.53c-1.65-1.39-3.22-2.52-3.5-2.51-0.28 0.01-1.32-1.67-2.32-3.75-1.41-2.9-2.01-3.43-2.64-2.27-0.66 1.2-1.18 0.9-2.65-1.5-1-1.65-2.07-5.59-2.89-14.51l-4.25 2.01c-2.34 1.1-4.25 2.45-4.25 3 0 0.55-0.45 1-1 1-0.56 0 0.03-3.64 1.33-8.25 1.29-4.54 2.92-9.38 3.63-10.75 0.71-1.37 2.03-3.3 2.92-4.28 0.89-0.98 1.28-1.77 0.87-1.75-0.41 0.02 1.72-2.22 4.75-4.97 3.03-2.75 7.41-5.99 9.75-7.19 2.34-1.21 4.93-2.34 5.75-2.51 0.82-0.17 3.97-0.71 7-1.19 3.03-0.47 5.95-0.92 6.5-0.98zm53.17 14.87c0.36 0 0.36 0.34-0.01 0.75-0.37 0.41 0.01 1.76 0.83 3 0.83 1.24 1.96 3.38 2.51 4.75 0.55 1.38 0.78 2.5 0.5 2.5-0.28 0-1.18-1.57-2-3.5-0.82-1.93-1.95-3.5-2.5-3.5-0.55 0-0.81-0.79-0.58-1.75 0.24-0.96 0.46-1.86 0.5-2 0.05-0.14 0.38-0.25 0.75-0.25zm-36.21 22c0.92 0.82 2.08 3.07 2.6 5 0.51 1.93 0.93 3.84 0.93 4.25 0.01 0.41-0.44 0.53-0.99 0.25-0.55-0.28-1-1.51-1.01-2.75 0-1.24-0.72-3.6-1.59-5.25-1.49-2.79-1.48-2.9 0.06-1.5zm31.22 7c0.25 0.82 0.26 2.63 0.02 4-0.25 1.49-0.44 0.89-0.45-1.5-0.01-2.2 0.18-3.32 0.43-2.5zm-85.14 16c0.36 0 2 2.14 3.64 4.75 2.8 4.46 2.82 4.57 0.35 1.75-1.45-1.65-3.08-3.79-3.64-4.75-0.55-0.96-0.71-1.75-0.35-1.75zm10.57 11.16c1.65 1.22 2.97 2.36 2.94 2.53-0.03 0.17-1.41-0.48-3.06-1.44-1.66-0.96-2.98-2.1-2.95-2.53 0.04-0.43 1.42 0.22 3.07 1.44zm5.89 3.26c1.37 0.3 3.29 0.56 4.25 0.57 0.96 0 1.75 0.46 1.75 1.01 0 0.55-1.01 0.87-2.25 0.71-1.24-0.15-3.15-0.86-4.25-1.56-1.89-1.21-1.86-1.26 0.5-0.73zm13 1.67c0.82-0.03 2.18 0.34 3 0.82 1.14 0.68 0.78 0.98-1.5 1.27-1.65 0.2-3.9 0.19-7-0.45l2-0.79c1.1-0.44 2.68-0.82 3.5-0.85zm28.71 3.93c0.12-0.01 0.01 0.43-0.25 0.98-0.25 0.55-1.81 1.68-3.46 2.5-1.65 0.82-3.07 1.32-3.17 1.1-0.09-0.22 1.38-1.34 3.25-2.48 1.88-1.15 3.52-2.09 3.63-2.1zm-7.75 5.02c0.26-0.02-0.19 0.59-1 1.35-0.8 0.77-2.47 1.67-3.71 2-1.24 0.34-2.25 0.16-2.25-0.39 0-0.55 0.34-0.81 0.75-0.59 0.41 0.23 1.87-0.21 3.25-0.96 1.37-0.76 2.71-1.4 2.96-1.41zm-32.69 4.47c1.23 0.29 4.93 0.95 8.23 1.45 5.54 0.85 5.63 0.9 1.25 0.73-2.63-0.11-4.74 0.26-4.73 0.81 0.01 0.55-0.56 0.43-1.25-0.27-0.7-0.69-2.28-1.26-3.52-1.25-1.24 0.01-2.24-0.44-2.23-1 0.02-0.56 1.03-0.77 2.25-0.47zm40.23 7.57c0.55 0-0.57 0.87-2.5 1.92-1.93 1.05-3.95 1.92-4.5 1.92-0.55 0 0.57-0.87 2.5-1.92 1.93-1.05 3.95-1.92 4.5-1.92z"/>
		<path id="Path 2" fill-rule="evenodd" class="s2" d="m202.25 43.12c0.41-0.07 2.21 0.62 4 1.52 1.79 0.91 6.18 3.55 9.75 5.89 3.57 2.33 9.54 6.99 13.25 10.36 6.41 5.8 6.69 6.24 5.5 8.6q-1.25 2.49-4.5 3c-1.79 0.28-3.24 0.85-3.22 1.26 0.01 0.41 0.78 1.65 1.71 2.75 0.93 1.1-0.99-0.53-4.27-3.62-3.29-3.08-8.44-7.53-11.47-9.87-3.03-2.34-8.99-6.22-13.25-8.63-4.26-2.41-7.53-4.83-7.25-5.38 0.28-0.55 1.4-1 2.5-1 1.1 0 2.28-0.87 2.62-1.95 0.35-1.07 1.36-2.14 2.25-2.38 0.9-0.24 1.97-0.49 2.38-0.55zm-53.25 1.96c5.78-0.06 14.55 0.6 19.5 1.45 4.95 0.86 10.66 2.1 12.7 2.76 2.03 0.67 3.49 1.55 3.25 1.96-0.25 0.41 0.34 0.48 1.3 0.15 0.96-0.32 2.54 0.13 3.5 1 0.96 0.88 1.97 1.38 2.25 1.1 0.28-0.27 3.54 1.02 7.25 2.88 3.71 1.86 10.35 6.08 14.75 9.38 4.4 3.29 10.03 8.16 12.5 10.82 4.01 4.3 3.79 4.18-2.03-1.13-3.6-3.27-10.57-8.62-15.5-11.88-4.94-3.26-10.43-6.52-12.22-7.25-1.79-0.72-3.25-1.09-3.25-0.82 0 0.28 2.14 1.84 4.75 3.49 2.61 1.64 6.44 4.12 8.5 5.5 2.06 1.38 4.05 3.07 4.41 3.76 0.36 0.69 0.77 2.38 0.91 3.75 0.14 1.38-0.45 3.63-1.31 5-0.87 1.38-2.18 2.84-2.92 3.25-0.74 0.41-3.81 4.13-6.84 8.25-3.65 4.98-5.3 8.09-4.9 9.25 0.46 1.35-0.17 1.16-2.75-0.86-1.84-1.44-6.61-4.25-10.6-6.25-3.99-2-7.47-4.09-7.75-4.64-0.28-0.55-0.05-1 0.5-1 0.55 0 1.71-2.59 2.59-5.75 0.87-3.16 2.45-7.55 3.5-9.75 1.05-2.2 1.93-4.67 1.96-5.5 0.02-0.82-0.68-2.17-1.55-3-0.87-0.82-1.57-2.06-1.54-2.75 0.02-0.69-0.97-1.91-2.21-2.71-1.24-0.8-5.18-2.08-8.75-2.85-3.57-0.76-11.22-1.47-17-1.56-5.78-0.1-14.1 0.47-18.5 1.25-4.4 0.79-10.92 2.42-14.5 3.62-3.58 1.2-8.97 3.32-12 4.72-3.03 1.39-7.97 4.16-10.98 6.16-3.02 1.99-6.62 4.63-8 5.87-1.39 1.24-2.86 2.26-3.27 2.25-0.41 0-3 2.7-5.75 6-3.56 4.27-5 6.87-5 9q0 3 3 6c1.65 1.65 3.34 2.89 3.75 2.76 0.41-0.14 2.33 0.72 4.25 1.91 1.92 1.19 5.08 2.47 7 2.86 2.22 0.44 4.42 0.21 6-0.61 2.03-1.05 1.7-0.36-1.73 3.64-2.33 2.72-4.24 5.5-4.25 6.19-0.01 0.69-0.36 1.25-0.77 1.24-0.41 0-1.87 2.03-3.25 4.51-1.37 2.48-2.84 4.51-3.25 4.51-0.41-0.01-0.53 0.67-0.25 1.49 0.28 0.83 0.28 1.5 0 1.5-0.28 0-1.06-0.62-1.75-1.39-0.69-0.76-3.93-1.58-7.25-1.82-3.3-0.24-7.01-0.97-8.25-1.62-1.24-0.64-3.04-0.96-4-0.71-0.96 0.25-3.33 0.12-5.25-0.29-3.37-0.72-3.53-0.96-4.17-6.21-0.62-5.04-0.37-6.04 3.23-12.96 2.14-4.12 6.76-11.1 10.26-15.5 3.51-4.4 9.25-10.52 12.78-13.59 3.52-3.08 9.1-7.41 12.4-9.63 3.3-2.22 8.7-5.39 12-7.05 3.3-1.66 8.92-3.99 12.5-5.18 3.58-1.18 9.88-2.76 14-3.51 4.13-0.75 12.22-1.4 18-1.46zm-89.25 41c1.24-0.04 2.25 0.14 2.25 0.42 0 0.28-2.67 5.79-5.94 12.25-3.27 6.46-7.11 15.58-8.53 20.25-1.42 4.68-2.35 6.81-2.06 4.75 0.37-2.62 0.15-3.74-0.72-3.72-0.69 0.02-2.37 1.03-3.75 2.25-1.37 1.22-3.97 4.47-5.77 7.22-2.24 3.42-3.26 4.37-3.24 3 0.01-1.1 0.89-5.6 1.95-10 1.06-4.4 3.31-11.6 5-16 1.7-4.4 4.23-9.78 5.62-11.97 1.62-2.53 3.69-4.31 5.74-4.93 1.76-0.54 3.43-1.27 3.7-1.64 0.28-0.36 1.17-0.92 2-1.23 0.83-0.32 2.51-0.61 3.75-0.65zm93.75 15.39l-4.5 0.34c-2.47 0.19-4.72 0.78-5 1.32-0.28 0.54-2.19 1-4.26 1.03-2.07 0.02-4.32 0.4-5 0.85-0.68 0.44-2.78 1.03-4.67 1.32-1.88 0.28-3.91 0.96-4.5 1.51-0.59 0.56-2.31 1.49-3.82 2.08-1.51 0.6-2.74 0.74-2.74 0.33 0.01-0.41 2.6-2 5.75-3.53 3.16-1.53 6.64-2.96 7.74-3.17 1.1-0.22 2.22-0.48 2.5-0.59 0.28-0.11 0.84-0.14 1.25-0.08 0.41 0.07 0.75-0.33 0.75-0.88 0-0.55 0.79-0.84 1.75-0.64 0.96 0.2 2.51 0.08 3.45-0.25 0.93-0.34 3.86-0.39 11.3 0.36zm92.5 2.53c0.55 0 2.11 3.26 3.46 7.25 1.36 3.99 2.93 9.05 3.5 11.25 0.56 2.2 1 4.45 0.96 5-0.03 0.55-1.62-3.5-3.52-9-1.9-5.5-3.55-10.56-3.68-11.25-0.12-0.69-0.56-1.25-0.97-1.25-0.41 0-0.75-0.45-0.75-1 0-0.55 0.45-1 1-1zm-193.49 7.28c0.04 0.21-0.5 2.48-1.22 5.05-0.71 2.57-1.51 4.56-1.78 4.42-0.26-0.14 0.29-2.41 1.22-5.05 0.94-2.65 1.74-4.64 1.78-4.42zm-8.83 27.72c0.25 0.82 0.26 2.63 0.02 4-0.25 1.49-0.44 0.89-0.45-1.5-0.01-2.2 0.18-3.32 0.43-2.5zm1.09 13.5c0.15 3.88-0.2 7.45-0.77 8-0.71 0.68-1.03-0.42-1.03-3.5 0-2.47 0.35-6.07 0.77-8 0.65-2.98 0.8-2.46 1.03 3.5zm0.65 9.5c0.04 0 0.08 1.76 0.08 3.9 0 2.15-0.34 3.73-0.75 3.5-0.41-0.22-0.83-1.68-0.92-3.23-0.09-1.56 0.21-3.14 0.67-3.5 0.46-0.37 0.87-0.67 0.92-0.67z"/>
		<path id="Path 3" fill-rule="evenodd" class="s3" d="m255.68 188.49c1.55 0.21 3.61 0.4 4.57 0.44 1.36 0.05 1.63 0.68 1.21 2.82-0.3 1.51-2.32 6.46-4.5 11-2.18 4.54-4.3 8.15-4.71 8.02-0.41-0.13-2.66 0.55-5 1.5-3.23 1.31-4.25 2.27-4.25 3.98 0 1.77-0.94 2.57-4.46 3.75-2.65 0.89-4.47 1.09-4.48 0.5 0-0.55-1.16 0.12-2.56 1.5-1.4 1.37-2.54 1.94-2.53 1.25 0.02-0.69 1.36-2.26 2.99-3.5 1.63-1.24 2.76-2.59 2.5-3-0.25-0.41 0.55-1.43 1.79-2.26 1.24-0.83 1.8-1.52 1.25-1.53-0.55-0.01-0.1-0.69 1-1.51 1.1-0.82 1.66-1.48 1.25-1.47-0.41 0.01 0.15-1.33 1.25-2.98 1.1-1.65 2.02-3.34 2.05-3.75 0.02-0.41 1.37-3.11 3-6 1.62-2.89 3.82-6.12 4.88-7.19 1.25-1.26 2.9-1.81 4.75-1.57zm-26.36 1.76c3.64 0.05 4.51 0.42 4.59 1.91 0.06 1.27 0.63 1.68 1.84 1.31 0.96-0.29 2.99 0.38 4.5 1.5 1.77 1.3 2.74 1.58 2.72 0.78-0.02-0.69 0.92-2.15 4.22-5.25l-1.28 3c-0.71 1.65-1.88 3.56-2.6 4.25-0.72 0.69-0.98 1.81-0.57 2.5q0.73 1.24-0.5 0.5c-0.73-0.44-1.44-0.14-1.74 0.75-0.28 0.82-0.28 1.95 0 2.5 0.27 0.55-0.18 1.22-1 1.5q-1.49 0.51-0.77 2.25c0.58 1.39 0.42 1.54-0.73 0.75-1.15-0.79-1.31-0.64-0.73 0.75 0.51 1.21 0.27 1.75-0.77 1.75-0.82 0-1.5 0.45-1.5 1 0 0.55-1.45 2.69-3.22 4.75-1.77 2.06-6.83 7.34-11.25 11.74-4.42 4.39-7.92 8.33-7.78 8.75 0.14 0.42-0.54 1.32-1.5 2.01-1.6 1.14-1.62 1.1-0.25-0.54 0.82-0.99 1.16-1.78 0.75-1.75-0.41 0.02-1.99 0.87-3.5 1.88-1.51 1.01-3.43 2.16-4.25 2.56-0.82 0.4-0.45-0.09 0.84-1.09 1.28-1 4.12-3.38 6.29-5.31 2.18-1.93 3.94-3.84 3.92-4.25-0.03-0.41-1.74-0.48-3.8-0.16-2.06 0.33-3.98 0.95-4.25 1.39-0.28 0.43-4.1 1.57-8.5 2.53-4.4 0.96-8.45 2.06-9 2.44-0.55 0.39-3.7 1.43-7 2.33-3.3 0.89-7.24 1.87-8.75 2.17-1.51 0.3-2.75 1.11-2.75 1.8 0 0.69-2.36 1.84-5.25 2.56-2.89 0.72-8.18 1.94-11.75 2.72-3.57 0.77-8.3 1.64-10.5 1.94-2.2 0.29-4.68 0.75-5.5 1.02-0.82 0.27-1.5 1.14-1.5 1.93 0 1.09 2.05 1.59 8.5 2.06 4.68 0.34 9.62 0.78 11 0.98 1.37 0.21-1.89 0.3-7.25 0.21-5.36-0.1-9.75 0.17-9.75 0.58 0 0.41-2.14 0.5-4.75 0.19-2.61-0.3-8.01-1.2-12-2-6.18-1.23-7.65-1.24-10-0.06-1.51 0.76-3.31 2.11-4 3-0.88 1.14-2.22 1.47-4.5 1.1-1.79-0.28-6.77-2.42-11.07-4.75-4.3-2.33-8.94-5.13-10.31-6.23-2.19-1.75-2.37-2.34-1.44-4.75 0.59-1.51 2.08-3.24 3.32-3.85 1.92-0.94 3.77-0.3 12.75 4.42 5.77 3.03 14.1 6.63 18.5 8 4.4 1.37 10.25 2.74 13 3.06 4.9 0.56 4.92 0.55 1-0.42-2.2-0.55-6.93-1.95-10.5-3.1-3.58-1.16-9.88-3.86-14-6-4.13-2.14-8.63-4.76-10-5.82-1.68-1.3-2.17-2.27-1.5-2.96 0.55-0.57 2.35-1.13 4-1.25 1.65-0.12 4.24-1.26 5.75-2.53 1.51-1.26 3.2-2.3 3.75-2.3 0.55 0 1 0.68 1 1.5 0 1.21 0.79 1.07 4.08-0.75 2.25-1.24 4.5-3.26 5-4.5 0.51-1.24 1.37-2.25 1.92-2.25 0.55 0 1.19-0.79 1.41-1.75 0.23-0.96-0.11-2.32-0.75-3.02-0.67-0.72-0.73-1.25-0.16-1.23 0.55 0.02 0.1-0.68-1-1.55-1.89-1.49-1.78-1.54 2-0.95 2.2 0.34 4.45 1.25 5 2.02 0.55 0.77 1.9 1.39 3 1.37 1.72-0.03 1.76-0.13 0.29-0.71-0.94-0.37 3.11-0.52 9-0.32 7.67 0.26 12.56-0.1 17.21-1.28 3.57-0.91 9.2-2.91 12.5-4.45 3.3-1.55 9.04-5.13 12.75-7.97 3.71-2.84 7.2-5.16 7.75-5.16 0.55 0 1-0.68 1-1.5 0-0.82 0.79-1.87 1.75-2.31 0.96-0.45 2.65-0.72 3.75-0.61 1.1 0.12 4.47 0.32 7.5 0.45 3.02 0.13 7.3-0.11 9.5-0.55 2.2-0.43 4.23-1.33 4.51-2 0.34-0.83 1.85-1.02 4.73-0.6 3.53 0.52 4.21 0.35 4.15-1.04-0.06-1.32 0.85-1.65 4.43-1.59zm-52.44 61.75c0.48 0 0.71 0.45 0.5 1-0.21 0.55 0.18 1.03 0.87 1.07 0.69 0.04 0.35 0.46-0.75 0.93-1.1 0.47-3.24 0.89-4.75 0.93-1.51 0.04-2.75-0.38-2.75-0.93 0-0.55 0.45-0.78 1-0.5 0.55 0.27 1 0.05 1-0.5 0-0.55 0.79-0.99 1.75-0.98 1.5 0.01 1.53 0.15 0.25 0.98-1.28 0.83-1.25 0.97 0.25 0.98 0.96 0.01 1.75-0.66 1.75-1.48 0-0.82 0.4-1.5 0.88-1.5zm-9.88 3c1.1 0 2 0.45 2 1 0 0.55-0.9 0.89-2 0.75-1.1-0.14-2-0.59-2-1 0-0.41 0.9-0.75 2-0.75z"/>
		<path id="Path 4" fill-rule="evenodd" class="s4" d="m196.27 56.31c1.78 0.74 7.26 4 12.2 7.26 4.93 3.26 11.85 8.63 15.38 11.93 3.53 3.3 8.32 8.7 10.64 12 2.33 3.3 5.03 7.35 7.8 12l-2.62-3c-2.21-2.53-2.78-2.77-3.65-1.5-0.64 0.94-1.3 1.13-1.77 0.5-0.41-0.55-1.76-1.11-3-1.25-1.24-0.14-2.96 0.31-3.83 1-1.26 1-1.71 1-2.25-0.03-0.51-0.98-1.32-0.81-3.42 0.75-1.51 1.12-2.74 2.59-2.73 3.28 0.01 0.69-0.8 2.15-1.79 3.25-1 1.1-3.03 3.01-4.52 4.25-2.46 2.04-2.61 2.55-1.64 5.5 0.99 3.01 0.71 2.84-3.75-2.24-2.65-3.02-6.52-7.07-8.6-9-2.08-1.93-3.75-3.96-3.71-4.51 0.04-0.55 2.53-4.26 5.53-8.25 3-3.99 6.06-7.59 6.8-8 0.74-0.41 2.05-1.88 2.92-3.25 0.86-1.38 1.45-3.63 1.31-5-0.14-1.38-0.55-3.06-0.91-3.75-0.36-0.69-2.35-2.38-4.41-3.76-2.06-1.38-5.89-3.86-8.5-5.5-2.61-1.65-4.74-3.22-4.73-3.5 0.01-0.29 1.47 0.08 3.25 0.82zm39.65 11.69c0.6 0 2.94 2.14 5.22 4.75 2.28 2.61 6.05 7.67 8.37 11.25 2.33 3.58 5.41 8.86 9.49 17l-2.25-0.03c-1.24-0.02-4.28 0.1-11.25 0.53l-3.37-6c-1.85-3.3-6.02-9.49-9.25-13.75-3.23-4.26-5.88-7.97-5.88-8.25 0-0.28 1.57-0.72 3.5-1 2.46-0.35 3.63-1.09 3.92-2.5 0.24-1.1 0.91-2 1.5-2zm-182.42 42.5l0.5 4.46c0.47 4.16 0.74 4.52 4 5.21 1.92 0.41 4.29 0.54 5.25 0.29 0.96-0.25 2.76 0.07 4 0.71 1.24 0.65 4.95 1.36 8.25 1.59 3.3 0.22 6.1 0.48 6.23 0.57 0.12 0.09-0.47 2.87-1.32 6.17-0.85 3.3-1.31 7.8-1.02 10 0.36 2.81 0.26 3.4-0.36 2-0.71-1.6-0.91-1.2-0.98 2-0.06 2.97-0.33 3.61-1.05 2.5q-0.97-1.5-0.98-0.25c-0.02 0.85-1.79 1.25-5.52 1.25-3.96 0-5.94-0.49-7.09-1.75-1.5-1.65-1.79-1.65-4.75-0.08-1.77 0.94-4.26 1.44-5.66 1.14-1.64-0.35-3.44 0.2-8 3.69v-4.5c0-2.47 0.67-7.99 1.49-12.25 0.83-4.26 2.74-11.13 4.25-15.25zm125 3.5c0.97 0 1.51 0.98 1.52 2.75 0.02 2.66-0.03 2.69-1.47 0.75-0.81-1.1-1.5-2.34-1.51-2.75-0.02-0.41 0.64-0.75 1.46-0.75zm-133.93 6.03c0.61-0.02 0.93 1.36 0.74 3.22-0.19 1.79-0.77 6.4-1.3 10.25-0.53 3.85-1.01 11.05-1.06 16-0.06 4.95-0.29 8.44-0.52 7.75-0.25-0.74-1.65 0.27-3.45 2.5-1.66 2.06-3.22 4.87-3.47 6.25-0.24 1.37-1.14 3.06-1.98 3.75-1.32 1.09-1.62 0.5-2.28-4.5-0.41-3.16-0.72-10.93-0.65-28.75l3.95-6c2.18-3.3 5.08-7 6.45-8.22 1.38-1.22 2.99-2.23 3.57-2.25zm69.15 4.27c0.2 1.21-0.33 3.21-1.18 4.45-0.84 1.24-1.31 2.93-1.04 3.75 0.28 0.82 0.05 1.28-0.5 1-0.55-0.28-1.74 1.86-2.64 4.75-1.46 4.65-1.75 4.99-2.5 3-0.47-1.24-1.19-2.45-1.61-2.68-0.41-0.24-1.24-0.13-1.85 0.25-0.61 0.37-1.83 2.03-2.71 3.68-1.28 2.39-1.61 2.6-1.62 1-0.01-1.1 0.8-3.8 1.81-6 1.01-2.2 3.52-6.03 5.59-8.5 2.07-2.47 4.69-5.04 5.83-5.7 1.81-1.06 2.11-0.93 2.42 1zm-29.29-0.82c0.05 0.16-0.44 1.8-1.08 3.65-0.94 2.67-1.2 2.9-1.26 1.12-0.05-1.24 0.44-2.88 1.08-3.65 0.64-0.77 1.21-1.27 1.26-1.12zm170.26 3.63c0.16 0.21 0.73 5.57 1.28 11.89 0.59 6.79 0.65 14.37 0.15 18.5-0.81 6.64-0.86 6.33-1.01-6-0.08-7.15-0.61-15.03-1.17-17.5-0.55-2.47-0.68-5.13-0.28-5.89 0.41-0.77 0.87-1.22 1.03-1zm-111.07 1.98c0.23 0.54 1.61 0.5 3.38-0.09q3-1 3 0c0 0.55-0.78 1.05-1.75 1.11-0.96 0.07-2.92 0.26-4.36 0.44-2.04 0.26-2.4 0.03-1.64-1.02 0.54-0.75 1.15-0.94 1.37-0.44zm-62.14 1.91c0.17 0 0.24 1.08 0.17 2.4-0.08 1.32-0.5 2.78-0.92 3.25-0.43 0.47-0.77 0.06-0.75-0.9 0.01-0.96 0.29-2.43 0.61-3.25 0.32-0.82 0.72-1.5 0.89-1.5zm51.45 3.58c0.32 0.26-0.55 1.58-1.93 2.93-1.61 1.58-2.5 1.95-2.5 1.06 0-0.76 0.34-1.2 0.75-0.97 0.42 0.22 1.29-0.48 1.93-1.55 0.65-1.08 1.44-1.74 1.75-1.47zm-74.43 69.42c0.28 0 1.21 1.46 3.63 6.5l-2.04-2.5c-1.12-1.38-2.05-2.84-2.06-3.25-0.02-0.41 0.2-0.75 0.47-0.75z"/>
		<path id="Path 5" fill-rule="evenodd" class="s5" d="m152.5 30.47c6.24 0.19 15.33 1.26 21 2.48 5.5 1.19 14.16 3.71 19.25 5.6 5.09 1.9 9.03 3.9 8.75 4.45-0.28 0.55-1.18 1-2 1-0.82 0-1.72 0.9-2 2-0.29 1.17-1.33 2-2.5 2-1.1 0-2.22 0.45-2.5 1-0.28 0.55 0.85 1.67 2.5 2.5 1.65 0.83 3 1.73 3 2 0 0.27-2.81-0.84-6.25-2.49-3.44-1.64-10.53-4.07-15.75-5.41-5.22-1.33-13.78-2.74-19-3.12-5.76-0.42-13.44-0.22-19.5 0.5-5.5 0.66-14.05 2.49-19 4.07-4.95 1.58-12.15 4.52-16 6.55-3.85 2.02-9.25 5.15-12 6.95-2.75 1.8-8.33 6.35-12.4 10.11-4.07 3.76-9.43 9.54-11.91 12.84-2.48 3.3-4.95 6.45-5.47 7-0.53 0.55-0.46-0.01 0.16-1.25 0.61-1.24 1.01-2.51 0.87-2.83-0.14-0.31-1.94-0.31-4 0-2.06 0.32-3.75 0.92-3.74 1.33 0.01 0.41-1.73 1.2-7.7 2.75l3.48-5.5c1.92-3.03 6.12-8.65 9.34-12.5 3.22-3.85 9.12-9.73 13.11-13.08 3.99-3.34 9.29-7.44 11.76-9.11 2.47-1.68 7.2-4.41 10.5-6.08 3.3-1.67 9.38-4.38 13.5-6.02 4.13-1.65 12.22-3.93 18-5.08 5.78-1.14 11.63-2.28 13-2.53 1.38-0.25 7.45-0.31 13.5-0.13zm0.5 14.02c7.97 0.2 16.75 0.88 19.5 1.5 2.75 0.62 4.78 1.3 4.5 1.51-0.28 0.21-4.55-0.31-9.5-1.17-6.61-1.15-12.45-1.4-22-0.97-7.15 0.33-14.35 0.89-16 1.25-1.65 0.37-2.78 0.4-2.5 0.07 0.28-0.32 2.97-1.03 6-1.58 3.03-0.54 12.03-0.82 20-0.61zm-35.5 4.59c0.55-0.01 0.33 0.36-0.5 0.83-0.83 0.47-2.62 1.12-4 1.46-2.08 0.51-2 0.37 0.5-0.83 1.65-0.8 3.45-1.46 4-1.46zm33 2.1c6.05 0 14.15 0.66 18 1.45 3.85 0.8 8.01 2.11 9.25 2.91 1.24 0.8 2.23 2.02 2.21 2.71-0.03 0.69 0.67 1.92 1.54 2.75 0.87 0.83 1.57 2.17 1.55 3-0.03 0.83-0.91 3.3-1.96 5.5-1.05 2.2-2.63 6.59-3.5 9.75-0.88 3.16-2.15 5.76-2.84 5.78-0.69 0.02-0.12 1 1.25 2.17 2.03 1.73 2.12 1.99 0.5 1.39-1.1-0.41-4.7-1.48-8-2.38-4.06-1.1-10.04-1.63-18.5-1.63-8.61 0-14.52 0.53-19 1.71-3.58 0.95-9.86 3.4-13.96 5.46-5.11 2.57-10.32 6.43-16.5 12.24-4.97 4.67-8.15 7.37-7.07 6 1.09-1.37 3.11-3.79 7.03-8.25l-2.5 1.24c-1.54 0.77-3.85 0.97-6 0.55-1.92-0.39-5.08-1.67-7-2.86-1.92-1.19-3.84-2.05-4.25-1.91-0.41 0.13-2.1-1.11-3.75-2.76q-3-3-3-6c0-2.13 1.44-4.73 5-9 2.75-3.3 5.52-6 6.16-6 0.64 0 2.11-1.01 3.27-2.25 1.15-1.24 4.57-3.88 7.59-5.87 3.01-2 7.95-4.77 10.98-6.16 3.03-1.4 8.42-3.52 12-4.73 3.58-1.21 9.65-2.79 13.5-3.51 3.85-0.72 11.95-1.31 18-1.3zm-52.86 6.82c0.2 0 0.38 0.11 0.41 0.25 0.02 0.14-3.02 2.27-6.75 4.75-3.74 2.47-11.07 8.77-16.3 14-5.22 5.22-7.7 7.3-5.5 4.6 2.2-2.69 6.7-7.34 10-10.33 3.3-2.98 8.65-7.19 11.89-9.35 3.24-2.16 6.05-3.92 6.25-3.92zm113.27 3.71c0.87 1.21 1.93 2 2.34 1.75 0.41-0.25 4.95 3.7 10.08 8.79 5.13 5.09 11.4 12.4 13.93 16.25 2.52 3.85 4.92 7.9 5.33 9 0.4 1.1-1.7-1.6-4.67-6-2.97-4.4-8.79-11.37-12.91-15.5-4.13-4.12-9.18-8.85-11.22-10.5-2.04-1.65-3.73-2.89-3.75-2.75-0.02 0.14-0.49 0.03-1.04-0.25-0.55-0.27-0.7-1.06-0.34-1.75 0.46-0.89 1.11-0.61 2.25 0.96zm-61.41 38.54c2.2-0.01 3.24 0.19 2.31 0.44-0.92 0.25-2.72 0.26-4 0.02-1.27-0.24-0.51-0.45 1.69-0.46zm1 11c2.2-0.01 3.24 0.19 2.31 0.44-0.92 0.25-2.72 0.26-4 0.02-1.27-0.24-0.51-0.45 1.69-0.46zm-101.74 5.25c0.74 0.7 0.47 3.26-0.9 8.5-1.08 4.13-2.23 10.43-2.56 14-0.33 3.57-0.95 7.63-1.38 9-0.44 1.42-0.56-0.75-0.28-5 0.27-4.12 1.17-11.1 2-15.5 0.83-4.4 1.92-8.11 2.43-8.25 0.51-0.14 0.64-1.04 0.28-2q-0.67-1.8 0.41-0.75zm158.15 27l1.41 3c0.77 1.65 1.24 3.22 1.04 3.5-0.2 0.28-0.55 0.28-0.78 0-0.23-0.28-0.7-1.85-1.04-3.5z"/>
		<path id="Path 6" fill-rule="evenodd" class="s6" d="m209.43 116.31c0.59 0.19 2.29 2.11 3.79 4.27 2.69 3.88 2.71 4.08 2.8 37.92l-2.52-2.5c-1.72-1.7-3.35-5.54-5.12-12-1.42-5.22-3.44-10.85-4.47-12.5-1.04-1.65-1.56-3.41-1.15-3.91 0.41-0.5 0.29-0.63-0.26-0.29-0.55 0.34-1.56-0.49-2.25-1.84-1.14-2.25-1.01-2.58 1.5-3.86 1.51-0.76 3.62-2.35 4.68-3.52 1.06-1.17 2.41-1.97 3-1.77zm-31.18 13.83c0.96-0.08 1.74 0.42 1.73 1.11-0.01 0.91 0.95 1.04 3.5 0.5 3.48-0.74 3.56-0.68 7.02 5.25 1.93 3.3 3.94 7.69 4.47 9.75 0.53 2.06 1.4 6.68 1.93 10.25 0.76 5.16 0.6 8.35-0.81 15.5-1.09 5.52-3.09 11.51-5.18 15.5-1.88 3.57-5.44 8.63-7.91 11.25-2.48 2.62-4.39 4.99-4.25 5.26 0.14 0.27-0.09 0.26-0.5-0.01-0.41-0.28-1.43 0.15-2.25 0.95-0.82 0.8-4.2 2.76-7.5 4.35-3.3 1.6-8.93 3.83-12.5 4.96-3.57 1.14-9.2 2.38-12.5 2.75-3.4 0.39-6.87 0.26-8-0.29-1.1-0.54-4.93-1.51-8.5-2.18-3.76-0.69-9.86-2.95-14.47-5.37-5.12-2.67-10.14-6.35-14-10.25-3.35-3.38-7.65-9.16-9.69-13-2.01-3.81-4.6-9.73-5.75-13.17-1.15-3.44-2.09-7.38-2.09-11.25l2.75 2.03c1.51 1.12 3.54 2.02 4.5 2 1.4-0.02 1.77-0.97 1.83-4.78 0.04-2.61 0.33-4.07 0.63-3.25 0.3 0.82 1.17 2.18 1.92 3 0.75 0.82 2.49 4.65 3.86 8.5 1.37 3.85 4.49 9.93 6.93 13.5 2.44 3.57 5.48 7.4 6.76 8.5 1.28 1.11 4.57 3.44 7.32 5.18 2.75 1.75 6.24 3.44 7.75 3.75 1.51 0.31 2.75 1.02 2.75 1.57 0 0.55 1.01 0.99 2.25 0.98 1.24-0.01 2.82 0.56 3.52 1.25 0.69 0.7 1.26 0.82 1.25 0.27-0.01-0.55 2.12-1.06 4.73-1.12 2.61-0.07 6.77-0.37 9.25-0.66 2.47-0.29 5.85-1.02 7.5-1.62 1.65-0.61 3.68-1.54 4.5-2.09 0.82-0.54 3.07-1.83 5-2.87 1.93-1.03 4.39-3.17 5.47-4.76 1.09-1.58 1.87-3.22 1.75-3.63-0.12-0.41 0.23-0.53 0.78-0.25 0.55 0.28 2.69-2.96 4.75-7.2 3.62-7.42 3.75-8.07 3.73-18.25-0.02-9.52-0.28-11.06-2.75-15.8-1.5-2.89-4.08-6.82-5.73-8.75-1.72-2-2.74-4.11-2.39-4.92 0.34-0.78 1.57-1.62 2.75-1.87 1.18-0.24 2.93-0.5 3.89-0.57zm-15.05 16.35c0.72 0.24 2.09 2.02 3.05 3.97 0.96 1.95 1.75 4.44 1.75 5.54 0 1.1 0.45 2.22 1 2.5 0.55 0.28 1.01 1.96 1.01 3.75 0.01 1.79-0.67 5.28-1.51 7.75-0.83 2.47-2.65 5.85-6.56 10.5l-0.02-17.22c-0.01-13.66 0.26-17.13 1.28-16.79zm-46.76 1.47l0.56 5.77c0.31 3.17 1.39 7.12 2.39 8.77 1.47 2.4 1.99 2.7 2.65 1.5 0.63-1.16 1.23-0.63 2.64 2.27 1 2.08 2.04 3.76 2.32 3.75 0.27-0.01 1.85 1.09 3.5 2.45 2.96 2.43 2.97 2.46 0.67 2.75-2.3 0.28-2.29 0.31 0.77 3.28 2.99 2.89 3.1 2.92 3.06-1.5l2.75 2.03c1.51 1.12 3.54 2.02 4.5 2 0.96-0.01 1.75-0.48 1.75-1.03 0-0.55 1.69-1.02 3.75-1.04 2.29-0.03 4.33 0.6 5.25 1.63 0.82 0.92 2.4 1.98 3.5 2.36 1.73 0.59 1.4 1.02-2.5 3.24-3.77 2.14-5.68 2.53-11.75 2.43-3.99-0.07-7.24-0.34-7.23-0.62 0.01-0.28-1.9-0.87-4.25-1.33-2.35-0.45-6.07-2.12-8.27-3.7-2.2-1.59-5.43-4.81-7.17-7.18-1.74-2.36-3.88-5.98-4.75-8.04-0.87-2.06-1.58-4.88-1.58-6.25 0-1.38-0.34-2.5-0.75-2.5-0.41 0-0.71-1.24-0.66-2.75 0.05-1.51 0.12-3.04 0.15-3.4 0.03-0.35 2-1.6 4.38-2.77z"/>
		<path id="Path 7" class="s7" d="m234.02 122.49c-0.02 2.06-0.96 2.93-5.27 4.86-2.89 1.29-5.52 3.2-5.85 4.25-0.33 1.04-0.03 4.15 0.67 6.9 0.71 2.75 1.59 7.25 1.98 10 0.38 2.75 1.2 5.3 1.82 5.67 0.82 0.49 0.79 1.03-0.11 2-0.69 0.73-0.91 1.63-0.5 2.01 0.41 0.37-0.83 1.18-2.76 1.79-2.88 0.92-4.28 0.8-7.87-0.68-2.54-1.04-5.14-3.04-6.22-4.79-1.02-1.65-1.88-3.9-1.91-5-0.04-1.1-0.91-3.8-1.95-6-1.03-2.2-1.69-4.34-1.47-4.75 0.23-0.41-0.03-0.75-0.58-0.75-0.55 0-0.7-0.56-0.34-1.25 0.36-0.69 0.36-0.91 0-0.5-0.36 0.41-1.8-0.49-3.19-2-1.4-1.51-2.54-2.3-2.54-1.75 0 0.55 0.93 1.9 2.06 3 1.14 1.1 2.91 4.03 3.95 6.5 1.04 2.47 2.15 6.19 2.47 8.25 0.5 3.16 0.31 3.75-1.21 3.75-0.99 0-2.32 0.56-2.95 1.25-0.89 0.97-1.4 0.23-2.27-3.25-0.61-2.47-1.65-5.74-2.3-7.25-0.65-1.52-1.52-2.75-1.93-2.75-0.41 0-0.44 0.56-0.06 1.25 0.37 0.69 1.27 4.4 1.99 8.25 0.73 3.85 1.31 9.47 1.29 12.5-0.02 3.03-0.88 8.65-1.93 12.5-1.44 5.31-1.55 6.52-0.45 5 0.79-1.1 1.44-2.34 1.43-2.75-0.01-0.41 0.82-1.99 1.85-3.5 1.37-2.01 3.31-3.08 7.25-4 2.96-0.68 8.19-2.37 11.63-3.75 6.08-2.43 6.25-2.45 6.25-0.5 0 1.93 0.15 1.94 4.25 0.46 2.34-0.85 4.47-1.17 4.75-0.73 0.27 0.45 1.74 1.36 3.25 2.04 1.51 0.68 3.42 1.23 4.25 1.23 0.89 0 1.5-0.92 1.51-2.25 0-1.47 1.21-3.03 3.5-4.5 1.92-1.24 4.16-2.03 4.99-1.75 0.95 0.32 1.54 1.88 1.62 4.25 0.1 3.33 0.22 3.13 1.07-1.75 0.52-3.03 0.75-10.45 0.49-16.5-0.25-6.05-1.18-13.36-2.07-16.25-1.47-4.81-1.86-5.25-4.61-5.25-1.91 0-3.82-0.89-5.25-2.45-1.24-1.35-3.7-2.71-5.48-3.02-2.94-0.51-3.24-0.33-3.25 1.96zm22.89 9.25c-0.07 0.42-0.18 8.05-0.26 16.95-0.08 8.9 0.2 15.2 0.64 14 0.67-1.87 1.26-2.09 4-1.48 1.76 0.39 4.11 0.99 5.21 1.32 1.64 0.51 2.14 0.02 2.76-2.71 0.42-1.82 0.71-6.47 0.65-10.32-0.06-3.85-0.45-9.47-0.87-12.5-0.42-3.02-0.8-4.82-0.85-4-0.08 1.13-0.42 1.23-1.4 0.39-0.71-0.62-3.2-1.41-5.53-1.77-2.33-0.35-4.29-0.3-4.35 0.12zm-111.91 4.98c-1.38 0.25-2.93 0.83-3.47 1.29-0.53 0.46 1.05 0.41 3.5-0.11 2.46-0.53 5.37-0.69 6.47-0.36 1.61 0.48 1.71 0.39 0.5-0.46-0.83-0.58-2.18-0.99-3-0.93-0.83 0.07-2.63 0.32-4 0.57zm26.67 34.78c-1.82 3.74-3.07 5.26-3.92 4.76q-1.24-0.73-0.5 0.5c0.41 0.68 0.3 1.24-0.25 1.24-0.55 0-0.78 0.45-0.5 1 0.27 0.55-1.41 2.51-3.75 4.35-2.34 1.85-5.83 4.21-7.75 5.25-2.77 1.49-5.6 1.89-13.5 1.89-5.5 0.01-10.9-0.4-12-0.89-1.1-0.5-2.45-0.96-3-1.02-0.55-0.06-3.81-1.57-7.25-3.35-3.44-1.78-6.93-3.23-7.75-3.23-0.83 0-1.5 0.68-1.5 1.5 0 0.82 1.98 3.64 4.4 6.25 2.42 2.61 6.7 5.99 9.5 7.5 3.38 1.82 7.55 3.02 12.35 3.56 5.03 0.56 9.24 0.4 13.75-0.51 3.57-0.73 8.86-2.67 11.75-4.31 2.89-1.65 6.82-4.56 8.75-6.49 1.92-1.93 3.72-4.4 4-5.5 0.27-1.1 0.95-2 1.5-2 0.55 0 1-0.9 1-2 0-1.1 0.45-2 1-2 0.55 0 0.77-0.68 0.5-1.5-0.28-0.82-0.05-1.5 0.5-1.5 0.55 0 0.8-0.79 0.56-1.75-0.24-0.96-0.69-2.99-1-4.5-0.37-1.8-1.2-2.75-2.39-2.75-1.24 0-2.71 1.8-4.5 5.5zm-92.03 1.5c0.34 1.93 1.24 4.4 2 5.5 0.99 1.44 1.37 1.58 1.34 0.5-0.02-0.82-0.92-3.3-1.99-5.5l-1.97-4zm-26.92 6.25c-0.39 1.51-1.17 2.53-1.72 2.25q-1-0.5 0 2.5c0.55 1.65 1.02 3.11 1.03 3.25 0.02 0.14 0.33 1.38 0.7 2.75 0.38 1.38 2.2 5.65 4.07 9.5 1.86 3.85 5.25 9.57 7.54 12.72 2.29 3.14 4.61 5.59 5.16 5.43 0.55-0.15 1.39-1.6 1.87-3.22 0.52-1.78 2.48-4 5-5.65 3.22-2.12 4.19-2.4 4.38-1.25 0.14 0.81 0.59 1.34 1 1.19 0.42-0.16 1.88-0.8 3.25-1.42 1.38-0.62 4.63-1.73 7.24-2.47 2.6-0.73 5.08-1.05 5.5-0.71 0.42 0.34 3.01 1.82 5.76 3.3 2.75 1.48 4.1 2.11 3 1.4-1.1-0.71-5.48-4.79-9.75-9.06-4.26-4.27-7.52-8.21-7.25-8.76 0.28-0.55-0.17-1-1-1-0.82 0-1.27-0.45-1-1 0.28-0.55-0.17-1.22-1-1.5-0.88-0.29-1.19-1.02-0.76-1.75q0.74-1.24-0.5-0.5c-0.7 0.42-1.78 0.08-2.49-0.79-0.82-1.02-2.88-1.53-6-1.5-2.61 0.02-4.75-0.41-4.75-0.96 0-0.61-1.85-0.77-4.75-0.4-2.61 0.33-5.08 1.11-5.48 1.75-0.41 0.63-0.73 0.7-0.73 0.15 0-0.55-0.67-0.1-1.49 1-0.81 1.1-1.49 1.55-1.51 1-0.01-0.55-0.81 0.13-1.78 1.5l-1.76 2.5c-0.95-11.63-1.21-12.42-1.78-10.25zm-6.67 6.41c-0.98 0.34-1.38 1.76-1.25 4.42 0.14 2.65-0.44 4.73-1.8 6.42l-2 2.5c4.86 9.69 7.67 14.62 9.39 17.22 1.71 2.59 3.34 4.35 3.61 3.9 0.28-0.45 2.42-1.11 4.75-1.47 2.6-0.4 4.25-0.26 4.25 0.35 0 0.55 0.79 0.83 1.75 0.62 0.97-0.21 2.81 0.58 4.11 1.75 1.29 1.17-0.64-1.92-4.29-6.87-3.65-4.95-6.62-9.56-6.6-10.25 0.02-0.69-0.3-1.24-0.72-1.22-0.41 0.01-2.61-4.04-4.89-9-2.27-4.97-4.3-8.99-4.5-8.95-0.19 0.04-1.01 0.3-1.81 0.58zm165.04 51.35c-2.35 1.65-4.23 3.22-4.18 3.5 0.05 0.27 2.12-0.86 4.59-2.51 2.48-1.65 4.5-3.22 4.5-3.5 0-0.28-0.14-0.5-0.32-0.5-0.18 0-2.24 1.35-4.59 3.01z"/>
		<path id="Path 8" fill-rule="evenodd" class="s8" d="m251.72 211.41c0.24 0.6-1.11 3.34-3.01 6.09-1.91 2.75-5.83 7.7-8.73 11-2.9 3.3-8.02 8.42-11.37 11.38-3.36 2.96-9.04 7.29-12.61 9.62-3.57 2.34-9.2 5.6-12.5 7.25-3.3 1.65-9.38 4.21-13.5 5.7-4.13 1.48-11.78 3.63-17 4.78-6.77 1.49-13.24 2.11-22.5 2.16-9.12 0.06-15.54-0.47-21.5-1.76-4.67-1.01-11.99-2.92-16.25-4.24-4.26-1.31-7.75-2.84-7.75-3.39 0-0.55 0.45-0.77 1-0.5 0.55 0.27 1.56-0.23 2.25-1.12 0.69-0.89 2.49-2.24 4-3 2.34-1.18 3.83-1.17 10 0.04 3.99 0.77 8.82 1.68 10.75 2.01 1.93 0.32 8.68 0.6 15 0.61 6.32 0.01 15.55-0.64 20.5-1.45 4.95-0.8 13.5-3.18 19-5.28 5.5-2.1 13.15-5.71 17-8.01 3.85-2.3 10.49-7.14 14.75-10.74 4.26-3.61 7.64-7.12 7.5-7.81-0.14-0.69 0.43-1.12 1.25-0.97 0.82 0.15 2.52-0.75 3.78-2 1.25-1.25 2.28-1.83 2.28-1.28 0.01 0.59 1.83 0.39 4.48-0.5 3.64-1.22 4.42-1.91 4.23-3.71-0.19-1.75 0.68-2.61 4.13-4.09q4.36-1.88 4.82-0.79zm-14.74-0.41c0.38 0 0.65 0.63 0.6 1.4-0.04 0.78-0.42 1.23-0.83 1-0.41-0.22-1.16 0.39-1.65 1.35-0.5 0.96-0.93 2.2-0.97 2.75-0.04 0.55-0.65 1.04-1.35 1.09-0.82 0.05-0.42-1.29 1.12-3.75 1.32-2.11 2.71-3.84 3.08-3.84zm-23.73 19.14c0.96-0.08 1.76 0.2 1.77 0.61 0.01 0.41-1.45 2.11-3.25 3.77-1.8 1.66-4.62 3.95-6.27 5.08-1.65 1.13-6.04 3.71-9.75 5.73-3.71 2.02-6.97 3.67-7.25 3.67-0.28 0-2.07 0.68-4 1.5-1.93 0.82-3.95 1.28-4.5 1-0.55-0.28-1-0.05-1 0.5 0 0.55-0.68 0.78-1.5 0.5-0.82-0.28-1.5-0.05-1.5 0.5 0 0.55-0.9 0.78-2 0.5-1.1-0.28-2-0.16-2 0.25 0 0.41-0.56 0.84-1.25 0.96-0.69 0.11-4.85 0.5-9.25 0.88-4.4 0.37-11.82 0.36-16.5-0.03-6.42-0.53-8.5-1.05-8.5-2.14 0-0.79 0.68-1.66 1.5-1.93 0.82-0.27 3.3-0.73 5.5-1.02 2.2-0.3 6.93-1.17 10.5-1.94 3.57-0.78 8.86-2 11.75-2.72 2.89-0.72 5.25-1.87 5.25-2.56 0-0.69 1.24-1.5 2.75-1.8 1.51-0.3 5.45-1.28 8.75-2.17 3.3-0.9 6.45-1.95 7-2.34 0.55-0.39 4.72-1.55 9.27-2.57 4.55-1.03 8.26-2.21 8.25-2.62-0.01-0.41 0.99-0.91 2.23-1.11 1.24-0.2 3.04-0.43 4-0.5z"/>
		<path id="Path 9" class="s9" d="m246.27 163.23c-2 1.4-3.24 3.13-3.25 4.52-0.01 1.33-0.64 2.25-1.52 2.25-0.82 0-2.74-0.55-4.25-1.23-1.51-0.68-2.98-1.59-3.25-2.04-0.28-0.44-2.32-0.17-4.55 0.61-3.79 1.34-4.06 1.31-4.25-0.46-0.19-1.78-0.52-1.75-6.45 0.62-3.44 1.38-8.67 3.07-11.63 3.75-3.72 0.86-5.92 2.02-7.12 3.75-0.96 1.38-2.02 3.51-2.37 4.75-0.35 1.24-1.08 2.03-1.63 1.75-0.55-0.27-0.95-0.16-0.88 0.25 0.06 0.41 0.07 1.43 0.02 2.25-0.05 0.82-1.88 4.2-4.06 7.5-2.18 3.3-4.98 7.35-6.22 9-1.8 2.38-1.86 2.65-0.31 1.28 1.07-0.95 2.51-1.74 3.2-1.75 0.69-0.02 1.25-0.71 1.25-1.53 0-0.82 0.79-1.87 1.75-2.31 0.96-0.45 2.65-0.72 3.75-0.61 1.1 0.12 4.47 0.32 7.5 0.45 3.02 0.13 7.3-0.11 9.5-0.55 2.2-0.43 4.31-1.28 4.69-1.88 0.41-0.65 2.34-0.9 4.73-0.6 3.37 0.42 4.04 0.21 4.06-1.25 0.02-1.44 0.81-1.71 4.52-1.5 3.53 0.2 4.5 0.63 4.5 2 0 1.21 0.54 1.58 1.75 1.21 0.96-0.29 2.87 0.33 4.25 1.39 2.48 1.91 2.51 1.91 3.58-0.21 0.6-1.18 1.61-2.03 2.25-1.89 0.64 0.14 1.09-0.09 0.98-0.5-0.1-0.41 0.61-2.55 1.57-4.75 0.96-2.2 2.42-6.93 3.25-10.5 0.82-3.57 1.35-8.52 1.18-10.99-0.21-3.03-0.8-4.58-1.81-4.77-0.82-0.15-2.95 0.74-4.73 1.99zm11.38-1.48c-0.25 0.41-1.59 5.25-2.97 10.75-1.39 5.5-3.5 12.48-4.69 15.5l-2.17 5.5c4.86-5.16 5.7-5.43 9.43-4.92 2.34 0.32 4.48 0.74 4.75 0.94 0.27 0.19 1.05-1.08 1.72-2.83 0.68-1.76 2.13-7.69 3.24-13.19 1.11-5.5 1.91-10.05 1.78-10.1-0.13-0.06-1.81-0.63-3.74-1.27-1.93-0.64-4.27-1.16-5.2-1.15-0.94 0.01-1.9 0.36-2.15 0.77zm-16.48 39c-0.67 1.51-0.99 2.98-0.71 3.25 0.28 0.28-0.27 1.1-1.22 1.82-0.96 0.73-1.18 1.07-0.49 0.75 0.69-0.31 1.24-0.01 1.23 0.68-0.01 0.69 0.64 0.35 1.44-0.75 0.87-1.2 1.09-2.4 0.55-3-0.52-0.59-0.49-1.72 0.07-2.75 0.53-0.96 0.83-1.98 0.66-2.25-0.16-0.28-0.85 0.73-1.53 2.25zm-149.33 4.04c-2.39 0.74-5.46 1.86-6.84 2.5-1.37 0.63-2.84 1.27-3.25 1.43-0.41 0.15-0.86-0.38-1-1.19-0.2-1.15-1.18-0.88-4.49 1.25-2.34 1.5-4.24 3.4-4.24 4.22 0.01 0.82-0.56 2.34-1.25 3.36-1.08 1.59-0.9 2.29 1.23 4.81 1.38 1.62 3.24 3.71 4.14 4.64 0.9 0.93 3.72 3.6 6.25 5.94 2.54 2.34 4.83 4.25 5.11 4.25 0.28 0 1.96 1.06 3.75 2.35 1.79 1.3 3.93 2.69 4.75 3.09 0.83 0.4 0.38-0.18-1-1.3-1.68-1.37-2.17-2.37-1.5-3.06 0.55-0.57 2.35-1.13 4-1.25 1.65-0.12 4.24-1.26 5.75-2.53 1.51-1.26 3.2-2.3 3.75-2.3 0.55 0 1 0.68 1 1.5 0 1.21 0.79 1.07 4.08-0.75 2.25-1.24 4.5-3.26 5-4.5 0.51-1.24 1.37-2.25 1.92-2.25 0.55 0 1.19-0.79 1.41-1.75 0.23-0.96-0.11-2.32-0.75-3.02-0.67-0.72-0.73-1.25-0.16-1.23 0.55 0.02 0.1-0.63-1-1.45-1.78-1.32-1.81-1.49-0.25-1.52 0.96-0.02 1.53-0.48 1.25-1.03-0.28-0.55-0.84-0.79-1.25-0.54-0.41 0.26-3.9-1.16-7.75-3.14-3.85-1.98-8.65-4.56-10.66-5.74-3.36-1.96-4-2.02-8-0.79zm138.7 12.96c-1.6 2.06-2.04 2.99-0.97 2.07 1.06-0.92 2.34-1.6 2.85-1.5 0.5 0.1 0.98-0.83 1.06-2.07 0.08-1.24 0.1-2.25 0.06-2.25-0.05 0-1.4 1.69-3 3.75zm-105.13 0.5c0.32 0.96 1.49 1.75 2.59 1.75 1.1 0 2.23-0.45 2.5-1 0.28-0.55-0.18-0.77-1-0.5-0.82 0.28-2.22-0.06-3.09-0.75-1.35-1.06-1.5-0.98-1 0.5zm-68.16 0.41c-1.79 0.19-3.25 0.9-3.25 1.59 0.01 0.69 2.74 4.4 6.08 8.25 3.35 3.85 9.08 9.56 12.75 12.69l6.67 5.69c1.94-4.56 3.51-6.38 4.75-6.99 1.64-0.8 2.86-0.8 4.5 0 1.86 0.92 2.16 0.85 1.75-0.39-0.27-0.82-0.84-1.29-1.25-1.03-0.41 0.25-2.42-0.98-4.45-2.75-2.04-1.77-3.73-2.99-3.76-2.72-0.03 0.28-2.07-1.64-4.55-4.25-2.79-2.95-4.21-5.22-3.75-6q0.73-1.24-0.5-0.5c-0.7 0.42-2.1-0.01-3.22-1-1.09-0.96-1.66-2.2-1.26-2.75q0.71-0.99-0.77-0.03c-0.82 0.54-2.05 1.1-2.74 1.25-0.69 0.15-1.25-0.17-1.25-0.72 0-0.55-0.56-0.93-1.25-0.84-0.69 0.09-2.71 0.31-4.5 0.5zm170.18 4.47c0.04 0.7-0.48 1.3-1.16 1.32-0.68 0.03-1.92 1.06-2.75 2.3-0.84 1.24-1.07 2.25-0.52 2.25 0.55 0 1.22-0.9 1.5-2 0.28-1.1 0.95-1.77 1.5-1.5 0.55 0.28 1.45-0.18 2-1 0.55-0.82 0.63-1.76 0.18-2.07-0.46-0.32-0.8 0-0.75 0.7zm-100.43 31.86c0.83 0.54 2.63 1 4 1.02 1.38 0.03 2.28-0.13 2-0.34-0.27-0.21-2.07-0.67-4-1.02-2.46-0.46-3.06-0.36-2 0.34zm12 2.26c0 0.41 4.39 0.71 9.75 0.65 5.36-0.05 10.79-0.39 12.06-0.75 1.27-0.36-3.12-0.65-9.75-0.65-6.63 0-12.06 0.34-12.06 0.75z"/>
		<path id="Path 10" fill-rule="evenodd" class="s10" d="m155 101.16c0.82-0.11 5.55 0.97 10.5 2.41 4.95 1.43 11.8 4.25 15.22 6.27 3.42 2.01 6.4 4.11 6.62 4.66 0.23 0.56-1.28 1-3.47 1-2.43 0-3.87-0.47-3.87-1.25 0-0.69-0.68-1.03-1.5-0.75-0.82 0.28-1.5 1.18-1.5 2 0 0.83 1.14 2.74 2.53 4.25 1.4 1.51 2.52 2.86 2.5 3-0.01 0.14-2.17-1.25-4.78-3.09-2.61-1.84-6.55-3.95-8.75-4.71-2.2-0.75-4.45-1.71-5-2.13-0.55-0.42-5.05-1.07-10-1.43q-9-0.67-14.5 0.59c-3.03 0.7-7.97 2.76-11 4.58-3.03 1.82-7.12 5.02-9.09 7.12-1.98 2.1-4.5 5.17-5.61 6.82-1.11 1.65-2.96 5.47-4.11 8.5-1.15 3.03-2.11 4.94-2.14 4.25-0.03-0.69 0.92-3.84 2.1-7 1.17-3.16 2.75-6.65 3.5-7.75 0.75-1.1 1.27-3.03 1.16-4.28-0.19-2.06-0.43-2.16-2.4-1-1.21 0.7-3.88 3.31-5.95 5.78-2.07 2.47-4.83 6.75-6.14 9.5-1.76 3.69-2.23 4.21-1.8 2 0.31-1.65 1.77-5.47 3.23-8.5 1.47-3.03 3.58-6.62 4.7-8 1.12-1.37 4.29-4.68 7.04-7.35 2.76-2.67 7.48-6.03 10.51-7.47 3.03-1.43 6.63-2.77 8-2.97 1.38-0.2 2.95-0.73 3.5-1.19 0.55-0.46 2.77-0.83 4.93-0.83 2.16 0.01 4.41-0.45 4.98-1.02 0.58-0.57 2.86-1.21 5.07-1.43 2.21-0.21 4.7-0.48 5.52-0.58zm-73.15 25.46c0.19 1.03-0.16 3.45-0.79 5.38-0.62 1.93-1.55 6.88-2.97 18.5l0.36-7.2c0.2-3.97 0.96-9.76 1.7-12.88 0.74-3.13 1.51-4.84 1.7-3.8zm58.57 3.38c0.5 0 0.73 0.14 0.5 0.32-0.23 0.17-2.11 1.3-4.17 2.5-2.06 1.2-3.81 1.95-3.88 1.67-0.08-0.29 1.39-1.41 3.25-2.5 1.86-1.09 3.79-1.98 4.3-1.99zm-73.56 86c1.64 1.93 2.79 3.72 2.55 4-0.24 0.28-1.11-0.4-1.94-1.5-0.83-1.1-1.98-2.9-2.55-4-0.58-1.1 0.3-0.43 1.94 1.5z"/>
		<path id="Path 11" fill-rule="evenodd" class="s11" d="m154 42.53c7.71 0.28 14.8 1.24 21.5 2.91 6.09 1.52 13.91 4.46 20 7.52 5.5 2.77 11.35 6.14 13 7.51 1.65 1.36-1.5 0.02-7-2.98-5.5-3.01-14.28-6.81-19.5-8.45-5.22-1.64-12.65-3.51-16.5-4.15-4.31-0.72-11.99-0.95-20-0.6-9.5 0.42-15.49 1.27-22.25 3.14-5.09 1.41-13.64 4.7-19 7.3-5.36 2.6-13.13 7.26-17.25 10.36-4.13 3.1-10.35 8.73-13.83 12.52-3.48 3.79-7.98 9.36-10 12.39-2.02 3.03-5.82 9.78-8.46 15-2.64 5.22-4.51 8.38-4.16 7 0.34-1.38 2.49-6.33 4.77-11 2.29-4.67 6.67-11.88 9.74-16 3.07-4.13 8.92-10.58 13.01-14.34 4.09-3.76 9.68-8.31 12.43-10.11 2.75-1.8 8.15-4.93 12-6.95 3.85-2.03 11.05-4.98 16-6.57 4.95-1.58 12.38-3.34 16.5-3.9 4.13-0.56 12.68-0.83 19-0.6zm-8.5 41.72c2.2-0.01 3.24 0.19 2.31 0.44-0.92 0.25-2.72 0.26-4 0.02-1.27-0.24-0.51-0.45 1.69-0.46zm53.85 17.73c0.47 0.01 2.27 1.6 4 3.54 1.73 1.93 2.93 3.52 2.65 3.52-0.28 0-2.07-1.6-4-3.54-1.93-1.94-3.12-3.53-2.65-3.52zm-10.54 12c0.38-0.01 2.04 1.33 3.69 2.99 1.65 1.65 2.78 3.19 2.5 3.41-0.28 0.21-1.94-1.13-3.69-2.99-1.76-1.87-2.88-3.4-2.5-3.41zm36.64 37.02c0.25 0 0.59 1.37 0.75 3.05 0.17 1.68-0.03 3.59-0.43 4.25-0.41 0.66-0.75-0.71-0.75-3.05-0.01-2.34 0.18-4.25 0.43-4.25z"/>
		<path id="Path 12" class="s12" d="m216.04 141.75l-0.04 16.25 8.5-0.5c-0.46-9.3-1.73-15.38-3.13-19.5-1.4-4.13-3.16-8.63-3.92-10-1.21-2.21-1.37-0.59-1.41 13.75z"/>
		<path id="Path 13" class="s13" d="m261.23 193.2c-0.67 1.81-0.99 3.41-0.72 3.55 0.27 0.14 0.85-1.17 1.28-2.91 0.43-1.74 0.76-3.34 0.72-3.55-0.04-0.22-0.62 1.09-1.28 2.91zm-5.03 11.32c-1.21 2.46-1.98 4.48-1.7 4.48 0.27 0 1.4-1.8 2.5-4 1.1-2.2 1.86-4.22 1.7-4.48-0.17-0.26-1.3 1.54-2.5 4zm-18.81 26.75c-2.69 2.89-7.59 7.67-10.89 10.62-3.3 2.94-4.86 4.51-3.47 3.48 1.39-1.03 4.32-3.31 6.5-5.07 2.18-1.76 6.12-5.7 8.74-8.75 2.62-3.05 4.6-5.55 4.39-5.55-0.2 0-2.58 2.37-5.27 5.27zm-30.39 23.53c-3.58 2.01-10.33 5.12-15 6.9-4.68 1.78-7.94 3.25-7.25 3.27 0.69 0.02 4.06-1.03 7.5-2.33 3.44-1.3 8.95-3.74 12.25-5.42 3.3-1.68 6.9-3.76 8-4.61 1.1-0.85 1.77-1.53 1.5-1.51-0.28 0.02-3.43 1.69-7 3.7zm-116.02-0.29c0.01 0.27 1.82 1.39 4.02 2.49 2.2 1.1 4.21 1.89 4.47 1.75 0.26-0.14-1.55-1.26-4.02-2.49-2.47-1.23-4.48-2.01-4.47-1.75zm31.52 12.44c1.1 0.46 4.25 1.09 7 1.41 4.98 0.58 4.97 0.58-1-0.84-3.3-0.79-6.45-1.42-7-1.41-0.55 0.01-0.1 0.39 1 0.84zm48.5 0.55c-3.03 0.7-4.38 1.28-3 1.29 1.37 0.01 4.75-0.56 7.5-1.27 2.75-0.7 4.1-1.29 3-1.29-1.1 0-4.48 0.57-7.5 1.27z"/>
		<path id="Path 14" class="s14" d="m94.25 154.5c0.01 2.39 0.2 2.99 0.45 1.5 0.24-1.38 0.23-3.18-0.02-4-0.25-0.82-0.44 0.3-0.43 2.5zm76 7c0.01 2.39 0.2 2.99 0.45 1.5 0.24-1.38 0.23-3.18-0.02-4-0.25-0.82-0.44 0.3-0.43 2.5zm12 1c0.01 2.39 0.2 2.99 0.45 1.5 0.24-1.38 0.23-3.18-0.02-4-0.25-0.82-0.44 0.3-0.43 2.5zm-87.18 35.25c0.04 0.41 1.73 2.08 3.75 3.7l3.68 2.94c-4.88-5.73-6.57-7.39-6.9-7.39-0.33 0-0.57 0.34-0.53 0.75z"/>
		<path id="Path 15" class="s15" d="m265.31 183.27c-0.66 2.33-1.01 4.45-0.79 4.73 0.22 0.27 0.81-1.46 1.31-3.85 0.51-2.39 0.86-4.52 0.79-4.73-0.06-0.21-0.66 1.52-1.31 3.85zm-228.23 9.23c-0.02 0.55 1.93 5.05 4.32 10 2.4 4.95 5.13 9.9 6.07 11 1.19 1.4 1.1 0.96-0.32-1.5-1.12-1.93-3.83-7.32-6.03-12-2.2-4.68-4.02-8.05-4.04-7.5zm18.88 32.98c0.81 1.11 4.18 4.87 7.5 8.35 3.32 3.48 7.84 7.7 10.04 9.39 2.2 1.68 1.11 0.41-2.41-2.83-3.53-3.24-8.71-8.37-11.5-11.41-2.8-3.03-4.43-4.6-3.63-3.5z"/>
		<path id="Path 16" class="s16" d="m121.5 32.53c-0.55 0.2-3.03 0.85-5.5 1.46-2.47 0.6-4.28 1.27-4 1.49 0.28 0.22 3.65-0.43 7.5-1.45 3.85-1.02 6.1-1.85 5-1.86-1.1-0.01-2.45 0.15-3 0.36zm59 1.41c3.85 1.07 7.22 1.76 7.5 1.54 0.28-0.22-1.3-0.86-3.5-1.41-2.2-0.56-5.57-1.25-7.5-1.54-1.93-0.29-0.35 0.35 3.5 1.41zm-83 7.46c-4.95 2.4-9.9 5.13-11 6.07-1.4 1.19-0.95 1.09 1.5-0.32 1.92-1.12 7.33-3.83 12-6.03 4.67-2.2 8.05-4.02 7.5-4.04-0.55-0.02-5.05 1.92-10 4.32zm99.5-1.84c3.03 1.34 5.62 2.33 5.76 2.19 0.14-0.14-2-1.26-4.75-2.5-2.76-1.24-5.35-2.22-5.76-2.19-0.41 0.03 1.72 1.16 4.75 2.5zm7.5 3.17c0.55 0.52 3.25 2.17 6 3.67 2.75 1.5 4.1 1.99 3 1.08-1.1-0.9-3.8-2.55-6-3.67-2.2-1.12-3.55-1.6-3-1.08zm-136.55 19.02c-4.52 4.26-9.57 9.55-11.22 11.75-1.66 2.2-0.48 1.21 2.61-2.21 3.09-3.41 8.44-8.7 11.89-11.74 3.45-3.05 5.97-5.54 5.61-5.55-0.37 0-4.37 3.49-8.89 7.75zm166.55 3.25c4.4 4.41 8.22 8.02 8.5 8.02 0.28 0-2.97-3.61-7.2-8.01-4.24-4.41-8.07-8.01-8.5-8.02-0.44 0 2.8 3.6 7.2 8.01zm-187.75 22.25c-0.8 1.24-2.25 3.83-3.22 5.75-0.97 1.92-1.33 3.05-0.81 2.5 0.52-0.55 2.12-3.14 3.56-5.75 1.43-2.61 2.45-4.75 2.26-4.75-0.19 0-1 1.01-1.79 2.25zm-7.55 14.72c-1.21 2.77-2.17 5.37-2.14 5.78 0.03 0.41 1.16-1.72 2.5-4.75 1.34-3.03 2.31-5.63 2.14-5.78-0.16-0.15-1.29 1.98-2.5 4.75zm-5.01 14.18c-0.7 2.39-1.14 4.45-0.98 4.58 0.16 0.13 0.79-1.66 1.39-3.97 0.61-2.31 1.05-4.37 0.99-4.58-0.07-0.21-0.7 1.58-1.4 3.97z"/>
		<path id="Path 17" class="s17" d="m223 55.12c0.82 0.81 5.78 5.49 11 10.4 8.85 8.33 9.02 8.44 2.5 1.63-3.85-4.01-8.8-8.69-11-10.4-2.2-1.7-3.32-2.43-2.5-1.63zm32.25 38.54c2.34 4.49 4.36 7.98 4.5 7.75 0.14-0.22-1.06-3-2.67-6.16-1.6-3.16-3.63-6.65-4.5-7.75-0.87-1.1 0.33 1.67 2.67 6.16zm4.76 9.34c-0.03 0.28 0.61 2.08 1.42 4 0.82 1.93 1.49 2.83 1.5 2 0-0.82-0.64-2.62-1.43-4-0.79-1.37-1.46-2.28-1.49-2zm-227.97 70c0.06 1.38 0.51 3.4 1.01 4.5 0.63 1.39 0.72 0.79 0.29-2-0.33-2.2-0.78-4.22-1-4.5-0.22-0.28-0.35 0.63-0.3 2z"/>
		<path id="Path 18" class="s18" d="m107 208.5c0 0.28 1.8 1.4 4 2.5 2.2 1.1 4.34 1.99 4.75 1.99 0.41-0.01-1.16-1.13-3.5-2.5-2.34-1.37-4.47-2.49-4.75-2.49-0.28 0-0.5 0.22-0.5 0.5z"/>
		<path id="Path 19" class="s8" d="m227.17 217.13c-1.19 1.58-2.06 3.52-1.92 4.31 0.15 0.85 1.37-0.16 3-2.5 1.51-2.17 2.38-4.11 1.92-4.31-0.46-0.21-1.81 0.92-3 2.5z"/>
	</g>
</svg>