<svg version="1.2" xmlns="http://www.w3.org/2000/svg" viewBox="0 0 300 300" width="300" height="300"><path d="M222.18 95.52c-1.2.81-2.87 2.94-3.71 4.73-.84 1.79-3.08 4.38-4.97 5.75-1.9 1.38-3.46 3.06-3.47 3.75-.02.69 1.85 4.74 4.15 9 2.3 4.26 5.24 10.22 6.54 13.25 1.29 3.03 2.28 4.6 2.2 3.5-.08-1.1-.1-2.79-.04-3.75.08-1.1 2.16-2.68 5.62-4.25 4.53-2.06 5.5-2.94 5.5-5 0-2.27.3-2.45 3.25-1.95 1.79.3 4.26 1.65 5.5 3 1.43 1.56 3.34 2.45 5.25 2.45 2.36 0 3.21.58 4 2.75.87 2.39.93 2.23.42-1.25-.32-2.2-1.49-6.7-2.59-10-1.09-3.3-3.29-8.7-4.88-12-1.59-3.3-4.01-7.35-5.39-9-2.12-2.53-2.67-2.76-3.54-1.5-.64.94-1.3 1.13-1.77.5-.41-.55-1.85-1.15-3.19-1.32-1.34-.18-3.06.27-3.83 1-1.09 1.04-1.55 1.05-2.13.09-.57-.96-1.23-.91-2.92.25zm31.07 5.54c-1.24.52-3.49.63-5 .24-2.46-.62-2.66-.49-1.85 1.25.49 1.07 2.14 5.33 3.65 9.45 1.51 4.13 3.31 10.2 4 13.5l1.25 6c7.9.41 10.78 1.08 11.49 1.76 1.05 1 1.29.8 1.25-1.01-.02-1.24-.77-5.51-1.66-9.5-.89-3.99-2.76-10.17-4.14-13.75-1.39-3.57-3.25-7.07-4.13-7.77-.89-.69-1.84-1.23-2.11-1.18-.28.04-1.51.5-2.75 1.01zm-68.84 13.67q-3.1.41-3.84 2.59c-.74 2.17-.76 2.17-2.23.18-.82-1.1-1.16-1.32-.75-.5.41.83 1.3 2.18 1.99 3 .69.83 2.52 2.88 4.08 4.56 1.56 1.68 4.53 5.39 6.59 8.25 2.06 2.85 3.75 5.64 3.75 6.19 0 .55.45.78 1 .5s.77.18.5 1c-.28.82-.05 1.5.5 1.5s.77.9.5 2c-.29 1.14-.07 1.79.5 1.5.55-.28 1.2.06 1.45.75s.95 3.28 1.55 5.75c.85 3.48 1.36 4.22 2.25 3.25.63-.69 1.96-1.25 2.95-1.25 1.52 0 1.71-.59 1.21-3.75-.32-2.06-1.43-5.78-2.47-8.25-1.04-2.47-2.81-5.4-3.95-6.5-1.13-1.1-2.05-2.45-2.04-3 0-.55 1.36.57 3.02 2.5 1.66 1.93 3.32 3.16 3.69 2.75.37-.41.26-.75-.24-.75-.51 0-.94-.56-.96-1.25-.02-.69-1.52-3.72-3.34-6.75-1.82-3.03-5.02-6.85-7.1-8.5-2.08-1.65-3.61-3.34-3.4-3.75.21-.41-.3-.75-1.12-.75-.82 0-1.29-.45-1.04-1 .26-.55.37-.93.25-.84-.11.09-1.6.35-3.3.57zm-34.49 14.7c-.23.25-2.25.71-4.48 1.03-2.24.31-4.49.95-5 1.42-.52.47-2.07 1.18-3.44 1.59-1.38.41-4.24 2.39-6.37 4.39-2.12 2-4.44 4.99-5.16 6.64-.71 1.65-1.1 4.24-.88 5.75.23 1.51-.04 2.75-.59 2.75-.57 0-.75 1.2-.42 2.75.32 1.51 1.45 4.78 2.5 7.25 1.32 3.08 3.26 5.37 6.17 7.26 2.34 1.53 5.82 3.03 7.75 3.35 2.06.34 4.65.02 6.29-.77 1.53-.74 2.77-1.68 2.75-2.09-.02-.41.3-.57.71-.36.41.21.64-.69.5-2-.14-1.33.19-2.17.75-1.89.55.28.71 1.06.35 1.75-.45.88-.29.96.57.25.66-.55 1.06-1.9.88-3l-.32-2c-3.14 3.1-5.16 4.08-6.51 4.17-1.36.1-3.82-.22-5.47-.71s-3.79-1.69-4.76-2.67c-.96-.99-1.88-2.47-2.03-3.29-.14-.82-.59-2.06-.99-2.75s-.64-2.94-.55-5c.09-2.06.78-4.43 1.52-5.25.75-.82 1.24-2.15 1.08-2.95-.15-.8.18-1.49.73-1.52.55-.03 1.56-.39 2.25-.8.69-.4 1.07-1.07.85-1.48-.23-.41.34-.82 1.25-.91.91-.09 3.9-.83 6.65-1.66 2.75-.83 4.32-1.53 3.5-1.57-.82-.03-3.19.38-5.25.91-2.06.54-3.58.64-3.37.23.21-.41 2.24-1.09 4.5-1.5 2.34-.43 4.88-.33 5.87.22.96.53 1.3 1 .75 1.03-.55.04 1.47.92 4.5 1.96 3.77 1.29 6.53 3.09 8.76 5.71 1.79 2.11 3.88 5.86 4.65 8.33.77 2.47 1.41 6.53 1.42 9 .02 2.47-.9 6.53-2.02 9-1.13 2.47-2.31 4.95-2.62 5.5-.32.55.07.48.87-.15.79-.63 2.56-3.45 3.94-6.27 1.61-3.3 3.12-5.12 4.25-5.11 1 .02 1.95.99 2.21 2.28.25 1.24.63 3.15.83 4.25.2 1.1.71-.93 1.12-4.5.42-3.57.46-8.53.09-11-.36-2.47-.74-5.29-.83-6.25-.09-.96-.51-1.75-.92-1.75-.41 0-.53-.45-.25-1s.05-1-.5-1-.78-.45-.5-1-.03-1-.67-1-.98-.22-.75-.49c.23-.27-1.38-2.49-3.58-4.92-2.3-2.54-6.34-5.48-9.5-6.9-3.03-1.37-7.11-2.76-9.08-3.1-1.98-.34-3.78-.41-4-.16zm-48.21 10c-.94.86-1.98 2.58-2.31 3.82-.5 1.88-.76 2-1.58.75-.76-1.14-.85-.96-.41.75.33 1.24.14 2.48-.41 2.75-.57.29-.89 3.9-.75 8.49.14 4.4.59 8 1 8 .41.01.74.8.73 1.76-.01.96.98 4.22 2.2 7.25 1.22 3.03 3.88 7.75 5.9 10.5 2.02 2.75 4.85 6.01 6.3 7.25 1.44 1.24 4.31 3.3 6.37 4.57 2.06 1.28 4.54 2.63 5.5 3 .96.38 1.75.46 1.75.18s-1.46-1.15-3.25-1.95-5.39-3.73-8-6.5c-2.61-2.78-4.75-5.73-4.75-6.55 0-.82.79-1.49 1.75-1.48.96.02 4.67 1.58 8.25 3.49 3.57 1.9 6.59 3.35 6.71 3.22.11-.13-2.7-2.37-6.25-4.98-3.55-2.61-6.68-5.65-6.96-6.75-.28-1.1-.84-1.98-1.25-1.96-.41.02-1.96-2.57-3.45-5.75-1.48-3.19-2.56-6.69-2.39-7.79.17-1.1-.19-2.37-.8-2.83-.7-.52-.74-.98-.11-1.25.57-.24.92-3.94.82-8.67-.12-5.41-.65-8.71-1.54-9.57-1.12-1.1-1.64-1.06-3.07.25zM58 145.46c-1.38.76-3.64 1.16-5.03.88-1.71-.33-3.45.26-5.37 1.83-2.81 2.3-2.84 2.43-2.23 10.33.34 4.4.81 9.13 1.04 10.5.24 1.38.65 3.4.92 4.5s1.06 4.25 1.75 7l1.27 5 3.15-9 1 13c2.72-3.87 3.53-4.55 3.54-4 .01.55.69.1 1.51-1 .82-1.1 1.48-1.55 1.48-1s.33.48.74-.15c.4-.64 2.87-1.42 5.48-1.75 2.9-.37 4.75-.21 4.75.4 0 .55 2.14 1.01 4.75 1.02 3.66.01 5.32.57 7.25 2.45 1.59 1.54 2.5 1.93 2.5 1.06 0-.75-.22-1.17-.5-.93-.28.24-1.74-1.94-3.26-4.83-1.52-2.9-2.98-6.51-3.25-8.02-.27-1.51-.04-2.75.51-2.75s.69-.56.31-1.25c-.38-.69-1-5.53-1.37-10.75-.37-5.22-1.17-10.4-1.78-11.5-.6-1.1-1.11-1.44-1.13-.75-.02.84-1.81 1.25-5.53 1.25-3.56 0-6.03-.53-7-1.5-.83-.82-1.84-1.48-2.25-1.46-.41.01-1.88.65-3.25 1.42zm-18.8 13.43c-1.13 1.44-2.6 4.18-3.26 6.11-.67 1.93-1.61 3.95-2.09 4.5-.49.55-.88 1.9-.88 3 .01 1.1.87 5.38 1.93 9.5 1.06 4.13 2.86 9.64 4.01 12.25L41 199c3.25-4.06 4-6.5 4-9 0-2.47.48-4.05 1.25-4.12.69-.06 1.59-.06 2 0 .41.07.56-.22.33-.63-.23-.41-.66-1.87-.96-3.25-.29-1.37-1.16-4.75-1.93-7.5s-1.75-7.47-2.16-10.5c-.41-3.03-1.1-6-1.52-6.61-.5-.73-1.46-.21-2.81 1.5zm214.82 4.86c-.01 1.24.43 2.47.98 2.75.55.28.99-.06.98-.75 0-.69-.45-1.93-.98-2.75-.78-1.21-.97-1.07-.98.75zm-51.26 78.54c-2.06 1.22-3.74 2.55-3.75 2.96-.01.41 1.63-.26 3.63-1.5s3.78-2.59 3.96-3c.18-.41.23-.73.11-.71-.11.03-1.89 1.04-3.95 2.25zm-107.26.21c.28.82.95 1.28 1.5 1s1-.05 1 .5.67 1.22 1.5 1.5 1.54.15 1.6-.28c.05-.44-1.3-1.56-3-2.5-2.6-1.44-3.02-1.48-2.6-.22zm6.49 3.23c-.04.42 2.31 1.84 5.22 3.15 2.91 1.31 7.54 3.02 10.29 3.8 2.75.77 5.1 1.28 5.21 1.11.12-.16-2.36-1.13-5.5-2.16-3.14-1.03-7.84-2.95-10.43-4.27-2.6-1.32-4.76-2.05-4.79-1.63zM194.5 247c-1.65 1.09-2.66 1.99-2.25 1.99.41.01 1.89-.55 3.28-1.24s2.51-1.59 2.5-2c-.02-.41-.14-.75-.28-.74-.14 0-1.6.9-3.25 1.99zm-9.5 3.66c-2.47.82-4.28 1.68-4 1.9.28.23 2.64-.26 5.25-1.07 2.61-.82 4.75-1.71 4.75-1.99s-.34-.46-.75-.42c-.41.04-2.78.75-5.25 1.58z" fill="#c6922f"/><path fill-rule="evenodd" d="M155 84.8c3.03.21 9.32 1.27 14 2.35s11.88 3.72 16 5.86c4.13 2.14 10.43 6.55 14 9.81 3.57 3.26 8.06 8.12 9.96 10.8 1.9 2.68 2.67 4.21 1.71 3.38-1.57-1.35-2-1.25-4.46 1.13-1.49 1.44-3.72 3.13-4.96 3.75-1.93.96-2.09 1.44-1.14 3.37.69 1.41-.04.94-1.96-1.25-1.69-1.92-3.09-3.84-3.11-4.25-.02-.41-.6-.41-1.28 0q-1.23.74-.5-.5c.48-.81-1.11-2.71-4.51-5.38-2.89-2.27-6.38-4.63-7.75-5.23-1.38-.61-2.72-1.44-3-1.86-.28-.42-3.88-1.93-8-3.35-4.95-1.72-10.56-2.78-16.5-3.13-5.23-.3-11.51-.02-15 .67-3.3.66-9.05 2.62-12.78 4.36-3.73 1.74-6.77 3.51-6.75 3.92.02.41-.53.74-1.22.73-.69-.02-3.86 2.57-7.06 5.75-3.19 3.17-6.58 7.35-7.53 9.27-.94 1.92-2.46 4.63-3.37 6-.9 1.38-2.41 5.43-3.36 9-.94 3.57-1.76 10.17-1.82 14.66-.09 6.85-.33 7.98-1.49 7-.77-.64-1.75-2.06-2.19-3.16-.58-1.44-.82-.68-.87 2.75-.05 3.82-.4 4.76-1.81 4.78-.96.02-2.99-.88-4.5-2-2.21-1.63-2.75-1.73-2.75-.53 0 .82-.45 1.28-1 1q-1-.5 0-2.5c.55-1.1 1-2.9 1-4s-.45-1.78-1-1.5c-.64.32-.82-1.93-.51-6.25.26-3.71.73-6.97 1.02-7.25.3-.28.54-1.4.53-2.5-.01-1.1 1.32-5.82 2.95-10.5 1.67-4.77 5.06-11.53 7.74-15.42 2.62-3.8 7.32-9.2 10.43-12 3.11-2.79 8.06-6.54 11-8.31 2.94-1.78 7.81-4.14 10.84-5.24 3.03-1.1 8.65-2.46 12.5-3.02 3.85-.56 8.35-1.15 10-1.31 1.65-.17 5.47-.12 8.5.1zm-5.5 27.33c.55-.06 3.93.37 7.5.97s6.95 1.18 7.5 1.3c.55.12 3.47 1.45 6.5 2.95 3.03 1.51 7.86 4.75 10.75 7.2 2.89 2.45 5.03 4.45 4.75 4.45-.28 0 .73 1.69 2.24 3.75 1.51 2.06 3.2 4.08 3.75 4.48.56.41.67.75.26.75-.41.01-.3.92.25 2.02s.78 2 .5 2-1.85-2.47-3.5-5.5c-2.87-5.26-3.13-5.47-6.07-4.75-2.13.52-3.27.36-3.75-.55-.5-.95-1.73-1.08-4.58-.5-2.15.44-4.17 1.37-4.5 2.08-.33.7.75 2.72 5.4 7.72l-3.5-3.23c-1.93-1.78-4.06-3.25-4.75-3.25-.69-.01-1.25-.47-1.25-1.02s-2.47-1.9-5.5-3c-3.54-1.29-8-2-12.5-2-5.35 0-8.12.56-11.75 2.36-2.61 1.3-6.45 4.33-8.52 6.75-2.07 2.41-4.44 6.42-5.26 8.89-.82 2.47-1.49 6.19-1.48 8.25 0 2.06.61 5.21 1.33 7 .73 1.79 2.2 4.32 3.25 5.62 1.06 1.31 2.83 3.21 3.93 4.24 1.1 1.02 3.8 2.36 6 2.98 2.3.65 5.7.82 8 .41 2.63-.48 5.11-1.88 7.25-4.11 2.19-2.29 3.25-4.37 3.25-6.39q0-3-1.5-3c-.82 0-1.5.45-1.5 1s-1.59 1.79-3.53 2.75c-2.83 1.4-4.26 1.55-7.15.75-2.58-.72-4.13-1.99-5.47-4.5-1.02-1.93-1.86-5.07-1.87-7 0-2.15 1.06-5.12 2.76-7.71 1.52-2.32 2.87-4.01 3.01-3.75.14.25 1.82-.22 3.75-1.04 1.93-.82 4.74-1.49 6.25-1.48 1.51.01 4.32.48 6.25 1.05 1.93.57 4.85 2.18 6.5 3.57 1.65 1.38 2.21 2.26 1.25 1.94-1.62-.54-1.75.69-1.81 33.92l2.63-3c1.46-1.67 2.18-2.11 1.62-1-.55 1.1-3.07 3.91-5.59 6.25-2.53 2.34-4.6 4.03-4.6 3.75 0-.28-.9-.05-2 .5s-2 .78-2 .5 1.46-1.24 3.25-2.14c2.94-1.49 3.06-1.72 1.25-2.37-1.1-.4-2.68-1.48-3.5-2.4-.92-1.03-2.96-1.66-5.25-1.63-2.06.02-3.75.49-3.75 1.04s-.79 1.02-1.75 1.03c-.96.02-2.99-.88-7.25-4.03l-.25 2.08c-.23 1.93-.47 1.85-6.25-4.12l5 .1-3-2.53c-1.65-1.39-3.22-2.52-3.5-2.51-.28.01-1.32-1.67-2.32-3.75-1.41-2.9-2.01-3.43-2.64-2.27-.66 1.2-1.18.9-2.65-1.5-1-1.65-2.07-5.59-2.89-14.51l-4.25 2.01c-2.34 1.1-4.25 2.45-4.25 3 0 .55-.45 1-1 1-.56 0 .03-3.64 1.33-8.25 1.29-4.54 2.92-9.38 3.63-10.75.71-1.37 2.03-3.3 2.92-4.28.89-.98 1.28-1.77.87-1.75-.41.02 1.72-2.22 4.75-4.97 3.03-2.75 7.41-5.99 9.75-7.19 2.34-1.21 4.93-2.34 5.75-2.51.82-.17 3.97-.71 7-1.19 3.03-.47 5.95-.92 6.5-.98zM202.67 127c.36 0 .36.34-.01.75s.01 1.76.83 3c.83 1.24 1.96 3.38 2.51 4.75.55 1.38.78 2.5.5 2.5s-1.18-1.57-2-3.5c-.82-1.93-1.95-3.5-2.5-3.5s-.81-.79-.58-1.75c.24-.96.46-1.86.5-2 .05-.14.38-.25.75-.25zm-36.21 22c.92.82 2.08 3.07 2.6 5 .51 1.93.93 3.84.93 4.25.01.41-.44.53-.99.25s-1-1.51-1.01-2.75c0-1.24-.72-3.6-1.59-5.25-1.49-2.79-1.48-2.9.06-1.5zm31.22 7c.25.82.26 2.63.02 4-.25 1.49-.44.89-.45-1.5-.01-2.2.18-3.32.43-2.5zm-85.14 16c.36 0 2 2.14 3.64 4.75 2.8 4.46 2.82 4.57.35 1.75-1.45-1.65-3.08-3.79-3.64-4.75-.55-.96-.71-1.75-.35-1.75zm10.57 11.16c1.65 1.22 2.97 2.36 2.94 2.53-.03.17-1.41-.48-3.06-1.44-1.66-.96-2.98-2.1-2.95-2.53.04-.43 1.42.22 3.07 1.44zm5.89 3.26c1.37.3 3.29.56 4.25.57.96 0 1.75.46 1.75 1.01s-1.01.87-2.25.71c-1.24-.15-3.15-.86-4.25-1.56-1.89-1.21-1.86-1.26.5-.73zm13 1.67c.82-.03 2.18.34 3 .82 1.14.68.78.98-1.5 1.27-1.65.2-3.9.19-7-.45l2-.79c1.1-.44 2.68-.82 3.5-.85zm28.71 3.93c.12-.01.01.43-.25.98-.25.55-1.81 1.68-3.46 2.5-1.65.82-3.07 1.32-3.17 1.1-.09-.22 1.38-1.34 3.25-2.48 1.88-1.15 3.52-2.09 3.63-2.1zm-7.75 5.02c.26-.02-.19.59-1 1.35-.8.77-2.47 1.67-3.71 2-1.24.34-2.25.16-2.25-.39s.34-.81.75-.59c.41.23 1.87-.21 3.25-.96 1.37-.76 2.71-1.4 2.96-1.41zm-32.69 4.47c1.23.29 4.93.95 8.23 1.45 5.54.85 5.63.9 1.25.73-2.63-.11-4.74.26-4.73.81.01.55-.56.43-1.25-.27-.7-.69-2.28-1.26-3.52-1.25-1.24.01-2.24-.44-2.23-1 .02-.56 1.03-.77 2.25-.47zm40.23 7.57c.55 0-.57.87-2.5 1.92-1.93 1.05-3.95 1.92-4.5 1.92-.55 0 .57-.87 2.5-1.92 1.93-1.05 3.95-1.92 4.5-1.92z" fill="#f8fafa"/><path fill-rule="evenodd" d="M202.25 43.12c.41-.07 2.21.62 4 1.52 1.79.91 6.18 3.55 9.75 5.89 3.57 2.33 9.54 6.99 13.25 10.36 6.41 5.8 6.69 6.24 5.5 8.6q-1.25 2.49-4.5 3c-1.79.28-3.24.85-3.22 1.26.01.41.78 1.65 1.71 2.75.93 1.1-.99-.53-4.27-3.62-3.29-3.08-8.44-7.53-11.47-9.87-3.03-2.34-8.99-6.22-13.25-8.63-4.26-2.41-7.53-4.83-7.25-5.38.28-.55 1.4-1 2.5-1s2.28-.87 2.62-1.95c.35-1.07 1.36-2.14 2.25-2.38.9-.24 1.97-.49 2.38-.55zM149 45.08c5.78-.06 14.55.6 19.5 1.45 4.95.86 10.66 2.1 12.7 2.76 2.03.67 3.49 1.55 3.25 1.96-.25.41.34.48 1.3.15.96-.32 2.54.13 3.5 1 .96.88 1.97 1.38 2.25 1.1.28-.27 3.54 1.02 7.25 2.88 3.71 1.86 10.35 6.08 14.75 9.38 4.4 3.29 10.03 8.16 12.5 10.82 4.01 4.3 3.79 4.18-2.03-1.13-3.6-3.27-10.57-8.62-15.5-11.88-4.94-3.26-10.43-6.52-12.22-7.25-1.79-.72-3.25-1.09-3.25-.82 0 .28 2.14 1.84 4.75 3.49a423.6 423.6 0 018.5 5.5c2.06 1.38 4.05 3.07 4.41 3.76.36.69.77 2.38.91 3.75.14 1.38-.45 3.63-1.31 5-.87 1.38-2.18 2.84-2.92 3.25-.74.41-3.81 4.13-6.84 8.25-3.65 4.98-5.3 8.09-4.9 9.25.46 1.35-.17 1.16-2.75-.86-1.84-1.44-6.61-4.25-10.6-6.25-3.99-2-7.47-4.09-7.75-4.64-.28-.55-.05-1 .5-1s1.71-2.59 2.59-5.75c.87-3.16 2.45-7.55 3.5-9.75 1.05-2.2 1.93-4.67 1.96-5.5.02-.82-.68-2.17-1.55-3-.87-.82-1.57-2.06-1.54-2.75.02-.69-.97-1.91-2.21-2.71s-5.18-2.08-8.75-2.85c-3.57-.76-11.22-1.47-17-1.56-5.78-.1-14.1.47-18.5 1.25-4.4.79-10.92 2.42-14.5 3.62-3.58 1.2-8.97 3.32-12 4.72-3.03 1.39-7.97 4.16-10.98 6.16-3.02 1.99-6.62 4.63-8 5.87-1.39 1.24-2.86 2.26-3.27 2.25-.41 0-3 2.7-5.75 6-3.56 4.27-5 6.87-5 9q0 3 3 6c1.65 1.65 3.34 2.89 3.75 2.76.41-.14 2.33.72 4.25 1.91s5.08 2.47 7 2.86c2.22.44 4.42.21 6-.61 2.03-1.05 1.7-.36-1.73 3.64-2.33 2.72-4.24 5.5-4.25 6.19-.01.69-.36 1.25-.77 1.24-.41 0-1.87 2.03-3.25 4.51-1.37 2.48-2.84 4.51-3.25 4.51-.41-.01-.53.67-.25 1.49.28.83.28 1.5 0 1.5s-1.06-.62-1.75-1.39c-.69-.76-3.93-1.58-7.25-1.82-3.3-.24-7.01-.97-8.25-1.62-1.24-.64-3.04-.96-4-.71s-3.33.12-5.25-.29c-3.37-.72-3.53-.96-4.17-6.21-.62-5.04-.37-6.04 3.23-12.96 2.14-4.12 6.76-11.1 10.26-15.5 3.51-4.4 9.25-10.52 12.78-13.59 3.52-3.08 9.1-7.41 12.4-9.63 3.3-2.22 8.7-5.39 12-7.05 3.3-1.66 8.92-3.99 12.5-5.18 3.58-1.18 9.88-2.76 14-3.51 4.13-.75 12.22-1.4 18-1.46zm-89.25 41c1.24-.04 2.25.14 2.25.42 0 .28-2.67 5.79-5.94 12.25-3.27 6.46-7.11 15.58-8.53 20.25-1.42 4.68-2.35 6.81-2.06 4.75.37-2.62.15-3.74-.72-3.72-.69.02-2.37 1.03-3.75 2.25-1.37 1.22-3.97 4.47-5.77 7.22-2.24 3.42-3.26 4.37-3.24 3 .01-1.1.89-5.6 1.95-10s3.31-11.6 5-16c1.7-4.4 4.23-9.78 5.62-11.97 1.62-2.53 3.69-4.31 5.74-4.93 1.76-.54 3.43-1.27 3.7-1.64.28-.36 1.17-.92 2-1.23.83-.32 2.51-.61 3.75-.65zm93.75 15.39l-4.5.34c-2.47.19-4.72.78-5 1.32-.28.54-2.19 1-4.26 1.03-2.07.02-4.32.4-5 .85-.68.44-2.78 1.03-4.67 1.32-1.88.28-3.91.96-4.5 1.51-.59.56-2.31 1.49-3.82 2.08-1.51.6-2.74.74-2.74.33.01-.41 2.6-2 5.75-3.53 3.16-1.53 6.64-2.96 7.74-3.17 1.1-.22 2.22-.48 2.5-.59.28-.11.84-.14 1.25-.08.41.07.75-.33.75-.88s.79-.84 1.75-.64c.96.2 2.51.08 3.45-.25.93-.34 3.86-.39 11.3.36zM246 104c.55 0 2.11 3.26 3.46 7.25 1.36 3.99 2.93 9.05 3.5 11.25.56 2.2 1 4.45.96 5-.03.55-1.62-3.5-3.52-9s-3.55-10.56-3.68-11.25c-.12-.69-.56-1.25-.97-1.25-.41 0-.75-.45-.75-1s.45-1 1-1zm-193.49 7.28c.04.21-.5 2.48-1.22 5.05-.71 2.57-1.51 4.56-1.78 4.42-.26-.14.29-2.41 1.22-5.05.94-2.65 1.74-4.64 1.78-4.42zM43.68 139c.25.82.26 2.63.02 4-.25 1.49-.44.89-.45-1.5-.01-2.2.18-3.32.43-2.5zm1.09 13.5c.15 3.88-.2 7.45-.77 8-.71.68-1.03-.42-1.03-3.5 0-2.47.35-6.07.77-8 .65-2.98.8-2.46 1.03 3.5zm.65 9.5c.04 0 .08 1.76.08 3.9 0 2.15-.34 3.73-.75 3.5-.41-.22-.83-1.68-.92-3.23-.09-1.56.21-3.14.67-3.5.46-.37.87-.67.92-.67z" fill="#e9bf71"/><path fill-rule="evenodd" d="M255.68 188.49c1.55.21 3.61.4 4.57.44 1.36.05 1.63.68 1.21 2.82-.3 1.51-2.32 6.46-4.5 11s-4.3 8.15-4.71 8.02c-.41-.13-2.66.55-5 1.5-3.23 1.31-4.25 2.27-4.25 3.98 0 1.77-.94 2.57-4.46 3.75-2.65.89-4.47 1.09-4.48.5 0-.55-1.16.12-2.56 1.5-1.4 1.37-2.54 1.94-2.53 1.25.02-.69 1.36-2.26 2.99-3.5 1.63-1.24 2.76-2.59 2.5-3-.25-.41.55-1.43 1.79-2.26 1.24-.83 1.8-1.52 1.25-1.53-.55-.01-.1-.69 1-1.51 1.1-.82 1.66-1.48 1.25-1.47-.41.01.15-1.33 1.25-2.98s2.02-3.34 2.05-3.75c.02-.41 1.37-3.11 3-6 1.62-2.89 3.82-6.12 4.88-7.19 1.25-1.26 2.9-1.81 4.75-1.57zm-26.36 1.76c3.64.05 4.51.42 4.59 1.91.06 1.27.63 1.68 1.84 1.31.96-.29 2.99.38 4.5 1.5 1.77 1.3 2.74 1.58 2.72.78-.02-.69.92-2.15 4.22-5.25l-1.28 3c-.71 1.65-1.88 3.56-2.6 4.25-.72.69-.98 1.81-.57 2.5q.73 1.24-.5.5c-.73-.44-1.44-.14-1.74.75-.28.82-.28 1.95 0 2.5.27.55-.18 1.22-1 1.5q-1.49.51-.77 2.25c.58 1.39.42 1.54-.73.75s-1.31-.64-.73.75c.51 1.21.27 1.75-.77 1.75-.82 0-1.5.45-1.5 1s-1.45 2.69-3.22 4.75c-1.77 2.06-6.83 7.34-11.25 11.74-4.42 4.39-7.92 8.33-7.78 8.75.14.42-.54 1.32-1.5 2.01-1.6 1.14-1.62 1.1-.25-.54.82-.99 1.16-1.78.75-1.75-.41.02-1.99.87-3.5 1.88-1.51 1.01-3.43 2.16-4.25 2.56-.82.4-.45-.09.84-1.09 1.28-1 4.12-3.38 6.29-5.31 2.18-1.93 3.94-3.84 3.92-4.25-.03-.41-1.74-.48-3.8-.16-2.06.33-3.98.95-4.25 1.39-.28.43-4.1 1.57-8.5 2.53-4.4.96-8.45 2.06-9 2.44-.55.39-3.7 1.43-7 2.33-3.3.89-7.24 1.87-8.75 2.17-1.51.3-2.75 1.11-2.75 1.8s-2.36 1.84-5.25 2.56-8.18 1.94-11.75 2.72c-3.57.77-8.3 1.64-10.5 1.94-2.2.29-4.68.75-5.5 1.02-.82.27-1.5 1.14-1.5 1.93 0 1.09 2.05 1.59 8.5 2.06 4.68.34 9.62.78 11 .98 1.37.21-1.89.3-7.25.21-5.36-.1-9.75.17-9.75.58 0 .41-2.14.5-4.75.19-2.61-.3-8.01-1.2-12-2-6.18-1.23-7.65-1.24-10-.06-1.51.76-3.31 2.11-4 3-.88 1.14-2.22 1.47-4.5 1.1-1.79-.28-6.77-2.42-11.07-4.75-4.3-2.33-8.94-5.13-10.31-6.23-2.19-1.75-2.37-2.34-1.44-4.75.59-1.51 2.08-3.24 3.32-3.85 1.92-.94 3.77-.3 12.75 4.42 5.77 3.03 14.1 6.63 18.5 8s10.25 2.74 13 3.06c4.9.56 4.92.55 1-.42-2.2-.55-6.93-1.95-10.5-3.1-3.58-1.16-9.88-3.86-14-6-4.13-2.14-8.63-4.76-10-5.82-1.68-1.3-2.17-2.27-1.5-2.96.55-.57 2.35-1.13 4-1.25 1.65-.12 4.24-1.26 5.75-2.53 1.51-1.26 3.2-2.3 3.75-2.3.55 0 1 .68 1 1.5 0 1.21.79 1.07 4.08-.75 2.25-1.24 4.5-3.26 5-4.5.51-1.24 1.37-2.25 1.92-2.25.55 0 1.19-.79 1.41-1.75.23-.96-.11-2.32-.75-3.02-.67-.72-.73-1.25-.16-1.23.55.02.1-.68-1-1.55-1.89-1.49-1.78-1.54 2-.95 2.2.34 4.45 1.25 5 2.02.55.77 1.9 1.39 3 1.37 1.72-.03 1.76-.13.29-.71-.94-.37 3.11-.52 9-.32 7.67.26 12.56-.1 17.21-1.28 3.57-.91 9.2-2.91 12.5-4.45 3.3-1.55 9.04-5.13 12.75-7.97 3.71-2.84 7.2-5.16 7.75-5.16.55 0 1-.68 1-1.5s.79-1.87 1.75-2.31c.96-.45 2.65-.72 3.75-.61 1.1.12 4.47.32 7.5.45 3.02.13 7.3-.11 9.5-.55 2.2-.43 4.23-1.33 4.51-2 .34-.83 1.85-1.02 4.73-.6 3.53.52 4.21.35 4.15-1.04-.06-1.32.85-1.65 4.43-1.59zM176.88 252c.48 0 .71.45.5 1-.21.55.18 1.03.87 1.07.69.04.35.46-.75.93-1.1.47-3.24.89-4.75.93-1.51.04-2.75-.38-2.75-.93s.45-.78 1-.5c.55.27 1 .05 1-.5s.79-.99 1.75-.98c1.5.01 1.53.15.25.98s-1.25.97.25.98c.96.01 1.75-.66 1.75-1.48s.4-1.5.88-1.5zm-9.88 3c1.1 0 2 .45 2 1s-.9.89-2 .75-2-.59-2-1c0-.41.9-.75 2-.75z" fill="#946412"/><path fill-rule="evenodd" d="M196.27 56.31c1.78.74 7.26 4 12.2 7.26 4.93 3.26 11.85 8.63 15.38 11.93 3.53 3.3 8.32 8.7 10.64 12 2.33 3.3 5.03 7.35 7.8 12l-2.62-3c-2.21-2.53-2.78-2.77-3.65-1.5-.64.94-1.3 1.13-1.77.5-.41-.55-1.76-1.11-3-1.25-1.24-.14-2.96.31-3.83 1-1.26 1-1.71 1-2.25-.03-.51-.98-1.32-.81-3.42.75-1.51 1.12-2.74 2.59-2.73 3.28.01.69-.8 2.15-1.79 3.25-1 1.1-3.03 3.01-4.52 4.25-2.46 2.04-2.61 2.55-1.64 5.5.99 3.01.71 2.84-3.75-2.24-2.65-3.02-6.52-7.07-8.6-9-2.08-1.93-3.75-3.96-3.71-4.51.04-.55 2.53-4.26 5.53-8.25 3-3.99 6.06-7.59 6.8-8 .74-.41 2.05-1.88 2.92-3.25.86-1.38 1.45-3.63 1.31-5-.14-1.38-.55-3.06-.91-3.75s-2.35-2.38-4.41-3.76a423.6 423.6 0 00-8.5-5.5c-2.61-1.65-4.74-3.22-4.73-3.5.01-.29 1.47.08 3.25.82zM235.92 68c.6 0 2.94 2.14 5.22 4.75s6.05 7.67 8.37 11.25c2.33 3.58 5.41 8.86 9.49 17l-2.25-.03c-1.24-.02-4.28.1-11.25.53l-3.37-6c-1.85-3.3-6.02-9.49-9.25-13.75-3.23-4.26-5.88-7.97-5.88-8.25 0-.28 1.57-.72 3.5-1 2.46-.35 3.63-1.09 3.92-2.5.24-1.1.91-2 1.5-2zM53.5 110.5l.5 4.46c.47 4.16.74 4.52 4 5.21 1.92.41 4.29.54 5.25.29.96-.25 2.76.07 4 .71 1.24.65 4.95 1.36 8.25 1.59 3.3.22 6.1.48 6.23.57.12.09-.47 2.87-1.32 6.17-.85 3.3-1.31 7.8-1.02 10 .36 2.81.26 3.4-.36 2-.71-1.6-.91-1.2-.98 2-.06 2.97-.33 3.61-1.05 2.5q-.97-1.5-.98-.25c-.02.85-1.79 1.25-5.52 1.25-3.96 0-5.94-.49-7.09-1.75-1.5-1.65-1.79-1.65-4.75-.08-1.77.94-4.26 1.44-5.66 1.14-1.64-.35-3.44.2-8 3.69v-4.5c0-2.47.67-7.99 1.49-12.25.83-4.26 2.74-11.13 4.25-15.25zm125 3.5c.97 0 1.51.98 1.52 2.75.02 2.66-.03 2.69-1.47.75-.81-1.1-1.5-2.34-1.51-2.75-.02-.41.64-.75 1.46-.75zm-133.93 6.03c.61-.02.93 1.36.74 3.22-.19 1.79-.77 6.4-1.3 10.25-.53 3.85-1.01 11.05-1.06 16-.06 4.95-.29 8.44-.52 7.75-.25-.74-1.65.27-3.45 2.5-1.66 2.06-3.22 4.87-3.47 6.25-.24 1.37-1.14 3.06-1.98 3.75-1.32 1.09-1.62.5-2.28-4.5-.41-3.16-.72-10.93-.65-28.75l3.95-6c2.18-3.3 5.08-7 6.45-8.22 1.38-1.22 2.99-2.23 3.57-2.25zm69.15 4.27c.2 1.21-.33 3.21-1.18 4.45-.84 1.24-1.31 2.93-1.04 3.75.28.82.05 1.28-.5 1s-1.74 1.86-2.64 4.75c-1.46 4.65-1.75 4.99-2.5 3-.47-1.24-1.19-2.45-1.61-2.68-.41-.24-1.24-.13-1.85.25-.61.37-1.83 2.03-2.71 3.68-1.28 2.39-1.61 2.6-1.62 1-.01-1.1.8-3.8 1.81-6s3.52-6.03 5.59-8.5c2.07-2.47 4.69-5.04 5.83-5.7 1.81-1.06 2.11-.93 2.42 1zm-29.29-.82c.05.16-.44 1.8-1.08 3.65-.94 2.67-1.2 2.9-1.26 1.12-.05-1.24.44-2.88 1.08-3.65.64-.77 1.21-1.27 1.26-1.12zm170.26 3.63c.16.21.73 5.57 1.28 11.89.59 6.79.65 14.37.15 18.5-.81 6.64-.86 6.33-1.01-6-.08-7.15-.61-15.03-1.17-17.5-.55-2.47-.68-5.13-.28-5.89.41-.77.87-1.22 1.03-1zm-111.07 1.98c.23.54 1.61.5 3.38-.09q3-1 3 0c0 .55-.78 1.05-1.75 1.11-.96.07-2.92.26-4.36.44-2.04.26-2.4.03-1.64-1.02.54-.75 1.15-.94 1.37-.44zM81.48 131c.17 0 .24 1.08.17 2.4-.08 1.32-.5 2.78-.92 3.25-.43.47-.77.06-.75-.9.01-.96.29-2.43.61-3.25.32-.82.72-1.5.89-1.5zm51.45 3.58c.32.26-.55 1.58-1.93 2.93-1.61 1.58-2.5 1.95-2.5 1.06 0-.76.34-1.2.75-.97.42.22 1.29-.48 1.93-1.55.65-1.08 1.44-1.74 1.75-1.47zM58.5 204c.28 0 1.21 1.46 3.63 6.5l-2.04-2.5c-1.12-1.38-2.05-2.84-2.06-3.25-.02-.41.2-.75.47-.75z" opacity=".99" fill="#dfa94b"/><path fill-rule="evenodd" d="M152.5 30.47c6.24.19 15.33 1.26 21 2.48 5.5 1.19 14.16 3.71 19.25 5.6 5.09 1.9 9.03 3.9 8.75 4.45-.28.55-1.18 1-2 1-.82 0-1.72.9-2 2-.29 1.17-1.33 2-2.5 2-1.1 0-2.22.45-2.5 1-.28.55.85 1.67 2.5 2.5 1.65.83 3 1.73 3 2s-2.81-.84-6.25-2.49c-3.44-1.64-10.53-4.07-15.75-5.41-5.22-1.33-13.78-2.74-19-3.12-5.76-.42-13.44-.22-19.5.5-5.5.66-14.05 2.49-19 4.07-4.95 1.58-12.15 4.52-16 6.55-3.85 2.02-9.25 5.15-12 6.95-2.75 1.8-8.33 6.35-12.4 10.11S68.67 80.2 66.19 83.5c-2.48 3.3-4.95 6.45-5.47 7-.53.55-.46-.01.16-1.25.61-1.24 1.01-2.51.87-2.83-.14-.31-1.94-.31-4 0-2.06.32-3.75.92-3.74 1.33.01.41-1.73 1.2-7.7 2.75l3.48-5.5c1.92-3.03 6.12-8.65 9.34-12.5 3.22-3.85 9.12-9.73 13.11-13.08 3.99-3.34 9.29-7.44 11.76-9.11 2.47-1.68 7.2-4.41 10.5-6.08s9.38-4.38 13.5-6.02c4.13-1.65 12.22-3.93 18-5.08 5.78-1.14 11.63-2.28 13-2.53 1.38-.25 7.45-.31 13.5-.13zm.5 14.02c7.97.2 16.75.88 19.5 1.5s4.78 1.3 4.5 1.51c-.28.21-4.55-.31-9.5-1.17-6.61-1.15-12.45-1.4-22-.97-7.15.33-14.35.89-16 1.25-1.65.37-2.78.4-2.5.07.28-.32 2.97-1.03 6-1.58 3.03-.54 12.03-.82 20-.61zm-35.5 4.59c.55-.01.33.36-.5.83-.83.47-2.62 1.12-4 1.46-2.08.51-2 .37.5-.83 1.65-.8 3.45-1.46 4-1.46zm33 2.1c6.05 0 14.15.66 18 1.45 3.85.8 8.01 2.11 9.25 2.91 1.24.8 2.23 2.02 2.21 2.71-.03.69.67 1.92 1.54 2.75.87.83 1.57 2.17 1.55 3-.03.83-.91 3.3-1.96 5.5-1.05 2.2-2.63 6.59-3.5 9.75-.88 3.16-2.15 5.76-2.84 5.78-.69.02-.12 1 1.25 2.17 2.03 1.73 2.12 1.99.5 1.39-1.1-.41-4.7-1.48-8-2.38-4.06-1.1-10.04-1.63-18.5-1.63-8.61 0-14.52.53-19 1.71-3.58.95-9.86 3.4-13.96 5.46-5.11 2.57-10.32 6.43-16.5 12.24-4.97 4.67-8.15 7.37-7.07 6 1.09-1.37 3.11-3.79 7.03-8.25l-2.5 1.24c-1.54.77-3.85.97-6 .55-1.92-.39-5.08-1.67-7-2.86s-3.84-2.05-4.25-1.91c-.41.13-2.1-1.11-3.75-2.76q-3-3-3-6c0-2.13 1.44-4.73 5-9 2.75-3.3 5.52-6 6.16-6 .64 0 2.11-1.01 3.27-2.25 1.15-1.24 4.57-3.88 7.59-5.87 3.01-2 7.95-4.77 10.98-6.16 3.03-1.4 8.42-3.52 12-4.73 3.58-1.21 9.65-2.79 13.5-3.51 3.85-.72 11.95-1.31 18-1.3zM97.64 58c.2 0 .38.11.41.25.02.14-3.02 2.27-6.75 4.75-3.74 2.47-11.07 8.77-16.3 14-5.22 5.22-7.7 7.3-5.5 4.6 2.2-2.69 6.7-7.34 10-10.33 3.3-2.98 8.65-7.19 11.89-9.35 3.24-2.16 6.05-3.92 6.25-3.92zm113.27 3.71c.87 1.21 1.93 2 2.34 1.75.41-.25 4.95 3.7 10.08 8.79 5.13 5.09 11.4 12.4 13.93 16.25 2.52 3.85 4.92 7.9 5.33 9 .4 1.1-1.7-1.6-4.67-6-2.97-4.4-8.79-11.37-12.91-15.5-4.13-4.12-9.18-8.85-11.22-10.5-2.04-1.65-3.73-2.89-3.75-2.75-.02.14-.49.03-1.04-.25-.55-.27-.7-1.06-.34-1.75.46-.89 1.11-.61 2.25.96zm-61.41 38.54c2.2-.01 3.24.19 2.31.44-.92.25-2.72.26-4 .02-1.27-.24-.51-.45 1.69-.46zm1 11c2.2-.01 3.24.19 2.31.44-.92.25-2.72.26-4 .02-1.27-.24-.51-.45 1.69-.46zM48.76 116.5c.74.7.47 3.26-.9 8.5-1.08 4.13-2.23 10.43-2.56 14-.33 3.57-.95 7.63-1.38 9-.44 1.42-.56-.75-.28-5 .27-4.12 1.17-11.1 2-15.5.83-4.4 1.92-8.11 2.43-8.25.51-.14.64-1.04.28-2q-.67-1.8.41-.75zm158.15 27l1.41 3c.77 1.65 1.24 3.22 1.04 3.5-.2.28-.55.28-.78 0-.23-.28-.7-1.85-1.04-3.5z" fill="#eecd8d"/><path fill-rule="evenodd" d="M209.43 116.31c.59.19 2.29 2.11 3.79 4.27 2.69 3.88 2.71 4.08 2.8 37.92l-2.52-2.5c-1.72-1.7-3.35-5.54-5.12-12-1.42-5.22-3.44-10.85-4.47-12.5-1.04-1.65-1.56-3.41-1.15-3.91.41-.5.29-.63-.26-.29s-1.56-.49-2.25-1.84c-1.14-2.25-1.01-2.58 1.5-3.86 1.51-.76 3.62-2.35 4.68-3.52 1.06-1.17 2.41-1.97 3-1.77zm-31.18 13.83c.96-.08 1.74.42 1.73 1.11-.01.91.95 1.04 3.5.5 3.48-.74 3.56-.68 7.02 5.25 1.93 3.3 3.94 7.69 4.47 9.75.53 2.06 1.4 6.68 1.93 10.25.76 5.16.6 8.35-.81 15.5-1.09 5.52-3.09 11.51-5.18 15.5-1.88 3.57-5.44 8.63-7.91 11.25-2.48 2.62-4.39 4.99-4.25 5.26.14.27-.09.26-.5-.01-.41-.28-1.43.15-2.25.95-.82.8-4.2 2.76-7.5 4.35-3.3 1.6-8.93 3.83-12.5 4.96-3.57 1.14-9.2 2.38-12.5 2.75-3.4.39-6.87.26-8-.29-1.1-.54-4.93-1.51-8.5-2.18-3.76-.69-9.86-2.95-14.47-5.37-5.12-2.67-10.14-6.35-14-10.25-3.35-3.38-7.65-9.16-9.69-13-2.01-3.81-4.6-9.73-5.75-13.17C81.94 169.81 81 165.87 81 162l2.75 2.03c1.51 1.12 3.54 2.02 4.5 2 1.4-.02 1.77-.97 1.83-4.78.04-2.61.33-4.07.63-3.25.3.82 1.17 2.18 1.92 3 .75.82 2.49 4.65 3.86 8.5 1.37 3.85 4.49 9.93 6.93 13.5 2.44 3.57 5.48 7.4 6.76 8.5 1.28 1.11 4.57 3.44 7.32 5.18 2.75 1.75 6.24 3.44 7.75 3.75 1.51.31 2.75 1.02 2.75 1.57s1.01.99 2.25.98c1.24-.01 2.82.56 3.52 1.25.69.7 1.26.82 1.25.27-.01-.55 2.12-1.06 4.73-1.12 2.61-.07 6.77-.37 9.25-.66 2.47-.29 5.85-1.02 7.5-1.62 1.65-.61 3.68-1.54 4.5-2.09.82-.54 3.07-1.83 5-2.87 1.93-1.03 4.39-3.17 5.47-4.76 1.09-1.58 1.87-3.22 1.75-3.63-.12-.41.23-.53.78-.25s2.69-2.96 4.75-7.2c3.62-7.42 3.75-8.07 3.73-18.25-.02-9.52-.28-11.06-2.75-15.8-1.5-2.89-4.08-6.82-5.73-8.75-1.72-2-2.74-4.11-2.39-4.92.34-.78 1.57-1.62 2.75-1.87 1.18-.24 2.93-.5 3.89-.57zm-15.05 16.35c.72.24 2.09 2.02 3.05 3.97.96 1.95 1.75 4.44 1.75 5.54 0 1.1.45 2.22 1 2.5.55.28 1.01 1.96 1.01 3.75.01 1.79-.67 5.28-1.51 7.75-.83 2.47-2.65 5.85-6.56 10.5l-.02-17.22c-.01-13.66.26-17.13 1.28-16.79zm-46.76 1.47l.56 5.77c.31 3.17 1.39 7.12 2.39 8.77 1.47 2.4 1.99 2.7 2.65 1.5.63-1.16 1.23-.63 2.64 2.27 1 2.08 2.04 3.76 2.32 3.75.27-.01 1.85 1.09 3.5 2.45 2.96 2.43 2.97 2.46.67 2.75-2.3.28-2.29.31.77 3.28 2.99 2.89 3.1 2.92 3.06-1.5l2.75 2.03c1.51 1.12 3.54 2.02 4.5 2 .96-.01 1.75-.48 1.75-1.03s1.69-1.02 3.75-1.04c2.29-.03 4.33.6 5.25 1.63.82.92 2.4 1.98 3.5 2.36 1.73.59 1.4 1.02-2.5 3.24-3.77 2.14-5.68 2.53-11.75 2.43-3.99-.07-7.24-.34-7.23-.62.01-.28-1.9-.87-4.25-1.33-2.35-.45-6.07-2.12-8.27-3.7-2.2-1.59-5.43-4.81-7.17-7.18-1.74-2.36-3.88-5.98-4.75-8.04-.87-2.06-1.58-4.88-1.58-6.25 0-1.38-.34-2.5-.75-2.5s-.71-1.24-.66-2.75c.05-1.51.12-3.04.15-3.4.03-.35 2-1.6 4.38-2.77z" fill="#02fdfe"/><path d="M234.02 122.49c-.02 2.06-.96 2.93-5.27 4.86-2.89 1.29-5.52 3.2-5.85 4.25-.33 1.04-.03 4.15.67 6.9.71 2.75 1.59 7.25 1.98 10 .38 2.75 1.2 5.3 1.82 5.67.82.49.79 1.03-.11 2-.69.73-.91 1.63-.5 2.01.41.37-.83 1.18-2.76 1.79-2.88.92-4.28.8-7.87-.68-2.54-1.04-5.14-3.04-6.22-4.79-1.02-1.65-1.88-3.9-1.91-5-.04-1.1-.91-3.8-1.95-6-1.03-2.2-1.69-4.34-1.47-4.75.23-.41-.03-.75-.58-.75-.55 0-.7-.56-.34-1.25.36-.69.36-.91 0-.5-.36.41-1.8-.49-3.19-2-1.4-1.51-2.54-2.3-2.54-1.75 0 .55.93 1.9 2.06 3 1.14 1.1 2.91 4.03 3.95 6.5 1.04 2.47 2.15 6.19 2.47 8.25.5 3.16.31 3.75-1.21 3.75-.99 0-2.32.56-2.95 1.25-.89.97-1.4.23-2.27-3.25-.61-2.47-1.65-5.74-2.3-7.25-.65-1.52-1.52-2.75-1.93-2.75-.41 0-.44.56-.06 1.25.37.69 1.27 4.4 1.99 8.25.73 3.85 1.31 9.47 1.29 12.5-.02 3.03-.88 8.65-1.93 12.5-1.44 5.31-1.55 6.52-.45 5 .79-1.1 1.44-2.34 1.43-2.75-.01-.41.82-1.99 1.85-3.5 1.37-2.01 3.31-3.08 7.25-4 2.96-.68 8.19-2.37 11.63-3.75 6.08-2.43 6.25-2.45 6.25-.5 0 1.93.15 1.94 4.25.46 2.34-.85 4.47-1.17 4.75-.73.27.45 1.74 1.36 3.25 2.04 1.51.68 3.42 1.23 4.25 1.23.89 0 1.5-.92 1.51-2.25 0-1.47 1.21-3.03 3.5-4.5 1.92-1.24 4.16-2.03 4.99-1.75.95.32 1.54 1.88 1.62 4.25.1 3.33.22 3.13 1.07-1.75.52-3.03.75-10.45.49-16.5-.25-6.05-1.18-13.36-2.07-16.25-1.47-4.81-1.86-5.25-4.61-5.25-1.91 0-3.82-.89-5.25-2.45-1.24-1.35-3.7-2.71-5.48-3.02-2.94-.51-3.24-.33-3.25 1.96zm22.89 9.25c-.07.42-.18 8.05-.26 16.95-.08 8.9.2 15.2.64 14 .67-1.87 1.26-2.09 4-1.48 1.76.39 4.11.99 5.21 1.32 1.64.51 2.14.02 2.76-2.71.42-1.82.71-6.47.65-10.32-.06-3.85-.45-9.47-.87-12.5-.42-3.02-.8-4.82-.85-4-.08 1.13-.42 1.23-1.4.39-.71-.62-3.2-1.41-5.53-1.77-2.33-.35-4.29-.3-4.35.12zM145 136.72c-1.38.25-2.93.83-3.47 1.29-.53.46 1.05.41 3.5-.11 2.46-.53 5.37-.69 6.47-.36 1.61.48 1.71.39.5-.46-.83-.58-2.18-.99-3-.93-.83.07-2.63.32-4 .57zm26.67 34.78c-1.82 3.74-3.07 5.26-3.92 4.76q-1.24-.73-.5.5c.41.68.3 1.24-.25 1.24s-.78.45-.5 1c.27.55-1.41 2.51-3.75 4.35-2.34 1.85-5.83 4.21-7.75 5.25-2.77 1.49-5.6 1.89-13.5 1.89-5.5.01-10.9-.4-12-.89-1.1-.5-2.45-.96-3-1.02-.55-.06-3.81-1.57-7.25-3.35s-6.93-3.23-7.75-3.23c-.83 0-1.5.68-1.5 1.5s1.98 3.64 4.4 6.25c2.42 2.61 6.7 5.99 9.5 7.5 3.38 1.82 7.55 3.02 12.35 3.56 5.03.56 9.24.4 13.75-.51 3.57-.73 8.86-2.67 11.75-4.31 2.89-1.65 6.82-4.56 8.75-6.49 1.92-1.93 3.72-4.4 4-5.5.27-1.1.95-2 1.5-2s1-.9 1-2 .45-2 1-2 .77-.68.5-1.5c-.28-.82-.05-1.5.5-1.5s.8-.79.56-1.75-.69-2.99-1-4.5c-.37-1.8-1.2-2.75-2.39-2.75-1.24 0-2.71 1.8-4.5 5.5zM79.64 173c.34 1.93 1.24 4.4 2 5.5.99 1.44 1.37 1.58 1.34.5-.02-.82-.92-3.3-1.99-5.5l-1.97-4zm-26.92 6.25c-.39 1.51-1.17 2.53-1.72 2.25q-1-.5 0 2.5c.55 1.65 1.02 3.11 1.03 3.25.02.14.33 1.38.7 2.75.38 1.38 2.2 5.65 4.07 9.5 1.86 3.85 5.25 9.57 7.54 12.72 2.29 3.14 4.61 5.59 5.16 5.43.55-.15 1.39-1.6 1.87-3.22.52-1.78 2.48-4 5-5.65 3.22-2.12 4.19-2.4 4.38-1.25.14.81.59 1.34 1 1.19.42-.16 1.88-.8 3.25-1.42 1.38-.62 4.63-1.73 7.24-2.47 2.6-.73 5.08-1.05 5.5-.71.42.34 3.01 1.82 5.76 3.3 2.75 1.48 4.1 2.11 3 1.4-1.1-.71-5.48-4.79-9.75-9.06-4.26-4.27-7.52-8.21-7.25-8.76.28-.55-.17-1-1-1-.82 0-1.27-.45-1-1 .28-.55-.17-1.22-1-1.5-.88-.29-1.19-1.02-.76-1.75q.74-1.24-.5-.5c-.7.42-1.78.08-2.49-.79-.82-1.02-2.88-1.53-6-1.5-2.61.02-4.75-.41-4.75-.96 0-.61-1.85-.77-4.75-.4-2.61.33-5.08 1.11-5.48 1.75-.41.63-.73.7-.73.15 0-.55-.67-.1-1.49 1-.81 1.1-1.49 1.55-1.51 1-.01-.55-.81.13-1.78 1.5l-1.76 2.5c-.95-11.63-1.21-12.42-1.78-10.25zm-6.67 6.41c-.98.34-1.38 1.76-1.25 4.42.14 2.65-.44 4.73-1.8 6.42l-2 2.5c4.86 9.69 7.67 14.62 9.39 17.22 1.71 2.59 3.34 4.35 3.61 3.9.28-.45 2.42-1.11 4.75-1.47 2.6-.4 4.25-.26 4.25.35 0 .55.79.83 1.75.62.97-.21 2.81.58 4.11 1.75 1.29 1.17-.64-1.92-4.29-6.87s-6.62-9.56-6.6-10.25c.02-.69-.3-1.24-.72-1.22-.41.01-2.61-4.04-4.89-9-2.27-4.97-4.3-8.99-4.5-8.95-.19.04-1.01.3-1.81.58zm165.04 51.35c-2.35 1.65-4.23 3.22-4.18 3.5.05.27 2.12-.86 4.59-2.51 2.48-1.65 4.5-3.22 4.5-3.5 0-.28-.14-.5-.32-.5s-2.24 1.35-4.59 3.01z" fill="#b57c22"/><path fill-rule="evenodd" fill="#82560c" d="M251.72 211.41c.24.6-1.11 3.34-3.01 6.09-1.91 2.75-5.83 7.7-8.73 11-2.9 3.3-8.02 8.42-11.37 11.38-3.36 2.96-9.04 7.29-12.61 9.62-3.57 2.34-9.2 5.6-12.5 7.25-3.3 1.65-9.38 4.21-13.5 5.7-4.13 1.48-11.78 3.63-17 4.78-6.77 1.49-13.24 2.11-22.5 2.16-9.12.06-15.54-.47-21.5-1.76-4.67-1.01-11.99-2.92-16.25-4.24-4.26-1.31-7.75-2.84-7.75-3.39 0-.55.45-.77 1-.5s1.56-.23 2.25-1.12c.69-.89 2.49-2.24 4-3 2.34-1.18 3.83-1.17 10 .04 3.99.77 8.82 1.68 10.75 2.01 1.93.32 8.68.6 15 .61 6.32.01 15.55-.64 20.5-1.45 4.95-.8 13.5-3.18 19-5.28s13.15-5.71 17-8.01c3.85-2.3 10.49-7.14 14.75-10.74 4.26-3.61 7.64-7.12 7.5-7.81-.14-.69.43-1.12 1.25-.97.82.15 2.52-.75 3.78-2 1.25-1.25 2.28-1.83 2.28-1.28.01.59 1.83.39 4.48-.5 3.64-1.22 4.42-1.91 4.23-3.71-.19-1.75.68-2.61 4.13-4.09q4.36-1.88 4.82-.79zm-14.74-.41c.38 0 .65.63.6 1.4-.04.78-.42 1.23-.83 1-.41-.22-1.16.39-1.65 1.35-.5.96-.93 2.2-.97 2.75-.04.55-.65 1.04-1.35 1.09-.82.05-.42-1.29 1.12-3.75 1.32-2.11 2.71-3.84 3.08-3.84zm-23.73 19.14c.96-.08 1.76.2 1.77.61.01.41-1.45 2.11-3.25 3.77-1.8 1.66-4.62 3.95-6.27 5.08-1.65 1.13-6.04 3.71-9.75 5.73-3.71 2.02-6.97 3.67-7.25 3.67-.28 0-2.07.68-4 1.5-1.93.82-3.95 1.28-4.5 1-.55-.28-1-.05-1 .5s-.68.78-1.5.5-1.5-.05-1.5.5-.9.78-2 .5-2-.16-2 .25c0 .41-.56.84-1.25.96-.69.11-4.85.5-9.25.88-4.4.37-11.82.36-16.5-.03-6.42-.53-8.5-1.05-8.5-2.14 0-.79.68-1.66 1.5-1.93s3.3-.73 5.5-1.02c2.2-.3 6.93-1.17 10.5-1.94 3.57-.78 8.86-2 11.75-2.72 2.89-.72 5.25-1.87 5.25-2.56s1.24-1.5 2.75-1.8c1.51-.3 5.45-1.28 8.75-2.17 3.3-.9 6.45-1.95 7-2.34.55-.39 4.72-1.55 9.27-2.57 4.55-1.03 8.26-2.21 8.25-2.62-.01-.41.99-.91 2.23-1.11 1.24-.2 3.04-.43 4-.5z"/><path d="M246.27 163.23c-2 1.4-3.24 3.13-3.25 4.52-.01 1.33-.64 2.25-1.52 2.25-.82 0-2.74-.55-4.25-1.23-1.51-.68-2.98-1.59-3.25-2.04-.28-.44-2.32-.17-4.55.61-3.79 1.34-4.06 1.31-4.25-.46-.19-1.78-.52-1.75-6.45.62-3.44 1.38-8.67 3.07-11.63 3.75-3.72.86-5.92 2.02-7.12 3.75-.96 1.38-2.02 3.51-2.37 4.75-.35 1.24-1.08 2.03-1.63 1.75-.55-.27-.95-.16-.88.25.06.41.07 1.43.02 2.25-.05.82-1.88 4.2-4.06 7.5-2.18 3.3-4.98 7.35-6.22 9-1.8 2.38-1.86 2.65-.31 1.28 1.07-.95 2.51-1.74 3.2-1.75.69-.02 1.25-.71 1.25-1.53 0-.82.79-1.87 1.75-2.31.96-.45 2.65-.72 3.75-.61 1.1.12 4.47.32 7.5.45 3.02.13 7.3-.11 9.5-.55 2.2-.43 4.31-1.28 4.69-1.88.41-.65 2.34-.9 4.73-.6 3.37.42 4.04.21 4.06-1.25.02-1.44.81-1.71 4.52-1.5 3.53.2 4.5.63 4.5 2 0 1.21.54 1.58 1.75 1.21.96-.29 2.87.33 4.25 1.39 2.48 1.91 2.51 1.91 3.58-.21.6-1.18 1.61-2.03 2.25-1.89.64.14 1.09-.09.98-.5-.1-.41.61-2.55 1.57-4.75.96-2.2 2.42-6.93 3.25-10.5.82-3.57 1.35-8.52 1.18-10.99-.21-3.03-.8-4.58-1.81-4.77-.82-.15-2.95.74-4.73 1.99zm11.38-1.48c-.25.41-1.59 5.25-2.97 10.75-1.39 5.5-3.5 12.48-4.69 15.5l-2.17 5.5c4.86-5.16 5.7-5.43 9.43-4.92 2.34.32 4.48.74 4.75.94.27.19 1.05-1.08 1.72-2.83.68-1.76 2.13-7.69 3.24-13.19 1.11-5.5 1.91-10.05 1.78-10.1-.13-.06-1.81-.63-3.74-1.27-1.93-.64-4.27-1.16-5.2-1.15-.94.01-1.9.36-2.15.77zm-16.48 39c-.67 1.51-.99 2.98-.71 3.25.28.28-.27 1.1-1.22 1.82-.96.73-1.18 1.07-.49.75.69-.31 1.24-.01 1.23.68-.01.69.64.35 1.44-.75.87-1.2 1.09-2.4.55-3-.52-.59-.49-1.72.07-2.75.53-.96.83-1.98.66-2.25-.16-.28-.85.73-1.53 2.25zm-149.33 4.04c-2.39.74-5.46 1.86-6.84 2.5-1.37.63-2.84 1.27-3.25 1.43-.41.15-.86-.38-1-1.19-.2-1.15-1.18-.88-4.49 1.25-2.34 1.5-4.24 3.4-4.24 4.22.01.82-.56 2.34-1.25 3.36-1.08 1.59-.9 2.29 1.23 4.81 1.38 1.62 3.24 3.71 4.14 4.64.9.93 3.72 3.6 6.25 5.94 2.54 2.34 4.83 4.25 5.11 4.25.28 0 1.96 1.06 3.75 2.35 1.79 1.3 3.93 2.69 4.75 3.09.83.4.38-.18-1-1.3-1.68-1.37-2.17-2.37-1.5-3.06.55-.57 2.35-1.13 4-1.25 1.65-.12 4.24-1.26 5.75-2.53 1.51-1.26 3.2-2.3 3.75-2.3.55 0 1 .68 1 1.5 0 1.21.79 1.07 4.08-.75 2.25-1.24 4.5-3.26 5-4.5.51-1.24 1.37-2.25 1.92-2.25.55 0 1.19-.79 1.41-1.75.23-.96-.11-2.32-.75-3.02-.67-.72-.73-1.25-.16-1.23.55.02.1-.63-1-1.45-1.78-1.32-1.81-1.49-.25-1.52.96-.02 1.53-.48 1.25-1.03s-.84-.79-1.25-.54c-.41.26-3.9-1.16-7.75-3.14-3.85-1.98-8.65-4.56-10.66-5.74-3.36-1.96-4-2.02-8-.79zm138.7 12.96c-1.6 2.06-2.04 2.99-.97 2.07 1.06-.92 2.34-1.6 2.85-1.5.5.1.98-.83 1.06-2.07.08-1.24.1-2.25.06-2.25-.05 0-1.4 1.69-3 3.75zm-105.13.5c.32.96 1.49 1.75 2.59 1.75 1.1 0 2.23-.45 2.5-1 .28-.55-.18-.77-1-.5-.82.28-2.22-.06-3.09-.75-1.35-1.06-1.5-.98-1 .5zm-68.16.41c-1.79.19-3.25.9-3.25 1.59.01.69 2.74 4.4 6.08 8.25 3.35 3.85 9.08 9.56 12.75 12.69l6.67 5.69c1.94-4.56 3.51-6.38 4.75-6.99 1.64-.8 2.86-.8 4.5 0 1.86.92 2.16.85 1.75-.39-.27-.82-.84-1.29-1.25-1.03-.41.25-2.42-.98-4.45-2.75-2.04-1.77-3.73-2.99-3.76-2.72-.03.28-2.07-1.64-4.55-4.25-2.79-2.95-4.21-5.22-3.75-6q.73-1.24-.5-.5c-.7.42-2.1-.01-3.22-1-1.09-.96-1.66-2.2-1.26-2.75q.71-.99-.77-.03c-.82.54-2.05 1.1-2.74 1.25-.69.15-1.25-.17-1.25-.72 0-.55-.56-.93-1.25-.84-.69.09-2.71.31-4.5.5zm170.18 4.47c.04.7-.48 1.3-1.16 1.32-.68.03-1.92 1.06-2.75 2.3-.84 1.24-1.07 2.25-.52 2.25s1.22-.9 1.5-2 .95-1.77 1.5-1.5c.55.28 1.45-.18 2-1 .55-.82.63-1.76.18-2.07-.46-.32-.8 0-.75.7zM127 254.99c.83.54 2.63 1 4 1.02 1.38.03 2.28-.13 2-.34-.27-.21-2.07-.67-4-1.02-2.46-.46-3.06-.36-2 .34zm12 2.26c0 .41 4.39.71 9.75.65 5.36-.05 10.79-.39 12.06-.75 1.27-.36-3.12-.65-9.75-.65s-12.06.34-12.06.75z" fill="#a2731b"/><path fill-rule="evenodd" d="M155 101.16c.82-.11 5.55.97 10.5 2.41 4.95 1.43 11.8 4.25 15.22 6.27 3.42 2.01 6.4 4.11 6.62 4.66.23.56-1.28 1-3.47 1-2.43 0-3.87-.47-3.87-1.25 0-.69-.68-1.03-1.5-.75s-1.5 1.18-1.5 2c0 .83 1.14 2.74 2.53 4.25 1.4 1.51 2.52 2.86 2.5 3-.01.14-2.17-1.25-4.78-3.09-2.61-1.84-6.55-3.95-8.75-4.71-2.2-.75-4.45-1.71-5-2.13-.55-.42-5.05-1.07-10-1.43q-9-.67-14.5.59c-3.03.7-7.97 2.76-11 4.58-3.03 1.82-7.12 5.02-9.09 7.12-1.98 2.1-4.5 5.17-5.61 6.82-1.11 1.65-2.96 5.47-4.11 8.5-1.15 3.03-2.11 4.94-2.14 4.25-.03-.69.92-3.84 2.1-7 1.17-3.16 2.75-6.65 3.5-7.75.75-1.1 1.27-3.03 1.16-4.28-.19-2.06-.43-2.16-2.4-1-1.21.7-3.88 3.31-5.95 5.78-2.07 2.47-4.83 6.75-6.14 9.5-1.76 3.69-2.23 4.21-1.8 2 .31-1.65 1.77-5.47 3.23-8.5 1.47-3.03 3.58-6.62 4.7-8 1.12-1.37 4.29-4.68 7.04-7.35 2.76-2.67 7.48-6.03 10.51-7.47 3.03-1.43 6.63-2.77 8-2.97 1.38-.2 2.95-.73 3.5-1.19.55-.46 2.77-.83 4.93-.83 2.16.01 4.41-.45 4.98-1.02.58-.57 2.86-1.21 5.07-1.43 2.21-.21 4.7-.48 5.52-.58zm-73.15 25.46c.19 1.03-.16 3.45-.79 5.38-.62 1.93-1.55 6.88-2.97 18.5l.36-7.2c.2-3.97.96-9.76 1.7-12.88.74-3.13 1.51-4.84 1.7-3.8zm58.57 3.38c.5 0 .73.14.5.32-.23.17-2.11 1.3-4.17 2.5s-3.81 1.95-3.88 1.67c-.08-.29 1.39-1.41 3.25-2.5s3.79-1.98 4.3-1.99zm-73.56 86c1.64 1.93 2.79 3.72 2.55 4-.24.28-1.11-.4-1.94-1.5-.83-1.1-1.98-2.9-2.55-4-.58-1.1.3-.43 1.94 1.5z" fill="#e89d5a"/><path fill-rule="evenodd" d="M154 42.53c7.71.28 14.8 1.24 21.5 2.91 6.09 1.52 13.91 4.46 20 7.52 5.5 2.77 11.35 6.14 13 7.51 1.65 1.36-1.5.02-7-2.98-5.5-3.01-14.28-6.81-19.5-8.45-5.22-1.64-12.65-3.51-16.5-4.15-4.31-.72-11.99-.95-20-.6-9.5.42-15.49 1.27-22.25 3.14-5.09 1.41-13.64 4.7-19 7.3-5.36 2.6-13.13 7.26-17.25 10.36-4.13 3.1-10.35 8.73-13.83 12.52-3.48 3.79-7.98 9.36-10 12.39-2.02 3.03-5.82 9.78-8.46 15-2.64 5.22-4.51 8.38-4.16 7 .34-1.38 2.49-6.33 4.77-11 2.29-4.67 6.67-11.88 9.74-16 3.07-4.13 8.92-10.58 13.01-14.34s9.68-8.31 12.43-10.11c2.75-1.8 8.15-4.93 12-6.95 3.85-2.03 11.05-4.98 16-6.57 4.95-1.58 12.38-3.34 16.5-3.9 4.13-.56 12.68-.83 19-.6zm-8.5 41.72c2.2-.01 3.24.19 2.31.44-.92.25-2.72.26-4 .02-1.27-.24-.51-.45 1.69-.46zm53.85 17.73c.47.01 2.27 1.6 4 3.54 1.73 1.93 2.93 3.52 2.65 3.52-.28 0-2.07-1.6-4-3.54-1.93-1.94-3.12-3.53-2.65-3.52zm-10.54 12c.38-.01 2.04 1.33 3.69 2.99 1.65 1.65 2.78 3.19 2.5 3.41-.28.21-1.94-1.13-3.69-2.99-1.76-1.87-2.88-3.4-2.5-3.41zM225.45 151c.25 0 .59 1.37.75 3.05.17 1.68-.03 3.59-.43 4.25-.41.66-.75-.71-.75-3.05-.01-2.34.18-4.25.43-4.25z" fill="#e6c3ae"/><path d="M216.04 141.75L216 158l8.5-.5c-.46-9.3-1.73-15.38-3.13-19.5-1.4-4.13-3.16-8.63-3.92-10-1.21-2.21-1.37-.59-1.41 13.75z" fill="#0efbfd"/><path d="M261.23 193.2c-.67 1.81-.99 3.41-.72 3.55.27.14.85-1.17 1.28-2.91.43-1.74.76-3.34.72-3.55-.04-.22-.62 1.09-1.28 2.91zm-5.03 11.32c-1.21 2.46-1.98 4.48-1.7 4.48.27 0 1.4-1.8 2.5-4s1.86-4.22 1.7-4.48c-.17-.26-1.3 1.54-2.5 4zm-18.81 26.75c-2.69 2.89-7.59 7.67-10.89 10.62-3.3 2.94-4.86 4.51-3.47 3.48 1.39-1.03 4.32-3.31 6.5-5.07 2.18-1.76 6.12-5.7 8.74-8.75s4.6-5.55 4.39-5.55c-.2 0-2.58 2.37-5.27 5.27zM207 254.8c-3.58 2.01-10.33 5.12-15 6.9-4.68 1.78-7.94 3.25-7.25 3.27.69.02 4.06-1.03 7.5-2.33 3.44-1.3 8.95-3.74 12.25-5.42 3.3-1.68 6.9-3.76 8-4.61 1.1-.85 1.77-1.53 1.5-1.51-.28.02-3.43 1.69-7 3.7zm-116.02-.29c.01.27 1.82 1.39 4.02 2.49 2.2 1.1 4.21 1.89 4.47 1.75.26-.14-1.55-1.26-4.02-2.49-2.47-1.23-4.48-2.01-4.47-1.75zm31.52 12.44c1.1.46 4.25 1.09 7 1.41 4.98.58 4.97.58-1-.84-3.3-.79-6.45-1.42-7-1.41-.55.01-.1.39 1 .84zm48.5.55c-3.03.7-4.38 1.28-3 1.29 1.37.01 4.75-.56 7.5-1.27 2.75-.7 4.1-1.29 3-1.29-1.1 0-4.48.57-7.5 1.27z" opacity=".64" fill="#885b0d"/><path d="M94.25 154.5c.01 2.39.2 2.99.45 1.5.24-1.38.23-3.18-.02-4-.25-.82-.44.3-.43 2.5zm76 7c.01 2.39.2 2.99.45 1.5.24-1.38.23-3.18-.02-4-.25-.82-.44.3-.43 2.5zm12 1c.01 2.39.2 2.99.45 1.5.24-1.38.23-3.18-.02-4-.25-.82-.44.3-.43 2.5zm-87.18 35.25c.04.41 1.73 2.08 3.75 3.7l3.68 2.94c-4.88-5.73-6.57-7.39-6.9-7.39-.33 0-.57.34-.53.75z" fill="#f013bd"/><path d="M265.31 183.27c-.66 2.33-1.01 4.45-.79 4.73.22.27.81-1.46 1.31-3.85.51-2.39.86-4.52.79-4.73-.06-.21-.66 1.52-1.31 3.85zM37.08 192.5c-.02.55 1.93 5.05 4.32 10 2.4 4.95 5.13 9.9 6.07 11 1.19 1.4 1.1.96-.32-1.5-1.12-1.93-3.83-7.32-6.03-12s-4.02-8.05-4.04-7.5zm18.88 32.98c.81 1.11 4.18 4.87 7.5 8.35 3.32 3.48 7.84 7.7 10.04 9.39 2.2 1.68 1.11.41-2.41-2.83-3.53-3.24-8.71-8.37-11.5-11.41-2.8-3.03-4.43-4.6-3.63-3.5z" opacity=".29" fill="#bd8a2f"/><path d="M121.5 32.53c-.55.2-3.03.85-5.5 1.46-2.47.6-4.28 1.27-4 1.49.28.22 3.65-.43 7.5-1.45s6.1-1.85 5-1.86c-1.1-.01-2.45.15-3 .36zm59 1.41c3.85 1.07 7.22 1.76 7.5 1.54.28-.22-1.3-.86-3.5-1.41-2.2-.56-5.57-1.25-7.5-1.54-1.93-.29-.35.35 3.5 1.41zm-83 7.46c-4.95 2.4-9.9 5.13-11 6.07-1.4 1.19-.95 1.09 1.5-.32 1.92-1.12 7.33-3.83 12-6.03s8.05-4.02 7.5-4.04c-.55-.02-5.05 1.92-10 4.32zm99.5-1.84c3.03 1.34 5.62 2.33 5.76 2.19.14-.14-2-1.26-4.75-2.5-2.76-1.24-5.35-2.22-5.76-2.19-.41.03 1.72 1.16 4.75 2.5zm7.5 3.17c.55.52 3.25 2.17 6 3.67s4.1 1.99 3 1.08c-1.1-.9-3.8-2.55-6-3.67s-3.55-1.6-3-1.08zM67.95 61.75c-4.52 4.26-9.57 9.55-11.22 11.75-1.66 2.2-.48 1.21 2.61-2.21 3.09-3.41 8.44-8.7 11.89-11.74 3.45-3.05 5.97-5.54 5.61-5.55-.37 0-4.37 3.49-8.89 7.75zM234.5 65c4.4 4.41 8.22 8.02 8.5 8.02.28 0-2.97-3.61-7.2-8.01-4.24-4.41-8.07-8.01-8.5-8.02-.44 0 2.8 3.6 7.2 8.01zM46.75 87.25c-.8 1.24-2.25 3.83-3.22 5.75-.97 1.92-1.33 3.05-.81 2.5.52-.55 2.12-3.14 3.56-5.75 1.43-2.61 2.45-4.75 2.26-4.75-.19 0-1 1.01-1.79 2.25zm-7.55 14.72c-1.21 2.77-2.17 5.37-2.14 5.78.03.41 1.16-1.72 2.5-4.75 1.34-3.03 2.31-5.63 2.14-5.78-.16-.15-1.29 1.98-2.5 4.75zm-5.01 14.18c-.7 2.39-1.14 4.45-.98 4.58.16.13.79-1.66 1.39-3.97.61-2.31 1.05-4.37.99-4.58-.07-.21-.7 1.58-1.4 3.97z" opacity=".53" fill="#f0d290"/><path d="M223 55.12c.82.81 5.78 5.49 11 10.4 8.85 8.33 9.02 8.44 2.5 1.63-3.85-4.01-8.8-8.69-11-10.4-2.2-1.7-3.32-2.43-2.5-1.63zm32.25 38.54c2.34 4.49 4.36 7.98 4.5 7.75.14-.22-1.06-3-2.67-6.16-1.6-3.16-3.63-6.65-4.5-7.75-.87-1.1.33 1.67 2.67 6.16zm4.76 9.34c-.03.28.61 2.08 1.42 4 .82 1.93 1.49 2.83 1.5 2 0-.82-.64-2.62-1.43-4-.79-1.37-1.46-2.28-1.49-2zM32.04 173c.06 1.38.51 3.4 1.01 4.5.63 1.39.72.79.29-2-.33-2.2-.78-4.22-1-4.5-.22-.28-.35.63-.3 2z" opacity=".55" fill="#eac071"/><path d="M107 208.5c0 .28 1.8 1.4 4 2.5s4.34 1.99 4.75 1.99c.41-.01-1.16-1.13-3.5-2.5s-4.47-2.49-4.75-2.49c-.28 0-.5.22-.5.5z" fill="#46cfb7"/><path fill="#82560c" d="M227.17 217.13c-1.19 1.58-2.06 3.52-1.92 4.31.15.85 1.37-.16 3-2.5 1.51-2.17 2.38-4.11 1.92-4.31-.46-.21-1.81.92-3 2.5z"/></svg>