<svg xmlns="http://www.w3.org/2000/svg" width="400" height="401" version="1.2" viewBox="0 0 400 401"><defs><clipPath id="prism_svg-cp1" clipPathUnits="userSpaceOnUse"><path d="M3.2 4.53h394v394H3.2z"/></clipPath><clipPath id="prism_svg-cp2" clipPathUnits="userSpaceOnUse"><path d="M3.2 201.53c0-108.8 88.2-197 197-197 108.79 0 197 88.2 197 197s-88.21 197-197 197c-108.8 0-197-88.2-197-197"/></clipPath><linearGradient id="prism_svg-g1" x2="1" gradientTransform="matrix(394 -394 394 394 3.196 398.53)" gradientUnits="userSpaceOnUse"><stop offset="0" stop-color="#181d27"/><stop offset=".016" stop-color="#181d27"/><stop offset=".031" stop-color="#191e28"/><stop offset=".047" stop-color="#1a1f29"/><stop offset=".063" stop-color="#1b202a"/><stop offset=".078" stop-color="#1c212b"/><stop offset=".094" stop-color="#1d222c"/><stop offset=".109" stop-color="#1e232d"/><stop offset=".125" stop-color="#1f242e"/><stop offset=".141" stop-color="#20252f"/><stop offset=".156" stop-color="#212630"/><stop offset=".172" stop-color="#222731"/><stop offset=".188" stop-color="#232832"/><stop offset=".203" stop-color="#242933"/><stop offset=".219" stop-color="#242933"/><stop offset=".234" stop-color="#252a34"/><stop offset=".25" stop-color="#262b35"/><stop offset=".266" stop-color="#272c36"/><stop offset=".281" stop-color="#282d37"/><stop offset=".297" stop-color="#292e38"/><stop offset=".313" stop-color="#2a2f39"/><stop offset=".328" stop-color="#2b303a"/><stop offset=".344" stop-color="#2c313b"/><stop offset=".359" stop-color="#2d323c"/><stop offset=".375" stop-color="#2e333d"/><stop offset=".391" stop-color="#2f343e"/><stop offset=".406" stop-color="#30353e"/><stop offset=".422" stop-color="#30353f"/><stop offset=".438" stop-color="#313640"/><stop offset=".453" stop-color="#323741"/><stop offset=".469" stop-color="#333842"/><stop offset=".484" stop-color="#343943"/><stop offset=".5" stop-color="#363b45"/><stop offset=".516" stop-color="#363b45"/><stop offset=".531" stop-color="#373c46"/><stop offset=".547" stop-color="#383d47"/><stop offset=".563" stop-color="#393e48"/><stop offset=".578" stop-color="#3a3f49"/><stop offset=".594" stop-color="#3b404a"/><stop offset=".609" stop-color="#3b404a"/><stop offset=".625" stop-color="#3c414b"/><stop offset=".641" stop-color="#3d424c"/><stop offset=".656" stop-color="#3e434d"/><stop offset=".672" stop-color="#3f444e"/><stop offset=".688" stop-color="#40454f"/><stop offset=".703" stop-color="#414650"/><stop offset=".719" stop-color="#424751"/><stop offset=".734" stop-color="#434852"/><stop offset=".75" stop-color="#444953"/><stop offset=".766" stop-color="#454a54"/><stop offset=".781" stop-color="#464b55"/><stop offset=".797" stop-color="#474c56"/><stop offset=".813" stop-color="#474c56"/><stop offset=".828" stop-color="#484d57"/><stop offset=".844" stop-color="#494e58"/><stop offset=".859" stop-color="#4a4f59"/><stop offset=".875" stop-color="#4b505a"/><stop offset=".891" stop-color="#4c515b"/><stop offset=".906" stop-color="#4d525c"/><stop offset=".922" stop-color="#4e535d"/><stop offset=".938" stop-color="#4f545e"/><stop offset=".953" stop-color="#50555f"/><stop offset=".969" stop-color="#515660"/><stop offset=".984" stop-color="#525761"/><stop offset="1" stop-color="#535862"/></linearGradient></defs><style>.prism_svg-s0{fill:#fff}</style><path fill-rule="evenodd" d="M-40-38.67h480v480H-40z" class="prism_svg-s0"/><path fill-rule="evenodd" d="M-40-38.67h480v480H-40z" class="prism_svg-s0"/><g clip-path="url(#prism_svg-cp1)"><g id="prism_svg-Clip-Path" clip-path="url(#prism_svg-cp2)"><path d="M3.2 4.53v394h394v-394z" style="fill:url(#prism_svg-g1)"/></g></g><path fill-rule="evenodd" d="M200.2 53.78c34.14 0 65.57 11.58 90.59 31.03h.01l.29.23q.39.31.79.62.9.72 1.8 1.45.35.29.7.57 1.04.88 2.08 1.77.5.43.99.86.55.48 1.11.98.87.78 1.73 1.57.64.59 1.27 1.19.59.55 1.16 1.1.49.47.97.95 1.08 1.05 2.13 2.13.34.34.67.68l1.19 1.25q.54.57 1.08 1.16.69.75 1.39 1.52.66.75 1.32 1.49l.77.89q2.05 2.38 3.98 4.83l.32.4.38.48-.01.01c19.45 25.01 31.04 56.45 31.04 90.59 0 31.91-10.12 61.45-27.32 85.61-8.53 11.97-34.46-14.19-26.62-26.62 10.77-17.09 17-37.31 17-58.99 0-23.93-7.59-46.09-20.49-64.21l-26.68 26.69c6.5 11 10.23 23.82 10.23 37.52 0 40.8-33.08 73.88-73.87 73.88-13.7 0-26.53-3.74-37.53-10.23l-26.68 26.67c18.11 12.91 40.28 20.49 64.21 20.49 21.68 0 41.9-6.23 58.98-17 12.45-7.83 38.6 18.1 26.62 26.62-24.15 17.2-53.7 27.32-85.6 27.32-34.15 0-65.58-11.59-90.6-31.04l-.01.02q-7.23-5.62-13.87-12.25-6.63-6.65-12.25-13.87l.01-.02c-19.45-25.02-31.03-56.45-31.03-90.59 0-31.91 10.11-61.46 27.31-85.61 8.53-11.98 34.46 14.18 26.62 26.62-10.77 17.08-16.99 37.31-16.99 58.99 0 23.93 7.58 46.09 20.48 64.2l26.68-26.68c-6.5-11-10.23-23.82-10.23-37.52 0-40.8 33.08-73.87 73.88-73.87 13.7 0 26.52 3.73 37.51 10.23l26.69-26.69c-18.11-12.9-40.27-20.48-64.2-20.48-21.68 0-41.91 6.23-58.99 16.99-12.44 7.84-38.6-18.09-26.62-26.62 24.15-17.2 53.7-27.31 85.61-27.31m0 110.81c-20.4 0-36.94 16.54-36.94 36.94 0 3.3.44 6.51 1.25 9.56l.01-.01q.28 1.07.63 2.12.06.17.12.35.18.53.38 1.06c3.76 9.91 11.65 17.79 21.58 21.51q.44.16.88.31.25.09.5.17 1.01.34 2.03.61c3.05.82 6.25 1.26 9.56 1.26 20.39 0 36.94-16.54 36.94-36.94 0-3.31-.45-6.51-1.26-9.56l-.01.01q-.74-2.78-1.92-5.44l-.14-.32q-.38-.83-.8-1.66-.46-.87-.96-1.72-.27-.47-.56-.93-2.1-3.33-4.83-6.14-.17-.18-.35-.35-.1-.11-.22-.22-.97-.95-2.01-1.83-.35-.3-.71-.59-1.65-1.33-3.44-2.47-.59-.37-1.2-.73-.18-.1-.37-.21a36.5 36.5 0 0 0-8.62-3.51l.01-.01c-3.05-.81-6.25-1.26-9.55-1.26" class="prism_svg-s0"/></svg>