<svg xmlns="http://www.w3.org/2000/svg" fill="none" viewBox="0 0 40 40"><g clip-path="url(#pxp_svg-a)"><path fill="#fff" d="M32.869 4.516H7.072v30.916H32.87z"/><path fill="url(#pxp_svg-b)" fill-rule="evenodd" d="M19.927 0C3.517 0 0 3.53 0 20s3.516 20 19.927 20c16.41 0 19.926-3.53 19.926-20S36.337 0 19.927 0m2.256 9.8c1.226.13 2.41.52 3.475 1.141 1.674 1.032 2.831 2.782 2.831 5.327s-1.152 4.344-2.78 5.461a8.55 8.55 0 0 1-3.517 1.336v2.267H19.07v-2.15h-2.18v5.274h1.535v3.126h-6.18v-3.126h1.538V12.832h-1.538V9.706h6.834V7.744h3.112zm-1.556 10.259H16.89v-7.227h3.736c1.28 0 2.529.236 3.402.774.768.473 1.345 1.223 1.345 2.662s-.586 2.317-1.421 2.88a6.04 6.04 0 0 1-3.326.91" clip-rule="evenodd"/></g><defs><linearGradient id="pxp_svg-b" x1="19.927" x2="19.927" y1="0" y2="40" gradientUnits="userSpaceOnUse"><stop stop-color="#5CC6F6"/><stop offset="1" stop-color="#007AFF"/></linearGradient><clipPath id="pxp_svg-a"><path fill="#fff" d="M0 0h40v40H0z"/></clipPath></defs></svg>