<svg xmlns="http://www.w3.org/2000/svg" width="40" height="40" fill="none" viewBox="0 0 40 40"><g clip-path="url(#qbtson_svg-a)"><path fill="#CCE8F7" d="M20 0c11.046 0 20 8.954 20 20s-8.954 20-20 20S0 31.046 0 20 8.954 0 20 0"/><path fill="#008CD7" d="M26 6a8 8 0 0 1 8 8v12a8 8 0 0 1-8 8H14a8 8 0 0 1-8-8V14a8 8 0 0 1 8-8z"/><path fill="#fff" d="M18.422 20.004a2.39 2.39 0 0 1-2.39 2.386 2.39 2.39 0 0 1-2.391-2.386 2.39 2.39 0 0 1 2.39-2.386c1.32 0 2.39 1.068 2.39 2.386M16.032 10a2.39 2.39 0 0 0-2.391 2.386 2.39 2.39 0 0 0 2.39 2.385c1.32 0 2.39-1.068 2.39-2.385A2.39 2.39 0 0 0 16.032 10m7.936 15.232a2.385 2.385 0 1 0 0 4.768c1.32 0 2.39-1.068 2.39-2.382a2.385 2.385 0 0 0-2.39-2.386m-2.39-5.228a2.39 2.39 0 0 1 2.39-2.386c1.32 0 2.39 1.068 2.39 2.386a2.39 2.39 0 0 1-2.39 2.386 2.39 2.39 0 0 1-2.39-2.386m.417 0a1.974 1.974 0 0 0 3.947 0 1.974 1.974 0 0 0-3.947 0"/></g><defs><clipPath id="qbtson_svg-a"><path fill="#fff" d="M0 0h40v40H0z"/></clipPath></defs></svg>