<svg xmlns="http://www.w3.org/2000/svg" width="40" height="40" fill="none" viewBox="0 0 40 40"><g clip-path="url(#qcomon_svg-a)"><path fill="#D6DDF8" d="M20 0c11.046 0 20 8.954 20 20s-8.954 20-20 20S0 31.046 0 20 8.954 0 20 0"/><path fill="#3253DC" d="M26 6a8 8 0 0 1 8 8v12a8 8 0 0 1-8 8H14a8 8 0 0 1-8-8V14a8 8 0 0 1 8-8z"/><path fill="#fff" d="M20 10c-4.809 0-8.686 3.739-8.686 8.728 0 5.004 3.877 8.729 8.686 8.729a8.8 8.8 0 0 0 2.363-.32l.945 2.432c.097.264.292.431.64.431h1.5c.362 0 .626-.236.459-.695l-1.223-3.183c2.404-1.515 4.003-4.197 4.003-7.408C28.687 13.74 24.809 10 20 10m3.78 13.801-1.098-2.849c-.097-.236-.291-.459-.708-.459h-1.432c-.361 0-.64.237-.472.695l1.445 3.739c-.473.125-.987.18-1.515.18-3.516 0-6.018-2.765-6.018-6.379s2.502-6.38 6.018-6.38 6.018 2.767 6.018 6.38c0 2.113-.848 3.92-2.238 5.073"/></g><defs><clipPath id="qcomon_svg-a"><path fill="#fff" d="M0 0h40v40H0z"/></clipPath></defs></svg>