<svg xmlns="http://www.w3.org/2000/svg" viewBox="0 0 73 73"><defs><linearGradient id="qdt_svg-a" x1=".98" x2=".019" y1=".575" y2=".583" gradientUnits="objectBoundingBox"><stop offset="0" stop-color="#ff7200"/><stop offset="1" stop-color="#ff3570"/></linearGradient></defs><g data-name="q orange" transform="translate(-921 -691)"><circle cx="36.5" cy="36.5" r="36.5" fill="url(#qdt_svg-a)" data-name="Эллипс 31" transform="translate(921 691)"/><path fill="#fff" d="M949.133 712.517a15.7 15.7 0 0 1 12.449-1.663 15.83 15.83 0 0 1 9.975 7.652 15.83 15.83 0 0 1 1.64 12.466 13.7 13.7 0 0 1-3.453 6.123 13.3 13.3 0 0 1-5.768 3.55l7.376 1.978-1.215 4.532-17.062-4.574a15.75 15.75 0 0 1-9.953-7.646 15.87 15.87 0 0 1-1.61-12.458 15.8 15.8 0 0 1 7.621-9.96m18.23 8.222a11 11 0 0 0-6.996-5.353 10.95 10.95 0 0 0-8.706 1.114 11.47 11.47 0 0 0-5.353 7.263 11.45 11.45 0 0 0 .997 8.983 11 11 0 0 0 6.986 5.303 11.07 11.07 0 0 0 8.722-1.091 11.4 11.4 0 0 0 5.38-7.274 11.35 11.35 0 0 0-1.03-8.945" data-name="Контур 6480"/></g></svg>