<svg version="1.1" id="Layer_1" xmlns="http://www.w3.org/2000/svg" x="0" y="0" width="32" height="32" viewBox="0 0 32 32" xml:space="preserve"><style>.st0{fill:#00b3ed}</style><g id="Group_6643" transform="translate(-533.522 -388.522)"><g id="Group_525" transform="translate(534.763 390.679)"><g id="Group_77"><path id="Rectangle_48" d="M25.5 12.5h5.3v13.2h-5.3z"/><path id="Path_64" class="st0" d="M25.5 10.9l4.7-2c.3-.2.6-.5.6-.9V5.6l-4.4 1.9c-.5.2-.8.7-.8 1.2l-.1 2.2z"/><path id="Path_65" d="M3.6 12.4c.8-3.9 4.6-6.5 8.6-5.7 3.5.7 5.9 3.8 5.9 7.3 0 .4-.1.9-.1 1.3l2.4 5.3c3.7-5.4 2.4-12.7-2.9-16.5C12 .4 4.6 1.7.9 7.1s-2.4 12.7 2.9 16.5c2.6 1.8 5.7 2.5 8.8 2l-1.9-4.2c-4 0-7.3-3.2-7.3-7.3 0-.6.1-1.2.2-1.7"/><path id="Path_66" class="st0" d="M20.4 25.7h-5.5L11.5 18H17l3.4 7.7z"/></g></g></g></svg>