<svg xmlns="http://www.w3.org/2000/svg" width="40" height="40" fill="none" viewBox="0 0 40 40"><g clip-path="url(#qqqon_svg-a)"><path fill="#E9D4FC" d="M20 0c11.046 0 20 8.954 20 20s-8.954 20-20 20S0 31.046 0 20 8.954 0 20 0"/><path fill="#450E78" d="M26 6a8 8 0 0 1 8 8v12a8 8 0 0 1-8 8H14a8 8 0 0 1-8-8V14a8 8 0 0 1 8-8z"/><g fill="#fff" clip-path="url(#qqqon_svg-b)"><path d="m23.26 23.143-.722.742-.703-.737L21.457 22l-1.077-.379-.002-.714-.7.002-.369 1.812.379 1.172-1.648.745-.502-.737.347-.742-.002-.79-1.075.004-1.42 1.534-1.076-.353-.005-1.53-1.876-.3-1.348.744-.801-.354-.005-1.555.724-.36 2.87-1.463.426.356 1.072-1.1-.002-.715 1.42-1.458.72-1.558 1.069-1.814 1.774-.363.725-.002.002.714 1.43 1.449.005 1.555 2.232 2.16 2.155 1.472 1.075.353.38 1.095 1.427.71-.723.741-.7.003-.002-.739-1.077-.354-1.805-1.804-1.428-.735-1.532-2.187-.702-.713.346-1.174-1.079-1.093-.722.716.005 1.556-.698.717 1.43 1.448-.723.742 1.455 1.449.002.74.705 1.45.725-.002.797-.742-.375-.356-.43-1.095.8-.002.705 1.45.728.738zM10.3 28.898l-.012-3.876.798-.36.014 4.234zm4.1-.016-.8.003-.006-1.684c-.002-.51-.202-.662-.502-.66-.35 0-.5.154-.498.664l.006 1.683-.775.002-.01-3.085.775-.002v.23c.15-.154.35-.283.724-.284.7-.002 1.077.506 1.08 1.373m3.222-1.337-1.065 3.09-.8.003-1.085-3.082.876-.003.429 1.4c.076.28.127.587.202.714 0-.128.074-.434.147-.715l.421-1.404m3.028 1.166c-.076-.28-.227-.51-.577-.509-.375.002-.574.232-.648.513m.731 1.96c-.875.004-1.527-.632-1.53-1.6-.003-.945.645-1.584 1.445-1.587.85-.003 1.352.71 1.355 1.577v.306l-2 .007c.077.356.427.508.727.507.126 0 .426-.078.575-.231l.551.457c-.273.434-.848.564-1.123.565m3-.726c.275 0 .425-.078.425-.23 0-.204-.276-.28-.426-.28-.575-.15-1.3-.225-1.303-1.015-.002-.587.572-.946 1.222-.948.425-.001.85.125 1.151.354l-.423.588a1.35 1.35 0 0 0-.726-.227c-.35 0-.425.077-.424.23 0 .128.425.203.651.279.575.15 1.076.302 1.078.94.002.663-.647 1.021-1.297 1.024-.5.001-.925-.2-1.301-.43l.448-.51c.275.15.575.227.925.225m3.143-1.693a.787.787 0 0 0-.772.793c.001.46.353.815.777.814.3-.001.5-.155.65-.36l.65.508c-.298.358-.797.64-1.297.642-.85.002-1.577-.709-1.58-1.601a1.595 1.595 0 0 1 1.57-1.587c.5-.001 1 .277 1.302.634l-.649.512c-.15-.203-.351-.356-.65-.355m3.802.778c-.001-.434-.302-.79-.727-.789-.5.002-.774.36-.773.794.002.459.278.815.778.813.425-.001.724-.36.722-.818m.775-.003c.003.892-.62 1.608-1.495 1.611-.85.003-1.577-.709-1.58-1.601a1.595 1.595 0 0 1 1.57-1.587c.875-.002 1.502.71 1.505 1.577"/></g></g><defs><clipPath id="qqqon_svg-a"><path fill="#fff" d="M0 0h40v40H0z"/></clipPath><clipPath id="qqqon_svg-b"><path fill="#fff" d="M10 12h20v17H10z"/></clipPath></defs></svg>