<svg xmlns="http://www.w3.org/2000/svg" viewBox="0 0 32 32"><linearGradient id="a" gradientUnits="userSpaceOnUse" x1="151.627" y1="-337.234" x2="122.237" y2="-325.481" gradientTransform="translate(-120.945 347.362)"><stop offset="0" stop-color="#7d4695"/><stop offset=".49" stop-color="#4267b0"/><stop offset=".49" stop-color="#4368b0"/><stop offset="1" stop-color="#60bfbb"/></linearGradient><path d="M28.4 12v11.2L16 30.3 3.6 23.2V8.8L16 1.7l9.5 5.5 1.5-.9L16 0 2.1 8v16L16 32l13.9-8V11.2l-1.5.8z" fill="url(#a)"/><linearGradient id="b" gradientUnits="userSpaceOnUse" x1="151.056" y1="-338.661" x2="121.667" y2="-326.908" gradientTransform="translate(-120.945 347.362)"><stop offset="0" stop-color="#7d4695"/><stop offset=".49" stop-color="#4267b0"/><stop offset=".49" stop-color="#4368b0"/><stop offset="1" stop-color="#60bfbb"/></linearGradient><path d="M12.5 23.2h-2.1v-7h6.9c.7 0 1.3-.3 1.7-.7.5-.5.7-1.1.7-1.7 0-.3-.1-.6-.2-.9-.1-.3-.3-.6-.5-.8-.2-.2-.5-.4-.8-.5-.3-.1-.6-.2-.9-.2h-6.9V9.1h6.9c1.2 0 2.4.5 3.2 1.4.9.9 1.3 2 1.4 3.2 0 .9-.3 1.8-.8 2.6-.5.7-1.2 1.3-2 1.6-.8.3-1.6.4-2.5.4h-4.2v4.9z" fill="url(#b)"/><linearGradient id="c" gradientUnits="userSpaceOnUse" x1="153.998" y1="-331.304" x2="124.609" y2="-319.551" gradientTransform="translate(-120.945 347.362)"><stop offset="0" stop-color="#7d4695"/><stop offset=".49" stop-color="#4267b0"/><stop offset=".49" stop-color="#4368b0"/><stop offset="1" stop-color="#60bfbb"/></linearGradient><path d="M21.9 23h-2.4l-1.9-3.3c.7 0 1.5-.2 2.2-.4l2.1 3.7z" fill="url(#c)"/><linearGradient id="d" gradientUnits="userSpaceOnUse" x1="150.866" y1="-339.131" x2="121.477" y2="-327.378" gradientTransform="translate(-120.945 347.362)"><stop offset="0" stop-color="#7d4695"/><stop offset=".49" stop-color="#4267b0"/><stop offset=".49" stop-color="#4368b0"/><stop offset="1" stop-color="#60bfbb"/></linearGradient><path d="M27 9.7l1.4.8 1.4-.8V8l-1.4-.8L27 8v1.7z" fill="url(#d)"/></svg>