<svg xmlns="http://www.w3.org/2000/svg" width="64" height="64"><path fill="#0093F6" d="M31 0c-1.584 1.056-3.178 2.101-4.832 3.043-7.555 4.366-12.462 9.738-15.473 18.012-1.716 7.269-2.177 15.712.992 22.633 2.799 4.494 6.094 7.105 11.126 8.75 4.666.966 8.168.07 12.187-2.438 4.758-4.19 7.548-8.668 8.215-15.059.314-7.25-1.225-13.843-5.903-19.504L35 13c4.32.188 7.957.444 11.813 2.5 5.093 5.822 6.9 11.98 6.566 19.668C52.197 44.003 48.68 51.074 42 57c-6.501 4.679-13.12 5.984-21 5-7.774-2.576-13.98-7.16-18.316-14.11-3.85-7.992-4.198-18.125-1.954-26.67C1.663 18.996 2.715 17.037 4 15l1.063-1.883C8.86 7.024 14.654 3.472 21.125.625 24.482-.105 27.575-.137 31 0"/><path fill="#0092F6" d="M46.512 2.727c8.317 3.897 13.492 11.235 16.8 19.586 2.007 10.76.4 20.18-5.5 29.5C52.729 58.296 44.965 62.309 37 64c-2.402.199-4.586.154-7 0 1.945-.992 3.878-1.95 5.895-2.79 8.322-3.626 12.966-9.882 16.378-18.132 2.876-8.223 2.531-15.893-.996-23.875C48.81 14.946 45.7 12.567 41 11c-5.258-.397-8.561.105-13 3-6.323 6.61-7.456 11.83-7.324 20.766C21.284 40.83 24.146 45.376 28 50c-3.798 1.266-5.382.594-8.996-.844C14.71 46.68 12.527 42.582 11 38c-1.017-10.387-.16-18.228 6-27C24.709 2.308 35.262-.528 46.512 2.727"/></svg>