<svg xmlns="http://www.w3.org/2000/svg" width="100%" viewBox="0 0 600 600" height="150" xmlns:v="https://vecta.io/nano"><style><![CDATA[.rtbl-B {fill:#eaeef2}.rtbl-C {fill:#1e1913}.rtbl-D {fill:#f4bd86}.rtbl-E {fill:#d3a872}.rtbl-F {fill:#f3f7f7}.rtbl-G {fill:#fcc377}.rtbl-H {fill:#342c27}.rtbl-I {fill:#b79f7e}.rtbl-J {fill:#fdd6a1}.rtbl-K {fill:#21232e}.rtbl-L {fill:#fde0bb}.rtbl-M {fill:#fdd398}.rtbl-N {fill:#fefefe}.rtbl-O {fill:#e9c8a0}.rtbl-P {fill:#151b28}.rtbl-Q {fill:#f8c785}.rtbl-R {fill:#201e25}.rtbl-S {fill:#e9d2b4}.rtbl-T {fill:#fcce8d}.rtbl-U {fill:#daac6c}.rtbl-V {fill:#f4b25d}]]></style><path fill="#0b1b3d" d="M279 1l42.708.377 34.155 4.506c.577.085.814.057 1.357.176l14.075 3.008 1.875.645 19.183 5.254 2.674.931 12.165 4.223c.352.206.514.246.908.521l6.117 2.331c.501.283.816.335 1.389.564l4.564 1.934 4.047 1.798 8.714 3.807c.026-.058-.061.034.084.309 1.098.645 2.05 1.015 3.227 1.596l2.66 1.429 7.085 3.607c.009-.019-.022.011.125.28.717.444 1.287.619 1.916.914.059.12.322.079.511.342.949.613 1.71.962 2.586 1.459.115.148.49.156.675.438l3.295 1.927c.608.421 1.104.598 1.776 1.073a105.38 105.38 0 0 0 8.011 4.698c.068-.082-.098.051.001.329.784.63 1.469.982 2.331 1.526.341.251.505.309.82.643l4.011 2.744c.428.346.745.458 1.209.838l2.876 1.961 1.602 1.297 6.889 4.869c.057-.032-.003.084.15.346l2.261 1.676c.496.458.894.695 1.473 1.213l2.497 2.123 38.355 37.553 2.688 3.166 4.718 5.622 10.294 13.841c-.007.043.08.046.117.327l2.489 3.707c.512.589.794.749 1.068.876-.008-.034.001.04-.008.365 3.126 5.403 6.343 10.434 9.382 15.569 15.225 25.724 25.923 53.275 32.991 82.58.282 1.101.615 1.882.912 3.048l1.109 6.006c.541 2.82 1.129 5.252 1.702 8.098l.644 4.9c.182 2.054.376 3.701.611 5.343L601 280l-.375 43.71c-1.636 10.209-2.654 19.811-4.204 29.326-4.001 24.563-11.675 48.043-21.731 71.081-1.037 2.111-1.804 4.011-2.768 6.153-.466 1.009-.735 1.777-1.271 2.714-.662 1.124-1.058 2.079-1.597 3.197-.143.162-.157.595-.431.757-.66 1.134-1.046 2.106-1.643 3.36l-22.286 35.814-8.953 12.063-42.093 42.868-27.983 20.928c-.58.147-.762.393-1.136.833l-13.248 8.061c-1.032.541-1.794 1.033-2.891 1.618l-5.857 3.299c-23.565 12.366-47.962 21.483-73.783 27.536-.766.228-1.255.46-2.004.655-.422.027-.585.09-1.158.108l-32.241 5.052L322 601c-14.354 0-28.708 0-43.682-.379l-37.708-5.595c-14.523-4.158-28.845-7.672-42.773-12.359-22.705-7.639-43.544-19.23-63.866-32.313-1.404-1.017-2.656-1.76-4.02-2.737-.431-.349-.749-.464-1.213-.847-1.014-.758-1.882-1.25-2.745-1.758.005-.018-.025.003-.138-.266-.615-.542-1.117-.814-1.649-1.026-.03.061.089-.003-.071-.295-3.654-2.82-7.148-5.349-10.671-7.879-.03-.002-.044-.06-.183-.313-.761-.681-1.383-1.11-2.09-1.451-.085.088.119-.048.008-.304-.445-.402-.78-.549-1.231-.949-.598-.456-1.078-.657-1.607-.849-.048.01-.016-.083-.116-.411-4.24-4.075-8.395-7.805-12.516-11.572-16.582-15.161-30.596-32.532-43.682-51.064-.98-1.5-1.916-2.673-2.886-3.788-.033.059.083-.01.012-.358l-9.067-14.856c-.197-.545-.33-.741-.574-1.28l-4.496-7.886-17.949-41.89c-6.339-19.247-10.981-38.497-13.465-58.259C2.893 334.527 1.882 328.772 1 323l.38-45.693c.488-1.283.64-1.932.698-2.589 3.799-42.407 16.143-82.203 36.714-119.772l2.256-4.103c.189-.148.241-.625.16-.68s.04.098.311-.069a16.92 16.92 0 0 0 1.562-3.018c-.06-.024.036.063.323-.113 1.778-2.748 3.267-5.32 5.043-8.072 12.432-19.321 26.23-37.261 43.13-52.33 15.186-13.541 31.588-25.719 47.802-38.542l10.242-6.21c1.339-.711 2.327-1.362 3.657-2.072l14.279-7.685C197.14 17.642 227.854 8.137 260.154 3.8L279 1m-46.222 367.444s-.163-.456.016-1.28c-.06-1.679-.12-3.357.014-5.784-.067-2.835-.134-5.671-.02-9.18-.059-.69-.118-1.38.024-2.844-.067-3.494-.135-6.989-.026-11.058-.06-.391-.119-.783.023-1.971l-.019-14.151c-.023-1.386-.045-2.773.159-5.072l-.131-19.041.135-42.707c-.069-.451-.137-.903-.11-2.134.115-1.036.23-2.072.819-3.076 0 0 .44-.178 1.34.01l34.405-.023c1.544-.012 3.082-.749 5.174-.946 1.106-2.099 3.156-4.208 3.132-6.294-.06-5.134-.98-10.272-1.773-15.374-.187-1.204-1.238-2.274-2.493-3.794-.198-.133-.395-.267-.914-1.037-.77-.227-1.534-.631-2.31-.654l-36.098-.929c-7.111-.048-14.225.737-21.341.821-4.284.051-8.572-.734-12.863-.78-10.903-.118-21.81-.131-32.712.058-2.071.036-4.123 1.194-6.251 2.488-.034.437-.067.874-.581 1.975l.536 23.858c.027.175.054.351.314.923.192.248.431.436 1.259 1.059 5.176.487 10.344 1.201 15.531 1.401 6.314.244 12.65-.086 18.962.171 1.327.054 3.679 1.535 3.719 2.44.349 7.907.422 15.835.304 23.753l-.91 44.623.268 52.211c.012.94 1.72 1.857 2.732 2.786 0 0 .023.091.043.687a34.16 34.16 0 0 0 4.789 1.397c8.338-.667 16.676-1.335 25.054-2.533-.068-.164-.136-.328-.137-1.338-.035-1.697-.07-3.393.11-5.688-.083-.832-.166-1.663-.171-2.972m-125.49-98.026c-4.719-.463-9.444-1.33-14.156-1.267-4.042.054-8.069 1.171-12.657 2.269-1.151 2.06-3.291 4.113-3.306 6.181l.111 92.987c.044 3.18 3.712 6.31 5.856 10.22 1.484.73 2.915 1.926 4.462 2.102 4.77.541 9.587.938 14.381.9 2.782-.022 5.557-.984 8.926-1.637l-.055-3.813s.162-.312.93-.554c.403-1.013 1.153-2.024 1.157-3.038l-.145-53.77c-.132-4.934-1.33-9.437 3.367-12.935.683-.509.536-2.131 1.078-3.828 2.166-1.429 4.331-2.857 7.27-4.214 1.284.132 2.59.484 3.847.357 5.551-.559 11.094-1.212 16.623-1.958.688-.093 1.274-.942 1.896-1.513 0 0 .066-.035.789-.104 1.442-6.909 3.084-13.786 4.193-20.747.3-1.885-1.011-4.026-2.226-6.221-.207-.08-.414-.161-.862-.903-6.385-3.205-13.042-2.472-19.557-.86-2.554.632-4.762 2.664-7.186 3.966 0 0 .095.056-.697.037-4.062 1.971-7.98 1.251-12.39-.728-.351-.129-.702-.257-1.649-.931m198.695 109.66l47.152.621c1.542.498 3.197 1.639 4.606 1.39 8.548-1.51 17.014-3.474 25.557-5.017 7.396-1.336 13.005-5.891 17.453-11.125 4.618-5.434 7.15-12.593 11.423-18.385 2.832-3.839 3.018-7.911 3.303-12.046.306-4.444-.18-8.943-.34-13.418-.028-.791.032-1.659-.266-2.355l-6.144-13.958c-.877-2.024-1.394-5.755-2.45-5.896-6.395-.855-6.992-7.958-12.464-9.843 6.632-7.434 7.094-15.82 7.36-24.668.416-13.83-5.216-23.961-15.376-32.884-9.477-8.323-20.474-11.098-32.33-11.392-16.151-.401-32.32-.086-48.481-.098-10.741-.008-11.697.657-11.846 12.092-.193 14.785.585 29.581.843 44.374l.114 21.99c.041 1.541 1.172 3.053 1.84 5.506-.013 6.002-.025 12.004-.774 18.276-.382 1.021-1.091 2.041-1.097 3.064l.028 41.177c.011 1.191 1.17 2.371 1.802 4.312.32 2.06.641 4.12 1.182 6.719.317.21.635.419 1.189 1 .2.225.443.385 1.517.497 1.052.028 2.104.057 3.294.619.658-.175 1.316-.351 2.905-.551m129.48-.589l2.993 4.467c7.326-.62 15.197-1.713 23.08-1.812 5.848-.073 11.722 1.746 17.568 1.656 9.743-.151 19.466-1.295 29.211-1.707 2.501-.106 5.055.942 7.577 1.494 5.745 1.257 11.279.369 16.389-2.267 1.177-.607 2.052-3.021 2.003-4.571-.219-6.952-.726-13.9-1.367-20.827-.123-1.329-1.32-2.558-2.674-3.852-.427-.084-.854-.169-1.533-.989-1.705-.362-3.395-.918-5.118-1.045-3.312-.244-6.642-.326-9.965-.334l-43.995-.014-.602-38.641-.064-80.949c-.004-2.086 1.053-5.063-3.048-5.579-.01-.181-.021-.363-.181-1.302l-29.781-1.111c-.814-.009-2.082 3.016-2.379 4.76-.321 1.89.423 3.934.405 5.908l-.926 92.264.075 50.993c.007.996 1.219 1.984 2.332 3.459z"/><g class="rtbl-N"><path d="M38.593 155.171c-20.372 37.344-32.715 77.14-36.515 119.547a4.66 4.66 0 0 1-.698 2.121L1 1h277.531l-18.377 2.8c-32.3 4.338-63.014 13.842-92.956 28.177-4.876.987-9.04 2.008-13.254 2.741-.648-.68-1.246-1.071-1.844-1.463l-.498 1.755c.801-.006 1.602-.011 2.358.333l-1.024 4.454c-.987.65-1.975 1.301-3.459 1.694-4.395.694-8.294 1.644-12.63 2.702l2.184 3.87C123.165 60.842 106.764 73.02 91.578 86.56c-16.901 15.069-30.699 33.009-43.496 52.299-2.081-.369-3.512-.887-5.997-1.787l1.031 10.067s-.095-.086-.389-.088l-2.072-.04c-2.695.315-5.029.645-7.362.974l-.542 1.899 5.842 5.287M147.487 38.249l-.849-.593c.181.294.363.588.849.593zm221.54 555.073c25.545-6.056 49.942-15.173 73.694-27.242 5.712 3.618 5.523-.508 6.005-3.689.762-.492 1.524-.983 2.985-1.474 6.945.452 10.139-3.743 13.167-8.189.025-.363.207-.609 1.192-.729 2.226-.397 3.921-.566 5.366-1.258 5.416-2.593 10.75-5.358 16.488-8.246l-1.807-3.574 9.536-3.555-1.669-4.389 42.111-42.795c2.398-1.506 4.153-2.845 5.907-4.183-.002.002-.006.006.355-.079 1.108-2.728 1.855-5.371 2.602-8.013l22.355-35.695c.892-1.391 1.238-2.413 1.583-3.436 0 0 .014-.432.489-.682.827-1.26 1.179-2.269 1.531-3.278.269-.767.538-1.535 1.24-2.425.902.123 1.371.368 1.888.728.049.116.363.129.363.129s-.407-.25-.375-.542c.344-.764.656-1.237 1.016-1.597.048.112.346.127.346.127s-.401-.232-.398-.657l-.037-4.672c9.785-22.827 17.459-46.308 21.461-70.87 1.55-9.515 2.568-19.117 4.204-28.857L601 601c-83.021 0-166.042 0-249.429-.371.945-.793 2.3-1.114 3.56-1.656l10.868-4.847c.163-.063.326-.126.911.047.987-.127 1.553-.489 2.118-.851m85.715-28.841l.588-.842c-.291.18-.582.36-.588.842z"/><path d="M424 27c-1.207-.427-2.414-.854-3.918-1.927-1.77-1.034-3.243-1.423-4.716-1.812-.331.046-.646-.006-1.2-.637-1.722-2.963-3.289-5.101-6.296-2.216-.163-.04-.325-.081-.744-.648-3.987-2.076-7.712-3.638-11.469-5.119-.137-.054-.588.689-.893 1.061a8.19 8.19 0 0 1-2.467-1.067c-4.177-1.867-7.892-3.502-11.766-4.539-2.431-.65-5.102-.403-7.665-.558-.425-.105-.851-.21-1.67-.82-4.468-1.744-8.528-3.03-12.636-4.142-.398-.108-1.089.865-1.644 1.337-.237.028-.474.055-.926-.495-.139-1.858-.063-3.137.013-4.417.75 0 1.5 0 2.675.281.74.579 1.055.877 1.371 1.174L361 1c2.371 0 4.741 0 7.559.385 1.182 1.425 1.918 2.464 2.653 3.504L375 1h226l-.31 255.48c-1.272-.561-2.234-1.54-3.197-2.518-.23-1.359-.461-2.717-.337-4.682 3.065-5.514 2.483-7.42-1.993-8.296-.397-1.744-.794-3.488-.943-5.792-.193-1.438-.634-2.316-1.075-3.194-7.119-28.984-17.817-56.535-33.042-82.259-3.039-5.135-6.256-10.166-9.294-15.809.04-.407-.016-.249-.072-.091-.282-.16-.563-.321-.759-1.151-.89-1.695-1.866-2.721-2.843-3.747 0 0-.087-.003-.073-.469-.843-3.768-1.552-7.118-2.619-10.35-.534-1.617-1.406-3.753-2.703-4.309-1.304-.56-3.325.547-5.032.924-1.525-1.661-3.049-3.322-4.656-5.661-.979-1.486-1.877-2.296-2.774-3.105L490.98 68.316c-1.025-1.108-1.841-1.558-2.657-2.008-.398-.237-.797-.473-1.347-1.279-.887-.909-1.624-1.25-2.36-1.59a3.03 3.03 0 0 0 .156-.429c1.85-1.235 3.605-2.157 5.359-3.079l-1.785-2.606-10.78.861c-.442-.254-.884-.509-1.495-1.329-1.101-1.01-2.033-1.454-2.966-1.898-.317-.112-.635-.223-1.054-.937-1.419-1.742-2.736-2.881-4.299-4.27-1.154-.35-2.062-.452-2.971-.553 0 0 .166-.133.1-.412-2.113-2.965-3.948-6.043-8.188-4.634-.496-.177-.991-.355-1.678-1.145-1.261-1.022-2.331-1.431-3.401-1.839 0 0-.375-.009-.584-.502-1.033-.788-1.857-1.082-2.68-1.377 0 0-.263.041-.147-.304.636-.753 1.156-1.161 1.675-1.569l-.295-.565-3.618 1.177s.03-.03-.036-.352c-2.173-2.033-3.5-5.486-7.246-3.536-.739-.316-1.477-.633-2.526-1.486-1.302-.873-2.295-1.209-3.288-1.545 0 0 .088-.092.075-.413-1.848-5.659-4.346-6.603-8.945-3.696zM134.123 550.629c20.169 12.809 41.007 24.4 63.713 32.039 13.928 4.686 28.25 8.2 42.823 12.691.399 2.18.37 3.911.341 5.641H1l.423-225.532c7.099-.325 8.36.742 8.54 7.188.166 5.945.035 11.897.035 19.156l7.084-2.847 17.875 41.898c-1.74 7.068-1.075 8.066 4.684 7.832.133.196.266.391.088 1.02-.606 1.093-1.336 1.988-1.127 2.376 2.189 4.054 4.529 8.027 6.983 12.294l3.658.45s-.116.069-.123.361c.985 1.449 1.977 2.606 2.969 3.763 13.042 18.206 27.056 35.577 43.638 50.738 4.121 3.768 8.277 7.497 12.228 11.702-.553.887-.918 1.317-1.282 1.747l.683.452 1.052-1.927c.481.202.961.403 1.678 1.111.565.655.894.804 1.223.953 0 0-.204.136-.132.409.795.63 1.519.986 2.242 1.342 0 0 .014.059-.069.453.081 3.043.245 5.691.392 8.073 1.909-.266 3.47-.635 5.036-.663 1.836-.032 3.677.232 5.516.368 0 0-.119.064-.013.301.633.491 1.159.744 1.686.998 0 0 .031-.021.08.329.978.797 1.908 1.246 2.837 1.694.318.115.636.231 1.059.945.522 3.158 1.585 4.428 4.181 2.645m-98.419-97.768l-.334.306c.111-.017.223-.034.334-.306z"/></g><path d="M17.086 398.577c-1.986 1.185-3.968 1.982-7.088 3.235l-.035-19.156c-.18-6.446-1.441-7.513-8.54-7.657C1 357.979 1 340.958 1 323.469l2.621 16.849c2.483 19.762 7.126 39.012 13.465 58.259z" class="rtbl-F"/><path d="M241.469 601c-.44-1.73-.411-3.461-.432-5.524 12.187 1.367 24.424 3.067 36.812 5.145-11.87.379-23.891.379-36.38.379zm124.119-6.918c-3.21 1.666-6.815 3.323-10.458 4.891-1.26.542-2.615.863-4.029 1.656-9.456.371-18.811.371-28.633.371 3.314-.623 7.094-1.258 10.878-1.866l32.241-5.052z" class="rtbl-B"/><path d="M355.531 1c.393 1.28.317 2.56.116 4.305-11.181-.873-22.238-2.212-33.471-3.928C333.021 1 344.042 1 355.531 1z" class="rtbl-F"/><path d="M597.462 254.372c.994.568 1.956 1.547 3.228 2.577.31 7.406.31 14.76.31 22.583l-2.927-19.817c-.235-1.641-.43-3.288-.611-5.343z" class="rtbl-B"/><path d="M374.572 1c-.834 1.296-2.097 2.593-3.36 3.889-.735-1.04-1.471-2.079-2.209-3.504C370.714 1 372.429 1 374.572 1zm-13.905 0c.015.485-.303.97-.621 1.455a5.44 5.44 0 0 1-.996-1.174c.395-.281.839-.281 1.617-.281z" class="rtbl-F"/><path d="M234.102 249.967s-.44.178-1.003.015c-1.293-.072-2.641-.058-2.663.12-.675 5.434-1.036 10.913-1.87 16.32-.351 2.271-1.659 4.393-2.935 6.641-6.479.017-12.556-.024-18.634-.531-.002-4.076.5-7.778-.144-11.269-.651-3.525-2.438-6.839-3.936-10.439l-1.351-1.178c-2.377-.419-4.478-.588-6.575-1.19.01-1.757-.166-3.117.085-4.393.197-.998.925-1.892 1.416-2.832.879.743 1.783 1.458 2.626 2.24.445.413.782.942 1.87 2.286l4.37-10.492-24.162-7.63c-1.95-1.152-5.806 5.318-5.74-2.571l37.599.351c1.623 1.527 2.989 3.283 4.73 3.819 5.792 1.784 11.763 2.981 17.568 4.726 1.971.592 4.279 1.78 5.22 3.401.516.889-1.496 3.246-2.253 4.717.808 1.786 1.736 3.838 2.244 5.894-2.433.668-4.447 1.332-6.46 1.996z" class="rtbl-G"/><path d="M295.898 304.038c-.629-1.525-1.76-3.037-1.801-4.578-.193-7.326.014-14.661-.114-21.99-.258-14.793-1.036-29.589-.843-44.374.149-11.435 1.104-12.099 11.846-12.092l48.481.098c11.856.294 22.853 3.069 32.33 11.392 10.16 8.923 15.792 19.054 15.376 32.884-.266 8.848-.728 17.234-7.36 24.668 5.472 1.885 6.069 8.989 12.464 9.843 1.056.141 1.573 3.873 2.45 5.896l6.144 13.958c.299.696.238 1.564.266 2.355.16 4.475.646 8.974.34 13.418-.285 4.135-.47 8.207-3.303 12.046-4.274 5.792-6.805 12.951-11.423 18.385-4.447 5.233-10.057 9.788-17.453 11.125-8.542 1.543-17.009 3.507-25.557 5.017-1.41.249-3.065-.892-4.257-1.734 2.717-.625 5.086-.907 7.87-1.276 1.831-.081 3.245-.074 4.848.154 1.044.12 1.9.019 3.162-.15l15.913-5.269c.476-.24.695-.485.87-.718-.045.012 0 .093.248.078.583-.088.866-.251 1.411-.631l6.101-3.868c2.657-2.57 4.987-5.034 7.255-7.547-.062-.049.017.088.34-.028 16.4-18.82 15.778-52.709-11.696-69.543 1.198-2.094 2.342-4.239 3.619-6.301 8.406-13.581 7.188-31.724-3.28-43.669-5.426-8.309-13.106-12.904-22.437-15.649-.741-.058-1.172-.021-1.803-.335-3.148-.806-6.092-1.628-9.043-1.655l-56.457-.156c-1.062.002-2.123.829-3.276 1.265-.091-.007-.273-.035-.515.296-.367 2.312-.596 4.293-.601 6.274l-.116 72.411z" class="rtbl-K"/><path d="M366.014 379.013c-1.414-.007-2.829-.014-5.119.002l-62.092.081c-.428-.031-.6.007-.772.046-.317-.21-.635-.419-.98-1.358l-.004-68.526-.19-84.236s.181.028.615.025c1.461.314 2.489.63 3.249 1.266-.42 7.725-.675 15.131-.675 22.537 0 2.718.606 5.437.938 8.609l.012 10.017-.984 19.005-.888 30.791-.055 38.701c-.003 4.988-.172 9.982.034 14.961.168 4.081 1.684 6.551 6.717 6.176 13.032-.972 26.103-1.422 39.277-1.709 3.54 2.072 6.911 3.115 10.361-.38 2.127.001 3.83.003 5.847.268 1.442.414 2.625.865 3.687.667l20.227-3.986c.241.008.725.017.763.321.081.502.124.702.166.901 0 0-.045-.081-.225-.022-.476.185-.717.38-.902.643-5.083 1.735-10.166 3.471-16.02 5.159a49.61 49.61 0 0 0-2.986.043z" class="rtbl-O"/><path fill="#e2d4c3" d="M465.888 223.976l.031 1.256-.055 119.265c-.001 1.817-.17 3.633-.487 5.155-.604-2.723-1.306-5.151-1.311-7.581l-.051-109.337c0-1.331.432-2.903-.126-3.936-.794-1.468-2.259-3.534-3.543-3.613-6.134-.377-12.309-.287-18.457-.051-.99.038-2.633 1.562-2.757 2.551-.595 4.755-.772 9.563-1.106 14.792l-.011 7.963c-.339 8.678-.937 16.887-.876 25.09.033 4.495 1.181 8.982 1.826 13.941l-.961 88.678c-.007.236.004.708-.318.786-.763.056-1.203.034-1.697-.45l-.053-154.511h29.95z"/><path d="M465.603 349.947l.261-5.449.148-119.01c4.007-.452 2.951 2.525 2.955 4.611l.064 80.949.602 38.641 43.995.014 9.965.334c1.722.127 3.413.683 5.014 1.531-.242.588-.381.691-1.001.758l-32.064.171-24.963-.264c-1.142-.043-1.913.045-3.04.13-.811-.063-1.267-.123-1.78-.555l-.156-1.861z" class="rtbl-P"/><path d="M203.124 251.017c1.289 3.407 3.077 6.722 3.727 10.246.644 3.49.142 7.193.143 11.519 0 .717-.001 1.216-.38 1.332-2.167 4.819-2.971 9.467.38 14.355l-.065 73.793c-.008 2.23-.598 4.522-1.276 6.672-1.317 4.177.608 6.92 5.074 7.096 4.791.188 9.574.632 14.364.705.966.015 1.95-1.133 3.235-1.89 1.094-1.383 1.879-2.621 2.877-3.87.214-.011.641-.033.744.183.251.515.479.729.788.858.035 1.697.07 3.393-.116 5.62-.432.732-.599.965-1.181 1.292l-27.581.145c-.406-.086-.575-.088-.743-.09 0 0-.023-.091-.096-.548l-.067-75.442.174-51.976z" class="rtbl-D"/><path fill="#252126" d="M82.977 380.053c-1.986-3.153-5.653-6.283-5.698-9.464l-.111-92.987c.014-2.068 2.154-4.121 3.871-6.387.757-.184.948-.162 1.023.312l-.106 81.916.002 23.971c1.32.853 2.704 1.31 4.071 1.973-.017.207-.045.621-.421.621l-2.632.044z"/><path d="M202.915 250.824l.035 52.169.02 75.441c-.892-.471-2.599-1.389-2.611-2.329l-.268-52.211.91-44.623c.118-7.918.045-15.846-.304-23.753-.04-.905-2.392-2.386-3.719-2.44-6.313-.258-12.649.073-18.962-.171-5.187-.201-10.355-.915-15.828-1.848-.297-.446-.417-.83-.353-.894s.192-.192.656-.131l39.351-.138 1.074.927z" class="rtbl-H"/><path fill="#171c35" d="M436.043 378.949l2.109.046 92.636-.02.068-26.286c.068-.192.039-.599.039-.599.702 1.275 1.899 2.505 2.022 3.834.642 6.927 1.149 13.876 1.367 20.827.049 1.549-.826 3.964-2.003 4.571-5.11 2.636-10.645 3.524-16.389 2.267-2.522-.552-5.077-1.599-7.577-1.494-9.745.412-19.469 1.556-29.211 1.707-5.846.091-11.719-1.729-17.568-1.656-7.884.098-15.755 1.192-23.08 1.812-.954-1.425-1.974-2.946-2.963-4.718a.64.64 0 0 1 .55-.29z"/><path fill="#282a31" d="M435.991 378.487c-.121.475-.294.488-.728.51-.912-.982-2.124-1.97-2.131-2.966l-.075-50.993.926-92.264c.018-1.974-.726-4.017-.405-5.908.296-1.744 1.565-4.769 2.379-4.76 9.93.106 19.855.668 29.856 1.491-9.711.379-19.497.379-29.875.379l.053 154.511z"/><path d="M226.032 273.006c.873-2.19 2.182-4.313 2.532-6.583.835-5.406 1.196-10.885 1.87-16.32.022-.178 1.37-.192 2.426-.136.212 1.182.097 2.219-.252 3.802-.114 1.113.005 1.679.125 2.244l-.197 42.856c-.126 6.92.03 13.034.185 19.148.023 1.386.045 2.773-.408 4.564-1.753.411-3.031.417-4.311.171-.001-.419-.001-.586.14-.852.046-.364-.048-.631-.145-1.366l-.727-22.835c.081-3.434-.099-6.566-.277-10.149l-.962-14.544z" class="rtbl-Q"/><path d="M123.733 299.95l-6.959 4.698c-2.082 1.849-3.701 3.287-5.522 4.421-.132-1.45-.489-2.923.089-3.684 1.717-2.257 3.804-4.233 6.086-6.334l2.99-1.964c.695-.013 1.092-.027 1.608.099.409.038.698-.064.982-.175-.006-.009.013.003.33-.163 5.722-1.385 11.078-3.144 16.549-3.652 4.306-.4 6.013-2.168 6.113-6.085.093-3.656-.114-7.325.092-10.973.191-3.383-1.367-4.145-4.458-4.251-8.499-.291-16.493.885-23.302 6.485-1.81 1.489-3.575 3.033-5.667 4.497-.743-.675-1.18-1.294-1.464-2.207 3.742-3.051 7.33-5.809 10.919-8.567 0 0-.095-.056.337-.021 8.975-2.499 17.624-3.94 26.553-2.479.207.08.414.161.963.775-.783 9.19-1.908 17.847-3.033 26.503 0 0-.066.035-.46.016-8.173-1.37-15.883-2.228-22.745 3.061z" class="rtbl-E"/><path d="M234.552 250.061c1.563-.758 3.577-1.422 6.423-2.012 9.4-.09 17.975-.111 26.529-.553 1.481-.076 4.068-1.898 4.099-2.973.145-5.058-.11-10.188-.942-15.172-.225-1.35-2.848-2.976-4.574-3.265-4.332-.725-8.778-.991-13.181-1.024-13.312-.099-26.625 0-39.937.022l-37.966-.045c-3.07.001-5.319-.385-7.333.139-1.382.359-3.278 1.84-3.483 3.065-.704 4.197-.763 8.501-1.315 12.763-.247-.001-.738-.023-.822-.484-.084-5.855-.084-11.249.38-16.728l83.59-.118 26.835-.354c.198.133.395.267.851 1.049.28 8.636.303 16.623.325 24.61-1.541.401-3.079 1.138-4.623 1.15-11.468.088-22.936.033-34.855-.071z" class="rtbl-O"/><path d="M272.693 223.005c-8.784.442-17.729.656-26.674.673-27.708.052-55.416.028-83.692-.075-.774-.323-1.019-.475-1.303-.565 2.061-.641 4.113-1.799 6.184-1.835 10.901-.189 21.808-.176 32.712-.058 4.29.047 8.579.831 12.863.78 7.116-.084 14.23-.868 21.341-.821 12.034.08 24.066.568 36.098.929.776.023 1.54.427 2.471.972zm23.921 2.348l.432 83.905-.106 68.257c-.403-1.6-.724-3.66-1.017-6.57l-.023-47.973.018-18.47.096-72.875c.005-1.981.234-3.962.601-6.274z" class="rtbl-C"/><path d="M111.011 378.049c0 0-.162.312-.465.562-.739.37-1.175.49-2.07.54l-21.48-.497-.002-.662c.005-.007.015-.021.267-.015l1.205-.008 8.901-.104 1.923.027 4.053-.824 3.017-1.098c1.214-1.817 2.808-3.577 2.821-5.348l-.098-45.718c0-1.299.867-2.597 1.471-3.448l.457 56.593z" class="rtbl-E"/><path d="M111.395 377.928l-.747-56.801c-.113-1.222-.181-1.667-.115-2.542l.877-9.201c.013-.008.043-.012.043-.012l5.168-4.429c.073.99.22 2.612-.463 3.121-4.696 3.499-3.499 8.002-3.367 12.935.48 17.912.213 35.845.145 53.77-.004 1.014-.754 2.026-1.541 3.159z" class="rtbl-C"/><path d="M493.648 531.043c.851 1.287 1.366 2.64 2.005 4.322l-9.536 3.555 1.807 3.574-16.488 8.246c-1.445.692-3.14.86-5.125 1.242 8.73-6.975 17.866-13.924 27.337-20.939z" class="rtbl-B"/><path d="M232.61 350.129c.059.69.118 1.38-.339 2.494-3.319 4.136-3.022 7.282.342 9.505.06 1.679.12 3.357-.233 5.533-.748.781-1.083 1.065-1.822 1.319-1.122-1.274-2.382-2.483-2.467-3.77-.512-7.679-.839-15.373-1.029-23.068-.05-2.038.602-4.093 1.323-6.083 1.668.393 2.944.728 4.221 1.064.06.391.119.783-.339 1.55-3.397 4.223-3.01 9.217.342 11.456z" class="rtbl-G"/><path d="M295.532 323.107c.385 15.573.402 31.281.389 47.46-.656-.713-1.815-1.893-1.826-3.084l-.028-41.177c.006-1.023.715-2.043 1.465-3.199z" class="rtbl-K"/><path d="M108.935 379.221l1.639-.436c.331 1.373.331 2.822.331 3.389-3.369.653-6.143 1.615-8.926 1.637-4.795.037-9.611-.359-14.381-.9-1.547-.175-2.978-1.372-4.542-2.48.673-.393 1.425-.407 3.021-.421 2.673 0 4.504.062 6.329-.014l16.528-.775z" class="rtbl-P"/><path d="M536.761 115.055c1.654-.695 3.675-1.802 4.98-1.242 1.297.557 2.169 2.693 2.703 4.309 1.067 3.232 1.776 6.583 2.626 10.307-3.423-4.07-6.84-8.563-10.309-13.375z" class="rtbl-B"/><path d="M232.707 336.725c-1.378.063-2.654-.272-4.32-1.129-.387-4.545-.384-8.569-.382-12.594l4.216-.017c.451 4.447.519 8.894.486 13.739z" class="rtbl-D"/><path d="M274.305 249.085c-.298-8.089-.32-16.076-.3-24.518.696.678 1.747 1.748 1.934 2.952.793 5.102 1.713 10.24 1.773 15.374.024 2.085-2.026 4.195-3.407 6.192z" class="rtbl-P"/><path d="M299.058 379.167l61.42-.063-7.069.922-48.243.038-2.226.032c-1.052-.028-2.104-.057-3.539-.3-.383-.215-.343-.629-.343-.629z" class="rtbl-C"/><path d="M148.888 269.264c-8.808-1.13-17.457.311-26.403 2.856 1.964-1.383 4.171-3.415 6.725-4.047 6.515-1.612 13.172-2.345 19.677 1.191zm-1.588 27.575c.763-8.622 1.888-17.278 2.993-26.383.551 1.575 1.862 3.717 1.562 5.602-1.109 6.962-2.752 13.839-4.555 20.782z" class="rtbl-H"/><path d="M124.119 299.986c6.476-5.326 14.186-4.467 22.364-3.06-.233.554-.819 1.403-1.507 1.496-5.529.746-11.072 1.399-16.623 1.958-1.258.127-2.564-.225-4.234-.393z" class="rtbl-C"/><path d="M124.134 543.426c-1.679.156-3.52-.109-5.356-.076-1.567.028-3.127.397-5.036.663l-.362-8.071c3.606 2.136 7.1 4.665 10.754 7.485zm-74.963-78.939c-1.377.169-2.825-.009-3.586-.102l-6.983-12.294c-.209-.388.521-1.283 1.19-2.026 3.353 4.636 6.33 9.355 9.379 14.422z" class="rtbl-B"/><path d="M38.792 154.946c-2.146-1.537-4.094-3.299-6.041-5.062l.542-1.899c2.333-.329 4.666-.659 7.361-.568.439 1.228.517 2.036.594 2.845 0 0-.121-.154-.214-.099-.191.113-.378.188-.371.227.038.206.125.402.195.602l-2.068 3.955z" class="rtbl-F"/><path d="M204.094 379.157l27.599-.157 1.243-.027-25.674 1.771-3.169-1.588z" class="rtbl-C"/><path d="M121.723 272.086c-3.192 2.767-6.781 5.525-10.915 8.581-.807.288-1.069.277-1.27-.168l-.048-9.054c3.856 1.883 7.775 2.602 12.233.641z" class="rtbl-H"/><path d="M153.279 39.737c-.017-1.308.309-2.675.678-4.39l.038-.341 12.85-2.988c-4.168 2.603-8.696 5.131-13.566 7.719zm324.452 18.749c3.43-.587 7.023-.874 10.616-1.161l1.785 2.606c-1.754.922-3.509 1.844-5.416 3.111-2.376-1.189-4.599-2.723-6.985-4.557zM139.38 48.018c-1.043-1.186-1.737-2.416-2.533-3.826 4.336-1.057 8.235-2.008 12.278-2.641-3.036 2.353-6.216 4.387-9.746 6.466zm405.315 428.094c-.482 2.437-1.229 5.08-2.383 7.696l-.7-.046.393.235-5.622 4.012c2.446-3.901 5.246-7.796 8.312-11.897zM373.171 9.713c2.256-.02 4.927-.267 7.358.383 3.875 1.037 7.589 2.671 11.43 4.386-6.121-1.31-12.301-2.952-18.788-4.769z" class="rtbl-B"/><path d="M82.179 271.075l-.862-.086c3.746-.667 7.773-1.784 11.815-1.838 4.712-.063 9.437.804 14.098 1.628-.787.453-1.517.546-2.682.556-2.802-.024-5.169.035-7.992.002l-14.376-.263z" class="rtbl-C"/><path d="M464.529 552.805c-2.679 4.369-5.872 8.564-12.548 8.062 3.78-2.695 7.989-5.34 12.548-8.062zM43.404 146.963c-.605-2.918-.922-6.012-1.319-9.891l5.711 1.967c-1.125 2.603-2.614 5.175-4.392 7.923zM424.218 27.268c4.381-3.175 6.879-2.231 8.701 3.486-2.837-.821-5.66-2.02-8.701-3.486z" class="rtbl-B"/><path d="M232.711 349.742c-3.453-1.851-3.84-6.846-.531-10.781.497 3.405.564 6.9.531 10.781z" class="rtbl-D"/><path d="M357.22 6.059c.248-.618.939-1.591 1.338-1.483 4.108 1.112 8.168 2.399 12.344 3.987-4.39-.552-8.882-1.454-13.681-2.503z" class="rtbl-F"/><path d="M395.028 15.898c.039-.568.49-1.311.627-1.257 3.757 1.481 7.482 3.043 11.28 4.954-3.835-.926-7.739-2.213-11.908-3.696zM39.531 448.352c-5.648.578-6.312-.421-4.523-7.138 1.522 2 2.967 4.397 4.523 7.138z" class="rtbl-B"/><path d="M232.71 361.754c-3.461-1.849-3.759-4.995-.53-8.794.493 2.749.56 5.584.53 8.794z" class="rtbl-D"/><path d="M160.991 223.364c.317-.237.562-.085.872.322l.112 17.174.087 2.587-.035 6.527c0 0-.128.128-.382.13s-.651-.054-.651-.054c-.027-.175-.054-.351-.068-1.257l-.069-23.791.134-1.637z" class="rtbl-H"/><path d="M595.116 241.374c4.523.486 5.105 2.393 2.056 7.492-.927-2.24-1.515-4.671-2.056-7.492z" class="rtbl-B"/><path d="M160.616 225.334c.267 7.354.294 15.041.288 23.194-.198-7.31-.363-15.085-.288-23.194z" class="rtbl-R"/><path d="M104.984 271.417l2.544-.365c.706.04 1.057.169 1.686.345.313 2.921.349 5.794.179 9.105-.206.439-.497.383-.532.003-1.885-2.466 1.195-7.168-3.85-7.817l-.027-1.271z" class="rtbl-E"/><path d="M448.391 562.484c-.147 3.088.042 7.214-5.32 3.496 1.536-1.332 3.261-2.367 5.32-3.496zm8.48-518.034c4.065-1.706 5.9 1.372 7.944 4.418-2.59-1.133-5.179-2.627-7.944-4.418z" class="rtbl-B"/><path d="M232.835 317.559c-.269-5.657-.424-11.771-.346-18.225.308 5.696.384 11.732.346 18.225z" class="rtbl-I"/><path d="M408.101 20.641c2.776-3.119 4.342-.981 5.863 1.848-1.842-.306-3.736-.96-5.863-1.848zm30.802 13.768c3.527-2.22 4.854 1.234 7.019 3.286-2.228-.778-4.514-1.897-7.019-3.286zM574.69 424.117c.283 1.205.297 2.62.31 4.459l.002.42c-.312.472-.624.945-.969 1.71l-.036.296-1.642-.854c.531-2.02 1.298-3.92 2.335-6.031zM468 50.001c1.317 1.139 2.635 2.279 3.943 3.787-1.259-.377-2.509-1.121-3.886-2.485-.104-.847-.079-1.076-.056-1.303zM133.97 550.355c-2.443 2.057-3.506.787-3.915-2.137 1.259.377 2.51 1.12 3.915 2.137zm-81.925-81.721c-.948-.831-1.94-1.988-2.892-3.496.976.823 1.912 1.997 2.892 3.496zm495.128-339.41c.939.744 1.916 1.77 2.575 3.037-1.057-.758-1.798-1.756-2.575-3.037zM415.607 23.536c1.231.114 2.704.502 4.267 1.288-1.282-.073-2.654-.543-4.267-1.288zm30.506 14.76c1.059-.661 2.265-1.053 3.471-1.446l.295.565-1.734 1.449c-.745.05-1.315-.125-2.032-.569z" class="rtbl-B"/><path d="M203.856 379.072c1.074.537 1.91.989 2.937 1.66-1.093-.239-2.376-.697-3.67-1.452.158-.296.326-.294.732-.208z" class="rtbl-H"/><path d="M529.356 106.266c.821.514 1.718 1.324 2.606 2.489-.849-.494-1.689-1.344-2.606-2.489zm39.268 330.672c-.071.86-.417 1.882-1.097 2.991.051-.885.437-1.857 1.097-2.991zm2.027-3.954c-.085.84-.437 1.849-1.122 2.946.064-.867.459-1.822 1.122-2.946zm-137.636-401.6c.848.061 1.841.397 2.918 1.059-.868-.044-1.82-.414-2.918-1.059zm40.238 23.843c.786.176 1.719.62 2.707 1.396-.816-.155-1.689-.641-2.707-1.396zm119.842 177.092c.491.557.932 1.435 1.16 2.487-.545-.606-.878-1.386-1.16-2.487zM451.8 41.45c.886.127 1.956.536 3.104 1.314-.921-.098-1.92-.565-3.104-1.314zM128.737 546.771c-.783-.181-1.712-.629-2.696-1.409.814.159 1.682.65 2.696 1.409zM41.519 150.094c-.348-.642-.425-1.45-.502-2.664.472-.397.944-.389 1.77-.356-.097.968-.547 1.911-1.268 3.02zm71.76 385.14c-.584-.104-1.308-.46-2.018-1.178.635.068 1.257.497 2.018 1.178zM488.504 66.59c.636.168 1.453.618 2.288 1.465-.69-.13-1.399-.657-2.288-1.465zm-3.735-2.889c.584.079 1.32.42 2.11 1.107-.617-.051-1.288-.448-2.11-1.107z" class="rtbl-B"/><path d="M303.009 380.363c.401-.283.87-.299 1.692-.286-.306.203-.965.378-1.692.286z" class="rtbl-K"/><path d="M464.882 49.476c.81-.176 1.718-.075 2.872.276.245.249.246.248.056.344-.421.268-.616.474-.774.714-.685-.352-1.37-.705-2.154-1.334zm-96.131 543.843c-.289.365-.855.727-1.582.89.327-.43.817-.662 1.582-.89zM448.54 39.552c.635.031 1.458.325 2.376.966-.666-.003-1.427-.353-2.376-.966z" class="rtbl-B"/><path d="M232.841 371.716c-.415.171-.643-.043-.86-.883-.096-.976-.124-1.411.063-1.882.216-.035.654-.029.654-.029l.142 2.794zm297.728-19.636c.326.009.355.416.003.66-1.063.036-1.774-.172-2.485-.38.139-.102.277-.205.645-.425.656-.034 1.083.051 1.837.144z" class="rtbl-I"/><path d="M125.854 544.747c-.414.015-.941-.238-1.543-.789.426-.025.928.248 1.543.789z" class="rtbl-B"/><path d="M232.844 255.684c-.229-.237-.348-.803-.282-1.526.254.294.323.745.282 1.526z" class="rtbl-I"/><path d="M41.048 150.843c-.259-.052-.346-.249-.384-.454-.007-.039.18-.114.451-.171.174.001.121.478-.067.626z" class="rtbl-B"/><path d="M161.11 250.249c-.116-.199.281-.141.471-.08s.309.445.336.644c-.259.07-.498-.118-.806-.564z" class="rtbl-R"/><path d="M111.197 533.479c-.218.107-.547-.042-.995-.443.215-.106.55.041.995.443zm439.532-399.673c.064-.124.12-.282.089-.2-.088.24-.097.166-.089.2z" class="rtbl-B"/><path d="M467.213 51.003c-.019-.433.176-.638.598-.907.166.131.142.359.095.931-.187.285-.351.226-.692-.024z" class="rtbl-N"/><path d="M298.803 379.097c.255.07.216.483.204.69-.297.111-.54-.049-.858-.459.054-.224.226-.263.654-.231z" class="rtbl-K"/><path d="M232.956 378.708c-.196.278-.373.291-.805.23-.133-.338.034-.572.433-.88.255.057.323.221.371.65z" class="rtbl-I"/><path d="M230.962 369.01a7.38 7.38 0 0 1 1.329-.937c.323-.085.486.372.447.61s-.477.233-.909.279-.867.047-.867.047z" class="rtbl-D"/><path d="M154.003 34.996l-2.401.013.498-1.755c.598.392 1.195.783 1.844 1.463l.059.278zm-6.669 3.397c-.334-.15-.515-.444-.697-.738.283.198.566.396.697.738zM454.599 564.33c.148-.331.44-.511.731-.691-.196.281-.392.561-.731.691zm120.399-135.329a37.88 37.88 0 0 0 .398.234s-.298-.014-.346-.127-.05-.109-.053-.107zm-.997 1.998c.001-.001.408.249.408.249s-.314-.013-.363-.129l-.045-.12zM108.359 531.681l-1.004 1.917-.683-.452c.365-.43.729-.86 1.382-1.419.289-.129.256-.036.304-.046zm-72.654-78.692c-.111.145-.223.162-.334.179.111-.102.222-.204.334-.179z" class="rtbl-B"/><path fill="#fdc06e" d="M230.558 368.98c.404.03.839.03 1.055.018.244.424.272.859.266 1.619-.035.325-.462.346-1.055.367-3.55.115-4.876 1.118-2.808 4.006-.976.612-1.959 1.76-2.925 1.745-4.79-.073-9.573-.517-14.364-.705-4.466-.175-6.391-2.918-5.074-7.096.678-2.15 1.267-4.442 1.276-6.672l.334-74.106c.09-5.24-.09-9.699-.271-14.158l.002-.749c6.078-.209 12.155-.169 18.634-.186.724 4.64 1.045 9.337 1.103 14.788-.083 3.886.098 7.018.278 10.151l.987 22.781.005 1.215v.754l-.008 12.788c-.332 2.511-.984 4.566-.934 6.604.19 7.694.516 15.389 1.029 23.068.086 1.287 1.346 2.495 2.467 3.77z"/><path d="M213.052 225.415c13.228-.352 26.541-.451 39.853-.352 4.403.033 8.849.299 13.181 1.024 1.725.289 4.348 1.915 4.574 3.265.832 4.984 1.087 10.114.942 15.172-.031 1.074-2.617 2.896-4.099 2.973-8.553.442-17.128.463-26.109.549-1.341-2.13-2.269-4.182-3.077-5.968.757-1.471 2.769-3.828 2.253-4.717-.941-1.62-3.249-2.808-5.22-3.401-5.805-1.745-11.777-2.942-17.568-4.726-1.741-.536-3.107-2.292-4.73-3.819z" class="rtbl-Q"/><path fill="#fdc06e" d="M163.118 241.008c.305-4.263.364-8.568 1.068-12.765.205-1.225 2.101-2.705 3.483-3.065 2.013-.524 4.263-.139 6.863-.116.855 7.891 4.711 1.421 6.661 2.573l24.162 7.63-4.37 10.492c-1.088-1.344-1.425-1.873-1.87-2.286-.843-.782-1.747-1.497-2.626-2.24-.492.94-1.219 1.834-1.416 2.832-.252 1.275-.075 2.635-.413 4.416-.768.441-1.206.425-1.648-.001.438-4.417-1.551-5.9-5.313-5.469-3.909.447-7.872 1.593-11.703 1.245-4.355-.395-8.591-2.107-12.878-3.246z"/><path d="M193.016 248.888l1.642.025 6.906.733c-12.685.317-25.648.384-39.074.389-.479-2.094-.495-4.127-.09-6.499 2.048 4.77 5.685 5.866 10.686 5.541 6.62-.43 13.285-.159 19.93-.189z" class="rtbl-O"/><path d="M366.106 225.954c.431-.037.861-.074 1.652.348 1.577 1.58 2.655 2.936 4.046 3.762 1.662.986 3.889 1.149 5.35 2.319 3.77 3.02 7.253 6.399 10.924 9.971 6.351 6.656 7.03 15.053 6.609 22.911-.416 7.759-.876 15.976-5.458 23.003-.934 1.432-1.198 3.301-1.314 3.638 3.253 3.949 5.195 8.106 8.436 9.852 6.124 3.3 8.84 9.567 10.658 14.578 3.615 9.966 4.217 20.902-.94 31.265-2.133 4.288-3.289 9.062-4.889 13.615 0 0-.08-.137-.46-.14-2.156-.018-3.931-.033-5.72-.424-4.217-5.384-4.404-11.328-4.01-17.416.064-.984.327-2.161-.092-2.925-.783-1.428-1.999-2.618-3.034-3.907-.953 1.286-1.944 2.547-2.848 3.866-1.054 1.538-2.033 3.128-3.026 4.301.67-2.942 1.311-5.493 1.975-8.038 2.205-8.449 1.017-15.955-5.961-21.924-.825-.706-1.389-1.718-1.735-2.657 3.744-2.593 7.15-5.118 10.555-7.643l-.427-.753-9.912 2.174c-.54-4.986-1.129-9.379-1.453-13.791-.216-2.943-1.344-4.089-4.428-3.744-1.479.165-3.567-.323-4.531-1.329-2.13-2.222-3.408-1.997-5.777-.146-1.891 1.477-4.742 4.558-7.01.056 2.148-1.093 4.102-1.827 5.877-2.866 2.902-1.699 6.556-2.98 8.36-5.524 5.669-7.996 3.091-22.182-4.288-28.614 1.163-4.312-2.524-4.242-4.553-5.829-1.548-1.211-3.469-3.209-3.479-4.867-.023-3.776-1.971-5.429-4.988-6.382-2.335-.738-4.787-1.537-7.188-1.543-4.317-.01-5.871-2.235-5.579-6.103l28.659.907z" class="rtbl-J"/><path d="M401.502 361.101c1.278-4.437 2.434-9.211 4.567-13.499 5.156-10.364 4.555-21.299.94-31.265-1.818-5.011-4.534-11.278-10.658-14.578-3.241-1.746-5.182-5.903-8.436-9.852.116-.337.38-2.206 1.314-3.638 4.582-7.027 5.042-15.244 5.458-23.003.422-7.857-.257-16.255-6.24-22.92.786-.368 1.277-.39 1.767-.412 10.399 11.599 11.617 29.742 3.211 43.323-1.277 2.063-2.421 4.207-3.619 6.301 27.474 16.834 28.096 50.724 11.696 69.543zm-35.597-135.498c-9.196.044-18.593-.263-28.925-.571l-31.36.078-4.633.884c-1.028-.316-2.055-.633-3.425-.939.719-.433 1.78-1.261 2.842-1.262l56.457.156c2.951.026 5.895.849 9.043 1.655z" class="rtbl-S"/><path d="M390.145 241.587c-.422.368-.913.39-1.772.422-3.966-3.226-7.449-6.605-11.219-9.626-1.461-1.17-3.688-1.333-5.35-2.319-1.392-.826-2.469-2.182-3.736-3.668 8.971 2.287 16.651 6.881 22.076 15.191z" class="rtbl-L"/><g class="rtbl-S"><path d="M395.013 361.029l5.769.096c-1.887 2.516-4.217 4.98-7.015 7.347-.467-.097-.777-.483-.773-.853.338-1.788.672-3.206 1.125-4.874l.895-1.716z"/><path d="M393.44 368.579c-1.679 1.416-3.498 2.629-5.767 3.769-.45-.072-.753-.435-.656-.757 2.055-1.415 4.014-2.508 5.973-3.602l.451.589z"/></g><path d="M366.203 379.234c.55-.251 1.288-.281 2.391-.196-.491.215-1.347.316-2.391.196z" class="rtbl-C"/><path d="M385.277 373.816c-.072-.268.169-.463.69-.66.006.174-.214.419-.69.66zm1.118-.641c-.29-.184-.333-.383-.169-.901.207-.319.694-.361.694-.361l.436.559c-.095.452-.378.616-.961.703z" class="rtbl-S"/><path fill="#fccc88" d="M344.977 375.03l-39.159 2.08c-5.033.375-6.549-2.095-6.717-6.176-.205-4.979-.037-9.974-.034-14.961l.055-38.701c.123-10.11.576-20.216 1.296-30.78 2.186-.137 3.952.412 5.731.457 4.016.101 7.057 1.361 8.232 5.594.209.753.696 1.787 1.307 2.014 6.045 2.247 5.23 7.423 5.754 12.275.162 1.501 2.312 2.788 3.309 4.475-.746 2.131-1.665 3.956-1.686 5.79l-.055 35.277c.59 5.115 3.421 8.381 7.656 9.796 4.559 1.523 6.083 4.561 6.335 8.834-.002-.002.003.003-.464.001l-13.728-.002.042 1.995h15.613c4.486.003 8.51.006 12.534.341.001.776.001 1.219-.429 1.663l-5.593.03z"/><path fill="#fdcf91" d="M324.995 311.003c-1.24-1.385-3.389-2.672-3.551-4.173-.524-4.852.291-10.028-5.754-12.275-.611-.227-1.098-1.261-1.307-2.014-1.175-4.233-4.216-5.493-8.232-5.594-1.779-.045-3.545-.594-5.725-.925-.083-6.034.242-12.058.945-18.661 2.069-3.992 3.206-7.36-.388-10.358-.33-2.718-.936-5.436-.936-8.155-.001-7.406.254-14.812.675-22.537 1.69-.601 3.114-.883 4.905-.79-.01 3.892.76 6.169 4.945 6.963 7.735 1.467 13.405 5.525 14.719 14.044.095.616 1.756.991 2.523 1.708a24.36 24.36 0 0 1-2.037 1.881c-.46.325-.651.576-.933 1.233-.68 6.892-1.757 13.447-1.52 19.954.142 3.91 2.335 7.744 3.675 11.663.069.05.029.214.016.516a44.54 44.54 0 0 0 .002 1.879c1.02 1.115 2.026 1.863 3.396 2.609l2.938.008c6.639.978 7.808 2.572 7.65 9.899-.107 4.965-2.335 7.183-7.556 7.775-.857.097-1.637.877-2.82 1.358a28.38 28.38 0 0 0-4.457 3.341c.001.197.043.587-.26.606l-.911.042z"/><path d="M350.999 373.005c-4.023-.003-8.047-.006-12.648-.262-.834-.748-1.089-1.243-1.345-1.738 0 0-.006-.005.465-.003l34.787.002.253-2.134-16.229-5.036c-.617-.194-1.405-.449-1.712-.932-3.182-5.003-8.317-4.727-13.218-4.861-2.829-.077-4.495-.981-3.894-4.05 7.931-.007 15.398.184 22.851-.075 5.572-.194 11.242-.591 15.973-4.157 1.978-1.49 3.798-3.189 5.69-4.794l3.044-4.695c.905-1.32 1.895-2.58 2.848-3.866 1.036 1.289 2.251 2.48 3.034 3.907.419.764.156 1.941.092 2.925-.394 6.089-.207 12.033 4.01 17.416-.245.865-.504 1.354-1.248 2.103-8.672 1.793-8.672 1.793-8.774 9.207l-19.986 3.994c-1.062.199-2.245-.253-3.793-1.047-3.681-1.064-6.94-1.484-10.2-1.904z" class="rtbl-M"/><path d="M385.219 371.969c-.14-7.422-.14-7.422 8.414-8.964.033 1.408-.301 2.826-.639 4.614-1.963 1.464-3.922 2.557-5.977 3.972-.096.322-.584.364-.828.379s-.728.006-.969-.002z" class="rtbl-J"/><path fill="#fccc88" d="M300.984 257.458c3.592 2.544 2.455 5.912.389 9.437-.379-2.919-.383-5.951-.389-9.437z"/><path d="M345.096 375.4c1.603-.38 3.324-.39 5.877-.399l4.059.021c-3.025 3.494-6.397 2.451-9.937.379z" class="rtbl-M"/><path d="M355.457 375.021l-4.054-.02c-.403-.444-.403-.888-.404-1.663 3.259.088 6.519.508 9.884 1.308-1.597.378-3.299.376-5.426.375z" class="rtbl-T"/><path fill="#fddeb0" d="M438.012 377.914l1.359-88.458c1.478-2.016 3.474-3.55 3.469-5.079-.024-8.437-.223-16.904-1.044-25.293-.306-3.131-2.456-6.082-3.766-9.115-.005-2.35-.009-4.701.361-7.512 4.965-2.088 6.411.382 6.581 4.374.099 2.326-.341 4.753.199 6.954.354 1.442 2.299 3.799 3.067 3.631 6.814-1.493 6.647 3.071 6.743 7.366l1.04 50.307c.029 1.308.313 2.618.552 3.914.791 4.296 1.974 8.556 2.331 12.886.409 4.958.212 9.979.061 14.967-.13 4.29 1.264 6.792 6.026 6.569-.396 4.063 1.486 5.436 4.902 5.599 3.099.148 6.259.259 9.258.957 4.844 1.128 9.573 2.744 14.361 4.119 3.514 1.009 6.219 2.499 4.236 6.9l-1.217.001-30.681-.001-.014 2.293H495.2l-.057 1.37c-1.282.112-2.563.289-3.847.325l-37.308 1.097c-1.352.051-2.66 1.229-4.449 1.893l-11.526-.062z"/><path d="M464.988 353.012c-4.758.635-6.152-1.867-6.022-6.157.151-4.987.348-10.009-.061-14.967-.357-4.33-1.54-8.59-2.331-12.886-.238-1.296-.523-2.605-.552-3.914l-1.04-50.307c-.096-4.295.071-8.859-6.743-7.366-.769.168-2.713-2.188-3.067-3.631-.54-2.201-.099-4.628-.199-6.954-.171-3.992-1.616-6.462-6.572-4.814-.04-4.768.137-9.576.732-14.331.124-.989 1.767-2.513 2.757-2.551 6.148-.236 12.323-.326 18.457.051 1.285.079 2.75 2.145 3.543 3.613.558 1.033.126 2.605.126 3.936l.051 109.337c.005 2.43.707 4.858 1.311 7.581.259.791.292 1.287.369 2.17.044.387.016.416-.159.481-.367.238-.503.447-.587.694z" class="rtbl-L"/><path fill="#eee4d1" d="M438.005 378.15c3.696-.213 7.384-.189 12.002-.163l60.443-.013c5.391-.323 10.356-.423 15.229-1.145 1.255-.186 3.052-2.259 3.166-3.588.394-4.602-.063-9.273.225-13.891.251-4.03-1.011-5.566-5.254-5.437-9.263.282-18.541.085-27.814.086-.001.001.001-.001 0-.229l-.008-1.141 31.613-.302c1.192.243 1.903.451 2.898.607.284 8.407.284 16.866.284 26.042-30.459 0-61.154 0-92.314-.058-.465-.058-.477-.53-.469-.766z"/><path d="M438.016 250.441c1.324 2.561 3.474 5.512 3.781 8.643.821 8.39 1.02 16.856 1.044 25.293.004 1.529-1.992 3.063-3.47 4.61-1.051-4.475-2.198-8.961-2.231-13.456-.061-8.204.538-16.412.876-25.09zm59.982 120.557c1.734-4.4-.971-5.89-4.485-6.899-4.788-1.375-9.517-2.99-14.361-4.119-3-.699-6.159-.809-9.258-.957-3.415-.163-5.298-1.536-4.902-5.599-.004-.412.007-.422.181-.506.419-.208.557-.407.59-.679l.04-.045c.469.045.926.105 1.71.379.328.213.462.618.809.843l27.681.581s-.002.002.054.367c1.549 1.451 2.903 3.138 4.557 3.515 5.805 1.325 11.61 2.318 16.564 6.102 1.572 1.201 4.016 1.192 5.888 2.094 1.398.673 2.52 1.921 3.764 2.913-1.294.669-2.577 1.888-3.885 1.916-8.313.178-16.631.092-24.948.093z" class="rtbl-L"/><path fill="#fbe4c4" d="M496.001 353.769c-9.11.11-18.221-.009-27.361-.402.75-.518 1.53-.761 2.309-1.005l24.593.134c.45.436.453.74.459 1.272z"/><path d="M470.579 352.233c-.409.374-1.189.617-2.286.91-.318.049-.452-.355-.425-.566.798-.299 1.57-.386 2.712-.343z" class="rtbl-I"/><path d="M206.613 274.114c.56 4.343.74 8.802.65 13.574-3.621-4.107-2.817-8.755-.65-13.574z" class="rtbl-G"/><path d="M228.326 374.844c-2.377-2.743-1.052-3.746 2.285-3.85-.406 1.229-1.191 2.467-2.285 3.85z" class="rtbl-Q"/><path d="M82.063 271.527c4.756-.394 9.395-.337 14.49.065.449.683.441 1.021-.022 1.375l-10.898.114c-4.73 1.687-1.805 5.309-2.542 8.406l-.007 8.939.023 13.079 1.682 17.873-1.983 31.612-.773-.011.029-81.45z" class="rtbl-E"/><path d="M81.956 353.442c.249-.463.42-.459 1.102-.146.973 5.442 1.437 10.574 1.651 15.991-.045 3.071.159 5.857.06 8.536l-2.746-.807-.067-23.574z" class="rtbl-U"/><path d="M108.476 379.151l-16.069.844-5.954.013c-.468-.001-.441-.415-.424-.708s-.072-.44.187-.388c.432.021.606-.01.779-.041l21.481.279z" class="rtbl-C"/><path d="M81.958 377.414c.879-.164 1.694.07 3.044.427.535.124 1.003.154.997.371l-.043.65s.089.147.089.233c-1.384-.37-2.768-.827-4.088-1.68z" class="rtbl-E"/><path d="M227.272 297.699c-.441-2.829-.622-5.962-.541-9.396.442 2.83.622 5.961.541 9.396z" class="rtbl-G"/><path d="M228.144 321.9c-.14.098-.144-.4-.143-.649.095.018.189.285.143.649z" class="rtbl-D"/><path fill="#fdb252" d="M86.034 273.081l10.896-.095c1.92.019 2.984.034 4.064.413 2.644 2.738 5.272 5.112 7.9 7.486 0 0 .291.056.437.052l1.322.022c.83.615 1.267 1.235 2.035 2.292 2.248 1.906 4.164 3.374 5.874 4.684l1.867 4.04c.835 1.693 1.724 3.359 2.59 5.037 0 0-.019-.012-.29-.004l-.824.036c-.397.014-.794.029-1.796-.127-2.423-1.707-4.241-3.244-6.06-4.781l-1.348 1.165 4.384 5.763c-1.942 2.086-4.029 4.062-5.746 6.319-.579.76-.221 2.234-.089 3.684.202.303.172.307-.09.225-.869.527-1.477 1.136-2.419 1.798-1.467 1.007-2.601 1.962-3.735 2.534.275-3.319 1.522-6.801-4.008-6.936 0 7.829.202 15.475-.116 23.101-.103 2.461 2.261 6.957-2.754 7.009-5.414.056-2.961-4.711-3.005-7.244l-.142-43.971c-.003-1.648-.229-3.296-.352-4.944l-1.293-.039c-.444 1.715-1.156 3.409-1.287 5.147-.759 10.079-1.63 20.161-1.927 30.258-.117 3.987-1.289 5.549-5.172 4.985-.622-5.677-1.244-11.353-1.452-17.529 3.012-2.959 3.465-11.066 1.073-13.241-.309-.281-.959-.185-1.452-.264-.017-2.676-.033-5.351.356-8.509 1.123-3.111 1.84-5.739 2.558-8.368z"/><path d="M123.337 296.848c-1.182-1.512-2.071-3.179-2.906-4.872l-1.867-4.04-5.568-4.629c1.761-1.901 3.525-3.445 5.336-4.934 6.809-5.6 14.803-6.776 23.302-6.485 3.091.106 4.65.868 4.458 4.251-.206 3.647.001 7.316-.092 10.973-.1 3.917-1.807 5.686-6.113 6.085-5.472.508-10.827 2.267-16.549 3.652zm-5.91 2.203c-1.802-1.906-3.263-3.827-4.725-5.748l1.348-1.165 5.762 4.779c-.477.818-1.261 1.468-2.385 2.134zm4.598-1.865c.065-.15.25-.159.711-.167-.013.103-.303.206-.711.167z" fill="#fcb85c"/><path d="M193.012 248.478c-6.642.44-13.307.169-19.926.599-5.002.325-8.639-.771-10.603-5.969-.392-.543-.445-.997-.424-1.788.074-.337.565-.315.812-.314 4.535 1.141 8.77 2.852 13.126 3.247 3.831.348 7.794-.798 11.703-1.245 3.762-.431 5.751 1.053 5.313 5.469z" class="rtbl-G"/><path fill="#fcb14a" d="M84.789 321.376c4.046.18 5.217-1.382 5.334-5.369.297-10.097 1.168-20.179 1.927-30.258.131-1.738.843-3.432 1.287-5.147l1.293.039c.123 1.648.349 3.296.352 4.944l.142 43.971c.044 2.534-2.409 7.301 3.005 7.244 5.015-.052 2.651-4.548 2.754-7.009.318-7.625.116-15.272.116-23.101 5.53.135 4.283 3.616 4.007 7.403l.023 24.232.978 37.694c-.777.345-1.554.689-2.861.781-2.393-1.622-4.056-2.418-4.223 1.044-.415.009-.831.018-1.668-.329-1.661-1.056-3.022-2.506-4.118-2.328-5.094.825-7.527-1.383-8.179-6.186l-1.642-15.705c.269-10.718.79-21.128 1.473-31.922z"/><path d="M106.36 375.97c-.688-12.513-1.097-25.076-1.331-37.643-.145-7.792-.024-15.589-.022-23.851 1.135-1.422 2.269-2.376 3.72-2.969.769 2.744 1.221 5.126 1.672 7.508a7.86 7.86 0 0 1 .109 1.664c-.559 1.627-1.425 2.926-1.426 4.225l.098 45.718c-.013 1.771-1.607 3.531-2.821 5.348zm-21.651-6.683c.902 4.518 3.334 6.727 8.428 5.902 1.096-.178 2.457 1.272 3.807 2.319-2.602.385-5.315.422-8.58.326-.82-.044-1.087.046-1.355.136 0 0-.01.015-.261.018l-.743.006-.7-.047a50.38 50.38 0 0 1-.596-8.66zm14.581 8.605c-.199-3.508 1.463-2.712 3.523-1.077-.922.552-2.039.838-3.523 1.077z" class="rtbl-V"/><path d="M85.999 378.211c.005-.217.498-.22.744-.216s.254.441.253.659c-.174.249-.348.28-.78.259-.259-.052-.221-.485-.216-.702zm1.262-.234c.016-.096.283-.186.653-.142-.066.139-.233.143-.653.142z" class="rtbl-U"/><path d="M110.533 318.585c-.585-1.952-1.036-4.334-1.473-7.131.623-1.024 1.231-1.633 2.088-2.152.005 3.011-.238 5.932-.615 9.283z" class="rtbl-E"/><path d="M542.002 483.998c.002-.002-.391-.237-.391-.237s.293.02.339.131.049.107.052.106z" class="rtbl-N"/><path d="M100.979 273.035l-3.593-.065c-.392-.358-.385-.696-.376-1.288 2.368-.312 4.734-.371 7.537-.347.443.421.451.76.06 1.37-1.475.29-2.551.31-3.628.33z" class="rtbl-U"/><path d="M100.994 273.399c1.061-.384 2.138-.404 3.618-.44 5.443.378 2.363 5.08 4.248 7.546-2.594-1.994-5.222-4.368-7.866-7.106z" class="rtbl-V"/><path d="M330.99 306.997c.816-.464 1.595-1.244 2.453-1.341 5.221-.592 7.449-2.81 7.556-7.775.158-7.327-1.011-8.922-7.52-10.278 6.332-.46 12.931-.533 19.529-.607 2.543 4.281 5.394 1.2 7.285-.277 2.37-1.851 3.647-2.076 5.777.146.964 1.006 3.052 1.494 4.531 1.329 3.084-.345 4.212.801 4.428 3.744.324 4.412.913 8.806 1.453 13.791l9.912-2.174.427.753c-3.405 2.525-6.811 5.05-10.8 7.526-1.064-.308-1.544-.568-2.082-1.19-1.699-1.115-3.34-1.869-5.445-2.624l-28.71-.991c-2.929-.093-5.863-.027-8.795-.033zm-3.011-58.989c-.933-.487-2.594-.862-2.69-1.478-1.315-8.519-6.985-12.577-14.719-14.044-4.185-.794-4.955-3.072-4.583-7 10.016-.427 20.037-.441 30.524-.44.643 3.869 2.197 6.094 6.514 6.104 2.402.006 4.853.805 7.188 1.543 3.017.953 4.965 2.605 4.988 6.382.01 1.659 1.931 3.656 3.479 4.867 2.028 1.587 5.715 1.517 4.175 5.775-3.358-.457-6.097-1.091-8.896-2.098-1.95-7.183-7.557-3.917-11.662-4.575-3.67-.588-5.739.944-5.758 4.954l-8.56.011z" class="rtbl-M"/><path fill="#e6caa9" d="M354.019 247.992l8.596 1.957c7.996 6.255 10.575 20.441 4.906 28.437-1.804 2.544-5.458 3.825-8.36 5.524-1.775 1.039-3.729 1.774-5.877 2.866l-20.202.82c-.856.378-1.581.377-2.729.047l-3.351-2.644c0-.403-.001-.807.465-1.41 7.437-.19 14.41-.29 21.377-.135 5.263.117 9.915-1.2 14.193-4.35 4.432-3.263 6.103-7.723 5.981-12.891-.128-5.408-2.866-9.405-7.436-12.347-7.325-4.716-15.467-3.575-23.768-3.692-.502-.023-.702.035-1.351.073l-9.535-.021v32.694c-1.271-3.868-3.464-7.703-3.606-11.613-.237-6.507.84-13.062 1.727-20.074.619-.68.809-.933.932-1.235.555-.51 1.11-1.02 1.832-1.76 2.87-.232 5.574-.235 9.196-.235l17.011-.011z"/><path fill="#ddc6a7" d="M373.998 311.006l1.685.897c.93.987 1.494 1.999 2.319 2.705 6.978 5.97 8.167 13.475 5.961 21.924l-1.975 8.038c-1.91 1.998-3.731 3.697-5.708 5.188-4.731 3.565-10.401 3.963-15.973 4.157-7.452.259-14.92.068-23.291.069-4.264-.659-7.619-1.316-10.747-1.965.226.009.68.017 1.134.154 12.094.037 23.747.254 35.367-.267 8.667-.389 15.186-4.896 18.295-13.168 2.993-7.964 1.6-15.496-4.288-21.752-4.999-5.311-11.706-6.733-18.683-6.811l-31.93-.017c1.363-1.042 2.727-2.085 4.458-3.144l9.163.016 28.789 1.331c2.171 1.109 3.798 1.877 5.424 2.645z"/><path d="M326.044 352.011l10.504 1.978c.309 3.071 1.975 3.974 4.804 4.052 4.901.134 10.036-.142 13.218 4.861.307.482 1.095.738 1.712.932l16.229 5.036-.253 2.134h-34.784c-.722-4.275-2.247-7.312-6.806-8.836-4.235-1.415-7.066-4.681-7.276-9.795 1.131-.371 1.892-.367 2.653-.362z" class="rtbl-T"/><path d="M326.27 352.019l-2.888-.022c-.381-11.635-.447-23.269-.316-34.901.021-1.834.94-3.659 1.686-5.79.445-.31.648-.318 1.487-.076.661 13.769.686 27.288.711 40.807l-.68-.017z" class="rtbl-J"/><path d="M336.539 371.003c.723.496.978.991 1.349 1.739-4.935.254-9.985.254-15.035.254l-.042-1.995 13.728.002z" class="rtbl-T"/><path d="M327.404 352.174l-.862-40.963c-.334-.269-.376-.659-.377-.856l31.93-.18c6.976.078 13.684 1.501 18.683 6.811 5.889 6.256 7.281 13.789 4.288 21.752-3.109 8.272-9.628 12.779-18.295 13.168-11.62.521-23.274.304-35.367.267m7.47-3.171c7.119.316 14.324 1.443 21.333.709 6.338-.664 13.548-1.898 18.421-5.513 6.931-5.141 8.163-23.236-3.703-27.795-6.414-2.465-13.787-2.716-20.783-3.302-6.157-.516-12.392-.108-18.957-.108-.22.463-.967 1.333-1.008 2.236-.446 9.774-.996 19.555-.919 29.329.012 1.492 3.061 2.96 5.616 4.444z" class="rtbl-R"/><path d="M327.016 285.364c.962.405 1.939 1.176 2.973 2.28-.948-.417-1.954-1.165-2.973-2.28z" class="rtbl-M"/><path d="M325.776 250.119c.082.181-.107.434-.571.757-.081-.18.11-.432.571-.757z" class="rtbl-J"/><path fill="#fbe4c4" d="M497.748 370.998l25.197-.094c1.308-.028 2.591-1.248 3.885-1.916-1.245-.992-2.366-2.24-3.764-2.913-1.872-.902-4.316-.893-5.888-2.094-4.954-3.784-10.759-4.777-16.564-6.102-1.654-.377-3.008-2.064-4.556-3.516 9.216-.365 18.494-.169 27.758-.45 4.244-.129 5.506 1.407 5.254 5.437-.288 4.618.169 9.288-.225 13.891-.114 1.329-1.911 3.402-3.166 3.588-4.873.722-9.838.822-15.154.815.433-1.427 1.253-2.516 2.855-4.647-4.703 0-8.38.189-12.022-.091-1.493-.115-2.907-1.24-4.358-1.906l.748-.002z"/><path d="M496.532 370.999c1.919.667 3.334 1.792 4.826 1.907 3.641.28 7.319.091 12.022.091-1.602 2.13-2.422 3.219-3.316 4.639l-59.597.342c.86-.666 2.169-1.844 3.52-1.895l37.308-1.097c1.284-.036 2.565-.214 3.847-.325l.057-1.37h-29.364l.014-2.293 30.681.001z" class="rtbl-L"/><path fill="#e2d4c3" d="M465.588 352.305c.142.207.004.405-.412.611-.091-.164.046-.373.412-.611z"/><path d="M83.084 290.424c.529-.388 1.18-.483 1.489-.202 2.392 2.175 1.939 10.282-1.05 12.781-.42-4.011-.447-8.061-.438-12.579zm2.549-17.344c-.316 2.63-1.034 5.259-2.137 7.924.332-2.615-2.593-6.236 2.137-7.924z" class="rtbl-V"/><path d="M373.94 310.644c-1.569-.406-3.195-1.174-4.901-2.282 1.562.413 3.203 1.167 4.901 2.282zm-19.98-63.025c-5.305.378-10.669.383-16.502.382-.899-4.013 1.17-5.546 4.84-4.957 4.105.658 9.712-2.608 11.662 4.575z" class="rtbl-J"/><path fill="#101b36" d="M338.117 250.254c7.998.036 16.14-1.105 23.466 3.611 4.57 2.942 7.308 6.939 7.436 12.347.122 5.168-1.549 9.627-5.981 12.891-4.278 3.15-8.93 4.467-14.193 4.35l-21.364-.167c-.454-.102-.414-.266-.483-.316l-.069-32.744c3.244 0 6.165 0 9.657.162.89.064 1.211-.035 1.531-.134z"/><path fill="#6c5949" d="M337.815 250.173c-.019.18-.339.278-.781.235.079-.2.279-.258.781-.235z"/><path fill="#0c1b3c" d="M334.419 349.001c-2.1-1.481-5.149-2.949-5.161-4.441-.077-9.774.473-19.555.919-29.329.041-.902.789-1.773 1.008-2.236 6.565 0 12.8-.408 18.957.108 6.996.586 14.368.837 20.783 3.302 11.866 4.559 10.634 22.654 3.703 27.795-4.873 3.615-12.083 4.849-18.421 5.513-7.009.734-14.213-.393-21.788-.711z"/></svg>