<svg xmlns="http://www.w3.org/2000/svg" width="64" height="65" fill="none" viewBox="0 0 64 65"><g clip-path="url(#sand_svg-a)"><rect width="64" height="64" y=".304" fill="#fff" rx="32"/><path fill="url(#sand_svg-b)" d="M32 64.304c17.673 0 32-14.327 32-32s-14.327-32-32-32-32 14.327-32 32 14.327 32 32 32"/><path fill="#fff" d="m21.248 15.408-3.456 3.456V32.56l3.456 3.456h13.696v6.912H28.16v-3.456H17.792v6.912l3.456 3.456h20.608l3.456-3.456V32.56l-3.456-3.456H28.16v-6.912h6.912v3.456H45.44v-6.912l-3.456-3.456H21.248z"/></g><rect width="63" height="63" x=".5" y=".804" stroke="#070B14" stroke-opacity=".15" rx="31.5"/><defs><linearGradient id="sand_svg-b" x1="13.722" x2="53.594" y1="11.677" y2="56.669" gradientUnits="userSpaceOnUse"><stop stop-color="#00ADEF"/><stop offset="1" stop-color="#0084FF"/></linearGradient><clipPath id="sand_svg-a"><rect width="64" height="64" y=".304" fill="#fff" rx="32"/></clipPath></defs></svg>