<svg xmlns="http://www.w3.org/2000/svg" width="64" height="65" fill="none" viewBox="0 0 64 65"><g clip-path="url(#sbc_svg-a)"><rect width="64" height="64" y=".304" fill="#fff" rx="32"/><path fill="#6938EF" d="M32 64.304c17.673 0 32-14.327 32-32s-14.327-32-32-32-32 14.327-32 32 14.327 32 32 32"/><path fill="#8760F2" d="M32 60.304c15.464 0 28-12.536 28-28s-12.536-28-28-28-28 12.536-28 28 12.536 28 28 28"/><path fill="#A588F5" d="M32 56.304c13.255 0 24-10.745 24-24s-10.745-24-24-24-24 10.745-24 24 10.745 24 24 24"/><path fill="#C3AFF9" d="M32 52.304c11.046 0 20-8.955 20-20s-8.954-20-20-20-20 8.954-20 20 8.954 20 20 20"/><path fill="#E1D7FC" d="M32 48.304c8.837 0 16-7.164 16-16s-7.163-16-16-16-16 7.163-16 16 7.163 16 16 16"/><path fill="#fff" d="M32 44.304c6.627 0 12-5.373 12-12 0-6.628-5.373-12-12-12s-12 5.372-12 12c0 6.627 5.373 12 12 12"/><path fill="#6938EF" d="M32 40.304a8 8 0 1 0 0-16 8 8 0 0 0 0 16"/></g><rect width="63" height="63" x=".5" y=".804" stroke="#070B14" stroke-opacity=".15" rx="31.5"/><defs><clipPath id="sbc_svg-a"><rect width="64" height="64" y=".304" fill="#fff" rx="32"/></clipPath></defs></svg>