<svg xmlns="http://www.w3.org/2000/svg" width="40" height="40" fill="none" viewBox="0 0 40 40"><g clip-path="url(#sbeton_svg-a)"><path fill="#D9D9D9" d="M20 0c11.046 0 20 8.954 20 20s-8.954 20-20 20S0 31.046 0 20 8.954 0 20 0"/><path fill="#000" d="M26 6a8 8 0 0 1 8 8v12a8 8 0 0 1-8 8H14a8 8 0 0 1-8-8V14a8 8 0 0 1 8-8z"/><path fill="#fff" d="M11.086 15.494c.163-.62.599-.977 1.139-1.283a592 592 0 0 0 6.82-3.924c.656-.383 1.26-.382 1.916 0a713 713 0 0 0 6.992 4.025c.659.374.964.888.959 1.653q-.03 4.046-.002 8.092c.005.742-.296 1.245-.935 1.61a896 896 0 0 0-7.066 4.065c-.617.358-1.197.358-1.814-.001a885 885 0 0 0-6.872-3.95c-.54-.306-.975-.666-1.137-1.285zM27.928 20q-.002-2.066.002-4.133c0-.266-.075-.474-.319-.614q-3.645-2.094-7.29-4.194a.59.59 0 0 0-.64 0q-3.63 2.094-7.265 4.18a.61.61 0 0 0-.337.575q.004 4.176 0 8.351a.63.63 0 0 0 .351.596q3.599 2.066 7.19 4.14a.7.7 0 0 0 .769-.003 1877 1877 0 0 1 7.141-4.11.73.73 0 0 0 .402-.712c-.01-1.358-.004-2.717-.004-4.076"/><path fill="#fff" d="M13.933 20.8c.3.172.587.328.863.503a.3.3 0 0 1 .082.215c.009.311-.016.624.014.933a.52.52 0 0 0 .204.354c1.572.92 3.153 1.823 4.729 2.736a.39.39 0 0 0 .445-.011 963 963 0 0 1 4.621-2.697.42.42 0 0 0 .239-.409q-.016-.48 0-.962a.45.45 0 0 0-.268-.448c-1.547-.888-3.087-1.788-4.633-2.676-.167-.096-.25-.193-.236-.393.02-.27.005-.544.005-.859.111.057.193.094.27.139 1.707.987 3.412 1.98 5.122 2.962.49.282.736.682.724 1.247-.007.367.004.736-.003 1.103a1.2 1.2 0 0 1-.619 1.077q-2.406 1.41-4.817 2.81a1.2 1.2 0 0 1-1.267.004q-2.443-1.4-4.883-2.809c-.3-.173-.558-.424-.58-.762-.042-.671-.012-1.347-.012-2.057"/><path fill="#fff" d="M26.113 18.684c-.33-.19-.617-.347-.893-.523a.3.3 0 0 1-.088-.214c-.011-.255-.006-.51-.006-.764a.59.59 0 0 0-.324-.554q-2.247-1.288-4.49-2.585a.63.63 0 0 0-.692.001q-2.198 1.29-4.4 2.57a.62.62 0 0 0-.34.6c.022 1.293-.165 1.02.966 1.68q1.968 1.149 3.945 2.283c.147.085.221.172.211.35-.016.282-.004.565-.004.899-.12-.065-.208-.11-.293-.159-1.625-.94-3.245-1.892-4.878-2.819-.653-.37-.972-.892-.932-1.64.013-.254-.001-.51.01-.763a1.41 1.41 0 0 1 .719-1.212q2.291-1.354 4.597-2.683a1.44 1.44 0 0 1 1.511.008q2.298 1.314 4.59 2.64a1.51 1.51 0 0 1 .79 1.377c.004.48 0 .962 0 1.508"/></g><defs><clipPath id="sbeton_svg-a"><path fill="#fff" d="M0 0h40v40H0z"/></clipPath></defs></svg>