<svg xmlns="http://www.w3.org/2000/svg" width="40" height="40" fill="none" viewBox="0 0 40 40"><g clip-path="url(#sbuxon_svg-a)"><path fill="#CCE0D9" d="M20 0c11.046 0 20 8.954 20 20s-8.954 20-20 20S0 31.046 0 20 8.954 0 20 0"/><path fill="#006241" d="M26 6a8 8 0 0 1 8 8v12a8 8 0 0 1-8 8H14a8 8 0 0 1-8-8V14a8 8 0 0 1 8-8z"/><g clip-path="url(#sbuxon_svg-b)"><path fill="#fff" d="M21.006 14.4A6 6 0 0 0 20 14.313c-.495 0-.918.071-1.006.087-.05.01-.07-.04-.031-.069L20 13.543l1.037.788c.039.029.02.078-.03.07m-1.732 4.954s-.053.019-.067.066c.21.161.355.528.793.528s.583-.367.793-.528c-.014-.047-.067-.066-.067-.066s-.274.065-.726.065-.726-.065-.726-.065m.726-.618c-.122 0-.148-.046-.231-.046-.08 0-.233.064-.266.121q.003.046.034.08c.178.026.258.125.463.125s.286-.099.464-.126a.13.13 0 0 0 .034-.079c-.033-.057-.187-.12-.266-.12-.083-.001-.11.045-.232.045m9.99 1.892q-.02.356-.064.71c-1.133.188-1.537-.821-2.697-.77q.103.368.169.752c.956 0 1.342.894 2.406.762q-.084.41-.201.81c-.842.082-1.138-.754-2.112-.731q.012.207.012.42l-.004.233 1.892.722q-.15.402-.33.79c-.57-.031-.765-.76-1.63-.703q-.04.279-.099.555c.752-.053.913.639 1.451.695q-.206.375-.441.73c-.32-.17-.596-.686-1.2-.717q.093-.288.162-.583c-.536 0-1.15-.21-1.663-.678.166-.948-1.307-1.915-1.307-2.61 0-.755.382-1.173.382-2.19 0-.755-.367-1.575-.92-2.135a2 2 0 0 0-.343-.276c.509.63.899 1.375.899 2.239 0 .958-.446 1.464-.446 2.349 0 .884 1.294 1.65 1.294 2.561 0 .359-.115.71-.493 1.398.58.58 1.337.896 1.826.896.158 0 .243-.048.3-.172q.073-.162.138-.326c.526.02.767.498 1.058.689q-.24.32-.503.622c-.195-.217-.457-.58-.841-.681a8 8 0 0 1-.218.394c.33.09.557.424.732.643q-.285.293-.59.563c-.127-.199-.326-.45-.549-.587a7 7 0 0 1-.256.326c.189.128.356.36.465.548q-.354.285-.733.537c-.125-1.016-1.511-1.712-1.138-2.891-.122.208-.269.467-.269.78 0 .854.91 1.53.982 2.379a10 10 0 0 1-.578.319c-.033-.932-.995-1.952-.995-2.717 0-.854 1.119-1.712 1.119-2.72s-1.29-1.707-1.29-2.592c0-.886.548-1.395.548-2.53 0-.83-.395-1.671-1.005-2.208a1.7 1.7 0 0 0-.342-.238c.575.69.909 1.316.909 2.266 0 1.067-.63 1.659-.63 2.703 0 1.045 1.267 1.626 1.267 2.6 0 .973-1.178 1.794-1.178 2.794 0 .91 1.039 1.819 1.054 2.898q-.343.15-.694.272c.132-1.091-1.037-2.216-1.037-3.106 0-.973 1.222-1.81 1.222-2.858 0-1.05-1.243-1.538-1.243-2.616 0-1.076.763-1.672.763-2.862a2.9 2.9 0 0 0-1.127-2.278l-.042-.032c-.063-.047-.115.01-.07.065.473.59.726 1.189.726 2.074 0 1.088-.876 1.973-.876 3.027 0 1.245 1.177 1.6 1.177 2.622 0 1.02-1.262 1.837-1.262 2.92 0 1.006 1.194 2.121.99 3.281q-.363.094-.73.16c.225-1.444-.947-2.482-.947-3.427 0-1.023 1.307-1.935 1.307-2.934 0-.944-.938-1.252-1.061-2.216-.017-.132-.123-.23-.268-.205-.19.034-.435.16-.819.16s-.627-.126-.818-.16c-.145-.024-.25.073-.268.205-.123.964-1.061 1.272-1.061 2.215 0 1 1.306 1.912 1.306 2.935 0 .945-1.17 1.983-.947 3.427a10 10 0 0 1-.728-.16c-.205-1.16.989-2.275.989-3.28 0-1.084-1.262-1.9-1.262-2.921 0-1.022 1.177-1.377 1.177-2.622 0-1.054-.876-1.938-.876-3.027 0-.885.253-1.483.727-2.074.044-.056-.008-.112-.071-.065l-.042.032A2.9 2.9 0 0 0 17 18.085c0 1.19.763 1.786.763 2.863s-1.243 1.565-1.243 2.615 1.222 1.886 1.222 2.858c0 .89-1.17 2.016-1.037 3.106a10 10 0 0 1-.694-.271c.016-1.08 1.054-1.988 1.054-2.898 0-1-1.178-1.821-1.178-2.795s1.266-1.554 1.266-2.6c0-1.043-.629-1.636-.629-2.703 0-.95.333-1.575.909-2.265a1.6 1.6 0 0 0-.342.238 3.03 3.03 0 0 0-1.005 2.209c0 1.134.55 1.643.55 2.528 0 .886-1.291 1.584-1.291 2.593s1.118 1.866 1.118 2.72c0 .765-.963 1.785-.995 2.717a10 10 0 0 1-.578-.32c.073-.848.982-1.525.982-2.378 0-.313-.146-.573-.27-.78.374 1.178-1.013 1.874-1.137 2.89a10 10 0 0 1-.733-.537c.109-.188.276-.42.465-.547A7 7 0 0 1 13.94 27c-.223.136-.422.388-.55.587q-.305-.27-.589-.563c.175-.22.401-.553.732-.643q-.116-.194-.218-.394c-.384.1-.646.464-.84.68q-.266-.3-.504-.622c.291-.19.532-.668 1.057-.688q.066.164.14.325c.056.125.141.173.3.173.488 0 1.244-.317 1.825-.897-.378-.688-.493-1.038-.493-1.397 0-.912 1.294-1.677 1.294-2.562s-.446-1.39-.446-2.349c0-.863.39-1.609.899-2.238q-.188.117-.343.276c-.553.56-.92 1.38-.92 2.134 0 1.018.382 1.436.382 2.19 0 .696-1.473 1.662-1.307 2.611-.514.468-1.127.677-1.664.677q.07.295.163.583c-.604.032-.88.547-1.2.718a10 10 0 0 1-.442-.73c.538-.057.7-.748 1.452-.696a8 8 0 0 1-.099-.554c-.865-.058-1.06.672-1.63.703a10 10 0 0 1-.33-.79l1.892-.722-.004-.234q0-.21.012-.42c-.974-.022-1.27.814-2.112.73a10 10 0 0 1-.201-.808c1.064.132 1.45-.763 2.406-.762q.065-.381.17-.753c-1.16-.05-1.566.959-2.698.771a10 10 0 0 1-.063-.71c1.316.146 1.81-.936 3.008-.803q.17-.428.392-.83c-1.502-.265-2.012.992-3.41.799.15-5.393 4.57-9.718 10-9.718s9.848 4.325 10 9.72c-1.4.192-1.91-1.064-3.412-.8q.223.4.392.83c1.198-.133 1.692.95 3.008.803M15.7 16.432c-.737-.301-1.628-.232-2.39.257-.118-.708-.503-1.338-1.05-1.718-.076-.052-.154-.002-.147.085.115 1.498-.76 2.798-1.836 3.94 1.109.334 2.053-1.095 3.492-.596a7.5 7.5 0 0 1 1.931-1.968m4.3-.906c-.928 0-1.706.525-1.91 1.204-.016.052.006.086.066.059q.252-.112.563-.111c.379 0 .713.139.91.38.087.289.095.706-.004.944-.156-.035-.212-.156-.364-.156-.153 0-.27.107-.53.107-.257 0-.288-.122-.458-.122-.2 0-.236.206-.236.438 0 1.035.951 2.459 1.963 2.459 1.011 0 1.962-1.424 1.962-2.459 0-.232-.047-.43-.256-.458a.63.63 0 0 1-.438.142c-.259 0-.33-.107-.482-.107-.184 0-.165.388-.383.41-.146-.35-.153-.798-.032-1.197.198-.242.531-.381.91-.381.206 0 .398.036.563.11.06.028.081-.006.066-.058-.204-.679-.981-1.204-1.91-1.204m1.479 1.485c-.223 0-.484.068-.648.25a.25.25 0 0 0 .007.174c.404-.138.76-.144.932.049.091-.084.12-.159.12-.246 0-.134-.136-.227-.411-.227m-3.248.473c.194-.195.605-.187 1.031-.03.019-.212-.36-.444-.74-.444-.276 0-.412.093-.412.228 0 .087.029.163.12.246m6.4-3.503c-.733.052-1.37.304-1.886.724.22-.62.497-1.163.85-1.69-.934.1-1.715.441-2.285 1.025l-.445-1.169.99-.874-1.326-.094L20 10.672l-.529 1.233-1.325.093.99.874-.446 1.169c-.57-.584-1.35-.925-2.283-1.024.351.526.629 1.069.848 1.689-.515-.42-1.152-.672-1.885-.724.44.566.83 1.168 1.118 1.817.033.073.103.097.178.059a7.5 7.5 0 0 1 3.334-.78c1.197 0 2.329.281 3.334.78.075.038.145.014.178-.06a9 9 0 0 1 1.119-1.816m1.6 4.42c1.439-.499 2.384.93 3.493.596-1.076-1.143-1.951-2.443-1.836-3.94.007-.088-.072-.138-.147-.085-.548.38-.932 1.01-1.05 1.718-.762-.49-1.653-.559-2.39-.258a7.5 7.5 0 0 1 1.93 1.969"/></g></g><defs><clipPath id="sbuxon_svg-a"><path fill="#fff" d="M0 0h40v40H0z"/></clipPath><clipPath id="sbuxon_svg-b"><path fill="#fff" d="M10 10h20v20H10z"/></clipPath></defs></svg>