<svg xmlns="http://www.w3.org/2000/svg" width="64" height="65" fill="none" viewBox="0 0 64 65"><rect width="64" height="64" y=".304" fill="#fff" rx="32"/><rect width="63" height="63" x=".5" y=".804" stroke="#070B14" stroke-opacity=".15" rx="31.5"/><mask id="sei_svg-a" width="56" height="56" x="4" y="4" maskUnits="userSpaceOnUse" style="mask-type:luminance"><path fill="#fff" d="M59.523 4.78H4.477v55.047h55.046z"/></mask><g mask="url(#sei_svg-a)"><path fill="url(#sei_svg-b)" fill-rule="evenodd" d="M31.872 59.827c8.155 0 15.482-3.547 20.522-9.183a6.53 6.53 0 0 0-8.373-.147l-.477.385a11.02 11.02 0 0 1-15.14-1.238 5.88 5.88 0 0 0-8.216-.55l-5.497 4.714a27.4 27.4 0 0 0 17.18 6.02M40.795 46.5c4.353-3.513 10.471-3.387 14.658.005a27.4 27.4 0 0 0 3.942-14.201 27.4 27.4 0 0 0-4.816-15.557 6.52 6.52 0 0 0-5.692 1.498l-.459.406a11.02 11.02 0 0 1-15.18-.538 5.88 5.88 0 0 0-8.233-.169l-6.397 6.019-3.52-3.741 6.398-6.019c4.37-4.11 11.225-3.97 15.422.317a5.88 5.88 0 0 0 8.104.287l.459-.406a11.6 11.6 0 0 1 4.797-2.56 27.42 27.42 0 0 0-18.406-7.06C17.9 4.78 6.358 15.19 4.585 28.679c4.244-2.037 9.478-1.253 12.938 2.29a6.134 6.134 0 0 0 8.166.549l3.577-2.795a11.91 11.91 0 0 1 15.152.406l6.964 6.067-3.374 3.873L41.044 33a6.77 6.77 0 0 0-8.616-.23l-3.577 2.794a11.27 11.27 0 0 1-15.002-1.007 6.134 6.134 0 0 0-8.587-.188l-.774.727a27.4 27.4 0 0 0 6.492 15.127l5.865-5.029c4.555-3.904 11.397-3.447 15.392 1.029a5.88 5.88 0 0 0 8.081.66z" clip-rule="evenodd"/></g><defs><linearGradient id="sei_svg-b" x1="31.941" x2="31.941" y1="4.781" y2="59.827" gradientUnits="userSpaceOnUse"><stop stop-color="#8F305D"/><stop offset="1" stop-color="#E33C3F"/></linearGradient></defs></svg>