<svg xmlns="http://www.w3.org/2000/svg" width="64" height="65" fill="none" viewBox="0 0 64 65"><rect width="64" height="64" y=".304" fill="#3BC726" rx="32"/><rect width="63" height="63" x=".5" y=".804" stroke="#070B14" stroke-opacity=".15" rx="31.5"/><path fill="#000" d="M43.093 30.714v-9.345c2.299.57 3.882 2.404 3.882 4.544H50c0-3.652-2.914-6.692-6.907-7.306V16h-3.026v2.626c-3.75.654-6.746 3.654-6.746 7.26s2.995 6.617 6.746 7.273v9.333c-2.057-.604-3.68-2.411-3.68-4.512H33.36c0 3.614 2.955 6.629 6.706 7.286V48h3.026v-2.714c3.993-.613 6.867-3.643 6.867-7.286 0-3.644-2.874-6.674-6.867-7.286m-6.747-4.822c0-2.111 1.664-3.899 3.721-4.495v8.989c-2.057-.598-3.72-2.384-3.72-4.494m6.747 16.634v-9.05c2.299.563 3.841 2.375 3.841 4.524s-1.542 3.964-3.841 4.526M22.32 21.185c2.918 0 5.293 2.142 5.293 4.728h3.026c0-4.095-3.732-7.421-8.32-7.421-4.587 0-8.319 3.309-8.319 7.393 0 4.085 3.721 7.408 8.32 7.408 2.904 0 5.293 2.108 5.293 4.707 0 2.6-2.375 4.707-5.294 4.707s-5.294-2.141-5.294-4.727H14c0 4.094 3.732 7.42 8.32 7.42 4.587 0 8.319-3.315 8.319-7.4 0-4.084-3.721-7.4-8.32-7.4-2.904 0-5.294-2.109-5.294-4.708s2.375-4.707 5.294-4.707"/></svg>