<svg xmlns="http://www.w3.org/2000/svg" width="64" height="65" fill="none" viewBox="0 0 64 65"><rect width="64" height="64" y=".304" fill="#F00500" rx="32"/><rect width="63" height="63" x=".5" y=".804" stroke="#070B14" stroke-opacity=".15" rx="31.5"/><path fill="#000" d="M43.318 33.229c-.018.11-.321.433-.626.671-.892.685-2.49 1.322-4.112 1.629-.924.175-1.848.202-2.127.06-.18-.095-.207-.17-.142-.413.136-.508.577-1.065 1.26-1.588.35-.263 1.767-1.166 2.425-1.547 1.086-.624 1.965-.995 2.56-1.084.188-.028.415-.035.483 0 .12.046.248.407.298.84.028.23.015 1.249-.019 1.432m-15.231 2.245c-.037.082-.233.17-.452.203-.221.035-.892.014-1.274-.033-1.372-.191-2.825-.632-3.885-1.175-.595-.304-1.023-.61-1.338-.941l-.183-.197-.018-.258c-.034-.449-.026-1.153.026-1.404.033-.21.101-.412.2-.597.05-.069.05-.069.285-.069.284 0 .522.047.91.176.797.26 1.979.884 3.422 1.793 1.19.745 1.636 1.111 1.978 1.613.232.312.386.752.329.889m9.156 9.442c0 .02-.078.346-.175.732q-.093.356-.175.714c-.072.005-.135.013-.208.005h-.204l-.287.707c-.154.386-.297.745-.316.8l-.039.095-.136-.232-.135-.23v-1.879l-.052.014c-.112.027-.893.136-1.235.17-1.414.148-2.84.116-4.248-.096a4 4 0 0 0-.427-.055c-.006.008 0 .441.013.978l.018.963-.108.176c-.06.095-.117.175-.117.183-.018.02-.083-.088-.232-.4a4.7 4.7 0 0 1-.363-1.032l-.044-.195-.201.012-.2.022-.053-.252a7 7 0 0 1-.07-.46l-.02-.217-.166-.156-.214-.191c-.034-.027-.047-.074-.047-.115v-.082l.809.008.809.005.024.088.026.09.279.014 1.085.033.81.02.206-.338.213-.34h.272l-.006-.706-.007-.706-.355-.162c-1.145-.528-1.817-1.13-2.07-1.864-.051-.15-.051-.205-.064-.882-.006-.673-.006-.733.039-.883a1 1 0 0 1 .244-.439.93.93 0 0 1 .421-.252c.112-.035.402-.035 1.928-.035l1.796.008.2.101c.194.084.361.222.484.4.156.217.203.386.203.8 0 .59-.04 1.1-.097 1.303a2.9 2.9 0 0 1-.376.78c-.323.435-.91.868-1.45 1.065l-.154.06.007.714.006.712.143.014.142.014.195.304.186.306h.868c.478 0 .898.006.937.012.065.015.078.008.141-.108l.078-.123h.744c.557-.027.725-.013.725.008"/><path fill="#000" d="M33.828 46.863c-.123.074-.207.107-.225.095-.019-.007-.112-.09-.209-.163l-.174-.149-.18.203c-.395.449-.41.468-.525.474-.18.02-.22-.014-.439-.359-.117-.175-.206-.325-.206-.325s-.086-.014-.182-.02l-.18-.02-.084.182-.086.183-.149-.047a3 3 0 0 1-.342-.142l-.193-.101v-.389l1.72.008 1.72.006.005.184c.007.216.013.21-.271.38"/><path fill="#fff" d="M49.99 38.588c-.005-.029-.005-.078-.01-.15a13.1 13.1 0 0 0-5.36.58 13.6 13.6 0 0 0-4.736 2.697s-1.323-6.378-7.529-6.378c-6.21 0-8.509 6.378-8.509 6.378-3.478-3.928-8.134-3.644-9.816-3.386l-.006.129c-.052.983-.026 1.45.13 2.067.484 1.935 1.979 4.065 4.32 6.154 3.833 3.42 9.03 5.886 12.968 6.173 4.105.293 10.164-2.225 14.198-5.902a21 21 0 0 0 1.785-1.878c.4-.488.995-1.33.95-1.33-.013 0 0-.014.026-.028.019-.013.037-.033.026-.047-.007-.007.006-.027.026-.033.019-.008.032-.02.026-.035-.007-.013 0-.027.026-.033.019-.008.026-.027.019-.041-.008-.014 0-.027.013-.027s.026-.02.026-.033.013-.036.026-.036.026-.013.026-.027a.7.7 0 0 1 .083-.156c.097-.156.484-.882.538-1.002.368-.876.6-1.656.71-2.437.039-.372.07-1.057.044-1.22zm-16.163 8.274c-.122.074-.206.108-.224.096-.02-.008-.112-.09-.209-.164l-.174-.148-.18.203c-.395.448-.41.468-.525.474-.18.02-.22-.014-.439-.36-.117-.175-.206-.325-.206-.325s-.086-.014-.182-.02l-.18-.019-.084.181-.086.184-.149-.047a3 3 0 0 1-.342-.142l-.193-.102v-.388l1.72.008 1.72.006.005.183c.007.217.013.21-.271.38m3.235-1.22q-.092.354-.176.711c-.07.006-.136.014-.207.006h-.206l-.279.714c-.154.386-.297.745-.316.8l-.039.095-.136-.232-.135-.23v-1.878l-.052.013a19 19 0 0 1-1.235.17c-1.414.148-2.84.116-4.248-.096a4 4 0 0 0-.428-.054c-.005.008 0 .44.014.977l.018.964-.108.175c-.06.096-.117.176-.117.183-.018.02-.084-.087-.232-.4a4.7 4.7 0 0 1-.363-1.031l-.044-.195-.201.013-.201.02-.052-.252a7 7 0 0 1-.07-.46l-.02-.217-.167-.156a6 6 0 0 0-.213-.19c-.034-.028-.047-.075-.047-.116v-.082l.809.008.809.006.024.088.026.09.279.013 1.085.033.809.02.206-.338.214-.34h.272l-.006-.705-.007-.706-.356-.162c-1.145-.529-1.816-1.131-2.069-1.865-.052-.15-.052-.205-.065-.881-.005-.673-.005-.734.04-.884a1 1 0 0 1 .244-.438.93.93 0 0 1 .42-.252c.112-.036.402-.036 1.929-.036l1.796.008.2.102c.194.083.361.222.484.4.156.216.202.386.202.8 0 .59-.039 1.1-.096 1.302a2.9 2.9 0 0 1-.376.78c-.323.435-.91.868-1.45 1.065l-.154.06.007.715.006.712.143.013.141.014.195.304.186.306h.869c.477 0 .898.006.937.012.065.016.078.008.14-.107l.079-.123h.744c.576 0 .743.008.743.027-.018-.006-.104.326-.2.706z"/><path fill="#FFA409" d="M49.938 37.897q-.02-.473-.06-.944c-.279-3.08-1.028-5.596-2.45-8.263a2.4 2.4 0 0 1-.141-.284c-.013-.02-.019-.04-.026-.053a73 73 0 0 0 1.673-6.288c.887-4.096 1.45-8.887-.27-10.324 0 0-2.974-.23-6.956 3.866a27.6 27.6 0 0 0-2.949 3.668l-.279-.093c-1.6-.55-3.26-.887-4.94-1.005-.503-.039-2.385-.039-2.998 0-1.856.129-3.28.422-4.895 1.01q-.09.038-.18.069a27.3 27.3 0 0 0-3.046-3.644c-4.145-4.115-7.23-3.877-7.23-3.877-1.822 1.484-1.2 6.491-.26 10.724a73 73 0 0 0 1.67 6.153q-.032.076-.071.149c-1.506 3.202-2.322 6.288-2.516 9.57 1.687-.257 6.336-.55 9.82 3.385 0 0 2.302-6.376 8.51-6.376 6.205 0 7.53 6.378 7.53 6.378a13.6 13.6 0 0 1 4.736-2.694 13.2 13.2 0 0 1 5.358-.583l-.032-.544zM17.824 26.053s-2.417-6.343-1.798-9.967c.104-.608.297-1.144.602-1.55 0 0 2.74.284 7.163 5.44 0 0-.84.427-1.965 1.336 0 0-.007.006-.013.006a16.1 16.1 0 0 0-3.99 4.735m10.262 9.421c-.041.082-.234.17-.454.203-.22.035-.892.014-1.273-.033-1.372-.191-2.826-.632-3.886-1.174-.595-.305-1.022-.61-1.338-.942l-.182-.197-.019-.258c-.034-.449-.026-1.153.026-1.404a1.9 1.9 0 0 1 .2-.597c.051-.068.051-.068.285-.068.285 0 .523.046.911.175.796.26 1.978.884 3.42 1.793 1.19.745 1.637 1.111 1.979 1.613.232.312.387.753.33.89m15.23-2.245c-.019.11-.322.433-.627.671-.892.685-2.49 1.323-4.112 1.629-.924.175-1.848.203-2.127.06-.18-.095-.206-.17-.141-.413.135-.507.576-1.065 1.26-1.588.35-.265 1.766-1.166 2.424-1.547 1.086-.624 1.965-.994 2.56-1.084.188-.027.415-.035.486 0 .117.047.245.407.297.84.026.23.013 1.249-.018 1.432zm-1.073-11.917-.013-.008a12 12 0 0 0-1.9-1.336c4.274-5.155 6.916-5.44 6.916-5.44.292.413.48.942.584 1.553.6 3.622-1.733 9.97-1.733 9.97a16 16 0 0 0-3.854-4.74"/><path fill="#FF9300" d="M47.84 16.08c-.506-.065-2.891-.08-5.594 5.232l-.013-.008a12 12 0 0 0-1.9-1.336c4.274-5.155 6.916-5.44 6.916-5.44.297.414.487.942.589 1.553z"/><path fill="#FF8300" d="M46.104 26.053c-.98-1.83-2.29-3.44-3.86-4.742 2.704-5.311 5.084-5.297 5.593-5.231.602 3.63-1.733 9.973-1.733 9.973m1.83-9.954-.097-.02z"/><path fill="#FF9300" d="M23.794 19.968s-.84.43-1.965 1.336c0 0-.007.008-.013.008-2.8-5.319-5.265-5.297-5.793-5.231.103-.61.298-1.145.6-1.553.008 0 2.749.285 7.171 5.442z"/><path fill="#FF8300" d="M21.822 21.311a16 16 0 0 0-3.995 4.74s-2.417-6.341-1.798-9.971c.524-.066 2.993-.08 5.793 5.231m-5.794-5.231-.102.019.1-.019z"/><path fill="#fff" d="M39.563 29.573s-2.07.135-1.811-1.56c.26-1.697 1.876-1.9 2.328-1.834.453.069 2.262.748 1.94 2.173-.323 1.424-.777 1.151-1.035 1.221-.258.067-1.422 0-1.422 0m-15.26 0s-2.067.135-1.809-1.56c.26-1.697 1.874-1.9 2.328-1.834.452.069 2.262.748 1.939 2.173-.323 1.424-.775 1.151-1.034 1.221-.26.067-1.422 0-1.422 0z"/></svg>