<svg xmlns="http://www.w3.org/2000/svg" width="40" height="40" fill="none" viewBox="0 0 40 40"><g clip-path="url(#snowon_svg-a)"><path fill="#D4F0FA" d="M20 0c11.046 0 20 8.954 20 20s-8.954 20-20 20S0 31.046 0 20 8.954 0 20 0"/><path fill="#29B5E8" d="M26 6a8 8 0 0 1 8 8v12a8 8 0 0 1-8 8H14a8 8 0 0 1-8-8V14a8 8 0 0 1 8-8z"/><g clip-path="url(#snowon_svg-b)"><path fill="#fff" d="M16.825 20.333a1.6 1.6 0 0 0 .063-.38c0-.095-.031-.19-.031-.285-.095-.286-.254-.539-.539-.698l-4.058-2.314c-.57-.317-1.3-.127-1.617.444-.317.57-.127 1.3.444 1.617l2.25 1.3-2.25 1.3c-.571.316-.761 1.046-.444 1.616.316.571 1.046.762 1.616.444l4.027-2.314c.286-.222.476-.444.539-.73m1.11 2.189c-.222-.032-.475.031-.697.158l-4.027 2.314c-.571.317-.761 1.047-.444 1.617s1.046.761 1.617.444l2.251-1.3v2.6c0 .667.54 1.173 1.205 1.173a1.17 1.17 0 0 0 1.172-1.173v-4.66c0-.634-.474-1.142-1.077-1.173m4.122-5.074c.221.032.475-.031.697-.158l4.027-2.314c.57-.317.76-1.047.443-1.617-.317-.572-1.046-.762-1.616-.444l-2.251 1.3v-2.57c0-.665-.54-1.173-1.205-1.173-.666 0-1.205.508-1.205 1.174v4.629a1.18 1.18 0 0 0 1.11 1.173m-8.846-2.473 4.027 2.314c.221.127.444.158.697.158.603-.031 1.11-.57 1.11-1.172v-4.63a1.17 1.17 0 0 0-1.173-1.173c-.666 0-1.205.54-1.205 1.174v2.6l-2.251-1.3c-.571-.317-1.3-.127-1.617.444-.349.538-.158 1.267.412 1.585m7.577 5.01a.34.34 0 0 0-.095-.223l-.475-.475a.3.3 0 0 0-.222-.095.34.34 0 0 0-.222.095l-.476.475a.34.34 0 0 0-.095.222c0 .063.032.158.095.223l.475.475a.3.3 0 0 0 .223.095.34.34 0 0 0 .222-.095l.475-.475a.34.34 0 0 0 .095-.223m1.332.443-1.68 1.68c-.033.032-.128.095-.19.095h-.508a.34.34 0 0 1-.222-.095l-1.68-1.68a.34.34 0 0 1-.063-.19v-.507c0-.064.031-.159.095-.223l1.68-1.68a.34.34 0 0 1 .222-.095h.507a.34.34 0 0 1 .222.095l1.68 1.68a.3.3 0 0 1 .095.223v.506c-.063.065-.095.159-.158.191m4.66 4.534-4.026-2.315c-.222-.126-.475-.158-.697-.126-.603.031-1.11.57-1.11 1.173v4.628a1.17 1.17 0 0 0 1.173 1.174c.666 0 1.205-.54 1.205-1.174v-2.6l2.25 1.3c.572.317 1.3.127 1.617-.444.35-.538.159-1.267-.411-1.616m2.125-6.278-2.25 1.3 2.25 1.3c.57.317.76 1.047.443 1.617-.316.57-1.046.76-1.616.444l-4.027-2.315a1.37 1.37 0 0 1-.54-.665c-.03-.128-.062-.254-.062-.38 0-.096.032-.19.032-.286.095-.286.285-.54.538-.697l4.027-2.315c.57-.317 1.3-.127 1.617.444.38.507.158 1.236-.412 1.553"/></g></g><defs><clipPath id="snowon_svg-a"><path fill="#fff" d="M0 0h40v40H0z"/></clipPath><clipPath id="snowon_svg-b"><path fill="#fff" d="M10 10h20v20H10z"/></clipPath></defs></svg>