<svg xmlns="http://www.w3.org/2000/svg" width="400" height="400" fill="none" viewBox="0 0 400 400"><circle cx="200" cy="200" r="194.915" fill="#fff" stroke="#00A2C7" stroke-width="10.169"/><path fill="#00A2C7" d="M118.096 243.017c20.292 0 36.742 16.45 36.742 36.741 0 20.292-16.45 36.742-36.742 36.742s-36.74-16.45-36.741-36.742 16.45-36.741 36.741-36.741m80.832 0c20.292 0 36.741 16.45 36.741 36.741 0 20.292-16.449 36.741-36.741 36.742s-36.741-16.45-36.741-36.742 16.449-36.741 36.741-36.741m80.831 0c20.292 0 36.741 16.45 36.741 36.741 0 20.292-16.449 36.741-36.741 36.742s-36.742-16.45-36.742-36.742 16.451-36.741 36.742-36.741m-161.663 9.185c-15.218 0-27.555 12.337-27.556 27.555 0 15.219 12.338 27.557 27.556 27.557s27.557-12.338 27.557-27.557-12.338-27.555-27.557-27.555m80.832-90.016c20.292 0 36.742 16.45 36.742 36.741 0 20.292-16.45 36.742-36.742 36.742s-36.741-16.45-36.741-36.742 16.45-36.741 36.741-36.741m-80.832 0c20.292 0 36.742 16.45 36.742 36.741 0 20.292-16.45 36.741-36.742 36.741s-36.741-16.449-36.741-36.741 16.45-36.741 36.741-36.741m161.663 0c20.292 0 36.741 16.45 36.741 36.741 0 20.292-16.449 36.741-36.741 36.741s-36.742-16.449-36.742-36.741 16.451-36.741 36.742-36.741m-80.831 9.187c-15.219 0-27.555 12.336-27.555 27.555s12.336 27.557 27.555 27.557 27.557-12.338 27.557-27.557-12.338-27.555-27.557-27.555m-80.832-90.018c20.292 0 36.742 16.45 36.742 36.741 0 20.292-16.45 36.742-36.742 36.742s-36.741-16.45-36.741-36.742 16.45-36.74 36.741-36.741m80.832 0c20.292 0 36.741 16.45 36.741 36.741 0 20.292-16.449 36.742-36.741 36.742s-36.741-16.45-36.741-36.742 16.45-36.741 36.741-36.741m80.83 0c20.292 0 36.742 16.45 36.742 36.741 0 20.292-16.45 36.742-36.742 36.742s-36.741-16.45-36.741-36.742 16.45-36.74 36.741-36.741m0 9.186c-15.218 0-27.555 12.338-27.555 27.556s12.337 27.556 27.555 27.557 27.557-12.338 27.557-27.557-12.338-27.555-27.557-27.555"/></svg>