<svg xmlns="http://www.w3.org/2000/svg" width="64" height="65" fill="none" viewBox="0 0 64 65"><rect width="64" height="64" y=".304" fill="#000" rx="32"/><rect width="63" height="63" x=".5" y=".804" stroke="#fff" stroke-opacity=".15" rx="31.5"/><path fill="url(#sol_svg-a)" d="M18.496 40.402c.244-.25.576-.39.922-.39h31.899c.58 0 .872.718.46 1.137l-6.303 6.427a1.3 1.3 0 0 1-.921.39h-31.9c-.58 0-.872-.718-.46-1.137z"/><path fill="url(#sol_svg-b)" d="M18.496 16.39c.244-.25.576-.39.921-.39h31.9c.58 0 .871.717.46 1.136l-6.303 6.428c-.244.249-.576.39-.921.39h-31.9c-.58 0-.872-.718-.46-1.137z"/><path fill="url(#sol_svg-c)" d="M45.475 28.32a1.3 1.3 0 0 0-.922-.39h-31.9c-.58 0-.872.717-.46 1.136l6.303 6.427c.244.25.576.39.922.39h31.899c.58 0 .872-.717.46-1.137z"/><defs><linearGradient id="sol_svg-a" x1="48.268" x2="25.503" y1="12.181" y2="54.936" gradientUnits="userSpaceOnUse"><stop stop-color="#00FFA3"/><stop offset="1" stop-color="#DC1FFF"/></linearGradient><linearGradient id="sol_svg-b" x1="38.615" x2="15.851" y1="7.022" y2="49.777" gradientUnits="userSpaceOnUse"><stop stop-color="#00FFA3"/><stop offset="1" stop-color="#DC1FFF"/></linearGradient><linearGradient id="sol_svg-c" x1="43.411" x2="20.646" y1="9.585" y2="52.34" gradientUnits="userSpaceOnUse"><stop stop-color="#00FFA3"/><stop offset="1" stop-color="#DC1FFF"/></linearGradient></defs></svg>