<svg width="32" height="32" viewBox="0 0 32 32" fill="none" xmlns="http://www.w3.org/2000/svg"><path d="M31.887 25.23l-5.333 5.68a1.405 1.405 0 01-.494.345 1.547 1.547 0 01-.597.113H.613a.604.604 0 01-.562-.37.64.64 0 01.114-.679l5.29-5.68a1.4 1.4 0 01.492-.344 1.55 1.55 0 01.595-.113H31.39a.604.604 0 01.562.37.64.64 0 01-.114.679l.05-.001zm-5.333-12.756a1.405 1.405 0 00-.494-.345 1.55 1.55 0 00-.597-.114H.613a.604.604 0 00-.562.37.64.64 0 00.114.68l5.29 5.68a1.4 1.4 0 00.492.343c.188.078.392.114.595.114H31.39a.604.604 0 00.562-.37.64.64 0 00-.114-.68l-5.284-5.678zM.614 7.924h24.849c.204.001.408-.035.597-.113a1.4 1.4 0 00.494-.345l5.333-5.68a.64.64 0 00.114-.68.604.604 0 00-.562-.369H6.542c-.203 0-.407.037-.595.114a1.4 1.4 0 00-.492.344L.166 6.875a.64.64 0 00-.114.678.604.604 0 00.226.27c.1.066.217.1.335.102z" fill="url(#paint0_linear_174_4403)"/><defs><linearGradient id="paint0_linear_174_4403" x1="2.703" y1="32.035" x2="28.209" y2="-1.07" gradientUnits="userSpaceOnUse"><stop offset=".08" stop-color="#9945FF"/><stop offset=".3" stop-color="#8752F3"/><stop offset=".5" stop-color="#5497D5"/><stop offset=".6" stop-color="#43B4CA"/><stop offset=".72" stop-color="#28E0B9"/><stop offset=".97" stop-color="#19FB9B"/></linearGradient></defs></svg>