<svg xmlns="http://www.w3.org/2000/svg" width="32" height="32" fill="none" viewBox="0 0 32 32"><path fill="url(#solbenji_svg-a)" d="m31.887 25.23-5.333 5.68a1.4 1.4 0 0 1-.494.345 1.6 1.6 0 0 1-.597.113H.613a.6.6 0 0 1-.562-.37.64.64 0 0 1 .114-.679l5.29-5.68a1.4 1.4 0 0 1 .492-.344 1.6 1.6 0 0 1 .595-.113H31.39a.6.6 0 0 1 .562.37.64.64 0 0 1-.114.679l.05-.001zm-5.333-12.756a1.4 1.4 0 0 0-.494-.345 1.6 1.6 0 0 0-.597-.114H.613a.6.6 0 0 0-.562.37.64.64 0 0 0 .114.68l5.29 5.68a1.4 1.4 0 0 0 .492.343c.188.078.392.114.595.114H31.39a.6.6 0 0 0 .562-.37.64.64 0 0 0-.114-.68zM.614 7.924h24.849c.204.001.408-.035.597-.113a1.4 1.4 0 0 0 .494-.345l5.333-5.68a.64.64 0 0 0 .114-.68.6.6 0 0 0-.562-.369H6.542c-.203 0-.407.037-.595.114a1.4 1.4 0 0 0-.492.344L.166 6.875a.64.64 0 0 0-.114.678.6.6 0 0 0 .226.27c.1.066.217.1.335.102z"/><defs><linearGradient id="solbenji_svg-a" x1="2.703" x2="28.209" y1="32.035" y2="-1.07" gradientUnits="userSpaceOnUse"><stop offset=".08" stop-color="#9945FF"/><stop offset=".3" stop-color="#8752F3"/><stop offset=".5" stop-color="#5497D5"/><stop offset=".6" stop-color="#43B4CA"/><stop offset=".72" stop-color="#28E0B9"/><stop offset=".97" stop-color="#19FB9B"/></linearGradient></defs></svg>