<svg xmlns="http://www.w3.org/2000/svg" width="300" height="300"><path fill="#1249E5" d="m171 29 1 1c2.013.396 4.036.743 6.063 1.063l3.347.535L184 32v2l9 1v2l7 1v2l6 1v2l6 1v2l5 1v2l4 1v2l2.125.688C228.168 54.99 232.315 58.89 236 63v2h2a207 207 0 0 1 4 5l2.688 2.563c2.308 2.432 2.646 3.33 3.312 6.437l3 1v3h2l1 5h2a563 563 0 0 1 2 4.313l1.125 2.425C260 97 260 97 260 100h2l1 7h2l1 9h2l.402 2.59.536 3.347.527 3.34c.253 2.627.253 2.627 1.535 3.723 2.287 13.016 2.287 28.984 0 42l-1 1a164 164 0 0 0-1.062 6.063l-.536 3.347L268 184h-2v3.5c-.68 6.644-4.113 12.218-7.187 18.023-1.85 3.324-1.85 3.324-2.813 6.477h-2l-1 5h-2l-1 4h-2l-.687 2.125c-2.36 5.169-6.343 8.905-10.313 12.875l-1 2-3 1-1.812 2.313c-2.437 2.993-4.872 4.74-8.188 6.687h-2l-1 3h-3v2l-5 1v2l-6 1v2l-6 1v2l-7 1v2l-9 1v2l-2.59.402-3.347.536-3.34.527c-2.627.253-2.627.253-3.723 1.535-6.94 1.14-13.986 1.154-21 1.125l-2.79.012c-17.097-.024-17.097-.024-19.21-2.137a164 164 0 0 0-6.062-1.062l-3.348-.536L116 268v-2l-9-1v-2l-7-1v-2l-6-1v-2l-6-1v-2l-5-1v-2l-4-1v-2l-2.25-.187c-3.61-1.067-4.595-2.795-6.75-5.813-2.124-2.379-2.866-2.955-6-4v-2h-2l-1-4h-2c-1.37-1.636-2.7-3.307-4-5l-1.75-1.625C52 224 52 224 52 221l-3-1v-3h-2l-1-5h-2c-6.657-12.802-12.125-25.629-14-40l-1-1c-1.14-6.94-1.154-13.986-1.125-21l-.012-2.79c.024-17.097.024-17.097 2.137-19.21a164 164 0 0 0 1.063-6.062l.535-3.348L32 116h2v-3.5c.68-6.644 4.113-12.218 7.188-18.023C43.037 91.153 43.037 91.153 44 88h2l1-5h2l1-4h2l.688-2.125C55.048 71.706 59.03 67.97 63 64l1-2 3-1 1.813-2.312C71.249 55.694 73.683 53.947 77 52h2l1-3h3v-2l5-1v-2l6-1v-2l6-1v-2l7-1v-2l9-1v-2c1.282-.2 1.282-.2 2.59-.402l3.347-.535 3.34-.528c2.627-.253 2.627-.253 3.723-1.535 13.016-2.287 28.984-2.287 42 0"/><path fill="#DCE4FB" d="M63 196c4.8-1.134 4.8-1.134 8 0 2.607 3.022 4.644 6.225 6.766 9.594 2.81 4.437 6.392 7.86 10.234 11.406l2.625 2.688c5.833 5.679 11.339 9.698 19.016 12.425 3.718 1.398 7.323 3.065 10.941 4.703 9.115 3.157 18.248 3.531 27.833 3.5 2.017-.003 4.032.02 6.048.045 15.473.008 31.053-3.756 43.635-13.127 1.979-1.284 3.597-1.803 5.902-2.234v-2c1.652-1.375 1.652-1.375 3.938-3 7.24-5.49 12.835-11.968 17.687-19.625 1.668-2.5 1.668-2.5 3.375-4.375 3.938-.625 3.938-.625 7 0 .313 2.188.313 2.188 0 5a141 141 0 0 1-5 5l-1.324 2.828c-1.931 3.655-4.091 5.745-7.176 8.484l-1.607 1.431A478 478 0 0 1 216 223l-2.812 2.43C194.654 241 194.654 241 185 241l-1 3c-10.236 4.329-21.438 4.368-32.375 4.375l-3.85.005C127.28 248.14 107.447 242.377 91 230l-3.016-2.223C81.63 222.855 76.772 217.433 72 211q-1.933-2.472-3.875-4.937C63 199.495 63 199.495 63 196"/><path fill="#E0E7FB" d="M183 57c1.991.383 3.991.726 6 1v2l2.086.25c3.638.936 6.444 2.7 9.539 4.75l1.847 1.208C210.152 71.318 217.26 76.72 223 84l2.688 2.063c2.614 2.19 2.552 2.802 3.312 5.937a283 283 0 0 0 5 5c3 4.448 3 4.448 3 7-3.312.25-3.312.25-7 0-1.937-1.812-1.937-1.812-3-4v-3h-2l-1.625-2.562C220.649 90.142 216.865 87.24 213 84a935 935 0 0 1-4.812-4.25l-2.208-1.953C204 76 204 76 202.61 74.426c-2.276-2.016-4.73-2.877-7.548-3.989-3.43-1.364-6.79-2.726-10.062-4.437v-2c-11.822-3.115-23.137-4.387-35.375-4.375l-3.739-.004c-9.7.114-19.487.83-28.886 3.379v2c-8.222 3.764-8.222 3.764-12.5 5.063L102 71l-1 3-2.937 1.125C89.427 78.523 79.15 88.699 75 97h-2l-2 7h-7c-.412-3.4-.085-4.857 1.695-7.84C74.61 84.795 84.295 73.217 97 66l2.5-1.625C109.273 59 109.273 59 114 59v-2c16.316-10.007 52.458-8.358 69 0"/><path fill="#F3F6FD" d="m209 129 10.813-.062 3.397-.028 2.685-.008 2.745-.016C231 129 231 129 234 130v2l1.75.188c3.184 1.15 4.356 3.069 6.25 5.812 2.273 6.818 2.362 16.164-.059 22.98-3.614 5.848-6.149 6.624-12.941 10.02h-20z"/><path fill="#F5F7FD" d="M99.816 118.902q2.374.01 4.746.035l2.444.014q2.997.02 5.994.049c-.625 8.171-1.58 15.896-6 23a107 107 0 0 1-6 4l-2 3c-1.883.738-1.883.738-4.125 1.313-6.127 1.94-10.857 4.568-14.414 10.066C76.98 167.372 75.912 174.287 75 182H56c1.098-19.098 1.098-19.098 8-26h2v-2c5.715-4.191 13.063-6.786 20-8l.352-1.824C87 142 87 142 89.375 139.188c3.573-4.7 4.101-10.387 5.047-16.055.759-4.112.759-4.112 5.394-4.23"/><path fill="#F4F7FD" d="M198 132c-.645 3.485-2.101 6.028-4 9l-2.062-1c-3.615-1.23-6.14-1.475-9.938-1-3.183 1.597-3.183 1.597-5 5-.754 5.196-.877 9.949 1.207 14.824 1.614 2.379 1.614 2.379 4.273 2.883l2.708.106 2.73.144L190 162v-6h-7v-9h17c.135 3.439.234 6.872.313 10.313l.126 2.958c.046 2.663.037 5.108-.439 7.729-2.332 2.043-2.332 2.043-5 3l-3 2c-6.789.857-13.967.42-20-3-5.35-4.634-8.616-9.386-9.21-16.535-.29-8.056 1.021-13.96 6.023-20.34 7.484-7.994 20.616-6.839 29.187-1.125"/><path fill="#EBEFFC" d="M156 132c-.764 3.472-2.082 5.998-4 9l-2.062-1c-3.519-1.198-6.245-1.348-9.938-1l-2 3 1.652.48c6.78 2.098 14.287 4.428 18.348 10.52.705 5.224.562 9.72-1.562 14.563-4.146 4.145-8.61 4.528-14.25 4.75-5.384-.091-10.148-1.511-15.188-3.313-.621-2.324-.621-2.324-1-5 1.938-2.812 1.938-2.812 4-5 4.75.875 4.75.875 7 2 1.537.225 3.08.408 4.625.563l2.477.253L146 162c-.542-2.474-.542-2.474-2-5-2.9-1.475-2.9-1.475-6.312-2.437-5.68-2.023-8.835-3.175-11.688-8.563-.755-5.288-.27-9.026 2.688-13.523 7.09-7.976 19.36-5.278 27.312-.477"/><path fill="#E7ECFC" d="M57 119h18c2.25 6.75 2.25 6.75 2.633 10.742l.254 2.54.238 2.593.262 2.664Q78.7 140.77 79 144c-11.048.885-11.048.885-15.094-.95-4.6-4.094-6.023-10.148-6.906-16.05z"/><path fill="#EEF2FD" d="M93 157c5.81-.311 10.922-.124 16 3 4.417 6.412 4.125 13.519 4 21q-4.22.04-8.437.063l-2.432.025c-2.044.009-4.088-.036-6.131-.088-3.245-3.245-2.956-11.882-3.129-16.242.003-2.59.037-5.17.129-7.758"/><path fill="#2759E7" d="M220 138c6.162 0 6.908.025 11 4 2.204 4.409 1.365 10.29.125 14.938C230 160 230 160 228 162h-8z"/><path fill="#93ACF3" d="M60 161c1.578 3.155.332 6.184-.375 9.5l-.422 2.09c-1.058 5.12-1.058 5.12-2.203 7.41h16l.25-5.062c.463-5.349 1.726-8.549 4.75-12.938 1 2 1 2 .477 4.102l-1.688 5c-.967 3.552-1.332 7.245-1.789 10.898H56c.433-7.527 1.187-13.995 4-21"/><path fill="#6A8DEF" d="m94 150-1 3 1.793.332c4.62.927 8.295 1.892 12.207 4.668-2.91 1.455-4.958.635-8.125.063l-3.32-.59L93 157v7h-2l-1-9c-3.083 1.199-6.063 2.477-9 4 2.968-4.274 7.38-9 13-9"/><path fill="#BFCEF8" d="M183 147h17v21h-1v-20h-14v6l6 1v7h-1v-6h-7z"/><path fill="#AABEF5" d="m170 167 2.434.988c4.33 1.228 8.159 1.27 12.629 1.2l2.392-.002c3.973-.03 7.668-.21 11.545-1.186-1.618 3.236-3.643 3.727-7 5-6.85.805-13.827.297-20-3z"/><path fill="#CFDAF9" d="M195 130c-2.4 1.2-3.894 1.115-6.57 1.098l-2.715-.01-2.84-.025-2.863-.014q-3.507-.018-7.012-.049l-1 4-4 1c1.036-3.108 1.504-4.02 4-6 6.965-3.393 16.038-3.219 23 0"/><path fill="#AEC1F6" d="M167 136c1.316 2.633.748 3.802.063 6.625l-.59 2.477L166 147h-1l-1 7h2l1 9c-2-1-2-1-3.125-3.375-1.956-8.103-1.363-15.09 2.125-22.625z"/><path fill="#4F78EB" d="M69 144h17v2l-10 4v-2h3v-2H69z"/><path fill="#B3C5F6" d="m71 151 2 1-11 11-1-4c1.313-1.75 1.313-1.75 3-3h2v-2c2.375-1.687 2.375-1.687 5-3"/><path fill="#C9D5F9" d="m130 159 5 1-2.437 1.688c-2.805 2.53-3.257 3.638-3.563 7.312h-2c-.75-2.187-.75-2.187-1-5 1.938-2.812 1.938-2.812 4-5"/><path fill="#CCD8F9" d="m85 75 1 3-8 8-3-1z"/><path fill="#5179EC" d="m91 78 2 1-9 10-3-1z"/><path fill="#B2C4F6" d="M187 236c-2.585 1.724-4.038 2.447-6.937 3.188l-2.028.542c-2.282.303-3.855-.042-6.035-.73q2.618-1.048 5.25-2.062l2.953-1.16c2.837-.79 4.091-.802 6.797.222"/><path fill="#AEC1F6" d="m175 129 2 1-4 1-1 4-4 1c1.01-3.032 1.635-3.999 4-6z"/><path fill="#AFC2F6" d="M234 99c1.5 1.375 1.5 1.375 3 3v2h-7l-1-2h5z"/><path fill="#5B81ED" d="m77 93 1 2c-1.25 2.563-1.25 2.563-3 5l-3 1 1-4h2z"/></svg>