<?xml version="1.0" encoding="UTF-8"?>
<svg version="1.1" xmlns="http://www.w3.org/2000/svg" width="300" height="300">
<path d="M0 0 C1.21042969 0.25652344 2.42085937 0.51304688 3.66796875 0.77734375 C13.94430843 3.05087023 23.38547149 6.76389585 33 11 C33 11.66 33 12.32 33 13 C33.68964844 13.07476562 34.37929687 13.14953125 35.08984375 13.2265625 C38.80540696 14.21405447 41.51092294 16.12984443 44.5625 18.375 C45.1723877 18.81835693 45.78227539 19.26171387 46.41064453 19.71850586 C72.27011818 38.88000689 90.60133484 66.88233539 95.72824097 98.91751099 C96.56743825 105.34827838 96.4921015 111.83923707 96.4375 118.3125 C96.43293793 119.46378891 96.43293793 119.46378891 96.42828369 120.63833618 C96.36060513 132.19648153 95.65332422 142.97152751 92 154 C91.79632813 154.65838867 91.59265625 155.31677734 91.3828125 155.99511719 C87.52572811 168.35802501 81.1567692 179.2648462 74 190 C73.34 190 72.68 190 72 190 C71.773125 190.70125 71.54625 191.4025 71.3125 192.125 C68.76347306 197.70858281 64.71544742 201.25182384 60 205 C59.360625 205.825 58.72125 206.65 58.0625 207.5 C55.67919679 210.38885237 53.21882715 212.11068841 50 214 C49.34 214 48.68 214 48 214 C48 214.66 48 215.32 48 216 C26.27274564 231.4270317 2.70055527 238.34424006 -23.6875 238.4375 C-24.42985901 238.4436734 -25.17221802 238.4498468 -25.93707275 238.45620728 C-58.42991282 238.62970446 -87.25290081 225.11738341 -110.5625 202.75 C-129 183.8482464 -129 183.8482464 -129 175 C-129.66 175 -130.32 175 -131 175 C-134.92774803 166.15973714 -138.41343257 157.36890313 -140.875 148 C-141.07762451 147.23647217 -141.28024902 146.47294434 -141.48901367 145.6862793 C-145.55270799 129.53147207 -146.01478289 110.15037661 -142 94 C-141.731875 92.83984375 -141.46375 91.6796875 -141.1875 90.484375 C-138.02371311 77.67103808 -133.37815522 65.9621643 -126.75 54.5625 C-126.31349121 53.80984863 -125.87698242 53.05719727 -125.42724609 52.28173828 C-124.3467064 50.48251991 -123.18078722 48.73507762 -122 47 C-121.34 47 -120.68 47 -120 47 C-119.731875 46.41476563 -119.46375 45.82953125 -119.1875 45.2265625 C-114.57692147 36.58172775 -105.09751955 27.35788767 -97 22 C-96.34 22 -95.68 22 -95 22 C-95 21.34 -95 20.68 -95 20 C-92.57295221 18.31949982 -90.16945787 16.79801193 -87.625 15.3125 C-86.86203613 14.86696777 -86.09907227 14.42143555 -85.31298828 13.96240234 C-60.04643078 -0.37612396 -28.59666007 -6.92173653 0 0 Z " fill="#321F5E" transform="translate(174,32)"/>
<path d="M0 0 C3.58552881 1.63687185 4.79315055 2.68972583 7 6 C7.57321499 10.99515918 7.69424211 12.95863684 4.875 17.1875 C2.14350892 20.05053598 -0.95805098 22.47582953 -4 25 C-4.7425 25.928125 -5.485 26.85625 -6.25 27.8125 C-6.8275 28.534375 -7.405 29.25625 -8 30 C-8.66 30 -9.32 30 -10 30 C-10.226875 30.556875 -10.45375 31.11375 -10.6875 31.6875 C-12.37550036 34.66159588 -14.46676517 36.72008865 -17 39 C-17.66 39 -18.32 39 -19 39 C-19.20625 39.53625 -19.4125 40.0725 -19.625 40.625 C-21.53250426 43.91978009 -24.04819384 46.59363628 -27 49 C-27.66 49 -28.32 49 -29 49 C-29.268125 49.639375 -29.53625 50.27875 -29.8125 50.9375 C-31 53 -31 53 -34 54 C-34.67261235 55.33034389 -35.33796695 56.6643599 -36 58 C-37.57369138 59.73544711 -39.20488272 61.41963983 -40.875 63.0625 C-42.17050781 64.34833984 -42.17050781 64.34833984 -43.4921875 65.66015625 C-49.69148137 71.44423261 -49.69148137 71.44423261 -54.375 71.625 C-58.15933203 71.49364302 -59.95848342 70.68996409 -62.5625 67.9375 C-64.59171182 65.15297044 -65.02331933 63.84712884 -65.5625 60.3125 C-64.98876216 56.9338216 -64.45333882 55.35897964 -62 53 C-61.34 53 -60.68 53 -60 53 C-59.67 52.01 -59.34 51.02 -59 50 C-57.34211215 48.65576661 -55.67423683 47.32381517 -54 46 C-53.278125 45.0925 -52.55625 44.185 -51.8125 43.25 C-51.214375 42.5075 -50.61625 41.765 -50 41 C-49.34 41 -48.68 41 -48 41 C-47.67 40.01 -47.34 39.02 -47 38 C-45.29296875 36.3515625 -45.29296875 36.3515625 -43.1875 34.625 C-40.03846172 31.96344629 -37.54683262 29.24940713 -35 26 C-33.33333333 24.66666667 -31.66666667 23.33333333 -30 22 C-28.63755204 20.35704805 -27.30135125 18.69175663 -26 17 C-24.375 15.1875 -24.375 15.1875 -23 14 C-22.34 14 -21.68 14 -21 14 C-20.67 13.01 -20.34 12.02 -20 11 C-19.34 11 -18.68 11 -18 11 C-17.67 10.01 -17.34 9.02 -17 8 C-16.34 8 -15.68 8 -15 8 C-14.67 7.01 -14.34 6.02 -14 5 C-9.35287462 0.12618557 -6.70044253 -0.85084985 0 0 Z " fill="#8C49F8" transform="translate(203,154)"/>
<path d="M0 0 C2.8100346 1.79363911 4.50940468 3.01880935 6 6 C6.57638192 11.66775551 6.20707313 14.80992868 2.625 19.27734375 C0.21002399 21.83745053 -2.39820802 24.11881983 -5.08984375 26.3828125 C-7.53843306 28.4558513 -9.7609387 30.70352687 -12 33 C-12.5671875 33.556875 -13.134375 34.11375 -13.71875 34.6875 C-16.34699441 37.2711979 -18.83599036 39.79257604 -21.125 42.6875 C-23.18525021 45.22847525 -25.42546085 46.99060359 -28 49 C-30.64407254 51.51186892 -33.02560922 54.03183849 -35.3125 56.875 C-37.93211623 60.08134415 -40.9306434 62.72522421 -44.09375 65.38671875 C-45.6166647 66.67557894 -47.07150709 68.04471941 -48.5 69.4375 C-51.52163048 71.32601905 -53.54620379 71.63120493 -57.06640625 71.46484375 C-60.36490061 70.67187238 -61.96881062 68.58515012 -64 66 C-65.63023814 62.73952371 -65.4673535 60.62198965 -65 57 C-60.08520319 49.83862269 -53.02573319 43.87908089 -46.88671875 37.75390625 C-45.82519707 36.69170955 -44.76382376 35.62936457 -43.70259094 34.56687927 C-41.49467037 32.35749489 -39.28497746 30.14990323 -37.07397461 27.94360352 C-34.23812558 25.1134932 -31.40684673 22.27885965 -28.57684612 19.44290257 C-26.3936934 17.25614427 -24.20817461 15.07176328 -22.02192116 12.88810539 C-20.97616979 11.84302113 -19.93116083 10.79719344 -18.88690758 9.75061226 C-17.43441236 8.29558608 -15.97876575 6.84378891 -14.5222168 5.39282227 C-13.69505661 4.56645767 -12.86789642 3.74009308 -12.01567078 2.88868713 C-8.41129691 -0.48861764 -4.77787389 -0.68647613 0 0 Z " fill="#8D49FA" transform="translate(155,75)"/>
<path d="M0 0 C0 0.66 0 1.32 0 2 C0.61875 2.28875 1.2375 2.5775 1.875 2.875 C4 4 4 4 6 6 C7.00845708 12.49894563 7.00845708 12.49894563 4.80204773 15.78311157 C4.25853165 16.37369354 3.71501556 16.96427551 3.1550293 17.57275391 C2.51673187 18.26798157 1.87843445 18.96320923 1.22079468 19.67950439 C-3.14738004 24.24378507 -7.5775223 28.74226879 -12.04296875 33.2109375 C-13.0996243 34.27081354 -14.15620767 35.33076155 -15.21272278 36.39077759 C-17.41210712 38.59610737 -19.61350502 40.79940409 -21.81616211 43.00146484 C-24.63561055 45.82081099 -27.4480752 48.64701691 -30.25889111 51.47496605 C-32.43191839 53.65910615 -34.60946966 55.83869196 -36.78832436 58.01701736 C-37.82772906 59.05759983 -38.86551793 60.09979898 -39.90163231 61.14365768 C-41.34662569 62.5984524 -42.79782188 64.04677035 -44.25073242 65.49365234 C-45.07345139 66.31779633 -45.89617035 67.14194031 -46.74382019 67.99105835 C-50.10612722 70.98491487 -51.90135924 72.01997529 -56.4375 71.9375 C-60.82440811 70.7830505 -62.4274428 69.74190139 -65 66 C-65.8679851 62.76814059 -65.75947769 60.24763786 -65 57 C-63.7658844 55.16975403 -63.7658844 55.16975403 -62.11157227 53.37817383 C-61.47510773 52.68591705 -60.83864319 51.99366028 -60.18289185 51.28042603 C-55.98695764 46.89701254 -51.74712845 42.56072607 -47.46484375 38.26171875 C-46.97125429 37.76530191 -46.47766483 37.26888508 -45.96911812 36.75742531 C-43.36481737 34.13825976 -40.75775443 31.52188321 -38.14819336 28.90795898 C-35.46619237 26.22044347 -32.79362236 23.52374669 -30.12306881 20.82486248 C-28.05283272 18.73596811 -25.97588521 16.65384554 -23.89706612 14.57349586 C-22.90865742 13.58207527 -21.92273245 12.58817165 -20.93943596 11.59168053 C-19.56435224 10.19944503 -18.17872509 8.81764731 -16.79272461 7.4362793 C-16.00997665 6.64988571 -15.2272287 5.86349213 -14.42076111 5.05326843 C-9.83486522 1.16355158 -6.00849997 -0.42917857 0 0 Z " fill="#8C49F8" transform="translate(198,117)"/>
<path d="M0 0 C4.12060758 1.77935327 6.2942789 3.83045953 8 8 C7.84084518 12.53591226 7.2672399 15.7327601 4 19 C3.34 19 2.68 19 2 19 C1.505 20.485 1.505 20.485 1 22 C0.34 22 -0.32 22 -1 22 C-1.226875 22.556875 -1.45375 23.11375 -1.6875 23.6875 C-4.06279342 27.87254078 -7.71275148 30.77571415 -11.375 33.8125 C-14.67700426 36.59766881 -17.45441361 39.6663616 -20.2265625 42.97265625 C-22.37848128 45.43266913 -24.67365253 47.70395228 -27 50 C-28.06455457 51.06304907 -29.12831757 52.12689124 -30.19140625 53.19140625 C-36.94140625 59.94140625 -36.94140625 59.94140625 -38.53955078 61.53173828 C-39.80442272 62.8033765 -41.043401 64.10067172 -42.27734375 65.40234375 C-44 67 -44 67 -46 67 C-46 67.66 -46 68.32 -46 69 C-48.79828948 71.20471292 -50.92200908 71.98581983 -54.4375 72.625 C-58.76381213 71.86599787 -60.13480434 70.53565756 -63.03125 67.41015625 C-64.68244455 63.30214401 -64.4889915 60.06727225 -63 56 C-59.40524894 51.19029626 -55.17464691 47.07183177 -50.8984375 42.87109375 C-49.65985858 41.62966267 -48.42254199 40.38697099 -47.18643188 39.14308167 C-44.59802579 36.54741252 -41.99603499 33.96643694 -39.38330078 31.39526367 C-36.03851072 28.10172969 -32.72843934 24.77567164 -29.42758751 21.43817043 C-26.88044011 18.8695998 -24.31663441 16.31820127 -21.74739456 13.77174568 C-20.52002273 12.55154649 -19.2976651 11.32628172 -18.08051682 10.09588432 C-16.37660181 8.37887248 -14.65175904 6.68608303 -12.91943359 4.99780273 C-12.42253021 4.48830078 -11.92562683 3.97879883 -11.41366577 3.45385742 C-7.67176799 -0.1226815 -5.07495467 -0.59416609 0 0 Z " fill="#8C49F8" transform="translate(160,111)"/>
<path d="M0 0 C0.66 0 1.32 0 2 0 C2.33 1.65 2.66 3.3 3 5 C3.45375 4.505 3.9075 4.01 4.375 3.5 C6 2 6 2 8 2 C8 2.66 8 3.32 8 4 C8.66 4.33 9.32 4.66 10 5 C2.74 12.26 -4.52 19.52 -12 27 C-12.33 26.34 -12.66 25.68 -13 25 C-13.66 25 -14.32 25 -15 25 C-14.505 24.1028125 -14.505 24.1028125 -14 23.1875 C-12.79212012 20.94613529 -12.79212012 20.94613529 -13 18 C-14.32 17.67 -15.64 17.34 -17 17 C-15.71451591 15.66070495 -14.42141845 14.32871357 -13.125 13 C-12.40570313 12.2575 -11.68640625 11.515 -10.9453125 10.75 C-9 9 -9 9 -7 9 C-6.67 8.01 -6.34 7.02 -6 6 C-5.34 6 -4.68 6 -4 6 C-3.566875 5.071875 -3.566875 5.071875 -3.125 4.125 C-2 2 -2 2 0 0 Z " fill="#362068" transform="translate(124,126)"/>
<path d="M0 0 C0.33 0.66 0.66 1.32 1 2 C-0.29499215 5.88497644 -2.21784589 7.1145437 -5.375 9.6875 C-6.35210937 10.49574219 -7.32921875 11.30398437 -8.3359375 12.13671875 C-11 14 -11 14 -14 14 C-9.72706118 8.76564995 -5.18419194 4.32893185 0 0 Z " fill="#381E73" transform="translate(177,201)"/>
<path d="M0 0 C0.33 0.99 0.66 1.98 1 3 C-0.62339805 4.70884005 -2.29319053 6.37446717 -4 8 C-4.66 8 -5.32 8 -6 8 C-6.2475 8.598125 -6.495 9.19625 -6.75 9.8125 C-8.16370012 12.28647521 -9.65055383 13.43370255 -12 15 C-12.66 14.67 -13.32 14.34 -14 14 C-9.38 9.38 -4.76 4.76 0 0 Z " fill="#7E46DC" transform="translate(134,87)"/>
<path d="M0 0 C0.33 0.66 0.66 1.32 1 2 C-3.03523352 6.81123996 -7.04467233 11.13242719 -12 15 C-12.66 14.67 -13.32 14.34 -14 14 C-12.37660195 12.29115995 -10.70680947 10.62553283 -9 9 C-8.34 9 -7.68 9 -7 9 C-6.773125 8.443125 -6.54625 7.88625 -6.3125 7.3125 C-4.64103234 4.36753316 -2.44723648 2.31843456 0 0 Z " fill="#41227D" transform="translate(154,96)"/>
<path d="M0 0 C0 0.33 0 0.66 0 1 C-0.969375 0.979375 -1.93875 0.95875 -2.9375 0.9375 C-8.05565678 1.58510351 -10.77865175 5.42188601 -14.08203125 9.06640625 C-14.71496094 9.70449219 -15.34789062 10.34257812 -16 11 C-16.66 11 -17.32 11 -18 11 C-17.67 10.01 -17.34 9.02 -17 8 C-16.34 8 -15.68 8 -15 8 C-14.67 7.01 -14.34 6.02 -14 5 C-9.31593622 0.0874453 -6.71472182 -0.57885533 0 0 Z " fill="#7B45DA" transform="translate(203,154)"/>
<path d="M0 0 C1.33998047 0.31324219 1.33998047 0.31324219 2.70703125 0.6328125 C3.60808594 0.83648437 4.50914062 1.04015625 5.4375 1.25 C6.46810547 1.50136719 6.46810547 1.50136719 7.51953125 1.7578125 C7.51953125 2.0878125 7.51953125 2.4178125 7.51953125 2.7578125 C4.54101562 3.09960938 4.54101562 3.09960938 1.5625 3.44140625 C-0.67443268 3.72951985 -0.67443268 3.72951985 -3.48046875 4.7578125 C-3.81046875 5.7478125 -4.14046875 6.7378125 -4.48046875 7.7578125 C-4.81046875 7.7578125 -5.14046875 7.7578125 -5.48046875 7.7578125 C-5.66796875 4.8828125 -5.66796875 4.8828125 -5.48046875 1.7578125 C-2.48046875 -0.2421875 -2.48046875 -0.2421875 0 0 Z " fill="#3A1F73" transform="translate(195.48046875,151.2421875)"/>
<path d="M0 0 C0 4.07211906 -1.5535064 5.1414603 -4.25 8.125 C-5.43335938 9.45917969 -5.43335938 9.45917969 -6.640625 10.8203125 C-8.90987032 12.9167345 -9.99179674 13.65502256 -13 14 C-8.88380164 9.08064098 -4.59589638 4.47352044 0 0 Z " fill="#41237A" transform="translate(202,133)"/>
<path d="M0 0 C1.32 0 2.64 0 4 0 C4 0.66 4 1.32 4 2 C3.34 2 2.68 2 2 2 C3.32 3.32 4.64 4.64 6 6 C5.67 6.99 5.34 7.98 5 9 C4.67 8.01 4.34 7.02 4 6 C1.49552484 4.78130071 1.49552484 4.78130071 -1 4 C-0.67 2.68 -0.34 1.36 0 0 Z " fill="#3A2075" transform="translate(161,108)"/>
<path d="M0 0 C0.33 1.32 0.66 2.64 1 4 C-1.31 5.65 -3.62 7.3 -6 9 C-6.66 8.67 -7.32 8.34 -8 8 C-5.36 5.36 -2.72 2.72 0 0 Z " fill="#7D46DB" transform="translate(119,102)"/>
<path d="M0 0 C0.33 0.66 0.66 1.32 1 2 C-0.65 4.31 -2.3 6.62 -4 9 C-5.32 8.67 -6.64 8.34 -8 8 C-5.36 5.36 -2.72 2.72 0 0 Z " fill="#7E46DC" transform="translate(143,78)"/>
<path d="M0 0 C0 3.99904969 -1.72586967 5.80200422 -4 9 C-5.32 8.67 -6.64 8.34 -8 8 C-5.36 5.36 -2.72 2.72 0 0 Z " fill="#8046E2" transform="translate(165,141)"/>
<path d="M0 0 C0.66 0 1.32 0 2 0 C1.82374165 2.37948772 1.30280227 3.70225849 -0.40234375 5.37890625 C-1.90649092 6.62115486 -3.45129851 7.81376056 -5 9 C-5.66 8.67 -6.32 8.34 -7 8 C-5.88200014 6.66079162 -4.75538103 5.32877444 -3.625 4 C-2.68527344 2.88625 -2.68527344 2.88625 -1.7265625 1.75 C-1.15679687 1.1725 -0.58703125 0.595 0 0 Z " fill="#3E207D" transform="translate(199,178)"/>
<path d="M0 0 C1.53166168 4.08443115 0.63081652 7.79455657 0 12 C-2 10 -2 10 -2.25 6.5625 C-2 3 -2 3 0 0 Z " fill="#7D48DA" transform="translate(92,129)"/>
<path d="M0 0 C0.33 0.66 0.66 1.32 1 2 C-3.82142857 8.29464286 -3.82142857 8.29464286 -8 9 C-7.04270084 7.87411986 -6.08412105 6.7493285 -5.125 5.625 C-4.59132813 4.99851562 -4.05765625 4.37203125 -3.5078125 3.7265625 C-2.38567993 2.44163349 -1.20628025 1.20628025 0 0 Z " fill="#7C46D9" transform="translate(110,111)"/>
<path d="M0 0 C0.33 0.66 0.66 1.32 1 2 C-1.65654657 5.73884332 -3.58110387 7.64978174 -8 9 C-7.04270084 7.87411986 -6.08412105 6.7493285 -5.125 5.625 C-4.59132813 4.99851563 -4.05765625 4.37203125 -3.5078125 3.7265625 C-2.38567993 2.44163349 -1.20628025 1.20628025 0 0 Z " fill="#422381" transform="translate(115,135)"/>
<path d="M0 0 C0.66 0.33 1.32 0.66 2 1 C-1.44615385 6.78461538 -1.44615385 6.78461538 -4.25 7.875 C-4.8275 7.91625 -5.405 7.9575 -6 8 C-6 7.34 -6 6.68 -6 6 C-5.34 6 -4.68 6 -4 6 C-3.67 5.01 -3.34 4.02 -3 3 C-1.4375 1.3125 -1.4375 1.3125 0 0 Z " fill="#7E46DD" transform="translate(147,201)"/>
<path d="M0 0 C0.33 0 0.66 0 1 0 C1.63019694 8.19256018 1.63019694 8.19256018 -1 11.5625 C-1.66 12.036875 -2.32 12.51125 -3 13 C-3.66 12.67 -4.32 12.34 -5 12 C-4.360625 11.319375 -3.72125 10.63875 -3.0625 9.9375 C-0.6741507 6.53591161 -0.32122847 4.09566299 0 0 Z " fill="#4E2A90" transform="translate(161,82)"/>
<path d="M0 0 C0 3.10551666 -0.5393715 4.35261084 -2 7 C-3.32 6.67 -4.64 6.34 -6 6 C-4.02 4.02 -2.04 2.04 0 0 Z " fill="#40217B" transform="translate(155,180)"/>
</svg>
