<svg xmlns="http://www.w3.org/2000/svg" width="300" height="300"><path fill="#8C8EC5" d="M95.344 44.59c2.112-.071 4.226-.082 6.34-.045l3.51-.068c3.821-.059 7.637-.037 11.458-.008q2.983-.013 5.965-.033c6.248-.042 12.494-.03 18.741.02 6.43.05 12.856.013 19.286-.068a1000 1000 0 0 1 16.604-.059c3.3.015 6.597.006 9.897-.04 20.027-.231 20.027-.231 24.718 2.99C215.09 50.706 216.522 54.554 218 59a96 96 0 0 0 2.766 4.687q1.245 2.155 2.484 4.313l1.374 2.38c2.536 4.401 5.057 8.811 7.571 13.225l1.609 2.823q1.527 2.682 3.049 5.367a338 338 0 0 0 8.062 13.46c1.37 2.203 2.615 4.456 3.835 6.745a1061 1061 0 0 0 7.625 13.875l1.15 2.056c3.13 5.555 6.48 10.946 9.944 16.3 1.548 2.8 2.235 4.602 2.531 7.769-1.002 2.302-1.002 2.302-2.559 4.648l-1.69 2.636L264 162a423 423 0 0 0-3.035 5.29l-1.514 2.663-3.039 5.367c-2.685 4.724-5.442 9.376-8.346 13.968-1.325 2.128-2.52 4.308-3.691 6.524-3.184 5.905-6.543 11.699-9.916 17.496a1745 1745 0 0 0-9.158 15.961C212.913 251.087 212.913 251.087 210 254c-1.54.118-3.085.166-4.629.188l-3.033.048-3.356.036-3.513.05c-10.708.14-21.418.22-32.127.278-7.915.045-15.83.122-23.744.242-5.566.081-11.13.124-16.696.14-3.324.01-6.645.042-9.969.106a533 533 0 0 1-11.139.063l-3.319.104c-4.585-.068-7.345-.136-10.695-3.453A69.5 69.5 0 0 1 83 244l-1.801-2.996-1.297-2.442-1.49-2.773L76.938 233c-3.797-7.124-7.742-14.104-11.938-21-6.136-10.279-12.089-20.652-17.934-31.098q-2.55-4.552-5.128-9.09L40 168.398a179 179 0 0 0-4.312-6.984l-1.14-1.769a476 476 0 0 0-3.177-4.805C30 152 30 152 30.047 149.535c1.225-3.258 2.914-6.106 4.766-9.035q1.23-2 2.457-4.004l1.334-2.18c2.537-4.21 4.964-8.482 7.396-12.754l1.552-2.721a2615 2615 0 0 0 9.073-16.091c3.393-6.06 6.888-12.055 10.427-18.03 3.942-6.67 7.774-13.4 11.574-20.15q1.376-2.43 2.8-4.833a101 101 0 0 0 2.983-5.587c2.822-5.252 4.754-8.73 10.935-9.56M102 61l5 9 2.563-.14c7.028-.224 12.68-.23 18.437 4.14 2 2.25 2 2.25 3 4 4.847-.581 9.235-1.576 13.867-3.11l1.919-.628q2.013-.66 4.024-1.327c3.464-1.15 6.935-2.28 10.405-3.412.677-.22 1.354-.442 2.051-.67C170.796 66.401 178.38 64.151 186 62v-1zm-6 3a310 310 0 0 0-4.562 7.687c-3.198 5.508-6.439 10.974-9.813 16.375-2.395 3.86-4.559 7.697-6.508 11.793-2.124 4.078-4.658 7.922-7.09 11.82-2.374 3.894-4.562 7.863-6.703 11.887C60 126 60 126 58.27 128.687L57 131l1 2 2.125-1.941c6.657-6.07 13.316-12.12 20.258-17.864l1.805-1.502q1.792-1.49 3.597-2.962c1.442-1.2 2.834-2.461 4.215-3.731v-2l1.75-.813c2.283-1.204 4.224-2.595 6.25-4.187l-.5-1.938c-1.14-6.984-1.05-12.103 2.527-18.335 1.127-1.873 1.127-1.873 1.973-4.727-.975-2.338-.975-2.338-2.437-4.688l-1.434-2.449L97 64zm94.188 2.562c-1.333.402-1.333.402-2.693.81-7.318 2.225-14.568 4.63-21.813 7.08-6.989 2.351-14.027 4.476-21.116 6.505A225 225 0 0 0 135 84l-1 12c5.895 3.588 11.829 7.03 17.898 10.312 9.014 4.904 17.944 9.944 26.727 15.25a959 959 0 0 0 15.063 8.938l3.386 1.969c3.317 1.794 3.317 1.794 6.926 2.531 1.55-1.194 3.095-2.4 4.54-3.719 1.68-1.475 3.404-2.411 5.46-3.281-.74-6.654-1.91-13.18-3.187-19.75l-.654-3.377A1594 1594 0 0 0 204.75 78.5l-.782-3.687-.734-3.407-.649-3.021c-.49-2.38-.49-2.38-1.585-4.385-3.711 0-7.28 1.493-10.812 2.562m-86 14.125C102.47 84.032 101.885 87.28 102 91c1.622 4.685 3.775 7.407 8 10 5.601 1.556 8.951.816 14-2 2.993-3.192 3.92-5.933 4.25-10.313-.279-4.108-.935-6.291-3.25-9.687-7.074-4.823-14.554-4.14-20.812 1.687M210 76l1 2Zm1 2c.595 6.068 1.496 11.918 2.813 17.867l.526 2.429q.546 2.514 1.1 5.026a2575 2575 0 0 1 1.678 7.701l1.07 4.907.506 2.32c.655 2.973 1.343 5.859 2.307 8.75 2.099.848 2.099.848 4.625 1.375 6.44 1.775 10.551 4.308 14.688 9.562 1.641 2.98 2.754 5.797 3.687 9.063h7c-1.557-4.239-3.639-8.091-5.875-12-.58-1.02-.58-1.02-1.17-2.063l-2.558-4.488a3723 3723 0 0 1-4.483-7.887L233.75 115l-1.5-2.64a352 352 0 0 0-8.151-13.587c-1.47-2.371-2.792-4.808-4.099-7.273-2.498-4.628-5.101-9.11-8-13.5zm-81 23c-1.69.912-1.69.912-3.312 2.312-3.339 2.716-5.15 3.175-9.688 4.688v84l10 5 2 2c3.815-.35 6.63-1.701 9.922-3.59l2.833-1.613 2.995-1.735 3.099-1.773a2003 2003 0 0 0 24.338-14.216 1430 1430 0 0 1 8.126-4.76l2.82-1.657a313 313 0 0 1 6.234-3.5l3.32-1.844 3.012-1.636c2.678-1.95 2.771-2.53 3.301-5.676a64 64 0 0 0 .098-4.11l-.01-2.285-.025-2.355-.014-2.402q-.02-2.925-.049-5.848l-2.656-1.477c-9.622-5.37-19.154-10.886-28.653-16.473a569 569 0 0 0-17.149-9.65c-4.242-2.336-8.358-4.87-12.483-7.406-2.67-1.625-5.082-3.002-8.059-3.994m-34.625 7.062-3.277 3.055-1.613 1.507c-2.471 2.29-5.015 4.493-7.56 6.7A732 732 0 0 0 76.5 125q-4.198 3.742-8.437 7.437a686 686 0 0 0-9.188 8.188c-3.56 3.213-7.16 6.344-10.875 9.375l3.453 3.45q1.586 1.59 3.156 3.195c5.968 6.063 12.336 11.514 18.954 16.855a116 116 0 0 1 10.542 9.668c3.315 3.205 6.944 6.033 10.54 8.914C97 194 97 194 99 196c4.738-1.104 4.738-1.104 12-4v-85c-9.222-4.927-9.222-4.927-15.625 1.062m112.27 31.516c-2.782 4.46-4.289 9.186-3.239 14.465 1.968 6.244 5.33 9.016 10.907 12.332 5.384 1.252 10.64.43 15.562-2.063 3.618-2.677 4.798-4.018 6.125-8.312.623-5.153.808-10.178-1.5-14.938-3.506-4.295-7.054-6.414-12.516-7.44-5.812-.356-11.477 1.46-15.34 5.956M244 153l-.629 1.941c-2.239 6.286-4.673 11.317-10.371 15.059a81 81 0 0 1-9.426 2.785c-2.802.968-2.802.968-3.597 3.716-1.175 4.21-2.204 8.435-3.176 12.694l-.604 2.636q-.627 2.744-1.248 5.492c-.636 2.802-1.286 5.6-1.935 8.4q-.608 2.674-1.213 5.347l-.593 2.532-.527 2.367-.473 2.072c-.236 2.221.134 3.839.792 5.959 4.64-6.451 8.437-13.305 12.244-20.263 2.884-5.243 5.969-10.29 9.244-15.3 1.982-3.195 3.575-6.528 5.203-9.914 1.429-2.754 3.047-5.303 4.747-7.898 3.682-5.645 6.666-11.546 9.562-17.625zm-48.762 16.008L191.846 171l-3.533 2.125q-1.737 1.029-3.475 2.055a2345 2345 0 0 0-6.757 4.006c-2.6 1.53-5.214 3.015-7.858 4.466-4.459 2.45-8.776 5.104-13.098 7.785-5.936 3.66-11.889 7.188-18.059 10.442-2.268 1.19-2.268 1.19-5.066 3.121l1 12c27.15 9.394 27.15 9.394 54.438 18.375l2.643.846c3.884 1.308 3.884 1.308 7.919 1.779q2.032-8.635 4.053-17.273.684-2.924 1.373-5.847c2.435-10.344 4.802-20.696 6.902-31.114l.517-2.548c.617-3.119 1.155-6.03 1.155-9.218q-2.12-1.226-4.25-2.438l-2.39-1.37c-5.192-2.622-7.032-2.214-12.122.816M57 168a53 53 0 0 0 4.75 9.625 230 230 0 0 1 6.125 10.625c5.542 10.237 11.364 20.218 17.609 30.038 2.83 4.492 5.316 9.035 7.48 13.892 1.043 2.149 1.043 2.149 4.036 3.82 1.648-1.752 1.648-1.752 3-4-.413-3.124-1.583-5.047-3.5-7.5-3.734-4.777-3.947-9.548-3.5-15.5.541-3.035 1.226-6.016 2-9l-1.914-1.512A268 268 0 0 1 77 184.5c-9.292-9.235-9.292-9.235-20-16.5m45.52 34.7c-3.438 4.9-4.367 8.373-3.52 14.3 1.462 4.459 3.68 7.16 7.75 9.5 4.308 1.858 7.799 1.928 12.25.5 4.864-2.478 7.209-4.825 9-10 .776-5.386.043-9.383-3-14-4.355-3.93-6.964-5.332-12.91-5.203-4.117.4-6.85 1.78-9.57 4.902M132 223c-1.867 1.902-3.441 3.96-5.086 6.055-2.27 2.306-3.79 3.109-6.914 3.945-2.356-.01-4.712-.1-7.062-.25-4.665-.272-4.665-.272-8.739 1.543-1.157 1.771-2.199 3.515-2.199 5.707h80c-2.585-1.724-4.45-2.618-7.332-3.604l-2.64-.91-2.84-.963-2.926-1q-3.06-1.044-6.122-2.083-4.694-1.595-9.382-3.206-2.973-1.013-5.945-2.023l-2.842-.975-2.639-.89-2.321-.79c-2.145-.69-2.145-.69-5.011-.556"/><path fill="#EB407B" d="M233.629 130.305c4.38 3.131 8.276 7.481 10.035 12.644 1.27 7.756.983 14.548-3.664 21.051-3.675 4.732-7.56 8.08-13.406 9.691-6.82.812-14.088-.087-19.594-4.379-2.658-2.555-2.658-2.555-5.187-2.242-3.945 1.304-7.276 3.339-10.813 5.493l-2.267 1.355c-4.626 2.775-9.213 5.611-13.796 8.457-3.86 2.395-7.696 4.559-11.792 6.508-4.075 2.122-7.915 4.654-11.813 7.082C139.59 203.137 139.59 203.137 134 205l1 3c.82 6.698-.28 12.334-4 18-5.267 5.659-9.313 8.133-17.125 8.438-6.848-.062-10.936-1.736-15.875-6.438-4.697-5.25-6.36-9.827-6.203-16.855.682-7.198 3.683-11.155 9.168-15.7 6.008-4.267 11.796-4.327 19.035-3.445 2.403 1.049 4.257 2.199 6.316 3.809 2.015 1.425 3.223 1.9 5.684 2.191 2.588-.993 2.588-.993 5.262-2.613l3.116-1.77 3.31-1.93 3.397-1.943c3.313-1.9 6.616-3.819 9.915-5.744l2.642-1.536q6.305-3.675 12.577-7.407c2.69-1.596 5.391-3.17 8.094-4.744l2.816-1.704C186 167 186 167 189.402 165.58c3.483-1.578 5.954-2.805 8.598-5.579.653-4.187.435-7.911.117-12.11-.194-6.456 2.311-10.074 6.528-14.69 8.336-7.886 19.233-8.22 28.984-2.895m-25.984 9.273c-2.782 4.46-4.289 9.186-3.239 14.465 1.968 6.244 5.33 9.016 10.906 12.332 5.385 1.252 10.641.43 15.563-2.062 3.618-2.678 4.798-4.019 6.125-8.313.623-5.153.808-10.178-1.5-14.937-3.506-4.296-7.054-6.415-12.516-7.442-5.812-.355-11.477 1.46-15.34 5.957M102.52 202.7c-3.438 4.9-4.367 8.374-3.52 14.301 1.462 4.459 3.68 7.16 7.75 9.5 4.308 1.858 7.799 1.928 12.25.5 4.864-2.478 7.209-4.825 9-10 .776-5.386.043-9.383-3-14-4.355-3.93-6.964-5.332-12.91-5.203-4.117.4-6.85 1.78-9.57 4.902"/><path fill="#579ED5" d="M124.313 70.688C130.16 74.006 132.866 78.704 135 85c.4 3.877.243 7.27-1 11l2.21.848c10.569 4.366 20.398 10.945 30.269 16.688q3.718 2.158 7.443 4.304A1586 1586 0 0 1 203 135l-2 5c-8.496 0-17.544-7.49-24.527-11.867-5.681-3.529-11.555-6.729-17.398-9.979-9.44-5.251-18.864-10.508-28.075-16.154l-1.54 1.059-2.085 1.379-2.04 1.37C123 107 123 107 117 108v84h-6v-85l-5-1c-5.084-3.424-8.117-7.117-10-13-.95-5.547-.15-10.23 2.59-15.14 6.258-8.253 16.148-11.619 25.722-7.172m-20.126 10c-1.716 3.344-2.3 6.591-2.186 10.312 1.622 4.685 3.775 7.407 8 10 5.601 1.556 8.951.816 14-2 2.993-3.192 3.92-5.933 4.25-10.312-.279-4.109-.935-6.292-3.25-9.688-7.074-4.823-14.554-4.14-20.812 1.688"/><path fill="#F27047" d="M122.488 192.945c5.976 3.58 10.01 8.55 12.512 15.055 1.04 6.627-.328 12.405-4 18-5.267 5.659-9.313 8.133-17.125 8.438-6.848-.062-10.936-1.736-15.875-6.438-4.697-5.25-6.36-9.827-6.203-16.855.682-7.198 3.683-11.155 9.168-15.7 6.29-4.467 14.214-5.276 21.523-2.5M102.52 202.7c-3.438 4.9-4.367 8.374-3.52 14.301 1.462 4.459 3.68 7.16 7.75 9.5 4.308 1.858 7.799 1.928 12.25.5 4.864-2.478 7.209-4.825 9-10 .776-5.386.043-9.383-3-14-4.355-3.93-6.964-5.332-12.91-5.203-4.117.4-6.85 1.78-9.57 4.902"/><path fill="#8C8EC5" d="M200.281 160.566c2.08 1.735 2.187 2.846 2.719 5.434l-1.937 1.082q-4.44 2.487-8.875 4.98l-3.045 1.702a318 318 0 0 0-17.787 10.76 60 60 0 0 1-6.231 3.413c-3.642 1.736-7.014 3.805-10.437 5.938-16.069 9.996-16.069 9.996-21.688 11.125l-3-6 1.455-.788c13.368-7.253 26.543-14.804 39.652-22.515 3.064-1.797 6.134-3.581 9.206-5.365 3.143-1.83 6.27-3.67 9.343-5.617l2.844-1.778 2.906-1.847C198 160 198 160 200.281 160.566M133 95a297 297 0 0 1 15.625 8.25l2.092 1.184q2.123 1.202 4.244 2.408 2.83 1.605 5.66 3.205a835 835 0 0 1 19.747 11.582c5.548 3.344 11.165 6.556 16.804 9.742A105 105 0 0 1 203 135l-2 5c-8.496 0-17.544-7.49-24.527-11.867-5.681-3.529-11.555-6.729-17.398-9.979-9.44-5.251-18.864-10.508-28.075-16.154a85 85 0 0 1 2-7"/><path fill="#8B8FC6" d="m111 107 6 1v84h-6z"/></svg>