<svg xmlns="http://www.w3.org/2000/svg" width="40" height="40" fill="none" viewBox="0 0 40 40"><g clip-path="url(#sonyon_svg-a)"><path fill="#D9D9D9" d="M20 0c11.046 0 20 8.954 20 20s-8.954 20-20 20S0 31.046 0 20 8.954 0 20 0"/><path fill="#000" d="M26 6a8 8 0 0 1 8 8v12a8 8 0 0 1-8 8H14a8 8 0 0 1-8-8V14a8 8 0 0 1 8-8z"/><g clip-path="url(#sonyon_svg-b)"><path fill="#fff" d="M17.125 18.24c.768 0 1.382.192 1.851.619.32.29.5.704.495 1.138a1.6 1.6 0 0 1-.495 1.144c-.44.404-1.123.619-1.85.619s-1.4-.215-1.846-.619a1.5 1.5 0 0 1-.503-1.144c0-.431.182-.845.503-1.138.416-.38 1.154-.619 1.845-.619m.003 3.058c.384 0 .74-.134.99-.381.25-.25.36-.55.36-.92a1.28 1.28 0 0 0-.36-.919c-.245-.242-.611-.378-.99-.378s-.745.136-.992.378a1.28 1.28 0 0 0-.361.92 1.3 1.3 0 0 0 .36.919c.248.244.612.38.993.38m-4.035-1.639q.2.05.389.136.176.08.316.215a.9.9 0 0 1 .255.639.8.8 0 0 1-.316.649 1.7 1.7 0 0 1-.59.29 3.1 3.1 0 0 1-.996.142c-.293 0-.455-.034-.678-.08l-.064-.014a4 4 0 0 1-.715-.232.06.06 0 0 0-.035-.01.07.07 0 0 0-.068.07v.17h-.49V20.4h.437a.63.63 0 0 0 .113.349c.177.217.367.3.548.366.306.101.627.154.947.164.46 0 .73-.112.788-.136l.008-.003.005-.002c.051-.019.26-.095.26-.326 0-.229-.195-.278-.323-.31l-.018-.006c-.143-.038-.468-.072-.825-.11l-.127-.013a12 12 0 0 1-.997-.147c-.415-.091-.579-.243-.68-.337l-.007-.006A.85.85 0 0 1 10 19.3c0-.414.283-.664.631-.818.371-.167.813-.24 1.2-.24.684.002 1.24.224 1.439.328.08.043.121-.01.121-.05v-.124h.44v1.073h-.395a.76.76 0 0 0-.245-.41 1 1 0 0 0-.247-.148 2.6 2.6 0 0 0-1.043-.205c-.368 0-.722.071-.899.18q-.165.103-.166.255c0 .143.12.202.182.22.163.049.527.085.81.113l.17.017c.272.028.843.104 1.095.167m15.14-.83v-.4H30v.392h-.396c-.144 0-.202.028-.311.149l-1.19 1.358a.08.08 0 0 0-.014.058v.619l.01.086a.12.12 0 0 0 .083.076 1 1 0 0 0 .109.007h.404v.392H26.55v-.392h.384a1 1 0 0 0 .108-.007.14.14 0 0 0 .086-.076l.008-.084v-.618c0-.02 0-.02-.028-.053L25.932 19c-.063-.065-.171-.172-.338-.172h-.381v-.39h2.156v.39h-.26c-.058 0-.099.059-.048.122 0 0 .725.866.732.876q.01.015.023.002c.01-.007.745-.87.75-.878a.076.076 0 0 0-.015-.106.1.1 0 0 0-.05-.016zm-5.237-.003h.404c.184 0 .217.07.22.242l.022 1.306-2.151-1.937h-1.538v.391h.344c.247 0 .265.137.265.258v1.845c0 .107 0 .246-.152.246h-.421v.389h1.802v-.392h-.439c-.177 0-.184-.08-.187-.252v-1.568l2.477 2.209h.631l-.032-2.497c.002-.182.015-.243.202-.243h.393v-.391h-1.84z"/></g></g><defs><clipPath id="sonyon_svg-a"><path fill="#fff" d="M0 0h40v40H0z"/></clipPath><clipPath id="sonyon_svg-b"><path fill="#fff" d="M10 10h20v20H10z"/></clipPath></defs></svg>