<svg xmlns="http://www.w3.org/2000/svg" xml:space="preserve" id="sos_svg-katman_1" x="0" y="0" version="1.0" viewBox="0 0 600 450"><style>.sos_svg-sos-st2{fill:#2a519f}.sos_svg-sos-st5{fill:#010202}</style><g id="sos_svg-group"><linearGradient id="sos_svg-background_00000086693229241352970010000001366523925282597820_" x1="253.645" x2="674.12" y1="298.239" y2="-117.585" gradientTransform="translate(-120.945 109.252)" gradientUnits="userSpaceOnUse"><stop offset=".379" style="stop-color:#5e8eca"/><stop offset=".563" style="stop-color:#92b0dd"/><stop offset=".918" style="stop-color:#e4f3fa"/></linearGradient><path id="sos_svg-background" d="M149.5 38.5h354.4v354.3H149.5z" style="fill:url(#sos_svg-background_00000086693229241352970010000001366523925282597820_)"/><g id="sos_svg-light"><path d="M149.9 20h372.5v372.5H149.9z" style="fill:none"/><path d="M342.8 107.2c-73.1-25.4-121.7 13.5-121.7 13.5l-.1.1c6.2-.7 12.5-1.1 18.9-1.1 81.3 0 147 59.4 147 132.6s-66.1 140.3-147 132.5c-12.4-1.2-23.7-3.5-34.1-6.6 26.6 17.4 80.9 44 146.3 28.2l.1.4c59.5-26.8 100.4-83 100.4-147.9-.1-68-45.4-126.6-109.8-151.7" class="sos_svg-sos-st2"/><linearGradient id="sos_svg-SVGID_1_" x1="418.143" x2="553.008" y1="143.539" y2="143.539" gradientTransform="matrix(.9998 -.02078 .02078 .9998 -103.14 137.587)" gradientUnits="userSpaceOnUse"><stop offset=".377" style="stop-color:#b6dfeb"/><stop offset="1" style="stop-color:#96d5ef"/></linearGradient><path d="M426.5 174.6s26.6 44 7.7 98.7-81.8 66.9-81.8 66.9-16.3 16.5-32.6 25.9c0 0 42.7 6 63.3-6.5s51.9-42.8 51.9-42.8l13.5-35.1 3.8-27.2s-5.6-40.9-9.2-49.9c-3.6-8.9-16.6-30-16.6-30" style="fill:url(#sos_svg-SVGID_1_)"/><linearGradient id="sos_svg-SVGID_00000101826036077161484840000011610164849963866508_" x1="341.511" x2="501.323" y1="2.877" y2="2.877" gradientTransform="translate(-120.945 109.252)" gradientUnits="userSpaceOnUse"><stop offset=".377" style="stop-color:#b6dfeb"/><stop offset="1" style="stop-color:#a5d9ec"/></linearGradient><path d="M252.3 120.1s53-28.1 128 6.9c0 0-39.4-31.1-88-29.7s-69.4 20.1-71.8 23.8c.1 0 11-2.3 31.8-1" style="fill:url(#sos_svg-SVGID_00000101826036077161484840000011610164849963866508_)"/><path d="M433.5 352c37.6-53.2 31.3-125.7-10-182 30.2 44.9 33.5 101.5 3.9 143.5-40 56.4-124.4 65.4-188.6 19.9s-83.9-127.9-44-184.4c39.3-55.6 121.7-65.1 185.6-22-1-.7-2-1.4-2.9-2.1-79.8-56.4-184-46.2-232.9 22.8s-23.6 170.6 56.1 227c47.4 33.5 103.4 43.5 151.4 31.6 32.7-8 61.6-26.4 81.4-54.3" class="sos_svg-sos-st2"/></g><g id="sos_svg-o"><path d="M360.1 127.3c-45.3-15.8-75.4 8.4-75.4 8.4 3.9-.4 7.7-.7 11.7-.7 50.3 0 91.1 36.8 91.1 82.2s-41.1 86.9-91.1 82.1c-7.6-.8-14.7-2.2-21.2-4.2 16.5 10.7 50.1 27.3 90.6 17.5v.3c36.8-16.6 62.2-51.4 62.2-91.6.1-42.2-28-78.5-67.9-94" class="sos_svg-sos-st5"/><linearGradient id="sos_svg-SVGID_00000019667219447771839620000010970602268986150039_" x1="445.763" x2="529.275" y1="101.345" y2="101.345" gradientTransform="matrix(.9998 -.02078 .02078 .9998 -103.14 137.587)" gradientUnits="userSpaceOnUse"><stop offset=".377" style="stop-color:#b6dfeb"/><stop offset="1" style="stop-color:#96d5ef"/></linearGradient><path d="M411.9 169s16.5 27.3 4.8 61.1-50.7 41.5-50.7 41.5-10.1 10.2-20.2 16.1c0 0 26.4 3.7 39.2-4 12.7-7.7 32.2-26.5 32.2-26.5l8.4-21.7 2.3-16.8s-3.4-25.4-5.7-30.9C420 182 411.9 169 411.9 169" style="fill:url(#sos_svg-SVGID_00000019667219447771839620000010970602268986150039_)"/><linearGradient id="sos_svg-SVGID_00000066506902276206449670000017873642949051129519_" x1="405.301" x2="504.299" y1="21.078" y2="21.078" gradientTransform="translate(-120.945 109.252)" gradientUnits="userSpaceOnUse"><stop offset=".377" style="stop-color:#b6dfeb"/><stop offset="1" style="stop-color:#a5d9ec"/></linearGradient><path d="M304.1 135.3s32.8-17.4 79.3 4.3c0 0-24.4-19.3-54.5-18.4-30 .9-43 12.5-44.5 14.7 0-.1 6.7-1.4 19.7-.6" style="fill:url(#sos_svg-SVGID_00000066506902276206449670000017873642949051129519_)"/><path d="M416.3 278.9c23.3-32.9 19.4-77.8-6.2-112.8 18.7 27.8 20.8 62.8 2.4 88.9-24.8 35-77 40.5-116.8 12.4-39.8-28.2-51.9-79.3-27.2-114.2 24.4-34.4 75.4-40.3 114.9-13.6-.6-.4-1.2-.9-1.9-1.3-49.5-35-114-28.6-144.3 14.1S222.6 258 272.1 293c29.4 20.8 64.1 27 93.8 19.6 20.2-5 38.1-16.3 50.4-33.7" class="sos_svg-sos-st5"/></g></g></svg>