<svg xmlns="http://www.w3.org/2000/svg" xml:space="preserve" viewBox="0 0 200 200"><path fill="#231C47" d="M201 101c0 6.688 0 13.375-.361 20.597-1.09 2.298-1.776 4.08-2.553 5.823-3.655 8.193-7.334 16.375-11.482 24.567-8.463.005-16.449.004-24.518-.402-1.57-.987-3.057-1.57-3.852-1.881-1.249-1.89-2.234-3.38-3.224-5.33.01-42.796.023-85.133.377-127.391 6.769 5.377 13.196 10.674 19.622 16.393a2558 2558 0 0 0-.01 5.082c0 2.807 0 5.17-.16 7.891-2.003.787-3.831 1.493-5.691 1.59-3.736.195-7.49.058-11.236.058l.04.996c9.656 0 19.312 0 29.089.327 3.986 9.341 7.827 18.365 11.75 27.354.524 1.201 1.462 2.222 2.209 3.326 0 6.354 0 12.709-.469 19.53-14.534.467-28.6.467-42.665.467l.006 1.003zm-25.378 30.919-.234.065s.231.077.234-.065m-.15-73.42s.042-.018 0 0m.026 11.03s-.016-.043 0 0m-.028 9.969s.044-.017 0 0m.002 11s.042-.017 0 0m.03 20.973s.016.042 0 0m0 10s.017.043 0 0m-.031 21.027s.043-.017 0 0M1 122c0-6.688 0-13.375.469-20.532C14.397 101 26.857 101 39.317 101c7.68 0 7.682 0 7.683 7.583v40.7l1.02.007c0-2.096 0-4.192.446-6.289 10.472 0 20.498 0 30.776.004.421.004.59.005.75.416-.336 3.128-.666 5.846-1.463 8.569-21.517.001-42.566-.002-63.841-.254-2.985-6.011-5.81-11.743-8.481-17.547C4.36 130.177 2.728 126.067 1 122"/><path d="M175.011 32.954c-6.428-5.297-12.855-10.594-19.752-16.176a25 25 0 0 0-1.438-1.062c-.722-.415-1.258-.61-1.91-.999-.302-.434-.539-.613-.952-.922-.33-.444-.587-.605-1.289-.724-2.09-.631-3.844-1.096-5.482-1.823-3.086-1.369-6.104-2.888-9.29-4.532-.368-.414-.644-.548-1.252-.744-4.066-1.044-7.845-1.934-11.86-3.03-.42-.785-.603-1.364-.786-1.942h80v78.531c-.747-.635-1.685-1.656-2.21-2.857-3.922-8.989-7.763-18.013-11.805-27.576-.325-.832-.545-1.039-.944-1.501-3.406-4.765-6.702-9.2-10.133-13.837-.348-.456-.602-.657-.897-.806M1 80V1c26.02 0 52.042 0 78.585.317.478.745.434 1.171-.013 1.634-3.97 1.345-7.537 2.654-11.477 3.904-6.953 2.984-13.534 6.026-20.325 9.185-.481.306-.687.55-1.165.932-3.117 2.046-5.895 4.008-8.949 6.136-1.758 1.374-3.241 2.581-5.002 3.964-2.08 2.064-3.88 3.953-5.96 6.022-1.776 2.077-3.274 3.973-5.02 6.09-2.039 3.107-3.832 5.991-5.795 8.962-.416.206-.56.402-.79.986-3.129 6.572-6.12 12.811-9.002 19.1C4.307 72.115 2.69 76.074 1 80m186.08 71.982c3.672-8.187 7.351-16.369 11.006-24.562.777-1.742 1.463-3.525 2.553-5.354C201 148.26 201 174.52 201 201c-26.02 0-52.042 0-78.466-.362 1.543-1.12 3.528-1.79 5.427-2.649 8.702-3.937 17.38-7.928 26.345-12.04 1.111-.733 1.945-1.324 3.08-2.072 6.076-5.047 11.85-9.938 17.903-15.006 1.708-2.066 3.138-3.954 4.748-6.132a421 421 0 0 1 6.318-8.864c.391-.76.559-1.327.726-1.893M1 122.469c1.728 3.598 3.36 7.708 5.207 11.72 2.67 5.804 5.496 11.536 8.536 17.839.562 1.038.843 1.537 1.235 2.364 7.46 12.332 16.736 22.436 29.155 29.874 1.073.762 1.962 1.278 3.07 2.05 9.648 6.255 19.735 10.625 31.031 12.775.411.77.589 1.34.766 1.909H1z"/><path fill="#231C47" d="M1 80.468c1.69-4.393 3.307-8.352 5.087-12.237 2.883-6.288 5.873-12.527 9.45-19.101 7.811-.284 14.991-.254 22.472-.204.703.038 1.104.057 1.62.53.148 6.833.182 13.21-.032 19.906-.383 2.085-.462 3.857-.664 5.615-.487 4.23 1.51 5.609 5.702 4.86.432.042.603.075.69.53.581 3.672 1.245 6.922 1.857 10.614-.096 1.63-.14 2.817-.186 4.424.371 4.31-2.063 4.635-5.063 4.622C28.29 99.965 14.644 100 1 100zM80.469 201c-.646-.57-.824-1.138-1.235-2.363-.233-4.975-.233-9.294.023-13.619.426-.01.597-.015 1.22-.019 3.47.001 6.49.002 9.705-.138.442-.352.654-.592 1.24-.855 3.13.337 5.85.667 8.762.854.44-.352.651-.592 1.281-.862 3.476 0 6.5 0 9.636.102.114.102.543.15.543.15s.368-.252.783-.243c3.46.336 6.507.665 9.813.995l1.226-.002h9.973c3.466-.334 6.507-.668 9.693-.81.36.435.606.642 1.335.812 3.468-.001 6.484-.002 9.514.27.025.454.036.636.047.817-8.686 3.972-17.365 7.963-26.067 11.9-1.899.86-3.884 1.53-5.895 2.649-13.754.362-27.441.362-41.597.362"/><path fill="#221C47" d="M79.975 2.915c.044-.427.088-.853.079-1.598C93.354 1 106.708 1 120.53 1c.652.578.835 1.157 1.253 2.284.562 1.61.89 2.67 1.217 4.166 0 2.474 0 4.511-.334 6.626-3.35 1.541-2.604 3.207.052 5.015.094-1.697.188-3.394.657-5.019 6.306 1.347 6.594 1.017 6.957-7.07.777.002 1.222.003 1.666.43-.34 3.952-.95 7.476-.953 11-.003 4.993.496 9.984.618 14.98.012.515-1.083 1.058-1.665 1.186-.503-6.552-.503-6.552-7-4.991-1.001-1.798-2-3.202-3-5.013-.575-5.759-1.295-6.213-6.219-4.488-.518.18-1.183-.06-1.635-.436.048-2.444-.048-4.557.21-6.591.661.194.97.412 1.275.409 1.85-.022 5.066.395 5.295-.242.693-1.933.23-4.281.217-6.467-1.942.522-3.89 1.027-5.824 1.58-.462.131-.88.423-1.568.64-.416 0-.583 0-.75-.33-.001-.774-.001-1.215.1-1.77.233-.42.162-.683-.56-.9-3.145.001-5.84.003-8.87.003h-2.123C96.403 6 93.707 6 90.817 6.14c-.44.352-.652.593-1.244.855-3.46-.336-6.504-.665-9.555-1.378z"/><path fill="#2F2852" d="M1 100.25c13.644-.25 27.289-.285 40.933-.223 3 .013 5.434-.313 5.283-4.315.718 3.196 2.412 4.706 5.96 4.354 2.954-.293 5.965-.013 8.586.221-2.66.375-4.99.87-7.248.643-4.856-.487-6.789 1.072-6.629 6.303.365 11.913.128 23.845.135 35.769v6.288l-1.02-.007v-40.7C46.999 101 46.997 101 39.317 101H1.47c-.47 0-.47-.5-.47-.75"/><path fill="#2B244E" d="M201 100.75c-14.376.25-28.752.25-43.128.25l-.006-1.003c14.066 0 28.131 0 42.665.002.469.001.469.501.469.751"/><path fill="#C2C2FB" d="m155.015 144.832 3.22 4.872c.794.311 2.281.894 3.782 2.215.06 1.19.107 1.64.084 2.515-.094 2.43-.12 4.436-.6 6.485-3.803.103-7.152.163-10.851.018-.5-1.636-.649-3.068-.775-4.28-2.733-.95-5.25-1.826-7.906-3.011a889 889 0 0 1-2.582-6.519c.111.009-1.128-.085-2.41-.557-.396-1.481-.75-2.584-.876-3.925 2.076.29 3.92.815 5.814 1.78.047 2.366.047 4.294.047 6.356 2.095.107 3.555.182 5.233.558 2.427.741 4.637 1.182 6.793 2.048.015 6.726.9 7.423 6.678 5.735.208-5.459-.386-5.997-6.701-6.48-.946-2.816-1.898-5.238-2.488-7.656 1.077-.048 1.793-.1 2.767-.095.428.019.6-.02.77-.059"/><path fill="#2F2852" d="M155.01 144.374c-.166.497-.338.536-.761.06-.254-11.822-.255-23.129-.253-34.904.001-16.822-.001-33.175-.002-49.862 0-.78-.002-1.224 0-2.138.003-6.488 0-12.508 0-18.862 0-.78-.001-1.224.001-2.138.002-6.822-.001-13.176.001-19.796.007-.444.01-.621.01-.799.308.122.568.308.912.763.115 42.543.101 84.88.092 127.676"/><path fill="#221B47" d="M176.043 33.963c3.296 4.434 6.592 8.87 9.54 13.652-3.761-.308-7.173-.965-10.584-1.622 0-2.364 0-4.728.214-7.818.419-1.889.625-3.05.83-4.212"/><path fill="#2B244E" d="M162.17 154.009c-.046-.45-.092-.9-.07-1.685 8.055-.333 16.041-.332 24.504-.337.31.56.142 1.127-.715 1.868-3.756.172-6.822.169-10.351.161-4.765-.005-9.067-.006-13.368-.007m12.669-107.66c3.571.3 6.983.958 10.853 1.596.748.114.968.32 1.173.825-9.6.223-19.257.223-28.914.223l-.039-.996c3.746 0 7.5.137 11.236-.058 1.86-.097 3.688-.803 5.69-1.59m1.07-12.589c-.07 1.365-.276 2.526-.696 3.972-.211-1.122-.209-2.528-.203-4.356.297-.273.55-.072.899.384m-.288 98.23c-.001.071-.232-.006-.232-.006s.234-.065.232.006m-.127-73.5c.021-.009-.022.008 0 0m-.003 11.018c-.008-.022.008.021 0 0m.002 9.982c.022-.01-.022.008 0 0m.001 11c.02-.009-.021.008 0 0m.017 21.002c.008.021-.008-.021 0 0m0 10c.01.022-.008-.022 0 0m-.018 20.998c.022-.01-.021.008 0 0"/><path fill="#241D48" d="M135.871 142.882c.355 1.104.71 2.207 1.16 4.045 1.289 4.352-.754 5.078-3.722 5.07-7.437-.02-14.874-.004-22.31-.443-.003-1.581-.05-2.725-.001-3.865.138-3.292-1.372-4.753-4.701-4.694-3.176.055-4.372 1.648-4.292 4.61.04 1.467.001 2.937-.306 4.58-7.77.051-15.236-.074-22.702-.2.33-2.718.659-5.436.996-8.819a48 48 0 0 0 0-1.6c-.004-6.802.002-13.18-.133-19.75-.351-.439-.591-.65-.855-1.18.02-.829.035-1.302.397-1.72 1.043.016 1.738-.023 2.792.053 2.829.368 5.297.621 8.086 1.027 3.13 1.694 5.942 3.235 8.994 4.78.535-.185.696-.454.717-.797-.008.005-.016.022.27-.113.508-.718.73-1.302 1.093-2.003.319-.43.498-.742.974-1.261.51-.315.724-.424 1.118-.587-.03-.373-.239-.692-.795-1.028-1.181-.693-2.015-1.369-2.877-2.41.45-1.432.926-2.499 1.705-3.43 6.027 5.988 11.75 11.842 17.544 17.766l3.244-1.92c.643 1.882 1.182 3.463 1.923 5.35 1.405.499 2.609.691 3.855 1.239 1.57.72 3.096 1.084 4.667 1.818.521 2.415-3.701 7.325 3.16 5.482"/><path fill="#241D48" d="M80.001 122.01c-.006 6.377-.012 12.754-.2 19.7-.427.78-.636 1.022-.812 1.292H48.466c-.453-11.924-.216-23.856-.58-35.77-.16-5.23 1.772-6.789 6.628-6.302 2.258.226 4.587-.268 7.376-.667.493-.232.755-.263.836.155.064 2.116.046 3.814-.255 5.487-1.262.37-3.026.659-3.095 1.175-.626 4.676 3.555 4.708 6.915 5.911-.723-2.287-1.446-4.573-1.805-6.902 2.983.502 5.322 3.198 8.37 1.34.815 2.264 1.337 4.309 2.371 6.049.872 1.466.473 4.544 3.73 3.607 0-.041-.083-.036-.044.265.073.704.107 1.107.14 1.51-.013.474-.027.947.094 1.97.344.794.584 1.004.854 1.18"/><path fill="#29224C" d="M78.529 151.99c7.934.12 15.4.246 23.62.194 3.452-.183 6.15-.186 8.85-.19 7.436-.001 14.873-.018 22.31.003 2.968.008 5.01-.718 3.764-4.692 1.186-.263 2.425-.17 2.314-.178 1.03 2.618 1.736 4.413 2.107 6.528-11.467.328-22.6.29-33.731.389-1.926.017-3.846.617-6.1.948-.773 0-1.215 0-2.003-.228-2.317-.406-4.287-.737-6.258-.741-18.134-.039-36.268-.02-54.87-.02l-22.664.06a16 16 0 0 1-.9-1.787c20.995-.288 42.044-.285 63.56-.286m.714-8.985c-.077-.273.132-.514.567-.87.192.026.193.196.192.621-.169.254-.338.253-.759.249"/><path fill="#241D48" d="M153.992 36.999c0 .445.002.89-.434 1.668-5.338-.53-10.158 3.29-15.211.592-.453-.241-2.72 1.629-3.102 2.845-.569 1.809-.208 3.91-.644 5.89-1.467 0-2.535-.001-3.602-.442-.003-1.59-.013-2.743-.008-3.896.012-2.59-.745-5.106-3.758-4.35-1.654.414-3.159 2.574-4.097 4.293-.624 1.144-.128 2.9-.467 4.386-.78.005-1.225.005-1.67-.422-.096-8.394-.566-8.752-8.532-7.08a4.8 4.8 0 0 1-1.935 0c-8.301-1.746-9.497-.557-7.527 7.775 0 .242 0 .725-.085 1.076-.89 1.186-1.694 2.02-2.688 2.639-.935-1.105-1.68-1.992-2.068-3.031.499-2.855 1.152-5.7.47-8.176-.204-.74-4.141-.505-6.373-.608-.932-.043-1.88.313-2.815.286-3.482-.102-6.962-.287-10.428-.768.338-1.113.66-1.899 1.413-2.682 5.403.66 10.03-2.515 15.412-.584 2.791 1.002 4.56-2.235 3.807-5.785-.432-2.036.003-4.245-.06-6.373-.046-1.61-.24-3.216-.408-4.82-.149-1.422-.608-2.862-.481-4.253.281-3.072.846-6.119 1.295-9.175.446 0 .892-.001 1.672.435.367 5.745.393 11.052.445 16.36.005.485.254.967.264 1.454.043 2.13-.08 4.27.09 6.387.137 1.7.12 3.785 1.085 4.929.758.897 2.905.747 4.446.827 2.337.121 4.69.129 7.026.008 1.541-.08 3.687.05 4.441-.851.96-1.149 1.07-3.254 1.01-4.927-.044-1.225-.952-2.419-1.28-3.834A13.6 13.6 0 0 0 120 25c.999 1.405 1.998 2.809 2.998 5.023.003 2.2.003 3.588.216 5.27 2.576 2.034 4.864 2.92 6.786-.293.581-.53 1.676-1.073 1.664-1.589-.122-4.995-.62-9.986-.618-14.979.003-3.524.614-7.048 1.221-11.047.734-.736 1.2-.997 1.667-1.258.32.04.596.175.954 1.042.132 8.822-.044 17.012.3 25.18.063 1.498 2.985 4.325 3.321 4.147 5.344-2.83 10.336 1.615 15.483.503"/><path fill="#221B47" d="M153.995 36.53c-5.15 1.581-10.142-2.865-15.486-.034-.336.178-3.258-2.65-3.321-4.148-.344-8.167-.168-16.357-.161-24.992 3.057 1.004 6.075 2.523 9.161 3.892 1.638.727 3.392 1.192 5.63 1.994.752.433.998.609 1.271.745.283.117.52.296.897 1.033.794.99 1.4 1.485 2.005 1.98.003 6.354.006 12.708.004 19.53m-12.523-19.88 2.877 2.659 1.032-3.894c-1.243.194-2.487.388-3.91 1.235m3.315 9.084-3.477 1.79 2.162 2.167c.6-1.157 1.198-2.314 1.315-3.957"/><path fill="#29224C" d="M133.646 5.972c-.178.416-.645.677-1.379.986-.712.047-1.157.046-2.371.044-2.812.003-4.854.008-6.895.012-.327-1.06-.655-2.12-.98-3.524 3.78.548 7.559 1.438 11.625 2.482"/><path fill="#241D48" d="M153.996 16.734c-.61-.229-1.216-.723-1.896-1.521.463-.107 1 .088 1.721.503.184.397.182.574.175 1.018m-3.037-2.939c-.143.056-.389-.12-.754-.504.167-.101.424.06.754.504"/><path fill="#231C47" d="M80.002 36.992c-.323.785-.646 1.57-.994 2.957-.03.784-.037.966-.509 1.106-10.471-.105-20.478-.167-30.488-.686-.012-8.454-.02-16.45-.03-24.446 6.58-3.042 13.16-6.084 20.617-9.057 4.385.098 7.894.127 11.394.58-.003 6.795.004 13.167-.092 19.653-.236.422-.167.69.102 1.365z"/><path fill="#241D48" d="M39.515 49c-.402-.017-.803-.036-1.727-.24-1.275-.333-2.027-.479-2.782-1.077-.007-1.607.35-2.932-.094-3.881-.788-1.682-2.063-3.135-3.135-4.684-1.578 1.519-3.476 2.835-4.614 4.633-.676 1.068-.154 2.894-.543 4.399-1.118.014-1.864.009-2.612-.435-.697-3.21-1.392-5.98-2.087-8.752 1.499-1.896 2.997-3.792 4.856-5.518 2.326 1.08 4.293 1.992 6.26 2.903.535-2.171 1.298-4.321 1.497-6.522.083-.92-1.032-1.95-1.602-2.929 1.483-1.208 2.966-2.415 4.96-3.508.907 1.815 1.755 3.552 1.622 5.21-.641 7.994-.456 8.303 7.473 8.781.003 1.405.002 2.426-.448 3.518-2.495.071-4.541.071-6.527.071z"/><path fill="#221B47" d="M46.981 36.997c-7.923-.095-8.108-.404-7.467-8.398.133-1.658-.715-3.395-1.347-5.376 2.543-2.243 5.321-4.205 8.453-5.773.356 6.78.359 13.163.361 19.547m-14.327-9.925c.848.805 1.963 1.833 1.88 2.754-.199 2.2-.962 4.35-1.497 6.522-1.967-.911-3.934-1.822-5.983-3.084 1.72-2.24 3.52-4.128 5.6-6.192M21.675 39.185a31.3 31.3 0 0 1 1.89 8.535c-2.8.408-5.159.374-7.517.34 1.794-2.885 3.587-5.77 5.627-8.875"/><path fill="#29224C" d="M80 7.022c-3.508-.029-7.017-.058-11.029-.098 3.064-1.32 6.63-2.628 10.6-3.973.416.736.429 1.508.441 2.92-.004.81-.008.981-.011 1.151"/><path fill="#2F2852" d="M46.987 37.38c-.008-6.767-.01-13.15-.029-20.013.125-.777.33-1.02.812-1.327.22 7.879.23 15.875-.015 24.385-.425.477-.596.44-.768.403a787 787 0 0 0 0-3.448"/><path fill="#484371" d="M15.88 48.146c2.526-.052 4.885-.018 7.687.012 1.189 0 1.935.006 3.498.003 3.193-.013 5.568-.02 7.943-.026.753.146 1.505.292 2.48.605-6.96.136-14.14.106-21.766.077-.404-.27-.259-.465.157-.671"/><path fill="#231C47" d="M162.101 154.434c4.37-.424 8.672-.423 13.437.03.463 3.138.463 5.826.242 8.829-.403 2.128-.586 3.942-.768 5.755-5.775 4.891-11.55 9.782-17.99 14.667-1.116-1.653-1.888-3.286-1.957-4.949a103 103 0 0 1 .342-13.75c3.305-.15 6.964.87 6.547-4.14.026-2.006.053-4.012.147-6.442"/><path fill="#221B47" d="m176 162.978.001-8.51c3.066-.444 6.132-.441 9.663-.418-1.505 2.812-3.477 5.605-6.011 8.681-1.593.271-2.623.26-3.653.247"/><path fill="#29224C" d="M154.974 165.024c.01 4.581-.097 9.168.091 13.742.069 1.663.841 3.296 1.656 5.105-.47.754-1.304 1.345-2.415 2.077-.289-.04-.3-.222-.317-1.144.008-7.088.023-13.434.274-19.783.237-.002.711.003.711.003"/><path fill="#2B244E" d="M175.78 163.293c1.25-.303 2.28-.29 3.693-.271-1.046 1.895-2.476 3.783-4.184 5.849-.095-1.636.088-3.45.49-5.578"/><path fill="#221C47" d="M154.026 165.024c-.014 6.346-.029 12.692-.052 19.507-3.023.469-6.039.47-9.653.279-.813-.436-1.059-.642-1.335-.812-3.04.334-6.08.668-9.66.901-.846-.234-1.112-.166-1.337.102-2.691 0-5.383 0-8.638-.103-.873-.236-1.142-.168-1.37.103-3.047-.329-6.093-.658-9.81-.995-.842-.008-1.013-.008-1.183-.008-3.024 0-6.047 0-9.717.142-.894.35-1.105.591-1.28.862-2.72-.33-5.439-.659-8.763-.855-.852.344-1.064.584-1.241.855-3.02 0-6.04-.002-9.627-.105-.881-.235-1.145-.159-1.359.127v13.412c-11.063-1.495-21.15-5.865-30.792-12.594-.211-10.183-.211-19.635-.211-29.088l-1.032-.02c0 2.088 0 4.177-.432 6.265-7.395-.093-7.493-.19-7.533-7.057-.004-.646 0-1.292 0-1.938 18.133-.002 36.267-.02 54.4.019 1.972.004 3.942.335 6.257 1.167.517 2.676.69 4.702.863 6.727l1.473-.137v-6.789c1.923-.33 3.843-.93 5.769-.947 11.131-.1 22.264-.06 33.871-.078 2.992.865 5.508 1.74 8.24 2.69.127 1.213.276 2.645.784 4.646 1.362 1.621 2.365 2.671 3.368 3.722m-74.528-1.494s-.017-.044 0 0m43.031-.028s-.043.017 0 0M58.5 184.53s-.017-.043 0 0"/><path fill="#231C47" d="M38.532 154.003c.468.647.465 1.293.469 1.94.04 6.866.138 6.963 7.542 7.525.446 5.679.601 10.896.36 16.095-.07 1.512-1.272 2.972-1.955 4.456-12.234-7.191-21.51-17.295-28.97-29.627 7.288-.35 14.687-.37 22.554-.39"/><path fill="#2F2852" d="M45.133 184.266c.498-1.73 1.7-3.19 1.77-4.703.241-5.199.086-10.416.072-16.095-.01-2.557-.01-4.646-.01-6.734l1.033.02c0 9.453 0 18.905-.007 28.832-.896-.042-1.785-.558-2.858-1.32"/><path fill="#3936C2" d="M45.409 79.945c-.171-.033-.342-.066-1.117-.316-1.505-1.521-2.865-2.72-3.198-4.155-.463-2.002-.157-4.181-.193-6.375-.013-.091.1-.236.475-.15 1.658.22 2.94.352 4.238.87-.244 3.613 1.342 4.652 4.786 4.068 3.181.595 5.963.968 8.62 1.757 1.636.486 2.997 1.88 4.63 2.395 5.322 1.675 5.006-3.814 7.465-5.73.717.732 1.294 1.217 1.895 2.15.126 9.408-.409 8.498 7.84 8.582.649.007 1.296.13 2.139.471 2.558 3.17 4.438 6.763 9.306 6.543.702.442 1.145.777 1.618 1.544.049 2.172.068 3.913-.347 5.609a950 950 0 0 0-6.106-.454l-.645-4.466c-1.717-.214-3.18-.397-4.63-.916-.05-1.006-.111-1.676-.382-2.724-4.332-.38-8.457-.38-12.436-.38l-1.312-5.408c-4.77 0-9.414 0-14.044-.34-.678-1.32-1.371-2.3-2.434-3.343-1.596.054-2.822.171-4.407.264a7.3 7.3 0 0 0-1.704.559c-.034.02-.057-.055-.057-.055"/><path fill="#261F44" d="M51.946 79.24c.694.98 1.387 1.96 1.775 3.476.537.776 1.392.979 2.22 1.26 3.087 1.048 6.165 2.122 9.185 3.545-3.042 2.431-5.916 4.534-2.529 8.612-.188.418-.123.682.198.893.09-.015.271-.01.193.36a79 79 0 0 0-.343 2.614s-.262.031-.39.055c-3.114-.002-6.125-.282-9.078.011-3.549.352-5.243-1.158-5.96-4.774-.175-1.494-.13-2.68.233-4.37a76 76 0 0 0 1.764-3.72c.425-1.667 1.162-2.988 1.713-4.383.454-1.148.688-2.383 1.02-3.579"/><path fill="#C2C2FB" d="M46.54 40.898c.619-.033.79.004 1.217-.015 10.264.005 20.27.067 30.763.603.544 2.49.603 4.505.624 6.775.247.407.53.56.83.745.014.031.08.01.246.306-.269 1.902-.705 3.507-.96 4.451 1.805 1.356 3.156 2.37 4.522 3.803-.003 2.378-.02 4.337-.316 6.484-.01 1.126.259 2.064.795 3.214 1.526.688 2.783 1.162 4.012 2.027.036 1.164.1 1.94.097 3.038-.032.757.001 1.193-.162 1.721-.197.094-.62.202-.768-.19-.418-1.344-.482-2.99-.99-3.14-5.735-1.702-3.945-6.35-4.276-10.224-.12-1.396-.46-3.765-1.16-3.952-3.442-.914-3.078-3.406-3.1-5.89-.077-8.878-.084-8.879-8.908-8.576-.333.01-.664.06-1.463.042-7.447-.068-14.437.137-21.402-.187-4.303-.2-5.406 1.5-5.256 5.495.268 7.136.1 14.29.116 21.435 0 0-.113.145-.362.161-.43.018-.612.018-.794.019-.034-6.377-.068-12.754-.216-19.586.036-2.89.187-5.325.383-8.488 1.986 0 4.032 0 6.527-.07"/><path fill="#F8D157" d="M51.577 79.177a9.15 9.15 0 0 1-.65 3.642c-.551 1.395-1.288 2.716-1.713 4.383-.482 1.073-.963 2.146-1.712 3.278-.932-3.191-1.596-6.44-2.176-10.112.083-.423.106-.347.511-.245.834-.151 1.263-.405 1.692-.658 1.226-.117 2.452-.234 4.048-.288"/><path fill="#484371" d="M39.597 69.362c.43-.32.612-.32 1.055-.247.285 2.178-.02 4.357.442 6.36.333 1.435 1.693 2.633 2.937 4.144-3.588.967-5.585-.412-5.098-4.642.202-1.758.281-3.53.664-5.615"/><path fill="#29224C" d="M100.184 184.86q-.027-.194.634-.72.026.192-.634.72m-20.927.158c-.042-.28.222-.356.651-.121-.054.106-.225.11-.651.121m10.925-.158q-.027-.194.636-.72.027.194-.636.72m20.919-.76c.057-.102.228-.102.655-.102.256 0-.112.252-.112.252s-.43-.048-.543-.15m11.139.902c-.031-.272.238-.34.663-.104-.058.103-.23.104-.663.104m10.005 0c-.031-.269.235-.337.655-.102-.057.101-.228.102-.655.102m10.887-.812q.196-.033.736.62-.195.033-.736-.62"/><path fill="#221B47" d="m79.992 7.446.026-1.19c3.05.073 6.096.402 9.75.597.856-.344 1.067-.584 1.244-.855 2.695.001 5.39.002 8.535.005 0 3.057-.565 6.104-.846 9.176-.127 1.391.332 2.831.481 4.254.169 1.603.362 3.21.409 4.819.062 2.128-.373 4.337.06 6.373.752 3.55-1.017 6.787-3.808 5.785-5.383-1.931-10.01 1.245-15.412.584-.43-2.695-.43-5.388-.429-8.788v-1.221c-.006-6.372-.013-12.744-.01-19.54m8.41 8.376 2.25 3.47 1.76-3.078c-1.235-.326-2.47-.652-4.01-.392m.014 11.003 2.782 2.75 1.39-2.723c-1.284-.212-2.57-.423-4.172-.027M119 27c.523 1.207 1.43 2.4 1.475 3.626.06 1.673-.05 3.778-1.01 4.927-.754.901-2.9.771-4.44.85a68 68 0 0 1-7.027-.007c-1.541-.08-3.688.07-4.446-.827-.965-1.144-.948-3.228-1.084-4.929-.17-2.117-.048-4.258-.09-6.387-.01-.487-.26-.969-.265-1.454-.052-5.308-.078-10.615-.11-16.36 2.696-.437 5.392-.439 8.539-.187.453.422.455.591.456.76V9.07c-.333 2.469-1.057 4.244-.889 5.93.172 1.712 1.224 3.337 1.891 5 .597.046 1.262.287 1.78.106 4.924-1.725 5.644-1.27 6.219 4.488.001.406.001.406-.248.466-.417.687-.584 1.313-.751 1.94m-4.676-.42c-.775-.527-1.55-1.054-2.994-1.425-.648.976-1.438 1.898-1.842 2.966-.1.267 1.407 1.544 1.563 1.44 1.074-.718 1.986-1.678 3.273-2.981"/><path fill="#221B47" d="M112 9c.439-.218.856-.51 1.318-.642 1.934-.552 3.882-1.057 5.824-1.58.013 2.187.476 4.535-.217 6.468-.229.637-3.445.22-5.295.242-.306.003-.614-.215-1.275-.81C112 11.134 112 10.068 112 9m11-1.55c2.042-.44 4.084-.445 6.563-.448.407 8.087.119 8.417-6.187 7.07L123 14zm.002 27.55L123 30.417c6.496-2.371 6.496-2.371 6.999 4.181.001.402.001.402-.436.402z"/><path fill="#241D48" d="M111.75 9c.25 1.067.25 2.133.25 3.6.097 2.513.193 4.626.145 7.07-.812-1.333-1.864-2.958-2.036-4.67-.168-1.686.556-3.461.89-5.599.168-.401.335-.401.751-.401M123 14l-.281 5.091c-2.656-1.808-3.401-3.474-.052-5.015z"/><path fill="#29224C" d="M111.1 6.9c-.103-.057-.105-.226-.11-.649.272-.035.343.228.11.648M90.818 6.14q.026.194-.635.72-.027-.193.635-.72"/><path fill="#241D48" d="M153.993 109.999c.001 11.306.002 22.613-.001 34.377-.722.51-1.438.562-2.662.314-1.436-.792-2.365-1.284-3.323-2.197-.03-1.995-.03-3.57-.03-4.976-2.31-.531-4.142-.952-6.257-1.546-1.074-.806-1.864-1.44-2.688-2.398-.088-.758-.141-1.19-.126-2.048.07-1.69.07-2.955.07-4.22l-1.075.752-5.05-4 .72-1.01-3.244-.491-6.819-9.463-3.051-.326c-.467-1.536-.46-3.225-1.282-3.892-2.387-1.938-5.158-3.394-7.646-5.22-.446-.327-.258-1.517-.05-2.448 3.123 1.178 5.53 1.521 7.158-2.017.598-1.3 2.063-2.2 3.395-2.956.504 3.266.741 6.203.987 9.14.347 4.145 3.417 5.72 6.873 3.469 1.065-.694 1.974-1.627 3.21-2.665 2.611 3.268 5.454 5.123 9.366 2.42.524-.362 1.569-.047 2.358.062 3.059.423 6.112.889 9.167 1.339"/><path fill="#615EE8" d="M139.067 133.898c.79.634 1.58 1.267 2.648 2.51.292 2.958.306 5.307.261 7.672-.059.017-.11-.095-.11-.095-1.844-.525-3.69-1.05-5.765-1.34-7.09 2.08-2.868-2.83-3.257-5.256.087-.38.344-.444.673-.5 2.069-1.036 3.81-2.013 5.55-2.99m8.97 9.015c.928.492 1.857.984 2.932 1.772 1.098 2.718 2.05 5.14 3.016 7.938.015.375.056.337.056.337-2.21-.44-4.419-.88-6.838-2.06-.217-2.784-.223-4.829-.032-7.038.42-.427.643-.688.866-.949m5.943 10.105c6.3.106 6.894.644 6.686 6.103-5.779 1.688-6.663.99-6.678-5.735.053-.426.012-.388-.008-.368"/><path fill="#221B47" d="M154.263 165.021c-1.24-1.048-2.243-2.098-3.254-3.514 3.34-.425 6.689-.485 10.491-.588.871 4.966-2.788 3.946-6.093 4.098-.433.007-.907.002-1.144.004"/><path fill="#3936C2" d="M146.973 144.028c.007 2.044.013 4.089.012 6.571-1.468.364-2.928.289-5.023.182 0-2.062 0-3.99-.047-6.357-.048-.439.002-.327.471-.384 1.842-.042 3.215-.027 4.587-.012"/><path fill="#221B47" d="M153.996 109.53c-3.058.019-6.111-.447-9.17-.87-.79-.109-1.834-.424-2.358-.062-3.912 2.703-6.755.848-9.366-2.42-1.236 1.038-2.145 1.971-3.21 2.665-3.456 2.252-6.526.676-6.873-3.468-.246-2.938-.483-5.875-.952-9.444-.243-1.035-.26-1.44.008-2.072 10.255-8.536 7.597 3.8 11.201 7.593.777-2.802 1.613-4.47 1.644-6.152.174-9.664.38-19.337.12-28.995-.15-5.592 1.247-7.033 6.477-5.332a8 8 0 0 0 3.282.35c3.075-.346 6.13-.869 9.193-1.322.003 16.354.005 32.707.004 49.53M141.73 91.776l3.858-.619-1.38-2.728c-.93.912-1.86 1.824-2.478 3.347m3.964-22.279-3.496-1.75-.478 3.012c1.287-.195 2.575-.391 3.974-1.262m-.593 11.417-2.76-1.911-.754 1.974c1.028.125 2.055.25 3.514-.063"/><path fill="#241D48" d="M153.994 59.668c-3.065.786-6.12 1.31-9.195 1.654a8 8 0 0 1-3.282-.349c-5.23-1.701-6.626-.26-6.476 5.332.26 9.658.053 19.331-.121 28.995-.03 1.682-.867 3.35-1.644 6.152-3.604-3.793-.946-16.129-11.598-7.64-1.083-1.386-1.484-2.952-1.902-4.579l5.293-.728c-1.565-1.705-2.793-3.043-4.054-4.759-1.398-1.515-2.763-2.652-4.076-4.105.087-.742.122-1.168.403-1.672.324-.381.402-.683.555-1.338-.312-1.427-.7-2.503-1.03-3.85.02-.45-.018-.63-.13-1.17-1.289-.46-2.503-.56-3.777-.95-.063-.688-.068-1.085.348-1.52 1.239-.08 2.276.18 2.834-.223 1.66-1.2 3.991-2.447 4.395-4.085.31-1.257-1.612-4.086-3.062-4.537-2.872-.891-4.948.829-5.484 4.027-.156.93-.682 1.797-1.36 2.617a131 131 0 0 1-2.913-.836c-.232-.075-.704.054-1.002-.08-1.375-.75-2.452-1.366-3.689-2.323-2.35-5.497-6.708-4.702-11.34-4.372-2.91-.798-5.416-1.49-7.92-2.183l-4.508-3.383c.256-.944.692-2.55 1.335-4.625 5.316-.18 10.425.112 15.192.54-1.476.885-2.61 1.634-3.743 2.382 1.366.981 2.62 2.463 4.13 2.8 1.449.323 3.163-.54 5.016-.645 3.538 7.486 10.36-.276 14.565 3.546.495.45 2.45.008 3.137-.644.974-.923 1.662-2.361 1.986-3.697.34-1.398.105-2.935.456-4.411.78.003 1.225.007 1.67.448.008 1.77-.444 3.366.133 4.372.904 1.578 2.503 2.757 3.807 4.106 1.341-1.31 3.119-2.409 3.89-3.996.657-1.35.155-3.265.566-4.932 1.468 0 2.535.001 3.602.441.355 2.822-.053 5.964 1.315 7.34 1.032 1.038 4.336-.216 6.634-.38.629-.045 1.276.164 1.914.257l9.127 1.333c.001.446.003.89.003 1.67m-28.39 1.037c-.534.432-1.068.863-1.897 1.968-.235 1.442-.47 2.884-.706 5.25.004 2.307.116 4.62-.014 6.92-.216 3.808 2.038 4.293 5.063 4.144 3.363-.165 4.012-2.15 3.874-5.017-.14-2.904.156-5.84-.135-8.722-.147-1.461-1.165-2.835-2.589-4.248-1.067 0-2.133 0-3.597-.295"/><path fill="#221B47" d="M153.995 57.53c-3.046.024-6.089-.42-9.13-.865-.64-.093-1.286-.302-1.915-.257-2.298.164-5.602 1.418-6.634.38-1.368-1.376-.96-4.518-.848-7.344 5.248-.442 10.029-.442 14.809-.442l.002-1.012h-15.277c.035-1.976-.326-4.077.243-5.886.383-1.216 2.649-3.086 3.102-2.845 5.053 2.698 9.873-1.122 15.21-.258.437 6.02.44 12.041.438 18.53"/><path fill="#C2C2FB" d="m82.172 91.709 4.643.579.645 4.466c2.067.149 3.869.279 6.276.733 2.808 1.36 5.01 2.396 7.374 3.696.771.795 1.382 1.327 1.95 2.27-.009 6.879 1.6 8.335 8.956 8.566-.021-.014-.05-.056-.032.359.91 4.036 1.804 7.658 2.784 11.632 3.616.648 7.44 1.335 11.244 2.012-.022-.009-.055-.044-.036.348-.65 2.817-1.319 5.242-1.987 7.666l-1.722-5.043-3.244 1.92a6408 6408 0 0 0-17.66-18.011c-.703-.598-.986-.815-1.312-1.422-.704-2.044-1.364-3.698-2.394-5.422a133 133 0 0 1-7.744-6.757c-2.625-2.483-5.164-5.058-7.74-7.592"/><path fill="#FEEB99" d="M98.027 106.128c.66 1.654 1.32 3.308 1.68 5.418-4.652.444-7.241 2.73-8.592 6.722-.2.588-.761 1.054-1.155 1.576-2.469-.254-4.937-.507-7.867-1.175-1.38-.816-2.3-1.218-3.219-1.62 0 0 .082-.005.07-.274.988-2.267 1.988-4.265 3.304-6.305 6.185 1.097 11.107-1.172 15.779-4.342"/><path fill="#F9AE39" d="M90.28 119.996c.074-.674.636-1.14.835-1.728 1.351-3.992 3.94-6.278 8.637-6.332.625.151.908.368 1.308.83-.36 1.312-.837 2.379-1.509 3.907-2.497 2.977-1.436 5.188.424 7.328 0 0 .008-.017-.152.103-.39.28-.6.464-.79.669a1667 1667 0 0 0-8.753-4.777"/><path fill="#221C47" d="M110.999 151.554c-2.7.444-5.398.447-8.546.453-.447-1.465-.409-2.935-.448-4.402-.08-2.962 1.116-4.555 4.292-4.61 3.329-.059 4.84 1.402 4.7 4.694-.047 1.14-.001 2.284.002 3.865"/><path fill="#615EE8" d="M124.19 134.343c.467-2.731 1.136-5.156 2.181-8 2.444.324 4.51 1.066 6.592 2.21.026 1.745.038 3.087-.348 4.411-1.803.742-3.208 1.503-4.613 2.263-1.203-.193-2.407-.385-3.812-.884"/><path fill="#3936C2" d="M128.045 135.582c1.362-1.115 2.767-1.876 4.584-2.22.461 1.471.51 2.527.56 3.583 0 0-.258.064-.39.075-1.658-.354-3.184-.719-4.754-1.438"/><path fill="#F8D157" d="M100.261 123.866c-2.146-2.005-3.207-4.216-.682-6.827 1.057.58 1.89 1.255 3.172 2.206.47.458.493.642.516.825-.215.108-.429.217-1.173.475-.647.578-.763 1.007-.88 1.436-.222.583-.445 1.167-.953 1.885m-21.348-6.516c.88.101 1.8.503 2.82 1.204-.593.339-1.288.378-2.33.362-.383-.459-.417-.862-.49-1.566"/><path fill="#29224C" d="M101.354 121.863c-.023-.311.093-.74.444-1.112.054.37-.125.682-.444 1.112m2.092-1.848c-.202-.128-.225-.312-.348-.753.11.06.319.38.348.753m-23.586 1.801q-.194.027-.72-.63.194-.03.72.63"/><path fill="#F8D157" d="M99.274 124.777c-.051-.21.159-.392.557-.678.14.223-.022.492-.557.678"/><path fill="#F9AE39" d="M62.726 100.418c.007-1.165.096-1.913.613-3.03 1.132-.347 1.834-.327 2.582.084-.892 6.08 4.997 6.318 7.173 9.487-.1.046-.31.117-.31.117-2.976 2.21-5.315-.485-8.64-1.035-.934-.041-1.162-.076-1.39-.11.018-1.699.036-3.397-.028-5.513"/><path fill="#F8D157" d="M81.932 110.512c-1 1.998-2 3.996-2.987 6.304-3.245 1.206-2.846-1.872-3.718-3.338-1.034-1.74-1.556-3.785-2.371-6.05-.072-.352.137-.423.54-.423.81-.005 1.218-.01 1.946.13 2.411 1.222 4.5 2.3 6.59 3.377"/><path fill="#B5885A" d="M62.471 105.905c.511.06.739.095 1.309.178 1.065 2.335 1.788 4.621 2.511 6.908-3.36-1.203-7.541-1.235-6.915-5.91.07-.517 1.833-.807 3.095-1.176"/><path fill="#241D48" d="M101.663 154.992c.331 2.262.331 4.525.331 6.788l-1.473.137a397 397 0 0 1-.516-6.501c.443-.425.885-.424 1.658-.424"/><path fill="#221B47" d="M96.128 49.541c-5.11-.291-10.218-.582-15.7-.7-.374.175-.44.196-.555-.017-.28-.442-.47-.644-.691-.817-.06-2.016-.118-4.031-.197-6.478-.014-.614-.008-.796.01-1.252 3.49-.12 6.969.065 10.451.167.935.027 1.883-.33 2.815-.286 2.232.103 6.17-.132 6.373.608.682 2.476.029 5.32-.75 8.252a28 28 0 0 1-1.756.523m24.87-.531c-.016 1.475.219 3.012-.12 4.41-.325 1.336-1.013 2.774-1.987 3.697-.687.652-2.642 1.093-3.137.644-4.206-3.822-11.027 3.94-14.577-3.86a49 49 0 0 1-.755-1.711c.804-.835 1.609-1.67 2.966-2.852 6.238-.34 11.924-.335 17.61-.329m-17.993-.992c-1.97-8.091-.774-9.28 7.527-7.535.62.13 1.315.13 1.935 0 7.966-1.671 8.436-1.313 8.064 7.085-6.154.437-11.84.443-17.526.45m19.998-.037c.005-1.482-.49-3.237.133-4.381.938-1.72 2.443-3.88 4.097-4.294 3.013-.755 3.77 1.762 3.758 4.351-.005 1.153.005 2.305-.436 3.9-2.814.436-5.183.43-7.552.424"/><path fill="#2F2852" d="M122.669 47.985c2.703.001 5.072.007 7.886.01 1.511-.002 2.579 0 4.046-.002 5.493-.003 10.586-.003 15.678-.003l-.002 1.012c-4.78 0-9.56 0-14.808.004-1.535.002-2.602 0-4.514-.003-3.214.005-5.583.01-7.952.017-.445-.004-.89-.008-1.67-.011-6.02-.006-11.707-.011-17.86-.021-.468-.005-.468-.488-.468-.73 5.686-.248 11.372-.254 17.526-.264.913-.004 1.358-.004 2.138-.009"/><path fill="#B5885A" d="M100.232 51.973c.352.603.514.99.69 1.69-1.586.656-3.3 1.52-4.75 1.196-1.51-.336-2.763-1.818-4.129-2.799 1.134-.748 2.267-1.497 3.743-2.382.715-.235 1.089-.334 1.742-.509 1.024.812 1.769 1.7 2.704 2.804"/><path fill="#221C47" d="M123.214 35.293c1.829-.293 3.87-.293 6.349-.293-1.485 3.213-3.773 2.327-6.349.293m-4.018-8.501c-.03-.419.138-1.045.555-1.732.046.468-.156.996-.555 1.732"/><path fill="#241D48" d="M141.561 16.322c1.333-.52 2.577-.714 3.82-.908l-1.032 3.894c-.959-.887-1.918-1.773-2.788-2.986m3.466 9.654c-.358 1.4-.957 2.557-1.556 3.714l-2.162-2.168c1.159-.596 2.318-1.193 3.718-1.546"/><path fill="#29224C" d="M79.9 27.099c.102.058.103.23.103.658-.27.032-.339-.236-.103-.658"/><path fill="#221B47" d="M35.006 47.683c-2.373.458-4.748.465-7.569.46-.428-1.498-.95-3.324-.274-4.392 1.138-1.798 3.036-3.114 4.614-4.633 1.072 1.55 2.347 3.002 3.135 4.684.444.949.087 2.274.094 3.881"/><path fill="#29224C" d="M79.49 163.508c-.01-.022.008.022 0 0m43.018.002c-.022.009.021-.008 0 0M58.49 184.507c-.008-.02.008.022 0 0"/><path fill="#FFFEFE" d="M82.248 110.47c-2.406-1.036-4.495-2.113-7.008-3.688a376 376 0 0 1-7.76-16.04c.088-.083.247-.268.537-.227.794-.433 1.297-.906 2.27-1.422 4.222-.05 7.973-.058 11.724-.066.063.67.125 1.339.174 2.345a130 130 0 0 0 7.728 7.93 133 133 0 0 0 7.744 6.756c-4.302 3.24-9.224 5.509-15.41 4.412"/><path fill="#7976F9" d="M68.01 42.17c.332-.032.663-.081.996-.092 8.824-.303 8.83-.302 8.909 8.577.021 2.483-.343 4.975 3.098 5.89.702.186 1.042 2.555 1.161 3.95.331 3.876-1.46 8.523 4.277 10.225.507.15.57 1.796.95 3.561.483 3.943-1.81 8.273 3.957 9.034.458.06.629 2.293.818 3.894-.123 1.165-.131 1.952-.14 2.739-4.609.327-6.49-3.265-9-6.907.068-9.043.068-9.044-8.106-9.047-.648 0-1.296.01-1.945.016-.576-.484-1.153-.969-1.744-1.975.25-1.274.514-2.026 1.036-2.953.55-.472.84-.768 1.496-1.083 4.216-.597 4.065-3.994 2.476-5.378-3.898-3.394-3.181-7.505-3.261-12.033.06-4.11-2.73-3.46-4.981-4.037 0-1.727.002-3.054.004-4.382"/><path fill="#7D7AF7" d="M67.543 42.12c.466 1.377.464 2.704-.006 4.447-5.77.423-11.081.599-16.376.38-3.818-.158-5.374 1.137-5.264 5.11.16 5.786-.175 11.584-.299 17.378a140 140 0 0 1-4.222-.486c-.39-7.232-.223-14.385-.491-21.521-.15-3.995.953-5.695 5.256-5.495 6.965.324 13.955.12 21.402.187"/><path fill="#9695F8" d="M45.614 69.819c.108-6.178.443-11.976.283-17.762-.11-3.973 1.446-5.268 5.264-5.11 5.295.219 10.605.043 16.378.02 2.72.16 5.51-.49 4.982 3.627-4.436.4-8.418.58-12.376.355-3.798-.216-5.708 1.054-5.553 5.063-3.767-.336-4.704 1.432-4.623 4.47.118 4.449-.002 8.905-.021 13.358-2.992.631-4.578-.408-4.334-4.021"/><path fill="#7D7AF7" d="M50.4 73.887c-.433-4.5-.313-8.956-.431-13.406-.081-3.037.856-4.805 4.616-4.476.414-.006.402-.018.401.448 0 1.448.002 2.431-.002 3.414-.042 10.766-.288 8.874 8.881 9.626.681 1.71 1.318 3.018 1.954 4.327.87-.964 1.619-2.093 2.644-2.845 1.043-.766 2.359-1.161 3.556-1.718a97 97 0 0 1-.918 2.529c-2.445 2.439-2.129 7.928-7.45 6.253-1.634-.514-2.995-1.909-4.63-2.395-2.658-.79-5.44-1.162-8.621-1.757"/><path fill="#615EE8" d="M73.01 74.46c.624-.456 1.272-.466 1.92-.466 8.174.003 8.174.004 7.91 8.775-.694.402-1.341.279-1.99.272-8.249-.084-7.714.826-7.84-8.582"/><path fill="#7976F9" d="M100.95 100.92c-2.203-1.037-4.406-2.073-6.78-3.388-.189-2.02-.208-3.76.108-5.864 1.53-.266 2.725-.169 4.315-.032 1.2 1.408 2.003 2.776 2.686 4.56-.19 1.852-.26 3.287-.33 4.723"/><path fill="#C2C2FB" d="M81.803 88.648c-3.543.387-7.294.395-11.816.411-1.175 0-1.58-.008-2.132-.29-.988-.719-1.828-1.163-2.667-1.607-3.082-1.064-6.16-2.138-9.247-3.186-.828-.281-1.683-.484-2.236-.92 4.936-.196 9.58-.196 14.35-.196l1.312 5.409c3.979 0 8.104 0 12.436.379"/><path fill="#C6C5FF" d="M98.198 91.597c-1.195-.098-2.39-.195-3.95-.36-.808-.405-1.25-.74-1.953-1.182-.25-.894-.242-1.681.27-2.818 4.026-.754 5.657.9 5.633 4.36"/><path fill="#484371" d="M47.17 79.44c-.07.278-.499.532-1.3.662.066-.31.503-.498 1.3-.661"/><path fill="#F8D157" d="M65.126 87.521c.901.085 1.74.529 2.682 1.487.01.825-.05 1.143-.081 1.466 0 0-.159.185-.531.469-.689 2.235-1.005 4.186-1.321 6.137-.702-.02-1.404-.04-2.458-.061-.351-.003-.532-.008-.563-.25a8 8 0 0 0-.17-.754c-3.474-3.96-.6-6.063 2.442-8.494"/><path fill="#2F2852" d="M62.597 96.133c.133.052.18.223.167.65-.29.032-.355-.232-.167-.65"/><path fill="#FEEB99" d="M113.02 70.952c1.214.1 2.428.2 3.505.711a6.7 6.7 0 0 1-.954 1.328l1.24.061c.387 1.076.774 2.152.857 3.589-.666.563-1.027.764-1.39.964l.818.442c-.035.426-.07.852-.35 1.614-.246.337-.634.373-1.01.365-1.819.69-3.26 1.387-4.718 2.45.04 2.408.097 4.452-.112 6.616-1.215 1.033-2.164 1.946-3.413 2.994-.667 1.338-1.034 2.541-1.453 3.78-.053.034-.178.04-.388.048s-.625-.05-.688-.358c-.063-3.777-.063-7.244-.063-12.423-2.87-3.987-7.84-8.709-15.201-10.528-.523-.288-.894-.443-1.264-.599-.064-.775-.127-1.55.23-2.698 1.768.038 3.092.541 4.462.838 3.387.734 6.957 2.784 10.061-1.245.487-.376.738-.627 1.302-.903 1.05-.63 1.786-1.235 2.523-1.84 0 0 .472-.129.83.242 1.293.78 2.227 1.188 3.28 1.723.121.127.017.462.048.799.636.901 1.242 1.465 1.847 2.03m-8.254 5.901c.082.38.165.76.65 1.283l.889-.096a16 16 0 0 0-1.54-1.187"/><path fill="#FFFEFE" d="M89.852 72.738c7.208 1.686 12.179 6.408 15.05 10.395 0 5.179 0 8.646-.3 12.46-1.267.294-2.235.24-3.202.187-.804-1.368-1.608-2.736-2.807-4.144-.37-3.498-2.002-5.153-5.913-4.777-.693-1.251-.864-3.483-1.322-3.544-5.767-.761-3.474-5.091-3.808-8.641.039-.422.46-.53.876-.726a9.5 9.5 0 0 0 1.426-1.21"/><path fill="#F9AE39" d="M102.954 69.028c-2.869 3.902-6.44 1.852-9.826 1.118-1.37-.297-2.694-.8-4.434-1.227-1.65-.493-2.907-.967-4.069-1.858 3.499-.668 6.903-.92 10.525-.938a71 71 0 0 0 6.265 2.82c.74.062 1.163.09 1.588.09.003-.027-.049-.005-.049-.005"/><path fill="#DCA947" d="M83.782 57.566c2.49.273 4.994.965 7.969 2.07.72 1.425.972 2.437.848 3.32-3.202.215-6.029.56-8.855.906.017-1.96.035-3.918.038-6.296"/><path fill="#29224C" d="M83.466 64.05c3.104-.534 5.93-.879 9.263-.793a34 34 0 0 1 2.202 2.631c-3.403.252-6.807.505-10.575.96-.631-.734-.9-1.672-.89-2.798"/><path fill="#F8E494" d="M89.7 72.605c-.185.471-.522.81-1.077 1.25-.252-.333-.285-.769-.253-1.526.436-.167.807-.012 1.33.276"/><path fill="#29224C" d="M79.144 48.26c.258-.08.45.122.714.533-.183.029-.467-.125-.714-.532"/><path fill="#241D48" d="M88.555 15.528c1.387.033 2.622.36 3.856.685l-1.759 3.079c-.75-1.157-1.5-2.314-2.097-3.764m.02 10.992c1.444-.092 2.729.12 4.014.331l-1.391 2.722c-.928-.916-1.855-1.832-2.623-3.053M114 27c-.963.883-1.875 1.843-2.949 2.561-.156.104-1.664-1.173-1.563-1.44.404-1.068 1.194-1.99 2.324-2.796 1.05.671 1.62 1.173 2.189 1.675"/><path fill="#221C47" d="M114.162 26.79c-.73-.292-1.3-.794-2.015-1.543.628.28 1.402.806 2.015 1.543"/><path fill="#C6C5FF" d="M101.279 96.196c1.088-.363 2.056-.31 3.386-.294.362-.037.777.02 1.04.344-.732 4.886 4.465 2.707 5.46 5.1.106.792-.082 1.982.364 2.309 2.488 1.826 5.26 3.282 7.646 5.22.822.667.815 2.356 1.282 3.892l3.051.326 6.82 9.463c.404.06 1.823.276 3.243.49l-.72 1.012 5.05 3.999 1.074-.752c0 1.265 0 2.53-.32 3.956-.489-3.606-3.037-3.457-5.706-3.11-2.067-.742-4.134-1.484-6.597-2.2-.395.028-.362.062-.303-.321-.694-2.45-1.448-4.514-2.154-6.995.708-4.627-1.763-4.992-5.263-4.68-2.432-.795-4.549-1.394-6.665-1.992 0 0 .028.042.035-.347-.327-6.251-2.802-8.526-8.898-8.574a30 30 0 0 1-1.994-1.86c-.091-1.699-.022-3.134.169-4.986"/><path fill="#F8D157" d="M111.48 101.207c-1.31-2.254-6.507-.075-5.565-4.969-.053-.333.072-.338.438-.405 2.663-.793 4.302-1.705 1.44-3.882.949-.913 1.898-1.826 3.518-2.856 4.614-.013 8.085-.793 9.736-4.971l4.022 4.38-5.293.73c.418 1.626.82 3.192 1.619 4.804.413.452.429.858.41 1.566-1.105 1.385-2.57 2.286-3.168 3.586-1.628 3.538-4.035 3.195-7.157 2.017"/><path fill="#7976F9" d="M132.963 128.554c2.655-.75 5.203-.9 5.624 3.133.304.696.357 1.128.445 1.886-1.706 1.303-3.446 2.28-5.515 3.315-.378-.999-.427-2.055-.49-3.508-.026-1.74-.038-3.082-.064-4.826m14.208 15.309c-1.57.15-2.943.135-4.726.16-.424-2.308-.438-4.657-.447-7.442 1.837-.016 3.669.405 5.98.936 0 1.407 0 2.98.029 4.976-.193.682-.416.943-.836 1.37"/><path fill="#241D48" d="M141.573 91.472c.775-1.218 1.705-2.13 2.635-3.042l1.379 2.728c-1.286.206-2.572.413-4.014.314m4.064-21.636c-1.343.533-2.63.729-3.918.924l.478-3.012c1.166.584 2.33 1.167 3.44 2.088m-.753 11.298c-1.243.094-2.27-.031-3.298-.156l.755-1.974c.92.637 1.84 1.274 2.543 2.13"/><path fill="#221C47" d="M130 61c.624 1.413 1.642 2.787 1.79 4.248.29 2.882-.006 5.818.134 8.722.138 2.868-.511 4.852-3.874 5.017-3.025.149-5.28-.336-5.063-4.144.13-2.3.018-4.613.447-7.382 5.101.221 7.308-1.613 6.566-6.461"/><path fill="#221B47" d="M111.14 68.585s.105-.335.051-.711c-.116-.537-.178-.697-.24-.858.358-.896.884-1.763 1.04-2.693.536-3.198 2.612-4.918 5.484-4.027 1.45.45 3.372 3.28 3.062 4.537-.404 1.638-2.736 2.886-4.395 4.085-.558.403-1.595.142-3.134.15-1.103-.186-1.485-.335-1.867-.483"/><path fill="#F8D157" d="M95.15 66.123c-.784-.968-1.35-1.702-2.045-2.737a72 72 0 0 1-.95-3.644c4.164-.743 8.522-1.538 10.59 3.998.056 1.292.235 2.204.341 3.19-.073.072-.218.22-.488.276-.68.605-1.09 1.154-1.498 1.703-1.911-.85-3.822-1.7-5.95-2.786"/><path fill="#221B47" d="M123.002 49.457c2.37-.443 4.74-.45 7.553-.451.433 1.668.935 3.582.279 4.933-.772 1.587-2.55 2.685-3.89 3.996-1.305-1.349-2.904-2.528-3.808-4.106-.577-1.006-.125-2.603-.134-4.372"/><path fill="#221C47" d="M121.015 83.746c-1.62 4.556-5.09 5.336-9.439 5.23-.46-2.048-.517-4.092-.188-6.557 1.832-1.076 3.278-1.73 4.724-2.385 0 0 .388-.036.582-.056 1.558 1.116 2.923 2.253 4.32 3.768"/><path fill="#221B47" d="M129.6 61c1.142 4.848-1.065 6.682-6.166 6-.197-1.443.038-2.885.701-4.719A20 20 0 0 1 126 61z"/><path fill="#FEE88F" d="M103.16 66.857c-.18-.913-.36-1.825-.256-2.776 1.36.577 2.437 1.193 3.812 1.943-.439.739-1.175 1.344-2.378 1.765-.704-.434-.941-.683-1.178-.932m7.47.083c.383.237.445.397.44.807-1-.16-1.933-.568-2.993-1.272.66-.068 1.446.16 2.553.465m.542 1.982c.35-.189.733-.04 1.415.183.305.471.31.868.373 1.555-.546-.273-1.152-.837-1.788-1.738"/><path fill="#221C47" d="M125.802 60.852c-.28.444-.76.74-1.52 1.093.254-.377.788-.808 1.52-1.093"/><path fill="#FEE88F" d="M116.868 72.782c-.47.25-.883.23-1.297.21.272-.306.544-.612 1.028-.97.25.128.288.309.269.76m.474 5.187c-.518-.069-.79-.216-1.063-.364.362-.2.723-.401 1.315-.612.15.293.072.595-.252.976"/><path fill="#615EE8" d="M123.848 119.051c.753 2.065 1.507 4.13 2.223 6.588-3.862-.294-7.687-.98-11.303-1.63-.98-3.973-1.874-7.595-2.784-11.631 2.1.183 4.216.782 6.665 1.97-.045 4.326 2.284 4.86 5.2 4.703m-20.789-15.599c6.14-.362 8.615 1.913 8.964 8.178-7.365.158-8.973-1.298-8.963-8.178"/><path fill="#FEEB99" d="M65.92 97.472c.271-2.343.587-4.294 1.188-6.445 2.758 4.952 5.233 10.105 7.81 15.61-.304.358-.711.363-1.42.322-2.58-3.169-8.469-3.406-7.577-9.487m2.096-6.957c-.26-.364-.198-.682-.06-1.233.45-.23.855-.223 1.56-.18-.203.507-.706.98-1.5 1.413"/><path fill="#7D7AF7" d="M55.006 56.006c-.569-4.003 1.34-5.273 5.14-5.057 3.957.226 7.939.045 12.377.035.545 4.132-.172 8.243 3.726 11.637 1.589 1.384 1.74 4.781-2.586 5.006-1.841-1.17-3.206-1.989-4.601-3.242-.195-8.381-.195-8.38-8.171-8.385-1.968 0-3.936-.009-5.904-.013z"/><path fill="#C6C5FF" d="M69.091 64.82c1.366.818 2.731 1.636 4.207 2.826-.18.668-.471.964-1.021 1.436-1.455.732-2.77 1.127-3.814 1.893-1.025.752-1.774 1.881-2.644 2.845-.636-1.309-1.273-2.618-1.897-4.73-.057-4.619 2.868-3.98 5.17-4.27"/><path fill="#9695F8" d="M69.062 64.385c-2.272.724-5.197.086-5.184 4.304-9.182.052-8.936 1.944-8.894-8.822.004-.983.001-1.966.002-3.414 1.969-.462 3.937-.454 5.905-.453 7.976.005 7.976.004 8.17 8.385"/><path fill="#F8E494" d="M107.493 92.086c3.162 2.042 1.523 2.954-1.087 3.712.053-1.17.42-2.374 1.087-3.712"/><path fill="#FEE88F" d="M115.736 80.026c-1.07.663-2.516 1.317-4.332 2.028 1.071-.641 2.513-1.339 4.332-2.028m-10.681-3.046 1.249 1.06c-.297.032-.593.064-1.082-.23-.185-.493-.176-.662-.167-.83"/><path fill="#F8E494" d="M104.91 76.916c.136.232.127.401.11.823-.09-.126-.173-.506-.11-.823"/><path fill="#F8D157" d="M103.086 66.93c.311.176.548.425.94.884-.099.46-.35.71-.837 1.087-.235.127-.183.105-.196-.188-.05-.716-.088-1.14-.125-1.563 0 0 .145-.148.218-.22"/><path fill="#FEE88F" d="M102.598 67.206c.307.367.345.79.393 1.534-.413.293-.837.265-1.576.203.094-.583.503-1.132 1.183-1.737"/><path fill="#7976F9" d="M123.895 118.635c-2.962.574-5.291.039-4.93-4.09 3.167-.902 5.638-.537 4.93 4.09"/></svg>