<svg xmlns="http://www.w3.org/2000/svg" fill="none" viewBox="0 0 48 53"><g fill="#CEB575" clip-path="url(#spo_svg-a)"><path d="m26.706 41.763-2.583 4.448-2.582-4.448v-.066l2.582-4.448 2.582 4.448zm3.936-.066a3.84 3.84 0 0 0-.434-1.843l-5.018-8.632c-.589-1.017-1.553-1.017-2.134 0l-5.018 8.632a4.06 4.06 0 0 0 0 3.657l5.018 8.64c.581 1.01 1.545 1.01 2.134 0l5.018-8.64a3.8 3.8 0 0 0 .434-1.836zm-3.936-30.46v.037l-2.583 4.44-2.582-4.447v-.059l2.582-4.448 2.583 4.441zm3.936 0a3.86 3.86 0 0 0-.434-1.843L25.19.762c-.588-1.01-1.552-1.017-2.134 0L18.04 9.394a4.07 4.07 0 0 0 0 3.658l5.017 8.632c.582 1.01 1.546 1.01 2.134 0l5.018-8.632c.296-.57.445-1.203.434-1.844zm10.675 5.391-2.582 4.448h-5.21l2.583-4.448zm6.011-2.926c0-.607-.485-1.024-1.324-1.024H35.976a4.14 4.14 0 0 0-1.824.543 4.1 4.1 0 0 0-1.384 1.3l-5.01 8.632c-.154.247-.24.53-.25.82 0 .607.478 1.024 1.316 1.024h10.028a4.1 4.1 0 0 0 1.826-.541 4.1 4.1 0 0 0 1.382-1.303l5.011-8.632c.158-.245.247-.528.257-.82M14.75 31.888l-2.583 4.448-.051.037h-5.15l2.582-4.448.059-.037h5.15zm6.018-2.926c0-.6-.485-1.017-1.324-1.017H9.386a4.1 4.1 0 0 0-1.819.541 4.1 4.1 0 0 0-1.381 1.296l-5.018 8.64a1.66 1.66 0 0 0-.25.819c0 .6.485 1.016 1.317 1.016h10.028a4.13 4.13 0 0 0 3.208-1.836l5.018-8.64c.153-.246.24-.529.25-.819zm-6.018-7.856H9.54l-2.582-4.448h5.21zm6.01 2.926a1.66 1.66 0 0 0-.25-.812l-5.024-8.632a4.1 4.1 0 0 0-1.384-1.301 4.14 4.14 0 0 0-1.824-.543H2.242c-.831 0-1.317.424-1.317 1.024.01.29.097.573.25.82l5.018 8.632a4.1 4.1 0 0 0 3.2 1.843h10.029c.838 0 1.324-.417 1.324-1.024zm20.557 12.341h-5.15l-.059-.037-2.582-4.448h5.15l.059.037zm6.011 2.926a1.6 1.6 0 0 0-.257-.82L42.06 29.84a4.1 4.1 0 0 0-1.384-1.297 4.1 4.1 0 0 0-1.824-.54H28.824c-.838 0-1.317.418-1.317 1.025.011.288.098.568.25.812l5.01 8.64a4.13 4.13 0 0 0 3.208 1.836h10.029c.839 0 1.324-.425 1.324-1.024z"/></g><defs><clipPath id="spo_svg-a"><path fill="#fff" d="M0 0h48v53H0z"/></clipPath></defs></svg>