<svg xmlns="http://www.w3.org/2000/svg" width="40" height="40" fill="none" viewBox="0 0 40 40"><g clip-path="url(#spoton_svg-a)"><path fill="#D2F7DF" d="M20 0c11.046 0 20 8.954 20 20s-8.954 20-20 20S0 31.046 0 20 8.954 0 20 0"/><path fill="#1ED760" d="M26 6a8 8 0 0 1 8 8v12a8 8 0 0 1-8 8H14a8 8 0 0 1-8-8V14a8 8 0 0 1 8-8z"/><g clip-path="url(#spoton_svg-b)"><path fill="#fff" d="M20 10c-5.5 0-10 4.5-10 10s4.5 10 10 10 10-4.5 10-10-4.45-10-10-10m4.6 14.45c-.2.3-.55.4-.85.2-2.35-1.45-5.3-1.75-8.8-.95-.35.1-.65-.15-.75-.45-.1-.35.15-.65.45-.75 3.8-.85 7.1-.5 9.7 1.1.35.15.4.55.25.85m1.2-2.75c-.25.35-.7.5-1.05.25-2.7-1.65-6.8-2.15-9.95-1.15-.4.1-.85-.1-.95-.5s.1-.85.5-.95c3.65-1.1 8.15-.55 11.25 1.35.3.15.45.65.2 1m.1-2.8c-3.2-1.9-8.55-2.1-11.6-1.15-.5.15-1-.15-1.15-.6-.15-.5.15-1 .6-1.15 3.55-1.05 9.4-.85 13.1 1.35.45.25.6.85.35 1.3-.25.35-.85.5-1.3.25"/></g></g><defs><clipPath id="spoton_svg-a"><path fill="#fff" d="M0 0h40v40H0z"/></clipPath><clipPath id="spoton_svg-b"><path fill="#fff" d="M10 10h20v20H10z"/></clipPath></defs></svg>