<svg xmlns="http://www.w3.org/2000/svg" width="40" height="40" fill="none" viewBox="0 0 40 40"><g clip-path="url(#spyon_svg-a)"><path fill="#E9D4FC" d="M20 0c11.046 0 20 8.954 20 20s-8.954 20-20 20S0 31.046 0 20 8.954 0 20 0"/><path fill="#450E78" d="M26 6a8 8 0 0 1 8 8v12a8 8 0 0 1-8 8H14a8 8 0 0 1-8-8V14a8 8 0 0 1 8-8z"/><path fill="#fff" fill-rule="evenodd" d="M12.992 19.947c.72.692 1.412 1.272 1.412 2.49 0 1.326-.664 2.24-2.187 2.24-1.081 0-2.106-.443-2.19-2.158L10 21.883l1.469-.083.027.387c.055.775.333 1.023.72 1.023.332 0 .498-.193.498-.607 0-.555-.609-1.052-1.218-1.55-.887-.774-1.385-1.439-1.385-2.6 0-1.189.692-2.13 2.133-2.13 1.108 0 1.966.498 2.05 2.13l.028.442-1.414.084v-.388c0-.497-.166-.856-.609-.856-.249 0-.498.165-.498.58-.028.61.304.83 1.191 1.632m15.18 4.62-.721-3.265h-.138v3.264h-1.829V16.49h2.354c1.275 0 2.106.802 2.106 2.323 0 .913-.332 1.66-.886 2.075L30 24.566zm-.86-4.316h.166c.305 0 .637-.166.637-1.19 0-1.05-.276-1.216-.582-1.216h-.221zm-7.23-3.76h2.326c1.635 0 2.466 1.299 2.466 4.037s-.83 4.038-2.465 4.038h-2.327zm2.105 1.354h-.276v5.393h.276c.527 0 .832-.47.832-2.71s-.305-2.683-.832-2.683M16.87 21.8v2.766h-1.83V16.49h2.383c1.302 0 2.134.774 2.134 2.656 0 1.824-.832 2.654-2.272 2.654zm.276-3.955h-.249v2.628h.25c.277 0 .58-.194.58-1.328 0-1.107-.303-1.3-.58-1.3" clip-rule="evenodd"/></g><defs><clipPath id="spyon_svg-a"><path fill="#fff" d="M0 0h40v40H0z"/></clipPath></defs></svg>