<svg xmlns="http://www.w3.org/2000/svg" width="1250" height="500" fill="none" viewBox="0 0 1250 500"><g clip-path="url(#ssol_svg-a)"><path fill="#084D3E" d="M1250 0H0v500h1250z"/><path fill="#fff" d="M273.635 145.93h136.16L387.4 187.386H251.241zm-23.29 165.827h114.66l-22.394 41.456H227.95zm-20.895-82.915h180.346l-22.102 41.456H207.348zm-27.477-41.455 49.268-.001-22.395 41.457h-49.268zM387.4 270.299h43.893l-22.394 41.457-43.894.001zm186.014-.869v27.03l-19.236 11.11h-43.115v-14.427h46.266v-20.396h-27.03l-19.236-11.111v-25.869l19.236-11.11h41.457v14.427h-44.608v19.236h27.03zm97.031 27.859-19.236 11.11h-32.005l-19.236-11.11v-62.351l19.236-11.11h32.005l19.236 11.11zm-54.392-59.034v55.718h38.306v-55.718zm100.153 69.315-19.236-11.11V186.517h16.086v106.626h19.899v14.427zm46.164-33.994v20.397h33.331v-20.397zm3.15 34.823-19.236-11.11v-27.03l19.236-11.11h30.181v-20.065h-41.125v-14.427h37.974l19.236 11.11v72.632h-4.311l-11.774-6.798-11.774 6.798zm80.452 32.337 14.427-36.98-32.004-79.099h16.085l23.547 59.034h.332l23.382-59.034h16.085l-46.1 116.079zm143.864-47.593v14.427H943.57l-19.235-11.11v-61.522l19.235-11.11h27.03l19.236 11.11v36.814H940.42v21.391zm-49.416-54.888v19.07h33.331v-19.07zm122.16.829h-30.18v68.486h-16.08v-82.913h12.1l3.98 6.799 11.78-6.799h18.4z"/></g><defs><clipPath id="ssol_svg-a"><path fill="#fff" d="M0 0h1250v500H0z"/></clipPath></defs></svg>