<?xml version="1.0" encoding="UTF-8"?>
<svg version="1.1" xmlns="http://www.w3.org/2000/svg" width="64" height="64">
<path d="M0 0 C4.06523576 2.90373983 7.96785539 6.34542115 10 11 C9.79193838 15.44821402 7.92116509 17.63939586 4.9375 20.8125 C3.83728516 21.99779297 3.83728516 21.99779297 2.71484375 23.20703125 C2.14894531 23.79871094 1.58304688 24.39039062 1 25 C-2.55736507 23.5328827 -4.44195167 21.6293581 -6.8125 18.625 C-7.43769531 17.85414062 -8.06289062 17.08328125 -8.70703125 16.2890625 C-10 14 -10 14 -9.9140625 12.00390625 C-8.75976405 9.47332887 -7.29321547 7.48938744 -5.5625 5.3125 C-4.94503906 4.52488281 -4.32757812 3.73726562 -3.69140625 2.92578125 C-2 1 -2 1 0 0 Z " fill="#1AA4F7" transform="translate(19,15)"/>
<path d="M0 0 C3.95651429 0.53587101 5.68080322 2.34406791 8.3125 5.25 C9.03050781 6.01828125 9.74851562 6.7865625 10.48828125 7.578125 C12 10 12 10 11.97265625 12.49609375 C10.80117303 15.51183972 9.29430796 17.41672583 7.125 19.8125 C6.07699219 20.99779297 6.07699219 20.99779297 5.0078125 22.20703125 C3 24 3 24 0 24 C-2.078125 21.98828125 -2.078125 21.98828125 -4.25 19.3125 C-4.97703125 18.44238281 -5.7040625 17.57226562 -6.453125 16.67578125 C-8 14 -8 14 -7.95703125 11.46875 C-6.83819229 8.58260215 -5.39959292 6.57768592 -3.4375 4.1875 C-2.47650391 3.00220703 -2.47650391 3.00220703 -1.49609375 1.79296875 C-1.00238281 1.20128906 -0.50867188 0.60960938 0 0 Z " fill="#1AA4F8" transform="translate(30,0)"/>
<path d="M0 0 C3.95651429 0.53587101 5.68080322 2.34406791 8.3125 5.25 C9.03050781 6.01828125 9.74851562 6.7865625 10.48828125 7.578125 C12 10 12 10 11.97265625 12.49609375 C10.80117303 15.51183972 9.29430796 17.41672583 7.125 19.8125 C6.07699219 20.99779297 6.07699219 20.99779297 5.0078125 22.20703125 C3 24 3 24 0 24 C-2.078125 21.98828125 -2.078125 21.98828125 -4.25 19.3125 C-4.97703125 18.44238281 -5.7040625 17.57226562 -6.453125 16.67578125 C-8 14 -8 14 -7.95703125 11.46875 C-6.83819229 8.58260215 -5.39959292 6.57768592 -3.4375 4.1875 C-2.47650391 3.00220703 -2.47650391 3.00220703 -1.49609375 1.79296875 C-1.00238281 1.20128906 -0.50867188 0.60960937 0 0 Z " fill="#1BA5F8" transform="translate(30,40)"/>
<path d="M0 0 C4.66132863 3.57729872 7.73911534 7.10867301 11 12 C8.1686587 17.6626826 5.01243959 21.15619099 0 25 C-1.69393215 23.35446591 -3.35732623 21.69580608 -5 20 C-5.48855469 19.49597656 -5.97710937 18.99195312 -6.48046875 18.47265625 C-10.02521995 14.57045115 -10.02521995 14.57045115 -9.91796875 12.14453125 C-8.6265523 9.1275626 -6.67117508 7.14097614 -4.4375 4.75 C-3.61121094 3.85796875 -2.78492188 2.9659375 -1.93359375 2.046875 C-1.29550781 1.37140625 -0.65742187 0.6959375 0 0 Z " fill="#1AA4F8" transform="translate(44,15)"/>
</svg>
