<svg xmlns="http://www.w3.org/2000/svg" fill="none" viewBox="0 0 117 117"><g clip-path="url(#stg_svg-a)"><mask id="stg_svg-b" width="117" height="117" x="0" y="0" maskUnits="userSpaceOnUse" style="mask-type:luminance"><path fill="#fff" d="M116.3 0H0v116.3h116.3z"/></mask><g mask="url(#stg_svg-b)"><mask id="stg_svg-c" width="117" height="117" x="0" y="0" maskUnits="userSpaceOnUse" style="mask-type:luminance"><path fill="#fff" d="M116.3 0H0v116.3h116.3z"/></mask><g mask="url(#stg_svg-c)"><path fill="#999" d="m69.7 4.6 3.1 7.3c6.1 14.2 17.4 25.6 31.7 31.7l7.3 3.1c1.9.8 3.4 2 4.6 3.4-3.6-25.9-24.1-46.4-50-50 1.3 1.1 2.5 2.6 3.3 4.5m-65.1 42 7.3-3.1c14.2-6.1 25.6-17.4 31.7-31.7l3.1-7.3c.7-1.8 1.9-3.4 3.4-4.6C24.2 3.5 3.7 24 .1 49.9c1.1-1.3 2.6-2.5 4.5-3.3m107.1 23.1-7.3 3.1c-14.2 6.1-25.6 17.4-31.7 31.7l-3.1 7.2c-.7 1.8-1.9 3.4-3.4 4.6 25.9-3.6 46.4-24.1 50-50-1.1 1.5-2.7 2.7-4.5 3.4m-65.1 42-3.1-7.2c-6.1-14.2-17.4-25.6-31.7-31.7l-7.3-3.1c-1.8-.7-3.4-1.9-4.6-3.4 3.6 25.9 24.1 46.4 50 50-1.4-1.2-2.5-2.8-3.3-4.6"/></g><path fill="#010202" d="m31.8 52.5 3.6-1.5c7-3 12.6-8.6 15.6-15.6l1.5-3.6c2.1-5 9.2-5 11.4 0l1.5 3.6C68.4 42.4 74 48 81 51l3.6 1.5c5 2.1 5 9.2 0 11.4L81 65.4c-7 3-12.6 8.6-15.6 15.6l-1.5 3.6c-2.1 5-9.2 5-11.4 0L51 81c-3-7-8.6-12.6-15.6-15.6l-3.6-1.5c-5-2.2-5-9.3 0-11.4"/></g></g><defs><clipPath id="stg_svg-a"><path fill="#fff" d="M0 0h116.3v116.3H0z"/></clipPath></defs></svg>