<svg width="64" height="64" viewBox="0 0 64 64" fill="none" xmlns="http://www.w3.org/2000/svg"><path d="M32 64c17.673 0 32-14.327 32-32C64 14.327 49.673 0 32 0 14.327 0 0 14.327 0 32c0 17.673 14.327 32 32 32z" fill="#9E8952"/><path d="M32.996 8v17.74l14.994 6.7L32.996 8z" fill="#fff" fill-opacity=".602"/><path d="M32.996 8L18 32.44l14.996-6.7V8z" fill="#fff"/><path d="M32.996 43.936V55.99L48 35.232l-15.004 8.704z" fill="#fff" fill-opacity=".602"/><path d="M32.996 55.99V43.934L18 35.232 32.996 55.99z" fill="#fff"/><path d="M32.996 41.146L47.99 32.44l-14.994-6.696v15.402z" fill="#fff" fill-opacity=".2"/><path d="M18 32.44l14.996 8.706V25.744L18 32.44z" fill="#fff" fill-opacity=".602"/></svg>