<svg xmlns="http://www.w3.org/2000/svg" width="64" height="64" viewBox="524 306 469 469" fill="none">
  <rect width="1920" height="1080" fill="#298DFF"/>
  <!-- S-drop outer shape -->
  <path fill="#FFFFFF" transform="translate(756.3515625,359.41015625)" d="M0 0 C4.00362613 0.89166305 5.82780209 3.639223 8.2734375 6.71484375 C8.79486328 7.34648437 9.31628906 7.978125 9.85351562 8.62890625 C13.81777971 13.4608025 17.66629014 18.38855277 21.49584961 23.32763672 C25.30604881 28.22226144 29.31311291 32.92574683 33.37231445 37.61450195 C36.92405264 41.72310257 40.3573114 45.90767604 43.7265625 50.16796875 C47.31220486 54.68646116 50.98967444 59.13053083 54.6484375 63.58984375 C56.14872067 65.42294537 57.64872158 67.25627802 59.1484375 69.08984375 C59.8909375 69.99734375 60.6334375 70.90484375 61.3984375 71.83984375 C95.1484375 113.08984375 95.1484375 113.08984375 97.40625 115.85546875 C98.87225034 117.64327404 100.3459211 119.42482411 101.828125 121.19921875 C104.1333161 123.9720109 106.39947366 126.77124105 108.6484375 129.58984375 C109.07382812 130.1199707 109.49921875 130.65009766 109.9375 131.19628906 C134.61941065 162.2832277 144.39965043 199.34931328 140.1796875 238.6796875 C139.59058313 243.04793414 138.70645531 247.31273007 137.6484375 251.58984375 C137.45507812 252.3772998 137.26171875 253.16475586 137.0625 253.97607422 C130.68124922 279.03331588 118.66136589 300.14417234 100.6484375 318.58984375 C99.93429687 319.36585938 99.22015625 320.141875 98.484375 320.94140625 C76.31524359 344.43902493 41.65054117 359.24037678 9.55273438 360.73388672 C-6.18968699 361.18790455 -21.09216028 360.64899508 -36.3515625 356.58984375 C-37.50591797 356.28433594 -37.50591797 356.28433594 -38.68359375 355.97265625 C-72.21797857 346.71785158 -103.3104879 323.24498428 -120.78466797 293.11914062 C-128.54884549 279.17510097 -135.07741968 265.29815899 -138.3515625 249.58984375 C-138.52002686 248.86015381 -138.68849121 248.13046387 -138.86206055 247.37866211 C-140.67910218 238.75810794 -140.79054798 230.1710198 -140.7890625 221.40234375 C-140.79046234 220.61148376 -140.79186218 219.82062378 -140.79330444 219.00579834 C-140.77307695 205.05586346 -139.25424657 192.03459039 -135.3515625 178.58984375 C-135.16464844 177.91453613 -134.97773437 177.23922852 -134.78515625 176.54345703 C-129.81566142 159.05359607 -119.69180195 143.56342251 -108.3515625 129.58984375 C-107.77293457 128.87521973 -107.19430664 128.1605957 -106.59814453 127.42431641 C-103.06886023 123.08168338 -99.50306724 118.77057091 -95.91894531 114.47314453 C-93.77694356 111.89940598 -91.6568341 109.30856054 -89.5390625 106.71484375 C-88.84167969 105.86148438 -88.14429688 105.008125 -87.42578125 104.12890625 C-86.74128906 103.29101562 -86.05679688 102.453125 -85.3515625 101.58984375 C-83.85170554 99.75639339 -82.3517031 97.92306204 -80.8515625 96.08984375 C-80.1090625 95.18234375 -79.3665625 94.27484375 -78.6015625 93.33984375 C-73.3515625 86.92317708 -68.1015625 80.50651042 -62.8515625 74.08984375 C-62.10390625 73.17589844 -61.35625 72.26195312 -60.5859375 71.3203125 C-59.13859199 69.5516158 -57.69070949 67.78335832 -56.2421875 66.015625 C-51.76575205 60.55077954 -47.3044985 55.0738373 -42.8515625 49.58984375 C-37.69932613 43.24462993 -32.53208274 36.91199715 -27.3515625 30.58984375 C-25.85141969 28.75662727 -24.35142168 26.92329229 -22.8515625 25.08984375 C-22.11164063 24.18621094 -21.37171875 23.28257812 -20.609375 22.3515625 C-19.08050562 20.48147487 -17.55454682 18.60900459 -16.03125 16.734375 C-14.52157047 14.87926032 -13.00614367 13.02880454 -11.484375 11.18359375 C-10.10808346 9.50986192 -8.74739936 7.82311462 -7.40625 6.12109375 C-6.81070313 5.38890625 -6.21515625 4.65671875 -5.6015625 3.90234375 C-4.83585937 2.93748047 -4.83585937 2.93748047 -4.0546875 1.953125 C-2.3515625 0.58984375 -2.3515625 0.58984375 0 0 Z "/>
  <!-- S-drop inner carving 1 -->
  <path fill="#298DFF" transform="translate(755.8125,410.5625)" d="M0 0 C4.15823672 0.57073837 5.61817095 2.37740023 8.1875 5.4375 C8.74953125 6.0459375 9.3115625 6.654375 9.890625 7.28125 C14.48536623 12.28690304 18.67145574 17.55883227 22.83178711 22.92260742 C26.71287086 27.89905627 30.78030619 32.69054407 34.91040039 37.4609375 C38.46237214 41.57002445 41.89604921 45.75492173 45.265625 50.015625 C48.85126736 54.53411741 52.52873694 58.97818708 56.1875 63.4375 C57.68778317 65.27060162 59.18778408 67.10393427 60.6875 68.9375 C61.43 69.845 62.1725 70.7525 62.9375 71.6875 C69.6875 79.9375 69.6875 79.9375 71.94140625 82.69921875 C73.41930803 84.50097378 74.9060842 86.29549207 76.40234375 88.08203125 C100.05311645 116.47127159 110.49396387 144.06595852 108.1875 181.4375 C107.28445265 188.33001691 105.46753347 194.88381968 103.1875 201.4375 C102.81496094 202.53320312 102.44242188 203.62890625 102.05859375 204.7578125 C99.78422805 210.70127687 96.75829009 216.25064854 93.6875 221.8125 C93.31979492 222.47926758 92.95208984 223.14603516 92.57324219 223.83300781 C90.14454261 228.09987435 87.43011152 231.74960028 84.1875 235.4375 C81.98027291 232.12665937 81.4480546 229.67749063 80.5625 225.8125 C75.69875017 206.49247328 64.81411458 190.68134799 51.1875 176.4375 C50.48882813 175.6640625 49.79015625 174.890625 49.0703125 174.09375 C37.86673331 162.15360333 23.95922476 153.18364901 9.77197266 145.20385742 C-0.47548415 139.42959908 -9.26467041 132.50095258 -17.8125 124.4375 C-18.5240625 123.79039062 -19.235625 123.14328125 -19.96875 122.4765625 C-30.78115333 112.28795167 -38.17459558 98.2687426 -38.91894531 83.29638672 C-39.64584919 56.39517417 -32.15845148 34.21784337 -14.14941406 13.96875 C-11.43826546 10.86350456 -8.92021905 7.60135933 -6.37109375 4.36328125 C-3.24876238 0.50536304 -3.24876238 0.50536304 0 0 Z "/>
  <!-- S-drop inner carving 2 -->
  <path fill="#298DFF" transform="translate(680,499)" d="M0 0 C0.66 0 1.32 0 2 0 C2.12375 0.86238281 2.2475 1.72476562 2.375 2.61328125 C4.95472934 17.8820543 10.80056384 32.47571219 20 45 C20.59167969 45.81210937 21.18335938 46.62421875 21.79296875 47.4609375 C33.43023091 62.67335855 47.7373238 73.8908302 64.15234375 83.51635742 C76.23446422 90.62025492 88.01267465 98.09521453 98 108 C98.845625 108.804375 99.69125 109.60875 100.5625 110.4375 C101.7690625 111.7059375 101.7690625 111.7059375 103 113 C103.66515625 113.6703125 104.3303125 114.340625 105.015625 115.03125 C113.29818604 123.70821871 120.18801781 134.20236046 123 146 C123.20238281 146.80179688 123.40476562 147.60359375 123.61328125 148.4296875 C124.84490892 154.07674228 125.25300647 159.67509953 125.375 165.4375 C125.40102295 166.12400635 125.4270459 166.8105127 125.45385742 167.51782227 C125.4650248 170.63814126 125.22877336 172.65116543 123.50390625 175.28125 C120.05725502 177.64712604 116.53599556 178.82965942 112.5625 180.0625 C111.74974609 180.31854004 110.93699219 180.57458008 110.09960938 180.83837891 C108.4699494 181.34434646 106.8379648 181.8428945 105.20361328 182.33349609 C103.40668447 182.87699439 101.62126912 183.4584408 99.83984375 184.05078125 C74.17237593 191.50034894 45.44086812 184.64905176 22.51904297 172.3137207 C-0.16352214 159.46427289 -16.69501132 138.65534573 -25.875 114.4375 C-26.16133301 113.69491943 -26.44766602 112.95233887 -26.74267578 112.18725586 C-33.99231755 92.06655738 -34.20621893 65.1824878 -27 45 C-26.74798828 44.28569824 -26.49597656 43.57139648 -26.23632812 42.83544922 C-21.66041807 30.21877634 -15.40885428 19.67673019 -6.859375 9.3046875 C-5.17474332 7.21659361 -3.63690199 5.08949174 -2.125 2.875 C-1.42375 1.92625 -0.7225 0.9775 0 0 Z "/>
</svg>
