<svg xmlns="http://www.w3.org/2000/svg" width="80" height="80" fill="none" viewBox="0 0 80 80"><g clip-path="url(#suins_svg-a)"><rect width="80" height="80" fill="url(#suins_svg-b)" rx="40"/><g opacity=".25" style="mix-blend-mode:plus-lighter"><mask id="suins_svg-d" width="330" height="191" x="-136" y="-55" maskUnits="userSpaceOnUse" style="mask-type:alpha"><path fill="url(#suins_svg-c)" d="M-135.746-54.844h328.867v190.469h-328.867z"/></mask><g mask="url(#suins_svg-d)"><g opacity=".3"><g stroke="#00F9FB" stroke-linecap="round" stroke-miterlimit="10" stroke-width=".625" clip-path="url(#suins_svg-e)"><path d="M31.97 88.142a.605.605 0 0 0 .002.856l12.335 12.335c1.99 1.99 1.995 5.208.014 7.188-1.98 1.981-5.198 1.976-7.188-.014L24.798 96.172c-4.215-4.216-4.227-11.036-.03-15.233s11.017-4.185 15.233.03l8.305 8.305a.605.605 0 1 0 .855-.855L36.826 76.084c-1.99-1.99-1.995-5.208-.015-7.188S42.01 66.92 44 68.91l12.336 12.336c4.215 4.215 4.227 11.035.03 15.232-4.198 4.197-11.018 4.186-15.233-.03l-8.305-8.305a.605.605 0 0 0-.856-.001Zm24.16-23.921a.606.606 0 0 0 .857.857l8.305-8.305c4.215-4.215 11.051-4.212 15.27.007s4.221 11.055.007 15.27L68.234 84.385a5.096 5.096 0 0 1-7.206-.004 5.096 5.096 0 0 1-.004-7.206L73.36 64.84a.606.606 0 0 0-.857-.857l-8.305 8.305c-4.215 4.214-11.051 4.212-15.27-.007s-4.221-11.055-.007-15.27l12.335-12.335a5.096 5.096 0 0 1 7.207.003 5.096 5.096 0 0 1 .003 7.207z"/></g><g clip-path="url(#suins_svg-f)"><path stroke="#00F9FB" stroke-linecap="round" stroke-miterlimit="10" stroke-width=".625" d="M80.524 39.589a.605.605 0 0 0 .001.855L92.86 52.78c1.99 1.99 1.995 5.208.015 7.188s-5.199 1.975-7.189-.015L73.351 47.618c-4.215-4.215-4.227-11.035-.03-15.232 4.198-4.198 11.017-4.186 15.233.03l8.305 8.305a.606.606 0 1 0 .855-.855L85.38 27.53c-1.99-1.99-1.995-5.208-.014-7.189 1.98-1.98 5.198-1.975 7.188.015l12.335 12.335c4.215 4.215 4.227 11.035.03 15.233-4.197 4.197-11.017 4.185-15.233-.03l-8.305-8.306a.605.605 0 0 0-.856 0Z"/></g><g clip-path="url(#suins_svg-g)"><path stroke="#00F9FB" stroke-linecap="round" stroke-miterlimit="10" stroke-width=".625" d="M80.673 88.765a.606.606 0 0 0 .857.857l8.305-8.306c4.215-4.214 11.052-4.211 15.27.007 4.219 4.219 4.222 11.056.007 15.27l-12.335 12.335a5.096 5.096 0 0 1-7.206-.003 5.096 5.096 0 0 1-.004-7.207l12.335-12.335a.606.606 0 0 0-.857-.857l-8.305 8.305c-4.214 4.215-11.051 4.212-15.27-.007s-4.221-11.055-.007-15.27L85.798 69.22a5.096 5.096 0 0 1 7.207.003 5.096 5.096 0 0 1 .003 7.206z"/></g></g><g opacity=".3"><g clip-path="url(#suins_svg-h)"><path stroke="#00F9FB" stroke-linecap="round" stroke-miterlimit="10" stroke-width=".625" d="M-17.356-9.265a.606.606 0 0 0 .857.857l8.305-8.306c4.215-4.214 11.051-4.211 15.27.008 4.219 4.218 4.221 11.055.007 15.27L-5.252 10.897a5.096 5.096 0 0 1-7.207-.003 5.096 5.096 0 0 1-.003-7.206L-.127-8.647a.606.606 0 0 0-.857-.857l-8.305 8.306c-4.215 4.214-11.051 4.211-15.27-.007-4.219-4.22-4.221-11.056-.007-15.27l12.335-12.335a5.096 5.096 0 0 1 7.207.003 5.096 5.096 0 0 1 .003 7.206z"/></g><g stroke="#00F9FB" stroke-linecap="round" stroke-miterlimit="10" stroke-width=".625" clip-path="url(#suins_svg-i)"><path d="M-16.972 39.2a.605.605 0 0 0 .001.855l12.335 12.336c1.99 1.99 1.995 5.208.015 7.188s-5.198 1.975-7.188-.015L-24.145 47.23c-4.215-4.215-4.227-11.035-.03-15.232 4.198-4.198 11.018-4.186 15.233.03l8.305 8.305a.605.605 0 1 0 .856-.855l-12.336-12.335c-1.99-1.99-1.994-5.209-.014-7.189s5.198-1.975 7.188.015L7.392 32.303c4.216 4.216 4.228 11.036.03 15.233s-11.017 4.185-15.232-.03l-8.306-8.306a.605.605 0 0 0-.856 0Zm24.16-23.921a.606.606 0 0 0 .857.857L16.35 7.83c4.214-4.214 11.051-4.211 15.27.007 4.218 4.219 4.221 11.056.007 15.27L19.292 35.442a5.096 5.096 0 0 1-7.207-.003 5.096 5.096 0 0 1-.003-7.207l12.335-12.335a.606.606 0 0 0-.857-.857l-8.306 8.305c-4.214 4.215-11.05 4.212-15.27-.007-4.218-4.218-4.22-11.055-.006-15.27L12.313-4.265a5.096 5.096 0 0 1 7.206.003 5.096 5.096 0 0 1 .004 7.206z"/></g><g clip-path="url(#suins_svg-j)"><path stroke="#00F9FB" stroke-linecap="round" stroke-miterlimit="10" stroke-width=".625" d="M31.582-9.354a.605.605 0 0 0 0 .856L43.919 3.837c1.99 1.99 1.995 5.208.014 7.188-1.98 1.98-5.198 1.976-7.188-.014L24.41-1.324c-4.215-4.216-4.227-11.036-.03-15.233s11.017-4.185 15.232.03l8.306 8.306a.605.605 0 1 0 .855-.856L36.437-21.412c-1.99-1.99-1.995-5.208-.015-7.188s5.199-1.975 7.189.015L55.946-16.25c4.215 4.215 4.227 11.035.03 15.232s-11.017 4.186-15.233-.03l-8.305-8.305a.605.605 0 0 0-.856 0Z"/></g><g clip-path="url(#suins_svg-k)"><path stroke="#00F9FB" stroke-linecap="round" stroke-miterlimit="10" stroke-width=".625" d="M-16.822 88.376a.606.606 0 0 0 .857.857l8.305-8.306c4.215-4.214 11.051-4.211 15.27.007 4.219 4.219 4.221 11.056.007 15.27l-12.335 12.335a5.096 5.096 0 0 1-7.207-.003 5.096 5.096 0 0 1-.003-7.207L.407 88.994a.606.606 0 0 0-.857-.857l-8.305 8.305c-4.215 4.215-11.051 4.212-15.27-.007s-4.221-11.055-.007-15.27l12.335-12.335a5.096 5.096 0 0 1 7.206.004 5.096 5.096 0 0 1 .004 7.206z"/></g><g stroke="#00F9FB" stroke-linecap="round" stroke-miterlimit="10" stroke-width=".625" clip-path="url(#suins_svg-l)"><path d="M7.572 63.743a.605.605 0 0 0 0 .856l12.336 12.335c1.99 1.99 1.995 5.208.015 7.188s-5.199 1.976-7.189-.014L.4 71.773C-3.816 67.557-3.828 60.737.37 56.54s11.017-4.185 15.233.03l8.305 8.305a.605.605 0 1 0 .855-.855L12.427 51.685c-1.99-1.99-1.995-5.208-.015-7.188s5.199-1.975 7.189.014l12.335 12.335c4.215 4.216 4.227 11.036.03 15.233s-11.017 4.185-15.233-.03l-8.305-8.305a.605.605 0 0 0-.856-.001Zm24.159-23.921a.606.606 0 0 0 .857.857l8.306-8.305c4.214-4.215 11.05-4.212 15.27.007 4.218 4.218 4.22 11.055.006 15.27L43.835 59.984a5.096 5.096 0 0 1-7.206-.003 5.096 5.096 0 0 1-.004-7.206L48.961 40.44a.606.606 0 0 0-.858-.858l-8.305 8.306c-4.214 4.214-11.05 4.211-15.27-.007-4.218-4.219-4.221-11.055-.007-15.27l12.336-12.335a5.096 5.096 0 0 1 7.206.003 5.096 5.096 0 0 1 .003 7.207z"/></g><g stroke="#00F9FB" stroke-linecap="round" stroke-miterlimit="10" stroke-width=".625" clip-path="url(#suins_svg-m)"><path d="M56.125 15.19a.606.606 0 0 0 0 .856L68.462 28.38c1.99 1.99 1.995 5.208.015 7.188s-5.199 1.975-7.189-.015L48.952 23.22c-4.215-4.215-4.227-11.035-.03-15.232 4.197-4.198 11.017-4.186 15.233.03l8.305 8.305a.605.605 0 1 0 .855-.855L60.98 3.132c-1.99-1.99-1.995-5.208-.015-7.189s5.199-1.975 7.189.015L80.489 8.293c4.215 4.216 4.227 11.036.03 15.233s-11.017 4.185-15.233-.03l-8.305-8.306a.606.606 0 0 0-.856 0ZM80.284-8.731a.606.606 0 0 0 .857.857l8.306-8.306c4.214-4.214 11.051-4.211 15.269.008 4.219 4.218 4.222 11.055.007 15.27L92.388 11.431a5.096 5.096 0 0 1-7.206-.003 5.096 5.096 0 0 1-.004-7.206L97.513-8.113a.606.606 0 0 0-.857-.857L88.351-.664c-4.214 4.214-11.05 4.211-15.27-.007-4.218-4.22-4.221-11.056-.007-15.27L85.41-28.276a5.096 5.096 0 0 1 7.206.003 5.096 5.096 0 0 1 .003 7.206z"/></g></g></g></g><path fill="#221C36" fill-rule="evenodd" d="M25.837 37.023a.186.186 0 0 1 .37 0v7.429a7.023 7.023 0 1 0 14.044 0V33.419a3.419 3.419 0 1 0-6.836 0v11.033a.186.186 0 0 1-.371 0v-7.429a7.023 7.023 0 1 0-14.044 0v11.033a3.419 3.419 0 1 0 6.837 0zm21.541.11c0-.102.083-.185.186-.185h11.03a3.419 3.419 0 0 0 0-6.838h-11.03a7.023 7.023 0 0 0-7.022 7.023 7.023 7.023 0 0 0 7.022 7.023h7.427a.186.186 0 0 1 0 .372H43.96a3.419 3.419 0 0 0 0 6.837h11.03a7.023 7.023 0 0 0 7.023-7.023 7.023 7.023 0 0 0-7.022-7.023h-7.427a.186.186 0 0 1-.186-.186" clip-rule="evenodd" opacity=".1"/><g filter="url(#suins_svg-n)"><path fill="#fff" fill-rule="evenodd" d="M24.837 36.023a.186.186 0 0 1 .37 0v7.429a7.023 7.023 0 1 0 14.044 0V32.419a3.419 3.419 0 1 0-6.836 0v11.033a.186.186 0 0 1-.371 0v-7.429a7.023 7.023 0 1 0-14.044 0v11.033a3.419 3.419 0 1 0 6.837 0zm21.541.11c0-.102.083-.185.186-.185h11.03a3.419 3.419 0 0 0 0-6.838h-11.03a7.023 7.023 0 0 0-7.022 7.023 7.023 7.023 0 0 0 7.022 7.023h7.427a.186.186 0 0 1 0 .372H42.96a3.419 3.419 0 0 0 0 6.837h11.03a7.023 7.023 0 0 0 7.023-7.023 7.023 7.023 0 0 0-7.022-7.023h-7.427a.186.186 0 0 1-.186-.186" clip-rule="evenodd"/></g></g><rect width="79" height="79" x=".5" y=".5" stroke="url(#suins_svg-o)" rx="39.5"/><defs><clipPath id="suins_svg-a"><rect width="80" height="80" fill="#fff" rx="40"/></clipPath><clipPath id="suins_svg-e"><path fill="#fff" d="m16.725 88.54 48.02-48.02 24.009 24.01-48.02 48.02z"/></clipPath><clipPath id="suins_svg-f"><path fill="#fff" d="m65.278 39.987 48.02-48.02 24.01 24.01-48.02 48.02z"/></clipPath><clipPath id="suins_svg-g"><path fill="#fff" d="m41.268 113.084 48.02-48.02 24.01 24.01-48.02 48.02z"/></clipPath><clipPath id="suins_svg-h"><path fill="#fff" d="m-56.761 15.054 48.02-48.02 24.009 24.01-48.02 48.02z"/></clipPath><clipPath id="suins_svg-i"><path fill="#fff" d="m-32.218 39.598 48.02-48.02 24.01 24.01-48.02 48.02z"/></clipPath><clipPath id="suins_svg-j"><path fill="#fff" d="m16.336-8.956 48.02-48.02 24.01 24.01-48.02 48.02z"/></clipPath><clipPath id="suins_svg-k"><path fill="#fff" d="m-56.227 112.695 48.02-48.02 24.009 24.01-48.02 48.02z"/></clipPath><clipPath id="suins_svg-l"><path fill="#fff" d="m-7.674 64.141 48.02-48.02 24.01 24.01-48.02 48.02z"/></clipPath><clipPath id="suins_svg-m"><path fill="#fff" d="m40.879 15.588 48.02-48.02 24.01 24.01-48.02 48.02z"/></clipPath><linearGradient id="suins_svg-b" x1="98.5" x2="24.407" y1="40" y2="-24.427" gradientUnits="userSpaceOnUse"><stop stop-color="#4BFFA6"/><stop offset="1" stop-color="#D34BFF"/></linearGradient><linearGradient id="suins_svg-c" x1="28.688" x2="28.688" y1="42.19" y2="135.625" gradientUnits="userSpaceOnUse"><stop stop-color="#fff"/><stop offset="1" stop-color="#fff" stop-opacity="0"/></linearGradient><linearGradient id="suins_svg-o" x1="11.273" x2="95.735" y1="0" y2="29.708" gradientUnits="userSpaceOnUse"><stop stop-color="#4BFFA6"/><stop offset=".49" stop-color="#D34BFF"/><stop offset="1" stop-color="#4CA2FF"/></linearGradient><filter id="suins_svg-n" width="63.013" height="41.475" x="8" y="19" color-interpolation-filters="sRGB" filterUnits="userSpaceOnUse"><feFlood flood-opacity="0" result="BackgroundImageFix"/><feColorMatrix in="SourceAlpha" result="hardAlpha" values="0 0 0 0 0 0 0 0 0 0 0 0 0 0 0 0 0 0 127 0"/><feOffset/><feGaussianBlur stdDeviation="5"/><feComposite in2="hardAlpha" operator="out"/><feColorMatrix values="0 0 0 0 0.133333 0 0 0 0 0.109804 0 0 0 0 0.211765 0 0 0 0.2 0"/><feBlend in2="BackgroundImageFix" result="effect1_dropShadow_2002_6613"/><feBlend in="SourceGraphic" in2="effect1_dropShadow_2002_6613" result="shape"/></filter></defs></svg>