<svg xmlns="http://www.w3.org/2000/svg" width="32" height="32" viewBox="0 0 32 32">
  <rect width="100%" height="100%" fill="#1a1a1a" shape-rendering="crispEdges"/>
  <circle cx="16" cy="16" r="10" fill="none" stroke="#2E9AEF" stroke-width="2"/>
  <!-- Water drop centered -->
  <path d="M16 8 C16 8 21 14 21 17.5 C21 20.3 18.8 22.5 16 22.5 C13.2 22.5 11 20.3 11 17.5 C11 14 16 8 16 8Z" fill="#2E9AEF"/>
  <!-- Inner flame/drop shape -->
  <path d="M16 13 C16 13 18.5 16 18.5 17.8 C18.5 19.2 17.4 20.3 16 20.3 C14.6 20.3 13.5 19.2 13.5 17.8 C13.5 16 16 13 16 13Z" fill="#1a1a1a"/>
  <!-- Dollar sign -->
  <text x="7" y="19.5" text-anchor="middle" font-family="Arial,sans-serif" font-weight="bold" font-size="10" fill="#2E9AEF">$</text>
</svg>
