<svg version="1.2" xmlns="http://www.w3.org/2000/svg" fill="none" viewBox="0 0 310 310" width="310" height="310"><defs><clipPath clipPathUnits="userSpaceOnUse" id="cp1"><path d="M155 310C69.28 310 0 240.72 0 155S69.28 0 155 0s155 69.28 155 155-69.28 155-155 155z"/></clipPath><clipPath clipPathUnits="userSpaceOnUse" id="cp2"><path d="M155.5 262C96.61 262 49 214.39 49 155.5S96.61 49 155.5 49 262 96.61 262 155.5 214.39 262 155.5 262z"/></clipPath><linearGradient id="g1" x2="1" gradientUnits="userSpaceOnUse" gradientTransform="matrix(0 310 -310 0 155 0)"><stop offset="0" stop-color="#f5b745"/><stop offset="1" stop-color="#fc8b47"/></linearGradient></defs><style>.sun-s4 {fill:#fff}</style><path id="Layer" d="M155 310C69.3 310 0 240.7 0 155S69.3 0 155 0s155 69.3 155 155-69.3 155-155 155z" fill="url(#g1)"/><g id="Clip-Path" clip-path="url(#cp1)"><g id="Layer"><path id="Layer" fill-rule="evenodd" d="M151.7-37V71m-16-108V71m37-108V71M84-16l35 65.4V-25m105 7l-35 65.4V-27m-31.7 388V253m16 108V253m-37 108V253m89.7 88.3L191 276v74.4m-107-8.1l35-65.3v74.4M-44.5 164.8h108m-108 16h108m-108-37h108M-26 233l65.4-35H-35m16-103l65.4 35H-28m381.5 29.2h-108m108-16h-108m108 37h-108M331.3 91L266 126h74.4m-5.1 106L270 197h74.4M15.7 304.7l76.4-76.4m-65 87.7l76.3-76.4M.9 289.8l76.4-76.3m3.9 126.4l21.4-70.9L50 321.6m-72.6-84.4l70.9-21.4-52.5 52.5m297.5-249l-76.4 76.4m65-87.7l-76.3 76.4m102.5-50.2l-76.4 76.3m-1.5-124.1l-21.4 70.9 52.5-52.5m69.6 80.4L260 106.6 312.6 54m-15.4 246.8l-76.4-76.4m87.7 65l-76.4-76.3m50.2 102.5L206 239.2m126.9-2L262 215.8l52.6 52.5m-83.4 70.6L209.8 268l52.5 52.6M11.8 23.2l76.4 76.4M.5 34.6l76.4 76.3M26.7 8.4L103 84.8m-120.6 5.4l70.9 21.4L.8 59m79.4-69.6l21.4 70.9L49 7.8" fill="none" stroke="#fff" stroke-width="7"/></g></g><path id="Layer" d="M154.5 262C95.6 262 48 214.4 48 155.5S95.6 49 154.5 49 261 96.6 261 155.5 213.4 262 154.5 262z" fill="#f8ba3a" stroke="#fff" stroke-width="6"/><g id="Clip-Path" clip-path="url(#cp2)"><g id="Layer"><path id="Layer" fill-rule="evenodd" class="sun-s4" d="M160.5 45l-14 112.5h14L155 261.3 257 243l18.5-142.5L230.6 61z"/></g></g><path id="Layer" d="M56.5 141.4c2.5 19.6 15.2 40 34.8 37.6 66.6-8.1 57.2-50.9 56.3-64.8 4.9 39.3 34.7 53.7 84.6 47.5 14.8-1.8 20.9-30.8 19.3-44.2-2.1-16.8-46.4-19.2-101.7-12.4-55.3 6.8-96.3 11.8-93.3 36.3z" fill="#01c1ae" stroke="#01c1ae" stroke-linecap="round" stroke-linejoin="round" stroke-width="11"/><path id="Layer" d="M156.1 222.8c23.2-1.9 40.6-20.6 38.9-41.8l-84 6.9c1.7 21.2 21.9 36.8 45.1 34.9z" fill="#fff" stroke="#fe9d51" stroke-linejoin="round" stroke-width="5"/><path id="Layer" fill-rule="evenodd" d="M167 200h23" fill="none" stroke="#fe9a54" stroke-linecap="round" stroke-linejoin="round" stroke-width="4"/><path id="Layer" d="M179.5 152.5c-18-6.8-25.2-24.8-26.5-33 0-11 12.5-12.5 43-12.5s49 2.5 50.5 10.5c1.5 14-3.5 35-10.5 38.5s-34 5-56.5-3.5zm-52.9 9.4c14.4-9.5 21.9-27.9 17.4-43.4-2.6-8.8-16.6-6.7-43-2.5-23.5 3.7-41.5 14-39.5 23 1 14.7 12.4 30.3 19 33 6.6 2.7 28 1.8 46.1-10.1z" fill="#000" stroke="#000"/><path id="Layer" class="sun-s4" d="M251.5 72l8.8 23.7 23.7 8.8-23.7 8.8-8.8 23.7-8.8-23.7-23.7-8.8 23.7-8.8z"/></svg>