<?xml version="1.0" encoding="UTF-8"?>
<svg version="1.1" xmlns="http://www.w3.org/2000/svg" width="400" height="400">
<path d="M0 0 C132 0 264 0 400 0 C400 132 400 264 400 400 C268 400 136 400 0 400 C0 268 0 136 0 0 Z " fill="#7012FD" transform="translate(0,0)"/>
<path d="M0 0 C0.33 0 0.66 0 1 0 C2.15528741 21.1802691 -6.02765687 41.712021 -19.85107422 57.57373047 C-39.15028621 78.97463675 -65.07758635 90.63535501 -92.61621094 97.41113281 C-94.57528823 97.89508349 -96.527096 98.40836949 -98.4765625 98.9296875 C-106.67147276 101.02706559 -115.00912929 102.00237464 -123.39624023 102.9987793 C-124.36376221 103.11519775 -125.33128418 103.23161621 -126.328125 103.3515625 C-127.2037207 103.45291504 -128.07931641 103.55426758 -128.98144531 103.65869141 C-130.99113787 103.79803048 -130.99113787 103.79803048 -132 105 C-131.43418213 105.11480713 -130.86836426 105.22961426 -130.28540039 105.34790039 C-93.99494134 112.78771708 -59.85363729 122.78416898 -29.75 145 C-29.08782471 145.48637939 -28.42564941 145.97275879 -27.7434082 146.47387695 C-15.8447153 155.42065533 -8.2497412 166.24836578 -5 181 C-3.03639345 198.15150209 -8.93944287 212.1577604 -18.9921875 225.6796875 C-39.11289396 250.05231683 -74.24898033 255.34867059 -103.17196655 262.64465332 C-149.34304463 271.52676948 -149.34304463 271.52676948 -185.6875 298.5625 C-186.120625 299.366875 -186.55375 300.17125 -187 301 C-193.50694978 294.49305022 -192.28731584 277.06501745 -192.3125 268.375 C-192.32047607 267.02680176 -192.32047607 267.02680176 -192.32861328 265.65136719 C-192.18501656 252.09281396 -188.32182821 242.58525488 -178.55273438 233.02050781 C-148.50860449 205.03822998 -98.68979002 199.46197264 -60 194 C-60.8343457 193.81937012 -61.66869141 193.63874023 -62.52832031 193.45263672 C-101.90277974 184.87907836 -155.43106565 173.07100833 -179.41796875 136.859375 C-184.54446364 128.26009324 -186.55354647 119.57644561 -186.4375 109.625 C-186.42992676 108.7074292 -186.42235352 107.7898584 -186.41455078 106.84448242 C-186.0244439 90.73477685 -178.44338426 78.026272 -167 67 C-156.92067761 58.41916842 -145.15114689 52.13123684 -132.6015625 48.0546875 C-131.82236954 47.79878845 -131.04317657 47.5428894 -130.2403717 47.27923584 C-122.05165203 44.6299851 -113.76855784 42.40038776 -105.4375 40.25 C-103.80869654 39.8240411 -102.17995462 39.39784681 -100.55126953 38.97143555 C-91.7627543 36.68222776 -82.95466431 34.48747225 -74.12109375 32.37890625 C-73.22602112 32.16522903 -72.33094849 31.95155182 -71.40875244 31.73139954 C-70.51863464 31.51896103 -69.62851685 31.30652252 -68.71142578 31.08764648 C-45.99576801 25.72899878 -45.99576801 25.72899878 -24 18 C-22.99582031 17.58492187 -21.99164063 17.16984375 -20.95703125 16.7421875 C-12.55738296 12.90452671 -5.68964655 7.21858241 0 0 Z " fill="#FDFCFD" transform="translate(296,50)"/>
<path d="M0 0 C0.99 0.495 0.99 0.495 2 1 C2.02687279 2.81242052 2.04633715 4.62495233 2.0625 6.4375 C2.07410156 7.44683594 2.08570313 8.45617187 2.09765625 9.49609375 C2 12 2 12 1 13 C0.74625465 14.66310205 0.52340229 16.3309238 0.3125 18 C-0.57066763 23.56663235 -2.07387797 28.70105395 -3.9375 34 C-4.19039795 34.72960937 -4.4432959 35.45921875 -4.70385742 36.2109375 C-6.05096 39.93113609 -7.49147068 42.94455295 -10 46 C-10.34227417 47.33106622 -10.67751743 48.66400079 -11 50 C-11.99 50.495 -11.99 50.495 -13 51 C-12.95875 51.721875 -12.9175 52.44375 -12.875 53.1875 C-13.00967925 56.21778319 -13.80553203 58.23779281 -15 61 C-15 61.66 -15 62.32 -15 63 C-12.69 63.33 -10.38 63.66 -8 64 C-7.95041052 68.46572364 -7.914191 72.93129961 -7.89013672 77.3972168 C-7.88010455 78.91514886 -7.86647562 80.43306173 -7.84912109 81.95092773 C-7.82474965 84.1379064 -7.81348905 86.32462864 -7.8046875 88.51171875 C-7.79421387 89.82615967 -7.78374023 91.14060059 -7.77294922 92.49487305 C-7.98987537 95.84369961 -8.62820695 97.98252519 -10 101 C-10.20302091 103.60055011 -10.20302091 103.60055011 -10.0625 106.1875 C-9.90322581 110.80645161 -9.90322581 110.80645161 -11 113 C-11.66 113 -12.32 113 -13 113 C-12.938125 113.763125 -12.87625 114.52625 -12.8125 115.3125 C-13 118 -13 118 -14.375 119.8125 C-16 121 -16 121 -18 121 C-18 123.64 -18 126.28 -18 129 C-19.98 129.99 -19.98 129.99 -22 131 C-22 131.66 -22 132.32 -22 133 C-31.41002278 135.29612756 -31.41002278 135.29612756 -36 135 C-35.67 135.99 -35.34 136.98 -35 138 C-34.34 138.33 -33.68 138.66 -33 139 C-33.33 140.32 -33.66 141.64 -34 143 C-33.41992188 143.27714844 -32.83984375 143.55429688 -32.2421875 143.83984375 C-30.08500328 144.95601747 -28.1384883 146.20804502 -26.125 147.5625 C-22.76838504 149.69967057 -20.02796891 150.69790233 -16 151 C-16 151.66 -16 152.32 -16 153 C-16.66 153 -17.32 153 -18 153 C-18.33 154.32 -18.66 155.64 -19 157 C-19.57105469 156.45472656 -20.14210938 155.90945312 -20.73046875 155.34765625 C-42.11486423 135.45914853 -68.9107933 123.3201478 -96.81787109 115.61132812 C-98.72661341 115.07658984 -100.62422962 114.50245574 -102.51953125 113.921875 C-113.82112002 110.47810188 -125.42465882 108.31107379 -137 106 C-137 105.67 -137 105.34 -137 105 C-136.29842773 104.91548584 -135.59685547 104.83097168 -134.87402344 104.74389648 C-121.01581839 103.03013886 -107.4862791 100.9109774 -93.9375 97.5 C-92.80473633 97.21568115 -91.67197266 96.9313623 -90.50488281 96.63842773 C-67.58329073 90.66649913 -45.76450408 80.87591893 -28 65 C-27.36835938 64.45085937 -26.73671875 63.90171875 -26.0859375 63.3359375 C-11.48020005 49.79728589 -3.55463818 30.35711214 -1.3125 10.9375 C-1.11817383 9.35291992 -1.11817383 9.35291992 -0.91992188 7.73632812 C-0.60497555 5.15843412 -0.29852278 2.57983838 0 0 Z " fill="#7013F7" transform="translate(297,49)"/>
<path d="M0 0 C0.66 0 1.32 0 2 0 C2.05899621 3.77076545 2.09392568 7.54140926 2.125 11.3125 C2.14175781 12.36501953 2.15851563 13.41753906 2.17578125 14.50195312 C2.29625455 34.07886505 -4.06995288 50.91653154 -15 67 C-20.00026533 66.48273117 -23.30102301 64.08504592 -27.375 61.375 C-39.85198782 53.34916899 -53.07617285 47.99501289 -67 43 C-67 42.34 -67 41.68 -67 41 C-66.20585693 40.77650879 -65.41171387 40.55301758 -64.59350586 40.32275391 C-56.55542454 37.96867252 -49.09006293 35.03525609 -41.5625 31.375 C-40.47573975 30.84865967 -39.38897949 30.32231934 -38.26928711 29.7800293 C-24.69295064 23.05319841 -11.62141612 14.34574546 -2 2.4375 C-1.34 1.633125 -0.68 0.82875 0 0 Z " fill="#FBF7FC" transform="translate(286,114)"/>
<path d="M0 0 C0.90953762 3.10397759 1.13464149 5.89510222 1.125 9.125 C1.12886719 10.42824219 1.12886719 10.42824219 1.1328125 11.7578125 C1 14 1 14 0 16 C-0.66 16 -1.32 16 -2 16 C-1.938125 16.763125 -1.87625 17.52625 -1.8125 18.3125 C-2 21 -2 21 -3.375 22.8125 C-5 24 -5 24 -7 24 C-7 26.64 -7 29.28 -7 32 C-8.32 32.66 -9.64 33.32 -11 34 C-11 34.66 -11 35.32 -11 36 C-20.41002278 38.29612756 -20.41002278 38.29612756 -25 38 C-24.67 38.99 -24.34 39.98 -24 41 C-23.01 41.495 -23.01 41.495 -22 42 C-22.33 43.32 -22.66 44.64 -23 46 C-22.41992188 46.27714844 -21.83984375 46.55429688 -21.2421875 46.83984375 C-19.08500328 47.95601747 -17.1384883 49.20804502 -15.125 50.5625 C-11.76838504 52.69967057 -9.02796891 53.69790233 -5 54 C-5 54.66 -5 55.32 -5 56 C-5.66 56 -6.32 56 -7 56 C-7.33 57.32 -7.66 58.64 -8 60 C-8.57105469 59.45472656 -9.14210938 58.90945312 -9.73046875 58.34765625 C-23.13042508 45.88505775 -39.06340284 35.9561024 -56 29 C-52.62103629 28.04178641 -50.41222148 27.98555578 -47 29 C-46.67 29.66 -46.34 30.32 -46 31 C-44.02111039 31.72693904 -42.02045442 32.39816251 -40 33 C-40 33.66 -40 34.32 -40 35 C-39.1646875 34.4740625 -39.1646875 34.4740625 -38.3125 33.9375 C-35.46113217 32.78154007 -33.91482778 33.19032562 -31 34 C-31 35.32 -31 36.64 -31 38 C-28.9600281 36.63676257 -28.9600281 36.63676257 -27 35 C-27 34.34 -27 33.68 -27 33 C-29.47346304 30.52653696 -30.70761168 30.01686856 -34.25 29.8125 C-35.1575 29.874375 -36.065 29.93625 -37 30 C-36.67 28.02 -36.34 26.04 -36 24 C-31.08191239 25.7819158 -27.05806427 28.46712594 -22.71875 31.34375 C-20.19314899 32.88233452 -17.77409409 33.99489345 -15 35 C-14.773125 34.34 -14.54625 33.68 -14.3125 33 C-13.23779216 30.54352493 -12.14171881 28.59748536 -10.6875 26.375 C-5.44734974 18.13606168 -2.25234043 9.46715448 0 0 Z " fill="#6E1DE9" transform="translate(286,146)"/>
<path d="M0 0 C0.99 0.33 1.98 0.66 3 1 C2.67 2.65 2.34 4.3 2 6 C2.66 6 3.32 6 4 6 C2.54054054 10.62162162 2.54054054 10.62162162 0.125 12.3125 C-2 13 -2 13 -6 13 C-6 13.66 -6 14.32 -6 15 C-8.64738916 16.4606285 -9.89448334 17 -13 17 C-13 17.66 -13 18.32 -13 19 C-14.65 19 -16.3 19 -18 19 C-18 19.66 -18 20.32 -18 21 C-18.99 21 -19.98 21 -21 21 C-21 20.34 -21 19.68 -21 19 C-22.32 19 -23.64 19 -25 19 C-25 20.32 -25 21.64 -25 23 C-28 22 -28 22 -30 21 C-30 20.01 -30 19.02 -30 18 C-31.32 17.67 -32.64 17.34 -34 17 C-30.25474201 13.25474201 -26.01729091 13.31090051 -21 13 C-21 12.34 -21 11.68 -21 11 C-19.00522328 8.59272315 -17.17752585 7.46213405 -14.25 6.4375 C-13.55003906 6.18871094 -12.85007813 5.93992188 -12.12890625 5.68359375 C-10.16901996 5.05427246 -8.17859279 4.52225385 -6.1875 4 C-3.16841615 3.05283644 -1.8970213 2.45496875 0 0 Z " fill="#7012F8" transform="translate(254,128)"/>
<path d="M0 0 C-0.33 0.99 -0.66 1.98 -1 3 C-1.66 3 -2.32 3 -3 3 C-3 3.66 -3 4.32 -3 5 C-4.13179688 5.26554688 -5.26359375 5.53109375 -6.4296875 5.8046875 C-7.91154832 6.1610844 -9.3933143 6.51787576 -10.875 6.875 C-11.62136719 7.04902344 -12.36773437 7.22304687 -13.13671875 7.40234375 C-17.48883671 8.38923879 -17.48883671 8.38923879 -21 11 C-22.95135916 11.26459107 -24.90429617 11.5221856 -26.86328125 11.72265625 C-30.00956863 12.1310409 -32.95865164 13.10857031 -36 14 C-38.64853908 14.54389642 -41.30122374 15.04901522 -43.9609375 15.53515625 C-45.98333529 15.80591773 -45.98333529 15.80591773 -47 17 C-49.18019479 17.39666227 -51.3696463 17.74315237 -53.5625 18.0625 C-54.76003906 18.23910156 -55.95757812 18.41570312 -57.19140625 18.59765625 C-58.11824219 18.73042969 -59.04507813 18.86320312 -60 19 C-48.74335901 23.02321647 -48.74335901 23.02321647 -37 25 C-36.67 25.33 -36.34 25.66 -36 26 C-34.65252916 26.23075082 -33.29622435 26.41153063 -31.9375 26.5625 C-30.638125 26.706875 -29.33875 26.85125 -28 27 C-28 27.66 -28 28.32 -28 29 C-26.63875 28.9690625 -26.63875 28.9690625 -25.25 28.9375 C-22.55264733 28.98937217 -20.5552 29.26994286 -18 30 C-17.34 30 -16.68 30 -16 30 C-16 30.99 -16 31.98 -16 33 C-15.443125 33.12375 -14.88625 33.2475 -14.3125 33.375 C-11.7578959 34.06543354 -9.40539865 34.89481684 -7 36 C-6.67 36.66 -6.34 37.32 -6 38 C-6.54599854 37.81679199 -7.09199707 37.63358398 -7.65454102 37.44482422 C-30.21348218 29.89707984 -52.65100297 23.62282791 -76 19 C-76 18.67 -76 18.34 -76 18 C-74.9476416 17.87322876 -74.9476416 17.87322876 -73.87402344 17.74389648 C-60.01581839 16.03013886 -46.4862791 13.9109774 -32.9375 10.5 C-31.80473633 10.21568115 -30.67197266 9.9313623 -29.50488281 9.63842773 C-21.08020179 7.4434845 -12.9147784 4.74504127 -4.9375 1.25 C-2 0 -2 0 0 0 Z " fill="#7532D6" transform="translate(236,136)"/>
<path d="M0 0 C0.61593018 0.18062988 1.23186035 0.36125977 1.86645508 0.54736328 C15.64618352 4.56195979 29.42916724 8.14423998 43.48950195 11.04541016 C44.57448975 11.27405762 45.65947754 11.50270508 46.77734375 11.73828125 C48.21968384 12.03279175 48.21968384 12.03279175 49.69116211 12.33325195 C52 13 52 13 54 15 C49.46544491 15.69611922 44.93052378 16.38978771 40.39526367 17.08129883 C38.85610105 17.31632115 37.31703616 17.55198451 35.77807617 17.78833008 C27.86616355 19.00297944 19.96836041 20.21132269 12 21 C12.33 20.34 12.66 19.68 13 19 C15.50390625 18.5859375 15.50390625 18.5859375 18.5625 18.375 C19.57441406 18.30023438 20.58632812 18.22546875 21.62890625 18.1484375 C22.41136719 18.09945312 23.19382813 18.05046875 24 18 C24 17.34 24 16.68 24 16 C26.64 15.67 29.28 15.34 32 15 C32 14.01 32 13.02 32 12 C28.03302114 10.19682779 24.3177458 9.50797009 20 9 C20 8.34 20 7.68 20 7 C18.741875 7.28875 17.48375 7.5775 16.1875 7.875 C9.77588608 8.66113738 5.2193033 5.36571895 0 2 C0 1.34 0 0.68 0 0 Z " fill="#6C22DF" transform="translate(184,230)"/>
<path d="M0 0 C0.33 0 0.66 0 1 0 C1.25 2.25 1.25 2.25 1 5 C-0.6875 7.0625 -0.6875 7.0625 -3 9 C-3.7425 9.639375 -4.485 10.27875 -5.25 10.9375 C-11.52346319 15.6425974 -17.73160256 18.95927663 -25.125 21.5625 C-25.95104736 21.85987061 -26.77709473 22.15724121 -27.62817383 22.46362305 C-34.67162316 24.96313128 -41.77187023 27.09535447 -49 29 C-49.82371094 29.2371875 -50.64742187 29.474375 -51.49609375 29.71875 C-55.09485919 30.72244238 -57.4364727 31.08150719 -61 30 C-57.39587262 27.88154345 -53.6202968 27.18718093 -49.5625 26.4375 C-48.90701172 26.31181641 -48.25152344 26.18613281 -47.57617188 26.05664062 C-44.7566385 25.5164893 -41.94011761 24.99038326 -39.10546875 24.53515625 C-36.8109274 24.21020161 -36.8109274 24.21020161 -35.75 22 C-35.5025 21.34 -35.255 20.68 -35 20 C-33.12175109 18.12175109 -29.96064724 18.60897603 -27.4375 18.4375 C-25.64119141 18.31181641 -25.64119141 18.31181641 -23.80859375 18.18359375 C-22.88175781 18.12300781 -21.95492187 18.06242187 -21 18 C-21 17.34 -21 16.68 -21 16 C-18.09399739 14.74335022 -16.20395416 14 -13 14 C-13 13.34 -13 12.68 -13 12 C-12.01 11.34 -11.02 10.68 -10 10 C-10 9.01 -10 8.02 -10 7 C-5.86956522 2.43478261 -5.86956522 2.43478261 -3 1 C-3.33 2.32 -3.66 3.64 -4 5 C-0.75150023 3.27773504 -0.75150023 3.27773504 0 0 Z " fill="#701FE6" transform="translate(293,49)"/>
<path d="M0 0 C0.33 0 0.66 0 1 0 C1.33282483 6.10178848 0.67513774 11.75645273 -0.375 17.75 C-0.50108643 18.48275146 -0.62717285 19.21550293 -0.75708008 19.97045898 C-1.4676314 23.85389011 -2.37004361 27.39992241 -4 31 C-4.33 31 -4.66 31 -5 31 C-5.07427838 27.65747276 -5.06546953 25.1964086 -4 22 C-4.52943294 19.68586626 -4.52943294 19.68586626 -5.4375 17.3125 C-5.72496094 16.50425781 -6.01242187 15.69601563 -6.30859375 14.86328125 C-6.53675781 14.24839844 -6.76492188 13.63351563 -7 13 C-10.5423795 13.40685998 -10.5423795 13.40685998 -13.375 15.375 C-15.85358426 17.85358426 -18.7555223 18.71445223 -22 20 C-22.66 19.34 -23.32 18.68 -24 18 C-23.39414062 17.731875 -22.78828125 17.46375 -22.1640625 17.1875 C-13.24631299 13.01673715 -6.10266958 7.74259401 0 0 Z " fill="#F9F3F8" transform="translate(296,50)"/>
<path d="M0 0 C-1.08410156 0.268125 -2.16820312 0.53625 -3.28515625 0.8125 C-13.55962157 3.36274123 -23.82129949 5.96258202 -34.07418823 8.59814453 C-35.42762734 8.94584431 -36.78124139 9.29286389 -38.13504028 9.63916016 C-45.14177731 11.43245514 -52.09675871 13.24082109 -58.94482422 15.57763672 C-61.29341065 16.06029941 -62.74576429 15.7488669 -65 15 C-64.01 15 -63.02 15 -62 15 C-61.67 13.68 -61.34 12.36 -61 11 C-53.82880957 8.98703427 -53.82880957 8.98703427 -49.75390625 9.05078125 C-45.44040195 8.99243 -41.66925189 8.21303155 -37.5 7.1875 C-36.77941406 7.02185547 -36.05882812 6.85621094 -35.31640625 6.68554688 C-31.80396119 5.84395742 -28.52090203 4.86978931 -25.21484375 3.40625 C-21.7703922 1.89956403 -18.72458261 1.38005945 -15 1 C-15 0.67 -15 0.34 -15 0 C-13.25093341 -0.19601608 -11.50068154 -0.38147403 -9.75 -0.5625 C-8.77546875 -0.66691406 -7.8009375 -0.77132812 -6.796875 -0.87890625 C-4.20537391 -0.99110811 -2.4628193 -0.68488514 0 0 Z " fill="#722EDA" transform="translate(231,81)"/>
<path d="M0 0 C0.56847656 0.08378906 1.13695312 0.16757812 1.72265625 0.25390625 C6.76635545 0.91910197 11.00294069 0.9568837 16 0 C13.24608328 2.75391672 9.90645469 4.08314054 6.4375 5.75 C-3.49477002 10.64109119 -11.40277627 15.84385246 -19 24 C-19.33 23.01 -19.66 22.02 -20 21 C-19.01 20.67 -18.02 20.34 -17 20 C-17 18.68 -17 17.36 -17 16 C-16.34 16 -15.68 16 -15 16 C-14.731875 15.38125 -14.46375 14.7625 -14.1875 14.125 C-13 12 -13 12 -10 10 C-7.3125 9.875 -7.3125 9.875 -5 10 C-5 9.34 -5 8.68 -5 8 C-4.01 8 -3.02 8 -2 8 C-2.66 7.34 -3.32 6.68 -4 6 C-4 5.01 -4 4.02 -4 3 C-3.01 2.67 -2.02 2.34 -1 2 C-0.67 1.34 -0.34 0.68 0 0 Z " fill="#6E14F0" transform="translate(132,265)"/>
<path d="M0 0 C0.495 1.485 0.495 1.485 1 3 C-0.18244247 4.53397943 -1.37312242 6.06670203 -2.67578125 7.5 C-4.21271929 9.17302042 -4.21271929 9.17302042 -6 12 C-6.66 12 -7.32 12 -8 12 C-8.33 12.99 -8.66 13.98 -9 15 C-10.62890625 16.38671875 -10.62890625 16.38671875 -12.5625 17.6875 C-13.52349609 18.34298828 -13.52349609 18.34298828 -14.50390625 19.01171875 C-14.99761719 19.33785156 -15.49132812 19.66398437 -16 20 C-16.66 19.67 -17.32 19.34 -18 19 C-18.33 19.99 -18.66 20.98 -19 22 C-25.59926794 28.31949848 -33.07075893 31.06987072 -42 32 C-39.30439496 30.20292997 -36.5556142 28.66808818 -33.70703125 27.13256836 C-21.24572174 20.35395499 -8.00793349 12.01190023 0 0 Z " fill="#702ED9" transform="translate(278,104)"/>
<path d="M0 0 C0.66 0.33 1.32 0.66 2 1 C1.57847656 1.79664063 1.15695313 2.59328125 0.72265625 3.4140625 C0.17480469 4.47367187 -0.37304688 5.53328125 -0.9375 6.625 C-1.48277344 7.66914063 -2.02804688 8.71328125 -2.58984375 9.7890625 C-5.36707015 16.11283009 -5.19221976 22.45708488 -5.1875 29.25 C-5.18814453 30.20986816 -5.18878906 31.16973633 -5.18945312 32.15869141 C-5.12380475 41.19877071 -4.237078 50.05327518 -3 59 C-3.99 58.67 -4.98 58.34 -6 58 C-10.86290919 17.66390504 -10.86290919 17.66390504 -4 7 C-3.649375 5.9275 -3.29875 4.855 -2.9375 3.75 C-2 1 -2 1 0 0 Z " fill="#7A38D4" transform="translate(110,289)"/>
<path d="M0 0 C0.66 0.33 1.32 0.66 2 1 C2.02687279 2.81242052 2.04633715 4.62495233 2.0625 6.4375 C2.07410156 7.44683594 2.08570313 8.45617187 2.09765625 9.49609375 C2 12 2 12 1 13 C0.74625465 14.66310205 0.52340229 16.3309238 0.3125 18 C-0.57066763 23.56663235 -2.07387797 28.70105395 -3.9375 34 C-4.19039795 34.72960937 -4.4432959 35.45921875 -4.70385742 36.2109375 C-6.05061174 39.93017432 -7.48881011 42.94703736 -10 46 C-10.2475 47.0209375 -10.2475 47.0209375 -10.5 48.0625 C-11.11862874 50.45968638 -12.20128042 51.35117372 -14 53 C-14.33 53.66 -14.66 54.32 -15 55 C-15.99 54.67 -16.98 54.34 -18 54 C-17.55269531 53.33355469 -17.10539062 52.66710937 -16.64453125 51.98046875 C-8.11369884 38.97504195 -3.09361596 26.36410546 -1.3125 10.9375 C-1.18294922 9.88111328 -1.05339844 8.82472656 -0.91992188 7.73632812 C-0.60497555 5.15843412 -0.29852278 2.57983838 0 0 Z " fill="#7230D8" transform="translate(297,49)"/>
<path d="M0 0 C0 0.66 0 1.32 0 2 C-0.84304687 2.20496094 -1.68609375 2.40992188 -2.5546875 2.62109375 C-3.65039062 2.89050781 -4.74609375 3.15992188 -5.875 3.4375 C-7.51082031 3.83775391 -7.51082031 3.83775391 -9.1796875 4.24609375 C-11.92484721 4.8786478 -11.92484721 4.8786478 -14 6 C-15.99960012 6.039992 -18.00047242 6.04346799 -20 6 C-20 6.66 -20 7.32 -20 8 C-21.6396875 8.185625 -21.6396875 8.185625 -23.3125 8.375 C-27.07381802 8.75464801 -27.07381802 8.75464801 -30 11 C-31.670625 11.4640625 -31.670625 11.4640625 -33.375 11.9375 C-36.93763047 12.80452433 -36.93763047 12.80452433 -39.5 14.5625 C-42.63433664 16.36474357 -45.43217093 16.65021284 -49 17 C-40.29910048 9.56779726 -28.86486545 6.83794084 -18.0625 3.6875 C-16.87076172 3.32849609 -15.67902344 2.96949219 -14.45117188 2.59960938 C-13.30326172 2.26123047 -12.15535156 1.92285156 -10.97265625 1.57421875 C-9.94406494 1.27088623 -8.91547363 0.96755371 -7.85571289 0.6550293 C-5.12287739 0.02818501 -2.79070187 -0.1291072 0 0 Z " fill="#732FDA" transform="translate(176,317)"/>
<path d="M0 0 C-0.33 0.99 -0.66 1.98 -1 3 C-7.76608773 6.03307381 -14.1157197 6.39705455 -21.46875 6.75 C-24.34179272 6.95340125 -26.80419637 7.29866207 -29.5625 8.0625 C-32.88453549 8.96850968 -35.57861629 9.17106919 -39 9 C-33.66406859 6.00396467 -27.55482417 4.8949922 -21.67333984 3.3762207 C-19.50467612 2.81371289 -17.3403295 2.23631686 -15.17578125 1.65820312 C-13.79450993 1.29855962 -12.41300672 0.93980533 -11.03125 0.58203125 C-9.15276367 0.09053589 -9.15276367 0.09053589 -7.23632812 -0.41088867 C-4.2778187 -0.94942844 -2.75820365 -1.05849086 0 0 Z " fill="#7122E5" transform="translate(215,308)"/>
<path d="M0 0 C4.75880621 0.68250069 8.83245058 2.5023604 13.1875 4.4375 C13.91130859 4.75009766 14.63511719 5.06269531 15.38085938 5.38476562 C20.74497768 7.74497768 20.74497768 7.74497768 23 10 C17.72 10 12.44 10 7 10 C6.34 8.35 5.68 6.7 5 5 C2.95894361 4.11306697 2.95894361 4.11306697 1 4 C0.67 2.68 0.34 1.36 0 0 Z " fill="#6D14F1" transform="translate(227,160)"/>
<path d="M0 0 C0.86267018 2.9558026 1.08771467 5.49044737 0.9921875 8.5625 C0.97349609 9.43688721 0.95480469 10.31127441 0.93554688 11.2121582 C0.91556641 12.132146 0.89558594 13.05213379 0.875 14 C0.76828063 22.16894667 1.29593733 29.22581981 4 37 C3.34 37 2.68 37 2 37 C1.67 34.69 1.34 32.38 1 30 C0.34 30 -0.32 30 -1 30 C-1.50788445 27.31758113 -2.00210899 24.63388238 -2.4765625 21.9453125 C-2.78184064 20.2275534 -3.1024349 18.51213207 -3.4609375 16.8046875 C-4.59302857 10.5907654 -2.75221555 5.5044311 0 0 Z " fill="#6C1DDD" transform="translate(110,145)"/>
<path d="M0 0 C0.66 0.33 1.32 0.66 2 1 C-12.08551372 9.5067007 -12.08551372 9.5067007 -20 11 C-20.99 11.66 -21.98 12.32 -23 13 C-25.0078125 13.37890625 -25.0078125 13.37890625 -27.125 13.5625 C-30.77463966 13.56686899 -30.77463966 13.56686899 -32 15 C-34.67058851 15.14115161 -37.32432238 15.04247107 -40 15 C-36.45322192 12.63548128 -32.94513402 11.84458192 -28.875 10.8125 C-18.90436593 8.17943868 -9.23538065 4.61769033 0 0 Z " fill="#7332DC" transform="translate(255,292)"/>
<path d="M0 0 C0.33 0 0.66 0 1 0 C0.67 2.31 0.34 4.62 0 7 C-0.99 7 -1.98 7 -3 7 C-3.268125 7.7425 -3.53625 8.485 -3.8125 9.25 C-4.96579834 11.92079616 -6.17513475 13.754012 -8 16 C-8.556875 16.78632813 -9.11375 17.57265625 -9.6875 18.3828125 C-12.39329003 21.44510865 -15.01703158 22.97735521 -18.625 24.875 C-20.34589844 25.79925781 -20.34589844 25.79925781 -22.1015625 26.7421875 C-23.05804688 27.15726562 -24.01453125 27.57234375 -25 28 C-25.66 27.67 -26.32 27.34 -27 27 C-25.99839844 26.29875 -24.99679687 25.5975 -23.96484375 24.875 C-14.40689927 18.09128432 -6.89865749 11.71954269 -0.9453125 1.46875 C-0.63335937 0.9840625 -0.32140625 0.499375 0 0 Z " fill="#6A1DE0" transform="translate(284,264)"/>
<path d="M0 0 C3.14962572 3.14962572 3.88386711 6.66959522 4.265625 11.04296875 C4.22986281 18.24010963 3.57697667 24.97400574 2 32 C1.34 32 0.68 32 0 32 C0 34.31 0 36.62 0 39 C-1.32 38.67 -2.64 38.34 -4 38 C-3.54625 36.865625 -3.0925 35.73125 -2.625 34.5625 C1.50910657 23.33575561 2.24721671 11.79788772 0 0 Z " fill="#6C21D4" transform="translate(289,224)"/>
<path d="M0 0 C1.32 0 2.64 0 4 0 C4 0.66 4 1.32 4 2 C4.74636719 2.09796875 5.49273437 2.1959375 6.26171875 2.296875 C9.34672332 3.08903024 10.54857334 4.05756576 12.8125 6.25 C18.25790861 11.2339333 23.40005158 15.43000387 31 16 C31 16.66 31 17.32 31 18 C30.34 18 29.68 18 29 18 C28.67 19.32 28.34 20.64 28 22 C27.42894531 21.45472656 26.85789062 20.90945312 26.26953125 20.34765625 C20.48242442 14.96537088 14.53923177 10.42879201 7.98046875 6.04296875 C5.20769329 4.14236381 2.59508596 2.13459012 0 0 Z " fill="#7536DA" transform="translate(250,184)"/>
<path d="M0 0 C1.32 0 2.64 0 4 0 C4 0.66 4 1.32 4 2 C4.99 2 5.98 2 7 2 C7 1.34 7 0.68 7 0 C8.65 0 10.3 0 12 0 C8.75904843 2.70211365 5.48975779 4.17561925 1.5625 5.6875 C-0.10619141 6.34298828 -0.10619141 6.34298828 -1.80859375 7.01171875 C-4.77164493 7.92928539 -6.93162398 8.21220544 -10 8 C-10 8.66 -10 9.32 -10 10 C-9.236875 10.12375 -8.47375 10.2475 -7.6875 10.375 C-5 11 -5 11 -2 13 C-3.45947705 12.93993922 -4.91779272 12.8511311 -6.375 12.75 C-7.59316406 12.68039063 -7.59316406 12.68039063 -8.8359375 12.609375 C-11 12 -11 12 -12.2890625 9.953125 C-12.52367187 9.30859375 -12.75828125 8.6640625 -13 8 C-9.5647952 5.70986347 -8.014669 5.82157027 -4 6 C-4 5.34 -4 4.68 -4 4 C-3.01 3.34 -2.02 2.68 -1 2 C-0.67 1.34 -0.34 0.68 0 0 Z " fill="#722BDB" transform="translate(229,147)"/>
<path d="M0 0 C-0.33 0.99 -0.66 1.98 -1 3 C-1.66 3 -2.32 3 -3 3 C-3 3.66 -3 4.32 -3 5 C-4.13179687 5.26554688 -5.26359375 5.53109375 -6.4296875 5.8046875 C-7.91154832 6.1610844 -9.3933143 6.51787576 -10.875 6.875 C-11.62136719 7.04902344 -12.36773437 7.22304687 -13.13671875 7.40234375 C-17.48883671 8.38923879 -17.48883671 8.38923879 -21 11 C-25.11626002 11.66391291 -28.82848829 12 -33 12 C-30.79729212 9.79729212 -29.68785536 9.45573022 -26.74609375 8.6328125 C-25.89080078 8.38660156 -25.03550781 8.14039063 -24.15429688 7.88671875 C-22.37048066 7.38658336 -20.58662767 6.88657914 -18.80273438 6.38671875 C-13.57844932 4.88293498 -8.70558887 3.11058213 -3.79711914 0.76513672 C-2 0 -2 0 0 0 Z " fill="#742FDA" transform="translate(236,136)"/>
<path d="M0 0 C1.98 0.66 3.96 1.32 6 2 C3.1840211 4.93331135 0.23626153 7.4182039 -3 9.875 C-6.91487603 12.95839794 -9.60590364 15.64709752 -12 20 C-12.66 18.68 -13.32 17.36 -14 16 C-13.01 16 -12.02 16 -11 16 C-10.731875 15.360625 -10.46375 14.72125 -10.1875 14.0625 C-9 12 -9 12 -6 11 C-5.29289322 9.35008418 -4.63437344 7.6792238 -4 6 C-2.70211044 3.97681922 -1.37535339 1.97133986 0 0 Z " fill="#F8EBF8" transform="translate(121,331)"/>
<path d="M0 0 C0.99 0.33 1.98 0.66 3 1 C-3.52053395 7.90243073 -10.13799524 13.64905379 -18 19 C-18.33 17.68 -18.66 16.36 -19 15 C-18.21625 14.731875 -17.4325 14.46375 -16.625 14.1875 C-13.71885077 13.15185568 -13.71885077 13.15185568 -12 10 C-11.01 10 -10.02 10 -9 10 C-8.95875 9.4225 -8.9175 8.845 -8.875 8.25 C-7.54546871 4.83120525 -5.10333371 3.77333355 -2 2 C-1.34 2 -0.68 2 0 2 C0 1.34 0 0.68 0 0 Z " fill="#7029D8" transform="translate(281,117)"/>
<path d="M0 0 C-1.03447266 0.60134766 -1.03447266 0.60134766 -2.08984375 1.21484375 C-9.00747663 5.39958463 -14.53666105 10.05103092 -20 16 C-20.33 15.01 -20.66 14.02 -21 13 C-20.01 12.67 -19.02 12.34 -18 12 C-18 10.68 -18 9.36 -18 8 C-17.34 8 -16.68 8 -16 8 C-15.731875 7.38125 -15.46375 6.7625 -15.1875 6.125 C-14 4 -14 4 -11 2 C-8.3125 1.875 -8.3125 1.875 -6 2 C-6 1.34 -6 0.68 -6 0 C-3 -1 -3 -1 0 0 Z " fill="#732AE4" transform="translate(133,273)"/>
<path d="M0 0 C-2.90918698 2.46213302 -4.99261709 3.40500465 -8.75 3.9375 C-13.54221666 4.79527843 -18.05445081 6.04083811 -22 9 C-23.22809073 11.04802159 -23.22809073 11.04802159 -24 13 C-24.99 12.67 -25.98 12.34 -27 12 C-27.6875 9.9375 -27.6875 9.9375 -28 8 C-4.66525536 -1.4999158 -4.66525536 -1.4999158 0 0 Z " fill="#F5E4FD" transform="translate(171,259)"/>
<path d="M0 0 C0.33 0 0.66 0 1 0 C0.15901306 12.40455742 -4.12730281 23.1355102 -10 34 C-10.66 33.01 -11.32 32.02 -12 31 C-11.34 31 -10.68 31 -10 31 C-9.9175 30.13375 -9.835 29.2675 -9.75 28.375 C-9 25 -9 25 -7.0625 22.3125 C-4.63565973 18.41484745 -4.18411882 15.24912937 -3.50390625 10.76953125 C-2.80600255 6.93376593 -1.4918329 3.59396107 0 0 Z " fill="#F2DBFE" transform="translate(286,140)"/>
<path d="M0 0 C2.46038493 0.44897535 4.91789621 0.90868833 7.375 1.375 C8.07367188 1.50132812 8.77234375 1.62765625 9.4921875 1.7578125 C14.7734375 2.7734375 14.7734375 2.7734375 17 5 C14.79248152 5.33868777 12.58394089 5.67071689 10.375 6 C9.14523438 6.185625 7.91546875 6.37125 6.6484375 6.5625 C3.3833973 6.95402516 0.28287549 7.08080924 -3 7 C-2 5 -2 5 1 3 C0.67 2.01 0.34 1.02 0 0 Z " fill="#712ECE" transform="translate(221,240)"/>
<path d="M0 0 C-1.14597656 0.59167969 -2.29195312 1.18335937 -3.47265625 1.79296875 C-5.00274829 2.59086951 -6.53268812 3.38906221 -8.0625 4.1875 C-8.81466797 4.57486328 -9.56683594 4.96222656 -10.34179688 5.36132812 C-15.20288411 7.90761191 -19.60407161 10.71327001 -24 14 C-24 12.68 -24 11.36 -24 10 C-23.01 10 -22.02 10 -21 10 C-21 9.34 -21 8.68 -21 8 C-21.66 7.67 -22.32 7.34 -23 7 C-20.23735711 6.40267181 -17.83967231 6 -15 6 C-15 5.34 -15 4.68 -15 4 C-13.02 3.67 -11.04 3.34 -9 3 C-9 2.34 -9 1.68 -9 1 C-5.47051709 -0.66670026 -3.71727674 -1.13583456 0 0 Z " fill="#6F29D9" transform="translate(155,102)"/>
<path d="M0 0 C1.98 0 3.96 0 6 0 C6 0.66 6 1.32 6 2 C6.9075 1.979375 7.815 1.95875 8.75 1.9375 C11.44735267 1.98937217 13.4448 2.26994286 16 3 C16.66 3 17.32 3 18 3 C18 3.99 18 4.98 18 6 C18.8353125 6.185625 18.8353125 6.185625 19.6875 6.375 C22.2421041 7.06543354 24.59460135 7.89481684 27 9 C27.33 9.66 27.66 10.32 28 11 C27.46705322 10.82041748 26.93410645 10.64083496 26.38500977 10.45581055 C20.58835431 8.51188291 14.77019997 6.64511714 8.9375 4.8125 C7.6390918 4.40354492 7.6390918 4.40354492 6.31445312 3.98632812 C4.2098446 3.32355085 2.10502562 2.66145111 0 2 C0 1.34 0 0.68 0 0 Z " fill="#762FDB" transform="translate(202,163)"/>
<path d="M0 0 C0.33 0.66 0.66 1.32 1 2 C0.67 2.66 0.34 3.32 0 4 C-0.99 4.33 -1.98 4.66 -3 5 C-4.00642948 6.32848691 -5.00692179 7.66150329 -6 9 C-6.66 9 -7.32 9 -8 9 C-8 9.66 -8 10.32 -8 11 C-9.72526042 11.71614583 -11.45052083 12.43229167 -13.17578125 13.1484375 C-15.26533932 14.06806692 -15.26533932 14.06806692 -18 16 C-20.6875 16.125 -20.6875 16.125 -23 16 C-18.93914586 12.83030587 -14.57590526 10.1430401 -10.22070312 7.40429688 C-6.63260581 5.124481 -3.27339033 2.72679004 0 0 Z " fill="#EED8FD" transform="translate(272,128)"/>
<path d="M0 0 C0.33 0.66 0.66 1.32 1 2 C-0.12005631 5.36016893 -1.37211797 6.69064913 -4 9 C-4.66 9 -5.32 9 -6 9 C-6 9.66 -6 10.32 -6 11 C-5.34 11.33 -4.68 11.66 -4 12 C-5 13 -5 13 -8.5625 13.0625 C-9.696875 13.041875 -10.83125 13.02125 -12 13 C-8.43679155 7.90789714 -4.95258714 3.77339973 0 0 Z " fill="#F5E7FB" transform="translate(132,115)"/>
<path d="M0 0 C-15.56036446 6.51936219 -15.56036446 6.51936219 -24 8 C-23 5 -23 5 -20.9375 3.9375 C-17.97478269 2.99195192 -15.01394962 2.2239759 -11.98828125 1.51171875 C-9.76290497 0.97369588 -9.76290497 0.97369588 -6.75 -0.1875 C-3.83502209 -1.04874347 -2.81187635 -0.84716788 0 0 Z " fill="#F5DEFD" transform="translate(251,295)"/>
<path d="M0 0 C-0.99 0.495 -0.99 0.495 -2 1 C-2 1.66 -2 2.32 -2 3 C-3.57914015 3.53341184 -5.16354387 4.05125763 -6.75 4.5625 C-7.63171875 4.85253906 -8.5134375 5.14257812 -9.421875 5.44140625 C-12.07834316 6.01697435 -13.47031106 5.89248371 -16 5 C-15.01 5 -14.02 5 -13 5 C-12.95875 4.38125 -12.9175 3.7625 -12.875 3.125 C-12 1 -12 1 -9.3125 -0.3125 C-5.80931923 -1.03957526 -3.45439359 -0.82247466 0 0 Z " fill="#6C17EE" transform="translate(182,91)"/>
<path d="M0 0 C2.64 0 5.28 0 8 0 C4.45312688 2.36458208 0.86380101 3.35044769 -3.1875 4.5 C-3.91775391 4.71269531 -4.64800781 4.92539063 -5.40039062 5.14453125 C-7.59619179 5.77857127 -9.79714836 6.39096186 -12 7 C-12.72396973 7.21011719 -13.44793945 7.42023438 -14.19384766 7.63671875 C-17.88382664 8.65605941 -20.34860737 9.13296489 -24 8 C-20.39587262 5.88154345 -16.6202968 5.18718093 -12.5625 4.4375 C-11.90701172 4.31181641 -11.25152344 4.18613281 -10.57617188 4.05664062 C-8.71815949 3.70069242 -6.85910292 3.35020776 -5 3 C-3.33282969 2.66919485 -1.66592181 2.3370362 0 2 C0 1.34 0 0.68 0 0 Z " fill="#732ED7" transform="translate(256,71)"/>
<path d="M0 0 C0.33 0 0.66 0 1 0 C0.97905273 0.6391333 0.95810547 1.2782666 0.93652344 1.93676758 C0.09463261 17.42832313 0.09463261 17.42832313 4.22265625 32.109375 C5 34 5 34 4 37 C-0.39205433 32.60794567 -1.16803192 25.56947605 -1.328125 19.5703125 C-1.31769247 17.75505151 -1.29160033 15.93981424 -1.25 14.125 C-1.24484375 13.20203125 -1.2396875 12.2790625 -1.234375 11.328125 C-1.18854335 7.3751449 -1.08839327 3.8202822 0 0 Z " fill="#F3DDFD" transform="translate(111,145)"/>
<path d="M0 0 C0 0.66 0 1.32 0 2 C-0.66 2 -1.32 2 -2 2 C-2 2.66 -2 3.32 -2 4 C-9.98649105 5.18531495 -17.95543903 6.29563752 -26 7 C-23.14427016 5.46141938 -20.45037819 4.4893242 -17.3046875 3.7109375 C-16.42425781 3.49179687 -15.54382813 3.27265625 -14.63671875 3.046875 C-13.26966797 2.71429688 -13.26966797 2.71429688 -11.875 2.375 C-10.95589844 2.14554687 -10.03679687 1.91609375 -9.08984375 1.6796875 C-2.28111049 0 -2.28111049 0 0 0 Z " fill="#7636D8" transform="translate(202,310)"/>
<path d="M0 0 C0.66 0.99 1.32 1.98 2 3 C1.34 3 0.68 3 0 3 C-0.33 3.99 -0.66 4.98 -1 6 C-2.1446875 6.1546875 -2.1446875 6.1546875 -3.3125 6.3125 C-5.9870558 6.75339637 -5.9870558 6.75339637 -7.375 8.375 C-9.85358426 10.85358426 -12.7555223 11.71445223 -16 13 C-16.66 12.34 -17.32 11.68 -18 11 C-17.05640625 10.56300781 -17.05640625 10.56300781 -16.09375 10.1171875 C-10.20030273 7.29472329 -5.06949732 4.12073664 0 0 Z " fill="#F0DBFD" transform="translate(290,57)"/>
<path d="M0 0 C0.66 0.33 1.32 0.66 2 1 C1.59007813 1.72703125 1.18015625 2.4540625 0.7578125 3.203125 C-3.11673815 10.43314774 -5.16136255 16.84497375 -6 25 C-6.33 25 -6.66 25 -7 25 C-7.08150744 22.93816367 -7.1394194 20.87538651 -7.1875 18.8125 C-7.22230469 17.66394531 -7.25710937 16.51539063 -7.29296875 15.33203125 C-6.97185529 11.67990085 -6.0386778 9.98630441 -4 7 C-3.649375 5.9275 -3.29875 4.855 -2.9375 3.75 C-2 1 -2 1 0 0 Z " fill="#6D29D4" transform="translate(110,289)"/>
<path d="M0 0 C1.4800841 0.11362262 2.95910074 0.24122908 4.4375 0.375 C5.26121094 0.44460937 6.08492187 0.51421875 6.93359375 0.5859375 C7.95646484 0.79089844 7.95646484 0.79089844 9 1 C9.33 1.66 9.66 2.32 10 3 C11.97888961 3.72693904 13.97954558 4.39816251 16 5 C16 5.66 16 6.32 16 7 C17.65 7 19.3 7 21 7 C20.67 7.99 20.34 8.98 20 10 C15.63221913 8.32073668 11.41834992 6.36694083 7.1875 4.375 C6.14819336 3.88773438 6.14819336 3.88773438 5.08789062 3.390625 C3.39133977 2.59500115 1.69558835 1.79767301 0 1 C0 0.67 0 0.34 0 0 Z " fill="#7638D9" transform="translate(230,174)"/>
<path d="M0 0 C0.33 0 0.66 0 1 0 C1.25515919 7.52719602 0.28297723 14.58851545 -1 22 C-1.33 22 -1.66 22 -2 22 C-3.25316456 14.75949367 -3.25316456 14.75949367 -2 11 C-1.65939189 9.33480481 -1.32441604 7.66842534 -1 6 C-2.32 6.33 -3.64 6.66 -5 7 C-4.19152271 5.83054208 -3.37810888 4.66449539 -2.5625 3.5 C-2.11003906 2.8503125 -1.65757812 2.200625 -1.19140625 1.53125 C-0.79824219 1.0259375 -0.40507812 0.520625 0 0 Z " fill="#EFD3FE" transform="translate(296,50)"/>
<path d="M0 0 C0.625 1.8125 0.625 1.8125 1 4 C0.01 5.485 0.01 5.485 -1 7 C-1.54008562 10.0604852 -1.91427538 13.10624147 -2.2109375 16.19921875 C-2.41304267 18.1401253 -2.70077742 20.07167674 -3 22 C-3.66 22.33 -4.32 22.66 -5 23 C-5.30618222 14.57998889 -4.19248905 7.43213968 0 0 Z " fill="#F5E3FE" transform="translate(109,293)"/>
<path d="M0 0 C0.66 0.33 1.32 0.66 2 1 C0.8553125 2.0828125 0.8553125 2.0828125 -0.3125 3.1875 C-3.01435525 5.798255 -3.01435525 5.798255 -4.5 8.5625 C-6.25963804 11.42191181 -8.30554291 13.03377456 -11 15 C-11.66 14.67 -12.32 14.34 -13 14 C-9.32084439 8.36629298 -5.2042199 4.24860632 0 0 Z " fill="#742FDC" transform="translate(121,337)"/>
<path d="M0 0 C4.78775956 3.53613714 9.46451416 7.14483704 14 11 C10.98968256 11.93423645 10.13349732 12.04449911 7 11 C7.33 10.01 7.66 9.02 8 8 C5.03 7.01 2.06 6.02 -1 5 C-0.67 3.35 -0.34 1.7 0 0 Z " fill="#7029DF" transform="translate(121,193)"/>
<path d="M0 0 C-1.875 1.0625 -1.875 1.0625 -4 2 C-4.66 1.67 -5.32 1.34 -6 1 C-5.814375 1.78375 -5.62875 2.5675 -5.4375 3.375 C-5 6 -5 6 -6 8 C-7.98 7.34 -9.96 6.68 -12 6 C-8.70039422 0.25624179 -8.70039422 0.25624179 -5.4375 -0.9375 C-3 -1 -3 -1 0 0 Z " fill="#6D1BEB" transform="translate(133,334)"/>
<path d="M0 0 C1.98 0 3.96 0 6 0 C4.53967505 5.31027254 2.01679014 9.46330032 -1 14 C-2.39195915 9.82412255 -0.82323219 7.86525224 1 4 C0.34 4 -0.32 4 -1 4 C-0.67 2.68 -0.34 1.36 0 0 Z " fill="#F3E3FC" transform="translate(282,256)"/>
<path d="M0 0 C1.98 0 3.96 0 6 0 C5.13375 0.99 4.2675 1.98 3.375 3 C0.05802459 6.86190708 -2.99283262 10.89447006 -6 15 C-7.125 11.25 -7.125 11.25 -6 9 C-5.01 9 -4.02 9 -3 9 C-2.87625 8.4225 -2.7525 7.845 -2.625 7.25 C-1.99358009 4.97688833 -1.08053418 3.08903274 0 1 C0 0.67 0 0.34 0 0 Z " fill="#6F27D6" transform="translate(124,116)"/>
<path d="M0 0 C0.66 0 1.32 0 2 0 C1.47060248 3.81166211 0.57283706 6.11842249 -2 9 C-2.99 9.495 -2.99 9.495 -4 10 C-4 11.32 -4 12.64 -4 14 C-4.66 14 -5.32 14 -6 14 C-6.17835515 9.45194365 -5.99785435 6.1205746 -4 2 C-3.67 2.66 -3.34 3.32 -3 4 C-2.34 3.67 -1.68 3.34 -1 3 C-0.67 2.01 -0.34 1.02 0 0 Z " fill="#6D14EF" transform="translate(296,80)"/>
<path d="M0 0 C0.33 0 0.66 0 1 0 C1.03738281 1.16015625 1.07476562 2.3203125 1.11328125 3.515625 C1.47592674 12.68495415 2.248668 21.17497284 5 30 C4.34 30 3.68 30 3 30 C2.67 27.69 2.34 25.38 2 23 C1.34 23 0.68 23 0 23 C0 15.41 0 7.82 0 0 Z " fill="#884DE0" transform="translate(109,152)"/>
<path d="M0 0 C2.475 0.495 2.475 0.495 5 1 C1.79298285 4.64214008 -1.81078074 6.6773957 -6.125 8.75 C-7.07439453 9.22373047 -7.07439453 9.22373047 -8.04296875 9.70703125 C-12.71824269 12 -12.71824269 12 -15 12 C-15 11.34 -15 10.68 -15 10 C-12.35261084 8.5393715 -11.10551666 8 -8 8 C-8 7.34 -8 6.68 -8 6 C-5.09399739 4.74335022 -3.20395416 4 0 4 C0 2.68 0 1.36 0 0 Z " fill="#6A27D4" transform="translate(256,135)"/>
<path d="M0 0 C-2 1 -4 2 -6 3 C-6.639375 3.4125 -7.27875 3.825 -7.9375 4.25 C-11.08775168 5.39554607 -13.77326135 4.62052666 -17 4 C-14.23719462 2.15812975 -12.19292174 1.27751723 -9.0625 0.3125 C-7.78052734 -0.09548828 -7.78052734 -0.09548828 -6.47265625 -0.51171875 C-3.89489426 -1.02075548 -2.45550663 -0.84888744 0 0 Z " fill="#EED6FC" transform="translate(177,96)"/>
<path d="M0 0 C-3.77610394 2.18875999 -7.86101469 3.10393696 -12.0625 4.125 C-12.78244141 4.30675781 -13.50238281 4.48851562 -14.24414062 4.67578125 C-17.23457537 5.41436588 -19.90799657 6 -23 6 C-23 5.34 -23 4.68 -23 4 C-21.35 4 -19.7 4 -18 4 C-18 3.34 -18 2.68 -18 2 C-16.12612523 1.6603981 -14.25083303 1.32861309 -12.375 1 C-11.33085937 0.814375 -10.28671875 0.62875 -9.2109375 0.4375 C-6.09425135 0.01284203 -3.14069188 -0.07545206 0 0 Z " fill="#6B26D4" transform="translate(194,251)"/>
<path d="M0 0 C3.47200492 0.61724532 6.36035831 0.10920148 9.8125 -0.5 C7.32419497 1.98830503 4.9447066 2.80825691 1.6875 4.125 C0.59179688 4.57101562 -0.50390625 5.01703125 -1.6328125 5.4765625 C-2.47585937 5.81429688 -3.31890625 6.15203125 -4.1875 6.5 C-4.001875 5.88125 -3.81625 5.2625 -3.625 4.625 C-2.95063824 2.45839822 -2.95063824 2.45839822 -4.1875 0.5 C-2.1875 -0.5 -2.1875 -0.5 0 0 Z " fill="#7328DF" transform="translate(138.1875,265.5)"/>
<path d="M0 0 C0.33 0 0.66 0 1 0 C1 3.63 1 7.26 1 11 C0.34 11 -0.32 11 -1 11 C-1 13.31 -1 15.62 -1 18 C-2.32 17.67 -3.64 17.34 -5 17 C-4.54625 15.865625 -4.0925 14.73125 -3.625 13.5625 C-1.95044189 9.12611146 -0.9139955 4.64524772 0 0 Z " fill="#7431D8" transform="translate(290,245)"/>
<path d="M0 0 C4.40958108 0.66607439 8.26572186 2.26624729 12.3125 4.0625 C13.28026367 4.48499023 13.28026367 4.48499023 14.26757812 4.91601562 C15.84698358 5.6062743 17.42376493 6.30253198 19 7 C15.66766251 8.11077916 15.25304126 7.96329725 12.1875 6.6875 C11.49011719 6.40648437 10.79273438 6.12546875 10.07421875 5.8359375 C9.38972656 5.56007812 8.70523438 5.28421875 8 5 C6.00359361 4.32264783 4.00495586 3.65161065 2 3 C2 2.34 2 1.68 2 1 C1.34 0.67 0.68 0.34 0 0 Z " fill="#7530D4" transform="translate(227,160)"/>
<path d="M0 0 C5.23272633 1.63958758 10.15196636 3.38952035 15 6 C14.01 7.485 14.01 7.485 13 9 C10 8 10 8 8.75 6.625 C6.16038514 4.22035763 3.27684866 3.298374 0 2 C0 1.34 0 0.68 0 0 Z " fill="#F6E1FD" transform="translate(226,173)"/>
<path d="M0 0 C1.32 0.33 2.64 0.66 4 1 C1.03 3.64 -1.94 6.28 -5 9 C-5.66 7.68 -6.32 6.36 -7 5 C-2.25 2 -2.25 2 0 2 C0 1.34 0 0.68 0 0 Z " fill="#F2DDFA" transform="translate(267,112)"/>
<path d="M0 0 C0.99 0.33 1.98 0.66 3 1 C2.54109375 1.36351562 2.0821875 1.72703125 1.609375 2.1015625 C-2.43493987 5.41518183 -5.32533314 8.50655967 -8 13 C-8.66 11.68 -9.32 10.36 -10 9 C-9.01 9 -8.02 9 -7 9 C-6.731875 8.360625 -6.46375 7.72125 -6.1875 7.0625 C-5 5 -5 5 -2 4 C-0.79117904 1.99983534 -0.79117904 1.99983534 0 0 Z " fill="#EBCFFD" transform="translate(117,338)"/>
<path d="M0 0 C0.33 0 0.66 0 1 0 C1 2.31 1 4.62 1 7 C1.66 7 2.32 7 3 7 C3.33 10.3 3.66 13.6 4 17 C3.01 16.67 2.02 16.34 1 16 C0.08342019 10.61509359 -0.11138159 5.45769811 0 0 Z " fill="#722AD7" transform="translate(103,331)"/>
<path d="M0 0 C0.99 0.33 1.98 0.66 3 1 C-0.81495577 4.39717963 -4.48954059 7.53974941 -9 10 C-8.66410006 6.86493389 -7.97334828 5.974751 -5.625 3.75 C-3 2 -3 2 0 2 C0 1.34 0 0.68 0 0 Z " fill="#EED7FD" transform="translate(271,278)"/>
<path d="M0 0 C0.66 0.33 1.32 0.66 2 1 C1 2 0 3 -1 4 C-2.2684375 5.3303125 -2.2684375 5.3303125 -3.5625 6.6875 C-6 9 -6 9 -8 9 C-8 9.66 -8 10.32 -8 11 C-9.65 11.66 -11.3 12.32 -13 13 C-9.0580583 8.11950075 -4.88049925 3.9419417 0 0 Z " fill="#F2D9FD" transform="translate(126,276)"/>
<path d="M0 0 C4.94303908 1.64767969 7.0517655 6.10353101 9.3125 10.625 C10.05591586 13.19316388 10.15200372 15.33993498 10 18 C8.27107418 15.40661127 6.92458856 12.91706938 5.5625 10.125 C3.84554181 6.65044556 2.07601052 3.27791135 0 0 Z " fill="#7230D2" transform="translate(279,206)"/>
<path d="M0 0 C1.63001953 0.01353516 1.63001953 0.01353516 3.29296875 0.02734375 C4.12441406 0.03894531 4.95585937 0.05054688 5.8125 0.0625 C3.18359503 1.45323768 0.69127953 2.50219204 -2.1875 3.25 C-2.8475 3.42917969 -3.5075 3.60835938 -4.1875 3.79296875 C-6.45290976 4.09826811 -8.022592 3.74386613 -10.1875 3.0625 C-8.19010785 -0.9322843 -3.93646808 -0.04232761 0 0 Z " fill="#F2DCFE" transform="translate(202.1875,307.9375)"/>
<path d="M0 0 C-3.63 2.31 -7.26 4.62 -11 7 C-11.66 6.01 -12.32 5.02 -13 4 C-11 2 -11 2 -8.375 1.875 C-7.59125 1.91625 -6.8075 1.9575 -6 2 C-6 1.34 -6 0.68 -6 0 C-3 -1 -3 -1 0 0 Z " fill="#6D28DA" transform="translate(133,273)"/>
<path d="M0 0 C4.62 2.31 9.24 4.62 14 7 C10.30581799 8.231394 7.7943739 7.64432764 4 7 C4.66 6.67 5.32 6.34 6 6 C6 5.34 6 4.68 6 4 C3.03 3.505 3.03 3.505 0 3 C0 2.01 0 1.02 0 0 Z " fill="#6C29D9" transform="translate(149,214)"/>
<path d="M0 0 C4.95 0.99 4.95 0.99 10 2 C10 2.66 10 3.32 10 4 C9.34 4 8.68 4 8 4 C7.67 5.32 7.34 6.64 7 8 C5.83035398 6.8572081 4.66435444 5.71068285 3.5 4.5625 C2.8503125 3.92441406 2.200625 3.28632813 1.53125 2.62890625 C0 1 0 1 0 0 Z " fill="#6F25E0" transform="translate(271,198)"/>
<path d="M0 0 C-3.20010388 1.8133922 -6.13283843 2.52213974 -9.75 3.125 C-10.73484375 3.29257812 -11.7196875 3.46015625 -12.734375 3.6328125 C-13.48203125 3.75398438 -14.2296875 3.87515625 -15 4 C-15 3.01 -15 2.02 -15 1 C-9.9752761 0.37470103 -5.07471573 -0.13012092 0 0 Z " fill="#F2DEFD" transform="translate(192,312)"/>
<path d="M0 0 C0 0.99 0 1.98 0 3 C-3.5892845 6.37175211 -7.63469695 8.77616637 -12 11 C-12.66 10.67 -13.32 10.34 -14 10 C-9.38 6.7 -4.76 3.4 0 0 Z " fill="#7237D2" transform="translate(271,281)"/>
<path d="M0 0 C-3.32851768 3.01343955 -5.81882813 3.44667544 -10.25 3.6875 C-11.32765625 3.75324219 -12.4053125 3.81898438 -13.515625 3.88671875 C-14.74539062 3.94279297 -14.74539062 3.94279297 -16 4 C-13.41588269 2.27725513 -11.45097344 1.31104478 -8.5625 0.3125 C-7.41974609 -0.09548828 -7.41974609 -0.09548828 -6.25390625 -0.51171875 C-3.78170279 -1.04729142 -2.37016716 -0.80445309 0 0 Z " fill="#E6CAFB" transform="translate(171,259)"/>
<path d="M0 0 C0.66 0.33 1.32 0.66 2 1 C-0.475 6.94 -0.475 6.94 -3 13 C-3.33 13 -3.66 13 -4 13 C-4 10.69 -4 8.38 -4 6 C-3.34 6 -2.68 6 -2 6 C-2.33 4.35 -2.66 2.7 -3 1 C-2.01 0.67 -1.02 0.34 0 0 Z " fill="#772FDB" transform="translate(115,132)"/>
<path d="M0 0 C-4.34994813 2.60996888 -9.00176812 3 -14 3 C-12 0 -12 0 -8.6875 -1.3125 C-4.83112789 -2.03148463 -3.37447095 -1.84062052 0 0 Z " fill="#6D15EE" transform="translate(247,75)"/>
<path d="M0 0 C-1.16369126 3.49107379 -1.88973538 3.85222763 -4.9375 5.6875 C-5.64777344 6.12449219 -6.35804688 6.56148438 -7.08984375 7.01171875 C-9 8 -9 8 -11 8 C-10.34 6.68 -9.68 5.36 -9 4 C-8.01 4 -7.02 4 -6 4 C-6 3.34 -6 2.68 -6 2 C-3 0 -3 0 0 0 Z " fill="#702BDA" transform="translate(286,59)"/>
<path d="M0 0 C1.32 0 2.64 0 4 0 C4 0.66 4 1.32 4 2 C4.99 2 5.98 2 7 2 C7 1.34 7 0.68 7 0 C8.65 0 10.3 0 12 0 C8.30827405 3.53790403 4.90609405 3.59115883 0 4 C-0.33 3.34 -0.66 2.68 -1 2 C-0.67 1.34 -0.34 0.68 0 0 Z " fill="#7022E4" transform="translate(229,147)"/>
<path d="M0 0 C0.66 0.33 1.32 0.66 2 1 C0.50829734 5.9723422 -1.60457417 10.41845739 -4 15 C-4.33 15 -4.66 15 -5 15 C-5.35286978 10.76556263 -4.5763408 9.26997101 -2 6 C-1.27648573 4.01985568 -0.59734611 2.02178685 0 0 Z " fill="#F4DDFE" transform="translate(289,81)"/>
<path d="M0 0 C2.27141109 0.11402064 4.54214552 0.24158505 6.8125 0.375 C8.07707031 0.44460937 9.34164062 0.51421875 10.64453125 0.5859375 C14 1 14 1 17 3 C10.91891127 4.80789124 5.83137661 2.83657235 0 1 C0 0.67 0 0.34 0 0 Z " fill="#DFC2F8" transform="translate(194,233)"/>
<path d="M0 0 C5.00099548 2.65848126 9.7045025 5.25876024 14 9 C9.545 8.01 9.545 8.01 5 7 C5 6.01 5 5.02 5 4 C2.525 3.01 2.525 3.01 0 2 C0 1.34 0 0.68 0 0 Z " fill="#702DD0" transform="translate(135,205)"/>
<path d="M0 0 C3.65316671 1.24976756 4.78065836 1.67098753 7 5 C6.625 7.1875 6.625 7.1875 6 9 C4.99406757 7.8803014 3.9954151 6.7540588 3 5.625 C2.443125 4.99851563 1.88625 4.37203125 1.3125 3.7265625 C0 2 0 2 0 0 Z " fill="#EFD9FD" transform="translate(118,187)"/>
<path d="M0 0 C0 0.66 0 1.32 0 2 C-4.53701494 3.45184478 -8.18061476 4.23509196 -13 4 C-8.99871622 0.46040281 -5.22959877 0 0 0 Z " fill="#F0D6FD" transform="translate(195,147)"/>
<path d="M0 0 C2.97 0 5.94 0 9 0 C6.69846709 2.30153291 5.15124095 2.7577028 2.0625 3.6875 C1.18722656 3.95949219 0.31195313 4.23148438 -0.58984375 4.51171875 C-3 5 -3 5 -6 4 C-4.7934375 3.566875 -4.7934375 3.566875 -3.5625 3.125 C-0.8673532 2.26737432 -0.8673532 2.26737432 0 0 Z " fill="#E5C8FB" transform="translate(216,140)"/>
<path d="M0 0 C0.33 0 0.66 0 1 0 C0.67 2.31 0.34 4.62 0 7 C-0.99 7 -1.98 7 -3 7 C-3.66 8.32 -4.32 9.64 -5 11 C-5.66 10.67 -6.32 10.34 -7 10 C-5.85821872 8.33055479 -4.71147095 6.6645052 -3.5625 5 C-2.92441406 4.071875 -2.28632813 3.14375 -1.62890625 2.1875 C-1.09136719 1.465625 -0.55382812 0.74375 0 0 Z " fill="#7C3BDF" transform="translate(284,264)"/>
<path d="M0 0 C3.87540045 -0.17615457 6.75515269 -0.28341107 10 2 C10.33 2.99 10.66 3.98 11 5 C9.53932801 4.54917531 8.08151968 4.08906463 6.625 3.625 C5.81289062 3.36976563 5.00078125 3.11453125 4.1640625 2.8515625 C2 2 2 2 0 0 Z " fill="#E9D1FC" transform="translate(159,219)"/>
<path d="M0 0 C0 0.99 0 1.98 0 3 C-3.63 2.34 -7.26 1.68 -11 1 C-11 0.67 -11 0.34 -11 0 C-7.01803543 -1.05404945 -4.01804691 -0.84098656 0 0 Z " fill="#7E53C0" transform="translate(171,154)"/>
<path d="M0 0 C0.66 0.33 1.32 0.66 2 1 C1.67 3.64 1.34 6.28 1 9 C0.34 9 -0.32 9 -1 9 C-1.625 5.625 -1.625 5.625 -2 2 C-1.34 1.34 -0.68 0.68 0 0 Z " fill="#6E14EF" transform="translate(116,123)"/>
<path d="M0 0 C0.33 0.66 0.66 1.32 1 2 C-0.24546405 5.73639216 -1.63404953 6.18756513 -5 8 C-5.66 7.34 -6.32 6.68 -7 6 C-4.69 4.02 -2.38 2.04 0 0 Z " fill="#F1DBFC" transform="translate(132,115)"/>
<path d="M0 0 C0 0.66 0 1.32 0 2 C-2.99106784 4.36503039 -5.02861582 5.91553181 -8.875 6.25 C-9.57625 6.1675 -10.2775 6.085 -11 6 C-8.24029211 2.78034079 -4.3526723 0 0 0 Z " fill="#F1D6FE" transform="translate(153,103)"/>
<path d="M0 0 C2.97 0 5.94 0 9 0 C6.87033995 2.12966005 5.95931796 2.47624662 3.125 3.1875 C2.44695312 3.36667969 1.76890625 3.54585938 1.0703125 3.73046875 C-1.22818556 4.02970718 -2.80550964 3.69377386 -5 3 C-3.35 2.67 -1.7 2.34 0 2 C0 1.34 0 0.68 0 0 Z " fill="#7333D2" transform="translate(171,93)"/>
<path d="M0 0 C0.79921875 0.00902344 1.5984375 0.01804687 2.421875 0.02734375 C3.02515625 0.03894531 3.6284375 0.05054687 4.25 0.0625 C1.24559979 2.06543347 -0.45993945 2.55521626 -3.9375 3.1875 C-5.28908203 3.43886719 -5.28908203 3.43886719 -6.66796875 3.6953125 C-7.35503906 3.81648438 -8.04210937 3.93765625 -8.75 4.0625 C-8.75 3.0725 -8.75 2.0825 -8.75 1.0625 C-5.75519083 0.1901588 -3.11424089 -0.04579766 0 0 Z " fill="#6E15EF" transform="translate(192.75,86.9375)"/>
<path d="M0 0 C2.66666667 0.66666667 5.33333333 1.33333333 8 2 C8.33 3.65 8.66 5.3 9 7 C2.25 3.375 2.25 3.375 0 0 Z " fill="#EED8FC" transform="translate(133,202)"/>
<path d="M0 0 C3.93673644 1.31224548 6.22719294 2.91910327 9 6 C6.36 5.67 3.72 5.34 1 5 C0.67 3.35 0.34 1.7 0 0 Z " fill="#F4DEFE" transform="translate(250,185)"/>
<path d="M0 0 C-2.88087546 2.40072955 -5.56404834 4.47291037 -9 6 C-9 3 -9 3 -7.3125 1.3125 C-4.6402007 -0.20421041 -3.02346601 -0.2519555 0 0 Z " fill="#F0DAFC" transform="translate(258,123)"/>
<path d="M0 0 C2.31 0.33 4.62 0.66 7 1 C6.67 1.99 6.34 2.98 6 4 C6 3.34 6 2.68 6 2 C5.34 2 4.68 2 4 2 C3.67 2.99 3.34 3.98 3 5 C2.01 5 1.02 5 0 5 C0 3.35 0 1.7 0 0 Z " fill="#6F1CE8" transform="translate(282,112)"/>
<path d="M0 0 C0.99 0.33 1.98 0.66 3 1 C3 1.66 3 2.32 3 3 C2.01 3 1.02 3 0 3 C0 4.65 0 6.3 0 8 C-0.33 7.01 -0.66 6.02 -1 5 C-1.99 5 -2.98 5 -4 5 C-3 2 -3 2 0 0 Z " fill="#7418F1" transform="translate(131,109)"/>
<path d="M0 0 C0.99 0.33 1.98 0.66 3 1 C0.69 3.64 -1.62 6.28 -4 9 C-4.33 7.68 -4.66 6.36 -5 5 C-3.68 4.67 -2.36 4.34 -1 4 C-0.67 2.68 -0.34 1.36 0 0 Z " fill="#F2D7FE" transform="translate(277,102)"/>
<path d="M0 0 C0.625 1.8125 0.625 1.8125 1 4 C0.01 5.485 0.01 5.485 -1 7 C-1.165 7.86625 -1.33 8.7325 -1.5 9.625 C-1.7475 10.800625 -1.7475 10.800625 -2 12 C-2.99 12.495 -2.99 12.495 -4 13 C-3.50269348 8.02693484 -2.44697666 4.36200187 0 0 Z " fill="#E7CBFC" transform="translate(109,293)"/>
<path d="M0 0 C0.99 0.33 1.98 0.66 3 1 C3 1.66 3 2.32 3 3 C4.65 3 6.3 3 8 3 C7.67 3.99 7.34 4.98 7 6 C3.62496331 4.8141763 1.35277269 3.72426311 -1 1 C-0.67 0.67 -0.34 0.34 0 0 Z " fill="#7227DF" transform="translate(243,178)"/>
<path d="M0 0 C-0.99 1.485 -0.99 1.485 -2 3 C-4.8203125 3.29296875 -4.8203125 3.29296875 -8.125 3.1875 C-9.76855469 3.14689453 -9.76855469 3.14689453 -11.4453125 3.10546875 C-12.70988281 3.05326172 -12.70988281 3.05326172 -14 3 C-10.05730674 0.9048917 -4.23171977 -2.11585988 0 0 Z " fill="#EDD5FD" transform="translate(254,76)"/>
<path d="M0 0 C3.3 0 6.6 0 10 0 C6.32740617 2.44839588 3.45351799 4 -1 4 C-0.67 2.68 -0.34 1.36 0 0 Z " fill="#6B25D7" transform="translate(156,97)"/>
<path d="M0 0 C0 0.66 0 1.32 0 2 C-1.6396875 2.2165625 -1.6396875 2.2165625 -3.3125 2.4375 C-6.93122987 2.88288104 -6.93122987 2.88288104 -10 4 C-10.66 3.34 -11.32 2.68 -12 2 C-10.7625 1.67 -9.525 1.34 -8.25 1 C-7.55390625 0.814375 -6.8578125 0.62875 -6.140625 0.4375 C-4 0 -4 0 0 0 Z " fill="#EFD5FE" transform="translate(192,91)"/>
<path d="M0 0 C1.65 1.32 3.3 2.64 5 4 C4.67 4.99 4.34 5.98 4 7 C1.525 6.01 1.525 6.01 -1 5 C-0.67 3.35 -0.34 1.7 0 0 Z " fill="#691FE3" transform="translate(121,193)"/>
<path d="M0 0 C1 3 1 3 0.0625 5.1875 C-0.4634375 6.0846875 -0.4634375 6.0846875 -1 7 C-1.66 7 -2.32 7 -3 7 C-3.33 8.32 -3.66 9.64 -4 11 C-4.66 11 -5.32 11 -6 11 C-4.54955729 6.89041233 -2.48889248 3.56741255 0 0 Z " fill="#7E43CD" transform="translate(277,170)"/>
<path d="M0 0 C1.2065625 0.0309375 1.2065625 0.0309375 2.4375 0.0625 C-2.3125 4.9375 -2.3125 4.9375 -4.5625 6.0625 C-3.48963568 0.08511307 -3.48963568 0.08511307 0 0 Z " fill="#6F21E9" transform="translate(266.5625,117.9375)"/>
<path d="M0 0 C-1 3 -1 3 -3.9375 4.75 C-5.4534375 5.36875 -5.4534375 5.36875 -7 6 C-7.66 5.67 -8.32 5.34 -9 5 C-7.87926138 4.16094435 -6.75325453 3.32892169 -5.625 2.5 C-4.99851563 2.0359375 -4.37203125 1.571875 -3.7265625 1.09375 C-2 0 -2 0 0 0 Z " fill="#EDD5FD" transform="translate(142,109)"/>
<path d="M0 0 C0.99 0.33 1.98 0.66 3 1 C3 2.32 3 3.64 3 5 C0.5 6.75 0.5 6.75 -2 8 C-2 6.68 -2 5.36 -2 4 C-1.01 4 -0.02 4 1 4 C1 3.34 1 2.68 1 2 C0.34 1.67 -0.32 1.34 -1 1 C-0.67 0.67 -0.34 0.34 0 0 Z " fill="#7125E7" transform="translate(133,108)"/>
<path d="M0 0 C-3.08888522 2.05925681 -3.70935927 2.2390374 -7.1875 2.125 C-9.0746875 2.063125 -9.0746875 2.063125 -11 2 C-6.98764085 -0.6749061 -4.6342454 -1.48957888 0 0 Z " fill="#7D3EDB" transform="translate(226,305)"/>
<path d="M0 0 C2.31 0 4.62 0 7 0 C2.56 2.96 2.56 2.96 0 4 C-0.99 3.67 -1.98 3.34 -3 3 C-2.01 2.67 -1.02 2.34 0 2 C0 1.34 0 0.68 0 0 Z " fill="#6F2AD4" transform="translate(151,261)"/>
<path d="M0 0 C1.65 0.33 3.3 0.66 5 1 C4.67 1.99 4.34 2.98 4 4 C2.35 3.67 0.7 3.34 -1 3 C-0.67 2.01 -0.34 1.02 0 0 Z " fill="#7214EE" transform="translate(132,210)"/>
<path d="M0 0 C2.31 1.65 4.62 3.3 7 5 C6.34 5.66 5.68 6.32 5 7 C2.5 5.1875 2.5 5.1875 0 3 C0 2.01 0 1.02 0 0 Z " fill="#F4DEFD" transform="translate(263,193)"/>
<path d="M0 0 C0.99 0.33 1.98 0.66 3 1 C2.34 2.65 1.68 4.3 1 6 C-0.32 5.34 -1.64 4.68 -3 4 C-2.01 2.68 -1.02 1.36 0 0 Z " fill="#EFE1FB" transform="translate(128,193)"/>
<path d="M0 0 C0.33 0 0.66 0 1 0 C1.125 5.75 1.125 5.75 0 8 C-0.99 8 -1.98 8 -3 8 C-1.125 2.25 -1.125 2.25 0 0 Z " fill="#783ADA" transform="translate(281,162)"/>
<path d="M0 0 C4.95 0.99 4.95 0.99 10 2 C10 2.33 10 2.66 10 3 C6.7 3 3.4 3 0 3 C0 2.01 0 1.02 0 0 Z " fill="#7122E7" transform="translate(240,167)"/>
<path d="M0 0 C-0.33 0.99 -0.66 1.98 -1 3 C-3.5625 4.1875 -3.5625 4.1875 -6 5 C-6.66 4.34 -7.32 3.68 -8 3 C-2.25 0 -2.25 0 0 0 Z " fill="#F3DAFE" transform="translate(245,146)"/>
<path d="M0 0 C-2.08853638 2.08853638 -6.11156075 1.74813238 -9 2 C-10.32 2 -11.64 2 -13 2 C-10.63546807 -0.36453193 -9.74130071 -0.36652704 -6.5 -0.6875 C-5.7059375 -0.77386719 -4.911875 -0.86023438 -4.09375 -0.94921875 C-2 -1 -2 -1 0 0 Z " fill="#6A20E0" transform="translate(216,146)"/>
<path d="M0 0 C0.66 0.33 1.32 0.66 2 1 C0.68 3.31 -0.64 5.62 -2 8 C-2.33 8 -2.66 8 -3 8 C-3.1875 5.125 -3.1875 5.125 -3 2 C-2.01 1.34 -1.02 0.68 0 0 Z " fill="#6F28E2" transform="translate(110,289)"/>
<path d="M0 0 C0.66 0 1.32 0 2 0 C1.64950425 3.24208567 1.43778819 4.61527704 -1.0625 6.8125 C-1.701875 7.204375 -2.34125 7.59625 -3 8 C-2.67 6.68 -2.34 5.36 -2 4 C-1.34 4 -0.68 4 0 4 C0 2.68 0 1.36 0 0 Z " fill="#7A3ADC" transform="translate(115,281)"/>
<path d="M0 0 C1.65 0.33 3.3 0.66 5 1 C2.63707344 3.52588702 1.33537489 4.88820837 -2 6 C-2.33 5.34 -2.66 4.68 -3 4 C-2.01 4 -1.02 4 0 4 C0 2.68 0 1.36 0 0 Z " fill="#742DDB" transform="translate(256,135)"/>
<path d="M0 0 C0 0.99 0 1.98 0 3 C-1.98 3.99 -1.98 3.99 -4 5 C-4.66 4.34 -5.32 3.68 -6 3 C-3.375 0 -3.375 0 0 0 Z " fill="#F9EBFE" transform="translate(279,125)"/>
<path d="M0 0 C1.98 0 3.96 0 6 0 C4.68 1.65 3.36 3.3 2 5 C1.01 4.67 0.02 4.34 -1 4 C-0.67 2.68 -0.34 1.36 0 0 Z " fill="#681FDD" transform="translate(124,116)"/>
</svg>
