<svg width="120.447" height="120.447" viewBox="0 0 31.868 31.868" fill="none" xmlns:xlink="http://www.w3.org/1999/xlink" xmlns="http://www.w3.org/2000/svg"><defs><linearGradient xlink:href="#a" id="g" gradientUnits="userSpaceOnUse" gradientTransform="scale(236.85 -236.85) rotate(26.735 10.08 5.458)" x2="1"/><linearGradient id="a" x2="1" gradientTransform="scale(236.85 -236.85) rotate(26.735 10.08 5.458)" gradientUnits="userSpaceOnUse"><stop stop-color="#8175a5" offset="0"/><stop stop-color="#63577f" offset="1"/></linearGradient><linearGradient xlink:href="#b" id="h" gradientUnits="userSpaceOnUse" gradientTransform="scale(272.83 -272.83) rotate(-55.714 -.73 -4.752)" x2="1"/><linearGradient id="b" x2="1" gradientTransform="scale(272.83 -272.83) rotate(-55.714 -.73 -4.752)" gradientUnits="userSpaceOnUse"><stop stop-color="#655981" offset="0"/><stop stop-color="#73628c" offset=".237"/><stop stop-color="#b3a5da" offset="1"/></linearGradient><linearGradient xlink:href="#c" id="i" gradientUnits="userSpaceOnUse" gradientTransform="scale(240.6 -240.6) rotate(-47.808 -1.94 -7.023)" x2="1"/><linearGradient id="c" x2="1" gradientTransform="scale(240.6 -240.6) rotate(-47.808 -1.94 -7.023)" gradientUnits="userSpaceOnUse"><stop stop-color="#afa0d8" offset="0"/><stop stop-color="#cec6e6" offset="1"/></linearGradient><linearGradient xlink:href="#d" id="j" gradientUnits="userSpaceOnUse" gradientTransform="matrix(22.789 68.368 68.368 -22.789 899.72 915.68)" x2="1"/><linearGradient id="d" x2="1" gradientTransform="matrix(22.789 68.368 68.368 -22.789 899.72 915.68)" gradientUnits="userSpaceOnUse"><stop stop-color="#887bae" offset="0"/><stop stop-color="#796d9b" offset="1"/></linearGradient><linearGradient xlink:href="#e" id="k" gradientUnits="userSpaceOnUse" gradientTransform="matrix(-107.33 0 0 107.33 1028.1 1103.6)" x2="1"/><linearGradient id="e" x2="1" gradientTransform="matrix(-107.33 0 0 107.33 1028.1 1103.6)" gradientUnits="userSpaceOnUse"><stop stop-color="#afa0d8" offset="0"/><stop stop-color="#887bae" offset="1"/></linearGradient><linearGradient xlink:href="#f" id="l" gradientUnits="userSpaceOnUse" gradientTransform="scale(104.4 -104.4) rotate(43.5 17.795 7.324)" x2="1"/><linearGradient id="f" x2="1" gradientTransform="scale(104.4 -104.4) rotate(43.5 17.795 7.324)" gradientUnits="userSpaceOnUse"><stop stop-color="#afa0d8" offset="0"/><stop stop-color="#cec6e6" offset="1"/></linearGradient><linearGradient id="m" x2="1" gradientTransform="scale(236.85 -236.85) rotate(26.735 10.08 5.458)" gradientUnits="userSpaceOnUse" xlink:href="#a"/><linearGradient id="n" x2="1" gradientTransform="scale(272.83 -272.83) rotate(-55.714 -.73 -4.752)" gradientUnits="userSpaceOnUse" xlink:href="#b"/><linearGradient id="o" x2="1" gradientTransform="scale(240.6 -240.6) rotate(-47.808 -1.94 -7.023)" gradientUnits="userSpaceOnUse" xlink:href="#c"/><linearGradient id="p" x2="1" gradientTransform="matrix(22.789 68.368 68.368 -22.789 899.72 915.68)" gradientUnits="userSpaceOnUse" xlink:href="#d"/><linearGradient id="q" x2="1" gradientTransform="matrix(-107.33 0 0 107.33 1028.1 1103.6)" gradientUnits="userSpaceOnUse" xlink:href="#e"/><linearGradient id="r" x2="1" gradientTransform="scale(104.4 -104.4) rotate(43.5 17.795 7.324)" gradientUnits="userSpaceOnUse" xlink:href="#f"/></defs><g transform="translate(-34.312 -27.63)"><circle cx="50.246" cy="43.667" r="15.934" stroke-width=".132"/><path d="M65.954 43.667A15.708 15.775 0 0150.25 59.443a15.708 15.775 0 01-15.71-15.767 15.708 15.775 0 0115.695-15.784 15.708 15.775 0 0115.72 15.759" fill="#fff" stroke-width=".1"/><path d="M1000.2 750L793.1 855.62l207.1 101.48z" fill="url(#g)" transform="matrix(.05788 0 0 -.05788 -7.633 101.546)"/><path d="M50.257 58.137L38.27 52.024l11.987-5.874z" stroke-miterlimit="10" stroke-width=".05"/><path d="M1000.2 957.1l206.77-101.92L1000.2 750z" fill="url(#h)" transform="matrix(.05788 0 0 -.05788 -7.633 101.546)"/><path d="M50.257 46.15l11.967 5.9-11.967 6.087z" stroke-miterlimit="10" stroke-width=".05"/><path d="M1122.5 1016.8l84.479-161.61-206.77 101.92z" fill="url(#i)" transform="matrix(.05788 0 0 -.05788 -7.633 101.546)"/><path d="M57.335 42.695l4.89 9.354-11.968-5.899z" stroke-miterlimit="10" stroke-width=".05"/><path d="M878 1017.1l122.16-59.955-207.1-101.48z" fill="url(#j)" transform="matrix(.05788 0 0 -.05788 -7.633 101.546)"/><path d="M43.184 42.678l7.07 3.47-11.986 5.873z" stroke-miterlimit="10" stroke-width=".05"/><path d="M1000.2 957.1V1250l-122.16-232.94z" fill="url(#k)" transform="matrix(.05788 0 0 -.05788 -7.633 101.546)"/><path d="M50.257 46.15V29.198l-7.07 13.482z" stroke-miterlimit="10" stroke-width=".05"/><path d="M1000.2 957.1V1250l122.29-233.2z" fill="url(#l)" transform="matrix(.05788 0 0 -.05788 -7.633 101.546)"/><path d="M50.257 46.15V29.198l7.078 13.497z" stroke-miterlimit="10" stroke-width=".05"/><path d="M1000.2 750L793.1 855.62l207.1 101.48z" fill="url(#m)" transform="matrix(.05788 0 0 -.05788 -7.633 101.546)"/><path d="M50.257 58.137L38.27 52.024l11.987-5.874z" stroke-miterlimit="10" stroke-width=".05"/><path d="M1000.2 957.1l206.77-101.92L1000.2 750z" fill="url(#n)" transform="matrix(.05788 0 0 -.05788 -7.633 101.546)"/><path d="M50.257 46.15l11.967 5.9-11.967 6.087z" stroke-miterlimit="10" stroke-width=".05"/><path d="M1122.5 1016.8l84.479-161.61-206.77 101.92z" fill="url(#o)" transform="matrix(.05788 0 0 -.05788 -7.633 101.546)"/><path d="M57.335 42.695l4.89 9.354-11.968-5.899z" stroke-miterlimit="10" stroke-width=".05"/><path d="M878 1017.1l122.16-59.955-207.1-101.48z" fill="url(#p)" transform="matrix(.05788 0 0 -.05788 -7.633 101.546)"/><path d="M43.184 42.678l7.07 3.47-11.986 5.873z" stroke-miterlimit="10" stroke-width=".05"/><path d="M1000.2 957.1V1250l-122.16-232.94z" fill="url(#q)" transform="matrix(.05788 0 0 -.05788 -7.633 101.546)"/><path d="M50.257 46.15V29.198l-7.07 13.482z" stroke-miterlimit="10" stroke-width=".05"/><path d="M1000.2 957.1V1250l122.29-233.2z" fill="url(#r)" transform="matrix(.05788 0 0 -.05788 -7.633 101.546)"/><path d="M50.257 46.15V29.198l7.078 13.497z" stroke-miterlimit="10" stroke-width=".05"/></g></svg>