<svg xmlns="http://www.w3.org/2000/svg" xmlns:xlink="http://www.w3.org/1999/xlink" width="120.447" height="120.447" fill="none" viewBox="0 0 31.868 31.868"><defs><linearGradient xlink:href="#swise_svg-a" id="swise_svg-g" x2="1" gradientTransform="scale(236.85 -236.85)rotate(26.735 10.08 5.458)" gradientUnits="userSpaceOnUse"/><linearGradient id="swise_svg-a" x2="1" gradientTransform="scale(236.85 -236.85)rotate(26.735 10.08 5.458)" gradientUnits="userSpaceOnUse"><stop offset="0" stop-color="#8175a5"/><stop offset="1" stop-color="#63577f"/></linearGradient><linearGradient xlink:href="#swise_svg-b" id="swise_svg-h" x2="1" gradientTransform="scale(272.83 -272.83)rotate(-55.714 -.73 -4.752)" gradientUnits="userSpaceOnUse"/><linearGradient id="swise_svg-b" x2="1" gradientTransform="scale(272.83 -272.83)rotate(-55.714 -.73 -4.752)" gradientUnits="userSpaceOnUse"><stop offset="0" stop-color="#655981"/><stop offset=".237" stop-color="#73628c"/><stop offset="1" stop-color="#b3a5da"/></linearGradient><linearGradient xlink:href="#swise_svg-c" id="swise_svg-i" x2="1" gradientTransform="scale(240.6 -240.6)rotate(-47.808 -1.94 -7.023)" gradientUnits="userSpaceOnUse"/><linearGradient id="swise_svg-c" x2="1" gradientTransform="scale(240.6 -240.6)rotate(-47.808 -1.94 -7.023)" gradientUnits="userSpaceOnUse"><stop offset="0" stop-color="#afa0d8"/><stop offset="1" stop-color="#cec6e6"/></linearGradient><linearGradient xlink:href="#swise_svg-d" id="swise_svg-j" x2="1" gradientTransform="matrix(22.789 68.368 68.368 -22.789 899.72 915.68)" gradientUnits="userSpaceOnUse"/><linearGradient id="swise_svg-d" x2="1" gradientTransform="matrix(22.789 68.368 68.368 -22.789 899.72 915.68)" gradientUnits="userSpaceOnUse"><stop offset="0" stop-color="#887bae"/><stop offset="1" stop-color="#796d9b"/></linearGradient><linearGradient xlink:href="#swise_svg-e" id="swise_svg-k" x2="1" gradientTransform="matrix(-107.33 0 0 107.33 1028.1 1103.6)" gradientUnits="userSpaceOnUse"/><linearGradient id="swise_svg-e" x2="1" gradientTransform="matrix(-107.33 0 0 107.33 1028.1 1103.6)" gradientUnits="userSpaceOnUse"><stop offset="0" stop-color="#afa0d8"/><stop offset="1" stop-color="#887bae"/></linearGradient><linearGradient xlink:href="#swise_svg-f" id="swise_svg-l" x2="1" gradientTransform="scale(104.4 -104.4)rotate(43.5 17.795 7.324)" gradientUnits="userSpaceOnUse"/><linearGradient id="swise_svg-f" x2="1" gradientTransform="scale(104.4 -104.4)rotate(43.5 17.795 7.324)" gradientUnits="userSpaceOnUse"><stop offset="0" stop-color="#afa0d8"/><stop offset="1" stop-color="#cec6e6"/></linearGradient><linearGradient xlink:href="#swise_svg-a" id="swise_svg-m" x2="1" gradientTransform="scale(236.85 -236.85)rotate(26.735 10.08 5.458)" gradientUnits="userSpaceOnUse"/><linearGradient xlink:href="#swise_svg-b" id="swise_svg-n" x2="1" gradientTransform="scale(272.83 -272.83)rotate(-55.714 -.73 -4.752)" gradientUnits="userSpaceOnUse"/><linearGradient xlink:href="#swise_svg-c" id="swise_svg-o" x2="1" gradientTransform="scale(240.6 -240.6)rotate(-47.808 -1.94 -7.023)" gradientUnits="userSpaceOnUse"/><linearGradient xlink:href="#swise_svg-d" id="swise_svg-p" x2="1" gradientTransform="matrix(22.789 68.368 68.368 -22.789 899.72 915.68)" gradientUnits="userSpaceOnUse"/><linearGradient xlink:href="#swise_svg-e" id="swise_svg-q" x2="1" gradientTransform="matrix(-107.33 0 0 107.33 1028.1 1103.6)" gradientUnits="userSpaceOnUse"/><linearGradient xlink:href="#swise_svg-f" id="swise_svg-r" x2="1" gradientTransform="scale(104.4 -104.4)rotate(43.5 17.795 7.324)" gradientUnits="userSpaceOnUse"/></defs><g transform="translate(-34.312 -27.63)"><circle cx="50.246" cy="43.667" r="15.934"/><path fill="#fff" d="M65.954 43.667A15.708 15.775 0 0 1 50.25 59.443a15.708 15.775 0 0 1-15.71-15.767 15.708 15.775 0 0 1 15.695-15.784 15.708 15.775 0 0 1 15.72 15.759"/><path fill="url(#swise_svg-g)" d="M1000.2 750 793.1 855.62l207.1 101.48z" transform="matrix(.05788 0 0 -.05788 -7.633 101.546)"/><path d="M50.257 58.137 38.27 52.024l11.987-5.874z"/><path fill="url(#swise_svg-h)" d="m1000.2 957.1 206.77-101.92L1000.2 750z" transform="matrix(.05788 0 0 -.05788 -7.633 101.546)"/><path d="m50.257 46.15 11.967 5.9-11.967 6.087z"/><path fill="url(#swise_svg-i)" d="m1122.5 1016.8 84.479-161.61-206.77 101.92z" transform="matrix(.05788 0 0 -.05788 -7.633 101.546)"/><path d="m57.335 42.695 4.89 9.354-11.968-5.899z"/><path fill="url(#swise_svg-j)" d="m878 1017.1 122.16-59.955-207.1-101.48z" transform="matrix(.05788 0 0 -.05788 -7.633 101.546)"/><path d="m43.184 42.678 7.07 3.47-11.986 5.873z"/><path fill="url(#swise_svg-k)" d="M1000.2 957.1V1250l-122.16-232.94z" transform="matrix(.05788 0 0 -.05788 -7.633 101.546)"/><path d="M50.257 46.15V29.198l-7.07 13.482z"/><path fill="url(#swise_svg-l)" d="M1000.2 957.1V1250l122.29-233.2z" transform="matrix(.05788 0 0 -.05788 -7.633 101.546)"/><path d="M50.257 46.15V29.198l7.078 13.497z"/><path fill="url(#swise_svg-m)" d="M1000.2 750 793.1 855.62l207.1 101.48z" transform="matrix(.05788 0 0 -.05788 -7.633 101.546)"/><path d="M50.257 58.137 38.27 52.024l11.987-5.874z"/><path fill="url(#swise_svg-n)" d="m1000.2 957.1 206.77-101.92L1000.2 750z" transform="matrix(.05788 0 0 -.05788 -7.633 101.546)"/><path d="m50.257 46.15 11.967 5.9-11.967 6.087z"/><path fill="url(#swise_svg-o)" d="m1122.5 1016.8 84.479-161.61-206.77 101.92z" transform="matrix(.05788 0 0 -.05788 -7.633 101.546)"/><path d="m57.335 42.695 4.89 9.354-11.968-5.899z"/><path fill="url(#swise_svg-p)" d="m878 1017.1 122.16-59.955-207.1-101.48z" transform="matrix(.05788 0 0 -.05788 -7.633 101.546)"/><path d="m43.184 42.678 7.07 3.47-11.986 5.873z"/><path fill="url(#swise_svg-q)" d="M1000.2 957.1V1250l-122.16-232.94z" transform="matrix(.05788 0 0 -.05788 -7.633 101.546)"/><path d="M50.257 46.15V29.198l-7.07 13.482z"/><path fill="url(#swise_svg-r)" d="M1000.2 957.1V1250l122.29-233.2z" transform="matrix(.05788 0 0 -.05788 -7.633 101.546)"/><path d="M50.257 46.15V29.198l7.078 13.497z"/></g></svg>