<svg xmlns="http://www.w3.org/2000/svg" width="64" height="65" fill="none" viewBox="0 0 64 65"><g clip-path="url(#t_svg-a)"><rect width="64" height="64" y=".304" fill="#fff" rx="32"/><path fill="#7D00FF" d="M0 .304h64v64H0z"/><path fill="#fff" d="M51.797 21.89H38.67v4.418h13.126zM29.92 26.308h-4.376v4.418h4.376zm-4.376 22.09h4.376V35.144h-4.376zm8.751-22.09v4.418h4.376v-4.418zm0 22.09h4.376V35.144h-4.376zm0-26.508H29.92v4.418h4.375zm-21.88 0v4.418h13.13V21.89zM51.8 35.144v-4.418H38.67v4.418zm-21.877-4.418v4.418h4.372v-4.418zm-17.505 0v4.418h13.13v-4.418z"/></g><rect width="63" height="63" x=".5" y=".804" stroke="#070B14" stroke-opacity=".15" rx="31.5"/><defs><clipPath id="t_svg-a"><rect width="64" height="64" y=".304" fill="#fff" rx="32"/></clipPath></defs></svg>