<svg xmlns="http://www.w3.org/2000/svg" width="64" height="64" viewBox="0 0 64 64"><rect width="64" height="64" fill="#D6FC43"/><g transform="translate(0, 15)"><path fill="#031201" d="M26 8.3c1.8 0 1.8 0 5.5 1q2.5 1.5 4.7 3.1l1.8 1.4h.1q1.5 1.3 3.1 2.3l.1.1 1.2.8.8.3h2a24 24 0 0 0 4-2.7l1.4-1 .5-.4c3.8-3.2 3.8-3.2 6.2-4.2l.3-.1h.1q.8-.4 1.5-.5h3v6.6l-2.3.5a30 30 0 0 0-4.3 3h-.1l-2.3 1.8-.2.2-.4.3h-.5v.4l1.3.6 2.4 1.9q2 1.6 4.4 2.8l2 .5v6.5h-2.5c-2.9-.8-2.9-.8-4.1-1.5q-1.8-1.1-3.4-2.4l-.1-.2-4.4-3.4-2.5-1.5h-2c-1.3.6-1.3.6-2.5 1.4-5.8 4.8-5.8 4.8-9 6.6l-3.6 1h-2.2v-6.7l2.3-.3q3-1.6 5.4-3.8l.2-.1 1-.8.9-.6-.3-.7-.1-.1-5.9-4.4-1.7-.7-1.8-.3z"/><path fill="#031301" d="M8.5 1.8h6.8v6.5h10v6.7h-10l.2 9.8.5 1.2.6.2.2.1 1.2.4 7.3.3v6.5h-9l-3-1.2c-2.6-2.3-2.6-2.3-4-4.5l-.8-2.6v-10.2h-6.7v-6.7h6.7z"/><path fill="#C5FF26" d="M17 3.5h43.5v3l-4.5 1.3q-2.8 1.4-5.2 3.4l-.2.1-1 .8-.1.1-3 2.1v.1l-1.2.8-1.5.3q-2.2-1.1-4-2.7a47 47 0 0 0-7.2-4.8h-.1l-2.5-1h-.2l-3.6-.3h-1l-8-.1-.2-.2z"/><path fill="#0D1E06" d="m28 10.5 2.3.5a40 40 0 0 1 6.4 4.5l.2.1 2.5 1.9h.1q1.2.9 2.5 1.5a9 9 0 0 0 3.3.3l2.2-.8 6.3-4.7h.2l2.3-1.8c2.7-1.2 2.7-1.2 4-1.5l.5 1.5-.3 1-4 2-1.3 1-4 3.3-.2.4v2.6l3 2.7h.1q1.7 1.5 3.6 2.5l.1.1q1.2.7 2.5 1.1l.5 1.3-.3 1-1.2.3q-2.1-.8-3.9-2.1l-3.4-2.7-3.5-2.5h-.1l-.4-.3-.1-.1-1.4-.7-2.7-.3-2.3.5-4.4 3-.1.1-.8.7h-.2l-3 2.1v.1q-1.8 1.4-3.9 2.1h-1.1v-2.4l3-1.3.9-.7 5.1-3.8.5-1v-2l-.7-1.2-2-1.6h-.1l-5-3.4-1.7-.6z"/><path fill="#0E1F07" d="M10.5 3.8h2.5l.3.2.2 5 1 1 5.7.3h3.1v2.7l-8.3.3-1.2.7-.3.5v10.5l.8 1.8 1.2 1.2 1.3.5h1.2l.2.1h.2l.9.1h1.2l.2.1h.5l.8.1h.7l.6.1v2.5q-2 .4-4 .3l-3.3-.6-2.5-1.4-2-2.3-1-2.7-.2-9.8-.6-1.2-1-.6-5-.2v-2.5q1.1-.3 2.3-.3h1.5l2-.4.8-1.3z"/><path fill="#C5FF26" d="M28 17.3q2.3 1.4 4.5 3.2l-.2 1c-2.8 2.3-2.8 2.3-5.3 3.5h-8.5l-1.2-.7c-.6-2.4-.3-4.9-.3-7.3l4.2-.2a27 27 0 0 1 6.8.4"/><path fill="#D3FF39" d="M16.8 3h44.2v4l-4 1q-2.5 1.2-4.8 3h-.2l-4 3q-1.5 1.2-3.1 2l-2.2-.2-6-4.5-.2-.1a25 25 0 0 0-5.3-3.2c-4.6-1.2-9.4-.9-14.2-1l-.5-.5v-3q0-.2.3-.5m.2.5v2.8l.3.2 11.5.3c3.3.8 3.3.8 5 1.7q2.9 1.8 5.5 4l2.7 2 .1.1.9.7 1.8.2q2.5-1.5 4.9-3.5l4.4-3.2q2-1.2 4.2-1.7l2.2-.6v-3z"/><path fill="#C5FF26" d="M3.5 17h3v4q.1 3.7 1 7v.1l.1.2.1.1.2.4.4.7.4.7.8 1.6h-6zm40.3 9.3 1.5.2 4.9 3.6.1.1 1.7 1.3v.3h-15.5c1.4-1.5 1.4-1.5 2.2-2.1l1.6-1.2z"/><path fill="#020C00" d="M2.8 13.5h.1l2.2.3h.7l.7.1 1.5.1 1.5 1.5.3 8.8.7 3a11 11 0 0 0 2.5 3q1.5 1.4 3.3 2.2v.5h1.4v.3h-2.2l-3-1.5-2.2-2.3-.6-1.1-.2-.4q-.6-1.3-1-2.7v-10.5h-6.5v-1z"/><path fill="#D3FF39" d="M4.3 16.3h1.7l1 .4v.3l.1 3.5q0 3.2.7 6.3l1 2.4 1.7 2.3v.8h-7.5v-15.5zm-.8.7v14.8h6l-.5-1c-1.8-3.6-1.8-3.6-2-4.3a31 31 0 0 1-.4-6.8l-.1-2.7z"/><path fill="#D4FF39" d="M43.5 25.8h1.5l1.8.7.5.5 2.2 2 .4.2 3.1 2.3v.8h-17.5v-.8l.1-.1 4.4-3.6.8-.3.2-.5zm.3.4a25 25 0 0 0-5.4 3.8l-.1.1-.2.1-1.6 1.6h15.5a19 19 0 0 0-3.5-3q-1.8-1.5-3.7-2.6z"/><path fill="#C5FF27" d="M60.3 17.3h.2v7.2c-2.6-1.4-2.6-1.4-3.6-2.3l-1.1-1 .5-1z"/><path fill="#D4FF3B" d="m60 16.5 1.3.3v8.2l-1.8-.2-4.5-3.3.3-1 1.2-1.5.8-.2.5-.8h.7v-.5h.8v-.5h.7zm.3.8-4 3-.5 1 2.5 2q1 .7 2.2 1.2v-7.2z"/><path fill="#1D3505" d="M15.3 1.8v6.5h10v.2h-10.5v-.5h-.6l-.2-.7v-4.8l-.5-.5.6-.1h.2l.1-.1z"/><path fill="#C5FF26" d="M3.5 3.5h3v3h-3z"/><path fill="#112204" d="M8.5 2h1.8l-.6.5-.2 5.3-.7 1.2-.6-.2-6.4-.3v-.2h6.7z"/><path fill="#D4FF39" d="M3.8 2.8h2.2l1 .5v3.5l-.5.2h-3l-.5-.2v-3.5zm-.3.7v3h3v-3z"/></g></svg>
