<svg xmlns="http://www.w3.org/2000/svg" width="64" height="65" fill="none" viewBox="0 0 64 65"><rect width="64" height="64" y=".304" fill="#7B2BF9" rx="32"/><rect width="63" height="63" x=".5" y=".804" stroke="#070B14" stroke-opacity=".15" rx="31.5"/><path fill="#fff" d="m54.724 27.536-.013-.06c-.916-4.36-3.075-8.363-6.298-11.586A23.06 23.06 0 0 0 32 9.093c-6.2 0-12.029 2.415-16.412 6.799a23.5 23.5 0 0 0-2.842 3.44 8 8 0 0 0-.661 1.035A23.07 23.07 0 0 0 8.79 32.306a23.06 23.06 0 0 0 6.8 16.412 23.06 23.06 0 0 0 16.412 6.8 23.06 23.06 0 0 0 16.412-6.8 23.2 23.2 0 0 0 4.843-7.06 9 9 0 0 0 .367-.883 23.2 23.2 0 0 0 1.589-8.469 23.5 23.5 0 0 0-.488-4.768zm-8.065-10.674q.2.192.397.387a21.2 21.2 0 0 1 4.689 7.06.359.359 0 0 1-.397.488 10.7 10.7 0 0 0-2.06-.146 1.07 1.07 0 0 1-1.08-.881c-.413-2.321-1.012-4.465-1.78-6.336a14 14 0 0 0-.134-.317c-.098-.227.186-.426.365-.255m2.209 13.617a.248.248 0 0 1 .449-.15 20 20 0 0 1 1.098 1.712.54.54 0 0 1-.07.626 23 23 0 0 1-1.139 1.17.213.213 0 0 1-.361-.162q.021-.522.03-1.052.019-1.083-.01-2.148zM19.64 14.963c3.583-2.566 7.864-3.95 12.36-3.95 1.186 0 2.358.098 3.506.286.306.05.41.443.165.635-1.113.872-2.146 2.162-3.06 3.835a1 1 0 0 1-1.145.482c-3.029-.854-6.01-1.255-8.763-1.157a19.6 19.6 0 0 0-2.881.305c-.255.046-.39-.286-.182-.436m-3.039 31.801c-.447-.843.132-2.8 3.069-5.774a.732.732 0 0 0-.065-1.09l-.35-.28a.733.733 0 0 0-.982.053l-.115.115c-1.47 1.507-2.496 2.904-3.073 4.158a.501.501 0 0 1-.872.067 21.14 21.14 0 0 1-3.505-11.711c0-1.511.156-2.998.461-4.442.046-.22.355-.232.42-.02.442 1.46 1.16 2.967 2.154 4.493 1.338 2.054 3.1 4.027 5.192 5.839a36 36 0 0 0 2.252 1.793 39.5 39.5 0 0 0 5.165 3.205c.816.423 1.611.828 2.425 1.196.453.204.97.219 1.433.037q.576-.225 1.158-.47a.93.93 0 0 0 .54-1.08l-.03-.128c-.641-2.697-.998-5.735-1.04-8.916v-.113q.001-.26-.004-.522v-.271q0-.298.006-.597.016-.819.058-1.624c.199-3.84.848-7.446 1.885-10.48a.536.536 0 0 0-.334-.68 32 32 0 0 0-.82-.27.533.533 0 0 0-.664.337c-1.123 3.294-1.814 7.204-2 11.341a1.56 1.56 0 0 1-.762 1.272c-2.45 1.453-4.7 2.991-6.644 4.542a1.075 1.075 0 0 1-1.376-.03c-1.948-1.688-3.588-3.523-4.828-5.427-2.436-3.74-3.015-7.264-1.63-9.92l.01-.018q.265-.44.55-.867c1.594-2.106 4.556-3.327 8.485-3.465q.372-.012.751-.013c2.411 0 4.998.399 7.628 1.157l.173.05q.067.018.134.04a34 34 0 0 1 1.87.62l.476.175.148.056.144.055a38 38 0 0 1 3.837 1.734c2.453 1.276 4.7 2.768 6.653 4.41-3.73.853-8.066 2.502-12.425 4.725a.64.64 0 0 0-.346.53c-.015.27-.036.815-.05 1.245a.353.353 0 0 0 .517.323h.002c4.315-2.267 8.624-3.962 12.323-4.855a1.38 1.38 0 0 0 1.042-1.537 38 38 0 0 0-.23-1.453 2.43 2.43 0 0 0-.916-1.5 39.4 39.4 0 0 0-5.687-3.593 40 40 0 0 0-4.175-1.877.525.525 0 0 1-.271-.747c1.442-2.58 3.158-4.027 4.83-4.027h.053c1.972.035 3.939 2.09 5.394 5.634.737 1.796 1.309 3.864 1.7 6.113l-.007-.007q.25 1.442.4 2.969a.1.1 0 0 1-.026.014q.019.018.035.036c.165 1.707.236 3.486.203 5.3a47 47 0 0 1-.182 3.388c-2.639 2.132-5.902 4.255-9.486 6.154a68 68 0 0 1-3.524 1.741l-.054.025-.267.123a62 62 0 0 1-3.025 1.272l-.198.077-.472.18-.13.048q-.285.106-.57.206l-.07.025c-2.019.718-3.942 1.261-5.693 1.6-4.233.813-6.227.19-6.68-.667zm5.835-8.264c1.876-1.528 4.075-3.052 6.486-4.495.052 3.084.39 6.046.99 8.72a39 39 0 0 1-2.67-1.26 38 38 0 0 1-4.804-2.965zm12.312 14.917q-1.356.176-2.747.176a21.15 21.15 0 0 1-11.494-3.361c-.234-.15-.134-.514.144-.526l.158-.009q1.297-.083 2.837-.38c2.182-.42 4.61-1.14 7.15-2.11a.447.447 0 0 1 .574.25v.005c.986 2.396 2.196 4.208 3.557 5.36.226.19.113.558-.18.595m9.001-5.684c-1.52 2.99-3.392 4.668-5.206 4.634-1.973-.035-3.94-2.09-5.394-5.634v-.004a.447.447 0 0 1 .236-.58l.046-.021a.46.46 0 0 1 .302-.021c2.725.764 5.41 1.163 7.923 1.163q.41 0 .814-.015c.315-.01.624-.03.929-.052a.364.364 0 0 1 .35.528zm.656-2.572q-.953.14-2.002.175c-1.706.061-3.51-.087-5.363-.428a.24.24 0 0 1-.065-.45 67 67 0 0 0 1.213-.629c2.835-1.503 5.48-3.146 7.795-4.828a.24.24 0 0 1 .378.234c-.322 1.928-.766 3.747-1.324 5.396a.79.79 0 0 1-.632.53m3.142 1.689q-.241.257-.491.507-.435.434-.891.842c-.193.17-.48-.042-.372-.276l.092-.2q.19-.423.37-.865a.24.24 0 0 1 .16-.14q.454-.114.883-.254c.232-.075.413.206.248.386m4.279-6.755q-.153.392-.322.774-.024.053-.052.107c-.701 1.35-1.88 2.415-3.455 3.156a.455.455 0 0 1-.634-.532c.522-1.87.918-3.9 1.175-6.027a1.62 1.62 0 0 1 .545-1.023 34 34 0 0 0 1.808-1.674l.006-.006a.51.51 0 0 1 .852.215c.549 1.826.58 3.527.077 5.01m.426-9.975a.43.43 0 0 1-.741.023q-.04-.063-.084-.127a25 25 0 0 0-2.181-2.862.354.354 0 0 1 .267-.587h.008c1.908 0 2.908.472 3.213 1.046.255.48.177 1.324-.48 2.507zm1.031 2.814c-.004.144-.2.182-.257.05l-.075-.17a.32.32 0 0 1 .036-.32c.014-.019.044-.056.077-.102.094-.122.227-.105.227.03 0 .178-.004.33-.01.512z"/></svg>