<svg xmlns="http://www.w3.org/2000/svg" xml:space="preserve" id="tko_svg-Layer_1" x="0" y="0" version="1.1" viewBox="0 0 566.9 566.9"><style>.tko_svg-tko-st0{fill:#007ea4}.tko_svg-tko-st1{fill:#1aa64a}</style><path d="M235.5 267.8c-7.5 0-15-.1-22.5 0-13.4.1 32.5 64.5 65.8 72.1 7.4 1.7 11.4 5 11.4 12.6.1 15.9.2 31.8-.1 47.6-.2 9-5.6 13.3-14.1 11.8-63.5-10.7-110.2-44.5-138.8-102.5-4.1-8.2-7.3-16.9-10.1-25.7-4.7-14.8-5.1-15.4-21.1-16-19.3-.7-32.2-10.7-36.4-28.3-4.9-20.5 10.7-41.6 31.7-42.9 2.9-.2 5.8-.3 8.7-.1 9 .5 14-4.1 16.2-12.4 5.3-20.3 14.4-38.8 26.2-56.1 9.7-14.3 14.9-14.9 27-2.9 9.2 9.2 18.3 18.4 27.6 27.5 6 5.9 7.5 11.9 2.2 19.1-2.7 3.7-4.8 7.9-6.8 12-4.1 8.6-1.7 12.6 7.8 12.7 17 .2 34.1-.1 51.1.1 18.1.2 31.3 11.2 35.5 29.5 3.4 14.5-5 32.2-20.4 38-9.1 3.4-19.7 2.8-29.7 3.8-3.7.4-7.5.1-11.2.1" class="tko_svg-tko-st0"/><path d="M310.9 51c58.9 2.6 110.7 31.6 146.2 88.6 12.2 19.6 8.9 38-8.6 48.9-18.9 11.8-39.7 7.3-51.6-11.9-17.9-28.7-42.9-47.1-76.3-53.2-27.5-5-53.3.2-77.2 14.6-10.5 6.3-13.9 5.9-22.6-2.8-9.4-9.3-18.8-18.7-28.1-28.2-8.2-8.4-7.7-14.2 1.8-21.3 29.6-22.4 70.7-35.5 116.4-34.7m2.4 324.9v-24.2c0-6.1 3.1-9.9 8.8-11.1 33.5-7.1 58.4-25.8 76-54.9 7.9-13 20-18 34.7-15.8 13.2 2 23.7 8.7 29.3 21.4 3.9 8.8 3.1 17.6-1.1 25.9-13.8 26.6-33.5 48.1-58.2 64.9-22.7 15.5-47.7 25.2-74.9 29.1-9.6 1.4-14.3-2.4-14.5-11.9-.3-7.8-.2-15.6-.1-23.4" class="tko_svg-tko-st1"/><path d="M53.1 464.4v66.5H40.5v-66.5H20v-10.7h53.5v10.7zM73.6 506c0-3.7.7-7.1 2.1-10.4s3.4-6.1 6-8.7c2.6-2.5 5.5-4.4 8.9-5.7 3.3-1.3 6.8-2 10.5-2 3.8 0 7.3.7 10.6 2s6.3 3.3 8.9 5.9q3.9 3.9 6 8.7t2.1 10.2c0 3.7-.7 7.2-2 10.4-1.4 3.2-3.3 6.1-5.9 8.6-2.7 2.6-5.8 4.6-9.1 6s-6.9 2-10.5 2-7.1-.7-10.4-2c-3.3-1.4-6.3-3.3-8.9-5.9s-4.6-5.5-6-8.8-2.3-6.7-2.3-10.3m42.9.1c0-4.6-1.5-8.6-4.5-11.8s-6.6-4.8-11-4.8c-4.3 0-7.9 1.6-10.9 4.8s-4.5 7.1-4.5 11.8 1.5 8.6 4.5 11.8 6.7 4.8 10.9 4.8c4.3 0 7.9-1.6 10.9-4.8 3.1-3.2 4.6-7.2 4.6-11.8m24.2 24.8v-81.7h11.4v52.5L173 481h14.1l-22.7 22 24.8 27.9h-14.8l-22.5-25.8v25.8zm49.9-24.9c0-3.7.7-7.1 2.1-10.4s3.4-6.1 6-8.7c2.6-2.5 5.5-4.4 8.9-5.7 3.3-1.3 6.8-2 10.5-2 3.8 0 7.3.7 10.6 2s6.3 3.3 8.9 5.9q3.9 3.9 6 8.7t2.1 10.2c0 3.7-.7 7.2-2 10.4-1.4 3.2-3.3 6.1-5.9 8.6-2.7 2.6-5.8 4.6-9.1 6s-6.9 2-10.5 2-7.1-.7-10.4-2c-3.3-1.4-6.3-3.3-8.9-5.9s-4.6-5.5-6-8.8-2.3-6.7-2.3-10.3m43 .1c0-4.6-1.5-8.6-4.5-11.8s-6.6-4.8-11-4.8c-4.3 0-7.9 1.6-10.9 4.8s-4.5 7.1-4.5 11.8 1.5 8.6 4.5 11.8 6.7 4.8 10.9 4.8c4.3 0 7.9-1.6 10.9-4.8 3.1-3.2 4.6-7.2 4.6-11.8" class="tko_svg-tko-st0"/><path d="M296.5 495.2c-1.8-1.9-3.8-3.4-6.1-4.4s-4.9-1.5-7.6-1.5c-4.7 0-8.4 1.5-11.2 4.5q-4.2 4.5-4.2 12 0 7.8 4.2 12.3t11.7 4.5c2.8 0 5.3-.5 7.4-1.6 2.2-1 4.1-2.6 5.7-4.7v13.2c-2.1 1.2-4.4 2.1-6.8 2.7s-5 .9-7.7.9q-11.7 0-19.2-7.5c-4.9-5-7.4-11.5-7.4-19.4 0-8 2.6-14.5 7.7-19.5 5.1-4.9 11.8-7.4 20.1-7.4 2.6 0 5 .3 7.2.8s4.2 1.3 6.1 2.3v12.8zm23.1-6.3c1.2-3.3 2.9-5.7 4.9-7.3q3-2.4 7.5-2.4 2.4 0 4.8.6c1.6.4 3.1.9 4.6 1.7l-4.1 9.7c-1-.7-2-1.2-3.2-1.6-1.1-.3-2.4-.5-3.8-.5-3.8 0-6.5 1.5-8.2 4.6-1.7 3-2.5 8.1-2.5 15.3v21.9h-11.4v-50.1h11.4zm41.6 65.5h-11.8l13.7-27.8-18.3-45.7h12.7l9.2 25.9c.5 1.6 1 3.2 1.4 4.8s.7 3.3 1 5c.5-1.8 1.5-4.6 3.3-8.4l.3-.6 12.3-26.7h12.4zm42.2 0v-73.5h11.4v8.2c1.3-3.2 3.5-5.6 6.4-7.3s6.4-2.6 10.5-2.6c6.6 0 12 2.5 16.2 7.4 4.1 4.9 6.2 11.3 6.2 19.3 0 8.4-2 15-6.1 19.8s-9.6 7.2-16.7 7.2c-3.5 0-6.6-.7-9.4-2.1s-5.1-3.5-7.1-6.4v30zm11.1-48.6c0 5.2 1.3 9.3 3.9 12.4s6 4.6 10.2 4.6c4.3 0 7.7-1.4 10-4.3q3.6-4.35 3.6-12.3c0-5.3-1.2-9.4-3.7-12.4q-3.75-4.5-10.2-4.5c-6.45 0-7.7 1.4-10.1 4.3-2.5 3-3.7 7-3.7 12.2m55.3 25.1v-40H461v-10h8.8V462h11.4v18.9h8.8v10h-8.8v40zm27.1-24.9c0-3.7.7-7.1 2.1-10.4s3.4-6.1 6-8.7c2.6-2.5 5.5-4.4 8.9-5.7 3.3-1.3 6.8-2 10.5-2 3.8 0 7.3.7 10.6 2s6.3 3.3 8.9 5.9q3.9 3.9 6 8.7T552 506c0 3.7-.7 7.2-2 10.4-1.4 3.2-3.3 6.1-5.9 8.6-2.7 2.6-5.8 4.6-9.1 6s-6.9 2-10.5 2-7.1-.7-10.4-2c-3.3-1.4-6.3-3.3-8.9-5.9s-4.6-5.5-6-8.8c-1.7-3.2-2.3-6.7-2.3-10.3m42.9.1c0-4.6-1.5-8.6-4.5-11.8s-6.6-4.8-11-4.8c-4.3 0-7.9 1.6-10.9 4.8s-4.5 7.1-4.5 11.8 1.5 8.6 4.5 11.8 6.7 4.8 10.9 4.8 7.9-1.6 10.9-4.8 4.6-7.2 4.6-11.8" class="tko_svg-tko-st1"/></svg>