<svg id="svg" version="1.1" xmlns="http://www.w3.org/2000/svg" xmlns:xlink="http://www.w3.org/1999/xlink" width="400" height="400" viewBox="0, 0, 400,400"><g id="svgg"><path id="path0" d="M1.300 2.539 C -0.219 3.037,-0.366 3.650,0.900 4.205 L 1.800 4.600 1.909 199.400 C 2.023 402.699,2.061 396.000,0.792 396.000 C 0.267 396.000,0.000 396.269,0.000 396.800 C 0.000 397.410,0.267 397.600,1.120 397.600 C 1.736 397.600,2.420 397.780,2.641 398.001 C 3.127 398.487,396.713 398.315,398.700 397.828 C 400.181 397.465,400.500 396.224,399.200 395.884 C 397.934 395.553,397.934 4.447,399.200 4.116 C 400.490 3.778,400.122 2.963,398.454 2.463 C 396.334 1.828,3.238 1.903,1.300 2.539 M110.400 164.400 C 110.840 164.840,111.374 165.200,111.586 165.200 C 113.852 165.200,112.842 172.088,110.493 172.649 C 109.892 172.793,109.179 173.084,108.909 173.297 C 108.371 173.720,83.190 173.793,81.739 173.375 C 80.374 172.982,80.368 173.094,80.282 202.805 C 80.205 229.012,80.154 230.898,79.500 231.376 C 79.115 231.658,78.800 232.012,78.800 232.163 C 78.800 234.074,73.813 235.120,72.422 233.500 C 71.996 233.005,71.278 232.167,70.824 231.639 C 70.371 231.110,70.000 230.390,69.999 230.039 C 69.999 229.687,69.992 217.090,69.984 202.045 C 69.969 173.448,69.936 172.893,68.266 173.374 C 66.811 173.792,41.630 173.721,41.091 173.297 C 40.821 173.084,40.108 172.793,39.507 172.649 C 37.208 172.100,36.173 165.200,38.390 165.200 C 38.616 165.200,39.160 164.840,39.600 164.400 C 40.388 163.612,40.933 163.600,75.000 163.600 C 109.067 163.600,109.612 163.612,110.400 164.400 M189.801 165.016 C 192.333 166.809,194.800 169.402,194.800 170.269 C 194.800 170.637,195.115 171.285,195.500 171.711 C 196.132 172.410,196.200 173.588,196.200 183.875 C 196.200 194.261,196.138 195.310,195.500 195.776 C 195.115 196.058,194.800 196.654,194.800 197.100 C 194.800 198.176,190.695 202.315,189.299 202.646 C 188.694 202.790,187.914 203.155,187.565 203.457 C 187.084 203.873,185.210 204.023,179.881 204.072 C 172.741 204.138,171.152 204.504,173.215 205.608 C 173.648 205.840,175.255 207.282,176.787 208.814 C 178.319 210.346,179.764 211.600,179.999 211.600 C 180.233 211.600,180.534 211.883,180.667 212.229 C 180.963 213.002,187.532 219.600,188.005 219.600 C 188.193 219.600,188.457 219.951,188.594 220.380 C 188.730 220.808,189.183 221.267,189.600 221.400 C 190.017 221.533,190.467 221.983,190.600 222.400 C 190.733 222.817,191.183 223.267,191.600 223.400 C 192.017 223.533,192.462 223.964,192.587 224.360 C 192.713 224.755,193.262 225.282,193.808 225.531 C 194.353 225.779,194.800 226.167,194.800 226.391 C 194.800 226.616,195.160 227.160,195.600 227.600 C 197.594 229.594,194.439 234.400,191.136 234.400 C 189.323 234.400,190.700 235.630,172.886 218.100 C 168.359 213.645,164.508 210.000,164.328 210.000 C 164.147 210.000,164.000 209.760,164.000 209.468 C 164.000 209.175,163.550 208.694,163.000 208.400 C 162.450 208.106,162.000 207.724,162.000 207.552 C 162.000 207.239,159.385 204.570,158.585 204.066 C 155.949 202.405,156.150 197.013,158.903 195.547 C 159.397 195.284,160.011 194.784,160.269 194.435 C 160.680 193.879,162.255 193.800,172.869 193.800 C 179.541 193.800,185.180 193.682,185.400 193.538 C 185.927 193.193,185.897 174.537,185.368 174.008 C 184.937 173.577,135.284 173.383,134.856 173.810 C 134.715 173.951,134.510 186.966,134.400 202.733 L 134.200 231.400 132.810 232.759 C 130.026 235.482,126.224 234.564,124.910 230.852 C 124.312 229.163,124.161 173.389,124.752 172.632 C 124.938 172.394,125.218 171.663,125.376 171.007 C 125.730 169.529,128.907 165.746,130.111 165.368 C 130.600 165.215,131.429 164.755,131.954 164.345 C 132.863 163.635,134.192 163.600,160.355 163.600 L 187.803 163.600 189.801 165.016 M268.500 164.021 C 269.325 164.250,270.000 164.589,270.000 164.774 C 270.000 164.959,270.585 165.221,271.300 165.355 C 272.650 165.609,276.800 169.203,276.800 170.119 C 276.800 170.388,277.144 170.822,277.564 171.085 C 277.984 171.347,278.457 172.155,278.615 172.881 C 278.773 173.606,279.149 174.555,279.451 174.989 C 280.268 176.164,280.266 222.482,279.448 223.160 C 279.145 223.412,278.791 224.144,278.663 224.787 C 278.336 226.420,274.977 230.800,274.051 230.800 C 273.828 230.800,273.394 231.159,273.087 231.597 C 272.780 232.036,271.915 232.510,271.164 232.652 C 270.414 232.794,269.466 233.200,269.058 233.555 C 267.794 234.655,222.974 234.740,220.652 233.648 C 219.744 233.220,218.428 232.753,217.729 232.610 C 217.029 232.466,216.172 231.912,215.820 231.375 C 215.469 230.839,214.911 230.400,214.581 230.400 C 214.251 230.400,213.809 229.950,213.600 229.400 C 213.391 228.850,212.959 228.400,212.641 228.400 C 212.323 228.400,211.845 227.725,211.580 226.900 C 211.316 226.075,210.807 225.066,210.449 224.658 C 209.441 223.506,209.459 174.462,210.469 173.342 C 210.837 172.934,211.264 172.095,211.418 171.477 C 211.572 170.859,212.126 170.074,212.649 169.731 C 213.172 169.388,213.600 168.854,213.600 168.544 C 213.600 168.234,214.035 167.815,214.568 167.612 C 215.100 167.410,215.685 167.001,215.868 166.704 C 216.164 166.223,219.627 164.376,221.200 163.860 C 222.445 163.452,266.996 163.603,268.500 164.021 M302.637 166.800 C 302.753 167.350,303.032 168.136,303.257 168.547 C 303.510 169.010,303.648 173.376,303.620 180.006 C 303.579 189.368,303.660 190.899,304.261 192.159 L 304.948 193.600 329.095 193.600 L 353.242 193.600 353.660 192.400 C 353.890 191.740,354.196 191.200,354.339 191.200 C 354.483 191.200,354.549 186.309,354.487 180.331 C 354.393 171.230,354.474 169.252,354.987 168.170 C 355.324 167.460,355.600 166.684,355.600 166.445 C 355.600 166.206,356.208 165.757,356.951 165.446 C 357.694 165.136,358.422 164.688,358.568 164.451 C 359.521 162.909,364.379 166.847,364.427 169.200 C 364.684 181.774,364.312 193.879,363.641 194.808 C 363.240 195.362,362.784 196.222,362.626 196.718 C 362.468 197.215,361.903 197.907,361.370 198.257 C 360.836 198.606,360.400 199.146,360.400 199.456 C 360.400 199.766,359.995 200.179,359.500 200.373 C 359.005 200.568,358.295 201.093,357.923 201.541 C 357.551 201.989,356.561 202.463,355.723 202.595 C 354.885 202.727,353.538 203.032,352.728 203.273 C 351.773 203.556,348.367 203.643,343.028 203.520 C 334.894 203.332,334.800 203.339,334.784 204.165 C 334.775 204.624,334.781 210.580,334.797 217.400 C 334.827 230.642,334.687 232.400,333.576 232.690 C 333.190 232.791,332.784 233.217,332.674 233.637 C 332.304 235.054,328.251 234.713,326.669 233.131 L 325.400 231.862 325.305 217.870 C 325.253 210.174,325.110 203.777,324.987 203.654 C 324.864 203.531,320.407 203.415,315.082 203.397 C 304.157 203.361,301.992 203.067,300.000 201.352 C 297.419 199.131,295.905 197.493,295.375 196.345 C 295.032 195.605,294.495 194.550,294.182 194.000 C 293.083 192.073,293.359 168.602,294.500 166.933 C 296.621 163.831,301.992 163.743,302.637 166.800 M221.696 174.283 C 221.198 174.379,220.519 174.984,220.185 175.628 C 219.852 176.273,219.449 176.800,219.290 176.800 C 218.625 176.800,219.096 220.822,219.768 221.565 C 220.116 221.949,220.400 222.478,220.400 222.741 C 220.400 224.040,264.385 224.800,267.935 223.563 C 269.688 222.952,269.633 223.743,269.633 199.000 C 269.633 173.962,269.719 175.148,267.858 174.475 C 266.589 174.016,224.004 173.839,221.696 174.283 M224.000 176.951 C 224.000 177.034,223.730 177.326,223.400 177.600 C 222.909 178.008,222.800 177.980,222.800 177.449 C 222.800 177.092,223.070 176.800,223.400 176.800 C 223.730 176.800,224.000 176.868,224.000 176.951 " stroke="none" fill="#2b2b2b" fill-rule="evenodd"></path><path id="path1" d="M39.900 166.664 C 38.447 167.430,38.472 168.764,39.968 170.365 L 41.135 171.615 56.017 171.590 C 69.480 171.567,70.970 171.630,71.649 172.244 C 72.371 172.897,72.400 174.067,72.400 202.081 L 72.400 231.239 73.677 231.776 C 74.896 232.288,76.239 232.072,77.312 231.192 C 77.484 231.051,77.664 217.862,77.712 201.882 C 77.791 175.850,77.867 172.762,78.440 172.188 C 79.006 171.622,80.821 171.552,94.011 171.585 L 108.942 171.623 110.092 170.363 C 111.496 168.827,111.341 167.264,109.709 166.500 C 108.012 165.706,41.422 165.862,39.900 166.664 M132.400 166.461 C 131.630 166.675,130.820 167.080,130.600 167.360 C 130.380 167.640,129.795 168.085,129.300 168.349 C 128.805 168.612,128.400 169.082,128.400 169.391 C 128.400 169.701,127.995 170.238,127.500 170.585 L 126.600 171.215 126.478 199.508 C 126.332 233.547,126.220 232.452,129.800 232.031 C 132.127 231.757,132.022 233.134,132.006 202.917 C 131.990 174.680,132.026 173.974,133.584 172.416 C 134.388 171.612,134.765 171.600,160.138 171.600 L 185.876 171.600 187.038 172.598 L 188.200 173.596 188.305 183.498 C 188.363 188.944,188.273 193.583,188.105 193.806 C 187.937 194.030,187.201 194.705,186.469 195.306 L 185.139 196.400 173.000 196.400 L 160.862 196.400 159.631 197.631 C 157.269 199.992,157.189 199.875,169.981 212.642 C 190.957 233.576,189.999 232.753,192.263 231.801 C 194.072 231.040,194.277 226.800,192.504 226.800 C 192.217 226.800,191.778 226.350,191.527 225.800 C 191.277 225.250,190.827 224.800,190.527 224.800 C 190.228 224.800,189.778 224.350,189.527 223.800 C 189.277 223.250,188.827 222.800,188.527 222.800 C 188.228 222.800,187.778 222.350,187.527 221.800 C 187.277 221.250,186.827 220.800,186.527 220.800 C 186.228 220.800,185.785 220.365,185.543 219.834 C 185.301 219.303,184.751 218.776,184.322 218.664 C 183.892 218.551,183.447 218.103,183.333 217.667 C 183.219 217.231,182.769 216.781,182.333 216.667 C 181.897 216.553,181.443 216.086,181.324 215.630 C 181.204 215.173,180.854 214.800,180.545 214.800 C 180.236 214.800,179.785 214.365,179.543 213.834 C 179.301 213.303,178.751 212.776,178.322 212.664 C 177.892 212.551,177.443 212.086,177.324 211.630 C 177.204 211.173,176.921 210.800,176.693 210.800 C 176.466 210.800,175.321 209.810,174.149 208.600 C 172.977 207.390,171.836 206.400,171.615 206.400 C 170.921 206.400,169.157 203.376,169.433 202.659 C 169.802 201.695,170.508 201.617,179.869 201.503 C 188.030 201.404,188.372 201.367,189.294 200.500 C 189.821 200.005,190.460 199.600,190.716 199.600 C 190.971 199.600,191.450 199.076,191.781 198.436 C 192.112 197.796,192.612 197.196,192.892 197.103 C 194.135 196.690,193.938 171.045,192.685 170.344 C 192.308 170.133,192.000 169.803,192.000 169.611 C 192.000 168.840,189.325 166.653,188.006 166.346 C 185.986 165.876,134.118 165.984,132.400 166.461 M219.191 166.722 C 218.068 167.235,214.800 169.635,214.800 169.947 C 214.800 170.117,214.272 170.847,213.627 171.569 C 212.702 172.606,212.401 173.401,212.200 175.341 C 211.755 179.644,212.149 224.514,212.639 225.342 C 213.554 226.887,216.840 229.878,218.573 230.744 L 220.376 231.644 244.781 231.612 C 258.204 231.595,269.504 231.458,269.893 231.309 C 272.094 230.465,275.215 227.747,275.991 226.000 C 276.235 225.450,276.694 224.550,277.011 224.000 C 277.496 223.160,277.589 219.182,277.594 199.092 L 277.600 175.185 276.432 172.996 C 274.873 170.075,274.014 169.034,272.521 168.263 C 271.834 167.907,271.196 167.388,271.103 167.108 C 270.917 166.550,220.392 166.174,219.191 166.722 M297.731 166.683 C 297.196 166.784,296.696 167.323,296.431 168.083 C 295.928 169.525,295.859 191.295,296.349 193.820 C 296.693 195.595,300.521 200.000,301.720 200.000 C 302.072 200.000,302.536 200.315,302.752 200.700 C 303.107 201.336,304.178 201.412,314.465 201.529 C 321.594 201.610,325.975 201.814,326.294 202.078 C 326.684 202.402,326.800 205.711,326.800 216.574 L 326.800 230.650 328.017 231.550 C 329.544 232.679,331.074 232.533,332.093 231.161 C 332.822 230.180,332.859 229.445,332.760 218.161 C 332.624 202.830,332.606 203.277,333.397 202.403 C 334.014 201.721,334.931 201.648,344.394 201.530 C 353.552 201.415,354.805 201.321,355.490 200.700 C 355.915 200.315,356.446 200.000,356.671 200.000 C 357.797 200.000,361.536 195.301,361.789 193.566 C 362.199 190.767,361.857 167.695,361.400 167.248 C 360.453 166.322,358.924 166.332,357.833 167.271 L 356.753 168.200 356.677 180.071 C 356.590 193.447,356.649 193.180,353.372 195.063 L 351.800 195.965 329.000 195.970 L 306.200 195.975 304.652 195.024 C 301.583 193.138,301.606 193.248,301.603 180.144 C 301.600 166.659,301.407 165.988,297.731 166.683 M268.576 172.500 C 268.858 172.885,269.297 173.200,269.553 173.200 C 269.808 173.200,270.238 173.693,270.509 174.295 C 270.779 174.896,271.315 175.706,271.700 176.095 C 272.350 176.749,272.400 178.385,272.400 198.844 L 272.400 220.888 271.133 222.844 C 270.436 223.920,269.716 224.800,269.533 224.800 C 269.350 224.800,268.840 225.160,268.400 225.600 C 267.619 226.381,267.067 226.400,244.879 226.400 L 222.158 226.400 220.524 225.199 C 217.395 222.897,217.600 224.749,217.600 198.815 L 217.600 175.602 219.087 173.956 C 219.905 173.050,220.940 172.159,221.387 171.975 C 223.190 171.233,268.015 171.732,268.576 172.500 " stroke="none" fill="#8fecf8" fill-rule="evenodd"></path><path id="path2" d="M0.000 1.447 C 0.000 2.838,0.042 2.881,1.100 2.563 C 2.568 2.123,397.489 2.103,398.900 2.543 C 399.960 2.874,400.000 2.835,400.000 1.443 L 400.000 0.000 200.000 0.000 L 0.000 0.000 0.000 1.447 M0.000 200.000 C 0.000 392.041,0.015 396.000,0.757 396.000 C 1.174 396.000,1.624 395.715,1.757 395.367 C 2.265 394.044,2.029 4.989,1.520 4.480 C -0.056 2.904,0.000 -4.312,0.000 200.000 M398.585 4.500 C 397.918 6.257,398.630 395.795,399.300 395.924 C 399.966 396.052,400.000 386.509,400.000 200.029 C 400.000 24.262,399.937 4.000,399.387 4.000 C 399.051 4.000,398.690 4.225,398.585 4.500 M39.600 164.400 C 39.160 164.840,38.616 165.200,38.390 165.200 C 36.173 165.200,37.208 172.100,39.507 172.649 C 40.108 172.793,40.821 173.084,41.091 173.297 C 41.630 173.721,66.811 173.792,68.266 173.374 C 69.936 172.893,69.969 173.448,69.984 202.045 C 69.992 217.090,69.999 229.687,69.999 230.039 C 70.000 230.390,70.371 231.110,70.824 231.639 C 71.278 232.167,71.996 233.005,72.422 233.500 C 73.813 235.120,78.800 234.074,78.800 232.163 C 78.800 232.012,79.115 231.658,79.500 231.376 C 80.154 230.898,80.205 229.012,80.282 202.805 C 80.368 173.094,80.374 172.982,81.739 173.375 C 83.356 173.840,108.443 173.717,108.918 173.242 C 109.241 172.919,105.403 172.800,94.723 172.800 C 81.260 172.800,80.064 172.855,79.822 173.487 C 79.677 173.864,79.572 186.529,79.589 201.631 C 79.622 231.096,79.506 232.800,77.463 232.800 C 77.152 232.800,76.674 233.070,76.400 233.400 C 75.332 234.687,71.982 233.056,71.139 230.839 C 70.908 230.233,70.763 218.893,70.772 202.322 C 70.783 182.699,70.658 174.526,70.336 173.819 L 69.884 172.827 54.909 172.714 L 39.934 172.600 38.767 171.294 C 36.776 169.065,37.305 166.589,40.147 164.833 C 41.736 163.850,107.452 163.486,109.326 164.449 C 112.707 166.186,113.413 169.067,111.040 171.440 C 109.705 172.775,109.691 173.047,110.982 172.552 C 112.968 171.790,113.509 165.200,111.586 165.200 C 111.374 165.200,110.840 164.840,110.400 164.400 C 109.612 163.612,109.067 163.600,75.000 163.600 C 40.933 163.600,40.388 163.612,39.600 164.400 M131.954 164.345 C 131.429 164.755,130.600 165.215,130.111 165.368 C 128.907 165.746,125.730 169.529,125.376 171.007 C 125.218 171.663,124.938 172.394,124.752 172.632 C 124.161 173.389,124.312 229.163,124.910 230.852 C 126.224 234.564,130.026 235.482,132.810 232.759 L 134.200 231.400 134.400 202.733 C 134.510 186.966,134.715 173.951,134.856 173.810 C 135.284 173.383,184.937 173.577,185.368 174.008 C 185.897 174.537,185.927 193.193,185.400 193.538 C 185.180 193.682,179.541 193.800,172.869 193.800 C 162.255 193.800,160.680 193.879,160.269 194.435 C 160.011 194.784,159.397 195.284,158.903 195.547 C 156.150 197.013,155.949 202.405,158.585 204.066 C 159.385 204.570,162.000 207.239,162.000 207.552 C 162.000 207.724,162.450 208.106,163.000 208.400 C 163.550 208.694,164.000 209.175,164.000 209.468 C 164.000 209.760,164.147 210.000,164.328 210.000 C 164.508 210.000,168.359 213.645,172.886 218.100 C 190.700 235.630,189.323 234.400,191.136 234.400 C 194.439 234.400,197.594 229.594,195.600 227.600 C 195.160 227.160,194.800 226.616,194.800 226.391 C 194.800 226.167,194.353 225.779,193.808 225.531 C 193.262 225.282,192.713 224.755,192.587 224.360 C 192.462 223.964,192.017 223.533,191.600 223.400 C 191.183 223.267,190.733 222.817,190.600 222.400 C 190.467 221.983,190.017 221.533,189.600 221.400 C 189.183 221.267,188.730 220.808,188.594 220.380 C 188.457 219.951,188.193 219.600,188.005 219.600 C 187.532 219.600,180.963 213.002,180.667 212.229 C 180.534 211.883,180.233 211.600,179.999 211.600 C 179.764 211.600,178.319 210.346,176.787 208.814 C 175.255 207.282,173.648 205.840,173.215 205.608 C 171.151 204.503,172.741 204.138,179.899 204.072 C 184.969 204.025,187.107 203.864,187.467 203.503 C 187.871 203.099,186.287 203.000,179.413 203.000 C 174.707 203.000,171.113 203.144,171.428 203.320 C 171.743 203.496,172.000 203.916,172.000 204.255 C 172.000 204.593,173.575 206.366,175.500 208.196 C 191.210 223.124,196.074 228.498,195.313 230.083 C 195.071 230.588,194.770 231.319,194.645 231.709 C 194.520 232.099,194.099 232.539,193.709 232.687 C 193.319 232.834,192.762 233.190,192.471 233.478 C 190.877 235.053,189.575 233.980,172.495 217.008 C 155.486 200.107,155.923 200.699,157.962 197.355 C 159.614 194.646,160.911 194.400,173.540 194.400 C 182.731 194.400,184.993 194.292,185.714 193.820 C 186.912 193.035,187.026 175.615,185.845 173.813 L 185.182 172.800 160.055 172.800 L 134.928 172.800 134.464 173.819 C 134.126 174.560,134.000 182.305,134.000 202.272 C 134.000 233.073,134.176 231.237,131.033 233.180 C 129.126 234.358,126.678 233.498,125.633 231.281 C 125.062 230.070,125.030 173.618,125.600 171.600 C 126.229 169.371,129.026 166.448,131.777 165.147 L 134.200 164.001 160.360 164.000 L 186.520 164.000 188.685 165.096 C 190.758 166.146,193.255 168.408,194.286 170.170 C 194.701 170.879,194.774 170.898,194.786 170.301 C 194.804 169.411,192.384 166.845,189.801 165.016 L 187.803 163.600 160.355 163.600 C 134.192 163.600,132.863 163.635,131.954 164.345 M221.200 163.860 C 219.627 164.376,216.164 166.223,215.868 166.704 C 215.685 167.001,215.100 167.410,214.568 167.612 C 214.035 167.815,213.600 168.234,213.600 168.544 C 213.600 168.854,213.172 169.388,212.649 169.731 C 212.126 170.074,211.572 170.859,211.418 171.477 C 211.264 172.095,210.837 172.934,210.469 173.342 C 209.459 174.462,209.441 223.506,210.449 224.658 C 210.807 225.066,211.316 226.075,211.580 226.900 C 211.845 227.725,212.323 228.400,212.641 228.400 C 212.959 228.400,213.391 228.850,213.600 229.400 C 213.809 229.950,214.240 230.400,214.557 230.400 C 214.874 230.400,215.463 230.847,215.867 231.394 C 216.314 232.002,217.145 232.473,218.000 232.605 C 219.187 232.789,219.260 232.760,218.481 232.417 C 215.888 231.274,212.249 227.691,211.558 225.600 C 211.304 224.830,210.894 223.947,210.648 223.639 C 210.332 223.243,210.167 216.226,210.088 199.819 L 209.976 176.560 211.013 173.804 C 212.581 169.638,215.586 166.667,219.783 165.133 C 221.638 164.455,223.483 164.400,244.394 164.394 C 270.806 164.387,270.473 164.345,274.594 168.211 C 275.807 169.350,276.800 170.134,276.800 169.955 C 276.800 169.166,272.517 165.584,271.300 165.355 C 270.585 165.221,270.000 164.959,270.000 164.774 C 270.000 163.756,224.137 162.896,221.200 163.860 M297.169 164.851 C 293.619 166.389,293.599 166.476,293.606 180.625 C 293.611 190.594,293.723 193.194,294.182 194.000 C 294.495 194.550,295.032 195.605,295.375 196.345 C 295.906 197.494,297.237 198.938,300.000 201.363 C 301.009 202.248,302.301 202.802,303.274 202.766 C 304.187 202.732,304.186 202.727,303.200 202.424 C 300.869 201.707,295.607 197.076,295.598 195.733 C 295.596 195.550,295.287 194.860,294.911 194.200 C 293.714 192.099,293.621 169.708,294.802 167.798 C 296.778 164.599,301.188 164.323,302.395 167.321 C 302.725 168.140,302.751 168.145,302.769 167.400 C 302.821 165.236,299.631 163.784,297.169 164.851 M358.568 164.451 C 358.422 164.688,357.694 165.136,356.951 165.446 C 356.208 165.757,355.600 166.206,355.600 166.445 C 355.600 166.684,355.324 167.460,354.987 168.170 C 354.474 169.252,354.393 171.230,354.487 180.331 C 354.549 186.309,354.483 191.200,354.339 191.200 C 354.196 191.200,353.890 191.740,353.660 192.400 L 353.242 193.600 329.095 193.600 L 304.948 193.600 304.261 192.159 C 303.660 190.898,303.579 189.364,303.620 179.912 C 303.651 172.629,303.525 168.965,303.233 168.673 C 302.922 168.362,302.803 171.507,302.811 179.820 L 302.822 191.400 303.913 192.715 L 305.004 194.031 329.002 194.030 L 353.000 194.029 354.083 192.750 L 355.167 191.470 355.283 179.502 L 355.400 167.533 356.706 166.367 C 358.541 164.728,362.015 164.918,362.688 166.694 C 362.835 167.082,363.190 167.638,363.478 167.929 C 363.884 168.340,364.000 171.119,364.000 180.454 L 364.000 192.451 362.966 194.711 C 361.306 198.341,358.064 201.500,355.130 202.345 C 354.228 202.605,354.070 202.739,354.640 202.764 C 355.902 202.818,357.906 202.021,358.158 201.366 C 358.280 201.048,358.834 200.615,359.390 200.404 C 359.945 200.193,360.400 199.766,360.400 199.456 C 360.400 199.146,360.836 198.606,361.370 198.257 C 361.903 197.907,362.468 197.215,362.626 196.718 C 362.784 196.222,363.240 195.362,363.641 194.808 C 364.312 193.879,364.684 181.774,364.427 169.200 C 364.379 166.847,359.521 162.909,358.568 164.451 M276.800 171.200 C 276.800 171.420,276.989 171.600,277.219 171.600 C 277.450 171.600,277.909 172.185,278.239 172.900 L 278.840 174.200 278.588 173.002 C 278.233 171.315,276.800 169.871,276.800 171.200 M195.028 172.200 C 195.450 173.759,195.497 193.451,195.083 194.939 C 194.849 195.778,194.897 196.034,195.264 195.912 C 196.722 195.426,196.895 173.090,195.452 171.714 C 194.727 171.022,194.714 171.037,195.028 172.200 M221.787 173.607 C 220.544 174.296,218.467 176.800,219.138 176.800 C 219.381 176.800,219.846 176.284,220.172 175.653 C 221.028 174.000,221.024 174.000,244.922 174.000 C 267.057 174.000,268.851 174.114,269.403 175.551 C 269.716 176.367,269.698 221.679,269.385 222.496 C 268.858 223.868,267.009 223.981,244.643 224.010 C 222.627 224.038,220.400 223.915,220.400 222.672 C 220.400 222.371,220.040 221.798,219.600 221.400 C 218.562 220.461,218.578 220.964,219.632 222.444 C 221.353 224.861,220.697 224.800,244.757 224.800 C 269.098 224.800,268.725 224.839,269.937 222.179 C 270.566 220.798,270.595 177.879,269.968 176.080 C 268.930 173.102,269.292 173.146,244.766 173.069 C 225.858 173.009,222.734 173.083,221.787 173.607 M279.000 198.959 C 279.000 218.572,279.101 223.448,279.500 223.117 C 279.890 222.794,280.000 217.519,280.000 199.227 C 280.000 181.079,279.887 175.598,279.500 175.069 C 279.098 174.519,279.000 179.202,279.000 198.959 M222.800 177.449 C 222.800 177.980,222.909 178.008,223.400 177.600 C 223.730 177.326,224.000 177.034,224.000 176.951 C 224.000 176.868,223.730 176.800,223.400 176.800 C 223.070 176.800,222.800 177.092,222.800 177.449 M218.984 199.000 C 218.984 209.120,219.036 213.203,219.100 208.073 C 219.163 202.942,219.163 194.662,219.100 189.673 C 219.036 184.683,218.984 188.880,218.984 199.000 M194.400 196.983 C 194.400 197.744,191.829 200.449,189.800 201.822 C 188.396 202.772,188.335 202.873,189.299 202.645 C 191.297 202.173,196.197 196.400,194.600 196.400 C 194.490 196.400,194.400 196.662,194.400 196.983 M305.200 203.220 C 305.586 203.487,309.210 203.593,315.360 203.517 C 324.599 203.404,324.931 203.427,325.253 204.200 C 325.546 204.904,325.575 204.880,325.493 204.000 L 325.400 203.000 315.000 202.902 C 307.718 202.834,304.780 202.929,305.200 203.220 M334.563 203.351 C 334.447 203.654,334.318 210.034,334.276 217.529 L 334.200 231.155 332.822 232.578 C 331.033 234.423,329.230 234.501,327.200 232.818 L 325.800 231.658 325.579 218.329 L 325.358 205.000 325.379 218.431 L 325.400 231.863 326.669 233.131 C 328.251 234.713,332.304 235.054,332.674 233.637 C 332.784 233.217,333.190 232.791,333.576 232.690 C 334.687 232.400,334.827 230.642,334.797 217.400 C 334.781 210.580,334.775 204.626,334.784 204.170 C 334.800 203.350,334.908 203.342,343.343 203.521 C 349.140 203.645,352.130 203.562,352.643 203.264 C 353.209 202.935,351.051 202.821,344.087 202.812 C 336.539 202.802,334.735 202.904,334.563 203.351 M278.187 224.841 C 277.382 227.378,273.721 231.061,270.619 232.453 C 269.994 232.734,270.124 232.771,271.164 232.608 C 271.915 232.490,272.780 232.036,273.087 231.597 C 273.394 231.159,273.828 230.800,274.051 230.800 C 274.897 230.800,278.240 226.575,278.633 225.010 C 278.939 223.792,278.565 223.651,278.187 224.841 M220.169 233.376 C 221.454 234.400,222.612 234.443,245.886 234.319 C 267.245 234.206,268.408 234.163,269.086 233.452 C 269.778 232.727,269.763 232.714,268.600 233.032 C 267.051 233.457,222.647 233.502,220.800 233.081 C 219.496 232.784,219.453 232.804,220.169 233.376 M0.000 398.800 L 0.000 400.000 200.000 400.000 L 400.000 400.000 400.000 398.755 C 400.000 397.551,399.957 397.520,398.700 397.828 C 396.713 398.315,3.127 398.487,2.641 398.001 C 1.673 397.033,0.000 397.539,0.000 398.800 " stroke="none" fill="#343434" fill-rule="evenodd"></path><path id="path3" d="M39.747 165.911 C 37.553 167.819,37.703 169.833,40.166 171.520 C 41.480 172.421,41.562 172.426,55.644 172.386 C 63.430 172.364,70.095 172.460,70.455 172.599 C 71.567 173.027,71.625 174.587,71.582 203.135 C 71.535 233.739,71.365 231.625,73.986 232.933 C 75.279 233.578,77.777 232.240,78.416 230.558 C 78.648 229.947,78.800 218.352,78.800 201.217 C 78.800 174.604,78.842 172.869,79.500 172.616 C 79.885 172.468,86.543 172.364,94.295 172.386 C 109.603 172.429,109.930 172.387,111.367 170.195 C 112.308 168.759,111.864 167.042,110.229 165.795 L 108.924 164.800 74.962 164.811 L 41.000 164.822 39.747 165.911 M132.425 165.564 C 129.851 166.608,127.809 168.492,126.621 170.922 L 125.579 173.050 125.690 201.966 L 125.800 230.882 127.354 232.186 C 129.107 233.658,130.384 233.520,132.120 231.673 L 133.000 230.736 133.200 202.468 C 133.398 174.468,133.467 173.090,134.693 172.620 C 135.474 172.320,184.945 172.327,185.727 172.627 C 187.032 173.128,187.285 174.906,187.343 184.000 L 187.400 193.000 186.331 194.100 L 185.262 195.200 173.757 195.200 C 160.903 195.200,159.780 195.406,158.295 198.034 C 156.814 200.656,157.018 200.913,173.545 217.293 C 181.875 225.549,189.210 232.558,189.845 232.868 C 192.383 234.106,195.754 230.530,194.412 228.023 C 193.907 227.078,173.200 206.455,172.189 205.890 C 171.439 205.470,170.256 203.210,170.604 202.863 C 170.749 202.718,174.497 202.600,178.933 202.600 C 188.262 202.600,188.832 202.453,191.975 199.226 C 194.618 196.512,194.807 195.423,194.770 183.080 C 194.732 170.586,193.985 168.427,188.789 165.794 L 186.827 164.800 160.513 164.822 C 136.135 164.843,134.070 164.898,132.425 165.564 M219.189 165.938 C 216.597 166.964,213.770 169.414,212.577 171.669 C 210.777 175.072,210.775 175.092,210.891 199.681 L 211.000 223.000 212.054 225.200 C 213.399 228.009,215.467 230.079,218.332 231.486 L 220.600 232.600 244.400 232.600 C 272.989 232.600,272.974 232.603,276.775 226.200 L 278.200 223.800 278.309 199.424 L 278.418 175.047 277.309 172.825 C 275.922 170.046,273.326 167.399,270.879 166.268 C 268.178 165.020,222.250 164.727,219.189 165.938 M297.604 165.957 C 295.013 166.678,294.800 167.760,294.800 180.187 C 294.800 194.889,295.408 196.851,301.148 200.693 L 303.400 202.200 314.379 202.299 C 320.585 202.355,325.522 202.562,325.735 202.775 C 325.960 203.000,326.081 208.470,326.034 216.290 C 325.949 230.286,326.026 230.957,327.896 232.603 C 329.449 233.970,330.784 233.867,332.340 232.262 L 333.638 230.923 333.611 217.349 C 333.590 206.531,333.694 203.624,334.126 203.034 C 334.626 202.349,335.425 202.290,344.634 202.247 L 354.600 202.200 356.458 201.087 C 359.323 199.370,361.837 196.446,362.570 193.977 C 363.376 191.264,363.500 170.286,362.723 168.137 C 362.065 166.319,360.013 165.332,358.336 166.027 C 355.969 167.007,355.926 167.256,355.981 179.639 L 356.032 190.912 355.000 192.472 C 354.432 193.330,353.513 194.205,352.958 194.416 C 351.312 195.042,306.020 194.894,304.876 194.259 C 302.502 192.942,302.406 192.398,302.403 180.360 C 302.400 168.464,302.244 167.353,300.427 166.279 C 299.189 165.548,299.106 165.539,297.604 165.957 M109.709 166.500 C 111.341 167.264,111.496 168.827,110.092 170.363 L 108.942 171.623 94.011 171.585 C 80.821 171.552,79.006 171.622,78.440 172.188 C 77.867 172.762,77.791 175.850,77.712 201.882 C 77.664 217.862,77.484 231.051,77.312 231.192 C 76.239 232.072,74.896 232.288,73.677 231.776 L 72.400 231.239 72.400 202.081 C 72.400 174.067,72.371 172.897,71.649 172.244 C 70.970 171.630,69.480 171.567,56.017 171.590 L 41.135 171.615 39.968 170.365 C 38.472 168.764,38.447 167.430,39.900 166.664 C 41.422 165.862,108.012 165.706,109.709 166.500 M188.006 166.346 C 189.325 166.653,192.000 168.840,192.000 169.611 C 192.000 169.803,192.308 170.133,192.685 170.344 C 193.938 171.045,194.135 196.690,192.892 197.103 C 192.612 197.196,192.112 197.796,191.781 198.436 C 191.450 199.076,190.971 199.600,190.716 199.600 C 190.460 199.600,189.821 200.005,189.294 200.500 C 188.372 201.367,188.030 201.404,179.869 201.503 C 170.508 201.617,169.802 201.695,169.433 202.659 C 169.157 203.376,170.921 206.400,171.615 206.400 C 171.836 206.400,172.977 207.390,174.149 208.600 C 175.321 209.810,176.466 210.800,176.693 210.800 C 176.921 210.800,177.204 211.173,177.324 211.630 C 177.443 212.086,177.892 212.551,178.322 212.664 C 178.751 212.776,179.301 213.303,179.543 213.834 C 179.785 214.365,180.236 214.800,180.545 214.800 C 180.854 214.800,181.204 215.173,181.324 215.630 C 181.443 216.086,181.897 216.553,182.333 216.667 C 182.769 216.781,183.219 217.231,183.333 217.667 C 183.447 218.103,183.892 218.551,184.322 218.664 C 184.751 218.776,185.301 219.303,185.543 219.834 C 185.785 220.365,186.228 220.800,186.527 220.800 C 186.827 220.800,187.277 221.250,187.527 221.800 C 187.778 222.350,188.228 222.800,188.527 222.800 C 188.827 222.800,189.277 223.250,189.527 223.800 C 189.778 224.350,190.228 224.800,190.527 224.800 C 190.827 224.800,191.277 225.250,191.527 225.800 C 191.778 226.350,192.217 226.800,192.504 226.800 C 194.277 226.800,194.072 231.040,192.263 231.801 C 189.999 232.753,190.957 233.576,169.981 212.642 C 157.189 199.875,157.269 199.992,159.631 197.631 L 160.862 196.400 173.000 196.400 L 185.139 196.400 186.469 195.306 C 187.201 194.705,187.937 194.030,188.105 193.806 C 188.273 193.583,188.363 188.944,188.305 183.498 L 188.200 173.596 187.038 172.598 L 185.876 171.600 160.138 171.600 C 134.765 171.600,134.388 171.612,133.584 172.416 C 132.026 173.974,131.990 174.680,132.006 202.917 C 132.022 233.134,132.127 231.757,129.800 232.031 C 126.220 232.452,126.332 233.547,126.478 199.508 L 126.600 171.215 127.500 170.585 C 127.995 170.238,128.400 169.701,128.400 169.391 C 128.400 169.082,128.805 168.612,129.300 168.349 C 129.795 168.085,130.380 167.640,130.600 167.360 C 130.820 167.080,131.630 166.675,132.400 166.461 C 134.118 165.984,185.986 165.876,188.006 166.346 M271.103 167.108 C 271.196 167.388,271.834 167.907,272.521 168.263 C 274.014 169.034,274.873 170.075,276.432 172.996 L 277.600 175.185 277.594 199.092 C 277.589 219.182,277.496 223.160,277.011 224.000 C 276.694 224.550,276.235 225.450,275.991 226.000 C 275.215 227.747,272.094 230.465,269.893 231.309 C 269.504 231.458,258.204 231.595,244.781 231.612 L 220.376 231.644 218.573 230.744 C 216.840 229.878,213.554 226.887,212.639 225.342 C 212.149 224.514,211.755 179.644,212.200 175.341 C 212.401 173.401,212.702 172.606,213.627 171.569 C 214.272 170.847,214.800 170.117,214.800 169.947 C 214.800 169.635,218.068 167.235,219.191 166.722 C 220.392 166.174,270.917 166.550,271.103 167.108 M300.900 167.679 C 301.532 168.410,301.600 169.621,301.603 180.144 C 301.606 193.248,301.583 193.138,304.652 195.024 L 306.200 195.975 329.000 195.970 L 351.800 195.965 353.372 195.063 C 356.649 193.180,356.590 193.447,356.677 180.071 L 356.753 168.200 357.833 167.271 C 358.924 166.332,360.453 166.322,361.400 167.248 C 361.857 167.695,362.199 190.767,361.789 193.566 C 361.536 195.301,357.797 200.000,356.671 200.000 C 356.446 200.000,355.915 200.315,355.490 200.700 C 354.805 201.321,353.552 201.415,344.394 201.530 C 334.931 201.648,334.014 201.721,333.397 202.403 C 332.606 203.277,332.624 202.830,332.760 218.161 C 332.859 229.445,332.822 230.180,332.093 231.161 C 331.074 232.533,329.544 232.679,328.017 231.550 L 326.800 230.650 326.800 216.574 C 326.800 205.711,326.684 202.402,326.294 202.078 C 325.975 201.814,321.594 201.610,314.465 201.529 C 304.178 201.412,303.107 201.336,302.752 200.700 C 302.536 200.315,302.072 200.000,301.720 200.000 C 300.521 200.000,296.693 195.595,296.349 193.820 C 295.859 191.295,295.928 169.525,296.431 168.083 C 297.072 166.244,299.471 166.027,300.900 167.679 M221.387 171.975 C 220.940 172.159,219.905 173.050,219.087 173.956 L 217.600 175.602 217.600 198.815 C 217.600 224.749,217.395 222.897,220.524 225.199 L 222.158 226.400 244.879 226.400 C 267.067 226.400,267.619 226.381,268.400 225.600 C 268.840 225.160,269.350 224.800,269.533 224.800 C 269.716 224.800,270.436 223.920,271.133 222.844 L 272.400 220.888 272.400 198.844 C 272.400 178.385,272.350 176.749,271.700 176.095 C 271.315 175.706,270.779 174.896,270.509 174.295 C 270.238 173.693,269.808 173.200,269.553 173.200 C 269.297 173.200,268.858 172.885,268.576 172.500 C 268.015 171.732,223.190 171.233,221.387 171.975 M268.087 173.297 C 271.296 175.100,271.200 174.312,271.200 199.000 C 271.200 223.549,271.272 222.935,268.194 224.750 C 266.301 225.868,223.935 226.105,221.741 225.010 C 217.989 223.139,218.000 223.214,218.000 198.483 C 218.000 175.322,217.927 176.111,220.264 173.950 C 221.938 172.402,220.923 172.466,244.546 172.432 L 266.491 172.400 268.087 173.297 " stroke="none" fill="#64949c" fill-rule="evenodd"></path><path id="path4" d="M39.903 165.008 C 37.234 166.821,36.820 169.114,38.767 171.294 L 39.934 172.600 54.909 172.714 L 69.884 172.827 70.336 173.819 C 70.658 174.526,70.783 182.699,70.772 202.322 C 70.763 218.893,70.908 230.233,71.139 230.839 C 71.982 233.056,75.332 234.687,76.400 233.400 C 76.674 233.070,77.152 232.800,77.463 232.800 C 79.506 232.800,79.622 231.096,79.589 201.631 C 79.572 186.529,79.677 173.864,79.822 173.487 C 80.065 172.855,81.268 172.800,94.883 172.800 L 109.680 172.800 111.040 171.440 C 113.413 169.067,112.707 166.186,109.326 164.449 C 108.701 164.128,98.923 164.000,74.919 164.000 L 41.386 164.000 39.903 165.008 M131.777 165.147 C 129.026 166.448,126.229 169.371,125.600 171.600 C 125.030 173.618,125.062 230.070,125.633 231.281 C 126.678 233.498,129.126 234.358,131.033 233.180 C 134.176 231.237,134.000 233.073,134.000 202.272 C 134.000 182.305,134.126 174.560,134.464 173.819 L 134.928 172.800 160.055 172.800 L 185.182 172.800 185.845 173.813 C 187.026 175.615,186.912 193.035,185.714 193.820 C 184.993 194.292,182.731 194.400,173.540 194.400 C 160.911 194.400,159.614 194.646,157.962 197.355 C 155.923 200.699,155.486 200.107,172.495 217.008 C 189.575 233.980,190.877 235.053,192.471 233.478 C 192.762 233.190,193.319 232.834,193.709 232.687 C 194.099 232.539,194.520 232.099,194.645 231.709 C 194.770 231.319,195.071 230.588,195.313 230.083 C 196.074 228.498,191.210 223.124,175.500 208.196 C 173.575 206.366,172.000 204.593,172.000 204.255 C 172.000 203.916,171.743 203.496,171.428 203.320 C 171.113 203.144,174.668 203.000,179.328 203.000 C 188.850 203.000,188.822 203.007,192.168 199.891 C 195.211 197.057,195.600 195.208,195.600 183.583 C 195.600 178.333,195.432 173.624,195.228 173.119 C 195.023 172.613,194.749 171.704,194.619 171.097 C 194.295 169.583,191.022 166.284,188.603 165.033 L 186.606 164.000 160.403 164.000 L 134.200 164.001 131.777 165.147 M219.600 165.163 C 215.550 166.709,212.546 169.732,211.013 173.804 L 209.976 176.560 210.088 199.819 C 210.167 216.226,210.332 223.243,210.648 223.639 C 210.894 223.947,211.304 224.830,211.558 225.600 C 212.530 228.542,216.803 231.999,220.683 232.983 C 223.947 233.811,266.203 233.708,269.200 232.865 C 273.036 231.786,276.754 228.371,278.415 224.400 C 280.127 220.305,279.066 171.600,277.264 171.600 C 277.056 171.600,276.782 171.181,276.653 170.670 C 276.284 169.200,272.607 166.300,269.864 165.316 C 266.450 164.092,222.756 163.959,219.600 165.163 M110.229 165.795 C 111.864 167.042,112.308 168.759,111.367 170.195 C 109.930 172.387,109.603 172.429,94.295 172.386 C 86.543 172.364,79.885 172.468,79.500 172.616 C 78.842 172.869,78.800 174.604,78.800 201.217 C 78.800 218.352,78.648 229.947,78.416 230.558 C 77.777 232.240,75.279 233.578,73.986 232.933 C 71.365 231.625,71.535 233.739,71.582 203.135 C 71.625 174.587,71.567 173.027,70.455 172.599 C 70.095 172.460,63.430 172.364,55.644 172.386 C 41.562 172.426,41.480 172.421,40.166 171.520 C 37.703 169.833,37.553 167.819,39.747 165.911 L 41.000 164.822 74.962 164.811 L 108.924 164.800 110.229 165.795 M188.789 165.794 C 193.985 168.427,194.732 170.586,194.770 183.080 C 194.807 195.423,194.618 196.512,191.975 199.226 C 188.832 202.453,188.262 202.600,178.933 202.600 C 174.497 202.600,170.749 202.718,170.604 202.863 C 170.256 203.210,171.439 205.470,172.189 205.890 C 173.200 206.455,193.907 227.078,194.412 228.023 C 195.754 230.530,192.383 234.106,189.845 232.868 C 189.210 232.558,181.875 225.549,173.545 217.293 C 157.018 200.913,156.814 200.656,158.295 198.034 C 159.780 195.406,160.903 195.200,173.757 195.200 L 185.262 195.200 186.331 194.100 L 187.400 193.000 187.343 184.000 C 187.285 174.906,187.032 173.128,185.727 172.627 C 184.945 172.327,135.474 172.320,134.693 172.620 C 133.467 173.090,133.398 174.468,133.200 202.468 L 133.000 230.736 132.120 231.673 C 130.384 233.520,129.107 233.658,127.354 232.186 L 125.800 230.882 125.690 201.966 L 125.579 173.050 126.621 170.922 C 127.809 168.492,129.851 166.608,132.425 165.564 C 134.070 164.898,136.135 164.843,160.513 164.822 L 186.827 164.800 188.789 165.794 M270.879 166.268 C 273.326 167.399,275.922 170.046,277.309 172.825 L 278.418 175.047 278.309 199.424 L 278.200 223.800 276.775 226.200 C 272.974 232.603,272.989 232.600,244.400 232.600 L 220.600 232.600 218.332 231.486 C 215.467 230.079,213.399 228.009,212.054 225.200 L 211.000 223.000 210.891 199.681 C 210.766 173.101,210.771 173.056,214.302 169.400 C 218.540 165.011,217.065 165.207,245.000 165.311 C 268.689 165.399,269.024 165.411,270.879 166.268 M296.522 165.800 C 294.005 167.562,293.924 168.074,294.082 181.098 C 294.208 191.417,294.318 193.160,294.911 194.200 C 295.287 194.860,295.596 195.550,295.598 195.733 C 295.603 196.518,298.711 199.764,300.758 201.123 L 302.982 202.600 314.191 202.800 L 325.400 203.000 325.600 217.329 L 325.800 231.658 327.200 232.818 C 329.230 234.501,331.033 234.423,332.822 232.578 L 334.200 231.155 334.276 217.529 C 334.318 210.034,334.447 203.654,334.563 203.351 C 334.735 202.905,336.549 202.800,344.087 202.798 C 357.125 202.795,359.791 201.653,362.966 194.711 L 364.000 192.451 364.000 180.454 C 364.000 171.119,363.884 168.340,363.478 167.929 C 363.190 167.638,362.835 167.082,362.688 166.694 C 362.015 164.918,358.541 164.728,356.706 166.367 L 355.400 167.533 355.283 179.502 L 355.167 191.470 354.083 192.750 L 353.000 194.029 329.002 194.030 L 305.004 194.031 303.913 192.715 L 302.822 191.400 302.811 179.926 C 302.805 173.615,302.628 167.999,302.417 167.445 C 301.681 165.508,298.289 164.562,296.522 165.800 M300.427 166.279 C 302.244 167.353,302.400 168.464,302.403 180.360 C 302.406 192.398,302.502 192.942,304.876 194.259 C 306.020 194.894,351.312 195.042,352.958 194.416 C 353.513 194.205,354.432 193.330,355.000 192.472 L 356.032 190.912 355.981 179.639 C 355.926 167.256,355.969 167.007,358.336 166.027 C 360.013 165.332,362.065 166.319,362.723 168.137 C 363.500 170.286,363.376 191.264,362.570 193.977 C 361.837 196.446,359.323 199.370,356.458 201.087 L 354.600 202.200 344.634 202.247 C 335.425 202.290,334.626 202.349,334.126 203.034 C 333.694 203.624,333.590 206.531,333.611 217.349 L 333.638 230.923 332.340 232.262 C 330.784 233.867,329.449 233.970,327.896 232.603 C 326.026 230.957,325.949 230.286,326.034 216.290 C 326.081 208.470,325.960 203.000,325.735 202.775 C 325.522 202.562,320.585 202.355,314.379 202.299 L 303.400 202.200 301.148 200.693 C 295.408 196.851,294.800 194.889,294.800 180.187 C 294.800 167.760,295.013 166.678,297.604 165.957 C 299.106 165.539,299.189 165.548,300.427 166.279 M222.000 172.681 C 221.073 173.019,219.191 174.881,218.564 176.080 C 217.879 177.392,217.719 218.827,218.390 221.167 C 218.849 222.764,220.087 224.185,221.741 225.010 C 223.935 226.105,266.301 225.868,268.194 224.750 C 271.272 222.935,271.200 223.549,271.200 199.000 C 271.200 174.312,271.296 175.100,268.087 173.297 L 266.491 172.400 244.546 172.432 C 232.475 172.449,222.330 172.561,222.000 172.681 M268.092 173.989 C 270.408 175.356,270.400 175.272,270.400 199.241 C 270.400 223.068,270.441 222.625,268.114 223.998 C 266.287 225.076,223.663 225.267,221.612 224.206 C 218.669 222.684,218.800 223.863,218.800 198.976 L 218.800 176.676 219.806 175.357 C 221.658 172.929,220.953 172.994,244.813 173.069 C 266.311 173.136,266.671 173.151,268.092 173.989 " stroke="none" fill="#4e6a75" fill-rule="evenodd"></path></g></svg>