<svg xmlns="http://www.w3.org/2000/svg" width="64" height="65" fill="none" viewBox="0 0 64 65"><rect width="64" height="64" y=".304" fill="#FF0013" rx="32"/><rect width="63" height="63" x=".5" y=".804" stroke="#070B14" stroke-opacity=".15" rx="31.5"/><mask id="trx_svg-a" width="64" height="65" x="0" y="0" maskUnits="userSpaceOnUse" style="mask-type:luminance"><path fill="#fff" d="M63.957.304H0v64h63.957z"/></mask><g mask="url(#trx_svg-a)"><path fill="#fff" d="M50.76 26.85c-1.89-1.745-4.505-4.41-6.634-6.3L44 20.463q-.317-.253-.7-.39c-5.134-.958-29.03-5.424-29.496-5.368a.9.9 0 0 0-.365.139l-.12.094c-.147.15-.26.33-.327.53l-.032.082v.517c2.69 7.49 13.312 32.028 15.403 37.786.126.39.366 1.134.813 1.172h.1c.24 0 1.26-1.348 1.26-1.348S48.782 31.55 50.628 29.194q.36-.436.63-.932a1.52 1.52 0 0 0-.497-1.412m-15.542 2.577 7.786-6.457 4.568 4.208zm-3.024-.422L18.787 18.018l21.691 4zm1.21 2.88 13.72-2.212-15.686 18.9zm-16.437-12.77 14.106 11.97-2.042 17.5z"/></g></svg>