<svg xmlns="http://www.w3.org/2000/svg" width="40" height="40" fill="none" viewBox="0 0 40 40"><g clip-path="url(#tslaon_svg-a)"><path fill="#F5CCCC" d="M20 0c11.046 0 20 8.954 20 20s-8.954 20-20 20S0 31.046 0 20 8.954 0 20 0"/><path fill="#C00" d="M26 6a8 8 0 0 1 8 8v12a8 8 0 0 1-8 8H14a8 8 0 0 1-8-8V14a8 8 0 0 1 8-8z"/><g clip-path="url(#tslaon_svg-b)"><path fill="#fff" d="m20 14.745 1.96-2.396s3.36.072 6.706 1.626c-.857 1.296-2.558 1.93-2.558 1.93-.116-1.139-.914-1.417-3.447-1.417L20 29.5l-2.677-15.015c-2.517 0-3.315.28-3.431 1.419 0 0-1.7-.63-2.557-1.924 3.345-1.556 6.706-1.628 6.706-1.628zl-.003.002H20zm0-3.087c2.703-.024 5.8.418 8.968 1.805.424-.766.532-1.104.532-1.104A26 26 0 0 0 20 10.5a25.9 25.9 0 0 0-9.5 1.86s.154.415.532 1.105c3.168-1.39 6.265-1.829 8.968-1.81z"/></g></g><defs><clipPath id="tslaon_svg-a"><path fill="#fff" d="M0 0h40v40H0z"/></clipPath><clipPath id="tslaon_svg-b"><path fill="#fff" d="M10 10h20v20H10z"/></clipPath></defs></svg>