<?xml version="1.0" encoding="UTF-8"?>
<svg version="1.1" xmlns="http://www.w3.org/2000/svg" width="200" height="200">
<path d="M0 0 C0.63647461 0.20898926 1.27294922 0.41797852 1.92871094 0.63330078 C26.94152032 9.04440923 46.6387059 27.28731179 59.21484375 50.21875 C70.71910037 73.48886517 73.30592983 102.35364612 65 127 C55.31472714 154.65312389 36.25201228 175.44145833 10.02050781 188.09960938 C-2.8792535 193.8480772 -16.68986432 196.39115651 -30.75 196.3125 C-31.79913574 196.30758545 -32.84827148 196.3026709 -33.92919922 196.29760742 C-57.6647345 195.94140999 -80.50335244 187.07042883 -98 171 C-98.49097168 170.55672363 -98.98194336 170.11344727 -99.48779297 169.65673828 C-116.70810385 153.96566529 -129.77552026 130.62699453 -131.17700195 107.01831055 C-131.46115332 92.49715698 -131.64542789 78.86392498 -127 65 C-126.79101074 64.36352539 -126.58202148 63.72705078 -126.36669922 63.07128906 C-117.95559077 38.05847968 -99.71268821 18.3612941 -76.78125 5.78515625 C-53.48229734 -5.73335702 -24.67704998 -8.26861487 0 0 Z " fill="#22D749" transform="translate(131,4)"/>
<path d="M0 0 C0.82886719 0.2784375 1.65773438 0.556875 2.51171875 0.84375 C18.73622375 6.75283188 29.05664342 17.59802796 38 32 C37.505 32.99 37.505 32.99 37 34 C36.5153125 33.34773438 36.030625 32.69546875 35.53125 32.0234375 C31.19045325 26.36370635 27.00307134 21.85998705 21 18 C20.15501953 17.43345703 20.15501953 17.43345703 19.29296875 16.85546875 C8.77615263 10.27937998 -3.59336711 9.37023656 -15.56640625 11.69140625 C-28.74164641 15.40909503 -38.55008164 22.11589392 -45.75 33.75 C-52.57014899 46.02626818 -53.43498764 57.51767353 -50 71 C-48.16482705 75.19468102 -46.28224368 77.30494521 -42 79 C-37.17179109 79.53081212 -32.706136 79.72036853 -28.1875 77.8125 C-27.465625 77.214375 -26.74375 76.61625 -26 76 C-25.46375 75.566875 -24.9275 75.13375 -24.375 74.6875 C-22.89643628 73.48274437 -21.44571311 72.2439857 -20 71 C-22.24782355 81.54899647 -25.40406515 88.95106674 -34.625 95 C-43.03164701 100.08637466 -54.0375505 100.65621905 -63.578125 98.38671875 C-65.62648135 97.44164377 -67.2275788 96.39597776 -69 95 C-70.15242188 94.12601563 -70.15242188 94.12601563 -71.328125 93.234375 C-76.42724622 89.05638536 -79.61729783 85.12883948 -82 79 C-82.391875 78.13375 -82.78375 77.2675 -83.1875 76.375 C-87.85000645 62.74613498 -84.91524289 47.47956905 -79.5625 34.51953125 C-71.7160447 18.7323123 -58.02023497 6.10600363 -41.42578125 0.0625 C-27.99636292 -4.21517077 -13.34601203 -4.75618248 0 0 Z " fill="#FBFEFB" transform="translate(136,35)"/>
<path d="M0 0 C7.85892256 4.89354231 14.13422828 11.2251783 17.0234375 20.16796875 C19.37568279 33.15403299 19.16503349 47.6913401 13.68359375 59.8125 C13.20921875 60.88371094 12.73484375 61.95492187 12.24609375 63.05859375 C3.4537809 81.00252069 -10.81103233 91.37674218 -29.31640625 97.8125 C-30.0846875 98.08191406 -30.85296875 98.35132813 -31.64453125 98.62890625 C-47.62116921 103.12626694 -64.49588806 99.33020064 -78.69140625 91.5625 C-88.68069133 85.28197388 -95.78340533 77.57550416 -102.31640625 67.8125 C-101.82140625 66.8225 -101.82140625 66.8225 -101.31640625 65.8125 C-100.8059375 66.45316406 -100.29546875 67.09382813 -99.76953125 67.75390625 C-92.05471816 76.93234523 -82.37224321 83.84493017 -70.31640625 85.8125 C-54.84375055 86.98524407 -40.45969979 83.17745539 -28.50390625 72.984375 C-25.10328694 69.60804583 -22.67008145 65.96473832 -20.31640625 61.8125 C-19.92710938 61.22339844 -19.5378125 60.63429687 -19.13671875 60.02734375 C-13.48458996 50.64150944 -13.7829854 38.021802 -15.41796875 27.58203125 C-16.85259367 23.159644 -19.22191 20.53387253 -23.06640625 18 C-27.64193858 16.32817088 -31.65280403 15.85619657 -36.2421875 17.50390625 C-40.70034203 19.78548855 -42.79830433 22.55109675 -45.31640625 26.8125 C-45.64640625 26.8125 -45.97640625 26.8125 -46.31640625 26.8125 C-46.04398569 18.36746279 -43.43452407 12.12068479 -37.5390625 5.953125 C-26.94932144 -3.40848417 -13.03645532 -6.68310694 0 0 Z " fill="#FBFEFC" transform="translate(130.31640625,67.1875)"/>
</svg>
