<svg xmlns="http://www.w3.org/2000/svg" width="400" height="398.942" viewBox="0 0 400 398.942"><g fill-rule="evenodd"><path fill="#040ad4" d="M366.824 251.912c-.348.195-2.322.741-4.387 1.215a1749 1749 0 0 0-5.351 1.234c-.878.205-2.316.52-3.194.699-.878.18-3.303.73-5.389 1.224-5.938 1.405-6.878 1.621-8.583 1.977-.878.183-2.978.702-4.667 1.153s-3.934.999-4.99 1.217a330 330 0 0 0-6.311 1.434c-2.415.57-5.559 1.293-6.986 1.608a623 623 0 0 0-6.986 1.606c-2.415.57-5.11 1.202-5.988 1.406s-3.124.746-4.99 1.204-4.112.989-4.99 1.18c-1.672.365-2.403.534-8.583 1.982-2.086.489-4.511 1.04-5.389 1.224-1.71.36-2.68.583-8.583 1.98-2.086.493-4.135.883-4.555.866s-1.137.178-1.596.433-.951.432-1.093.393-.165.289-.049.73c.141.539.032.764-.331.685-.302-.065-.601.28-.678.782-.075.494-.413.898-.75.898-.384 0-.527.226-.383.602.136.353-.095.806-.556 1.094-.433.271-.787.718-.787.995 0 .276-.18.503-.4.503-.219 0-.399.449-.399.998 0 .621-.226.998-.599.998-.338 0-.598.357-.598.821 0 .453-.161.723-.357.602s-.469.228-.606.775c-.138.547-.426.995-.642.995-.215 0-.391.27-.391.599s-.27.599-.599.599c-.373 0-.599.377-.599.998 0 .549-.18.998-.399.998s-.399.449-.399.998c0 .621-.227.998-.599.998a.6.6 0 0 0-.599.599.6.6 0 0 1-.599.598c-.372 0-.599.377-.599.998 0 .549-.179.998-.399.998-.219 0-.399.27-.399.599a.6.6 0 0 1-.599.599c-.365 0-.599.372-.599.955 0 .526-.269 1.059-.598 1.185-.33.127-.599.608-.599 1.07 0 .894-.86 1.98-1.568 1.98-.236 0-.428.539-.428 1.197 0 .659-.193 1.198-.428 1.198-.762 0-1.568 1.114-1.568 2.167 0 .646-.222 1.026-.599 1.026-.373 0-.599.377-.599.998s-.226.998-.599.998a.6.6 0 0 0-.598.599c0 .33-.18.599-.4.599-.219 0-.399.449-.399.998 0 .621-.226.998-.599.998a.6.6 0 0 0-.598.599c0 .329-.177.599-.392.599s-.504.449-.642.998-.411.998-.607.998c-.195 0-.355.449-.355.998 0 .621-.227.998-.599.998a.6.6 0 0 0-.599.598c0 .33-.176.599-.392.599-.215 0-.504.449-.642.998-.137.549-.41.998-.606.998s-.356.27-.356.599-.27.599-.599.599c-.372 0-.599.377-.599.998 0 .549-.179.998-.399.998-.219 0-.399.449-.399.998 0 .621-.226.998-.599.998a.6.6 0 0 0-.599.599.6.6 0 0 1-.598.599c-.373 0-.599.377-.599.998 0 .548-.18.998-.399.998s-.4.269-.4.598a.6.6 0 0 1-.598.599c-.373 0-.599.377-.599.998s-.226.998-.599.998c-.377 0-.599.38-.599 1.027 0 1.052-.806 2.167-1.568 2.167-.235 0-.428.424-.428.942 0 .539-.427 1.263-.998 1.691-.549.413-.998 1.137-.998 1.61s-.269.964-.599 1.091c-.329.126-.599.684-.599 1.24s-.204 1.011-.455 1.011c-.671 0-1.513 1.265-1.528 2.295-.007.494-.208.898-.448.898-.626 0-1.931 1.673-1.946 2.495-.008.384-.193.699-.413.699s-.399.449-.399.998c0 .621-.226.998-.599.998-.329 0-.599.25-.599.556s-.269.659-.599.786c-.329.126-.598.594-.598 1.04s-.18.811-.4.811c-.219 0-.399.27-.399.599a.6.6 0 0 1-.599.599c-.372 0-.598.377-.598.998 0 .549-.177.998-.392.998s-.504.449-.642.998-.411.998-.606.998c-.196 0-.356.27-.356.599s-.27.599-.599.599c-.373 0-.599.377-.599.998 0 .549-.18.998-.399.998s-.399.269-.399.598a.6.6 0 0 1-.599.599c-.373 0-.599.377-.599.998s-.226.998-.599.998c-.372 0-.599.377-.599.998 0 .549-.179.998-.399.998-.219 0-.399.27-.399.599a.6.6 0 0 1-.599.599c-.482 0-.599.621-.599 3.193 0 3.103.028 3.194.956 3.194.525 0 1.058.27 1.185.599.135.352.734.599 1.452.599.719 0 1.318-.247 1.453-.599.189-.494 1.236-.599 5.975-.599 4.841 0 5.746-.094 5.746-.599 0-.49.687-.598 3.792-.598 2.262 0 3.793-.162 3.793-.4 0-.23 1.268-.399 3.006-.399 2.304 0 3.06-.14 3.237-.599.171-.446.881-.599 2.781-.599 2.003 0 2.553-.128 2.553-.598 0-.452.485-.599 1.972-.599 1.085 0 2.083-.18 2.219-.399s.871-.4 1.633-.4c.864 0 1.473-.225 1.616-.598.161-.42.815-.599 2.183-.599 1.47 0 1.953-.148 1.953-.599 0-.432.444-.599 1.597-.599.878 0 1.597-.179 1.597-.399 0-.219.719-.399 1.597-.399 1.153 0 1.597-.166 1.597-.599s.443-.599 1.596-.599 1.597-.166 1.597-.599c0-.372.377-.598.998-.598.549 0 .998-.18.998-.4 0-.219.719-.399 1.597-.399 1.153 0 1.597-.166 1.597-.599q0-.598 1.197-.598t1.198-.599c0-.418.421-.599 1.397-.599.769 0 1.397-.18 1.397-.399s.539-.399 1.198-.399q1.197 0 1.198-.599c0-.373.377-.599.998-.599.549 0 .998-.18.998-.399s.365-.399.811-.399.914-.27 1.04-.599c.131-.341.727-.599 1.385-.599.76 0 1.155-.204 1.155-.599 0-.372.377-.599.998-.599.549 0 .998-.179.998-.399 0-.219.365-.399.811-.399s.914-.269 1.041-.599.634-.599 1.129-.599c.494 0 1.236-.449 1.649-.998.418-.556 1.154-.998 1.665-.998.504 0 1.019-.269 1.145-.598.127-.33.66-.599 1.185-.599.583 0 .956-.234.956-.599a.6.6 0 0 1 .599-.599c.329 0 .598-.179.598-.399s.365-.399.811-.399.915-.27 1.041-.599.48-.599.786-.599.556-.269.556-.599c0-.339.358-.598.827-.598.884 0 1.967-.864 1.967-1.569 0-.235.539-.427 1.198-.427s1.198-.193 1.198-.428c0-.676 1.069-1.568 1.878-1.568.754 0 2.114-1.288 2.114-2.001 0-.217.269-.395.598-.395.33 0 .599-.179.599-.399 0-.219.449-.399.998-.399.621 0 .998-.226.998-.599 0-.329.27-.599.599-.599a.6.6 0 0 0 .599-.598c0-.33.192-.599.428-.599.552 0 1.568-1.016 1.568-1.569 0-.235.368-.427.817-.427.45 0 1.234-.449 1.743-.998.508-.549 1.129-.998 1.378-.998s.453-.239.453-.532c0-.292.449-.771.998-1.065s.998-.773.998-1.066c0-.292.27-.531.599-.531s.599-.239.599-.531.449-.772.998-1.066c.549-.293.998-.773.998-1.065s.269-.531.598-.531c.33 0 .599-.193.599-.428s.257-.685.571-.998c.313-.314.762-.57.998-.57.235 0 .427-.27.427-.599a.6.6 0 0 1 .599-.599c.329 0 .599-.193.599-.428s.257-.684.57-.998c.314-.313.763-.57.998-.57s.428-.27.428-.599a.6.6 0 0 1 .599-.599c.329 0 .599-.192.599-.427 0-.553 1.015-1.569 1.568-1.569.235 0 .428-.269.428-.599a.6.6 0 0 1 .598-.598c.33 0 .599-.18.599-.4 0-.219.719-1.117 1.597-1.996.878-.878 1.597-1.866 1.597-2.195s.179-.599.399-.599.399-.269.399-.599.27-.599.599-.599a.6.6 0 0 0 .599-.598c0-.33.192-.599.427-.599.636 0 1.569-1.051 1.569-1.768 0-.345.718-1.346 1.597-2.224.878-.878 1.596-1.956 1.596-2.395 0-.444.267-.799.599-.799a.6.6 0 0 0 .599-.599c0-.329.18-.598.399-.598s.399-.449.399-.998c0-.621.227-.998.599-.998a.6.6 0 0 0 .599-.599.6.6 0 0 1 .599-.599c.372 0 .599-.377.599-.998 0-.549.179-.998.399-.998.219 0 .399-.269.399-.599a.6.6 0 0 1 .599-.599c.372 0 .599-.377.599-.998s.226-.998.598-.998a.6.6 0 0 0 .599-.598c0-.33.18-.599.399-.599s.4-.449.4-.998c0-.621.226-.998.598-.998.373 0 .599-.377.599-.998s.226-.998.599-.998c.329 0 .599-.27.599-.599s.179-.599.399-.599.399-.43.399-.955c0-.526.27-1.059.599-1.185s.599-.601.599-1.053c0-.453.269-.927.599-1.054.329-.126.598-.659.598-1.185 0-.525.18-.955.4-.955.219 0 .399-.449.399-.998 0-.621.226-.998.599-.998.365 0 .598-.372.598-.955 0-.526.27-1.059.599-1.185.33-.127.599-.685.599-1.241s.18-1.01.399-1.01.399-.449.399-.998c0-.621.227-.998.599-.998.43 0 .599-.439.599-1.554 0-1.014.208-1.634.599-1.784.329-.127.599-.595.599-1.041s.179-.811.399-.811c.219 0 .399-.718.399-1.597 0-1.153.166-1.597.599-1.597q.599 0 .599-1.197c0-.659.179-1.198.399-1.198.219 0 .399-.634.399-1.409 0-.783.229-1.498.515-1.608.283-.108.558-.773.612-1.476s.361-1.426.683-1.606.583-.543.579-.807c-.004-.293-.156-.246-.393.12-.232.36-.389.409-.393.123-.003-.261.158-.576.358-.7s.315-.668.255-1.21c-.059-.542.034-.898.208-.79.173.107.413.037.532-.156s-.183-.325-.671-.294-.98-.07-1.092-.224-.489-.121-.836.073m-232.786 54.023c-.381.292-.566.658-.411.812s.006.176-.329.047c-.335-.128-1.767.056-3.181.409a398 398 0 0 1-6.963 1.633 960 960 0 0 0-6.787 1.553 770 770 0 0 1-9.381 2.163c-1.94.426-9.583 2.221-15.369 3.61-1.976.474-6.691 1.561-10.478 2.415s-7.222 1.734-7.633 1.953-.86.287-.998.148c-.139-.139-.253-.023-.253.256 0 .28-.241.416-.536.303-.387-.149-.484.07-.346.788.104.547.435 1.089.736 1.204.3.115.546.46.546.766s.28.556.622.556.531.147.42.328c-.227.367 1.143 1.668 1.757 1.668.217 0 .394.269.394.599s.217.554.481.499c.265-.055.489.092.499.328.024.562 1.242 1.768 1.786 1.768.235 0 .428.192.428.427 0 .553 1.016 1.569 1.568 1.569.235 0 .428.269.428.598 0 .373.377.599.998.599s.998.226.998.599c0 .329.239.599.531.599s.772.449 1.066.998.773.998 1.065.998.532.269.532.599a.6.6 0 0 0 .598.598c.33 0 .599.18.599.4 0 .219.449.399.998.399.621 0 .998.226.998.599a.6.6 0 0 0 .599.598c.329 0 .599.193.599.428 0 .553 1.015 1.568 1.568 1.568.235 0 .428.27.428.599 0 .373.377.599.998.599s.998.226.998.599a.6.6 0 0 0 .599.599c.329 0 .598.179.598.399 0 .219.449.399.998.399.621 0 .998.226.998.599 0 .329.27.599.599.599a.6.6 0 0 1 .599.598.6.6 0 0 0 .599.599c.329 0 .599.18.599.399s.449.4.998.4c.621 0 .998.226.998.598 0 .373.377.599.998.599s.998.226.998.599c0 .432.443.599 1.596.599s1.597-.167 1.597-.599c0-.373.377-.599.998-.599s.998-.226.998-.599a.6.6 0 0 1 .599-.598c.373 0 .599-.377.599-.998s.226-.998.599-.998c.372 0 .598-.377.598-.998 0-.549.18-.998.4-.998.219 0 .399-.27.399-.599a.6.6 0 0 1 .599-.599c.337 0 .598-.357.598-.817 0-.45.45-1.234.998-1.743.549-.509.998-1.308.998-1.777 0-.492.254-.853.599-.853.363 0 .599-.37.599-.942 0-.539.427-1.263.998-1.691.549-.413.998-1.075.998-1.472 0-.398.449-1.139.998-1.648s.998-1.224.998-1.59.27-.769.599-.896c.341-.131.599-.726.599-1.384 0-.635.192-1.155.427-1.155.762 0 1.569-1.115 1.569-2.167 0-.565.177-1.027.394-1.027.781 0 2.001-1.393 2.001-2.284 0-.5.18-.909.399-.909s.399-.449.399-.998c0-.584.23-.998.553-.998.303 0 .65-.378.771-.839.121-.462.411-.72.645-.575.247.152.427-.065.427-.513 0-1.195.947-2.747 1.553-2.545.33.109.466-.035.347-.369-.268-.751.439-2.028.948-1.712.253.155.365-.12.288-.708-.073-.555.257-1.45.779-2.113.497-.633.814-1.388.703-1.677s-.018-.526.208-.526.299-.18.164-.399c-.136-.22.018-.4.342-.4s.68.185.792.41.157.18.1-.1c-.144-.713-1.105-.794-1.927-.163m-67.497 11.723c-.293.495 2.036 2.564 2.337 2.077.146-.236-.111-.526-.574-.647-.462-.12-.839-.457-.839-.748 0-.628-.666-1.119-.924-.682"/><path fill="#0481d4" d="M375.709 189.452c-.034.24-.57.355-1.212.261-.634-.093-1.525.03-1.981.274s-2.049.702-3.539 1.017-4.236.949-6.103 1.409c-1.866.459-4.74 1.095-6.387 1.413s-3.263.689-3.593.826c-.848.352-6.456 1.686-9.887 2.351-1.595.31-3.062.663-3.26.785s-2.036.589-4.085 1.038-4.355.968-5.123 1.154c-.769.186-2.295.534-3.393.773s-3.523.801-5.39 1.249-5.459 1.27-7.984 1.826c-2.524.556-4.772 1.246-4.995 1.532-.33.426-.502.416-.94-.052-.741-.794-1.827.717-1.487 2.07.147.586.009 1.176-.362 1.547-.329.329-.599.952-.599 1.383s-.269.888-.599 1.014-.598.515-.598.865c0 .349-.18.524-.4.388-.219-.136-.399.129-.399.588s-.269.938-.599 1.064c-.345.132-.598.729-.598 1.408 0 .648-.148 1.087-.328.976-.537-.332-1.668 1.282-1.668 2.379 0 .56-.151.924-.336.81-.423-.262-2.06 1.914-2.06 2.739 0 .338-.179.615-.399.615-.219 0-.399.449-.399.998 0 .569-.23.998-.536.998-.295 0-.879.673-1.297 1.497-.419.823-.897 1.557-1.061 1.63-.165.073-.3.387-.3.698s-.314.569-.698.572c-.597.005-.612.062-.1.393q.598.387.1.393c-.275.004-.499.276-.499.605s-.27.599-.599.599c-.373 0-.599.377-.599.998 0 .549-.179.998-.399.998s-.399.269-.399.599-.27.599-.599.599c-.345 0-.599.36-.599.852 0 .469-.449 1.269-.998 1.777-.561.521-.998 1.37-.998 1.942 0 .56-.202.972-.449.918-.247-.055-.53.169-.629.499-.16.532-.133.532.243 0 .233-.33.426-.443.43-.251.003.192.309.102.679-.2.586-.476.642-.462.429.107-.225.602-.076.607 1.822.062a53 53 0 0 1 3.862-.936c2.879-.549 5.157-1.061 8.783-1.972 4.267-1.074 6.116-1.509 8.383-1.974.988-.203 3.323-.748 5.19-1.212a187 187 0 0 1 5.389-1.261l3.593-.752c.878-.185 3.123-.719 4.99-1.189 5.422-1.364 6.491-1.604 8.183-1.837.879-.12 2.226-.455 2.994-.744.769-.288 2.296-.709 3.394-.936 1.097-.227 3.972-.88 6.387-1.451a459 459 0 0 1 6.986-1.599 369 369 0 0 0 6.986-1.618c7.658-1.847 10.494-2.231 9.948-1.347-.169.273-.061.378.276.266.438-.145.579-1.605.672-6.932.095-5.474.23-6.81.712-7.08.838-.469.807-16.069-.033-16.391-.297-.114-.615-.712-.708-1.329-.093-.616-.196-.928-.228-.691m-195.89 45.244c.124.201 0 .457-.276.568-.302.122-.224.214.198.233.384.018.698-.238.698-.567s-.19-.599-.423-.599-.321.165-.197.365m-5.368 1.506c-.549.093-1.596.358-2.327.588s-2.886.767-4.79 1.194-4.09.928-4.859 1.114c-.768.186-3.643.819-6.387 1.406-2.745.587-5.349 1.225-5.789 1.418s-2.145.626-3.792.963c-2.814.576-5.345 1.146-13.273 2.991-1.812.422-4.911 1.137-6.887 1.589a646 646 0 0 0-7.784 1.848c-2.306.564-5.359 1.274-6.787 1.576s-4.121.939-5.988 1.413a150 150 0 0 1-7.019 1.561c-1.995.384-3.821.819-4.058.965s-1.659.526-3.16.843-4.256.949-6.122 1.404a447 447 0 0 1-7.784 1.796 553 553 0 0 0-7.984 1.826c-1.976.472-5.03 1.185-6.787 1.584-1.756.4-4.81 1.101-6.786 1.557a773 773 0 0 1-5.589 1.271c-3.583.791-9.106 2.118-11.669 2.803-.93.248-1.608.583-1.509.744s.012.902-.194 1.646c-.33 1.194-.31 1.269.176.628.491-.648.533-.546.39.939-.119 1.241-.029 1.616.353 1.47.338-.13.545.211.604.994.05.655.358 1.459.684 1.785s.491.76.365.963.052.478.395.609c.344.132.625.65.625 1.152s.269 1.016.598 1.143c.33.126.605.549.612.941s.271 1.052.586 1.468c.315.417.478.912.361 1.101s.069.451.412.582c.343.132.624.67.624 1.195 0 .583.234.956.599.956.333 0 .599.354.599.798 0 .439.179.798.399.798s.399.36.399.799c0 .443.266.798.599.798.373 0 .599.377.599.998 0 .549.177.998.394.998.216 0 .649.611.96 1.357.312.746.836 1.509 1.165 1.696s.66.775.736 1.307c.154 1.08 1.136 1.653 1.136.663 0-.347.135-.645.299-.662.402-.041.9-.153 5.09-1.147 1.976-.469 4.491-1.04 5.589-1.27l3.593-.754c.878-.185 3.932-.895 6.786-1.575 2.855-.681 6.358-1.484 7.785-1.785s4.571-1.034 6.986-1.629 5.11-1.222 5.988-1.393 2.136-.503 2.794-.738c.659-.234 2.545-.694 4.192-1.022s4.521-.974 6.387-1.435 4.81-1.103 6.543-1.426c1.732-.323 3.322-.694 3.533-.825.369-.228 3.501-.975 10.683-2.548 1.866-.409 4.92-1.121 6.786-1.582a256 256 0 0 1 8.483-1.968 216 216 0 0 0 5.09-1.224c1.866-.469 4.022-.953 4.79-1.075.769-.122 1.622-.401 1.896-.622.352-.282.503-.238.512.147.009.384.177.332.561-.174.301-.398.652-.553.781-.345.128.208-.034.6-.361.871s-.594.679-.594.905.363-.008.807-.52.747-1.115.672-1.34c-.198-.595 1.363-2.259 1.842-1.963.247.152.305-.014.148-.424-.161-.421.032-.924.51-1.335.424-.362.679-.806.567-.987-.111-.18.078-.328.42-.328.39 0 .622-.356.622-.955 0-.525.27-1.059.599-1.185.33-.126.602-.64.605-1.14.005-.735.081-.795.393-.312s.388.422.393-.312c.004-.501.276-1.014.605-1.141.33-.126.599-.634.599-1.129s.449-1.237.998-1.649c.652-.489.998-1.14.998-1.876 0-.619.16-1.027.356-.906.584.361 2.838-3.3 2.838-4.61 0-.414.241-.753.536-.753.294 0 .878-.673 1.297-1.497.419-.823.896-1.556 1.061-1.63s.299-.387.299-.698.232-.566.514-.566.543-.388.579-.862.227-.968.425-1.098c.198-.129.677-.909 1.064-1.732.386-.824.952-1.497 1.256-1.497s.554-.191.554-.423c0-.233-.225-.288-.499-.123-.493.296.17-.688 1.197-1.777.605-.641.636-1.138.093-1.474-.223-.138-.324-.382-.225-.542.203-.329-1.843-.437-3.361-.178"/><path fill="#04b6d4" d="M368.236 146.951c-.151.244-.117.558.076.698.681.495.484 1.088-.376 1.13-.478.023-.644-.045-.369-.151.276-.106.395-.366.264-.578-.145-.235-.465-.195-.822.101-.322.267-1.698.72-3.058 1.007a193 193 0 0 0-5.069 1.158c-1.427.35-3.313.79-4.191.979-.879.188-2.103.536-2.721.771-.618.236-1.672.429-2.342.429-.669 0-2.05.261-3.067.579a62 62 0 0 1-3.447.957c-.878.209-2.495.599-3.593.868-4.218 1.032-5.252 1.254-7.186 1.539-1.097.162-2.624.497-3.393.745-.768.247-2.565.743-3.992 1.1s-3.146.819-3.821 1.024c-.674.206-1.776.374-2.449.374s-2.097.254-3.165.566-3.11.864-4.537 1.229-3.224.827-3.992 1.027-2.295.537-3.393.748-2.715.556-3.593.766-2.854.681-4.391 1.046l-4.192.998a185 185 0 0 1-4.53.97c-1.724.349-3.283.728-3.467.841-.183.113-1.108.37-2.056.571s-2.891.657-4.318 1.014c-1.427.356-3.493.807-4.591 1.002s-3.164.647-4.591 1.003c-1.427.357-3.223.79-3.992.961-.768.172-2.116.509-2.994.748s-2.944.72-4.591 1.068c-1.646.348-3.622.797-4.391.997-3.703.967-9.948 2.413-11.377 2.635-.878.137-2.136.4-2.794.584-.659.185-2.366.631-3.793.993a162 162 0 0 0-4.537 1.224c-1.068.311-2.402.566-2.965.566s-1.576.164-2.25.364-2.124.582-3.222.847c-1.098.266-2.714.663-3.593.882-.878.22-2.405.444-3.393.499-2.757.153-3.086.252-1.996.601.957.307.962.321.1.36-.494.021-.898.29-.898.595 0 .306-.288.667-.641.802-.358.138-.541.503-.416.829.123.32.024.706-.22.856-.269.166-.331.093-.159-.187.157-.253.107-.46-.111-.46s-.453.494-.523 1.097c-.074.643-.341 1.054-.644.992-.285-.058-.488.121-.452.399.139 1.056-.048 1.504-.627 1.504-.329 0-.577.134-.551.299.128.811-.091 1.317-.469 1.084-.282-.174-.392.547-.334 2.172.049 1.338.238 2.433.422 2.433.183 0 .333.269.333.598a.6.6 0 0 0 .599.599.6.6 0 0 1 .599.599c0 .529 5.503.599 47.129.599 28.941 0 47.041.143 46.9.371-.126.204.368.587 1.097.851.73.263 1.629 1.006 1.999 1.65.387.674.861 1.055 1.118.896.311-.193.363.099.171.972-.258 1.177.322 1.848.677.782.107-.321.332-.275.726.147.465.497.648.514.976.09.223-.286 2.471-.976 4.995-1.532a535 535 0 0 0 7.984-1.826c1.867-.448 4.292-1.01 5.39-1.249a188 188 0 0 0 3.393-.773c.768-.186 3.074-.705 5.123-1.154s3.888-.916 4.085-1.038 1.665-.475 3.26-.785c3.431-.665 9.039-1.999 9.887-2.351.33-.137 1.946-.508 3.593-.826s4.521-.954 6.387-1.413c1.867-.46 4.613-1.094 6.103-1.409s3.083-.773 3.539-1.017 1.341-.368 1.966-.277c.73.108 1.213-.033 1.351-.393.399-1.04.232-10.874-.184-10.874-.235 0-.399-1.401-.399-3.406 0-2.659-.132-3.456-.599-3.635-.463-.178-.599-.948-.599-3.381 0-2.535-.117-3.151-.599-3.151-.469 0-.599-.545-.599-2.515 0-1.383-.167-2.685-.372-2.894s-.464-1.188-.574-2.176c-.111-.988-.213-1.851-.226-1.919s-.205-.013-.425.123c-.345.213-.621-1.282-.432-2.337.034-.188-.147-.592-.401-.899-.254-.306-.305-.559-.114-.563.192-.003.079-.176-.25-.384-.335-.212-.604-.978-.612-1.745-.008-.752-.231-1.629-.496-1.948s-.364-.699-.219-.843c.144-.145.153-.263.02-.263-.134 0-.366.2-.517.444M168.07 200.047c-16.99.212-25.389.454-25.483.734-.08.241-1.599.441-3.598.473-2.62.043-3.072.121-1.863.323l1.597.265-1.996.293c-1.098.161-2.625.454-3.394.65l-5.588 1.428c-6.083 1.555-7.138 1.79-9.641 2.151-1.241.179-2.441.441-2.668.581s-1.188.419-2.136.62-2.891.657-4.318 1.013c-1.427.357-3.493.787-4.591.957a40 40 0 0 0-3.792.807c-.988.275-2.515.676-3.393.892-.879.215-2.495.641-3.593.947s-2.535.663-3.194.794c-3.134.626-6.623 1.394-8.982 1.977-1.427.352-3.313.801-4.191.998-.879.197-2.103.551-2.721.787s-1.683.429-2.367.429-1.795.168-2.469.373-2.394.669-3.821 1.031a167 167 0 0 0-4.537 1.223c-1.068.312-2.629.566-3.469.566s-1.627.161-1.748.357c-.121.197-.896.437-1.72.534-.825.098-2.937.589-4.693 1.091-4.054 1.16-5.889 1.591-8.384 1.97a39 39 0 0 0-3.792.8c-3.275.907-4.975 1.351-6.387 1.668-.769.173-2.071.486-2.894.697-.824.211-1.497.253-1.497.093 0-.159-.278-.29-.616-.29-.35 0-.528.23-.412.532.112.293.114.532.004.532s-.351-.404-.536-.898c-.233-.623-.313-.144-.261 1.566.042 1.356.283 2.715.536 3.02s.495 1.583.536 2.84c.052 1.611.262 2.394.711 2.657.513.3.524.374.057.384-.45.009-.472.119-.099.491.263.264.479 1.342.479 2.395 0 1.054.179 1.917.399 1.917.219 0 .399.795.399 1.767 0 1.04.247 2.015.599 2.367.329.33.599 1.156.599 1.838 0 .732.244 1.332.599 1.468.419.161.598.815.598 2.183 0 1.074.18 1.953.4 1.953.219 0 .399.527.399 1.17s.269 1.438.599 1.767c.329.33.598 1.048.598 1.597s.27 1.268.599 1.597.599 1.061.599 1.625.18 1.027.399 1.027.399.651.399 1.446c0 1.16.106 1.359.533 1.004.394-.327.543-.314.575.051.099 1.136.369 1.971.717 2.221.204.148.411.801.461 1.452.151 1.978 1.325 3.141 1.301 1.287-.004-.286-.162-.237-.397.124-.287.439-.366.206-.294-.874.09-1.353.227-1.507 1.695-1.898 2.488-.665 8.059-2.001 11.577-2.778 1.098-.243 3.613-.814 5.589-1.271s5.03-1.157 6.786-1.557a759 759 0 0 0 6.787-1.584 553 553 0 0 1 7.984-1.826 447 447 0 0 0 7.784-1.796 248 248 0 0 1 6.122-1.404c1.501-.317 2.923-.696 3.16-.843.237-.146 2.063-.581 4.058-.965a150 150 0 0 0 7.019-1.561c1.867-.474 4.561-1.11 5.988-1.413s4.481-1.012 6.787-1.576a646 646 0 0 1 7.784-1.848c1.976-.452 5.03-1.158 6.787-1.568 7.122-1.663 10.524-2.429 13.373-3.012 1.647-.337 3.353-.77 3.792-.963.44-.193 3.044-.831 5.789-1.418s5.619-1.22 6.387-1.406c.769-.186 2.955-.688 4.859-1.114s4.085-.981 4.848-1.233c1.725-.569 5.96-.905 5.679-.45-.114.184.089.58.451.879.59.487.637.43.453-.541-.114-.597-.098-1.02.035-.94s.474-.105.757-.412c.283-.306.391-.556.241-.556s.212-.45.805-1 .969-1.177.836-1.393c-.139-.224.023-.291.377-.155.464.178.619-.028.619-.822 0-.618.416-1.446.998-1.985.549-.508.998-1.107.998-1.329s.27-.628.599-.901c.329-.274.599-.815.599-1.204s.269-.81.599-.937c.329-.126.598-.505.598-.841s.18-.611.4-.611c.219 0 .399-.359.399-.799 0-.439.153-.798.339-.798.519 0 2.854-3.941 2.854-4.817 0-.424.196-.772.435-.772.626 0 1.932-1.673 1.947-2.495.008-.384.193-.698.413-.698s.399-.251.399-.556.269-.66.599-.786c.329-.127.599-.576.599-.998s.269-.872.598-.998c.33-.127.599-.595.599-1.041s.18-.811.399-.811c.233 0 .4-1.331.4-3.194 0-2.572-.117-3.193-.599-3.193-.33 0-.599-.18-.599-.399s-.449-.4-.998-.4c-.621 0-.998-.226-.998-.598 0-.33-.135-.57-.299-.534-.165.036-11.704.207-25.643.381"/><path fill="#0448d4" d="M371.058 221.573c-.878.174-3.573.794-5.988 1.379a358 358 0 0 1-6.986 1.622 459 459 0 0 0-6.986 1.599c-2.415.571-5.29 1.224-6.387 1.451-1.098.227-2.625.648-3.394.936-.768.289-2.115.624-2.994.744-1.692.233-2.761.473-8.183 1.837-1.867.47-4.112 1.004-4.99 1.189l-3.593.752c-1.098.229-3.523.797-5.389 1.261s-4.202 1.009-5.19 1.212c-2.267.465-4.116.9-8.383 1.974-3.626.911-5.904 1.423-8.783 1.972-.988.188-2.726.609-3.862.936-1.495.429-2.016.462-1.885.118.109-.283-.191-.475-.742-.475-.624 0-.924.233-.924.718 0 .396.151.719.337.719.185 0 .231.172.101.382s-.481.287-.781.172a.73.73 0 0 0-.848.279c-.192.31-.135.385.155.206s.374-.067.228.312c-.133.347-.49.494-.858.353-.489-.188-.579-.048-.403.627.149.57-.014 1.039-.475 1.365-.386.272-1.003 1.079-1.371 1.793-.367.714-.843 1.297-1.057 1.297s-.389.43-.389.956c0 .525-.27 1.058-.599 1.185-.329.126-.599.505-.599.841s-.179.611-.399.611c-.219 0-.399.359-.399.799 0 .439-.164.798-.365.798-.542 0-2.829 3.878-2.829 4.796 0 .436-.195.793-.435.793-.626 0-1.931 1.673-1.947 2.495-.007.384-.193.698-.412.698-.22 0-.399.251-.399.557 0 .305-.27.659-.599.785-.329.127-.599.576-.599.998s-.269.872-.599.998c-.329.127-.599.595-.599 1.041s-.179.811-.399.811c-.219 0-.399.27-.399.599a.6.6 0 0 1-.599.599c-.365 0-.599.372-.599.955 0 .525-.28 1.063-.624 1.195-.343.131-.524.401-.401.599.122.199-.046.464-.374.59s-.597.593-.597 1.039-.231.811-.513.811-.513.338-.513.751c0 1.062.343 1.014 11.605-1.619.879-.205 2.316-.524 3.194-.709s3.303-.735 5.389-1.224c6.18-1.448 6.911-1.617 8.583-1.982.878-.191 3.124-.722 4.99-1.18s4.112-1 4.99-1.204 3.573-.836 5.988-1.406a623 623 0 0 1 6.986-1.606 630 630 0 0 0 6.986-1.608 330 330 0 0 1 6.311-1.434c1.056-.218 3.302-.766 4.99-1.217s3.789-.97 4.667-1.153c1.705-.356 2.645-.572 8.583-1.977a256 256 0 0 1 5.389-1.224c.878-.179 2.316-.494 3.194-.699s3.28-.759 5.337-1.231 4.078-1.039 4.491-1.259q.752-.403.751-.001c0 .22.299.286.664.145.498-.191.579-.113.323.312-.292.484-.243.487.333.019.444-.359.676-1.133.676-2.252 0-1.148.196-1.78.598-1.935.421-.161.599-.816.599-2.196 0-1.379.179-2.034.599-2.195.409-.157.599-.797.599-2.015 0-.982.18-1.897.399-2.032.22-.136.399-1.113.399-2.171 0-1.223.218-2.104.599-2.42.424-.352.599-1.285.599-3.2 0-1.94.157-2.763.555-2.916.427-.164.543-1.099.499-4.035l-.056-3.821-1.198.05c-.658.027-1.916.192-2.794.365m-213.669 48.905c-.314.342-.35.627-.097.784.219.135.509-.043.644-.396.33-.859.062-1.049-.547-.388m-1.505 1.278c-.204.496-.344.549-.48.183-.124-.331-.357-.384-.652-.147-.254.203-1.089.468-1.858.59-.768.122-2.924.606-4.79 1.075a216 216 0 0 1-5.09 1.224 256 256 0 0 0-8.483 1.968c-1.866.461-4.92 1.173-6.786 1.582-7.182 1.573-10.314 2.32-10.683 2.548-.211.131-1.801.502-3.533.825-1.733.323-4.677.965-6.543 1.426s-4.74 1.107-6.387 1.435-3.533.788-4.192 1.022c-.658.235-1.916.567-2.794.738s-3.573.798-5.988 1.393-5.559 1.328-6.986 1.629-4.93 1.104-7.785 1.783c-2.854.68-6.088 1.42-7.185 1.645-3.269.67-4.999 1.055-8.783 1.954-4.196.997-4.687 1.108-5.096 1.149-.376.037-.23 2.426.148 2.426.149 0 .385.456.525 1.014s.429.906.643.775c.213-.132.387.046.387.395s.269.738.599.865c.329.126.599.57.599.985s.179.756.399.756c.219 0 .399.269.399.599a.6.6 0 0 0 .599.599.6.6 0 0 1 .599.598.6.6 0 0 0 .598.599c.33 0 .599.333.599.74s.449 1.225.998 1.817c.549.593.998 1.228.998 1.413s.27.439.599.566.599.493.599.814c0 .322.898 1.507 1.996 2.634s1.996 2.217 1.996 2.422.269.373.599.373c.338 0 .598.357.598.822 0 .481.177.712.427.558.234-.145.52.098.635.539.116.441.571.896 1.012 1.011.44.115.683.401.538.636s-.086.426.13.426.476.314.576.698c.169.646.186.644.229-.023.025-.397.218-.616.428-.486.21.129.292.47.181.758-.11.287.109.775.486 1.085.617.505.664.474.463-.306-.163-.632-.073-.81.33-.656.304.117.553-.016.553-.296s.114-.395.253-.256c.138.139.588.072.998-.148s3.846-1.098 7.633-1.953c3.787-.854 8.502-1.941 10.478-2.415 5.786-1.389 13.429-3.184 15.369-3.61a770 770 0 0 0 9.381-2.163c1.318-.31 4.372-1.009 6.787-1.553a398 398 0 0 0 6.963-1.633c1.414-.353 2.816-.549 3.114-.434.299.114.45.057.336-.127-.258-.417 1.664-1.484 2.024-1.124.455.455 1.335-.583 1.335-1.575 0-.522.201-.904.446-.849s.497-.204.56-.574c.063-.371.581-1.178 1.151-1.793s1.037-1.415 1.037-1.778.269-.763.599-.89c.329-.126.598-.505.598-.841s.18-.611.4-.611c.219 0 .399-.34.399-.756s.269-.859.599-.985c.329-.127.598-.685.598-1.241 0-.632.225-1.01.599-1.01a.6.6 0 0 0 .599-.599c0-.329.18-.599.399-.599s.399-.449.399-.998c0-.621.227-.998.599-.998a.6.6 0 0 0 .599-.599c0-.329.16-.598.356-.598s.469-.45.606-.998c.138-.549.427-.998.642-.998s.392-.45.392-.998c0-.621.226-.998.599-.998.329 0 .599-.27.599-.599 0-.33.16-.599.356-.599s.468-.449.606-.998.427-.998.642-.998.392-.25.392-.556.269-.66.598-.786c.33-.126.599-.518.599-.87s.28-.919.622-1.261.527-.868.412-1.169c-.119-.311.043-.548.376-.548.323 0 .586-.364.586-.811 0-.446.269-.914.597-1.039.328-.126.492-.398.365-.604-.334-.541.641-1.58 1.179-1.257.25.149.207-.032-.094-.404-.677-.835-.698-.834-1.053.023m-21.153 34.432c.135.219.101.399-.077.399-.177 0-.348.448-.38.995-.032.548.103.896.299.775.197-.121.357-.569.357-.995s.18-.775.399-.775.4-.18.4-.399-.281-.4-.623-.4-.511.18-.375.4"/><path fill="#04fcd4" d="M182.579 23.353c-.183.479-1.059.599-4.378.599-2.5 0-4.149.159-4.149.399 0 .235-1.401.399-3.406.399-2.659 0-3.456.132-3.635.599-.172.447-.883.599-2.795.599s-2.623.153-2.794.599c-.161.419-.815.599-2.183.599-1.075 0-1.954.179-1.954.399 0 .219-.903.399-2.008.399-1.417 0-2.076.176-2.238.599-.161.419-.816.599-2.184.599-1.47 0-1.953.148-1.953.599 0 .432-.443.598-1.597.598-.878 0-1.596.18-1.596.4 0 .219-.719.399-1.597.399-1.153 0-1.597.166-1.597.599s-.444.598-1.597.598-1.597.167-1.597.599q0 .599-1.197.599c-.659 0-1.198.18-1.198.399s-.634.399-1.41.399c-.884 0-1.495.223-1.639.599-.14.364-.744.599-1.542.599-.797 0-1.401.235-1.541.599-.127.329-.685.599-1.241.599-.555 0-1.01.179-1.01.399 0 .219-.449.399-.998.399-.621 0-.998.226-.998.599 0 .368-.374.599-.975.599-.535 0-1.085.179-1.221.399-.135.219-.601.399-1.034.399s-.891.269-1.017.599-.66.599-1.185.599c-.583 0-.955.233-.955.598 0 .373-.377.599-.998.599-.549 0-.998.18-.998.399s-.455.4-1.011.4-1.114.269-1.24.598c-.127.33-.66.599-1.185.599-.583 0-.956.234-.956.599 0 .373-.377.599-.998.599-.548 0-.998.179-.998.399s-.314.405-.698.412c-.822.016-2.495 1.321-2.495 1.947 0 .24-.539.435-1.198.435s-1.197.18-1.197.4c0 .219-.323.399-.718.399s-1.158.531-1.696 1.18c-.539.65-1.307 1.189-1.707 1.198-.805.019-1.867.92-1.867 1.585 0 .236-.424.428-.942.428-.539 0-1.263.427-1.692.998-.412.549-.976.998-1.254.998-.277 0-.504.269-.504.599 0 .372-.377.599-.998.599s-.998.226-.998.598a.6.6 0 0 1-.598.599c-.33 0-.599.18-.599.399s-.27.4-.599.4a.6.6 0 0 0-.599.598c0 .373-.377.599-.998.599s-.998.226-.998.599c0 .329-.192.599-.428.599-.552 0-1.568 1.015-1.568 1.568 0 .235-.269.428-.599.428s-.598.176-.598.391-.45.505-.998.643c-.549.137-.998.41-.998.606s-.27.356-.599.356c-.33 0-.599.239-.599.531s-.449.772-.998 1.066c-.549.293-.998.773-.998 1.065s-.27.531-.599.531-.599.24-.599.532-.449.772-.998 1.065c-.549.294-.998.774-.998 1.066s-.269.531-.598.531c-.33 0-.599.193-.599.428 0 .552-1.016 1.568-1.569 1.568-.235 0-.427.27-.427.599s-.27.599-.599.599-.599.192-.599.427c0 .553-1.016 1.569-1.568 1.569-.235 0-.428.269-.428.599a.6.6 0 0 1-.599.598c-.329 0-.599.193-.599.428 0 .553-1.015 1.568-1.568 1.568-.235 0-.428.27-.428.599a.6.6 0 0 1-.598.599c-.33 0-.599.192-.599.428 0 .552-1.016 1.568-1.568 1.568-.236 0-.428.269-.428.599s-.176.599-.392.599c-.215 0-.504.449-.642.998s-.41.998-.606.998-.356.269-.356.598a.6.6 0 0 1-.599.599.6.6 0 0 0-.599.599c0 .329-.192.599-.427.599-.705 0-1.569 1.083-1.569 1.967 0 .469-.259.827-.599.827-.329 0-.598.188-.598.418s-.449.835-.998 1.344c-.549.508-.998 1.308-.998 1.777 0 .492-.254.852-.599.852-.33 0-.599.227-.599.504 0 .278-.449.842-.998 1.254-.571.429-.998 1.153-.998 1.692 0 .518-.205.942-.455.942-.671 0-1.514 1.265-1.528 2.295-.007.494-.191.898-.408.898-.78 0-2 1.394-2 2.285 0 .5-.18.909-.399.909s-.4.449-.4.998c0 .621-.226.998-.598.998-.33 0-.599.25-.599.556s-.27.659-.599.786c-.329.126-.599.595-.599 1.041s-.179.81-.399.81-.399.45-.399.998c0 .621-.226.998-.599.998-.365 0-.599.373-.599.956 0 .525-.269 1.058-.599 1.185-.329.126-.598.619-.598 1.095 0 .475-.45 1.281-.998 1.789-.549.509-.998 1.216-.998 1.572 0 .355-.27.916-.599 1.245-.33.329-.599 1.125-.599 1.768s-.18 1.169-.399 1.169-.399.449-.399.998c0 .621-.227.998-.599.998-.34 0-.599.358-.599.827 0 .455-.27 1.096-.599 1.426s-.599.945-.599 1.368-.179.77-.399.77c-.219 0-.399.719-.399 1.597 0 1.153-.166 1.597-.599 1.597-.372 0-.599.377-.599.998 0 .549-.179.998-.399.998-.219 0-.399.718-.399 1.597 0 1.153-.166 1.596-.599 1.596s-.599.444-.599 1.597-.166 1.597-.598 1.597c-.433 0-.599.444-.599 1.597 0 .878-.18 1.597-.399 1.597s-.4.718-.4 1.596c0 1.154-.166 1.597-.598 1.597-.451 0-.599.483-.599 1.953 0 1.368-.18 2.023-.599 2.184-.423.162-.599.821-.599 2.238 0 1.105-.18 2.008-.399 2.008s-.399.988-.399 2.196c0 1.686-.139 2.196-.599 2.196-.471 0-.599.554-.599 2.594s-.128 2.595-.599 2.595c-.482 0-.599.621-.599 3.194 0 1.863-.166 3.193-.399 3.193-.244 0-.399 1.863-.399 4.791 0 4.019-.098 4.79-.606 4.79-.534 0-.604 2.088-.583 17.36.018 13.357.135 17.338.507 17.266.344-.068.516.992.598 3.684.064 2.078.3 3.892.524 4.031.223.138.441.877.482 1.642.042.765.284 1.391.537 1.392s.381-.208.282-.464c-.098-.257.099-.466.438-.466s.616.131.616.29c0 .16.673.118 1.497-.093.823-.211 2.125-.524 2.894-.697 1.346-.302 2.879-.703 6.487-1.698.933-.257 2.595-.604 3.692-.77 2.495-.379 4.33-.81 8.384-1.97 1.756-.502 3.868-.993 4.693-1.091s1.599-.337 1.72-.534c.121-.196.908-.357 1.748-.357s2.401-.254 3.469-.566a167 167 0 0 1 4.537-1.223c1.427-.362 3.147-.826 3.821-1.031s1.785-.373 2.469-.373 1.749-.193 2.367-.429 1.842-.59 2.721-.787c.878-.197 2.764-.646 4.191-.998 2.359-.583 5.848-1.351 8.982-1.977.659-.131 2.096-.489 3.194-.794s2.714-.732 3.593-.947a141 141 0 0 0 3.393-.892 40 40 0 0 1 3.792-.807c1.098-.17 3.164-.6 4.591-.957 1.427-.356 3.37-.812 4.318-1.013s1.909-.48 2.136-.62 1.427-.402 2.668-.581c2.503-.361 3.558-.596 9.641-2.151l5.588-1.428c.769-.196 2.296-.489 3.394-.65l1.996-.293-1.597-.265c-1.209-.202-.757-.28 1.863-.323 1.999-.032 3.518-.232 3.598-.473.094-.28 8.493-.522 25.483-.734 24.992-.312 24.703-.317-20.822-.381-41.25-.058-46.19-.131-46.402-.683-.13-.339-.553-.564-.94-.499-.477.081-.747-.179-.835-.804-.072-.507-.386-1.02-.699-1.14s-.568-.648-.568-1.174-.179-.955-.399-.955c-.219 0-.399-.629-.399-1.397s.18-1.397.399-1.397.399-.36.399-.799c0-.443.267-.798.599-.798.373 0 .599-.377.599-.998 0-.549.159-.998.353-.998s.451-.377.572-.839c.124-.474.408-.721.655-.569.24.148.41.122.379-.059-.209-1.201.09-2.08.636-1.871.438.168.599-.05.599-.811 0-.572.158-1.041.352-1.041s.452-.377.572-.838c.121-.462.411-.72.646-.575.257.159.426-.124.426-.716 0-.538.269-1.082.598-1.209.33-.126.599-.642.599-1.145 0-.511.442-1.247.998-1.665.571-.429.998-1.153.998-1.692 0-.518.205-.942.455-.942.671 0 1.514-1.266 1.529-2.296.007-.526.26-.898.611-.898.373 0 .599-.377.599-.998s.226-.998.599-.998a.6.6 0 0 0 .598-.599c0-.329.18-.598.4-.598.219 0 .399-.449.399-.998 0-.621.226-.998.599-.998.329 0 .598-.251.598-.556s.27-.66.599-.786c.33-.127.599-.595.599-1.041s.18-.811.399-.811.399-.449.399-.998c0-.621.227-.998.599-.998a.6.6 0 0 0 .599-.599c0-.329.16-.599.356-.599s.469-.449.606-.998c.138-.548.427-.998.642-.998s.392-.269.392-.598a.6.6 0 0 1 .599-.599c.372 0 .599-.377.599-.998 0-.549.16-.998.356-.998s.468-.449.606-.998.427-.998.642-.998.392-.25.392-.556.269-.66.598-.786c.33-.127.599-.595.599-1.041s.18-.811.399-.811.4-.539.4-1.197c0-.659.177-1.198.394-1.198.745 0 2.001-1.375 2.001-2.19 0-.448.449-1.151.998-1.564.571-.428.998-1.152.998-1.691 0-.571.236-.942.599-.942.372 0 .599-.377.599-.998 0-.549.179-.998.399-.998.219 0 .399-.27.399-.599a.6.6 0 0 1 .599-.599c.372 0 .599-.377.599-.998s.226-.998.598-.998a.6.6 0 0 0 .599-.599c0-.329.18-.598.399-.598s.4-.45.4-.998c0-.621.226-.998.598-.998.373 0 .599-.377.599-.998s.226-.998.599-.998c.329 0 .599-.27.599-.599 0-.33.179-.599.399-.599s.399-.449.399-.998c0-.621.226-.998.599-.998.337 0 .599-.357.599-.818 0-.449.449-1.233.998-1.742s.998-1.308.998-1.777c0-.492.253-.853.599-.853a.6.6 0 0 0 .598-.599c0-.329.161-.598.356-.598.196 0 .469-.449.607-.998.137-.549.426-.998.642-.998.215 0 .391-.539.391-1.198s.193-1.198.428-1.198c.762 0 1.568-1.114 1.568-2.167 0-.564.178-1.026.395-1.026.78 0 2.001-1.394 2.001-2.284 0-.501.179-.91.399-.91.219 0 .399-.449.399-.998s.178-.998.395-.998c.723 0 2-1.365 2-2.139 0-.42.449-1.179.998-1.688s.998-1.293.998-1.743c0-.46.262-.817.599-.817.373 0 .599-.377.599-.998 0-.549.179-.998.399-.998s.399-.269.399-.599.27-.599.599-.599c.373 0 .599-.377.599-.998s.226-.998.599-.998c.372 0 .598-.377.598-.998 0-.549.18-.998.4-.998.219 0 .399-.269.399-.598a.6.6 0 0 1 .599-.599c.337 0 .598-.357.598-.818 0-.449.45-1.233.998-1.742.549-.509.998-1.309.998-1.777 0-.492.254-.853.599-.853.338 0 .599-.357.599-.817 0-.45.449-1.234.998-1.743.549-.508.998-1.227.998-1.597s.449-1.088.998-1.596c.549-.509.998-1.309.998-1.778 0-.491.254-.852.599-.852q.599 0 .599-1.198c0-.658.204-1.197.455-1.197.671 0 1.513-1.266 1.528-2.296.007-.494.19-.898.407-.898.781 0 2.001-1.393 2.001-2.284 0-.5.18-.91.399-.91s.399-.449.399-.998c0-.621.227-.998.599-.998.329 0 .599-.25.599-.556 0-.305.269-.659.599-.785.329-.127.599-.595.599-1.041s.179-.811.399-.811c.219 0 .399-.449.399-.998 0-.621.226-.998.599-.998.329 0 .599-.27.599-.599a.6.6 0 0 1 .598-.599c.373 0 .599-.377.599-.998 0-.549.18-.998.399-.998s.4-.269.4-.599a.6.6 0 0 1 .598-.598c.366 0 .599-.373.599-.956 0-.525.27-1.058.599-1.185.329-.126.599-.594.599-1.04s.179-.811.399-.811c.219 0 .399-.27.399-.599a.6.6 0 0 1 .599-.599c.337 0 .599-.357.599-.817 0-.45.449-1.234.998-1.743s.998-1.289.998-1.734.269-.914.599-1.04.598-.614.598-1.083.449-1.207.998-1.638c.575-.453.998-1.196.998-1.754 0-.596.231-.969.599-.969.373 0 .599-.377.599-.998 0-.549.18-.998.399-.998s.399-.27.399-.599a.6.6 0 0 1 .599-.599c.373 0 .599-.377.599-.998s.226-.998.599-.998c.329 0 .599-.27.599-.599s.179-.599.399-.599c.219 0 .399-.449.399-.998 0-.621.226-.998.599-.998.372 0 .599-.377.599-.998s.226-.998.598-.998a.6.6 0 0 0 .599-.598c0-.33.18-.599.399-.599s.4-.449.4-.998c0-.621.226-.998.598-.998.46 0 .599-.51.599-2.196 0-1.685-.139-2.196-.599-2.196-.372 0-.598-.377-.598-.998v-.998h-7.199c-6.03 0-7.235.098-7.428.599m111.233 29.541a.6.6 0 0 1-.598.599c-.373 0-.599.377-.599.998s-.226.998-.599.998a.6.6 0 0 0-.599.599c0 .329-.179.599-.399.599s-.399.449-.399.998c0 .621-.226.998-.599.998-.329 0-.599.25-.599.556s-.269.659-.599.786c-.329.126-.598.594-.598 1.04s-.18.811-.4.811c-.219 0-.406.404-.416.898s-.548 1.339-1.197 1.878c-.65.539-1.181 1.302-1.181 1.697 0 .394-.18.717-.399.717s-.399.25-.399.556-.27.659-.599.786c-.33.126-.599.575-.599.998 0 .422-.27.871-.599.998-.329.126-.599.642-.599 1.145 0 .511-.441 1.248-.998 1.666-.549.412-.998 1.102-.998 1.534s-.449 1.138-.998 1.57c-.575.452-.998 1.196-.998 1.754 0 .595-.231.969-.598.969-.373 0-.599.377-.599.998 0 .549-.18.998-.399.998s-.4.269-.4.599a.6.6 0 0 1-.598.599c-.373 0-.599.377-.599.998s-.227.998-.599.998a.6.6 0 0 0-.599.598c0 .33-.18.599-.399.599s-.399.449-.399.998c0 .621-.227.998-.599.998-.373 0-.599.377-.599.998s-.226.998-.599.998a.6.6 0 0 0-.599.599c0 .329-.179.599-.399.599-.219 0-.399.449-.399.998 0 .621-.226.998-.599.998-.329 0-.599.25-.599.556s-.269.659-.598.786c-.33.126-.599.594-.599 1.04s-.18.811-.399.811-.4.449-.4.998c0 .621-.226.998-.598.998-.33 0-.599.251-.599.556s-.27.66-.599.786c-.329.127-.599.595-.599 1.041s-.179.811-.399.811-.399.269-.399.599-.27.599-.599.599c-.365 0-.599.372-.599.955 0 .525-.269 1.059-.599 1.185s-.598.608-.598 1.069c0 .895-.86 1.98-1.569 1.98-.235 0-.427.509-.427 1.13 0 .797-.295 1.288-.998 1.665-.704.376-.998.867-.998 1.664 0 .738-.208 1.13-.599 1.13-.345 0-.599.361-.599.852 0 .469-.449 1.269-.998 1.778s-.998 1.293-.998 1.742c0 .461-.261.818-.599.818a.6.6 0 0 0-.599.598c0 .33-.179.599-.399.599-.219 0-.399.449-.399.998 0 .621-.226.998-.599.998-.372 0-.599.377-.599.998s-.226.998-.598.998a.6.6 0 0 0-.599.599c0 .329-.18.599-.399.599s-.4.449-.4.998c0 .621-.226.998-.598.998-.33 0-.599.25-.599.556s-.27.659-.599.786c-.329.126-.599.595-.599 1.041s-.179.811-.399.811-.399.449-.399.998c0 .621-.226.998-.599.998-.329 0-.599.25-.599.556 0 .305-.269.659-.599.785-.329.127-.598.595-.598 1.041s-.18.811-.4.811c-.219 0-.399.27-.399.599a.6.6 0 0 1-.599.599c-.365 0-.598.372-.598.955 0 .525-.27 1.059-.599 1.185-.33.126-.599.595-.599 1.041s-.159.811-.353.811-.451.377-.572.838c-.12.462-.373.743-.562.627-.189-.117-.372.167-.407.632s-.345 1.001-.69 1.194-.522.519-.395.725-.048.375-.391.375c-.39 0-.622.356-.622.955 0 .526-.27 1.059-.599 1.185s-.599.608-.599 1.07c0 .845-.849 1.98-1.481 1.98-.187 0-.377.438-.421.973s-.533 1.425-1.085 1.978c-.553.552-1.005 1.372-1.005 1.821 0 .46-.261.816-.598.816-.373 0-.599.377-.599.998s-.226.998-.599.998a.6.6 0 0 0-.599.599c0 .33-.18.599-.399.599s-.399.449-.399.998c0 .621-.227.998-.599.998-.329 0-.599.25-.599.556s-.269.66-.599.786-.599.595-.599 1.041-.179.811-.399.811c-.219 0-.399.368-.399.817 0 .45-.494 1.276-1.098 1.837s-1.104 1.225-1.112 1.478-.66 1.461-1.448 2.686c-.789 1.225-1.559 2.62-1.711 3.099s-.444.77-.648.644c-.203-.126-.37.135-.37.58 0 .523-.195.735-.549.599-.38-.146-.549.113-.549.841 0 .578-.228 1.262-.508 1.52-.391.362-.443.355-.226-.029.431-.763.096-.596-.723.36-.716.837-.716.853.011.598.698-.245.702-.226.055.278-.381.296-.568.663-.417.815.152.151-.12.379-.605.506-.484.127-.878.524-.874.882.005.51.08.536.343.12.271-.426.388-.402.589.12.137.36.084.55-.12.425s-.516.01-.694.302c-.178.293-.773.852-1.322 1.243-.897.64-.911.686-.133.459.475-.139.968-.084 1.095.121.144.232.801.228 1.731-.01.824-.211 2.127-.53 2.896-.708 3.019-.7 5.444-1.306 6.615-1.654.674-.2 1.687-.364 2.25-.364s1.897-.255 2.965-.566a162 162 0 0 1 4.537-1.224c1.427-.362 3.134-.808 3.793-.993.658-.184 1.916-.447 2.794-.584 1.429-.222 7.674-1.668 11.377-2.635.769-.2 2.745-.649 4.391-.997 1.647-.348 3.713-.829 4.591-1.068a83 83 0 0 1 2.994-.748c.769-.171 2.565-.604 3.992-.961 1.427-.356 3.493-.808 4.591-1.003s3.164-.646 4.591-1.002a154 154 0 0 1 4.318-1.014c.948-.201 1.873-.458 2.056-.571s1.743-.492 3.467-.841a185 185 0 0 0 4.53-.97l4.192-.998c1.537-.365 3.513-.836 4.391-1.046s2.495-.555 3.593-.766a66 66 0 0 0 3.393-.748c.768-.2 2.565-.662 3.992-1.027a176 176 0 0 0 4.537-1.229c1.068-.312 2.492-.566 3.165-.566s1.775-.168 2.449-.374c.675-.205 2.394-.666 3.821-1.024 1.427-.357 3.224-.853 3.992-1.1.769-.248 2.296-.583 3.393-.745 1.934-.285 2.968-.507 7.186-1.539 1.098-.269 2.715-.659 3.593-.868a62 62 0 0 0 3.447-.957c1.017-.318 2.398-.579 3.067-.579.67 0 1.724-.193 2.342-.429.618-.235 1.842-.583 2.721-.771.878-.189 2.764-.629 4.191-.979a193 193 0 0 1 5.069-1.158c1.36-.287 2.736-.74 3.058-1.007.357-.296.677-.336.822-.101.131.212.012.482-.264.6-.275.118-.017.147.574.065.591-.083 1.156.06 1.256.318.1.257.163.076.14-.403-.023-.478-.148-.805-.278-.724-.591.365-1.337-.547-.889-1.088.487-.586.52-2.371.038-2.073-.452.279-.761-.468-.818-1.974-.037-.977-.208-1.32-.587-1.175-.401.154-.536-.263-.536-1.657 0-1.14-.155-1.767-.399-1.616-.241.149-.399-.399-.399-1.386 0-1.083-.202-1.71-.599-1.862-.329-.127-.599-.66-.599-1.186s-.157-.955-.348-.955c-.192 0-.463-.718-.604-1.597-.14-.878-.432-1.596-.649-1.596s-.395-.341-.395-.756c0-.416-.269-.859-.599-.986-.35-.134-.599-.732-.599-1.44 0-.754-.204-1.21-.543-1.21-.364 0-.481-.328-.353-.998.14-.731.019-.998-.454-.998-.422 0-.646-.345-.646-.998 0-.621-.226-.998-.598-.998q-.6 0-.599-1.197c0-.659-.18-1.198-.399-1.198s-.4-.449-.4-.998c0-.621-.226-.998-.598-.998-.373 0-.599-.377-.599-.998s-.226-.998-.599-.998-.599-.377-.599-.998c0-.549-.179-.998-.399-.998s-.399-.409-.399-.909c0-.891-1.22-2.285-2.001-2.285-.217 0-.394-.538-.394-1.197s-.18-1.198-.4-1.198c-.219 0-.399-.365-.399-.811s-.269-.914-.599-1.04c-.329-.127-.598-.48-.598-.786s-.27-.556-.599-.556c-.373 0-.599-.377-.599-.998 0-.549-.18-.998-.399-.998s-.399-.27-.399-.599a.6.6 0 0 0-.599-.599c-.373 0-.599-.377-.599-.998s-.226-.998-.599-.998a.6.6 0 0 1-.599-.599c0-.329-.179-.599-.399-.599-.219 0-.399-.365-.399-.811s-.269-.914-.599-1.04c-.329-.127-.599-.45-.599-.719s-.449-.729-.998-1.022c-.626-.336-.998-.881-.998-1.465 0-.561-.237-.931-.598-.931a.6.6 0 0 1-.599-.598c0-.33-.18-.599-.399-.599s-.4-.27-.4-.599a.6.6 0 0 0-.598-.599c-.373 0-.599-.377-.599-.998s-.226-.998-.599-.998c-.329 0-.599-.192-.599-.428 0-.552-1.015-1.568-1.568-1.568-.235 0-.428-.269-.428-.599a.6.6 0 0 0-.599-.598c-.329 0-.598-.193-.598-.428 0-.553-1.016-1.568-1.569-1.568-.235 0-.427-.384-.427-.852 0-.523-1.003-1.831-2.595-3.384-1.427-1.392-2.595-2.716-2.595-2.94 0-.225-.27-.409-.599-.409a.6.6 0 0 1-.599-.599c0-.329-.187-.599-.417-.599s-1.562-1.168-2.961-2.595c-1.4-1.427-2.747-2.595-2.995-2.595s-.867-.449-1.376-.998-1.129-.998-1.378-.998c-.25 0-.454-.192-.454-.427 0-.553-1.015-1.569-1.568-1.569-.235 0-.428-.269-.428-.598a.6.6 0 0 0-.598-.599.6.6 0 0 1-.599-.599c0-.373-.377-.599-.998-.599-.549 0-.998-.179-.998-.399s-.27-.399-.599-.399-.599-.194-.599-.43c0-.753-2.301-2.764-3.163-2.764-.471 0-.829-.259-.829-.599a.6.6 0 0 0-.599-.598.6.6 0 0 1-.598-.599c0-.373-.377-.599-.998-.599-.549 0-.998-.18-.998-.399s-.27-.399-.599-.399a.6.6 0 0 1-.599-.599c0-.33-.25-.599-.556-.599s-.66-.269-.786-.599c-.174-.453-.91-.599-3.037-.599-2.229 0-2.807.124-2.807.599m76.048 98.241c.439.328.769.723.732.878-.036.155.008.357.1.449.091.091.166-.202.166-.652 0-.516-.332-.902-.898-1.045-.881-.222-.883-.215-.1.37M25.948 237.937c0 .432.19.786.423.786s.321-.165.197-.366-.009-.437.256-.525c.303-.101.231-.257-.197-.421-.497-.191-.679-.05-.679.526"/></g></svg>