<svg xmlns="http://www.w3.org/2000/svg" width="40" height="40" fill="none" viewBox="0 0 40 40"><g clip-path="url(#uberon_svg-a)"><path fill="#D9D9D9" d="M20 0c11.046 0 20 8.954 20 20s-8.954 20-20 20S0 31.046 0 20 8.954 0 20 0"/><path fill="#000" d="M26 6a8 8 0 0 1 8 8v12a8 8 0 0 1-8 8H14a8 8 0 0 1-8-8V14a8 8 0 0 1 8-8z"/><g clip-path="url(#uberon_svg-b)"><path fill="#fff" d="M10 16.642v4.131c0 1.556 1.085 2.585 2.5 2.585.688 0 1.302-.264 1.745-.725v.613h.98v-6.604h-.99v4.073c0 1.048-.708 1.755-1.622 1.755-.925 0-1.622-.69-1.622-1.755v-4.072zm6.2 0v6.604h.942v-.604a2.4 2.4 0 0 0 1.716.716 2.505 2.505 0 0 0 2.529-2.508 2.507 2.507 0 0 0-2.528-2.52 2.38 2.38 0 0 0-1.707.718v-2.405zm8.224 1.698c-1.406 0-2.47 1.142-2.47 2.5 0 1.433 1.111 2.508 2.554 2.508a2.52 2.52 0 0 0 2.075-1.027l-.688-.51c-.358.482-.83.707-1.387.707-.81 0-1.46-.584-1.593-1.367h3.914v-.31c0-1.434-1.018-2.5-2.405-2.5m5.246.057c-.528 0-.915.245-1.15.631v-.594h-.943v4.812h.951v-2.738c0-.745.454-1.225 1.076-1.225H30v-.887h-.33m-5.266.773c.709 0 1.304.49 1.464 1.225h-2.935c.17-.735.764-1.225 1.471-1.225m-5.61.01c.905 0 1.65.736 1.65 1.67a1.66 1.66 0 0 1-1.65 1.668 1.66 1.66 0 0 1-1.66-1.668 1.66 1.66 0 0 1 1.66-1.67"/></g></g><defs><clipPath id="uberon_svg-a"><path fill="#fff" d="M0 0h40v40H0z"/></clipPath><clipPath id="uberon_svg-b"><path fill="#fff" d="M10 10h20v20H10z"/></clipPath></defs></svg>