<svg id="svg" version="1.1" xmlns="http://www.w3.org/2000/svg" xmlns:xlink="http://www.w3.org/1999/xlink" width="400" height="400" viewBox="0, 0, 400,400"><g id="svgg"><path id="path0" d="M318.685 59.848 C 318.520 60.013,179.401 60.440,151.148 60.363 C 147.365 60.353,145.707 60.512,144.548 60.998 C 143.697 61.355,142.280 61.740,141.400 61.853 C 140.520 61.967,139.170 62.225,138.400 62.427 C 137.630 62.630,136.491 62.797,135.868 62.798 C 134.819 62.800,134.756 62.888,135.000 64.000 C 135.232 65.056,135.152 65.207,134.332 65.260 C 131.851 65.421,130.893 65.374,131.062 65.100 C 131.334 64.660,131.028 64.729,129.746 65.398 C 129.116 65.726,128.780 66.002,129.000 66.010 C 129.220 66.019,129.116 66.245,128.770 66.513 C 128.423 66.781,127.821 67.490,127.431 68.090 C 127.041 68.689,125.704 69.664,124.461 70.257 C 121.899 71.477,120.822 72.567,120.809 73.953 C 120.792 75.710,117.531 78.498,115.859 78.185 C 114.593 77.947,114.402 78.036,113.839 79.125 C 113.497 79.787,112.988 80.406,112.708 80.501 C 112.310 80.638,112.299 80.944,112.660 81.923 C 113.066 83.027,113.031 83.200,112.356 83.414 C 111.936 83.547,111.024 84.364,110.329 85.228 C 109.635 86.093,108.826 86.800,108.533 86.800 C 108.240 86.800,108.000 86.991,108.000 87.224 C 108.000 87.457,108.135 87.564,108.300 87.462 C 108.465 87.360,108.594 88.024,108.587 88.938 C 108.579 89.852,108.759 90.743,108.987 90.917 C 109.242 91.112,109.170 91.209,108.800 91.169 C 106.570 90.931,106.421 91.225,106.007 96.696 C 105.781 99.682,105.494 101.079,104.948 101.847 C 104.537 102.426,103.903 103.347,103.539 103.894 C 103.176 104.440,102.456 105.097,101.939 105.352 C 101.348 105.645,100.793 106.482,100.441 107.609 C 100.134 108.594,99.016 110.662,97.957 112.205 C 96.898 113.747,95.770 115.752,95.450 116.658 C 94.499 119.353,93.118 121.110,91.073 122.227 C 90.014 122.805,89.004 123.666,88.830 124.139 C 88.656 124.613,88.172 126.080,87.755 127.400 C 87.200 129.156,86.822 129.771,86.347 129.694 C 85.643 129.578,85.052 131.041,85.508 131.769 C 86.113 132.737,85.858 133.363,84.170 135.051 C 83.197 136.024,82.400 136.990,82.400 137.197 C 82.400 137.403,81.886 138.163,81.257 138.886 C 80.629 139.609,79.899 140.863,79.635 141.673 C 79.298 142.709,78.955 143.108,78.478 143.019 C 77.910 142.912,77.787 143.274,77.719 145.247 C 77.641 147.510,74.703 154.718,73.574 155.416 C 73.369 155.543,73.200 155.930,73.200 156.277 C 73.200 156.910,71.761 158.400,71.149 158.400 C 70.695 158.400,69.200 161.768,69.200 162.791 C 69.200 163.935,68.132 166.400,67.637 166.400 C 66.884 166.400,65.128 168.588,63.945 171.000 C 61.956 175.058,61.534 175.744,59.986 177.443 C 59.162 178.347,58.367 179.639,58.219 180.315 C 57.884 181.840,57.060 182.561,55.977 182.278 C 55.261 182.091,55.178 182.205,55.361 183.131 C 56.180 187.272,56.076 187.714,54.202 188.062 C 53.559 188.181,53.339 188.671,53.073 190.579 C 52.891 191.882,52.485 193.315,52.171 193.763 C 51.857 194.211,51.587 195.303,51.572 196.189 C 51.547 197.633,50.897 200.048,50.828 198.955 C 50.812 198.703,50.376 198.592,49.819 198.699 C 48.975 198.860,48.870 199.049,49.069 200.043 C 49.275 201.073,49.147 201.263,47.903 201.783 C 46.909 202.198,46.441 202.688,46.279 203.483 C 45.720 206.222,42.880 211.470,41.689 211.963 C 40.220 212.572,39.017 214.175,38.660 216.000 C 38.509 216.770,37.944 218.300,37.404 219.400 C 36.864 220.500,36.317 222.246,36.190 223.280 C 36.014 224.701,35.758 225.223,35.142 225.418 C 34.160 225.730,33.200 227.865,33.200 229.738 C 33.200 230.488,32.930 231.326,32.600 231.600 C 32.270 231.874,32.000 232.408,32.000 232.787 C 32.000 233.166,31.663 233.781,31.250 234.154 C 30.838 234.527,30.402 235.567,30.282 236.465 C 29.994 238.611,29.494 239.093,28.246 238.425 C 27.082 237.801,26.401 238.133,26.399 239.324 C 26.398 239.806,26.038 240.789,25.599 241.510 C 25.159 242.230,24.800 243.265,24.800 243.810 C 24.800 244.586,24.594 244.800,23.849 244.800 C 23.147 244.800,22.762 245.142,22.384 246.100 C 22.101 246.815,21.548 247.762,21.155 248.205 C 20.630 248.796,20.412 249.799,20.337 251.966 C 20.270 253.930,20.047 255.070,19.673 255.361 C 17.924 256.727,15.840 259.141,15.019 260.754 C 14.502 261.769,13.701 263.033,13.240 263.561 C 12.778 264.090,12.389 264.720,12.374 264.961 C 12.251 267.075,12.001 268.139,11.488 268.719 C 10.929 269.352,9.925 272.334,9.407 274.900 C 9.285 275.505,8.940 276.000,8.640 276.000 C 7.856 276.000,6.000 278.580,5.998 279.673 C 5.994 281.160,5.175 283.708,4.308 284.927 C 3.795 285.648,3.517 286.658,3.535 287.727 C 3.551 288.647,3.385 290.076,3.166 290.902 C 2.331 294.053,2.308 302.174,3.132 303.238 C 3.541 303.767,3.992 304.800,4.135 305.534 C 4.277 306.267,4.716 307.347,5.110 307.934 C 5.504 308.520,5.883 309.529,5.952 310.175 C 6.021 310.821,6.240 311.778,6.438 312.301 C 6.637 312.824,6.800 313.870,6.800 314.626 C 6.800 315.382,6.980 316.000,7.200 316.000 C 7.420 316.000,7.600 316.188,7.600 316.418 C 7.600 316.648,8.058 317.294,8.617 317.853 C 9.176 318.413,9.738 319.389,9.865 320.023 C 9.992 320.658,10.429 321.282,10.837 321.412 C 11.245 321.541,11.925 322.087,12.347 322.624 C 12.770 323.161,13.413 323.600,13.776 323.600 C 14.140 323.600,14.738 324.124,15.106 324.765 C 15.474 325.406,16.278 326.228,16.892 326.591 C 17.507 326.954,18.365 327.946,18.798 328.796 C 19.232 329.646,19.930 330.451,20.349 330.584 C 20.769 330.717,21.196 331.265,21.298 331.801 C 21.401 332.337,21.330 332.681,21.142 332.564 C 20.954 332.448,20.800 332.564,20.800 332.823 C 20.800 333.115,21.199 333.217,21.852 333.092 C 22.688 332.932,23.158 333.180,24.139 334.297 C 25.451 335.792,27.368 336.764,30.572 337.559 C 31.656 337.828,33.006 338.373,33.572 338.771 C 34.137 339.169,35.050 339.630,35.600 339.795 C 36.150 339.960,36.870 340.320,37.200 340.596 C 38.602 341.767,40.014 342.129,44.575 342.489 C 47.229 342.697,49.796 342.856,50.280 342.840 C 50.764 342.825,51.275 342.998,51.416 343.226 C 51.585 343.500,51.895 343.466,52.336 343.126 C 52.833 342.743,52.813 342.833,52.258 343.484 C 51.851 343.963,51.041 344.427,50.458 344.515 C 49.876 344.603,50.347 344.680,51.506 344.685 C 53.243 344.693,53.532 344.599,53.157 344.148 C 52.815 343.737,52.820 343.600,53.175 343.600 C 53.435 343.600,53.536 343.420,53.400 343.200 C 53.264 342.980,53.208 342.789,53.276 342.775 C 53.344 342.761,54.840 342.599,56.600 342.414 C 63.272 341.714,66.210 341.140,67.600 340.263 C 68.370 339.777,69.288 339.205,69.640 338.990 C 69.992 338.776,71.057 338.084,72.006 337.453 C 72.956 336.822,74.474 336.054,75.380 335.745 C 76.566 335.341,77.241 334.786,77.792 333.764 C 78.212 332.982,79.203 331.832,79.992 331.206 C 80.782 330.581,82.412 328.782,83.614 327.209 C 84.816 325.637,86.412 323.776,87.160 323.075 C 90.123 320.296,90.800 319.478,91.794 317.479 C 93.379 314.287,94.569 312.214,94.900 312.067 C 95.065 311.993,95.200 311.670,95.200 311.348 C 95.200 311.027,95.613 310.351,96.117 309.846 C 96.622 309.342,97.272 308.138,97.561 307.172 C 97.851 306.205,98.428 304.982,98.844 304.453 C 99.260 303.925,99.600 302.903,99.600 302.183 C 99.600 301.227,100.081 300.282,101.385 298.682 C 102.367 297.477,103.626 295.525,104.183 294.345 C 104.740 293.165,105.546 291.660,105.974 291.000 C 106.402 290.340,107.190 288.900,107.725 287.800 C 108.260 286.700,109.234 285.260,109.889 284.600 C 110.544 283.940,111.383 282.481,111.753 281.357 C 112.123 280.234,112.887 278.884,113.449 278.357 C 114.946 276.957,116.935 274.061,117.816 272.000 C 118.239 271.010,119.170 269.153,119.885 267.874 C 120.622 266.557,121.381 264.426,121.636 262.959 C 121.884 261.535,122.345 260.112,122.660 259.797 C 122.975 259.482,123.425 258.675,123.659 258.003 C 123.893 257.332,124.437 256.594,124.869 256.363 C 125.792 255.869,128.000 252.522,128.000 251.616 C 128.000 250.701,129.509 248.019,130.950 246.370 C 132.403 244.708,133.887 242.358,136.400 237.737 C 137.476 235.758,138.871 233.857,139.869 233.009 C 140.851 232.175,141.647 231.096,141.802 230.391 C 141.947 229.731,142.329 228.928,142.651 228.606 C 142.973 228.284,143.435 226.893,143.678 225.514 C 144.101 223.111,146.745 217.426,148.453 215.246 C 148.864 214.721,149.200 213.958,149.200 213.550 C 149.200 213.141,149.804 212.412,150.541 211.928 C 151.279 211.445,152.355 210.208,152.933 209.180 C 153.511 208.153,154.256 207.086,154.589 206.809 C 154.922 206.533,155.393 205.568,155.637 204.664 C 155.880 203.761,156.511 202.508,157.039 201.880 C 157.568 201.252,158.000 200.475,158.000 200.152 C 158.000 199.830,158.730 198.578,159.621 197.371 C 160.513 196.164,161.834 193.942,162.558 192.432 C 163.281 190.923,164.241 189.220,164.691 188.647 C 165.141 188.075,165.635 186.930,165.789 186.103 C 166.091 184.473,168.316 180.000,168.824 180.000 C 168.996 180.000,169.254 179.466,169.397 178.813 C 169.540 178.161,170.093 176.986,170.624 176.202 C 171.156 175.419,171.888 174.198,172.251 173.489 C 172.614 172.780,173.047 172.110,173.213 172.000 C 173.378 171.890,174.081 170.682,174.775 169.315 C 175.469 167.948,176.440 166.508,176.932 166.115 C 177.425 165.722,178.799 163.780,179.986 161.800 C 181.172 159.820,182.653 157.390,183.275 156.400 C 184.670 154.182,187.600 148.272,187.600 147.675 C 187.600 145.916,190.311 143.600,192.370 143.600 C 192.811 143.600,193.794 143.054,194.553 142.388 C 197.957 139.399,209.786 135.463,213.179 136.190 C 213.740 136.310,232.920 136.448,255.800 136.495 C 304.834 136.597,299.797 137.146,301.168 131.552 C 301.674 129.488,302.416 127.340,302.817 126.777 C 303.217 126.214,303.847 124.999,304.216 124.077 C 304.706 122.852,305.114 122.400,305.728 122.400 C 307.130 122.400,311.872 117.143,312.195 115.229 C 312.342 114.359,312.721 113.432,313.036 113.170 C 313.502 112.784,313.515 112.579,313.105 112.085 C 312.554 111.422,312.394 108.800,312.904 108.800 C 313.078 108.800,313.385 109.236,313.588 109.768 C 314.081 111.066,315.537 110.701,316.080 109.143 C 316.299 108.514,316.615 108.000,316.782 108.000 C 316.949 108.000,317.684 106.452,318.416 104.559 C 319.147 102.667,319.983 101.028,320.273 100.917 C 320.563 100.805,320.800 100.343,320.800 99.889 C 320.800 99.435,321.101 98.731,321.468 98.325 C 321.952 97.790,322.112 96.976,322.047 95.376 C 321.910 91.987,323.334 89.279,327.189 85.600 C 329.921 82.992,330.419 82.300,330.992 80.307 C 331.355 79.046,331.823 77.909,332.032 77.780 C 334.437 76.294,333.528 68.437,330.667 65.976 C 329.634 65.087,329.439 64.583,329.195 62.176 C 329.040 60.649,328.888 59.706,328.857 60.080 C 328.772 61.099,327.650 61.559,326.236 61.153 C 325.559 60.959,324.140 60.800,323.083 60.800 C 322.025 60.800,320.652 60.537,320.031 60.216 C 319.410 59.895,318.804 59.729,318.685 59.848 M153.888 62.378 C 153.958 63.304,153.085 63.687,151.697 63.338 L 150.658 63.078 151.790 62.175 C 153.054 61.168,153.803 61.240,153.888 62.378 M107.452 81.516 C 107.162 81.986,108.302 83.031,108.686 82.647 C 108.832 82.501,108.669 82.098,108.324 81.752 C 107.949 81.378,107.596 81.282,107.452 81.516 M105.569 85.367 C 104.977 86.012,105.397 86.746,106.030 86.173 C 106.454 85.789,106.800 85.444,106.800 85.405 C 106.800 85.336,105.631 85.299,105.569 85.367 M308.600 125.600 C 309.404 126.488,309.956 126.711,309.252 125.863 C 309.007 125.568,308.925 125.208,309.070 125.063 C 309.215 124.918,309.005 124.800,308.605 124.800 C 307.901 124.800,307.901 124.828,308.600 125.600 M302.400 137.930 C 302.400 138.619,302.009 139.428,301.400 140.000 C 300.739 140.621,300.400 141.372,300.400 142.216 C 300.400 142.918,300.065 143.921,299.657 144.446 C 299.248 144.971,298.599 146.013,298.214 146.762 C 297.829 147.512,297.344 148.322,297.136 148.562 C 296.699 149.067,295.587 151.094,294.479 153.406 C 294.056 154.289,293.415 155.256,293.055 155.555 C 292.695 155.853,292.400 156.365,292.400 156.691 C 292.400 157.018,291.950 157.819,291.400 158.473 C 290.850 159.127,290.400 159.976,290.400 160.361 C 290.400 160.746,289.959 161.475,289.421 161.981 C 288.882 162.486,288.331 163.402,288.197 164.015 C 288.053 164.670,287.380 165.516,286.566 166.065 C 285.265 166.943,282.901 170.592,282.197 172.809 C 282.027 173.345,281.581 174.238,281.206 174.792 C 278.411 178.927,278.349 179.071,278.504 181.056 L 278.656 183.000 278.728 180.943 C 278.777 179.554,278.991 178.812,279.387 178.660 C 279.710 178.536,280.223 177.842,280.525 177.117 C 280.828 176.393,281.374 175.553,281.738 175.251 C 282.102 174.949,282.400 174.378,282.400 173.982 C 282.400 173.586,282.850 172.727,283.400 172.073 C 283.950 171.419,284.403 170.730,284.407 170.542 C 284.418 170.016,286.477 167.128,287.703 165.918 C 288.306 165.323,288.800 164.566,288.800 164.236 C 288.800 163.906,289.250 163.186,289.800 162.636 C 290.350 162.086,290.800 161.330,290.800 160.956 C 290.800 160.582,291.250 159.686,291.800 158.964 C 292.350 158.243,292.800 157.489,292.800 157.289 C 292.800 157.088,293.144 156.613,293.564 156.233 C 293.984 155.852,294.448 155.059,294.594 154.471 C 294.740 153.882,295.185 153.040,295.584 152.600 C 295.982 152.160,296.444 151.350,296.609 150.800 C 296.775 150.250,297.245 149.371,297.655 148.846 C 298.065 148.321,298.400 147.717,298.400 147.504 C 298.400 147.290,298.843 146.589,299.384 145.946 C 299.925 145.303,300.491 144.122,300.641 143.322 C 300.791 142.522,301.338 141.242,301.857 140.478 C 302.676 139.271,303.175 136.800,302.600 136.800 C 302.490 136.800,302.400 137.309,302.400 137.930 M277.341 184.503 C 276.868 185.216,276.366 186.189,276.225 186.664 C 276.084 187.140,275.559 187.797,275.059 188.124 C 274.197 188.689,271.074 193.044,269.985 195.200 C 269.708 195.750,269.372 196.290,269.240 196.400 C 269.108 196.510,268.137 198.349,267.083 200.487 C 266.028 202.625,265.007 204.472,264.814 204.592 C 264.620 204.711,264.344 205.346,264.200 206.002 C 264.055 206.658,263.705 207.331,263.421 207.498 C 263.137 207.664,262.511 208.577,262.031 209.526 C 261.535 210.506,260.561 211.604,259.779 212.066 C 258.836 212.622,258.400 213.173,258.400 213.809 C 258.400 214.320,257.939 215.287,257.375 215.957 C 256.573 216.910,256.384 217.503,256.508 218.687 L 256.666 220.200 256.733 218.718 C 256.777 217.734,257.136 216.901,257.800 216.236 C 258.350 215.686,258.800 214.870,258.800 214.422 C 258.800 213.931,259.354 213.248,260.196 212.704 C 260.963 212.207,261.886 211.170,262.247 210.400 C 262.607 209.630,263.166 208.697,263.488 208.328 C 264.109 207.616,264.893 206.261,266.573 203.000 C 267.139 201.900,268.043 200.280,268.581 199.400 C 269.120 198.520,269.884 197.170,270.280 196.400 C 270.676 195.630,271.300 194.667,271.667 194.260 C 272.033 193.854,272.440 193.093,272.572 192.571 C 272.894 191.288,274.531 188.926,275.781 187.944 C 276.341 187.503,276.800 186.975,276.800 186.771 C 276.800 186.567,277.160 186.040,277.600 185.600 C 278.040 185.160,278.400 184.440,278.400 184.000 C 278.400 182.953,278.352 182.976,277.341 184.503 M256.046 221.219 C 256.021 221.559,255.730 222.189,255.400 222.619 C 254.231 224.140,252.852 226.366,252.019 228.072 C 250.004 232.198,249.200 233.543,248.328 234.249 C 247.818 234.662,246.680 236.129,245.800 237.510 C 244.920 238.890,243.814 240.626,243.341 241.367 C 242.869 242.108,242.362 243.261,242.216 243.929 C 242.069 244.598,241.714 245.340,241.426 245.578 C 241.139 245.816,240.596 246.819,240.219 247.806 C 239.842 248.793,239.381 249.600,239.194 249.600 C 239.007 249.600,238.733 250.005,238.584 250.500 C 238.194 251.800,235.989 255.293,235.092 256.030 C 234.590 256.442,234.389 256.994,234.508 257.630 C 234.685 258.570,234.693 258.567,234.746 257.527 C 234.781 256.835,235.084 256.364,235.600 256.200 C 236.040 256.060,236.400 255.805,236.400 255.631 C 236.400 255.458,236.848 254.833,237.397 254.241 C 237.945 253.650,238.506 252.679,238.645 252.083 C 238.783 251.487,239.115 250.820,239.383 250.600 C 240.044 250.056,240.800 248.587,240.800 247.844 C 240.800 247.510,241.250 246.786,241.800 246.236 C 242.350 245.686,242.800 244.968,242.800 244.639 C 242.800 244.311,243.250 243.196,243.800 242.162 C 244.350 241.127,244.800 240.047,244.800 239.760 C 244.800 239.474,245.046 239.096,245.346 238.920 C 245.646 238.744,246.171 238.060,246.513 237.400 C 246.854 236.740,247.959 235.357,248.967 234.327 C 249.975 233.297,250.800 232.082,250.800 231.627 C 250.800 231.172,250.977 230.800,251.192 230.800 C 251.408 230.800,251.993 229.992,252.492 229.004 C 252.992 228.017,254.087 226.031,254.927 224.591 C 255.767 223.152,256.372 221.665,256.273 221.287 C 256.132 220.748,256.083 220.733,256.046 221.219 M233.212 261.288 C 232.719 262.450,231.978 263.768,231.565 264.217 C 231.153 264.667,230.601 265.657,230.339 266.417 C 230.077 267.178,229.561 268.250,229.194 268.800 C 226.870 272.276,226.400 273.132,226.400 273.888 C 226.400 274.352,226.041 275.152,225.602 275.666 C 223.581 278.032,222.746 279.805,222.212 282.867 C 221.906 284.618,221.418 286.337,221.128 286.687 C 220.267 287.725,220.382 302.271,221.262 303.600 C 221.626 304.150,222.046 305.770,222.195 307.200 C 222.349 308.682,222.882 310.614,223.433 311.693 C 223.965 312.734,224.400 313.834,224.400 314.139 C 224.400 314.443,224.743 315.128,225.161 315.660 C 225.580 316.193,226.120 317.359,226.360 318.251 C 226.637 319.280,227.420 320.468,228.498 321.496 C 232.633 325.437,233.995 327.053,234.245 328.314 C 234.554 329.873,240.194 335.363,241.927 335.793 C 242.517 335.940,243.360 336.387,243.800 336.786 C 244.240 337.186,245.230 337.621,246.000 337.753 L 247.400 337.993 246.184 337.496 C 245.515 337.223,244.570 336.595,244.084 336.100 C 243.598 335.605,243.026 335.200,242.814 335.200 C 241.079 335.200,235.187 329.670,234.502 327.400 C 234.033 325.844,230.183 321.600,229.241 321.600 C 229.014 321.600,228.616 321.195,228.356 320.700 C 228.096 320.205,227.639 319.656,227.342 319.480 C 227.044 319.304,226.800 318.654,226.800 318.036 C 226.800 317.418,226.358 316.260,225.818 315.464 C 225.277 314.668,224.631 313.248,224.380 312.308 C 224.130 311.369,223.695 310.330,223.413 310.000 C 223.131 309.670,222.680 307.600,222.411 305.400 C 222.142 303.200,221.669 300.793,221.361 300.051 C 220.577 298.167,220.605 290.964,221.403 289.054 C 221.735 288.259,222.188 286.212,222.409 284.505 C 222.803 281.467,224.419 277.372,225.497 276.682 C 225.771 276.506,226.732 274.886,227.633 273.082 C 230.147 268.045,231.588 265.477,232.395 264.600 C 233.165 263.762,234.646 259.712,234.306 259.372 C 234.197 259.264,233.705 260.126,233.212 261.288 M256.536 342.271 C 257.031 342.857,257.181 343.431,256.993 344.021 C 256.804 344.617,256.857 344.812,257.157 344.626 C 257.884 344.177,257.661 342.976,256.700 342.162 L 255.800 341.400 256.536 342.271 " stroke="none" fill="#2b6cec" fill-rule="evenodd"></path><path id="path1" d="M210.600 138.398 C 208.400 138.572,206.081 138.917,205.447 139.167 C 204.814 139.416,203.484 139.802,202.493 140.024 C 201.502 140.246,200.241 140.782,199.691 141.214 C 199.142 141.646,198.533 142.000,198.337 142.000 C 198.142 142.000,197.312 142.440,196.491 142.977 C 195.671 143.514,194.190 144.156,193.200 144.403 C 190.707 145.026,188.930 146.729,188.343 149.060 C 187.846 151.036,185.784 155.220,183.653 158.582 C 182.964 159.668,182.400 160.756,182.400 161.000 C 182.400 161.529,180.373 164.398,178.483 166.544 C 177.734 167.393,176.853 168.743,176.524 169.544 C 176.195 170.345,175.511 171.450,175.005 172.000 C 174.499 172.550,173.960 173.588,173.809 174.307 C 173.657 175.026,172.896 176.286,172.118 177.107 C 171.339 177.928,170.475 179.230,170.196 180.000 C 169.917 180.770,169.044 182.535,168.254 183.921 C 167.465 185.308,166.622 187.198,166.381 188.121 C 166.140 189.045,165.713 189.980,165.433 190.200 C 165.153 190.420,164.531 191.410,164.049 192.400 C 162.659 195.260,161.979 196.448,160.338 198.878 C 159.492 200.131,158.800 201.513,158.800 201.949 C 158.800 202.385,158.365 203.084,157.834 203.502 C 157.297 203.924,156.663 205.047,156.406 206.031 C 155.814 208.294,153.460 211.899,152.198 212.474 C 151.656 212.721,151.031 213.499,150.791 214.227 C 150.553 214.947,150.074 215.773,149.725 216.062 C 149.376 216.352,148.751 217.311,148.336 218.194 C 147.921 219.077,146.940 220.880,146.155 222.200 C 145.265 223.697,144.583 225.501,144.340 226.995 C 144.127 228.312,143.714 229.662,143.423 229.995 C 143.133 230.328,142.761 231.036,142.598 231.570 C 142.435 232.103,141.525 233.369,140.576 234.384 C 139.627 235.398,138.219 237.548,137.446 239.160 C 136.673 240.772,135.781 242.386,135.462 242.746 C 135.144 243.106,134.520 244.120,134.077 245.000 C 133.633 245.880,132.887 247.320,132.419 248.200 C 131.952 249.080,130.901 251.060,130.084 252.600 C 129.105 254.448,128.218 255.581,127.478 255.932 C 126.861 256.225,126.185 256.913,125.977 257.460 C 125.769 258.007,125.167 259.027,124.639 259.727 C 123.715 260.952,122.000 265.776,122.000 267.148 C 122.000 267.514,121.293 269.023,120.428 270.502 C 119.564 271.982,118.728 273.597,118.571 274.091 C 118.248 275.109,116.493 277.395,114.354 279.583 C 113.558 280.397,112.684 281.769,112.412 282.632 C 112.139 283.494,111.520 284.830,111.035 285.600 C 110.550 286.370,109.920 287.579,109.634 288.287 C 109.348 288.994,108.875 289.772,108.583 290.014 C 108.291 290.256,107.664 291.207,107.189 292.127 C 106.714 293.047,105.996 294.160,105.593 294.600 C 105.189 295.040,104.744 295.866,104.603 296.435 C 104.461 297.005,103.542 298.309,102.559 299.335 C 101.091 300.867,100.698 301.608,100.351 303.500 C 100.120 304.765,99.694 306.070,99.407 306.400 C 99.119 306.730,98.582 307.900,98.213 309.000 C 97.844 310.100,97.309 311.270,97.024 311.600 C 96.740 311.930,95.640 313.910,94.581 316.000 C 93.365 318.398,91.906 320.562,90.627 321.865 C 89.512 323.000,87.880 324.870,87.000 326.019 C 85.266 328.285,79.675 334.000,79.193 334.000 C 79.030 334.000,78.674 334.538,78.402 335.195 C 77.745 336.781,73.564 339.844,70.919 340.678 C 68.683 341.383,67.357 342.476,67.135 343.800 C 67.000 344.598,67.250 344.600,160.300 344.701 L 253.600 344.802 253.600 343.853 C 253.600 343.018,253.372 342.878,251.708 342.691 C 250.389 342.542,249.648 342.224,249.259 341.639 C 248.856 341.032,248.282 340.800,247.180 340.800 C 245.782 340.800,244.400 340.016,244.400 339.222 C 244.400 339.045,243.258 338.355,241.862 337.689 C 240.466 337.022,238.844 336.054,238.258 335.538 C 237.672 335.022,236.479 334.060,235.606 333.400 C 234.537 332.591,233.865 331.679,233.544 330.600 C 233.283 329.720,232.858 328.820,232.600 328.600 C 232.342 328.380,231.915 327.795,231.651 327.300 C 231.388 326.805,230.934 326.400,230.644 326.400 C 230.354 326.400,229.631 325.633,229.039 324.697 C 228.447 323.760,227.442 322.694,226.805 322.329 C 226.005 321.869,225.567 321.232,225.385 320.259 C 225.240 319.485,224.789 318.552,224.383 318.185 C 223.977 317.817,223.523 316.958,223.372 316.274 C 223.222 315.591,222.763 314.574,222.353 314.016 C 221.942 313.457,221.495 312.100,221.360 311.000 C 221.225 309.900,220.763 308.247,220.334 307.326 C 219.624 305.802,218.647 299.544,218.660 296.600 C 218.681 291.872,219.639 283.530,220.376 281.661 C 220.829 280.511,221.200 279.216,221.200 278.783 C 221.200 278.349,221.633 277.619,222.161 277.159 C 222.690 276.699,223.795 274.720,224.616 272.761 C 225.438 270.803,226.257 269.200,226.436 269.200 C 226.616 269.200,227.129 268.435,227.578 267.500 C 228.688 265.183,229.924 263.165,230.838 262.174 C 231.257 261.720,231.600 261.047,231.600 260.678 C 231.600 260.309,231.960 259.782,232.400 259.507 C 232.961 259.157,233.200 258.574,233.200 257.560 C 233.200 256.675,233.589 255.539,234.200 254.638 C 234.750 253.828,235.200 253.006,235.200 252.813 C 235.200 252.620,235.651 251.925,236.202 251.271 C 236.753 250.616,237.317 249.515,237.455 248.826 C 237.593 248.136,238.017 247.405,238.398 247.201 C 238.779 246.997,239.322 246.239,239.606 245.515 C 240.867 242.296,242.405 239.200,242.743 239.200 C 242.945 239.200,243.226 238.588,243.366 237.840 C 243.506 237.092,243.905 236.245,244.252 235.957 C 244.599 235.669,245.047 235.003,245.246 234.478 C 245.446 233.952,245.962 233.431,246.392 233.318 C 246.822 233.206,247.282 232.773,247.414 232.356 C 247.546 231.940,248.002 231.413,248.427 231.186 C 248.918 230.923,249.200 230.349,249.200 229.614 C 249.200 228.526,250.066 227.200,250.777 227.200 C 250.954 227.200,251.213 226.480,251.354 225.600 C 251.507 224.640,251.927 223.802,252.405 223.504 C 252.842 223.231,253.200 222.795,253.200 222.534 C 253.200 222.274,253.650 221.527,254.200 220.873 C 254.862 220.086,255.200 219.197,255.200 218.242 C 255.200 217.449,255.643 215.945,256.185 214.900 C 256.727 213.855,257.268 212.668,257.387 212.262 C 257.506 211.856,257.942 211.436,258.355 211.328 C 258.832 211.203,259.184 210.652,259.320 209.817 C 259.437 209.095,259.978 208.010,260.521 207.406 C 262.473 205.239,262.789 204.800,263.329 203.509 C 263.630 202.789,264.174 201.953,264.538 201.651 C 264.902 201.349,265.200 200.665,265.200 200.132 C 265.200 199.598,265.630 198.763,266.155 198.276 C 266.681 197.789,267.339 196.628,267.619 195.696 C 267.898 194.763,268.274 194.000,268.453 194.000 C 268.633 194.000,269.079 193.415,269.446 192.700 C 269.812 191.985,270.298 191.280,270.525 191.134 C 270.752 190.987,271.132 190.282,271.369 189.566 C 271.640 188.748,272.270 188.030,273.065 187.632 C 273.960 187.185,274.477 186.532,274.834 185.400 C 275.111 184.520,275.735 183.350,276.220 182.800 C 276.857 182.076,277.161 181.094,277.318 179.243 C 277.462 177.545,277.814 176.306,278.367 175.559 C 278.825 174.939,279.200 174.169,279.200 173.847 C 279.200 173.525,279.650 172.727,280.200 172.073 C 280.750 171.419,281.200 170.584,281.200 170.216 C 281.200 169.100,281.997 167.959,284.575 165.381 C 286.234 163.722,287.201 162.376,287.535 161.259 C 287.808 160.346,288.209 159.600,288.426 159.600 C 288.643 159.600,288.993 159.145,289.204 158.590 C 289.415 158.034,289.862 157.474,290.196 157.346 C 290.531 157.218,290.918 156.400,291.058 155.529 C 291.221 154.510,291.636 153.733,292.225 153.347 C 292.813 152.962,293.236 152.170,293.413 151.125 C 293.601 150.013,293.925 149.440,294.443 149.305 C 294.924 149.179,295.200 148.752,295.200 148.135 C 295.200 147.601,295.650 146.714,296.200 146.164 C 296.750 145.614,297.200 144.898,297.200 144.573 C 297.200 144.249,297.643 143.781,298.184 143.534 C 299.181 143.080,299.875 140.722,299.533 138.947 C 299.377 138.138,220.112 137.649,210.600 138.398 " stroke="none" fill="#043cb3" fill-rule="evenodd"></path><path id="path2" d="M98.534 101.493 C 98.854 102.011,97.847 102.902,97.399 102.497 C 97.219 102.333,97.196 102.417,97.349 102.683 C 97.681 103.262,98.654 102.958,98.952 102.182 C 99.069 101.876,98.965 101.502,98.721 101.351 C 98.469 101.195,98.388 101.257,98.534 101.493 M310.432 125.313 C 310.414 125.705,309.995 126.189,309.500 126.388 C 308.891 126.632,308.810 126.757,309.251 126.775 C 310.074 126.807,310.941 125.790,310.669 125.113 C 310.542 124.796,310.451 124.872,310.432 125.313 M302.800 137.547 C 302.800 138.507,302.444 139.613,301.857 140.478 C 301.338 141.242,300.791 142.522,300.641 143.322 C 300.491 144.122,299.925 145.303,299.384 145.946 C 298.843 146.589,298.400 147.290,298.400 147.504 C 298.400 147.717,298.065 148.321,297.655 148.846 C 297.245 149.371,296.775 150.250,296.609 150.800 C 296.444 151.350,295.982 152.160,295.584 152.600 C 295.185 153.040,294.740 153.882,294.594 154.471 C 294.448 155.059,293.984 155.852,293.564 156.233 C 293.144 156.613,292.800 157.088,292.800 157.289 C 292.800 157.489,292.350 158.243,291.800 158.964 C 291.250 159.686,290.800 160.582,290.800 160.956 C 290.800 161.330,290.350 162.086,289.800 162.636 C 289.250 163.186,288.800 163.906,288.800 164.236 C 288.800 164.566,288.306 165.323,287.703 165.918 C 286.477 167.128,284.418 170.016,284.407 170.542 C 284.403 170.730,283.950 171.419,283.400 172.073 C 282.850 172.727,282.400 173.586,282.400 173.982 C 282.400 174.378,282.102 174.949,281.738 175.251 C 281.374 175.553,280.828 176.393,280.525 177.117 C 280.223 177.842,279.710 178.536,279.387 178.660 C 279.004 178.807,278.797 179.461,278.790 180.543 C 278.777 182.885,278.152 185.299,277.422 185.833 C 277.080 186.084,276.800 186.480,276.800 186.715 C 276.800 186.950,276.341 187.503,275.781 187.944 C 274.531 188.926,272.894 191.288,272.572 192.571 C 272.440 193.093,272.033 193.854,271.667 194.260 C 271.300 194.667,270.676 195.630,270.280 196.400 C 269.884 197.170,269.120 198.520,268.581 199.400 C 268.043 200.280,267.139 201.900,266.573 203.000 C 264.893 206.261,264.109 207.616,263.488 208.328 C 263.166 208.697,262.607 209.630,262.247 210.400 C 261.886 211.170,260.963 212.207,260.196 212.704 C 259.354 213.248,258.800 213.931,258.800 214.422 C 258.800 214.870,258.373 215.664,257.850 216.186 C 257.138 216.899,256.832 217.771,256.628 219.674 C 256.420 221.620,255.990 222.817,254.785 224.806 C 253.920 226.233,252.857 228.165,252.421 229.100 C 251.985 230.035,251.442 230.800,251.214 230.800 C 250.986 230.800,250.800 231.172,250.800 231.627 C 250.800 232.082,249.975 233.297,248.967 234.327 C 247.959 235.357,246.854 236.740,246.513 237.400 C 246.171 238.060,245.646 238.744,245.346 238.920 C 245.046 239.096,244.800 239.474,244.800 239.760 C 244.800 240.047,244.350 241.127,243.800 242.162 C 243.250 243.196,242.800 244.311,242.800 244.639 C 242.800 244.968,242.350 245.686,241.800 246.236 C 241.250 246.786,240.800 247.510,240.800 247.844 C 240.800 248.587,240.044 250.056,239.383 250.600 C 239.115 250.820,238.783 251.487,238.645 252.083 C 238.506 252.679,237.945 253.650,237.397 254.241 C 236.848 254.833,236.400 255.458,236.400 255.631 C 236.400 255.805,236.060 256.054,235.643 256.186 C 235.104 256.357,234.806 256.969,234.604 258.313 C 234.211 260.938,233.255 263.651,232.389 264.600 C 231.587 265.480,230.135 268.067,227.633 273.082 C 226.732 274.886,225.771 276.506,225.497 276.682 C 224.419 277.372,222.803 281.467,222.409 284.505 C 222.188 286.212,221.735 288.259,221.403 289.054 C 220.605 290.964,220.577 298.167,221.361 300.051 C 221.669 300.793,222.142 303.200,222.411 305.400 C 222.680 307.600,223.131 309.670,223.413 310.000 C 223.695 310.330,224.130 311.369,224.380 312.308 C 224.631 313.248,225.277 314.668,225.818 315.464 C 226.358 316.260,226.800 317.418,226.800 318.036 C 226.800 318.654,227.044 319.304,227.342 319.480 C 227.639 319.656,228.096 320.205,228.356 320.700 C 228.616 321.195,229.014 321.600,229.241 321.600 C 230.183 321.600,234.033 325.844,234.502 327.400 C 235.229 329.810,240.275 334.472,243.143 335.382 C 243.615 335.532,244.179 335.987,244.397 336.395 C 244.615 336.802,245.326 337.252,245.978 337.395 C 246.629 337.538,247.585 337.988,248.102 338.395 C 248.620 338.801,249.702 339.258,250.509 339.409 C 251.315 339.561,252.368 340.025,252.849 340.442 C 253.329 340.859,254.121 341.200,254.607 341.200 C 255.909 341.200,257.600 342.689,257.600 343.835 L 257.600 344.812 269.100 344.706 L 280.600 344.600 280.666 343.200 C 280.702 342.430,280.747 341.575,280.766 341.300 C 280.784 341.025,281.081 340.800,281.425 340.800 C 281.844 340.800,282.009 341.097,281.925 341.700 C 281.816 342.486,281.993 342.611,283.322 342.684 C 284.673 342.759,284.831 342.671,284.722 341.906 C 284.632 341.267,284.859 340.982,285.600 340.804 C 286.150 340.672,286.623 340.347,286.650 340.082 C 286.678 339.817,286.723 339.428,286.750 339.218 C 286.778 339.007,288.097 338.782,289.683 338.718 C 292.382 338.608,292.583 338.536,292.819 337.600 C 292.957 337.050,293.235 336.628,293.435 336.662 C 293.860 336.734,294.832 335.759,294.785 335.308 C 294.767 335.139,295.168 334.903,295.676 334.784 C 296.236 334.653,296.650 334.219,296.728 333.684 C 296.820 333.050,297.130 332.800,297.828 332.800 C 298.591 332.800,298.800 332.591,298.800 331.828 C 298.800 331.124,299.049 330.820,299.700 330.728 C 300.468 330.619,300.618 330.321,300.722 328.700 C 300.832 326.985,300.939 326.800,301.822 326.800 C 302.599 326.800,302.800 326.594,302.800 325.800 C 302.800 324.885,303.318 324.566,304.500 324.753 C 304.665 324.779,304.779 324.665,304.753 324.500 C 304.566 323.318,304.885 322.800,305.800 322.800 C 306.592 322.800,306.800 322.598,306.800 321.828 C 306.800 321.124,307.049 320.820,307.700 320.728 C 308.468 320.619,308.618 320.321,308.722 318.700 C 308.832 316.985,308.939 316.800,309.822 316.800 C 310.633 316.800,310.800 316.603,310.800 315.647 C 310.800 314.835,311.034 314.432,311.589 314.287 C 312.149 314.141,312.454 313.605,312.640 312.440 C 312.862 311.055,313.050 310.800,313.851 310.800 C 314.723 310.800,314.800 310.638,314.800 308.800 C 314.800 306.834,315.057 306.525,316.500 306.753 C 316.665 306.779,316.779 306.665,316.753 306.500 C 316.566 305.318,316.885 304.800,317.800 304.800 C 318.733 304.800,318.800 304.667,318.800 302.800 C 318.800 300.933,318.867 300.800,319.800 300.800 C 320.600 300.800,320.800 300.600,320.800 299.800 C 320.800 299.005,321.001 298.800,321.783 298.800 C 322.733 298.800,322.770 298.694,322.883 295.700 C 322.988 292.906,323.079 292.600,323.800 292.600 C 324.665 292.600,324.685 292.527,324.754 289.100 C 324.797 286.926,324.855 286.800,325.800 286.800 C 326.600 286.800,326.800 286.600,326.800 285.800 C 326.800 285.000,327.000 284.800,327.800 284.800 C 328.731 284.800,328.800 284.665,328.800 282.828 C 328.800 281.087,328.906 280.841,329.700 280.728 C 330.278 280.646,330.646 280.278,330.728 279.700 C 330.820 279.049,331.124 278.800,331.828 278.800 C 332.598 278.800,332.800 278.592,332.800 277.800 C 332.800 276.901,333.239 276.611,334.423 276.727 C 334.546 276.739,334.687 275.995,334.737 275.074 C 334.876 272.514,335.150 271.860,335.843 272.436 C 336.610 273.072,337.050 272.583,336.408 271.810 C 336.116 271.457,336.075 271.200,336.311 271.200 C 336.536 271.200,336.683 270.660,336.637 270.000 C 336.563 268.932,336.678 268.800,337.677 268.800 C 338.758 268.800,338.800 268.725,338.800 266.800 C 338.800 264.933,338.867 264.800,339.800 264.800 C 340.592 264.800,340.800 264.598,340.800 263.828 C 340.800 263.124,341.049 262.820,341.700 262.728 C 342.468 262.619,342.618 262.321,342.722 260.700 C 342.840 258.867,343.140 258.538,344.500 258.753 C 344.665 258.779,344.779 258.665,344.753 258.500 C 344.324 255.783,344.872 252.800,345.800 252.800 C 346.572 252.800,346.800 252.594,346.800 251.895 C 346.800 251.340,347.148 250.837,347.700 250.595 C 348.395 250.290,348.628 249.813,348.723 248.500 C 348.832 246.998,348.960 246.800,349.823 246.800 C 350.742 246.800,350.800 246.668,350.800 244.576 C 350.800 243.353,350.935 242.425,351.100 242.513 C 351.630 242.796,352.596 241.430,352.739 240.196 C 352.904 238.771,352.903 238.773,353.876 238.699 C 354.327 238.665,354.666 238.319,354.701 237.857 C 354.768 236.966,355.566 236.323,356.280 236.584 C 356.543 236.680,356.680 236.543,356.584 236.280 C 356.317 235.551,356.973 234.767,357.908 234.697 C 358.368 234.662,358.736 234.536,358.725 234.417 C 358.504 231.981,358.855 230.800,359.800 230.800 C 360.733 230.800,360.800 230.667,360.800 228.800 C 360.800 226.933,360.867 226.800,361.800 226.800 C 362.733 226.800,362.800 226.667,362.800 224.800 C 362.800 222.933,362.867 222.800,363.800 222.800 C 364.634 222.800,364.800 222.610,364.800 221.652 C 364.800 220.726,364.968 220.513,365.669 220.552 C 366.469 220.596,366.551 220.377,366.697 217.806 C 366.876 214.651,366.825 214.779,367.927 214.696 C 368.377 214.662,368.736 214.536,368.725 214.417 C 368.630 213.368,368.937 212.836,369.700 212.728 C 370.466 212.619,370.618 212.321,370.721 210.725 C 370.823 209.144,370.979 208.831,371.721 208.725 C 372.464 208.619,372.619 208.307,372.722 206.700 C 372.832 204.985,372.939 204.800,373.822 204.800 C 374.599 204.800,374.800 204.594,374.800 203.800 C 374.800 203.000,375.000 202.800,375.800 202.800 C 376.731 202.800,376.800 202.665,376.800 200.828 C 376.800 199.087,376.906 198.841,377.700 198.728 C 378.468 198.619,378.618 198.321,378.722 196.700 C 378.832 194.985,378.939 194.800,379.822 194.800 C 380.729 194.800,380.800 194.655,380.800 192.800 C 380.800 190.834,381.057 190.525,382.500 190.753 C 382.665 190.779,382.779 190.665,382.753 190.500 C 382.566 189.318,382.885 188.800,383.800 188.800 C 384.747 188.800,384.800 188.682,384.800 186.576 C 384.800 185.353,384.935 184.425,385.100 184.513 C 385.493 184.723,386.804 183.337,386.500 183.033 C 386.288 182.822,387.101 182.659,388.247 182.684 C 388.492 182.689,388.689 182.492,388.684 182.247 C 388.595 178.160,388.844 176.482,389.567 176.293 C 390.097 176.154,390.443 175.551,390.684 174.346 C 390.979 172.875,391.169 172.619,391.891 172.721 C 392.618 172.823,392.742 172.649,392.712 171.573 L 392.676 170.304 391.965 171.246 C 391.574 171.764,391.108 172.041,390.928 171.861 C 390.748 171.682,391.096 171.174,391.701 170.734 C 392.305 170.294,392.800 169.578,392.800 169.143 C 392.800 168.708,392.935 168.425,393.100 168.513 C 393.422 168.685,394.798 167.391,394.803 166.911 C 394.805 166.753,395.210 166.618,395.703 166.611 C 396.373 166.603,396.616 166.347,396.662 165.600 C 396.844 162.694,396.987 162.057,397.384 162.380 C 397.624 162.577,398.009 162.493,398.296 162.181 C 398.615 161.835,398.648 161.553,398.389 161.394 C 397.731 160.987,398.336 160.458,399.200 160.684 C 399.647 160.801,400.000 160.696,400.000 160.447 C 400.000 160.201,399.657 160.000,399.237 160.000 C 398.672 160.000,398.529 159.793,398.684 159.200 C 398.799 158.760,399.142 158.400,399.447 158.400 C 399.895 158.400,400.000 157.153,400.000 151.800 C 400.000 146.200,399.909 145.200,399.400 145.200 C 399.027 145.200,398.800 144.822,398.800 144.200 C 398.800 143.400,398.600 143.200,397.800 143.200 C 397.250 143.200,396.800 143.009,396.800 142.776 C 396.800 142.543,396.640 142.451,396.445 142.572 C 396.250 142.693,395.845 142.478,395.545 142.096 C 395.060 141.477,395.072 141.456,395.653 141.910 C 396.183 142.324,396.344 142.324,396.502 141.910 C 396.624 141.593,396.339 141.378,395.749 141.342 C 395.227 141.311,394.800 141.435,394.800 141.619 C 394.800 141.927,393.280 141.813,392.947 141.480 C 392.867 141.401,392.764 140.868,392.716 140.297 C 392.669 139.725,392.533 139.312,392.415 139.379 C 391.865 139.688,390.604 138.840,390.602 138.160 C 390.600 137.419,389.552 137.397,347.819 137.293 C 315.952 137.213,304.965 137.067,304.752 136.722 C 303.981 135.475,302.800 135.974,302.800 137.547 M393.908 142.725 C 393.995 142.986,393.812 143.200,393.500 143.200 C 393.188 143.200,392.933 142.925,392.933 142.589 C 392.933 141.897,393.667 142.000,393.908 142.725 M65.389 159.618 C 64.947 160.333,66.014 161.286,66.658 160.752 C 67.075 160.405,67.099 160.161,66.756 159.747 C 66.214 159.093,65.741 159.049,65.389 159.618 M66.430 160.110 C 66.381 160.588,65.832 160.496,65.660 159.980 C 65.572 159.716,65.716 159.572,65.980 159.660 C 66.244 159.748,66.447 159.951,66.430 160.110 M7.867 265.867 C 7.351 266.382,7.607 267.128,8.267 267.031 C 9.039 266.918,9.375 265.600,8.631 265.600 C 8.357 265.600,8.013 265.720,7.867 265.867 M1.297 313.826 C 1.335 314.337,1.663 314.665,2.174 314.703 C 2.766 314.748,2.841 314.673,2.448 314.430 C 2.150 314.245,1.755 313.850,1.570 313.552 C 1.327 313.159,1.252 313.234,1.297 313.826 " stroke="none" fill="#2dbbf9" fill-rule="evenodd"></path><path id="path3" d="M148.302 56.200 C 148.508 57.276,149.314 57.499,150.157 56.711 C 150.816 56.096,150.061 55.200,148.884 55.200 C 148.275 55.200,148.152 55.412,148.302 56.200 M319.857 55.805 C 320.023 56.237,319.906 56.339,319.445 56.162 C 319.017 55.998,318.800 56.130,318.800 56.557 C 318.800 57.034,319.186 57.198,320.300 57.194 C 321.298 57.190,321.618 57.072,321.255 56.842 C 320.794 56.551,320.794 56.463,321.255 56.280 C 321.607 56.140,321.517 56.042,321.000 56.003 L 320.200 55.944 321.000 55.600 C 321.712 55.294,321.680 55.253,320.713 55.228 C 319.901 55.207,319.684 55.353,319.857 55.805 M332.229 62.080 C 331.572 63.018,332.151 64.539,333.463 65.320 C 333.758 65.496,334.000 65.955,334.000 66.340 C 334.000 67.312,334.786 68.000,335.898 68.000 C 336.789 68.000,336.828 67.886,336.693 65.700 C 336.564 63.608,336.472 63.409,335.676 63.495 C 334.949 63.574,334.800 63.387,334.800 62.395 C 334.800 60.894,333.197 60.698,332.229 62.080 M124.090 66.227 C 124.049 66.718,124.282 67.223,124.608 67.348 C 125.044 67.515,125.200 67.279,125.200 66.454 C 125.200 65.118,124.198 64.913,124.090 66.227 M121.600 68.625 C 121.600 68.941,121.960 69.200,122.400 69.200 C 122.840 69.200,123.200 68.968,123.200 68.685 C 123.200 68.402,122.840 68.143,122.400 68.110 C 121.943 68.076,121.600 68.296,121.600 68.625 M337.729 70.278 C 335.974 70.620,335.936 76.334,337.690 76.246 C 338.549 76.203,338.603 76.027,338.657 73.100 C 338.688 71.395,338.688 70.025,338.657 70.054 C 338.625 70.084,338.208 70.185,337.729 70.278 M304.800 129.153 C 304.800 129.348,305.250 129.593,305.800 129.698 C 306.471 129.826,306.800 129.710,306.800 129.345 C 306.800 129.030,306.377 128.800,305.800 128.800 C 305.250 128.800,304.800 128.959,304.800 129.153 M302.800 132.972 C 302.800 133.381,303.161 133.600,303.833 133.600 C 305.086 133.600,304.949 132.661,303.669 132.472 C 303.092 132.387,302.800 132.555,302.800 132.972 M209.200 137.862 C 206.535 138.270,200.889 139.826,200.000 140.397 C 199.450 140.750,198.550 141.259,198.000 141.528 C 196.647 142.190,194.192 144.000,194.648 144.000 C 194.849 144.000,195.677 143.550,196.486 143.000 C 197.295 142.450,198.123 142.000,198.325 142.000 C 198.527 142.000,199.142 141.646,199.691 141.214 C 200.240 140.782,201.389 140.262,202.245 140.058 C 203.100 139.853,204.880 139.366,206.200 138.975 C 208.382 138.328,211.582 138.241,241.400 138.014 L 274.200 137.763 242.200 137.736 C 224.600 137.721,209.750 137.778,209.200 137.862 M290.800 137.977 C 289.766 138.119,291.212 138.223,294.197 138.223 C 300.047 138.223,299.910 138.139,299.422 141.390 C 299.231 142.668,298.925 143.197,298.184 143.534 C 297.643 143.781,297.200 144.249,297.200 144.573 C 297.200 144.898,296.750 145.614,296.200 146.164 C 295.650 146.714,295.200 147.601,295.200 148.135 C 295.200 148.752,294.924 149.179,294.443 149.305 C 293.925 149.440,293.601 150.013,293.413 151.125 C 293.236 152.170,292.813 152.962,292.225 153.347 C 291.636 153.733,291.221 154.510,291.058 155.529 C 290.918 156.400,290.531 157.218,290.196 157.346 C 289.862 157.474,289.415 158.034,289.204 158.590 C 288.993 159.145,288.643 159.600,288.426 159.600 C 288.209 159.600,287.808 160.346,287.535 161.259 C 287.201 162.376,286.234 163.722,284.575 165.381 C 281.997 167.959,281.200 169.100,281.200 170.216 C 281.200 170.584,280.750 171.419,280.200 172.073 C 279.650 172.727,279.200 173.525,279.200 173.847 C 279.200 174.169,278.825 174.939,278.367 175.559 C 277.814 176.306,277.462 177.545,277.318 179.243 C 277.161 181.094,276.857 182.076,276.220 182.800 C 275.735 183.350,275.111 184.520,274.834 185.400 C 274.477 186.532,273.960 187.185,273.065 187.632 C 272.270 188.030,271.640 188.748,271.369 189.566 C 271.132 190.282,270.752 190.987,270.525 191.134 C 270.298 191.280,269.812 191.985,269.446 192.700 C 269.079 193.415,268.633 194.000,268.453 194.000 C 268.274 194.000,267.898 194.763,267.619 195.696 C 267.339 196.628,266.681 197.789,266.155 198.276 C 265.630 198.763,265.200 199.598,265.200 200.132 C 265.200 200.665,264.902 201.349,264.538 201.651 C 264.174 201.953,263.630 202.789,263.329 203.509 C 262.789 204.800,262.473 205.239,260.521 207.406 C 259.978 208.010,259.437 209.095,259.320 209.817 C 259.184 210.652,258.832 211.203,258.355 211.328 C 257.942 211.436,257.506 211.856,257.387 212.262 C 257.268 212.668,256.727 213.855,256.185 214.900 C 255.643 215.945,255.200 217.449,255.200 218.242 C 255.200 219.197,254.862 220.086,254.200 220.873 C 253.650 221.527,253.200 222.274,253.200 222.534 C 253.200 222.795,252.842 223.231,252.405 223.504 C 251.927 223.802,251.507 224.640,251.354 225.600 C 251.213 226.480,250.954 227.200,250.777 227.200 C 250.066 227.200,249.200 228.526,249.200 229.614 C 249.200 230.349,248.918 230.923,248.427 231.186 C 248.002 231.413,247.546 231.940,247.414 232.356 C 247.282 232.773,246.822 233.206,246.392 233.318 C 245.962 233.431,245.446 233.952,245.246 234.478 C 245.047 235.003,244.599 235.669,244.252 235.957 C 243.905 236.245,243.506 237.092,243.366 237.840 C 243.226 238.588,242.945 239.200,242.743 239.200 C 242.405 239.200,240.867 242.296,239.606 245.515 C 239.322 246.239,238.779 246.997,238.398 247.201 C 238.017 247.405,237.593 248.136,237.455 248.826 C 237.317 249.515,236.753 250.616,236.202 251.271 C 235.651 251.925,235.200 252.620,235.200 252.813 C 235.200 253.006,234.750 253.828,234.200 254.638 C 233.589 255.539,233.200 256.675,233.200 257.560 C 233.200 258.574,232.961 259.157,232.400 259.507 C 231.960 259.782,231.600 260.309,231.600 260.678 C 231.600 261.047,231.257 261.720,230.838 262.174 C 229.924 263.165,228.688 265.183,227.578 267.500 C 227.129 268.435,226.616 269.200,226.436 269.200 C 226.257 269.200,225.438 270.803,224.616 272.761 C 223.795 274.720,222.690 276.699,222.161 277.159 C 221.633 277.619,221.200 278.349,221.200 278.783 C 221.200 279.216,220.829 280.511,220.376 281.661 C 219.639 283.530,218.681 291.872,218.660 296.600 C 218.647 299.544,219.624 305.802,220.334 307.326 C 220.763 308.247,221.225 309.900,221.360 311.000 C 221.495 312.100,221.942 313.457,222.353 314.016 C 222.763 314.574,223.222 315.591,223.372 316.274 C 223.523 316.958,223.977 317.817,224.383 318.185 C 224.789 318.552,225.240 319.485,225.385 320.259 C 225.567 321.232,226.005 321.869,226.805 322.329 C 227.442 322.694,228.447 323.760,229.039 324.697 C 229.631 325.633,230.354 326.400,230.644 326.400 C 230.934 326.400,231.388 326.805,231.651 327.300 C 231.915 327.795,232.342 328.380,232.600 328.600 C 232.858 328.820,233.283 329.720,233.544 330.600 C 233.865 331.679,234.537 332.591,235.606 333.400 C 236.479 334.060,237.672 335.022,238.258 335.538 C 238.844 336.054,240.466 337.022,241.862 337.689 C 243.258 338.355,244.400 339.045,244.400 339.222 C 244.400 340.016,245.782 340.800,247.180 340.800 C 248.282 340.800,248.856 341.032,249.259 341.639 C 249.648 342.224,250.389 342.542,251.708 342.691 C 253.372 342.878,253.600 343.018,253.600 343.852 C 253.600 344.639,253.804 344.800,254.800 344.800 C 255.786 344.800,256.000 344.636,256.000 343.880 C 256.000 342.665,255.283 342.000,253.974 342.000 C 253.388 342.000,252.464 341.651,251.922 341.225 C 251.380 340.798,250.411 340.321,249.768 340.163 C 247.990 339.726,240.328 336.068,239.559 335.288 C 239.185 334.910,237.870 333.790,236.635 332.800 C 234.947 331.447,234.282 330.606,233.956 329.415 C 233.707 328.501,232.850 327.156,231.937 326.242 C 231.064 325.370,230.136 324.250,229.875 323.754 C 229.614 323.258,228.774 322.431,228.009 321.916 C 227.057 321.275,226.385 320.352,225.879 318.990 C 225.473 317.896,224.884 316.716,224.571 316.369 C 224.257 316.021,224.000 315.463,224.000 315.128 C 224.000 314.793,223.541 313.655,222.979 312.600 C 222.313 311.346,221.883 309.764,221.739 308.040 C 221.590 306.246,221.244 305.015,220.660 304.200 C 219.485 302.561,219.345 287.863,220.484 285.764 C 220.853 285.084,221.365 283.284,221.623 281.764 C 221.882 280.244,222.396 278.640,222.766 278.200 C 224.196 276.503,225.600 274.124,225.600 273.400 C 225.600 272.984,226.019 272.003,226.531 271.222 C 229.017 267.424,229.542 266.526,229.815 265.600 C 229.977 265.050,230.535 264.091,231.055 263.469 C 231.575 262.847,232.000 262.107,232.000 261.823 C 232.000 261.540,232.360 260.850,232.800 260.291 C 233.240 259.731,233.600 258.741,233.600 258.091 C 233.600 257.440,234.005 256.400,234.500 255.779 C 235.625 254.367,237.007 252.169,237.756 250.600 C 238.071 249.940,238.975 248.258,239.764 246.862 C 240.554 245.465,241.200 244.053,241.200 243.723 C 241.200 243.393,241.605 242.571,242.100 241.896 C 242.595 241.220,243.360 240.014,243.800 239.215 C 245.586 235.971,246.262 234.995,247.595 233.737 C 248.920 232.486,249.646 231.317,251.643 227.215 C 252.121 226.234,252.729 225.214,252.994 224.949 C 253.258 224.685,253.705 223.913,253.986 223.234 C 254.267 222.555,254.647 222.000,254.830 222.000 C 255.263 222.000,255.995 219.345,255.998 217.762 C 255.999 217.056,256.327 216.228,256.760 215.836 C 257.179 215.457,257.628 214.574,257.760 213.874 C 257.910 213.077,258.525 212.181,259.403 211.480 C 260.175 210.865,261.300 209.454,261.903 208.345 C 263.441 205.518,264.073 204.414,265.103 202.753 C 265.596 201.957,266.000 201.040,266.000 200.715 C 266.000 200.390,266.344 199.813,266.764 199.433 C 267.184 199.052,267.641 198.290,267.780 197.738 C 268.271 195.780,273.359 188.238,274.556 187.693 C 275.192 187.403,275.588 186.790,275.772 185.811 C 275.922 185.012,276.292 184.263,276.594 184.147 C 277.326 183.866,278.000 181.847,278.000 179.934 C 278.000 178.387,279.805 174.592,281.020 173.584 C 281.339 173.319,281.600 172.809,281.600 172.451 C 281.600 171.075,284.215 166.691,285.600 165.747 C 286.910 164.853,287.561 163.874,289.587 159.743 C 290.034 158.831,290.660 157.986,290.978 157.864 C 291.296 157.742,291.675 157.009,291.820 156.235 C 291.965 155.462,292.348 154.609,292.671 154.341 C 292.994 154.073,293.650 153.136,294.129 152.260 C 294.608 151.384,295.485 149.842,296.078 148.833 C 296.672 147.825,297.422 146.456,297.745 145.792 C 298.069 145.127,298.709 144.245,299.167 143.830 C 299.727 143.323,300.000 142.588,300.000 141.587 C 300.000 140.761,300.263 139.879,300.592 139.607 C 302.605 137.936,297.412 137.072,290.800 137.977 M281.107 138.290 C 281.826 138.379,282.906 138.377,283.507 138.286 C 284.108 138.195,283.520 138.122,282.200 138.124 C 280.880 138.126,280.388 138.201,281.107 138.290 M189.700 145.833 C 188.985 146.397,188.414 147.160,188.432 147.529 C 188.455 148.019,188.522 148.052,188.682 147.650 C 188.802 147.347,189.463 146.587,190.150 145.961 C 191.709 144.542,191.437 144.465,189.700 145.833 M185.868 153.639 C 184.828 155.708,183.598 158.030,183.133 158.800 C 182.669 159.570,181.570 161.422,180.690 162.915 C 179.809 164.409,178.754 165.810,178.344 166.030 C 177.934 166.249,177.124 167.367,176.543 168.514 C 175.962 169.661,175.076 171.140,174.574 171.800 C 174.073 172.460,173.539 173.493,173.389 174.096 C 173.238 174.699,172.504 175.859,171.758 176.674 C 171.011 177.489,170.400 178.338,170.400 178.560 C 170.400 179.453,173.555 175.512,173.810 174.301 C 173.961 173.585,174.499 172.550,175.005 172.000 C 175.511 171.450,176.195 170.345,176.524 169.544 C 176.853 168.743,177.734 167.393,178.483 166.544 C 180.373 164.398,182.400 161.529,182.400 161.000 C 182.400 160.756,182.964 159.668,183.653 158.582 C 185.545 155.598,188.036 150.709,187.889 150.268 C 187.818 150.054,186.908 151.571,185.868 153.639 M169.239 181.287 C 167.888 183.450,166.753 185.686,166.921 185.854 C 167.022 185.956,167.765 184.838,168.571 183.371 C 169.944 180.875,170.415 179.404,169.239 181.287 M165.659 188.611 C 165.394 189.265,164.546 190.952,163.776 192.360 C 163.005 193.767,162.641 194.698,162.966 194.428 C 163.292 194.158,163.862 193.141,164.233 192.168 C 164.605 191.196,165.069 190.400,165.264 190.400 C 165.699 190.400,166.481 188.443,166.283 187.850 C 166.205 187.614,165.924 187.957,165.659 188.611 M47.569 193.700 C 47.123 195.158,47.741 195.938,48.969 195.467 C 49.789 195.152,49.278 193.600,48.353 193.600 C 47.939 193.600,47.586 193.645,47.569 193.700 M160.296 198.155 C 159.253 199.748,158.400 201.237,158.400 201.464 C 158.400 201.691,158.038 202.203,157.596 202.604 C 157.154 203.004,156.537 204.190,156.226 205.239 C 155.519 207.617,153.171 211.338,151.816 212.226 C 151.255 212.594,150.427 213.639,149.978 214.548 C 149.104 216.313,148.722 216.993,146.088 221.470 C 145.160 223.048,144.400 224.578,144.401 224.870 C 144.401 225.161,144.968 224.320,145.660 223.000 C 146.351 221.680,147.251 220.171,147.659 219.646 C 148.066 219.121,148.400 218.460,148.400 218.177 C 148.400 217.893,148.855 217.121,149.410 216.461 C 149.966 215.800,150.605 214.731,150.830 214.085 C 151.056 213.439,151.675 212.712,152.206 212.470 C 153.461 211.898,155.816 208.288,156.406 206.031 C 156.663 205.047,157.297 203.924,157.834 203.502 C 158.365 203.084,158.800 202.393,158.800 201.966 C 158.800 201.540,159.638 199.930,160.662 198.390 C 161.686 196.850,162.449 195.516,162.358 195.424 C 162.266 195.333,161.338 196.562,160.296 198.155 M35.286 214.269 C 35.242 214.798,35.517 215.342,35.944 215.570 C 36.914 216.089,37.537 215.451,37.296 214.188 C 37.045 212.876,35.396 212.943,35.286 214.269 M143.256 229.455 C 142.776 230.527,142.786 230.558,143.418 229.939 C 143.789 229.576,144.020 229.060,143.931 228.794 C 143.842 228.527,143.539 228.825,143.256 229.455 M142.189 231.633 C 142.033 232.125,141.265 233.114,140.482 233.831 C 139.699 234.548,138.236 236.658,137.229 238.519 C 135.484 241.747,133.668 244.848,131.695 247.968 C 131.197 248.756,130.232 250.538,129.552 251.929 C 128.871 253.320,127.708 255.010,126.966 255.685 C 126.225 256.360,125.500 257.292,125.354 257.756 C 125.209 258.220,124.670 259.104,124.155 259.719 C 123.249 260.803,121.977 264.295,122.022 265.573 C 122.035 265.918,122.412 265.030,122.861 263.600 C 123.310 262.170,124.109 260.427,124.638 259.727 C 125.167 259.027,125.769 258.007,125.977 257.460 C 126.185 256.913,126.861 256.225,127.478 255.932 C 128.218 255.581,129.105 254.448,130.084 252.600 C 130.901 251.060,131.952 249.080,132.419 248.200 C 132.887 247.320,133.633 245.880,134.077 245.000 C 134.520 244.120,135.139 243.110,135.452 242.757 C 135.765 242.403,136.714 240.693,137.562 238.957 C 138.409 237.220,139.680 235.260,140.387 234.600 C 141.709 233.365,143.008 231.275,142.666 230.933 C 142.560 230.827,142.345 231.142,142.189 231.633 M25.467 233.467 C 24.917 234.017,25.229 235.155,25.996 235.399 C 27.078 235.742,27.600 235.344,27.600 234.176 C 27.600 233.219,26.185 232.748,25.467 233.467 M23.400 238.800 C 23.536 239.020,23.997 239.200,24.424 239.200 C 24.851 239.200,25.200 239.020,25.200 238.800 C 25.200 238.580,24.739 238.400,24.176 238.400 C 23.596 238.400,23.260 238.573,23.400 238.800 M15.600 252.842 C 15.600 253.082,16.580 253.600,17.033 253.600 C 17.125 253.600,17.200 253.341,17.200 253.025 C 17.200 252.696,16.857 252.476,16.400 252.510 C 15.960 252.543,15.600 252.693,15.600 252.842 M121.466 267.333 C 121.302 267.957,120.723 269.172,120.179 270.033 C 119.635 270.895,118.765 272.545,118.246 273.700 C 117.727 274.855,116.249 276.953,114.962 278.362 C 113.674 279.771,112.983 280.730,113.427 280.493 C 113.871 280.255,114.676 279.472,115.217 278.752 C 115.758 278.033,116.671 276.894,117.246 276.222 C 117.821 275.550,118.416 274.601,118.569 274.114 C 118.721 273.627,119.571 271.975,120.457 270.443 C 121.344 268.911,122.001 267.330,121.917 266.929 C 121.802 266.383,121.689 266.484,121.466 267.333 M5.200 272.900 C 5.200 273.065,5.650 273.200,6.200 273.200 C 6.750 273.200,7.200 273.039,7.200 272.842 C 7.200 272.646,6.750 272.511,6.200 272.542 C 5.650 272.574,5.200 272.735,5.200 272.900 M1.200 280.965 C 1.200 281.287,1.501 281.472,1.900 281.395 C 2.285 281.322,2.735 281.247,2.900 281.231 C 3.702 281.149,3.071 280.400,2.200 280.400 C 1.606 280.400,1.200 280.629,1.200 280.965 M110.600 285.656 C 109.940 286.750,108.460 289.120,107.311 290.922 C 106.162 292.725,104.789 295.100,104.261 296.200 C 103.733 297.300,102.648 298.820,101.850 299.578 C 101.053 300.337,100.414 301.237,100.432 301.578 C 100.458 302.090,100.503 302.098,100.690 301.624 C 100.815 301.308,101.689 300.244,102.631 299.260 C 103.574 298.276,104.461 297.005,104.603 296.435 C 104.744 295.866,105.189 295.040,105.593 294.600 C 105.996 294.160,106.714 293.047,107.189 292.127 C 107.664 291.207,108.291 290.256,108.583 290.014 C 108.875 289.772,109.348 288.994,109.634 288.287 C 109.920 287.579,110.595 286.321,111.135 285.492 C 111.675 284.662,112.046 283.913,111.959 283.826 C 111.871 283.739,111.260 284.563,110.600 285.656 M98.828 306.542 C 98.322 307.587,98.003 308.536,98.118 308.651 C 98.233 308.766,98.455 308.442,98.611 307.930 C 98.767 307.419,99.162 306.695,99.488 306.323 C 99.815 305.951,100.007 305.420,99.915 305.144 C 99.823 304.868,99.334 305.497,98.828 306.542 M97.484 309.810 C 97.344 310.245,96.416 311.950,95.422 313.600 C 94.429 315.250,93.067 317.590,92.396 318.800 C 91.711 320.036,90.480 321.493,89.588 322.126 C 88.715 322.745,88.000 323.411,88.000 323.605 C 88.000 324.145,84.125 328.682,81.169 331.603 C 79.717 333.038,78.335 334.573,78.099 335.014 C 77.539 336.061,72.014 339.552,70.095 340.072 C 69.273 340.295,68.240 340.797,67.800 341.189 C 67.360 341.580,66.044 342.124,64.875 342.396 C 63.350 342.752,62.810 343.048,62.962 343.446 C 63.079 343.751,62.990 344.000,62.764 344.000 C 62.538 344.000,62.464 344.180,62.600 344.400 C 63.136 345.268,67.024 344.877,67.094 343.948 C 67.194 342.617,68.611 341.406,70.919 340.678 C 73.564 339.844,77.745 336.781,78.402 335.195 C 78.674 334.538,79.030 334.000,79.193 334.000 C 79.675 334.000,85.266 328.285,87.000 326.019 C 87.880 324.870,89.512 323.000,90.627 321.865 C 91.894 320.575,93.382 318.374,94.594 316.000 C 95.661 313.910,96.884 311.723,97.313 311.139 C 97.742 310.556,98.013 309.840,97.916 309.549 C 97.800 309.200,97.653 309.289,97.484 309.810 M11.376 326.838 C 11.227 327.079,11.360 327.531,11.671 327.842 C 12.353 328.525,13.926 327.651,13.438 326.861 C 13.076 326.276,11.733 326.261,11.376 326.838 M13.867 328.667 C 13.425 329.108,13.563 329.500,14.251 329.764 C 14.984 330.045,16.108 329.299,15.772 328.755 C 15.515 328.339,14.252 328.281,13.867 328.667 " stroke="none" fill="#145cb5" fill-rule="evenodd"></path><path id="path4" d="M143.698 55.662 C 143.424 55.936,143.200 56.386,143.200 56.662 C 143.200 57.009,142.299 57.201,140.300 57.282 C 137.639 57.390,137.389 57.474,137.272 58.300 C 137.138 59.242,137.145 59.240,133.400 59.344 C 131.651 59.393,131.384 59.513,131.272 60.300 C 131.146 61.189,130.159 61.455,127.870 61.216 C 127.319 61.158,127.171 61.368,127.270 62.070 C 127.375 62.823,127.195 63.024,126.319 63.125 C 125.311 63.241,125.230 63.394,125.119 65.412 C 125.020 67.219,124.901 67.514,124.400 67.200 C 123.930 66.906,123.898 66.666,124.253 66.094 C 124.647 65.457,124.561 65.352,123.585 65.278 C 122.108 65.165,121.200 66.136,121.200 67.829 C 121.200 69.025,121.072 69.200,120.200 69.200 C 119.400 69.200,119.200 69.400,119.200 70.200 C 119.200 71.000,119.000 71.200,118.200 71.200 C 117.400 71.200,117.200 71.400,117.200 72.200 C 117.200 73.000,117.000 73.200,116.200 73.200 C 115.400 73.200,115.200 73.400,115.200 74.200 C 115.200 75.000,115.000 75.200,114.200 75.200 C 113.400 75.200,113.200 75.400,113.200 76.200 C 113.200 77.000,113.000 77.200,112.200 77.200 C 111.408 77.200,111.200 77.402,111.200 78.172 C 111.200 78.876,110.951 79.180,110.300 79.272 C 109.756 79.349,109.354 79.721,109.284 80.212 C 109.220 80.659,108.770 81.199,108.284 81.412 C 107.613 81.706,107.371 82.198,107.279 83.450 C 107.197 84.576,106.848 85.391,106.179 86.019 C 105.600 86.564,105.200 87.389,105.200 88.042 C 105.200 88.881,104.985 89.175,104.300 89.272 C 103.534 89.381,103.382 89.679,103.279 91.275 C 103.177 92.856,103.021 93.169,102.279 93.275 C 101.536 93.381,101.381 93.693,101.278 95.300 C 101.178 96.852,101.018 97.200,100.402 97.200 C 99.370 97.200,99.277 97.442,99.141 100.467 C 99.070 102.060,98.859 103.048,98.611 102.958 C 97.930 102.711,97.289 103.339,97.140 104.400 C 97.044 105.087,96.749 105.400,96.200 105.400 C 95.391 105.400,95.329 105.562,95.246 107.900 C 95.207 109.008,95.052 109.200,94.200 109.200 C 93.269 109.200,93.200 109.335,93.200 111.172 C 93.200 112.913,93.094 113.159,92.300 113.272 C 91.532 113.381,91.382 113.679,91.278 115.300 C 91.168 117.015,91.061 117.200,90.178 117.200 C 89.271 117.200,89.200 117.345,89.200 119.200 C 89.200 120.508,89.027 121.216,88.700 121.248 C 88.425 121.274,87.750 121.319,87.200 121.348 C 85.816 121.420,85.417 121.876,85.295 123.524 C 85.174 125.150,85.129 125.222,84.152 125.366 C 83.627 125.443,83.395 125.897,83.296 127.036 C 83.107 129.233,83.029 129.396,82.173 129.398 C 81.557 129.400,81.388 129.742,81.286 131.187 C 81.145 133.181,81.032 133.388,80.078 133.395 C 79.575 133.399,79.381 133.840,79.285 135.189 C 79.161 136.959,78.621 137.745,77.750 137.427 C 77.502 137.337,77.305 137.474,77.313 137.732 C 77.434 142.019,77.194 143.200,76.200 143.200 C 75.400 143.200,75.200 143.400,75.200 144.200 C 75.200 145.000,75.000 145.200,74.200 145.200 C 73.269 145.200,73.200 145.335,73.200 147.172 C 73.200 148.913,73.094 149.159,72.300 149.272 C 71.532 149.381,71.382 149.679,71.278 151.300 C 71.168 153.015,71.061 153.200,70.178 153.200 C 69.267 153.200,68.929 153.996,69.137 155.653 C 69.154 155.792,68.861 155.882,68.484 155.853 C 68.063 155.820,67.821 156.067,67.855 156.496 C 67.885 156.878,67.750 157.093,67.555 156.972 C 67.360 156.851,67.178 157.393,67.150 158.176 C 67.068 160.504,66.844 160.998,65.867 161.002 C 65.610 161.003,65.382 161.363,65.359 161.802 C 65.278 163.400,65.189 163.600,64.563 163.600 C 64.212 163.600,63.831 163.960,63.716 164.400 C 63.568 164.967,63.170 165.200,62.353 165.200 C 61.251 165.200,61.200 165.280,61.200 167.024 C 61.200 168.137,61.356 168.751,61.600 168.600 C 61.820 168.464,62.000 168.543,62.000 168.776 C 62.000 169.201,61.236 169.359,59.870 169.216 C 59.323 169.159,59.172 169.368,59.270 170.048 C 59.369 170.739,59.161 171.013,58.400 171.194 C 57.542 171.398,57.383 171.688,57.282 173.229 C 57.189 174.633,56.971 175.111,56.282 175.413 C 55.087 175.937,54.705 181.835,55.837 182.270 C 56.838 182.654,57.670 181.942,58.280 180.181 C 58.579 179.316,59.427 177.977,60.163 177.204 C 61.536 175.764,61.913 175.146,63.945 171.000 C 65.128 168.588,66.884 166.400,67.637 166.400 C 68.132 166.400,69.200 163.935,69.200 162.791 C 69.200 161.768,70.695 158.400,71.149 158.400 C 71.761 158.400,73.200 156.910,73.200 156.277 C 73.200 155.930,73.369 155.543,73.574 155.416 C 74.703 154.718,77.641 147.510,77.719 145.247 C 77.787 143.274,77.910 142.912,78.478 143.019 C 78.955 143.108,79.298 142.709,79.635 141.673 C 79.899 140.863,80.629 139.609,81.257 138.886 C 81.886 138.163,82.400 137.403,82.400 137.197 C 82.400 136.990,83.197 136.024,84.170 135.051 C 85.858 133.363,86.113 132.737,85.508 131.769 C 85.052 131.041,85.643 129.578,86.347 129.694 C 86.822 129.771,87.200 129.156,87.755 127.400 C 88.172 126.080,88.656 124.613,88.830 124.139 C 89.004 123.666,90.014 122.805,91.073 122.227 C 93.118 121.110,94.499 119.353,95.450 116.658 C 95.770 115.752,96.898 113.747,97.957 112.205 C 99.016 110.662,100.134 108.594,100.441 107.609 C 100.793 106.482,101.348 105.645,101.939 105.352 C 102.456 105.097,103.176 104.440,103.539 103.894 C 103.903 103.347,104.537 102.426,104.948 101.847 C 105.494 101.079,105.781 99.682,106.007 96.696 C 106.421 91.225,106.570 90.931,108.800 91.169 C 109.170 91.209,109.242 91.112,108.987 90.917 C 108.759 90.743,108.579 89.852,108.587 88.938 C 108.594 88.024,108.465 87.360,108.300 87.462 C 108.135 87.564,108.000 87.457,108.000 87.224 C 108.000 86.991,108.240 86.800,108.533 86.800 C 108.826 86.800,109.635 86.093,110.329 85.228 C 111.024 84.364,111.936 83.547,112.356 83.414 C 113.031 83.200,113.066 83.027,112.660 81.923 C 112.299 80.944,112.310 80.638,112.708 80.501 C 112.988 80.406,113.497 79.787,113.839 79.125 C 114.402 78.036,114.593 77.947,115.859 78.185 C 117.531 78.498,120.792 75.710,120.809 73.953 C 120.822 72.567,121.899 71.477,124.461 70.257 C 125.704 69.664,127.041 68.689,127.431 68.090 C 127.821 67.490,128.423 66.781,128.770 66.513 C 129.116 66.245,129.220 66.019,129.000 66.010 C 128.780 66.002,129.116 65.726,129.746 65.398 C 131.028 64.729,131.334 64.660,131.062 65.100 C 130.893 65.374,131.851 65.421,134.332 65.260 C 135.152 65.207,135.232 65.056,135.000 64.000 C 134.756 62.888,134.819 62.800,135.868 62.798 C 136.491 62.797,137.630 62.630,138.400 62.427 C 139.170 62.225,140.520 61.967,141.400 61.853 C 142.280 61.740,143.697 61.355,144.548 60.998 C 145.706 60.513,147.369 60.352,151.148 60.361 C 162.357 60.387,308.983 60.052,314.052 59.988 C 317.385 59.947,319.823 60.091,320.325 60.360 C 320.777 60.602,322.015 60.800,323.076 60.800 C 324.137 60.800,325.559 60.959,326.236 61.153 C 327.650 61.559,328.772 61.099,328.857 60.080 C 328.888 59.706,329.040 60.649,329.195 62.176 C 329.439 64.583,329.634 65.087,330.667 65.976 C 333.528 68.437,334.437 76.294,332.032 77.780 C 331.823 77.909,331.355 79.046,330.992 80.307 C 330.419 82.300,329.921 82.992,327.189 85.600 C 323.334 89.279,321.910 91.987,322.047 95.376 C 322.112 96.976,321.952 97.790,321.468 98.325 C 321.101 98.731,320.800 99.435,320.800 99.889 C 320.800 100.343,320.563 100.805,320.273 100.917 C 319.983 101.028,319.147 102.667,318.416 104.559 C 317.684 106.452,316.949 108.000,316.782 108.000 C 316.615 108.000,316.299 108.514,316.080 109.143 C 315.537 110.701,314.081 111.066,313.588 109.768 C 313.385 109.236,313.078 108.800,312.904 108.800 C 312.394 108.800,312.554 111.422,313.105 112.085 C 313.515 112.579,313.502 112.784,313.036 113.170 C 312.721 113.432,312.342 114.359,312.195 115.229 C 311.872 117.143,307.130 122.400,305.728 122.400 C 305.114 122.400,304.706 122.852,304.216 124.077 C 303.847 124.999,303.217 126.214,302.817 126.777 C 302.416 127.340,301.674 129.488,301.168 131.552 C 299.797 137.146,304.834 136.597,255.800 136.495 C 232.920 136.448,213.740 136.310,213.179 136.190 C 209.786 135.463,197.957 139.399,194.553 142.388 C 193.794 143.054,192.811 143.600,192.370 143.600 C 190.311 143.600,187.600 145.916,187.600 147.675 C 187.600 148.272,184.670 154.182,183.275 156.400 C 182.653 157.390,181.172 159.820,179.986 161.800 C 178.799 163.780,177.425 165.722,176.932 166.115 C 176.440 166.508,175.469 167.948,174.775 169.315 C 174.081 170.682,173.378 171.890,173.213 172.000 C 173.047 172.110,172.614 172.780,172.251 173.489 C 171.888 174.198,171.156 175.419,170.624 176.202 C 170.093 176.986,169.540 178.161,169.397 178.813 C 169.254 179.466,168.996 180.000,168.824 180.000 C 168.316 180.000,166.091 184.473,165.789 186.103 C 165.635 186.930,165.141 188.075,164.691 188.647 C 164.241 189.220,163.281 190.923,162.558 192.432 C 161.834 193.942,160.513 196.164,159.621 197.371 C 158.730 198.578,158.000 199.830,158.000 200.152 C 158.000 200.475,157.568 201.252,157.039 201.880 C 156.511 202.508,155.880 203.761,155.637 204.664 C 155.393 205.568,154.922 206.533,154.589 206.809 C 154.256 207.086,153.511 208.153,152.933 209.180 C 152.355 210.208,151.279 211.445,150.541 211.928 C 149.804 212.412,149.200 213.141,149.200 213.550 C 149.200 213.958,148.864 214.721,148.453 215.246 C 146.745 217.426,144.101 223.111,143.678 225.514 C 143.435 226.893,142.973 228.284,142.651 228.606 C 142.329 228.928,141.947 229.731,141.802 230.391 C 141.647 231.096,140.851 232.175,139.869 233.009 C 138.871 233.857,137.476 235.758,136.400 237.737 C 133.887 242.358,132.403 244.708,130.950 246.370 C 129.509 248.019,128.000 250.701,128.000 251.616 C 128.000 252.522,125.792 255.869,124.869 256.363 C 124.437 256.594,123.893 257.332,123.659 258.003 C 123.425 258.675,122.975 259.482,122.660 259.797 C 122.345 260.112,121.884 261.535,121.636 262.959 C 121.381 264.426,120.622 266.557,119.885 267.874 C 119.170 269.153,118.239 271.010,117.816 272.000 C 116.935 274.061,114.946 276.957,113.449 278.357 C 112.887 278.884,112.123 280.234,111.753 281.357 C 111.383 282.481,110.544 283.940,109.889 284.600 C 109.234 285.260,108.260 286.700,107.725 287.800 C 107.190 288.900,106.402 290.340,105.974 291.000 C 105.546 291.660,104.740 293.165,104.183 294.345 C 103.626 295.525,102.367 297.477,101.385 298.682 C 100.081 300.282,99.600 301.227,99.600 302.183 C 99.600 302.903,99.260 303.925,98.844 304.453 C 98.428 304.982,97.851 306.205,97.561 307.172 C 97.272 308.138,96.622 309.342,96.117 309.846 C 95.613 310.351,95.200 311.027,95.200 311.348 C 95.200 311.670,95.065 311.993,94.900 312.067 C 94.569 312.214,93.379 314.287,91.794 317.479 C 90.800 319.478,90.123 320.296,87.160 323.075 C 86.412 323.776,84.816 325.637,83.614 327.209 C 82.412 328.782,80.782 330.581,79.992 331.206 C 79.203 331.832,78.212 332.982,77.792 333.764 C 77.241 334.786,76.566 335.341,75.380 335.745 C 74.474 336.054,72.956 336.822,72.006 337.453 C 71.057 338.084,69.992 338.776,69.640 338.990 C 69.288 339.205,68.370 339.777,67.600 340.263 C 66.210 341.140,63.272 341.714,56.600 342.414 C 54.840 342.599,53.344 342.761,53.276 342.775 C 53.208 342.789,53.264 342.980,53.400 343.200 C 53.536 343.420,53.435 343.600,53.175 343.600 C 52.822 343.600,52.829 343.753,53.200 344.200 C 53.793 344.915,63.040 345.111,62.600 344.400 C 62.464 344.180,62.538 344.000,62.764 344.000 C 62.990 344.000,63.079 343.751,62.962 343.446 C 62.810 343.048,63.350 342.752,64.875 342.396 C 66.044 342.124,67.360 341.580,67.800 341.189 C 68.240 340.797,69.273 340.295,70.095 340.072 C 72.014 339.552,77.539 336.061,78.099 335.014 C 78.335 334.573,79.717 333.038,81.169 331.603 C 84.125 328.682,88.000 324.145,88.000 323.605 C 88.000 323.411,88.710 322.745,89.578 322.126 C 90.445 321.507,91.552 320.280,92.038 319.400 C 93.136 317.408,95.450 313.456,96.604 311.600 C 97.083 310.830,97.705 309.480,97.986 308.600 C 98.267 307.720,98.827 306.452,99.231 305.782 C 99.634 305.111,100.085 303.761,100.231 302.782 C 100.427 301.478,100.908 300.571,102.026 299.400 C 102.866 298.520,103.926 296.990,104.383 296.000 C 104.839 295.010,106.186 292.670,107.375 290.800 C 111.286 284.650,111.598 284.107,112.194 282.417 C 112.519 281.496,113.801 279.631,115.044 278.271 C 116.286 276.912,117.727 274.855,118.246 273.700 C 118.765 272.545,119.654 270.865,120.222 269.965 C 120.790 269.066,121.627 266.806,122.082 264.943 C 122.537 263.080,123.327 260.981,123.837 260.278 C 124.348 259.575,125.019 258.460,125.329 257.800 C 125.639 257.140,126.435 256.123,127.099 255.539 C 127.762 254.956,128.864 253.336,129.547 251.939 C 130.230 250.543,131.197 248.756,131.695 247.968 C 133.679 244.831,135.488 241.740,137.264 238.454 C 138.289 236.558,139.662 234.555,140.315 234.003 C 141.855 232.702,143.847 228.709,144.215 226.185 C 144.388 224.995,145.159 223.079,146.140 221.400 C 148.830 216.797,149.125 216.271,149.978 214.548 C 150.427 213.639,151.255 212.594,151.816 212.226 C 153.171 211.338,155.519 207.617,156.226 205.239 C 156.537 204.190,157.154 203.004,157.596 202.604 C 158.038 202.203,158.400 201.677,158.400 201.434 C 158.400 201.190,159.203 199.795,160.184 198.332 C 161.165 196.870,162.550 194.532,163.262 193.137 C 163.974 191.741,164.768 190.330,165.027 190.000 C 165.285 189.670,165.866 188.395,166.318 187.166 C 166.770 185.938,167.545 184.228,168.042 183.366 C 169.607 180.649,170.400 179.045,170.400 178.594 C 170.400 178.353,171.011 177.489,171.758 176.674 C 172.504 175.859,173.238 174.699,173.389 174.096 C 173.539 173.493,174.073 172.460,174.574 171.800 C 175.076 171.140,175.962 169.661,176.543 168.514 C 177.124 167.367,177.934 166.249,178.344 166.030 C 178.754 165.810,179.809 164.409,180.690 162.915 C 181.570 161.422,182.667 159.570,183.128 158.800 C 185.029 155.627,187.995 149.436,188.239 148.130 C 188.556 146.445,190.711 144.719,193.322 144.061 C 194.278 143.821,195.746 143.078,196.585 142.412 C 197.424 141.745,198.272 141.200,198.469 141.200 C 198.667 141.200,199.306 140.887,199.890 140.504 C 200.474 140.121,202.493 139.356,204.376 138.804 L 207.800 137.800 254.139 137.800 C 303.703 137.800,302.811 137.765,300.592 139.607 C 300.263 139.879,300.000 140.761,300.000 141.587 C 300.000 142.588,299.727 143.323,299.167 143.830 C 298.709 144.245,298.069 145.127,297.745 145.792 C 297.422 146.456,296.672 147.825,296.078 148.833 C 295.485 149.842,294.608 151.384,294.129 152.260 C 293.650 153.136,292.994 154.073,292.671 154.341 C 292.348 154.609,291.965 155.462,291.820 156.235 C 291.675 157.009,291.296 157.742,290.978 157.864 C 290.660 157.986,290.034 158.831,289.587 159.743 C 287.561 163.874,286.910 164.853,285.600 165.747 C 284.215 166.691,281.600 171.075,281.600 172.451 C 281.600 172.809,281.339 173.319,281.020 173.584 C 279.805 174.592,278.000 178.387,278.000 179.934 C 278.000 181.847,277.326 183.866,276.594 184.147 C 276.292 184.263,275.922 185.012,275.772 185.811 C 275.588 186.790,275.192 187.403,274.556 187.693 C 273.359 188.238,268.271 195.780,267.780 197.738 C 267.641 198.290,267.184 199.052,266.764 199.433 C 266.344 199.813,266.000 200.390,266.000 200.715 C 266.000 201.040,265.596 201.957,265.103 202.753 C 264.073 204.414,263.441 205.518,261.903 208.345 C 261.300 209.454,260.175 210.865,259.403 211.480 C 258.525 212.181,257.910 213.077,257.760 213.874 C 257.628 214.574,257.179 215.457,256.760 215.836 C 256.327 216.228,255.999 217.056,255.998 217.762 C 255.995 219.345,255.263 222.000,254.830 222.000 C 254.647 222.000,254.267 222.555,253.986 223.234 C 253.705 223.913,253.258 224.685,252.994 224.949 C 252.729 225.214,252.121 226.234,251.643 227.215 C 249.646 231.317,248.920 232.486,247.595 233.737 C 246.262 234.995,245.586 235.971,243.800 239.215 C 243.360 240.014,242.595 241.220,242.100 241.896 C 241.605 242.571,241.200 243.393,241.200 243.723 C 241.200 244.053,240.554 245.465,239.764 246.862 C 238.975 248.258,238.071 249.940,237.756 250.600 C 237.007 252.169,235.625 254.367,234.500 255.779 C 234.005 256.400,233.600 257.440,233.600 258.091 C 233.600 258.741,233.240 259.731,232.800 260.291 C 232.360 260.850,232.000 261.540,232.000 261.823 C 232.000 262.107,231.575 262.847,231.055 263.469 C 230.535 264.091,229.977 265.050,229.815 265.600 C 229.530 266.564,228.959 267.550,226.669 271.022 C 226.081 271.913,225.600 272.984,225.600 273.400 C 225.600 274.124,224.196 276.503,222.766 278.200 C 222.396 278.640,221.882 280.244,221.623 281.764 C 221.365 283.284,220.853 285.084,220.484 285.764 C 219.345 287.863,219.485 302.561,220.660 304.200 C 221.244 305.015,221.590 306.246,221.739 308.040 C 221.883 309.764,222.313 311.346,222.979 312.600 C 223.541 313.655,224.000 314.793,224.000 315.128 C 224.000 315.463,224.257 316.021,224.571 316.369 C 224.884 316.716,225.473 317.896,225.879 318.990 C 226.385 320.352,227.057 321.275,228.009 321.916 C 228.774 322.431,229.614 323.258,229.875 323.754 C 230.136 324.250,231.064 325.370,231.937 326.242 C 232.850 327.156,233.707 328.501,233.956 329.415 C 234.282 330.606,234.947 331.447,236.635 332.800 C 237.870 333.790,239.185 334.910,239.559 335.288 C 240.328 336.068,247.990 339.726,249.768 340.163 C 250.411 340.321,251.380 340.798,251.922 341.225 C 252.464 341.651,253.388 342.000,253.974 342.000 C 255.283 342.000,256.000 342.665,256.000 343.880 C 256.000 345.025,256.656 345.085,257.009 343.971 C 257.366 342.847,256.245 341.682,254.490 341.353 C 253.720 341.209,252.774 340.774,252.388 340.388 C 252.001 340.001,250.956 339.562,250.065 339.411 C 249.175 339.261,248.245 338.896,248.000 338.600 C 247.755 338.304,246.860 337.945,246.013 337.802 C 245.165 337.659,244.167 337.205,243.794 336.794 C 243.422 336.382,242.615 335.935,242.001 335.800 C 240.267 335.419,234.562 329.914,234.245 328.314 C 233.995 327.053,232.633 325.437,228.498 321.496 C 227.420 320.468,226.637 319.280,226.360 318.251 C 226.120 317.359,225.580 316.193,225.161 315.660 C 224.743 315.128,224.400 314.443,224.400 314.139 C 224.400 313.834,223.965 312.734,223.433 311.693 C 222.882 310.614,222.349 308.682,222.195 307.200 C 222.046 305.770,221.626 304.150,221.262 303.600 C 220.382 302.271,220.267 287.725,221.128 286.687 C 221.418 286.337,221.906 284.618,222.212 282.867 C 222.746 279.805,223.581 278.032,225.602 275.666 C 226.041 275.152,226.400 274.352,226.400 273.888 C 226.400 273.132,226.939 272.153,229.199 268.800 C 229.570 268.250,230.091 267.139,230.357 266.332 C 230.623 265.525,231.115 264.637,231.450 264.359 C 232.350 263.612,234.400 258.868,234.400 257.532 C 234.400 256.896,234.652 256.278,234.960 256.160 C 235.581 255.922,238.145 251.911,238.578 250.500 C 238.730 250.005,239.007 249.600,239.194 249.600 C 239.381 249.600,239.842 248.793,240.219 247.806 C 240.596 246.819,241.139 245.816,241.426 245.578 C 241.714 245.340,242.069 244.598,242.216 243.929 C 242.362 243.261,242.869 242.108,243.341 241.367 C 243.814 240.626,244.920 238.890,245.800 237.510 C 246.680 236.129,247.818 234.662,248.328 234.249 C 249.200 233.543,250.004 232.198,252.019 228.072 C 252.846 226.377,254.386 223.879,255.200 222.911 C 255.925 222.049,256.400 220.394,256.400 218.732 C 256.400 217.591,256.694 216.766,257.400 215.927 C 257.950 215.273,258.400 214.320,258.400 213.809 C 258.400 213.173,258.836 212.622,259.779 212.066 C 260.561 211.604,261.535 210.506,262.031 209.526 C 262.511 208.577,263.137 207.664,263.421 207.498 C 263.705 207.331,264.055 206.658,264.200 206.002 C 264.344 205.346,264.620 204.711,264.814 204.592 C 265.007 204.472,266.028 202.625,267.083 200.487 C 268.137 198.349,269.110 196.510,269.244 196.400 C 269.378 196.290,269.805 195.583,270.191 194.829 C 271.319 192.629,273.581 189.503,275.045 188.120 C 275.790 187.417,276.400 186.597,276.400 186.298 C 276.400 186.000,276.850 185.145,277.400 184.400 C 278.153 183.380,278.400 182.550,278.400 181.044 C 278.400 179.067,278.565 178.700,281.206 174.792 C 281.581 174.238,282.027 173.345,282.197 172.809 C 282.901 170.592,285.265 166.943,286.566 166.065 C 287.380 165.516,288.053 164.670,288.197 164.015 C 288.331 163.402,288.882 162.486,289.421 161.981 C 289.959 161.475,290.400 160.746,290.400 160.361 C 290.400 159.976,290.850 159.127,291.400 158.473 C 291.950 157.819,292.400 157.018,292.400 156.691 C 292.400 156.365,292.695 155.853,293.055 155.555 C 293.415 155.256,294.056 154.289,294.479 153.406 C 295.587 151.094,296.699 149.067,297.136 148.562 C 297.344 148.322,297.829 147.512,298.214 146.762 C 298.599 146.013,299.248 144.971,299.657 144.446 C 300.065 143.921,300.400 142.918,300.400 142.216 C 300.400 141.372,300.739 140.621,301.400 140.000 C 301.959 139.475,302.403 138.606,302.406 138.030 C 302.415 136.576,302.897 135.988,303.919 136.184 C 304.689 136.333,304.800 136.181,304.800 134.977 C 304.800 133.775,304.673 133.600,303.800 133.600 C 303.168 133.600,302.800 133.374,302.800 132.986 C 302.800 132.480,303.155 132.420,304.827 132.641 L 306.855 132.910 306.727 131.355 C 306.624 130.094,306.430 129.776,305.700 129.672 C 304.021 129.434,304.789 128.800,306.756 128.800 C 308.929 128.800,309.888 126.859,308.433 125.405 C 307.894 124.865,307.905 124.800,308.538 124.800 C 308.928 124.800,309.136 124.980,309.000 125.200 C 308.581 125.878,309.278 125.642,309.886 124.900 C 310.201 124.515,310.328 124.453,310.168 124.762 C 309.976 125.131,310.035 125.226,310.338 125.038 C 310.592 124.881,310.800 124.313,310.800 123.776 C 310.800 123.002,311.006 122.800,311.800 122.800 C 312.600 122.800,312.800 122.600,312.800 121.800 C 312.800 120.885,313.318 120.566,314.500 120.753 C 314.665 120.779,314.779 120.665,314.753 120.500 C 314.444 118.547,314.872 116.845,315.700 116.728 C 316.270 116.647,316.646 116.279,316.725 115.725 C 316.802 115.179,317.179 114.802,317.725 114.725 C 318.479 114.617,318.617 114.311,318.721 112.508 C 318.829 110.624,318.928 110.426,319.721 110.508 C 320.353 110.574,320.611 110.375,320.641 109.800 C 320.797 106.734,320.771 106.800,321.800 106.800 C 322.778 106.800,322.800 106.733,322.800 103.800 C 322.800 100.867,322.822 100.800,323.800 100.800 C 324.600 100.800,324.800 100.600,324.800 99.800 C 324.800 99.250,324.980 98.778,325.200 98.750 C 325.420 98.723,325.825 98.678,326.100 98.650 C 326.396 98.620,326.627 97.946,326.666 97.000 C 326.703 96.120,326.748 95.265,326.766 95.100 C 326.785 94.935,327.250 94.800,327.800 94.800 C 328.731 94.800,328.800 94.665,328.800 92.828 C 328.800 91.087,328.906 90.841,329.700 90.728 C 330.388 90.630,330.629 90.296,330.725 89.310 C 330.801 88.523,331.230 87.720,331.825 87.252 C 332.361 86.830,332.800 86.118,332.800 85.670 C 332.800 85.130,333.103 84.813,333.700 84.728 C 334.465 84.619,334.618 84.320,334.720 82.741 C 334.816 81.269,335.008 80.839,335.650 80.671 C 336.095 80.555,336.557 80.086,336.676 79.630 C 336.819 79.083,337.218 78.800,337.847 78.800 C 338.662 78.800,338.800 78.605,338.800 77.455 C 338.800 76.258,338.690 76.122,337.802 76.220 C 336.430 76.370,336.271 75.936,336.593 72.929 C 336.852 70.508,336.936 70.333,337.765 70.491 C 338.567 70.645,338.667 70.487,338.747 68.931 C 338.831 67.319,338.767 67.200,337.818 67.200 C 337.258 67.200,336.800 67.380,336.800 67.600 C 336.800 68.160,335.060 68.100,334.480 67.520 C 334.216 67.256,334.000 66.725,334.000 66.340 C 334.000 65.955,333.758 65.496,333.463 65.320 C 332.147 64.536,331.572 63.018,332.233 62.074 C 333.132 60.791,332.824 59.430,331.600 59.266 C 331.050 59.193,330.420 58.941,330.200 58.707 C 329.925 58.415,329.968 58.378,330.338 58.589 C 330.721 58.806,330.835 58.680,330.734 58.152 C 330.655 57.743,330.257 57.345,329.848 57.266 C 329.320 57.165,329.194 57.279,329.411 57.662 C 329.658 58.095,329.613 58.103,329.179 57.700 C 328.882 57.425,327.788 57.200,326.747 57.200 C 325.222 57.200,324.806 57.049,324.606 56.420 C 324.292 55.429,323.138 55.061,321.491 55.427 C 320.361 55.678,320.300 55.753,321.000 56.029 C 321.525 56.236,321.594 56.356,321.200 56.378 C 320.667 56.408,320.667 56.455,321.200 56.800 C 321.646 57.088,321.416 57.189,320.300 57.194 C 319.186 57.198,318.800 57.034,318.800 56.557 C 318.800 56.135,319.017 55.998,319.433 56.157 C 319.836 56.312,320.006 56.218,319.900 55.900 C 319.683 55.250,150.000 54.945,150.000 55.595 C 150.000 55.818,150.193 56.000,150.429 56.000 C 150.664 56.000,150.587 56.270,150.257 56.600 C 149.382 57.475,148.475 57.334,148.328 56.300 C 148.177 55.237,144.613 54.747,143.698 55.662 M151.790 62.175 L 150.658 63.078 151.697 63.338 C 153.085 63.687,153.958 63.304,153.888 62.378 C 153.803 61.240,153.054 61.168,151.790 62.175 M123.200 68.685 C 123.200 68.968,122.840 69.200,122.400 69.200 C 121.960 69.200,121.600 68.941,121.600 68.625 C 121.600 68.296,121.943 68.076,122.400 68.110 C 122.840 68.143,123.200 68.402,123.200 68.685 M108.931 82.236 C 108.622 83.040,107.660 83.243,107.809 82.472 C 107.967 81.656,107.888 81.733,108.562 81.733 C 108.871 81.733,109.037 81.959,108.931 82.236 M331.700 87.798 C 331.042 88.546,331.067 88.826,331.769 88.557 C 332.370 88.326,332.979 87.189,332.487 87.215 C 332.329 87.224,331.975 87.486,331.700 87.798 M309.067 137.467 C 308.920 137.613,308.814 138.108,308.832 138.567 C 308.849 139.025,308.952 139.180,309.062 138.910 C 309.171 138.641,309.231 138.301,309.196 138.155 C 309.161 138.009,309.372 137.737,309.666 137.551 C 309.960 137.365,310.005 137.209,309.767 137.206 C 309.528 137.203,309.213 137.320,309.067 137.467 M366.882 137.496 C 368.358 137.573,370.878 137.573,372.482 137.497 C 374.087 137.421,372.880 137.358,369.800 137.358 C 366.720 137.357,365.407 137.419,366.882 137.496 M392.879 141.413 C 393.288 141.821,394.800 141.951,394.800 141.577 C 394.800 141.370,394.320 141.200,393.733 141.200 C 393.147 141.200,392.762 141.296,392.879 141.413 M392.933 142.589 C 392.933 142.925,393.188 143.200,393.500 143.200 C 393.812 143.200,393.995 142.986,393.908 142.725 C 393.667 142.000,392.933 141.897,392.933 142.589 M398.684 159.200 C 398.529 159.793,398.672 160.000,399.237 160.000 C 399.733 160.000,400.000 159.720,400.000 159.200 C 400.000 158.760,399.751 158.400,399.447 158.400 C 399.142 158.400,398.799 158.760,398.684 159.200 M391.700 170.670 C 390.790 171.305,390.504 172.000,391.154 172.000 C 391.349 172.000,391.803 171.550,392.163 171.000 C 392.921 169.844,392.903 169.831,391.700 170.670 M53.200 185.200 C 53.200 187.067,53.133 187.200,52.200 187.200 C 51.400 187.200,51.200 187.400,51.200 188.200 C 51.200 189.000,51.000 189.200,50.200 189.200 C 49.356 189.200,49.200 189.387,49.200 190.400 C 49.200 191.209,49.001 191.600,48.590 191.600 C 48.255 191.600,47.805 192.062,47.590 192.626 C 47.080 193.969,47.051 193.918,48.200 193.698 C 48.933 193.558,49.200 193.679,49.200 194.153 C 49.200 195.295,49.032 195.400,47.200 195.400 L 45.400 195.400 45.278 197.300 C 45.168 199.015,45.061 199.200,44.178 199.200 C 43.262 199.200,43.200 199.336,43.200 201.348 C 43.200 203.298,43.120 203.491,42.334 203.448 C 41.589 203.407,41.448 203.648,41.324 205.177 C 41.157 207.224,41.158 207.223,40.073 207.304 C 39.623 207.338,39.264 207.464,39.275 207.583 C 39.361 208.526,39.071 209.067,38.300 209.405 C 37.505 209.754,37.394 210.109,37.351 212.455 C 37.294 215.600,37.052 216.163,36.002 215.601 C 35.590 215.380,34.791 215.200,34.226 215.200 L 33.200 215.200 33.200 219.200 L 33.200 223.200 32.200 223.200 C 31.267 223.200,31.200 223.333,31.200 225.200 C 31.200 227.067,31.133 227.200,30.200 227.200 C 29.428 227.200,29.200 227.406,29.200 228.105 C 29.200 228.660,28.852 229.163,28.300 229.405 C 27.490 229.761,27.400 230.080,27.400 232.600 L 27.400 235.400 25.300 235.263 L 23.200 235.127 23.200 236.763 C 23.200 238.242,23.296 238.400,24.200 238.400 C 24.750 238.400,25.200 238.593,25.200 238.829 C 25.200 239.064,24.795 239.224,24.300 239.184 C 21.358 238.946,21.200 239.049,21.200 241.200 C 21.200 243.067,21.133 243.200,20.200 243.200 C 19.360 243.200,19.200 243.388,19.200 244.376 C 19.200 245.023,18.992 245.681,18.738 245.838 C 18.452 246.015,18.385 245.948,18.562 245.662 C 18.938 245.054,18.293 245.067,17.680 245.680 C 17.049 246.311,17.063 246.925,17.700 246.565 C 18.100 246.339,18.100 246.390,17.700 246.821 C 17.425 247.118,17.200 247.761,17.200 248.252 C 17.200 248.873,16.926 249.183,16.300 249.272 C 15.534 249.381,15.382 249.679,15.279 251.275 C 15.177 252.856,15.021 253.169,14.279 253.275 C 13.721 253.354,13.353 253.729,13.272 254.300 C 13.180 254.951,12.876 255.200,12.172 255.200 C 11.208 255.200,11.200 255.232,11.200 259.172 C 11.200 262.987,11.164 263.149,10.300 263.272 C 9.556 263.378,9.365 263.712,9.200 265.200 C 9.035 266.688,8.844 267.022,8.100 267.128 C 7.605 267.198,7.200 267.434,7.200 267.651 C 7.200 267.869,7.393 267.928,7.630 267.782 C 7.866 267.636,7.822 267.895,7.533 268.358 C 7.244 268.821,6.591 269.200,6.081 269.200 C 5.238 269.200,5.165 269.354,5.277 270.900 C 5.385 272.394,5.509 272.588,6.300 272.505 C 6.795 272.452,7.200 272.577,7.200 272.783 C 7.200 272.988,6.345 273.211,5.300 273.278 L 3.400 273.400 3.278 275.300 C 3.168 277.015,3.061 277.200,2.178 277.200 C 1.304 277.200,1.200 277.370,1.200 278.800 C 1.200 280.240,1.300 280.400,2.200 280.400 C 2.750 280.400,3.200 280.580,3.200 280.800 C 3.200 281.242,2.743 281.341,1.100 281.255 L 0.000 281.197 0.000 293.999 C 0.000 305.111,0.079 306.800,0.600 306.800 C 1.084 306.800,1.200 307.424,1.200 310.019 C 1.200 312.906,1.299 313.330,2.163 314.131 C 2.827 314.746,3.172 315.566,3.273 316.775 C 3.383 318.096,3.598 318.553,4.146 318.633 C 5.172 318.784,5.237 318.905,5.323 320.856 L 5.400 322.600 7.279 322.721 L 9.158 322.842 9.279 324.721 L 9.400 326.600 11.261 326.600 C 13.453 326.600,14.098 327.046,13.032 327.826 C 12.499 328.216,12.116 328.262,11.772 327.977 C 11.395 327.664,11.293 327.923,11.340 329.084 C 11.389 330.329,11.561 330.623,12.300 330.728 C 12.951 330.820,13.200 331.124,13.200 331.828 C 13.200 332.591,13.409 332.800,14.172 332.800 C 14.876 332.800,15.180 333.049,15.272 333.700 C 15.381 334.468,15.679 334.618,17.300 334.722 C 19.015 334.832,19.200 334.939,19.200 335.822 C 19.200 336.591,19.408 336.800,20.172 336.800 C 20.876 336.800,21.180 337.049,21.272 337.700 C 21.381 338.466,21.679 338.618,23.275 338.721 C 24.856 338.823,25.169 338.979,25.275 339.721 C 25.380 340.462,25.693 340.619,27.275 340.721 C 28.856 340.823,29.169 340.979,29.275 341.721 C 29.380 342.462,29.693 342.619,31.275 342.721 C 32.856 342.823,33.169 342.979,33.275 343.721 C 33.399 344.596,33.438 344.600,42.290 344.600 L 51.179 344.600 52.090 343.623 C 52.590 343.086,52.701 342.870,52.336 343.143 C 51.892 343.474,51.586 343.501,51.416 343.226 C 51.275 342.998,50.764 342.825,50.280 342.840 C 49.796 342.856,47.229 342.697,44.575 342.489 C 40.014 342.129,38.602 341.767,37.200 340.596 C 36.870 340.320,36.150 339.960,35.600 339.795 C 35.050 339.630,34.137 339.169,33.572 338.771 C 33.006 338.373,31.656 337.828,30.572 337.559 C 27.368 336.764,25.451 335.792,24.139 334.297 C 23.158 333.180,22.688 332.932,21.852 333.092 C 21.199 333.217,20.800 333.115,20.800 332.823 C 20.800 332.564,20.954 332.448,21.142 332.564 C 21.330 332.681,21.401 332.337,21.298 331.801 C 21.196 331.265,20.769 330.717,20.349 330.584 C 19.930 330.451,19.232 329.646,18.798 328.796 C 18.365 327.946,17.507 326.954,16.892 326.591 C 16.278 326.228,15.474 325.406,15.106 324.765 C 14.738 324.124,14.140 323.600,13.776 323.600 C 13.413 323.600,12.770 323.161,12.347 322.624 C 11.925 322.087,11.245 321.541,10.837 321.412 C 10.429 321.282,9.992 320.658,9.865 320.023 C 9.738 319.389,9.176 318.413,8.617 317.853 C 8.058 317.294,7.600 316.648,7.600 316.418 C 7.600 316.188,7.420 316.000,7.200 316.000 C 6.980 316.000,6.800 315.382,6.800 314.626 C 6.800 313.870,6.637 312.824,6.438 312.301 C 6.240 311.778,6.021 310.821,5.952 310.175 C 5.883 309.529,5.504 308.520,5.110 307.934 C 4.716 307.347,4.277 306.267,4.135 305.534 C 3.992 304.800,3.541 303.767,3.132 303.238 C 2.308 302.174,2.331 294.053,3.166 290.902 C 3.385 290.076,3.551 288.647,3.535 287.727 C 3.517 286.658,3.795 285.648,4.308 284.927 C 5.175 283.708,5.994 281.160,5.998 279.673 C 6.000 278.580,7.856 276.000,8.640 276.000 C 8.940 276.000,9.285 275.505,9.407 274.900 C 9.925 272.334,10.929 269.352,11.488 268.719 C 12.001 268.139,12.251 267.075,12.374 264.961 C 12.389 264.720,12.778 264.090,13.240 263.561 C 13.701 263.033,14.502 261.769,15.019 260.754 C 15.840 259.141,17.924 256.727,19.673 255.361 C 20.047 255.070,20.270 253.930,20.337 251.966 C 20.412 249.799,20.630 248.796,21.155 248.205 C 21.548 247.762,22.101 246.815,22.384 246.100 C 22.762 245.142,23.147 244.800,23.849 244.800 C 24.594 244.800,24.800 244.586,24.800 243.810 C 24.800 243.265,25.159 242.230,25.599 241.510 C 26.038 240.789,26.398 239.806,26.399 239.324 C 26.401 238.133,27.082 237.801,28.246 238.425 C 29.494 239.093,29.994 238.611,30.282 236.465 C 30.402 235.567,30.838 234.527,31.250 234.154 C 31.663 233.781,32.000 233.166,32.000 232.787 C 32.000 232.408,32.270 231.874,32.600 231.600 C 32.930 231.326,33.200 230.488,33.200 229.738 C 33.200 227.865,34.160 225.730,35.142 225.418 C 35.758 225.223,36.014 224.701,36.190 223.280 C 36.317 222.246,36.864 220.500,37.404 219.400 C 37.944 218.300,38.509 216.770,38.660 216.000 C 39.017 214.175,40.220 212.572,41.689 211.963 C 42.880 211.470,45.720 206.222,46.279 203.483 C 46.441 202.688,46.909 202.198,47.903 201.783 C 49.147 201.263,49.275 201.073,49.069 200.043 C 48.870 199.049,48.975 198.860,49.819 198.699 C 50.376 198.592,50.812 198.703,50.828 198.955 C 50.897 200.048,51.547 197.633,51.572 196.189 C 51.587 195.303,51.857 194.211,52.171 193.763 C 52.485 193.315,52.890 191.880,53.072 190.574 C 53.351 188.565,53.536 188.181,54.272 188.076 C 56.457 187.764,56.526 183.200,54.346 183.200 C 53.238 183.200,53.200 183.266,53.200 185.200 M17.200 253.025 C 17.200 253.672,17.123 253.699,16.233 253.357 C 15.355 253.020,15.442 252.582,16.400 252.510 C 16.857 252.476,17.200 252.696,17.200 253.025 M336.100 271.700 C 336.155 271.975,335.975 272.155,335.700 272.100 C 335.425 272.045,335.200 272.180,335.200 272.400 C 335.200 272.942,335.736 272.904,336.320 272.320 C 336.904 271.736,336.942 271.200,336.400 271.200 C 336.180 271.200,336.045 271.425,336.100 271.700 M15.772 328.755 C 16.108 329.299,14.984 330.045,14.251 329.764 C 13.563 329.500,13.425 329.108,13.867 328.667 C 14.252 328.281,15.515 328.339,15.772 328.755 M286.769 339.100 C 286.753 339.265,286.678 339.715,286.605 340.100 C 286.502 340.637,286.742 340.800,287.635 340.800 C 288.611 340.800,288.800 340.638,288.800 339.800 C 288.800 338.858,286.862 338.190,286.769 339.100 M280.702 341.300 C 280.441 342.009,280.781 342.800,281.346 342.800 C 281.610 342.800,281.863 342.350,281.908 341.800 C 281.995 340.757,281.046 340.364,280.702 341.300 " stroke="none" fill="#3068ca" fill-rule="evenodd"></path></g></svg>