<svg xmlns="http://www.w3.org/2000/svg" fill="none" viewBox="0 0 173 152"><g clip-path="url(#umee_svg-a)"><path fill="url(#umee_svg-b)" d="M.1 3.9v53.6-2.1c.4 45.799 38.8 84.899 86.3 84.899s85.9-37 86.3-82.8V3.9s-12-5.8-25.6 8.1c-8.7 8.9-15.7 41.1-34.4 41.3-25 .4-42-32.8-62.3-45.2C29.1-4.9.1 3.9.1 3.9"/><path fill="url(#umee_svg-c)" d="M.1 3.9v53.6-2.1c.4 45.799 38.8 84.899 86.3 84.899s85.9-37 86.3-82.8V3.9s-12-5.8-25.6 8.1c-8.7 8.9-15.7 41.1-34.4 41.3-25 .4-42-32.8-62.3-45.2C29.1-4.9.1 3.9.1 3.9"/><path fill="url(#umee_svg-d)" d="M172.7 62.7V25.5c-4.9.8-10.9 3.2-17.2 9-9.8 9-17.6 41.5-38.6 41.8-28 .4-47.1-33.2-69.9-45.8-15.9-8.6-35.6-7.6-47-5.9v38.2-2.3c.4 49 38.9 90.8 86.3 90.8 47.5 0 86-39.6 86.4-88.6"/><path fill="url(#umee_svg-e)" d="M172.7 62.7V25.5c-4.9.8-10.9 3.2-17.2 9-9.8 9-17.6 41.5-38.6 41.8-28 .4-47.1-33.2-69.9-45.8-15.9-8.6-35.6-7.6-47-5.9v38.2-2.3c.4 49 38.9 90.8 86.3 90.8 47.5 0 86-39.6 86.4-88.6"/><path fill="url(#umee_svg-f)" d="M172.7 62.7v-8.5c-3.7 1.4-7.8 3.7-12 7.3-10.6 9-19 41.5-41.6 41.8-30.2.4-50.7-33.2-75.3-45.8-14.2-7.1-31.4-7.6-43.8-6.6v11.9-2.3c.4 49 38.9 90.8 86.3 90.8 47.5 0 86-39.6 86.4-88.6"/></g><defs><linearGradient id="umee_svg-b" x1="-13.291" x2="207.298" y1="107.326" y2="-8.02" gradientUnits="userSpaceOnUse"><stop stop-color="#FDA9FF"/><stop offset=".028" stop-color="#F9AAFF"/><stop offset=".243" stop-color="#DCB3FF"/><stop offset=".367" stop-color="#D1B6FF"/><stop offset=".89" stop-color="#4DFFE5"/></linearGradient><linearGradient id="umee_svg-c" x1="76.719" x2="99.452" y1="71.176" y2="-12.177" gradientUnits="userSpaceOnUse"><stop stop-color="#16183C" stop-opacity=".3"/><stop offset=".867" stop-color="#16183C" stop-opacity="0"/></linearGradient><linearGradient id="umee_svg-d" x1="-5.976" x2="191.881" y1="113.594" y2="26.031" gradientUnits="userSpaceOnUse"><stop stop-color="#FDA9FF"/><stop offset=".028" stop-color="#F9AAFF"/><stop offset=".243" stop-color="#DCB3FF"/><stop offset=".367" stop-color="#D1B6FF"/><stop offset=".89" stop-color="#4DFFE5"/></linearGradient><linearGradient id="umee_svg-e" x1="66.553" x2="96.863" y1="94.575" y2="32.271" gradientUnits="userSpaceOnUse"><stop stop-color="#16183C" stop-opacity=".3"/><stop offset=".867" stop-color="#16183C" stop-opacity="0"/></linearGradient><linearGradient id="umee_svg-f" x1="-14.459" x2="163.191" y1="126.184" y2="57.986" gradientUnits="userSpaceOnUse"><stop stop-color="#FDA9FF"/><stop offset=".028" stop-color="#F9AAFF"/><stop offset=".243" stop-color="#DCB3FF"/><stop offset=".367" stop-color="#D1B6FF"/><stop offset=".89" stop-color="#4DFFE5"/></linearGradient><clipPath id="umee_svg-a"><path fill="#fff" d="M0 0h173v152H0z"/></clipPath></defs></svg>