<?xml version="1.0" encoding="UTF-8"?>
<svg version="1.1" xmlns="http://www.w3.org/2000/svg" width="127" height="46">
<path d="M0 0 C0.99 0 1.98 0 3 0 C3.33 4.95 3.66 9.9 4 15 C5.5675 13.659375 7.135 12.31875 8.75 10.9375 C11.421875 8.65234375 11.421875 8.65234375 14 7 C16.328125 7.25390625 16.328125 7.25390625 18 8 C18 8.99 18 9.98 18 11 C18.495 12.98 18.495 12.98 19 15 C16.36 16.98 13.72 18.96 11 21 C10.01 19.68 9.02 18.36 8 17 C7.01 18.32 6.02 19.64 5 21 C5.65226562 21.12117188 6.30453125 21.24234375 6.9765625 21.3671875 C19.83211679 23.83211679 19.83211679 23.83211679 23 27 C23.1953125 29.3828125 23.1953125 29.3828125 23.125 32.125 C23.10695312 33.03507812 23.08890625 33.94515625 23.0703125 34.8828125 C23.04710937 35.58148438 23.02390625 36.28015625 23 37 C20.00519083 37.8723412 17.36424089 38.10829766 14.25 38.0625 C13.45078125 38.05347656 12.6515625 38.04445312 11.828125 38.03515625 C11.22484375 38.02355469 10.6215625 38.01195312 10 38 C9.5875 38.94875 9.175 39.8975 8.75 40.875 C7 44 7 44 5.0625 45.4375 C2.54040603 46.12534381 1.41694716 45.98188478 -1 45 C-4.56716435 42.90166803 -5.73317448 40.90604537 -7 37 C-7.495 37.495 -7.495 37.495 -8 38 C-11.8822667 38.14650063 -15.2644843 38.03901761 -19 37 C-19.08121924 35.39667209 -19.13929134 33.79215974 -19.1875 32.1875 C-19.22230469 31.29417969 -19.25710937 30.40085937 -19.29296875 29.48046875 C-19 27 -19 27 -17.62890625 25.21484375 C-14.57447045 22.93683528 -11.01735576 23.00176499 -7.3125 22.625 C-6.219375 22.41875 -5.12625 22.2125 -4 22 C-3.34 21.01 -2.68 20.02 -2 19 C-3.32 19 -4.64 19 -6 19 C-10.73113419 19 -12.32547562 17.8394052 -16 15 C-16 14.34 -16 13.68 -16 13 C-15.34 13 -14.68 13 -14 13 C-14 11.35 -14 9.7 -14 8 C-13.01 7.67 -12.02 7.34 -11 7 C-8.3125 8.9375 -8.3125 8.9375 -6 11 C-5.67 8.03 -5.34 5.06 -5 2 C-3.35 2 -1.7 2 0 2 C0 1.34 0 0.68 0 0 Z M-3 11 C-3 11.99 -3 12.98 -3 14 C-1.515 14.99 -1.515 14.99 0 16 C0 14.68 0 13.36 0 12 C-0.99 11.67 -1.98 11.34 -3 11 Z M3 23 C3 24.65 3 26.3 3 28 C3.66 28 4.32 28 5 28 C4.67 28.99 4.34 29.98 4 31 C5.32 31.66 6.64 32.32 8 33 C8.33 31.68 8.66 30.36 9 29 C8.34 28.67 7.68 28.34 7 28 C5.98812105 26.34051852 4.9873454 24.67419438 4 23 C3.67 23 3.34 23 3 23 Z M-1 24 C-1.99 24.495 -1.99 24.495 -3 25 C-3 26.32 -3 27.64 -3 29 C-3.66 29 -4.32 29 -5 29 C-5 30.65 -5 32.3 -5 34 C-4.67 33.34 -4.34 32.68 -4 32 C-1.9375 30.875 -1.9375 30.875 0 30 C-0.66 30 -1.32 30 -2 30 C-2 29.34 -2 28.68 -2 28 C-1.34 28 -0.68 28 0 28 C-0.33 26.68 -0.66 25.36 -1 24 Z M-14 26 C-13.67 26.99 -13.34 27.98 -13 29 C-12.34 29 -11.68 29 -11 29 C-11.33 28.01 -11.66 27.02 -12 26 C-12.66 26 -13.32 26 -14 26 Z M16 26 C15.67 26.99 15.34 27.98 15 29 C15.66 29 16.32 29 17 29 C16.67 28.01 16.34 27.02 16 26 Z M-16 30 C-16 30.66 -16 31.32 -16 32 C-15.34 31.67 -14.68 31.34 -14 31 C-14.66 30.67 -15.32 30.34 -16 30 Z M19 30 C18.67 30.66 18.34 31.32 18 32 C18.66 32 19.32 32 20 32 C19.67 31.34 19.34 30.68 19 30 Z M-10 31 C-9.67 31.99 -9.34 32.98 -9 34 C-8.67 33.01 -8.34 32.02 -8 31 C-8.66 31 -9.32 31 -10 31 Z M11 31 C11.33 31.99 11.66 32.98 12 34 C12.66 33.67 13.32 33.34 14 33 C14 32.34 14 31.68 14 31 C13.01 31 12.02 31 11 31 Z M-14 32 C-14 32.99 -14 33.98 -14 35 C-13.34 34.67 -12.68 34.34 -12 34 C-12.66 33.34 -13.32 32.68 -14 32 Z M17 32 C18 34 18 34 18 34 Z M16 34 C15.67 34.66 15.34 35.32 15 36 C15.66 36 16.32 36 17 36 C16.67 35.34 16.34 34.68 16 34 Z M-2 35 C-2.33 35.66 -2.66 36.32 -3 37 C-2.01 37 -1.02 37 0 37 C0 36.34 0 35.68 0 35 C-0.66 35 -1.32 35 -2 35 Z M3 35 C3 35.66 3 36.32 3 37 C3.99 37 4.98 37 6 37 C6 36.34 6 35.68 6 35 C5.01 35 4.02 35 3 35 Z M9 35 C10 37 10 37 10 37 Z M-2 40 C-1.34 40.66 -0.68 41.32 0 42 C2.60280568 41.67958603 2.60280568 41.67958603 5 41 C5 40.67 5 40.34 5 40 C2.69 40 0.38 40 -2 40 Z " fill="#000000" transform="translate(19,0)"/>
<path d="M0 0 C3.08315385 -0.08733513 6.16598827 -0.14050127 9.25 -0.1875 C10.12269531 -0.21263672 10.99539062 -0.23777344 11.89453125 -0.26367188 C18.36796493 -0.33779516 18.36796493 -0.33779516 21.55078125 1.36328125 C23.5355581 3.60484864 23.92876501 5.0081303 24 8 C22.5625 10.6875 22.5625 10.6875 21 13 C21 13.66 21 14.32 21 15 C21.474375 15.391875 21.94875 15.78375 22.4375 16.1875 C24.86561968 19.00411883 24.93697898 21.34478097 25 25 C23.23358828 27.80189446 21.96950178 29.51524911 19 31 C17.55151418 31.08342159 16.09929131 31.10732861 14.6484375 31.09765625 C13.79765625 31.09443359 12.946875 31.09121094 12.0703125 31.08789062 C11.18085937 31.07951172 10.29140625 31.07113281 9.375 31.0625 C8.4778125 31.05798828 7.580625 31.05347656 6.65625 31.04882812 C4.43743352 31.03702591 2.21874982 31.02056155 0 31 C0 30.34 0 29.68 0 29 C1.32 29 2.64 29 4 29 C4 20.09 4 11.18 4 2 C2.68 2 1.36 2 0 2 C0 1.34 0 0.68 0 0 Z M10 2 C10 5.63 10 9.26 10 13 C11.98 12.67 13.96 12.34 16 12 C17.18845297 7.36976382 17.18845297 7.36976382 15.8125 3.0625 C13.77502919 1.66285367 13.77502919 1.66285367 10 2 Z M10 16 C10 20.29 10 24.58 10 29 C15.74813012 28.63936201 15.74813012 28.63936201 18 26 C18.47899838 21.31683466 18.47899838 21.31683466 16.8125 17.0625 C14.6312462 15.57856708 14.6312462 15.57856708 10 16 Z " fill="#E60000" transform="translate(79,7)"/>
<path d="M0 0 C4.62 0 9.24 0 14 0 C14 0.66 14 1.32 14 2 C12.68 2 11.36 2 10 2 C10.1395053 5.39612414 10.28772322 8.79181458 10.4375 12.1875 C10.47681641 13.14720703 10.51613281 14.10691406 10.55664062 15.09570312 C10.61948242 16.49272461 10.61948242 16.49272461 10.68359375 17.91796875 C10.72025146 18.77156982 10.75690918 19.6251709 10.79467773 20.50463867 C11.00531094 23.06454594 11.44841536 25.49333243 12 28 C16.7897321 28.23428313 16.7897321 28.23428313 21 26 C21.50960691 23.48614741 21.50960691 23.48614741 21.51171875 20.5546875 C21.54716797 19.47832031 21.58261719 18.40195312 21.61914062 17.29296875 C21.64169922 16.16503906 21.66425781 15.03710938 21.6875 13.875 C21.72166016 12.73933594 21.75582031 11.60367187 21.79101562 10.43359375 C21.87369502 7.62249421 21.94277937 4.81171447 22 2 C21.01 2 20.02 2 19 2 C19 1.34 19 0.68 19 0 C22.3 0 25.6 0 29 0 C29 0.66 29 1.32 29 2 C28.01 2 27.02 2 26 2 C26.01571045 2.63502441 26.0314209 3.27004883 26.04760742 3.92431641 C26.1102859 6.8244523 26.14909417 9.72444524 26.1875 12.625 C26.21263672 13.62402344 26.23777344 14.62304688 26.26367188 15.65234375 C26.31874896 21.19677042 26.19706456 25.23574692 23 30 C20.02588649 32.42335174 16.72582707 32.35586421 12.96484375 32.2578125 C10.08162525 31.87949755 8.25635151 30.79180855 6 29 C3.73401552 25.60102327 3.76257346 24.43680827 3.8046875 20.45703125 C3.81113281 19.38388672 3.81757812 18.31074219 3.82421875 17.20507812 C3.84097656 16.08552734 3.85773437 14.96597656 3.875 13.8125 C3.88402344 12.68134766 3.89304688 11.55019531 3.90234375 10.38476562 C3.92593138 7.58963172 3.958847 4.79492155 4 2 C2.68 2 1.36 2 0 2 C0 1.34 0 0.68 0 0 Z " fill="#E60000" transform="translate(49,7)"/>
<path d="M0 0 C0 2.64 0 5.28 0 8 C-0.99 8 -1.98 8 -3 8 C-3.20625 7.195625 -3.4125 6.39125 -3.625 5.5625 C-4.07875 4.716875 -4.5325 3.87125 -5 3 C-7.77158347 2.24936281 -10.14214519 2 -13 2 C-13.33425735 4.37374861 -13.33425735 4.37374861 -13 7 C-10.7224665 9.36863484 -8.50283388 10.20061089 -5.4375 11.4375 C-0.48048048 13.69069069 -0.48048048 13.69069069 1 17 C1.6545126 21.43432289 1.87455015 24.79372393 -0.8125 28.5 C-4.96170497 31.34516912 -9.12269971 31.40802318 -14 31 C-17 30 -17 30 -19 29 C-19 26.03 -19 23.06 -19 20 C-18.01 20 -17.02 20 -16 20 C-15.01 22.31 -14.02 24.62 -13 27 C-10.08365871 27.2502157 -10.08365871 27.2502157 -7 27 C-4.80450986 24.32343945 -4.80450986 24.32343945 -5.03515625 22 C-6.46557041 19.03493096 -8.51017642 18.40085186 -11.4375 17 C-16.67956862 14.48490058 -16.67956862 14.48490058 -18.32421875 11.99609375 C-19.29607138 9.12547702 -19.36895657 7.0131453 -19 4 C-14.37183931 -3.18162866 -7.47326085 -3.6233992 0 0 Z " fill="#E60000" transform="translate(126,8)"/>
</svg>
