<svg xmlns="http://www.w3.org/2000/svg" width="127" height="46"><path d="M19 0h3l1 15 4.75-4.062C30.422 8.652 30.422 8.652 33 7c2.328.254 2.328.254 4 1v3l1 4-8 6-3-4-3 4 1.977.367C38.832 23.832 38.832 23.832 42 27c.195 2.383.195 2.383.125 5.125l-.055 2.758L42 37c-2.995.872-5.636 1.108-8.75 1.063l-2.422-.028L29 38l-1.25 2.875C26 44 26 44 24.063 45.438c-2.523.687-3.646.544-6.063-.438-3.567-2.098-4.733-4.094-6-8l-1 1c-3.882.147-7.264.039-11-1-.081-1.603-.14-3.208-.187-4.812l-.106-2.708C0 27 0 27 1.371 25.215c3.055-2.278 6.612-2.213 10.317-2.59L15 22l2-3h-4c-4.731 0-6.325-1.16-10-4v-2h2V8l3-1c2.688 1.938 2.688 1.938 5 4l1-9h5zm-3 11v3l3 2v-4zm6 12v5h2l-1 3 4 2 1-4-2-1a396 396 0 0 1-3-5zm-4 1-2 1v4h-2v5l1-2c2.063-1.125 2.063-1.125 4-2h-2v-2h2zM5 26l1 3h2l-1-3zm30 0-1 3h2zM3 30v2l2-1zm35 0-1 2h2zM9 31l1 3 1-3zm21 0 1 3 2-1v-2zM5 32v3l2-1zm31 0 1 2Zm-1 2-1 2h2zm-18 1-1 2h3v-2zm5 0v2h3v-2zm6 0 1 2Zm-11 5 2 2c2.603-.32 2.603-.32 5-1v-1z"/><path fill="#E60000" d="M79 7c3.083-.087 6.166-.14 9.25-.187l2.645-.077c6.473-.074 6.473-.074 9.656 1.627 1.985 2.242 2.378 3.645 2.449 6.637-1.437 2.688-1.437 2.688-3 5v2l1.438 1.188c2.428 2.816 2.499 5.157 2.562 8.812-1.766 2.802-3.03 4.515-6 6-1.448.083-2.9.107-4.352.098l-2.578-.01-2.695-.026-2.719-.013Q82.328 38.03 79 38v-2h4V9h-4zm10 2v11l6-1c1.188-4.63 1.188-4.63-.187-8.937C92.775 8.663 92.775 8.663 89 9m0 14v13c5.748-.36 5.748-.36 8-3 .479-4.683.479-4.683-1.187-8.937C93.63 22.579 93.63 22.579 89 23M49 7h14v2h-4q.212 5.094.438 10.188l.119 2.908.127 2.822.11 2.587c.211 2.56.654 4.988 1.206 7.495 4.79.234 4.79.234 9-2 .51-2.514.51-2.514.512-5.445l.107-3.262.069-3.418.103-3.441Q70.915 13.217 71 9h-3V7h10v2h-3l.048 1.924c.062 2.9.101 5.8.14 8.701l.076 3.027C75.319 28.197 75.197 32.236 72 37c-2.974 2.423-6.274 2.356-10.035 2.258C59.082 38.879 57.256 37.792 55 36c-2.266-3.399-2.237-4.563-2.195-8.543l.02-3.252.05-3.392.027-3.428Q52.938 13.193 53 9h-4zm77 1v8h-3l-.625-2.437L121 11c-2.772-.75-5.142-1-8-1-.334 2.374-.334 2.374 0 5 2.278 2.369 4.497 3.2 7.563 4.438C125.52 21.69 125.52 21.69 127 25c.655 4.434.875 7.794-1.812 11.5-4.15 2.845-8.31 2.908-13.188 2.5-3-1-3-1-5-2v-9h3l3 7c2.916.25 2.916.25 6 0 2.195-2.677 2.195-2.677 1.965-5-1.43-2.965-3.475-3.6-6.403-5-5.242-2.515-5.242-2.515-6.886-5.004-.972-2.87-1.045-4.983-.676-7.996 4.628-7.182 11.527-7.623 19-4"/></svg>