<svg xmlns="http://www.w3.org/2000/svg" width="200" height="200"><path d="M0 0v86h1C2.778 45.22 45.22 2.778 86 1L59 0H0z" fill="#010101"/><path d="M86 .428C71.786 2.465 58.11 7.345 46 15.054 34.785 22.194 25.349 31.108 17.721 42-31.526 112.325 28.291 211.851 114 199.572c14.214-2.037 27.889-6.917 40-14.626 11.216-7.14 20.651-16.054 28.279-26.946C231.52 87.685 171.696-11.849 86 .428z" fill="#d5d5d6"/><path d="M114 0v1c40.781 1.778 83.222 44.22 85 85h1V0h-86z" fill="#010101"/><path d="M188 52l1 1-1-1M50 62v1l34-1h65l-28-1H74l-24 1z" fill="#4dbebe"/><path d="M51 62v44c0 5.183-1.17 14.024 2.175 18.436 2.233 2.945 7.549 2.542 10.825 2.988 11.499 1.565 25.644.011 36-5.424L66.428 91 51 62z" fill="#06a5c8"/><path d="M52 62c7.128 19.09 15.958 35.857 32 49.076 4.364 3.597 10.295 9.012 16 10.17 6.304 1.28 14.361-5.616 19-9.145 15.825-12.038 27.325-30.254 30-50.101H52z" fill="#024971"/><path d="M148.333 65.667l.334.666-.334-.666M147 69l1 1-1-1m3 0v46h1c0-13.003 4.01-34.061-1-46m-3.667 3.667l.334.666-.334-.666z" fill="#4dbebe"/><path d="M149 74c-2.021 14.994-10.664 29.259-21.09 39.961-4.798 4.925-12.248 8.285-15.91 14.039 8.343 1.418 23.309 8.805 31.61 5.357 4.272-1.774 5.083-9.439 5.775-13.357 2.016-11.408 4.089-35.337-.385-46z" fill="#06a5c8"/><path d="M145 76l1 1-1-1m3.333.667l.334.666-.334-.666M144 78l1 1-1-1m3.333 2.667l.334.666-.334-.666M142 83l1 1-1-1m4.333.667l.334.666-.334-.666M141 85l1 1-1-1m4.333 1.667l.334.666-.334-.666M144 89l1 1-1-1m-6 1l1 1-1-1m5 1l1 1-1-1m-6 1l1 1-1-1m-1 1l1 1-1-1m6 0l1 1-1-1m-7 2l1 1-1-1m6 0l1 1-1-1m-7 1l1 1-1-1m6 1l1 1-1-1m-1 2l1 1-1-1m-1 1l1 1-1-1m-8 1l1 1-1-1m-1 1l1 1-1-1m8 0l1 1-1-1m-9 1l1 1-1-1m8 0l1 1-1-1m-9 1l1 1-1-1m-1 1l1 1-1-1m9 0l1 1-1-1m-10 1l1 1-1-1m9 0l1 1-1-1m-10 1l1 1-1-1m9 0l1 1-1-1m-10 1l1 1-1-1m-1 1l1 1-1-1z" fill="#4dbebe"/><path d="M119 111l1 1-1-1z" fill="#06a5c8"/><path d="M130 111l1 1-1-1m-12 1l1 1-1-1m11 0l1 1-1-1m-1 1l1 1-1-1z" fill="#4dbebe"/><path d="M0 114v86h86v-1c-32.049-1.397-62.428-27.474-76.191-55-4.792-9.584-5.544-20.503-9.809-30z" fill="#010101"/><path d="M115 114l1 1-1-1m12 0l1 1-1-1z" fill="#4dbebe"/><path d="M199 114c-1.778 40.781-44.219 83.222-85 85v1h86v-59l-1-27z" fill="#010101"/><path d="M114 115l1 1-1-1m12 0l1 1-1-1m-14 1l1 1-1-1m13 0l1 1-1-1m-1 1l1 1-1-1m-73 1v4h1l-1-4m58 0l1 1-1-1m-2 1l1 1-1-1m14 0l1 1-1-1m28 0v3h1l-1-3m-44 1l1 1-1-1m15 0l1 1-1-1m-17 1l1 1-1-1m16 0l1 1-1-1m-19.333 1.333l.666.334-.666-.334m-2 1l.666.334-.666-.334M116 123l1 1-1-1m-64 1l1 1-1-1m42.667.333l.666.334-.666-.334M115 124l1 1-1-1m33.333.667l.334.666-.334-.666m-57.666.666l.666.334-.666-.334M113 125l1 1-1-1m-59 1v1h3l-3-1m32.667.333l.666.334-.666-.334M59 127v1h6l-6-1m18 0v1h6l-6-1m-19 9c12.966 38.452 72.402 28.858 87-2-10.757-.849-23.646-7.022-34-6.309-5.4.372-10.814 4.511-16 6.104-11.447 3.516-25.225 5.008-37 2.205m89-8l1 1-1-1m-1 2l1 1-1-1m-1 2l1 1-1-1z" fill="#4dbebe"/></svg>