<svg xmlns="http://www.w3.org/2000/svg" width="40" height="40" fill="none" viewBox="0 0 40 40"><g clip-path="url(#unhon_svg-a)"><path fill="#CCD8E3" d="M20 0c11.046 0 20 8.954 20 20s-8.954 20-20 20S0 31.046 0 20 8.954 0 20 0"/><path fill="#003C71" d="M26 6a8 8 0 0 1 8 8v12a8 8 0 0 1-8 8H14a8 8 0 0 1-8-8V14a8 8 0 0 1 8-8z"/><path fill="#fff" d="M28.392 15.525c1.336 0 2.062.35 2.245.428.259.117.285.17.285.286l-.039.285c-.039.22-.103.57-.142.765-.013.104-.04.26-.195.26-.13 0-.246-.156-.324-.233a2.56 2.56 0 0 0-1.83-.778c-2.049 0-2.399 1.97-2.399 3.462 0 2.063.662 3.464 2.4 3.464.661 0 1.012-.104 1.116-.13v-2.84c0-.169.103-.22.272-.221h.947c.194 0 .272.078.272.247v3.087c0 .285-.013.31-.26.428-.401.181-1.024.441-2.348.441-2.153 0-4.072-.896-4.072-4.476 0-2.801 1.18-4.475 4.072-4.475m-18.315.13c.22 0 .414.208.414.429v5.59c0 1.414.78 1.803 1.713 1.803 1.232 0 1.712-.623 1.712-1.803v-5.59c0-.221.195-.428.416-.428h.583c.22 0 .416.207.416.428v5.447c0 1.803-1.103 2.88-3.153 2.88C9.83 24.411 9 23.088 9 21.531v-5.447c0-.221.195-.428.415-.428zm7.743 0c.22.014.403.195.403.415v3.152h3.503V16.07c0-.22.181-.415.402-.415h.674c.22.014.402.195.402.415v7.816c-.023.192-.198.33-.402.33h-.648a.41.41 0 0 1-.416-.415v-3.476h-3.502v3.476a.41.41 0 0 1-.416.416h-.66a.41.41 0 0 1-.415-.416v-7.73c0-.221.181-.416.402-.416z"/></g><defs><clipPath id="unhon_svg-a"><path fill="#fff" d="M0 0h40v40H0z"/></clipPath></defs></svg>