<svg version="1.2" xmlns="http://www.w3.org/2000/svg" viewBox="0 0 300 300" width="300" height="300">
	<style>
		.s0 { fill: #ffffff } 
		.s1 { fill: #000000 } 
		.s2 { fill: #b4ff00 } 
	</style>
	<g id="Background">
		<path id="Path 0" class="s0" d="m131.5 0.69c-1.65 0.21-6.6 1.09-11 1.96-4.4 0.86-11.6 2.69-16 4.07-4.4 1.37-12.5 4.61-18 7.19-5.5 2.58-13.38 6.87-17.5 9.53-4.13 2.66-10.65 7.44-14.5 10.61-3.85 3.17-9.55 8.4-12.67 11.61-3.12 3.21-8.86 10.11-12.76 15.34-3.9 5.22-9.78 14.9-13.07 21.5-3.29 6.6-7.36 16.28-9.05 21.5-1.69 5.22-3.99 14.9-5.12 21.5-1.75 10.18-1.98 14.66-1.51 29.5 0.39 12.48 1.15 20.08 2.62 26.5 1.14 4.95 3.03 11.93 4.2 15.5 1.17 3.57 4.23 11 6.79 16.5 2.57 5.5 6.85 13.38 9.51 17.5 2.66 4.13 7.44 10.65 10.61 14.5 3.17 3.85 8.4 9.55 11.61 12.67 3.21 3.12 10.12 8.86 15.34 12.76 5.22 3.9 14.9 9.78 21.5 13.07 6.6 3.29 16.28 7.36 21.5 9.05 5.22 1.69 14.9 3.99 21.5 5.12 10.18 1.75 14.66 1.98 29.5 1.51 12.48-0.39 20.08-1.15 26.5-2.62 4.95-1.14 11.93-3.03 15.5-4.2 3.57-1.17 11-4.23 16.5-6.79 5.5-2.57 13.38-6.85 17.5-9.51 4.13-2.66 10.65-7.44 14.5-10.61 3.85-3.17 9.55-8.4 12.67-11.61 3.12-3.21 8.86-10.12 12.76-15.34 3.9-5.22 9.78-14.9 13.07-21.5 3.29-6.6 7.36-16.28 9.05-21.5 1.69-5.22 3.99-14.9 5.12-21.5 1.75-10.18 1.98-14.66 1.51-29.5-0.39-12.48-1.15-20.08-2.62-26.5-1.14-4.95-3.03-11.92-4.2-15.5-1.17-3.58-4.23-11-6.79-16.5-2.57-5.5-6.85-13.38-9.51-17.5-2.66-4.13-7.44-10.65-10.61-14.5-3.17-3.85-8.4-9.55-11.61-12.67-3.21-3.12-10.12-8.86-15.34-12.76-5.22-3.9-14.9-9.78-21.5-13.07-6.6-3.29-16.28-7.36-21.5-9.05-5.22-1.68-14.56-3.94-20.75-5.01-8.13-1.4-15.34-1.9-26-1.79-8.11 0.08-16.1 0.32-17.75 0.54z"/>
		<path id="Path 1" class="s1" d="m134.5 31.67c-1.65 0.27-6.82 1.37-11.5 2.46-4.67 1.08-12.55 3.6-17.5 5.58-4.95 1.99-11.7 5.2-15 7.13-3.3 1.93-8.47 5.31-11.5 7.51-3.03 2.2-8.91 7.41-13.07 11.58-4.17 4.16-9.38 10.04-11.58 13.07-2.2 3.03-5.58 8.2-7.51 11.5-1.93 3.3-5.14 10.05-7.13 15-1.98 4.95-4.62 13.05-5.86 18-1.91 7.62-2.25 11.68-2.25 26.5 0 14.82 0.34 18.88 2.25 26.5 1.24 4.95 3.88 13.05 5.86 18 1.99 4.95 5.2 11.7 7.13 15 1.93 3.3 5.31 8.47 7.51 11.5 2.2 3.03 7.41 8.91 11.58 13.07 4.16 4.17 10.04 9.38 13.07 11.58 3.03 2.2 8.2 5.58 11.5 7.51 3.3 1.93 10.05 5.14 15 7.13 4.95 1.98 13.05 4.62 18 5.86 7.62 1.91 11.68 2.25 26.5 2.25 14.82 0 18.88-0.34 26.5-2.25 4.95-1.24 13.05-3.88 18-5.86 4.95-1.99 11.7-5.2 15-7.13 3.3-1.93 8.47-5.31 11.5-7.51 3.03-2.2 8.91-7.41 13.07-11.58 4.17-4.16 9.38-10.04 11.58-13.07 2.2-3.03 5.58-8.2 7.51-11.5 1.93-3.3 5.14-10.05 7.13-15 1.98-4.95 4.62-13.05 5.86-18 1.91-7.62 2.25-11.68 2.25-26.5 0-14.82-0.34-18.88-2.25-26.5-1.24-4.95-3.88-13.05-5.86-18-1.99-4.95-5.2-11.7-7.13-15-1.93-3.3-5.31-8.47-7.51-11.5-2.2-3.03-7.41-8.91-11.58-13.07-4.16-4.17-10.04-9.38-13.07-11.58-3.03-2.2-8.2-5.58-11.5-7.51-3.3-1.93-10.05-5.14-15-7.13-4.95-1.98-13.05-4.59-18-5.79-6.75-1.64-12.74-2.25-24-2.46-8.25-0.15-16.35-0.06-18 0.21z"/>
		<path id="Path 2" class="s2" d="m156.5 101.41c-2.75 0.68-6.8 2.16-9 3.3-2.2 1.13-5.91 4.13-8.25 6.67-2.34 2.54-4.93 5.97-5.75 7.62-0.82 1.65-2.17 5.81-2.99 9.25-1.15 4.85-1.49 13.54-1.5 38.75l-0.03 32.5c10.48-1.04 15.99-2.26 19.02-3.38 3.03-1.12 7.41-3.4 9.75-5.08 2.34-1.67 5.61-4.95 7.27-7.29 1.8-2.54 3.61-6.96 4.5-11 1.14-5.21 1.48-14.27 1.48-39.75v-33c-7.36 0.13-11.75 0.73-14.5 1.41zm21.4 34.22c-0.45 34.21-0.58 36.15-2.73 41.87-1.25 3.3-3.37 7.46-4.72 9.25-1.35 1.79-2.45 3.7-2.45 4.25 0 0.64 9.5 1 26.5 1h26.5c-0.03-48.13-0.41-57.09-1.44-61.5-0.78-3.3-2.35-8.14-3.49-10.75-1.14-2.61-4.21-6.91-6.82-9.54-2.61-2.64-7-5.88-9.75-7.2-3.6-1.74-7.25-2.53-13.06-2.83l-8.06-0.42zm-98.92-2.38c0 14.99 0.41 29.5 0.93 32.25 0.51 2.75 1.92 7.7 3.13 11 1.63 4.43 3.68 7.44 7.83 11.5 3.09 3.02 7.87 6.59 10.62 7.93 3.39 1.65 7.49 2.62 12.7 3l7.7 0.57c0.66-71.46 0.77-73.26 2.92-79 1.24-3.3 3.59-7.69 5.22-9.75 1.63-2.06 2.63-3.99 2.21-4.28-0.41-0.29-12.56-0.52-27-0.5l-26.25 0.03z"/>
	</g>
</svg>