<svg xmlns="http://www.w3.org/2000/svg" xml:space="preserve" viewBox="0 0 56.7 56.7"><path d="M56.3 18.9V4.4c0-2.4-2-4.4-4.4-4.4H4.4C2 0 0 2 0 4.4v48c0 2.4 2 4.4 4.4 4.4H52c2.4 0 4.4-2 4.4-4.4V37.8H46.2c-3.4 6.5-10.2 10.9-18 10.9-11.2 0-20.4-9.1-20.4-20.4S16.9 8 28.2 8c7.8 0 14.6 4.4 18 10.9z"/><path d="M27.2 26.4c-.9-.3-1.5-.6-2-.9-.5-.4-.7-.8-.7-1.4s.2-1.2.7-1.6c.4-.4 1.1-.7 2-.9zm2.2 3.8q1.35.45 2.1.9c.5.4.7.9.7 1.5s-.2 1.1-.7 1.5-1.2.7-2.1.8zm0-3.2v-5.4c1.5.2 3 .7 4.4 1.4l1.1-2.7c-.7-.5-1.6-.8-2.5-1.1-1-.3-1.9-.5-2.9-.5v-2h-2.2v2.1c-2 .2-3.5.8-4.6 1.8s-1.6 2.3-1.6 3.7c0 1.2.3 2.1.9 2.8s1.3 1.2 2.1 1.6 1.9.7 3.2 1v5.4c-1-.1-2-.3-3-.7-.9-.4-1.8-.8-2.4-1.4l-1.2 2.7c.7.6 1.6 1.1 2.8 1.5s2.4.6 3.8.7v2h2.2v-2.1c2-.2 3.6-.8 4.6-1.8 1.1-1 1.6-2.2 1.6-3.7 0-1.2-.3-2.1-.9-2.8s-1.3-1.2-2.1-1.6q-1.35-.45-3.3-.9m26.9-1.8h-9.9v6.3h9.9z" style="fill:#e60028"/></svg>