<?xml version="1.0" encoding="UTF-8"?>
<svg version="1.1" xmlns="http://www.w3.org/2000/svg" width="512" height="512" viewBox="0 0 512 512">
<path d="M0 0 C0.58668457 0.41991211 1.17336914 0.83982422 1.77783203 1.27246094 C10.04198853 7.26192882 17.64024486 13.94212353 25 21 C25.79688232 21.75603516 25.79688232 21.75603516 26.60986328 22.52734375 C34.90379571 30.42961142 42.25212127 38.74247377 49 48 C49.40782715 48.55284668 49.8156543 49.10569336 50.23583984 49.67529297 C82.87575185 94.45173564 95.21839278 151.9091706 86.97265625 206.39453125 C81.66545611 238.16638401 69.82879243 268.74764422 51 295 C50.58008789 295.58668457 50.16017578 296.17336914 49.72753906 296.77783203 C43.73807118 305.04198853 37.05787647 312.64024486 30 320 C29.49597656 320.53125488 28.99195313 321.06250977 28.47265625 321.60986328 C20.57038858 329.90379571 12.25752623 337.25212127 3 344 C2.17072998 344.61174072 2.17072998 344.61174072 1.32470703 345.23583984 C-43.28233483 377.75226667 -100.81136439 390.31197192 -155.1328125 382.03515625 C-179.17284113 377.96379587 -201.5487494 370.57313867 -223 359 C-223.59329102 358.68595215 -224.18658203 358.3719043 -224.79785156 358.04833984 C-268.6465537 334.72276303 -302.35018167 294.04425008 -320 248 C-320.27972656 247.27087402 -320.55945313 246.54174805 -320.84765625 245.79052734 C-339.99735214 194.78249078 -337.38001033 135.25127162 -314.99121094 85.77050781 C-312.80822736 81.09939242 -310.44772117 76.53694383 -308 72 C-307.68595215 71.40670898 -307.3719043 70.81341797 -307.04833984 70.20214844 C-283.72276303 26.3534463 -243.04425008 -7.35018167 -197 -25 C-196.27087402 -25.27972656 -195.54174805 -25.55945312 -194.79052734 -25.84765625 C-131.0669979 -49.77106699 -55.24551415 -39.62335141 0 0 Z " fill="#2775CA" transform="translate(378,83)"/>
<path d="M0 0 C0.82951172 -0.00386719 1.65902344 -0.00773438 2.51367188 -0.01171875 C3.37669922 -0.00011719 4.23972656 0.01148438 5.12890625 0.0234375 C5.98806641 0.01183594 6.84722656 0.00023437 7.73242188 -0.01171875 C8.56322266 -0.00785156 9.39402344 -0.00398437 10.25 0 C11.00595459 0.00338379 11.76190918 0.00676758 12.54077148 0.01025391 C15.38135576 0.52297147 16.69859864 1.3048058 18.69140625 3.3984375 C19.14550781 6.03393555 19.14550781 6.03393555 19.08203125 9.16015625 C19.06914062 10.27841797 19.05625 11.39667969 19.04296875 12.54882812 C19.00945312 13.71607422 18.9759375 14.88332031 18.94140625 16.0859375 C18.92335938 17.26478516 18.9053125 18.44363281 18.88671875 19.65820312 C18.83952484 22.57242676 18.77369702 25.48502781 18.69140625 28.3984375 C19.27220947 28.44162109 19.8530127 28.48480469 20.45141602 28.52929688 C32.34078622 29.59778403 41.7556845 35.58724467 49.69140625 44.3984375 C54.88446587 51.63855381 58.55067923 58.37607125 57.69140625 67.3984375 C56.03549339 69.89334622 54.73343601 71.17696674 51.75585938 71.80981445 C49.40847113 72.01120382 47.10957175 72.04235851 44.75390625 72.0234375 C43.95533203 72.05566406 43.15675781 72.08789062 42.33398438 72.12109375 C36.64192609 72.1305255 36.64192609 72.1305255 34.05957031 70.14160156 C31.83751119 67.56555765 30.55805264 65.05899194 29.31640625 61.8984375 C26.62602615 56.10377266 22.8235039 53.36883005 17.078125 50.75390625 C12.28626541 49.04651926 7.73796273 48.91888286 2.69140625 48.9609375 C1.840625 48.94095703 0.98984375 48.92097656 0.11328125 48.90039062 C-7.38217861 48.90613868 -12.54135686 50.99214455 -18.18359375 55.8984375 C-22.47210305 60.94374256 -22.77201647 64.90312375 -22.59765625 71.42578125 C-22.17872904 75.73393809 -21.485871 78.38350288 -18.30859375 81.3984375 C-9.86452143 87.72774215 -0.34215438 88.60804576 9.8359375 89.7578125 C13.95305761 90.24479222 17.72728402 91.15191583 21.69140625 92.3984375 C23.0286509 92.76260906 24.36727348 93.12174805 25.70703125 93.4765625 C38.01474893 96.8368791 49.69526971 100.80944943 57.69140625 111.3984375 C63.81245739 122.26673778 65.35871958 133.72840816 63.0078125 145.953125 C61.01388703 152.98564222 58.15182215 158.63511064 53.69140625 164.3984375 C52.96953125 165.4296875 52.24765625 166.4609375 51.50390625 167.5234375 C43.78356455 176.37119418 30.94587858 181.25574542 19.69140625 183.3984375 C19.68206055 184.07422852 19.67271484 184.75001953 19.66308594 185.44628906 C19.60933324 188.5144086 19.52569633 191.58101137 19.44140625 194.6484375 C19.42722656 195.71191406 19.41304688 196.77539062 19.3984375 197.87109375 C19.35009766 199.40830078 19.35009766 199.40830078 19.30078125 200.9765625 C19.27983398 201.91918945 19.25888672 202.86181641 19.23730469 203.83300781 C18.52917839 207.16082139 17.38382275 208.36144083 14.69140625 210.3984375 C12.54077148 210.91601562 12.54077148 210.91601562 10.25 210.9296875 C9.41919922 210.93484375 8.58839844 210.94 7.73242188 210.9453125 C6.44368164 210.92210937 6.44368164 210.92210937 5.12890625 210.8984375 C4.26587891 210.91390625 3.40285156 210.929375 2.51367188 210.9453125 C1.68416016 210.94015625 0.85464844 210.935 0 210.9296875 C-0.75482666 210.92517578 -1.50965332 210.92066406 -2.28735352 210.91601562 C-4.30859375 210.3984375 -4.30859375 210.3984375 -6.05957031 208.70410156 C-7.57294065 205.91046015 -7.65431859 204.141928 -7.6015625 200.9765625 C-7.58706055 199.43935547 -7.58706055 199.43935547 -7.57226562 197.87109375 C-7.54712891 196.80761719 -7.52199219 195.74414062 -7.49609375 194.6484375 C-7.48255859 193.56949219 -7.46902344 192.49054688 -7.45507812 191.37890625 C-7.41975959 188.7182433 -7.37043574 186.05859454 -7.30859375 183.3984375 C-9.13970703 183.18767578 -9.13970703 183.18767578 -11.0078125 182.97265625 C-24.15690462 181.31564508 -35.77567112 175.66521883 -44.30859375 165.3984375 C-50.39411906 157.47423743 -53.80463331 148.4009102 -53.64453125 138.39453125 C-53.30859375 136.3984375 -53.30859375 136.3984375 -51.30859375 134.3984375 C-47.87135191 133.92093134 -44.40025557 134.02805972 -40.93359375 134.0234375 C-39.97453125 133.99894531 -39.01546875 133.97445312 -38.02734375 133.94921875 C-31.02904554 133.91997795 -31.02904554 133.91997795 -27.76171875 136.08984375 C-26.17901842 138.60429507 -25.27914083 140.86426232 -24.43359375 143.7109375 C-21.75338883 151.50223087 -17.93941962 156.05429748 -10.53125 159.671875 C-0.40199077 162.98302125 13.02751355 163.14917467 22.69140625 158.3984375 C28.73968989 154.97488072 32.48626381 151.01386482 34.69140625 144.3984375 C35.31899289 138.5677198 35.52255252 133.22056586 33.06640625 127.8359375 C23.82330511 118.34959686 9.85046695 116.59391548 -2.75390625 114.71875 C-18.40878573 112.38331725 -33.28216162 108.35457039 -43.8046875 95.68359375 C-46.50226023 91.58468454 -47.95466726 87.086226 -49.30859375 82.3984375 C-49.499375 81.79515625 -49.69015625 81.191875 -49.88671875 80.5703125 C-51.96239199 69.88443917 -51.06398806 58.73078247 -45.30859375 49.3984375 C-38.12247883 39.58118602 -28.20594626 31.58247716 -16.30859375 28.3984375 C-13.31535445 27.98248154 -10.3181641 27.66939297 -7.30859375 27.3984375 C-7.3243042 26.6871167 -7.34001465 25.9757959 -7.35620117 25.24291992 C-7.4185129 22.02400646 -7.45757242 18.80521982 -7.49609375 15.5859375 C-7.52123047 14.46638672 -7.54636719 13.34683594 -7.57226562 12.19335938 C-7.58193359 11.12021484 -7.59160156 10.04707031 -7.6015625 8.94140625 C-7.61727295 7.95164795 -7.6329834 6.96188965 -7.64916992 5.94213867 C-7.30859375 3.3984375 -7.30859375 3.3984375 -6.05957031 1.5769043 C-3.8874488 0.11499262 -2.60671582 0.01168557 0 0 Z " fill="#FBFCFE" transform="translate(250.30859375,152.6015625)"/>
<path d="M0 0 C1.99409225 1.51918344 2.87401412 2.43064636 3.41992188 4.89770508 C3.4729929 7.2039063 3.50737617 9.50560149 3.5 11.8125 C3.52835937 12.60720703 3.55671875 13.40191406 3.5859375 14.22070312 C3.5993989 18.28941037 3.34056692 21.14747328 0.8046875 24.42578125 C-1.96791265 26.97054935 -3.8612218 28.14468551 -7.375 29.375 C-20.27096292 34.35932923 -31.46816456 41.07047755 -42 50 C-42.52223145 50.4424707 -43.04446289 50.88494141 -43.58251953 51.34082031 C-67.57091584 71.9362432 -84.98752719 102.40252646 -87.71875 134.21875 C-88.77365567 149.98823738 -88.81820334 165.6031702 -85 181 C-84.83371094 181.69496582 -84.66742188 182.38993164 -84.49609375 183.10595703 C-76.58484434 215.32964791 -54.92536141 243.76335191 -26.95654297 261.27978516 C-19.394915 265.84336334 -11.806867 269.79423117 -3.453125 272.734375 C-0.22386619 274.40042572 1.14946034 275.8591758 3 279 C3.556707 281.85330509 3.56008643 284.60082975 3.5 287.5 C3.51546875 288.24636719 3.5309375 288.99273437 3.546875 289.76171875 C3.52020936 293.52824046 3.18152183 295.66778081 1.34375 299.03125 C-1 301 -1 301 -3.69140625 301.53125 C-8.10382309 300.82276276 -11.86100822 299.29301396 -15.9375 297.5 C-16.77434326 297.1376123 -17.61118652 296.77522461 -18.47338867 296.40185547 C-34.94607913 289.15694393 -49.62100951 280.34185632 -62.828125 268.01953125 C-64.73204605 266.24915862 -66.67891151 264.58614232 -68.6875 262.9375 C-90.10759345 244.5490207 -102.87374431 216.41196541 -111 190 C-111.34417969 188.9378125 -111.68835938 187.875625 -112.04296875 186.78125 C-114.95701922 175.26777711 -115.37271222 163.92701699 -115.37060547 152.11865234 C-115.37495985 149.40006913 -115.41134852 146.68313965 -115.44921875 143.96484375 C-115.52566581 131.85254474 -114.02733147 120.72097431 -111 109 C-110.73533936 107.97422852 -110.47067871 106.94845703 -110.19799805 105.89160156 C-105.8153182 89.82907152 -97.51071838 73.62077831 -88 60 C-87.33097656 59.03320312 -86.66195312 58.06640625 -85.97265625 57.0703125 C-68.29423612 32.83425618 -43.51192714 12.78233483 -15 3 C-13.54052084 2.39860658 -12.08202116 1.79482431 -10.625 1.1875 C-6.79132653 -0.06835855 -4.00294423 -0.47093462 0 0 Z " fill="#FBFCFE" transform="translate(214,108)"/>
<path d="M0 0 C25.60526312 4.13593803 48.83427121 22.5060393 67 40 C67.64066406 40.58910156 68.28132813 41.17820313 68.94140625 41.78515625 C90.00108178 61.67213523 105.09304324 92.53502934 109 121 C109.33281982 122.02875244 109.66563965 123.05750488 110.00854492 124.11743164 C111.28686533 128.51077116 111.30576262 132.75917017 111.30078125 137.30859375 C111.30506638 138.19297623 111.3093515 139.0773587 111.31376648 139.98854065 C111.31948839 141.85685373 111.32002587 143.72518908 111.31567383 145.59350586 C111.31254405 148.39803054 111.33589426 151.20146712 111.36132812 154.00585938 C111.49407868 191.29844169 96.42692385 228.64392058 70.94140625 255.90234375 C68.85319134 258.09761416 68.85319134 258.09761416 66.625 261.0625 C62.55419866 265.61792055 57.80202196 269.24297764 53 273 C52.04609375 273.75796875 51.0921875 274.5159375 50.109375 275.296875 C42.7654517 280.99136098 35.12535261 285.55600645 27 290 C25.59427734 290.81984375 25.59427734 290.81984375 24.16015625 291.65625 C5.50609696 302.39397576 5.50609696 302.39397576 -3 301 C-5.27734375 299.58984375 -5.27734375 299.58984375 -7 297 C-7.60815445 293.84230417 -7.60384037 290.77002647 -7.5625 287.5625 C-7.58634766 286.71623047 -7.61019531 285.86996094 -7.63476562 284.99804688 C-7.62483505 280.77093024 -7.44077604 278.61542315 -4.9296875 275.109375 C-1.6389495 272.74004364 1.68864855 271.15595873 5.4375 269.6875 C17.42430965 264.6982836 28.15996538 258.57349551 38 250 C38.84304688 249.278125 39.68609375 248.55625 40.5546875 247.8125 C64.27307552 227.04989894 81.32756402 196.21027586 83.84619141 164.50732422 C85.32771764 140.35609495 83.5237699 118.04568244 73 96 C72.51273438 94.97398682 72.51273438 94.97398682 72.015625 93.92724609 C67.06483726 83.68622761 61.31288613 74.69860818 54 66 C53.29359375 65.12988281 52.5871875 64.25976562 51.859375 63.36328125 C39.55278864 48.84606734 22.61126684 38.19726775 5.375 30.5078125 C4.26125 30.01023438 3.1475 29.51265625 2 29 C0.9275 28.54367188 -0.145 28.08734375 -1.25 27.6171875 C-4.52983399 25.68842149 -5.57864579 24.5243783 -7 21 C-7.40481802 18.13217627 -7.41968511 15.32961987 -7.375 12.4375 C-7.38660156 11.68275391 -7.39820313 10.92800781 -7.41015625 10.15039062 C-7.39293309 6.89234264 -7.20306977 4.40302498 -5.7265625 1.47265625 C-4 0 -4 0 0 0 Z " fill="#FBFCFE" transform="translate(302,108)"/>
<path d="M0 0 C0.66 0.33 1.32 0.66 2 1 C-5.26 8.26 -12.52 15.52 -20 23 C-20.66 22.67 -21.32 22.34 -22 22 C-6.93673978 5.53646622 -6.93673978 5.53646622 0 0 Z " fill="#4A8BD2" transform="translate(174,155)"/>
<path d="M0 0 C0.66 0.33 1.32 0.66 2 1 C-0.64 3.64 -3.28 6.28 -6 9 C-6 6 -6 6 -3.5625 3.375 C-2.716875 2.59125 -1.87125 1.8075 -1 1 C-0.67 0.67 -0.34 0.34 0 0 Z " fill="#4A8BD2" transform="translate(236,204)"/>
</svg>
