<svg xmlns="http://www.w3.org/2000/svg" width="100" height="100" version="1.2" viewBox="0 0 88 88"><path fill-rule="evenodd" d="M44 88C19.7 88 0 68.3 0 44c0-13.8 8.1-25.4 8.1-25.4l8.7 6.2s-6.1 8.9-6.1 19.2c0 16.6 12.1 30.3 27.9 32.9V66c-9.8-2.4-17.2-11.4-17.2-22h10.7c0 6.6 5.3 11.9 11.9 11.9S55.9 50.6 55.9 44q0-1.9-.6-3.7c-1.5-4.6-5.7-8-10.8-8.2H44c-5.3 0-10.1-2.6-13-6.6-1.9-2.6-3.1-5.9-3.1-9.4l.1-1.3C28.6 6.5 35.6 0 44 0h2.6c9.4.1 15.9 3.1 23 8.2C80.7 16.2 88 29.2 88 44c0 24.3-19.7 44-44 44m5.4-11.1C65.2 74.3 77.3 60.6 77.3 44c0-8-2.8-15.3-7.5-21-5.5-6.8-14.3-12.2-23.2-12.3H44c-3 0-5.4 2.4-5.4 5.4 0 2.9 2.4 5.3 5.4 5.3h.5c4.7.1 8.9 1.6 12.5 4.1 3 2.1 5.4 4.9 7.1 8.2 1.6 3.1 2.5 6.6 2.5 10.3 0 10.6-7.4 19.6-17.2 22z" style="fill:#000"/></svg>