<svg xmlns="http://www.w3.org/2000/svg" width="400" height="400" viewBox="0 0 400 400"><g fill-rule="evenodd"><path fill="#0494db" d="M384.4 160.827c0 .161-.801.21-1.78.108l-1.781-.185-.975 1.925c-.536 1.059-1.252 2.825-1.59 3.925s-1.272 3.53-2.075 5.4c-.802 1.87-1.698 4.03-1.99 4.8-.893 2.355-2.642 5.973-2.991 6.189-.181.112-.452.7-.602 1.307-.567 2.29-13.77 27.462-15.56 29.665-.251.308-1.176 1.779-2.056 3.269a119 119 0 0 1-3.034 4.839c-.789 1.172-2.626 3.931-4.084 6.131-3.699 5.585-7.06 10.473-8.694 12.646a159 159 0 0 0-2.063 2.8c-.612.866-2.631 3.537-7.182 9.502-.902 1.182-1.972 2.481-2.378 2.887s-1.193 1.419-1.749 2.251c-.556.833-2.452 3.134-4.213 5.114a485 485 0 0 0-6.086 7c-10.34 12.188-32.046 31.62-47.137 42.2-1.569 1.1-3.066 2.197-3.326 2.437-.259.241-1.278.942-2.263 1.558s-3.951 2.56-6.591 4.321-5.34 3.452-6 3.758-2.01 1.086-3 1.735c-.99.648-2.25 1.38-2.8 1.627s-1.27.605-1.6.796c-2.412 1.393-11.93 5.968-12.417 5.968-.333 0-.96.241-1.394.536s-2.589 1.219-4.789 2.052-4.81 1.832-5.8 2.22-2.43.83-3.2.983c-.77.152-2.511.712-3.868 1.243-1.358.531-2.91.966-3.449.966-.54 0-1.769.345-2.732.766s-2.825.897-4.139 1.057c-1.313.16-2.961.531-3.662.824s-3.226.789-5.612 1.103-4.788.767-5.338 1.007c-.55.241-4.06.71-7.8 1.044-3.74.333-8.15.799-9.8 1.035-3.822.546-36.704.227-39-.379-.88-.233-5.74-.603-10.8-.823-5.06-.221-9.83-.594-10.6-.83-2.511-.768-12.989-1.664-14.178-1.212-.591.224-1.491.408-2.001.408-.865 0-1.162.419-1.626 2.298-.201.813.686 1.079 1.21.363.774-1.058 1.508-.809 1.323.449-.155 1.054-.094 1.102 1.217.949 1.113-.13 1.334-.043 1.144.453-.16.418.137.767.933 1.097.642.266 1.069.644.947.84-.121.197.061.639.405.983s.626.5.626.348.268-.056.596.216.497.654.376.849-.018.355.228.355.336.18.2.4.108.4.543.4c.918 0 1.288.728.828 1.627-.265.518-.108.596.907.447 1.18-.173 1.221-.13 1.043 1.085-.113.767-.042 1.122.18.9.612-.612 1.816-.043 2.073.979.153.611.53.962 1.034.962 1.01 0 1.001.302-.032 1.139-.961.779-.745 1.736.546 2.414.483.253 1.598 1.001 2.478 1.66 1.446 1.084 1.802 1.177 3.7.965 2.195-.246 2.655.083 1.3.929-.964.602-1.004 1.032-.171 1.864.865.866 1.804.788 2.055-.171.265-1.014 1.316-1.051 1.316-.047 0 .768 1.008 1.231 2.7 1.242.692.004.9.236.9 1.005 0 .931.135 1 1.972 1 1.741 0 1.987.106 2.1.9.11.771.406.918 2.07 1.024 1.857.118 1.935.17 1.783 1.2-.157 1.066-.14 1.075 1.958.939 2.444-.158 2.767.38.829 1.382l-1.288.666.925.645c.508.354 1.474 1.139 2.147 1.744.722.65 1.649 1.084 2.263 1.06l1.041-.04-1-.32-1-.32.943-.04c.594-.025.87-.23.745-.554-.143-.374.173-.472 1.157-.357.745.087 1.355.329 1.355.538s-.18.269-.4.133-.4.02-.4.347-.287.653-.638.724c-.933.189.821 2.329 1.909 2.329.448 0 1.348.45 2.002 1 .754.634 1.682 1 2.538 1 .742 0 1.493.25 1.669.555.409.711 5.317 2.936 7.246 3.286.811.147 2.105.584 2.876.971 2.322 1.167 4.205 1.171 4.508.011.322-1.23-1.012-2.168-2.648-1.861-1.027.193-1.428.105-1.603-.353-.195-.507.2-.609 2.354-.609 2.493 0 2.587.036 2.587 1 0 .983.053 1 3.2 1 2.692 0 3.2.104 3.2.652 0 .523-.28.607-1.408.424-.807-.131-2.301.042-3.5.405l-2.092.634 1.6.732c2.397 1.097 6.184.729 5.691-.553-.421-1.093 13.295-.419 14.173.697 1.146 1.457 8.344 1.437 9.808-.027.916-.915 1.215-.964 5.946-.964h4.982v-1c0-.985.049-1 3.269-1 2.264 0 3.462-.175 3.9-.569.546-.493.766-.492 1.631.003l1 .573-1.152-.26c-.884-.199-1.107-.13-.956.297.114.325.675.528 1.352.489 1.104-.063 1.115-.047.255.362-.718.341-1.062.282-1.7-.296-.439-.397-.799-.537-.799-.31 0 1.393 3.743 1.647 4.264.289.122-.318.483-.578.802-.578s.466-.187.324-.416c-.166-.268.098-.327.742-.165.714.179 1.236.013 1.833-.584.459-.459 1.071-.835 1.359-.835.287 0 .872-.283 1.3-.63.427-.346.506-.491.176-.323-.47.24-.508.181-.175-.27.679-.924.447-1.767-.525-1.905-1.428-.203-1.044-.872.5-.872 1.104 0 1.4.159 1.4.753 0 .415.322.838.715.941.93.243 2.485-.339 2.485-.93 0-.314-.212-.286-.664.087-.609.503-.617.473-.1-.363.49-.792.485-.963-.036-1.294-.419-.267-.445-.384-.087-.388.282-.003.646.355.809.795.275.744.36.757 1.187.178 1.18-.827 1.173-1.544-.009-.97-.891.432-.891.428.038-.382l.939-.818-1.039-.394c-1.539-.586-1.258-1.215.542-1.215q1.58 0 1.951.662c.222.398.629.562 1.019.412.816-.313.847-1.313.05-1.619-1.004-.385-.71-1.455.4-1.455.8 0 1-.2 1-1 0-.939.872-1.304 2.5-1.047.165.026.3-.144.3-.377s.208-.295.462-.138c.286.177.353.11.176-.176-.157-.254-.084-.462.162-.462s.336-.18.2-.4c-.144-.233.263-.4.976-.4 1.021 0 1.224-.157 1.224-.949 0-.799.255-.989 1.612-1.207 1.211-.193 1.705-.499 1.982-1.228.323-.85.516-.929 1.548-.633 1.155.332 1.173.314.847-.822-.402-1.401.173-1.544 1.185-.294.783.968 1.875.799 2.312-.358.322-.854 2.308-2.909 2.811-2.909.942 0 2.009-1.861 1.346-2.346-.511-.374-.456-.383.265-.044 1.723.809 2.166-1.082.534-2.276-.352-.258-.491-.618-.309-.801.183-.182.543-.043.801.309 1.22 1.669 2.973 1.217 2.286-.589-.307-.808-.272-.971.172-.801.328.126.455.489.308.881-.225.602-.175.608.514.067 1.662-1.307 5.786-5.682 5.786-6.139 0-.267.54-.689 1.2-.939.896-.338 1.2-.708 1.2-1.461 0-.792.235-1.043 1.1-1.174l1.1-.167-1.1-.06c-.902-.049-1.1-.247-1.1-1.099 0-.993.084-1.032 1.917-.9 1.866.135 1.912.112 1.763-.904-.16-1.082.766-1.823 1.618-1.296.238.147.31.075.163-.163-.372-.601.121-1.698.762-1.698.295 0 .704.298.908.662.488.872 1.669.412 1.669-.649 0-.447-.161-.813-.357-.813-.197 0-.461-.27-.588-.6-.14-.365 0-.6.358-.6.323 0 .587.27.587.6 0 .881 1.502.731 2-.2.235-.44.659-.8.942-.8 1.059 0 2.223-1.818 1.501-2.346-.494-.362-.416-.362.34-.004.824.392 1.049.354 1.4-.231.53-.886 2.731-3.095 3.606-3.619.542-.324.591-.604.257-1.481-.333-.874-.305-1.04.146-.867.309.119.452.489.321.831-.201.523-.078.513.81-.069.575-.377 1.145-.998 1.266-1.38.123-.388.88-.859 1.712-1.065 1.98-.49 2.225-1.61.452-2.069-2.049-.531-1.927-1.3.206-1.3 1.583 0 1.857-.125 2.062-.94.178-.709.525-.948 1.414-.973.65-.019 1.074.137.945.346a.445.445 0 0 1-.608.15c-.204-.127-.372-.026-.372.223s.315.393.7.319c.752-.143 1.241-1.925.528-1.925-.235 0-.428-.27-.428-.6s.18-.6.4-.6.4.27.4.6c0 .689 1.418.817 1.822.165.147-.239.068-.635-.177-.88-.67-.67-.536-1.885.209-1.885.36 0 1.057-.434 1.548-.965.967-1.043 2.439-1.417 3.398-.864.462.267.495.233.146-.146-.717-.779-.18-2.025.873-2.025.654 0 .963-.263 1.053-.897.092-.643.469-.956 1.328-1.104.66-.114 1.155-.34 1.1-.503-.35-1.035-.011-1.496 1.1-1.496 1.38 0 1.59.764.411 1.5-.462.289-.693.743-.557 1.096.327.852 1.24.75 1.746-.196.235-.44.682-.8.991-.8.31 0 .81-.352 1.111-.781s1.031-.965 1.622-1.19 1.076-.616 1.076-.868c0-.311-.226-.282-.7.09-.632.495-.647.482-.162-.138.296-.378.656-.66.8-.626.541.127 3.262-1.263 3.262-1.667 0-.231.332-.42.738-.42.895 0 2.14-1.29 1.979-2.05-.076-.359.183-.509.748-.431.475.066.979-.067 1.12-.295.159-.257-.005-.315-.43-.151-.522.2-.601.127-.332-.305.627-1.004.539-1.653-.252-1.86-1.207-.315-.904-.908.465-.908.785 0 1.492.316 1.938.867.773.955 1.871.803 2.302-.32.165-.43-.054-.924-.609-1.373-1.197-.969-1.085-1.297.369-1.083 1.162.17 1.226.113 1.069-.955-.163-1.114-.129-1.136 1.764-1.136 1.793 0 1.931-.071 1.931-1 0-.931.135-1 1.972-1 1.741 0 1.987-.106 2.1-.9.106-.745.416-.921 1.793-1.021 1.089-.08 2.029-.46 2.72-1.1 1.221-1.132 2.549-1.24 4.271-.35 1.432.741 2.344.509 2.344-.595 0-.659.315-.81 1.9-.912 1.635-.105 1.918-.251 2.03-1.042.12-.846.269-.899 1.865-.66 1.566.235 1.8.159 2.416-.78.502-.767 1.022-1.04 1.981-1.04.715 0 1.744-.349 2.286-.775s1.446-.891 2.01-1.033 1.403-.692 1.865-1.224c.463-.533 1.203-.968 1.644-.968.442 0 1.163-.36 1.603-.8s1.081-.8 1.424-.8.513-.178.379-.395c-.138-.223.014-.297.346-.169.353.135.774-.119 1.051-.637.254-.474.992-1.047 1.639-1.273.648-.225 1.36-.751 1.584-1.168s.647-.758.942-.758.742-.247.993-.549c.5-.603.197-1.851-.45-1.851-.239 0-.208.239.077.582.266.321.368.771.226 1-.393.636-1.294.499-1.577-.239-.205-.532-.144-.566.321-.18.572.474 1.271-.004.757-.518-1.019-1.018-.449-1.805 1.394-1.923 1.641-.106 1.912-.247 2.027-1.063.11-.772.327-.912 1.219-.781.989.145 1.071.06.921-.959-.144-.982-.036-1.119.882-1.119.848 0 1.045-.188 1.045-1 0-.8.2-1 1-1s1-.2 1-1c0-.879.172-1 1.424-1 .939 0 1.33-.151 1.15-.443-.187-.302.013-.352.626-.157.608.193.812.144.629-.153-.168-.273-.04-.35.34-.204 1.288.495 4.264-2.188 3.915-3.529-.041-.157.175-.189.48-.072.806.309 1.14-.483.646-1.534-.347-.74-.337-.786.055-.247.434.596.609.536 1.755-.595 1.147-1.13 1.209-1.308.627-1.783-.553-.45-.515-.463.261-.087 1.059.514 1.843.176 1.524-.657-.141-.368-.055-.477.236-.297q.46.287.246-.526c-.15-.575-.025-.796.431-.763.425.031.77-.46 1.018-1.448.219-.87.681-1.592 1.107-1.727 1.304-.414 1.687-1.799 1.624-5.878-.033-2.145.099-3.9.294-3.9.972 0 1.612-1.365 1.612-3.438 0-1.961.102-2.22 1.003-2.563.552-.21.98-.52.953-.69-.351-2.153.13-8.509.644-8.509.996 0 .896-26.788-.1-26.828-.599-.024-.584-.078.1-.372s.699-.348.1-.372c-.646-.026-1.07-4.97-.728-8.485.035-.361-.394-1.017-.954-1.457-.856-.674-1.018-1.13-1.018-2.87 0-1.138-.198-2.438-.44-2.891-.32-.597-.32-.747 0-.55.242.15.44.082.44-.151s-.45-.424-1-.424c-.817 0-1-.195-1-1.07v-1.069l1 .939c1.049.985 1.267.847.608-.384-.28-.525-.234-.863.165-1.193.753-.626 1.172.092.875 1.5-.213 1.012-.2 1.024.217.192.332-.663.318-1.19-.057-2.095l-.501-1.21-.782.995c-.431.547-.95.995-1.154.995-.636 0-.427-2.693.229-2.945.901-.345.768-2.779-.2-3.655-.44-.398-.8-1.122-.8-1.608s-.363-1.346-.807-1.91-.962-1.855-1.151-2.868c-.189-1.014-.615-2.151-.946-2.528s-.718-1.071-.861-1.541c-.414-1.36-2.428-3.427-2.067-2.121.233.842.208.877-.182.252-.249-.399-.35-.993-.224-1.321s.094-.513-.071-.411c-.499.308-1.557-.684-1.859-1.746-.229-.805-.195-.882.18-.398.393.509.427.489.226-.133-.131-.403-.241-.943-.244-1.2-.004-.268-.172-.211-.394.133-.213.33-.391.405-.394.167s-.276-.434-.606-.434-.6.132-.6.294m3.353 6.994c.155.405.077.521-.226.334q-.463-.287-.208.379c.141.366.084.666-.127.666s-.346-.45-.3-1c.093-1.128.504-1.309.861-.379m3.767 2.259c.264.264.469.759.455 1.1-.016.38-.166.272-.387-.28-.499-1.24-1.18-1.129-1.228.2l-.04 1.1-.288-1c-.393-1.366.54-2.068 1.488-1.12M389.6 172c0 .66-.18 1.2-.4 1.2s-.4-.54-.4-1.2.18-1.2.4-1.2.4.54.4 1.2m3.972 3.524c-.023.551-.092.528-.372-.124-.328-.764-.345-.766-.372-.033-.015.421-.14.654-.277.517-.138-.137-.139-.539-.003-.892.303-.791 1.062-.396 1.024.532m-1.572-.4c0 .177-.264.672-.587 1.1-.563.743-.588.73-.6-.324-.009-.717.196-1.1.587-1.1.33 0 .6.146.6.324m1.925 4.807c.074.746-.059 1.269-.323 1.269-.247 0-.338.18-.202.4s.057.4-.176.4c-.237 0-.424-.81-.424-1.833 0-2.132.919-2.325 1.125-.236M398.8 244q0 1.2.6 1.2t.6-1.2-.6-1.2-.6 1.2m-1.895 2.514c.052.267-.13.441-.405.386-.63-.126-.614.243.064 1.467.535.966.537.966.986.126.617-1.152.564-1.964-.145-2.236-.344-.132-.555-.023-.5.257M394.8 251.8c0 .8-.2 1-1 1s-1-.2-1-1 .2-1 1-1 1 .2 1 1m-2 4.2q.597.387.101.394c-.274.003-.757.591-1.072 1.306l-.573 1.3.222-1.3c.161-.943.071-1.302-.328-1.306-.433-.005-.423-.089.05-.394.33-.213.69-.388.8-.388s.47.175.8.388m-3.4 1.2c-.136.22-.072.4.143.4s.482-.184.594-.41.156-.18.1.1c-.133.656-1.119.664-1.337.01-.092-.275.039-.5.29-.5.252 0 .346.18.21.4m-5.77 8.11c-.049.478-.598.386-.77-.13-.088-.264.056-.408.32-.32s.467.29.45.45m-18.03 15.919c0 .235-.27.698-.6 1.028-.533.533-.6.486-.6-.428 0-.648.222-1.029.6-1.029.33 0 .6.193.6.429m-4 1.971c-.513.331-.498.389.1.394.385.003.7-.149.7-.339 0-.189.472-.254 1.05-.143.961.183.986.235.3.61-.413.225-.882.605-1.044.844-.2.296-.296.275-.3-.066-.003-.275-.366-.5-.806-.5-.444 0-.8-.267-.8-.6 0-.33.315-.597.7-.594.598.005.613.063.1.394m-1.6 2.024c0 .233-.165.321-.366.197s-.426-.06-.5.144c-.166.457-2.334.076-2.334-.412 0-.194.72-.353 1.6-.353s1.6.191 1.6.424m-4.6 1.976c-.136.22-.777.4-1.424.4s-1.176-.18-1.176-.4.641-.4 1.424-.4c.847 0 1.323.162 1.176.4m1.124.626c.715.275-.847 2.182-1.77 2.162-.382-.009-.337-.139.146-.42 1.135-.661.807-1.164-.8-1.225l-1.5-.057 1.6-.286c.88-.158 1.63-.312 1.667-.343s.333.045.657.169M351.6 289.2c0 .22-.63.4-1.4.4s-1.4-.18-1.4-.4.63-.4 1.4-.4 1.4.18 1.4.4m1.92.832c.55.025.565.073.08.25-.33.121-.984.569-1.454.996-1.024.93-3.768.877-4.08-.078-.165-.505-.095-.517.443-.073.72.594 3.338.49 3.204-.127-.047-.22-.767-.509-1.6-.643l-1.513-.243 1.513-.057c.982-.037 1.599-.282 1.759-.701.227-.591.276-.591.607 0 .199.354.667.658 1.041.676m-5.92 1.121c0 .348-1.32.831-2.3.842-.275.003-.5-.265-.5-.595 0-.419.422-.6 1.4-.6.77 0 1.4.159 1.4.353m-2 1.647c-.779.249-.83.329-.233.36.421.022.654.152.517.289-.392.393-1.564-.197-1.286-.646.137-.222.644-.385 1.126-.363.815.037.807.062-.124.36m-1.6.6c0 .433-.444.6-1.6.6s-1.6-.167-1.6-.6.444-.6 1.6-.6 1.6.167 1.6.6m-.6 1.6c0 .475-1.607.76-2.454.434-.328-.125-.478-.42-.334-.654.325-.526 2.788-.331 2.788.22m-3.4.357c0 .306-.433.665-.963.798-.529.133-1.249.352-1.6.486-.482.185-.637-.009-.637-.798 0-.95.142-1.043 1.6-1.043 1.1 0 1.6.174 1.6.557m1.3-.281c.385.1 1.015.1 1.4 0 .385-.101.07-.183-.7-.183s-1.085.082-.7.183m-21.476 12.486c-.404.653-1.303.529-1.59-.219-.199-.518-.138-.561.294-.203.74.614 1.181.089.59-.703-.397-.533-.356-.529.251.025.399.364.604.859.455 1.1m-6.164 1.838c0 .209-.194.445-.43.523s-.43-.156-.43-.523.194-.602.43-.523.43.314.43.523m-1.66 1.967c0 .311.225.657.5.768.316.127.258.213-.157.233-.362.018-.761.302-.888.632-.126.33-.641.575-1.142.546-.865-.052-.86-.065.087-.25.933-.183.947-.217.2-.518-.759-.305-.754-.323.1-.35.582-.018.898-.275.894-.728-.005-.544-.083-.579-.349-.159-.268.423-.53.441-1.194.086-1.192-.638-1.066-.827.549-.827.941 0 1.4.186 1.4.567m-5.476 4.459c.48.184.422.407-.313 1.2-1.055 1.138-1.627 1.23-1.977.317-.205-.532-.144-.566.321-.18.445.369.643.365.88-.02.176-.285.087-.569-.209-.668-.412-.137-.406-.242.029-.517.659-.418.553-.407 1.269-.132m-27.902 22.08c.261.182-.145.853-1.069 1.763-1.505 1.483-2.515 1.223-1.566-.403.262-.448.393-.492.401-.133.016.702.996.364 1.066-.367.1-1.048.145-1.166.446-1.16.165.003.49.138.722.3M260.8 353.4c0 .333-.356.6-.8.6s-.8-.267-.8-.6.356-.6.8-.6.8.267.8.6m-151.6 12.025c0 .462-.331.593-1.269.5-1.834-.181-1.972-1.125-.164-1.125 1.033 0 1.433.175 1.433.625m-2 1.375c-.478.309-.397.395.4.425.55.021.769.131.487.244-.725.292-1.787-.184-1.489-.666a.94.94 0 0 1 .726-.397c.286.004.237.161-.124.394m4 1c0 .622-.227 1-.6 1s-.6-.378-.6-1 .227-1 .6-1 .6.378.6 1m134.4-.4c0 .33-.18.6-.4.6s-.4-.27-.4-.6.18-.6.4-.6.4.27.4.6m-1.6 1.8c0 .22-.27.4-.6.4s-.6-.18-.6-.4.27-.4.6-.4.6.18.6.4m-100.8 16.25c0 .515-.26.598-1.25.4-.687-.137-1.587-.25-2-.25s-.75-.18-.75-.4.9-.4 2-.4c1.579 0 2 .137 2 .65m2.92 2.604c1.065.046 1.112.083.28.22-2.031.335-2.272.531-1.424 1.155.428.314.59.571.362.571s-.74-.36-1.138-.8c-.434-.48-1.299-.827-2.162-.867l-1.438-.067 1.522-.159c.891-.092 1.621-.415 1.76-.776.211-.551.277-.548.597.025.202.36.926.668 1.641.698m1.08-.854c0 .22-.54.4-1.2.4s-1.2-.18-1.2-.4.54-.4 1.2-.4 1.2.18 1.2.4m.662 2.583c-.13.339-.648.606-1.149.592l-.913-.026.9-.361c.495-.199.9-.578.9-.842s.112-.367.249-.23c.138.137.143.527.013.867m5.338-.483c0 .662-4.49.631-4.711-.033-.107-.322.599-.467 2.278-.467s2.433.155 2.433.5m62.136.123c-.132.343-.501.523-.82.4a3.9 3.9 0 0 0-1.149-.223c-.312 0-.567-.18-.567-.4s.624-.4 1.387-.4c1.092 0 1.337.133 1.149.623m.221 1.217c.264.237-.825 1.361-1.306 1.348-.248-.007-.109-.211.309-.454.727-.422.719-.466-.2-1.004l-.96-.563 1 .266c.55.147 1.071.33 1.157.407m-3.957.536c0 .629-.791.913-1.823.654-1.454-.365-1.181-1.03.423-1.03.77 0 1.4.169 1.4.376m-56.353 1.586c-.432.274-.36.412.33.631.486.154.805.359.709.455s-.661-.01-1.255-.236c-1.13-.43-1.07-1.216.093-1.206.541.005.566.076.123.356m47.264 1.687c-1.295 1.295 1.945 2.191 3.982 1.101.84-.449.84-.451-.126-.986-1.189-.659-3.251-.72-3.856-.115m2.854.193c1.006.386.311.958-1.165.958-1.326 0-2.03-.437-1.522-.944.323-.324 1.86-.332 2.687-.014m-2.065.434c.385.1 1.015.1 1.4 0 .385-.101.07-.183-.7-.183s-1.085.082-.7.183m-38.9.524c-.33.213-.96.373-1.4.354-.659-.028-.624-.09.2-.354 1.414-.453 1.901-.453 1.2 0m5.8.8-.8.344.8.056c.777.055.777.065.029.358-.715.28-.72.322-.067.572 1.109.426 5.363.315 5.649-.148.804-1.301-3.314-2.169-5.611-1.182m22.29.07c-.907.907.262 1.53 2.859 1.524 2.424-.006 4.815-.742 2.651-.816-.874-.03-.903-.072-.229-.336.715-.28.72-.322.067-.572-1.156-.444-4.842-.306-5.348.2m-11.69 2.93c0 .495.733.6 4.2.6s4.2-.105 4.2-.6-.733-.6-4.2-.6-4.2.105-4.2.6"/><path fill="#cdde21" d="M178.8.566c0 .939 16.039 1.917 17.499 1.067.627-.365.606-.41-.199-.421-.528-.007-.9-.26-.9-.612 0-.514-1.178-.6-8.2-.6-6.802 0-8.2.096-8.2.566M197.2.6c0 .48.6.6 3 .6s3-.12 3-.6-.6-.6-3-.6-3 .12-3 .6m9.026 1.771c-1.553 1.717 1.675 2.566 4.337 1.142.747-.4.74-.436-.192-.908-1.849-.937-3.428-1.026-4.145-.234m-34.387.114-1.16.422.96.532c1.151.638 3.81.729 4.172.143.789-1.276-1.637-1.946-3.972-1.097m5.846 1.19c-.267.267-.485.705-.485.975 0 1.026-6.35.891-7.03-.15-.324-.495-.874-.9-1.224-.9-.476 0-.399.199.31.796l.944.796-1.302-.627c-1.082-.52-1.549-.544-2.764-.143l-1.461.482.964.533c.529.293 1.593.454 2.363.357 1.186-.15 1.247-.123.4.175-.939.33-.946.354-.124.391 1.983.09 1.151.779-1.093.904-2.23.125-2.437.065-2.645-.764-.284-1.135-2.112-1.233-3.079-.165-.723.798-.362 1.364 1.501 2.358.653.349.554.43-.713.577-1.272.149-1.503.048-1.703-.749-.321-1.279-2.108-1.237-3.344.079-.517.55-1.378 1-1.915 1-.907 0-2.284.904-4.722 3.1-.55.495-1.158.9-1.352.9s-.688.426-1.097.946-1.335 1.251-2.057 1.625c-1.403.725-1.254 1.522.379 2.04.42.134.764.391.764.572 0 .459-2.583.715-3.56.353-.723-.267-.767-.196-.427.698.418 1.1-.21 1.617-1.541 1.269-.596-.156-.687.014-.541 1.008.168 1.146.122 1.188-1.114 1.006-1.222-.179-1.28-.13-1.122.947.154 1.05.067 1.136-1.136 1.136-1.211 0-2.559.833-2.559 1.582 0 .179-.373.422-.83.542-.456.119-.931.607-1.056 1.083-.175.668-.466.832-1.27.713-1.025-.151-1.042-.115-.909 1.923.155 2.393.355 2.496 5.465 2.795 11.891.696 32.041 2.71 37.202 3.719 1.099.214 3.528.6 5.398.857s4.48.709 5.8 1.004c1.32.294 3.57.735 5 .979 3.714.634 11.353 2.347 14.4 3.229 1.43.415 3.32.872 4.2 1.017s2.05.488 2.6.761c.55.274 2.17.78 3.6 1.126 2.879.695 5.575 1.534 8.6 2.677 1.1.416 2.54.877 3.2 1.026.66.148 1.74.587 2.4.975s1.83.835 2.6.992 1.961.627 2.647 1.043 1.463.757 1.725.757c.494 0 2.578.916 8.417 3.698 5.249 2.501 10.485 4.606 12.228 4.916 6.944 1.235 18.353 4.53 22.879 6.608.932.428 1.922.779 2.2.779.277.001 1.056.339 1.732.751.675.411 1.665.875 2.2 1.03 1.081.314 5.703 2.57 8.172 3.99.88.506 2.478 1.402 3.551 1.99a57 57 0 0 1 3.6 2.175c.907.608 2.909 1.869 4.449 2.803s3.25 2.027 3.8 2.43a2510 2510 0 0 0 12.105 8.748c1.987 1.409 5.801 4.482 8.06 6.494 1.119.997 3.115 2.701 4.435 3.785 3.091 2.54 19.269 18.606 22.4 22.243a357 357 0 0 0 2.939 3.385c2.529 2.796 8.113 9.909 10.164 12.948.826 1.225 1.816 2.621 2.2 3.103 1.468 1.844 3.658 5.19 6.097 9.315 2.62 4.432 5.2 5.925 5.2 3.009 0-.77.18-1.4.4-1.4s.403.225.406.5q.007.5.394-.1c.233-.361.39-.41.394-.124a.94.94 0 0 1-.397.726c-.469.29.625 1.525 1.459 1.647.809.119.715-2.514-.106-2.973-.55-.308-.505-.391.3-.545.896-.172.946-.079.873 1.643-.053 1.27.008 1.521.2.826.152-.55.608-1.489 1.014-2.086.427-.629.829-2.143.957-3.6.127-1.444.445-2.646.748-2.825.666-.393 1.353-2.828 1.356-4.805.001-.878.336-1.973.795-2.6.536-.733.881-2.056 1.063-4.084.148-1.65.507-3.368.799-3.819 1.389-2.144 1.673-11.225.391-12.507-1.641-1.64-2.344.384-2.188 6.292.107 4.04.018 5.407-.358 5.533-1.145.383-.659-12.66.512-13.745l1.012-.938-.042-7.442c-.039-6.679.029-7.494.663-7.957 1.143-.836 1.265-8.802.157-10.299-.521-.705-.802-1.711-.802-2.871 0-1.321-.26-2.095-1-2.974-.55-.654-1-1.646-1-2.205 0-1.394-.61-2.878-1.584-3.852-.449-.449-.816-1.107-.816-1.463s-.495-1.237-1.1-1.957c-1.079-1.284-1.693-2.073-3.359-4.317-.87-1.172-2.341-.68-2.341.783 0 .296-.18.538-.4.538s-.4-.807-.4-1.792c0-1.579-.119-1.823-1-2.044-.639-.16-1-.532-1-1.031 0-.429-.18-.669-.4-.533s-.4.057-.4-.176-.29-.424-.645-.424c-.49 0-.603-.29-.47-1.2.121-.819.008-1.2-.354-1.2-.292 0-.531-.428-.531-.951 0-1.32-.933-2.053-1.596-1.254-.303.366-1.155.6-2.153.593-1.419-.011-1.539-.074-.851-.45 1.892-1.035 2.048-3.138.233-3.138-.407 0-.834-.362-.95-.805s-.845-1.071-1.62-1.394c-.774-.324-1.521-.772-1.659-.995s-.602-.406-1.031-.406-1.345-.54-2.036-1.2c-.831-.794-1.666-1.2-2.471-1.2-.668 0-1.586-.336-2.04-.748-1.351-1.222-2.687-1.327-4.321-.338-1.677 1.014-9.502 1.145-9.508.159-.007-.997-2.186-1.473-6.777-1.48-4.395-.006-4.666-.055-5.562-1-.902-.951-1.148-.993-5.774-.993-4.461 0-4.906-.069-5.789-.9-.896-.843-1.405-.914-8.026-1.122-3.888-.122-6.709-.269-6.269-.327.758-.1.753-.128-.1-.539-.495-.239-.9-.587-.9-.773s-1.71-.339-3.8-.339c-3.765 0-3.8-.009-3.8-.979 0-.881.19-.994 1.9-1.123 1.045-.079-.874-.059-4.264.044-4.62.141-6.091.071-5.876-.277.158-.256.782-.465 1.387-.465s1.449-.285 1.877-.633c.765-.624.765-.629-.024-.399-.779.228-.78.219-.041-.354.73-.566.718-.605-.326-1.001-1.877-.714-3.878-.526-4.117.387-.186.709-.533.797-3.063.772-2.711-.027-2.883-.672-.197-.744 3.481-.093 3.061-2.285-.535-2.789-1.167-.163-2.841-.665-3.721-1.114s-2.32-.946-3.2-1.105c-.88-.158-1.913-.568-2.295-.911s-1.236-.643-1.899-.666c-.662-.024-1.205-.178-1.205-.343-.001-.165-.302-.3-.67-.3-.367 0-.984-.286-1.371-.636-.386-.35-1.478-.81-2.425-1.023-.948-.213-2.034-.668-2.413-1.011-.379-.344-1.499-.716-2.489-.827-1.041-.118-2.086-.519-2.478-.953-.859-.949-3.755-1.065-3.755-.15 0 .419-.422.6-1.4.6-1.232 0-1.4-.122-1.4-1.014 0-.879.103-.959.774-.6 1.628.871 2.747.095 1.566-1.086-.347-.347-.802-.318-1.849.12-2.586 1.08-4.322.562-2.396-.716.795-.529.83-.671.316-1.29-.545-.657-.615-.65-1.244.128-.915 1.129-3.463.786-3.646-.491-.101-.711-.435-.871-2.021-.973-1.715-.11-1.9-.217-1.9-1.1 0-.907-.145-.978-2-.978-2.086 0-2.559-.503-1.323-1.407.622-.455.589-.599-.4-1.775-.592-.703-1.077-1.426-1.077-1.606 0-.786-1.421-.826-2.044-.057-.864 1.067-2.318.986-2.03-.114.205-.785.214-.785.517-.02.216.545.275.359.196-.621-.078-.962-.375-1.52-.95-1.784-.46-.211-1.025-.796-1.254-1.3s-.667-.916-.971-.916c-.497 0-1.27-.518-4.664-3.125-.55-.423-1.566-.893-2.259-1.044s-1.575-.626-1.962-1.054c-.408-.451-1.223-.777-1.945-.777-.806 0-1.416-.279-1.738-.795-.298-.478-1.136-.898-2.096-1.051-.88-.141-1.6-.391-1.6-.557 0-.36-1.717-1.052-3.474-1.398-1.046-.206-1.381-.086-1.879.675-.879 1.345-6.656 1.185-7.264-.202-.461-1.05-25.881-1.614-26.898-.597M216.8 6.577c0 .813 1.577 1.823 2.846 1.823.588 0 1.172.269 1.298.598s.82.958 1.543 1.398l1.313.801-1.5.002c-1.334.001-1.5-.11-1.5-.999 0-.933-.133-1-2-1s-2-.067-2-1-.133-1-2-1c-3.174 0-2.402-.982.9-1.146.717-.035 1.1.147 1.1.523m3.177.851c-.604.728-1.348.729-1.95.004-.656-.79.637-1.533 1.688-.97.586.313.639.511.262.966m-1.602-.613c-.447.277-.416.394.163.617.394.151.896.094 1.116-.126.536-.536-.538-.948-1.279-.491m-60.826 3.83c-.261.635-.435 1.47-.386 1.855.07.56-.217.699-1.438.694-1.604-.007-1.178-.742.475-.819.466-.022.583-.125.279-.247-.39-.156-.339-.343.2-.741.678-.5.661-.556-.279-.934l-1-.402 1.1-.026c.605-.014 1.1-.235 1.1-.492 0-.256.095-.371.211-.255s-.002.731-.262 1.367m3.651-.447c0 .664-1.136.892-1.3.261-.153-.585-.028-.713.551-.562.412.108.749.243.749.301m70.4 3.016c0 .212-.186.386-.414.386-.281 0-.276.258.014.8.391.731.304.8-1.01.8-.856 0-1.337-.162-1.19-.4.136-.22.642-.403 1.124-.406.632-.005.728-.1.342-.344-.422-.268-.388-.394.162-.605.648-.249.643-.308-.067-.878-.723-.58-.716-.589.139-.175.495.24.9.61.9.822m-4.4-.414c.446.288.216.389-.9.394-.825.003-1.5-.174-1.5-.394 0-.509 1.612-.509 2.4 0M150 14.892c0 .255-.199.241-.537-.04-.698-.579-1.19-.087-.611.611.305.367.311.537.021.537-.701 0-.974-.796-.478-1.394.493-.594 1.605-.396 1.605.286m2.633-.492c.312 0 .567.18.567.4s-.63.4-1.4.4c-1.333 0-1.731-.336-1.121-.946.154-.153.528-.183.833-.066s.809.212 1.121.212m-20.181 12.137c-.664.801.13 1.742.918 1.088.346-.287.63-.662.63-.831 0-.565-1.136-.753-1.548-.257M106.2 28.383c-.44.198-1.43.396-2.2.439l-1.4.078 1.8.415c2.074.478 12.016.634 11.738.185-.102-.165 2.75-.34 6.338-.388l6.524-.089-5.972-.123c-3.285-.067-6.165-.261-6.4-.431-.614-.443-9.475-.516-10.428-.086m4.374.375c.268.434-.72.854-1.907.81-.477-.017-.641-.122-.365-.234.277-.111.401-.367.277-.568s.224-.366.774-.366 1.099.161 1.221.358m-16.758 1.783-1.184.505 1.692.677c.931.372 2.274.656 2.984.63 1.064-.039.96-.103-.588-.364-2.688-.453-3.139-.836-1.705-1.447.652-.278.915-.506.585-.506s-1.133.227-1.784.505m2.763.225c.124.201 0 .457-.277.568-.276.112.038.203.698.203s.974-.091.698-.203c-.277-.111-.401-.367-.277-.568S97.356 30.4 97 30.4s-.545.165-.421.366m164.929.359c.095.284-.217.456-.775.429-.766-.038-.797-.082-.175-.241.618-.158.655-.266.2-.584-.472-.33-.469-.366.017-.234.316.085.646.369.733.63m-159.816.695c-.28.31-.46.703-.4.872.317.902-8.529.715-9.122-.192-.613-.938-4.137-1.417-3.56-.484.166.269-.1.326-.75.163-.761-.191-1.135-.048-1.53.584-.374.599-.934.837-1.97.837-.885 0-2.021.389-2.922 1-.81.55-1.736 1-2.056 1s-.596.315-.614.7c-.018.413-.113.496-.232.203-.269-.667-1.736.103-1.736.911a.583.583 0 0 1-.576.586c-.317 0-.667.146-.778.325-.294.476 2.547.179 3.161-.331.362-.3.601-.304.781-.013.404.653 1.015.492.75-.197-.13-.339-.079-.564.113-.5s.394-.064.449-.284-.065-.4-.267-.4c-.201 0-.501-.135-.666-.3s.18-.3.766-.3 1.067-.21 1.067-.467c0-.256.095-.371.211-.255s-.002.731-.262 1.367c-.261.635-.435 1.47-.386 1.855.073.585-.241.7-1.91.7-1.767 0-2.012.104-2.125.9-.099.699-.431.929-1.482 1.029-1.078.103-1.307.006-1.12-.479.356-.93-1.101-1.187-2.534-.446-1.339.693-1.161 1.498.444 2.007 1.567.498.743 1.062-1.353.926-2.108-.136-2.116-.133-1.954.963.182 1.236-.435 1.451-1.4.486-.458-.458-.749-.502-1.148-.171-.552.459-.367 1.585.262 1.585.196 0 .357.29.357.645 0 .48-.288.604-1.119.482-1.026-.151-1.105-.072-.954.954.146.996.038 1.124-.982 1.162-2.569.095-2.745.156-2.745.957q0 .8-1 1.003c-.652.132-1.045.515-1.128 1.1-.149 1.047-.681 1.145-1.543.283-.932-.932-2.022.027-1.139 1.003.771.852.791 2.011.034 2.011-.317 0-.705.208-.862.462q-.29.465.276.136c.333-.193.426-.178.229.038-.368.402-.54.441-2.228.514-1.458.063-2.388 2.044-1.416 3.016.973.973.753 2.343-.323 2.007-.495-.154-1.032-.482-1.194-.727-.163-.248-.296.03-.3.627-.004.793-.241 1.119-.906 1.246-.548.105-.423.151.318.117 1.177-.054 1.688 2.052.537 2.214a24 24 0 0 1-.855.1c-.526.053-.57.216-.65 2.422-.04 1.1-.229 1.398-.95 1.5-.825.117-.91.368-1.017 3.002-.107 2.618-.196 2.886-1 3-.765.109-.899.409-1.004 2.237l-.122 2.111-1.378-.093c-1.464-.098-1.569-.209-1.02-1.077.281-.442.431-.404.782.2.625 1.076.534.134-.098-1.005l-.528-.953-.457 1.313c-.252.722-.458 1.753-.458 2.292 0 .579-.505 1.452-1.234 2.132-1.01.945-1.188 1.359-.982 2.297.176.801.058 1.305-.393 1.679-1.836 1.524-2.246 5.851-.672 7.093.559.441.53.5-.243.5-.521 0-.876.249-.876.614 0 .49.161.528.8.186.774-.414.798-.312.74 3.086-.033 1.933-.138 2.99-.233 2.35s-.469-1.617-.831-2.17c-.489-.745-.532-1.047-.168-1.169.271-.09.478-.464.46-.83-.019-.42-.106-.481-.234-.165-.111.277-.367.401-.568.277s-.366-.046-.366.174c0 .221-.36.332-.8.247-.501-.097-.8.061-.8.423 0 .317.156.577.346.577.193 0 .2.756.018 1.7-.499 2.58-.442 3.104.336 3.068.418-.018.499-.112.2-.233-.275-.111-.5-.389-.5-.617 0-.268.195-.254.549.04.779.646.921 7.909.155 7.909-.293 0-.533-.33-.533-.734s.142-.733.315-.733.314-.371.314-.824c0-.5-.174-.716-.443-.55q-.442.274-.186-.534a1.42 1.42 0 0 0-.338-1.402c-.327-.327-.513-.676-.414-.776s-.097-.181-.436-.181c-.35 0-.529.231-.413.534.113.293.02.533-.206.533s-.3.18-.164.4.087.4-.108.4c-.605 0-.504 3.892.114 4.405.307.255.722.363.921.24s.321.176.269.665-.117 3.005-.145 5.59l-.051 4.7h-1c-.55 0-.979.135-.953.3.346 2.189-.135 8.5-.647 8.5-.33 0-.6.27-.6.6s-.18.6-.4.6c-.241 0-.4 1.667-.4 4.2 0 3.497-.102 4.2-.61 4.2-.981 0-1.321 1.578-1.444 6.703-.113 4.676-.141 4.809-.975 4.657-.816-.148-.862.007-.938 3.141-.063 2.603-.238 3.465-.832 4.098-.414.441-.763.936-.777 1.101a2.6 2.6 0 0 1-.057.4c-.119.357-.306 2.443-.395 4.417-.057 1.275-.283 2.428-.5 2.562-.244.151-.266.03-.057-.317.288-.479.238-.481-.338-.013-.372.302-.674.752-.671 1s.181.181.394-.149c.282-.436.389-.457.394-.076.003.288.2.403.437.257.278-.172.384.137.3.876-.072.629-.356 1.166-.631 1.193s-.68.073-.9.1c-.222.028-.4 1.252-.4 2.755 0 2.422-.094 2.747-.9 3.1-.777.341-.916.745-1.021 2.95l-.12 2.555-1.131-1.083-1.13-1.083-.42 1.203c-.328.942-.295 1.307.151 1.677.384.319.567 1.277.558 2.925-.011 2.113-.085 2.355-.539 1.757-.29-.381-.644-.576-.788-.433-.143.143-.26-.1-.26-.54s-.118-.918-.263-1.063c-.502-.502-1.337.634-1.337 1.818 0 .817-.391 1.556-1.243 2.352-1.322 1.236-1.381 2.973-.125 3.68.809.455.805 5.08-.004 5.08-.455 0-.496-.266-.2-1.297.205-.714.354-1.659.332-2.1-.032-.651-.092-.614-.318.197-.241.864-.316.902-.554.283-.235-.611-.411-.646-1.182-.235-.856.456-.873.441-.306-.283.555-.707.547-.724-.1-.216-.385.302-.7.994-.7 1.537s-.365 1.452-.812 2.02c-.629.8-.697 1.105-.3 1.357.375.238.325.326-.188.331-.385.003-.7.268-.7.588s-.45 1.246-1 2.056c-1.2 1.769-1.375 4.103-.3 4.018.953-.076 1.049 4.182.1 4.441-.533.146-.533.117 0-.26.33-.234.397-.428.149-.431s-.682-.562-.964-1.243c-.534-1.29-.787-1.144-1.383.798-.24.782-.175.914.352.712.46-.176.646-.021.646.54 0 .433.225.79.5.793q.503.005.072.3c-.235.162-.474 1.244-.53 2.406-.077 1.588-.343 2.372-1.072 3.158-.77.831-.97 1.479-.97 3.144 0 1.752-.115 2.088-.7 2.042-.439-.035-.679.205-.644.644.03.385-.105.7-.3.7-.196 0-.356 1.238-.356 2.751 0 2.331-.126 2.835-.822 3.3-.985.658-1.108 1.219-1.147 5.249-.025 2.475-.152 3.1-.631 3.1-.84 0-.753 1.501.1 1.724.667.174.667.185 0 .23-.999.066-1.099 44.846-.1 44.846.837 0 .754 1.101-.1 1.324-.667.174-.667.185 0 .23.652.043.91 1.308.806 3.954-.011.279.272.459.628.4.357-.06.655.072.663.292s.182.67.386 1c.319.517.277.524-.302.055-.37-.3-.558-.75-.418-1s.003-.217-.304.073c-.475.45-.424.639.341 1.265 1.077.88 1.237 3.371.285 4.424-.512.566-.532.861-.12 1.766.527 1.156 1.535.542 1.535-.936 0-.467-.118-.438-.536.133-.468.64-.566.653-.776.105-.32-.834.548-1.505 1.593-1.232 1.219.319 1.491 2.839.433 4.008-.723.797-.735.946-.166 2l.614 1.139.507-1.3c.585-1.502 1.417-1.709 1.603-.4.082.578.45.946 1.028 1.028 1.384.196 1.302 2.684-.1 3.036-1.372.345-1.262.84.6 2.683.88.871 1.6 1.403 1.6 1.181s.27-.299.6-.173c.338.13.6.01.6-.274q.001-.503.791.21c.434.394.694.872.576 1.062s.336.347 1.009.347c1.298 0 1.657.659.584 1.071-.353.135-.8-.006-.994-.313-.224-.353-.356-.385-.36-.087-.003.26.219.71.494 1s.5.799.5 1.129.225.555.5.5.5.08.5.3.45.4 1 .4c1.135 0 1.286.621.39 1.611-.548.605-.543.73.043 1.217.557.462.727.441 1.154-.143.984-1.345 2.182-.522 1.392.955-.373.696-.358.794.081.521.9-.56 2.49-.15 3.387.873.465.531 1.23.966 1.7.966.643 0 .853.246.853 1 0 .772.206 1 .905 1 .555 0 1.058.348 1.3.9.243.553.815.948 1.486 1.026.6.069 1.436.564 1.858 1.1.421.536 1.124.974 1.562.974.84 0 1.437 1.293.862 1.866-.185.184.646.272 1.846.197 2.329-.146 2.739.258 1.571 1.548-.548.605-.543.73.043 1.217.557.462.727.441 1.154-.143.503-.688 3.413-1.007 3.413-.374 0 .405-1.482 1.674-1.7 1.456-.091-.092-.167.125-.167.481 0 .357.57.886 1.266 1.177.695.291 1.472.779 1.725 1.084.524.631 2.876.449 3.407-.264.193-.259.261 0 .163.618-.134.84-.035 1.016.468.837.351-.125.509-.085.352.089-.544.602.487 1.865 1.31 1.603.437-.138.776-.059.776.181 0 .235.242.427.538.427s.866.363 1.267.806c.452.499 1.008.717 1.462.573.403-.128.733-.041.733.194s.377.427.837.427 1.294.36 1.854.8c.573.451 1.623.8 2.405.8.897 0 1.809.354 2.577 1 .835.702 1.626.986 2.658.953l1.469-.048-1.2-.305c-1.133-.288-1.144-.31-.2-.384.55-.044.774-.17.498-.282-.277-.111-.401-.367-.277-.568s-.009-.369-.297-.372c-.381-.005-.36-.112.076-.394.434-.28.17-.361-.956-.294-.958.058-1.625-.098-1.734-.406-.129-.365.482-.5 2.257-.5 2.311 0 3.468.786 1.933 1.313-.275.095-.185.125.2.067.815-.122.99 1.236.2 1.555-.392.158-.389.209.013.233.281.018.616-.238.742-.568.389-1.013 7.345-.864 7.345.157 0 1.056.738 1.243 4.899 1.243 1.999 0 3.521.114 3.382.253-.978.977.618 1.644 4.105 1.714l3.614.074v-1.331c0-1.025-.575-2.067-2.5-4.529-1.375-1.759-3.214-4.274-4.086-5.589s-1.997-2.901-2.5-3.523-.914-1.47-.914-1.886-.345-.94-.767-1.166-.883-.933-1.023-1.572c-.141-.639-.595-1.469-1.01-1.845s-.866-1.189-1.002-1.808-.488-1.218-.782-1.331-.759-.893-1.032-1.733c-.274-.84-.741-1.672-1.04-1.847-.298-.176-.741-1.109-.984-2.073-.243-.965-.684-1.847-.98-1.96-.296-.114-.742-.963-.991-1.888s-.701-1.929-1.005-2.233-.677-1.222-.829-2.04-.699-2.044-1.215-2.725-.943-1.401-.947-1.6c-.008-.39-1.851-3.319-3.138-4.986-.435-.564-1.925-3.084-3.311-5.6-1.386-2.517-2.751-4.814-3.032-5.105-.282-.29-.512-.747-.512-1.015s-.356-1.185-.791-2.039c-.435-.853-1.002-2.196-1.258-2.984-.257-.788-.801-1.862-1.209-2.387S51.6 278.601 51.6 278s-.36-1.55-.8-2.109c-.44-.56-.806-1.349-.813-1.754s-.371-1.727-.809-2.937c-2.942-8.136-5.335-19.679-6.8-32.8-.902-8.079-.236-32.617 1.036-38.187.102-.447.362-2.752.577-5.122s.579-4.661.809-5.091.664-2.65.964-4.933.733-4.502.964-4.932.687-2.301 1.015-4.159.857-4.006 1.175-4.776.7-2.361.849-3.536.622-2.792 1.052-3.594c.429-.802.781-1.872.781-2.377s.29-1.588.644-2.406.968-2.657 1.364-4.087a91 91 0 0 1 1.732-5.4c.556-1.54 1.295-3.61 1.642-4.6s.977-2.61 1.401-3.6c.423-.99 1.253-3.06 1.844-4.6 2.074-5.401 8.266-18.878 10.2-22.2.192-.33.885-1.686 1.54-3.013.655-1.328 1.653-3.094 2.217-3.926s1.296-2.086 1.625-2.787 1.125-2.174 1.77-3.274a97 97 0 0 0 2.001-3.6c.456-.88 1.36-2.32 2.01-3.2s2.042-3.009 3.095-4.73c3.764-6.153 7.557-11.655 10.941-15.87.795-.99 1.667-2.217 1.938-2.727.468-.879 8.704-11.25 9.271-11.673.148-.11.94-1.1 1.761-2.2.822-1.1 1.701-2.18 1.955-2.4s1.444-1.57 2.645-3c1.2-1.43 3.628-4.134 5.394-6.008a318 318 0 0 0 5.61-6.126c1.32-1.496 3.106-3.244 3.969-3.885 1.579-1.174 2.777-3.534 2.354-4.637-.321-.836-28.076-.762-28.831.076m159.81.88c.108.327-.261.5-1.069.5-.853 0-1.233-.193-1.233-.627 0-.762 2.048-.649 2.302.127m4.166-.2c1.18.951 1.178 1.799-.005 1.557-.752-.154-.858-.261-.363-.366 1.031-.22.852-.769-.4-1.226-.605-.221-.819-.416-.476-.433s.902.193 1.244.468M90.339 34.229c1.755.876 1.621.971-1.372.971-1.934 0-2.587-.133-2.458-.5.096-.275.651-.448 1.233-.385s1.058-.072 1.058-.3c0-.537.046-.53 1.539.214m-4.751.155c.953.603.303.73-.788.155-.551-.291-.731-.527-.4-.527s.865.168 1.188.372m179.792.461c.227.212-.136.355-.9.355-.896 0-1.28-.188-1.28-.627 0-.653 1.373-.482 2.18.272m5.82 1.755c0 .453-.489.6-2 .6-1.1 0-2-.169-2-.375s.729-.365 1.619-.353c.891.013 1.731-.089 1.867-.225.385-.385.514-.297.514.353m-186 .2c0 .22-.765.397-1.7.394-1.245-.005-1.539-.11-1.1-.394.79-.51 2.8-.51 2.8 0m190.4 2.214c0 .102-.675.161-1.5.132-.94-.035-1.162-.12-.594-.229.498-.096.791-.359.652-.586-.154-.249.08-.232.594.043.466.25.848.538.848.64m5.795.439c-.655.479-.66.547-.056.779 1.371.526.577.968-1.739.968-1.32 0-2.4-.175-2.4-.39 0-.224.536-.283 1.262-.138q1.264.254 1-.172c-.169-.272.048-.344.6-.2.564.148.77.075.594-.209a.5.5 0 0 1 .144-.691c.227-.14.311-.421.186-.623s.077-.251.449-.108c.628.241.625.298-.04.784M74 40.649c0 .483-.131.54-.513.223-.291-.241-.746-.283-1.048-.096-.422.261-.377.422.213.765.411.239.545.44.297.447-.952.026-1.44-1.096-.671-1.544 1.055-.613 1.722-.534 1.722.205m253.907 8.441c.719.089 1.799.087 2.4-.004s.013-.164-1.307-.162-1.812.077-1.093.166m12.804 2.003c.94.085 2.38.084 3.2-.002.819-.086.049-.155-1.711-.154s-2.43.072-1.489.156m5.769 1.387c-1.129 1.129-.526 1.52 2.346 1.52 3.518 0 5.028-.612 3.541-1.436-1.21-.67-5.243-.728-5.887-.084M358 54.432c.487.341.449.379-.2.203-.44-.119-1.044-.063-1.343.124-.824.518.166.968 1.466.667.803-.187.924-.147.477.156-.849.575-1.823.513-2.373-.15-.372-.448-.32-.656.251-.988.903-.525.988-.526 1.722-.012m.034 1.897c.772-.077 1.356.071 1.46.371.126.364-.488.5-2.261.5-2.334 0-2.433-.041-2.433-1.009 0-.978.031-.989.974-.371.539.353 1.549.58 2.26.509M366 58.444c.495.356.469.389-.151.187-.413-.135-.998-.04-1.3.211s-.549.284-.549.074c0-.939 1.017-1.179 2-.472m-2.6.356c.147.238-.329.4-1.176.4-.783 0-1.424-.18-1.424-.4s.529-.4 1.176-.4 1.288.18 1.424.4m3.8 1.8q0 .6-1.2.6c-.66 0-1.2-.167-1.2-.372 0-.32.385-.462 2.1-.774.165-.029.3.216.3.546m18.394 20.1c.003.275-.174.5-.394.5s-.397-.495-.394-1.1c.006-1.126.774-.542.788.6M387.6 84c0 .66-.18 1.2-.4 1.2s-.4-.54-.4-1.2.18-1.2.4-1.2.4.54.4 1.2m2.632 3.374c.359.36.423.668.171.824-.222.137-.403.059-.403-.174s-.281-.424-.624-.424-.512-.18-.376-.4c.332-.536.552-.505 1.232.174M41.154 89.5c-.026.825-.13 1.183-.231.795s-.351-.601-.556-.474c-.205.126-.163-.232.094-.796.628-1.377.747-1.295.693.475m348.641.933c.216 1.153.145 1.434-.363 1.434-.495 0-.629-.442-.62-2.034.013-2.22.512-1.915.983.6M41.2 92.175c0 .71-.206.96-.756.918-.466-.035-.675-.268-.544-.608.175-.458.276-.461.59-.019.271.381.323.276.182-.366-.108-.495-.034-.9.165-.9.2 0 .363.439.363.975m-4.523 1.384c-.526 1.289-.599 1.878-.274 2.2s.378.266.198-.207c-.137-.359.044-.939.404-1.3.358-.358.592-1.056.52-1.551-.106-.733-.264-.573-.848.858M391.671 97.4c.04 2.31.085 4.59.1 5.067.016.476-.196.941-.471 1.033-.383.128-.5-1.058-.5-5.067 0-3.222.154-5.233.4-5.233.237 0 .429 1.714.471 4.2m3.249 9.4c0 1.21.075 1.705.167 1.1a9 9 0 0 0 0-2.2c-.092-.605-.167-.11-.167 1.1m-361.678 6.6c.158 1.189-.041 1.499-.642 1-.691-.573-.66-.69-.799 3.069-.102 2.77.94 4.324 2.113 3.15.121-.12-.059-.219-.398-.219-.34 0-.865-.315-1.167-.7-.494-.63-.481-.647.133-.166.845.662 1.503.301 1.565-.858.037-.681.116-.609.353.324.287 1.126.308 1.095.353-.5.027-.979-.136-1.7-.385-1.7-.263 0-.337-.431-.188-1.108.156-.711.022-1.392-.374-1.9-.34-.436-.594-.612-.564-.392m361.695 4.8c.002 1.76.072 2.43.156 1.489.085-.94.084-2.38-.002-3.2-.086-.819-.155-.049-.154 1.711M30.85 121.874c-.027.701-.214 1.705-.415 2.233-.471 1.239.015 5.178.665 5.394.353.117.521-.462.57-1.968l.07-2.133.155 1.8c.086.99.292 1.938.458 2.107.398.405-.158-4.268-.591-4.967-.184-.297-.453-1.26-.598-2.14-.244-1.477-.268-1.502-.314-.326m-1.1 6.08c.04 1.407.248 1.878 1.05 2.382l1 .627-.87-.981c-.479-.54-.951-1.612-1.05-2.382-.145-1.13-.17-1.062-.13.354m362.258 7.056c.748.901.314 1.005-.578.138-.423-.411-.581-.748-.349-.748s.649.274.927.61m-363.286.002c-.147.146-.159.548-.026.893.147.385.076.525-.186.363-.234-.145-.533.015-.664.355-.13.34-.07.515.134.389s.559.09.789.48c.38.643.443.618.692-.271.254-.907.296-.922.578-.2.239.612.311.638.333.123.034-.802-1.281-2.502-1.65-2.132M389.4 136.4c-.145.66-.113 1.2.071 1.2.447 0 .156 3.691-.332 4.2-.245.256-.355-.86-.306-3.1.041-1.925.246-3.5.453-3.5.211 0 .262.528.114 1.2m-362.48 6.4c0 1.21.075 1.705.167 1.1a9 9 0 0 0 0-2.2c-.092-.605-.167-.11-.167 1.1m360.785 4.673c.154 1.213.058 1.732-.347 1.888-.441.169-.555-.306-.546-2.274.013-2.702.532-2.478.893.386m-361.397-1.166c-.281 1.074.697 2.048 1.376 1.369.329-.329.332-.695.01-1.363-.409-.849-.444-.857-.495-.113-.054.783-.062.783-.36.021-.292-.746-.314-.743-.531.086M385.6 153.2c0 1.333-.178 2.4-.4 2.4s-.4-1.067-.4-2.4.178-2.4.4-2.4.4 1.067.4 2.4m-360.707.8c0 .77.082 1.085.183.7s.1-1.015 0-1.4c-.101-.385-.183-.07-.183.7M13.2 199.614c0 1.649-.57 2.048-1.549 1.086-.407-.401-.483-.381-.38.1.071.33-.141.6-.471.6s-.66-.425-.734-.944c-.085-.602.024-.847.3-.677.239.148.434.065.434-.184 0-.256.281-.171.648.195.717.718 1.21.551.719-.243-.658-1.065-.447-2.311.321-1.9.499.267.712.856.712 1.967m-2 3.986c0 1.402-.111 1.596-.9 1.568-.495-.017-.675-.122-.4-.233s.5-.532.5-.936c0-.793.388-1.999.643-1.999.086 0 .157.72.157 1.6m-6.933 9.067c-.529.528-.252 2.428.476 3.267.74.853.745.853 1.462.061.409-.453.52-.795.257-.795-.26 0-.479-.655-.502-1.5-.035-1.339-.074-1.392-.36-.5-.176.55-.338.764-.36.476-.023-.294-.245-.397-.508-.234q-.471.293-.213-.376.407-1.058-.252-.399m-1.793 5.292c-.364 1.044-.344 1.538.097 2.379l.556 1.061.505-1.109c.418-.918.402-1.325-.097-2.378l-.602-1.27zM0 225.8c0 .622.227 1 .6 1s.6-.378.6-1-.227-1-.6-1-.6.378-.6 1m6.444 78.747c-.743.895.478 1.674 1.314.838.717-.718.855-1.164.242-.785-.22.136-.4.057-.4-.176 0-.594-.616-.528-1.156.123m4.756 3.651c0 .664-1.136.892-1.3.261-.153-.585-.028-.713.551-.562.412.108.749.243.749.301m34 25.002c0 .22-.225.403-.5.406q-.5.007.1.394c.788.509-.046.515-1.374.01-1.468-.558-1.266-1.21.374-1.21.77 0 1.4.18 1.4.4m4 2.163c0 .365-.28.489-.8.353-.482-.126-.8-.012-.8.286 0 .393-.124.393-.6-.002q-1.448-1.2.8-1.2 1.402-.001 1.4.563m5.2 1.869c0 .459-1.06.73-1.947.498-.669-.175-.793-.057-.661.627.091.475-.046.846-.315.849-.287.004-.239.16.123.394s.411.39.123.394c-.263.003-.713-.326-1-.731s-.73-.81-.984-.9c-.323-.114-.293-.317.1-.679.462-.424.561-.407.561.1 0 .339.163.616.363.616s.265-.37.147-.821c-.196-.75-.054-.813 1.638-.725 1.019.052 1.852.223 1.852.378m2.833 1.568c1.082 0 1.967.18 1.967.4s-.9.4-2 .4-2-.075-2-.167-.06-.407-.134-.7-.059-.398.033-.233 1.053.3 2.134.3m13.986 5.535c1.326 1.074.678 1.802-1.369 1.539l-1.65-.213 1.344.44c1.357.444 2.444.135 2.75-.783.164-.492-.954-1.718-1.567-1.718-.229 0-.007.331.492.735m-.672.379c.142.23.032.509-.245.62-.276.112-.082.217.431.234.977.033 1.041-.777.086-1.095-.295-.098-.416.009-.272.241M76.2 346.4l-.8.344.8.056c.777.055.777.065.029.358-.715.28-.72.322-.067.572 1.077.413 3.359.321 3.649-.148.733-1.186-1.726-1.992-3.611-1.182m3.102.61c.022.215-.306.432-.73.483-.425.051-.546-.009-.27-.134.277-.125.387-.415.245-.645s-.04-.345.227-.256.505.338.528.552m4.398 2.077a9 9 0 0 0 2.2 0c.605-.092.11-.167-1.1-.167s-1.705.075-1.1.167"/><path fill="#54ba4b" d="M132 27.568c0 .203-.585.501-1.3.663l-1.3.294 1.18.324c.649.179 1.211.285 1.25.238.25-.308.582-1.887.397-1.887-.125 0-.227.166-.227.368m-20.7.319a9 9 0 0 0 2.2 0c.605-.092.11-.167-1.1-.167s-1.705.075-1.1.167m-7.1.513c-.729.313-.712.344.2.344.55 0 1.36-.155 1.8-.344.729-.313.712-.344-.2-.344-.55 0-1.36.155-1.8.344m12.4 0c.136.22.642.397 1.124.394.712-.005.764-.079.276-.394-.788-.509-1.715-.509-1.4 0M104 29.6c.33.213 1.05.388 1.6.388.792 0 .875-.081.4-.388-.33-.213-1.05-.388-1.6-.388-.792 0-.875.081-.4.388m12.2.239c-.761.584-.742.6.4.333 1.851-.432 2.613-.948 1.4-.947-.55 0-1.36.277-1.8.614M130 29.6c.776.501 1.2.501 1.2 0 0-.22-.405-.397-.9-.394-.728.005-.785.08-.3.394m-31.8.289c1.855.456 2.306 1.52.9 2.123-.692.298-.725.364-.143.288 2.055-.271 1.583-2.746-.506-2.654-.833.037-.885.088-.251.243m12.3.398a9 9 0 0 0 2.2 0c.605-.092.11-.167-1.1-.167s-1.705.075-1.1.167m-13.082.484c-.281.454 1.215.98 1.785.627.226-.139.306-.421.18-.626-.298-.481-1.668-.482-1.965-.001m33.108.981c.421 1.096-.783 3.459-2.357 4.629-.863.641-2.649 2.389-3.969 3.885a318 318 0 0 1-5.61 6.126c-1.766 1.874-4.194 4.578-5.394 6.008s-2.391 2.78-2.645 3-1.133 1.3-1.955 2.4c-.821 1.1-1.613 2.09-1.761 2.2-.567.423-8.803 10.794-9.271 11.673-.271.51-1.143 1.737-1.938 2.727-3.384 4.215-7.177 9.717-10.941 15.87-1.053 1.721-2.446 3.85-3.095 4.73-.65.88-1.554 2.32-2.01 3.2a97 97 0 0 1-2.001 3.6c-.645 1.1-1.441 2.573-1.77 3.274s-1.06 1.955-1.625 2.787c-.564.832-1.562 2.598-2.217 3.926-.655 1.327-1.348 2.683-1.54 3.013-1.934 3.322-8.126 16.799-10.2 22.2-.591 1.54-1.421 3.61-1.844 4.6s-1.054 2.61-1.401 3.6-1.086 3.06-1.642 4.6a91 91 0 0 0-1.732 5.4c-.396 1.43-1.01 3.269-1.364 4.087s-.644 1.901-.644 2.406-.352 1.575-.781 2.377-.903 2.419-1.052 3.594-.53 2.766-.849 3.536-.847 2.919-1.175 4.776c-.328 1.858-.785 3.729-1.015 4.159-.231.43-.664 2.65-.964 4.932s-.733 4.502-.964 4.933c-.23.43-.594 2.721-.809 5.091s-.475 4.675-.577 5.122c-1.272 5.57-1.938 30.108-1.036 38.187 1.465 13.121 3.858 24.664 6.8 32.8.438 1.21.802 2.532.809 2.937s.373 1.194.813 1.754c.44.559.8 1.508.8 2.109s.334 1.521.742 2.046.952 1.599 1.209 2.387c.256.788.823 2.131 1.258 2.984s.791 1.771.791 2.039.23.725.512 1.015c.281.291 1.646 2.588 3.032 5.105 1.386 2.516 2.876 5.036 3.311 5.6 1.287 1.667 3.13 4.596 3.138 4.986.004.199.43.919.947 1.6s1.064 1.907 1.215 2.725.525 1.736.829 2.04.756 1.309 1.005 2.233.695 1.774.991 1.888.737.995.98 1.96c.243.964.686 1.897.984 2.073.299.175.766 1.007 1.04 1.847.273.84.737 1.62 1.032 1.733.294.113.646.712.782 1.331s.587 1.432 1.002 1.808.869 1.206 1.01 1.845c.14.639.6 1.346 1.023 1.572s.767.751.767 1.166c0 .416.411 1.264.914 1.886s1.628 2.207 2.5 3.523c.872 1.315 2.711 3.83 4.086 5.589 1.907 2.44 2.5 3.508 2.5 4.508 0 .899.189 1.311.6 1.311 1.363 0 .722-2.977-1.134-5.263-1.471-1.812-4.043-5.361-5.706-7.872-2.558-3.864-4.473-6.912-5.067-8.065a55 55 0 0 0-1.706-3 55 55 0 0 1-1.798-3.2c-.447-.88-.984-1.87-1.192-2.2s-.648-1.23-.979-2-.77-1.67-.976-2c-.594-.955-2.442-5.047-2.442-5.408 0-.299-1.199-2.983-3.214-7.192-3.391-7.087-8.902-27.679-9.994-37.344-.19-1.681-.666-4.856-1.057-7.056-1.171-6.579-1.071-37.54.145-45 .484-2.97 1.049-6.57 1.256-8 1.798-12.427 6.797-29.244 12.547-42.2 1.767-3.983 1.64-3.725 3.968-8.085.915-1.713 2.231-4.195 2.925-5.515a84 84 0 0 1 2.64-4.6c.759-1.21 1.651-2.694 1.982-3.298 1.215-2.215 7.797-11.49 10.661-15.024 15.168-18.712 35.159-34.914 55.371-44.877a377 377 0 0 0 4.87-2.428c3.696-1.968 6.276-3.173 6.796-3.173.281 0 1.356-.45 2.389-1s2.114-1 2.403-1c.288 0 1.196-.36 2.016-.8s1.688-.8 1.926-.8c.239 0 1.544-.427 2.902-.949 15.643-6.015 36.703-9.624 56.268-9.641 17.169-.016 21.413.623 38.688 5.827 1.369.413 3.259.872 4.2 1.022s2.612.692 3.712 1.203 2.512.932 3.137.934 1.588.359 2.14.793c.553.435 1.661.91 2.464 1.056s1.939.602 2.525 1.014c.587.411 1.667.864 2.4 1.006.734.143 1.747.579 2.253.969.505.391 1.495.836 2.2.99.704.154 1.79.706 2.412 1.228.622.521 1.289.948 1.482.948s1.015.45 1.825 1c.811.55 1.709 1 1.997 1s1.009.45 1.603 1c.593.55 1.323 1 1.62 1s.542.186.542.414.79.753 1.756 1.167 1.878.95 2.027 1.192c.15.241.844.704 1.544 1.027.7.324 2.083 1.221 3.073 1.995.99.773 2.242 1.631 2.783 1.905a10 10 0 0 1 1.8 1.236c1.618 1.459 3.937 3.064 4.426 3.064.274 0 .794.45 1.154 1 .361.55.861 1 1.113 1 .251 0 .742.262 1.09.583 2.507 2.304 3.843 3.417 4.103 3.417.316 0 .761.378 4.258 3.625 1.169 1.086 2.271 1.975 2.449 1.975s2.124 1.755 4.326 3.9 5.24 5.084 6.751 6.531c3.365 3.224 12.051 12.327 13.147 13.779.44.583 1.177 1.449 1.639 1.925.733.757 6.742 8.266 8.374 10.465.327.44 1.016 1.34 1.531 2s1.172 1.65 1.46 2.2.854 1.235 1.259 1.523c.406.287.737.711.737.942s.405.918.9 1.527a25 25 0 0 1 1.7 2.447c.44.736 1.199 1.974 1.686 2.75a35 35 0 0 1 1.472 2.611c1.159 2.376 5.442 4.737 5.442 3 0-.22-.431-.4-.959-.4-1.045 0-2.574-1.59-4.241-4.409-2.439-4.125-4.629-7.471-6.097-9.315-.384-.482-1.374-1.878-2.2-3.103-2.051-3.039-7.635-10.152-10.164-12.948a357 357 0 0 1-2.939-3.385c-3.131-3.637-19.309-19.703-22.4-22.243a176 176 0 0 1-4.435-3.785c-2.259-2.012-6.073-5.085-8.06-6.494A2510 2510 0 0 1 309.2 85.17c-.55-.403-2.26-1.496-3.8-2.43s-3.542-2.195-4.449-2.803a57 57 0 0 0-3.6-2.175 242 242 0 0 1-3.551-1.99c-2.469-1.42-7.091-3.676-8.172-3.99-.535-.155-1.525-.619-2.2-1.03s-1.455-.75-1.732-.751c-.278 0-1.268-.351-2.2-.779-4.526-2.078-15.935-5.373-22.879-6.608-1.743-.31-6.979-2.415-12.228-4.916-5.839-2.782-7.923-3.698-8.417-3.698-.262 0-1.039-.341-1.725-.757s-1.877-.886-2.647-1.043-1.94-.604-2.6-.992-1.74-.827-2.4-.975-2.1-.61-3.2-1.026c-3.025-1.143-5.721-1.982-8.6-2.677-1.43-.346-3.05-.852-3.6-1.126s-1.72-.616-2.6-.761-2.77-.602-4.2-1.017c-3.047-.882-10.686-2.595-14.4-3.229-1.43-.244-3.68-.685-5-.979-1.32-.295-3.93-.747-5.8-1.004s-4.299-.643-5.398-.857c-5.161-1.009-25.311-3.023-37.202-3.719-4.415-.258-5.4-.566-5.4-1.683 0-.525-.199-.955-.443-.955-.243 0-.347.249-.231.552m-56.328 6.65c-.4.442-.608.922-.462 1.067s.264.032.264-.251c0-.406.124-.413.582-.033.321.266.794.353 1.052.194.326-.202.24-.421-.283-.722-.682-.391-.64-.456.449-.697 1.143-.253 1.151-.268.162-.313-.58-.026-1.358.307-1.764.755m-5.749 4.109c-.247.247-.449.683-.449.969s-.21.52-.467.52c-.256 0-.383.083-.282.184.405.405 1.985-.314 1.792-.816-.128-.335.009-.446.377-.305.319.123.58.043.58-.177 0-.621-1.051-.875-1.551-.375m-10 8c-.247.247-.449.668-.449.936 0 .267-.225.59-.5.716s-.05.119.5-.016c1.104-.27 2-.877 2-1.353 0-.547-1.089-.745-1.551-.283M44.8 76q0 .8-.8.8c-.884 0-.983.298-.4 1.2.331.513.389.498.394-.1.003-.385.255-.7.559-.7s.64-.45.745-1 .036-1-.153-1c-.19 0-.345.36-.345.8m-8.107 19.566c-.12.458-.074.922.103 1.031.46.285.788-.776.422-1.367-.216-.35-.372-.251-.525.336m-4.448 16.996c-.156.623-.185 1.231-.064 1.352.12.121.237-.036.259-.347.022-.312.184-.117.36.433l.32 1 .053-1c.052-.983.063-.986.681-.2.611.777.62.771.339-.2-.488-1.683-.962-2.341-1.009-1.4-.04.788-.045.788-.347.015-.275-.703-.337-.667-.592.347m-2.161 10.715c-.681 2.642-.551 3.723.166 1.387.327-1.064.533-2.234.456-2.6-.076-.365-.356.181-.622 1.213m1.148-1.023c-.017.47.231 1.46.552 2.2.531 1.222.584 1.254.582.346-.003-1.351-1.086-3.784-1.134-2.546m-3.003 12.375c-.148.586-.178 1.155-.068 1.265s.32-.279.468-.865c.147-.587.177-1.156.067-1.266s-.32.279-.467.866m.996-.429c0 .44.283 1.16.629 1.6.611.777.62.771.339-.2-.475-1.64-.969-2.354-.968-1.4m354.153 24.635c-.406.658.519 1.362 1.829 1.39.915.02 1.074-.087.735-.495-.238-.287-.594-.422-.79-.3-.197.121-.466-.061-.598-.405-.279-.727-.792-.811-1.176-.19m-358.626 9.478c-.131.794-.073 1.168.149.946.202-.202.3-.792.218-1.313-.126-.801-.182-.744-.367.367m-8.5 15.587c-.858 1.659-.826 2.004.082.882l.734-.906.666.951c.486.694.666.777.666.306 0-.354-.337-1.06-.748-1.569l-.749-.924zm-5.559 15.803c-.121.313-.081.793.088 1.067.237.383.358.367.526-.073.121-.313.081-.793-.088-1.067-.237-.383-.358-.367-.526.073m-4.113 6.719c-.558.617-.73 1.387-.69 3.094.031 1.342-.14 2.413-.419 2.616-.298.217-.202.256.262.106.403-.131.998-.238 1.323-.238s.489-.165.365-.366 0-.457.277-.568c.399-.161.399-.209.002-.234-.275-.018-.513-.437-.528-.932-.026-.824-.054-.835-.33-.129-.53 1.353-.874-.359-.366-1.818l.443-1.27.762 1.359.762 1.358-.212-1.3c-.167-1.031-.073-1.3.455-1.3.572 0 .557-.083-.11-.587-1.016-.769-1.12-.759-1.996.209M0 223.8c0 .622.227 1 .6 1s.6-.378.6-1-.227-1-.6-1-.6.378-.6 1m398.8 9c0 .22.27.4.6.4s.6-.18.6-.4-.27-.4-.6-.4-.6.18-.6.4M0 284.8c0 .22.27.4.6.4s.6-.18.6-.4-.27-.4-.6-.4-.6.18-.6.4m0 9.4c0 .622.227 1 .6 1s.6-.378.6-1-.227-1-.6-1-.6.378-.6 1m3.992 6.01c-.773.931-.221 1.107.606.192.399-.441.54-.802.313-.802s-.641.274-.919.61m1.838 1.59c-.198.66-.326 1.47-.284 1.8.211 1.658.508 2.335 1.128 2.573.637.244.636.212-.007-.498-.983-1.087.016-1.973 1.407-1.248l.926.482-.904-.984c-.497-.542-.772-1.116-.612-1.276s-.005-.178-.367-.039c-.5.192-.69-.018-.792-.879L6.19 300.6zm7.818 12.578c.341.538.965 1.168 1.386 1.4s.879.576 1.016.765c.138.188.373.143.524-.1.15-.244.083-.443-.15-.443a.43.43 0 0 1-.424-.429c0-.235-.27-.698-.6-1.028-.414-.415-.6-.448-.6-.11 0 .306-.334.204-.886-.271l-.887-.762zm4.246 4.06c.251.961 1.16 1.7 1.688 1.373.635-.393.499-1.128-.162-.874-.368.141-.505.03-.377-.305.113-.295-.138-.616-.57-.729-.596-.156-.728-.034-.579.535m5.406 4.638c.385.1 1.015.1 1.4 0 .385-.101.07-.183-.7-.183s-1.085.082-.7.183M42.501 333.2c.089.33.598.633 1.13.674.764.058.8.027.169-.146-.44-.121-.949-.425-1.13-.674q-.329-.449-.169.146m-.663 2.2c.593.55 1.246 1 1.451 1s-.162-.45-.816-1-1.307-1-1.451-1 .222.45.816 1m3.85 1.792c.272.436.764.896 1.094 1.022.33.127.167-.23-.361-.792-1.152-1.225-1.404-1.305-.733-.23m11.817 5.491c.497.096 1.217.092 1.6-.008.382-.1-.025-.179-.905-.174-.88.004-1.193.086-.695.182"/><path fill="#045423" d="M195.2.6c0 .354.369.603.9.606.728.005.785.08.3.394-.475.307-.392.388.4.388.55 0 1.27-.175 1.6-.388.485-.314.428-.389-.3-.394-.531-.003-.9-.252-.9-.606 0-.373-.378-.6-1-.6s-1 .227-1 .6m-28.8 3.432c-.469.329-.403.365.303.166.511-.143 1.466.017 2.2.37l1.297.624-.944-.796c-1.048-.883-1.951-.998-2.856-.364m-.624 1.746c.857.687 1.157.708 2.624.188.863-.307.818-.329-.333-.164-.733.105-1.723.003-2.2-.228-.839-.405-.842-.398-.091.204m52.67.574c-.642.493-.804.827-.494 1.018.254.157.368.436.254.62-.337.546 1.327-.027 1.826-.628.355-.429.306-.611-.22-.813-.54-.207-.57-.33-.146-.599.294-.186.354-.337.134-.335s-.829.333-1.354.737m1.208.954c-.22.22-.722.277-1.116.126-.579-.223-.61-.34-.163-.617.741-.457 1.815-.045 1.279.491M157.6 9.533c0 .257-.495.478-1.1.492l-1.1.026 1 .402c.934.376.953.437.288.927-.611.451-.626.558-.105.758.334.128.58.105.548-.052-.033-.157.154-.806.416-1.441.261-.636.38-1.251.264-1.367s-.211-.001-.211.255m2.3.926c.155.593.318.658.749.3.707-.586.698-.627-.198-.862-.579-.151-.704-.023-.551.562m71.145 1.614c.196.318.046.379-.479.194-.733-.258-.735-.245-.038.297.674.523.678.593.056.941-.624.349-.625.394-.007.631.365.14.584.122.486-.041-.245-.403.786-1.312 1.116-.983.145.145.15-.032.011-.393-.138-.362-.517-.759-.842-.883-.378-.146-.487-.061-.303.237M148.07 14.09c-.499.499.086 1.91.793 1.91.308 0 .305-.157-.011-.537-.579-.698-.087-1.19.611-.611.295.245.537.287.537.093 0-.673-1.464-1.321-1.93-.855m88.134 2.331c.087.453.003 1.234-.187 1.735-.248.652-.202.911.163.911.319 0 .43-.313.296-.834-.192-.745-.142-.774.472-.27.948.778 1.825-.031 1.048-.968-.991-1.194-1.972-1.508-1.792-.574m-97.92 7.979c-.131.5-.012.8.316.8s.447-.3.316-.8c-.115-.44-.257-.8-.316-.8s-.201.36-.316.8M114.8 28c-.605.194-.736.336-.333.36a6.8 6.8 0 0 1 1.4.278c.552.179.598.141.188-.152-.461-.329-.461-.423 0-.606.838-.333-.128-.241-1.255.12m13.4.4-.8.344.8.056c.777.055.777.065.029.358-.715.28-.72.322-.067.572 1.088.418 2.571.342 1.88-.096-.448-.284-.409-.391.2-.547.714-.183.712-.199-.042-.269l-.8-.074.8-.344c.729-.313.712-.344-.2-.344-.55 0-1.36.155-1.8.344m-13.4 1.2c-1.384.291-1.386.295-.2.341.66.026 1.47-.128 1.8-.341.666-.43.445-.43-1.6 0m-20.4.4c-.724.468-.488.518 2.69.567 1.149.018 2.091.213 2.094.433.005.483-3.007.517-4.334.049-.726-.256-.876-.214-.634.176.23.373.109.439-.45.242-.691-.243-.702-.219-.104.248.906.708 6.593.527 6.411-.204-.328-1.326-4.317-2.388-5.673-1.511m166.345-.042c.3.19.39.427.2.528s-.12.128.155.061c.843-.206.554.257-.4.641l-.9.361.9.026c.495.014.9-.191.9-.455 0-.373.107-.373.48 0 .264.264.633.48.821.48s-.145-.45-.739-1c-.593-.55-1.278-.997-1.52-.994-.245.004-.199.16.103.352m3.87 2.005c-.711.278-.682.333.3.58 1.228.308 1.435.924.385 1.148-.501.106-.403.21.345.363 1.163.238 1.22-1.101.066-1.544-.474-.181-.482-.282-.045-.56.653-.413.02-.406-1.051.013M97.3 32.676c.385.1 1.015.1 1.4 0 .385-.101.07-.183-.7-.183s-1.085.082-.7.183m-12.5 1.863c.55.29 1.085.457 1.188.372.282-.231-.898-.899-1.588-.899-.331 0-.151.236.4.527m3.78-.071c-.17.292-.18.418-.024.279.156-.14.927-.109 1.713.069 1.614.364 1.31-.217-.325-.62-.692-.171-1.163-.077-1.364.272M263.2 34.4c0 .22.495.387 1.1.372.975-.025 1.009-.067.3-.372-1.093-.469-1.4-.469-1.4 0M81.6 35.533c0 .257-.495.478-1.1.492l-1.1.026 1 .402c.934.376.953.437.288.927-.611.451-.626.558-.105.758.334.128.58.105.548-.052-.033-.157.154-.806.416-1.441.261-.636.38-1.251.264-1.367s-.211-.001-.211.255m-4 2.033c0 .366 2.029 1.338 2.277 1.091.095-.096-.378-.449-1.052-.785s-1.225-.473-1.225-.306m-3.531.525c-.538.538-.088 1.909.627 1.909.516 0 .523.1.053.7-.503.641-.487.651.181.126.635-.499.779-.499 1.094 0 .2.316.367.383.37.149.003-.233.341-.784.75-1.223.831-.891-2.205-2.531-3.075-1.661M76 39.214c0 .212-.248.386-.551.386-.665 0-1.542-.973-1.193-1.323.325-.325 1.744.437 1.744.937m204.909-.572c.156.156.097.51-.132.786-.294.354-.264.589.104.801.285.164.387.153.225-.025-.161-.179-.001-.539.356-.8.592-.433.584-.501-.094-.761-.409-.157-.616-.157-.459-.001m-208.94 1.015c-.254 1.187-.238 1.577.073 1.769a.436.436 0 0 1 .144.597c-.125.202.072.253.437.113.613-.235.61-.285-.027-.642-.552-.309-.584-.454-.157-.718.302-.187.757-.145 1.048.096.382.317.513.26.513-.223 0-.357-.165-.649-.367-.649s-.652-.109-1-.243c-.348-.133-.647-.178-.664-.1m222.558 2.603c.143.144-.052.504-.433.801-.643.501-.635.524.106.307l.8-.233-.8.659c-.773.637-.76.649.4.378 1.892-.442 2.597-.94 1.4-.988-.876-.035-.904-.078-.229-.342.715-.28.72-.322.067-.572-.895-.344-1.65-.349-1.311-.01m-228.32 2.132c-.751.83-.293 2.049.742 1.976.283-.019.265-.106-.049-.233-.534-.215-.703-.967-.2-.888.783.124.955-.099.5-.647-.408-.491-.38-.6.151-.6.357 0 .652.315.655.7.005.588.066.606.379.111.785-1.242-1.105-1.605-2.178-.419m241.751 3.974c.448.284.409.391-.2.547-.417.107-.061.215.791.241 1.334.04 1.48-.037 1.051-.554-.274-.33-.881-.597-1.349-.594-.648.005-.718.091-.293.36M338.2 50.4l-.8.344.8.056.8.056-.8.326c-.74.302-.72.347.271.608.589.155 1.399.091 1.8-.142.657-.382.63-.428-.271-.464-.876-.035-.904-.078-.229-.342.715-.28.72-.322.067-.572-.387-.149-.734-.257-.771-.242zm17.769 3.367c-.257.28-.204 1.488.073 1.659.204.126.275.385.157.576s.353.184 1.048-.015c1.566-.45 2.15-.952.675-.582-1.288.323-2.298-.122-1.465-.646.299-.187.903-.243 1.343-.124.585.159.653.116.255-.16-.461-.319-.461-.406 0-.56.3-.1-.04-.182-.755-.182s-1.314.015-1.331.034M54.8 55.736q0 .993.611.904c.778-.115.779-.507.003-1.283-.552-.552-.614-.514-.614.379m310.1 2.276c-.495.199-.9.57-.9.824 0 .346.138.348.549.006.302-.251.887-.346 1.3-.211.56.182.612.145.206-.145-.461-.329-.461-.423 0-.606.3-.119.365-.22.145-.223s-.805.156-1.3.355m-151.5 2.435c-15.347 1.446-35.634 5.667-43.26 9.002-.694.303-1.378.551-1.521.551-.41 0-6.65 2.387-8.419 3.221-.88.414-2.86 1.287-4.4 1.938-19.984 8.453-45.768 26.867-57.73 41.228a159 159 0 0 1-3.857 4.423c-1.107 1.216-2.497 2.836-3.088 3.6s-1.363 1.75-1.716 2.19c-4.157 5.186-12.369 17.636-13.352 20.243-.217.573-1.001 2.013-1.742 3.2-2.019 3.228-5.842 11.307-7.929 16.757-2.176 5.683-3.347 8.95-4.23 11.8-1.513 4.888-3.805 13.672-4.383 16.8-.285 1.54-.784 3.97-1.109 5.4s-.711 3.86-.857 5.4-.527 4.33-.847 6.2c-1.481 8.654-1.485 34.939-.008 44.2.316 1.98.699 4.68.851 6 1.308 11.384 8.599 37.362 12.012 42.8.276.44.629 1.25.784 1.8.308 1.096 2.049 5.045 2.643 6 .206.33.645 1.23.976 2s.772 1.67.979 2c.208.33.745 1.32 1.192 2.2s1.257 2.32 1.798 3.2 1.311 2.23 1.71 3c1.434 2.77 5.328 8.608 8.936 13.4 1.325 1.76 2.715 3.703 3.088 4.318.572.941.873 1.083 1.903.896.673-.122 2.113.049 3.2.38s4.406.788 7.376 1.017 6.84.685 8.6 1.014c9.302 1.742 59.671 2.121 67.4.507 5.488-1.147 7.569-1.492 9.098-1.511.935-.012 2.735-.366 4-.789 1.266-.422 3.375-.89 4.687-1.039 1.312-.15 3.213-.598 4.224-.996 1.011-.399 2.727-.852 3.815-1.007 1.087-.155 2.516-.53 3.176-.834s2.37-.895 3.8-1.315 4.13-1.33 6-2.023 4.199-1.522 5.176-1.842 2.147-.824 2.6-1.119 1.544-.76 2.424-1.034c1.841-.574 13.494-6.206 15.024-7.263.564-.389 1.509-.828 2.1-.977.592-.148 1.076-.44 1.076-.649 0-.208.786-.727 1.747-1.152s1.973-1.045 2.249-1.377.737-.605 1.024-.605.761-.234 1.051-.519c.291-.286 1.609-1.213 2.929-2.062s2.76-1.783 3.2-2.077c3.415-2.286 5.526-3.78 7.539-5.335 1.287-.994 2.621-1.987 2.965-2.207.822-.525 1.621-1.157 3.161-2.498.696-.606 2.941-2.542 4.991-4.302s4.27-3.823 4.935-4.584 2.566-2.831 4.225-4.6 3.549-3.926 4.2-4.795a49 49 0 0 1 2.482-3c.714-.781 1.299-1.55 1.3-1.707s.515-.877 1.142-1.6c1.336-1.54 3.965-5.282 6.356-9.045.932-1.468 1.88-2.939 2.105-3.269 2.442-3.572 8.752-15.86 10.579-20.6.593-1.54 1.516-3.813 2.05-5.05.533-1.238.97-2.532.97-2.876 0-.345.149-.719.331-.831.182-.113.651-1.338 1.042-2.724.39-1.385.95-3.149 1.242-3.919s.747-2.39 1.011-3.6.641-2.405.839-2.656.628-2.051.955-4c.328-1.949.778-3.969 1-4.489.222-.519.776-3.579 1.231-6.8s1.019-7.025 1.254-8.455c.573-3.492.538-32.565-.043-36-.242-1.43-.797-5.161-1.232-8.291-.436-3.13-.962-6.01-1.17-6.4s-.595-2.148-.861-3.906-.748-3.86-1.073-4.67-.832-2.522-1.13-3.803c-.652-2.811-2.007-6.945-2.992-9.13-.396-.88-.85-2.05-1.007-2.6-.992-3.47-6.808-15.073-10.544-21.036-1.662-2.652-6.677-9.525-8.585-11.764-2.201-2.583-6.856-7.742-8.1-8.977-2.405-2.388-9.502-8.832-10.377-9.423-.489-.33-2.937-2.139-5.44-4.021s-5.412-3.952-6.463-4.6-2.562-1.674-3.355-2.279-1.626-1.1-1.85-1.1-.964-.415-1.645-.923c-5.162-3.848-29.245-6.249-46.438-4.63M51.8 61.6c1.093.469 1.4.469 1.4 0 0-.22-.495-.387-1.1-.372-.975.025-1.009.067-.3.372m-7.527 12.821c-.381 1.425-.33 2.379.127 2.379.22 0 .4-.36.4-.8 0-.444.267-.8.6-.8.691 0 .75-.349.2-1.2-.323-.499-.394-.465-.422.2-.033.782-.041.783-.339.021-.282-.721-.324-.706-.566.2m-.219 3.755c-.052 1.135-.076 1.15-.687.4-.579-.71-.613-.714-.4-.043.128.403.233.808.233.9s.495.164 1.1.161c.621-.004.9-.134.64-.3-.252-.162-.543-.744-.645-1.294-.172-.926-.19-.913-.241.176m-2.208.448c-.146.38-.171.785-.055.9.115.115.212-.046.215-.357.005-.467.075-.461.394.033.213.33.388.42.388.2 0-.935-.669-1.486-.942-.776M389 87.2c-.136.22.033.4.376.4s.624.191.624.424.181.311.403.174c.252-.156.188-.464-.171-.824-.68-.679-.9-.71-1.232-.174m.2 3.776c0 .317.18.688.4.824s.4-.123.4-.576-.18-.824-.4-.824-.4.259-.4.576m-351.671 1.27c.103.876-.024 1.565-.32 1.748-.379.235-.359.551.09 1.408.553 1.055.59 1.066.803.251.123-.47.06-.753-.139-.63-.2.123-.363-.056-.363-.399 0-.377.357-.629.9-.636.804-.011.825-.056.2-.42-.416-.243-.7-.886-.7-1.588 0-.649-.144-1.18-.32-1.18s-.243.651-.151 1.446m175.905-1.101c-.586.948-32.634.95-32.634.002 0-.191 7.391-.347 16.424-.347 9.093 0 16.328.154 16.21.345M180.001 93.7c.836 1.033 2.183 1.082 13.956.504 4.611-.226 7.903-.171 11.093.184 5.492.613 8.948.305 9.243-.823.28-1.07 6.907-1.18 6.907-.115 0 .506-.261.598-1.177.415-.647-.13-2.132.054-3.3.407l-2.123.643 1.6.754c1.885.888 4.893.766 5.62-.228.518-.71 5.38-.953 5.38-.269 0 .204-1.035.679-2.3 1.055l-2.3.683 1.6.734c2.18 1.001 3.815.984 4.084-.044.358-1.37 4.916-1.184 4.916.2 0 .931.135 1 1.972 1 1.741 0 1.987.106 2.1.9.108.761.409.918 1.941 1.018 1.421.093 1.897.309 2.2 1 .298.68.786.911 2.129 1.007 1.646.118 1.733.185 1.581 1.219-.147.998-.063 1.079.958.929 1.263-.185 1.55.671.514 1.531-.799.663-.066 1.596 1.254 1.596.595 0 .951.234.951.625 0 .801 7.391 8.175 8.194 8.175.336 0 .606.35.606.786 0 .432.348.972.773 1.2s.887.773 1.027 1.214.432.8.65.8c.513 0 3.462 3.098 4.75 4.99.55.807 1.421 1.879 1.935 2.382s1.148 1.345 1.409 1.871c.326.658.878.996 1.765 1.082.967.094 1.291.32 1.291.9 0 .559.278.775.997.775.9 0 .991.149.937 1.536-.073 1.857.253 2.464 1.32 2.464.631 0 .79.24.734 1.1-.147 2.229.033 2.958.962 3.886 1.323 1.324 1.585 3.371.573 4.475-.732.798-.745.944-.175 2l.614 1.139.507-1.3c.278-.715.737-1.3 1.019-1.3.759 0 .642 2.794-.155 3.674-.972 1.074-.886 4.091.149 5.229.448.493.917 1.707 1.042 2.697q.225 1.8 1.051 2.349c.688.457.825.967.825 3.069 0 2.134.16 2.711 1.045 3.762.733.871.986 1.548.848 2.268-.308 1.609.419 6.989 1.041 7.706.379.436.647 2.246.826 5.569.146 2.708.516 5.588.822 6.4.968 2.567 1.728 20.3.905 21.123-.158.158-.273.752-.255 1.321.017.568.122.808.233.533s.637-.5 1.168-.5h.967v6.6c0 3.63-.135 6.599-.3 6.598s-.309-2.296-.319-5.1c-.019-5.132-.415-6.898-1.547-6.898-.886 0-1.356 1.952-1.608 6.681-.167 3.15-.474 5.03-1.032 6.333-.522 1.217-.794 2.748-.794 4.462 0 2.339-.108 2.694-1.049 3.434-.983.773-1.037.986-.846 3.358.155 1.94.079 2.532-.328 2.532-.873 0-1.777 1.674-1.777 3.289 0 .831-.175 1.511-.39 1.511-.917 0-1.728 2.453-1.038 3.143.898.898 1.991.145 2.153-1.483.201-2.021.875-1.451.875.74 0 1.867-.067 2-1 2s-1 .133-1 2c0 1.862-.068 2-.991 2-.908 0-.954-.083-.544-.982.341-.749.32-1.289-.089-2.277l-.536-1.294-.525 1.286c-.445 1.091-.433 1.465.08 2.457 1.034 2 .818 4.81-.37 4.81-.756 0-1.012-.247-1.142-1.1-.091-.605-.085-.065.014 1.2.19 2.412-.028 2.686-1.51 1.893-1.26-.674-2.326 1.725-1.196 2.693.994.85 1.032 1.312.109 1.32-2.574.022-6.061 2.949-6.092 5.114-.005.287-.638.784-1.408 1.106s-1.4.758-1.4.97-.9 1.329-2 2.482-2 2.216-2 2.361-.514.477-1.143.738c-1.552.642-3.201 2.81-2.169 2.851.617.024.605.07-.088.341-.775.303-.771.322.1.599 1.326.421 1.094 1.312-.4 1.539-.951.145-1.5-.012-2.043-.584-.737-.775-.75-.775-1.626.048-.485.456-1.092.829-1.348.829-.255 0-.759.45-1.12 1-.36.55-.876 1-1.147 1-1.564 0-1.878 1.493-.537 2.55l1.321 1.041-1.336.005c-.897.003-1.57-.285-2.048-.875l-.712-.88-1.283 1.08c-.705.593-1.597 1.079-1.982 1.079s-1.122.45-1.639 1-1.174 1-1.461 1c-.286 0-.815.45-1.176 1-.36.55-.954 1-1.32 1-2.346 0-2.989 1.967-.943 2.885l1.5.674-1.5.02c-1.076.015-1.5-.149-1.5-.579 0-.716-.281-.739-1.937-.162-1.183.412-1.221.486-.659 1.289.931 1.329.757 1.473-1.776 1.473-2.156 0-2.384.082-2.5.9-.118.827-.389.917-3.328 1.111-3.407.225-4.2.492-4.2 1.413 0 .458-.729.576-3.571.576-3.466 0-4.829.45-4.829 1.596 0 .186-3.136.398-6.969.471-6.582.126-7.021.183-7.925 1.033-1.51 1.42-8.655 1.351-10.379-.1-1.158-.974-1.352-1-7.488-1-6.202 0-6.314-.015-7.239-1-.84-.895-1.256-1-3.944-1-2.566 0-3.144-.131-3.96-.9-.806-.758-1.534-.931-4.626-1.1-3.431-.187-3.678-.259-3.798-1.1-.113-.794-.359-.9-2.1-.9-2.364 0-3.106-1.79-.872-2.103.605-.085-.295-.071-2 .032-3.327.2-3.815-.119-1.872-1.225 1.349-.768 1.243-1.345-.362-1.955-.878-.334-1.169-.262-1.725.425q-.67.826-2.005.801c-1.174-.023-1.23-.068-.462-.378 2.009-.809 1.953-2.524-.111-3.387-.749-.313-1.363-.744-1.363-.959s-.631-.597-1.403-.852-1.588-.809-1.814-1.231-.666-.768-.976-.768c-.311 0-1.051-.45-1.645-1-1.31-1.214-1.554-1.232-2.297-.171-.437.624-.911.792-1.923.681l-1.342-.147 1.045-.451c1.682-.725 1.484-2.912-.262-2.912-.195 0-.721-.359-1.169-.798-2.271-2.225-3.302-2.819-3.817-2.199-.738.89-1.988.723-3.032-.403-.51-.55-1.295-1-1.746-1-.607 0-.819-.259-.819-1 0-.8-.2-1-1-1s-1-.2-1-1-.2-1-1-1-1-.2-1-1c0-1.15.017-1.157 1.392-.531 2.772 1.263 2.089-.624-1.721-4.755-.951-1.031-1.902-2.198-2.114-2.594s-.629-.72-.928-.72c-.298 0-.654-.445-.79-.988-.137-.544-.606-1.18-1.044-1.415-.437-.234-.795-.753-.795-1.153 0-1.143-5.917-6.844-7.103-6.844-.854 0-.966-.152-.824-1.119.151-1.026.072-1.105-.954-.954-1.102.161-1.119.133-1.119-1.908 0-2.29-.519-3.619-1.414-3.619-.44 0-.587-.525-.591-2.1-.008-2.865-.337-3.9-1.242-3.9-.965 0-1.123-3.372-.175-3.736.953-.366 1.219-2.904.431-4.106l-.681-1.039-1.164 1.115-1.164 1.116v-1.229c0-.891.219-1.285.8-1.437 1.003-.262 1.124-3.535.211-5.719-.323-.775-.799-3.784-1.056-6.687-.259-2.92-.711-5.674-1.012-6.164-.864-1.41-.774-19.866.107-21.965.358-.852.794-3.462.968-5.801.175-2.339.602-5.09.95-6.114.913-2.689.839-5.298-.168-5.927-1.018-.635-1.211-5.107-.221-5.107.416 0 .561.437.516 1.559-.088 2.217.812 3.243 1.788 2.038.937-1.157.908-2.446-.083-3.706-1.019-1.295-1.171-5.491-.2-5.491.365 0 .6.372.6.951 0 1.181 1.047 2.162 1.657 1.552.243-.243.296-.821.124-1.363-.287-.9-.313-.906-.612-.14-.195.499-.323-.358-.341-2.282-.025-2.773.072-3.182.972-4.082.802-.802 1-1.398 1-3.018 0-1.886.065-2.018 1-2.018.933 0 1-.133 1-2 0-2.132.413-2.474 1.643-1.361.389.352.898.521 1.132.377.645-.399.508-1.816-.175-1.816-.33 0-.6-.27-.6-.6s.27-.6.6-.6.6.283.6.628c0 1.06 1.65.483 2.365-.828 1.16-2.126 2.195-3.575 3.328-4.66.609-.584 1.107-1.373 1.107-1.755s.405-1.109.9-1.618 1.35-1.48 1.9-2.158 1.405-1.62 1.9-2.093.9-1.091.9-1.374.36-.707.8-.942c.944-.505 1.049-1.419.2-1.745-1.145-.439-.796-3.455.4-3.455.812 0 1-.197 1-1.045 0-.918.137-1.026 1.119-.882 1.026.151 1.105.072.954-.954-.144-.982-.036-1.119.882-1.119.848 0 1.045-.188 1.045-1 0-1.196 3.016-1.545 3.455-.4.326.849 1.24.744 1.745-.2.235-.44.69-.8 1.011-.8s.807-.36 1.082-.8.713-.8.974-.8.829-.45 1.262-1c.432-.55.981-1 1.219-1s.721-.439 1.072-.975 1.174-1.092 1.828-1.236 1.405-.605 1.667-1.025c.263-.42.674-.764.915-.764s.918-.495 1.506-1.1a41 41 0 0 1 1.875-1.809c.972-.854.455-2.291-.825-2.291-.432 0-.786-.18-.786-.4 0-.667 3.194-.482 3.455.2.127.33.471.6.764.6.883 0 1.101-.805.42-1.557-1.113-1.23-.771-1.643 1.361-1.643 1.867 0 2-.067 2-1s.133-1 2-1c1.897 0 2-.055 2-1.06v-1.061l4.3.188c2.365.103 3.715.119 3 .035-2.441-.287-1.837-2.102.7-2.102 1.867 0 2-.067 2-1 0-1.32 6.829-1.591 7.553-.3.485.865 4.512.95 6.018.127l.97-.531-1.155-.605c-.635-.333-2.107-.605-3.271-.605-1.514 0-2.115-.154-2.115-.543 0-1.048 6.317-.735 7.201.357m-144.129.856c-.135.354-.102 1.035.076 1.514l.322.871.246-.94c.307-1.175-.259-2.447-.644-1.445m130.354 1.815c-1.553 1.717 1.675 2.566 4.337 1.142.747-.4.74-.436-.192-.908-1.849-.937-3.428-1.026-4.145-.234m-127.977.244a3.9 3.9 0 0 0-.215 1.318c.019.367.193.136.387-.513.377-1.262.244-1.887-.172-.805M394.26 98c-.132.66-.134 1.731-.004 2.38s.045 1.729-.189 2.4c-.339.972-.314 1.22.12 1.22.301 0 .651.225.779.5s.13-.367.005-1.427c-.126-1.06-.228-2.905-.228-4.1 0-2.454-.133-2.722-.483-.973M35.2 99c0 .77.18 1.4.4 1.4s.4-.63.4-1.4-.18-1.4-.4-1.4-.4.63-.4 1.4m194.624-.45-1.176.49 1.298.538c1.573.651 2.644.029 1.637-.951-.478-.465-.796-.479-1.759-.077m-195.153 3.7c-.401.537-.64 1.196-.531 1.463q.198.494.228-.089c.024-.424.191-.371.633.2.592.764.597.764.367-.024l-.233-.8.686.8c.632.736.666.74.426.049a1.03 1.03 0 0 1 .382-1.221c.588-.429.588-.516.007-.998-.368-.305-.636-.353-.636-.112 0 .228.225.506.5.617.31.125.245.214-.171.233-.369.018-.729-.222-.8-.531-.09-.396-.346-.273-.858.413M251.2 107.2c0 .22-.45.4-1 .4s-1-.18-1-.4.45-.4 1-.4 1 .18 1 .4m143.073 1.221c-.67 2.502-.152 9.189.569 7.35.264-.674.306-.645.336.229.095 2.772.81-.583.81-3.8 0-3.095-.701-6.555-.81-4-.033.782-.041.783-.339.021-.282-.721-.324-.706-.566.2M34.2 115.6c-.15.473-.183.95-.073 1.06s.323-.187.473-.66.183-.95.073-1.06-.323.187-.473.66m-3 1.8c0 .55.18 1 .4 1s.4-.45.4-1-.18-1-.4-1-.4.45-.4 1m98.4 0c0 .33-.18.6-.4.6s-.4-.27-.4-.6.18-.6.4-.6.4.27.4.6m-95.54 1.276c-.079 1.161-.735 1.518-1.578.858-.605-.474-.624-.46-.165.127.422.54.422.702 0 .884-.284.123.005.114.643-.019.864-.181 1.081-.116.852.254-.21.341-.073.452.436.354.409-.079.807-.477.886-.886.083-.433-.028-.637-.268-.489-.233.144-.484-.225-.579-.852-.127-.842-.182-.897-.227-.231m-2.39 8.857c-.086 2.637-.954 2.661-1.31.036l-.24-1.769-.06 1.574c-.043 1.131.193 1.853.84 2.565.495.544.647.843.338.664q-.566-.33-.276.135c.405.656 1.038.572 1.038-.138 0-.33.259-.6.575-.6.439 0 .52-.355.343-1.5-.307-1.992-.66-2.308-.446-.4.092.824.035 1.364-.127 1.2s-.364-1.11-.45-2.1l-.155-1.8zM118 129.2c0 .22-.27.4-.6.4s-.6-.18-.6-.4.27-.4.6-.4.6.18.6.4m153.2.6c0 .55-.18 1-.4 1s-.4-.45-.4-1 .18-1 .4-1 .4.45.4 1m-243 3.119c-.163.835-.184 1.63-.048 1.766s.261-.097.276-.518c.027-.733.044-.731.372.033l.344.8.034-.8c.028-.665.099-.699.422-.2.307.475.388.392.388-.4 0-1.291-.759-2.602-.81-1.4l-.034.8-.324-.8c-.274-.675-.371-.562-.62.719m363.23 2.229c.424.412.841.686.927.61.252-.223-.814-1.358-1.276-1.358-.232 0-.074.337.349.748m-361.952 2.076c-.248.946-.263.95-.837.17-.808-1.098-1.321.136-.609 1.466.863 1.613 1.302 1.836 2.068 1.054.385-.393.526-.714.313-.714s-.297-.237-.186-.526.045-.951-.147-1.471l-.35-.944zm-3.278 7.695c-.163.835-.184 1.63-.048 1.766s.261-.097.276-.518c.027-.733.044-.731.372.033l.344.8.034-.8c.028-.665.099-.699.422-.2.307.475.388.392.388-.4 0-1.291-.759-2.602-.81-1.4l-.034.8-.324-.8c-.274-.675-.371-.562-.62.719m1.392 4.891c-.278.335-.398.717-.266.849.409.41 1.474-.202 1.474-.846 0-.784-.559-.785-1.208-.003m253.608 3.423c0 1.679-.145 2.385-.467 2.278-.664-.221-.695-4.711-.033-4.711.345 0 .5.753.5 2.433m104.4 2.725c-.846.236-.892.32-.3.548.484.186.712.735.74 1.781.022.832.181 1.963.353 2.513.204.649.295-.088.261-2.096l-.054-3.06c0 .02-.45.161-1 .314M283.2 158.8c0 1.1-.18 2-.4 2-.441 0-.559-3.307-.133-3.733.477-.478.533-.295.533 1.733M22.893 162c0 .77.082 1.085.183.7s.1-1.015 0-1.4c-.101-.385-.183-.07-.183.7m363.92.142c-.007.188.437.877.987 1.531s1 1.005 1 .78c0-.5-1.97-2.79-1.987-2.311m-101.756 5.335c-.562.561-.94-.366-.519-1.273l.462-.995.13 1.032c.072.568.039 1.124-.073 1.236m-261.008-1.336c-.243.293-.357.618-.252.722.104.105.031.741-.162 1.415-.317 1.105-.273 1.205.445 1.017.625-.164.75-.443.58-1.293-.119-.597-.031-1.271.197-1.499.264-.264.272-.499.023-.653-.214-.133-.588-.002-.831.291M287.2 174c0 2.639-.11 3.2-.627 3.2-.406 0-.557-.247-.429-.7.109-.385.319-1.825.466-3.2.366-3.406.59-3.139.59.7m-193.274 1.5c.271 1.485.597 3.285.726 4 .192 1.061.107 1.3-.464 1.3-.385 0-.958.315-1.274.7-.331.405-.444.447-.267.1.264-.517.212-.524-.37-.051-.891.723-.941 5.845-.077 7.913 1.003 2.401.815 4.538-.4 4.538h-1v-13.2h2v-4c0-4.644.429-5.138 1.126-1.3m299.561-.932c.782 1.046 1.065 1.095.691.12-.132-.344-.502-.727-.822-.849-.438-.169-.406.012.131.729M289.2 185.4v6.6h-1c-1.187 0-1.187.006-.2-2.8.567-1.611.777-3.298.787-6.3.007-2.255.103-4.1.213-4.1s.2 2.97.2 6.6m108.458-1.3c.362.847.36 1.342-.01 2.154l-.48 1.055-.984-.924c-1.288-1.21-1.269-.734.026.664 1.578 1.702 3.103-1.371 1.612-3.249-.602-.759-.611-.744-.164.3m-379.252 1.12c.484 1.689.794 1.96.794.696 0-.56-.262-1.235-.582-1.501-.499-.414-.529-.3-.212.805m380.031 5.335c-.567.683.195 2.645 1.027 2.645.812 0 .665-1.908-.164-2.124-.667-.174-.667-.185 0-.23.385-.025.7-.226.7-.446 0-.589-1.03-.487-1.563.155m-385.237.714c0 .257-.256.752-.568 1.1-.76.843-.919 1.409-.432 1.531.22.055.423-.08.45-.3s.074-.535.103-.7.41.24.847.9l.795 1.2.008-1c.007-.793.09-.876.397-.4.337.522.389.515.394-.051.003-.358-.264-.875-.594-1.149s-.6-.746-.6-1.049-.18-.551-.4-.551-.4.211-.4.469m277.899 14.209c-.071 2.377-.129.542-.13-4.078 0-4.62.058-6.565.129-4.322s.072 6.023.001 8.4M89.6 202.224c0 3.584-.152 5.776-.4 5.776s-.4-2.275-.4-6.024c0-3.913.14-5.937.4-5.776.237.146.4 2.604.4 6.024m-77.679-3.778c.23 1.567.774 1.828.721.347-.023-.65-.233-1.256-.467-1.346-.261-.101-.359.283-.254.999m-1.896 1.83c-.031 1.07.626 1.545 1.329.962.286-.237.648-.303.804-.147.156.157.163-.03.016-.415-.255-.664-.296-.663-.794.012-.49.665-.551.646-.927-.288-.38-.944-.404-.951-.428-.124m82.761 9.424c-.008.715-.272 1.75-.586 2.3-.39.682-.576 2.302-.586 5.1-.008 2.457-.174 4.1-.414 4.1-.249 0-.4-2.267-.4-6 0-3.956-.144-6-.424-6-.233 0-.312-.18-.176-.4.677-1.096 2.6-.427 2.586.9m-87.864 1.202c-.483.714-1.002 1.658-1.154 2.098l-.276.8.627-.8c.618-.79.631-.788 1.062.2l.436 1-.15-1.086c-.083-.597.019-1.143.226-1.212s.316-.614.242-1.211l-.135-1.087zM6 213.267c0 1.456.175 1.403.551-.167.157-.653.099-1.1-.143-1.1-.225 0-.408.57-.408 1.267m.068 2.86c-.477.509-.868 1.074-.868 1.257s.46-.163 1.022-.77.953-1.172.868-1.257-.544.262-1.022.77m88.728 6.573c-.003.165-.273 1.184-.6 2.264-.328 1.08-.596 2.475-.596 3.1s-.18 1.136-.4 1.136c-.235 0-.4-1.4-.4-3.4 0-3.36.012-3.4 1-3.4.55 0 .998.135.996.3m-93.584 3.4c-.007.385-.282.7-.612.7s-.6.27-.6.6c0 .769 1.552.79 1.846.024.122-.316.031-.901-.2-1.3-.393-.674-.423-.676-.434-.024m285.941 3-.047 2.7-.326-1.94c-.179-1.067-.417-2.18-.53-2.474-.17-.443.064-.706.85-.954.055-.018.079 1.183.053 2.668M95.56 234.3c.388.746.363.9-.146.9-.399 0-.614-.374-.614-1.067 0-1.172.071-1.157.76.167m189.615 1.4c-.024 1.216-.05 1.239-.401.363-.207-.515-.275-1.1-.151-1.3.409-.663.577-.377.552.937m.025 2.7c0 .446-.267.8-.603.8-.504 0-.521-.133-.104-.8.275-.44.546-.8.603-.8s.104.36.104.8m-2 3.28c0 1.886-.557 1.672-.99-.38-.217-1.034-.144-1.3.358-1.3.476 0 .632.416.632 1.68m114.035 4.433c.349.268.74.757.869 1.087.202.521.237.519.264-.02.036-.705-.721-1.586-1.348-1.567-.231.007-.134.232.215.5M394 252.2c-.408.491-.38.6.151.6.357 0 .649-.27.649-.6s-.068-.6-.151-.6-.375.27-.649.6m1.099.41c-.264 1.378-.077 1.728.575 1.076.323-.323.34-.728.057-1.363-.394-.882-.409-.875-.632.287m-14.285 17.551c-1.228.444-1.287.527-.523.727.559.146 1.105-.042 1.548-.531.377-.417.612-.743.523-.727s-.786.256-1.548.531M242.8 290.914c.33.123.015.237-.7.254-.916.023-1.3-.149-1.3-.582 0-.455.181-.521.7-.254.385.198.97.46 1.3.582m-101.6-.114c0 .22-.54.4-1.2.4s-1.2-.18-1.2-.4.54-.4 1.2-.4 1.2.18 1.2.4m208.1 1.876c.385.1 1.015.1 1.4 0 .385-.101.07-.183-.7-.183s-1.085.082-.7.183m-5.654.4c-.025.262-.721.546-1.546.633l-1.5.157 1.728.067c1.547.06 1.714.161 1.6.967-.17 1.197-3.928 1.633-3.928.455 0-.378-.106-.582-.237-.452-.807.808.31 1.712 1.936 1.566 1.854-.166 4.753-2.469 3.108-2.469-.412 0-.831-.315-.931-.7s-.204-.486-.23-.224M2.08 296.08c-.641.641-.605.987.102.987.321 0 .498-.138.394-.306s-.017-.412.192-.542c.222-.136.307.23.204.873-.169 1.055-.148 1.071.425.332.332-.428.603-.555.603-.285 0 .38.126.375.549-.021.459-.428.353-.596-.646-1.015-1.438-.605-1.243-.603-1.823-.023m165.22 2.996c.385.1 1.015.1 1.4 0 .385-.101.07-.183-.7-.183s-1.085.082-.7.183m48 0c.385.1 1.015.1 1.4 0 .385-.101.07-.183-.7-.183s-1.085.082-.7.183m-40.841 1.453c-.767.924.479 1.719 1.772 1.13.554-.253 2.843-.493 5.088-.534l4.081-.075-4.6-.239c-2.53-.131-4.886-.375-5.236-.543-.387-.185-.82-.083-1.105.261m32.175-.229c-.164.165-2.489.403-5.166.529l-4.868.229 4.281.071c2.355.039 4.74.28 5.3.535.784.358 1.271.35 2.114-.035l1.096-.499-.996-.551c-1.17-.648-1.363-.678-1.761-.279M321.2 304c0 1.054.134 1.194 1.1 1.154.677-.029.831-.117.4-.23-.424-.111-.7-.565-.7-1.153 0-.534-.18-.971-.4-.971s-.4.54-.4 1.2m-313 .01c.72.833.728.899.079.662-.471-.172-.626-.111-.449.177.15.242.024.617-.279.833-.419.3-.376.337.182.156.403-.131.898-.238 1.1-.238.749 0 .335-1.588-.533-2.044l-.9-.472zm1.602 4.754c.002.57.362 1.542.8 2.161 1.6 2.256 2.702 3.504 2.911 3.295.117-.117.484.01.814.283.531.439.536.391.041-.403-.308-.495-.801-.9-1.095-.9-.363 0-.512-.481-.465-1.5.038-.825.031-1.68-.017-1.9a2.4 2.4 0 0 1-.038-.7c.062-.395-.881-.199-1.208.251-.141.193-.464.222-.72.065-.332-.206-.342-.434-.036-.803.319-.384.247-.563-.281-.701-.543-.142-.707.056-.706.852m306.727-.442c.457.504.509.867.203 1.414-.367.656-.321.686.428.285.462-.247.84-.623.84-.835s.31-.386.689-.386c1.078 0-.643-1.037-1.831-1.104-.862-.048-.89.006-.329.626M13.351 311.9c-.028.605.032.875.133.6.1-.275.408-.5.683-.5s.5-.27.5-.6c0-1.137-1.264-.656-1.316.5m284.887 9.455c.277.721 1.254.832 2.162.245.489-.316.439-.389-.267-.394-.477-.003-1.154-.116-1.505-.251-.466-.179-.571-.071-.39.4m-4.557 2.263c-.309.495-.335.782-.072.782.229 0 .523-.278.653-.617.36-.938-.029-1.049-.581-.165m-263.822 1.791c.307.801 1.279 1.048 1.168.297a.92.92 0 0 0-.733-.733c-.387-.057-.558.115-.435.436m259.641 2.456c.707.285.622 1.713-.119 1.998-.356.136-.846-.072-1.151-.49-.492-.672-.554-.632-.808.527-.19.864-.454 1.186-.849 1.034-.343-.131-.573.025-.573.39 0 .335-.225.707-.5.827-.275.119.04.112.7-.017s1.47-.545 1.8-.926.919-.804 1.31-.941c1.46-.513 1.536-2.721.09-2.629-.22.014-.175.116.1.227M37.912 332.4c.254.726 1.314 2 1.664 2 .139 0 .253-.585.253-1.3 0-1.141-.131-1.3-1.064-1.3-.772 0-1.006.165-.853.6m7.742 2.7c-.03.275-.638.521-1.354.546-.79.029-1.003.123-.542.241.609.156.648.263.2.547-.475.301-.473.355.011.36.312.003.897.304 1.3.668.476.431.731.493.731.176 0-.267.15-.393.333-.279s.334-.056.334-.377c0-.32-.138-.582-.306-.582s-.383-.405-.479-.9-.198-.675-.228-.4m8.158 2.08c-.147.238-.435.329-.64.203-.204-.127-.372-.04-.372.193 0 .519.409.532 1.188.04.324-.205.477-.484.34-.621-.136-.136-.368-.053-.516.185m-4.128.659c-.424.462-.407.561.1.561.339 0 .616.191.616.424s-.178.313-.395.179c-.227-.14-.294.02-.158.376.238.619.669.782 1.693.642.297-.041.422.118.277.352-.146.235-.084.427.136.427s.503-.167.629-.371c.235-.38-1.262-1.059-1.982-.898-.22.049.013-.237.518-.636s.79-.854.633-1.01c-.432-.433-1.032-.34-.751.115.136.22.07.4-.147.4s-.453-.252-.524-.561c-.111-.481-.202-.481-.645 0m13.516 4.147c-.471.306-.3.452.8.68l1.4.291-1.589.455-1.59.454 1.505.244c.827.135 2.07.72 2.761 1.302 1.388 1.167 4.436 1.149 5.353-.033.241-.312.556-.479.7-.373.143.107.155.059.027-.106-.129-.165-.444-.308-.7-.318-.257-.01-.428-.216-.381-.457.056-.29-.725-.397-2.3-.317-1.813.093-2.467-.023-2.726-.486-.301-.539-.369-.535-.588.034-.136.354-.478.641-.759.638-.397-.005-.391-.084.026-.348.297-.188.475-.68.396-1.094-.161-.848-1.429-1.155-2.335-.566m8.216 2.841q.641 1.034-1.487.543c-1.299-.299-1.306-.312-.329-.598 1.437-.42 1.525-.417 1.816.055M78.8 346c.533.345.533.389 0 .4s-.533.055 0 .4c.499.323.466.394-.2.425-.453.022-.577.128-.287.244.283.114.807-.035 1.165-.331.554-.457.622-.448.454.062-.109.33-.723.714-1.365.853-1.112.24-1.118.255-.147.3.967.045 1.98-.571 1.98-1.204 0-.467-1.213-1.55-1.729-1.543-.276.004-.223.167.129.394m-4.6.4-.8.344.8.056c.777.055.777.065.029.358-.715.28-.72.322-.067.572 1.088.418 2.571.342 1.88-.096-.448-.284-.409-.391.2-.547.714-.183.712-.199-.042-.269l-.8-.074.8-.344c.729-.313.712-.344-.2-.344-.55 0-1.36.155-1.8.344m193.8 1.176c0 .305-.26.41-.648.261-.493-.189-.6-.063-.445.527.143.548.038.713-.357.562-.391-.15-.482-.015-.304.449.389 1.014 1.458.569 1.812-.755.174-.649.231-1.264.129-1.367s-.187.043-.187.323m-181.8.824-.8.344.8.056c.777.055.777.065.029.358-.715.28-.72.322-.067.572 1.057.406 2.57.341 1.904-.081-.739-.468-.661-.964.204-1.305.596-.235.546-.288-.27-.288-.55 0-1.36.155-1.8.344m16.25 14.139c-.605.729.937 2.234 1.605 1.566.553-.553.041-1.427-.675-1.153-.347.133-.46.001-.317-.372.279-.728-.025-.748-.613-.041m3.195 4.584c.481.771 1.524 1.473 1.76 1.186.049-.06-.448-.545-1.104-1.078-1.112-.902-1.157-.91-.656-.108m139.772 2.555c-.932.977-.998 1.14-.309.771.481-.257 1.064-.823 1.297-1.258.564-1.055.412-.98-.988.487m-130.171 1.846c-.025.288-.206.425-.401.304-.857-.53-1.24.853-.437 1.579.782.708.829.704 1.614-.139.617-.661.67-.868.223-.868-.323 0-.669-.315-.769-.7-.101-.385-.204-.464-.23-.176m113.677 8.956c.167.481.067.614-.343.457-.319-.123-.58-.023-.58.22 0 .244-.315.449-.7.456-.644.011-.64.058.05.581.433.327.65.829.513 1.187-.315.819-1.049.785-1.706-.081-.506-.667-.532-.667-.544 0a.705.705 0 0 1-.693.7c-.514 0-.567.113-.219.461.326.326.341.687.05 1.231-.37.69-.327.723.419.324.456-.244.83-.622.83-.84s.455-.569 1.01-.78c.556-.211 1.122-.702 1.258-1.09s.627-1.012 1.09-1.387c.825-.667.827-.695.085-1.4-.681-.647-.733-.651-.52-.039m-9.677 7.044c-.025.288-.244.401-.486.251-.313-.193-.323-.053-.034.487.264.493.271 1 .02 1.448-.54.965-.171.86 1.092-.31.775-.719.902-1 .45-1-.346 0-.712-.315-.812-.7s-.204-.464-.23-.176m-17.039 6.868c-1.056 1.167-.193 2.028 1.942 1.938l1.651-.07-1.665-.151c-2.65-.241-2.603-1.824.065-2.214l1.2-.175-1.238-.06c-.784-.038-1.501.23-1.955.732M168.2 396.4c-.729.313-.712.344.2.344.55 0 1.36-.155 1.8-.344.729-.313.712-.344-.2-.344-.55 0-1.36.155-1.8.344m29.8 0c.33.213 1.05.388 1.6.388.792 0 .875-.081.4-.388-.33-.213-1.05-.388-1.6-.388-.792 0-.875.081-.4.388m-30 1.2c.33.213 1.05.388 1.6.388.792 0 .875-.081.4-.388-.33-.213-1.05-.388-1.6-.388-.792 0-.875.081-.4.388m30.4 0c-.475.307-.392.388.4.388.55 0 1.27-.175 1.6-.388.475-.307.392-.388-.4-.388-.55 0-1.27.175-1.6.388m-26.095.683c.497.096 1.217.092 1.6-.008.382-.1-.025-.179-.905-.174-.88.004-1.193.086-.695.182m22 0c.497.096 1.217.092 1.6-.008.382-.1-.025-.179-.905-.174-.88.004-1.193.086-.695.182"/><path fill="#04835d" d="M217.8 59.799c.22.075 5.35.202 11.4.284s9.65.029 8-.115c-3.055-.268-20.129-.417-19.4-.169m-4.293.491c.719.089 1.799.087 2.4-.004s.013-.164-1.307-.162-1.812.077-1.093.166m-4.007.392a5.7 5.7 0 0 0 1.8 0c.495-.095.09-.173-.9-.173s-1.395.078-.9.173m31.6 0a5.7 5.7 0 0 0 1.8 0c.495-.095.09-.173-.9-.173s-1.395.078-.9.173m-38.241.549c-1.397.181-2.747.421-3 .534-.551.245 4.009-.154 6.541-.573 2.618-.433-.135-.403-3.541.039m41.574-.281c.092.082 1.247.259 2.567.393 1.584.161 2.128.119 1.6-.122-.756-.345-4.521-.59-4.167-.271M195.8 62.4c-1.663.423-.026.442 2 .023 1.345-.278 1.409-.331.4-.33-.66.001-1.74.139-2.4.307m-6.2 1.246c-3.914.89-4.901 1.241-2.6.923 2.241-.309 7.771-1.685 6.8-1.691-.44-.003-2.33.342-4.2.768m70.4 1.532c.55.442 1.2.808 1.445.813s1.094.504 1.888 1.109 2.303 1.631 3.355 2.279c1.051.648 3.96 2.718 6.463 4.6s4.951 3.691 5.44 4.021c2.272 1.534 10.516 9.422 14.446 13.823 7.443 8.333 11.61 14.147 16.343 22.801 2.702 4.941 6.201 12.423 6.817 14.576.157.55.611 1.72 1.007 2.6.985 2.185 2.34 6.319 2.992 9.13.298 1.281.806 2.993 1.13 3.803.325.81.807 2.911 1.073 4.67s.653 3.516.861 3.906.734 3.27 1.17 6.4.99 6.861 1.232 8.291c.581 3.435.616 32.508.043 36-.235 1.43-.799 5.235-1.254 8.455-.455 3.221-1.009 6.281-1.231 6.8s-.672 2.54-1 4.489-.757 3.749-.955 4-.576 1.446-.839 2.656c-.264 1.21-.719 2.83-1.011 3.6s-.852 2.534-1.242 3.919c-.391 1.386-.86 2.611-1.042 2.724s-.331.486-.331.831c0 .344-.437 1.638-.97 2.876a167 167 0 0 0-2.05 5.05c-1.827 4.74-8.137 17.028-10.579 20.6-.225.33-1.173 1.801-2.105 3.269-2.391 3.763-5.02 7.505-6.356 9.045-.627.723-1.141 1.443-1.142 1.6s-.586.926-1.3 1.707a49 49 0 0 0-2.482 3c-.651.869-2.541 3.026-4.2 4.795s-3.56 3.839-4.225 4.6-2.886 2.824-4.935 4.584a1401 1401 0 0 0-4.991 4.302c-1.54 1.341-2.339 1.973-3.161 2.498-.344.22-1.678 1.213-2.965 2.207-2.013 1.555-4.124 3.049-7.539 5.335-.44.294-1.88 1.229-3.2 2.077-1.32.849-2.638 1.776-2.929 2.062s-.763.519-1.051.519-.748.272-1.024.605-1.288.952-2.249 1.377-1.747.944-1.747 1.152c0 .209-.484.501-1.076.649-.591.149-1.536.588-2.1.977-1.53 1.057-13.183 6.689-15.024 7.263-.88.274-1.971.739-2.424 1.034s-1.623.798-2.6 1.119-3.306 1.149-5.176 1.842-4.57 1.603-6 2.023-3.14 1.012-3.8 1.315c-.66.304-2.089.679-3.176.834s-2.804.608-3.815 1.007-2.912.846-4.224.996c-1.312.149-3.421.617-4.687 1.039-1.265.423-3.065.777-4 .789-1.529.019-3.61.364-9.098 1.511-7.729 1.614-58.098 1.235-67.4-.507-1.76-.329-5.63-.786-8.6-1.014-2.97-.229-6.289-.686-7.376-1.017-2.844-.866-4.624-.461-4.624 1.051 0 1.265.221 1.355 1.822.747 1.189-.452 11.667.444 14.178 1.212.77.236 5.54.609 10.6.83s9.92.59 10.8.823c2.296.606 35.178.925 39 .379 1.65-.236 6.06-.702 9.8-1.035 3.74-.334 7.25-.803 7.8-1.044.55-.24 2.952-.694 5.338-1.007 2.386-.314 4.911-.811 5.612-1.103.701-.293 2.349-.664 3.662-.824 1.314-.16 3.176-.636 4.139-1.057s2.192-.766 2.732-.766c.539 0 2.091-.435 3.449-.966s3.098-1.091 3.868-1.243 2.21-.595 3.2-.983 3.6-1.387 5.8-2.22 4.355-1.756 4.789-2.052c.434-.295 1.061-.536 1.394-.536.487 0 10.005-4.575 12.417-5.968.33-.191 1.05-.549 1.6-.796s1.81-.979 2.8-1.627c.99-.649 2.34-1.429 3-1.735s3.36-1.997 6-3.758 5.606-3.705 6.591-4.321 2.004-1.317 2.263-1.558c.26-.24 1.757-1.337 3.326-2.437 15.091-10.58 36.797-30.012 47.137-42.2a485 485 0 0 1 6.086-7c1.761-1.98 3.657-4.281 4.213-5.114.556-.832 1.343-1.845 1.749-2.251s1.476-1.705 2.378-2.887c4.551-5.965 6.57-8.636 7.182-9.502.371-.525 1.3-1.785 2.063-2.8 1.634-2.173 4.995-7.061 8.694-12.646 1.458-2.2 3.295-4.959 4.084-6.131s2.154-3.35 3.034-4.839 1.805-2.961 2.056-3.269c1.79-2.203 14.993-27.375 15.56-29.665.15-.607.421-1.195.602-1.307.349-.216 2.098-3.834 2.991-6.189.292-.77 1.188-2.93 1.99-4.8.803-1.87 1.737-4.3 2.075-5.4 1.161-3.774 2.416-5.795 3.633-5.846.912-.038.849-.093-.381-.333-1.665-.324-3.27-1.645-4.156-3.421a38 38 0 0 0-1.484-2.611 181 181 0 0 1-1.686-2.75 25 25 0 0 0-1.7-2.447c-.495-.609-.9-1.296-.9-1.527s-.331-.655-.737-.942c-.405-.288-.971-.973-1.259-1.523s-.945-1.54-1.46-2.2-1.204-1.56-1.531-2c-1.632-2.199-7.641-9.708-8.374-10.465a25 25 0 0 1-1.639-1.925c-1.096-1.452-9.782-10.555-13.147-13.779a1378 1378 0 0 1-6.751-6.531c-2.202-2.145-4.149-3.9-4.326-3.9-.178 0-1.28-.889-2.449-1.975-3.497-3.247-3.942-3.625-4.258-3.625-.26 0-1.596-1.113-4.103-3.417-.348-.321-.839-.583-1.09-.583s-.752-.45-1.113-1c-.36-.55-.88-1-1.154-1-.489 0-2.808-1.605-4.426-3.064a10 10 0 0 0-1.8-1.236c-.541-.274-1.793-1.132-2.783-1.905s-2.373-1.671-3.073-1.995c-.7-.323-1.394-.786-1.544-1.027-.149-.242-1.061-.778-2.027-1.192s-1.756-.939-1.756-1.167-.244-.414-.542-.414c-.297 0-1.027-.45-1.62-1s-1.315-1-1.603-1-1.186-.45-1.997-1c-.81-.55-1.632-1-1.825-1s-.86-.427-1.482-.948c-.622-.522-1.708-1.074-2.412-1.228-.705-.154-1.695-.599-2.2-.99-.506-.39-1.519-.826-2.253-.969-.733-.142-1.813-.595-2.4-1.006-.586-.412-1.723-.868-2.525-1.014-.803-.146-1.911-.621-2.464-1.056-.552-.434-1.515-.791-2.14-.793s-2.037-.422-3.137-.934c-1.1-.511-2.788-1.055-3.751-1.209-.963-.153-2.763-.612-4-1.019s-2.969-.857-3.849-1l-1.6-.26zm-77.6.249-1.4.566 1.4-.248c.77-.137 1.76-.394 2.2-.572l.8-.322-.8.005c-.44.003-1.43.26-2.2.571m-4 .973c-.792.254-.833.32-.2.32.44 0 1.25-.144 1.8-.32.792-.254.833-.32.2-.32-.44 0-1.25.144-1.8.32m-3 1.014c-1 .482-1.034.537-.2.334 1.133-.277 2.407-.927 1.8-.918-.22.003-.94.266-1.6.584m-10.424 3.608c-.764.612-.763.616.024.254.44-.202 1.07-.468 1.4-.59.518-.193.515-.227-.024-.254-.342-.018-.972.248-1.4.59m-9.076 3.607c-.605.328-1.1.685-1.1.794s.495-.052 1.1-.358c.605-.305 1.37-.656 1.7-.779.533-.198.533-.225 0-.238-.33-.009-1.095.253-1.7.581m-8.9 4.402c-.88.526-1.42.958-1.2.96s1.12-.439 2-.981 1.42-.974 1.2-.96-1.12.455-2 .981m-4.281 2.126c-2.6 1.481-2.954 1.964-.519.707 2.349-1.212 3.358-1.866 2.8-1.815-.22.02-1.246.519-2.281 1.108m-5.215 2.985c-3.104 1.781-3.508 2.329-.504.684 2.187-1.197 3.441-2.045 2.98-2.014-.099.007-1.213.605-2.476 1.33m-6.004 3.679c-1.485.991-2.7 1.883-2.7 1.982 0 .209 2.894-1.604 4.614-2.89 2.006-1.501.931-.991-1.914.908m-5.7 3.833c-3.589 2.472-8.13 5.909-8.414 6.369-.138.222 1.519-.908 3.682-2.514s4.697-3.435 5.632-4.068c1.478-.999 1.97-1.442 1.6-1.44-.055 0-1.18.744-2.5 1.653m-12.019 9.377L111 103.663l2.9-2.513c2.669-2.313 3.111-2.75 2.781-2.75-.065 0-1.37 1.184-2.9 2.631m-6.85 6.069c-2.304 2.234-2.583 2.57-.77.927 4.176-3.784 4.844-4.427 4.6-4.427-.121 0-1.845 1.575-3.83 3.5m-8.607 8.558a468 468 0 0 1-4.825 5.465c-1.486 1.654-2.598 3.112-2.47 3.239s.426-.118.665-.544 1.44-1.88 2.67-3.23c3.381-3.711 6.508-7.388 6.283-7.388-.11 0-1.155 1.106-2.323 2.458M89.55 125.9c-.55.605-1.259 1.484-1.575 1.953a171 171 0 0 1-1.894 2.7c-.726 1.016-1.241 1.847-1.146 1.847s.959-1.096 1.919-2.436c1.755-2.448 1.91-2.648 3.308-4.276 1.096-1.277.578-1.097-.612.212M83.6 134c-.47.66-.764 1.2-.654 1.2s.584-.54 1.054-1.2.764-1.2.654-1.2-.584.54-1.054 1.2m-3.171 4.654c-.456.58-.824 1.255-.817 1.5s.212.086.456-.354.717-1.115 1.05-1.5.501-.7.373-.7-.606.474-1.062 1.054m-3.874 6.358c-.365.557-.591 1.086-.502 1.175s.465-.367.836-1.013c.825-1.438.58-1.557-.334-.162m-1.673 3.415c-.498.865-.825 1.573-.727 1.573.276 0 1.957-2.821 1.784-2.994-.084-.084-.559.556-1.057 1.421m308.524 11.685c.386.612.803 1.012.926.889s-.193-.623-.702-1.112l-.926-.889zm-315.341 1.705c-.67 1.471-.542 1.785.182.448.339-.625.541-1.211.449-1.302-.091-.092-.375.293-.631.854m318.135.581c.174.55.605 1.238.958 1.53s.429.425.17.295c-.26-.13-.603-.025-.763.233-.199.323-.03.402.541.253.641-.168.888.011 1.082.784.138.551.337.915.443.81.332-.333-.612-2.365-1.701-3.659-.978-1.161-1.026-1.178-.73-.246m-320.482 5.12c-.485 1.238-.824 2.309-.754 2.379.204.205 1.896-3.921 1.76-4.293-.068-.186-.521.675-1.006 1.914m324.454 2.388c-.251.173-.309.707-.14 1.294l.288 1 .04-1.1c.048-1.329.729-1.44 1.228-.2.221.552.371.66.387.28.045-1.104-.988-1.834-1.803-1.274m-326.478 2.988c-.489 1.344-.825 2.508-.746 2.588.08.079.553-.948 1.052-2.282s.835-2.499.746-2.588-.562.938-1.052 2.282m328.854 2.098c-.136.353-.135.755.003.892.137.137.262-.096.277-.517.027-.733.044-.731.372.033.28.652.349.675.372.124.038-.928-.721-1.323-1.024-.532m-330.512 2.644c-.27.903-.418 1.716-.328 1.806s.385-.576.656-1.478c.27-.903.418-1.716.328-1.806s-.385.576-.656 1.478m-1.007 3.393c-.148.586-.191 1.143-.097 1.237.095.094.292-.308.439-.895.148-.586.191-1.143.097-1.237-.095-.094-.292.308-.439.895m-.965 3.315c-.255.852-.451 1.798-.436 2.102.015.305.296-.32.624-1.388s.525-2.015.437-2.103-.37.537-.625 1.389m336.455.139c-.281.355-.253.885.088 1.694l.496 1.176.289-1.316c.319-1.452-.211-2.394-.873-1.554M59.05 188.45c-.333 1.667-.01 1.99.35.35.152-.691.193-1.341.091-1.442-.102-.102-.3.389-.441 1.092m-.821 2.979c-.148.586-.191 1.143-.097 1.237.095.094.292-.308.439-.895.148-.586.191-1.143.097-1.237-.095-.094-.292.308-.439.895m-1.973 9.055c-.135.504-.229 1.276-.21 1.716s.199.098.4-.76c.39-1.662.224-2.5-.19-.956m-.547 4.316c0 .99.078 1.395.173.9a5.7 5.7 0 0 0 0-1.8c-.095-.495-.173-.09-.173.9m-1.07 7.228c-.392 2.515-.635 5.202-.54 5.972.155 1.253.18 1.208.237-.43.035-1.006.348-3.483.695-5.505.348-2.022.562-3.886.477-4.142s-.477 1.591-.869 4.105m-.885 13.172c0 2.75.064 3.875.142 2.5a54 54 0 0 0 0-5c-.078-1.375-.142-.25-.142 2.5M398.8 232c0 .22.27.4.6.4s.6-.18.6-.4-.27-.4-.6-.4-.6.18-.6.4M53.755 243.8c.001 2.86.065 3.978.142 2.483.077-1.494.077-3.834-.001-5.2-.078-1.365-.141-.143-.141 2.717m342.431 2.35c-.284.313-.196.659.288 1.135.865.851 1.371.2.647-.834-.382-.545-.637-.627-.935-.301M54.114 251.8c.003 1.1.081 1.503.173.895.092-.609.09-1.509-.005-2s-.171.005-.168 1.105m.379 3.4c0 .77.082 1.085.183.7s.1-1.015 0-1.4c-.101-.385-.183-.07-.183.7m336.707.8c-.473.305-.483.389-.05.394.399.004.489.363.328 1.306l-.222 1.3.573-1.3c.315-.715.798-1.303 1.072-1.306q.496-.007-.101-.394c-.33-.213-.69-.388-.8-.388s-.47.175-.8.388m-336.36 1.833c.022.642.193 1.617.38 2.167.229.674.264.349.108-1-.259-2.25-.549-2.941-.488-1.167m.853 6.167c0 .77.082 1.085.183.7s.1-1.015 0-1.4c-.101-.385-.183-.07-.183.7m.394 2.4c-.004.55.137 1.45.313 2 .431 1.344.431-.108 0-1.8-.274-1.078-.306-1.098-.313-.2m2.356 11.2c-.015.33.223 1.5.529 2.6s.569 1.73.585 1.4c.015-.33-.223-1.5-.529-2.6s-.569-1.73-.585-1.4m308.675 2.837c.591.792.15 1.317-.59.703-.432-.358-.493-.315-.294.203.138.362.492.657.785.657.916 0 1.109-.847.35-1.538-.607-.554-.648-.558-.251-.025M59.637 282.6c-.014.22.23 1.21.542 2.2s.566 1.44.564 1c-.004-.834-1.064-3.9-1.106-3.2m302.763.628c0 .174-.405.394-.9.49l-.9.173.9.055c.495.029.903.279.906.554.004.341.1.362.3.066.162-.239.631-.619 1.044-.844.686-.375.661-.427-.3-.61-.578-.111-1.05-.059-1.05.116M354.2 288l-1.6.286 1.5.057c1.607.061 1.935.564.8 1.225-.483.281-.528.411-.146.42.923.02 2.485-1.887 1.77-2.162-.324-.124-.62-.2-.657-.169s-.787.185-1.667.343m-2.328 1.356c-.16.419-.777.664-1.759.701l-1.513.057 1.513.243c.833.134 1.553.423 1.6.643.134.617-2.484.721-3.204.127-.538-.444-.608-.432-.443.073.312.955 3.056 1.008 4.08.078.47-.427 1.124-.875 1.454-.996.485-.177.47-.225-.08-.25-.374-.018-.842-.322-1.041-.676-.331-.591-.38-.591-.607 0m-290.211.244c0 .33.242 1.23.539 2s.539 1.13.539.8-.242-1.23-.539-2-.539-1.13-.539-.8m282.937 3.203c-.278.449.894 1.039 1.286.646.137-.137-.096-.267-.517-.289-.597-.031-.546-.111.233-.36.931-.298.939-.323.124-.36-.482-.022-.989.141-1.126.363M62.83 293.6c-.002.576 1.127 2.866 1.156 2.346.008-.14-.249-.86-.57-1.6-.322-.74-.585-1.076-.586-.746m277.782 1.18c-.144.234.006.529.334.654.847.326 2.454.041 2.454-.434 0-.551-2.463-.746-2.788-.22m2.088.296c-.385.1-1.015.1-1.4 0-.385-.101-.07-.183.7-.183s1.085.082.7.183m-23.582 11.361c.591.792.15 1.317-.59.703-.432-.358-.493-.315-.294.203.138.362.492.657.785.657.916 0 1.109-.847.35-1.538-.607-.554-.648-.558-.251-.025m-3.396 2.007c.571.332.623.54.251.988-.275.331-.304.568-.071.568.967 0 1.364-1.136.55-1.572-1.031-.552-1.682-.537-.73.016m-4.09 3.056c-.023.648-.284.908-.932.928-.854.027-.859.045-.1.35.747.301.733.335-.2.518-.947.185-.952.198-.087.25.501.029 1.016-.216 1.142-.546.127-.33.526-.603.888-.606.413-.004.494-.115.217-.3-.242-.162-.543-.564-.668-.894q-.229-.602-.26.3m-6.377 4.458c-.435.275-.441.38-.029.517.296.099.385.383.209.668-.237.385-.435.389-.88.02-.465-.386-.526-.352-.321.18.35.913.922.821 1.977-.317.735-.793.793-1.016.313-1.2-.716-.275-.61-.286-1.269.132M277.554 337.9c-.026.165-.071.555-.1.866-.07.731-1.05 1.069-1.066.367q-.01-.539-.401.133c-.949 1.626.061 1.886 1.566.403.924-.91 1.33-1.581 1.069-1.763-.548-.381-1.01-.384-1.068-.006m-28.128 25.657c-.15.244-.083.443.15.443s.424.277.424.616c0 .507.099.524.561.1.393-.362.423-.564.1-.676-.254-.088-.573-.332-.711-.543-.153-.233-.356-.21-.524.06m-142.828 3.246c-.298.482.764.958 1.489.666.282-.113.063-.223-.487-.244-.797-.03-.878-.116-.4-.425.361-.233.41-.39.124-.394a.94.94 0 0 0-.726.397m28.081 16.259c.135.351-.121.552-.736.578l-.943.04 1 .32c1.72.551 2.4.451 2.4-.353 0-.479-.352-.821-.963-.938-.691-.132-.905-.032-.758.353m88.87 2.403c-.502.609-.464.622.451.146 1.341-.697 1.442-.811.716-.811-.34 0-.865.299-1.167.665m-1.549.529c.514.327.522.512.055 1.294-.515.862-.506.876.155.243.747-.714.558-1.935-.297-1.925-.358.004-.331.122.087.388m-78.118 1.337c-.139.361-.869.684-1.76.776l-1.522.159 1.438.067c.863.04 1.728.387 2.162.867.398.44.91.8 1.138.8s.066-.257-.362-.571c-.848-.624-.607-.82 1.424-1.155.832-.137.785-.174-.28-.22-.715-.03-1.439-.338-1.641-.698-.32-.573-.386-.576-.597-.025m3.718 1.815c0 .264-.405.643-.9.842l-.9.361.913.026c.883.024 1.644-.952 1.136-1.459-.137-.137-.249-.034-.249.23m66.76 1.384c.919.538.927.582.2 1.004-.418.243-.557.447-.309.454.481.013 1.57-1.111 1.306-1.348-.086-.077-.607-.26-1.157-.407l-1-.266zm-6.317 1.618c-.727.876.897 2.098 2.056 1.547.86-.409.849-.425-.255-.362-.677.039-1.238-.164-1.352-.489-.152-.432.063-.492.955-.268 1.252.314 1.224.177-.105-.513-.658-.342-.961-.323-1.299.085m-53.843.653c-.243.393 1.743 1.39 2.086 1.047.096-.096-.223-.301-.709-.455-.69-.219-.762-.357-.33-.631.443-.28.418-.351-.123-.356-.372-.003-.788.174-.924.395m48.478 1.855c-.508.507.196.944 1.522.944 1.476 0 2.171-.572 1.165-.958-.827-.318-2.364-.31-2.687.014m2.022.42c-.385.1-1.015.1-1.4 0-.385-.101-.07-.183.7-.183s1.085.082.7.183m-41.5.524c-.824.264-.859.326-.2.354.44.019 1.07-.141 1.4-.354.701-.453.214-.453-1.2 0"/></g></svg>