<svg version="1.2" xmlns="http://www.w3.org/2000/svg" viewBox="0 0 62 62" width="100" height="100">
	<title>usdtb</title>
	<defs>
		<radialGradient id="g1" cx="0" cy="0" r="1" gradientUnits="userSpaceOnUse" gradientTransform="matrix(0,63.253,-63.253,0,31.064,9.761)">
			<stop offset=".031" stop-color="#fafafa"/>
			<stop offset="1" stop-color="#e3e3e3"/>
		</radialGradient>
		<linearGradient id="g2" x2="1" gradientUnits="userSpaceOnUse" gradientTransform="matrix(0,61.132,-61.132,0,31,.434)">
			<stop offset="0" stop-color="#f4f4f4"/>
			<stop offset="1" stop-color="#bebebe"/>
		</linearGradient>
	</defs>
	<style>
		.s0 { fill: #ffffff;stroke: #111111;stroke-width: 1.1 } 
		.s1 { opacity: .7;fill: url(#g1) } 
		.s2 { fill: none;stroke: url(#g2);stroke-width: 1.1 } 
		.s3 { fill: #000000 } 
	</style>
	<path class="s0" d="m31 1.5c16.3 0 29.5 13.2 29.5 29.5 0 16.3-13.2 29.5-29.5 29.5-16.3 0-29.5-13.2-29.5-29.5 0-16.3 13.2-29.5 29.5-29.5z"/>
	<path class="s1" d="m31 1c-16.6 0-30 13.4-30 30 0 16.6 13.4 30 30 30 16.6 0 30-13.4 30-30 0-16.6-13.4-30-30-30z"/>
	<path class="s2" d="m31 1c-16.6 0-30 13.4-30 30 0 16.6 13.4 30 30 30 16.6 0 30-13.4 30-30 0-16.6-13.4-30-30-30z"/>
	<path fill-rule="evenodd" class="s3" d="m53.3 26.2c-2.2-10.3-11.4-18-22.3-18-11 0-20.1 7.7-22.3 18h-2.4c2.2-11.6 12.4-20.3 24.7-20.3 12.2 0 22.4 8.7 24.6 20.3zm0 9.6h2.4c-2.3 11.6-12.4 20.3-24.7 20.3-12.2 0-22.4-8.7-24.6-20.3h2.3c2.2 10.3 11.4 18 22.3 18 11 0 20.1-7.7 22.3-18z"/>
	<path class="s3" d="m34.6 30.1q2.8 0.6 4.4 2.2 1.6 1.5 1.6 3.9v2.5q0 2.8-2.1 4.6-2 1.7-5.4 1.7h-0.8-0.9-0.9-0.8-0.8q-2.2 0-3.9-1-1.7-1-2.7-2.8-0.9-1.8-0.9-4.2h2.7q0 2.4 1.3 3.9 1.3 1.5 3.6 1.5h4q2.2 0 3.5-1 1.4-1 1.4-2.7v-2.5q0-1.4-1-2.3-1-0.9-2.7-1.2l-6.6-1.2q-2.8-0.5-4.4-2.1-1.5-1.6-1.5-4v-2.1q0-2.9 2-4.6 2-1.7 5.3-1.7h0.7 0.7 0.8 1.1 0.9q3.1 0 5 2 2 2 2 5.3h-2.7q0-2.1-1.2-3.4-1.2-1.3-3.1-1.3h-4.2q-2.1 0-3.3 1-1.3 1-1.3 2.7v2.1q0 1.3 0.9 2.3 1 0.9 2.7 1.2z"/>
	<path fill-rule="evenodd" class="s3" d="m27.4 13h2.6v4.8h-2.6z"/>
	<path fill-rule="evenodd" class="s3" d="m32.2 13h2.6v4.8h-2.6z"/>
	<path fill-rule="evenodd" class="s3" d="m27.4 44.2h2.6v4.8h-2.6z"/>
	<path fill-rule="evenodd" class="s3" d="m32.2 44.2h2.6v4.8h-2.6z"/>
</svg>