<svg xmlns="http://www.w3.org/2000/svg" width="100" height="100" version="1.2" viewBox="0 0 62 62"><defs><radialGradient id="usdtb_svg-g1" cx="0" cy="0" r="1" gradientTransform="rotate(90 10.652 20.413)scale(63.253)" gradientUnits="userSpaceOnUse"><stop offset=".031" stop-color="#fafafa"/><stop offset="1" stop-color="#e3e3e3"/></radialGradient><linearGradient id="usdtb_svg-g2" x2="1" gradientTransform="matrix(0 61.132 -61.132 0 31 .434)" gradientUnits="userSpaceOnUse"><stop offset="0" stop-color="#f4f4f4"/><stop offset="1" stop-color="#bebebe"/></linearGradient></defs><style>.usdtb_svg-s3{fill:#000}</style><path d="M31 1.5c16.3 0 29.5 13.2 29.5 29.5S47.3 60.5 31 60.5 1.5 47.3 1.5 31 14.7 1.5 31 1.5z" style="fill:#fff;stroke:#111;stroke-width:1.1"/><path d="M31 1C14.4 1 1 14.4 1 31s13.4 30 30 30 30-13.4 30-30S47.6 1 31 1" style="opacity:.7;fill:url(#usdtb_svg-g1)"/><path d="M31 1C14.4 1 1 14.4 1 31s13.4 30 30 30 30-13.4 30-30S47.6 1 31 1z" style="fill:none;stroke:url(#usdtb_svg-g2);stroke-width:1.1"/><path fill-rule="evenodd" d="M53.3 26.2c-2.2-10.3-11.4-18-22.3-18-11 0-20.1 7.7-22.3 18H6.3C8.5 14.6 18.7 5.9 31 5.9c12.2 0 22.4 8.7 24.6 20.3zm0 9.6h2.4C53.4 47.4 43.3 56.1 31 56.1c-12.2 0-22.4-8.7-24.6-20.3h2.3c2.2 10.3 11.4 18 22.3 18 11 0 20.1-7.7 22.3-18" class="usdtb_svg-s3"/><path d="M34.6 30.1q2.8.6 4.4 2.2 1.6 1.5 1.6 3.9v2.5q0 2.8-2.1 4.6-2 1.7-5.4 1.7h-4.2q-2.2 0-3.9-1t-2.7-2.8q-.9-1.8-.9-4.2h2.7q0 2.4 1.3 3.9t3.6 1.5h4q2.2 0 3.5-1 1.4-1 1.4-2.7v-2.5q0-1.4-1-2.3t-2.7-1.2l-6.6-1.2q-2.8-.5-4.4-2.1-1.5-1.6-1.5-4v-2.1q0-2.9 2-4.6T29 17h4.2q3.1 0 5 2 2 2 2 5.3h-2.7q0-2.1-1.2-3.4t-3.1-1.3H29q-2.1 0-3.3 1-1.3 1-1.3 2.7v2.1q0 1.3.9 2.3 1 .9 2.7 1.2z" class="usdtb_svg-s3"/><path fill-rule="evenodd" d="M27.4 13H30v4.8h-2.6zm4.8 0h2.6v4.8h-2.6zm-4.8 31.2H30V49h-2.6zm4.8 0h2.6V49h-2.6z" class="usdtb_svg-s3"/></svg>