<svg version="1.2" xmlns="http://www.w3.org/2000/svg" viewBox="0 0 643 730" width="400" height="454">
	<style>
		.s0 { fill: #413c93 } 
		.s1 { fill: #bdd631 } 
		.s2 { fill: #51ba68 } 
		.s3 { fill: #01ac99 } 
	</style>
	<g id="Background">
		<path id="Path 0" class="s0" d="m309 1.91c-2.48 1-69.3 39.17-148.5 84.83-103.92 59.9-145.49 84.37-149.34 87.88-3.14 2.87-6.44 7.15-8 10.38l-2.66 5.5c-0.39 160.81-0.16 207.49 0.25 207.47 0.41-0.01 20.44-11.37 44.5-25.25l43.76-25.22 0.03-117c177.57-102.3 229.87-132.38 230.79-132.85 1.23-0.63 5.78 1.49 17.17 8l15.5 8.86c0.44 69.85 0.78 78.49 1.75 78.47 0.69-0.01 36.23-19.92 78.99-44.25 42.76-24.33 77.77-44.45 77.79-44.73 0.02-0.28-39.46-23.27-87.74-51.11-48.29-27.84-89.36-51.13-91.29-51.77-1.92-0.63-6.87-1.12-11-1.09-4.8 0.04-9.12 0.72-12 1.88zm256.93 373.44c-41.56 23.73-76.66 43.91-78 44.85-2.31 1.61-0.69 1.7 31.82 1.75l34.25 0.05-0.06 77.5c-177.59 102.3-229.89 132.39-230.79 132.87-1.23 0.64-13.63-6.01-49.15-26.39-26.13-14.99-48.63-27.93-50-28.77-2.43-1.48-3.68-0.84-46.74 23.89-24.33 13.97-44.23 25.62-44.22 25.9 0.01 0.27 38.28 22.55 85.06 49.5 46.77 26.95 87.14 49.98 89.72 51.19 3.57 1.67 6.63 2.2 12.93 2.25 5.54 0.04 9.64-0.5 12.5-1.63 2.34-0.94 69.27-39.14 148.75-84.9 92.74-53.4 146.29-84.79 149.5-87.66 2.87-2.55 6.28-6.97 8-10.35l3-5.9c0.41-160.81 0.19-207.45-0.23-207.4-0.42 0.06-34.78 19.52-76.34 43.25z"/>
		<path id="Path 1" class="s1" d="m588 162.37c-2.48 0.72-6.58 2.4-9.11 3.72-2.54 1.33-49.9 28.51-105.25 60.41-55.35 31.9-100.63 58.23-100.63 58.5 0 0.27 3.93 0.32 8.74 0.11 6.79-0.3 10.32 0.07 15.75 1.68 4.37 1.29 9.25 3.72 13 6.46 3.3 2.41 7.33 6.16 8.95 8.32 1.62 2.16 4.06 6.41 5.41 9.43 1.35 3.02 2.93 8.2 3.5 11.5 0.73 4.17 0.73 7.98 0 12.5-0.57 3.57-2.15 8.98-3.51 12-1.36 3.02-4.24 7.42-6.41 9.78-2.17 2.35-3.6 4.6-3.18 5 0.42 0.39 1.61 0.27 2.65-0.28 1.04-0.55 47.9-27.55 104.12-60 74.06-42.75 103.73-60.38 107.7-64 3.81-3.48 6.58-7.26 9.12-12.45 3.61-7.37 3.65-7.59 3.65-20.03 0-12.05-0.13-12.83-3.14-19.04-1.73-3.57-5.45-8.84-8.25-11.73-3.42-3.51-7.68-6.47-12.86-8.94-6.88-3.27-8.77-3.72-16.75-3.97-5.36-0.17-10.82 0.24-13.5 1.03z"/>
		<path id="Path 2" class="s2" d="m368.21 287.37c-2.04 1.03-37.35 21.28-78.46 45-41.12 23.72-82.16 47.4-91.2 52.63-9.03 5.23-17.02 10.03-17.74 10.68-1.01 0.92 0.84 1.05 8.19 0.59 8.09-0.51 10.54-0.27 16.5 1.6 4.11 1.3 9.33 3.94 12.66 6.42 3.11 2.31 7.09 6.01 8.84 8.21 1.76 2.2 4.11 5.8 5.22 8 1.12 2.2 2.68 7.15 3.48 11 0.93 4.47 1.2 8.99 0.77 12.5-0.37 3.02-1.6 7.98-2.72 11-1.12 3.02-2.94 6.85-4.05 8.5-1.11 1.65-3.19 4.23-4.61 5.74-1.42 1.51-2.36 2.98-2.09 3.28 0.28 0.3 33.58-18.51 74-41.79 40.43-23.29 83.51-48.05 95.75-55.03 12.24-6.99 22.27-13.26 22.29-13.95 0.02-0.69 1.68-3.05 3.69-5.25 2.01-2.2 4.76-6.48 6.12-9.5 1.36-3.02 2.94-8.43 3.51-12 0.73-4.52 0.73-8.33 0-12.5-0.57-3.3-2.15-8.48-3.5-11.5-1.35-3.02-3.79-7.27-5.41-9.43-1.62-2.16-5.65-5.9-8.95-8.32-3.43-2.5-8.78-5.23-12.5-6.37-5.05-1.55-8.68-1.93-16.29-1.69-7.1 0.22-10.82 0.83-13.5 2.18z"/>
		<path id="Path 3" class="s3" d="m144.23 416.5c-19.17 11-55.24 31.7-80.16 46-30.97 17.77-47.04 27.58-50.79 31-3.83 3.49-6.59 7.25-9.13 12.45-3.27 6.67-3.69 8.46-4.03 17-0.29 7.23 0.04 10.89 1.38 15.05 0.98 3.02 2.8 7.3 4.06 9.5 1.26 2.2 4.69 6.29 7.62 9.09 2.92 2.81 8.02 6.47 11.32 8.15 3.3 1.68 8.93 3.61 12.5 4.3 3.93 0.76 8.88 0.98 12.5 0.57 3.3-0.37 8.48-1.71 11.5-2.97 3.03-1.26 39.48-22.02 81-46.13 41.53-24.12 76.72-44.56 78.2-45.43 1.49-0.87 2.95-2.26 3.24-3.08 0.3-0.82 2.23-3.6 4.3-6.16 2.07-2.56 4.75-7.51 5.97-11 1.21-3.49 2.49-8.36 2.83-10.84 0.34-2.48 0.12-7.43-0.5-11-0.62-3.57-2.43-9.2-4.03-12.5-1.59-3.3-4.62-7.8-6.72-10-2.1-2.2-5.83-5.41-8.3-7.14-2.47-1.73-7.42-4.13-10.99-5.34-5.39-1.82-8.24-2.14-16.71-1.86l-10.2 0.34z"/>
	</g>
</svg>