<svg xmlns="http://www.w3.org/2000/svg" width="32" height="32" fill="none" viewBox="0 0 32 32"><rect width="32" height="32" fill="#152921" rx="16"/><path fill="#fff" d="M10.238 18.131v-3.808c0-.255.17-.425.426-.425h3.438V10h-3.54C8.128 10 6 11.89 6 14.391V18.2c0 2.485 1.838 4.182 4.29 4.182 1.548 0 2.961-.71 4.442-2.14l6.025-5.871c.256-.255.443-.472.664-.472.204 0 .34.165.34.37v3.79c0 .255-.17.425-.425.425h-3.438v3.898h3.557c2.417 0 4.545-1.89 4.545-4.408V14.2c0-2.485-1.838-4.2-4.29-4.2-1.531 0-2.961.728-4.442 2.157l-6.026 5.872c-.255.255-.442.454-.663.454-.205 0-.34-.148-.34-.352"/></svg>