<?xml version="1.0" encoding="UTF-8"?>
<svg version="1.1" xmlns="http://www.w3.org/2000/svg" width="64" height="64">
<path d="M0 0 C21.12 0 42.24 0 64 0 C64 21.12 64 42.24 64 64 C42.88 64 21.76 64 0 64 C0 42.88 0 21.76 0 0 Z " fill="#000000" transform="translate(0,0)"/>
<path d="M0 0 C1.37478516 0.01740234 1.37478516 0.01740234 2.77734375 0.03515625 C3.69644531 0.04417969 4.61554687 0.05320312 5.5625 0.0625 C6.27277344 0.07410156 6.98304687 0.08570312 7.71484375 0.09765625 C9.03484375 2.40765625 10.35484375 4.71765625 11.71484375 7.09765625 C13.45756313 4.80043525 15.11395527 2.49898896 16.71484375 0.09765625 C19.09765625 -0.1953125 19.09765625 -0.1953125 21.83984375 -0.08984375 C22.74992187 -0.06277344 23.66 -0.03570313 24.59765625 -0.0078125 C25.29632813 0.02699219 25.995 0.06179687 26.71484375 0.09765625 C28.77650995 2.97485497 30.56125142 5.73788503 31.71484375 9.09765625 C30.93135897 12.12201709 29.69043728 13.58811853 27.71484375 16.09765625 C26.72484375 15.76765625 25.73484375 15.43765625 24.71484375 15.09765625 C24.34359375 14.27265625 23.97234375 13.44765625 23.58984375 12.59765625 C21.99401079 9.9233374 21.99401079 9.9233374 19.5234375 9.546875 C17.24803635 9.30829616 15.00170887 9.15039318 12.71484375 9.09765625 C13.38773438 10.12246094 14.060625 11.14726562 14.75390625 12.203125 C15.616846 13.56319309 16.47877274 14.92390428 17.33984375 16.28515625 C17.78585938 16.95869141 18.231875 17.63222656 18.69140625 18.32617188 C21.85392807 23.39114823 21.85392807 23.39114823 21.17578125 26.8359375 C19.77285811 29.00784257 18.348415 31.0928188 16.71484375 33.09765625 C15.87438312 31.89426944 15.04322767 30.68438805 14.21484375 29.47265625 C13.663125 28.66570313 13.11140625 27.85875 12.54296875 27.02734375 C11.17099625 24.82866988 10.01189638 22.736408 8.88671875 20.41796875 C5.76945206 13.43656293 5.76945206 13.43656293 -0.01953125 8.98046875 C-2.54619006 8.74493276 -4.77732464 8.73792631 -7.28515625 9.09765625 C-6.64177145 7.78395425 -5.9953741 6.47172727 -5.34765625 5.16015625 C-4.98800781 4.42925781 -4.62835938 3.69835937 -4.2578125 2.9453125 C-2.7696283 0.11836018 -2.7696283 0.11836018 0 0 Z " fill="#09D5AD" transform="translate(18.28515625,16.90234375)"/>
<path d="M0 0 C3.3 0 6.6 0 10 0 C10 0.33 10 0.66 10 1 C8.14375 1.1546875 8.14375 1.1546875 6.25 1.3125 C2.7207134 1.73801682 0.62839034 2.48112592 -2 5 C-1.34 3.35 -0.68 1.7 0 0 Z " fill="#11D0A7" transform="translate(35,17)"/>
</svg>
