<svg xmlns="http://www.w3.org/2000/svg" xml:space="preserve" viewBox="0 0 200 200"><path fill="#FEFDF8" d="M1 112V1c39.02 0 78.042 0 117.607.372 5.537 2.136 10.583 3.764 15.51 5.696 6.037 2.368 12.08 4.774 17.908 7.6 2.712 1.316 5.303 3.339 7.256 5.63 2.083 2.446 7.615 2.339 5.707 7.648-.477-.008-.667-.017-.924-.365-7.534-5.064-14.828-10.1-22.54-14.382-3.788-2.102-8.35-2.81-12.874-4.229-.952-.088-1.593-.095-2.495-.392-9.234-1.662-18.177-3.841-27.185-4.152-7.264-.25-14.606 1.756-22.26 2.74-.774.15-1.2.32-1.98.365-4.005 1.283-7.656 2.692-11.62 4.122-.887.256-1.461.491-2.37.666-1.64.753-2.947 1.565-4.59 2.41-1.914.904-3.491 1.773-5.357 2.643-.805.537-1.32 1.072-2.148 1.727-2.176 1.556-4.04 2.994-6.215 4.492-.725.158-1.138.256-1.908.36-1.407 1.034-2.457 2.064-3.518 3.335-.012.24.01.722-.262.723-.627.068-.982.134-1.719.154-1.344 1.179-2.306 2.405-3.625 3.692-1.695 1.773-3.034 3.485-4.463 5.429-.294.525-.573.686-1.278.74-2.346 2.83-4.344 5.637-6.379 8.746-.152.901-.267 1.499-.636 2.203-.706.42-1.159.731-1.857 1.165-.374.45-.502.78-.695 1.457-1.091 3.001-2.12 5.656-3.372 8.333-.225.024-.672.092-1.034.135-.69.834-1.017 1.627-1.348 2.737-.118.942-.234 1.566-.712 2.253-2.436 6.05-4.965 11.927-6.415 18.06-.892 3.771-.136 7.933-.089 12.38.112 4.455.193 8.45.149 12.839-.21 1.486-.298 2.58-.699 3.672z"/><path fill="#FEFEFC" d="M1 112.469c.419-.468.838-.467 1.68-.07 1.964 6.84 3.505 13.285 5.105 20.022.389.746.72 1.198 1.097 1.965.738 1.741 1.43 3.17 2.115 4.97.59 2.158 1.187 3.943 1.831 6.068.75 1.47 1.45 2.6 2.198 3.923.129.453.283.662.545 1.058.034.24.363.603.423.908.666 1.118 1.272 1.93 1.963 3.072a101 101 0 0 0 4.017 5.654c.027-.028-.046-.002.034.281.388.507.696.732 1.062 1.131.178.403.36.56.703.955.933 1.192 1.767 2.076 2.655 2.984.054.023.126.117.183.42.783 1.047 1.509 1.789 2.349 2.764.644.67 1.174 1.106 1.823 1.862 3.024 2.862 5.93 5.404 8.958 8.156.34.47.61.647 1.11.988 1.02.795 1.862 1.344 2.868 2.076.44.377.744.5 1.241.822 1.07.75 1.974 1.232 2.908 1.714.03-.001-.004-.051.166.24 1.36.82 2.55 1.35 3.812 1.875.07-.003-.064-.045.01.216.41.374.745.486 1.11.55.029-.048-.06.02.125.334.974.214 1.763.114 2.618.042.066.029.2.082.04.122s-.16.369-.22.75c1.438 1.11 2.938 1.838 4.686 2.695.43.174.61.219.919.432.337.37.586.497 1.2.617.774.103 1.219.136 1.784.344.321.384.562.53.865.608.024-.002-.01.032.033.393 3.355 1.459 6.667 2.556 10.316 3.676.784.072 1.23.121 1.865.371.718.32 1.246.44 2.113.592.789.088 1.239.144 1.85.448 1.075.275 1.988.302 3.293.343 1.431.134 2.47.254 3.518.672.016.694.023 1.091.029 1.488H1z"/><path fill="#FFF" d="M165.275 27.945c1.62-5.308-3.91-5.201-5.994-7.646-1.953-2.292-4.544-4.315-7.256-5.63-5.828-2.827-11.871-5.233-17.909-7.6-4.926-1.933-9.972-3.561-15.04-5.697C126.353 1 133.707 1 141.58 1.334c1.485.112 2.452-.111 3.419-.334h56c0 21.02 0 42.042-.368 63.604-2.316 2.769-2.717 4.801.368 6.396 0 5.688 0 11.376-.36 17.532-1.082.465-1.803.462-2.584.094-.08-1.106-.1-1.846.163-2.819-.2-1.76-.682-3.286-1.327-5.023-.466-.382-.768-.554-1.05-1.056-.048-.765-.115-1.2-.066-2.008.13-1.152.144-1.93.439-2.92.313-.996.536-1.827.349-2.552-1.147-4.435-2.372-8.849-3.607-13.26-.216-.77-.516-1.546-.933-2.224-1.131-1.838-2.346-3.625-3.528-5.433-.155-1.246-1.561-1.662-2.227-2.602-2.251-3.181-3.733-7.069-6.452-9.72-3.867-3.772-8.57-6.687-13.19-9.983-.635-.37-.994-.726-1.352-1.081m10.72-1.406c-3.836-2.965-4.948-9.45-13.011-9.39 4.15 4.505 7.347 8.055 10.717 11.434.203.204 1.78-.961 2.295-2.044m10.983 10.876 3.38 1.084c-.037-1.206.34-2.686-.226-3.54-.579-.871-2.085-1.127-3.184-1.653-.145 1.17-.29 2.34.03 4.109M175.703 18.57l.86-.82c-.114-.119-.32-.347-.327-.34-.303.255-.587.532-.533 1.16M201 132v69c-25.354 0-50.708 0-76.538-.374-.925-1.183-1.375-1.991-1.53-3.023 1.481-.46 2.67-.696 4.105-.603 2.306.24 4.516.597 6.4-.026 5.054-1.671 10.086-3.515 14.883-5.799 2.186-1.04 3.634-4.322 5.726-4.658 1.76-.283 3.97 2.228 5.683 3.314 1.027-2.538 1.561-6.248 2.789-6.493 6.936-1.387 6.163-7.043 7.43-11.929.623-.683 1.154-1.12 2.106-1.515 3.531-.755 6.752-1.282 9.694-2.488 1.071-.44 2.334-2.73 2.048-3.778-1.572-5.772 1.25-9.13 5.61-12.037.666-.443.868-1.855.954-2.848.645-7.445 4.326-12.92 10.64-16.743m-33.314 58.064-.893 1.976 2.447-.015c-.3-.655-.6-1.31-1.554-1.96m7.412-13.333-.165-1.5-1.343.346c.303.426.606.853 1.508 1.154"/><path fill="#FEFDF8" d="M201 131.531c-6.314 4.291-9.995 9.767-10.64 17.212-.086.993-.288 2.405-.953 2.848-4.361 2.907-7.183 6.265-5.61 12.037.285 1.048-.978 3.339-2.05 3.778-2.941 1.206-6.162 1.733-9.609 2.205-.213-.695-.09-1.065.34-1.548 1.35-1.46 2.392-2.806 3.725-4.26.828-.972 1.367-1.834 2.213-2.838 3.483-5.389 6.659-10.635 10.094-16.031.397-.725.536-1.301.98-2.085 1.717-4.752 3.128-9.295 4.78-13.91.427-.337.613-.602 1.066-1.144.973-5.155 1.68-10.032 2.46-15.296.064-1.437.059-2.486.362-3.804.122-4.07-.066-7.87-.234-12.04-.03-1.11-.08-1.848-.04-3.003.136-1.832.184-3.246.231-4.66l2.524.008c.361 14.02.361 28.042.361 42.531m-78.362 66.295c.45.809.899 1.617 1.355 2.8-5.015.374-10.037.374-15.531.096-.478-.462-.484-.647-.222-.898.636-.052 1.002-.038 1.73.041 1.242-.168 2.123-.402 3.395-.717 1.45-.156 2.51-.232 3.777-.019 1.426-.161 2.645-.612 4.126-1.169.63-.115 1-.125 1.37-.134"/><path fill="#FCF5DD" d="M107.971 199.89c.007.185.013.37.024.832-6.35.278-12.704.278-19.527.278-.474-.397-.48-.794-.066-1.543 6.804-.09 13.187.171 19.57.433"/><path fill="#FEFDF8" d="M201 70.572c-3.085-1.167-2.684-3.199-.368-5.499.368 1.641.368 3.356.368 5.499M144.625 1c-.592.223-1.559.446-2.575.334C142.75 1 143.5 1 144.625 1"/><path fill="#CFA955" d="M3.393 107.938c-.08-3.995-.161-7.99-.041-12.743.702-4.234 1.204-7.709 2.06-11.121 1.547.992 2.656 2.558 3.946 2.725 3.17.41 6.422.178 9.648.588 2.605 9.608 2.605 9.608 10.14 9.95a454 454 0 0 1 2.876 13.983c0 .704.014 1.106-.291 1.779-.732 3.474-1.145 6.677-1.942 9.923-1.11.63-2.343 1.116-2.482 1.819-1.568 7.906-8.118 9.28-14.318 10.91-.004-.244-.011-.734.04-1.064.69-1.452 1.328-2.573 1.966-3.942 0-.249.003-.746.356-.78 3.472-3.053 6.946-5.801 9.543-9.217 1.123-1.478 1.238-4.698.423-6.498-2.841-6.27-9.445-8.558-16.724-6.248-2.004-.023-3.602-.044-5.2-.064"/><path fill="#F7C763" d="M164.988 27.946c.645.354 1.004.71 1.765 1.37A23.7 23.7 0 0 1 169.268 33c.386.432.722.578 1.238.767.181.042.51.218.5.592 1.653 1.796 3.315 3.218 5.065 4.808.089.167.183.534.194.808.285.497.558.72.816.978-.015.038.03-.037-.016.308-.058.81-.07 1.274-.452 1.781-1.914 2.154-3.458 4.264-5.46 6.998-6.996-1.05-14.213.352-20.693 5.132-2.22 1.638-4.96 2.57-7.427 3.475 1.202-2.137 2.202-4.063 3.564-5.684 4.693-5.59 4.82-12.372-.094-17.895-3.692-4.149-7.659-8.053-11.653-12.372-2.047-2.439-3.945-4.571-5.845-7.092.334-1.792.67-3.196 1.306-4.588.77.327 1.241.64 1.744 1.28.672.783 1.314 1.24 1.963 1.94.008.242.011.727.005 1.108 2.624 7.994 4.469 9.549 10.982 9.65-.005.005.005-.007.05.336 1.097 1.364 2.073 2.478 3.212 3.388 4.635 3.701 7.148 2.978 10.102-2.717 2.166.642 3.963 1.28 5.76 1.918.192.01.382.018.86.026m3.204 12.243-4.88 3.785c.694.863 1.66 2.567 2.036 2.445a16.1 16.1 0 0 0 4.965-2.678c.236-.187-.922-2.135-2.12-3.552"/><path fill="#BB933E" d="M51.082 17.372c1.577-.87 3.154-1.74 5.436-2.57 1.989-.781 3.272-1.602 4.556-2.422.575-.236 1.15-.471 2.447-.635 3.306-.542 5.889-1.154 8.714-1.479 2.818.869 5.393 1.45 8.414 2.132.166-2.413.264-3.84.693-5.29.772-.024 1.214-.024 1.714.306 1.687 2.748 3.316 5.166 4.622 7.747-1.107 2.388-1.893 4.614-3.081 6.83-3.51-.828-6.616-1.65-10.73-2.736l4.088-3.575c-4.747-.446-13.33 4.973-17.253 10.338-.766.342-1.234.662-2.13.981-3.142.335-5.857.67-8.825.837-1.418-.39-2.583-.61-3.806-1.186-1.105-1.275-2.152-2.197-3.2-3.12 1.865-1.437 3.728-2.875 6.207-4.436 1.121-.657 1.627-1.19 2.134-1.722"/><path fill="#E6BD63" d="M18.895 48.867c.116-.598.231-1.196.655-2.198.68-.518 1.05-.631 1.47-.386 2.872 5.672 4.714.42 7.3-.115 4.944 8.814 4.448 14.75-1.688 19.838-1.627.67-3.454 1.015-4.05 2.06-3.322 5.837-9.661 4.905-14.681 6.549.34-1.463.69-2.563 1.414-3.706.737-1.131 1.098-2.22 1.444-3.6a26 26 0 0 0-.774-2.319c.117-.624.233-1.248.641-2.332.668-1.186 1.044-1.912 1.42-2.638 0 0 .447-.068.867.204 1.352 1.643 2.284 3.014 3.535 4.853 1.674-2.769 3.345-5.03 4.479-7.533 1.473-3.255 2.322-6.654-2.032-8.677"/><path fill="#CAA24A" d="M35.404 28.21c.356-.067.711-.133 1.651-.042 4.057 2.035 7.47 5.309 11.015 5.46 5.268.224 10.628-1.776 15.954-2.8a406 406 0 0 1 10.31-1.83c.778 0 1.222 0 1.915.28 1.75.426 3.25.573 5 .72.25.002.75.003.75.402.001 1.465.002 2.53-.216 3.705-.494.31-.682.571-1.13 1.046-3.08.1-5.873-.331-8.537.075-7.467 1.136-14.84 3.224-22.33 3.73-4.276.289-8.84-1.432-12.999-2.983-1.385-.517-1.917-3.323-2.712-5.361.527-.987.928-1.695 1.33-2.403"/><path fill="#D8B569" d="M14.998 130s-.003.496-.416.744c-6.05.801-1.66-5.528-5.941-6.845-.086 1.76-.097 3.311-.257 4.847-.119 1.138-.431 2.256-.657 3.383-1.542-6.445-3.083-12.89-4.733-19.73-.023-1.488.064-2.58.275-4.067 1.722-.374 3.32-.353 5.323.056 2.05 3.121 3.744 5.827 5.32 8.6.745 1.311 1.755 2.74 1.786 4.136.066 2.952-.433 5.916-.7 8.875"/><path fill="#FADA88" d="M132.024 11.972a246 246 0 0 0-1.83-1.208 8 8 0 0 1-1.232-1.713c4.212 1.339 8.774 2.046 12.561 4.148 7.713 4.283 15.007 9.318 22.54 14.382-1.73-.299-3.528-.937-5.86-1.896-3.263-1.625-5.99-2.928-8.364-4.063l-4.83 3.366s-.009.012-.041-.338c-3.668-3.462-7.303-6.574-10.939-9.686 0 0-.003-.485-.052-1.047-.684-1.023-1.319-1.484-1.953-1.945"/><path fill="#C29D43" d="M74 28.997c-3.326.609-6.656 1.192-9.976 1.83-5.326 1.025-10.686 3.025-15.954 2.8-3.546-.15-6.958-3.424-10.744-5.46-.313-.16-.334-.64.007-.907a207 207 0 0 0 3.546-3.315 76 76 0 0 1 1.551-.354c1.36.862 2.406 1.784 3.38 3.368.283 1.719.637 2.775.991 3.832l3.2-2.788c2.714-.334 5.43-.67 8.64-.639 2.565.379 4.644.533 6.699.374 3.004-.231 6.27-2.649 8.66 1.26"/><path fill="#DFB457" d="M128.65 8.97c.585.563.858 1.046 1.247 1.781-.221 1.658-.558 3.062-.889 5.24 1.335 5.185 2.666 9.597 3.994 14.423.408 3.32-.764 7.11 4.002 7.836.003.417.005.584-.203 1.01-1.388.731-2.566 1.203-4.129 1.692-1.626-.092-2.869-.2-3.884-.287.08-1.473.14-2.566.203-3.995.001-.782-.002-1.23.25-1.884-.587-5.062-1.427-9.917-2.263-15.144-.332-1.799-.667-3.227-1.004-5.018-.678-2.102-1.355-3.841-1.621-5.603.962-.066 1.513-.11 2.064-.153.64.007 1.28.014 2.233.102"/><path fill="#CCA95A" d="M126.155 8.578c-.289.333-.84.377-2.224.431-2.532.003-4.231-.004-6.3-.016-1.788-.337-3.208-.67-4.913-1.292-4.023-.759-7.756-1.554-11.5-1.608-4.067-.058-8.144.573-12.647.901-2.143.029-3.858.06-5.573.09-.442 0-.884 0-1.96.11-1.75.07-2.865.032-3.98-.007 7.306-1.005 14.648-3.011 21.912-2.76 9.008.31 17.951 2.489 27.185 4.15"/><path fill="#EDC772" d="M18.642 48.973c4.607 1.917 3.758 5.316 2.285 8.57-1.134 2.505-2.805 4.765-4.479 7.534-1.25-1.84-2.183-3.21-3.31-4.877.833-2.95 1.86-5.604 3.17-8.754.427-.808.575-1.119.723-1.43.452-.312.905-.624 1.61-1.043"/><path fill="#FEF4D4" d="M9.624 65.053c.614.613.866 1.289.819 2.406a47 47 0 0 0-1.502 3.493c-.35 1.1-.7 2.2-1.206 3.985-.471 2.089-.787 3.493-1.306 5.153-.593 1.478-.982 2.7-1.371 3.92-.502 3.476-1.004 6.951-1.737 10.724-.248-3.688-1.004-7.85-.112-11.621 1.45-6.133 3.98-12.01 6.415-18.06"/><path fill="#BC9442" d="M76.71 7.166c1.463.06 2.578.099 3.997.051.206 1.341.108 2.768-.058 5.18-3.02-.68-5.596-1.262-8.235-2.367.848-1.14 1.759-1.757 2.67-2.373.426-.17.852-.34 1.626-.49"/><path fill="#FEF4D4" d="M20.972 45.925c-.371.113-.743.226-1.385.441 1.726-2.705 3.724-5.512 6.052-8.012.307.745.284 1.185-.033 1.766-1.74 2.028-3.187 3.916-4.634 5.805"/><path fill="#D8AF56" d="m25.9 39.98.087-1.65c.375-.36.654-.52 1.236-1.154 1.169-.981 1.96-1.622 2.766-1.882 1.014 2.156 2.012 3.931 2.692 5.664-1.772-.343-3.227-.645-5.032-.951z"/><path fill="#CCA95A" d="M74.73 7.531c-.557.742-1.468 1.358-2.558 2.211-2.762.85-5.345 1.461-8.339 1.982 3.24-1.501 6.892-2.91 10.897-4.193"/><path fill="#FEF4D4" d="M29.972 34.913c-.79.641-1.58 1.282-2.659 2.03a30.6 30.6 0 0 1 4.143-5.043c.414-.016.52.08.455.386-.689 1.08-1.314 1.853-1.939 2.627m10.55-10.963c-.712 1.01-1.78 2.027-3.178 3.069.72-1.004 1.77-2.034 3.178-3.069"/><path fill="#FEF4D4" d="M35.023 28.163c-.02.754-.421 1.462-1.214 2.55-.872.675-1.353.971-1.833 1.267 0 0-.106-.096-.164-.141.905-1.271 1.867-2.497 3.211-3.676"/><path fill="#CCA95A" d="M60.74 12.32c-.95.88-2.233 1.7-3.885 2.45.938-.886 2.245-1.698 3.886-2.45"/><path fill="#FEF4D4" d="M11.684 60.063c-.014.683-.39 1.409-1.055 2.277.038-.65.366-1.443 1.055-2.277"/><path fill="#CCA95A" d="M50.793 17.372c-.218.532-.724 1.065-1.533 1.603.213-.53.728-1.066 1.533-1.603"/><path fill="#FEF4D4" d="M16.785 50.138c.098.19-.05.5-.414.96-.088-.18.04-.51.414-.96"/><path fill="#C09743" d="M15.536 150.164c-.227-.155-.381-.364-.496-1.213-.036-1.372-.04-2.158.202-3.112.418-.725.59-1.282 1.115-1.993 3.888-.715 7.463-1.851 10.945-1.613 1.937.132 5.354 2.617 5.303 3.933-.33 8.514 6.654 12.793 10.293 18.932.487.822 2.69.625 4.287 1.172 2.441 5.152 2.371 9.973-.423 14.566-.424-.72-.6-1.274-.678-2.107-1.572-2.962-2.884-5.986-5.016-8.23-2.109-2.22-4.996-3.06-7.368.407-.729-.374-1.205-.641-1.647-1.26 1.005-1.786 1.975-3.218 2.803-4.442-2.943-.819-5.407-1.505-7.878-2.428-.008-.238-.036-.712-.174-1.047-1.03-2.888-2.239-5.38-2.74-8.006-.84-4.393-2.482-5.403-7.448-3.698-.602.058-.841.099-1.08.139m7.562-2.432-.165-1.499-1.343.345c.303.426.606.853 1.508 1.154"/><path fill="#D8AB52" d="M55.59 187.94s0-.33.26-.722c.56-3 .858-5.608 1.454-8.256.617-.446.935-.854 1.253-1.262l-1.556-.7c-.001-.001-.003-.003-.002-.46-.665-5.151-1.331-9.846-1.598-14.541 1.466 0 2.533 0 3.89.28.764 4.656 1.126 9.048 1.785 13.396.178 1.18 1.254 2.223 2.062 3.657.383 2.44.622 4.554.898 7.019 1.011 2.425 1.987 4.498 2.633 6.663-.786.073-1.242.053-1.697.034 0 0 .035-.034-.033-.284-.36-.344-.65-.437-.941-.53-.445-.034-.89-.067-1.727-.414-.682-.389-.973-.465-1.264-.542-.182-.044-.363-.089-.826-.566-.887-.87-1.492-1.306-2.237-1.957-.424-.402-.707-.588-1.33-.8a18 18 0 0 0-1.025-.016"/><path fill="#CA9D46" d="M57.005 179.001a384 384 0 0 1-.994 8.178c-.102.352-.236.299-.748.13a15 15 0 0 0-2.358-.215s.09-.07-.033-.275c-.445-.323-.768-.44-1.09-.557 0 0 .135.042-.014-.297-1.4-.834-2.652-1.329-3.904-1.824 0 0 .034.05.047-.268-.286-.84-.583-1.363-.891-2.131-.01-.247-.01-.74-.01-.74 2.546-4.759 2.616-9.58.176-15.065-.186-1.05-.185-1.496.186-1.935 2.455 1.67 4.54 3.335 6.625 5.416.263 3.112-.925 6.417 3 7.58 0 0 .003.002.003.336z"/><path fill="#C19F61" d="M108.24 199.824c-6.651-.196-13.034-.458-19.847-.664-1.47-.066-2.509-.186-4.185-.535a22 22 0 0 0-3.21-.376c-.45-.056-.9-.112-1.842-.446a10.7 10.7 0 0 0-2.147-.546c-.447-.05-.893-.099-1.849-.45-1.429-.78-2.35-1.26-3.036-2.011 2.109-.097 3.984.076 6.135.527 2.357.672 4.434 1.367 6.523 1.41 9.405.196 18.814.207 28.47.278.417-.013.584-.02 1.09-.019 1.13-.314 1.92-.635 3.16-.958 3.447-.005 6.443-.008 9.39.148-.049.16-.1.489-.1.489-1.19.236-2.379.472-3.86.932-.664.232-1.034.242-2.023.327a85 85 0 0 0-3.973.91c-1.06.076-2.12.152-3.92.255-1.627.253-2.517.479-3.407.705-.367-.014-.733-.028-1.369.024"/><path fill="#B69249" d="M16.98 150.008c4.602-1.688 6.243-.678 7.083 3.715.502 2.626 1.712 5.118 2.336 7.99-1.087.341-1.906.363-2.725.385-.244-.087-.426-.244-.696-.925-.45-.68-.75-.908-1.05-1.136 0 0 .073-.026.06-.376-1.38-2.101-2.748-3.853-4.116-5.604-.606-.813-1.212-1.626-1.647-2.843.366-.671.56-.939.755-1.206"/><path fill="#D5AE5C" d="M7.785 132.421c.168-1.42.48-2.537.599-3.675.16-1.536.171-3.086.257-4.847 4.281 1.317-.11 7.646 5.94 7.094-.224 1.121-.862 2.242-1.906 3.653-1.55.002-2.695-.286-3.84-.574-.33-.453-.661-.905-1.05-1.65"/><path fill="#B69249" d="m26.986 163.013 7.87 2.191a110 110 0 0 1-3.142 4.457c-.6.397-.825.426-1.05.455-.53-.436-1.06-.872-1.68-1.91-.87-1.3-1.65-2-2.43-2.7 0 0-.072-.093.073-.482.217-.93.288-1.47.359-2.01"/><path fill="#FCF5DD" d="M71.89 195.067c.92.48 1.841.96 2.933 1.718a67 67 0 0 1-9.807-3.375c.411-.342.867-.322 1.967-.257 2.065.668 3.486 1.29 4.907 1.914"/><path fill="#B6995F" d="M30.783 170.436c.106-.35.331-.378.895-.422.817.25 1.293.518 2.037.896.267.111.282.133.446.373.705.414 1.247.59 1.909.977.335.467.602.647 1.026.972.303.497.564.682 1.134.788.243.013.73.02.759.313.344.76.66 1.225.987 2.014.033.752.056 1.182-.032 1.716-.11.105-.326.318-.326.318-2.905-2.541-5.81-5.083-8.835-7.945"/><path fill="#B69249" d="M16.005 144c-.172.557-.345 1.114-1.04 1.72a8.8 8.8 0 0 1-2.185-.635c-.596-1.786-1.193-3.571-1.608-5.965.73-.778 1.278-.949 1.828-.761.4 1.856.8 3.354 1.24 5.004.767-.595 1.264-.98 1.76-1.03z"/><path fill="#D8B569" d="M12.998 138c-.548.171-1.096.342-1.82.748-.866-1.192-1.558-2.62-2.296-4.362 1.098-.026 2.243.262 3.742.59.354.041.361.53.364 1.11z"/><path fill="#B6995F" d="M17.957 154.385a40 40 0 0 1 4.004 5.304c-1.316-1.407-2.617-3.192-4.004-5.304m9.021 8.391c-.063.778-.134 1.318-.405 2.225-1.033-.519-1.867-1.403-2.8-2.595.72-.33 1.54-.352 2.764-.358.405.016.433.49.44.728m31.108 26.194c.604.437 1.209.873 1.848 1.613-1.466-.424-2.966-1.152-4.405-2.261.29-.385.517-.387 1.213-.138.76.43 1.052.609 1.344.787m-45.257-43.547c.506-.111 1.06.116 1.89.463.282.906.286 1.692.275 2.873-.715-.735-1.416-1.866-2.165-3.336m35.206 39.007c1.082.205 2.334.7 3.664 1.538-1.113-.188-2.304-.717-3.664-1.538m-1.004-2.443c.298.522.595 1.045.85 1.886-.946-.164-1.85-.646-2.853-1.468-.098-.339.033-.485.36-.456.766.032 1.204.035 1.643.038"/><path fill="#FCF5DD" d="M81.16 198.497c.696-.199 1.553-.15 2.656.114-.668.188-1.581.161-2.656-.114"/><path fill="#B6995F" d="M26.61 165.81c.724.396 1.505 1.096 2.26 2.163-.75-.374-1.476-1.116-2.26-2.162m16.945 15.662c-.842-.55-1.684-1.098-2.607-1.994-.082-.347.108-.551.341-.532s.702.025.952.04.75.025.859.24c.31.483.57.665.893 1.012.003.249.025.747-.093.866-.119.12-.345.368-.345.368m9.535 5.934c.43-.298 1.046-.283 2.107-.127-.343.24-1.132.341-2.106.127"/><path fill="#FCF5DD" d="M77.197 197.457c.363-.11.914-.021 1.62.314-.374.125-.902.006-1.62-.314m-13.079-5.047c.17-.082.462.011.797.357-.235.171-.476.026-.797-.358m-2.984-.961c.164-.092.455-.016.81.305-.224.192-.473.065-.81-.305"/><path fill="#B6995F" d="M51.856 186.523c.248-.144.57-.027.987.345-.242.141-.578.029-.987-.345m-35.24-36.498c.17.25-.025.518-.45.884-.232.1-.56-.264-.595-.504.204-.281.443-.322 1.045-.38m5.392 10.295c.22-.055.52.173.913.679-.217.053-.525-.172-.913-.679m22.854 21.819c-.399.018-.703-.106-1.143-.483-.164-.183.062-.432.392-.44.592.18.798.419.95.705zm-4.092-2.905c-.42.005-.689-.173-1.029-.642-.123-.21.093-.424.407-.41.569.213.766.457.908.746z"/><path fill="#F8C866" d="M142.996 58.998c2.503-1.255 5.244-2.187 7.464-3.825 6.48-4.78 13.697-6.182 20.694-5.132 2-2.734 3.545-4.844 5.618-6.702 2.45 2.044 4.37 3.835 6.367 5.797.075.17.14.538.076.908.887 1.566 1.837 2.762 2.857 4.137.07.177.132.555.092.94 1.478 2.918 2.997 5.451 4.647 8.317.797 2.081 1.463 3.83 1.87 5.808.822 3.103 1.9 5.975 2.98 8.848.066.434.133.87-.055 1.856.21 1.745.673 2.937 1.194 4.45.049.751.041 1.184-.225 1.904.233 2.78.726 5.272 1.22 7.765.05.738.099 1.477-.152 2.875-.132 4.447.037 8.234.206 12.02.006 1.05.011 2.098-.343 3.554-.75.43-1.14.453-1.96.477-6.8-.928-13.184-2.36-19.038 1.99-1.672 1.241-3.68 2.032-5.54 2.6 0-2.149.005-3.868.338-5.447 1.521-.378 3.446-.602 3.789-1.459 2.302-5.747 5.344-11.5 6.068-17.5.894-7.401 1.017-15.387-.917-22.467-1.32-4.829-6.294-9.045-10.425-12.62-4.902-4.243-15.325-3.374-20.935.4-2.351 1.581-5.24 2.363-7.886 3.134 0-1.126 0-1.876.333-2.626.776-.002 1.22-.002 1.663-.002"/><path fill="#FEFDF8" d="M183.279 49.674s-.065-.368-.182-.885c-2.074-2.969-4.03-5.42-5.985-7.872 0 0-.046.075-.094-.212a3.9 3.9 0 0 0-.764-1.003s-.094-.367-.29-.842c-1.78-1.941-3.364-3.408-4.949-4.874 0 0-.328-.176-.648-.433a33 33 0 0 0-1.151-.837c-.687-1.033-1.374-2.065-2.187-3.387 4.218 2.993 8.92 5.908 12.788 9.68 2.719 2.651 4.2 6.539 6.452 9.72.666.94 2.072 1.356 2.227 2.602 1.182 1.808 2.397 3.595 3.528 5.433.417.678.717 1.455.933 2.225 1.235 4.41 2.46 8.824 3.607 13.259.187.725-.036 1.556-.606 2.328-1.364-1.86-2.191-3.71-3.019-5.56-.665-1.749-1.33-3.497-2.063-5.938-1.602-3.243-3.137-5.792-4.672-8.342 0 0-.062-.378-.15-.897-.983-1.735-1.88-2.95-2.775-4.165m-7.072-22.858c-.726.806-2.303 1.971-2.506 1.767-3.37-3.379-6.567-6.93-10.717-11.434 8.063-.06 9.175 6.425 13.223 9.667m10.54 10.299c-.087-1.47.057-2.64.202-3.81 1.1.527 2.605.783 3.184 1.655.566.853.189 2.333.225 3.539-1.126-.362-2.252-.723-3.61-1.384"/><path fill="#F2D693" d="M192.682 69.246c1.085 1.62 1.912 3.47 2.996 5.543.242 1.001.228 1.78.098 2.93a48.7 48.7 0 0 1-3.094-8.473m5.201 24.406c-.582-2.076-1.075-4.568-1.032-7.348.719-.28.902-.272 1.085-.264.02.74.04 1.48.12 2.586a58 58 0 0 1-.173 5.026"/><path fill="#FEFDF8" d="M198.219 85.807c-.466.225-.65.217-1.109.209-.269-.432-.261-.865-.21-1.994.08-1.474.118-2.25.155-3.027.482 1.526.964 3.053 1.164 4.812"/><path fill="#F2D693" d="M196.892 80.784c.126.987.089 1.764-.049 2.918-.564-.815-1.027-2.007-1.256-3.421.537-.05.839.12 1.305.503"/><path fill="#FEFDF8" d="M175.533 18.393c.116-.451.4-.728.703-.983.007-.007.213.221.326.34-.286.273-.573.547-1.03.643M127.037 197c-.246-.33-.194-.659.234-.814 5.219-1.983 10.011-3.81 15.12-5.732.797-.503 1.277-.909 2.06-1.469 3.726-2.467 7.148-4.78 10.92-7.028 2.025-.946 3.7-1.956 5.514-3.095.14-.129.193-.504.491-.576.74-.467 1.183-.863 1.63-1.268.004-.01.024-.008.35-.084 1.753-1.477 3.182-2.878 4.88-4.326.72-.348 1.171-.65 1.622-.952-1.177 4.639-.404 10.295-7.34 11.682-1.228.245-1.762 3.955-2.79 6.493-1.712-1.086-3.921-3.597-5.682-3.314-2.092.336-3.54 3.617-5.726 4.658-4.797 2.284-9.83 4.128-14.882 5.799-1.885.623-4.095.265-6.401.026m40.976-6.938c.627.653.927 1.308 1.227 1.963l-2.447.015c.298-.659.595-1.317 1.22-1.978"/><path fill="#A38649" d="M169.949 171.409c-.542.549-.993.851-1.635.892.12-1.275.43-2.289 1.049-3.32 1.065-.353 1.82-.689 2.635-.97.06.053.174.165.174.165-.123.37-.247.74-.454 1.394-.616.72-1.147 1.156-1.77 1.839"/><path fill="#FEFDF8" d="M174.799 176.795c-.603-.364-.906-.79-1.21-1.217l1.344-.345c.055.5.11 1-.134 1.562"/><path fill="#CCA758" d="M170.978 111.998c-.005 1.72-.01 3.438-.013 5.993.087 2.402.172 3.969.193 4.359 4.617-.48 8.714-1.23 12.815-1.25 5.222-.027 8.046 3.558 10.057 7.91-1.412 4.544-2.823 9.087-4.85 13.59-.814-4.547-2.148-8.654-6.617-10.402-2.976-1.165-6.358-1.392-9.587-1.61-.229-.016-.697 3.497-1.282 5.418-.229.048-.685.151-1.03.124-.802 0-1.26.026-1.937.038-.217-.016-.653-.036-.948-.199-1.13-.427-1.964-.69-2.797-1.27.008-.738.015-1.159.305-1.661 1.246-.553 2.417-.833 3.097-1.568.408-.44.056-1.59.037-2.42-.115-5.148 1.633-11.666-.863-15.065-2.604-3.544-9.262-4.191-14.216-5.906-6.55-2.267-13.168-4.34-19.756-6.497l.155-.874c.758-.193 1.516-.385 2.524-.32 8.062 2.671 15.874 5.086 24.017 7.683 2.756.804 5.182 1.425 7.836 2.277 1.066.411 1.904.591 2.764.991.023.221.096.66.096.66"/><path fill="#EEC064" d="M194.27 128.939c-2.251-4.281-5.075-7.866-10.297-7.84-4.101.022-8.198.771-12.815 1.25-.02-.39-.106-1.956-.188-3.929 1.858-1.403 3.866-2.194 5.538-3.436 5.854-4.348 12.238-2.917 19.038-1.57.13 5.164-.173 9.911-.476 14.658-.187.265-.373.53-.8.867"/><path fill="#A38649" d="M171.009 136.157s.456-.103 1.06-.288c7.099-1.7 8.62-.91 11.763 4.579 1.03 1.798 2.921 3.104 4.419 4.635-3.176 5.247-6.352 10.493-9.937 15.782-.41.04-.614-.16-.516-.495.947-1.925 1.505-3.788 2.697-5.052 3.622-3.84 2.153-7.364.132-11.3-2.1-4.09-4.306-7.538-9.618-7.206-.002-.219 0-.655 0-.655"/><path fill="#B69144" d="M188.51 144.934c-1.757-1.382-3.649-2.688-4.678-4.486-3.143-5.49-4.664-6.28-11.534-4.628-.019-1.735.45-5.248.678-5.232 3.23.218 6.61.445 9.587 1.61 4.47 1.748 5.803 5.855 6.313 10.611.17.824.031 1.4-.366 2.125"/><path fill="#F2D693" d="M195.336 127.795c.037-4.47.34-9.217.642-14.383.389-.441.779-.464 1.457-.506-.418 4.857-1.126 9.734-2.099 14.889m2.822-19.1c-.478-3.517-.647-7.304-.535-11.38.47 3.51.657 7.31.535 11.38"/><path fill="#A38649" d="M175.913 163.91c-1.043 1.347-2.086 2.694-3.435 4.153-.306.113-.42.001-.454-.378-.018-.813-.002-1.248.275-1.873 1.323-.815 2.384-1.44 3.487-2.023z"/><path fill="#A38649" d="M178.007 161.006c-.437.963-.976 1.825-1.804 2.796-.29.109-.375.028-.337-.345.08-1.06.123-1.745.45-2.457.65-.115 1.017-.205 1.384-.295z"/><path fill="#FCF5DD" d="M117.142 199.129c.912-.567 2.03-.845 3.506-1.092-.86.48-2.08.93-3.506 1.092m-7.172.736c.529-.291 1.419-.517 2.656-.69-.533.288-1.414.522-2.656.69"/><path fill="#D5AE5C" d="M15.35 129.965c-.085-2.925.414-5.89.348-8.841-.03-1.396-1.041-2.825-1.787-4.137-1.575-2.772-3.268-5.478-4.913-8.597 6.874-2.698 13.478-.41 16.319 5.86.815 1.8.7 5.02-.423 6.498-2.597 3.416-6.071 6.164-9.543 9.217"/><path fill="#B29048" d="M32.05 112.827c-.014-.401-.027-.803.362-1.511 2.472-1.307 4.54-2.308 6.98-3.306 1.11 0 1.852-.004 2.935-.01 1.126-.332 1.91-.664 3.076-1.002 2.118-.459 3.855-.911 4.693-1.13-1.682-1.4-3.861-2.67-5.27-4.526-1.622-2.135-2.562-4.786-3.427-7.186 8.276 2.282 16.18 4.537 24.294 7.035-1.115 1.116-2.326 2.328-3.78 2.806-9.388 3.086-18.83 6.012-28.523 9.063a5.2 5.2 0 0 1-1.34-.233"/><path fill="#D7AF57" d="M5.412 84.074c.035-1.285.424-2.506 1.417-3.908 6.64.86 11.794-1.058 16.383-4.88 2.28-1.898 4.72-3.705 4.04-7.275.25-.004.748-.011 1.092-.01.803.007 1.261.013 1.734.421.262 3.134.51 5.866.378 8.593-4.072 3.326-7.764 6.657-11.456 9.987-3.22-.025-6.472.208-9.642-.203-1.29-.167-2.4-1.733-3.946-2.725"/><path fill="#D1A951" d="M19.006 87.387c3.686-3.715 7.378-7.046 11.492-9.914.379 4.155.335 7.848-.067 11.548-.853.736-1.731 1.448-1.766 2.199-.09 1.917.198 3.853.334 5.78-7.388-.005-7.388-.005-9.993-9.613"/><path fill="#C9A451" d="M13 138.359c-.004-.804-.007-1.25-.009-2.029 6.198-2.208 12.748-3.583 14.316-11.49.14-.702 1.373-1.188 2.475-1.363.38 3.427.382 6.442 0 9.482-3.515 1.689-6.742 3.2-9.736 5.082-1.56.981-2.71 2.617-4.046 3.958l-1.76 1.364c-.44-1.65-.84-3.148-1.24-5.004m16.146-41.021c-.283-2.265-.57-4.2-.481-6.118.035-.751.913-1.463 1.859-1.903.794.788 1.137 1.286 1.48 2.183.763 2.68.918 5.522 2.404 7.136 4.266 4.634 4.474 4.432-.712 7.446-.203.117-.2.588-.61 1.925h5.935c-2.069 1.001-4.137 2.002-6.596 3.007-1.304-4.443-2.218-8.891-3.279-13.676"/><path fill="#F5DB8E" d="M30.167 132.934c-.003-3.015-.006-6.03-.001-9.5.42-3.658.833-6.86 1.565-10.335.675-.17 1.032-.068 1.667.429.254 5.444.23 10.492-.011 15.796-.288 1.396-.359 2.536-.667 3.845-.744.748-1.25 1.327-1.78 1.609-.274-.813-.524-1.328-.773-1.844"/><path fill="#F1C15E" d="M143.033 58.648c-.48.35-.924.35-2.062.389-1.745.741-3.43 1.238-3.738 2.183-1.559 4.78-5.922 3.682-9.092 4.454 1.714-2.105 3.287-3.889 5.218-5.71 8.189-4.073 12.18-16.193 8.237-23.994-2.188-4.328-4.397-8.644-6.596-12.966 3.844 4.012 7.811 7.916 11.503 12.065 4.915 5.523 4.787 12.305.094 17.895-1.362 1.621-2.362 3.547-3.564 5.684"/><path fill="#EABD5E" d="M134.85 22.697c2.35 4.629 4.558 8.945 6.746 13.273 3.943 7.801-.048 19.92-8.2 23.639 3.335-5.729 6.142-11.467 5.837-18.192-.037-.837-1.448-1.612-2.223-2.416-.001-.167-.003-.334.244-.96-1.252-2.986-2.751-5.514-4.25-8.041-1.33-4.412-2.66-8.824-3.994-13.622 1.895 1.748 3.793 3.88 5.84 6.32"/><path fill="#FCCC6F" d="M145.055 25.331c1.496-1.417 3.038-2.492 4.784-3.709 2.374 1.135 5.101 2.438 7.995 4.059-2.419 6.016-4.932 6.74-9.567 3.038-1.14-.91-2.115-2.024-3.212-3.388m-11.032-9.986c3.642 2.73 7.277 5.843 10.95 9.3-6.481.249-8.326-1.306-10.95-9.3"/><path fill="#FAC568" d="M168.536 40.33c.856 1.276 2.014 3.224 1.778 3.411a16.1 16.1 0 0 1-4.965 2.678c-.376.122-1.342-1.582-2.036-2.445 1.627-1.262 3.254-2.524 5.223-3.644"/><path fill="#F2D693" d="M177.065 41.262c2.002 2.106 3.958 4.558 5.956 7.357-1.879-1.445-3.8-3.236-5.88-5.323-.147-.76-.134-1.224-.076-2.034m-6.058-6.902c1.593 1.092 3.177 2.559 4.868 4.333a32 32 0 0 1-4.868-4.333"/><path fill="#FCCC6F" d="M132.055 12.297c.603.136 1.238.597 1.914 1.378-.6-.137-1.242-.595-1.914-1.378"/><path fill="#F2D693" d="M176.265 39.976c.228-.035.466.204.768.692-.21.027-.483-.195-.768-.692m-6.997-6.975c.225-.091.502.102.918.51-.196.068-.532-.078-.918-.51"/><path fill="#BC9442" d="M83.056 7.414c1.657-.36 3.372-.391 5.76-.139 8.815 3.836 17.562 3.914 26.183 4.726.001-.001 0 .002.004.369 1.336 2.787 2.668 5.208 3.999 8.004 0 1.125.001 1.875-.039 2.985-1.08 2.592-2.043 4.865-3.176 7.05-2.8 5.395-5.169 6.108-10.53 3.472-.97-.477-2.161-.577-3.267-.696-3.993-.432-7.992-.797-12.041-1.533-3.105-2.126-6.056-4.116-9.23-5.643-6.515-3.133-13.141-1.395-19.72-.012 3.626-5.344 12.21-10.763 16.956-10.317l-4.089 3.575c4.115 1.087 7.222 1.908 11.077 2.771 5.238 3.498 9.356 7.049 15.565 7.998 4.935.754 8.24-.617 10.68-4.007 1.274-1.77 1.999-5.877.94-6.982-2.253-2.352-5.72-4.45-8.895-4.8-4.989-.55-10.146.43-15.233.763-1.628-2.418-3.257-4.836-4.944-7.584"/><path fill="#B48C3F" d="M87.678 15.16c5.409-.495 10.566-1.475 15.555-.925 3.174.35 6.642 2.448 8.895 4.8 1.059 1.105.334 5.212-.94 6.982-2.44 3.39-5.745 4.761-10.68 4.007-6.21-.95-10.327-4.5-15.162-7.99.44-2.26 1.225-4.485 2.332-6.873"/><path fill="#C29A44" d="M60.702 26.018c6.876-1.404 13.502-3.142 20.017-.009 3.174 1.527 6.125 3.517 8.857 5.603-2.739-.333-5.158-.972-7.577-1.611 0 0-.5-.001-.813-.357-1.937-.452-3.561-.55-5.185-.646h-1.668c-2.723-3.909-5.989-1.491-8.993-1.26-2.055.159-4.134.005-6.271-.374.399-.684.867-1.004 1.633-1.346m-10.955 1.818c-.813 1.096-1.88 2.026-2.946 2.955-.354-1.057-.708-2.113-.932-3.478 1.295-.088 2.46.134 3.878.523"/><path fill="#DFB55B" d="M30.064 68.02c-.459-.006-.917-.012-1.828-.24-.65-.496-.912-.685-1.236-1.034v-.742c5.768-5.085 6.264-11.022 1.353-20.18-.31-2.283-.332-4.048-.354-5.812 1.455.301 2.91.603 4.683.946.318.042.318.044.318.428 1.017 5.856 8.23 10.709 15.252 9.427 5.424-.99 10.626-3.44 15.75-5.653 1.065-.46 1.351-2.725 2.29-4.148.488.02.683.032.987.352.66 1.414 1.212 2.519 1.86 3.989 1.039 2.564 2.302 4.687 2.85 6.98.919 3.856 1.384 7.82 2.025 12.068-.03.768-.044 1.207-.271 1.743-.477.287-.656.538-1.16.85-5.482-1.053-10.502-2.323-15.574.361-.863.457-2.517-.636-3.822-.942-1.268-.296-2.549-.63-3.839-.712-1.736-.11-3.656.472-5.194-.082-2.716-.978-4.178-.76-4.609 2.438-3.043-.055-5.692-.106-8.625-.12a22 22 0 0 1-.856.083"/><path fill="#E0B65B" d="M26.632 66.006c.369-.002.368.492.369.995 0 .673.001.843.002 1.013.928 3.567-1.51 5.374-3.79 7.272-4.59 3.822-9.743 5.74-16.18 4.623-.085-1.48.23-2.883.712-4.61 5.176-2.328 11.515-1.396 14.838-7.233.595-1.045 2.422-1.39 4.05-2.06"/><path fill="#E4BD5A" d="M27.65 40.007c.37 1.77.393 3.534.382 5.644-2.298 1.052-4.14 6.304-7.012.632 1.399-2.247 2.845-4.135 4.586-6.163.76-.133 1.227-.126 2.043-.113"/><path fill="#EDC772" d="M9.315 70.91c.027-.975.427-1.992 1.144-3.16-.046.94-.407 2.028-1.144 3.16"/><path fill="#D4AA53" d="M67.17 41.055c-.195-.01-.39-.022-1.309-.044-2.68.126-4.942-.327-6.544.498-8.938 4.6-17.653 5.466-26.317-.507V41c-1-1.775-1.997-3.55-3.011-5.706.608-1.155 1.233-1.929 1.922-3.008.545-.602 1.026-.898 1.772-1.295 1.187 1.66 1.719 4.465 3.104 4.982 4.16 1.551 8.723 3.272 12.998 2.983 7.492-.506 14.864-2.594 22.33-3.73 2.665-.406 5.458.026 8.687.26 2.284 1.294 4.037 2.468 5.873 3.492 1.387.773 2.88 1.353 4.01 2.03-.53.023-.742.036-1.405.05-7.671 0-14.89-.001-22.11-.003"/><path fill="#C49B49" d="M82 30.4c2.418.24 4.837.88 7.629 1.558 4.369.43 8.368.795 12.36 1.227 1.107.12 2.298.219 3.268.696 5.361 2.636 7.73 1.923 10.53-3.473 1.133-2.184 2.095-4.457 3.528-6.99.664.642 1.377 1.725 1.13 2.501-.983 3.08-2.266 6.065-3.332 9.343.367.752.628 1.245.522 1.739-1.79.667-3.212 1.334-4.96 2.043-.77.697-1.216 1.35-1.755 2.214-.243.487-.461.693-1.163.803-2.462-.526-4.787-.568-6.505-1.611-6.569-3.99-13.59-6.199-21.25-6.454z"/><path fill="#CEA54E" d="M81.783 34.105c7.879.146 14.9 2.355 21.47 6.345 1.717 1.043 4.042 1.085 6.455 1.98a39.8 39.8 0 0 1-2.91 9.396c-.305-7.712-8.658-5.605-9.245-7.698-1.517.29-3.033.578-4.55.538 0-.768 0-1.208.201-1.76.293-.484.387-.856.481-1.229a4.3 4.3 0 0 1-.945.318c-.25.004-.748.009-.97-.095-.491-.31-.673-.576-.768-.902-1.446-.667-2.94-1.247-4.327-2.02-1.836-1.024-3.589-2.198-5.526-3.642-.048-.66.14-.922.634-1.231"/><path fill="#C29D43" d="M76.25 29.277c1.375-.182 2.999-.085 4.686.366-1.437.208-2.938.061-4.687-.366"/><path fill="#CEA54C" d="M111.013 41.049c.446-.654.892-1.308 1.736-1.637 3.895 3.197 5.94 1.364 8.202-2.072l-2.949-.34c-.26-.493-.522-.986-.465-1.739 3.048.04 4.068-.821 4.642-3.899 1.517-8.131-.329-15.371-4.179-22.364 1.7.007 3.399.014 5.52.033 1.099 1.752 1.776 3.491 2.097 5.603-.934 1.033-2.07 2.21-2.008 2.277 1.033 1.117 2.216 2.094 3.365 3.102.84 4.856 1.68 9.71 1.857 14.774-2.216.377-3.769.546-5.322.715l.164 1.504h5.314l-.2 3.659c1.016.088 2.259.195 4.265.318 4.74 1.601 2.714 4.721 3.532 8.18-1.666-2.008-2.555-3.079-3.598-4.543-.978-.823-1.801-1.62-2.627-1.623-6.082-.023-12.165.113-18.293-.122-.381-.822-.717-1.324-1.053-1.826"/><path fill="#E7B95E" d="m133.14 45.013 3.444 4.15c-.818-3.459 1.208-6.579-3.148-8.196.799-.504 1.977-.976 3.365-1.707.984.545 2.395 1.32 2.432 2.157.305 6.725-2.502 12.463-6.195 18.228-1.61 2.14-3.183 3.924-5.23 6.031-.915.324-1.359.325-1.976-.048 2.32-7.122 4.814-13.868 7.308-20.615m-.138-14.599c1.5 2.113 3 4.64 4.25 7.377-5.014-.268-3.842-4.056-4.25-7.377"/><path fill="#D4AB52" d="M126.978 19.642c-1.153-.637-2.336-1.614-3.369-2.73-.063-.069 1.074-1.245 2.01-1.915.692 1.418 1.027 2.846 1.36 4.645m2.012 17.028c-1.776.336-3.547.336-5.318.336l-.164-1.504c1.553-.169 3.106-.338 5.068-.508.412.447.415.894.414 1.676"/><path fill="#C49B49" d="M114.998 12.001c-8.62-.812-17.367-.89-25.753-4.724 3.829-.611 7.906-1.242 11.974-1.184 3.743.054 7.476.85 11.525 1.935a204 204 0 0 0 2.254 3.973"/><path fill="#CBA149" d="M114.999 12c-.649-1.117-1.296-2.236-1.97-3.681 1.394.005 2.814.337 4.602.674 4.22 6.998 6.065 14.238 4.548 22.37-.574 3.077-1.594 3.938-4.748 3.64.748-3.02 2.03-6.004 3.013-9.084.248-.776-.465-1.859-1.088-2.86-.353-.81-.354-1.56-.088-2.906.334-4.063-.094-7.232-4.27-8.15q.002-.002 0-.002"/><path fill="#C59D49" d="M29.782 132.959c.634.49.884 1.006 1.208 2.145 2.7-.332 5.324-1.288 8.079-2.525 1.409-.39 2.688-.5 4.337-.597 1.109.014 1.848.016 2.83.21-.48 1.358-1.204 2.525-1.917 3.676 3.104.585 2.575 2.414 1.281 4.969-1.2 2.37-1.852 5.04-2.58 7.624-1.372 4.867.097 8.99 3.38 12.691.56.63.42 1.88.602 2.845 0 .444-.002.89-.004 1.667-1.41.06-3.613.256-4.1-.566-3.639-6.139-10.623-10.418-10.293-18.932.051-1.316-3.366-3.801-5.303-3.933-3.482-.238-7.057.898-10.945 1.613-.354-.291-.355-.736-.357-1.514 1.336-1.674 2.485-3.31 4.046-4.291 2.994-1.882 6.221-3.393 9.736-5.082"/><path fill="#BB9238" d="M41.29 178.947c-.376-.308-.573-.552-1.032-.869-.226-.55-.249-.979-.292-2.033-.35-1.085-.678-1.545-1.006-2.006 0 0-.487-.006-.835-.24-.546-.51-.809-.694-1.136-.787-.317-.105-.584-.285-1.065-1.011-.82-.633-1.373-.796-1.927-.958 0 0-.015-.022-.03-.026 2.105-3.578 4.992-2.737 7.1-.519 2.133 2.245 3.445 5.27 4.721 8.25-.862.612-1.33.927-1.797 1.241-.32-.097-.58-.28-.973-.934-.47-.286-.748-.184-1.027-.083 0 0-.468-.006-.702-.025"/><path fill="#B69249" d="M43.993 180.239c.465-.564.933-.88 1.696-1.213.472.536.65 1.09 1.073 1.81.248.166.248.66.258.906-.429.243-.867.24-1.633.208-.478-.315-.684-.553-1.158-.854-.21-.11-.233-.608-.236-.857m-21.195-32.444c-.602-.364-.905-.79-1.208-1.217l1.343-.345c.055.5.11 1-.135 1.562"/><path fill="#D5AB55" d="M59 162c-1.066 0-2.133 0-3.6-.422-2.51-7.978-.945-15.008 3.72-21.001 3.234-4.156 6.295-7.956 5.19-13.748 3.104-1.711 5.894-3.271 8.691-4.46-.42 2.43-.809 4.495-1.283 6.542-.815 3.518-2.127 7.142 2.42 9.513-.108.744-.164 1.17-.583 1.584-1.855-.56-3.347-1.107-5.399-1.86-.719 4.92-2.451 9.125-7.08 11.432-.56.28-.896 1.387-.992 2.153-.43 3.414-.734 6.843-1.084 10.267"/><path fill="#DEB25C" d="M59.291 162.28c.059-3.704.363-7.133.793-10.547.096-.766.432-1.873.992-2.153 4.629-2.307 6.361-6.512 7.08-11.432 2.052.753 3.544 1.3 5.286 2.201-.573 2.511-.98 4.978-2.305 6.765-3.148 4.247-2.527 9.143-3.085 14.102.015.249.033.747-.282.882-.8 1.391-1.285 2.646-1.77 4.351-.002 3.15-.002 5.85-.3 8.694-1.1 1.383-1.903 2.623-2.707 3.862-.663-1.106-1.739-2.15-1.917-3.329-.659-4.348-1.02-8.74-1.785-13.396"/><path fill="#D0A650" d="M63.996 126.98c1.419 5.641-1.642 9.441-4.877 13.597-4.664 5.993-6.229 13.023-4.12 21.001.669 5.117 1.335 9.812 2 14.963-3.927-.706-2.739-4.01-3.042-7.5-.885-3.31-1.588-5.883-2.596-8.33-3.522-8.551-2.076-16.236 3.103-23.778 1.92-2.796 2.392-6.585 3.85-10.066 2.112-.058 3.897.028 5.682.113"/><path fill="#E9B95F" d="M63.138 179.333c.659-1.567 1.462-2.807 2.832-3.973 2.561 5.659 5.246 10.354 12.341 9.909 3.554-.223 7.124-.186 10.833-.041.717.072 1.287-.081 2.19-.234.774 0 1.216.001 1.994.003.783.005 1.23.007 1.609.37-1.693 1.45-3.317 2.541-5.409 3.632-6.657-.454-12.857-.808-19.033-1.414C68.3 187.37 66.163 186.546 64 186c-.24-2.113-.479-4.226-.862-6.667"/><path fill="#E4B457" d="M64.036 186.352c2.127.194 4.263 1.018 6.46 1.233 6.175.606 12.375.96 19.409 1.415 1.928.666 3.012 1.33 3.677 1.997-3.617.734-6.832 1.403-10.008 2.222-1.895.488-3.73 1.21-5.59 1.827-1.876-.174-3.751-.347-5.86-.25-1.655-.352-3.076-.975-4.81-1.735-1.29-2.211-2.267-4.284-3.278-6.71"/><path fill="#D0A650" d="M57.304 178.962c-.3-.405-.302-.85-.303-1.626.52-.101 1.038.131 1.556.364-.318.408-.636.816-1.253 1.262"/><path fill="#B69249" d="M57.944 188.756c-.15.037-.442-.142-.862-.547.155-.041.438.145.862.547"/><path fill="#CBA34E" d="M57.989 127.011c-1.133 3.337-1.605 7.126-3.525 9.922-5.18 7.542-6.625 15.227-3.103 23.777 1.008 2.448 1.711 5.022 2.595 7.915-2.044-1.288-4.13-2.953-6.584-4.623-.553-.97-.413-2.22-.972-2.85-3.283-3.7-4.752-7.824-3.38-12.69.728-2.585 1.38-5.254 2.58-7.625 1.294-2.555 1.823-4.384-1.281-4.969.713-1.15 1.436-2.318 1.99-4.045 3.78-1.977 7.73-3.394 11.68-4.812"/><path fill="#E8B34A" d="M155.021 181.892c-3.422 2.313-6.844 4.626-10.926 7.09-1.114.622-1.567 1.095-2.021 1.568-4.792 1.827-9.584 3.653-14.754 5.477-3.375-.001-6.37.002-10.16-.004-1.582.314-2.37.638-3.158.961-.166.007-.333.014-.752-.385-1.13-1.472-1.854-3.247-2.915-3.48-4.389-.96-8.88-1.455-13.081-2.4 5.515-2.058 10.672-4.706 16.07-5.36 4.979-.604 7.84-2.695 9.89-6.77 1.94-3.859 3.856-7.728 5.784-11.925.002-.776.003-1.22.379-1.663 1.124 0 1.874.001 2.78.36.39 1.633.687 2.902.842 4.187.762 6.29 3.515 8.613 9.769 8.473 5.026-.113 10.058-.05 15.086.032.735.012 1.461.571 1.836.942-1.794 1.01-3.231 1.953-4.669 2.897"/><path fill="#E1AF4C" d="M97.001 191c4.454.664 8.945 1.158 13.334 2.12 1.06.232 1.784 2.007 2.665 3.485-9.404.335-18.813.324-28.218.128-2.09-.043-4.166-.738-6.523-1.41 1.586-.894 3.42-1.616 5.315-2.104 3.176-.819 6.39-1.488 10.383-2.221zm17.341 5.992q.671-.498 2.367-.967-.671.497-2.367.967"/><path fill="#B69249" d="M34.16 171.283c.39-.078.944.085 1.644.506-.396.083-.938-.092-1.643-.506m4.828 3.05c.3.167.627.627.966 1.39-.306-.165-.622-.63-.966-1.39m-1.893-1.101q.33-.191.786.554-.332.192-.786-.554m5.144 5.754c.03-.115.309-.217.669-.146.081.172-.419.16-.668.146"/><path fill="#FDCE6C" d="M171.306 112.138c-.328-.14-.401-.578-.13-1.007 1.393-2.353 3.229-4.181 3.501-6.218.855-6.403.78-12.934 1.71-19.32.998-6.845 1.319-6.798-5.377-10.005-.296-2.458-.588-4.503-1.059-6.814-.777-.46-1.375-.655-2.03-1.196-3.374-1.186-6.999-1.325-9.315-4.457-.132-.179-.685.013-.96-.128-4.874-2.516-8.444 1.463-12.503 2.667-4.126 1.224-9.304 1.838-9.222 8.114 0 .071-.605.15-1.222.1-1.099-.377-1.903-.629-2.701-1.25 3.005-3.787 6.004-7.205 9.003-10.623 2.645-1.146 5.534-1.928 7.885-3.51 5.61-3.773 16.033-4.642 20.935-.4 4.131 3.576 9.106 7.792 10.425 12.621 1.934 7.08 1.811 15.066.917 22.466-.724 6.002-3.766 11.754-6.068 17.501-.343.857-2.268 1.081-3.789 1.459"/><path fill="#F5C569" d="M141 61.626c-2.998 3.793-5.997 7.211-9.376 11.008-1.742 1.006-3.104 1.634-4.703 2.37-.851-1.672-1.62-3.184-2.268-5.011.533-1.54.943-2.766 1.353-3.99l1.662-.005c3.643-1.096 8.006.003 9.565-4.778.309-.945 1.993-1.442 3.405-2.182.362.712.362 1.462.362 2.588"/><path fill="#F2D693" d="M186.164 55.12c1.575 2.166 3.11 4.715 4.58 7.625-1.583-2.173-3.102-4.706-4.58-7.624m-2.949-5.077c.96.845 1.856 2.06 2.77 3.617-.933-.855-1.883-2.05-2.77-3.617"/><path fill="#E1AC44" d="M160.046 178.93c-.73-.306-1.457-.865-2.192-.877-5.028-.083-10.06-.145-15.086-.032-6.254.14-9.007-2.183-9.769-8.473-.155-1.285-.453-2.554-.841-4.528-.141-1.374-.126-2.05.222-2.796a20 20 0 0 1 1.95-.167c.436-.015.61-.029 1.12.016a8.9 8.9 0 0 1 1.682 1.957c2.616 4.024 4.94 7.868 11.078 7.177 3.751-.422 7.807.821 11.55 1.917 1.354.396 2.195 2.54 3.27 3.886 0 0-.02-.001-.349.032-.753.46-1.178.888-1.603 1.316 0 0-.054.375-.368.499-.315.124-.664.073-.664.073"/><path fill="#D8A641" d="M163.356 176.934c-1.4-1.27-2.242-3.414-3.595-3.81-3.744-1.096-7.8-2.34-11.551-1.917-6.138.69-8.462-3.153-11.078-7.177-.423-.65-.895-1.267-1.71-2.218-.378-.492-.392-.665-.28-1.065.066-1.057.006-1.886-.074-3.115.27-2.49.56-4.58.871-7 .03-.77.04-1.212.426-1.647 1.13.01 1.883.013 2.636.433.002 1.803.003 3.19.003 4.99.115 5.721 1.853 9.567 7.053 12.396 4.678 2.545 9.239 1.947 14.326 2.238 3.12.015 5.86-.014 8.616-.042a.3.3 0 0 0 .054-.002c-.31 1.014-.62 2.028-1.008 3.349a42.5 42.5 0 0 1-4.69 4.587m-3.665 2.061c.356-.065.705-.014.88-.01a37 37 0 0 1-5.199 2.972c1.088-1.009 2.525-1.952 4.319-2.962"/><path fill="#C8A873" d="M142.39 190.454c.138-.377.591-.85 1.402-1.32-.124.411-.604.817-1.402 1.32"/><path fill="#D8A641" d="M161.376 178.286c.127-.356.552-.783 1.301-1.235-.118.372-.56.768-1.3 1.235"/><path fill="#BE8F37" d="M172.038 166.003c-.016.434-.032.869-.074 1.628-.78.661-1.536.997-2.601 1.35-.31.017-.346.022-.36-.239-.018-.433-.02-.605.13-.909-.254-.35-.662-.567-1.473-.8-2.138-.418-4.21-.353-5.553-1.31-5.634-4.01-13.076-5.403-16.956-12.067 1.547-7.157 4.7-12.539 11.816-14.304-.564 1.165-.991 2.077-1.64 2.785-7.007 7.656-5.214 14.558 4.876 18.14 4.081 2.096 7.958 3.91 11.835 5.726"/><path fill="#060403" d="M125.832 65.628c-.236 1.6-.646 2.825-1.412 4.66-1.685 4.976-3.013 9.343-4.693 13.799-.848.772-1.342 1.456-2.651 3.267 6.534-2.248 11.525-4.009 16.545-5.684 11.62-3.877 23.253-7.713 34.887-11.157-.1 6.522-.209 12.635-.548 18.807-.516.216-.75.43-1.305.761a5979 5979 0 0 0-30.64 10.05l-2.274.577-.155.874c6.588 2.157 13.206 4.23 19.756 6.497 4.954 1.715 11.612 2.362 14.216 5.906 2.496 3.4.748 9.917.863 15.064.019.83.371 1.98-.037 2.421-.68.735-1.85 1.015-3.402 1.476-1.008-.06-1.429-.11-2.042-.466-2.04-.812-3.888-1.318-5.933-2.07-.604-.28-1.011-.314-1.658-.558-3.85-1.804-7.378-3.63-11.088-4.94-6.012-2.12-12.143-3.902-18.617-5.872-2.155-.294-3.917-.543-5.786-1.013-.497-.225-.885-.231-1.274-.237.394.464.788.93 1.168 1.628-.014.234.18.66.127 1.056 3.66 11.333 7.424 22.255 11.038 33.226.638 1.939.645 4.085.585 6.123-1.074.003-1.79.018-2.876-.108-5.506-.23-10.642-.319-15.942-.751a8443 8443 0 0 1-10.997-33.28l-2.22.565c.14 1.893.279 3.785.187 5.744-.539.225-.722.476-1.17.844-3.26 8.677-6.129 17.328-9.258 26.284-6.864.461-13.467.618-20.06.405A3557 3557 0 0 1 82.86 118.63c.35-.76.524-1.205.804-1.865-.556-.133-1.217-.051-2.25.089-2.949 1.065-5.493 2.17-8.11 3.06-8.91 3.03-17.872 5.913-26.746 9.046-1.36.48-2.358 1.981-3.523 3.01-1.28.11-2.558.22-4.316.66-1.944.36-3.41.388-4.84.01a62 62 0 0 0-.276-3.572c.024-5.048.048-10.096.063-15.612 9.416-3.447 18.858-6.373 28.246-9.46 1.454-.477 2.665-1.69 3.69-3.19C54.884 96.78 44.465 93.382 33.9 89.64c-.185-1.085-.225-1.828-.12-2.949.049-1.17-.047-1.961-.111-3.19.039-2.773.048-5.11.191-7.845.038-1.503-.06-2.609-.139-4.041.083-.757.149-1.187.603-1.602 2.82.609 5.25 1.203 7.829 2.146 6.829 2.568 13.504 4.8 20.19 7.002 5.902 1.942 11.815 3.85 18.088 5.666.832-.934 1.867-1.938 1.674-2.561a376 376 0 0 0-5.81-17.187c-.195-.539-1.485-.68-2.266-1.006-.656-3.919-1.121-7.883-2.04-11.739-.548-2.293-1.811-4.416-2.72-7.377 1.123-1.18 2.21-1.945 3.305-1.959 5.442-.07 10.886.058 16.415.478 2.47 7.422 4.853 14.483 7.212 21.822.252.75.528 1.22.777 1.944.03.412.087.572.13 1.109 1.13 3.746 2.275 7.115 3.42 10.484l.923-.183c.128-.577.257-1.153.513-2.075 1.451-4.247 2.897-8.114 4.073-12.06 2.11-7.082 4.059-14.212 6.075-21.321 6.082-.085 12.165-.22 18.247-.198.826.004 1.649.8 2.627 1.623-2.34 7.14-4.835 13.886-7.154 21.008M41.504 130.53s.02-.043 0 0"/><path fill="#F8EDA1" d="M136.265 100.387c9.839-3.586 19.927-6.914 30.707-10.24.905-.03 1.12-.062 1.622-.034-.746 1.204-1.894 2.264-2.782 3.51-.98 1.377-2.756 3.861-2.405 4.25 3.049 3.366.286 4.834-1.679 6.797-.832.832-1.198 2.131-1.776 3.218-7.813-2.414-15.625-4.829-23.687-7.5"/><path fill="#8B6D2D" d="M177.798 160.37c-.465.425-.831.515-1.912.622-5.443.953-8.365-1.978-11.308-4.906-5.566-5.539-5.247-10.934.838-15.811 1.057-.848 1.743-2.159 2.615-3.478l.043-.665s.436.02.852.246c.973.367 1.529.51 2.084.652 5.31-.55 7.518 2.898 9.617 6.989 2.02 3.935 3.49 7.458-.132 11.299-1.192 1.264-1.75 3.127-2.697 5.052m-10.8-11.812c-.531 4.6 1.87 7.002 6.135 7.349 4.379.356 6.188-3.885 6.144-6.454-.042-2.505-2.894-6.196-5.362-7.136-3.67-1.397-6.748.82-6.917 6.241"/><path fill="#FED472" d="M171.015 76.001c6.69 2.794 6.37 2.747 5.373 9.591-.932 6.387-.856 12.918-1.71 19.32-.273 2.038-2.11 3.866-3.524 5.998-1.132.029-1.97-.15-2.856-.78.01-2.316-.207-4.244.207-6.025.352-1.517 2.029-2.841 2.087-4.292.317-7.93.315-15.873.423-23.812"/><path fill="#FADD83" d="M171.01 75.588c-.103 8.352-.101 16.295-.418 24.225-.058 1.45-1.735 2.775-2.087 4.292-.414 1.781-.198 3.71-.435 5.793-2.606-.402-5.032-1.023-7.788-1.827.248-1.27.614-2.569 1.446-3.4 1.965-1.964 4.728-3.432 1.68-6.798-.352-.389 1.424-2.873 2.404-4.25.888-1.246 2.036-2.306 2.792-3.713-.278-.264-.413-.648-.413-.648.108-6.114.216-12.227.654-18.81.648-.783.966-1.098 1.285-1.412.292 2.045.584 4.09.88 6.548"/><path fill="#C59940" d="M163.132 132.786c.421.05.842.1 1.568.24.297.514.29.935-.026 1.823-2.764 1.696-5.218 2.925-7.672 4.155-7.15 2.113-10.304 7.495-11.971 14.92-.856 1.098-1.443 1.588-2.276 1.911-.416-.723-.586-1.278-.707-2.231.017-7.821 3.722-12.598 10.494-15.26.285-.112.312-.88.793-1.492 3.487-1.455 6.642-2.76 9.797-4.066"/><path fill="#B18736" d="M156.967 139.352c2.49-1.578 4.943-2.807 7.705-4.187 1.143.113 1.978.377 3.107.804.295.163.267.607-.12.826-12.057 4.364-14.483 10.928-8.219 21.328.326.54.379 1.246.559 1.875-9.886-3.303-11.68-10.205-4.672-17.86.649-.71 1.076-1.621 1.64-2.786m14.042-2.54c-.554.075-1.11-.067-1.865-.419.26-.237.718-.264 1.52-.263.345.027.343.463.345.682"/><path fill="#A87E2E" d="M160.203 160.277c-.384-.908-.437-1.613-.763-2.154-6.264-10.4-3.838-16.964 8.204-21.107-.485 1.1-1.17 2.411-2.228 3.259-6.085 4.877-6.404 10.272-.838 15.81 2.943 2.929 5.865 5.86 11.024 4.932.387.695.344 1.38.222 2.399-1.14.956-2.202 1.58-3.525 2.396-4.138-1.624-8.015-3.44-12.096-5.535"/><path fill="#C79F48" d="M39.391 108.01c-2.245-.003-4.12-.003-6.304-.003.408-1.337.406-1.808.61-1.925 5.185-3.014 4.977-2.812.711-7.446-1.486-1.614-1.64-4.456-2.17-7.149.232-.412.68-.285.933-.03 2.788 1.06 5.322 1.866 7.857 2.672 1.236 2.427 2.176 5.078 3.797 7.213 1.41 1.856 3.589 3.127 5.271 4.526a70 70 0 0 1-5.035 1.13c-1.507.34-2.291.672-3.076 1.005-.74.003-1.482.007-2.594.007"/><path fill="#E9D395" d="M41.399 94.156c-2.906-.833-5.44-1.638-8.107-2.962.163-.75.458-.98.753-1.213 10.42 3.4 20.84 6.799 31.35 10.583-7.815-1.87-15.72-4.126-23.996-6.408"/><path fill="#C9A451" d="M42.327 108q.664-.496 2.353-.996-.663.498-2.353.997"/><path fill="#F7E194" d="M33.9 89.639c-.15.574-.445.806-.86 1.3-.122.263-.57.136-.803.15-.576-.486-.919-.984-1.355-1.778-.05-3.99-.005-7.683-.004-11.834-.29-3.19-.538-5.921-.8-9.055.177-.417.367-.432 1.083-.29 1.275.726 2.024 1.295 2.774 1.865-.065.43-.13.86-.422 1.86-.08 1.78.066 2.988.212 4.197-.008 2.337-.017 4.673-.276 7.646-.106 1.547.04 2.458.185 3.368.04.743.08 1.486.266 2.57"/><path fill="#E6BD63" d="M27.252 68.01c-.25-.166-.25-.336-.252-.762.324-.153.585.036.892.532.108.22-.39.227-.64.23"/><path fill="#D9B662" d="M33.844 133.046c1.466-.028 2.932-.055 4.747-.135-2.277.905-4.902 1.86-7.577 2.49.456-.905.962-1.484 1.927-2.22.46-.156.903-.135.903-.135"/><path fill="#B29048" d="M33.88 132.64c-.036.406-.48.385-.7.373-.152-1.153-.081-2.293.207-3.689.322.8.426 1.856.494 3.317"/><path fill="#C49B49" d="M115.003 12.37c4.171.551 4.6 3.72 4.265 7.408-1.597-2.2-2.929-4.62-4.265-7.408"/><path fill="#D8AF56" d="M33 41.386c8.664 5.59 17.38 4.722 26.317.123 1.602-.825 3.863-.372 6.25-.508-.214 1.434-.5 3.7-1.566 4.16-5.123 2.211-10.325 4.662-15.75 5.652-7.02 1.282-14.234-3.57-15.251-9.427"/><path fill="#D8AD51" d="M39.939 68.06c.037-3.2 1.5-3.42 4.215-2.441 1.538.554 3.458-.029 5.194.082 1.29.083 2.571.416 3.839.712 1.305.306 2.959 1.4 3.822.942 5.072-2.684 10.092-1.414 15.537-.002-1.164 1.413-2.622 3.21-4.252 3.381-4.38.46-8.84.11-13.256.317-2.034.095-4.042.738-6.46 1.085-2.44-.527-4.481-1.006-6.56-1.738-.355-.632-.674-1.01-1.109-1.61a4.5 4.5 0 0 0-.944-.754.1.1 0 0 1-.026.027"/><path fill="#D0A54A" d="M48.976 72.184c2.02-.395 4.028-1.038 6.062-1.133 4.417-.206 8.876.143 13.256-.317 1.63-.17 3.088-1.968 4.662-3.382.13-.67.31-.92.95-.89 1.29 2.987 2.205 5.75 2.822 8.63-2.44-.28-4.58-.677-7.089-1.117-3.467.68-6.566 1.404-10.045 2.096-3.792-1.317-7.205-2.602-10.618-3.887"/><path fill="#E3C176" d="M77.027 74.976c-.916-2.764-1.831-5.527-2.909-8.61-.148-.758-.134-1.197-.104-1.965.796-.003 2.086.138 2.282.677a376 376 0 0 1 5.81 17.187c.192.623-.843 1.627-1.727 2.263-.469-.59-.52-.99-.538-1.769-.917-2.846-1.866-5.315-2.814-7.783"/><path fill="#A08443" d="M88.903 43.113c-5.443-.058-10.887-.186-16.329-.116-1.095.014-2.182.778-3.401 1.593-.682-.707-1.234-1.812-1.894-3.226 7.11-.307 14.33-.306 21.944-.035.157.774-.082 1.28-.32 1.784"/><path fill="#A38D54" d="M41.025 69.011c.319.378.638.755.96 1.676.008.736.014.93.02 1.122-2.431-.594-4.862-1.188-7.681-1.797-1.139-.585-1.888-1.154-2.879-1.918 2.408-.143 5.057-.092 8.1-.037.394.004.42-.018.515.214.384.402.675.57.965.74"/><path fill="#DABF7A" d="M88.989 43.475c.152-.867.39-1.372.686-2.147.268-.284.48-.297 1.01-.32.412.316.594.582 1.088 1.265.228 1.227.233 1.976.258 3.022.33.77.639 1.245.959 2.094 1.353 5.784 2.695 11.194 3.955 16.81-.234.475-.447.68-.72.82a5148 5148 0 0 1-7.236-21.544"/><path fill="#E5CF8B" d="M112.066 42.875c-1.97 7.43-3.918 14.56-6.029 21.64-1.176 3.947-2.622 7.814-4.322 11.845-.516-2.005-.656-4.138-.505-6.484 1.434-3.443 2.575-6.675 3.778-10.265.386-1.76.713-3.16 1.295-4.772.438-1.061.62-1.914.802-2.767.996-3.084 1.993-6.167 3.038-9.619.336-.502.554-.708.797-1.195.429.293.765.795 1.146 1.617"/><path fill="#CBA149" d="M117.635 37c1.143.09 1.919.179 3.316.34-2.262 3.436-4.307 5.269-7.877 2.029 1.349-1.034 2.772-1.701 4.561-2.368"/><path fill="#DAAD57" d="M106.797 51.826c.106 1.099-.076 1.952-.763 2.724-3.66-.642-6.738-.893-7.862-5.03-.33-1.216-3.386-1.691-5.193-2.506-.31-.474-.619-.948-.7-1.719.227-.296.724-.3.724-.3l4.55-.867c.587 2.093 8.94-.014 9.244 7.698"/><path fill="#D4AA53" d="M93.002 44.666c.001.33-.496.333-.744.332-.252-.749-.257-1.498-.264-2.62-.002-.374.497-.38.75-.126.256.424.259.595.26.766z"/><path fill="#DAAD57" d="M93.204 42.906c-.201-.06-.204-.23-.21-.659.227-.361.46-.465.691-.57-.094.373-.188.745-.48 1.23"/><path fill="#C2A864" d="M83.558 116.98c-.173.445-.347.89-.992 1.678-1.158 1.007-1.844 1.67-2.751 2.071-2.42.247-4.62.758-6.82 1.27-2.791 1.559-5.581 3.119-8.685 4.83-2.099.066-3.884-.02-5.995.038-4.276 1.562-8.225 2.98-12.248 4.765-.813.366-1.552.364-2.661.35.795-1.04 1.794-2.543 3.153-3.022 8.874-3.133 17.835-6.016 26.745-9.047 2.618-.89 5.162-1.994 8.55-2.975 1.108.031 1.406.036 1.704.042"/><path fill="#DEB25C" d="M73.001 122.37c2.193-.883 4.393-1.394 6.76-1.265-1.746 6.093-3.66 11.547-5.572 17-4.598-2.052-3.286-5.676-2.471-9.194.474-2.047.863-4.113 1.283-6.541"/><path fill="#A48647" d="M74.138 138.424c1.964-5.772 3.877-11.226 5.844-17.056.74-1.04 1.426-1.703 2.408-2.395-4.208 13.375-8.71 26.78-13.447 40.694-.458.773-.682 1.037-.906 1.3.573-4.71-.048-9.606 3.1-13.853 1.325-1.787 1.732-4.254 2.668-6.752.169-.768.225-1.194.333-1.938"/><path fill="#EBBC66" d="M88.997 185.002c-3.562.08-7.132.044-10.686.267-7.095.445-9.78-4.25-12.044-10.052-.27-2.917-.269-5.617.078-8.82 1.781-1.135 3.217-1.766 4.648-2.006-.002 3.14-.033 5.89.013 8.638.15 8.998 3.8 11.798 12.88 10.238 1.615-.277 3.405.462 5.113.982 0 .418-.001.586-.002.753"/><path fill="#EFCD85" d="M68.052 161.216c.209-.512.433-.776.88-1.18 6.827-.297 13.43-.454 20.61-.96 1.21-.918 1.84-1.485 2.473-1.645-.666 2.131-1.332 3.856-2.43 5.574-2.154-.004-3.877-.004-5.956-.008-2.451 0-4.546.003-7.041.006-1.47.002-2.54.007-3.977.005-1.754-.352-3.14-.699-4.526-1.045 0 0-.018-.498-.033-.747"/><path fill="#E9B95F" d="M67.77 162.098a19.4 19.4 0 0 1 4.678 1.155c-.346.415-.898.58-1.45.746-1.436.632-2.872 1.263-4.653 1.948.14-1.203.625-2.458 1.425-3.849"/><path fill="#ECB853" d="M97.254 190.72c-1.003.278-1.753.278-2.879.276-1.458-.666-2.542-1.33-4.003-1.996 1.248-1.092 2.872-2.183 4.992-3.635 12.624-1.408 23.344-4.906 29.7-16.518.561-1.027 2.587-1.253 3.933-1.85-1.927 3.864-3.844 7.733-5.784 11.591-2.049 4.076-4.91 6.167-9.888 6.77-5.4.655-10.556 3.303-16.071 5.361"/><path fill="#F2C36B" d="M70.993 164.39c.557-.556 1.109-.722 1.823-1.131 1.232-.25 2.302-.254 3.775.162-1.274 12.397.79 15.525 10.666 15.862 4.085.428 7.915.574 11.688 1.075-2.023 1.782-3.987 3.21-5.952 4.637-.443 0-.885 0-1.827-.245a25 25 0 0 0-2.166-.752c-1.71-.27-3.499-1.008-5.114-.73-9.08 1.56-12.73-1.24-12.88-10.24-.046-2.747-.015-5.497-.013-8.637"/><path fill="#F2C05E" d="M93.328 184.997c1.63-1.43 3.594-2.857 6.015-4.688 4.62-1.688 9.211-2.258 12.85-4.424 5.463-3.252 10.656-7.262 13.233-13.825 1.467.021 2.534.063 3.59.458a192 192 0 0 0-.014 2.483c0 .444-.002.887-.004 1.663-1.347.93-3.373 1.156-3.935 2.183-6.355 11.612-17.075 15.11-29.63 16.158-.875 0-1.322-.003-2.105-.008M89 184.25c.555-.083 1.11.086 1.834.5-.403.397-.973.55-1.69.478-.146-.393-.145-.56-.145-.979"/><path fill="#ECB853" d="M129.377 165.001c-.375-.71-.374-1.42.016-2.527 1.145-.325 1.9-.253 2.655-.18-.016.676-.031 1.352-.047 2.368-.75.34-1.5.34-2.624.339"/><path fill="#FED87B" d="M134.994 74c.322-.075.927-.155.927-.226-.082-6.276 5.096-6.89 9.222-8.114 4.059-1.204 7.629-5.183 12.503-2.667.275.141.828-.05.96.128 2.316 3.132 5.94 3.271 8.927 4.5-3.006 1.255-5.68 2.12-8.427 2.568-.939-.996-1.809-2.085-2.67-2.078-7.616.064-12.671 2.865-18.791 10.054-3.042 1.078-5.745 2.037-8.74 2.772-1.908-6.02 3.694-4.954 6.09-6.937"/><path fill="#957F49" d="M129.197 81.162c2.703-.96 5.406-1.919 8.828-3.015 7.53-2.605 14.342-5.074 21.153-7.542 2.675-.864 5.35-1.73 8.411-2.637.987.151 1.585.346 2.362.806-.14.58-.458.895-1.113 1.27A6155 6155 0 0 0 133.62 81.67c-5.02 1.675-10.01 3.436-16.545 5.684 1.309-1.811 1.803-2.495 3.03-3.282 3.52-1.038 6.305-1.974 9.09-2.91"/><path fill="#F6CB76" d="M128.905 80.937c-2.494 1.16-5.28 2.097-8.446 3.047.948-4.353 2.276-8.72 3.838-13.382 1.003 1.218 1.773 2.73 2.624 4.403 1.599-.737 2.961-1.365 4.697-2.002 1.178.242 1.982.494 3.081.871-2.1 2.109-7.702 1.043-5.794 7.063"/><path fill="#FDEAA2" d="M132.38 162.224c-1.087-.003-1.842-.075-2.975-.104-1.445.003-2.512-.039-4.41-.093-2.547-.01-4.265-.005-6.323-.013-.795-.002-1.249.008-2.099.01-1.454-.007-2.512-.005-3.576-.256-.017-.42-.028-.588-.028-.957.01-.202.04-.605.507-.602a5662 5662 0 0 0 15.52-.353c.717-.015 1.432-.03 2.756.147 1.128.515 1.649.839 2.203 1.386.033.224.113.67.113.67-.451.03-.903.063-1.688.165"/><path fill="#F8CA6D" d="M134.33 162.057c-.262.001-.342-.444-.105-.734.422-.31.606-.33.79-.35.015.174.03.347.071.781-.146.274-.32.288-.756.303"/><path fill="#CB9736" d="M143 156.002c.588-.49 1.175-.98 1.883-1.738 4.148 6.056 11.59 7.448 17.224 11.46 1.343.956 3.415.89 5.648 1.513.681.47.924.64 1.224.728.003.172.006.344.006.775a37.7 37.7 0 0 1-8.673-.064c-1.422-.842-2.405-1.246-3.359-1.709-5.445-2.642-13.282-2.247-13.952-10.965"/><path fill="#D5AB52" d="M162.94 132.48c-2.963 1.612-6.118 2.917-9.996 4.37-1.821.38-2.937.545-4.012.854-5.713 1.642-7.303 6.93-9.93 11.298-.754-.004-1.507-.007-2.645-.257-.385-.246-.398-.726-.122-.938 3.128-9.342 10.68-12.907 19.118-15.859.845-.452 1.348-.871 1.85-1.291 1.849.505 3.697 1.01 5.737 1.823"/><path fill="#B99547" d="M135.141 160.747c-.31.246-.494.266-.949.353-.791-.258-1.312-.582-2.083-1.085-.547-2.23-.554-4.376-1.192-6.315-3.614-10.971-7.379-21.893-10.688-33.218 1.476 1.613 2.547 3.614 3.66 5.992 1.413 4.424 2.784 8.471 4.163 12.868.6 1.823 1.194 3.296 1.843 5.14 1.065 3.094 2.075 5.816 3.122 8.889.716 1.787 1.394 3.223 2.072 4.66.06.83.12 1.66.052 2.716"/><path fill="#D39F3A" d="M142.755 155.835c.916 8.885 8.753 8.49 14.198 11.132.954.463 1.937.867 2.978 1.664-4.635.12-9.196.718-13.874-1.827-5.2-2.829-6.938-6.675-6.679-12.395 1.124-.41 1.872-.409 2.62-.408.171.556.341 1.111.757 1.834"/><path fill="#CDA045" d="M142.048 153.604c-.798.396-1.546.395-2.668.393-.376-1.389-.377-2.776-.379-4.579 2.628-4.785 4.218-10.072 9.931-11.714 1.075-.309 2.19-.474 3.679-.705.243.464.216 1.233-.07 1.345-6.771 2.662-10.476 7.439-10.493 15.26"/><path fill="#E2B55A" d="M135.068 157.632c-.657-1.038-1.335-2.474-2.043-4.65.304-2.156.636-3.57.972-4.984.003.002.01.008.014.357.639 1.1 1.274 1.854 1.908 2.607-.29 2.09-.58 4.18-.85 6.67"/><path fill="#EBBE64" d="M135.94 150.632c-.655-.423-1.29-1.176-1.604-2.278.755-.345 1.19-.34 1.623-.336 0 0 .013.481.021.721a46 46 0 0 1-.04 1.893"/><path fill="#D8A641" d="M169.133 167.833c-.454.044-.697-.126-.976-.582.314.015.722.233.976.582"/><path fill="#FBD481" d="M98.873 132.811c.059-.342.242-.593 1.141-.747 2.39 4.64 4.19 9.277 5.602 13.922-2.268 1.301-5.18 2.22-5.813 3.964-1.31 3.614-3.457 4.436-6.726 3.702 1.946-7.185 3.87-14.013 5.796-20.84"/><path fill="#E8D497" d="M106.005 145.977c-1.8-4.636-3.6-9.272-5.76-13.98-.5-1.963-.639-3.855-.778-5.748l2.22-.564c3.611 10.978 7.222 21.956 10.998 33.51.166.576.325 1.01.325 1.01s-.03.404-.367.602c-.774.198-1.211.197-1.927-.044-1.757-5.089-3.234-9.937-4.711-14.786"/><path fill="#887238" d="M42.153 72.158c-.154-.542-.16-.735-.132-1.217 2.076.19 4.118.668 6.557 1.195 3.81 1.333 7.224 2.618 11.258 4.198a545 545 0 0 0 13.535 4.692c2.382.75 4.41 1.43 6.438 2.111.05.4.101.8.204 1.498-5.855-1.625-11.768-3.533-17.67-5.475-6.686-2.202-13.361-4.434-20.19-7.002"/><path fill="#EFDFA6" d="M126.037 119.085c6.08 1.925 12.212 3.707 18.224 5.828 3.71 1.309 7.238 3.135 10.909 4.961-.122.41-.224.624-.552.894-1.09-.23-1.875-.476-2.883-1.01-4.052-1.132-7.881-1.98-11.78-3.173-2.027-1.096-3.985-1.847-6.117-2.837-.727-.408-1.28-.576-2.063-1.01-2.065-1.396-3.902-2.524-5.738-3.653"/><path fill="#E3C995" d="M98.484 132.837c-1.536 6.802-3.461 13.63-5.422 21.147-.042 1.131-.048 1.574-.274 2.123-.498.306-.68.57-.776.898-.007-.001.002.02.002.02-.631.566-1.263 1.133-2.211 1.745a385 385 0 0 1 8.68-25.933"/><path fill="#E8BD67" d="M104.927 59.97c-1.142 3.231-2.283 6.463-3.944 9.728-1.337-.545-2.155-1.123-3.08-1.924-.306-.501-.57-.689-.898-.785-.276-.471-.552-.942-.804-1.692.297-.419.51-.623 1.085-1.15 2.393-2.37 3.212-6.6 7.64-4.178"/><path fill="#F9D788" d="M125.644 119.04c2.23 1.174 4.066 2.302 5.925 3.956-2.558 1.384-5.14 2.242-7.721 3.1-1.072-2-2.143-4-3.565-6.01-.35-.007-.545-.434-.41-.887.121-.62.107-.786.092-.952 1.762.25 3.524.5 5.68.793"/><path fill="#B49E69" d="M98.01 67.996c.818.579 1.636 1.157 2.68 1.914.369 2.312.509 4.445.898 6.795.12.793-.009 1.37-.137 1.946q-.462.09-.923.183c-1.145-3.37-2.29-6.738-3.199-10.473.236-.367.681-.365.681-.365"/><path fill="#B99547" d="M113.476 160.21c-.466-.004-.625-.44-.626-.67 5.134-.144 10.27-.055 15.776.175-4.648.26-9.666.38-15.15.494"/><path fill="#A38D54" d="M33.86 75.655c-.281-.81-.428-2.018-.366-3.47.306.861.404 1.967.366 3.47"/><path fill="#B99547" d="M119.858 118.027c.122.386.136.553.029.938-.515-.246-.91-.71-1.303-1.175.389.006.777.012 1.274.237"/><path fill="#EBBE64" d="M154.925 130.752c.02-.254.123-.468.485-.668.586.012.993.046 1.597.326-.306.667-.809 1.086-1.67 1.231-.377-.48-.395-.685-.412-.89"/><path fill="#A38D54" d="M33.78 86.69c-.291-.532-.437-1.443-.362-2.553.315.592.41 1.383.361 2.553"/><path fill="#A48647" d="M83.665 116.765c-.405.21-.703.204-1.44.114.223-.165.884-.247 1.44-.114"/><path fill="#C2A864" d="M41.514 130.51c.01-.022-.01.021 0 0"/><path fill="#957F49" d="M167.96 89.32c.231-.058.366.326.355.53-.224.235-.438.267-.97.234-.135-.335.099-.548.615-.764"/><path fill="#DABF7A" d="M97.903 67.774c.107.222-.338.22-.56.21-.278-.171-.335-.33-.365-.743.356-.156.62.032.925.533"/><path fill="#79622C" d="M167 148.14c.167-5.002 3.244-7.22 6.915-5.823 2.468.94 5.32 4.631 5.362 7.136.044 2.569-1.765 6.81-6.144 6.454-4.264-.347-6.666-2.749-6.132-7.767"/><path fill="#DFB55B" d="M40.91 68.788c-.175.054-.466-.115-.85-.522.18-.06.457.12.85.522"/><path fill="#BD9846" d="M73.017 80.956c-4.187-1.442-8.373-2.885-12.801-4.59a40.4 40.4 0 0 1 9.457-2.044c1.383 2.472 2.363 4.553 3.344 6.634"/><path fill="#BE973C" d="M73.37 81.026c-1.334-2.15-2.314-4.232-3.329-6.66 2.107.05 4.247.446 6.687.726 1.247 2.352 2.196 4.82 3.113 7.667-2.06-.303-4.088-.983-6.47-1.733"/><path fill="#E1B55E" d="M104.988 59.611c-4.49-2.063-5.31 2.166-7.62 4.329-1.683-5.357-3.025-10.767-4.378-16.551 1.796.44 4.851.915 5.182 2.132 1.124 4.136 4.201 4.387 7.606 5.238-.077 1.691-.404 3.093-.79 4.852"/><path fill="#FEDB8A" d="M93.008 156c.006-.442.012-.885.034-1.66 3.304.046 5.45-.776 6.761-4.39.634-1.745 3.545-2.663 5.813-3.964 1.866 4.84 3.343 9.688 5.096 15.152-1.255 5.596-6.373 8.682-13.402 8.861-6.388.164-7.183-.598-7.294-6.988.667-1.724 1.333-3.449 2-5.58-.002-.407-.011-.427.216-.532.5-.308.683-.572.776-.898"/><path fill="#FED47F" d="M89.585 163.005c.542 6.396 1.337 7.158 7.725 6.994 7.029-.18 12.147-3.265 13.682-8.621.44-.374.877-.373 1.64-.37.337.172.348.34.576 1.015 1.4.341 2.58.175 3.761.008.454-.01.908-.019 1.696.318.001 1.116-.331 1.885-1.028 2.66-2.109 1.156-3.854 2.307-5.6 3.457-5.65 3.72-11.13 7.259-18.587 6.675-8.854-.694-11.762-3.874-9.465-12.14 1.723 0 3.446 0 5.6.004"/><path fill="#FACC75" d="M83.629 162.997c-1.94 8.27.967 11.45 9.821 12.144 7.457.584 12.938-2.955 18.587-6.675 1.746-1.15 3.491-2.3 5.565-3.11-3.958 6.484-10.379 9.474-17.184 11.48-4.31 1.272-8.934 1.48-13.417 2.165-9.62-.055-11.684-3.183-10.01-15.578 2.092-.423 4.187-.426 6.638-.426"/><path fill="#F8CA6D" d="M87.257 179.283c4.227-.967 8.85-1.175 13.161-2.446 6.805-2.007 13.226-4.997 17.548-11.487.368-1.116.7-1.885 1.04-2.99 1.724-.338 3.442-.342 5.59-.312-1.747 6.575-6.94 10.585-12.403 13.837-3.639 2.166-8.23 2.736-12.792 4.07-4.229-.098-8.059-.244-12.144-.672"/><path fill="#FBE189" d="M159.106 70.19c-6.74 2.883-13.55 5.352-20.743 7.838 5.402-7.052 10.457-9.853 18.073-9.917.861-.007 1.731 1.082 2.67 2.078"/><path fill="#F8CA6D" d="M116.573 162.023c-.785.175-1.966.341-3.358.252.846-.256 1.904-.258 3.358-.252"/><path fill="#E2B55A" d="M154.618 130.768c.324.188.342.393.376.905-8.08 3.227-15.63 6.792-18.76 16.134-.709.207-1.143.202-1.902.199-.326 0-.332-.006-.323-.395 2.11-7.804 5.843-13.565 14.208-14.961.727-.122 1.21-1.706 2.13-2.61.752 0 1.182.003 1.612.005.784.247 1.568.493 2.66.723"/><path fill="#FDD17B" d="M123.889 126.474c2.54-1.236 5.122-2.094 7.909-3.211.76-.09 1.313.077 2.096.834 1.523 1.688 2.816 2.786 3.92 4.16-2.081 2.467-3.933 4.69-5.873 6.835-1.231 1.361-2.593 2.604-3.896 3.9-1.372-4.047-2.743-8.094-4.156-12.518"/><path fill="#F5C970" d="M128.052 139.342c1.296-1.646 2.658-2.889 3.889-4.25 1.94-2.144 3.792-4.368 6.177-6.852.966-.631 1.436-.97 1.906-1.309 3.83.847 7.659 1.695 11.711 2.828-.206.284-.636.282-1.803.265-5.703.213-10.058 1.542-13.174 5.876-2.084 2.897-4.598 5.485-6.919 8.211-.593-1.473-1.186-2.946-1.787-4.769"/><path fill="#EBBE64" d="M129.895 144.483c2.265-3.098 4.78-5.686 6.863-8.583 3.116-4.334 7.47-5.663 12.851-5.875-.181.92-.665 2.503-1.392 2.625-8.365 1.396-12.098 7.157-14.211 14.959-.345 1.802-.677 3.217-1.018 5.021-1.018-2.332-2.028-5.054-3.093-8.147"/><path fill="#F9D788" d="M139.956 126.585c-.402.685-.872 1.024-1.647 1.38a23.7 23.7 0 0 1-4.242-3.628c1.903.401 3.861 1.152 5.889 2.248"/><path fill="#EFCD85" d="M92.788 156.107q.19.33-.549.793-.197-.334.549-.793"/></svg>