<svg xmlns="http://www.w3.org/2000/svg" fill="none" viewBox="0 0 2000 2000"><g clip-path="url(#vgx_svg-a)"><path fill="url(#vgx_svg-b)" d="M1000 2000c552.28 0 1000-447.72 1000-1000C2000 447.715 1552.28 0 1000 0 447.715 0 0 447.715 0 1000c0 552.28 447.715 1000 1000 1000"/><mask id="vgx_svg-c" width="2000" height="2000" x="0" y="0" maskUnits="userSpaceOnUse" style="mask-type:luminance"><path fill="#fff" d="M1000 2000c552.28 0 1000-447.72 1000-1000C2000 447.715 1552.28 0 1000 0 447.715 0 0 447.715 0 1000c0 552.28 447.715 1000 1000 1000"/></mask><g mask="url(#vgx_svg-c)"><path fill="url(#vgx_svg-d)" d="M1423 0h1066l1 2100-2116-13z"/></g><path stroke="#fff" stroke-width="51.947" d="m978 1668 1 2c4 10 11 14 25 14h1c14 0 21-4 25-14l1-2 558-1092h-244c-15 0-21 3-22 8l-1 3-318 620-318-619-1-2c-2-8-5-9-22-9H420z"/><path fill="#fff" d="M1174 550c-22 0-29 3-39 23l-241 473-241-473c-5-18-17-13-39-13H410c-10 0-20 11-18 18l462 907c7 16 20 25 40 25h1c20 0 34-8 40-25l463-912c3-7 3-12 0-16s-10-7-18-7z"/></g><defs><linearGradient id="vgx_svg-b" x1="0" x2="0" y1="418" y2="1800" gradientUnits="userSpaceOnUse"><stop stop-color="#5B62FE"/><stop offset="1" stop-color="#3831AB"/></linearGradient><linearGradient id="vgx_svg-d" x1="0" x2="0" y1="1010.85" y2="1004.08" gradientUnits="userSpaceOnUse"><stop stop-color="#1F1B55" stop-opacity=".98"/><stop offset="1" stop-color="#493ED1"/></linearGradient><clipPath id="vgx_svg-a"><path fill="#fff" d="M0 0h2000v2000H0z"/></clipPath></defs></svg>