<svg xmlns="http://www.w3.org/2000/svg" xmlns:xlink="http://www.w3.org/1999/xlink" id="vice_svg-Layer_2" data-name="Layer 2" viewBox="0 0 509.49 191.95"><defs><linearGradient id="vice_svg-linear-gradient" x1="86.71" x2="86.71" y1="194.93" y2="-2.07" gradientUnits="userSpaceOnUse"><stop offset=".13" stop-color="red"/><stop offset=".15" stop-color="#fc0002"/><stop offset=".37" stop-color="#de0020"/><stop offset=".49" stop-color="#d3002c"/><stop offset=".66" stop-color="#d50d65"/><stop offset=".81" stop-color="#d7168d"/><stop offset=".88" stop-color="#d81a9d"/></linearGradient><linearGradient xlink:href="#vice_svg-linear-gradient" id="vice_svg-linear-gradient-2" x1="182.37" x2="182.37" y1="194.93" y2="-2.07"/><linearGradient xlink:href="#vice_svg-linear-gradient" id="vice_svg-linear-gradient-3" x1="289.72" x2="289.72" y1="194.93" y2="-2.07"/><linearGradient xlink:href="#vice_svg-linear-gradient" id="vice_svg-linear-gradient-4" x1="422.92" x2="422.92" y1="194.93" y2="-2.07"/><linearGradient xlink:href="#vice_svg-linear-gradient" id="vice_svg-linear-gradient-5" x1="2.89" x2="170.54" y1="94.72" y2="94.72"/><linearGradient xlink:href="#vice_svg-linear-gradient" id="vice_svg-linear-gradient-6" x1="127.08" x2="237.65" y1="94.72" y2="94.72"/><linearGradient xlink:href="#vice_svg-linear-gradient" id="vice_svg-linear-gradient-7" x1="200.98" x2="378.46" y1="94.72" y2="94.72"/><linearGradient xlink:href="#vice_svg-linear-gradient" id="vice_svg-linear-gradient-8" x1="341.54" x2="504.3" y1="94.72" y2="94.72"/><linearGradient id="vice_svg-linear-gradient-9" x1="314.4" x2="314.4" y1="181.71" y2="8.58" gradientUnits="userSpaceOnUse"><stop offset=".12" stop-color="#ffab64"/><stop offset=".92" stop-color="#ff249f"/></linearGradient><linearGradient xlink:href="#vice_svg-linear-gradient-9" id="vice_svg-linear-gradient-10" x1="2.89" x2="170.54" y1="94.72" y2="94.72"/><linearGradient xlink:href="#vice_svg-linear-gradient-9" id="vice_svg-linear-gradient-11" x1="127.08" x2="237.65" y1="94.72" y2="94.72"/><linearGradient xlink:href="#vice_svg-linear-gradient-9" id="vice_svg-linear-gradient-12" x1="200.98" x2="378.46" y1="94.72" y2="94.72"/><linearGradient xlink:href="#vice_svg-linear-gradient-9" id="vice_svg-linear-gradient-13" x1="341.54" x2="504.3" y1="94.72" y2="94.72"/><clipPath id="vice_svg-clippath"><path d="M119.63 2.66 95.71 58.2l-24.42 59.92H70l7.46-59.92 5.91-55.54H18.06L2.89 186.77h84.08L170.54 2.66z" class="vice_svg-vice-cls-2"/></clipPath><clipPath id="vice_svg-clippath-1"><path d="m176.45 2.66-49.37 184.11h61.2L237.65 2.66z" class="vice_svg-vice-cls-2"/></clipPath><clipPath id="vice_svg-clippath-2"><path d="m297.05 106.29-10.03 37.54c-.86 3.26-2.31 5.53-4.37 6.81-2.06 1.29-4.63 1.93-7.71 1.93s-5.36-.68-6.81-2.06c-1.46-1.37-1.76-3.68-.9-6.94l26.23-98.23c.86-3.25 2.31-5.53 4.37-6.81 2.06-1.29 4.63-1.93 7.71-1.93 3.25 0 5.57.69 6.94 2.06s1.63 3.69.77 6.94l-10.03 37.54h58.37l15.94-59.4c1.54-6 1.16-11.01-1.16-15.04-2.31-4.03-6.13-6.04-11.44-6.04H263.87c-5.32 0-10.25 2.02-14.79 6.04-4.54 4.03-7.59 9.04-9.13 15.04l-38.06 141.94c-1.54 6-1.16 11.02 1.16 15.04 2.31 4.03 6.13 6.04 11.44 6.04h101.06c5.31 0 10.24-2.01 14.79-6.04 4.54-4.03 7.59-9.04 9.13-15.04l15.94-59.4h-58.37Z" class="vice_svg-vice-cls-2"/></clipPath><clipPath id="vice_svg-clippath-3"><path d="M493.76 42 504.3 2.66H390.91l-49.37 184.11h113.39l10.55-39.34h-52.72l9.77-36.77h45.52l10.28-38.06h-45.51l8.23-30.6z" class="vice_svg-vice-cls-2"/></clipPath><style>.vice_svg-vice-cls-2{fill:none}.vice_svg-vice-cls-8{fill:#000}.vice_svg-vice-cls-14{fill:url(#vice_svg-linear-gradient-9)}</style></defs><g id="vice_svg-Layer_1-2" data-name="Layer 1"><path d="M88.69 189.43H0L15.61 0h70.72L80.1 58.48l-5.55 44.58 18.7-45.86L117.87 0h56.79L88.68 189.43Zm-79.76-8.22h74.46L161.9 8.22h-38.61l-22.45 52.15-25.81 63.3H63.71l8.23-66.14 5.25-49.32H23.18L8.93 181.19Z" class="vice_svg-vice-cls-8"/><path d="M190.33 189.43h-66.71L174.41 0h66.7l-50.79 189.43Zm-55.99-8.22h49.68L230.4 8.22h-49.67L134.34 181.2Zm181.23 8.22H214.51c-6.31 0-10.94-2.48-13.75-7.38-2.66-4.63-3.14-10.36-1.42-17.03L237.4 23.06c1.67-6.47 5.01-11.98 9.93-16.34 5.02-4.45 10.59-6.71 16.55-6.71h101.05c6.22 0 10.98 2.55 13.75 7.38 2.66 4.63 3.14 10.36 1.43 17.03l-16.48 61.4h-63.88l10.92-40.89c.57-2.16.54-3.75-.08-4.38-.83-.82-2.62-1.28-5.06-1.28-2.57 0-4.69.51-6.3 1.52-1.46.91-2.54 2.67-3.21 5.23l-26.23 98.24c-.33 1.25-.75 3.47.15 4.31.93.88 2.65 1.34 5 1.34 2.57 0 4.69-.51 6.31-1.52 1.45-.91 2.53-2.67 3.21-5.24l10.56-39.52h63.89l-16.85 62.75c-1.66 6.47-5 11.98-9.93 16.35-5.02 4.45-10.59 6.71-16.55 6.71ZM263.88 8.22c-3.94 0-7.57 1.52-11.09 4.64-3.72 3.31-6.16 7.32-7.43 12.27l-38.07 141.99c-1.15 4.47-.95 8.12.6 10.83.92 1.61 2.43 3.25 6.62 3.25h101.06c3.94 0 7.57-1.52 11.09-4.64 3.68-3.26 6.18-7.39 7.43-12.26l14.08-52.45h-46.84l-8.92 33.42c-1.22 4.64-3.51 8.04-6.8 10.1-2.94 1.84-6.52 2.77-10.66 2.77-4.55 0-8.13-1.21-10.64-3.58-2.09-1.96-4.22-5.71-2.46-12.41l26.23-98.24c1.22-4.64 3.51-8.04 6.81-10.1 2.94-1.84 6.52-2.78 10.66-2.78 4.83 0 8.39 1.21 10.87 3.68 1.97 1.98 3.95 5.71 2.22 12.3l-8.16 30.56h46.85l14.84-55.28c1.14-4.47.94-8.12-.61-10.83-.92-1.61-2.43-3.25-6.62-3.25H263.89Zm193.09 181.21h-118.9L388.87 0h118.9L495.8 44.66h-52.71l-6.8 25.28h45.52l-11.72 43.38h-45.51l-8.36 31.45h52.72zm-108.18-8.22h101.87l7.56-28.21h-52.7l12.73-47.9h45.53l7.28-26.93h-45.5l11.21-41.73h52.71l7.56-28.21H395.17l-46.39 172.98Z" class="vice_svg-vice-cls-8"/><path d="M8.06 191.95 23.23 7.83h65.32l-5.91 55.54-7.46 59.91h1.29l24.43-59.91 23.9-55.54h50.92L92.15 191.95zm124.2 0L181.63 7.83h61.2l-49.37 184.12zm87.43 0c-5.32 0-9.13-2.01-11.44-6.04s-2.7-9.04-1.16-15.04l38.06-141.95c1.54-6 4.58-11.01 9.13-15.04 4.54-4.03 9.47-6.04 14.79-6.04h101.06c5.31 0 9.13 2.02 11.44 6.04 2.31 4.03 2.7 9.04 1.16 15.04l-15.94 59.4h-58.37l10.03-37.54c.86-3.25.6-5.57-.77-6.94s-3.69-2.06-6.94-2.06c-3.09 0-5.66.64-7.71 1.93-2.06 1.29-3.52 3.56-4.37 6.81l-26.23 98.23c-.86 3.26-.56 5.57.9 6.94 1.45 1.38 3.73 2.06 6.81 2.06s5.66-.64 7.71-1.93c2.06-1.29 3.51-3.56 4.37-6.81l10.03-37.54h58.37l-15.94 59.4c-1.54 6-4.59 11.02-9.13 15.04-4.54 4.03-9.47 6.04-14.79 6.04H219.7Zm127.03 0L396.09 7.83h113.4l-10.54 39.34h-52.71l-8.23 30.6h45.51l-10.28 38.06h-45.51l-9.77 36.77h52.71l-10.54 39.34h-113.4Z" style="fill:#0f0f0f"/><path d="M2.89 186.77 18.06 2.66h65.31L77.46 58.2 70 118.11h1.29L95.72 58.2l23.91-55.54h50.91L86.97 186.77z" style="fill:url(#vice_svg-linear-gradient)"/><path d="M127.08 186.77 176.45 2.66h61.2l-49.37 184.11z" style="fill:url(#vice_svg-linear-gradient-2)"/><path d="M214.51 186.77c-5.32 0-9.13-2.01-11.44-6.04s-2.7-9.04-1.16-15.04l38.06-141.94c1.54-6 4.58-11.01 9.13-15.04 4.54-4.03 9.47-6.04 14.79-6.04h101.06c5.31 0 9.13 2.02 11.44 6.04 2.31 4.03 2.7 9.04 1.16 15.04l-15.94 59.4h-58.37l10.03-37.54c.86-3.25.6-5.57-.77-6.94s-3.69-2.06-6.94-2.06c-3.09 0-5.66.64-7.71 1.93-2.06 1.29-3.52 3.56-4.37 6.81l-26.23 98.23c-.86 3.26-.56 5.57.9 6.94 1.45 1.38 3.73 2.06 6.81 2.06s5.66-.64 7.71-1.93c2.06-1.29 3.51-3.55 4.37-6.81l10.03-37.54h58.37l-15.94 59.4c-1.54 6-4.59 11.02-9.13 15.04-4.54 4.03-9.47 6.04-14.79 6.04H214.52Z" style="fill:url(#vice_svg-linear-gradient-3)"/><path d="M341.54 186.77 390.91 2.66h113.4L493.77 42h-52.71l-8.23 30.6h45.51l-10.28 38.06h-45.51l-9.77 36.77h52.71l-10.54 39.34h-113.4Z" style="fill:url(#vice_svg-linear-gradient-4)"/><path d="M166.03 5.56 85.1 183.86H6.04L20.73 5.56h59.41l-5.57 52.3-7.45 59.89-.41 3.26h6.53l.74-1.81L98.4 59.31l23.14-53.75zm4.51-2.9h-50.91L95.72 58.2l-24.43 59.91H70l7.46-59.91 5.91-55.54H18.06L2.89 186.77h84.08z" style="fill:url(#vice_svg-linear-gradient-5)"/><path d="m233.87 5.56-47.81 178.3h-55.18l47.8-178.3h55.18m3.79-2.9h-61.2l-49.37 184.11h61.2z" class="vice_svg-vice-vice-cls-17"/><path d="M364.94 5.56c4.29 0 7.13 1.46 8.92 4.58 1.91 3.33 2.2 7.66.87 12.84l-15.37 57.25H307l9.05-33.9c1.13-4.31.62-7.58-1.53-9.74-1.96-1.96-4.9-2.91-8.99-2.91-3.62 0-6.74.8-9.25 2.37-2.7 1.69-4.59 4.56-5.64 8.53l-26.23 98.24c-1.15 4.35-.57 7.65 1.71 9.79 2 1.89 4.97 2.85 8.81 2.85 3.62 0 6.74-.8 9.25-2.37 2.69-1.68 4.59-4.55 5.64-8.53l9.45-35.39h52.35l-14.97 55.77c-1.39 5.4-4.16 9.97-8.24 13.59-4.03 3.57-8.23 5.31-12.86 5.31H214.49c-4.29 0-7.13-1.46-8.92-4.59-1.91-3.33-2.2-7.66-.87-12.84l38.08-141.94c1.41-5.48 4.11-9.92 8.24-13.59 4.03-3.57 8.24-5.31 12.86-5.31h101.06m0-2.91H263.88c-5.32 0-10.25 2.02-14.79 6.04-4.54 4.03-7.59 9.04-9.13 15.04L201.9 165.68c-1.54 6-1.16 11.02 1.16 15.04 2.31 4.03 6.13 6.04 11.44 6.04h101.06c5.31 0 10.24-2.01 14.79-6.04 4.54-4.03 7.59-9.04 9.13-15.04l15.94-59.4h-58.37l-10.03 37.54c-.86 3.26-2.31 5.53-4.37 6.81-2.06 1.29-4.63 1.93-7.71 1.93s-5.36-.68-6.81-2.06c-1.46-1.37-1.76-3.68-.9-6.94l26.23-98.23c.86-3.25 2.31-5.53 4.37-6.81 2.06-1.29 4.63-1.93 7.71-1.93 3.25 0 5.57.69 6.94 2.06s1.63 3.69.77 6.94l-10.03 37.54h58.37l15.94-59.4c1.54-6 1.16-11.01-1.16-15.04-2.31-4.03-6.13-6.04-11.44-6.04Z" style="fill:url(#vice_svg-linear-gradient-7)"/><path d="m500.52 5.56-8.99 33.53h-52.71l-.58 2.15-8.23 30.6-.98 3.66h45.51l-8.71 32.25h-45.52l-.57 2.16-9.77 36.77-.97 3.65h52.71l-8.99 33.53H345.34l47.79-178.3h107.38m3.79-2.9H390.9l-49.37 184.11h113.4l10.54-39.34h-52.71l9.77-36.77h45.51l10.28-38.06h-45.51l8.23-30.6h52.71l10.54-39.34Z" style="fill:url(#vice_svg-linear-gradient-8)"/><path d="M762.52 4.6v2.15h-896.24V4.6zm-896.24 4.88h896.24V7.33h-896.24zm0 5.16h896.24v-2.15h-896.24zm0 2.73h896.24v-2.15h-896.24zm0 5.16h896.24v-2.15h-896.24zm0 2.73h896.24v-2.15h-896.24zm0 5.16h896.24v-2.15h-896.24zm0 2.73h896.24V31h-896.24zm0 5.16h896.24v-2.15h-896.24zm0 2.73h896.24v-2.15h-896.24zm0 5.16h896.24v-2.15h-896.24zm0 2.73h896.24v-2.15h-896.24zm0 5.16h896.24v-2.15h-896.24zm0 2.73h896.24v-2.15h-896.24zm0 5.16h896.24v-2.15h-896.24zm0 2.73h896.24v-2.15h-896.24zm0 5.16h896.24v-2.15h-896.24zm0 2.73h896.24v-2.15h-896.24zm0 5.16h896.24v-2.15h-896.24zm0 2.74h896.24v-2.15h-896.24zm0 5.15h896.24V83.5h-896.24zm0 2.73h896.24v-2.15h-896.24zm0 5.16h896.24v-2.15h-896.24zm0 2.74h896.24v-2.15h-896.24zm0 5.15h896.24v-2.15h-896.24zm0 2.74h896.24v-2.15h-896.24zm0 5.15h896.24v-2.15h-896.24zm0 2.74h896.24v-2.15h-896.24zm0 5.15h896.24v-2.15h-896.24zm0 2.74h896.24v-2.15h-896.24zm0 5.15h896.24v-2.15h-896.24zm0 2.74h896.24v-2.15h-896.24zm0 5.15h896.24v-2.15h-896.24zm0 2.74h896.24v-2.15h-896.24zm0 5.15h896.24v-2.15h-896.24zm0 2.74h896.24v-2.15h-896.24zm0 5.16h896.24v-2.15h-896.24zm0 2.73h896.24v-2.15h-896.24zm0 5.16h896.24v-2.15h-896.24zm0 2.73h896.24v-2.15h-896.24zm0 5.16h896.24v-2.15h-896.24zm0 2.73h896.24v-2.15h-896.24zm0 5.16h896.24v-2.15h-896.24zm0 2.73h896.24v-2.15h-896.24zm0 5.16h896.24v-2.15h-896.24zm0 2.73h896.24v-2.15h-896.24z" class="vice_svg-vice-cls-14" style="clip-path:url(#vice_svg-clippath)"/><path d="M762.52 4.6v2.15h-896.24V4.6zm-896.24 4.88h896.24V7.33h-896.24zm0 5.16h896.24v-2.15h-896.24zm0 2.73h896.24v-2.15h-896.24zm0 5.16h896.24v-2.15h-896.24zm0 2.73h896.24v-2.15h-896.24zm0 5.16h896.24v-2.15h-896.24zm0 2.73h896.24V31h-896.24zm0 5.16h896.24v-2.15h-896.24zm0 2.73h896.24v-2.15h-896.24zm0 5.16h896.24v-2.15h-896.24zm0 2.73h896.24v-2.15h-896.24zm0 5.16h896.24v-2.15h-896.24zm0 2.73h896.24v-2.15h-896.24zm0 5.16h896.24v-2.15h-896.24zm0 2.73h896.24v-2.15h-896.24zm0 5.16h896.24v-2.15h-896.24zm0 2.73h896.24v-2.15h-896.24zm0 5.16h896.24v-2.15h-896.24zm0 2.74h896.24v-2.15h-896.24zm0 5.15h896.24V83.5h-896.24zm0 2.73h896.24v-2.15h-896.24zm0 5.16h896.24v-2.15h-896.24zm0 2.74h896.24v-2.15h-896.24zm0 5.15h896.24v-2.15h-896.24zm0 2.74h896.24v-2.15h-896.24zm0 5.15h896.24v-2.15h-896.24zm0 2.74h896.24v-2.15h-896.24zm0 5.15h896.24v-2.15h-896.24zm0 2.74h896.24v-2.15h-896.24zm0 5.15h896.24v-2.15h-896.24zm0 2.74h896.24v-2.15h-896.24zm0 5.15h896.24v-2.15h-896.24zm0 2.74h896.24v-2.15h-896.24zm0 5.15h896.24v-2.15h-896.24zm0 2.74h896.24v-2.15h-896.24zm0 5.16h896.24v-2.15h-896.24zm0 2.73h896.24v-2.15h-896.24zm0 5.16h896.24v-2.15h-896.24zm0 2.73h896.24v-2.15h-896.24zm0 5.16h896.24v-2.15h-896.24zm0 2.73h896.24v-2.15h-896.24zm0 5.16h896.24v-2.15h-896.24zm0 2.73h896.24v-2.15h-896.24zm0 5.16h896.24v-2.15h-896.24zm0 2.73h896.24v-2.15h-896.24z" class="vice_svg-vice-cls-14" style="clip-path:url(#vice_svg-clippath-1)"/><path d="M762.52 4.6v2.15h-896.24V4.6zm-896.24 4.88h896.24V7.33h-896.24zm0 5.16h896.24v-2.15h-896.24zm0 2.73h896.24v-2.15h-896.24zm0 5.16h896.24v-2.15h-896.24zm0 2.73h896.24v-2.15h-896.24zm0 5.16h896.24v-2.15h-896.24zm0 2.73h896.24V31h-896.24zm0 5.16h896.24v-2.15h-896.24zm0 2.73h896.24v-2.15h-896.24zm0 5.16h896.24v-2.15h-896.24zm0 2.73h896.24v-2.15h-896.24zm0 5.16h896.24v-2.15h-896.24zm0 2.73h896.24v-2.15h-896.24zm0 5.16h896.24v-2.15h-896.24zm0 2.73h896.24v-2.15h-896.24zm0 5.16h896.24v-2.15h-896.24zm0 2.73h896.24v-2.15h-896.24zm0 5.16h896.24v-2.15h-896.24zm0 2.74h896.24v-2.15h-896.24zm0 5.15h896.24V83.5h-896.24zm0 2.73h896.24v-2.15h-896.24zm0 5.16h896.24v-2.15h-896.24zm0 2.74h896.24v-2.15h-896.24zm0 5.15h896.24v-2.15h-896.24zm0 2.74h896.24v-2.15h-896.24zm0 5.15h896.24v-2.15h-896.24zm0 2.74h896.24v-2.15h-896.24zm0 5.15h896.24v-2.15h-896.24zm0 2.74h896.24v-2.15h-896.24zm0 5.15h896.24v-2.15h-896.24zm0 2.74h896.24v-2.15h-896.24zm0 5.15h896.24v-2.15h-896.24zm0 2.74h896.24v-2.15h-896.24zm0 5.15h896.24v-2.15h-896.24zm0 2.74h896.24v-2.15h-896.24zm0 5.16h896.24v-2.15h-896.24zm0 2.73h896.24v-2.15h-896.24zm0 5.16h896.24v-2.15h-896.24zm0 2.73h896.24v-2.15h-896.24zm0 5.16h896.24v-2.15h-896.24zm0 2.73h896.24v-2.15h-896.24zm0 5.16h896.24v-2.15h-896.24zm0 2.73h896.24v-2.15h-896.24zm0 5.16h896.24v-2.15h-896.24zm0 2.73h896.24v-2.15h-896.24z" class="vice_svg-vice-cls-14" style="clip-path:url(#vice_svg-clippath-2)"/><path d="M762.52 4.6v2.15h-896.24V4.6zm-896.24 4.88h896.24V7.33h-896.24zm0 5.16h896.24v-2.15h-896.24zm0 2.73h896.24v-2.15h-896.24zm0 5.16h896.24v-2.15h-896.24zm0 2.73h896.24v-2.15h-896.24zm0 5.16h896.24v-2.15h-896.24zm0 2.73h896.24V31h-896.24zm0 5.16h896.24v-2.15h-896.24zm0 2.73h896.24v-2.15h-896.24zm0 5.16h896.24v-2.15h-896.24zm0 2.73h896.24v-2.15h-896.24zm0 5.16h896.24v-2.15h-896.24zm0 2.73h896.24v-2.15h-896.24zm0 5.16h896.24v-2.15h-896.24zm0 2.73h896.24v-2.15h-896.24zm0 5.16h896.24v-2.15h-896.24zm0 2.73h896.24v-2.15h-896.24zm0 5.16h896.24v-2.15h-896.24zm0 2.74h896.24v-2.15h-896.24zm0 5.15h896.24V83.5h-896.24zm0 2.73h896.24v-2.15h-896.24zm0 5.16h896.24v-2.15h-896.24zm0 2.74h896.24v-2.15h-896.24zm0 5.15h896.24v-2.15h-896.24zm0 2.74h896.24v-2.15h-896.24zm0 5.15h896.24v-2.15h-896.24zm0 2.74h896.24v-2.15h-896.24zm0 5.15h896.24v-2.15h-896.24zm0 2.74h896.24v-2.15h-896.24zm0 5.15h896.24v-2.15h-896.24zm0 2.74h896.24v-2.15h-896.24zm0 5.15h896.24v-2.15h-896.24zm0 2.74h896.24v-2.15h-896.24zm0 5.15h896.24v-2.15h-896.24zm0 2.74h896.24v-2.15h-896.24zm0 5.16h896.24v-2.15h-896.24zm0 2.73h896.24v-2.15h-896.24zm0 5.16h896.24v-2.15h-896.24zm0 2.73h896.24v-2.15h-896.24zm0 5.16h896.24v-2.15h-896.24zm0 2.73h896.24v-2.15h-896.24zm0 5.16h896.24v-2.15h-896.24zm0 2.73h896.24v-2.15h-896.24zm0 5.16h896.24v-2.15h-896.24zm0 2.73h896.24v-2.15h-896.24z" class="vice_svg-vice-cls-14" style="clip-path:url(#vice_svg-clippath-3)"/><path d="M166.03 5.56 85.1 183.86H6.04L20.73 5.56h59.41l-5.57 52.3-7.45 59.89-.41 3.26h6.53l.74-1.81L98.4 59.31l23.14-53.75zm4.51-2.9h-50.91L95.72 58.2l-24.43 59.91H70l7.46-59.91 5.91-55.54H18.06L2.89 186.77h84.08z" style="fill:url(#vice_svg-linear-gradient-10)"/><path d="m233.87 5.56-47.81 178.3h-55.18l47.8-178.3h55.18m3.79-2.9h-61.2l-49.37 184.11h61.2z" style="fill:url(#vice_svg-linear-gradient-11)"/><path d="M364.94 5.56c4.29 0 7.13 1.46 8.92 4.58 1.91 3.33 2.2 7.66.87 12.84l-15.37 57.25H307l9.05-33.9c1.13-4.31.62-7.58-1.53-9.74-1.96-1.96-4.9-2.91-8.99-2.91-3.62 0-6.74.8-9.25 2.37-2.7 1.69-4.59 4.56-5.64 8.53l-26.23 98.24c-1.15 4.35-.57 7.65 1.71 9.79 2 1.89 4.97 2.85 8.81 2.85 3.62 0 6.74-.8 9.25-2.37 2.69-1.68 4.59-4.55 5.64-8.53l9.45-35.39h52.35l-14.97 55.77c-1.39 5.4-4.16 9.97-8.24 13.59-4.03 3.57-8.23 5.31-12.86 5.31H214.49c-4.29 0-7.13-1.46-8.92-4.59-1.91-3.33-2.2-7.66-.87-12.84l38.08-141.94c1.41-5.48 4.11-9.92 8.24-13.59 4.03-3.57 8.24-5.31 12.86-5.31h101.06m0-2.91H263.88c-5.32 0-10.25 2.02-14.79 6.04-4.54 4.03-7.59 9.04-9.13 15.04L201.9 165.68c-1.54 6-1.16 11.02 1.16 15.04 2.31 4.03 6.13 6.04 11.44 6.04h101.06c5.31 0 10.24-2.01 14.79-6.04 4.54-4.03 7.59-9.04 9.13-15.04l15.94-59.4h-58.37l-10.03 37.54c-.86 3.26-2.31 5.53-4.37 6.81-2.06 1.29-4.63 1.93-7.71 1.93s-5.36-.68-6.81-2.06c-1.46-1.37-1.76-3.68-.9-6.94l26.23-98.23c.86-3.25 2.31-5.53 4.37-6.81 2.06-1.29 4.63-1.93 7.71-1.93 3.25 0 5.57.69 6.94 2.06s1.63 3.69.77 6.94l-10.03 37.54h58.37l15.94-59.4c1.54-6 1.16-11.01-1.16-15.04-2.31-4.03-6.13-6.04-11.44-6.04Z" style="fill:url(#vice_svg-linear-gradient-12)"/><path d="m500.52 5.56-8.99 33.53h-52.71l-.58 2.15-8.23 30.6-.98 3.66h45.51l-8.71 32.25h-45.52l-.57 2.16-9.77 36.77-.97 3.65h52.71l-8.99 33.53H345.34l47.79-178.3h107.38m3.79-2.9H390.9l-49.37 184.11h113.4l10.54-39.34h-52.71l9.77-36.77h45.51l10.28-38.06h-45.51l8.23-30.6h52.71l10.54-39.34Z" style="fill:url(#vice_svg-linear-gradient-13)"/></g></svg>