<?xml version="1.0" encoding="UTF-8"?>
<!DOCTYPE svg PUBLIC "-//W3C//DTD SVG 1.1//EN" "http://www.w3.org/Graphics/SVG/1.1/DTD/svg11.dtd">
<svg xmlns="http://www.w3.org/2000/svg" version="1.1" width="200px" height="200px" style="shape-rendering:geometricPrecision; text-rendering:geometricPrecision; image-rendering:optimizeQuality; fill-rule:evenodd; clip-rule:evenodd" xmlns:xlink="http://www.w3.org/1999/xlink">
<g><path style="opacity:1" fill="#000000" d="M -0.5,-0.5 C 66.1667,-0.5 132.833,-0.5 199.5,-0.5C 199.5,66.1667 199.5,132.833 199.5,199.5C 132.833,199.5 66.1667,199.5 -0.5,199.5C -0.5,132.833 -0.5,66.1667 -0.5,-0.5 Z"/></g>
<g><path style="opacity:1" fill="#0f0f0f" d="M 19.5,19.5 C 72.8333,19.5 126.167,19.5 179.5,19.5C 179.5,72.8333 179.5,126.167 179.5,179.5C 126.167,179.5 72.8333,179.5 19.5,179.5C 19.5,126.167 19.5,72.8333 19.5,19.5 Z"/></g>
<g><path style="opacity:1" fill="#f3f3f3" d="M 67.5,43.5 C 71.8884,42.9433 75.0551,44.6099 77,48.5C 77.5,75.8313 77.6666,103.165 77.5,130.5C 83.0479,128.393 88.3813,125.726 93.5,122.5C 94.333,103.509 94.833,84.5088 95,65.5C 98.1676,61.4668 102.001,60.6335 106.5,63C 123.167,72.6667 139.833,82.3333 156.5,92C 158.663,95.3096 158.996,98.8096 157.5,102.5C 129.495,119.505 101.161,136.005 72.5,152C 68.4179,153.293 65.2513,152.126 63,148.5C 62.3333,114.833 62.3333,81.1667 63,47.5C 64.3968,45.9297 65.8968,44.5964 67.5,43.5 Z"/></g>
<g><path style="opacity:1" fill="#101010" d="M 109.5,83.5 C 118.553,87.5293 127.22,92.3626 135.5,98C 127.296,103.033 118.963,107.866 110.5,112.5C 109.502,102.856 109.168,93.1896 109.5,83.5 Z"/></g>
</svg>
