<?xml version="1.0" encoding="UTF-8"?>
<!DOCTYPE svg PUBLIC "-//W3C//DTD SVG 1.1//EN" "http://www.w3.org/Graphics/SVG/1.1/DTD/svg11.dtd">
<svg xmlns="http://www.w3.org/2000/svg" version="1.1" width="200px" height="200px" style="shape-rendering:geometricPrecision; text-rendering:geometricPrecision; image-rendering:optimizeQuality; fill-rule:evenodd; clip-rule:evenodd" xmlns:xlink="http://www.w3.org/1999/xlink">
<g><path style="opacity:0.995" fill="#e9204e" d="M 81.5,-0.5 C 93.5,-0.5 105.5,-0.5 117.5,-0.5C 147.051,6.39773 170.051,22.5644 186.5,48C 189.838,54.3416 192.838,60.8416 195.5,67.5C 196.195,72.5986 197.529,77.2652 199.5,81.5C 199.5,93.5 199.5,105.5 199.5,117.5C 192.605,147.023 176.438,170.023 151,186.5C 144.658,189.838 138.158,192.838 131.5,195.5C 126.401,196.195 121.735,197.529 117.5,199.5C 105.5,199.5 93.5,199.5 81.5,199.5C 51.977,192.605 28.977,176.438 12.5,151C 9.16153,144.658 6.16153,138.158 3.5,131.5C 2.80467,126.401 1.47133,121.735 -0.5,117.5C -0.5,105.5 -0.5,93.5 -0.5,81.5C 6.39517,51.977 22.5618,28.977 48,12.5C 54.3416,9.16153 60.8416,6.16153 67.5,3.5C 72.5986,2.80467 77.2652,1.47133 81.5,-0.5 Z"/></g>
<g><path style="opacity:1" fill="#f389a1" d="M 81.5,62.5 C 69.784,61.8556 58.4507,62.5223 47.5,64.5C 46.596,63.791 46.2627,62.791 46.5,61.5C 58.3453,61.1717 70.012,61.5051 81.5,62.5 Z"/></g>
<g><path style="opacity:1" fill="#fefefe" d="M 81.5,62.5 C 81.5168,65.8838 82.5168,68.8838 84.5,71.5C 92.3875,71.8467 100.054,72.8467 107.5,74.5C 107.371,76.2161 107.038,77.8828 106.5,79.5C 86.5,79.5 66.5,79.5 46.5,79.5C 45.1667,77.1667 43.8333,74.8333 42.5,72.5C 45.5,72.5 48.5,72.5 51.5,72.5C 51.7148,70.8212 51.0481,69.8212 49.5,69.5C 48.4975,67.9891 47.8308,66.3224 47.5,64.5C 58.4507,62.5223 69.784,61.8556 81.5,62.5 Z"/></g>
<g><path style="opacity:1" fill="#fefdfd" d="M 64.5,101.5 C 75.5,101.5 86.5,101.5 97.5,101.5C 98.7476,103.649 100.248,105.649 102,107.5C 108.832,92.8603 115.665,78.1936 122.5,63.5C 133.833,62.1667 145.167,62.1667 156.5,63.5C 147.627,81.9138 139.294,100.58 131.5,119.5C 128.331,125.58 125.164,131.58 122,137.5C 121.091,140.513 120.258,143.513 119.5,146.5C 107.814,146.832 96.1477,146.499 84.5,145.5C 77.5764,130.846 70.9098,116.179 64.5,101.5 Z"/></g>
<g><path style="opacity:1" fill="#f17a96" d="M 49.5,69.5 C 51.0481,69.8212 51.7148,70.8212 51.5,72.5C 48.5,72.5 45.5,72.5 42.5,72.5C 45.1589,72.0826 47.4922,71.0826 49.5,69.5 Z"/></g>
<g><path style="opacity:1" fill="#f38ba2" d="M 84.5,71.5 C 92.8333,71.5 101.167,71.5 109.5,71.5C 109.715,73.1788 109.048,74.1788 107.5,74.5C 100.054,72.8467 92.3875,71.8467 84.5,71.5 Z"/></g>
<g><path style="opacity:1" fill="#f8c5d0" d="M 46.5,79.5 C 66.5,79.5 86.5,79.5 106.5,79.5C 96.8564,80.8319 86.8564,81.4986 76.5,81.5C 66.1436,81.4986 56.1436,80.8319 46.5,79.5 Z"/></g>
<g><path style="opacity:1" fill="#fefdfd" d="M 47.5,87.5 C 65.6591,86.5032 83.9924,86.1698 102.5,86.5C 102.472,89.2514 101.472,91.5847 99.5,93.5C 83.5139,94.4994 67.5139,94.8328 51.5,94.5C 50.9026,91.6256 49.5693,89.2923 47.5,87.5 Z"/></g>
<g><path style="opacity:1" fill="#f5abbc" d="M 97.5,101.5 C 86.5,101.5 75.5,101.5 64.5,101.5C 69.6238,100.171 75.1238,99.5048 81,99.5C 86.8762,99.5048 92.3762,100.171 97.5,101.5 Z"/></g>
</svg>
