<svg xmlns="http://www.w3.org/2000/svg" width="336" height="336" fill="none" viewBox="0 0 336 336"><path fill="#000" d="M0 0h336v336H0z"/><g clip-path="url(#vrtx_svg-a)"><path fill="#CDADEF" d="M189.35 234.036a24.67 24.67 0 0 1-8.5 12.68 24.7 24.7 0 0 1-14.35 5.22h-34.75L61 104.006h70.66l35.34 74s25.79 43.87 22.35 56.03"/><path fill="url(#vrtx_svg-b)" d="M189.35 234.036c3.44-12.16-22.34-56-22.34-56h38.21z"/><path fill="#CDADEF" d="M205.221 178.036h69v-74h-27.56a24.7 24.7 0 0 0-14.56 4.76 24.67 24.67 0 0 0-8.94 12.45z"/></g><defs><linearGradient id="vrtx_svg-b" x1="187.23" x2="170.73" y1="174.116" y2="232.616" gradientUnits="userSpaceOnUse"><stop stop-color="#CDADEF"/><stop offset="1" stop-color="#8458B3"/></linearGradient><clipPath id="vrtx_svg-a"><path fill="#fff" d="M61 104.006h213.22v147.93H61z"/></clipPath></defs></svg>