<svg width="3264" height="600" viewBox="0 0 3264 600" fill="none" xmlns="http://www.w3.org/2000/svg">
<g clip-path="url(#clip0_20827_71574)">
<path d="M865.58 131.339L1038.13 598.733H1158.6L1331.14 131.339H1227.13L1100.25 492.824L971.522 131.339H865.58ZM1350.28 239.961C1331.11 276.493 1321.91 318.479 1321.91 366.044C1321.91 413.61 1331.05 455.503 1351.13 491.122C1370.31 526.722 1399.5 555.916 1435.1 575.092C1471.6 595.171 1513.62 604.314 1562.92 604.314C1618.58 604.314 1665.14 589.687 1702.59 558.67C1740 528.536 1762.82 489.323 1771.93 441.821H1673.34C1666.02 468.299 1652.34 488.379 1632.36 502.973C1611.33 517.567 1585.8 523.966 1555.67 523.966C1517.34 523.966 1486.32 512.114 1463.47 488.379C1439.73 464.644 1426.94 432.681 1425.14 391.609V386.124H1777.48C1779.3 373.735 1780.22 361.23 1780.22 348.708C1779.31 303.98 1769.29 264.706 1749.21 230.948C1729.77 198.101 1701.65 171.249 1667.95 153.342C1633.27 135.092 1594 125.949 1549.27 125.949C1504.54 125.949 1465.3 136.006 1430.59 156.085C1396.2 175.641 1368.25 204.784 1350.15 239.961H1350.28ZM1679.83 313.909H1428.77C1432.42 281.064 1445.22 255.502 1468.95 235.423C1492.27 215.359 1522.18 204.624 1552.93 205.287C1587.6 205.287 1615.97 215.313 1638.73 234.509C1661.48 253.705 1675.13 280.15 1679.7 313.909H1679.83ZM2081.75 131.339H2059.69C2023.19 131.339 1994.88 137.644 1973.89 150.504C1952.33 162.654 1934.38 180.296 1921.85 201.634L1910.91 131.339H1823.25V598.859H1921.85V364.25C1921.85 324.092 1930.99 290.301 1949.24 263.823C1967.49 237.345 1996.71 223.664 2037.78 223.664H2081.6L2081.75 131.339ZM2123.61 0.810547V471.831C2123.61 515.645 2133.65 547.597 2153.72 567.686C2173.8 588.679 2205.76 598.733 2250.49 598.733H2345.43V512.02H2270.56C2252.31 512.02 2240.46 508.362 2233.15 501.049C2225.84 493.736 2222.18 480.055 2222.18 461.805V218.056H2335.37V131.339H2222.18V0.810547H2123.61ZM2382.59 239.961C2363.46 276.493 2354.22 318.479 2354.22 366.044C2354.22 413.61 2363.36 455.503 2383.44 491.122C2402.62 526.722 2431.81 555.916 2467.41 575.092C2503.91 595.171 2545.9 604.314 2595.2 604.314C2650.9 604.314 2697.45 589.687 2734.87 558.67C2772.32 528.536 2795.14 489.323 2804.21 441.821H2705.65C2698.34 468.299 2684.66 488.379 2664.67 502.973C2643.71 517.567 2618.11 523.966 2588.01 523.966C2549.68 523.966 2518.67 512.114 2495.81 488.379C2472.05 464.644 2459.28 432.681 2457.48 391.609V386.124H2809.86C2811.65 373.733 2812.56 361.228 2812.57 348.708C2811.65 303.98 2801.6 264.706 2781.52 230.948C2762.05 198.043 2733.88 171.153 2700.1 153.247C2665.43 134.996 2626.15 125.857 2581.42 125.857C2536.7 125.857 2497.45 135.911 2462.75 155.99C2428.41 175.608 2400.52 204.78 2382.46 239.961H2382.59ZM2712.14 313.909H2461.11C2464.76 281.064 2477.56 255.502 2501.27 235.423C2524.59 215.365 2554.51 204.631 2585.27 205.287C2619.94 205.287 2648.31 215.313 2671.1 234.509C2693.89 253.705 2707.44 280.15 2712.02 313.909H2712.14ZM2968.53 359.552L2793.24 598.733H2900.04L3024.2 428.929L3147.45 598.733H3262.47L3086.26 359.552L3252.41 131.339H3144.55L3030.44 289.261L2918.13 131.339H2803.11L2968.53 359.552Z" fill="#181719"/>
<g clip-path="url(#clip1_20827_71574)">
<path d="M403.194 534.125C398.728 549.891 389.38 563.836 376.492 573.957C363.576 584.049 347.795 589.79 331.413 590.355H222.251L0 125.654H221.969L332.984 358.114C332.984 358.114 414 495.926 403.194 534.125Z" fill="#CDADEF"/>
<path d="M403.193 534.125C413.999 495.926 333.015 358.208 333.015 358.208H453.046L403.193 534.125Z" fill="url(#paint0_linear_20827_71574)"/>
<path d="M453.048 358.208H669.802V125.748H583.226C566.78 125.757 550.763 130.993 537.488 140.701C524.211 150.425 514.375 164.123 509.404 179.811L453.048 358.208Z" fill="#CDADEF"/>
</g>
</g>
<defs>
<linearGradient id="paint0_linear_20827_71574" x1="396.533" y1="345.894" x2="344.7" y2="529.664" gradientUnits="userSpaceOnUse">
<stop stop-color="#CDADEF"/>
<stop offset="1" stop-color="#8458B3"/>
</linearGradient>
<clipPath id="clip0_20827_71574">
<rect width="3263.87" height="600" fill="white"/>
</clipPath>
<clipPath id="clip1_20827_71574">
<rect width="669.801" height="464.701" fill="white" transform="translate(0 125.654)"/>
</clipPath>
</defs>
</svg>
