<svg xmlns="http://www.w3.org/2000/svg" width="256" height="256"><path fill="#FCCF40" d="M141 6c11.846 7.322 22.59 7.229 36.275 6.834 7.849-.128 12.547.555 19.225 4.729 2.362 2.302 3.886 4.445 5.688 7.187 4.349 6.425 9.989 10.52 16.242 14.984 9.45 6.937 12.656 13.411 14.824 24.852 1.948 8.915 6.823 14.908 12.714 21.576 7.183 8.25 10.834 16.974 10.598 27.97-.547 7.322-3.284 14.252-5.72 21.122-2.76 7.858-3.675 13.49-1.346 21.621 3.054 12.607 3.03 25.971-3.375 37.5-4.221 5.215-8.517 7.37-14.723 9.598-2.468 1.055-4.275 2.412-6.402 4.027h-2l-.77 1.95c-9.15 22.688-9.15 22.688-16.23 29.05l-1.57 1.586c-9.333 8.882-22.8 13.266-35.43 14.414l-2.05.195c-6.566.331-12.5-1.09-18.797-2.772-7.008-1.827-12.554-1.902-19.465.577-8.009 2.556-14.071 3.536-21.813-.187a148 148 0 0 1-11.086-6.797c-3.324-1.888-6.582-2.138-10.352-2.192-17.285-.411-30.732-3.41-43.75-15.637-5.157-5.423-10.592-12.61-10.874-20.25-1.18-10.181-8.976-16.29-16.255-22.713-6.702-5.979-13.735-13.22-14.83-22.543-.133-2.673-.143-5.317-.103-7.994l.024-2.912c.197-10.067.759-21.05 4.96-30.33 2.677-6.801 1.516-14.557 1.254-21.735C5.396 85.827 7.793 74.75 17 64c5.312-5.439 11.347-10.287 18-14h2l.828-1.715c1.209-2.356 2.538-4.59 3.922-6.847 2.221-3.638 4.207-7.32 6.125-11.126 3.229-5.905 6.96-10.959 13.578-13.109 1.61-.326 3.23-.604 4.86-.816 6.983-1.005 12.81-3.194 19.124-6.2C103.255 1.975 123.308-5.514 141 6"/><path fill="#FEC435" d="M141 6c11.846 7.322 22.59 7.229 36.275 6.834 7.849-.128 12.547.555 19.225 4.729 2.362 2.302 3.886 4.445 5.688 7.187 4.349 6.425 9.989 10.52 16.242 14.984 9.45 6.937 12.656 13.411 14.824 24.852 1.948 8.915 6.823 14.908 12.714 21.576 7.183 8.25 10.834 16.974 10.598 27.97-.547 7.322-3.284 14.252-5.72 21.122-2.76 7.858-3.675 13.49-1.346 21.621 3.054 12.607 3.03 25.971-3.375 37.5-4.221 5.215-8.517 7.37-14.723 9.598-2.468 1.055-4.275 2.412-6.402 4.027h-2l-.77 1.95c-9.15 22.688-9.15 22.688-16.23 29.05l-1.57 1.586c-9.333 8.882-22.8 13.266-35.43 14.414l-2.05.195c-6.566.331-12.5-1.09-18.797-2.772-7.008-1.827-12.554-1.902-19.465.577-8.009 2.556-14.071 3.536-21.813-.187a148 148 0 0 1-11.086-6.797c-3.324-1.888-6.582-2.138-10.352-2.192-17.285-.411-30.732-3.41-43.75-15.637-5.157-5.423-10.592-12.61-10.874-20.25-1.18-10.181-8.976-16.29-16.255-22.713-6.702-5.979-13.735-13.22-14.83-22.543-.133-2.673-.143-5.317-.103-7.994l.024-2.912c.197-10.067.759-21.05 4.96-30.33 2.677-6.801 1.516-14.557 1.254-21.735C5.396 85.827 7.793 74.75 17 64c5.312-5.439 11.347-10.287 18-14h2l.828-1.715c1.209-2.356 2.538-4.59 3.922-6.847 2.221-3.638 4.207-7.32 6.125-11.126 3.229-5.905 6.96-10.959 13.578-13.109 1.61-.326 3.23-.604 4.86-.816 6.983-1.005 12.81-3.194 19.124-6.2C103.255 1.975 123.308-5.514 141 6M50 59c-4.998 5.602-9.177 11.549-13 18l-2-2c-6.054 11.001-10.098 21.9-13.402 34.003C21 111 21 111 19.852 113.563c-1.24 3.55-1.141 7.036-1.102 10.75l-.023 2.185c.015 4.412.576 8.3 1.752 12.548.846 3.173 1.34 6.407 1.896 9.642C25.735 166.83 32.776 185.593 46 199c2.684 2.068 2.684 2.068 4.938 2.375 2.792.846 4.136 2.492 6.062 4.625l2-1-1.582-1.441c-13.86-13.18-29.95-34.934-30.512-54.891L27 146h3l.516 1.582c10.281 31.228 25.195 55.296 55.297 71.168 22.905 11.03 50.946 13.516 75.187 5.25 14.686-5.212 26.735-13.233 38-24l2.047-1.82c13.33-12.317 21.17-29.695 25.933-46.922C228 149 228 149 230.05 148.118L232 147c5.385-28.757.785-53.144-15.062-77.437A418 418 0 0 0 213 64l-1.777-2.527c-4.117-5.61-8.743-10.29-15.067-13.371-2.363-1.208-4.521-2.643-6.722-4.123C143.924 13.572 88.36 20.586 50 59"/><path fill="#FBBF17" d="M121.36 24.922c26.551-.783 51.902 5.078 72.667 22.66 1.836 1.523 1.836 1.523 3.852 1.805 12.195 3.526 21.08 22.92 26.77 33.164C227.35 87.569 229.502 92.493 231 98l.926 2.79c3.57 12.679 1.988 26.225 1.074 39.21l-.13 2.333c-.167 1.89-.167 1.89-.87 4.667a357 357 0 0 1-4 2 74 74 0 0 0-2.75 7.625c-8.662 26.261-25.532 48.865-50.526 61.528-22.706 10.872-50.484 14.693-74.806 6.532C74.432 215.588 51.939 197.699 40 173c-7.977-18.226-7.977-18.226-10-27h-3c.099 21.011 14.911 42.012 29.188 56.375L59 205h-3l-1.875-1.937c-1.934-2.263-1.934-2.263-4.55-2.493-4.692-1.039-6.87-4.812-9.575-8.57-10.555-16.768-16.608-33.528-19.387-53.105-.377-3.675-.377-3.675-1.613-5.895-.91-11.145.343-20.542 4.247-30.985a318 318 0 0 0 2.245-6.257C28.075 88.502 30.888 81.55 35 75l2 2 1.328-2.168C54.391 49.595 78.714 32.682 108 26c4.453-.812 8.845-.929 13.36-1.078m-56.89 48.73C49.649 90.528 44.159 111.907 45 134c1.764 21.743 12.491 41.35 28.25 56.188C92.53 206.55 115.24 211.968 140 210c5.525-.707 10.751-2.137 16-4l2.022-.715C168.368 201.48 176.696 196.2 185 189l2.043-1.738c13.066-12.05 23.091-31.522 24.134-49.275C211.664 112.777 208.663 91.2 191 72l-2.234-2.512c-15.004-16.008-35.005-24.383-56.723-25.734-27.647-.484-48.946 10.379-67.574 29.898"/><path fill="#C79315" d="M121.36 24.922c26.551-.783 51.902 5.078 72.667 22.66 1.836 1.523 1.836 1.523 3.852 1.805 12.195 3.526 21.08 22.92 26.77 33.164C227.35 87.569 229.502 92.493 231 98l.926 2.79c3.57 12.679 1.988 26.225 1.074 39.21l-.13 2.333c-.167 1.89-.167 1.89-.87 4.667a357 357 0 0 1-4 2 74 74 0 0 0-2.75 7.625c-8.662 26.261-25.532 48.865-50.526 61.528-22.706 10.872-50.484 14.693-74.806 6.532C74.432 215.588 51.939 197.699 40 173c-7.977-18.226-7.977-18.226-10-27h-3c.099 21.011 14.911 42.012 29.188 56.375L59 205h-3l-1.875-1.937c-1.934-2.263-1.934-2.263-4.55-2.493-4.692-1.039-6.87-4.812-9.575-8.57-10.555-16.768-16.608-33.528-19.387-53.105-.377-3.675-.377-3.675-1.613-5.895-.91-11.145.343-20.542 4.247-30.985a318 318 0 0 0 2.245-6.257C28.075 88.502 30.888 81.55 35 75l2 2 1.328-2.168C54.391 49.595 78.714 32.682 108 26c4.453-.812 8.845-.929 13.36-1.078M106 33l-3.25.813c-6.487 1.801-11.891 4.153-17.535 7.812-1.991 1.236-3.844 2.111-6.027 2.938C75.546 46.205 73.778 48.145 71 51a680 680 0 0 1-4.3 3.891C48.154 71.546 35.762 92.821 33 118c-.165 4.313-.185 8.621-.187 12.938l-.038 3.458c-.01 6.26.425 11.61 2.225 17.604q.364 1.996.688 4c5.133 22.904 22.055 43.68 41.5 56.125 22.366 13.269 50.396 18.427 76 12.313 25.706-6.818 47.517-23.29 61.03-46.215 8.192-14.82 13.206-30.856 13.032-47.848l-.018-2.892C227.047 114.096 226.48 99.532 219 88l-3-7c-1.833-3.437-2.712-4.808-6-7a623 623 0 0 1-2.076-5.124c-1.611-3.27-4.122-5.572-6.736-8.064l-1.542-1.537C196.337 56.041 192.858 53.57 189 51l-2.465-2.504c-15.021-14.79-39.943-17.72-59.884-17.677-7.062.066-13.782.424-20.651 2.181"/><path fill="#FDBB08" d="M141 6c11.846 7.322 22.59 7.229 36.275 6.834 7.849-.128 12.547.555 19.225 4.729 2.362 2.302 3.886 4.445 5.688 7.187 4.349 6.425 9.989 10.52 16.242 14.984 9.45 6.937 12.656 13.411 14.824 24.852 1.948 8.915 6.823 14.908 12.714 21.576 7.183 8.25 10.834 16.974 10.598 27.97-.547 7.322-3.284 14.252-5.72 21.122-2.76 7.858-3.675 13.49-1.346 21.621 3.054 12.607 3.03 25.971-3.375 37.5-3.495 4.317-6.72 6.553-11.875 8.5-6.512 2.508-13.179 5.374-16.562 11.813-.988 2.31-1.798 4.64-2.598 7.023-3.746 11.07-8.867 15.787-19.09 21.289l-3.437 1.938C190 246 190 246 187 245q1.871-1.443 3.75-2.875l2.11-1.617C195 239 195 239 197.14 238.055c2.383-1.351 2.826-2.55 3.86-5.055q1.752-3.506 3.512-7.008a526 526 0 0 0 3.195-6.547l.9-1.854a1314 1314 0 0 0 2.55-5.294c5.657-10.116 13.544-14.034 24.109-17.988 4.366-2.09 6.841-4.892 8.734-9.309l2 2c1.72-5.231 2.352-9.818 2.313-15.312l-.004-2.268c-.089-5.095-.927-9.356-2.625-14.174-2.714-8.916.278-18.17 4.316-26.246-3.348 5.245-4.945 9.879-6 16h-2c-.854-7.972 1.567-13.967 4.492-21.23 2.181-5.418 3.741-10.272 4.133-16.145l.227-3.21L251 102l2 3c0-8.23-7.727-16.056-13.074-21.777-5.667-6.54-9.648-13.925-10.238-22.598-.831-7.885-4.98-12.256-10.938-17.187-2.69-2.12-5.397-4.186-8.184-6.176-5.454-3.96-8.839-8.249-12.644-13.797-2.636-3.381-5.032-4.753-8.922-6.465l-2-1c-2.446-.108-4.87-.161-7.316-.176l-4.506-.072a782 782 0 0 0-7.083-.078C151.31 15.56 151.31 15.56 144 11l-3.18-1.887-2.695-1.8c-8-5.322-15.817-5.1-25.187-3.75-12.34 2.524-24.112 7.985-35.493 13.23-4.552 2.02-8.356 2.665-13.27 2.863-4.964.785-8.57 4.284-11.57 8.133-1.85 2.856-3.407 5.825-4.96 8.852-5.12 9.828-10.552 16.469-20.262 21.918-8.117 4.91-14.44 13.74-17.472 22.638-.963 4.02-1.079 7.377-.966 11.502l.075 4.416q.072 3.42.172 6.838c.243 8.824.008 16.093-3.226 24.457-1.358 3.64-1.855 7.178-2.216 11.028l-.23 2.154C2.882 148.06 2.797 154.505 3 161h2l.926 2.02c3.497 7.044 7.718 11.82 13.387 17.218 4.032 4.144 6.873 8.74 9.687 13.762l1.277 2.152c1.945 3.495 2.874 6.221 3.098 10.223.77 9.768 8.765 18.218 15.625 24.625 5.831 4.355 12.008 7.075 19 9l-2.21-.875C53.408 234.131 42.01 226.4 36 214v-3l3 1v2h2l1.125 2.063C46.975 223.66 53.668 227.196 62 230l2.215.871c4.322 1.633 8.166 2.31 12.785 2.566 5.692.336 10.017 1.858 15 4.563v2l2.188.688C97 242 97 242 99.188 244.313c4.808 4.595 10.602 7.938 17.374 8.187 4.037-.235 7.58-1.363 11.352-2.766 2.654-.934 5.3-1.377 8.086-1.734-5.573.568-5.573.568-10.937 2.063-3.974 1.216-7.943 1.667-12.063.937-1.77-1.52-1.77-1.52-3-3l1.836-.227c5.114-.802 8.707-1.925 12.977-4.898 5.93-3.808 11.327-3.744 18.187-2.875 2.473.582 4.823 1.316 7.227 2.137 10.942 3.406 22.383 4.388 33.773 4.863-2.222 2.222-4.085 2.926-7 4 6.605-1.762 12.619-4.079 18.75-7.11L198 243l2 1c-11.69 8.173-26.68 12.655-41 11-3.645-.74-7.255-1.618-10.848-2.577-7.007-1.828-12.554-1.902-19.464.577-8.009 2.556-14.071 3.536-21.813-.187a148 148 0 0 1-11.086-6.797c-3.324-1.888-6.582-2.138-10.352-2.192-17.285-.411-30.732-3.41-43.75-15.637-5.157-5.423-10.592-12.61-10.874-20.25-1.18-10.181-8.976-16.29-16.255-22.713-6.702-5.979-13.735-13.22-14.83-22.543-.133-2.673-.143-5.317-.103-7.994l.024-2.912c.197-10.067.759-21.05 4.96-30.33 2.677-6.801 1.516-14.557 1.254-21.735C5.396 85.827 7.793 74.75 17 64c5.312-5.439 11.347-10.287 18-14h2l.828-1.715c1.209-2.356 2.538-4.59 3.922-6.847 2.221-3.638 4.207-7.32 6.125-11.126 3.229-5.905 6.96-10.959 13.578-13.109 1.61-.326 3.23-.604 4.86-.816 6.983-1.005 12.81-3.194 19.124-6.2C103.255 1.975 123.308-5.514 141 6"/><path fill="#FBE191" d="M233 112c2.909 4.961 2.34 10.02 2.313 15.625l-.013 3.385c-.188 13.912-1.213 28.995-9.23 40.842-2.084 3.17-3.658 6.336-5.257 9.773-3.465 7.13-7.753 13.258-12.813 19.375l-2.492 3.063c-6.78 8.026-14.542 13.56-23.508 18.937l-3.145 1.965c-23.903 14.023-54.25 15.608-80.683 8.91L95 233v-2l-3.375-.203c-5.442-.693-9.831-2.985-14.625-5.547l-2.774-1.472c-26.25-14.412-42.605-37.277-52.413-65.153C20.655 153.459 20.329 148.276 20 143l2 1a171 171 0 0 1 1.688 8.063C25.589 161.36 28.796 169.523 33 178l1.504 3.09c5.742 11.537 5.742 11.537 15.496 19l3 .91c2.375 1.625 2.375 1.625 4 3l-1.363-1.223c-13.846-13.069-28.054-33.81-29.871-53.289-.016-2.238-.016-2.238.234-5.488l2 2 2-3 .563 1.646C38.013 166.343 45.613 184.613 62 201l1.984 1.984c20.2 18.818 45.35 25.076 72.246 24.395 24.546-1.088 45.117-11.53 62.77-28.379l1.824-1.598c13.002-11.85 20.557-29.514 25.156-46.144C227 149 227 149 229.05 148.118L231 147c.88-4.594 1.166-9.14 1.316-13.809l.127-3.76.12-3.869.13-3.95q.159-4.806.307-9.612"/><path fill="#895A02" d="m109 121 16-.25 5-.11c15.28-.199 15.28-.199 21.5 5.808 5.274 5.95 5.952 10.501 5.813 18.286-.576 6.01-2.771 10.136-7.25 14.141-5.727 3.973-10.105 4.396-16.875 4.25L125 163v21h-16z"/><path fill="#FDC334" d="M113 4c-3.256 2.77-6.388 3.945-10.437 5.25-5.044 1.728-9.472 3.669-14.126 6.313C80.318 20.103 71.464 23.88 62 23l1 3a89 89 0 0 1-3 4 121 121 0 0 0-2.5 5.813l-1.293 3.19L55 42a953 953 0 0 1-3 7l1.117-1.145c9.517-9.03 21.664-15.688 33.57-21.042l1.922-.883C92.87 24.112 96.398 23.734 101 24c-2.712 2.712-5.892 3.508-9.437 4.75-26.543 9.672-47.686 29.291-60.215 54.586-3.506 7.795-5.994 15.726-8.27 23.95C22 111 22 111 20.875 113.475c-1.244 3.59-1.165 7.085-1.125 10.837l-.023 2.185c.018 5.145.957 9.537 2.273 14.502-.375 2.688-.375 2.688-1 5a99 99 0 0 0 0 5c-3.614-6.023-3.226-13.6-3.562-20.437l-.131-2.506Q17.15 125.027 17 122q-1.484 4.213-2.937 8.438l-.842 2.373C11.364 138.245 10.453 143.273 10 149H9l-1-5H6v8l-3 1c-.488-11.2.235-20.325 4-31 1.186-3.557 1.07-6.72.992-10.414l-.05-4.496q-.045-3.525-.113-7.05c-.314-16.653 2.97-26.425 14.546-38.853 2.636-2.545 5.357-4.238 8.563-6 9.13-5.276 13.469-13.73 18.05-22.838C52.078 26.41 55.981 22.01 62 19q2.688-.252 5.375-.5c8.308-1.199 15.315-4.76 22.855-8.3C97.644 6.726 104.686 3.72 113 4"/><path fill="#A66E07" d="M153 44q1.92.63 3.844 1.254C177.747 52.31 195.485 67.55 206 87c10.494 22.564 12.485 46.485 4.252 70.149-3.443 9.247-7.93 17.226-14.252 24.851l-2.086 2.578C179.376 201.688 158.247 211.941 136 214c-25.404 1.765-47.267-6.6-66.687-22.75-17.36-16.117-26.315-38.25-27.586-61.617C40.978 106.152 49.088 85.273 65 68l1.664-1.906C87.106 43.94 124.454 33.609 153 44M64.469 73.652C49.649 90.528 44.159 111.907 45 134c1.764 21.743 12.491 41.35 28.25 56.188C92.53 206.55 115.24 211.968 140 210c5.525-.707 10.751-2.137 16-4l2.022-.715C168.368 201.48 176.696 196.2 185 189l2.043-1.738c13.066-12.05 23.091-31.522 24.134-49.275C211.664 112.777 208.663 91.2 191 72l-2.234-2.512c-15.004-16.008-35.005-24.383-56.723-25.734-27.647-.484-48.946 10.379-67.574 29.898"/><path fill="#F3B104" d="M140 16q2.362.94 4.75 1.813L148 19v1h-10l3.453.375C165.507 23.362 186.201 33.738 204 50l2.238 1.988c12.816 11.994 22.494 28.73 27.07 45.598.461 2.345.461 2.345 1.692 3.414 1.985 8.955 2.317 17.933 2.26 27.06-.01 2.098 0 4.194.013 6.292q0 2.015-.007 4.03l-.007 3.638C237 145 237 145 235 148l-.028-2.652C234.793 121.38 234.793 121.38 230 98l-1.023-3.367c-4.356-12.634-11.756-24.674-20.48-34.75C207 58 207 58 206 55c-1.85-1.05-1.85-1.05-4-2l-4-3-1.73-.832c-2.4-1.235-4.598-2.684-6.836-4.189-24.745-16.533-52.203-22.455-81.723-17.795-29.053 6.391-52.738 23.372-68.898 48.171L37 78h-1c.426-5.4 1.441-8.241 5-12.312l2.477-2.856L46 60l2.21-2.613C61.83 41.58 79.306 31.357 99 25c-6.027.492-10.645 1.793-16.062 4.438l-2.211 1.06C70.057 35.769 60.384 42.723 51 50c1.487-5.003 3.575-9.652 5.777-14.371a184 184 0 0 0 2.723-6.191c2.162-3.514 4.935-4.057 8.84-5.008l2.597-.555c6.19-1.486 12.043-3.647 18-5.875 17.736-6.556 33.307-10.71 51.063-2"/><path fill="#825503" d="M139 75c5.432-1.078 9.439-1.017 14.168 2.063 2.834 2.333 5.505 4.84 8.162 7.372 2.695 2.525 5.526 4.882 8.357 7.252l1.62 1.374c4.241 3.595 8.576 7.061 12.963 10.478L186 105v1c-10.654.776-10.654.776-13.992-1.148A286 286 0 0 1 168 101c-2.13-.239-2.13-.239-4 1l-2.062 2.063c-3.888 2.564-6.851 2.418-11.415 2.468L148 106l-1.293-1.984c-2.054-2.426-2.654-2.363-5.719-2.625a191 191 0 0 0-4.675-.141l-2.417-.09c-1.964-.07-3.93-.117-5.896-.16 0-2 0-2 1-3.562 3.124-2.246 6.198-2.126 10-2.438l-4-5c-3.601 1.47-5.344 3.367-7.687 6.438l-2.114 2.675a178 178 0 0 0-4.367 5.992c-5.536 7.574-5.536 7.574-9.625 8.586-2.5-.003-4.761-.185-7.207-.691l4-6-9-1-1.937-4.812-1.09-2.708A112 112 0 0 1 94 93l-6 13H78c-3.31-6.882-5.969-13.643-8-21l-1-3h8q1.261 2.87 2.5 5.75l1.406 3.234C82 94 82 94 82 98h2l.25-2.937C84.905 90.29 86.938 86.323 89 82h10l5 14 6-13h8l-7 21 5.125-6 1.682-1.948c2.705-3.16 4.995-6.284 7.13-9.865 2.44-3.212 4.648-4.08 8.626-4.687 4.737.238 6.976 1.73 10.105 5.094 3.347 3.964 6.407 8.123 9.332 12.406 2.884-1.293 4.872-2.66 7-5q-3.562-3.095-7.125-6.187l-2.016-1.752c-3.088-2.68-6.185-5.338-9.351-7.924L139 76z"/><path fill="#936301" d="M121.36 24.922c20.25-.597 36.31 2.45 54.64 11.078l3.156 1.469C189.651 42.778 198.842 50.607 207 59l-1 2 1.2 1.57c14.083 19.003 22.066 37.865 21.863 61.868l-.014 3.083q-.018 3.74-.049 7.479h-1l-.078-3.34C227.334 114.13 223.299 98.893 216 83l-1.5-3.375c-1.294-2.687-1.294-2.687-3.5-4.062-2-1.563-2-1.563-3.297-4.81-1.607-3.913-3.903-6.421-6.953-9.378l-1.479-1.44C195.728 56.542 192.058 53.733 188 51l-1.785-1.887c-16.783-16.013-43.85-17.642-65.575-17.206-5.032.178-9.769.847-14.64 2.093l-3.25.813c-6.499 1.805-11.907 4.166-17.562 7.828C83 44 83 44 79.625 45.313 58.748 55.03 44.675 76.006 37 97l-.84 2.133C31.133 112.688 31.477 127.738 31 142c-2.322-3.483-2.257-4.883-2.266-8.996l-.007-3.635.023-3.806-.023-3.702C28.772 100.451 35.38 84.55 47 67l1-2-2 1c8.192-17.71 30.72-29.587 48-36 9.21-3.12 17.684-4.758 27.36-5.078"/><path fill="#FAC42C" d="m50 75 1 2-1 3h-2l-.687 3.25c-.886 3.597-2.174 6.81-3.688 10.188-9.683 22.985-8.936 47.979-.137 71.18 5.594 12.517 13.893 23.166 23.79 32.534C69 199 69 199 69 201h2a279 279 0 0 1 5 5c3.508 3.203 6.605 5.484 11.05 7.191 2.232.926 4.272 2.08 6.388 3.246 20.165 9.888 45.883 9.414 66.89 2.461 23.4-8.434 42.002-23.776 53.235-45.988A210 210 0 0 0 217 165l1.5-3.23c1.824-4.248 2.71-8.63 3.625-13.145 1.754-8.504 1.754-8.504 2.875-9.625.157-1.486.25-2.98.316-4.473l.127-2.724.12-2.865.13-2.877q.16-3.53.307-7.061h1c.48 13.374.075 25.222-4 38l-.875 3.121c-4.306 14.477-12 25.916-22.125 36.879l-1.953 2.234c-14.037 15.258-36.57 25.609-57.174 26.973-30.896 1.247-55.705-5.371-79.178-26.258-12.486-11.817-24.407-30.317-26.757-47.637-.496-4.301-.496-4.301-1.938-8.312-.246-4.161-.185-8.332-.187-12.5l-.038-3.477c-.011-6.937.55-13.292 2.225-20.023l.676-2.96C38.429 94.6 42.16 82.838 50 75"/><path fill="#FAD46C" d="m20 143 2 1a171 171 0 0 1 1.688 8.063C25.589 161.36 28.796 169.523 33 178l1.504 3.09c5.787 11.58 5.787 11.58 15.617 19.062L53 201a181 181 0 0 1 4 4l2.316.898c2.963 1.217 5.04 2.757 7.559 4.727C82.563 222.141 101.311 229.862 121 230l5.05.148c13.656.3 25.928-.783 38.95-5.148q3.493-.553 7-1l2.813-.687L177 223l2 2c-6.395 3.803-13.1 6.125-20.187 8.25l-2.591.782C136.564 239.769 114.588 238.404 95 233v-2l-3.375-.203c-5.442-.693-9.831-2.985-14.625-5.547l-2.774-1.472c-26.25-14.412-42.605-37.277-52.413-65.153C20.655 153.459 20.329 148.276 20 143"/><path fill="#CB9009" d="M49 63c0 4.046-1.996 6.332-4.187 9.563-9.424 14.331-15.086 28.692-14.84 46.078l.037 4.242q.037 3.291.086 6.583c.03 2.141.048 4.283.064 6.425l.051 3.844c-.198 3.064-.586 4.711-2.211 7.265l-1-1c.099 21.011 14.911 42.012 29.188 56.375L59 205h-3l-1.875-1.937c-1.934-2.263-1.934-2.263-4.55-2.493-4.692-1.039-6.87-4.812-9.575-8.57-10.555-16.768-16.608-33.528-19.387-53.105-.377-3.675-.377-3.675-1.613-5.895-.91-11.145.343-20.542 4.247-30.985a318 318 0 0 0 2.245-6.257C28.075 88.502 30.888 81.55 35 75l2 2 1.61-2.555 2.14-3.32 2.11-3.305c2.002-2.64 3.08-3.73 6.14-4.82"/><path fill="#FBE28D" d="M233 112c2.909 4.961 2.34 10.02 2.313 15.625l-.013 3.385c-.188 13.912-1.213 28.995-9.23 40.842-2.084 3.17-3.658 6.336-5.257 9.773-3.45 7.128-7.796 13.24-12.813 19.375l-2.105 2.64c-4.984 5.978-9.172 8.815-16.895 10.36v2c-4.278 3.444-7.583 4.489-13 5l-3 1-3-1v-2l2.203-.996C196.827 206.354 213.658 186.28 223 161c1.055-3.235 2.073-6.463 2.98-9.742C227 149 227 149 229.05 148.118L231 147c.88-4.594 1.166-9.14 1.316-13.809l.127-3.76.12-3.869.13-3.95q.159-4.806.307-9.612"/><path fill="#F9BA06" d="M116 20v1l-5 1 2.516-.048c30.419-.5 30.419-.5 42.484 3.048l3.105.867c2.315.67 4.608 1.374 6.895 2.133l-1 3c-4.613-.607-8.841-1.829-13.242-3.281-24.684-6.433-53.972-1.09-75.813 11.445-15.434 9.62-27.234 21.001-37.132 36.191L37 78h-1c.426-5.4 1.441-8.241 5-12.312l2.477-2.856L46 60l2.21-2.613C61.83 41.58 79.306 31.357 99 25l-1-2c6.205-2.136 11.427-3.365 18-3"/><path fill="#FAC32A" d="m153 33 3.637.895c7.926 2.12 15.043 5.228 22.238 9.167l2.362 1.284 2.193 1.252 1.945 1.11c1.938 1.541 2.675 3.03 3.625 5.292-3.477-1.296-6.494-2.828-9.625-4.812-5.312-3.21-10.587-5.935-16.375-8.188l-3.61-1.422c-10.102-3.553-20.033-4.037-30.64-4.016h-2.076c-6.637.023-12.41.066-18.674 2.438v2l-3.219 1.172C94.131 43.002 94.131 43.002 84 48l-1.934 1.11C69.316 56.763 59.096 66.531 51 79l-2-3c1.091-4.772 4.344-7.929 7.625-11.375l1.63-1.738c3.466-3.659 7.034-7.118 10.929-10.324 1.963-1.628 1.963-1.628 4.05-3.993 3.281-3.049 6.566-4.785 10.579-6.695l2.04-1.012C92.046 37.842 98.416 35.4 105 33.375l2.313-.727C121.4 29.25 139.019 29.385 153 33"/><path fill="#FCC62E" d="m128.563 32.5 2.093-.005c19.568.05 38.689 5.072 54.496 17.15 1.843 1.477 1.843 1.477 4.293 2.285 7.851 3.289 17.339 12.938 20.743 20.82L211 75a181 181 0 0 0 4 4c2.815 4.054 4.356 8.39 6 13q.81 2.157 1.625 4.313c2.022 5.423 2.469 8.97 2.375 14.687h-2l-.812-2.937c-7.109-24.703-20.95-47.105-43.938-60.048-18.038-9.698-35.74-11.52-55.875-11.202q-2.55.022-5.102.04-6.136.051-12.273.147c7.314-4.876 15.07-4.484 23.563-4.5"/><path fill="#CF9104" d="M242 189h2c-.125 3.25-.125 3.25-1 7-3.167 2.771-6.534 4.23-10.375 5.813-7.18 3.111-12.563 7.76-15.773 14.949-.981 2.578-1.847 5.186-2.727 7.8-3.44 9.58-9.357 13.719-18.125 18.438l-3.437 1.938C190 246 190 246 187 245q1.871-1.443 3.75-2.875l2.11-1.617C195 239 195 239 197.14 238.055c2.383-1.351 2.826-2.55 3.86-5.055q1.752-3.506 3.512-7.008a526 526 0 0 0 3.195-6.547l.9-1.854a1314 1314 0 0 0 2.55-5.294c5.657-10.116 13.544-14.034 24.109-17.988 2.9-1.389 4.533-3.005 6.734-5.309"/><path fill="#BE890F" d="m74 47 2 1-2.598 2.16C52.05 68.003 37.151 89.477 34 118c-.166 4.313-.185 8.621-.187 12.938l-.038 3.458c-.01 6.26.425 11.61 2.225 17.604q.364 1.996.688 4c5.039 22.483 21.33 42.826 40.437 55.063C86.82 216.859 97.079 221.13 108 224v1c-17.616.296-34.378-12.169-46.602-23.64-12.324-12.125-20.06-24.331-26.398-40.298l-1.17-2.942C25.618 136.562 30.52 108.994 39 88c.958-1.69 1.956-3.36 3-5l1.29-2.29C50.901 67.4 61.4 55.755 74 47"/><path fill="#EAAA05" d="M17 119h1l.044 1.69c.582 19.998 2.933 38.998 12.882 56.751 1.168 2.782 1.18 3.81.074 6.559-21.081-24.27-21.081-24.27-20.504-42.3.59-7.938 3.617-15.353 6.504-22.7"/><path fill="#FCBC08" d="M251 102c2.528 3.792 2.224 6.809 2.125 11.188l-.027 2.271c-.024 1.847-.06 3.694-.098 5.541l1-15h1c1.445 9.674.442 16.758-2.937 25.875-3.24 9.02-5.277 15.528-2.563 25 3.054 12.607 3.03 25.971-3.375 37.5-4.221 5.215-8.517 7.37-14.723 9.598-2.469 1.056-4.327 2.336-6.402 4.027l-2-1c5.011-4.2 9.665-6.92 15.898-8.945 2.62-1.315 3.17-2.31 4.102-5.055.078-2.332.09-4.668 0-7l2-1 1 2c1.72-5.231 2.352-9.818 2.313-15.312l-.004-2.268c-.089-5.095-.927-9.356-2.625-14.174-2.714-8.916.278-18.17 4.316-26.246-3.348 5.245-4.945 9.879-6 16h-2c-.854-7.972 1.567-13.967 4.492-21.23 2.181-5.418 3.741-10.272 4.133-16.145l.227-3.21z"/><path fill="#E6AA1D" d="m36 211 3 1v2h2l1.125 2.063C46.975 223.66 53.668 227.196 62 230l2.215.871c4.322 1.633 8.166 2.31 12.785 2.566 5.692.336 10.017 1.858 15 4.563v2l5 2-1 2-1.547-.977c-3.288-1.371-6.145-1.306-9.703-1.398-15.864-.741-29.983-4.773-41.18-16.727C36 215.746 36 215.746 36 211"/><path fill="#FDBC0B" d="M127 36c-2 3-2 3-3.81 3.613l-2.198.344-2.466.423-2.651.432C100.615 43.62 87.43 48.543 75 58l-2 3q-1.981 1.036-4 2c-5.662 4.601-9.744 10.593-13.887 16.523C52.995 82.005 52.183 82.727 49 83c6.055-16.809 22.556-30.042 38-38 2.673-1.146 5.387-2.147 8.125-3.125 5.363-1.942 5.363-1.942 10.676-4.016C112.49 35.245 119.94 35.896 127 36"/><path fill="#CF9206" d="M198 49c15.45 9.45 28.491 31.739 33 49l.544 1.827c1.857 6.946 1.475 13.608 1.081 20.736l-.172 3.634q-.21 4.403-.453 8.803h-3l-.113-3.812C227.955 103.042 222.194 80.594 204 61l1-2c-2.498-3.212-5.07-6.175-8-9z"/><path fill="#DB9C04" d="m103 17 2 1a73 73 0 0 0 4.563-.437c7.804-.812 15.602-.646 23.437-.563v1l-9 1 4.277.367 5.66.508 2.807.238A116 116 0 0 1 154 23v1l-2.253-.217c-9.21-.805-18.326-.9-27.56-.846q-2.223.009-4.447.014-5.37.017-10.74.049l2-2c-17.328 2.732-33.221 9.587-47.266 20.066L62 42l-3-1c3.418-3.739 6.828-6.28 11.23-8.79 2.068-1.252 2.068-1.252 3.77-4.21 6.578-4.18 14.43-7.226 22-9l3 1 1-2z"/><path fill="#FED66E" d="M205 210c1 3 1 3-.187 6.563-1.912 3.624-2.357 3.876-5.813 5.437l-.937 2.375c-1.538 3.798-4.089 5.777-7.862 7.397-1.971.69-3.95 1.316-5.951 1.916-4.472 1.06-4.472 1.06-8.25 3.312-1.343.086-2.69.107-4.035.098l-2.451-.01-2.577-.025-2.587-.014q-3.175-.02-6.35-.049c3.184-2.123 6.002-3.101 9.625-4.312 5.848-2.024 11.11-4.443 16.375-7.688q2.717-1.659 5.438-3.312l2.496-1.551C194 219 194 219 196 219v-2l5-2v-2h2v-2z"/><path fill="#AA740B" d="m88 200 2.754 1.207c24.385 10.413 48.088 10.36 72.746 1.043A466 466 0 0 0 169 200l1 4c-22.994 10.504-46.84 13.827-71.204 5.222C94.78 207.656 90.874 205.896 87 204z"/><path fill="#E3A406" d="M143.563 242.938 146 244c2.271.3 4.531.498 6.816.656 2.4.378 4.044 1.224 6.184 2.344 1.991.383 3.991.726 6 1v2h10c-5.687 3.792-10.238 3.636-17 3-4.34-.892-8.615-2.023-12.88-3.221-6.406-1.768-12.138-2.91-18.495-.279-4.458 1.603-8.918 2.464-13.625 1.5-1.758-1.523-1.758-1.523-3-3l2.055-.043c5.332-.273 9.32-.881 14.007-3.52 5.711-3.146 11.315-3.763 17.5-1.5"/><path fill="#CF9104" d="M49 63c0 4.046-1.997 6.331-4.187 9.563C37.2 84.18 32.963 95.733 29 109l-2-2-2 8-3-1c1.276-14.085 5.455-26.981 13-39l2 2 1.61-2.555 2.14-3.32 2.11-3.305c2.002-2.64 3.08-3.73 6.14-4.82"/><path fill="#916101" d="M51 68c-1.316 3.529-2.884 6.62-4.875 9.813C33.763 98.227 31.783 118.554 31 142c-2.322-3.483-2.257-4.883-2.266-8.996l-.007-3.635.023-3.806-.023-3.702c.036-17.117 3.738-32.317 12.96-46.799l1.153-1.81C45.167 69.782 46.596 68 51 68"/><path fill="#F7B510" d="M233 149h2c1.114 20.05-13.51 40.52-26.172 54.922-9.354 10.35-20.187 18.242-32.828 24.078 1.441-4.323 4.75-5.493 8.5-7.687 18.703-11.358 31.106-28.373 40.309-47.985C226 170 226 170 228 168c.755-2.25 1.433-4.525 2.063-6.812l1.035-3.708c.73-2.82 1.373-5.616 1.902-8.48"/><path fill="#FBE398" d="M224 170c1.225 3.676.345 4.977-1.299 8.344l-1.076 2.094-1.1 2.162c-3.513 6.708-7.697 12.556-12.525 18.4l-2.102 2.633c-4.982 5.983-9.172 8.822-16.898 10.367v2c-4.278 3.444-7.583 4.489-13 5l-3 1-3-1v-2q2.186-.755 4.375-1.5l2.46-.844C179 216 179 216 181 216c19.051-9.158 30.545-25.421 41-43z"/><path fill="#FDCC4F" d="m236 150 2 1c.529 8.052-.2 15.534-1.687 23.438-.15.851-.298 1.703-.45 2.58-1.142 5.665-2.732 8.908-6.863 12.982-5.1 3-5.1 3-8 3 .822-4.602 3.268-8.543 5.473-12.604 2.169-4.16 3.01-7.759 3.527-12.396.648-2.082.648-2.082 1.375-3.812 1.85-4.64 3.24-9.392 4.625-14.188"/><path fill="#774C0B" d="M109 121h33v2h-31l1 59h12v-19h1v21h-16z"/><path fill="#FAB60B" d="M26 158h3l.848 2.387C36.215 177.687 45.498 192.399 59 205h-3l-1.875-1.937c-1.934-2.263-1.934-2.263-4.55-2.493-4.692-1.039-6.87-4.812-9.575-8.57a170.6 170.6 0 0 1-13-25l-1.156-2.664c-.946-2.618-.796-3.767.156-6.336"/><path fill="#EBB627" d="M189 52c9.236 4.23 18.411 13.566 22 23a181 181 0 0 0 4 4c2.815 4.054 4.356 8.39 6 13q.81 2.157 1.625 4.313c2.022 5.423 2.469 8.97 2.375 14.687h-2l-.812-2.937C216.64 88.783 207.756 72.833 193 59l1-2z"/><path fill="#F4DC80" d="M125 134c9.107-.607 9.107-.607 13.125 2.125 2.203 3.378 2.548 4.921 1.875 8.875-1.78 3.136-2.523 3.841-6 5a81 81 0 0 1-4.687.063L125 150z"/><path fill="#CC991D" d="M225 107c3.246 5.627 3.213 12.041 3.563 18.375l.13 2.23q.157 2.698.307 5.395c1.833-3.152 2.288-5.576 2.414-9.203l.117-2.969.094-3.078.117-3.125q.141-3.812.258-7.625c2.447 3.67 2.18 5.255 2.012 9.61l-.143 3.976-.09 2.073c-.09 2.07-.166 4.138-.238 6.208-.487 12.604-.487 12.604-1.541 18.133l-4 2a77 77 0 0 0-2.937 7.938q-.762 2.31-1.536 4.617l-.766 2.288c-1.597 4.526-3.658 8.848-5.761 13.157l-2-2c.315-.643.63-1.286.953-1.95 6.615-13.967 10.434-27.962 10.234-43.425l-.001-2.941c-.026-4.092-.114-7.724-1.186-11.684-.122-2.675-.045-5.32 0-8"/><path fill="#F9B905" d="m166 28-1 3c-4.613-.607-8.841-1.829-13.242-3.281-7.026-1.831-14.104-1.913-21.32-1.907l-2.918.003C117.357 25.9 107.68 26.728 98 30c-2.875.125-2.875.125-5 0 2.063-2.063 3.184-2.566 5.875-3.5 2.099-.734 4.044-1.457 6.005-2.51C121.8 16.093 149.29 22.456 166 28"/><path fill="#F9E785" d="M109 119q6.161-.112 12.323-.165 2.09-.022 4.18-.061c11.222-.206 20.367.195 28.833 8.206 3.959 4.805 5.231 10.836 4.95 16.977-.946 6.773-2.925 11.598-8.286 16.043l-1.75 1.688c-6.232 3.635-14.224 3.718-21.25 4.312l-1 18h-1v-21l7.5-.25c7.728-.405 13.214-1.378 18.875-7.187 4.171-6.578 4.538-12.918 3.625-20.563-2.209-5.677-5.697-9.39-11.143-12.044-3.537-1.184-6.874-1.309-10.564-1.37l-2.198-.059c-2.303-.06-4.605-.106-6.907-.152l-4.702-.117q-5.742-.143-11.486-.258z"/><path fill="#CD9714" d="m153 33 3.637.895c7.926 2.12 15.043 5.228 22.238 9.167l2.362 1.284 2.193 1.252 1.945 1.11c1.938 1.541 2.675 3.03 3.625 5.292-3.477-1.296-6.494-2.828-9.625-4.812-5.312-3.21-10.587-5.935-16.375-8.188l-3.61-1.422c-9.934-3.498-19.746-4.061-30.202-4.078l-3.935-.019c-7.472.098-14.288.926-21.522 2.813-3.24.838-6.411 1.32-9.731 1.706v2c-6.45 4.093-6.45 4.093-9.234 3.621L83 43c5.857-4.188 11.76-6.81 18.625-8.812l2.133-.626c15.187-4.216 34-4.503 49.242-.562"/><path fill="#FEE29B" d="M113 4c-3.256 2.77-6.388 3.945-10.437 5.25-5.044 1.728-9.472 3.669-14.126 6.313-7.87 4.404-15.938 6.898-24.812 8.375-4.91.874-7.806 2.907-11.625 6.062.56-3.537 1.678-4.956 4.438-7.187l1.87-1.543c3.063-2.3 5.301-2.422 9.067-2.77 8.308-1.199 15.315-4.76 22.855-8.3C97.644 6.726 104.686 3.72 113 4"/><path fill="#FADC80" d="M29 143c1.705 2.557 2.529 4.258 3.445 7.105l.814 2.46.866 2.623C37.935 166.416 42.784 176.889 49 187l-2 1c-3-4.75-3-4.75-3-7l-3-1v-2h-3l-5-11h-2c-5.74-15.745-5.74-15.745-5-23l2 2z"/><path fill="#FEC63D" d="m10 104 2 1c.387 10.247-.42 19.031-3 29h2l1-2-.437 3.438A842 842 0 0 0 10 149H9l-1-5H6v8l-3 1c-.523-12.01.126-22.27 5.094-33.465 1.125-3.147 1.33-6.016 1.531-9.347l.227-3.52z"/><path fill="#FEC526" d="M217 94c2 1 2 1 3.07 4.09l1.055 3.847 1.07 3.84C223 109 223 109 223 111h2c1.525 5.18 1.184 10.457 1.188 15.813l.037 3.236c.01 5.724-.365 10.483-2.225 15.951a193 193 0 0 0-.93 4.043l-.472 2.064a303 303 0 0 0-.922 4.196c-1.017 4.345-2.188 6.873-5.676 9.697.406-3.894.914-6.793 2.438-10.437 5.97-15.22 5-34.498.535-49.88-1.039-3.931-1.55-7.645-1.973-11.683"/><path fill="#D3960A" d="M44 56c0 3.796-.95 4.342-3.437 7.125C29.723 76.329 23.707 92.486 20 109h-1q-.293-3.843-.562-7.687l-.17-2.186c-.653-9.529-.653-9.529 3.17-13.94C24 83 24 83 26 83c1.325-2.914 2-4.952 2.063-8.187C30.028 66.819 37.634 60.897 44 56"/><path fill="#F5DB97" d="M233 112c2.909 4.961 2.34 10.02 2.313 15.625l-.013 3.385c-.168 12.495-.831 26.912-7.3 37.99l-2 1v-9l-2-1q.427-2.159.875-4.312l.492-2.426C226 151 226 151 228 148l3-1a112 112 0 0 0 1.316-13.809l.127-3.76.12-3.869.13-3.95q.159-4.806.307-9.612"/><path fill="#F6CC46" d="m71 60 2 1-1.871 1.73C54.778 78.385 43.197 99.233 42.63 122.228c-.036 14.528 2.845 27.18 7.674 40.799A413 413 0 0 1 53 171c-2.951-2.547-4.354-5.369-6-8.875l-1.5-3.117C37.61 139.63 38.186 114.33 46 95c5.887-13.694 14.151-24.78 25-35"/><path fill="#C79211" d="m74 47 2 1-2.598 2.16C51.97 68.07 37.324 89.436 34 118c-.255 4.31-.413 8.622-.562 12.938l-.131 3.517A3773 3773 0 0 0 33 143h-1q-.075-5.893-.11-11.786c-.015-1.98-.04-3.96-.066-5.939-.054-10.63 1.202-20.096 4.613-30.15l1.247-3.742C38.88 88.306 40.224 85.768 42 83l1.29-2.29C50.901 67.4 61.4 55.755 74 47"/><path fill="#F4B305" d="M150.227 242.137c10.942 3.406 22.383 4.388 33.773 4.863-2.663 2.663-5.353 3.477-9 4-3.369-.123-6.667-.504-10-1v-2l-2.75.125C159 248 159 248 157.074 247.023c-2.29-1.13-3.978-1.347-6.512-1.523-2.692-.24-4.503-.474-7-1.562-5.119-1.873-10.285-1.89-15.328.218a116 116 0 0 0-5.105 2.848C121 248 121 248 118 247c10.835-7.653 19.676-9.148 32.227-4.863"/><path fill="#FEC21C" d="M158 39c14.853 3.594 25.995 10.774 37 21l2.754 2.473c7.38 6.93 17.751 18.938 18.434 29.402L216 94l-.781-1.66c-1.925-3.695-4.279-7.106-6.563-10.586C207 79 207 79 206.094 76.464c-1.438-3.238-3.516-5.053-6.094-7.464l-2.219-2.36C186.367 54.68 172.63 47.26 158 40z"/><path fill="#A77401" d="M157 28c-3.514 2.343-4.295 2.119-8.344 1.633-6.737-.688-13.388-.781-20.156-.758l-3.492-.012-3.352.004-3.006.004c-2.385.116-4.364.481-6.65 1.129-4.387.368-8.211.526-12-2 18.222-5.157 38.713-4.402 57 0"/><path fill="#A67201" d="M88.18 33.928c.6.354 1.2.708 1.82 1.072l-3.445 1.8C73.682 43.659 61.66 50.977 52.398 62.474 50.541 64.5 48.653 65.357 46 66c6.293-13.604 21.344-22.883 34-30l3.133-1.848C86 33 86 33 88.179 33.928"/><path fill="#FECF57" d="M205 210c1 3 1 3-.187 6.563-1.912 3.624-2.357 3.876-5.813 5.437l-.937 2.375c-1.538 3.798-4.089 5.777-7.862 7.397-1.971.69-3.95 1.316-5.951 1.916-4.472 1.06-4.472 1.06-8.25 3.312-1.343.086-2.69.107-4.035.098l-2.451-.01-2.577-.025-2.587-.014q-3.175-.02-6.35-.049c2.319-1.546 4.213-2.647 6.75-3.687l1.922-.825c2.328-.488 2.328-.488 5.648.07 4.322.519 6.764-.263 10.805-1.808l3.57-1.328c2.96-1.273 5.557-2.76 8.305-4.422h2c1.125-2.732 2.13-5.424 3-8.25 1-2.75 1-2.75 3-3.75v-2z"/><path fill="#E8A804" d="m118 12 2.75.5c3.124.686 3.124.686 5.663-.058 2.991-.511 4.427-.096 7.232.992l2.548.966 2.62 1.037 2.677 1.026Q144.752 17.714 148 19v1l-24-1v-1a98.4 98.4 0 0 0-16 1c2.789-3.099 5.078-4.622 9-6z"/><path fill="#B17D15" d="m88 200 2.754 1.207c14.872 6.345 29.213 8.26 45.246 8.793v1l-3.035.184-4.028.254-3.972.246c-3.906.245-3.906.245-7.477.953-4.038.42-7.374-.212-11.238-1.262l-2.096-.544c-6.02-1.638-11.61-3.965-17.154-6.831z"/><path fill="#FDD56E" d="M178 18h9v2h4v2l4 2-1 6c-6.635-.83-12.418-4.511-18-8z"/><path fill="#FAD167" d="M231 85h2l.813 2.188c1.12 2.853 1.12 2.853 2.812 5.437C238 95 238 95 238 98h3c1.2 3.781 1.168 7.43 1.188 11.375l.042 3.898c-.223 3.612-.917 6.375-2.23 9.727h-1l-.48-3.848c-1.31-9.854-3.068-18.952-6.532-28.28C231 88 231 88 231 85"/><path fill="#DEA116" d="M251 102c3.712 5.568 2.724 14.29 1.465 20.742-1.321 4.172-3.268 7.707-5.547 11.418-1.697 3.402-2.276 7.117-2.918 10.84h-2c-.854-7.972 1.567-13.967 4.492-21.23 2.181-5.418 3.741-10.272 4.133-16.145l.227-3.21z"/><path fill="#E4A50E" d="M228 90h3l.621 2.152.816 2.785.81 2.778c.543 2.225.543 2.225 1.753 3.285 1.985 8.955 2.317 17.933 2.26 27.06-.01 2.098 0 4.194.013 6.292q0 2.015-.007 4.03l-.007 3.638C237 145 237 145 235 148l-.028-2.652c-.217-16.162-.466-31.703-4.972-47.348a842 842 0 0 1-2-8"/><path fill="#F4E2B1" d="M101 24c-2.712 2.712-5.892 3.508-9.437 4.75-14.841 5.408-26.924 13.609-38.47 24.367C51 55 51 55 48 57c1.362-3.067 2.897-5.118 5.313-7.437l1.738-1.684L57 46l2.273-2.418c3.132-2.966 6.382-5.196 10.04-7.457.692-.43 1.385-.858 2.099-1.3a141 141 0 0 1 15.15-7.95l1.945-.894C92.81 24.139 96.35 23.725 101 24"/><path fill="#FABC11" d="M116 20v1c-.592.182-1.183.364-1.793.55-4.466 1.421-8.205 2.987-12.207 5.45-2.028.807-4.07 1.543-6.133 2.254-2.146.783-2.146.783-4.867 2.746-2.633 1.46-5.317 2.82-8 4.188l-2.195 1.154-2.118 1.076-1.925.993C75 40 75 40 72 39v-2c8.829-4.564 17.51-8.944 27-12l-1-2c6.205-2.136 11.427-3.365 18-3"/><path fill="#EFAD03" d="M242 189c0 3.62-.586 4.018-3.062 6.5-4.072 3.898-7.891 6.065-13.563 6.875-3.405.896-4.996 3.117-7.375 5.625h-2l-.312 1.938L215 212l-3 1c-.919 1.896-.919 1.896-1.5 4.188A57 57 0 0 1 206 228c-1-2-1-2-.25-4.469 5.12-12.415 10.72-21.438 23.352-26.863a227 227 0 0 1 6.199-2.395c2.89-1.363 4.59-2.898 6.699-5.273"/><path fill="#F9C53F" d="m47 53 2 2c-1.38 4.084-3.264 6.675-6.125 9.875-4.694 5.566-7.975 11.458-11.246 17.938C29.717 86.553 28.525 88.65 25 91c3.077-11.487 9.335-22.844 17.559-31.45C44.406 57.564 45.73 55.39 47 53"/><path fill="#FDF9ED" d="M224 170c1.225 3.676.344 4.978-1.3 8.345l-1.075 2.093-1.09 2.144c-9.018 17.212-9.018 17.212-14.55 19.11L204 202a88 88 0 0 0-4 2c3.188-4.323 6.449-8.55 9.875-12.687 4.652-5.762 8.334-11.967 12.125-18.313z"/><path fill="#DC9C05" d="M233 149h2c.838 15.086-7.667 28.352-15 41h-2c1.989-7.6 4.31-16.31 10-22 .755-2.25 1.433-4.525 2.063-6.812l1.035-3.708c.73-2.82 1.373-5.616 1.902-8.48"/><path fill="#FAEABF" d="m20 143 2 1a171 171 0 0 1 1.688 8.063c1.9 9.295 5.1 17.466 9.312 25.937l1.54 3.125C37.737 187.284 41.556 192.677 46 198l-1 2c-12.916-12.999-23.388-33.085-24.625-51.437l-.227-3.184z"/><path fill="#A66E06" d="M211 102h1c3.676 11.596 3.316 22.965 3 35h-1l-1-6-1 5h-1l-.076-2q-.177-4.532-.362-9.062l-.119-3.147c-.261-6.466-.261-6.466-1.037-12.885-.437-3.13-.158-4.33 1.594-6.906"/><path fill="#F5C02D" d="M42 171c1.86.223 1.86.223 4 1 1.203 1.934 1.203 1.934 2.25 4.438 3.827 8.205 9.236 14.505 16.273 20.113 2.493 2.446 3.364 5.177 4.477 8.449-12.035-5.15-21.298-20.843-27-32z"/><path fill="#F1D34C" d="M133 89c3.77 1.667 5.07 3.335 7 7h-9l-1 3h-2v2c-1.54 1.48-1.54 1.48-3.625 3.188-2.892 2.402-5.052 4.668-7.187 7.75-1.987 2.479-2.806 3.003-6.004 3.5-2.763 0-5.44-.13-8.184-.438v-1l1.766.273c3.752.154 6.761-.054 9.756-2.533 3.313-3.398 6.213-7.135 9.082-10.908a201 201 0 0 1 3.935-4.984A500 500 0 0 0 133 89"/><path fill="#D5970D" d="M40 218c2.923 2.171 5.132 4.17 7.375 7.063 3.019 3.378 5.411 4.385 9.625 5.937 2.007.985 4.01 1.98 6 3v2l8-1v2l12 2v1c-14.638.62-24.833-2.278-36.18-11.836-3.249-3.087-5.611-5.732-6.82-10.164"/><path fill="#A97601" d="M172 36c13.72 1.657 25.682 13.435 35 23l-1 2c-3.851-2.124-6.742-4.551-9.875-7.625-4.977-4.632-10.174-8.083-16.085-11.418-3.044-1.72-5.754-3.276-8.04-5.957"/><path fill="#FDD46B" d="M235 166a1593 1593 0 0 1-.437 6.313l-.247 3.55C234 179 234 179 233 182h-3v2l-2 1a113 113 0 0 0-3 5l-3-1 1.46-2.852q.959-1.886 1.915-3.773l.96-1.871c1.905-3.768 3.347-7.484 4.665-11.504 2.5-3 2.5-3 4-3"/><path fill="#E4A209" d="m24 136 5 1c1.23 5.415 1.23 5.415.063 8.375L28 147l-1-1 1 12-3 1c-2.361-4.723-2.874-9.774-3-15l1-1q.552-3.493 1-7"/><path fill="#D19205" d="M3 161h2c4.784 8.382 4.784 8.382 5.938 11.688 1.355 2.95 3.333 4.623 5.671 6.832 1.834 1.952 2.571 3.953 3.391 6.48l2 3c-8.446-3.433-14.424-12.806-18.258-20.71-.825-2.547-.883-4.63-.742-7.29"/><path fill="#F4B306" d="M17 119h1v14h-1l-1 6h-2l-.148 2.52-.227 3.292c-.07 1.08-.14 2.158-.21 3.27C13 151 13 151 11 154c-.882-12.906 1.28-22.99 6-35"/><path fill="#A97505" d="M31 83h1c-.287 6.609-1.598 12.029-4.012 18.172-1.573 4.503-2.296 9.12-2.988 13.828l-3-1c.8-8.823 2.287-24.287 9-31"/><path fill="#D29405" d="M146.525 247.22c4.259 1.342 8.623 1.875 13.038 2.468l2.767.392q3.334.47 6.67.92v1c-9.008.466-16.794-.02-25.455-2.577-5.988-1.737-11.246-2.255-17.107.077-3.617 1.32-6.548 1.8-10.438 1.5 9.975-5.155 19.782-7.606 30.525-3.78"/><path fill="#FBCC3D" d="M49 200c3.863.552 5.307 2.307 8 5l2.29.887c3.117 1.28 5.456 2.964 8.148 4.988 3.794 2.82 7.596 5.553 11.562 8.125l-2 1c-2.744-1.247-5.35-2.576-8-4l-2.656-1.324C59.799 211.32 53.989 207.469 49 202z"/><path fill="#815403" d="M186 82v2a96 96 0 0 1-5 4.125l-2.812 2.195L176 92c-3.367-1.52-4.608-2.521-6-6 4.658-5.14 9.571-4.405 16-4"/><path fill="#C58F10" d="m215 176 1 2c-3.975 8.005-9.873 14.595-16 21l-1.86 2.086c-4.061 4.392-8.528 7.724-13.515 10.976l-1.878 1.233c-1.54.97-3.14 1.847-4.747 2.705l-2-1 1.402-.943C191.015 204.841 201.668 195.74 211 182l1.383-2.027A281 281 0 0 0 215 176"/><path fill="#FDD265" d="m10 104 2 1c.79 7.97-.815 14.652-3.07 22.202C6.99 133.761 5.805 140.2 5 147H4c-.577-9.868.031-17.28 3.82-26.582C9.678 115.035 9.897 109.658 10 104"/><path fill="#D39506" d="m114.473 18.59 2.945.133 3.282.129 3.488.21 3.534.174c8.954.51 17.557 1.67 26.278 3.764v1l-2.253-.217c-9.21-.805-18.326-.9-27.56-.845q-2.223.008-4.447.013-5.37.017-10.74.049c1.599-2.729 2.274-3.88 5.473-4.41"/><path fill="#FCC212" d="M40 188c3.259.305 4.684.682 7.027 3.04l1.91 2.585 2.06 2.719L53 199c1.968 2.363 3.982 4.68 6 7-3.82-1.805-3.82-1.805-5.437-3.562-1.506-1.655-1.506-1.655-3.922-1.79-3.246-.797-4.308-1.94-6.453-4.46l-1.833-2.083C40 192 40 192 40 188"/><path fill="#ECAB04" d="M10 172c7.58 6.16 14.865 13.01 19 22l-1 3a367 367 0 0 1-4-3.312l-2.25-1.864C20 190 20 190 20 187l-2-2-.75-2.25c-1.48-3.255-3.388-5.043-6.008-7.418C10 174 10 174 10 172"/><path fill="#966501" d="M157 29c5.857 1.662 11.459 3.47 17 6l-1 2 2.938 1.25C179 40 179 40 179.875 42.188L180 44c-3.487-1.11-6.775-2.263-10-4v-4l-2.012-.586c-8.77-2.586-8.77-2.586-12.988-4.414z"/><path fill="#FEC119" d="M223 122h1c.777 34.856.777 34.856-6.598 42.7L216 166c.403-3.865.877-6.717 2.438-10.312 2.425-6.291 2.654-13.029 3.25-19.688l.392-4.082q.475-4.958.92-9.918"/><path fill="#FABB08" d="M222 208c0 4.686-2.176 8.453-4.062 12.688l-1.124 2.646c-2.741 6.17-6.102 10.848-10.814 15.666l-2.437 2.5L202 243l-2-1c2.781-3.605 5.784-6.784 9-10 2.908-3.331 4.033-6.687 5.375-10.875 1.853-5.407 3.536-9.153 7.625-13.125"/><path fill="#E8AD1F" d="M24 83c.932 2.989 1.016 4.912.25 7.938l-.57 2.335L23 96q-.817 3.53-1.625 7.063L20 109h-1q-.293-3.843-.562-7.687l-.17-2.186C18.002 95.247 17.81 91.73 19 88c2.563-2.812 2.563-2.812 5-5"/><path fill="#FCCA4D" d="M227 78c5.86 4.453 9.952 9.234 13 16v4h-2l-1.375-3.375c-1.35-3.587-1.35-3.587-3.625-5.625v-4h-2l.875 2.23L233 90.187l1.125 2.918c.851 2.817 1.046 4.977.875 7.895-2-1-2-1-2.67-2.702l-.584-2.193-.65-2.396-.659-2.522-.67-2.486Q228.334 83.364 227 78"/><path fill="#FEE298" d="M23 63c-2.744 5.563-5.627 11.04-9.187 16.125C11.721 82.441 10.91 85.208 10 89H9c-.758-8.192 1.91-13.903 6.82-20.414C20.538 63 20.538 63 23 63"/><path fill="#A16F01" d="M88.177 33.93 90 35c-2.87 1.634-5.747 3.255-8.625 4.875l-2.45 1.395C74.697 43.642 70.7 45.677 66 47c1.322-3.965 3.758-4.988 7.188-7l3.417-2.062c1.12-.64 2.24-1.28 3.395-1.938l3.176-1.875C86 33 86 33 88.176 33.93"/><path fill="#F0AF04" d="M154 23c6.576.756 12.535 3.274 18.5 6l2.453 1.078c5.916 2.66 5.916 2.66 7.047 4.922q-2.188-.716-4.375-1.437l-2.46-.81C173 32 173 32 171 31l1 3-7-2 1-4-2.082-.367-2.73-.508-2.708-.492C156 26 156 26 153 24z"/><path fill="#FDC93F" d="M235 101c2.882 2.882 2.969 6.249 3.625 10.125l.406 2.285c.33 1.862.65 3.726.969 5.59h1c-.558 7.015-1.184 14.01-2 21h-1l-.06-1.969c-.096-2.99-.206-5.979-.315-8.969-.03-1.021-.062-2.043-.094-3.095-.212-5.525-.696-10.671-2.103-16.026-.666-3.02-.56-5.86-.428-8.941"/><path fill="#DB9B04" d="M16 129c1.557 3.113 2.304 4.803 2.852 8.047l.39 2.312.383 2.391.406 2.344c.828 5.034 1.097 9.805.969 14.906l-3-2c-.187-2.625-.187-2.625 0-5l-2-1z"/><path fill="#784F0D" d="M145.313 122.438c5.207 1.688 7.995 5.93 10.847 10.367 1.164 3.043 1.03 5.7.965 8.945l-.055 3.547L157 148l-2 1-.078-2.562c-.34-6.816-.657-12.87-4.922-18.438-3.456-2.82-6.612-3.49-11-4 3-2 3-2 6.313-1.562"/><path fill="#FBE6AF" d="m205 200 2 2c-4.448 6.39-8.208 8.982-15.84 10.625L189 213c9.117-9.385 9.117-9.385 15-12z"/><path fill="#FAE096" d="M224 160h3c.225 6.87-.747 9.507-5 15l-2 2c.326-6.323.615-11.555 4-17"/><path fill="#EFC13D" d="M42 134h1l.227 2.21c1.184 9.406 3.92 17.913 7.078 26.817A413 413 0 0 1 53 171c-7.607-6.565-10.738-19.41-12-29 .051-2.842.398-5.21 1-8"/><path fill="#EFB426" d="M75 234c6.701-.487 11.066.923 17 4v2l5 2-1 2-1.562-.937c-3.105-1.354-6.09-1.677-9.438-2.063v-2l-10-4z"/><path fill="#DB9E12" d="M247 123h1c1.238 5.627.694 8.012-2 13-.812 2.973-1.428 5.972-2 9h-2c-.702-8.287 1.73-14.443 5-22"/><path fill="#E3A71A" d="M70 233q3.129.892 6.25 1.813l3.516 1.019C82.722 236.9 84.643 237.964 87 240c-3.463 1.731-7.214 1.477-11 1-3.021-1.762-4.634-2.745-5.625-6.14z"/><path fill="#D89904" d="M243 189c1.123 2.758 1.092 3.779-.07 6.578-2.358 2.96-4.291 3.823-7.805 5.172l-3.117 1.234A51 51 0 0 1 224 204l-1-2c.592-.182 1.183-.364 1.793-.55 8.223-2.617 12.833-5.71 18.207-12.45"/><path fill="#FADA86" d="M199 211c-13.67 10.505-13.67 10.505-19 13l-3-1c3.21-3.746 7.396-5.465 12-7v-2c6.625-4.125 6.625-4.125 10-3"/><path fill="#AC7908" d="M31 120h1l.06 1.953c.096 2.974.206 5.948.315 8.922l.094 3.07c.224 5.82.81 11.244 2.213 16.903.348 2.355.045 3.905-.682 6.152-3.89-8.472-4.402-15.468-3.75-24.687l.2-3.608q.243-4.354.55-8.705"/><path fill="#B88417" d="M214 115h1v22h-1l-1-6-1 5h-1v-19h1l1 7z"/><path fill="#D4A122" d="M111.996 224.34c5.35.736 10.673.994 16.067 1.222l2.912.131q3.512.157 7.025.307v1c-3.624.23-7.249.43-10.875.625l-3.07.195c-6.671.342-12.58-.163-19.055-1.82 3.235-2.157 3.453-2.221 6.996-1.66"/><path fill="#FDCC4F" d="M7 131h1c-.503 7.027-1.042 14.02-2 21l-3 1v-17h1l1 5z"/><path fill="#FBCC4D" d="M27 88c1.13 3.393.865 4.165-.215 7.45l-.83 2.568-.892 2.67-.881 2.705A989 989 0 0 1 22 110h-1c-.364-7.634.408-14.064 4.688-20.562z"/><path fill="#F9BF23" d="m200 240 2 1c-4.663 3.344-9.384 5.648-14.687 7.813l-2.3.982-2.212.912-1.995.827C179 252 179 252 176 251c10.156-5.86 10.156-5.86 13.25-6.375 3.35-.761 5.99-2.225 8.98-3.883z"/><path fill="#FCDE85" d="M39 178h2c1.55 1.793 1.55 1.793 3.313 4.188 2.695 3.575 5.427 6.75 8.687 9.812l-1 2c-4.013-1.524-5.745-3.987-8.187-7.437l-2.106-2.934C40 181 40 181 39 178"/><path fill="#EEC458" d="M29 143c2.458 3.687 3.012 6.697 4 11l-3 1-1-2-2 3c-1.327-3.981-1.07-7.85-1-12l2 2z"/><path fill="#F2BE2D" d="M226 119h1c.329 12.402.447 23.977-3 36-2.488-3.732-1.99-4.827-1.187-9.125l.582-3.258C224 140 224 140 225 139c.157-1.486.25-2.98.316-4.473l.127-2.724.12-2.865.13-2.877q.16-3.53.307-7.061"/><path fill="#FBCC55" d="M240 98c2.172 4.344 2.27 6.59 2.25 11.375l.016 3.898c-.257 3.594-.963 6.386-2.266 9.727h-1l-1-11h1z"/><path fill="#FBE56A" d="m126 98 3 1c-.73.705-1.46 1.41-2.21 2.137-2.806 2.781-2.806 2.781-5.08 5.758-6.212 7.76-6.212 7.76-10.804 8.816-2.72-.021-5.235-.208-7.906-.711v-1l1.766.273c3.879.159 6.82-.057 9.87-2.678 3.768-3.944 7.07-8.254 10.364-12.595z"/><path fill="#D89B0F" d="M44 56c0 4.316-2.133 5.928-5 9h-2c-1.626 2.536-3.027 5.165-4.465 7.813L31 75h-3c2.776-8.045 9.404-13.888 16-19"/><path fill="#FECB4A" d="M205 210c1 3 1 3-.187 6.563-1.912 3.624-2.357 3.876-5.813 5.437a208 208 0 0 0-2 5l-3 1 1-3h2c1.125-2.732 2.13-5.424 3-8.25 1-2.75 1-2.75 3-3.75v-2z"/><path fill="#FEDA80" d="m75 20-1 2c-2.38.514-4.723.935-7.125 1.313C60.772 24.377 56.633 25.819 52 30c.568-2.741.945-3.936 2.813-6.125C60.832 20.334 68.099 19.848 75 20"/><path fill="#F1AF13" d="M26 158h3c1.513 5.16 2.335 8.66 1 14-2.022-2.022-2.676-3.259-3.687-5.875l-.825-2.055c-.561-2.381-.255-3.774.512-6.07"/><path fill="#E6B545" d="m47 53 2 2c-1.43 4.26-3.544 7.146-6.437 10.563C39.958 68.656 37.389 71.736 35 75c.512-4.421 2.037-6.617 4.938-9.937C43.07 61.473 44.654 58.57 46 54z"/><path fill="#CC981C" d="m175 215 2 2a757 757 0 0 1-9.125 4.063l-2.594 1.181c-4.81 2.09-8.037 3.398-13.281 1.756v-1l2.238-.48c7.399-1.702 13.971-4.138 20.762-7.52"/><path fill="#AC770E" d="M88 200a464 464 0 0 1 5.438 2.313l3.058 1.3C99 205 99 205 100 208c-4.973-.497-8.638-1.553-13-4z"/><path fill="#FDCD53" d="m180.066 17.902 2.496.035 2.504.028L187 18v2h-7v2l2.438.875C185 24 185 24 186 26l-9-3c0-4.953 0-4.953 3.066-5.098"/><path fill="#F9BD28" d="M250 96c4.147 5.41 4.183 8.753 4.188 15.438l.037 2.642.005 2.541.013 2.326C254 121 254 121 252 124v-19l-2-1c-1.275-5.45-1.275-5.45 0-8"/><path fill="#EDB224" d="m36 211 3 1v2h2l1.25 2.188c2.162 3.474 4.531 5.309 7.75 7.812-4.38 0-6.717-2.262-10-5-4-4.308-4-4.308-4-8"/><path fill="#DEAA2D" d="M25 137h4c1.23 5.415 1.23 5.415.063 8.375L28 147h-3z"/><path fill="#EEB325" d="M32 66c0 3.738-.99 4.585-3.312 7.438l-1.864 2.308L25 78l-1.605 2.285L22 82h-2c1.846-6.564 7.265-11.337 12-16"/><path fill="#F6B816" d="M26 169c1.529 2.293 2.898 4.512 4.188 6.938l1.105 2.027C32 180 32 180 31 184l-8-9 3-2z"/><path fill="#B98002" d="m59 52 2 1-8 8-1.625 1.688C49.741 64.248 48.052 65.08 46 66c2.483-6.094 8.034-9.958 13-14"/><path fill="#FDCE55" d="M189 20h2v2l4 2-1 6c-3.688-.498-5.605-1.1-8-4h5l1-3-3-1z"/><path fill="#B47E02" d="M195 51c5.083.154 7.358 3.02 10.645 6.504L207 59l-1 2c-4.827-2.413-7.7-5.86-11-10"/><path fill="#A67301" d="m157 29 10 3v2l4 2c-5.691-1.097-10.746-2.54-16-5z"/><path fill="#F0C250" d="M116 20v1c-10.389 3.67-10.389 3.67-15 4l-3-2c6.205-2.136 11.427-3.365 18-3"/><path fill="#E0AE3A" d="M229 139h2c1.354 2.709 1.065 5.01 1 8l-5 2c.458-3.47.891-6.674 2-10"/><path fill="#E2A205" d="M154 23c6.467 1.162 12.096 3.125 18 6-4.171 1.39-7.182-.098-11.187-1.437l-2.272-.737c-1.85-.6-3.696-1.212-5.541-1.826z"/><path fill="#FED876" d="M16 73c0 3 0 3-1.875 5.75C11.815 82.283 10.974 84.942 10 89H9c-.308-9.077-.308-9.077 2-13 2.063-1.25 2.063-1.25 4-2z"/><path fill="#D19309" d="M251 115h1c.054 1.583.093 3.166.125 4.75l.07 2.672c-.204 2.692-.83 4.277-2.195 6.578h-2c-.407-5.42.96-9.07 3-14"/><path fill="#EFD34F" d="m114 92 1 3 3 1a729 729 0 0 1-2.875 3.938l-1.617 2.214C112 104 112 104 110 105l1.438-4.812.808-2.708A215 215 0 0 1 114 92"/><path fill="#FEE9B1" d="M92 12c-4.263 4.13-7.288 4.613-13 5v-2c1.41-.702 2.828-1.386 4.25-2.062l2.39-1.16c2.62-.864 3.809-.708 6.36.222"/><path fill="#FED160" d="m201 214 1 2c-.89 2.129-.89 2.129-2.25 4.563l-1.328 2.44C197 225 197 225 194 226c.6-3.356 1.846-5.378 4-8l-2-1z"/><path fill="#FDC013" d="M191 219c-4.491 4.042-9.59 6.437-15 9 1.3-3.898 2.947-4.572 6.375-6.75l2.96-1.922C188 218 188 218 191 219"/><path fill="#F9DE83" d="M53 193c7.483 6.15 7.483 6.15 10 10l-3 1a415 415 0 0 1-3.5-3.812l-1.969-2.145C53 196 53 196 53 193"/><path fill="#F0BC2B" d="M36 156c2.733 2.172 4.729 3.858 5.555 7.336.232 2.227.391 4.426.445 6.664-2.792-1.396-3.002-3.004-4.125-5.875l-1.07-2.68C36 159 36 159 36 156"/><path fill="#D89803" d="M83 25h4c-1 3-1 3-2.707 4.203l-2.106 1.047-2.082 1.078C77.65 32.112 76.4 31.841 74 31c6.75-4 6.75-4 9-4z"/><path fill="#EBBE53" d="M19 133c2.365 2.365 2.367 3.259 2.688 6.5l.261 2.406C22 144 22 144 21 146a100 100 0 0 0 0 5c-2.376-3.704-2.205-6.93-2.125-11.25l.055-3.828z"/><path fill="#CC9614" d="M48 75c0 3.88-1.653 6.397-3.5 9.688l-1.012 1.837A835 835 0 0 1 41 91c-1-2-1-2-.363-4.242C44.109 78.057 44.109 78.057 48 75"/><path fill="#C88B03" d="M49 63c0 3.318-.453 4.07-2.312 6.688l-1.301 1.886L44 73h-3c1.76-5.011 3.617-7.078 8-10"/><path fill="#EBAD0F" d="M225 52c2.315 1.818 2.954 2.756 3.512 5.7l.175 2.987.2 3.012L229 66c-2-1-2-1-3.125-4.187-.792-3.45-1.046-6.297-.875-9.813"/><path fill="#F5DC9C" d="M101 24c-2.293 2.293-3.867 2.794-6.937 3.75l-2.653.86C89 29 89 29 86 27c5.36-2.257 9.198-3.363 15-3"/><path fill="#FCE5A9" d="M195 212c-3 2-3 2-6 2v2c-2.906 1.257-4.796 2-8 2v-2q1.904-.972 3.813-1.937l2.144-1.09c4.514-2.15 4.514-2.15 8.043-.973"/><path fill="#FDEEC9" d="m205 200 2 2c-3.221 2.761-6.015 4.57-10 6a259 259 0 0 0-4 2 244 244 0 0 1 2.75-3.437c.51-.639 1.02-1.277 1.547-1.934 1.93-1.847 3.14-2.092 5.703-2.629z"/><path fill="#8F6209" d="m180.688 81.813 3.011.082L186 82v2c-3.68 1.178-7.162 1.07-11 1h-3c2.585-3.36 4.577-3.333 8.688-3.187"/><path fill="#DEA920" d="m83 45-1 3c-2.066.95-2.066.95-4.562 1.688-.827.25-1.653.502-2.504.761L73 51c4.821-7.554 4.821-7.554 10-6"/><path fill="#FEE6A7" d="m67.25 18.75 2.703.11L72 19c-2.625 2.625-4.488 2.583-8.125 3.125l-3.32.508L58 23c2.994-3.554 4.603-4.495 9.25-4.25"/><path fill="#F3B102" d="M136 241v1c-.58.182-1.16.364-1.758.55-3.72 1.198-7.136 2.395-10.617 4.2C121 248 121 248 118 247c6.175-4.251 10.414-6.843 18-6"/><path fill="#C59217" d="m92 219 1.723.586c4.73 1.595 9.465 3.083 14.277 4.414v1c-6.303-.368-11.333-1.166-17-4z"/><path fill="#E2A106" d="m21 161 3 1c.984 2.434.984 2.434 1.75 5.438l.797 2.996C27 173 27 173 26 175q-1.259-2.653-2.5-5.312l-1.406-2.989C21 164 21 164 21 161"/><path fill="#D49A15" d="M230 129c2.6 3.9 2.15 7.474 2 12l-1-2h-2l-1 3q.214-2.126.438-4.25c.08-.789.162-1.578.246-2.39.292-2.184.737-4.237 1.316-6.36"/><path fill="#A27001" d="M102 30v2l-11 2v-3c7.429-2.429 7.429-2.429 11-1"/><path fill="#DAA427" d="M114.938 18.563C118 19 118 19 122 22l-13 1c3-4 3-4 5.938-4.437"/><path fill="#FDE493" d="M82.5 216.688c2.797 1.468 3.434 2.405 4.5 5.312-3.344-.557-6.033-1.352-9-3v-2c2-1 2-1 4.5-.312"/><path fill="#F9C329" d="m192 176 2 1c-2.279 4.72-4.211 7.606-9 10l-2-1z"/><path fill="#FABF1C" d="m227 169 1 2c-.996 2.602-.996 2.602-2.437 5.625l-1.434 3.04L223 182h-2c2.89-9.595 2.89-9.595 6-13"/><path fill="#F7E09E" d="M232 140h1c1.075 6.275.883 10.907-1 17h-2z"/><path fill="#FEC537" d="M230 87c3.11 2.545 4.001 5.159 5 9 .125 2.875.125 2.875 0 5-2-1-2-1-2.852-3.18l-.773-2.695c-.26-.884-.52-1.769-.79-2.68C230 90 230 90 230 87"/><path fill="#FCBA09" d="M202 209v2c-2.117 1.945-2.117 1.945-4.875 4.125l-2.742 2.195C192 219 192 219 190 219c1.198-3.593 2.468-4.42 5.438-6.687l2.433-1.887C200 209 200 209 202 209"/><path fill="#FDF4DC" d="m209 196 1 3-1.75.813c-2.283 1.204-4.224 2.595-6.25 4.187l-2-1a271 271 0 0 1 2.813-3.5l1.582-1.969C206 196 206 196 209 196"/><path fill="#D6980E" d="M233 149h2c.286 8.571.286 8.571-2 12h-1c-.082-4.161.018-7.947 1-12"/><path fill="#F8DF89" d="M200 198h1c.25 2.313.25 2.313 0 5-1.812 1.875-1.812 1.875-4 3l-3-1q1.464-1.755 2.938-3.5l1.652-1.969z"/><path fill="#F3CE6B" d="m29 152 1 3 3-1 2 5-7-1a100 100 0 0 1 0-5z"/><path fill="#F9BE28" d="m251 125 1 2a92 92 0 0 1-2.437 6.125l-1.434 3.32L247 139l-2-1c1.413-4.827 3.43-8.716 6-13"/><path fill="#E9A806" d="M3 161h2c3 5.75 3 5.75 3 8H4z"/><path fill="#E8C05E" d="M231 147c1.208 3.623.543 4.641-1 8l-1-3-3 1c.813-2.437.813-2.437 2-5z"/><path fill="#D29D18" d="M212 76c2.624 2.374 4.446 4.814 6 8-.422 2.16-.422 2.16-1 4a288 288 0 0 1-2.5-3.75l-1.406-2.11C212 80 212 80 212 76"/><path fill="#FEC944" d="m109 8-5 3 1 2-10-1c2.626-1.751 4.618-2.693 7.563-3.687l2.378-.825C107 7 107 7 109 8"/><path fill="#FBC621" d="M47 194a125 125 0 0 1 4 6l-3 1-5-6c2-1 2-1 4-1"/><path fill="#DA9A09" d="M24 136h1q.079 2.937.125 5.875l.07 3.305C25 148 25 148 23 150a129 129 0 0 1-1-6l1-1q.552-3.493 1-7"/><path fill="#FADB4A" d="M107 86c1.16 3.479.775 4.342-.437 7.688l-.872 2.449L105 98c-2.565-2.565-2.54-4.477-3-8l2 2z"/><path fill="#F3CF37" d="M168 86h2c1.625 2.5 1.625 2.5 3 5l-3 2-4-5h2z"/><path fill="#F8B706" d="M113 11h15c-4 3-4 3-6.797 2.855l-2.953-.668-2.984-.644L113 12z"/><path fill="#E7A604" d="M236 198c-8.262 4.592-8.262 4.592-13 4 3.948-3.34 7.882-5.706 13-4"/><path fill="#F2C742" d="m187 184 2 1a145 145 0 0 1-2.75 3.063l-1.547 1.722C183 191 183 191 180.797 190.684L179 190c2.366-2.615 4.86-4.39 8-6"/><path fill="#EDB82B" d="m67 54 2 1-8 9-3-1z"/><path fill="#FEC945" d="M222 187c0 2.962-.063 5.19-1 8-2.562 1.313-2.562 1.313-5 2l1.438-1.687c1.691-2.505 2.008-4.385 2.562-7.313z"/><path fill="#E9B945" d="m29 143 2 3-2 4-1-1-2 3v-8l2 2z"/><path fill="#FBC029" d="M225 49c3.092 2.53 3.91 5.225 5 9l-2 2-.875-2.937c-.767-3.17-.767-3.17-3.125-4.063z"/><path fill="#FEC525" d="M66 199h3v2h2l2 4c-2.375-.187-2.375-.187-5-1-1.312-2.562-1.312-2.562-2-5"/><path fill="#F7CF30" d="M184 84c0 3 0 3-1.312 4.387L178 92c0-3 0-3 1.313-4.387z"/><path fill="#E5A91C" d="M24 83c.934 3.01 1.044 3.867 0 7l-3 1c0-4.268.376-4.939 3-8"/><path fill="#FED876" d="m23 63-5 10c-1.056-3.168-1.13-3.985 0-7 2.464-3 2.464-3 5-3"/><path fill="#A36A03" d="m113 43 1 2c-3.375.625-3.375.625-7 1l-2-2c2.709-1.354 5.01-1.065 8-1"/><path fill="#DAA41D" d="M92.438 39.25 94 40c-6.4 4.062-6.4 4.062-9.437 3.75L83 43c6.4-4.062 6.4-4.062 9.438-3.75"/><path fill="#F2B003" d="M25 189c2.9 2.395 3.502 4.312 4 8l-5-3z"/><path fill="#AD770C" d="M208 149c1.563 1.688 1.563 1.688 3 4-.312 2.75-.312 2.75-1 5-1.562-1.125-1.562-1.125-3-3 .313-3.187.313-3.187 1-6"/><path fill="#AC760D" d="m108 46-2 2c-2.562-.25-2.562-.25-5-1l-1-2c3.623-1.208 4.641-.543 8 1"/><path fill="#FED879" d="M113 4c-2.938 2.503-5.179 3.47-9 4V5c3.196-1.065 5.657-1.074 9-1"/><path fill="#EBB023" d="m242 136 3 2-1 7h-2z"/><path fill="#E0A317" d="M32 68c1 3 1 3 .063 5.188L31 75h-3c1.074-2.915 1.778-4.778 4-7"/><path fill="#C48903" d="M204 59c3 1.75 3 1.75 6 4v4c-4.875-4.625-4.875-4.625-6-8"/><path fill="#FDCD4F" d="M28 59c-1.37 3.161-1.99 3.993-5 6l-1-3c2.625-3 2.625-3 6-3"/><path fill="#DA9D11" d="M71 235v2l2 1H63c1.769-3.538 4.296-3 8-3"/><path fill="#E9AB07" d="m38 70 2 4-4 4c.875-6.875.875-6.875 2-8"/><path fill="#ECB634" d="m47 53 2 2-2 5-2-1c.875-4.875.875-4.875 2-6"/></svg>