<svg xmlns="http://www.w3.org/2000/svg" width="32" height="32" viewBox="0 0 32 32"><path d="M16 0c8.836 0 16 7.164 16 16s-7.164 16-16 16S0 24.836 0 16 7.164 0 16 0zm0 0" fill-rule="evenodd" fill="#f0b90b"/><path d="M8.793 16l.012 4.23 3.593 2.118v2.476L6.703 21.48v-6.718zm0-4.23v2.464l-2.094-1.238v-2.465l2.094-1.238 2.105 1.238zm5.11-1.239l2.093-1.238 2.102 1.238-2.102 1.239zm0 0" fill="#fff"/><path d="M10.305 19.355v-2.48l2.093 1.242v2.465zm3.597 3.88l2.094 1.238 2.102-1.239V25.7l-2.102 1.238-2.094-1.238zm7.2-12.704l2.093-1.238 2.102 1.238v2.465l-2.102 1.238V11.77zm2.093 9.7L23.207 16l2.094-1.238v6.718l-5.7 3.34v-2.476zm0 0" fill="#fff"/><path d="M21.695 19.355l-2.093 1.227v-2.465l2.093-1.242zm0 0" fill="#fff"/><path d="M21.695 12.645l.012 2.48-3.605 2.113v4.242l-2.094 1.227-2.094-1.227v-4.242l-3.605-2.113v-2.48l2.101-1.239 3.582 2.13 3.606-2.13 2.105 1.239zm-11.39-4.227l5.691-3.355 5.7 3.355-2.094 1.238-3.606-2.125-3.598 2.125zm0 0" fill="#fff"/></svg>