<svg xmlns="http://www.w3.org/2000/svg" width="64" height="65" fill="none" viewBox="0 0 64 65"><rect width="64" height="64" y=".304" fill="#C0973D" rx="32"/><rect width="63" height="63" x=".5" y=".804" stroke="#070B14" stroke-opacity=".15" rx="31.5"/><path fill="#000" d="M42.555 42.484c.61.639 1.226 1.292 1.855 1.931.247.251.203.433-.04.657-2.409 2.226-5.192 3.685-8.422 4.356a17.5 17.5 0 0 1-6.082.194c-3.621-.517-6.823-2.035-9.53-4.543-2.256-2.09-3.897-4.58-4.825-7.507a17.2 17.2 0 0 1-.496-8.574c1.145-5.932 4.483-10.195 9.877-12.843 1.918-.94 3.966-1.438 6.127-1.573 5.17-.326 9.604 1.315 13.41 4.77.11.098.201.217.362.394-.676.663-1.316 1.323-2.004 1.928-.105.094-.472 0-.649-.113-1.325-.85-2.564-1.86-3.96-2.562-2.253-1.131-4.693-1.427-7.223-1.195-3.326.306-6.16 1.657-8.568 3.898-2.102 1.956-3.498 4.361-4.153 7.179-.542 2.333-.55 4.684.103 6.967 1.29 4.514 4.1 7.763 8.428 9.68 1.694.75 3.48 1.105 5.29 1.109 3.92.01 7.374-1.297 10.23-4.043.03-.028.08-.035.27-.112z"/><path fill="#000" d="M48.97 49.152c-1.435 1.541-3.048 2.708-4.775 3.724a22.4 22.4 0 0 1-7.16 2.708c-2.884.552-5.802.61-8.712.119-6.21-1.051-11.211-4.113-15.055-9.09-2.255-2.92-3.618-6.238-4.418-9.811a1 1 0 0 1-.02-.13c-.125-1.615-.053-1.174-1.622-1.366-.866-.106-1.757-.033-2.635-.01-.43.01-.576-.145-.573-.577.01-1.477-.004-1.48 1.492-1.483 2.22-.004 4.44.006 6.66-.013.49-.004.695.141.743.662.567 6.134 3.5 10.895 8.517 14.384 2.75 1.912 5.823 2.97 9.178 3.273 5.733.52 10.648-1.294 14.92-5.046.115-.102.23-.204.35-.298.03-.024.08-.026-.064.153zm.251-33.735-3.037 2.97c-.801-.66-1.575-1.376-2.423-1.988-4.11-2.964-8.7-4.198-13.732-3.567-6.952.872-11.97 4.574-15.232 10.7-1.11 2.087-1.711 4.355-1.884 6.722-.026.366-.112.556-.54.55a433 433 0 0 0-7.518-.049c-.55.001-.77-.145-.687-.711.062-.43-.087-.976.13-1.268.153-.205.764-.081 1.17-.083.9-.005 1.8-.01 2.696.012.434.01.593-.14.673-.587.825-4.597 2.729-8.666 5.945-12.1 2.266-2.42 4.856-4.37 7.907-5.7 3.821-1.668 7.823-2.315 11.95-1.885 5.571.58 10.423 2.796 14.43 6.76.045.046.073.106.15.224z"/><path fill="#000" d="M40.231 24.42c-1.398-1.338-2.829-2.259-4.485-2.786-1.933-.617-3.892-.75-5.884-.277-3.783.896-6.34 3.223-7.913 6.716-.258.573-.114.787.543.788 3.034.001 6.067-.01 9.1.002 4.724.019 9.447.057 14.17.08 4.045.02 13.05.088 13.5.052.74-.059.75.447.735.994-.034 1.224.214 1.17-1.165 1.164-8.746-.04-17.49-.075-26.234-.128-4.17-.025-8.341-.088-12.512-.129-.858-.01-.838.003-.712-.885.423-2.942 1.762-5.432 3.923-7.408 3.616-3.306 7.85-4.369 12.62-3.088 2.03.546 3.788 1.584 5.349 2.985.277.25.342.402.068.682-.366.377-.7.785-1.1 1.239zm1.278 17.192c-3.4 3.037-7.217 4.314-11.587 3.46-5.304-1.038-8.739-4.223-10.27-9.42-.167-.562-.242-1.152-.371-1.727-.106-.47.07-.619.545-.614 1.847.024 3.694.015 5.542.019 6.86.014 13.72.018 20.58.046 4.44.017 8.88.074 13.32.096.465.003.645.16.604.615-.042.476.09 1.064-.147 1.392-.153.21-.832.04-1.277.04q-1.089.001-2.177-.005c-7.121-.033-14.244-.071-21.365-.1-4.131-.017-8.262-.02-12.392-.028-.832-.001-.867.104-.526.877.892 2.015 2.156 3.736 3.99 4.97 3.06 2.064 6.358 2.574 9.895 1.391a10.6 10.6 0 0 0 3.769-2.219c.283-.254.48-.323.753.008.331.4.706.763 1.116 1.2z"/></svg>