<svg width="32" height="32" viewBox="0 0 32 32" fill="none" xmlns="http://www.w3.org/2000/svg"><path d="M8.97 31.738c8.044 0 8.044-.12 9.408-.525 1.782-.529-5.032-5.246-9.407-5.246s-7.922 1.292-7.922 2.886c0 1.593 3.547 2.885 7.922 2.885z" fill="#000"/><path d="M27.235 7.202l.37.399-.324.437C16.791 22.221 10.75 28.643 8.185 27.782c-1.562-.525-3.128-2.102-4.694-4.393a32.372 32.372 0 01-1.538-2.498 27.2 27.2 0 01-.716-1.363 3.398 3.398 0 01-.308-.893L.922 18.6a3.051 3.051 0 00-.051-.235 14.314 14.314 0 01-.478-3.676C.393 6.794 6.793.393 14.688.393c2.474 0 4.857.63 6.97 1.812l.054.034c1.73 1.204 3.57 2.858 5.523 4.963zM20.99 3.334a12.92 12.92 0 00-6.301-1.63c-7.171 0-12.984 5.814-12.984 12.985 0 1.139.147 2.259.433 3.339a4.125 4.125 0 01.078.353c.037.193.078.315.205.583a31.191 31.191 0 002.152 3.684c1.415 2.07 2.819 3.484 4.03 3.89 1.614.543 7.692-5.892 17.298-18.84-1.744-1.841-3.382-3.296-4.912-4.364z" fill="#000"/><path d="M20.99 3.334a12.92 12.92 0 00-6.301-1.63c-7.171 0-12.984 5.814-12.984 12.985 0 1.139.147 2.259.433 3.339a4.125 4.125 0 01.078.353c.037.193.078.315.205.583a31.191 31.191 0 002.152 3.684c1.415 2.07 2.819 3.484 4.03 3.89 1.614.543 7.692-5.892 17.298-18.84-1.744-1.841-3.382-3.296-4.912-4.364z" fill="#EC1C79"/><path d="M17.311 31.607c-7.894 0-14.295-6.4-14.295-14.296 0-7.894 6.4-14.295 14.295-14.295s14.296 6.4 14.296 14.295-6.4 14.296-14.296 14.296zm0-1.312c7.171 0 12.984-5.813 12.984-12.984 0-7.17-5.813-12.983-12.984-12.983-7.17 0-12.983 5.813-12.983 12.983 0 7.171 5.813 12.984 12.983 12.984z" fill="#000"/><path d="M17.311 30.295c7.171 0 12.984-5.813 12.984-12.984 0-7.17-5.813-12.983-12.984-12.983-7.17 0-12.983 5.813-12.983 12.983 0 7.171 5.813 12.984 12.983 12.984z" fill="#fff"/><path fill-rule="evenodd" clip-rule="evenodd" d="M7.6 19.971l-1.72-5.178h1.506l.896 2.975.992-2.99H10.5l.992 2.99.896-2.975h1.476l-1.719 5.178h-1.24l-1.036-2.96-1.029 2.96H7.6zm6.83-.037v-5.14h4.134v1.211H15.84v.779h2.468v1.123H15.84v.816h2.76v1.211h-4.17zm6.154 0v-3.892h-1.542v-1.249h4.509v1.249h-1.542v3.892h-1.425zm3.591 0v-5.14H25.6v1.924h1.829v-1.925h1.425v5.141h-1.425v-1.953H25.6v1.953h-1.425z" fill="#000"/><path d="M1.245 13.247a.734.734 0 01.657-1.314l2.099 1.05a.734.734 0 11-.657 1.313l-2.099-1.049zm-.241 3.479a.734.734 0 01.615-1.333l2.099.968a.734.734 0 01-.616 1.334l-2.098-.969z" fill="#000"/></svg>