<svg id="svg" version="1.1" xmlns="http://www.w3.org/2000/svg" xmlns:xlink="http://www.w3.org/1999/xlink" width="400" height="400" viewBox="0, 0, 400,400"><g id="svgg"><path id="path0" d="M22.667 78.667 C 22.138 79.196,22.361 90.800,22.900 90.801 C 23.175 90.802,23.735 91.618,24.145 92.614 C 24.862 94.358,26.356 95.600,27.736 95.600 C 28.173 95.600,28.349 96.324,28.464 98.593 C 28.654 102.352,29.115 102.885,32.388 103.122 L 34.800 103.296 34.800 108.820 C 34.800 115.473,34.870 115.600,38.567 115.600 L 41.077 115.600 41.336 120.422 C 41.671 126.641,42.302 127.600,46.060 127.600 C 47.196 127.600,47.200 127.608,47.200 130.200 C 47.200 133.687,47.877 134.400,51.190 134.400 L 53.579 134.400 53.690 140.500 L 53.800 146.600 56.700 146.718 L 59.600 146.835 59.610 150.918 C 59.626 157.907,59.811 158.302,63.347 158.908 L 65.969 159.357 66.085 162.379 L 66.200 165.400 69.300 165.517 L 72.400 165.634 72.400 171.817 L 72.400 178.000 73.392 178.000 C 74.145 178.000,74.448 178.266,74.646 179.100 C 74.981 180.508,75.769 181.407,77.180 181.992 C 78.262 182.440,78.309 182.579,78.480 185.843 C 78.697 189.965,79.033 190.388,82.331 190.687 L 84.767 190.908 84.884 193.754 L 85.000 196.600 88.000 196.800 L 91.000 197.000 91.236 204.407 C 91.525 213.471,91.741 214.009,95.486 214.964 C 97.070 215.368,97.460 215.654,97.753 216.626 C 98.598 219.423,98.982 220.074,100.147 220.676 C 102.802 222.049,107.768 221.069,108.170 219.093 C 108.270 218.602,108.481 217.660,108.639 217.000 C 108.798 216.340,108.997 212.972,109.083 209.516 L 109.238 203.233 112.319 203.116 L 115.400 203.000 115.516 199.954 L 115.632 196.908 118.068 196.687 C 121.664 196.361,121.774 196.165,121.939 189.803 L 122.078 184.433 124.939 184.317 L 127.800 184.200 127.910 178.100 L 128.021 172.000 130.761 172.000 C 134.570 172.000,134.435 172.369,134.308 162.349 L 134.200 153.800 131.100 153.683 L 128.000 153.566 128.000 147.383 C 128.000 142.404,127.893 141.200,127.450 141.200 C 127.147 141.200,126.789 140.643,126.652 139.963 C 126.352 138.461,123.994 136.000,122.855 136.000 C 122.089 136.000,122.022 135.734,121.915 132.300 L 121.800 128.600 118.700 128.483 L 115.600 128.366 115.600 125.383 C 115.600 123.119,115.468 122.400,115.050 122.400 C 114.748 122.400,114.390 121.848,114.255 121.174 C 113.941 119.604,112.001 117.660,110.435 117.347 L 109.219 117.104 109.109 110.452 L 109.000 103.800 106.117 103.683 L 103.233 103.566 103.117 100.483 L 103.000 97.400 99.910 97.283 L 96.821 97.167 96.710 91.083 L 96.600 85.000 93.800 84.800 L 91.000 84.600 90.883 81.500 L 90.766 78.400 56.850 78.400 C 38.196 78.400,22.813 78.520,22.667 78.667 M141.615 79.172 C 141.076 80.179,141.075 89.019,141.614 90.026 C 141.957 90.668,142.467 90.800,144.597 90.800 L 147.165 90.800 147.282 93.700 L 147.400 96.600 150.500 96.717 L 153.600 96.834 153.600 102.603 C 153.600 109.260,153.566 109.200,157.374 109.200 L 159.600 109.200 159.600 115.120 C 159.600 122.079,159.558 122.000,163.262 122.000 L 165.965 122.000 166.082 124.900 L 166.200 127.800 169.300 127.917 L 172.400 128.034 172.400 133.937 C 172.400 140.828,172.386 140.800,175.870 140.800 L 178.379 140.800 178.490 146.900 L 178.600 153.000 181.700 153.117 L 184.800 153.234 184.800 159.817 L 184.800 166.400 183.587 166.400 C 179.812 166.400,178.864 167.939,178.517 174.632 L 178.288 179.064 176.586 179.519 C 174.865 179.979,173.200 182.246,173.200 184.126 C 173.200 184.497,173.020 184.800,172.800 184.800 C 172.567 184.800,172.400 186.118,172.400 187.955 L 172.400 191.110 169.621 191.267 C 166.227 191.459,166.247 191.440,166.000 194.732 L 165.800 197.400 164.400 197.514 C 160.243 197.854,159.936 198.558,159.691 208.284 L 159.497 215.967 156.649 216.084 L 153.800 216.200 153.683 219.300 L 153.566 222.400 151.183 222.400 C 147.421 222.400,147.200 222.788,147.200 229.382 L 147.200 234.765 144.300 234.882 L 141.400 235.000 141.290 241.100 L 141.179 247.200 138.470 247.200 C 135.081 247.200,134.800 247.478,134.800 250.833 L 134.800 253.507 132.201 253.672 C 128.419 253.913,128.617 253.266,128.482 265.856 C 128.344 278.652,128.154 278.000,132.032 278.000 L 134.766 278.000 134.883 281.100 L 135.000 284.200 138.090 284.317 L 141.179 284.433 141.290 290.517 L 141.400 296.600 144.290 296.717 L 147.179 296.835 147.290 302.917 L 147.400 309.000 150.483 309.117 L 153.567 309.233 153.683 312.317 L 153.800 315.400 162.800 315.400 L 171.800 315.400 171.917 312.300 L 172.034 309.200 174.537 309.200 C 178.002 309.200,178.000 309.205,178.000 302.537 L 178.000 296.834 181.100 296.717 L 184.200 296.600 184.310 290.517 L 184.421 284.433 187.510 284.317 L 190.600 284.200 190.717 281.100 L 190.834 278.000 193.337 278.000 C 196.802 278.000,196.800 278.005,196.800 271.337 L 196.800 265.634 199.900 265.517 L 203.000 265.400 203.110 259.317 L 203.221 253.235 206.110 253.117 L 209.000 253.000 209.110 246.917 L 209.221 240.833 212.310 240.717 L 215.400 240.600 215.517 237.517 L 215.633 234.433 218.717 234.317 L 221.800 234.200 221.910 228.117 L 222.021 222.035 224.910 221.917 L 227.800 221.800 227.910 215.517 L 228.020 209.233 231.110 209.117 L 234.200 209.000 234.317 206.117 L 234.434 203.233 237.517 203.117 L 240.600 203.000 240.710 196.700 L 240.820 190.400 241.823 190.400 C 245.345 190.400,246.330 188.762,246.683 182.316 L 246.918 178.032 249.959 177.916 L 253.000 177.800 253.117 174.949 L 253.233 172.099 255.221 171.835 C 256.315 171.690,257.468 171.472,257.784 171.351 C 258.772 170.972,259.225 167.227,259.110 160.387 L 259.000 153.800 256.100 153.682 L 253.200 153.565 253.200 147.625 C 253.200 140.826,253.422 141.200,249.384 141.200 L 246.834 141.200 246.717 138.100 L 246.600 135.000 243.710 134.883 L 240.821 134.765 240.710 128.683 L 240.600 122.600 237.510 122.483 L 234.420 122.367 234.310 116.083 L 234.200 109.800 231.117 109.683 L 228.034 109.567 227.917 106.683 L 227.800 103.800 224.910 103.683 L 222.021 103.565 221.910 97.483 L 221.800 91.400 218.710 91.283 L 215.620 91.167 215.510 84.883 L 215.400 78.600 178.715 78.498 C 142.767 78.398,142.022 78.411,141.615 79.172 M266.177 78.917 C 266.066 79.204,266.027 81.950,266.088 85.019 L 266.200 90.600 269.290 90.717 L 272.379 90.833 272.490 96.917 L 272.600 103.000 275.500 103.118 L 278.400 103.235 278.417 106.718 C 278.451 113.477,279.156 114.879,282.760 115.357 L 284.767 115.623 284.883 118.712 L 285.000 121.800 288.100 121.917 L 291.200 122.034 291.200 128.217 C 291.200 133.838,291.264 134.400,291.900 134.401 C 292.299 134.402,292.944 135.046,293.401 135.901 C 293.852 136.747,294.848 137.746,295.687 138.196 L 297.173 138.992 297.287 142.796 L 297.400 146.600 300.490 146.717 L 303.579 146.833 303.690 152.917 L 303.800 159.000 306.800 159.218 L 309.800 159.436 306.800 159.618 L 303.800 159.800 303.691 166.700 C 303.598 172.551,303.489 173.600,302.975 173.600 C 301.010 173.600,298.400 176.007,298.400 177.819 C 298.400 178.138,298.130 178.400,297.800 178.400 C 297.317 178.400,297.200 179.020,297.200 181.582 L 297.200 184.765 294.300 184.882 L 291.400 185.000 291.290 191.083 L 291.179 197.167 288.090 197.283 L 285.000 197.400 284.800 203.400 L 284.600 209.400 281.600 209.600 L 278.600 209.800 278.483 212.883 L 278.367 215.966 275.483 216.083 L 272.600 216.200 272.490 222.300 L 272.379 228.400 271.090 228.402 C 267.071 228.409,266.008 229.662,266.001 234.400 C 265.998 236.531,265.951 236.625,264.499 237.401 C 263.647 237.856,262.656 238.847,262.201 239.699 C 261.640 240.749,261.130 241.198,260.500 241.199 C 259.648 241.200,259.600 241.358,259.600 244.152 L 259.600 247.104 257.194 247.278 C 253.565 247.540,253.814 246.238,253.688 265.607 C 253.557 285.520,253.336 284.400,257.400 284.400 L 259.600 284.400 259.600 287.600 C 259.600 289.360,259.752 290.800,259.937 290.800 C 260.122 290.800,260.486 291.510,260.746 292.379 C 261.292 294.200,262.714 295.472,264.597 295.826 L 265.914 296.073 266.070 298.835 C 266.268 302.335,266.774 302.889,269.988 303.122 L 272.400 303.296 272.400 308.820 C 272.400 315.427,272.492 315.600,276.012 315.600 L 278.366 315.600 278.483 318.700 L 278.600 321.800 284.600 321.800 L 290.600 321.800 290.715 318.359 L 290.829 314.918 292.393 314.449 C 294.214 313.904,295.474 312.480,295.834 310.559 C 295.974 309.812,296.249 309.200,296.445 309.200 C 296.640 309.200,296.800 306.418,296.800 303.017 L 296.800 296.834 299.900 296.717 L 303.000 296.600 303.117 293.717 L 303.234 290.834 306.117 290.717 L 309.000 290.600 309.110 284.317 L 309.220 278.033 312.310 277.917 L 315.400 277.800 315.510 271.717 L 315.621 265.633 318.710 265.517 L 321.800 265.400 321.917 262.317 L 322.033 259.234 324.917 259.117 L 327.800 259.000 327.910 252.912 L 328.021 246.825 330.033 246.558 C 333.645 246.079,334.349 244.680,334.383 237.917 L 334.400 234.434 337.500 234.317 L 340.600 234.200 340.716 231.154 L 340.832 228.109 343.079 227.877 C 346.443 227.529,346.577 227.280,346.738 221.027 L 346.876 215.683 348.994 215.418 C 352.644 214.962,353.174 213.914,353.190 207.118 L 353.200 203.235 356.100 203.118 L 359.000 203.000 359.116 199.947 L 359.232 196.894 361.628 196.721 C 365.237 196.459,365.375 196.215,365.531 189.787 L 365.662 184.400 366.931 184.398 C 371.310 184.390,371.994 183.297,371.998 176.300 L 372.000 172.000 374.520 172.000 C 375.947 172.000,377.248 171.792,377.520 171.520 C 378.095 170.945,378.216 153.600,377.645 153.600 C 377.449 153.600,377.172 152.975,377.029 152.212 C 376.668 150.287,375.042 148.482,373.391 148.172 L 372.031 147.917 371.916 144.658 L 371.800 141.400 368.710 141.283 L 365.620 141.167 365.510 134.883 L 365.400 128.600 362.300 128.483 L 359.200 128.366 359.200 125.038 C 359.200 118.141,358.537 116.680,355.209 116.239 L 353.233 115.977 353.117 112.888 L 353.000 109.800 349.900 109.683 L 346.800 109.566 346.800 103.383 L 346.800 97.200 345.874 97.200 C 345.211 97.200,344.760 96.806,344.286 95.812 C 343.922 95.048,342.991 94.013,342.217 93.512 C 340.919 92.671,340.809 92.445,340.803 90.600 C 340.786 86.073,339.678 84.809,335.717 84.802 L 334.434 84.800 334.317 81.700 L 334.200 78.600 300.288 78.498 C 272.709 78.415,266.339 78.493,266.177 78.917 " stroke="none" fill="#040404" fill-rule="evenodd"></path><path id="path1" d="" stroke="none" fill="#080404" fill-rule="evenodd"></path><path id="path2" d="" stroke="none" fill="#080404" fill-rule="evenodd"></path><path id="path3" d="" stroke="none" fill="#080404" fill-rule="evenodd"></path><path id="path4" d="" stroke="none" fill="#080404" fill-rule="evenodd"></path></g></svg>