<?xml version="1.0" encoding="UTF-8"?>
<svg version="1.1" xmlns="http://www.w3.org/2000/svg" viewBox="0 0 329 308" width="329" height="308">
<path d="M0 0 C0.63550781 0.44988281 1.27101563 0.89976563 1.92578125 1.36328125 C15.33092228 11.81004633 22.78821214 28.52218047 25 45 C25.80834894 55.03699928 25.1383267 62.38810373 18.75 70.3125 C13.79684367 75.55398976 9.20539252 77.14137506 2.0625 77.4375 C-4.45461959 77.2422305 -8.97880923 75.84585381 -13.75 71.3515625 C-19.42051284 65.10854596 -20.41216065 59.00378706 -21.12304688 50.79492188 C-21.55754623 46.62607671 -22.22774533 44.14994604 -25 41 C-25 40.34 -25 39.68 -25 39 C-25.78375 38.690625 -26.5675 38.38125 -27.375 38.0625 C-30 37 -30 37 -32 36 C-36.82214705 35.86497988 -40.26834081 36.5393257 -44.375 39.125 C-48.11614671 43.2224464 -49.75095893 46.80013717 -50.375 52.3125 C-49.47007216 61.2109571 -46.40950228 67.94079135 -41 75 C-40.48566406 75.6909375 -39.97132813 76.381875 -39.44140625 77.09375 C-33.57380356 84.41066463 -25.95244658 89.29191777 -17 92 C-16.375 95.375 -16.375 95.375 -16 99 C-18 101 -18 101 -21.4375 101.5 C-32.08797515 101.15395568 -41.08654813 92.26881622 -48 85 C-57.78194323 73.28012462 -62.18062177 61.18410771 -61 46 C-59.00838914 37.88202095 -54.98294485 31.63115596 -47.8125 27.1875 C-41.1937944 23.80144035 -35.004464 23.24271517 -27.8125 25.0625 C-20.40611056 27.65125367 -15.6007973 32.31528889 -11.98828125 39.234375 C-10.33621096 43.85755984 -9.96858459 48.58845167 -9.5546875 53.44921875 C-8.96740752 57.2086378 -7.96802118 59.75799409 -6 63 C-2.56846736 65.41767072 -0.64356091 66.01129054 3.5625 65.9375 C7.39773733 64.89152618 9.27430997 63.88144374 12 61 C15.80436745 51.82017821 13.55457625 41.95262812 10.21875 32.91015625 C4.01977867 18.10812535 -5.19814458 8.81309714 -19.8125 2.1875 C-32.61555979 -2.58226737 -45.77829024 0.06492541 -58.01171875 5.28515625 C-71.8585119 12.21820889 -78.72045724 23.45766474 -83.94140625 37.5390625 C-87.97427216 52.59885549 -84.03067773 67.13912016 -76.62109375 80.28515625 C-75.4649226 82.22139468 -74.25093823 84.12359265 -73 86 C-73.54054054 90.54054054 -73.54054054 90.54054054 -75 92 C-78.125 92.6875 -78.125 92.6875 -82 92 C-91.4391313 82.74085214 -96.15561305 67.54576939 -96.38037109 54.59130859 C-96.33916618 34.23233709 -90.53467128 18.21454542 -76.40820312 3.36083984 C-73.02959133 0.09586374 -69.20416846 -1.98959545 -65 -4 C-64.17242187 -4.44730469 -63.34484375 -4.89460938 -62.4921875 -5.35546875 C-41.75904545 -15.9077097 -18.67368491 -13.44861569 0 0 Z " fill="#A79EC3" transform="translate(200,127)"/>
<path d="M0 0 C0.55042969 0.39574219 1.10085937 0.79148438 1.66796875 1.19921875 C9.75610327 7.43047471 15.35445238 16.93224045 17 27 C17.30238644 31.02369048 17.48879949 34.98803532 17 39 C16.01 39.99 16.01 39.99 15 41 C11.375 40.625 11.375 40.625 8 40 C7.90203125 39.40574219 7.8040625 38.81148437 7.703125 38.19921875 C5.67861202 26.97713387 2.80019097 16.39612009 -6.625 9.3125 C-13.76239306 4.59261104 -20.69825183 2.07564122 -29.29296875 3.375 C-39.53555191 5.73980996 -47.126933 9.01002274 -53 18 C-58.21290481 26.65847153 -58.5455072 36.74674967 -56.15234375 46.4296875 C-52.04990518 58.02776805 -44.83949179 67.45253306 -36.58984375 76.4296875 C-35 79 -35 79 -35.19140625 82.2578125 C-36 85 -36 85 -37 86 C-39.5625 86.5625 -39.5625 86.5625 -43 86 C-55.09588132 77.65979918 -65.25088735 58.63732267 -68.375 44.75 C-70.43874685 31.51648926 -67.56445378 19.41306786 -60.19921875 8.27734375 C-54.60669511 0.68091767 -48.82297556 -2.87072442 -40 -6 C-38.96939453 -6.39638672 -38.96939453 -6.39638672 -37.91796875 -6.80078125 C-25.0386303 -10.9255367 -10.57329324 -8.17027205 0 0 Z " fill="#FEFEFE" transform="translate(190,142)"/>
<path d="M0 0 C2.39071079 2.13164137 4.46928226 4.16783502 6 7 C5.94203558 9.66636347 5.90716809 11.09283191 4 13 C0.23256957 13.62790507 -1.84757974 13.76900224 -5.078125 11.61328125 C-6.56813534 10.37785901 -8.05222881 9.13527602 -9.53125 7.88671875 C-18.94684009 0.69094341 -29.46304915 -0.88745776 -41 0 C-54.3100719 2.54564217 -66.65539539 8.00583115 -75 19 C-83.7824895 33.17484704 -87.51010306 47.39035239 -83.9375 64.0625 C-81.71700578 72.00503702 -77.5526948 79.1709578 -73 86 C-73.54054054 90.54054054 -73.54054054 90.54054054 -75 92 C-78.125 92.6875 -78.125 92.6875 -82 92 C-91.4391313 82.74085214 -96.15561305 67.54576939 -96.38037109 54.59130859 C-96.33916618 34.23233709 -90.53467128 18.21454542 -76.40820312 3.36083984 C-73.02959133 0.09586374 -69.20416846 -1.98959545 -65 -4 C-64.17242187 -4.44730469 -63.34484375 -4.89460938 -62.4921875 -5.35546875 C-42.16794254 -15.69959939 -18.13936958 -13.91073841 0 0 Z " fill="#FEFEFE" transform="translate(200,127)"/>
<path d="M0 0 C1.13856445 0.00829834 2.27712891 0.01659668 3.45019531 0.02514648 C26.06043829 0.47754454 43.72621471 10.3013419 59.26953125 26.33984375 C62.58506308 29.96599567 64.97915329 32.63182852 65.5625 37.6875 C65.1875 40.4375 65.1875 40.4375 63.1875 42.4375 C60.30859375 42.84765625 60.30859375 42.84765625 57.1875 42.4375 C55.09765625 40.49609375 55.09765625 40.49609375 53.25 37.875 C52.56421875 36.95847656 51.8784375 36.04195312 51.171875 35.09765625 C50.18960938 33.78087891 50.18960938 33.78087891 49.1875 32.4375 C39.83493221 21.1553976 24.61779389 13.56517837 10.1875 11.4375 C-7.8998425 10.03853989 -24.72999041 12.95337957 -39.35546875 24.43359375 C-42.96569292 27.57364919 -46.33140883 30.83248149 -49.44921875 34.4609375 C-49.8867749 34.9660083 -50.32433105 35.4710791 -50.77514648 35.99145508 C-52.00009254 37.42686977 -53.19622767 38.88672395 -54.390625 40.34765625 C-56.8125 42.4375 -56.8125 42.4375 -59.984375 42.93359375 C-60.91765625 42.76988281 -61.8509375 42.60617188 -62.8125 42.4375 C-64.8125 39.4375 -64.8125 39.4375 -64.73828125 36.64453125 C-63.60659932 32.72423223 -61.6457016 30.13240622 -59 27.125 C-58.50717529 26.55885986 -58.01435059 25.99271973 -57.5065918 25.40942383 C-50.4309745 17.52688887 -42.17459882 11.89956575 -32.8125 7.0625 C-32.19673096 6.74047607 -31.58096191 6.41845215 -30.9465332 6.08666992 C-21.06467085 1.24754101 -10.90007536 -0.10321425 0 0 Z " fill="#A79EC3" transform="translate(163.8125,97.5625)"/>
<path d="M0 0 C2.0390625 1.76171875 2.0390625 1.76171875 4.0390625 4.76171875 C3.7149256 8.08412199 3.43129947 9.36948178 1.0390625 11.76171875 C-2.3422541 12.32142474 -3.67060126 11.95513005 -6.546875 10.0390625 C-7.46726562 9.26691406 -8.38765625 8.49476562 -9.3359375 7.69921875 C-25.52799715 -5.19010994 -44.58504356 -9.17501435 -64.9609375 -7.23828125 C-78.89916329 -4.94999772 -90.51024756 1.50101961 -101.453125 10.22265625 C-104.27899778 11.95691462 -105.70691692 12.25809477 -108.9609375 11.76171875 C-110.9609375 9.76171875 -110.9609375 9.76171875 -111.3203125 6.8828125 C-110.77011734 2.10448713 -108.29210189 0.70804112 -104.70703125 -2.22265625 C-72.15608462 -26.11495847 -31.61714297 -23.54569711 0 0 Z " fill="#A79EC3" transform="translate(217.9609375,98.23828125)"/>
<path d="M0 0 C1.5 3 1.5 3 3 6 C5.31 6 7.62 6 10 6 C8.700625 7.423125 8.700625 7.423125 7.375 8.875 C-3.64570007 21.81912413 -7.94358862 36.19344051 -7 53 C-5.57790132 63.43742148 -0.78883148 72.31675279 5 81 C4.45945946 85.54054054 4.45945946 85.54054054 3 87 C-0.125 87.6875 -0.125 87.6875 -4 87 C-13.4391313 77.74085214 -18.15561305 62.54576939 -18.38037109 49.59130859 C-18.34021525 29.75067071 -12.97594275 15.1825117 0 0 Z " fill="#A79EC3" transform="translate(122,132)"/>
<path d="M0 0 C0.53625 0.825 1.0725 1.65 1.625 2.5 C3.80271869 5.33951208 3.80271869 5.33951208 7.25 5.3125 C8.1575 5.209375 9.065 5.10625 10 5 C9.61328125 5.46148437 9.2265625 5.92296875 8.828125 6.3984375 C1.83769591 15.15377691 -0.79354147 22.90426711 -0.44140625 34.1953125 C1.27130393 48.95796483 10.65172901 60.81070012 20.41015625 71.4296875 C22 74 22 74 21.80859375 77.2578125 C21 80 21 80 20 81 C17.4375 81.5625 17.4375 81.5625 14 81 C1.90411868 72.65979918 -8.25088735 53.63732267 -11.375 39.75 C-13.20136714 28.03865606 -11.44840336 16.1460892 -5 6 C-3.41754833 3.89307863 -1.76580502 1.96200558 0 0 Z " fill="#A79EC3" transform="translate(133,147)"/>
<path d="M0 0 C0.66 0 1.32 0 2 0 C2.66 1.98 3.32 3.96 4 6 C5.65 6.33 7.3 6.66 9 7 C8.57847656 7.61488281 8.15695313 8.22976562 7.72265625 8.86328125 C6.90087891 10.07564453 6.90087891 10.07564453 6.0625 11.3125 C5.51722656 12.11300781 4.97195312 12.91351563 4.41015625 13.73828125 C1.45343234 18.48050602 1.40452502 22.94692912 2.4609375 28.36328125 C4.16133106 34.79476984 6.97235275 39.74406316 11 45 C11.51433594 45.6909375 12.02867187 46.381875 12.55859375 47.09375 C18.42619644 54.41066463 26.04755342 59.29191777 35 62 C35.625 65.375 35.625 65.375 36 69 C34 71 34 71 30.5625 71.5 C19.91202485 71.15395568 10.91345187 62.26881622 4 55 C-5.78194323 43.28012462 -10.18062177 31.18410771 -9 16 C-7.44013785 9.64186623 -4.61543588 4.61543588 0 0 Z " fill="#A79EC3" transform="translate(148,157)"/>
<path d="M0 0 C3 0.25 3 0.25 5 2.25 C5.47703183 4.55080595 5.88243997 6.86668829 6.25 9.1875 C8.07862767 19.24555487 11.83863383 27.39177771 19.9921875 33.88671875 C24.92622905 37.23687537 30.34149559 38.66561876 36 40.25 C37 41.25 37 41.25 37.1875 44.1875 C37 47.25 37 47.25 35 49.25 C27.26894992 50.65564547 21.12244515 47.84326464 14.71484375 43.8125 C4.51649077 36.53545911 -2.53498039 25.55184315 -5 13.25 C-5.11535407 11.37750843 -5.1748585 9.50099879 -5.1875 7.625 C-5.20167969 6.66335937 -5.21585938 5.70171875 -5.23046875 4.7109375 C-4.87277805 0.89152835 -3.73482739 0.31123562 0 0 Z " fill="#A79EC3" transform="translate(164,169.75)"/>
<path d="M0 0 C8.10877078 7.39329101 13.4023896 16.15517774 14.24609375 27.23046875 C14.30644756 30.20200615 14.35952664 33.04908007 14 36 C13.34 36.66 12.68 37.32 12 38 C8.375 37.625 8.375 37.625 5 37 C4.90203125 36.40574219 4.8040625 35.81148437 4.703125 35.19921875 C3.04122229 25.98712009 0.48636965 17.64172916 -5 10 C-5 9.34 -5 8.68 -5 8 C-3.68 7.67 -2.36 7.34 -1 7 C-0.67 4.69 -0.34 2.38 0 0 Z " fill="#A79EC3" transform="translate(193,145)"/>
<path d="M0 0 C2 2 2 2 2.25 5 C2 8 2 8 0 10 C-5.26478514 10.4578074 -5.26478514 10.4578074 -7.6875 8.94921875 C-11.71586007 7.29568582 -16.09089449 8.33388814 -20.33203125 8.81054688 C-22.4453125 9.00390625 -22.4453125 9.00390625 -26 9 C-28.1519437 5.77208445 -28.20086443 4.71599191 -28 1 C-18.82565291 -4.68809519 -9.56396168 -5.83168395 0 0 Z " fill="#FEFEFE" transform="translate(178,155)"/>
<path d="M0 0 C3 0.25 3 0.25 5 2.25 C5.36796448 5.12012296 5.37509409 6.65774618 3.8125 9.125 C2 10.25 2 10.25 -0.5625 10.0625 C-3 9.25 -3 9.25 -5 7.25 C-5.25 4.75 -5.25 4.75 -5 2.25 C-3 0.25 -3 0.25 0 0 Z " fill="#FBFAFC" transform="translate(164,169.75)"/>
</svg>
