<svg xmlns="http://www.w3.org/2000/svg" width="40" height="40" fill="none" viewBox="0 0 40 40"><g clip-path="url(#wmton_svg-a)"><path fill="#CCE3F5" d="M20 0c11.046 0 20 8.954 20 20s-8.954 20-20 20S0 31.046 0 20 8.954 0 20 0"/><path fill="#0071CE" d="M26 6a8 8 0 0 1 8 8v12a8 8 0 0 1-8 8H14a8 8 0 0 1-8-8V14a8 8 0 0 1 8-8z"/><path fill="#fff" d="M19.998 16.733c.469 0 .854-.244.906-.559l.463-5.232c0-.517-.605-.942-1.367-.942-.761 0-1.366.425-1.366.942l.462 5.232c.051.315.437.559.904.559zm-2.828 1.634c.235-.405.217-.86-.03-1.063l-4.301-3.017c-.447-.258-1.118.053-1.498.713-.382.659-.315 1.395.132 1.654l4.761 2.218c.299.11.704-.102.938-.508zm5.658-.002c.235.405.639.617.937.507l4.762-2.218c.449-.259.513-.995.134-1.654-.382-.66-1.054-.971-1.5-.713l-4.3 3.017c-.247.202-.265.658-.03 1.063zm-2.83 4.904c.469 0 .854.242.906.557l.463 5.232c0 .518-.605.942-1.367.942-.761 0-1.366-.424-1.366-.942l.462-5.232c.051-.315.437-.557.904-.557zm2.83-1.635c.235-.405.639-.617.937-.504l4.762 2.215c.449.259.513.996.134 1.656-.382.657-1.054.97-1.5.712l-4.3-3.014c-.247-.205-.265-.66-.03-1.065zm-5.658 0c.235.404.217.86-.03 1.065l-4.301 3.014c-.447.258-1.118-.055-1.498-.712-.382-.66-.315-1.397.132-1.656l4.761-2.215c.299-.113.704.099.938.504z"/></g><defs><clipPath id="wmton_svg-a"><path fill="#fff" d="M0 0h40v40H0z"/></clipPath></defs></svg>