<svg width="32" height="32" viewBox="0 0 32 32" fill="none" xmlns="http://www.w3.org/2000/svg"><path d="M16 32c8.837 0 16-7.163 16-16S24.837 0 16 0 0 7.163 0 16s7.163 16 16 16z" fill="#20252F"/><path d="M26.152 9.85h-3.394l-1.564 5.11h3.347l1.611-5.11zm-6.092 8.81l-1.67-3.95a2.6 2.6 0 00-.946-1.205 2.573 2.573 0 00-3.86 1.171l-1.74 3.978-2.654-8.8H5.85l3.967 12.908a1.156 1.156 0 001.106.814h1.918a1.163 1.163 0 001.085-.723l2.056-5.061 2.09 5.077c.086.214.235.397.427.525.192.13.416.198.648.198h1.888a1.158 1.158 0 001.104-.813l1.883-6.115h-3.333l-.627 1.997z" fill="#fff"/></svg>