<svg xmlns="http://www.w3.org/2000/svg" width="64" height="64" viewBox="0 0 64 64"><path fill="#FF7159" d="M31.8 1.7h.2a30 30 0 0 1 15.4 4l4.4 3v.8l-2.3 1.3-2.2 2-2.5 1h-1.8l-2.2-.8-.8-.8q-1.3-1.2-3-2.2l-2.2-1.2c-2.4-.6-2.4-.6-6.5-.4-1.7.4-1.7.4-3.3 1q-3.2 2-5.9 4.9l-2.2 2-1.6 1.6.4 1q.3 0 .4.3l3.1 3.4 3.1-2.7.2-.1 1.8-1.7h.4v-.5h.6v-.6l2.2-1.7 2-.8h2l2.5 1 2.5 2.3 1.4.7.4.2.6.3 2.1.8c3.6.3 3.6.3 6.5-.3l3-1.2 3.5-2.8 2-.7h1.3a30 30 0 0 1 4.3 8.8v.2l.4 1.2a15 15 0 0 1 .6 5.1v2.8a28 28 0 0 1-1.7 10.3l-1.9 4-1 .5v-.5l-6.2-2.7-3.3-.2c-2.6.4-2.6.4-5 1.3l-.9.5h-.1l-3.3 2.6-1.5.8h-3.7q-2.5-1.5-4.7-3.5c-2-1-2-1-4.1-1.6q-2.3-.2-4.4-.1c-3.1.6-3.1.6-5.8 2.2l-.6.5-5.4 5-1-.5a32 32 0 0 1-4.1-6.8q-1.4-3.4-2.1-7v-1.7l.7-.7h.5v-.5l1.7-1h.1q.6-.4 1.2-.5h2.5l2.3 1 3 2.5 1.4.7.4.2.5.3 2.1.8c3.5.3 3.5.3 6.6-.3l3-1.2.6-.6 5.9-4.5 2.2-.7h1.8l2.2.8.8.5v.5l1 .5 1.7 1.4.1.1 4.4 4 .5.2v.5h.8l.5-1 3-3.2.2-.8a79 79 0 0 0-6.3-5.5 20 20 0 0 0-4.3-3.2 10 10 0 0 0-5.5-1h-.6q-1.7 0-3.5.4c-3.3 1.5-3.3 1.5-4.9 3l-4.4 3.3-1.2.5h-3.3l-2.5-1.2-2.2-2c-3.3-1.8-3.3-1.8-5.8-2.3-3.4-.1-3.4-.1-6.5.8h-.7c.8-5 .8-5 1.7-7a35 35 0 0 1 5-8.3h.5l.5-1 2-2h.5v-.5q3.5-2.9 7.5-4.7a34 34 0 0 1 12.3-2.6"/><path fill="#FF7059" d="m55.8 16.8 1 .4a33 33 0 0 1 3 6.6v.1l.4 1.3v.1q.7 2.9.7 5.8v.1a31 31 0 0 1-.6 7.8l-.5 1.3-.3 1.5-1 2.5-.5.5-1.2-.3-3-1.5-5.3-.7-4.2 1c-2.9 1.2-2.9 1.2-4.3 2.5h-.5l-.2.7-1.8 1c-1 .3-1 .3-2.7.3l-1-.6-1.6-1.1v-.1l-.2-.1q-2.3-1.7-5-2.9c-4.1-.9-4.1-.9-7.7-.5l.2 1.3-.2.2h.2q1.5-.4 3-.3h.6c1.3 0 2 .2 3.4.5l-1 .3h-.2a11 11 0 0 0-3.4-.3 15 15 0 0 0-5.8 1.5q-1 .4-2.1.5l.3-1q2-1.4 4.2-2.2-1.5.4-3 1.2l-2.2 1.3-2 2h-.6l-.4 1-1.6.8c-1.2-1.5-1.2-1.5-1.4-2l-1.3-2.4q-.8-1.5-1.2-3v-1h-.5c-.5-2.3-.5-2.3-.5-3.8l1.2-1.3 1-.5h2.5l1.5.7.5 1 1 .3 1.3 1v.5h.2l2.6.8c1.6.8 1.6.8 4.7 1.1l.4.3c3-.4 3-.4 5.8-1.3l1-.5h.1q2.3-1.4 4.5-3l3.4-2.5 1.5-.2 2.3.3.4.3 2.5 1.9v.5l1 .5 2 1.8.3.7 1.3.5 1.7 1.3h1.8l1-.8h.5l.5-1 2.5-2.7.2-1.8-.2-1.7-.5-.3-1.5-1h-.2l-1.6-1.7-1.4-1.1v-.6h-.2l-1.5-1v-.4l-.2-.1-2.6-1.7-1.2-.7v-.6l-2.5-.7-.3-1.2q1.2-.4 2.5-.4a19 19 0 0 0 4.7-.7l2.9-1.3 4.6-3.1"/><path fill="#FC8C72" d="M31.8 1.7h.2a30 30 0 0 1 15.4 4l4.4 3v.8l-4.8 2.5-.8.4-1.5.8-1.5.3-.3-.7.8-.8 1-.2 2.2-1.6.8-.2.5-1.2a12 12 0 0 0-3.7-2.1c-2.6-1.2-2.6-1.2-5.3-2l-1.7-.3a25 25 0 0 0-5.3-.6 15 15 0 0 0-4.2.3q-1 0-2 .4h-.2a19 19 0 0 0-5.4 1.7q-1.6.7-3.4 1.8h-.5v.5l-2 1-.7.8h-.6v.5a21 21 0 0 0-3.7 3.7l-.5 1-.7.8-.2.2-2.5 4.8-1.3 3.7h.2q2.8-.3 5.5 0c4 1.3 4 1.3 5.5 2.3l1.8 1.4 1 .6.7.7 1.3.5h1.7l3.3-2h.4v-.5h.2l.8-.6.2-.1.2-.2.6-.6q2.2-1.6 4.7-2.6 2.5-.7 5.1-.9c3.5.5 3.5.5 7.3 2l3 2.3v.4l.1.1 1.6 1v.4l1 .6 1.3 1v.4l.1.1 2.2 1.4.6.5.3 1.3q.3 0 .5.3v.1l-.5 2.1-1.2 1-2 2.5-1.5 1h-1.8a37 37 0 0 1-4.5-3.5l-.2-.7-.3-.2-1.2-.6v-.5h-.3l-2.2-1.5-.6-.5-2.3-.2-1.5.2-3 2-.1.2-.7.5-4.4 3a30 30 0 0 1-7 1.5l-2-.5-1.3-.2h-.1l-4.1-1.7-1.3-1.3-1-.5-.7-1-1.3-.5h-2.4l-1.7 1-.3.5.3 3.8h.5v.2q.9 3 2.5 5.8l.5.5.5 1.2.7.5 1.3-.7.4-1 1-.5 2.3-2c4-2 4-2 5-2.3l-.2.8h-.4a19 19 0 0 0-4.1 2.2l.2.3h1.3l-2.2 2-3 2.7-.1.1-1.5 1.4-1-.5a32 32 0 0 1-4.1-6.8q-1.4-3.4-2.1-7v-1.7l.7-.7h.5v-.5l1.7-1h.1q.6-.4 1.2-.5h2.5l2.3 1 3 2.5 1.4.7.4.2.5.3 2.1.8c3.5.3 3.5.3 6.6-.3l3-1.2.6-.6 5.9-4.5 2.2-.7h1.8l2.2.8.8.5v.5l1 .5 1.7 1.4.1.1 4.4 4 .5.2v.5h.8l.5-1 3-3.2.2-.8a79 79 0 0 0-6.3-5.5 20 20 0 0 0-4.3-3.2 10 10 0 0 0-5.5-1h-.6q-1.7 0-3.5.4c-3.3 1.5-3.3 1.5-4.9 3l-4.4 3.3-1.2.5h-3.3l-2.5-1.2-2.2-2c-3.3-1.8-3.3-1.8-5.8-2.3-3.4-.1-3.4-.1-6.5.8h-.7c.8-5 .8-5 1.7-7a35 35 0 0 1 5-8.3h.5l.5-1 2-2h.5v-.5q3.5-2.9 7.5-4.7a34 34 0 0 1 12.3-2.6"/><path fill="#FB8C72" d="M21.5 50.5h2l2.5 1 2.5 2.3c2.6 1.4 2.6 1.4 5 2q1.6.3 3.4.2 1.5-.1 2.9-.5l3.5-1.7 2.5-2.3 1.7-.7h3.5l2 1 1.3 1.2-.3 1h-.5v.5a39 39 0 0 1-11.8 7l-.1.1-3.3 1h-7.9c-4.7-.1-4.7-.1-6.3-.5a27 27 0 0 1-10.4-5.1l.6-1 1.4-1.5.1-.1q1.9-2 4-3.4z"/><path fill="#FC8C73" d="m28.3 6 4.7.3a21 21 0 0 1 6.3 2.7l1.7 2 2.5 1.3q-.4 0-.7.2v.5l-1.8-.2-3-2.1-.7-.7c-2.4-1.3-2.4-1.3-4.5-1.7h-4.5c-1.7.4-1.7.4-3.3 1q-3.2 2-5.9 4.9l-2.2 2-1.6 1.6.4 1q.3 0 .4.3l3.1 3.4 3.1-2.7.2-.1 1.8-1.7h.4v-.5h.6v-.5l2.2-1.7 2-.8h2l2.5 1 2.5 2.3 1.4.7 1 .5 2.1.8c3.6.3 3.6.3 6.5-.3l3-1.2 3.5-2.8 2-.7h1.3a30 30 0 0 1 4.3 8.8v.2l.4 1.2a15 15 0 0 1 .6 5.1v2.8a28 28 0 0 1-1.7 10.3l-1.9 4-1 .5v-.5l-6.2-2.7-3.3-.2c-2.6.4-2.6.4-5 1.3l-.9.5h-.1l-3.3 2.6-1.5.8h-3.7q-2.5-1.5-4.7-3.5l-2.8-1.2v-.5l-4-.3q-2.4 0-4.7.3l1-.5h.7l-.2-1.3 4-.5 3.7.8 4 2 2.3 2 1.5.7h1.7l2-.7.6-.6 3.4-2.5c2.5-1 2.5-1 5.5-1.5l.5-.2 2 .2a17 17 0 0 1 6 1.8q0 .3.3.5h1.2l1.5-3.5v-1h.5v-.1l.6-4.6a19 19 0 0 0 0-4.5 25 25 0 0 0-1.3-7.4l-.3-.9-.7-2v-.5l-.5-.2-1.3-2.6-.7-.2c-1.9 1-1.9 1-2.5 1.8q-.2 0-.5.3h-.1a18 18 0 0 1-7.3 3l-3.6.1h-.2l-4.4-1.7-3-2v-.5l-1.5-.5v-.5q-.7-.3-1.6-.3h-1.9l-1.4.8-1 1h-.6v.5l-.1.1q-2 1.6-3.6 3.4h-.5l-.2.8-1.3.7h-.7l-.3.5-2-1-2-2.1-1.7-1.9-.3-2.2.5-1.3c2-1.7 2-1.7 3-2.2q0-.4.3-.8l.1-.1 3.1-2.9h.5v-.5q2.7-1.9 5.8-3h1.4z"/><path fill="#FF715A" d="M21 52.5h2.5l2 1 .8.8v.5l1.4.5 1.8 1.2 4.3 1.3h5c2.5-1 2.5-1 5-2.3h.5v-.5l2.7-2 2-.5q1 0 2 .3l.5.7a21 21 0 0 1-7.5 5.3h-.2a23 23 0 0 1-4.5 1.6 26 26 0 0 1-7.8.6h-3.2v-.5l-.6.3q-1.8 0-3.7-.6-3.6-1.1-6.7-3l-.6-1 .3-.5h.8v-.7z"/><path fill="#FF8A70" d="M47.5 50.8h3.5l2 1 1.3 1.2-.3 1h-.5v.5a39 39 0 0 1-8.3 5.7q-2.7 1.2-5.5 2h-1.2l.3-.7 2.2-.7-.5-.3v.5l-2.5.5-1.7-.2v-.5l4.5-.8.2-.5c2.4-.8 2.4-.8 3.5-1q0-.2.3-.5l.2-.1q2.5-1 4.6-2.7v-.2l1.4-1 .3-.7-1.3-.5-2.2.2q-1.7.9-3 2l-.5-.2.7-.8h.5v-.5h.5v-.5l3.3-1 3 .8.2 1h.5l-.5-1.3-2.7-1-2.3.3-1.5.7-.2.8-2.3 1.2-.5.8-1.5-.3 4.8-3.7z"/><path fill="#FF8E75" d="M33 2.8a17 17 0 0 1 5 .5l4 .9h.2l1.7.6 2.3.5.8.2q2.4 1.4 4.8 3.3v.7l-4.8 2.5-.8.4-1.5.8-1.5.3-.3-.7.8-.8 1-.2 2.2-1.6.8-.2.5-1.2a12 12 0 0 0-3.8-2.2l-3.1-1.3-.8-.8-2.7-.6q-2-.5-4-.4h-.3l-.7-.5z"/><path fill="#FE8D73" d="M6.3 34.8h1.5l.5.5-3 .5-1.3 1.2.3 3.8h.5v.2q.9 3 2.5 5.8l.5.5.5 1.2.7.5 1.3-.7.4-1 1-.5 2.3-2c4-2 4-2 5-2.3l-.2.8h-.4a19 19 0 0 0-4.1 2.2l.2.3h1.3a46 46 0 0 1-5 4.5l-2.3.5-.3-.6-1.4-2.2-.4-.6-.7-1v-.5l-.7-.3a63 63 0 0 1-2.2-8.2q1-1.1 2.2-2 .6-.4 1.3-.5"/><path fill="#FE8D74" d="m48.8 51.3 2 .2 2 1 .2 1.3h-.5l-.2-.8-3-.7-3.3.7v.5h-.5v.5l-1 .8-.2.7-1.8 1h-.5l-.2.5-3 .8q-1 .3-2.3.2h-2.8l-4.2-1.2-2.2-1.5h-.6v-.5h-.4l-1.3-1.3-.2-.5 1 .3 1.2 1v.5l1.3.2 1.2 1 .5.1 5.3.9.2-.2h-1.2v-.3h3.5l1 .5v-.5l-.8-.2h1.8v-.8l1.2-.5h2l1.3-1.2 1.5-.5.2-1 1.5-.8z"/><path fill="#FF745D" d="m29.3 38.3.7.2-.2.5-1.3.5h-.7v.5l-2 .8h-1v.5l.7.2-.2.8.4.2h-.2q-3-.4-6.2 0l.2 1.3-.2.2h.2q1.5-.4 3-.3h.6c1.3 0 2 .2 3.4.5l-1 .3h-.2a11 11 0 0 0-3.4-.3 15 15 0 0 0-5.8 1.5q-1 .4-2.1.5l.3-1q2-1.4 4.2-2.2h-.5l-.7-.2v-.8l-1.3-.2v-.5l1.8.2v-.7h2.4l.6.2c3-.4 3-.4 5.9-1.4q1.3-.5 2.6-1.4"/><path fill="#FF8E74" d="M37.3 23c3.7.5 3.7.5 7.5 2l3 2.3.2 1.4.5.3-.2.5-2.8-2.2-1-.3-.5-.7-1-.6v-.4l-.2-.1-3-1v.6l-5.8.2-1.2.5-3.5 1v-.5q2-1.2 4.2-2h.8v-.5z"/><path fill="#FA8B71" d="m45 27 1.3.5 2 1.8-.3-.3-.2-1.2q.9.4 1.7 1v.4l1 .6 1.3 1v.4l.7.3 1 2 .5.5v2.3l-1.2 1.2-1.3.5c.5-1 .5-1 2-2.7q-1.3-1.4-2.7-2.6v-.1a75 75 0 0 0-6-5.1z"/><path fill="#FF755D" d="m42 5.3 5.3 2.5 1.2 1.2c-1.8 1.8-1.8 1.8-2.8 2.5l-1.5.8-.5-.3-.2.5-2.7-1.5v-.7l2 1.2 3-.7 1.2-1h.5v-.6h-1.5l-1-.7.3-1q-.4 0-.8.3v-.5h-.5l-.5.5h-1l-.5-.3v-.5h.5q0-.2.3-.5l.5.3-.3-.5-1-.5zm6.5 5.7q.3 0 .5.3l-2.2 1.7-2 .8h-1.8l-2.2-.8-.3-.5 2.3.5v-.5l.7.3h-.5l.3.4 1.5-.2z"/><path fill="#EF8168" d="M38 2.2a28 28 0 0 1 8 2.8v.3l-2.3-.3-.5-.2-2.5-.7-2.2-.5q-4.5-.8-9-.6v-.5h-3.5v-.2q6-1.2 12-.1"/><path fill="#FF8B72" d="m22.8 42 4.2.8 2.5 1.2-.5.5.3.5-4.8-1h-2l-4.7.3 1-.5h.7l-.2-1.3z"/><path fill="#F1846A" d="m23.5 50.8 1.5.2q1.9 1.2 3.5 2.8c2.6 1.4 2.6 1.4 5 2q2 .4 4 .2l2.3-.2v.5l-1 .2v.5h-1.5v-.2h-1.8l-.2.5-3-.3-1-.5-.8-.7-1.5-.3-1.5-1v-.5h-.2l-1.7-1.1q-.7-.6-1.6-.9v-.5h-.5z"/><path fill="#F3886E" d="M2.3 39h.7l.3 1.3.5.2 1.2 4.5 1 1.3.5.8.2.2q0 .3.3.5l.3.6.7 1.1.5.5v.8l1.3-.5.7.2-1.5 1.5-1-.5a30 30 0 0 1-5.7-11.5z"/><path fill="#ED8066" d="M47.5 50.8h3.5l2 1 1.3 1.2-.3 1h-.5v.5l-2.5 2-.5-.5 1.8-2 .7-.2-.5-1.3-2.7-1-2.3.3-1.5.7-.2.8-2.3 1.2-.5.8-1.5-.3 4.8-3.7z"/><path fill="#F58A70" d="M24.8 2.5h1.2l-1 .3v.5l2.3-.3-.8.5-2.5.3v.5l-3.5.7-.2.5h-.3a15 15 0 0 0-4.5 2.5l-.7-.2-1 .2q1.3-1.4 2.8-2.2 2.3-1.3 4.5-2.2h.2z"/><path fill="#FF8B72" d="m48.3 42 2.1.2a16 16 0 0 1 4.9 1.3v.5l1.2.5-.5.5-.7-.2-.3.5-3-1-5.2-.5v-.3l2.2-.2h-2.5l-.5-.5z"/><path fill="#EE7B63" d="m45.8 42.8 3.4.2 2.3.3v.2l-1.2.3 3.5.7.5.5h-.3q-2.8-.6-5.6-.7-3.5.5-6.7 2l-.3-.5-1 .2 1.3-1.2 1.7-1 2.3-.5z"/><path fill="#FB9379" d="m40.5 60.5.8.3-.5.5-2 .2-.3 1h-12.7v-.5h-.6l.3-.5 1.3.3.3-.1q1.6-.2 3.3-.2h6.6l2.3-.5h1.2z"/><path fill="#FF8D73" d="m52.5 31.8 2.3 1.4.2 1.3q.3 0 .5.3v.1l-.5 2.1-1.2 1-2 2.5-1 .5.2-1.7.8-1.5q.7-.6 1.5-1h.5v-2.8l-1.3-1.7z"/><path fill="#EF8168" d="M39.8 24.3c2.2.4 2.2.4 3.2 1l.3.4 1 .6.5 1-.5-.3-2.1-1h-.4q-1.1-.6-2.3-.7h-2.7q-1.7 0-3.5.4c-3.4 1.5-3.4 1.5-5.3 3.3l-.5-.2q0-.6.3-1l1-.6v-.4q1.4-.9 3-1.3l2.2-.7h5.8z"/><path fill="#FB886E" d="M18.8 42.5v.8h-.4a19 19 0 0 0-4.1 2.2l.2.3h1.3l-2.4 2.2-2.2 2-.4-.2.2-.8v-1l1.5-2c2.3-1.8 2.3-1.8 3.5-2.3l1.2-.6h.2z"/><path fill="#FF8A71" d="m9 14 .8.3c-.8 1.2-.8 1.2-1.6 2v.2l-.3.4v.2l-.7 1.2a14 14 0 0 0-1.6 3l-1.3 3.7h2.5v.5l-1 .5h-2.3v-2c1-2.7 1-2.7 1.5-3.5h.5l.8-2.2.7-1.3z"/><path fill="#FF8B72" d="m47 7.5 1.8.3 1 1-.3 1-1.2.4-.3 1q-1.8 1.4-3.7 2.3l-1.3-.2v-.6l.8-.7 1-.2 2.2-1.6.8-.2.5-1.2z"/><path fill="#F68A70" d="m46 5.3 2.6 1.2 3.1 2.3v.7l-.1.1-3.4 1.9-.5-.2.5-1 1.3-.6-.2-1.2q-1.7-1.4-3.5-2.2l.5-.5z"/><path fill="#FF8B72" d="M25.5 60.5h2.8v.5h.1l4.8-.3h1a8 8 0 0 1 3.5.5l-.7.5h-10v-.5l-1.5-.5z"/><path fill="#ED7B62" d="m19 42.8.5.2v.8l-.2.2h.2q1.5-.4 3-.3h.6c1.3 0 2 .2 3.4.5l-1 .3h-.2a11 11 0 0 0-3.4-.3 15 15 0 0 0-5.8 1.5q-1 .4-2.1.5l.3-1a18 18 0 0 1 3.8-2z"/><path fill="#EE8067" d="m26.3 28.8.2.7h.8l-3.3 2.5-1.2.5h-3.3l-2.5-1.2v-.6l.5.1h.2l1.8.7h1.6q1.5 0 2.6-.2l.3-.8z"/><path fill="#ED7F66" d="M6 33.3h2.5l1.8.7-2 .4-2.5.4h-.5l-1 .2-1.3 1h-.7v3h-.3a8 8 0 0 1-.2-3l.7-.7h.5v-.5l1.7-1h.1q.6-.4 1.2-.5"/><path fill="#F5856C" d="m28.8 44 2.2.8 1.8 1.5-.5 1.5-1-.3-.2-.1a19 19 0 0 0-4.6-2.6l.8-.3 1.7.3z"/><path fill="#EE7F66" d="M21.5 50.5h2l-1 .5h-1l-.2.8-1.6.7h-.4v.5l-.2.1-2.9 2.6-.4-.2.2-.5-1.2 1.3-.6-.3 1.5-1.5.1-.1q1.9-2 4-3.4z"/><path fill="#E46F57" d="M52 17q.3 0 .5.3l-.5 1-1.7 1.4-2.3 1-1-.2h-.4c-4.2 0-4.2 0-5.8-.3l-2-.7.7-.2 1.5.4c3.6.4 3.6.4 6.5-.2l3-1.2z"/><path fill="#FF896F" d="m52 18.8.5.4-1.7 1.3-2.1.7a15 15 0 0 1-4.9 1h-2.1l-3.7-1.4-.9-.3-1-.7.5-.3h.2a15 15 0 0 0 3.4 1.5q2.6.5 5.2.5l1.9-.5h.1q2-.7 3.8-1.7z"/><path fill="#FF987E" d="m21.8 42.8 1.6.1h.1q2.7.4 5.3 1.4l.4.7-4.7-1h-2l-4.7.3 1-.5h.7v-.5z"/><path fill="#F08269" d="M29.5 14.5h2l1.5.5v.3h-1.5l-.2-.3-2.3.3.8.4-2 .8-.8.8-.5.4-.1.1-.7.6-1.7 1.1.5-.7q0-.7.3-1.3h.4v-.5l2.3-1.7z"/><path fill="#F68C72" d="m50.5 55.5.8.5-.5.3-.3.7c-3.5 2.3-3.5 2.3-5.7 3v-1h.1l4.4-2.5.7-.7z"/><path fill="#FA9177" d="M61.3 27.5h.5v1.8h.5v9.5l-.5 1-.2-2.1v-.2l-.1-4v-1.8z"/><path fill="#F5886E" d="m55.3 44.3.2.5h1l.8.7h1.2l.8-.7.5.5-.3 1-1 1.5h-.5v-.5l-3.2-1.8-.5-.5.7-.2q0-.3.3-.5"/><path fill="#EE8067" d="M2.3 39h.7l.3 1.3.5.2.6 2.5 1.1 3.3-.5.7-.8-1.7v-.1a30 30 0 0 1-2-5.2z"/><path fill="#F1836A" d="m15 17.3.5.2v1l.2.2a27 27 0 0 1 3.6 4h-1.3l-1-1v-.4l-1-.6c-1.2-1.4-1.2-1.4-1.7-2.4l.2-.8z"/><path fill="#E9755D" d="m40.5 10.3 2.5 1.2 1.8.3-.5.4-.5-.2-.3.5-2.7-1.5zm8 .7q.3 0 .5.3l-2.2 1.7-2 .8h-1.8l-2.2-.8-.3-.5 2.3.5v-.5l.7.3h-.5l.3.4 1.5-.2z"/><path fill="#F1856C" d="M56 14.8h1.3l2.5 4-.3.7-1.2-1.5-.3-1h-.5l-.7-1.2q-1.9.2-3.5 1h-.8l2-1.6z"/><path fill="#E7775E" d="M36.8 2.3a17 17 0 0 1 5.5 1.1l3.7 1.6v.3l-2.2-.3-.5-.2q-1.5-.6-3-.8v-.5l-1.8-.2v-.5l-1.7-.3z"/><path fill="#FF8F75" d="M20 10.5q0 .3.3.5l-1 1-.3 2-2.2 1.5-.6-.2v-1.3l.8-.2q0-.4.3-.8l.1-.1z"/><path fill="#FF8E75" d="M26.8 6.5h1.7l.5.5-2.5.8v.7h-2l-2.7 1.8h-.8l2.5-2 2.5-1z"/><path fill="#F1866C" d="m52.5 51.8 1 .5.8.7-.3 1h-.5v.5l-2.5 2-.5-.5 1.8-2 .7-.2-.5-1.3z"/><path fill="#F2856B" d="m24.5 8.3 1.8.2-.6.5-.2.1q-2.3 1.2-4.5 2.9v-.7l1.8-2z"/><path fill="#EF8269" d="M5.5 17q0 .3.3.5l-2.5 7q-.4 0-.8.3.3-2.6 1.4-4.8z"/><path fill="#F58269" d="M49.3 56v.8l-3.8 2.2h-.7l.2.8 1.5-.5-.7.7-1.8.8-.7-.3.5-1h.5l.5-1 2-1h.5v-.5z"/><path fill="#ED7D64" d="m44.5 36 1 .5 3 2.8.5.2v.5l.8.3-1.5.2-1-.7v-.5h-.5l-.8-1.3-1-1z"/><path fill="#ED7F65" d="m33 15.3 1.3.4 2.2 2 2.3 1.3v.3l-2-.3-.8-.7h-1l-.5-.8v-.7l-.7-.3v-.7h-1.3z"/><path fill="#EF7E65" d="m61.8 25.3.5.7q.3 1.9.2 3.8v7.2h-.2v-7.7h-.5l-.3-3q0-.6.3-1"/><path fill="#FF9278" d="M23.5 50.8v.7q.3 0 .5.3l-3.2.7-.2.1-3.1 1.9 1.3-1.5h.4v-.5l2-1 .3-.5z"/><path fill="#FF896F" d="M6.3 34.8h1.5l.5.5-3 .5-1.3 1.2.3 3.8h.5l.2 1.5h-.5q-1-2.3-1.2-4.8l.5-1.2 1.2-1z"/><path fill="#FF6E57" d="m11.3 13.8.2 1h1v.7l.5-.6.1-.2.2-.2h.4l.3 1.5h-.5v.5h-.5l-.2.5-.8-.5v-.5l-1-.2h.8v-.6l-1.3.3-.7-.5 1.2-.7z"/><path fill="#FF9A7F" d="m51.8 43.3 3.2 1 .3 1-.3-.1a18 18 0 0 0-5.8-1.3h-.2l-2.2-.1v-.3z"/><path fill="#EF7F66" d="M24.8 2.5h1.2l-1 .3v.5l2.3-.3-.8.5-2.5.3v.5l-1.2.2v-.5h-1.8l.5-.5z"/><path fill="#E47159" d="M36.5 31.5h1.8l1.7.5-1 .5h-.5v-.5l-3.7.5v.5l-2 1h-.8l2.3-1.7z"/><path fill="#FF9B80" d="M31 2.2h3.7v.3l-5.2.2-1.8.5h-2.7v-.5q3-.6 6-.5"/><path fill="#F07B62" d="M23.5 20.3v.7q-1.4 1.4-3 2.5l-1.2.3v-.8l1.4-1.7 1-.6-1.4 1.8h.4z"/><path fill="#FF9076" d="m14.8 16 .7.5v.8l-1 .4.5 1.6 2.3 2.4-.3.6-2.5-2.6-.5-1v-1.7q0-.2.3-.5h.4z"/><path fill="#EE7E64" d="M20.8 60.8h3.2l1.5.5-.2.7.4.3q-1.4-.1-2.8-.5l-2.1-.8z"/><path fill="#F0836A" d="M30 26h1.3l-.3.8-2.7 2h-.8q0-.6.3-1l1-.6v-.4z"/><path fill="#E77960" d="m2.3 24.8.7 1v.4l2.5.6v.2c-3 .8-3 .8-3.7.8z"/><path fill="#FF987D" d="m34.8 24 5 .5v.3l-5.8.2-1.7.6-2 .6 1-1z"/><path fill="#FF7A63" d="m15.8 8.5.4.3-1.2 1h-.5v.4h-.5l-.2.8q-.4 0-.8.3l-.7 1h-.6l-.4 1h-.6l-.2.7h-.5l.5-1 1-.5.5-1 .8-.7h.4v-.6z"/><path fill="#FF997E" d="M29.8 14.8h1.4l1.8.4.8.6.2 1-.2-.1q-1.5-.7-3.2-1l-2.1-.2.5-.5z"/><path fill="#FF896F" d="M43.5 55h.8v.5l-1.8 1h-.5l-.2.5-4 1-.3-.5 4.5-1.5z"/><path fill="#EB7D64" d="m40 32.3 1.3.5v.5l1 .5 2.2 2-.7.2-4-3.5z"/><path fill="#F3836A" d="m3.3 24.5.5.5-.3 1 4-.2-1 .4 2.5.3v.3h-4.5l-1.5-.6v-1.4z"/><path fill="#F1846B" d="M14.5 45.8h1.3q-1.5 1.5-3.3 2.7l-.7-.2.4-1c1.3-1 1.3-1 2.3-1.5"/><path fill="#ED8168" d="m49.8 7.5 1.7 1 .3 1-1.8 1-.9.5v-.7h.8z"/><path fill="#E8775E" d="M6 33.3h2.5l1.8.7q-2.7.6-5.6.8l.5-.5 2.8-.5h-2.7z"/><path fill="#EF7F66" d="M18.5 14q.3 0 .5.3l-3.2 3-.8-.6.3-1 1.2-1 .3.6z"/><path fill="#FF7A63" d="m17 55.8.8.2-.3.8 2.5 1.2h.5q0 .3.3.5l1.7.3v.5l1 .5q-2.1-.4-4.1-1.4-1.5-.6-2.6-1.6z"/><path fill="#E87960" d="m45 27 1.3.5 2.2 2 .8 1.5-1-.5-1.6-1.4-2-1.9z"/><path fill="#F48970" d="m7.3 14.3.2.4-.2 1.8c-1.3 2-1.3 2-1.8 2.5l.3-2.5z"/><path fill="#E06D55" d="M34 24.8h5.3v.2l-5.5.5-2.3 1-.5-.2.8-.8z"/><path fill="#FF997E" d="m40.5 60.5.8.3-.5.5-2 .2-.3.8h-5v-.3l3-.2 1.5-.5 2.5-.3z"/><path fill="#FF896F" d="M45 42.8h.8v.5l-1.3.5h-1l-.2.5h-.3l-3.1 2h-.5v-.5l1.7-1.2a14 14 0 0 1 3.8-1.9"/><path fill="#FF7A63" d="M15.8 43h1.4l-.2.5-3 1.5-2.5 2.3-.5.2.3-1h.4l.3-.7.3-.2 2.6-1.8.2-.2zm13.5-4.7.7.2-.2.5-1.3.5h-.7v.5l-2 .8h-1l-.3.5h-1.5l-.2-.5 3.7-1zm14.5-13.8 1.2.3 1.3.7v.5l1.2.5 2.8 2.5-.3.5-.5-.2v-.6h-.2l-1.5-1v-.4l-.2-.1-2.5-1.6-.3-.2h-.1z"/><path fill="#EA7A61" d="m42.3 60.5 1 .5-3.5 1.3h-1.3q0-.4.3-.8z"/><path fill="#FF977D" d="M5.3 18.3h.2l-.2 2.2-.5.9q-.8 1.5-1.3 3.1l-.2-.7 1.5-4.5v-.3zm-2.5 6.2.5.3-.5 1.2h-.3v-1.2z"/><path fill="#FF7A63" d="m27.8 17.3.4.2-1.2 1.3h-.5l-.5 1-1.2 1.2h-.6v.5l-1 .8-.4-.3 2.2-2.2h.5q0-.4.3-.8h.4v-.5l1.3-.5z"/><path fill="#E5755C" d="m10.3 34.3 1.2.5 3 2.7-1.7-.5-2.6-2z"/><path fill="#FF987D" d="M57.5 17h.5l.8 1.5 1 1 .7 2.3-.5.7-.7-1.7v-1.3l-.8-.2z"/><path fill="#EF8067" d="m28.3 36.8.4.2-.4 1.3-1 .5h-2.6l1.4-.9h.2l1.7-.9z"/><path fill="#FF967C" d="m47.8 10.8.5.2q-2 1.5-4 2.5l-1.3-.2v-.6l1-.4 2-.3z"/><path fill="#FF9379" d="M34.3 56.5h3.5l-.8.5-.7-.2.2.7-1.7.5v-.5h-1.5l-.5-.2.2-.5 2.3.2.2-.2h-1.2z"/><path fill="#EE8168" d="m59.5 45.3.3.7-1.3 1.8h-.5v-.5l-1-.5q0-.3.3-.5l1.5-.5z"/><path fill="#E37058" d="m61.5 39.8.3 1-1.5 4-.5.5v-1.8l.7-.7q0-1.1.3-2.3z"/><path fill="#E26E55" d="m59.8 19.5.7 1 1.3 3.5v1.3l-.4-.5-.1-.1-.8-1.4z"/><path fill="#FF7A63" d="M13.5 16h.5l-.2 2.5.4 1.3 1 1-.2.4-1.7-1.7v-1h-.6zm22.8-8.7 1.2.2 2.5 1.5v.5l1 .5.8.8h-.8l-.3-.3-1.4-1.1q-1.5-1.2-3-1.9z"/><path fill="#FF9278" d="M44 59q0 .3.3.5h-.5l-.5 1.3h-2v-.8z"/><path fill="#EC7B62" d="M36.8 2.3c2.7.2 2.7.2 3.5.5v.5l.7.2.8.8-1.5-.3v-.5l-1.8-.2v-.5l-1.7-.3z"/><path fill="#FF967C" d="m9.3 34 1 .3v.7l1 .5 1.7 1.5-.5.3-.7-.3v-.5h-.6l-1.2-1.2-1.2-.5v-.5z"/><path fill="#FF7A63" d="m37 33.5 2.3.3.4.3 2.5 1.9-.2.5-1.5-1-.5 1-.2-1.7-1.1-.5z"/><path fill="#FF9177" d="m13.8 38.3 3 .2q-.4 0-.8.3v.5l1.5.5-.5.2-2.2-.5v-.5h-.6v-.5z"/><path fill="#E6755D" d="m57.5 15.5 1 1 1.3 2.3-.3.7-1.2-1.5-.3-1h-.5z"/><path fill="#FF947A" d="m14.8 7.3.4.2h1v.5l-2.2 1.5-.5-.2.3-.3-.6-.5z"/><path fill="#E7725A" d="m53.3 34.5.7.3v1.5l-1.2 1.2-1.3.5c.5-1 .5-1 2-2.7z"/><path fill="#E26E56" d="M5.5 17q0 .3.3.5l-1.3 3.5h-.7l-.3.8q0-.7.3-1.3z"/><path fill="#F78D73" d="M44.8 43.8h3.2v.2l-3.7.8v.5l-1.3.2 1.3-1.2h.5z"/><path fill="#FF7A63" d="m26 42.3 1.5.2 3 1.5.5.8q-2-.7-4-1.8l-1-.2z"/><path fill="#E4725A" d="m23.8 38.8 1 .2-.3.3h-2.2v.5h-2l-1.6-.5v-.3h.3z"/><path fill="#E87960" d="M52 17q.3 0 .5.3l-.5 1-1.5 1h-1.5z"/><path fill="#E8775F" d="M16.8 5.8h.4v.5h-.7v.1l-1 1.6-.7-.2-1 .2 1.2-1.2z"/></svg>