<svg xmlns="http://www.w3.org/2000/svg" width="240" height="240" fill="none" viewBox="0 0 240 240"><g clip-path="url(#wusdm_svg-a)"><rect width="240" height="240" fill="url(#wusdm_svg-b)" rx="120"/><g fill="#000" filter="url(#wusdm_svg-c)"><path d="M120.029 145.82c14.243 0 25.791-11.547 25.791-25.791s-11.548-25.79-25.791-25.79-25.79 11.546-25.79 25.79 11.547 25.791 25.79 25.791"/><path fill-rule="evenodd" d="M139.637 44.568a30.7 30.7 0 0 1-19.658 7.082 30.7 30.7 0 0 1-19.579-7.016c-5.649-4.65-14.711-6.629-19.93-1.503A2906 2906 0 0 0 43.13 80.47c-5.124 5.22-3.146 14.282 1.505 19.93a30.7 30.7 0 0 1 7.014 19.578 30.7 30.7 0 0 1-7.08 19.66c-4.67 5.632-6.678 14.687-1.557 19.912 12.318 12.567 24.802 24.989 37.363 37.315 5.237 5.139 14.343 3.143 20.004-1.526a30.7 30.7 0 0 1 19.6-7.032 30.7 30.7 0 0 1 19.68 7.099c5.645 4.689 14.743 6.714 19.985 1.579a2553 2553 0 0 0 37.341-37.34c5.135-5.243 3.11-14.341-1.579-19.986a30.7 30.7 0 0 1-7.099-19.681 30.7 30.7 0 0 1 7.033-19.6c4.668-5.66 6.664-14.766 1.525-20.003-12.325-12.56-24.748-25.046-37.316-37.363-5.225-5.122-14.28-3.113-19.912 1.556M105.518 67c8.025-8.025 21.036-8.025 29.061 0l38.594 38.593c8.025 8.026 8.025 21.037 0 29.062l-38.594 38.594c-8.025 8.025-21.036 8.025-29.061 0l-38.594-38.594c-8.025-8.025-8.025-21.036 0-29.062z" clip-rule="evenodd"/></g></g><rect width="232" height="232" x="4" y="4" stroke="url(#wusdm_svg-d)" stroke-width="8" rx="116"/><defs><linearGradient id="wusdm_svg-b" x1="120" x2="120" y1="0" y2="240" gradientUnits="userSpaceOnUse"><stop stop-color="#fff"/><stop offset="1" stop-color="#EDEDED"/></linearGradient><linearGradient id="wusdm_svg-d" x1="120" x2="120" y1="0" y2="240" gradientUnits="userSpaceOnUse"><stop stop-color="#A1A1A1"/><stop offset="1" stop-color="#fff"/></linearGradient><clipPath id="wusdm_svg-a"><rect width="240" height="240" fill="#fff" rx="120"/></clipPath><filter id="wusdm_svg-c" width="176" height="176" x="32" y="36" color-interpolation-filters="sRGB" filterUnits="userSpaceOnUse"><feFlood flood-opacity="0" result="BackgroundImageFix"/><feColorMatrix in="SourceAlpha" result="hardAlpha" values="0 0 0 0 0 0 0 0 0 0 0 0 0 0 0 0 0 0 127 0"/><feOffset dy="4"/><feGaussianBlur stdDeviation="4"/><feComposite in2="hardAlpha" operator="out"/><feColorMatrix values="0 0 0 0 0 0 0 0 0 0 0 0 0 0 0 0 0 0 0.2 0"/><feBlend in2="BackgroundImageFix" result="effect1_dropShadow_353_37"/><feBlend in="SourceGraphic" in2="effect1_dropShadow_353_37" result="shape"/></filter></defs></svg>