<svg xmlns="http://www.w3.org/2000/svg" xml:space="preserve" width="32" height="32" viewBox="0 0 32 32"><linearGradient id="xava_svg-a" x1="40.839" x2="-4.47" y1="37.999" y2="-14.219" gradientTransform="matrix(1 0 0 -1 0 32)" gradientUnits="userSpaceOnUse"><stop offset="0" style="stop-color:#ff6746"/><stop offset="1" style="stop-color:#ff0546"/></linearGradient><path d="M12.4 2.3c1.5-3.1 5.7-3.1 7.2 0l11.6 23.1c2 4.1-2.5 8.3-6 5.6l-6.9-5.2c-1.4-1.1-3.3-1.1-4.8 0L6.6 31c-3.5 2.7-8-1.6-6-5.6z" style="fill:url(#xava_svg-a)"/><defs><filter id="xava_svg-c" width="39.4" height="34.2" x="-3.7" y="5.1" filterUnits="userSpaceOnUse"><feColorMatrix values="1 0 0 0 0 0 1 0 0 0 0 0 1 0 0 0 0 0 1 0"/></filter></defs><mask id="xava_svg-d" width="39.4" height="34.2" x="-3.7" y="5.1" maskUnits="userSpaceOnUse"><linearGradient id="xava_svg-b" x1="40.839" x2="-4.47" y1="37.999" y2="-14.219" gradientTransform="matrix(1 0 0 -1 0 32)" gradientUnits="userSpaceOnUse"><stop offset="0" style="stop-color:#ff6746"/><stop offset="1" style="stop-color:#ff0546"/></linearGradient><path d="M12.4 2.3c1.5-3.1 5.7-3.1 7.2 0l11.6 23.1c2 4.1-2.5 8.3-6 5.6l-6.9-5.2c-1.4-1.1-3.3-1.1-4.8 0L6.6 31c-3.5 2.7-8-1.6-6-5.6z" style="fill:url(#xava_svg-b);filter:url(#xava_svg-c)"/></mask><g style="mask:url(#xava_svg-d)"><linearGradient id="xava_svg-e" x1="16" x2="16" y1="24.001" y2="2.915" gradientTransform="matrix(1 0 0 -1 0 32)" gradientUnits="userSpaceOnUse"><stop offset="0" style="stop-color:#f64"/><stop offset="1" style="stop-color:#ff0546"/></linearGradient><path d="M-3.7 13.3c0-3.2 1.8-6.2 4.6-7.5 3-1.4 6.4-.6 8.6 1.9l.2.3c3.1 3.5 8.3 3.7 11.6.3l.7-.7c2.3-2.4 5.7-3.1 8.7-1.8s4.9 4.4 4.9 7.9v15.4H-3.7z" style="fill:url(#xava_svg-e)"/><linearGradient id="xava_svg-f" x1="16" x2="16" y1="18.866" y2="-2.22" gradientTransform="matrix(1 0 0 -1 0 32)" gradientUnits="userSpaceOnUse"><stop offset="0" style="stop-color:#f64"/><stop offset="1" style="stop-color:#ff0546"/></linearGradient><path d="M-3.7 18.5c0-3.2 1.8-6.2 4.6-7.5 3-1.4 6.4-.6 8.6 1.9l.2.3c3.1 3.5 8.3 3.7 11.6.3l.7-.8c2.3-2.4 5.7-3.1 8.7-1.8s4.9 4.4 4.9 7.9v15.4H-3.7z" style="fill:url(#xava_svg-f)"/><linearGradient id="xava_svg-g" x1="16" x2="16" y1="13.731" y2="-7.355" gradientTransform="matrix(1 0 0 -1 0 32)" gradientUnits="userSpaceOnUse"><stop offset="0" style="stop-color:#f64"/><stop offset="1" style="stop-color:#ff0546"/></linearGradient><path d="M-3.7 23.6c0-3.2 1.8-6.2 4.6-7.5 3-1.4 6.4-.6 8.6 1.9l.2.3c3.1 3.5 8.3 3.7 11.6.3l.7-.8c2.3-2.4 5.7-3.1 8.7-1.8s4.9 4.4 4.9 7.9v15.4H-3.7z" style="fill:url(#xava_svg-g)"/></g></svg>