<svg xmlns="http://www.w3.org/2000/svg" width="400" height="401" version="1.2" viewBox="0 0 400 401"><defs><clipPath id="xprism_svg-cp1" clipPathUnits="userSpaceOnUse"><path d="M3.87 5.2h392v392h-392z"/></clipPath><clipPath id="xprism_svg-cp2" clipPathUnits="userSpaceOnUse"><path d="M3.87 201.2c0-108.25 87.75-196 196-196s196 87.75 196 196-87.75 196-196 196-196-87.75-196-196"/></clipPath><linearGradient id="xprism_svg-g1" x2="1" gradientTransform="matrix(392 -392 392 392 3.87 397.204)" gradientUnits="userSpaceOnUse"><stop offset="0" stop-color="#ad00fe"/><stop offset=".004" stop-color="#ac01fe"/><stop offset=".008" stop-color="#ac02fe"/><stop offset=".012" stop-color="#ab03fe"/><stop offset=".016" stop-color="#aa03fe"/><stop offset=".02" stop-color="#aa04fe"/><stop offset=".023" stop-color="#a905fe"/><stop offset=".027" stop-color="#a806fe"/><stop offset=".031" stop-color="#a807fe"/><stop offset=".035" stop-color="#a708fd"/><stop offset=".039" stop-color="#a609fd"/><stop offset=".043" stop-color="#a60afd"/><stop offset=".047" stop-color="#a50afd"/><stop offset=".051" stop-color="#a40bfd"/><stop offset=".055" stop-color="#a40cfd"/><stop offset=".059" stop-color="#a30dfd"/><stop offset=".063" stop-color="#a20efd"/><stop offset=".066" stop-color="#a10ffd"/><stop offset=".07" stop-color="#a110fd"/><stop offset=".074" stop-color="#a011fd"/><stop offset=".078" stop-color="#9f11fd"/><stop offset=".082" stop-color="#9f12fd"/><stop offset=".086" stop-color="#9e13fd"/><stop offset=".09" stop-color="#9d14fd"/><stop offset=".094" stop-color="#9d15fd"/><stop offset=".098" stop-color="#9c16fc"/><stop offset=".102" stop-color="#9b17fc"/><stop offset=".105" stop-color="#9b18fc"/><stop offset=".109" stop-color="#9a18fc"/><stop offset=".113" stop-color="#9919fc"/><stop offset=".117" stop-color="#991afc"/><stop offset=".121" stop-color="#981bfc"/><stop offset=".125" stop-color="#971cfc"/><stop offset=".129" stop-color="#971dfc"/><stop offset=".133" stop-color="#961efc"/><stop offset=".137" stop-color="#951ffc"/><stop offset=".141" stop-color="#951ffc"/><stop offset=".145" stop-color="#9420fc"/><stop offset=".148" stop-color="#9321fc"/><stop offset=".152" stop-color="#9322fc"/><stop offset=".156" stop-color="#9223fc"/><stop offset=".16" stop-color="#9124fb"/><stop offset=".164" stop-color="#9125fb"/><stop offset=".168" stop-color="#9026fb"/><stop offset=".172" stop-color="#8f26fb"/><stop offset=".176" stop-color="#8f27fb"/><stop offset=".18" stop-color="#8e28fb"/><stop offset=".184" stop-color="#8d29fb"/><stop offset=".188" stop-color="#8d2afb"/><stop offset=".191" stop-color="#8c2bfb"/><stop offset=".195" stop-color="#8b2cfb"/><stop offset=".199" stop-color="#8b2dfb"/><stop offset=".203" stop-color="#8a2dfb"/><stop offset=".207" stop-color="#892efb"/><stop offset=".211" stop-color="#882ffb"/><stop offset=".215" stop-color="#8830fb"/><stop offset=".219" stop-color="#8731fb"/><stop offset=".223" stop-color="#8632fa"/><stop offset=".227" stop-color="#8633fa"/><stop offset=".23" stop-color="#8534fa"/><stop offset=".234" stop-color="#8434fa"/><stop offset=".238" stop-color="#8435fa"/><stop offset=".242" stop-color="#8336fa"/><stop offset=".246" stop-color="#8237fa"/><stop offset=".25" stop-color="#8238fa"/><stop offset=".254" stop-color="#8139fa"/><stop offset=".258" stop-color="#803afa"/><stop offset=".262" stop-color="#803bfa"/><stop offset=".266" stop-color="#7f3bfa"/><stop offset=".27" stop-color="#7e3cfa"/><stop offset=".273" stop-color="#7e3dfa"/><stop offset=".277" stop-color="#7d3efa"/><stop offset=".281" stop-color="#7c3ff9"/><stop offset=".285" stop-color="#7c40f9"/><stop offset=".289" stop-color="#7b41f9"/><stop offset=".293" stop-color="#7a42f9"/><stop offset=".297" stop-color="#7a42f9"/><stop offset=".301" stop-color="#7943f9"/><stop offset=".305" stop-color="#7844f9"/><stop offset=".309" stop-color="#7845f9"/><stop offset=".313" stop-color="#7746f9"/><stop offset=".316" stop-color="#7647f9"/><stop offset=".32" stop-color="#7648f9"/><stop offset=".324" stop-color="#7549f9"/><stop offset=".328" stop-color="#7449f9"/><stop offset=".332" stop-color="#744af9"/><stop offset=".336" stop-color="#734bf9"/><stop offset=".34" stop-color="#724cf9"/><stop offset=".344" stop-color="#724df8"/><stop offset=".348" stop-color="#714ef8"/><stop offset=".352" stop-color="#704ff8"/><stop offset=".355" stop-color="#6f50f8"/><stop offset=".359" stop-color="#6f50f8"/><stop offset=".363" stop-color="#6e51f8"/><stop offset=".367" stop-color="#6d52f8"/><stop offset=".371" stop-color="#6d53f8"/><stop offset=".375" stop-color="#6c54f8"/><stop offset=".379" stop-color="#6b55f8"/><stop offset=".383" stop-color="#6b56f8"/><stop offset=".387" stop-color="#6a57f8"/><stop offset=".391" stop-color="#6957f8"/><stop offset=".395" stop-color="#6958f8"/><stop offset=".398" stop-color="#6859f8"/><stop offset=".402" stop-color="#675af8"/><stop offset=".406" stop-color="#675bf7"/><stop offset=".41" stop-color="#665cf7"/><stop offset=".414" stop-color="#655df7"/><stop offset=".418" stop-color="#655ef7"/><stop offset=".422" stop-color="#645ef7"/><stop offset=".426" stop-color="#635ff7"/><stop offset=".43" stop-color="#6360f7"/><stop offset=".434" stop-color="#6261f7"/><stop offset=".438" stop-color="#6162f7"/><stop offset=".441" stop-color="#6163f7"/><stop offset=".445" stop-color="#6064f7"/><stop offset=".449" stop-color="#5f65f7"/><stop offset=".453" stop-color="#5f65f7"/><stop offset=".457" stop-color="#5e66f7"/><stop offset=".461" stop-color="#5d67f7"/><stop offset=".465" stop-color="#5d68f7"/><stop offset=".469" stop-color="#5c69f6"/><stop offset=".473" stop-color="#5b6af6"/><stop offset=".477" stop-color="#5b6bf6"/><stop offset=".48" stop-color="#5a6cf6"/><stop offset=".484" stop-color="#596cf6"/><stop offset=".488" stop-color="#596df6"/><stop offset=".492" stop-color="#586ef6"/><stop offset=".496" stop-color="#576ff6"/><stop offset=".5" stop-color="#5670f6"/><stop offset=".504" stop-color="#5671f6"/><stop offset=".508" stop-color="#5572f6"/><stop offset=".512" stop-color="#5473f6"/><stop offset=".516" stop-color="#5473f6"/><stop offset=".52" stop-color="#5374f6"/><stop offset=".523" stop-color="#5275f6"/><stop offset=".527" stop-color="#5276f6"/><stop offset=".531" stop-color="#5177f5"/><stop offset=".535" stop-color="#5078f5"/><stop offset=".539" stop-color="#5079f5"/><stop offset=".543" stop-color="#4f7af5"/><stop offset=".547" stop-color="#4e7af5"/><stop offset=".551" stop-color="#4e7bf5"/><stop offset=".555" stop-color="#4d7cf5"/><stop offset=".559" stop-color="#4c7df5"/><stop offset=".563" stop-color="#4c7ef5"/><stop offset=".566" stop-color="#4b7ff5"/><stop offset=".57" stop-color="#4a80f5"/><stop offset=".574" stop-color="#4a81f5"/><stop offset=".578" stop-color="#4981f5"/><stop offset=".582" stop-color="#4882f5"/><stop offset=".586" stop-color="#4883f5"/><stop offset=".59" stop-color="#4784f5"/><stop offset=".594" stop-color="#4685f4"/><stop offset=".598" stop-color="#4686f4"/><stop offset=".602" stop-color="#4587f4"/><stop offset=".605" stop-color="#4488f4"/><stop offset=".609" stop-color="#4488f4"/><stop offset=".613" stop-color="#4389f4"/><stop offset=".617" stop-color="#428af4"/><stop offset=".621" stop-color="#428bf4"/><stop offset=".625" stop-color="#418cf4"/><stop offset=".629" stop-color="#408df4"/><stop offset=".633" stop-color="#408ef4"/><stop offset=".637" stop-color="#3f8ff4"/><stop offset=".641" stop-color="#3e8ff4"/><stop offset=".645" stop-color="#3d90f4"/><stop offset=".648" stop-color="#3d91f4"/><stop offset=".652" stop-color="#3c92f4"/><stop offset=".656" stop-color="#3b93f3"/><stop offset=".66" stop-color="#3b94f3"/><stop offset=".664" stop-color="#3a95f3"/><stop offset=".668" stop-color="#3996f3"/><stop offset=".672" stop-color="#3996f3"/><stop offset=".676" stop-color="#3897f3"/><stop offset=".68" stop-color="#3798f3"/><stop offset=".684" stop-color="#3799f3"/><stop offset=".688" stop-color="#369af3"/><stop offset=".691" stop-color="#359bf3"/><stop offset=".695" stop-color="#359cf3"/><stop offset=".699" stop-color="#349df3"/><stop offset=".703" stop-color="#339df3"/><stop offset=".707" stop-color="#339ef3"/><stop offset=".711" stop-color="#329ff3"/><stop offset=".715" stop-color="#31a0f3"/><stop offset=".719" stop-color="#31a1f2"/><stop offset=".723" stop-color="#30a2f2"/><stop offset=".727" stop-color="#2fa3f2"/><stop offset=".73" stop-color="#2fa4f2"/><stop offset=".734" stop-color="#2ea4f2"/><stop offset=".738" stop-color="#2da5f2"/><stop offset=".742" stop-color="#2da6f2"/><stop offset=".746" stop-color="#2ca7f2"/><stop offset=".75" stop-color="#2ba8f2"/><stop offset=".754" stop-color="#2ba9f2"/><stop offset=".758" stop-color="#2aaaf2"/><stop offset=".762" stop-color="#29abf2"/><stop offset=".766" stop-color="#29abf2"/><stop offset=".77" stop-color="#28acf2"/><stop offset=".773" stop-color="#27adf2"/><stop offset=".777" stop-color="#27aef2"/><stop offset=".781" stop-color="#26aff1"/><stop offset=".785" stop-color="#25b0f1"/><stop offset=".789" stop-color="#24b1f1"/><stop offset=".793" stop-color="#24b2f1"/><stop offset=".797" stop-color="#23b2f1"/><stop offset=".801" stop-color="#22b3f1"/><stop offset=".805" stop-color="#22b4f1"/><stop offset=".809" stop-color="#21b5f1"/><stop offset=".813" stop-color="#20b6f1"/><stop offset=".816" stop-color="#20b7f1"/><stop offset=".82" stop-color="#1fb8f1"/><stop offset=".824" stop-color="#1eb9f1"/><stop offset=".828" stop-color="#1eb9f1"/><stop offset=".832" stop-color="#1dbaf1"/><stop offset=".836" stop-color="#1cbbf1"/><stop offset=".84" stop-color="#1cbcf1"/><stop offset=".844" stop-color="#1bbdf0"/><stop offset=".848" stop-color="#1abef0"/><stop offset=".852" stop-color="#1abff0"/><stop offset=".855" stop-color="#19c0f0"/><stop offset=".859" stop-color="#18c0f0"/><stop offset=".863" stop-color="#18c1f0"/><stop offset=".867" stop-color="#17c2f0"/><stop offset=".871" stop-color="#16c3f0"/><stop offset=".875" stop-color="#16c4f0"/><stop offset=".879" stop-color="#15c5f0"/><stop offset=".883" stop-color="#14c6f0"/><stop offset=".887" stop-color="#14c7f0"/><stop offset=".891" stop-color="#13c7f0"/><stop offset=".895" stop-color="#12c8f0"/><stop offset=".898" stop-color="#12c9f0"/><stop offset=".902" stop-color="#11caf0"/><stop offset=".906" stop-color="#10cbef"/><stop offset=".91" stop-color="#10ccef"/><stop offset=".914" stop-color="#0fcdef"/><stop offset=".918" stop-color="#0eceef"/><stop offset=".922" stop-color="#0eceef"/><stop offset=".926" stop-color="#0dcfef"/><stop offset=".93" stop-color="#0cd0ef"/><stop offset=".934" stop-color="#0bd1ef"/><stop offset=".938" stop-color="#0bd2ef"/><stop offset=".941" stop-color="#0ad3ef"/><stop offset=".945" stop-color="#09d4ef"/><stop offset=".949" stop-color="#09d5ef"/><stop offset=".953" stop-color="#08d5ef"/><stop offset=".957" stop-color="#07d6ef"/><stop offset=".961" stop-color="#07d7ef"/><stop offset=".965" stop-color="#06d8ef"/><stop offset=".969" stop-color="#05d9ee"/><stop offset=".973" stop-color="#05daee"/><stop offset=".977" stop-color="#04dbee"/><stop offset=".98" stop-color="#03dcee"/><stop offset=".984" stop-color="#03dcee"/><stop offset=".988" stop-color="#02ddee"/><stop offset=".992" stop-color="#01deee"/><stop offset=".996" stop-color="#01dfee"/><stop offset="1" stop-color="#00e0ee"/></linearGradient></defs><style>.xprism_svg-s0{fill:#fff}</style><path fill-rule="evenodd" d="M-40-38.67h480v480H-40z" class="xprism_svg-s0"/><path fill-rule="evenodd" d="M-40-38.67h480v480H-40z" class="xprism_svg-s0"/><g clip-path="url(#xprism_svg-cp1)"><g id="xprism_svg-Clip-Path" clip-path="url(#xprism_svg-cp2)"><path d="M3.87 5.2v392h392V5.2z" style="fill:url(#xprism_svg-g1)"/></g></g><path fill-rule="evenodd" d="M199.87 54.2c33.97 0 65.24 11.53 90.14 30.88q.15.11.29.22l.78.62q.9.71 1.8 1.45l.69.57q1.04.87 2.08 1.75l.98.86q.55.48 1.1.97.87.77 1.72 1.56.64.59 1.27 1.19.58.54 1.15 1.09.49.47.97.95 1.07 1.04 2.12 2.12.34.34.66.67.6.62 1.18 1.24.55.58 1.07 1.16.71.75 1.39 1.52l1.32 1.48.77.89q2.04 2.37 3.96 4.8l.31.39q.19.24.39.48l-.02.01c19.35 24.89 30.88 56.16 30.88 90.13 0 31.75-10.06 61.15-27.18 85.17-8.48 11.92-34.28-14.1-26.48-26.48 10.71-16.99 16.91-37.11 16.91-58.69 0-23.81-7.55-45.85-20.38-63.88l-26.55 26.56c6.47 10.94 10.18 23.7 10.18 37.33 0 40.59-32.91 73.5-73.5 73.5-13.63 0-26.39-3.72-37.33-10.18l-26.55 26.54c18.03 12.84 40.07 20.38 63.88 20.38 21.57 0 41.69-6.2 58.69-16.91 12.37-7.8 38.4 18 26.48 26.49-24.02 17.11-53.42 27.17-85.17 27.17-33.97 0-65.24-11.52-90.14-30.87l-.01.01q-7.19-5.59-13.8-12.19-6.6-6.61-12.19-13.8l.01-.01c-19.34-24.89-30.87-56.17-30.87-90.14 0-31.74 10.06-61.14 27.17-85.17 8.49-11.92 34.29 14.11 26.49 26.49-10.71 16.99-16.91 37.11-16.91 58.68 0 23.82 7.55 45.86 20.38 63.88l26.55-26.54c-6.47-10.95-10.18-23.71-10.18-37.34 0-40.59 32.91-73.5 73.5-73.49 13.63 0 26.39 3.71 37.33 10.18l26.55-26.56c-18.02-12.83-40.07-20.38-63.88-20.38-21.57 0-41.69 6.21-58.69 16.91-12.38 7.8-38.4-18-26.49-26.49 24.03-17.1 53.43-27.17 85.18-27.17m0 110.25c-20.3 0-36.75 16.46-36.75 36.75 0 3.29.44 6.48 1.25 9.51q.29 1.06.63 2.1l.12.36q.18.53.38 1.05c3.73 9.86 11.59 17.69 21.47 21.4q.44.16.87.31.26.08.5.17 1 .33 2.02.6c3.04.82 6.22 1.25 9.51 1.25 20.3 0 36.75-16.44 36.75-36.74 0-3.29-.44-6.48-1.25-9.52l-.01.01q-.74-2.77-1.91-5.41l-.14-.32q-.38-.83-.8-1.65-.45-.87-.95-1.71-.27-.47-.55-.92-2.09-3.32-4.81-6.11-.17-.18-.35-.36-.1-.11-.21-.21-.97-.95-2-1.82-.35-.31-.71-.6-1.65-1.32-3.43-2.45-.59-.37-1.19-.72-.18-.1-.37-.21c-2.73-1.54-5.61-2.7-8.57-3.5v-.01c-3.03-.8-6.21-1.25-9.5-1.25" class="xprism_svg-s0"/></svg>