<svg xmlns="http://www.w3.org/2000/svg" width="64" height="65" fill="none" viewBox="0 0 64 65"><g clip-path="url(#xrp_svg-a)"><path fill="#fff" d="M31.954 64.213A31.876 31.876 0 0 0 63.91 32.258 31.877 31.877 0 0 0 31.954.304 31.876 31.876 0 0 0 0 32.258a31.876 31.876 0 0 0 31.954 31.955"/><path stroke="#070B14" stroke-opacity=".15" d="M31.954.804A31.377 31.377 0 0 1 63.41 32.258a31.38 31.38 0 0 1-31.455 31.455A31.377 31.377 0 0 1 .5 32.258 31.376 31.376 0 0 1 31.954.804Z"/><g fill="#23292F" clip-path="url(#xrp_svg-b)"><path d="M45.58 17h5.348l-11.13 10.789c-4.03 3.905-10.564 3.905-14.597 0L14.068 17h5.352l8.455 8.196a6.66 6.66 0 0 0 4.622 1.855c1.73 0 3.39-.667 4.621-1.855zM19.351 46.501H14l11.201-10.855c4.03-3.905 10.565-3.905 14.598 0L51 46.501h-5.348l-8.527-8.262a6.66 6.66 0 0 0-4.622-1.855c-1.73 0-3.39.666-4.622 1.855z"/></g></g><rect width="63" height="63" x=".5" y=".804" stroke="#070B14" stroke-opacity=".15" rx="31.5"/><defs><clipPath id="xrp_svg-a"><rect width="64" height="64" y=".304" fill="#fff" rx="32"/></clipPath><clipPath id="xrp_svg-b"><path fill="#fff" d="M14 17h37v30H14z"/></clipPath></defs></svg>