<svg xmlns="http://www.w3.org/2000/svg" width="64" height="65" fill="none" viewBox="0 0 64 65"><rect width="64" height="64" y=".304" fill="#2C7DF7" rx="32"/><rect width="63" height="63" x=".5" y=".804" stroke="#070B14" stroke-opacity=".15" rx="31.5"/><path fill="#fff" d="M36.136 51.504q-4.11 0-6-1.98a6.1 6.1 0 0 1-1.884-4.267c-.014-.49.1-.977.33-1.41a2.44 2.44 0 0 1 .9-.9 3.14 3.14 0 0 1 2.802 0 2.4 2.4 0 0 1 .895.9c.237.431.355.918.342 1.41a2.7 2.7 0 0 1-.48 1.65 2.24 2.24 0 0 1-1.14.835c.45.573 1.086.97 1.8 1.122.797.231 1.623.35 2.453.354a5.47 5.47 0 0 0 3.09-.924 5.4 5.4 0 0 0 2.016-2.73c.458-1.313.681-2.696.66-4.086a11.2 11.2 0 0 0-.72-4.248 5.24 5.24 0 0 0-2.082-2.64 5.54 5.54 0 0 0-3-.858 5.7 5.7 0 0 0-2.597.882l-1.927.966v-.966l8.658-11.615h-12v12.053c-.034.87.196 1.73.66 2.466a2.27 2.27 0 0 0 2.016.966 3.37 3.37 0 0 0 1.992-.702 7.2 7.2 0 0 0 1.668-1.716.6.6 0 0 1 .217-.288.44.44 0 0 1 .29-.108 1 1 0 0 1 .563.24c.2.224.31.515.306.816a5 5 0 0 1-.108.6 5.8 5.8 0 0 1-2.058 2.555 5.1 5.1 0 0 1-2.887.877q-3.897 0-5.4-1.536a5.75 5.75 0 0 1-1.488-4.2V22.999H17.92v-2.24h6.132v-5.105l-1.404-1.405v-1.145h4.074l1.53.792v6.864l15.852-.049 1.578 1.584-9.72 9.768a6.5 6.5 0 0 1 1.836-.444 7.96 7.96 0 0 1 3.553 1.014 7.3 7.3 0 0 1 3.06 2.73 9.6 9.6 0 0 1 1.38 3.295c.206.926.317 1.871.33 2.82.006 1.811-.404 3.6-1.2 5.226a7.66 7.66 0 0 1-3.6 3.6 11.65 11.65 0 0 1-5.185 1.2"/></svg>