<?xml version="1.0" encoding="UTF-8"?>
<svg id="Layer_1" data-name="Layer 1" xmlns="http://www.w3.org/2000/svg" xmlns:xlink="http://www.w3.org/1999/xlink" viewBox="0 0 126.64 120.09">
  <defs>
    <style>
      .cls-1 {
        fill: url(#linear-gradient);
      }

      .cls-2 {
        fill: url(#linear-gradient-3);
      }

      .cls-3 {
        fill: url(#linear-gradient-4);
      }

      .cls-4 {
        fill: url(#linear-gradient-2);
      }
    </style>
    <linearGradient id="linear-gradient" x1="132.28" y1="14.69" x2="69.49" y2="77.48" gradientUnits="userSpaceOnUse">
      <stop offset="0" stop-color="#f6a23a"/>
      <stop offset=".92" stop-color="#f15729"/>
      <stop offset="1" stop-color="#f15729"/>
    </linearGradient>
    <linearGradient id="linear-gradient-2" x1="-14.54" y1="40.22" x2="127.7" y2="20.4" gradientUnits="userSpaceOnUse">
      <stop offset="0" stop-color="#fff"/>
      <stop offset=".04" stop-color="#fcfeff"/>
      <stop offset=".06" stop-color="#f2fdff"/>
      <stop offset=".08" stop-color="#e2fcff"/>
      <stop offset=".1" stop-color="#ccf9ff"/>
      <stop offset=".12" stop-color="#aef6ff"/>
      <stop offset=".13" stop-color="#8bf3ff"/>
      <stop offset=".15" stop-color="#60eeff"/>
      <stop offset=".16" stop-color="#30e9ff"/>
      <stop offset=".18" stop-color="#00e5ff"/>
      <stop offset=".83" stop-color="#2a44ff"/>
    </linearGradient>
    <linearGradient id="linear-gradient-3" x1="-18.4" y1="118.17" x2="84.6" y2="15.17" xlink:href="#linear-gradient"/>
    <linearGradient id="linear-gradient-4" x1="137.01" y1="86.5" x2="-2.12" y2="83.78" xlink:href="#linear-gradient-2"/>
  </defs>
  <path class="cls-1" d="m117.33,28.54l-10.72-18.53-43.33,75.05,28.94.03,25.12-43.67c2.3-3.99,2.3-8.9-.01-12.89Z"/>
  <path class="cls-4" d="m106.61,10.02l-80.33-.03c-3.86,0-7.44,2.06-9.37,5.41l-7.61,13.18c-2.3,3.99-2.3,8.9,0,12.88l10.7,18.6,14.39-25.01h57.76"/>
  <path class="cls-2" d="m9.32,91.54l10.72,18.53L63.35,35.04h-28.96l-25.09,43.61c-2.3,3.99-2.3,8.9.01,12.89Z"/>
  <path class="cls-3" d="m20.04,110.07l80.33.03c3.86,0,7.44-2.06,9.37-5.41l7.61-13.18c2.3-3.99,2.3-8.9,0-12.88l-10.72-18.57-14.41,25.04-57.73-.06"/>
</svg>