<svg version="1.2" xmlns="http://www.w3.org/2000/svg" viewBox="0 0 128 128" width="32" height="32"><style>.a{fill:#61d6a3}</style><path fill-rule="evenodd" class="a" d="m64 3c0.3 0 3.9 3.3 8 7.4 6.9 6.9 7.4 7.6 6 9.3-0.8 1-9.1 9.6-18.5 19-9.4 9.5-17.5 17.3-18 17.3-0.6 0-4.4-3.4-16-15l19-19c10.4-10.5 19.2-19 19.5-19zm-42.5 45.8c1.6 0.3 4.2 1.1 5.8 1.8 1.5 0.8 3.6 2.5 4.7 3.9 1.5 1.9 1.8 3 1 4.5-0.5 1.1-2.1 2.5-3.5 3-1.4 0.5-2.7 1.6-3 2.3-0.2 0.6-0.5 2.1-0.7 3.1-0.3 1.8 0.3 2 4.5 1.8 4-0.2 4.6 0 4.2 1.6-0.3 0.9-2 3.2-3.8 5-1.7 1.8-4.8 3.8-6.7 4.4-1.9 0.6-5.3 0.8-7.5 0.5-2.2-0.4-5.1-1.5-6.5-2.5-1.4-1-3.5-3.4-4.8-5.3-1.5-2.2-2.2-4.9-2.2-7.6 0-2.4 0.8-5.9 1.7-7.9 1-2.1 3.1-4.6 4.8-5.8 1.7-1.1 4.3-2.3 6-2.7 1.6-0.3 4.4-0.4 6-0.1zm-0.5 5.9c0.8-0.3-0.1-0.5-2-0.5-1.9 0-2.6 0.2-1.5 0.5 1.1 0.2 2.7 0.2 3.5 0zm-11.4 5.9c-1.1 2.3-1.4 4.4-0.8 6.6 0.4 1.7 1.9 4.2 3.5 5.5 2.1 1.8 3.7 2.3 7.5 2.1l4.7-0.2c-7.9-0.5-9.7-1.1-10-2.1-0.3-0.8 1.3-3.6 3.6-6.3l4.1-4.7c-6.8-0.5-7.2-0.8-7.5-3.5-0.3-2.5-0.6-2.8-1.9-1.9-0.9 0.6-2.3 2.6-3.2 4.5zm100.1-11.6c0.4 0 4.2 3.4 15.8 15l-61.5 61.5-7.5-7.5c-4.1-4.1-7.5-7.9-7.4-8.3 0-0.5 13.5-14.3 29.9-30.8 16.4-16.4 30.2-29.9 30.7-29.9zm-22.7-23c0.3 0 3.9 3.4 15.5 15l-61.5 61.5-15.5-15.5 30.5-30.5c16.8-16.8 30.7-30.5 31-30.5z"/></svg>