<svg xmlns="http://www.w3.org/2000/svg" xmlns:xlink="http://www.w3.org/1999/xlink" data-name="Layer 1" viewBox="0 0 126.64 120.09"><defs><linearGradient id="zbu_svg-a" x1="132.28" x2="69.49" y1="14.69" y2="77.48" gradientUnits="userSpaceOnUse"><stop offset="0" stop-color="#f6a23a"/><stop offset=".92" stop-color="#f15729"/><stop offset="1" stop-color="#f15729"/></linearGradient><linearGradient id="zbu_svg-b" x1="-14.54" x2="127.7" y1="40.22" y2="20.4" gradientUnits="userSpaceOnUse"><stop offset="0" stop-color="#fff"/><stop offset=".04" stop-color="#fcfeff"/><stop offset=".06" stop-color="#f2fdff"/><stop offset=".08" stop-color="#e2fcff"/><stop offset=".1" stop-color="#ccf9ff"/><stop offset=".12" stop-color="#aef6ff"/><stop offset=".13" stop-color="#8bf3ff"/><stop offset=".15" stop-color="#60eeff"/><stop offset=".16" stop-color="#30e9ff"/><stop offset=".18" stop-color="#00e5ff"/><stop offset=".83" stop-color="#2a44ff"/></linearGradient><linearGradient xlink:href="#zbu_svg-a" id="zbu_svg-c" x1="-18.4" x2="84.6" y1="118.17" y2="15.17"/><linearGradient xlink:href="#zbu_svg-b" id="zbu_svg-d" x1="137.01" x2="-2.12" y1="86.5" y2="83.78"/></defs><path d="m117.33 28.54-10.72-18.53-43.33 75.05 28.94.03 25.12-43.67c2.3-3.99 2.3-8.9-.01-12.89Z" style="fill:url(#zbu_svg-a)"/><path d="m106.61 10.02-80.33-.03c-3.86 0-7.44 2.06-9.37 5.41L9.3 28.58c-2.3 3.99-2.3 8.9 0 12.88L20 60.06l14.39-25.01h57.76" style="fill:url(#zbu_svg-b)"/><path d="m9.32 91.54 10.72 18.53 43.31-75.03H34.39L9.3 78.65c-2.3 3.99-2.3 8.9.01 12.89Z" style="fill:url(#zbu_svg-c)"/><path d="m20.04 110.07 80.33.03c3.86 0 7.44-2.06 9.37-5.41l7.61-13.18c2.3-3.99 2.3-8.9 0-12.88l-10.72-18.57L92.22 85.1l-57.73-.06" style="fill:url(#zbu_svg-d)"/></svg>