<svg xmlns="http://www.w3.org/2000/svg" width="64" height="65" fill="none" viewBox="0 0 64 65"><g clip-path="url(#zec_svg-a)"><rect width="64" height="64" y=".304" fill="#fff" rx="32"/><path fill="url(#zec_svg-b)" d="M32.334 59.122c-14.582 0-26.485-11.915-26.485-26.484 0-14.582 11.915-26.485 26.485-26.485 14.582 0 26.485 11.915 26.485 26.485 0 14.581-11.903 26.484-26.485 26.484"/><path fill="#000" d="M32 64.304c-17.6 0-32-14.4-32-32s14.4-32 32-32 32 14.4 32 32-14.4 32-32 32m0-56.885c-13.685 0-24.885 11.2-24.885 24.885 0 13.684 11.2 24.884 24.885 24.884s24.885-11.2 24.885-24.884S45.685 7.419 32 7.419"/><path fill="#000" d="M31.259 40.972h13.867v6.933h-8.182v5.867h-7.115v-5.685h-8.534c0-2.315-.351-4.618.182-6.752.182-1.066 1.418-2.133 2.315-3.2 2.667-3.2 5.334-6.4 8.182-9.6 1.067-1.248 2.134-2.315 3.382-3.733H22.023V17.87h7.818v-5.866h6.933v5.683h8.533c0 2.315.352 4.618-.181 6.752-.182 1.066-1.418 2.133-2.316 3.2-2.666 3.2-5.333 6.4-8.181 9.6-1.067 1.249-2.134 2.485-3.37 3.734"/></g><rect width="63" height="63" x=".5" y=".804" stroke="#070B14" stroke-opacity=".15" rx="31.5"/><defs><linearGradient id="zec_svg-b" x1="14.149" x2="50.711" y1="50.799" y2="14.237" gradientUnits="userSpaceOnUse"><stop stop-color="#CF8724"/><stop offset="1" stop-color="#FDCE58"/></linearGradient><clipPath id="zec_svg-a"><rect width="64" height="64" y=".304" fill="#fff" rx="32"/></clipPath></defs></svg>