<svg xmlns="http://www.w3.org/2000/svg" width="64" height="65" fill="none" viewBox="0 0 64 65"><rect width="64" height="64" y=".304" fill="#D62825" rx="32"/><rect width="63" height="63" x=".5" y=".804" stroke="#070B14" stroke-opacity=".15" rx="31.5"/><path fill="#fff" d="M54.154 38.99c0-3.014-1.197-4.642-1.197-4.642-5.21 6.428-15.474 7.44-25.33 7.44l-3.181 1.326L54.933 20.57H19.83a5.167 5.167 0 0 0-5.166 5.167 5 5 0 0 0 .473 2.153c6.416-5.05 16.008-4.934 21.248-4.934l3.182-1.326-30.5 22.526h39.92a5.167 5.167 0 0 0 5.167-5.167"/></svg>