<svg xmlns="http://www.w3.org/2000/svg" data-name="Слой 1" viewBox="0 0 110.4 110.42"><path d="M55.45 111.38a55.21 55.21 0 1 1 55.2-55.22 55.27 55.27 0 0 1-55.2 55.22" style="fill:#f5eb16" transform="translate(-.25 -.96)"/><path d="M49.68 38a.57.57 0 0 1 .58-.58h7.46a2 2 0 0 1 .34 0L73 28.85a26 26 0 0 0-2.44-1.35 32.3 32.3 0 0 0-14-2.91H33.59a.57.57 0 0 0-.58.56v26.78l16.67-9.62Zm33.25 5.42L66.38 53a8 8 0 0 1-1.47 2 9.5 9.5 0 0 1-6 2.37L33 72.28v20.61l.49-.28 7.82-4.52 8.37-4.82V70.84a.57.57 0 0 1 .58-.57h6q12.63 0 19.87-6.05T83.34 48a25 25 0 0 0-.41-4.6m-18.08-3.03a11.18 11.18 0 0 1 2.6 7.74 14.5 14.5 0 0 1-.17 2.15l26.86-15.51-10.09-10.1-23 13.28a8.43 8.43 0 0 1 3.8 2.44m-38 33.24L55 57.38h-4.7a.57.57 0 0 1-.58-.56V44.51l-32.93 19 10.03 10.1Z" style="fill:#19191a" transform="translate(-.25 -.96)"/></svg>