<svg xmlns="http://www.w3.org/2000/svg" xml:space="preserve" style="fill-rule:evenodd;clip-rule:evenodd;stroke-linejoin:round;stroke-miterlimit:1.41421" viewBox="0 0 300 300"><circle cx="364.843" cy="365.137" r="230.631" style="fill:#ff914d" transform="translate(-87.29 -87.482)scale(.65039)"/><ellipse cx="381.449" cy="358.415" rx="53.572" ry="55.677" style="fill:#fff" transform="matrix(2.64443 0 0 2.54442 -858.716 -761.958)"/><ellipse cx="370.718" cy="362.592" rx="53.577" ry="54.198" style="fill:#ff914d" transform="matrix(2.48861 0 0 2.46013 -772.572 -742.024)"/><path d="M302.3 605.6c7.5-3.1 36.8-25.7 65.1-50 39.8-34.2 63.3-56.1 101.1-94 31-31 42.5-44.3 44.4-51.2 6.7-24.2-66.6-290.1-81.5-295.8-9.1-3.5-90.4 64.1-162.4 134.9-42.2 41.5-53.9 55.3-54.8 64.3-.6 7 1.8 24.5 6.3 45.2 17.9 82.2 50.5 195.8 67 233.1 6.9 15.8 7.7 16.5 14.8 13.5" style="fill:#fff;fill-rule:nonzero" transform="scale(.41667)"/></svg>