<svg xmlns="http://www.w3.org/2000/svg" xml:space="preserve" viewBox="0 0 426.7 426.7"><path d="M337.3 225.2h-63.5l-11.1-33.8h74.6v-.1c5.3 0 9.6-4.3 9.6-9.6s-4.3-9.6-9.6-9.6h-80.9L224 73.2c-.8-6.9-6.6-12.2-13.7-12.2-6.8 0-12.4 4.9-13.6 11.4l-78 235.5c-.4 1.2-.6 2.5-.6 3.8 0 7.2 5.8 13 13 13 6.1 0 11.1-4.2 12.6-9.8L210 116.7l18.6 55.3h-16.3c-5.3 0-9.6 4.3-9.6 9.6s4.3 9.6 9.6 9.6v.1h22.8l11.4 33.8h-34.2c-5.3 0-9.6 4.3-9.6 9.6s4.3 9.6 9.6 9.6v.1H253l18.3 54.2H174v.1c-7 .6-12.5 6.5-12.5 13.6s5.5 13 12.5 13.6v.1h115.1c7.1 0 12.9-5.8 12.9-12.9 0-2.1-.5-4-1.3-5.7l-20.6-62.9h57.2v-.1c5.3 0 9.6-4.3 9.6-9.6s-4.3-9.6-9.6-9.6"/></svg>