<svg xmlns="http://www.w3.org/2000/svg" width="297mm" height="210mm" viewBox="0 0 1052.362 744.094"><path fill="none" d="M190.39 53.654h648.809v648.809H190.39z"/><g transform="translate(-235.293 -462.207)scale(1.40895)"><rect width="453.417" height="217.027" x="-615.098" y="-807.254" fill="#5fbcd3" fill-rule="evenodd" rx="226.709" ry="108.514" transform="scale(1 -1)rotate(70.822)"/><rect width="453.417" height="217.027" x="-166.024" y="-905.635" fill="#2c89a0" fill-rule="evenodd" rx="226.709" ry="108.514" transform="scale(1 -1)rotate(37.401)"/><rect width="453.417" height="217.027" x="235.074" y="544.052" fill="#164450" fill-rule="evenodd" rx="226.709" ry="108.514" transform="rotate(-6.47)"/><path fill="#fff" d="M604.706 528.384q-15.79.056-29.844 5.94-14.168 5.886-27.513 17.948c-4.296-9.121-13.067-15.563-20.832-18.469q-11.228-4.194-28.278-4.134-11.9.04-24.71 1.803-12.695 1.647-26.07 4.899l-5.955 31.259a101.4 101.4 0 0 1 22.514-7.975q11.89-2.674 24.934-2.72 13.731-.049 20.84 3.817 7.108 3.75 7.134 11.303.002.572-.11 1.259.002.687-.336 2.175l-.674 3.32-23.457.083q-36.158.13-55.107 13.24-18.834 12.997-18.747 37.712.057 16.134 11.075 25.363 11.018 9.23 30.47 9.16 15.79-.055 29.843-5.94 14.167-5.886 27.513-17.947c4.297 9.12 13.068 15.562 20.832 18.469q11.229 4.194 28.278 4.133 11.9-.042 24.71-1.804 12.694-1.647 26.07-4.897l5.956-31.26a101.4 101.4 0 0 1-22.514 7.976q-11.891 2.673-24.935 2.72-13.73.049-20.84-3.817-7.107-3.75-7.134-11.303a8 8 0 0 1 .11-1.26q-.001-.686.337-2.174l.674-3.322 23.456-.083q36.159-.128 55.107-13.239 18.834-12.996 18.747-37.712-.057-16.133-11.075-25.363t-30.47-9.16m-17.983 27.296q8.124-.03 12.83 3.96 4.592 3.989 4.616 10.968.033 9.269-7.732 13.987-7.878 4.833-23.21 4.888l-19.682.07.9-4.695q2.81-13.855 11.251-21.551 8.44-7.582 21.027-7.627m-95.202 47.59 19.682-.07-.9 4.695q-2.811 13.855-11.252 21.551-8.44 7.582-21.027 7.627-8.124.03-12.83-3.96-4.591-3.989-4.616-10.969-.031-9.268 7.733-13.987 7.877-4.833 23.21-4.888z" font-family="DejaVu Sans" font-size="447.2" font-style="oblique" font-weight="bold" letter-spacing="0" style="line-height:125%;-inkscape-font-specification:&quot;DejaVu Sans Bold Oblique&quot;;text-align:start" word-spacing="0"/></g></svg>