<svg xmlns="http://www.w3.org/2000/svg" xmlns:xlink="http://www.w3.org/1999/xlink" viewBox="0 0 160.84 241.75"><defs><linearGradient id="aeur_svg-a" x1="5375.71" x2="5536.55" y1="-5271.65" y2="-5271.65" gradientTransform="rotate(90 92.24 -5283.47)" gradientUnits="userSpaceOnUse"><stop offset="0" stop-color="#fff"/><stop offset=".03" stop-color="#fff" stop-opacity=".83"/><stop offset=".07" stop-color="#fff" stop-opacity=".66"/><stop offset=".11" stop-color="#fff" stop-opacity=".5"/><stop offset=".15" stop-color="#fff" stop-opacity=".37"/><stop offset=".19" stop-color="#fff" stop-opacity=".25"/><stop offset=".25" stop-color="#fff" stop-opacity=".16"/><stop offset=".3" stop-color="#fff" stop-opacity=".09"/><stop offset=".37" stop-color="#fff" stop-opacity=".04"/><stop offset=".47" stop-color="#fff" stop-opacity=".01"/><stop offset=".66" stop-color="#fff" stop-opacity="0"/></linearGradient><linearGradient xlink:href="#aeur_svg-a" id="aeur_svg-b" x1="5456.62" x2="5617.46" y1="-5271.65" y2="-5271.65"/></defs><g data-name="Layer 2"><g data-name="Layer 1"><path d="M80.42 160.84a80.42 80.42 0 1 1 80.42-80.42 80.52 80.52 0 0 1-80.42 80.42m0-80.91a.49.49 0 1 0 .49.49.55.55 0 0 0-.49-.49" style="fill:url(#aeur_svg-a)"/><path d="M80.42 241.75a80.42 80.42 0 1 1 80.42-80.42 80.52 80.52 0 0 1-80.42 80.42m0-80.91a.49.49 0 1 0 .49.49.55.55 0 0 0-.49-.49" style="fill:url(#aeur_svg-b)"/></g></g></svg>