<svg xmlns="http://www.w3.org/2000/svg" width="17" height="17" viewBox="0 0 17 17"><path d="M.011 17a6 6 0 0 1-.002-.709q.12-.035.246-.05.363-.062.717-.167.097-.03.19-.066c.31-.119.584-.315.792-.569q.216-.266.378-.57.228-.414.406-.853.361-.882.72-1.769l2.459-6.093Q7.083 3.258 8.204.345q.023-.059.049-.118C8.529.151 8.8.073 9.083 0c.016.04.032.074.045.11l.95 2.601a920 920 0 0 0 3.273 8.854q.456 1.208.919 2.412.183.492.429.958a5 5 0 0 0 .234.387c.257.392.656.675 1.117.791q.373.098.754.147l.181.026c.026.079.01.155.012.23.003.076 0 .16 0 .241q.004.116-.004.233-.038.007-.066.01h-6.363a.2.2 0 0 1-.014-.043v-.639l.008-.028a1 1 0 0 1 .161-.03q.393-.05.776-.148c.102-.028.203-.064.303-.1q.075-.03.144-.07c.251-.138.352-.354.33-.63a2 2 0 0 0-.067-.37c-.05-.19-.12-.373-.186-.557a1449 1449 0 0 1-3.911-10.82c-.014-.04-.018-.083-.059-.118-.013.008-.03.014-.04.025a.3.3 0 0 0-.024.058c-.63 1.776-1.301 3.538-1.97 5.3-.493 1.306-.987 2.61-1.447 3.927a84 84 0 0 0-.535 1.59 4 4 0 0 0-.15.623 1.5 1.5 0 0 0-.012.427.67.67 0 0 0 .276.466q.154.107.332.167.283.098.579.146c.217.039.436.069.654.103l.047.008q.008.024.01.048v.618l-.008.036-.059.01H.011z"/></svg>