<svg xmlns="http://www.w3.org/2000/svg" width="283" height="294" viewBox="0 0 283 294"><defs><linearGradient id="arnx_svg-a" x1="34.486%" x2="192.817%" y1="85.076%" y2="-139.072%"><stop offset="0%" stop-color="#445E92"/><stop offset="13.14%" stop-color="#436898"/><stop offset="35.75%" stop-color="#3F84A8"/><stop offset="58.99%" stop-color="#3AA7BC"/><stop offset="68.81%" stop-color="#3EAFBE"/><stop offset="83.73%" stop-color="#4AC4C2"/><stop offset="100%" stop-color="#5BE2C9"/></linearGradient><linearGradient id="arnx_svg-b" x1="-24.268%" x2="263.776%" y1="296.939%" y2="-508.891%"><stop offset="0%" stop-color="#445E92"/><stop offset="13.14%" stop-color="#436898"/><stop offset="35.75%" stop-color="#3F84A8"/><stop offset="58.99%" stop-color="#3AA7BC"/><stop offset="68.81%" stop-color="#3EAFBE"/><stop offset="83.73%" stop-color="#4AC4C2"/><stop offset="100%" stop-color="#5BE2C9"/></linearGradient><linearGradient id="arnx_svg-c" x1="10.064%" x2="113.401%" y1="211.055%" y2="-140.156%"><stop offset="0%" stop-color="#445E92"/><stop offset="13.14%" stop-color="#436898"/><stop offset="35.75%" stop-color="#3F84A8"/><stop offset="58.99%" stop-color="#3AA7BC"/><stop offset="68.81%" stop-color="#3EAFBE"/><stop offset="83.73%" stop-color="#4AC4C2"/><stop offset="100%" stop-color="#5BE2C9"/></linearGradient><linearGradient id="arnx_svg-d" x1="-21.532%" x2="206.916%" y1="217.316%" y2="-416.259%"><stop offset="0%" stop-color="#445E92"/><stop offset="13.14%" stop-color="#436898"/><stop offset="35.75%" stop-color="#3F84A8"/><stop offset="58.99%" stop-color="#3AA7BC"/><stop offset="68.81%" stop-color="#3EAFBE"/><stop offset="83.73%" stop-color="#4AC4C2"/><stop offset="100%" stop-color="#5BE2C9"/></linearGradient><linearGradient id="arnx_svg-e" x1="-11.588%" x2="99.275%" y1="128.276%" y2="-29.942%"><stop offset="0%" stop-color="#445E92"/><stop offset="13.14%" stop-color="#436898"/><stop offset="35.75%" stop-color="#3F84A8"/><stop offset="58.99%" stop-color="#3AA7BC"/><stop offset="68.81%" stop-color="#3EAFBE"/><stop offset="83.73%" stop-color="#4AC4C2"/><stop offset="100%" stop-color="#5BE2C9"/></linearGradient><linearGradient id="arnx_svg-f" x1="-88.801%" x2="220.816%" y1="112.237%" y2="-18.216%"><stop offset="0%" stop-color="#000045"/><stop offset="34.92%" stop-color="#445E92"/><stop offset="49.42%" stop-color="#436898"/><stop offset="74.36%" stop-color="#3F84A8"/><stop offset="100%" stop-color="#3AA7BC"/></linearGradient><linearGradient id="arnx_svg-g" x1="44.489%" x2="57.223%" y1="123.633%" y2="-80.724%"><stop offset="0%" stop-color="#000045"/><stop offset="34.92%" stop-color="#445E92"/><stop offset="49.42%" stop-color="#436898"/><stop offset="74.36%" stop-color="#3F84A8"/><stop offset="100%" stop-color="#3AA7BC"/></linearGradient><linearGradient id="arnx_svg-h" x1="18.351%" x2="101.532%" y1="138.813%" y2="-52.502%"><stop offset="0%" stop-color="#445E92"/><stop offset="13.14%" stop-color="#436898"/><stop offset="35.75%" stop-color="#3F84A8"/><stop offset="58.99%" stop-color="#3AA7BC"/><stop offset="68.81%" stop-color="#3EAFBE"/><stop offset="83.73%" stop-color="#4AC4C2"/><stop offset="100%" stop-color="#5BE2C9"/></linearGradient><linearGradient id="arnx_svg-i" x1="184.862%" x2="-38.884%" y1="126.226%" y2="3.982%"><stop offset="0%" stop-color="#445E92"/><stop offset="13.14%" stop-color="#436898"/><stop offset="35.75%" stop-color="#3F84A8"/><stop offset="58.99%" stop-color="#3AA7BC"/><stop offset="68.81%" stop-color="#3EAFBE"/><stop offset="83.73%" stop-color="#4AC4C2"/><stop offset="100%" stop-color="#5BE2C9"/></linearGradient><linearGradient id="arnx_svg-j" x1="20.886%" x2="163.873%" y1="102.927%" y2="-95.091%"><stop offset="0%" stop-color="#445E92"/><stop offset="13.14%" stop-color="#436898"/><stop offset="35.75%" stop-color="#3F84A8"/><stop offset="58.99%" stop-color="#3AA7BC"/><stop offset="68.81%" stop-color="#3EAFBE"/><stop offset="83.73%" stop-color="#4AC4C2"/><stop offset="100%" stop-color="#5BE2C9"/></linearGradient><linearGradient id="arnx_svg-k" x1="33.576%" x2="115.793%" y1="102.752%" y2="-82.172%"><stop offset="0%" stop-color="#445E92"/><stop offset="13.14%" stop-color="#436898"/><stop offset="35.75%" stop-color="#3F84A8"/><stop offset="58.99%" stop-color="#3AA7BC"/><stop offset="68.81%" stop-color="#3EAFBE"/><stop offset="83.73%" stop-color="#4AC4C2"/><stop offset="100%" stop-color="#5BE2C9"/></linearGradient><linearGradient id="arnx_svg-l" x1="-3.988%" x2="294.44%" y1="59.22%" y2="-8.383%"><stop offset="0%" stop-color="#445E92"/><stop offset="9.402%" stop-color="#3F689A"/><stop offset="25.58%" stop-color="#3084AF"/><stop offset="46.45%" stop-color="#19B1D2"/><stop offset="58.99%" stop-color="#09CFE9"/><stop offset="66.8%" stop-color="#11D1E6"/><stop offset="78.66%" stop-color="#26D6DE"/><stop offset="93.03%" stop-color="#48DED0"/><stop offset="100%" stop-color="#5BE2C9"/></linearGradient><linearGradient id="arnx_svg-m" x1="59.407%" x2="43.846%" y1="115.275%" y2="-24.875%"><stop offset="0%" stop-color="#445E92"/><stop offset="13.14%" stop-color="#436898"/><stop offset="35.75%" stop-color="#3F84A8"/><stop offset="58.99%" stop-color="#3AA7BC"/><stop offset="68.81%" stop-color="#3EAFBE"/><stop offset="83.73%" stop-color="#4AC4C2"/><stop offset="100%" stop-color="#5BE2C9"/></linearGradient><linearGradient id="arnx_svg-n" x1="47.693%" x2="50.242%" y1="105.897%" y2=".562%"><stop offset="0%" stop-color="#000045"/><stop offset="35.98%" stop-color="#445E92"/><stop offset="44.52%" stop-color="#436898"/><stop offset="59.23%" stop-color="#3F84A8"/><stop offset="74.34%" stop-color="#3AA7BC"/><stop offset="80.48%" stop-color="#3EAFBE"/><stop offset="89.82%" stop-color="#4AC4C2"/><stop offset="100%" stop-color="#5BE2C9"/></linearGradient><linearGradient id="arnx_svg-o" x1="-12.913%" x2="177.815%" y1="153.203%" y2="-194.611%"><stop offset="0%" stop-color="#000045"/><stop offset="34.92%" stop-color="#445E92"/><stop offset="49.42%" stop-color="#436898"/><stop offset="74.36%" stop-color="#3F84A8"/><stop offset="100%" stop-color="#3AA7BC"/></linearGradient><linearGradient id="arnx_svg-p" x1="-.636%" x2="83.134%" y1="178.429%" y2="-18.036%"><stop offset="0%" stop-color="#000045"/><stop offset="34.92%" stop-color="#445E92"/><stop offset="49.42%" stop-color="#436898"/><stop offset="74.36%" stop-color="#3F84A8"/><stop offset="100%" stop-color="#3AA7BC"/></linearGradient><linearGradient id="arnx_svg-q" x1="3.302%" x2="133.81%" y1="103.295%" y2="-20.915%"><stop offset="0%" stop-color="#000045"/><stop offset="34.92%" stop-color="#445E92"/><stop offset="49.42%" stop-color="#436898"/><stop offset="74.36%" stop-color="#3F84A8"/><stop offset="100%" stop-color="#3AA7BC"/></linearGradient><linearGradient id="arnx_svg-r" x1="-85.545%" x2="148.978%" y1="322.066%" y2="-119.704%"><stop offset="0%" stop-color="#000045"/><stop offset="34.92%" stop-color="#445E92"/><stop offset="49.42%" stop-color="#436898"/><stop offset="74.36%" stop-color="#3F84A8"/><stop offset="100%" stop-color="#3AA7BC"/></linearGradient><linearGradient id="arnx_svg-s" x1="-10.407%" x2="160.209%" y1="29.012%" y2="77.244%"><stop offset="0%" stop-color="#000045"/><stop offset="54.5%" stop-color="#445E92"/><stop offset="64.63%" stop-color="#436898"/><stop offset="82.07%" stop-color="#3F84A8"/><stop offset="100%" stop-color="#3AA7BC"/></linearGradient></defs><g fill="none" fill-rule="evenodd" transform="translate(18 26)"><path fill="url(#arnx_svg-a)" fill-rule="nonzero" d="M156.1 174.3c-.3 0-.9-.1-1.5-.5-.5-.3-.8-.7-1-1h-.1L128.9 216c25-5.5 49.9-11.1 74.9-16.6-.5-.6-1-1.3-1.6-2.2-.7-1-1.3-2.2-2-3.5q-1.05-1.95-1.8-3.6v-.1c0-.1-.1-.2-.1-.2-1.1-2.3-2.2-4.9-3.3-7.7-.3-.7-.5-1.3-.8-1.9-1.2-3-2.7-6.8-4.3-11.4-4.2.8-7.7 1.5-10.1 2-.1 0-.2 0-.3.1-3.7.8-7.2 1.5-10.6 2.1-1.9.4-3.7.6-5.4.9-.4.1-.9.1-1.5.2 0 0-1.2.2-2.8.3-1.3.1-2.3 0-3.1-.1"/><path fill="url(#arnx_svg-b)" fill-rule="nonzero" d="M179.1 136.1c-.6-2.1-1-4.1-1.3-5.8l-18.8 33 .1-.1c.8-.3 1.7-.6 2.8-.9 2.6-.8 5.8-1.6 9.7-2.6s8.5-2.1 13.9-3.5c-1.1-3.3-2.3-6.7-3.4-10.2q-1.8-5.25-3-9.9"/><path fill="url(#arnx_svg-c)" fill-rule="nonzero" d="M208.1 77.6h-.4l-24.3 42.7c.1 0 .3.1.6.1.1 0 .1 0 .2.1.1 0 .1 0 .2.1.1 0 .1.1.2.1s.1 0 .2.1c.2.1.5.3.8.6.4.4.7.8.8.9s.1.2.2.3c.2.3.4.6.6 1 .5.9.8 1.4.8 1.4 1.2 2.3 2.4 5 3.6 8.2s2.5 6.6 3.7 10.2c.3.8.5 1.5.8 2.3.7 2.1 1.6 4.7 2.6 7.7 4.2-.8 8.2-1.6 12.1-2.3s7.4-1.2 10.6-1.5 5.9-.5 8.2-.4c1.3 0 2.3.1 3.2.3.2 0 .5.1.7.1-1.9-5.3-3.9-11.2-6.2-17.5z"/><path fill="url(#arnx_svg-d)" fill-rule="nonzero" d="M231 158.5q-3.6 1.35-8.4 2.7c-.6.2-1.2.3-1.7.5-.5.1-1 .3-1.5.4-1.4.4-2.8.7-4.2 1q-1.05.3-2.4.6h-.1c-2.4.6-5.6 1.3-9.3 2.1.8 2.8 1.8 5.9 3 9.4 1.1 3.5 2.2 6.9 3.1 10.1.3 1 .5 1.9.8 2.9.5 1.5.9 3 1.2 4.8.1.3.1.6.2.9.4 1.6.5 2.8.4 3.7 0 0 4.2-.8 6.3-1.3 8.2-10.6 14.7-22.5 19.1-35.5-.6-1.8-1.2-3.5-1.8-5.3-.9 1.2-2.4 2.1-4.7 3"/><path fill="url(#arnx_svg-e)" fill-rule="nonzero" d="M99.5 3.5h.4q.6 0 1.5.6c.3.2.7.4 1 .7.4.3.8.6 1.2 1 1.8 1.6 3.8 3.5 6.1 5.8q3.3 3.3 6.9 7.2c2.3 2.5 4.4 4.8 6.3 6.7q1.35-1.35 2.7-3c1.1-1.2 2.2-2.4 3.3-3.7 1.1-1.2 2.2-2.5 3.4-3.6 1.1-1.2 2.2-2.3 3.3-3.4l1.6-1.6c.6-.6 1.2-1.1 1.7-1.6 1-.9 1.9-1.7 2.8-2.4 1.9-1.6 3.3-2.3 4.4-2.3.4 0 .8.1 1.2.2l-1.1-1.3c-1-.2-1.9-.4-2.9-.6-.1 0-.2 0-.3-.1-.9-.2-1.8-.3-2.7-.4h-.2c-.9-.1-1.9-.3-2.8-.4h-.1c-5-.6-10.1-1-15.3-1h-2.8c-.9 0-1.7.1-2.5.1h-.3c-.9 0-1.7.1-2.6.2h-.1c-4.6.3-9.1.9-13.5 1.7-.4.4-.7.8-1.1 1.3.2 0 .3-.1.5-.1"/><path fill="url(#arnx_svg-f)" fill-rule="nonzero" d="M30.9 60.4c.5-.4 1.1-1 2.1-1.4.8-.4 2.1-.8 3.7-.9 1.7-.1 3 .4 3.7.6C56.3 40.8 72.2 23 88.1 5.1l-3.9 1.2c-8.9 3-20.7 8-33 16.8-13.2 9.6-22.2 20-28 28-.8 1.2-1.7 2.3-2.5 3.5 3.4 1.9 6.8 3.9 10.2 5.8"/><path fill="url(#arnx_svg-g)" fill-rule="nonzero" d="M28.3 72.3c-.7-1.3-1.1-2.8-1.1-4.4v-.7s.1-.5.1-.7L17 60.7C7.2 77.4 1.2 96.7.4 117.3v8.4c.3 9.4 1.6 18.5 3.9 27.2 8.9-25.8 17.9-51.5 26.8-77.3-1.1-.8-2.1-2-2.8-3.3"/><path fill="url(#arnx_svg-h)" fill-rule="nonzero" d="M149.7 9.8c-.2.6-.5 1.3-1 2-.6 1.1-1.3 2.3-2.2 3.6-.5.7-1 1.5-1.5 2.3-.1.2-.2.4-.4.6-1.1 1.6-2.3 3.2-3.7 5-.7.8-1.3 1.7-2 2.6-.1.1-.2.3-.3.4-1.3 1.6-2.7 3.3-4.2 5-1.1 1.3-2.1 2.5-3.3 3.8 1.5 1.7 3.2 3.5 4.9 5.5.6.6 1.2 1.3 1.7 2 1.2 1.3 2.3 2.6 3.4 3.9s2.2 2.6 3.2 3.8c2 2.5 3.7 4.7 5.1 6.7 1.2 1.8 1.8 3.1 2 4.1v.4c0 1-.5 2-1.4 2.9h47.8c.3-.8.7-1.5 1.2-2.2L150.1 7.3v.2c.1.5-.1 1.3-.4 2.3"/><path fill="url(#arnx_svg-i)" fill-rule="nonzero" d="M178.4 14.2c-.2-.1-.3-.2-.5-.2-1.3-.7-2.7-1.4-4.1-2-.3-.1-.5-.2-.7-.4-1.3-.6-2.6-1.2-4-1.8-.3-.1-.5-.2-.8-.3-1.4-.6-2.9-1.2-4.4-1.7-.2-.1-.4-.1-.6-.2-1.5-.6-3.1-1.1-4.7-1.6 15.5 17.4 31 34.9 46.6 52.3.2 0 .5-.1.7-.1h2.1c.5.1 1.4.2 2.5.6.1 0 .2.1.3.2s.3.1.4.2c.8.4 1.5.9 2.1 1.4.1 0 .1.1.2.1.3.2.5.5.7.7 3.3-1.9 6.6-3.7 9.8-5.6-10.5-16-24.6-29.5-41.2-39.1h-.1c-1.4-.9-2.9-1.7-4.3-2.5"/><path fill="url(#arnx_svg-j)" fill-rule="nonzero" d="M140.9 63c-.5-.4-.9-.8-1.4-1.2-1-.9-2-1.8-3.1-2.8l-1.6-1.6c-1.7-1.7-3.4-3.4-5.1-5.4-1.2-1.3-2.3-2.6-3.4-3.8-1.1-1.3-2.3-2.5-3.4-3.7-3.7 3.8-6.8 7.1-9.4 9.9-.6.6-1.2 1.3-1.8 1.9l-.2.2c-1.2 1.2-2.2 2.3-3.2 3.3l-1.4 1.4c-1.5 1.4-2.7 2.5-3.8 3.3h39.5c-.1-.1-.3-.2-.4-.3-.4-.5-.9-.8-1.3-1.2"/><path fill="url(#arnx_svg-k)" fill-rule="nonzero" d="M46.1 64.4h49.4c-.2-.2-.4-.5-.6-.7s-.3-.5-.4-.7c-.2-.5-.4-1-.4-1.5 0-.3.1-.7.2-1.2 0-.1.1-.2.1-.3.1-.2.2-.5.4-.8.3-.6.7-1.3 1.2-2 .1-.1.1-.2.2-.2 1.4-2 3.1-4.2 5.1-6.7.3-.3.6-.7.8-1 1.2-1.4 2.5-2.9 3.8-4.4.6-.7 1.3-1.5 2-2.2s1.3-1.5 2-2.2c1.5-1.7 3-3.4 4.3-5 .1-.1.2-.2.2-.3-2.6-3-5.1-6-7.4-8.8-1.2-1.4-2.3-2.8-3.3-4.1s-1.9-2.6-2.8-3.8c-1.7-2.5-3.1-4.6-4.1-6.5l-.6-1.2c-.2-.4-.3-.8-.5-1.1-.2-.7-.4-1.3-.4-1.8L45.7 63.5c.1.3.3.6.4.9"/><path fill="url(#arnx_svg-l)" fill-rule="nonzero" d="M126.5 243.5c33-1.2 62.7-15.6 84-38.2-28 6.2-56 12.4-84 18.5z"/><path fill="url(#arnx_svg-m)" fill-rule="nonzero" d="M242.3 139.9c.1-.4.1-.7.2-1.1.1-1 .3-1.9.4-2.9v-.1c.1-1 .2-2 .3-3.1 0-.3.1-.6.1-.9 0-.6.1-1.1.1-1.7q.3-4.65.3-8.7c-.1-18.8-4.5-36.6-12.2-52.5l-.3-.6c-.4-.9-.9-1.7-1.3-2.6l-.6-1.2c-.5-.9-1-1.9-1.5-2.8-3.7 2.1-7.3 4.1-11 6.2 0 .3 0 .6-.1.9-.1.6-.2 1.1-.3 1.6-.1.3-.2.5-.3.8-.3.8-.7 1.5-1.1 2.1-.2.2-.3.4-.5.6 8.7 25.1 17.4 50.1 26.1 75.2.5-2.1.9-4.3 1.3-6.4 0-.2.1-.4.1-.7.1-.5.2-1.3.3-2.1"/><path d="M122.5 213.1 43.9 74.8c1-1 1.7-2.1 2.2-3.4-.5 1.3-1.3 2.4-2.2 3.4zl78.3-137.7z"/><path fill="url(#arnx_svg-n)" fill-rule="nonzero" d="m122.5 213.1 78.3-137.7c-1.3-1.1-2.3-2.4-2.9-4H46.1c-.5 1.3-1.3 2.4-2.2 3.4zm2.3-98.3c.2-.2.5-.4.7-.6.2-.1.3-.2.5-.3.3-.1.7-.2 1-.3 1-.1 1.8.1 2.3.3 1.7.7 2.1.7 2.6.7h.3c.5 0 1-.2 1.4-.4.5-.2.9-.5 1.2-.8 9.5-7.4 10.2-8 11.5-9.1.8-.7 2-1.7 1.8-2.7-.1-.7-1-1.1-1.3-1.3l-.3-.2c-2.9-1.5-9.7-4.9-18.5-9.3-.1 0-.1-.1-.2-.2v-.2c0-.1 3-5.1 10-2.5l16.9 6.1s3.2 1.2 5.7-.8l5.8-3.9s3.1-2.5 6.4-.8c.1 0 .1.1.2.2.6 3.6-2.7 5.9-2.7 5.9l-5.4 4.3c-2.7 1.8-2.5 5.2-2.5 5.2l.8 17.9c.4 7.5-5.3 8.8-5.3 8.8h-.1c-.1 0-.1 0-.2-.1-.1 0-.1-.1-.1-.2-1.5-9.6-2.7-16.9-3.3-20.3l-.1-.5c-.1-.4-.2-1.3-.9-1.7-.9-.5-2.2.4-3.1.9-1.9 1.2-2.8 1.7-12.1 8.2-.4.3-.8.6-1.2 1-.3.3-.6.7-.8 1.2 0 .1-.1.2-.1.3-.2.4-.4.8-.2 2.7 0 .5 0 1.4-.4 2.3-.1.3-.3.6-.6.8-.1.1-.3.2-.4.4-.2.2-.5.3-.8.5h-.3c-.1-.1-.1-.2-.1-.3v-1.2q0-1.05-.3-2.1c-.1-.5-.3-.9-.5-1.4-.2-.4-.5-.8-.8-1.1l-.9-1.3c-.3-.4-.6-.8-1-1.2s-.7-.7-1.2-1c-.6-.4-1.2-.7-1.9-1-.2-.1-.4-.2-.7-.2-.2-.1-.3-.1-.5-.1-.1 0-.2-.1-.2-.2-.2-.2-.2-.3-.1-.4m-6 47c1.4 0 2.5 1.1 2.5 2.5s-1.1 2.5-2.5 2.5-2.5-1.1-2.5-2.5 1.1-2.5 2.5-2.5m-7.1-80.3c1.4 0 2.5 1.1 2.5 2.5s-1.1 2.5-2.5 2.5-2.5-1.1-2.5-2.5 1.1-2.5 2.5-2.5m-14 55.6c1.4 0 2.5 1.1 2.5 2.5s-1.1 2.5-2.5 2.5-2.5-1.1-2.5-2.5 1.2-2.5 2.5-2.5M92.8 94c1.4 0 2.5 1.1 2.5 2.5S94.2 99 92.8 99s-2.5-1.1-2.5-2.5 1.1-2.5 2.5-2.5M66 81.5c1.4 0 2.5 1.1 2.5 2.5s-1.1 2.5-2.5 2.5-2.5-1.1-2.5-2.5 1.1-2.5 2.5-2.5"/><circle cx="66" cy="83.9" r="2.5" fill="#F2F2F2" fill-rule="nonzero"/><circle cx="92.8" cy="96.4" r="2.5" fill="#F2F2F2" fill-rule="nonzero"/><circle cx="111.7" cy="83.9" r="2.5" fill="#F2F2F2" fill-rule="nonzero"/><circle cx="97.7" cy="139.6" r="2.5" fill="#F2F2F2" fill-rule="nonzero"/><circle cx="118.8" cy="164.2" r="2.5" fill="#F2F2F2" fill-rule="nonzero"/><path fill="#FFF" fill-rule="nonzero" d="M125 115.3c.2 0 .3.1.5.1.3.1.5.2.7.2.7.2 1.3.6 1.9 1 .4.3.8.6 1.2 1s.7.8 1 1.2l.9 1.3c.3.4.5.7.8 1.1.2.4.4.9.5 1.4q.3 1.05.3 2.1v1.2c0 .1 0 .2.1.3q.15.15.3 0c.3-.1.6-.3.8-.5.2-.1.3-.2.4-.4.2-.3.4-.5.6-.8.4-.9.5-1.7.4-2.3-.1-1.8 0-2.3.2-2.7 0-.1.1-.2.1-.3.2-.5.5-.9.8-1.2.4-.4.8-.7 1.2-1 9.3-6.4 10.2-7 12.1-8.2.9-.5 2.2-1.4 3.1-.9.6.3.8 1.3.9 1.7l.1.5c.6 3.5 1.8 10.7 3.3 20.3 0 .1.1.2.1.2s.1.1.2.1h.1c.1 0 5.7-1.3 5.3-8.8l-.8-17.9s-.2-3.5 2.5-5.2l5.4-4.3s3.4-2.2 2.7-5.9c0-.1-.1-.2-.2-.2-3.3-1.7-6.4.8-6.4.8l-5.8 3.9c-2.5 2.1-5.7.9-5.7.8L137.7 88c-7-2.6-10 2.4-10 2.5s-.1.2 0 .2c0 .1.1.1.2.2 8.9 4.4 15.6 7.8 18.5 9.3l.3.2c.3.2 1.2.6 1.3 1.3.2 1-1 2-1.8 2.7-1.3 1.1-1.9 1.7-11.5 9.1-.3.3-.7.6-1.2.8-.4.2-.9.4-1.4.4h-.3c-.4 0-.9.1-2.6-.7-.5-.2-1.3-.5-2.3-.3-.3 0-.6.1-1 .3-.2.1-.3.2-.5.3-.3.2-.5.4-.7.6-.1.1-.1.2-.1.3.2 0 .3 0 .4.1"/><path fill="url(#arnx_svg-o)" fill-rule="nonzero" d="M33.6 194c.4-1.9.9-3.9 1.5-6.2l.6-2.4c.9-3.2 1.9-6.6 3.1-10.1.3-.9.6-1.7.8-2.5.5-1.6 1-3.2 1.5-4.7.2-.7.4-1.4.7-2.1-2.7-.6-5.9-1.4-9.3-2.1-3.5-.8-6.8-1.6-10-2.5-2.4-.7-4.6-1.3-6.5-2-.7-.2-1.3-.5-1.9-.7q-1.2-.45-2.1-.9t-1.5-.9c-.9 2.5-1.7 5-2.6 7.5 4.3 11.5 10.2 22.1 17.6 31.7 2.6.6 5.1 1.1 7.7 1.7-.1-1 .1-2.2.4-3.8"/><path fill="url(#arnx_svg-p)" fill-rule="nonzero" d="M13 149.5c.8-.1 1.6-.2 2.6-.2 2.3 0 5 .1 8.1.4q4.8.45 10.5 1.5c3.9.7 7.9 1.4 12 2.3 1.1-3.1 2.2-6.4 3.4-10s2.5-7 3.7-10.1c.6-1.6 1.2-3.1 1.8-4.4.6-1.4 1.2-2.6 1.8-3.8.4-.9.8-1.6 1.2-2.2s.8-1.1 1.1-1.4c.2-.2.5-.4.7-.5.5-.3 1-.4 1.5-.4L37.7 78.4z"/><path fill="url(#arnx_svg-q)" fill-rule="nonzero" d="M75.9 173.1c-.8-.2-1.7-.3-2.5-.5-1.7-.3-3.5-.7-5.3-1.1l-2.7-.6c-3.7-.8-7.1-1.5-10.3-2.1-.7 2-1.4 3.9-2.2 5.9-.7 1.9-1.4 3.8-2.2 5.6-.7 1.8-1.4 3.5-2.1 5.2-.7 1.6-1.4 3.2-2.1 4.6q-2.1 4.35-3.9 7.2-.75 1.35-1.5 2.1l74.8 16.5S98 185.2 91 173.2l-.4.4c-.2.2-.4.3-.6.4-.9.5-2.6.6-5.2.4-1.9-.2-4.1-.5-6.4-.9-.9-.1-1.7-.3-2.5-.4"/><path fill="url(#arnx_svg-r)" fill-rule="nonzero" d="M66.5 133c-.2 1-.5 2.1-.8 3.3l-.6 2.4c-.7 2.4-1.4 4.9-2.3 7.5-.6 1.7-1.2 3.5-1.7 5.2-.6 1.7-1.1 3.4-1.7 5 2.7.7 5.3 1.3 7.6 1.9 1.2.3 2.3.6 3.4.8 1.1.3 2.1.5 3.1.8.5.1 1 .2 1.4.4.5.1.9.2 1.4.3.9.2 1.7.4 2.5.7 1.6.4 3.1.8 4.3 1.2 1.2.3 2.2.7 3.1 1l-19-33.4c-.3.9-.5 1.8-.7 2.9"/><path fill="url(#arnx_svg-s)" fill-rule="nonzero" d="M54.4 223.1c2 1.3 4.1 2.6 6.4 3.9 6.2 3.6 12.1 6.3 17.4 8.4 1.5.6 3 1.2 4.7 1.8 11.5 3.9 23.7 6.1 36.4 6.4v-19.7c-28.8-6.3-57.5-12.7-86.3-19 6.5 6.8 13.6 12.9 21.4 18.2"/></g></svg>