<svg xmlns="http://www.w3.org/2000/svg" id="atom_svg-Layer_1" data-name="Layer 1" viewBox="0 0 2305.04 2305.04"><defs><style>.atom_svg-cls-3{fill:#6f7390}.atom_svg-cls-4{fill:#b7b9c8}</style></defs><circle cx="1152.52" cy="1152.52" r="1152.52" style="fill:#2e3148"/><circle cx="1152.52" cy="1152.52" r="668.75" style="fill:#1b1e36"/><path d="M1154.89 147.06c-124.41 0-225.26 451.21-225.26 1007.84s100.85 1007.86 225.26 1007.86 225.29-451.24 225.29-1007.86-100.89-1007.84-225.29-1007.84m15.56 1958.81c-14.23 19-28.46 4.75-28.46 4.75-57.3-66.4-85.94-189.72-85.94-189.72-100.22-322.52-76.36-1015-76.36-1015 47.09-549.74 132.8-679.6 161.92-708.44a17.79 17.79 0 0 1 22.81-1.8c42.31 30 77.79 155.33 77.79 155.33 104.77 388.91 95.28 754.11 95.28 754.11 9.49 317.78-52.5 673.49-52.5 673.49-47.72 270.34-114.54 327.25-114.54 327.25Z" class="atom_svg-cls-3"/><path d="M2029.1 653.34c-61.94-107.95-503.47 29.12-986.47 306.15s-823.79 589.06-761.9 697 503.51-29.13 986.52-306.16 823.79-589.06 761.9-697ZM337.78 1641.61c-23.71-3-18.35-22.48-18.35-22.48 29.07-82.72 121.65-168.94 121.65-168.94 229.99-247.44 842.55-571.33 842.55-571.33 500.23-232.73 655.61-222.92 695-212.1a17.78 17.78 0 0 1 12.95 19c-4.74 51.6-96 144.75-96 144.75-285.05 284.58-606.57 458.12-606.57 458.12-270.95 166.43-610.38 289.57-610.38 289.57-258.25 93-340.87 63.41-340.87 63.41Z" class="atom_svg-cls-3"/><path d="M2026.92 1660.06c62.41-107.66-277.46-421.17-758.87-700.24s-922.82-417.85-985.19-310 277.46 421.17 759.1 700.24 922.59 417.81 984.96 310M324.22 691.37c-9.25-21.86 10.24-27.13 10.24-27.13 86.17-16.26 207.22 20.82 207.22 20.82 329.3 75 916.47 442.79 916.47 442.79 452.09 316.31 521.48 455.66 531.82 495.21a17.78 17.78 0 0 1-9.87 20.67c-47.14 21.58-173.4-10.57-173.4-10.57-389.15-104.35-700.38-295.53-700.38-295.53-279.64-150.83-556.15-382.89-556.15-382.89-210.11-176.9-225.85-263.18-225.85-263.18Z" class="atom_svg-cls-3"/><circle cx="1152.52" cy="1152.52" r="118.57" class="atom_svg-cls-4"/><ellipse cx="1638.67" cy="697.2" class="atom_svg-cls-4" rx="68.77" ry="71.14"/><ellipse cx="509.86" cy="939.09" class="atom_svg-cls-4" rx="68.77" ry="71.14"/><ellipse cx="1012.61" cy="1811.78" class="atom_svg-cls-4" rx="68.77" ry="71.14"/></svg>