<svg xmlns="http://www.w3.org/2000/svg" id="audr_svg-Layer_1" data-name="Layer 1" viewBox="0 0 500 500"><defs><style>.audr_svg-cls-1{fill:none}.audr_svg-cls-2{fill:#30337d}</style></defs><path d="m262.9 270.99-130.42 67.75 138.79-72.1z" class="audr_svg-cls-1"/><path d="m112.93 193.08 75.17 39 40.41-21-96-49.88V70l183.86 95.52 40.41-21L120.93 22a17.6 17.6 0 0 0-25.71 15.62v126.31a32.85 32.85 0 0 0 17.71 29.15" class="audr_svg-cls-2"/><path d="M404.78 315.73v-5.15a32.73 32.73 0 0 1-5.16 17.59 17.33 17.33 0 0 0 5.16-12.44" style="fill:#fff"/><path d="m303.31 250 64.21-33.36-96.25 50zM132.48 430.01l235.04-122.1-16.79 8.72z" class="audr_svg-cls-1"/><path d="M399.62 171.83a17.55 17.55 0 0 0-20.55-3.18L112.93 306.92a32.85 32.85 0 0 0-17.71 29.15v126.31A17.6 17.6 0 0 0 120.93 478l266.14-138.27a33.11 33.11 0 0 0 17.71-29.15V184.27a17.33 17.33 0 0 0-5.16-12.44m-32.1 136.08L132.48 430v-91.26l235-122.1Z" class="audr_svg-cls-2"/></svg>