<svg xmlns="http://www.w3.org/2000/svg" width="1024" height="1024" baseProfile="full" viewBox="0 0 1024 1024"><defs><radialGradient id="aywa_svg-a" cx="50%" cy="50%" r="50%" fx="50%" fy="50%"><stop offset="0%" style="stop-color:#000cff;stop-opacity:1"/><stop offset="100%" style="stop-color:#000049;stop-opacity:1"/></radialGradient></defs><path d="M1014 512c0-277.247-224.753-502-502-502S10 234.753 10 512s224.753 502 502 502 502-224.753 502-502m10 0c0 282.77-229.23 512-512 512S0 794.77 0 512 229.23 0 512 0s512 229.23 512 512"/><path fill="url(#aywa_svg-a)" d="M978 490c0 269.515-218.485 488-488 488S2 759.515 2 490 220.485 2 490 2s488 218.485 488 488" transform="matrix(1 0 0 -1 22 1002)"/><path fill="#ffeb00" d="m619.176 773.243 3.78-5.495 7.398-11.147 7.177-11.347 6.952-11.535 6.725-11.71 6.494-11.873 6.258-12.024 6.02-12.162 5.777-12.288 5.53-12.403 5.282-12.504 5.027-12.594 4.77-12.67 4.51-12.736 2.764-8.327 76.494-.672 8.394-50.23-70.519.62 1.374-5.613 2.867-12.868 2.582-12.846 2.29-12.813 1.997-12.768 1.7-12.71 1.398-12.64 1.093-12.557.432-6.244.353-6.22.276-6.191.02-.613 54.57-17.811-14.66-50.946-41.193 13.445-.618-6.597-.928-8.08-1.082-7.913-1.232-7.743-1.381-7.573-1.528-7.4-1.673-7.23-1.815-7.054-1.955-6.88-2.093-6.703-2.23-6.526-2.363-6.348-2.495-6.169-2.625-5.988-2.752-5.806-2.877-5.624-3-5.44-3.122-5.254-3.24-5.068-3.357-4.88-3.471-4.693-3.584-4.502-3.694-4.312-3.802-4.12-3.909-3.927-4.011-3.733-4.114-3.537-4.213-3.341-4.31-3.144-4.406-2.945-4.5-2.745-4.59-2.544-4.678-2.342-4.765-2.139-4.85-1.934-4.932-1.729-5.012-1.522-5.09-1.315-5.167-1.106-5.24-.896-5.311-.684-5.382-.473-5.448-.259-5.514-.044-5.577.17-5.637.389-5.697.606-5.753.825-5.807 1.044-5.86 1.267-5.91 1.489-5.958 1.712-6.004 1.937-6.048 2.163-6.09 2.39-6.128 2.618-6.166 2.847-6.201 3.077-6.234 3.31-6.265 3.54-6.294 3.776-6.32 4.01-6.345 4.247-6.368 4.483-6.35 4.693-6.292 4.874-6.233 5.05-6.173 5.22-6.111 5.39-6.048 5.554-5.98 5.714-5.915 5.87-5.845 6.023-5.774 6.172-5.701 6.315-5.627 6.457-5.552 6.593-5.473 6.726-5.394 6.855-5.312 6.98-5.23 7.1-5.145 7.219-5.06 7.33-4.97 7.441-4.88 7.546-4.79 7.647-4.696 7.745-4.601 7.838-4.505 7.928-4.406 8.013-4.306 8.096-4.204 8.173-4.1 8.247-3.995 8.317-3.888 8.384-3.779 8.445-3.669 8.504-3.556 8.558-3.443 8.609-3.327 8.655-3.209 8.697-3.09 8.736-2.97 8.771-2.847 8.802-1.712 5.554-71.519 23.342 14.66 50.946 8.637-2.819 30.711-.27-.599 3.2-1.526 8.894-1.385 8.881-1.241 8.865-1.097 8.845-.95 8.82-.801 8.793-.652 8.761-.499 8.725-.346 8.685-.19 8.641-.034 8.594.125 8.541.286 8.487.448 8.427.612 8.363 75.938-54.8-.562-8.166-.337-8.275-.112-8.374.108-8.465.327-8.547.543-8.622.757-8.686.967-8.744 1.175-8.792.42-2.678 312.594-2.747-1.836 5.016-2.313 6.061-2.402 6.042-2.49 6.02-2.576 5.995-2.665 5.968-2.75 5.936-2.837 5.904-2.923 5.868-3.008 5.828-3.093 5.788-3.177 5.742-3.26 5.696-3.345 5.645-3.427 5.593-3.51 5.537-3.592 5.479-3.674 5.417-3.755 5.354 39.588 66.74ZM348.807 502.286l3.654-8.65 3.826-8.58 3.996-8.5 4.164-8.413 4.329-8.318 4.492-8.213 4.652-8.1 4.81-7.979 4.964-7.85 5.117-7.71 5.267-7.565 3.813-5.256 3.847-5.125 3.879-4.995 3.909-4.864 3.938-4.733 3.964-4.6 3.988-4.47 4.012-4.335 4.033-4.202 4.052-4.069 4.069-3.935 4.085-3.8 4.098-3.665 4.11-3.53 4.12-3.394 4.128-3.257 4.134-3.121 4.139-2.984 4.141-2.846 4.142-2.709 4.14-2.57 4.138-2.43 4.133-2.292 4.126-2.151 4.117-2.012 4.107-1.87 4.095-1.73 4.08-1.589 4.065-1.446 4.047-1.304 4.028-1.161 4.005-1.018 3.983-.874 3.957-.73 3.93-.585 3.9-.44 3.871-.295 3.838-.149 3.803-.002 3.767.144 3.729.291 3.689.44 3.647.587 3.603.736 3.558.884 3.51 1.034 3.461 1.185 3.41 1.334 3.357 1.485 3.302 1.636 3.246 1.788 3.187 1.94 3.126 2.092 3.065 2.245 3 2.399 2.935 2.552 2.867 2.707 2.797 2.86 2.726 3.017 2.652 3.172 2.578 3.328 2.5 3.484 2.422 3.642 2.34 3.798 2.245 3.933 2.136 4.041 2.027 4.148 1.919 4.252 1.81 4.352 1.703 4.45 1.596 4.546 1.49 4.637 1.383 4.727 1.278 4.814 1.173 4.897.738 3.445-306.912 100.17ZM658.35 462.88l.01 1.184-.056 5.687-.154 5.735-.252 5.78-.352 5.822-.449 5.862-.547 5.897-.644 5.932-.74 5.963-.837 5.99-.932 6.016-1.027 6.039-1.123 6.058-1.216 6.075-1.31 6.09-1.326 5.756-271.763 2.389Z"/></svg>