<svg xmlns="http://www.w3.org/2000/svg" xml:space="preserve" viewBox="0 0 115.5 115.5"><path d="M83 52h17.5l1.3-7.1H84.9c-2.4.1-6.6.9-9.3 3.1-1-3.7-10.7-3.1-10.7-3.1l1.3-7.1h-4l-1.3 7.1H57l1.1-7.1H54l-1.5 7.1h-4.3L46 56.1 43.1 45h-9.7L15.6 71.5h14.8l1.5-7h-3l8.6-12.7 3.1 12.7h-3.1l-1.4 7h11l-.9 4.8h4.3l.9-4.8h3.8l-.9 4.8h4.5l.8-4.8h5.6c1.7.1 5.9-1.9 6.7-3.4 3.7 3.6 7.9 3.4 7.9 3.4h16.9l1.1-7-15.2-.1c-10.4 0-6-12.5.4-12.4M64 64.4H52.8l.9-3.4h10.9c2.6 0 1.7 3.4-.6 3.4m1.7-9.2H54.5l.9-3.4h10.9c2.6 0 1.6 3.4-.6 3.4" style="fill:#f39e17"/></svg>