<svg xmlns="http://www.w3.org/2000/svg" width="105" height="108" viewBox="0 0 105 108"><g fill="none" fill-rule="evenodd"><path fill="#1E1E1E" d="M52.5 3C81.49 3 105 26.51 105 55.5S81.49 108 52.5 108 0 84.49 0 55.5 23.51 3 52.5 3"/><g fill="#FFF" fill-rule="nonzero"><path d="M53.288 77.445c-16.79 0-30.398-4.851-30.398-11.35 0-3.392 3.706-6.447 9.639-8.6 4.63 2.971 12.4 4.494 21.21 4.494 8.6 0 16.202-1.858 20.874-4.704 5.596 2.132 9.072 5.103 9.072 8.379 0 6.51-13.608 11.781-30.397 11.781"/><path d="M53.466 60.53c-12.726 0-23.047-3.99-23.047-8.915 0-2.73 3.181-5.177 8.168-6.804 3.56 1.858 8.894 3.045 14.879 3.045s11.319-1.187 14.879-3.045c4.998 1.638 8.169 4.074 8.169 6.804.01 4.925-10.311 8.914-23.048 8.914"/><path d="M53.382 46.376c-9.838 0-17.818-3.297-17.818-7.35 0-4.054 7.98-7.35 17.818-7.35s17.819 3.296 17.819 7.35c0 4.052-7.98 7.35-17.819 7.35"/></g></g></svg>