<svg xmlns="http://www.w3.org/2000/svg" width="167.981" height="167.981" viewBox="0 0 44.445 44.445"><g transform="translate(-54.129 -130.39)"><circle cx="19.55" cy="169.523" r="21.958" fill="#fff" transform="rotate(-20)"/><path fill="#004ab5" d="M70.662 138.154a15.58 15.58.32 0 0-8.788 8.361 15.575 15.575.32 0 0 7.4 20.185 15.575 15.575.32 0 0 20.513-6.438l-13.63-7.534 5.53-14.56a15.58 15.58.32 0 0-11.025-.014m.972 2.799a12.6 12.6.603 0 1 8.927.01l-4.478 11.79 11.037 6.102a12.61 12.61.603 0 1-16.61 5.212 12.61 12.61.603 0 1-5.992-16.344 12.6 12.6.603 0 1 7.116-6.77m5.194-10.293a22 22 89.21 0 0-7.987 1.32 21.96 21.96 89.21 0 0-13.123 28.143 21.96 21.96 89.21 0 0 28.143 13.124 21.96 21.96 89.21 0 0 13.124-28.144 21.96 21.96 89.21 0 0-20.157-14.443m.03 2.49a19.6 19.6 0 0 1 6.19 1.263l-6.965 18.34 17.17 9.492a19.62 19.62 0 0 1-25.838 8.108 19.62 19.62 0 0 1-9.323-25.425 19.62 19.62 0 0 1 11.07-10.532 19.6 19.6 0 0 1 7.695-1.246m13.393 6.781q.705 0 1.31.17 1.776.489 2.402 2.208.38 1.044.167 2.049a3.66 3.66 0 0 1-.923 1.795q1.37-.057 2.4.61 1.025.647 1.508 1.978.686 1.882-.415 3.442-1.089 1.532-3.892 2.552l-7.409 2.697-5.214-14.326 7-2.548q1.718-.626 3.066-.627m-1.086 2.964q-.637 0-1.481.309l-3.295 1.2 1.229 3.376 3.295-1.2q1.227-.446 1.706-1.107.478-.66.172-1.5-.305-.839-1.089-1.017a2.2 2.2 0 0 0-.537-.061m2.78 5.556q-.673.006-1.58.336l-3.868 1.408 1.288 3.54 3.868-1.407q1.31-.477 1.809-1.145.52-.675.191-1.576-.425-1.169-1.709-1.156"/></g></svg>