<svg xmlns="http://www.w3.org/2000/svg" xml:space="preserve" width="250" height="250" viewBox="0 0 250 250"><path fill="#3F43AD" d="M124.878 114.458c-5.637 0-10.219 4.584-10.219 10.217 0 5.632 4.584 10.216 10.219 10.216 5.631 0 10.22-4.584 10.22-10.216 0-5.633-4.584-10.217-10.22-10.217m47.243-28.349c-5.637 0-10.215 4.584-10.215 10.217 0 5.635 4.58 10.216 10.215 10.216 5.631 0 10.22-4.583 10.22-10.216.003-5.632-4.586-10.217-10.22-10.217m47.242-28.344c-5.631 0-10.215 4.582-10.215 10.215 0 5.635 4.584 10.223 10.215 10.223 5.637 0 10.218-4.586 10.218-10.223 0-5.633-4.581-10.215-10.218-10.215M77.63 29.416c-5.633 0-10.217 4.585-10.217 10.22 0 5.632 4.584 10.215 10.217 10.215 5.635 0 10.219-4.583 10.219-10.215 0-5.635-4.582-10.22-10.219-10.22m47.248-28.347c-5.637 0-10.219 4.587-10.219 10.219 0 5.635 4.584 10.219 10.219 10.219 5.631 0 10.22-4.584 10.22-10.219 0-5.632-4.584-10.219-10.22-10.219m0 56.696c-5.637 0-10.219 4.582-10.219 10.215 0 5.635 4.584 10.223 10.219 10.223 5.631 0 10.22-4.586 10.22-10.223 0-5.633-4.584-10.215-10.22-10.215m47.243-28.349c-5.637 0-10.215 4.585-10.215 10.22 0 5.632 4.58 10.215 10.215 10.215 5.631 0 10.22-4.583 10.22-10.215.003-5.635-4.586-10.22-10.22-10.22m0 113.391c-5.637 0-10.215 4.582-10.215 10.213 0 5.635 4.58 10.217 10.215 10.217 5.631 0 10.22-4.582 10.22-10.217.003-5.631-4.586-10.213-10.22-10.213m47.242-28.349c-5.631 0-10.215 4.584-10.215 10.217 0 5.632 4.584 10.216 10.215 10.216 5.637 0 10.218-4.584 10.218-10.216 0-5.633-4.581-10.217-10.218-10.217m-47.242 85.039c-5.637 0-10.215 4.582-10.215 10.218 0 5.633 4.58 10.215 10.215 10.215 5.631 0 10.22-4.582 10.22-10.215.003-5.636-4.586-10.218-10.22-10.218m47.242-28.347c-5.631 0-10.215 4.582-10.215 10.217 0 5.634 4.584 10.216 10.215 10.216 5.637 0 10.218-4.582 10.218-10.216 0-5.635-4.581-10.217-10.218-10.217m-94.485 56.694c-5.637 0-10.219 4.586-10.219 10.219 0 5.629 4.584 10.215 10.219 10.215 5.631 0 10.22-4.586 10.22-10.215 0-5.633-4.584-10.219-10.22-10.219m0-56.694c-5.637 0-10.219 4.582-10.219 10.217 0 5.634 4.584 10.216 10.219 10.216 5.631 0 10.22-4.582 10.22-10.216 0-5.635-4.584-10.217-10.22-10.217M77.63 86.109c-5.633 0-10.217 4.584-10.217 10.217 0 5.635 4.584 10.216 10.217 10.216 5.635 0 10.219-4.583 10.219-10.216S83.267 86.109 77.63 86.109m0 113.388c-5.633 0-10.217 4.582-10.217 10.218 0 5.633 4.584 10.215 10.217 10.215 5.635 0 10.219-4.582 10.219-10.215 0-5.636-4.582-10.218-10.219-10.218m0-56.69c-5.633 0-10.217 4.582-10.217 10.213 0 5.635 4.584 10.217 10.217 10.217 5.635 0 10.219-4.582 10.219-10.217 0-5.631-4.582-10.213-10.219-10.213M30.387 57.765c-5.634 0-10.215 4.582-10.215 10.215 0 5.635 4.583 10.223 10.215 10.223 5.633 0 10.219-4.586 10.219-10.223 0-5.633-4.586-10.215-10.219-10.215m0 113.385c-5.634 0-10.215 4.582-10.215 10.217 0 5.634 4.583 10.216 10.215 10.216 5.633 0 10.219-4.582 10.219-10.216 0-5.635-4.586-10.217-10.219-10.217m0-56.692c-5.634 0-10.215 4.584-10.215 10.217 0 5.632 4.583 10.216 10.215 10.216 5.633 0 10.219-4.584 10.219-10.216 0-5.633-4.586-10.217-10.219-10.217"/></svg>