<svg xmlns="http://www.w3.org/2000/svg" width="242" height="208" viewBox="0 0 242 208"><defs><linearGradient id="beam_svg-a" x1="0%" x2="69.924%" y1="50%" y2="50%"><stop offset="0%" stop-color="#FFF" stop-opacity="0"/><stop offset="100%" stop-color="#FFF"/></linearGradient><linearGradient id="beam_svg-b" x1="96.834%" x2="32.057%" y1="31.578%" y2="34.803%"><stop offset="0%" stop-color="#FD76FD" stop-opacity="0"/><stop offset="100%" stop-color="#FF51FF"/></linearGradient><linearGradient id="beam_svg-c" x1="95.948%" x2="45.029%" y1="44.431%" y2="44.431%"><stop offset="0%" stop-color="#5300FF" stop-opacity="0"/><stop offset="100%" stop-color="#9D6EFF"/></linearGradient><linearGradient id="beam_svg-d" x1="96.966%" x2="44.149%" y1="35.409%" y2="42.312%"><stop offset="0%" stop-color="#AE60D6" stop-opacity="0"/><stop offset="100%" stop-color="#AB38E6"/></linearGradient></defs><g fill="none" fill-rule="evenodd"><path fill="#0B76FF" d="M121.003 139.12h50.006l-49.99-86.624-.006.01L121.019 0 219 167h-98z"/><path fill="#24C1FF" d="M120.997 139.12H70.99l49.99-86.624.006.01L120.981 0 23 167h98z"/><path fill="#25C1FF" fill-rule="nonzero" d="M51 207.822v-20.644c1.174-.06 4.096-.178 6.384-.178 5.03 0 7.077 2.284 7.077 5.161 0 2.165-.843 3.619-2.41 4.627v.06c1.537.563 3.012 2.076 3.012 4.745 0 4.36-3.433 6.407-8.01 6.407-2.018 0-4.818-.06-6.053-.178m6.685-8.335h-1.867v3.886c.331.089.723.178 1.626.178 1.867 0 2.801-.801 2.801-2.195 0-1.305-.994-1.869-2.56-1.869m-.361-8.038c-.602 0-.964.06-1.506.119v3.767h1.596c1.235 0 2.229-.504 2.229-2.017 0-1.246-1.145-1.869-2.32-1.869m32.332 16.432V187.12h12.498v4.449h-7.68v3.648h6.776v4.45h-6.775v3.766h7.98v4.45zm34.682 0 8.763-20.762h4.306l8.763 20.762h-5.15l-1.746-4.36h-8.341l-1.747 4.36zm10.78-14.682-2.379 5.873h4.728zm33.839 14.682V187.12h4.848l6.505 8.75 6.143-8.75H191v20.762h-4.818v-13.228l-5.872 8.097h-.693l-5.842-8.008v13.14z"/><path fill="#39FFF2" d="M121 74v54.94L90 129z"/><path fill="#00E2C2" d="M121 74v54.94l31 .06z"/><path fill="url(#beam_svg-a)" d="m0 57 121 50v7L0 84z"/><path fill="url(#beam_svg-b)" d="M242 36.032 121 107v1.921L242 59z"/><path fill="url(#beam_svg-c)" d="M241.906 90.989 121 82v1.989l120.906 30z" transform="matrix(1 0 0 -1 0 195.989)"/><path fill="url(#beam_svg-d)" d="m242 59.963-121 49.075V112l121-31z"/></g></svg>