<svg xmlns="http://www.w3.org/2000/svg" width="200" height="203" viewBox="0 0 200 203"><path fill="#00B4F4" d="M31.441 158.166v1.303H18.02v-24.611l-.416 1.361-12.835-3.923 7.25-23.714-.892 1.323L0 102.4l13.903-20.61-1.326 1.073-8.446-10.429 20.008-16.2-2.557.98-4.81-12.528 23.898-9.173-2.793.196-.936-13.388 25.02-1.75-2.259-.52 3.02-13.077 23.9 5.517-1.506-.869L91.827 0l20.846 12.034-.811-.87 9.815-9.152 16.233 17.406-.346-.71 12.063-5.882 10.414 21.35-.095-.598 13.257-2.1 3.905 24.657.278-1.755 13.256 2.1-3.964 25.026.98-2.01 12.063 5.883-11.169 22.898 1.632-1.75L200 115.68l-17.353 18.607 2.101-1.213 6.71 11.622-21.812 12.593 2.195-.507 3.019 13.076-24.103 5.564 1.858.13-.937 13.387-24.126-1.687 1.23.472-4.81 12.53-23.094-8.865 1.46 1.182L93.89 203l-19.062-15.435.941 1.395-11.127 7.505-13.626-20.2.405 1.325-12.841 3.926zm0-15.947 8.383-2.562 6.515 21.306 7.248-4.888 12.387 18.364 5.533-6.832 17.168 13.901 3.071-7.999 20.689 7.94.606-8.664 22.138 1.548-1.992-8.628 21.702-5.01-4.497-7.788 19.372-11.183-6.635-6.186 15.302-16.408-8.163-3.981 9.841-20.176-8.929-1.414 3.51-22.155-8.538 1.352-3.507-22.145-7.69 3.75-9.77-20.03-6.268 5.844-15.119-16.211-4.326 7.492-19.138-11.049-1.978 8.566-21.53-4.97.625 8.939-22.1 1.545 3.267 8.512-20.81 7.988 5.6 6.913-17.471 14.146 7.373 4.973-12.595 18.672 8.487 2.594-6.579 21.517h8.818zm29.663-82.076H88.17q4.716 0 9.38.666 4.665.667 8.202 2.666t5.383 5.587 1.025 9.533q-.82 6.15-4.87 10.2t-9.893 5.792v.205q3.486.512 6.202 2 2.718 1.486 4.46 3.792 1.743 2.307 2.46 5.382.719 3.076.206 6.561-.82 5.74-3.794 9.585a23.6 23.6 0 0 1-7.176 6.202q-4.203 2.358-9.227 3.383t-9.842 1.025H50.954zm11.893 29.011h11.585q1.845 0 3.69-.41a12 12 0 0 0 3.435-1.332 8.3 8.3 0 0 0 2.665-2.46q1.077-1.539 1.385-3.691.307-2.256-.462-3.742a5.5 5.5 0 0 0-2.204-2.307q-1.436-.82-3.332-1.178a20 20 0 0 0-3.742-.36H75.15zm-4.204 30.036h14.353q1.845 0 3.845-.41a11 11 0 0 0 3.64-1.435 10.6 10.6 0 0 0 2.87-2.665q1.23-1.64 1.538-3.998.308-2.564-.718-4.152-1.025-1.59-2.87-2.409-1.845-.82-4.05-1.128a30 30 0 0 0-4.152-.307H71.15zm77.161-57.895-16.968 61.998-14.016-.983 10.564-63.923zM131.16 129.76l-4.41 21.905-18.642-5.428 4.269-21.015z"/></svg>