<svg xmlns="http://www.w3.org/2000/svg" xml:space="preserve" id="bsv_svg-Layer_1" x="0" y="0" version="1.1" viewBox="0 0 115.5 115.5"><style>.bsv_svg-st0{fill:#eab304}</style><path d="M32.3 96.2c-.1-.1.1.1 0 0m53.3-51.6.3-.6c.1-.3.1-.6.6-.4 0 0 .2-.1.2-.2.1-.3.2-.5.2-.8.1-.4.1-.8-.1-1.2-.5-1.5-.8-3-.3-4.6.1-.2.1-.4.1-.6 0-.1.2-.2.3-.3.1.1.2.2.3.4s.1.4.1.6c0 .1.1.2.1.3.2-.2.5-.3.7-.5.1-.1.2-.3.1-.4-.1-.8-.2-1.6-.3-2.3-.3-1.6-.2-3.1.6-4.7.1.3.4.5.4.8.1 1.1.5 2.1 1.3 2.9.9 1 1.5 2.2 1.9 3.4.1.2.2.4.3.4 1.3.3 2.3 1.1 3.2 1.9 1 .9 2 1.9 2.9 2.9.2.2.3.4.4.6.1-.1.2-.1.3-.2-.1-.9 0-1.9-.2-2.8-.1-.8.4-1.6 1.2-1.5.1 0 .3-.1.4-.2.3-.5.5-.7 1.3-.9.3.6.2 1.2-.1 1.7.6.7.7 1.1.1 1.9-.4.5-.4.9-.1 1.7.2-.4.3-.9.5-1.3.2-.5.3-1.1.8-1.3.1-.1.3-.1.5-.1.5.2 1 .1 1.5.1.8 0 1.2.3 1.5.9-.4.1-.7.2-1.1.3-.1 0-.2.2-.1.3.3.6-.2.8-.6 1.2-.3.3-.6.6-.8.9.5-.1 1-.3 1.6-.4.7-.2 1.5.2 1.8.9.1.2.3.5.5.6.5.4.6.9.7 1.4 0 .1 0 .2-.1.4-.3-.2-.5-.4-.8-.6q-.45-.45-.9 0c-.3.3-.6.5-1.1.2-.6-.4-1.3-.2-1.9.1-.4.3-.9.5-1.4.8 1.2.2 2.2.7 2.8 1.8.3.6.7 1.2 1 1.8s0 1.2-.7 1.5v-.3c-.1-.5-.3-.6-.8-.5-.6.2-1.1-.1-1.4-.7-.6-1.1-1.5-1.8-2.6-2.2-.3-.1-.6-.3-.9-.4-.1.4-.2.8-.4 1.1-.1.2-.3.4-.5.6-.6.5-.6.6-.2 1.3.1.2.3.4.5.7-.7 0-1.3-.2-1.7-.7-.4-.6-.8-1.3-1-2-.3-.7.1-1.3.6-1.9.3-.3.5-.6.7-1-1-.3-2-.5-3-.8.1.5.2.9.2 1.4.1 1.7.3 3.4.2 5.1q-.15 3.75-1.2 7.5-.75 2.85-2.1 5.4c-.8 1.5-1.6 3.1-2.6 4.5-.8 1.2-1.7 2.3-2.7 3.4s-2.1 2.3-3.3 3.2c-1.3 1.1-2.7 2-4 2.9-2 1.3-4.3 2.3-6.6 3-1.6.5-3.2.8-4.8 1.1-.9.2-1.8.3-2.7.4-.5.1-1.1.7-1.2 1.2-.2 1.5-1.1 2.4-2.2 3.3-.5.4-1.1.7-1.7 1.1L60 88l.3-.9c.1-.4 0-.8-.3-1.1s-.7-.2-1.1-.1c-.6.2-.7.5-.8 1.1-.1 1.2-.9 1.9-1.9 2.5-.2.1-.3.2-.5.2.1-.4.3-.8.3-1.1s-.3-.6-.5-.9c-.1-.1-.4.1-.6.2l-1.8.9c-.2.1-.3.2-.6.3.6.3 1.1.5 1.6.7.9.5 1.6 1.1 2 2 .3.5.4 1.1 0 1.6-.1.1-.1.3 0 .5.2 1 .2 2.1-.4 3-.2.3-.5.6-.7.9l-.6-2.7c0-.1-.2-.4-.4-.4-1.4.1-2.2-.7-2.9-1.7-.1-.1-.1-.2-.3-.4-.5.9-1.4 1.2-2.2 1.5-1.3.5-2 1.6-2.5 2.9-.2.7-.5 1.4-.7 2.1-.4 1.3-1.1 1.4-2.4 1.1.1.5.1 1 .2 1.6-.9-.3-1.3-1.2-1.1-2.2 0-.2 0-.5-.1-.7-.7-1.3-.1-2.7.9-3.4.8-.6 1.6-1.4 2.1-2.2.1-.1.1-.3.1-.3-1.2-.1-2.3-.2-3.5-.3-.8-.1-1.5-.2-2.2.3l-.6.6c-.9 1-1.3 1.1-2.5.5-.5.8-.6 1.7-.5 2.7-.5-.4-.7-1-.9-1.6-.1-.3 0-.7 0-1 0-.2-.2-.3-.2-.5-.1-.3-.2-.6-.1-.9.3-.9 1.1-1.4 1.8-1.8.9-.5 1.9-1 3-1 .8 0 1.6 0 2.4.1.2 0 .3.1.6.1-.4-1.1-1.2-1.5-2-1.9-.8-.3-1.5-.6-2.3-.9-.5-.2-.7-.5-.7-1 0-.3-.2-.4-.4-.4-.7 0-1.4.2-2 .6.3-.9.7-1.8 1.7-2 .4-.1.9 0 1.3 0 .1 0 .3 0 .4-.1.6-.9 1.5-.7 2.3-.3 1.2.6 2.1 1.4 2.8 2.6q.45.9 1.5 1.2c-.1-.8-.2-1.6-.3-2.3q-.15-1.2-1.2-1.5c-1-.3-1.3-1-.8-2.1-.7-.7-1.6-.7-2.5-.5.3-.8 1.5-1.1 2.3-1 .1 0 .2 0 .2.1.8.4 1.5.7 2.4.6.5 0 1 .5 1.3 1l.6 1.2c.5.9.9 1.9 1.3 2.8.6-1.7 1.3-3.5 2-5.4-.3-.1-.6-.3-1-.4-1-.4-1.9-.8-2.9-1.2-2.2-.9-4.3-2.2-6.3-3.6-.3-.2-.7-.3-1.1-.4-.3-.1-.7.4-.5.7s.5.4.7.7c.1.1.2.3.4.5-.2 0-.3.1-.5.1-1.6.1-2.5-.9-3.2-2.1-.6-1.2-1-2.6-1.1-4 0-.1 0-.2-.1-.3l-2.7-3c-.1.6-.2 1.1.1 1.6l.3.6v.7c-.3-.1-.7 0-.8-.2-.4-.5-.9-1.1-1.1-1.7-.4-1.5-.6-3-.9-4.5-.1-.7-.4-1.3-.6-2-.2-.8-.5-1.6-.8-2.4h-.1c0 .3-.1.6-.1.9 0 .2.2.5.2.7s-.1.5-.1.7c-.2-.1-.5-.2-.6-.4-.5-.8-.7-1.7-.8-2.6-.1-2.1.3-4.2.9-6.3.2-.7.4-1.5.7-2.2 0 0-.1 0-.1-.1-.1.3-.2.5-.4.8-.1.2-.3.3-.4.4-.1-.2-.2-.3-.2-.5-.1-1 .3-1.8.7-2.7.7-1.6 1.6-3.2 2.4-4.8.3-.6.7-1 1.1-1.6l-.7.7c-.1.1-.3.2-.5.3 0-.2-.2-.5-.1-.6.3-.5.6-.9.9-1.3 1-1.1 2-2.2 3.3-3 .2-.2.6-.2.9-.2 1.4.3 2.7.6 4.1.9.5.1 1 .3 1.5.4-.4.5-.8.9-1 1.4-.3.5-.4 1-.2 1.6.1.3 0 .5-.2.7-1.1.7-1.6 1.9-2.4 2.9-.1.1 0 .3.1.4.7.7 1.4 1.4 2.1 2.2.1.1.1.3.1.4-.7 1.2-.6 2.3 0 3.6.4.9.9 1.2 1.8 1h.2c0 .9.2 1.7.7 2.3.3.3.7.5 1 .8.2.1.3.3.4.5.6 1.6 1.7 2.6 3.4 2.9 1.2.2 2.4-.1 3.5-.7.4-.2.5-.3.6.2.3 1.5.6 3 1.4 4.4.9 1.6 1.9 3.1 3.2 4.4 1.2 1.1 2.5 1.9 4 2.3 2 .5 3.7-.2 5.2-1.4 1-.8 1.5-2 2.2-3 .6-1 1.2-1.9 1.8-2.9q1.2-1.65 3-2.7c.4-.2.8-.5 1.4-.3l-.3.6c-.4.8-.3 1.7.2 2.4.3.4.5.4.7 0 .3-.6.6-1.1 1.4-1 .5 0 .8-.5.9-1 .2-2.2.6-4.3 1.9-6.2.2-.2.4-.4.7-.6v1.6c.1.4.2.9.4 1.3h.2c.1-.1.2-.3.3-.4.2-.3.4-.5.8-.5.2 0 .4-.2.5-.3.7-.7.6-1.5.5-2.4-.1-.6-.1-1.3 0-1.9.1-.8.1-1.6.6-2.3.1-.2.2-.4.4-.6.1-.1.2-.1.3-.1s.2.2.2.3v1.1c0 .1.1.3.2.4.1 0 .2-.1.4-.2.3-.2.6-.3.9-.5.1 0 .2-.1.2-.1.2-.5.5-1 .4-1.7-.1-.3-.2-.6-.2-1v-1.9c0-.5.1-1 .1-1.5 0-.3.2-.5.3-.8l.3-.3c.1.1.1.2.2.4.1.5.1 1 .2 1.5-.4-.2-.3-.2-.2-.2" class="bsv_svg-st0"/><path d="m33.6 25.3 2.5-2.5c.2-.2.3-.3.5-.4.3-.3.1-.6-.1-.9s-.4-.2-.7 0l-.2.2c-.1.1-.3.1-.4.1 0-.2-.1-.3-.1-.5.2-1 .9-1.6 1.8-1.9 1.1-.4 2.3-.3 3.4.1.2.1.4 0 .6-.1.8-.4 1.6-.9 2.4-1.3.4-.2.3-.4.1-.6-.3-.2-.7-.5-1.1-.1-.1.1-.3.1-.5.1 0-.7.7-1.3 1.4-1.6 1.2-.4 2.4-.3 3.5 0 .1 0 .2.1.3.2.6.7 1.2.4 1.9.2.6-.2 1.1-.3 1.7-.5.4-.1.4-.3.2-.5-.3-.4-.7-.6-1.1-.3-.1.1-.2.1-.4.1-.2-.4 0-.6.2-.7.8-.6 1.7-.7 2.6-.6.8.1 1.6.3 2.3.9.1.1.2.1.3.2.3.3.6.5 1.2.4.5-.2 1.1-.2 1.6.2.1 0 .3 0 .3-.1.1-.1.2-.3.1-.4-.1-.5-.6-.9-1.2-.9h-.3s0-.1-.1-.1c.3-.2.6-.4.9-.5.9-.3 1.8-.2 2.7.2s1.6.9 2.2 1.7c.1.2.5.3.7.3.6.1 1.2-.1 1.7.3.1.1.3.2.4.4.3-.7-.2-1.6-.9-1.6-.1 0-.3-.1-.3-.1 0-.1.1-.4.2-.4.5-.1 1-.3 1.4-.2 1.3.2 2.5.8 3.3 2 .3.5.5 1 .7 1.6.7-.1 1.4.2 1.9.8.1.1.3.1.3.1.1-.1.2-.3.3-.5.1-.6-.5-1.3-1.1-1.5-.1 0-.2-.1-.3-.1v-.2c.4-.1.7-.3 1.1-.2.6.1 1.3.2 1.8.5 1.4.7 2.1 2 2.5 3.3.7.4 1.2.8 1.7 1.1.2.1.4.1.6.2 0-.2.1-.5.1-.7-.1-.7-.6-1.1-1.1-1.4-.1-.1-.2-.2-.4-.3 1.1-.3 1.9.2 2.6.8.8.6 1.3 1.5 1.7 2.5.1.3.2.5.6.7.3.2.6.5.9.8.4-1.1-.5-1.7-.8-2.5.8 0 1.3.4 1.7.8.6.6 1.1 1.3 1.6 2 .3.5.6 1 1 1.5s.4 1.2.6 1.8c.3 1.5-.4 2.8-.6 4.2-.1.9-.1 1.8-.1 2.8 0 .1 0 .3-.1.4-.9.6-1.1 1.6-1.3 2.5-.3 1.3-.2 2.5-.1 3.8 0 .1 0 .3-.1.3-1.3.8-1.8 2.1-1.9 3.5 0 .6-.1 1.2-.1 1.9 0 .1-.1.3-.2.3-1.2.3-1.8 1.1-2.3 2.1-.3.6-.4 1.3-.7 1.9-.1.2-.4.4-.6.6-.1 0-.1-.1-.2-.1v-.6c.3-1.3.3-2.6.3-4 0-2-.3-4-1.1-5.8-.1-.3-.1-.5.2-.7.7-.7 1.1-1.6 1.2-2.5.2-1.4.2-2.7.2-4.1 0-1-.3-1.9-1-2.7-.6-.7-1.9-.9-2.7-.5-1.3.6-1.9 1.6-2 3V35c-1.6-1.6-3.4-2.7-5.3-3.4-1.1-.4-2.3-.7-3.5-.9-.6-.1-1.2-.1-1.8-.2-.4 0-.7-.1-1.1-.1-1.7.1-3.4.2-4.9.8-.9.3-1.7.7-2.6 1-.2.1-.5.1-.6 0-1.9-1.2-4-2-6.1-2.6-1-.3-2-.4-3.1-.5-1.9-.3-3.9-.6-5.8-1-1.6-.3-3.1-1-4.5-1.8-.1-.6-.3-.8-.5-1" class="bsv_svg-st0"/><path d="M73.6 45.2c-.1.7-1.3.9-2.7.5v1.6c0 .2-.1.5-.1.5-.2 0-.5 0-.6-.1-.4-.3-.8-.7-1.2-1.1-.5.2-.8.6-1 1.2-.3.8-.7.9-1.3.2-.2-.3-.5-.6-.7-.9-.3.4-.6.8-.9 1.1q-.3.3-.6.3c-.1 0-.3-.3-.4-.5-.1-.3-.1-.5-.2-.9-.5 1.3-1.1 2.4-2.6 2.7.1-.6.2-1.1.3-1.6 0-.1-.1-.2-.2-.3-.7.7-1 1.4-1.1 2.4-.1 2 .6 3.8 1.4 5.6.6 1.5 1.3 2.9 1.9 4.4.5 1.3.8 2.8.7 4.2-.2 1.9-.9 3.4-3.2 3.9-1 .2-2-.1-2.9-.7-1-.6-1.8-1.4-2.5-2.3-.6-.8-1.2-1.6-1.7-2.4-.3-.6-.5-1.2-.7-1.8-.1-.2 0-.4 0-.6.7-.1.9.4 1.1.7.6.8 1.1 1.7 1.7 2.5.7.8 1.4 1.7 2.5 2.1 1.6.6 2.8-.3 3.3-1.6.4-1.1.2-2.2-.3-3.2-.7-1.6-1.6-3.2-2.4-4.8-.9-1.7-1.6-3.5-1.9-5.4-.1-.5 0-1 0-1.4-.7 0-1.3.1-1.9 0s-1.2-.3-1.9-.5q-.3.15-.9.6c.1-.3.1-.4.1-.6.1-.7-.6-1.7-1.2-1.9-.4-.1-.8.3-.8.8-.1 1 .4 1.6 1.1 2.2.5.4 1.1.8 1.7 1.2.5.4.5.4.8-.2.1-.2.2-.4.2-.6h.1c.8.1 1.1.5 1.2 1.3.2 1 .5 2 .8 3 .1.5-.2.9-.4 1.2-.6.7-1.2 1.2-2 1.5-.7.3-1.3.2-2 0 .4-.4.8-.7 1.2-1 .4-.4.5-.9.4-1.4 0-.1-.2-.3-.4-.3-.4 0-.8-.1-1.2 0-.3 0-.6.2-.8.4-.7.5-1.4 1.1-2.2 1.5-1.3.7-2.9.4-3.9-.6-.4-.4-.6-.9-.8-1.4l-.3-.6h-.1c-.2.1-.3.3-.5.4-.1-.2-.3-.5-.2-.6.1-.5.3-1.1.5-1.6q.15-.3 0-.6c-.3-.5-.8-.8-1.3-1.1-.4-.3-.7-.1-1 .2-.2.1-.4.2-.5.2 0-.2-.1-.4-.1-.5.2-1 .8-1.6 1.7-1.9.1 0 .2-.1.5-.2-1.4-.4-2.2-1.3-3.2-2.1-.3-.3-.4-.5 0-.8.7-.5 1.3-1 2-1.4 1.1-.5 2.3-.4 3.5-.1 1.1.3 2 1 2.8 1.7l.3.3c-.5-1.5-1.5-2.6-3.1-3.2-1.3-.4-2.5-.8-4-.8.2-.6.6-.9 1.1-1 .7-.2 1.4-.3 2.1-.5.8-.2 1.5-.5 2.2-1.1-.5-.3-.8-.5-1.3-.7-1.2-.5-2.4-1.1-3.6-1.5-1.1-.4-2.3-.6-3.4-.9-1.6-.4-3.2-.7-4.8-1.2-1.9-.6-3.7-1.3-5.3-2.4-1.6-1.2-3-2.5-4-4.2-.3-.4-.4-.9-.6-1.4-.1-.1 0-.4.1-.5s.4 0 .5 0c.2.1.4.3.6.4 1.1.9 2.1 2 3.2 2.8 1.3.9 2.8 1.7 4.5 2.1 1.3.3 2.6.6 3.9.8 1.1.2 2.2.2 3.3.3l2.4.3c.9.1 1.9.2 2.7.5 1.4.5 2.7 1.1 4 1.6.1.1.3.1.5 0 .5-.1 1.1-.3 1.6-.5v-.3c-1-.5-2-1.1-3-1.5-1.9-.8-4-1.2-6-1.4-.9-.1-1.9-.2-2.8-.3-1.6-.3-3.2-.4-4.7-.9-1.6-.6-3.1-1.3-4.4-2.4-1-.9-1.9-1.8-2.3-3.2 0-.2-.1-.4 0-.6 0-.2.1-.5.2-.5.2 0 .5 0 .7.2.4.4.7.8 1.1 1.2.6.6 1.2 1.2 1.9 1.8 1.7 1.4 3.7 2.2 5.9 2.8 1.2.3 2.4.5 3.6.7 1.9.3 3.9.6 5.8 1 2.2.5 4.4 1.3 6.1 2.9.7.6 1.3.3 2 .2s1.5.2 1.8.9c.7 1.4.5 2.8.2 4.2-.1.5.2 1.1.6 1.3.1.1.4 0 .5 0 1.3-.5 2.5-.3 3.6.5.4.3.7.3 1.1.1.8-.4 1.6-.8 2.4-1.3.3-.2.4-.7.6-1.1.7-1.3 1.8-1.8 3.2-1.7q1.35 0 2.7.3c.8.2 1.5 0 2.2-.2.8-.3 1.4-1.1 1.4-2v-2.7c.1-.3.1-.6.5-.6s.4.4.4.7c.3 1.4.2 2.8-.1 4.2-.2 1.3-1.3 2.1-2.6 2-1.2 0-2.4-.1-3.6-.1-.8 0-2 .5-2.1 1.6 0 .2 0 .4.1.6.3.6.5 1.1 1.4 1 .4 0 .8.3.9.9.1 1 1.1 1.8 2.1 1.9.5.1.7.1 1 .1M50 42.3c.6.6 1.1 1.1 1.6 1.5.6.5 1.3.6 2 .2.5-.3 1.1-.7 1.6-1.1.1-.1.2-.2.1-.3-.1-.5-.4-1-.8-1.1-.3-.1-.8.1-1.1.2-.2.1-.4.2-.7.3-.7.2-1.4.4-2.2.2-.1 0-.2 0-.5.1m13.8 1.4c0 .1 0 .1-.1.2.2.1.4.3.6.3.7.3 1.4.4 1.9 1.1 0 0 .1.1.2.1.5 0 1-.1 1.5-.2.3-.1.5-.3.8-.4-.3-.3-.5-.6-.8-.8-1.4-.7-2.8-.6-4.1-.3" class="bsv_svg-st0"/><path d="M11.1 56.7c1.2 1.1 2.6 1.6 4.1 1.2.5-.1.9-.4 1.2-1-1.7.2-3.3.3-4.7-.6S9.3 54.2 9 52.6c-.5-2.7.3-4.8 2.3-6.1-.5 1.7-.3 3.4.7 4.8.8 1.2 2 2 3.4 2.3 2.9.7 5.7-1.4 6.4-3.3-.5.4-.9.7-1.3 1.1-1.7 1.3-4.4 1.1-6.1-.1-1.1-.8-1.6-1.7-1.7-3-.1-.8.6-2.5 1.6-3 .2.7.5 1.4 1.2 1.7.6.3 1.3.6 2 .7 1.6.2 3-.2 4.2-1.3.6-.6 1.1-1.4 1.4-2.2.8-1.9 1.4-3.9 2.3-5.8.5-1.2 1.3-2.3 1.9-3.4.2-.3.4-.2.6-.1.7.4 1.5.8 2.2 1.2.4.2.9.4 1.4.6-.2.2-.4.3-.6.5-1.4 1.4-2.4 3-3.4 4.7-.7 1.3-1.4 2.5-2 3.8-.6 1.5-1.2 3-1.7 4.5-.4 1.1-.8 2.3-1.2 3.4-.3.9-.7 1.7-1.1 2.6-.6 1.3-1.5 2.3-2.8 3-.7.4-1.6.5-2.4.6q-1.2.15-2.4 0c-1.3-.2-2.5-1-2.8-2.4 0-.1.1-.4 0-.7m59.5-3.3c0 .5.1 1 0 1.4-.1.6-.4.6-.9.3l-1.2-.6c-.1-.1-.3 0-.5 0 .4.8.4 1.5.1 2.2-.1.2-.2.4-.4.5-.3.2-.5.1-.6-.2l-.3-.9c-.2-.5-.8-.7-1.3-.5-.4.1-.8.3-1.1.5-.3.1-.5.2-.6-.2-.7-1.4-1.2-2.8-1.4-4.5.2.2.4.3.6.5.6.6 1.8.7 2.4.2.2-.2.4-1 .2-1.4-.1-.3-.3-.5-.4-.8.6-.2.6-.5 2.1 1.3.4-.2.8-.4 1.1-.6.4-.2.2-.6.1-.8l-.4-.8c.3.1.5.2.7.3s.4.2.5.4c.6.7 1.3 1.3 2.1 1.9.5.4.7 1 .7 1.6 0 .1-.1.3-.1.4-.1 0-.2-.1-.3-.2-.8-.2-.8-.2-1.1 0" class="bsv_svg-st0"/><path d="M20.7 46.6c-.9-.7-1.8-.5-2.7-.6-.4 0-.8.1-1.2 0-1.1-.3-1.6-1.1-1.2-2.3.4.2.7.5 1.1.7s.5 0 .5-.3c0-.6.1-1 .7-1.3.7-.2 1.3-.1 1.9.4 1.1.9 1.1 2.1.9 3.4" class="bsv_svg-st0"/></svg>