<svg xmlns="http://www.w3.org/2000/svg" data-name="Calque 1" viewBox="0 0 586.72 692.9"><path d="M222.2 282.1c-10.1 6.6-21.7 13.6-33.7 20.9v65.9c10.9-5.5 22.1-11.1 33.7-16.6Z" style="fill:url(#btch_svg-Безымянный_градиент)" transform="translate(-4.28 -5.6)"/><path d="M53.7 404a25.4 25.4 0 0 0 22.5 13.8 26.1 26.1 0 0 0 11.4-2.7c7.7-3.9 18.4-9.3 31.5-15.9.2-26.5.3-46.6.3-54.6v-2.1c-26.7 13.3-47 23.5-54.8 27.4A25.35 25.35 0 0 0 53.7 404" style="fill:url(#btch_svg-Безымянный_градиент_2)" transform="translate(-4.28 -5.6)"/><path d="M231.7 397.3a25.14 25.14 0 0 0 25.1 25.2h.3a25.22 25.22 0 0 0 25.2-25.2V188.5a28.2 28.2 0 0 0-.8-6.5 25.24 25.24 0 0 0-24.4-18.7c-1.1 0-2.2.1-3.3.2a25.05 25.05 0 0 0-22 24.9v104.3c-.1 35-.1 69.8-.1 104.6" style="fill:url(#btch_svg-Безымянный_градиент_3)" transform="translate(-4.28 -5.6)"/><path d="M590.8 235.6c-1.6-12.2-9.7-19-22-22.2-9.8-2.5-19.9-3-30.2-3.1-24-.1-47.8 3.8-71.4 8.4a950 950 0 0 0-101 25.4c-10 3.1-19.9 6.3-29.9 9.5 0-.1-.1-.3-.1-.4l1.8-1.5c19.3-16.5 38.5-33 57.9-49.3 42.6-36 81-75.5 116.7-117.2 9.7-11.3 18.1-23.4 22.4-37.2 6.5-20.7-.8-33.6-21.8-39.4-8.8-2.4-18-2.9-27.2-3-20-.1-39.8 3.2-59.3 7.2-20.4 4.2-49.9 11.7-69.9 17.8-32 9.8-71.5 26.6-106.8 40.9-18 7-37.2 16-55.1 23l-67.8 27.6C37.1 160.8 10.9 133 10.9 133a.8.8 0 0 0 .1.3 3 3 0 0 1-.4-.8c-17.5 34.5-2.9 97.2 98.3 52.4 15.9-6.2 32.1-12.9 47.9-19 30.5-11.9 60.7-26.6 91.3-38.4 6.7-2.8 32.5-13.3 63.7-24.7 6.4-2.5 12.9-5 19.3-7.5 19.8-6.5 39.6-13 59.8-18 22-5.7 41.2-9.1 52.8-7.6 1.2.1 2.4.2 3.5.4 5.3.7 8.1 3.5 7.6 7.2-.2 5.7-9.4 24.6-93.1 94.3-6.1 5.2-12.2 10.5-18.3 15.7-9.4 8.1-18.5 16.1-27.7 24.1l-7.7 6.8-.1.1-3.6 3.2a7 7 0 0 1-.9.8s-.4.4-.9.8l-7 5.3c-.2.2-1.2 1.1-1.5 1.3v88.5c29.6-10.1 173.7-58.2 189.2-44.1 1.2 1.6 19.5 13-148 127.6-6.6 5-13 10-19.6 15l-24.2 18.5c-30.3 21.9-60.4 43.9-90.7 65.8l-13.1 9.5c-.2 23.9-.3 46.8-.4 67.8l319.6-235.8a626 626 0 0 0 55.3-52.7c9.8-10.5 18.6-21.6 24.4-34.3 3-6.6 5.2-13 4.3-19.9" style="fill:url(#btch_svg-Безымянный_градиент_4)" transform="translate(-4.28 -5.6)"/><path d="M70.1 598.3a27 27 0 0 0-.6 33 20.4 20.4 0 0 0 2.3 2.7 26.79 26.79 0 0 0 33.2 4.6l12.8-9.4c.1-19.2.3-42.6.5-67.8l-43.2 32a29 29 0 0 0-5 4.9" style="fill:url(#btch_svg-Безымянный_градиент_5)" transform="translate(-4.28 -5.6)"/><path d="M179.2 231.1a25.24 25.24 0 0 0-24.4-18.7c-1.1 0-2.2.1-3.3.2a25.05 25.05 0 0 0-22 24.9v104.3c0 21.1-.9 125.8-1.7 212.7-.2 24.9-.4 48.3-.5 67.8-.2 24.8-.3 43.4-.3 51a25.14 25.14 0 0 0 25.1 25.2h.3a25.22 25.22 0 0 0 25.2-25.2c0-17.5.2-49.4.4-88.5.1-20.9.3-43.9.4-67.8.7-108.7 1.7-236.8 1.6-279.5a28 28 0 0 0-.8-6.4" style="fill:url(#btch_svg-Безымянный_градиент_6)" transform="translate(-4.28 -5.6)"/></svg>