<svg xmlns="http://www.w3.org/2000/svg" xml:space="preserve" id="btdx_svg-Layer_1" x="0" y="0" version="1.1" viewBox="0 0 1000 1000"><style>.btdx_svg-st0{fill:#fff}</style><g id="btdx_svg-XMLID_40_"><circle id="btdx_svg-XMLID_50_" cx="499.3" cy="502.3" r="482.2" class="btdx_svg-st0"/><linearGradient id="btdx_svg-XMLID_52_" x1="-481.149" x2="397.167" y1="248.605" y2="-308.961" gradientTransform="translate(535.457 536.239)" gradientUnits="userSpaceOnUse"><stop offset="0" stop-color="#00C7FF"/><stop offset=".357" stop-color="#00BEFF"/><stop offset=".948" stop-color="#00A4FF"/><stop offset=".994" stop-color="#00A2FF"/></linearGradient><circle id="btdx_svg-XMLID_751_" cx="499.3" cy="502.3" r="473" style="fill:url(#btdx_svg-XMLID_52_)"/><path id="btdx_svg-XMLID_49_" d="M665.8 475.6c-27.5-.6-52.1 11.9-68 31.7-4.6 5.7-12.8 7.1-19 3.2L516.2 472c-4.3-2.7-7-7.4-7-12.5v-.6c0-6.8 4.7-12.5 11.2-14.2 38.3-9.9 66-46 63-88-3-42.4-37.9-76.3-80.3-78.3-48.5-2.2-88.6 36.4-88.6 84.5 0 37.4 24.3 69.1 57.9 80.3 6 2 10.1 7.6 10.1 13.9v3.6c0 5.3-2.9 10.2-7.5 12.8l-59.6 33.4c-5.9 3.3-13.4 2.2-17.9-2.9-15.8-17.7-38.9-28.7-64.5-28.3-45.8.7-83.1 38.6-83.2 84.5-.1 47.6 39.3 86.1 87.2 84.6 43.7-1.3 79.6-36.5 81.8-80.1.3-5.6 0-11-.7-16.3-.8-5.7 1.9-11.4 6.8-14.4l61.9-38.2c4.7-2.9 10.5-2.9 15.2-.1l70.5 42.2c4.8 2.9 7.6 8.3 7 14-.5 5.2-.6 10.4-.1 15.8 3.6 41.8 38 75 79.9 77.1 49.7 2.5 90.6-38 88.9-87.5-1.5-44.7-38-80.7-82.4-81.7" class="btdx_svg-st0"/><path id="btdx_svg-XMLID_46_" d="M497.9 62.3C255.6 62.3 59.2 258.7 59.2 501s196.4 438.7 438.7 438.7S936.6 743.3 936.6 501 740.2 62.3 497.9 62.3m0 839.7c-221.5 0-401-179.6-401-401.1s179.5-401 401-401S899 279.4 899 500.9 719.4 902 497.9 902" class="btdx_svg-st0"/><path id="btdx_svg-XMLID_45_" d="M712.2 368.8c-.6 23-4.9 45.2-12.3 65.8 54.6 15.6 94.5 65.9 94.5 125.5 0 72.1-58.5 130.6-130.6 130.6-67.7 0-123.4-51.6-129.9-117.6-11.3 1.9-22.9 2.8-34.8 2.8-10.9 0-21.7-.8-32.2-2.4 6.9 102.7 92.4 183.9 196.9 183.9 109 0 197.3-88.3 197.3-197.3 0-92.3-63.4-169.8-148.9-191.3" class="btdx_svg-st0"/><g id="btdx_svg-XMLID_43_"><path id="btdx_svg-XMLID_44_" d="M334.4 690.7c-72.1 0-130.6-58.5-130.6-130.6s58.5-130.6 130.6-130.6c28.7 0 55.2 9.3 76.7 25-23.3-22.4-38.1-53.5-39.1-88.1-12.2-2.4-24.8-3.6-37.7-3.6-109 0-197.3 88.3-197.3 197.3s88.3 197.3 197.3 197.3c62.6 0 118.3-29.1 154.5-74.6-15.5-22.1-27-47.2-33.2-74.3-19.2 48.2-66.2 82.2-121.2 82.2" class="btdx_svg-st0"/></g><g id="btdx_svg-XMLID_41_"><path id="btdx_svg-XMLID_42_" d="M626.2 362.8c0 36-15 68.5-39.1 91.6 21.5-15.6 48-24.9 76.7-24.9 7.7 0 15.2.7 22.5 1.9 7.9-21.4 12.2-44.6 12.2-68.7 0-110.1-89.2-199.3-199.3-199.3-105.5 0-191.8 82-198.8 185.7 11.1-1.8 22.5-2.7 34.1-2.7 13.1 0 25.8 1.2 38.2 3.4 6.5-64.1 60.6-114.2 126.4-114.2 70.2.1 127.1 57 127.1 127.2" class="btdx_svg-st0"/></g></g></svg>