<svg xmlns="http://www.w3.org/2000/svg" width="36" height="40" viewBox="0 0 36 40"><path fill="#221E1F" d="M12.528 39.277H.585l2.343-13.213 12.399-11.13H4.783l8.526-5.207h13.864L9.24 27.366l-1.204 6.736s4.003.293 7.16 0c3.157-.325 6.704-1.627 6.704-1.627zm18.778-28.28-5.337 5.207s4.49 4.979.358 11.813c-4.068 6.704-17.574 5.467-17.574 5.467l1.042-5.89L28.8 9.109H13.049L14.644.127H7.029l-2.734 15.36h9.698l-11.52 10.35L.032 39.764s9.21.26 17.02 0c7.843-.26 16.987-6.964 18.322-14.547 1.822-10.251-4.068-14.221-4.068-14.221"/></svg>