<svg xmlns="http://www.w3.org/2000/svg" xmlns:xlink="http://www.w3.org/1999/xlink" viewBox="0 0 103.97 100.74"><defs><linearGradient id="call_svg-a" x1="87.7" x2="100.82" y1="40.86" y2="40.86" gradientUnits="userSpaceOnUse"><stop offset="0" stop-color="#ffe8a3"/><stop offset=".5" stop-color="#ffca05"/><stop offset="1" stop-color="#faac18"/></linearGradient><linearGradient xlink:href="#call_svg-a" id="call_svg-b" x1="93.55" x2="95.86" y1="42.17" y2="42.17"/><linearGradient xlink:href="#call_svg-a" id="call_svg-c" x1="93.55" x2="95.43" y1="39.7" y2="39.7"/><linearGradient xlink:href="#call_svg-a" id="call_svg-d" x1="42.36" x2="55.35" y1="8.54" y2="8.54"/><linearGradient xlink:href="#call_svg-a" id="call_svg-e" x1=".01" x2="13.75" y1="42.78" y2="42.78"/><linearGradient xlink:href="#call_svg-a" id="call_svg-f" x1="1.05" x2="12.73" y1="48.57" y2="48.57"/><linearGradient xlink:href="#call_svg-a" id="call_svg-g" x1="24.35" x2="37.57" y1="91.61" y2="91.61"/><linearGradient xlink:href="#call_svg-a" id="call_svg-h" x1="69.76" x2="82.71" y1="90.36" y2="90.36"/><linearGradient xlink:href="#call_svg-a" id="call_svg-i" x1="24.02" x2="74.32" y1="52.28" y2="52.28"/></defs><path fill="none" d="M97.58 31.09h-.14v2.17q.28.16.54.35Zm-5.44-1.15h-.27a1.52 1.52 0 0 1-1-.38l-1.88.68 2.19 3a6.4 6.4 0 0 1 1.73-.63Z"/><path fill="none" d="m95.99 32.72.55-1.71a1.84 1.84 0 0 1-1.12-1.68 1.8 1.8 0 0 1 .29-1l-8.72-6.68 4.1 5.44a1.53 1.53 0 1 1 1.37 2.73l.79 2.71a6.5 6.5 0 0 1 2.77.16Zm1.12-1.58h-.24l-.55 1.71a6 6 0 0 1 .78.32Zm-9.06 5.95a6.5 6.5 0 0 1 2.86-3.68l-2.22-3.06-3.87 1.34a1.57 1.57 0 0 1-2.21.77l-2.69.94q.49.79.93 1.61Zm-35.38-19.3 4.27-5.31-11.17 4.88 2.7.62a33 33 0 0 1 3.57-.2Zm22.75 9.84 7.62-5-3.7-5.09a1.66 1.66 0 0 1-1.39.29l-3.17 9.16Zm6.88 4.62a1.57 1.57 0 0 1-.52-1.16 1.605 1.605 0 1 1 3.21 0 1.4 1.4 0 0 1 0 .26l3.51-1.26-1.23-1.69-10.67.5a33 33 0 0 1 3.16 4.19ZM64.49 20.09l-.13.09.39.16Zm-2-.73v-.09h-.72l.52.17Zm5.84.06a1.22 1.22 0 0 1-1.18 0 1.58 1.58 0 0 1-2.16-.45h-.06a1 1 0 0 1 .06.12 1.22 1.22 0 0 1-.25.74l.87.84a32.6 32.6 0 0 1 5.14 2.93Zm9.33-1.73a1.6 1.6 0 0 1-.49-.34 1.66 1.66 0 0 1-.47-1.37l-3.88-1.26-4 2.88a1.23 1.23 0 0 1-.19 1.65l2.67 4.84a33 33 0 0 1 3.23 2.69Zm9.39 10.4-3.83-5.27-7.58 5 .7.75ZM33.57 83.78a6.48 6.48 0 0 1 3.82 5.25l7.18 2.81a1.2 1.2 0 0 1 .37-.42l-5.89-11a32.6 32.6 0 0 1-4.33-2.28Zm48.94-21.46 10.33 3.94a1.24 1.24 0 0 1 .45-.48l-.06-.13a1.6 1.6 0 0 1-.24-.56l-.4-.9-7-15.61a1.22 1.22 0 0 1-.91-.07c0 .66.06 1.33.06 2a32.6 32.6 0 0 1-2.23 11.81m-7.37 11.26 17.58-6.49a1 1 0 0 1 0-.28 1.2 1.2 0 0 1 0-.29l-10.33-3.91a32.7 32.7 0 0 1-7.25 10.97m12.85-36.19-6.92-2a32.5 32.5 0 0 1 3.32 10.27l.33.56a1.2 1.2 0 0 1 .5-.11 1.23 1.23 0 0 1 .85.34l3.57-3a6.47 6.47 0 0 1-1.65-6.06M72.74 75.8l3.52 6.17a6.45 6.45 0 0 1 4.45 1.81l4.47-6.15-12-2.25-.35.3Zm17.1-32.11-3.59 3a1.2 1.2 0 0 1 .2.67 1.2 1.2 0 0 1 0 .32l4.17 1.7a1.58 1.58 0 1 1 2.81 1.14l1 .42v-5.52h-.16a6.45 6.45 0 0 1-4.43-1.73m7.59.9v6.38h.25l.36-.63v.62l-.05.13a1.58 1.58 0 0 1 .37 2.57l2.83 3.74a1.8 1.8 0 0 1 .53-.23l-2.29-14.33a6.5 6.5 0 0 1-2 1.75M62.49 18.96a1.24 1.24 0 0 1 .34-.7l-4.37-5.58a1.25 1.25 0 0 1-1.29 0l-4.12 5.13a32.7 32.7 0 0 1 7.57 1.12Zm-39.33 46.8.35 6.83h.18a1.58 1.58 0 0 1 1.57 1.43h4.08a32.8 32.8 0 0 1-6.18-8.26m6.47 8.49h-4.37a1.58 1.58 0 0 1-1.58 1.46 1.5 1.5 0 0 1-.44-.07l-.66 2.45a1.57 1.57 0 0 1 .79 2.11l3.34 4.6a6.47 6.47 0 0 1 6.57-1.15l1.16-5.66a33 33 0 0 1-4.81-3.74M19.58 46.69l-1.16-4.8-1.11 7.6a1.59 1.59 0 0 1 1.2 1.54 1.5 1.5 0 0 1 0 .37l1 .1v-1a33 33 0 0 1 .07-3.81m52.73 29.4a32.55 32.55 0 0 1-13.32 6.32l-1.81 1a1.2 1.2 0 0 1 .1.47v.06l13.11 1.7a6.48 6.48 0 0 1 5.52-3.66l-3.41-6Zm-24.53 6.78-1.73 8.39a1.25 1.25 0 0 1 .45.27l8.45-7a1.22 1.22 0 0 1 .21-1.57c-1 .1-2.07.15-3.12.15a33 33 0 0 1-4.26-.24M29.1 27.2l-6.9-2.63-1.43 2 3.72 6.28h.07a32.8 32.8 0 0 1 4.54-5.65M18.85 41.78h-.12l1 4q.16-1.11.39-2.2Zm51.14 48.31q0-.18-.08-.36l-1.56.51Zm-14.57 4.35a1.7 1.7 0 0 1-.06.91l5.52 2.62a1.82 1.82 0 0 1 2.83-.4l7.28-5.3a6.5 6.5 0 0 1-.95-1.87l-3 .27Zm-10.21-3.17a1.1 1.1 0 0 1 .54-.08l1.72-8.37a32.5 32.5 0 0 1-8-2.17Zm27.05 2.3a6.5 6.5 0 0 1-1.06-1l-7.27 5.28ZM56.99 83.16l1-.56q-.68.13-1.37.22a1.25 1.25 0 0 1 .37.34m-1 1.98a1.23 1.23 0 0 1-.85-.34l-8.45 7a1.2 1.2 0 0 1 .16.4l20-1.79 3-1a6.5 6.5 0 0 1-.07-1 6.45 6.45 0 0 1 .51-2.52l-13.1-1.62a1.23 1.23 0 0 1-1.2.87m31.34.75a2 2 0 0 1-.17-.34l-4.84.75a6.5 6.5 0 0 1 .36 2Zm9.78-34.95v-6.18a6.4 6.4 0 0 1-1 .39ZM87.08 85.23a1.7 1.7 0 0 1 0-.31 1.82 1.82 0 0 1 1.46-1.83l-.36-3.49a1.58 1.58 0 0 1-1-.4l-5.74 5.3a6.5 6.5 0 0 1 .83 1.44Zm7.66-34.14 1.26.51a1.6 1.6 0 0 1 .81-.56l-1-5.79a6.5 6.5 0 0 1-1.07.17Zm-7.83 27.9a1.56 1.56 0 0 1-.32-.9 1 1 0 0 1 0-.15l-1.06-.2-4.54 6.28.23.26Zm-6.92-2.64 5.34 1 7.14-9.83-17.87 6.57q-.54.52-1.11 1ZM42.22 18.09l-2.68-.27 3 1.39h.1a1.58 1.58 0 0 1-.42-1.12m-1.4 72.61-3.4-1.33v.23ZM19.29 39.86a1.24 1.24 0 0 1-.18 1.76l1.06 1.59a32.4 32.4 0 0 1 2.18-6.42Zm13.02-22.77-2.81-.28a1.63 1.63 0 0 1-.45.85 1.67 1.67 0 0 1-2 .26l-4.65 6.4 7 2.65a33 33 0 0 1 5.07-4Zm13 .48a1.5 1.5 0 0 1 .08.48 1.6 1.6 0 0 1-.06.42q1.11-.23 2.24-.39Zm-6.71.13-5.95-.61 2 5.66a32.5 32.5 0 0 1 7.44-3.46ZM56.76 11a1.23 1.23 0 0 1 2.25.23l1.98-.37-6-2q-.11.29-.24.57ZM23.73 33.95a1.2 1.2 0 0 1 .07-.4l.06-.14a1.25 1.25 0 0 1 .35-.44l-3.65-6.17-1 1.42-.88 11.23a1.2 1.2 0 0 1 .41.2l3.69-3.69q.47-.94 1-1.85a1 1 0 0 1-.05-.16m11.59 60.54 25.35 4v-.09l-6-2.25a1.65 1.65 0 0 1-2.09-.2 1.6 1.6 0 0 1-.41-.74l-5.5-2.12a1.22 1.22 0 0 1-1 .53l-.36-.08h-.15a1.24 1.24 0 0 1-.65-.71l-8.62 1.07a7 7 0 0 1-.57.59m-13.38-13.4a1.59 1.59 0 0 1-1.59-1.59 1.6 1.6 0 0 1 .12-.59l-7.48-5.36a2 2 0 0 1-.32.31L25.3 86.54a6.5 6.5 0 0 1 1.17-1.51l-3.28-4.51a1.58 1.58 0 0 1-1.25.57m22.48 11.43v-.09a1 1 0 0 1 0-.21l-7-2.28a6.44 6.44 0 0 1-1.26 3.6Zm-26.1-40.8a1.6 1.6 0 0 1-.62.67l2 2.77a33 33 0 0 1-.31-3.33Zm-.92.81a1.6 1.6 0 0 1-.51.09 1.4 1.4 0 0 1-.34 0l-3.56 10.65a1.7 1.7 0 0 1 .27.16l7.73-2.9a32.5 32.5 0 0 1-1.14-4.66Zm-3.87 11.13a1.66 1.66 0 0 1 0 2.3 1.6 1.6 0 0 1-.31.23l8.57 11.79h.19a1.5 1.5 0 0 1 .33 0l.68-2.43a1.58 1.58 0 0 1 .28-2.91l-.44-7.55a32.5 32.5 0 0 1-1.79-4.29Zm-1.27-17.02v.78l3.46 2.55a1.6 1.6 0 0 1 .52-.38l-3.41-10.5a1.7 1.7 0 0 1-.56 0v1.27a6.48 6.48 0 0 1 0 6.23Zm19.93-29.9-.07-.2a1.58 1.58 0 0 1-1-.94l-1.62.49a1.7 1.7 0 0 1 0 .34Zm5.49.54-3.58-1.64a1.58 1.58 0 0 1-1.46 1h-.16l.05.15Zm-15.62 6.91 4.69-6.46-5.76 5.36a1.57 1.57 0 0 1 .31.83Zm-2.22 1.39h-.1l-.16 2 .8-1.11Z"/><path fill="none" d="M86.1 21.62a.86.86 0 0 1-.63-.27l-2 1.31 3.97 5.43 3-.14a1.5 1.5 0 0 1 .4-.63l-4.35-5.8a.86.86 0 0 1-.39.1m-64.22 2.83-.61-.23a1.57 1.57 0 0 1-1.1 1.31l.42.71Zm-7.89 13.69 3.33 1.8a1.2 1.2 0 0 1 .2-.22l.12-.09a1.24 1.24 0 0 1 .68-.21l.84-10.68-5.52 7.6a1.66 1.66 0 0 1 .35 1.8m49.72-20.25a1.23 1.23 0 0 1 1.08.63 1.5 1.5 0 0 1-.08-.47 1.59 1.59 0 0 1 .69-1.3l-6.63-4.33-.07.07 4.37 5.6a1.24 1.24 0 0 1 .64-.2m12.28-5.28a.8.8 0 0 1-.07.33l2.13 1.6a1.66 1.66 0 0 1 1.42.47 1.63 1.63 0 0 1 .46 1l5.58 4.08.14-.11-8.36-10a1.8 1.8 0 0 1-1 .33 1.7 1.7 0 0 1-.38 0l-.3 1.59a.77.77 0 0 1 .38.71m11 8.13a.9.9 0 0 1-.1.4l8.54 6.55L77.57 9.85l8.4 10a.87.87 0 0 1 1.02.89m-12.35-8.6-.48-.57.59.45a.77.77 0 0 1 .49-.19l.3-1.62a1.82 1.82 0 0 1-1.1-1.35l-4.28.41a1.4 1.4 0 0 1 0 .3 1.6 1.6 0 0 1-.09.51Zm-.01.95a.77.77 0 0 1-.14-.45.7.7 0 0 1 0-.17l-4.5-2.1a1.57 1.57 0 0 1-1.36.78 1.6 1.6 0 0 1-1.54-1.16l-4.88.94 10.57 3.43Zm-8.33 3.38a1.59 1.59 0 0 1 1.26.63h.21a1.23 1.23 0 0 1 .79.29l3.89-2.77-10.9-3.53-2.49.48v.08a1.2 1.2 0 0 1-.13.54l6.77 4.42a1.6 1.6 0 0 1 .6-.14m-24.05 1.27a1.6 1.6 0 0 1 .4-.77l-8.43-1.88a1.5 1.5 0 0 1 0 .3l4.43 2Zm52.16 45.35V51.27l-1.27-.52a1.57 1.57 0 0 1-2.57-1l-4.28-1.79a1.23 1.23 0 0 1-.44.45l7.14 15.91a1.63 1.63 0 0 1 1.42-1.23M16.99 49.45l1.1-7.59a1.23 1.23 0 0 1-.8-.6l-.1-.17a1.2 1.2 0 0 1-.09-.47 1 1 0 0 1 0-.18v-.23l-3.34-1.8a1.5 1.5 0 0 1-.2.25 1.6 1.6 0 0 1-.51.34l3.5 10.49a1.2 1.2 0 0 1 .44-.04m78.76 14.08.15.18 4.79-3.62a1.81 1.81 0 0 1 .23-2.46l-2.83-3.74a1.6 1.6 0 0 1-.82.23 1.5 1.5 0 0 1-.35 0l-2 9a1.63 1.63 0 0 1 .83.41m-.07-10.99a1.54 1.54 0 0 1 .16-.68l-1.1-.45v11.06l1.88-8.49a1.57 1.57 0 0 1-.94-1.44m.39 11.45a1.65 1.65 0 0 1-.32 1.89 1.63 1.63 0 0 1-.72.42 1.2 1.2 0 0 1 .1.29c-.18.47-.33.85-.48 1.21a1.2 1.2 0 0 1-.69.22h-.13L89.54 83.2l11.57-22.71a2 2 0 0 1-.23-.18Zm-7.14 12.67a1.59 1.59 0 0 1 .83 1.43 1.58 1.58 0 0 1-1.26 1.55l.36 3.45a1.7 1.7 0 0 1 .34 0l4.23-15ZM13.35 72.4a1.8 1.8 0 0 1-.23.87l7.5 5.39a1.57 1.57 0 0 1 .78-.61l-8.52-11.71a1.7 1.7 0 0 1-.58.1l-.41 4.17a1.83 1.83 0 0 1 1.46 1.79m-.67-9.23 3.56-10.7a1.58 1.58 0 0 1-.71-2.25l-3.26-2.4v15.27a1.7 1.7 0 0 1 .41.08M65.54 90.8 46.9 92.47a1 1 0 0 1 0 .19l5.32 1.73a1.66 1.66 0 0 1 1.58-1.3 1.65 1.65 0 0 1 1.17.49 1.6 1.6 0 0 1 .35.51Zm27.68-22.94a1.3 1.3 0 0 1-.31-.31l-7.17 9.87.92.17a1.58 1.58 0 0 1 1.52-1.14 1.6 1.6 0 0 1 .48.08Z"/><path fill="none" d="m55.04 8.6 6.56 2.13 5.43-1a1 1 0 0 1 0-.12 1.59 1.59 0 0 1 1.59-1.59 1.57 1.57 0 0 1 1.45 1l4.34-.42a1 1 0 0 1 0-.16l-19.23-3a6.5 6.5 0 0 1-.15 3.29ZM11.28 38.65a1.66 1.66 0 0 1 2.11-2.56l5.82-8 .2-2.55a1.58 1.58 0 1 1 1.33-2.74l5.81-5.35a1.7 1.7 0 0 1-.27-.54l-4 .72a2 2 0 0 1 0 .16 1.84 1.84 0 0 1-1.83 1.83 1.8 1.8 0 0 1-.73-.16L10.2 38.15a6.5 6.5 0 0 1 .89.72Zm.66.44a1.7 1.7 0 0 1-.41-.2l-.21.25a6.5 6.5 0 0 1 .62.77ZM42.39 6.45l-20.4 10.39a1.8 1.8 0 0 1 .21.48l4-.72a1.65 1.65 0 0 1 3.17-.78l1.67-.54a2 2 0 0 1 0-.24 1.58 1.58 0 0 1 3-.73l10.06-3.22a6.45 6.45 0 0 1-1.71-4.42zM8.21 49.8l3.29 20.77h.07l.42-4.16a1.64 1.64 0 0 1-.85-.45 1.66 1.66 0 0 1 .8-2.79V47.58l-.19-.14a6.48 6.48 0 0 1-3.54 2.36m82.15-21.55-2.7.13 1.16 1.6 1.83-.64a1.52 1.52 0 0 1-.3-.91 1.4 1.4 0 0 1 .01-.18m-41.5-15.11a6.45 6.45 0 0 1-4.51-1.83l-10.19 3.31v.1l8.76 2a1.58 1.58 0 0 1 2.2.5h.09l11.49-5.07a1.2 1.2 0 0 1-.14-.55 1.2 1.2 0 0 1 0-.3l-2.09-1.54a6.47 6.47 0 0 1-5.61 3.38m36.37 7.6a.8.8 0 0 1 .06-.32l-5.43-3.58a1.7 1.7 0 0 1-.27.43l3.73 5.13 2-1.32a.8.8 0 0 1-.09-.34m-10.37-7.47-1.71 1.21 3.62 1.18a1.6 1.6 0 0 1 .36-.62l-1.5-1.75a.78.78 0 0 1-.77-.02m2.52 1.56a1.6 1.6 0 0 1 .32-.18l-1.34-1Zm2.61 1.69 1.87 1.23-1.87-1.38z"/><path d="M102.14 57.15h-.15l-2.29-14.7c-.09.13-.17.26-.27.39l2.28 14.37a1.8 1.8 0 0 0-.53.23l-2.83-3.75a1.58 1.58 0 0 0-.36-2.6l.06-.11v-.59l-.36.63h-.25v-6.43l-.33.17v6.17l-1-5.78-.3.08 1 5.79a1.6 1.6 0 0 0-.81.56l-1.26-.49v-5.68h-.33v5.51l-1-.42a1.58 1.58 0 1 0-2.81-1.14l-4.17-1.7a1.2 1.2 0 0 0 0-.32 1.2 1.2 0 0 0-.2-.67l3.59-3-.22-.22-3.57 3a1.23 1.23 0 0 0-.85-.34 1.2 1.2 0 0 0-.5.11l-.33-.56q.2 1.38.29 2.8a1.22 1.22 0 0 0 .91.07l7 15.61.4.9a1.6 1.6 0 0 0 .28.62l.06.13a1.24 1.24 0 0 0-.45.48l-10.33-3.95-.11.29 10.34 3.94a1.2 1.2 0 0 0 0 .29 1 1 0 0 0 0 .28l-17.6 6.46-.54.53 17.92-6.59-7.14 9.83-5.34-1-6.55-1.26-.3.26 12 2.25-4.47 6.15.23.24 4.59-6.32 1.06.2a1 1 0 0 0 0 .15 1.56 1.56 0 0 0 .32.95l-5.73 5.29.2.26 5.74-5.3a1.58 1.58 0 0 0 1 .4l.41 3.47a1.82 1.82 0 0 0-1.48 1.79 1.7 1.7 0 0 0 0 .31l-4.88.75.12.31 4.84-.75a2 2 0 0 0 .17.34l-4.62 2.41v.37l4.85-2.47a1.83 1.83 0 1 0 2.32-2.78l11.57-22.7a1.8 1.8 0 0 0 .71.15 1.835 1.835 0 1 0 0-3.67m-5.22-3.06a1.5 1.5 0 0 0 .35 0 1.6 1.6 0 0 0 .82-.23l2.82 3.74a1.81 1.81 0 0 0-.22 2.49l-4.79 3.62-.15-.18a1.63 1.63 0 0 0-.83-.44Zm-2.18-2.67 1.1.45a1.54 1.54 0 0 0-.16.68 1.57 1.57 0 0 0 .94 1.45l-1.88 8.49Zm-1.75 12.9-7.14-15.91a1.23 1.23 0 0 0 .44-.45l4.29 1.75a1.57 1.57 0 0 0 2.57 1l1.27.52v11.86a1.63 1.63 0 0 0-1.43 1.23M86.66 77.6l-.92-.17 7.17-9.87a1.3 1.3 0 0 0 .31.31l-4.57 8.68a1.6 1.6 0 0 0-.48-.08 1.58 1.58 0 0 0-1.51 1.13m2.23 5.49-.36-3.49a1.58 1.58 0 0 0 1.23-1.51 1.59 1.59 0 0 0-.82-1.39l4.52-8.61-4.24 15a1.7 1.7 0 0 0-.33 0m.69.14 4.22-15.14h.13a1.2 1.2 0 0 0 .69-.22c.15-.35.3-.73.48-1.21a1.2 1.2 0 0 0-.1-.29 1.63 1.63 0 0 0 .72-.42 1.65 1.65 0 0 0 .32-1.89l4.84-3.66a2 2 0 0 0 .23.18ZM81.05 35.4l6.92 2 .08-.3-7.2-2.07ZM63.93 97.81l7.27-5.28-.2-.26-7.29 5.3a1.82 1.82 0 0 0-2.83.4l-5.52-2.62a1.7 1.7 0 0 0 .06-.91l11.57-3.77 3-.27v-.31l-1.64.15 1.56-.51q0-.16-.06-.32l-3 1-20 1.79a1.2 1.2 0 0 0-.16-.4l8.45-7a1.23 1.23 0 0 0 2-.53l13.07 1.66.13-.29-13.1-1.68v-.06a1.2 1.2 0 0 0-.1-.47l1.81-1-1 .19-1 .56a1.25 1.25 0 0 0-.38-.34q-.72.1-1.45.17a1.22 1.22 0 0 0-.13 1.55l-8.45 7a1.25 1.25 0 0 0-.45-.27l1.73-8.39h-.31l-1.75 8.29a1.1 1.1 0 0 0-.54.08l-5.7-10.62-.45-.19 5.89 11a1.2 1.2 0 0 0-.37.42l-7.2-2.85v.34l3.4 1.33-3.39-1.1v.35l7 2.28a1 1 0 0 0 0 .21v.09l-8.26 1-.29.37 8.62-1.07a1.24 1.24 0 0 0 .65.71h.15l.36.08a1.22 1.22 0 0 0 1-.53l5.54 2.08a1.6 1.6 0 0 0 .41.74 1.65 1.65 0 0 0 2.09.2l6 2.25v.09l-25.35-4-.33.28 25.64 4.06v.08a1.835 1.835 0 1 0 3.67 0 1.8 1.8 0 0 0-.19-.8l8.47-4.31-.29-.22Zm-14.14-3.85 2.36.77v.12Zm4-.84a1.66 1.66 0 0 0-1.61 1.27l-5.32-1.73a1 1 0 0 0 0-.19L65.5 90.8l-10.18 3.29a1.6 1.6 0 0 0-.35-.51 1.65 1.65 0 0 0-1.17-.49Zm1.2 2.8a1.7 1.7 0 0 0 .21-.28l3.65 1.74Zm17.84-20.24-.53.42.2-.11 3.41 6h.35l-3.52-6.17Zm-38.39 2.33-1.16 5.66.29.12 1.15-5.6Z"/><path fill="none" d="m20.16 25.52.42.71 1.3-1.78-.61-.23a1.57 1.57 0 0 1-1.11 1.3m11-9.92-1.66.49a1.7 1.7 0 0 1 0 .34l2.66.26-.07-.2a1.58 1.58 0 0 1-.93-.89m-9.88 8.29.79.3 4.69-6.46-5.77 5.36a1.57 1.57 0 0 1 .29.8m-7.29 14.25 3.33 1.8a1.2 1.2 0 0 1 .2-.22l.12-.09a1.24 1.24 0 0 1 .68-.21l.84-10.68-5.52 7.6a1.66 1.66 0 0 1 .35 1.8m5.75-12.55-.16 2 .8-1.11-.55-.92Zm67.25-4.85a.9.9 0 0 1-.1.4l8.54 6.55L77.57 9.85l8.4 10a.87.87 0 0 1 1.02.89m-52.8-5.4 4.43 2 3.63.36a1.6 1.6 0 0 1 .4-.77l-8.43-1.84a1.5 1.5 0 0 1-.03.25m40.45-3.2-.48-.57.59.45a.77.77 0 0 1 .49-.19l.3-1.62a1.82 1.82 0 0 1-1.1-1.35l-4.28.41a1.4 1.4 0 0 1 0 .3 1.6 1.6 0 0 1-.09.51Zm-42 4.49h-.16l.05.15 5.16.51-3.58-1.64a1.58 1.58 0 0 1-1.47.98m64.23 14.46-.55 1.71a6 6 0 0 1 .78.32v-2Zm-4.99-1.13a1.52 1.52 0 0 1-1-.38l-1.89.66 2.19 3a6.4 6.4 0 0 1 1.73-.63l-.78-2.68Z"/><path fill="none" d="M95.44 29.32a1.8 1.8 0 0 1 .29-1l-8.74-6.67 4.1 5.44a1.53 1.53 0 1 1 1.37 2.73l.79 2.71a6.5 6.5 0 0 1 2.77.16l.55-1.71a1.84 1.84 0 0 1-1.13-1.66M12.31 66.44l-.41 4.17a1.82 1.82 0 0 1 1.23 2.66l7.5 5.39a1.57 1.57 0 0 1 .78-.61l-8.53-11.71a1.7 1.7 0 0 1-.57.1m2.99-15.41a1.57 1.57 0 0 1 .22-.8l-3.26-2.4v15.26a1.7 1.7 0 0 1 .38 0l3.56-10.7a1.57 1.57 0 0 1-.9-1.36m82.13-19.88v2.17q.28.16.54.35l-.39-2.58ZM17.26 41.26l-.07-.17a1.2 1.2 0 0 1-.09-.47 1 1 0 0 1 0-.18v-.23l-3.34-1.8a1.5 1.5 0 0 1-.2.25 1.6 1.6 0 0 1-.51.34l3.5 10.49a1.2 1.2 0 0 1 .4 0l1.1-7.59a1.23 1.23 0 0 1-.79-.64m67.97-20.52a.8.8 0 0 1 .06-.32l-5.43-3.58a1.7 1.7 0 0 1-.27.43l3.73 5.13 2-1.32a.8.8 0 0 1-.09-.34m6.47 19.87a.64.64 0 0 0-.65.64v1h1.29v-1a.64.64 0 0 0-.64-.64"/><path fill="none" d="m90.84 27.31-4.35-5.79a.86.86 0 0 1-1-.18l-2 1.31 3.95 5.44 3-.14a1.5 1.5 0 0 1 .4-.64m-.49 1.12a1.4 1.4 0 0 1 0-.18l-2.7.13 1.16 1.6 1.83-.64a1.52 1.52 0 0 1-.29-.91M74.48 12.61a.7.7 0 0 1 0-.17l-4.49-2.07a1.57 1.57 0 0 1-1.36.78 1.6 1.6 0 0 1-1.54-1.16l-4.88.94 10.57 3.43 1.85-1.27a.77.77 0 0 1-.15-.48m.38.66-1.71 1.21 3.62 1.18a1.6 1.6 0 0 1 .36-.62l-1.5-1.75a.78.78 0 0 1-.77-.02m2.52 1.56a1.6 1.6 0 0 1 .32-.18l-1.34-1Zm-18.32-3.29v.08a1.2 1.2 0 0 1-.13.54l6.77 4.42a1.57 1.57 0 0 1 1.85.51h.21a1.23 1.23 0 0 1 .79.29l3.89-2.77-10.89-3.52Zm22.77 6.21-1.84-1.38v.15Zm3.68 2.34.14-.11-8.36-10a1.8 1.8 0 0 1-1 .33 1.7 1.7 0 0 1-.38 0l-.3 1.59a.77.77 0 0 1 .48.71.8.8 0 0 1-.07.33l2.13 1.6a1.66 1.66 0 0 1 1.42.47 1.63 1.63 0 0 1 .46 1Zm-26.8-7.6 4.36 5.6a1.23 1.23 0 0 1 1.72.46 1.5 1.5 0 0 1-.08-.47 1.59 1.59 0 0 1 .69-1.3l-6.63-4.33Z"/><path d="m88.99 30.24 1.87-.65a1.52 1.52 0 0 0 1 .38h.27l.78 2.68.32-.06-.79-2.71a1.55 1.55 0 1 0-1.35-2.79l-4.1-5.44 8.73 6.7a1.8 1.8 0 0 0-.29 1 1.84 1.84 0 0 0 1.12 1.68l-.56 1.69.31.1.57-1.73h.24v2l.33.17v-2.11h.14l.4 2.53.38.28-.46-2.9a1.83 1.83 0 1 0-1.79-3.12L77.74 9.56a1.8 1.8 0 0 0 .33-1 1.83 1.83 0 0 0-3.6-.48L55.11 4.97c0 .11.06.23.08.34l19.23 3a1 1 0 0 0 0 .16l-4.34.42a1.57 1.57 0 0 0-1.45-1 1.59 1.59 0 0 0-1.64 1.68 1 1 0 0 0 0 .12l-5.43 1L55 8.56l-.11.31 6 2-1.9.36a1.23 1.23 0 0 0-2.25-.23l-2.06-1.52-.15.29 2.09 1.54a1.2 1.2 0 0 0 0 .3 1.2 1.2 0 0 0 .14.55l-11.52 5.08h-.09a1.58 1.58 0 0 0-2.2-.5l-8.76-2v-.1l10.19-3.31-.28-.24-10.06 3.22a1.58 1.58 0 0 0-3 .73 2 2 0 0 0 0 .24l-1.67.54a1.65 1.65 0 0 0-3.17.78l-4 .72a1.8 1.8 0 0 0-.21-.48l20.4-10.39v-.38L21.78 16.58a1.83 1.83 0 1 0-2.36 2.75l-9.5 18.65.28.18 9.51-18.67a1.8 1.8 0 0 0 .73.16 1.84 1.84 0 0 0 1.83-1.83 2 2 0 0 0 0-.16l4-.72a1.7 1.7 0 0 0 .27.54l-5.81 5.35a1.57 1.57 0 0 0-1-.4 1.58 1.58 0 0 0-.29 3.14l-.23 2.52-5.82 8a1.66 1.66 0 0 0-2.11 2.53l-.19.22.23.23.21-.25a1.7 1.7 0 0 0 .41.2v.81q.18.26.33.53v-1.21a1.7 1.7 0 0 0 .56 0l3.41 10.44a1.6 1.6 0 0 0-.52.38l-3.46-2.55v-.78q-.15.28-.33.53l-.19.27.19.14v15.58a1.66 1.66 0 0 0 0 3.24l-.41 4.17h-.07L8.21 49.8l-.32.07 3.28 20.74a1.83 1.83 0 0 0 .34 3.63 1.8 1.8 0 0 0 .82-.2l12.81 12.8.16-.3-12.68-12.68a2 2 0 0 0 .32-.31l7.52 5.41a1.6 1.6 0 0 0-.12.59 1.58 1.58 0 0 0 2.84 1l3.28 4.52.24-.22-3.34-4.6a1.57 1.57 0 0 0-.78-2.16l.67-2.43a1.5 1.5 0 0 0 .44.07 1.58 1.58 0 0 0 1.58-1.46h4.37l-.29-.28h-4.08a1.58 1.58 0 0 0-1.57-1.43h-.18l-.35-6.83-.34-.64.4 7.53a1.58 1.58 0 0 0-.24 2.93L22.31 78a1.5 1.5 0 0 0-.33 0h-.19l-8.61-11.81a1.6 1.6 0 0 0 .31-.23 1.66 1.66 0 0 0 0-2.3L21 60.83l-.1-.29-7.69 2.9a1.7 1.7 0 0 0-.27-.16l3.56-10.7a1.4 1.4 0 0 0 .34 0 1.6 1.6 0 0 0 .51-.09l2.41 3.34q-.06-.35-.11-.71l-2-2.77a1.6 1.6 0 0 0 .62-.67l1.08.12v-.33l-1-.1a1.5 1.5 0 0 0 0-.37 1.59 1.59 0 0 0-1.2-1.54l1.11-7.6 1.16 4.8q0-.43.11-.86l-1-4h.12l1.23 1.85.09-.42-1.06-1.59a1.24 1.24 0 0 0 .18-1.76l3.06-3.06q.19-.42.4-.84l-3.69 3.69a1.2 1.2 0 0 0-.41-.2l.88-11.23 1-1.42 3.65 6.17a1.25 1.25 0 0 0-.35.44l-.06.14a1.2 1.2 0 0 0-.07.4 1 1 0 0 0 0 .15q.39-.67.8-1.32h-.07l-3.72-6.28 1.43-2 6.9 2.63.24-.24-7-2.65 4.91-6.36a1.67 1.67 0 0 0 2-.26 1.63 1.63 0 0 0 .45-.85l2.81.28 2.1 5.86.27-.17-2-5.66 5.95.59 3.52 1.62.44-.14-3-1.39 2.68.27a1.58 1.58 0 0 0 .45 1.09q1.31-.39 2.67-.68a1.6 1.6 0 0 0 .06-.37 1.5 1.5 0 0 0-.08-.48l2.26.52.9-.11-2.7-.62 11.14-4.92-4.24 5.31h.39l4.12-5.13a1.25 1.25 0 0 0 1.29 0l4.37 5.58a1.24 1.24 0 0 0-.34.7h-1.86l1.13.33h.72v.09l-.21.07q1.05.35 2.07.76l.14-.1.26.25.82.36-.87-.84a1.22 1.22 0 0 0 .29-.77 1 1 0 0 0 0-.15h.06a1.58 1.58 0 0 0 2.14.42 1.22 1.22 0 0 0 1.18 0l2.38 4.21.6.43-2.72-4.82a1.23 1.23 0 0 0 .19-1.65l4-2.88 3.88 1.26a1.66 1.66 0 0 0 .47 1.37 1.6 1.6 0 0 0 .49.34l-3.13 9.07.24.24 3.22-9.15a1.66 1.66 0 0 0 1.39-.29l3.7 5.09-7.62 5 .22.22 7.58-5 3.79 5.29-10.71.51.26.3 10.67-.5 1.23 1.69-3.57 1.25a1.4 1.4 0 0 0 .06-.25 1.59 1.59 0 1 0-3.17 0 1.57 1.57 0 0 0 .52 1.17l-2.58.83.17.27 2.69-.94a1.57 1.57 0 0 0 2.21-.77l3.86-1.35 2.22 3.06.29-.16ZM21.4 78.09a1.57 1.57 0 0 0-.78.61l-7.5-5.39a1.82 1.82 0 0 0-1.23-2.66l.41-4.17a1.7 1.7 0 0 0 .58-.1Zm-8.72-14.92a1.7 1.7 0 0 0-.38 0V47.82l3.26 2.4a1.58 1.58 0 0 0 .71 2.25Zm4.31-13.72a1.2 1.2 0 0 0-.4 0l-3.45-10.43a1.6 1.6 0 0 0 .51-.34 1.5 1.5 0 0 0 .2-.25l3.34 1.8v.23a1 1 0 0 0 0 .18 1.2 1.2 0 0 0 .09.47l.07.13a1.23 1.23 0 0 0 .8.6Zm1.38-10a1.24 1.24 0 0 0-.68.21l-.12.09a1.2 1.2 0 0 0-.2.22l-3.38-1.83a1.66 1.66 0 0 0-.35-1.81l5.52-7.6Zm1.25-11.81.16-2h.1l.55.92Zm1-1.38-.42-.71a1.57 1.57 0 0 0 1.1-1.31l.61.23Zm1.48-2-.79-.3a1.57 1.57 0 0 0-.32-.87l5.79-5.33Zm7.47-7.71a1.7 1.7 0 0 0 0-.34l1.66-.54a1.58 1.58 0 0 0 1 .94l.07.2Zm3 .3-.05-.15h.16a1.58 1.58 0 0 0 1.46-1l3.58 1.64Zm9.73 1-3.63-.36-4.43-2a1.5 1.5 0 0 0 0-.3l8.43 1.92a1.6 1.6 0 0 0-.42.63Zm53.16 10-8.54-6.55a.87.87 0 0 0-.9-1.26l-8.4-10ZM70.17 9.27l4.28-.41a1.82 1.82 0 0 0 1.1 1.35l-.3 1.62a.77.77 0 0 0-.49.19l-.59-.45.48.57-4.53-2.05a1.6 1.6 0 0 0 .09-.51 1.4 1.4 0 0 0-.04-.31m-5.46 8.82a1.5 1.5 0 0 0 .08.47 1.23 1.23 0 0 0-1.72-.47l-4.36-5.6.07-.07 6.63 4.33a1.59 1.59 0 0 0-.7 1.34m3.85-.68a1.23 1.23 0 0 0-.79-.29h-.21a1.57 1.57 0 0 0-1.85-.51l-6.77-4.42a1.2 1.2 0 0 0 .13-.54v-.08l2.48-.48 10.9 3.54Zm4.23-3-10.58-3.48 4.88-.94a1.6 1.6 0 0 0 1.53 1.17 1.57 1.57 0 0 0 1.37-.79l4.52 2.07a.7.7 0 0 0 0 .17.77.77 0 0 0 .14.45Zm4 1.3-3.62-1.18 1.71-1.21a.78.78 0 0 0 .78 0l1.47 1.77a1.6 1.6 0 0 0-.36.57Zm.61-.83-1-1.19 1.34 1a1.6 1.6 0 0 0-.36.14Zm.71-.3-2.12-1.65a.8.8 0 0 0 .07-.33.77.77 0 0 0-.48-.71l.3-1.59a1.7 1.7 0 0 0 .38 0 1.8 1.8 0 0 0 1-.33l8.36 10-.14.11-5.49-4.13a1.63 1.63 0 0 0-.46-1 1.66 1.66 0 0 0-1.43-.41Zm3.73 3.21-1.85-1.27v-.15Zm-2.24-.48a1.7 1.7 0 0 0 .27-.43l5.43 3.58a.83.83 0 0 0 0 .66l-2 1.32Zm3.91 5.38 2-1.31a.86.86 0 0 0 1 .18l4.35 5.79a1.5 1.5 0 0 0-.4.63l-3 .14Zm4.16 5.73 2.7-.13a1.4 1.4 0 0 0 0 .18 1.52 1.52 0 0 0 .3.91l-1.83.64Z"/><path fill="#404041" d="M52.04 83.45a33 33 0 1 1 33-33 33 33 0 0 1-33 33m0-65A32.06 32.06 0 1 0 84.1 50.46 32.1 32.1 0 0 0 52.04 18.4Z"/><path fill="url(#call_svg-a)" d="M100.82 40.87a6.56 6.56 0 1 1-6.54-6.56 6.54 6.54 0 0 1 6.54 6.56m-8-2.92h-1.74v.87h.42c.52 0 .58.07.58.59v2.77c0 .81.11.89-.8.88h-.08l-.14 1h1.61v1.27h.88v-1.24h.58v1.27H95v-1.28a4 4 0 0 0 .44-.08 6.4 6.4 0 0 0 1.27-.42 1.67 1.67 0 0 0 .76-1.8 1.21 1.21 0 0 0-1-1 1 1 0 0 1-.18-.1c.58-.5 1-1 .66-1.82s-1.05-.83-1.79-.9v-1.31h-.87v1.27h-.59v-1.26h-.9Z" transform="translate(-.01 -1.91)"/><path fill="url(#call_svg-b)" d="M93.55 43.11v-1.87c.59.07 1.15.11 1.7.21a.73.73 0 0 1 0 1.44c-.54.11-1.1.11-1.7.22" transform="translate(-.01 -1.91)"/><path fill="url(#call_svg-c)" d="M93.55 38.79c.41 0 .79 0 1.15.11a.78.78 0 0 1 .72.75.74.74 0 0 1-.64.76c-.39.1-.8.14-1.23.2Z" transform="translate(-.01 -1.91)"/><path fill="url(#call_svg-d)" d="M42.36 8.53a6.49 6.49 0 1 1 13-.09 6.5 6.5 0 1 1-13 .09m3 4.27h6.93l.43-1.65h-4.33c.18-.71.35-1.37.54-2a.47.47 0 0 1 .24-.25c.26-.12.53-.2.79-.31.07 0 .17-.09.19-.15.1-.33.17-.66.26-1l-1.15.43.9-3.5h-2.62c0 .07 0 .13-.06.2-.31 1.19-.67 2.37-.91 3.57a1.25 1.25 0 0 1-1 1.16.34.34 0 0 0-.22.19c-.1.32-.17.64-.26 1l1-.37Z" transform="translate(-.01 -1.91)"/><path fill="url(#call_svg-e)" d="M0 45.54v-.82a3 3 0 0 0 .08-.33 6.83 6.83 0 0 1 5.21-5.9c.39-.09.78-.15 1.17-.22h.82a3 3 0 0 0 .33.07 6.83 6.83 0 0 1 5.9 5.11c.08.33.15.66.22 1v1.37c-.08.38-.17.75-.25 1.13a.37.37 0 0 1-.44.35 9 9 0 0 0-1.23 0c-.35 0-.45-.09-.45-.44v-5.29h-.09L6.82 46l-4.43-4.46v5.4c0 .25-.07.35-.33.34H.72a.37.37 0 0 1-.44-.35C.2 46.47.11 46 0 45.54" transform="translate(-.01 -1.91)"/><path fill="url(#call_svg-f)" d="m6.12 52-.67-.15a6.8 6.8 0 0 1-4.19-2.78c-.06-.09-.12-.19-.22-.35H3.6c.42 0 .35-.09.34-.35v-3.19l2.89 2.91 2.89-2.94.12.06v3.51h2.9A6.5 6.5 0 0 1 11 50.59a6.7 6.7 0 0 1-3.12 1.32 1.3 1.3 0 0 0-.18.09Z" transform="translate(-.01 -1.91)"/><path fill="url(#call_svg-g)" d="M37.57 91.63a6.61 6.61 0 1 1-6.5-6.73 6.64 6.64 0 0 1 6.5 6.73m-10.93 2.76a2 2 0 0 0 .25 0h5.89a1.94 1.94 0 0 0 1.79-1.34c.35-.89.62-1.82.89-2.74a1 1 0 0 0-1-1.4h-5.82c-.11 0-.28.06-.31.14-.16.41-.28.84-.44 1.33h5.5c-.25.78-.5 1.48-.7 2.2-.09.32-.24.39-.55.39h-4.73c-.14 0-.36.07-.4.16-.12.41-.23.82-.37 1.26m-.2-2h3.21a.23.23 0 0 0 .18-.1c.14-.38.26-.77.4-1.21H27a.23.23 0 0 0-.18.11c-.12.33-.24.72-.38 1.15Z" transform="translate(-.01 -1.91)"/><path fill="url(#call_svg-h)" d="M82.7 90.16a6.5 6.5 0 0 0-.36-2l-.12-.31a6.5 6.5 0 0 0-.83-1.44l-.2-.26-.19-.22-.23-.24a6.45 6.45 0 0 0-4.45-1.81h-.35a6.48 6.48 0 0 0-5.52 3.66l-.13.29a6.45 6.45 0 0 0-.51 2.52 6.5 6.5 0 0 0 .07 1q0 .16.06.32T70 92l.09.3a6.5 6.5 0 0 0 .91 1.88l.2.26a6.5 6.5 0 0 0 1.06 1l.29.22a6.47 6.47 0 0 0 10.15-5.13zm-2.3 3.44a2 2 0 0 1-.23.4 1.2 1.2 0 0 1-.35.18h-6.5l-.19-.07a.61.61 0 0 1-.15-1c1.72-1.71 3.43-3.43 5.14-5.15l.19-.2H74v1.06c0 .35 0 .24.24.24h1.17l-2.62 2.61v-4.56c.07-.19.13-.39.33-.48l.25-.1h6.59a.55.55 0 0 1 .45.57.65.65 0 0 1-.23.49L75 92.77l-.17.19h4.36v-1.2s-.06-.08-.09-.09a1.5 1.5 0 0 0-.25 0h-1l.14-.15L80.41 89Z" transform="translate(-.01 -1.91)"/><path fill="#404041" d="M52.88 63.76a10.9 10.9 0 0 0 4.61-.8 8 8 0 0 0 1.65-.81.43.43 0 0 1 .64.08l3.75 3.86c.27.28.26.37-.06.59a18 18 0 0 1-4.21 2.13 20 20 0 0 1-5.72 1.06 19.8 19.8 0 0 1-7.32-1 18 18 0 0 1-5.57-3.13 20.6 20.6 0 0 1-3.9-4.28 17 17 0 0 1-1.59-2.78q-.5-1.15-.9-2.35a21 21 0 0 1-.84-4.49 13.5 13.5 0 0 1 .05-3.36 24 24 0 0 1 .58-3.27 20.5 20.5 0 0 1 1.94-4.71 19.2 19.2 0 0 1 7.64-7.36 19 19 0 0 1 3.81-1.56 17 17 0 0 1 3.29-.64 12.7 12.7 0 0 1 2.59-.06 4 4 0 0 0 .46 0 16 16 0 0 1 4.17.66 15.5 15.5 0 0 1 3.33 1.31 17 17 0 0 1 3.13 2c.19.17.34.09.49-.07l2.31-2.44 3.33-3.54c.39-.42.49-.43.91-.05a30.7 30.7 0 0 1 3.54 3.77A28 28 0 0 1 78.44 38a33 33 0 0 1 1.84 5c.4 1.41.53 2.85.84 4.26a.3.3 0 0 1 0 .08c0 1.31.29 2.62.15 3.93-.16 1.49-.24 3-.55 4.47a34 34 0 0 1-1 3.65 28.1 28.1 0 0 1-4.35 8.24c-.29.38-.38.39-.71 0-1.1-1.11-2.2-2.24-3.31-3.34-.23-.23-.2-.41 0-.66a23 23 0 0 0 2.82-5.32 25.7 25.7 0 0 0 1.29-5.48 29 29 0 0 0 .09-4.31 15.6 15.6 0 0 0-.29-2.43 22.5 22.5 0 0 0-3.9-9.12c-.21-.3-.47-.57-.66-.89s-.21-.23-.39-.05c-1.06 1.07-2.15 2.11-3.18 3.2-.36.38-.77.68-1.11 1.07s-.75.76-1.13 1.14l-1.16 1.16c-.18.18-.32.11-.44-.06a12.9 12.9 0 0 0-3.71-3.6 12.3 12.3 0 0 0-4.67-1.8 14 14 0 0 0-3.92-.05 12.1 12.1 0 0 0-4.56 1.44 12.7 12.7 0 0 0-3.9 3.32 12.9 12.9 0 0 0-2.11 3.91 15.5 15.5 0 0 0-.71 5.19 12.5 12.5 0 0 0 3.28 8.53 13.3 13.3 0 0 0 4.6 3.29 11.8 11.8 0 0 0 5.29.99"/><path fill="url(#call_svg-i)" d="m74 70.45-10.12-10.3c-.22-.23-.4-.24-.58 0a12.7 12.7 0 0 1-2.57 2.76c-.24.19-.24.34 0 .56.91.91 1.81 1.84 2.71 2.75 1.17 1.19 2.34 2.38 3.52 3.57.21.21.2.31 0 .49-.47.35-.93.71-1.42 1A22.1 22.1 0 0 1 57 74.82a17 17 0 0 1-3.63.42h-.49a13 13 0 0 1-2.59-.08c-1-.15-1.94-.27-2.89-.48a21.3 21.3 0 0 1-3.52-1.13 23 23 0 0 1-5.39-3.17 23.6 23.6 0 0 1-4.31-4.42 21.8 21.8 0 0 1-3.08-5.69A18.8 18.8 0 0 1 29.74 54a4.6 4.6 0 0 1 0-.68v-2.36a1.8 1.8 0 0 1 0-.77c0-.19.08-.37.11-.56a21 21 0 0 1 .47-2.63 23 23 0 0 1 1.09-3.41 24.3 24.3 0 0 1 2.3-4.27 23 23 0 0 1 4.88-5.19 23 23 0 0 1 3.18-2.08 22.1 22.1 0 0 1 9-2.71h.58A22.4 22.4 0 0 1 61 30.86l.86.36q.53.24 1.05.5a24 24 0 0 1 2.7 1.59.41.41 0 0 0 .61-.06c1.06-1.21 2.18-2.36 3.29-3.52.21-.22.22-.42 0-.6a28.6 28.6 0 0 0-6.39-3.5 29 29 0 0 0-6-1.62 31 31 0 0 0-3.88-.37 27.7 27.7 0 0 0-6 .56 29 29 0 0 0-3.72 1 27.5 27.5 0 0 0-6.15 2.95 29 29 0 0 0-6.19 5.31 28.3 28.3 0 0 0-5.47 9.34 32 32 0 0 0-1.19 4.45 38 38 0 0 0-.45 4 21 21 0 0 0 .2 4.31 26 26 0 0 0 .81 4.19c.27.93.54 1.86.89 2.76a28.8 28.8 0 0 0 2.62 5.17 30.2 30.2 0 0 0 4.57 5.5 28.4 28.4 0 0 0 3.6 2.82 27.3 27.3 0 0 0 5.46 2.89 27.7 27.7 0 0 0 5.95 1.62 37 37 0 0 0 4.61.4c1 0 2-.16 2.94-.18a14 14 0 0 0 2.11-.32c.77-.13 1.53-.33 2.29-.53a29 29 0 0 0 4.38-1.56 27 27 0 0 0 3.62-2 29 29 0 0 0 6-5.12c.29-.33.28-.39-.12-.75" transform="translate(-.01 -1.91)"/></svg>