<svg xmlns="http://www.w3.org/2000/svg" data-name="Слой 1" viewBox="0 0 455.38 454.9"><path d="M191.75 4.48A206 206 0 0 1 238 .56a160 160 0 0 1 28.89 2.61c18.58 2.55 36.47 8.46 53.94 15.08 12.69 5.67 26 11 36.32 20.64 2.89 2.1 1.33 6.29-1.21 7.93-5.92 3.79-13 4.89-19.75 6.37-30.39 5.22-61.33 7.56-91.17 15.66-13.39 3-26.26 7.92-39 13-23.67 10.59-45.43 26.14-61.17 46.93-3 4.41-5.93 8.86-8.7 13.42-2.49 4.87-5 9.72-7.05 14.81q-2.26 5.46-4.25 11c-2.69 7.87-4 16.08-6 24.14-.63 5.29-1 10.63-2.08 15.86-.72 12-.37 24-.28 36 0 4 1.08 7.92 1.14 11.93a43 43 0 0 0 1.57 10.94c1.91 10 4.22 20.12 8.46 29.48 5.5 13.26 14.07 25.69 26.26 33.59 10.12 7.52 22.62 10.72 34.88 12.62 16.38 2.13 33 .18 49.12-2.75 8.45-1.53 16.83-3.44 25.14-5.66 5.29-1.48 10.71-2.46 15.92-4.23a39.6 39.6 0 0 1 6.06-.57c-6.52 5.81-13.09 11.61-20.49 16.3-25.16 16.23-54.43 24.68-83.62 30.14-13.21 2.7-26.63 4.3-39.92 6.59-15.14 2.19-30.82 4-44.47 11.41-4.09 2.87-7.23 6.75-10.08 10.79-.86 1.74-2.46 0-3.42-.64-3.12-3.55-7.1-6.17-10.46-9.45C69 391 65.45 387.54 62 383.9c-5.55-6.45-11.24-12.81-16.13-19.77-9.75-13.2-18.38-27.36-24.71-42.52l-1.1-.49c-.79-4.35-3-8.21-4.48-12.34A201.6 201.6 0 0 1 7.2 281a72 72 0 0 1-1.95-8.81 43.2 43.2 0 0 1-1.84-10.29c-1.86-8.19-1.5-16.63-2.69-24.9 0-6.9-.46-13.85.36-20.72.93-5.71.55-11.56 1.73-17.26 1.16-4.61.93-9.46 2.39-14a186 186 0 0 1 6-23.94c.63-2 1.27-4 2-6 1.37-3.57 2.61-7.19 3.89-10.8a36.5 36.5 0 0 0 1.9-5.08L20 138a56.5 56.5 0 0 1 4.7-10.29c1.68-3.42 3.41-6.82 5.34-10.11.22-.38.65-1.14.86-1.53.64-1.36 1.36-2.68 2.13-4 12-18.8 26-36.61 42.88-51.3a239.7 239.7 0 0 1 71-43.78 228.3 228.3 0 0 1 44.84-12.51" style="fill:#ffd900" transform="translate(-.61 -.51)"/><path d="M366 64.06c4.17-2.43 7.06-6.38 9.95-10.13a228.55 228.55 0 0 1 24.77 322.77c-35 41.08-85.22 69-138.76 76.41-24.61 3.62-49.71 2.66-74.29-.71a214.4 214.4 0 0 1-54.78-15.34c-9.52-4.19-19-9.09-26.44-16.52-1.92-1.67-3.13-4.45-1.87-6.88 1.92-2.94 5.35-4.41 8.56-5.46 9.25-2.68 18.76-4.22 28.26-5.69 17.17-3 34.52-4.91 51.55-8.67 28.32-6.11 56.64-14.78 81.14-30.67 16.62-10.6 31.3-24.44 42.09-41 15.5-23.38 22.66-51.39 24.37-79.16.86-20.66.39-41.51-3.94-61.8-3.95-17.52-10.86-35.17-23.94-47.93-10-10.26-23.6-16.65-37.66-19.09-23.32-4.35-47.14-.14-70 5-10.7 2.53-21.25 5.72-32.06 7.79 15.38-14.48 34.22-24.84 54-31.92 11.36-4.21 23.17-7 34.93-9.76 25.74-5.79 52.08-8 78.05-12.46 9.07-1.9 18.28-3.74 26.07-8.78" style="fill:#36b0f3" transform="translate(-.61 -.51)"/></svg>