<svg xmlns="http://www.w3.org/2000/svg" xml:space="preserve" id="chain_svg-Layer_1" x="0" y="0" version="1.1" viewBox="-39 461 1920 1080"><style>.chain_svg-st2{fill:#878787}.chain_svg-st3{fill:#00aced}</style><path id="chain_svg-Path" d="M599.7 712.3v132.5l321.8 185.8 208.8-120.7v107.9l112.1 65.6V712.3L920.2 898.1z" style="fill:#00adee"/><path id="chain_svg-Path-2" d="M921 526 599.7 711.8v371.6L921 1269.2l320.5-185.8-113.6-66.2-206.7 119.6-207.8-119.6V778l207.8-119.6L1128 778l113.6-65.7v-.5z" style="fill:#888"/><path id="chain_svg-Path-3" d="M337.5 1469.8c30.9 0 48.8-13.2 62.1-31.2l-29.3-21.2c-8.4 10.5-17.1 17.4-31.7 17.4-19.7 0-33.5-16.8-33.5-38.4v-.4c0-20.9 13.9-38.1 33.5-38.1 13.5 0 22.7 6.8 30.7 16.8l29.3-23c-12.5-16.9-30.9-28.8-59.7-28.8-42.6 0-73.9 31.8-73.9 73.5v.4c0 42.7 32.3 72.9 72.5 73" class="chain_svg-st2"/><path id="chain_svg-Path-4" d="M414 1466.6h38.2v-58.5c0-12 7-18.4 16.4-18.4s15.8 6.4 15.8 18.4v58.5h38.2v-70.7c0-24.4-13.9-39.5-37.2-39.5-15.7 0-26 8.1-33.1 17v-52.6H414z" class="chain_svg-st2"/><path id="chain_svg-Composite_Path" d="M572.5 1468c12.2.3 23.9-4.6 32.2-13.5v12.1h36.6v-62c0-16.1-3.3-27.4-11.4-35.2-8.4-8.4-21.3-12.9-40.8-12.9-15.1-.3-30.1 2.5-44 8.2l7.8 26.5c9.8-3.9 18.7-6.5 30.2-6.5 14.7 0 21.8 6.9 21.8 19v1.8c-8.4-2.8-17.3-4.2-26.2-4.2-25.5 0-42.6 11.3-42.6 33.7v.4c.1 20.9 15.7 32.6 36.4 32.6m13.7-22.8c-7.9 0-13.5-4.4-13.5-11.7v-.4c0-8.2 6.4-13.3 17.5-13.3 5.2 0 10.3.9 15.1 2.8v5c.1 10.7-7.8 17.6-19.1 17.6" class="chain_svg-st2"/><path id="chain_svg-Composite_Path-2" d="M662.6 1347.7h39.8v-28.1h-39.8zm.8 118.9h38.2V1358h-38.2z" class="chain_svg-st2"/><path id="chain_svg-Path-5" d="M722 1466.6h38.2v-58.9c0-12.1 7-18.5 16.4-18.5s15.8 6.4 15.8 18.5v58.9h38.2v-71.1c0-24-13.9-39.1-37.2-39.1-15.7 0-26 8.6-33.1 17.5v-16H722z" class="chain_svg-st2"/><path id="chain_svg-Path-6" d="M849.2 1466.6h38.2v-59.1c0-11.9 6.4-18.3 15.4-18.3s15 6.4 15 18.3v59.1H956v-59.1c0-11.9 6.6-18.3 15.6-18.3s14.8 6.4 14.8 18.3v59.1h38.2v-71.3c0-24.5-14.1-38.8-37.2-38.8-15.8 0-26.9 6.7-36.3 17.4-5.9-11.1-17-17.4-31.5-17.4-15.2 0-25.3 8.1-32.3 17v-15.6h-38.2v108.7z" class="chain_svg-st3"/><path id="chain_svg-Composite_Path-3" d="M1076.4 1468c12.2.3 23.9-4.6 32.2-13.5v12.1h36.6v-62c0-16.1-3.3-27.4-11.4-35.2-8.4-8.4-21.3-12.9-40.8-12.9-15.1-.3-30.1 2.5-44 8.2l7.8 26.5c9.8-3.9 18.7-6.5 30.2-6.5 14.7 0 21.8 6.9 21.8 19v1.8c-8.4-2.8-17.3-4.2-26.2-4.2-25.5 0-42.6 11.3-42.6 33.7v.4c0 20.9 15.7 32.6 36.4 32.6m13.7-22.8c-7.9 0-13.5-4.4-13.5-11.7v-.4c0-8.2 6.4-13.3 17.5-13.3 5.2 0 10.3.9 15.1 2.8v5c0 10.7-7.8 17.6-19.1 17.6" class="chain_svg-st3"/><path id="chain_svg-Path-7" d="M1165.6 1466.6h38.2v-25.7l9.8-11.4 21.7 37.1h42.2l-38.8-65.2 37.8-43.4h-43.2l-29.5 36.3V1320h-38.2z" class="chain_svg-st3"/><path id="chain_svg-Composite_Path-4" d="M1335.4 1469.9c21.3 0 36.3-8.8 46.6-21.9l-20.9-17.9c-7.8 7.9-14.7 11.5-23.9 11.5-11.8 0-20.3-6.3-23.3-18.6h72.1c.2-2.4.2-5.1.2-7.3 0-32-17-59.5-54-59.5-32.1 0-54.8 25.1-54.8 57.1v.4c.3 33.5 24.2 56.2 58 56.2m-22.1-65c2-12.6 8.9-20.5 18.9-20.5 10.4 0 17.7 8 19.1 20.5z" class="chain_svg-st3"/><path id="chain_svg-Path-8" d="M1403.3 1466.6h38.2v-33.9c0-26.1 11.2-37.8 31.1-37.8h3.2v-38.3c-18.1-.8-28.1 8.4-34.3 22.6V1358h-38.2z" class="chain_svg-st3"/><path id="chain_svg-Path-9" d="M1532.1 1468.3c26.8 0 44.8-12.4 44.8-36v-.4c0-20.7-17.2-28-38.9-33.9-11.4-3.3-18-5.3-18-9.5v-.4c0-3.2 3.1-5.3 9-5.3 8.8 0 21.2 3.7 32.5 10.1l13.2-23.9c-13.6-8.3-29.3-12.7-45.3-12.7-25.4 0-44 12.9-44 35.8v.4c0 21.3 17.2 28.4 38.9 33.9 11.7 3.2 18 4.9 18 9.3v.4c0 3.7-3.3 5.7-10 5.7-11.4 0-25-4.1-37.6-12.2l-14.3 22.6c15.1 10.6 33.2 16.3 51.7 16.1" class="chain_svg-st3"/></svg>