<svg xmlns="http://www.w3.org/2000/svg" data-name="Слой 1" viewBox="0 0 55.65 67.16"><g data-name="Layer 2"><path d="M24.28 0A33.4 33.4 0 0 0 3 6.72a5 5 0 0 0-.31 7.74 4.91 4.91 0 0 0 6.39.31 23.76 23.76 0 0 1 32 2.58 4.58 4.58 0 0 1 .12 6.24 4.5 4.5 0 0 1-6.36.22l-.22-.22a14.84 14.84 0 1 0-1 21q.5-.46 1-1a4.41 4.41 0 0 1 5.27-1 4.47 4.47 0 0 1 1.31 7 23.84 23.84 0 0 1-32.13 2.82 5 5 0 0 0-6.43.31 5.06 5.06 0 0 0 .42 7.81A33.58 33.58 0 1 0 24.28 0m-.62 41.9A8.31 8.31 0 1 1 32 33.58a8.31 8.31 0 0 1-8.34 8.32" data-name="Layer 1-2" style="fill:url(#cmm_svg-Безымянный_градиент)" transform="translate(-1 .02)"/></g></svg>