<svg xmlns="http://www.w3.org/2000/svg" data-name="Layer 1" viewBox="0 0 54.05 52.74"><path d="m54.85 20.11-4.27-4.27a6.86 6.86 0 0 0-4.89-2H45v-.69a7.12 7.12 0 0 0-2.07-5l-4.22-4.26a6.87 6.87 0 0 0-4.89-2h-19.7a6.87 6.87 0 0 0-4.89 2L5 8.15A6.88 6.88 0 0 0 3 13l-.18 18.45a7 7 0 0 0 2 4.94l4.27 4.27a6.87 6.87 0 0 0 4.89 2h.78v.68a7.12 7.12 0 0 0 2.06 5l4.26 4.26a6.87 6.87 0 0 0 4.89 2h19.72a6.87 6.87 0 0 0 4.89-2l4.27-4.27a6.86 6.86 0 0 0 2-4.89V25a6.87 6.87 0 0 0-2-4.89M14 36.49a.7.7 0 0 1-.49-.2l-2.13-2.13L9.26 32l-.09-.11a.7.7 0 0 1-.1-.25.7.7 0 0 1 0-.14V13.08a.7.7 0 0 1 .2-.49l4.27-4.27a.72.72 0 0 1 .49-.2h19.7a.7.7 0 0 1 .31.07.7.7 0 0 1 .19.13l4.27 4.27a.7.7 0 0 1 .14.2v.08a1 1 0 0 1 0 .1.7.7 0 0 1 0 .18v.9a.7.7 0 0 1-.7.7h-3.33a.7.7 0 0 1-.49-.2l-1.93-1.93H15.54l-.71.71-1 1v16L15.54 32h16.65l1.93-2a.7.7 0 0 1 .16-.1.7.7 0 0 1 .3-.07H38a.7.7 0 0 1 .56.29.7.7 0 0 1 .13.41v1a.7.7 0 0 1-.2.49l-2.13 2.13-2.13 2.13-.12.1H14Zm36.64 6.95a.7.7 0 0 1-.2.49l-4.27 4.27a.72.72 0 0 1-.49.2H26a.7.7 0 0 1-.31-.07.7.7 0 0 1-.19-.13l-4.27-4.27a.7.7 0 0 1-.14-.2v-.08a1 1 0 0 1 0-.1.7.7 0 0 1 0-.18v-.9a.7.7 0 0 1 .7-.7h3.31a.7.7 0 0 1 .49.2l1.93 1.93h16.65l.71-.71 1-1v-16l-1.71-1.69H27.52l-1.93 2a.7.7 0 0 1-.16.1.7.7 0 0 1-.3.07h-3.44a.7.7 0 0 1-.56-.29A.7.7 0 0 1 21 26v-1a.7.7 0 0 1 .2-.49l2.13-2.13 2.13-2.13.12-.1H45.7a.7.7 0 0 1 .49.2l2.13 2.13 2.13 2.13.09.11a.7.7 0 0 1 .1.25.7.7 0 0 1 0 .14Z" style="fill:url(#colx_svg-Безымянный_градиент)" transform="translate(-2.82 -1.87)"/></svg>