<svg xmlns="http://www.w3.org/2000/svg" width="125" height="137" viewBox="0 0 125 137"><g fill="none" fill-rule="evenodd"><path fill="#070A0E" fill-rule="nonzero" d="M53 103c27.615 0 50-22.385 50-50S80.615 3 53 3 3 25.385 3 53s22.385 50 50 50"/><path fill="#00D395" d="M31.885 69.765a5.03 5.03 0 0 1-2.41-4.29v-9.77c0-1.16.945-2.1 2.105-2.095.37 0 .735.1 1.055.285L54.68 66.75a4.19 4.19 0 0 1 2.085 3.625v10.12a2.51 2.51 0 0 1-2.51 2.52c-.465 0-.925-.13-1.32-.37zm32.86-18.545a4.21 4.21 0 0 1 2.085 3.625v20.54a1.67 1.67 0 0 1-.855 1.46L61.15 79.56a.8.8 0 0 1-.195.08V68.235a4.2 4.2 0 0 0-2.045-3.605L39.55 53.05V40.175c0-1.16.945-2.1 2.105-2.095.37 0 .735.1 1.055.285zm9.65-15.17a4.2 4.2 0 0 1 2.09 3.63v30a1.7 1.7 0 0 1-.885 1.475l-4.575 2.47V52.74c0-1.475-.775-2.84-2.035-3.6L49.2 37.27V25.06c0-.37.1-.735.28-1.055.585-1 1.87-1.34 2.87-.76z"/></g></svg>