<svg xmlns="http://www.w3.org/2000/svg" data-name="Слой 1" viewBox="0 0 300 257.93"><path d="M148.6 5.43c-2-4.5 5.2-7.7 7.2-3.4q70.2 120.9 140.4 242c-2.5 0-4.9-.8-7.3-1.2L164 217.93c-4.1-.2-5-6.8-1-7.8l49-13.5a4.08 4.08 0 0 0 2.7-5.7L148.6 5.33Z"/><path d="M141.4 5.83a14.3 14.3 0 0 1 1.2 2.1c14.8 42 30 84 44.7 126 1.3 3.5-3.6 6.4-6 3.8-12.6-13.2-24.6-26.8-37-40-2-1.8-4.9-.6-6.2 1.3L9.3 250.33c-1.5 1.6-2.8 4-5.3 4.3-1.8 0-3-1.4-4-2.8v-2.3q70.8-121.8 141.4-243.7"/><path d="M102 149.93c2.4-.7 5.6 1 4.8 3.9-5 17.4-10.3 34.7-15.5 52-.8 2.2 1.2 4.2 3.3 4.3 67.4 13.5 134.8 27.5 202.2 41 1.3.2 2.2 1.2 3.2 2v2.8l-1.9 2H12c30-36 59.9-72.2 90-108"/></svg>