<svg xmlns="http://www.w3.org/2000/svg" id="dash_svg-Layer_1" data-name="Layer 1" viewBox="0 0 454.31 368.77"><defs><style>.dash_svg-cls-1{fill:#008de4}</style></defs><path d="M297.58 0H132.15l-13.71 76.63 149.28.18c73.52 0 95.26 26.69 94.64 71-.32 22.7-10.16 61.07-14.41 73.51-11.33 33.16-34.6 71-121.86 70.85l-145.11-.06-13.74 76.66H232.3c58.22 0 83-6.77 109.2-18.89 58.13-26.84 92.72-84.21 106.57-159.08C468.71 79.31 443.01 0 297.58 0" class="dash_svg-cls-1"/><path d="M60.77 145.89c-43.33 0-49.54 28.24-53.64 45.3C1.76 213.54 0 222.59 0 222.59h169.38c43.33 0 49.54-28.24 53.64-45.3 5.37-22.35 7.13-31.4 7.13-31.4Z" class="dash_svg-cls-1"/></svg>