<svg xmlns="http://www.w3.org/2000/svg" width="58" height="73" viewBox="0 0 58 73"><path d="M27.535.506C12.5.506.214 12.72.214 27.826c0 3.036.506 6 1.445 8.89.65 1.952 2.82 3.036 4.843 2.386 1.951-.65 3.036-2.819 2.385-4.843a19.3 19.3 0 0 1-1.084-7.01c.29-10.192 8.529-18.576 18.72-19.082 11.347-.578 20.743 8.457 20.743 19.66 0 10.48-8.24 19.08-18.575 19.66 0 0-3.83.216-5.71.505-.94.145-1.662.29-2.168.361-.217.073-.434-.144-.362-.36l.651-3.181 3.542-16.335c.433-2.024-.868-4.047-2.892-4.481s-4.047.867-4.48 2.891c0 0-8.53 39.753-8.602 40.186-.433 2.024.868 4.048 2.891 4.481 2.024.434 4.048-.867 4.482-2.89.072-.434 1.228-5.71 1.228-5.71.868-4.048 4.192-7.011 8.095-7.517.868-.145 4.265-.362 4.265-.362 14.094-1.084 25.224-12.865 25.224-27.248C54.855 12.72 42.568.506 27.535.506m1.951 62.881c-2.457-.506-4.915 1.012-5.42 3.542-.507 2.457 1.011 4.915 3.54 5.42 2.458.506 4.916-1.011 5.422-3.541s-1.012-4.915-3.542-5.42"/></svg>