<svg xmlns="http://www.w3.org/2000/svg" xmlns:xlink="http://www.w3.org/1999/xlink" data-name="Слой 1" viewBox="0 0 265.14 433.55"><defs><linearGradient id="drop_svg-a" x1="196.05" x2="380.35" y1="480.63" y2="55.11" gradientUnits="userSpaceOnUse"><stop offset="0" stop-color="#6ac4eb"/><stop offset=".04" stop-color="#62c0ea"/><stop offset=".22" stop-color="#46b3e6"/><stop offset=".32" stop-color="#3baee4"/><stop offset=".32" stop-color="#3bade3"/><stop offset=".44" stop-color="#4a8ecc"/><stop offset=".56" stop-color="#5676ba"/><stop offset=".69" stop-color="#5e65ad"/><stop offset=".83" stop-color="#635ba5"/><stop offset="1" stop-color="#6558a3"/></linearGradient><linearGradient xlink:href="#drop_svg-a" id="drop_svg-b" x1="151.45" x2="335.75" y1="461.32" y2="35.79"/><linearGradient xlink:href="#drop_svg-a" id="drop_svg-c" x1="94.45" x2="278.75" y1="436.63" y2="11.11"/><linearGradient xlink:href="#drop_svg-a" id="drop_svg-d" x1="31.93" x2="216.23" y1="409.55" y2="-15.97"/><linearGradient xlink:href="#drop_svg-a" id="drop_svg-e" x1="57.51" x2="241.81" y1="420.63" y2="-4.89"/><linearGradient xlink:href="#drop_svg-a" id="drop_svg-f" x1="79.62" x2="263.92" y1="430.2" y2="4.68"/><linearGradient xlink:href="#drop_svg-a" id="drop_svg-g" x1="1190.47" x2="1374.78" y1="430.2" y2="4.68" gradientTransform="matrix(-1 0 0 1 1464.71 0)"/></defs><path d="M304.65 271.23c-9.47-41.75-39-87.92-39-87.92 34 92.79 20.93 162.79 11.89 202.52 0 0-11.89 44.4 13.68 7.41 32.02-46.29 13.43-122.01 13.43-122.01" style="fill:url(#drop_svg-a)" transform="translate(-44.88 -22.22)"/><path d="M220.67 106.64c17.65 63 25.68 116.51 28.23 161.07 4.36 76-7.23 126-14.35 152.44-2.31 8.59 7.34 15 12.94 8.55l.08-.09c14-16 20.61-53.51 23.68-86.4.34-3.6.62-7.21.88-10.82 2.88-39.57 1.23-79.62-8.05-117.91-17.15-70.74-43.41-106.84-43.41-106.84" style="fill:url(#drop_svg-b)" transform="translate(-44.88 -22.22)"/><path d="M189 217.6c-4.28-103.46-12.1-195.38-12.1-195.38s-7.91 87.3-12.24 188.55c-.7 16.37-1.31 33.1-1.77 49.88-.68 24.41-1 48.94-1 72.63.13 42.14 1.68 81.65 5.5 113.13 1.51 12.47 17.69 12.49 19.21 0 2.63-21.52 4.08-47.9 4.69-76.86.62-29.46.37-61.61-.42-94.07-.44-19.33-1.1-38.8-1.87-57.88" style="fill:url(#drop_svg-c)" transform="translate(-44.88 -22.22)"/><path d="M68.11 342.28a313.3 313.3 0 0 1-1.58-58.76 338.6 338.6 0 0 1 7-49.45 383 383 0 0 1 14.82-50.76s-20.75 32.48-33 67.59a188 188 0 0 0-5.94 20.33 236 236 0 0 0-4.45 41.11c-.39 16.35.86 35.57 6.12 53.84a107.4 107.4 0 0 0 11.74 27.06s25.56 38.09 13.68-7.41a328 328 0 0 1-8.39-43.55" style="fill:url(#drop_svg-d)" transform="translate(-44.88 -22.22)"/><path d="M104.63 321.89a557 557 0 0 1 1-61.79q.75-10.68 1.94-22t2.87-23.35a823 823 0 0 1 22.94-108.08S107.13 142.74 90 213.49c-.91 3.76-1.73 7.55-2.49 11.35a344 344 0 0 0-6.06 46.77 443 443 0 0 0 .49 59.71c.26 3.64.55 7.28.89 10.9 3.07 32.89 9.64 70.44 23.68 86.4l.08.09c5.6 6.44 15.26 0 12.94-8.55-5.29-19.57-13-51.98-14.9-98.27" style="fill:url(#drop_svg-e)" transform="translate(-44.88 -22.22)"/><path d="M148.32 325.8c-.5-20.61-.69-43.56-.33-68.8.21-15.1.63-31 1.27-47.7 1.65-43.05 9.81-105.35 15.41-158.2 0 0-27.59 57.13-40.16 160.08-1.72 14.09-3.26 29.27-4.52 45.65-.31 4-.6 8-.87 12.16 0 0-1.53 21.78-.94 51.19.77 37.8 5 88.21 20.63 121.19a8.8 8.8 0 0 0 1.87 2.62l.1.1c5.94 5.63 15 .28 14.16-8.37-1.86-18.84-5.32-56.35-6.62-109.92" style="fill:url(#drop_svg-f)" transform="translate(-44.88 -22.22)"/><path d="M205.53 325.8c.5-20.61.69-43.56.33-68.8-.21-15.1-.63-31-1.27-47.7-1.65-43.05-9.81-105.35-15.41-158.2 0 0 27.59 57.13 40.16 160.08 1.72 14.09 3.26 29.27 4.52 45.65.31 4 .6 8 .87 12.16 0 0 1.53 21.78.94 51.19-.77 37.8-5 88.21-20.63 121.19a8.8 8.8 0 0 1-1.87 2.62l-.1.1c-5.94 5.63-15 .28-14.16-8.37 1.86-18.84 5.32-56.35 6.62-109.92" style="fill:url(#drop_svg-g)" transform="translate(-44.88 -22.22)"/></svg>