<svg xmlns="http://www.w3.org/2000/svg" id="dth_svg-Слой_1" data-name="Слой 1" viewBox="0 0 110.95 135.07"><defs><style>.dth_svg-cls-1{fill:#3c80f1}</style></defs><g id="dth_svg-Page-1"><g id="dth_svg-seller"><g id="dth_svg-menu"><g id="dth_svg-logo"><g id="dth_svg-symbole"><path id="dth_svg-Fill-13" d="M62.5 6.47A55.54 55.54 0 0 0 7 61.94a44.5 44.5 0 0 0 1 8.89.86.86 0 0 0 1.35.51 12 12 0 0 1 1.17-.75 12.5 12.5 0 0 1 6.1-1.59.85.85 0 0 0 .86-1 34 34 0 0 1-.57-6 45.58 45.58 0 1 1 91.17 0c0 25.14-32.17 57.26-43.68 68.6a2.71 2.71 0 0 1-3.8 0c-3.39-3.34-8.56-8.47-14.18-14.7h-.23a48.3 48.3 0 0 1-12.85-3.08l-.76-.31a.85.85 0 0 0-1 1.33 322 322 0 0 0 22.66 24.4 11.81 11.81 0 0 0 16.49 0C91 118.21 118 88.59 118 61.94A55.54 55.54 0 0 0 62.5 6.47" class="dth_svg-cls-1" transform="translate(-7.03 -6.47)"/><path id="dth_svg-Fill-16" d="M85.57 67.55c0 .78-.06 1.55-.13 2.31a26.9 26.9 0 0 1-2 8.48 29 29 0 0 1-4.78 7.37l.06.05a39.3 39.3 0 0 1-14 10 34.8 34.8 0 0 1-16.82 2.7 31.1 31.1 0 0 1-15.16-5.75 18.2 18.2 0 0 0 4.26-.65 14.6 14.6 0 0 0 3.57-1.53 12.8 12.8 0 0 0 3.18-2.69 13 13 0 0 0 2.15-3.56 15.5 15.5 0 0 0 1-3.71 24 24 0 0 0 .1-3.22V41a1 1 0 0 1 0-.1v-.19a2 2 0 0 1 .09-.36 2.1 2.1 0 0 1 1-1.13 1.9 1.9 0 0 1 .71-.22h12a23.2 23.2 0 0 1 8.2 2.2 29.87 29.87 0 0 1 12.9 11.72 29 29 0 0 1 1.93 3.92A27 27 0 0 1 85.06 61a24 24 0 0 1 .51 4.28v1.1Zm9.88-2.61a33.7 33.7 0 0 0-.72-6A36.5 36.5 0 0 0 93 53.22a39 39 0 0 0-2.62-5.35 39.7 39.7 0 0 0-17.23-15.64 33.1 33.1 0 0 0-11.67-3.1c-.51 0-1 0-1.56-.06H48.73c-.36 0-.73 0-1.09.08a11.9 11.9 0 0 0-4.19 1.31A12 12 0 0 0 37.81 37a12 12 0 0 0-.55 2.13c-.06.36-.1.73-.13 1.09v37.13a14 14 0 0 1-.13 1.94 5.6 5.6 0 0 1-.32 1.28 3.2 3.2 0 0 1-.51.85 3.8 3.8 0 0 1-1.92 1.11 9.8 9.8 0 0 1-3.38.26A17 17 0 0 1 27 82a18.8 18.8 0 0 1-7-4.07 4.95 4.95 0 0 0-7.71 6 51.9 51.9 0 0 0 14.08 16.37 41.8 41.8 0 0 0 9.72 5.4 41 41 0 0 0 10.85 2.6 44.7 44.7 0 0 0 21.63-3.38 46.15 46.15 0 0 0 17.57-12.81l.06.05a38.8 38.8 0 0 0 6.38-9.93 36.8 36.8 0 0 0 2.72-11.56c.08-1 .13-1.9.16-2.85v-1.41c.04-.41.01-.98 0-1.47Z" class="dth_svg-cls-1" transform="translate(-7.03 -6.47)"/></g></g></g></g></g></svg>