<svg xmlns="http://www.w3.org/2000/svg" width="400" height="400" version="1.0" viewBox="0 0 300 300"><path d="M134 .6c-1.4.2-6.8 1.2-12 2C93 7.5 66.2 21.7 44 44 21.7 66.2 8.1 91.9 2.4 122.5c-2.6 13.9-2.6 41.1 0 55C8.1 208.1 21.7 233.8 44 256c22.2 22.3 47.9 35.9 78.5 41.6 13.9 2.6 41.1 2.6 55 0 30.6-5.7 56.3-19.3 78.5-41.6 22.3-22.2 35.9-47.9 41.6-78.5 2.6-13.9 2.6-41.1 0-55-5.7-30.6-19.3-56.3-41.6-78.5-21.7-21.8-46.2-35.1-75.9-41.1C170.9 1 140.3-.5 134 .6m53.4 53c1.2.5 1.6 2 1.6 6V65h-6.3c-8 0-14.3 3-16.9 8-1.7 3.2-1.8 7.1-1.8 54.5 0 28-.4 51.5-.8 52.2-2.1 3.2-17.5 4.1-24.4 1.4L136 180v-51.7c0-48.2-.1-52.1-1.8-55.3-2.6-5-8.9-8-16.9-8H111v-5.4c0-3.4.5-5.6 1.3-5.9 1.8-.8 73.2-.8 75.1-.1M130 95.3v12.3l-2.9 1.7c-4.3 2.5-11.5 10-14.4 14.9-1.4 2.4-3.3 6.9-4.2 10.1l-1.6 5.7H95.4c-13.1 0-12.7.5-9.9-10.5 3.5-13.3 12-26.8 22.3-35 5.7-4.6 18.3-11.5 20.8-11.5 1.1 0 1.4 2.6 1.4 12.3m49.6-8.8c17.4 8.8 30.1 24.4 34.9 43 2.8 11 3.2 10.5-9.9 10.5h-11.5l-1.6-5.7c-.9-3.2-2.8-7.7-4.2-10.1-2.9-4.9-10.1-12.4-14.4-14.9l-2.9-1.7V95.3c0-9.7.3-12.3 1.4-12.3.7 0 4.4 1.6 8.2 3.5M107 149.4c0 4.7 3.1 14.3 6.3 19.3 17.1 27.1 56.3 27.1 73.4 0 3.2-5 6.3-14.6 6.3-19.3V146h23.9l-.5 5.2c-2.5 24.3-15.9 43.9-36.9 54.3-9.7 4.8-18.2 6.8-29.5 6.8-35 0-62.7-25.5-66.4-61.1l-.5-5.2H107zm57.5 72.3c1.3 7 8.5 11.3 19.3 11.3h5.2v11h-78v-10.7l7.3-.5c4.7-.3 8.5-1.2 10.6-2.4 3.1-1.8 7.1-7.8 7.1-10.6 0-1 3.2-1.3 13.9-1.3h14z"/></svg>