<svg xmlns="http://www.w3.org/2000/svg" xml:space="preserve" viewBox="0 0 42 48"><path d="M19.2 41.9c-2.3-1.4-5.1-3.1-7.4-4.5-1-.6-2.1-1.2-3.1-1.9-.4-.3-.4-.6-.4-.8 1-4.7 2.1-9.8 3.2-14.4l-.7-2.2S8.4 29.6 7.2 34.7c-.2.7 0 1.1.7 1.5 3.9 2.3 11.8 7.3 11.8 7.3zm1.9 0c2.3-1.4 5.1-3.1 7.4-4.5 1-.6 2.1-1.2 3.1-1.9.4-.3.4-.6.4-.8-1-4.7-2.1-9.8-3.2-14.4l.8-2.1s2.4 11.4 3.5 16.5c.2.7 0 1.1-.7 1.5-3.9 2.3-11.8 7.3-11.8 7.3zm7.6-23.6-.4-.6H12.1l-.4.6s.3.8.2.5h16.7c-.2.2.1-.5.1-.5" style="opacity:.7"/><path d="M29.2 17.4s-5.5-8-7.9-11.5c-.5-.6-.8-.9-1.1-.9s-.7.3-1.1.9c-2.4 3.4-7.9 11.5-7.9 11.5-.5.7-.5.9-.1 1.8 0 0 3.9 10.8 5.5 15.6.8 2.2 2.9 8.5 2.9 8.5.1.2.5.3.7.3s.5-.1.7-.3c0 0 2.2-6.3 2.9-8.5 1.6-4.7 5.5-15.6 5.5-15.6.4-.9.4-1.1-.1-1.8m-9 22.6c-2.4-6.8-7.6-21.8-7.6-21.8s5.4-7.9 7.5-11c2.1 3.1 7.5 11 7.5 11s-5.1 15-7.4 21.8"/></svg>