<svg xmlns="http://www.w3.org/2000/svg" width="266.667" height="266.667" version="1.0" viewBox="0 0 200 200"><path d="M81.7 8.5c-36.5 8-64 34.4-72.6 69.7-3.7 15.4-2.7 37.5 2.4 52.3 6.5 18.8 19.9 36.1 36.5 47.1 16.8 11.2 31 15.4 52 15.4 19.5 0 33.8-3.9 49.5-13.5 6.7-4 8.8-5.8 17-14 7.6-7.6 9.7-10.1 11.6-13.7.6-1.3 1.5-2.5 1.8-2.8.4-.3 2.2-3.7 4.1-7.5 7.5-15.6 9.2-23.4 9.2-41.5 0-16.3-2-26-8.3-39.9-4.7-10.3-17.5-26.4-26.4-33.2-5.9-4.4-11.8-8-19-11.4-8.1-3.9-10-4.5-21.5-7-7.9-1.8-28.1-1.8-36.3 0M72 49c7.7 7.8 9.6 8.9 11.5 7.2.6-.5 4.3-1.5 8.3-2.2 6-1.1 8.9-1.1 15-.1 4.3.6 8.9 1.7 10.4 2.2 2.5 1 3.2.6 10.8-7.1l8.1-8.2 6.6 6.5 6.6 6.5-8.2 8.1c-5.3 5.3-7.9 8.6-7.4 9.4.4.6 1 3.3 1.3 5.9l.6 4.8h-3.1c-1.8 0-5.9.3-9.2.6l-6.1.7-1.2-3.8c-1.8-5.4-4.5-8.1-9.6-9.5-8.7-2.5-20.8.7-22.1 5.8-.9 3.9.9 7.5 4.7 9.4 7 3.3 7.2 3.3 24.6 7.7 9.4 2.4 21.4 10.7 21.4 14.8 0 .7.4 1.3.8 1.3s1.4 2.7 2.1 6.1c1.2 5 1.2 7 .1 11.5-.8 3-1.7 5.7-2.2 6-2 1.2-.3 3.9 6.2 10.4l7.1 7-6.6 6.5-6.5 6.6-7.9-8c-4.3-4.4-8.1-7.7-8.4-7.4-1.2 1.1-13.4 3.2-18.7 3.2-5.8 0-16.4-1.9-17.6-3.2-1.7-1.7-3.9-.3-11.4 7.3l-8 8.1-6.5-6.6-6.6-6.5 8-7.9 8-7.9-1.8-3.9c-1-2.1-2.1-5.7-2.4-7.9l-.5-4.2 4.6-.6c8.4-1.1 14.2-.8 14.2.9 0 1.8 3.7 9.3 5.4 11 6.5 6.6 22.6 6.5 29.2-.2 2.8-2.8 3.4-4.1 3.4-7.7 0-3.2-.6-4.7-2.2-6.2-3.2-2.7-6.5-4.4-8.5-4.4-.9 0-3-.4-4.7-1-1.7-.5-7.6-2.3-13.1-4s-11.8-4.4-14-5.8c-8.3-5.8-12.9-17-10.5-25.7l1.3-4.7-8-8-8.1-8.1 6.2-6.3c3.3-3.4 6.2-6.3 6.4-6.3.2-.1 3.8 3.5 8.2 7.9"/></svg>