<svg xmlns="http://www.w3.org/2000/svg" width="1143.493" height="2285.796" viewBox="0 0 302.549 604.784"><path d="M-534.225 21.806h301.921v301.921h-301.921z" style="opacity:1;fill:#fff;fill-opacity:1;stroke:#008dde;stroke-width:.62769485;stroke-miterlimit:4;stroke-dasharray:none;stroke-opacity:1" transform="translate(534.54 -21.492)"/><path d="M-534.539 323.727h302.549v302.549h-302.549z" style="opacity:1;fill:#008dde;fill-opacity:1;stroke:none;stroke-width:.229;stroke-miterlimit:4;stroke-dasharray:none;stroke-opacity:1" transform="translate(534.54 -21.492)"/><path d="M909.732-1.207c-2.446-.012-4.89.022-7.322.255-3.839.432-6.673 3.92-6.793 7.699-.192 8.562-.033 17.135-.084 25.702.118 4.372-.294 8.784.34 13.118.623 3.863 4.399 6.344 8.15 6.34 11.66.08 23.321.03 34.982.039v4.828h-37.54l-4.83 14.49H934c4.372-.118 8.784.296 13.118-.338 3.863-.623 6.344-4.4 6.34-8.15.087-15.255.012-30.512.037-45.767-.137-4.1.361-8.262-.462-12.301-.885-4.12-5.297-6.143-9.198-5.896H917.07c-2.443.05-4.891-.008-7.338-.02m.291 14.51h28.982v24.15h-28.982z" style="font-style:normal;font-variant:normal;font-weight:700;font-stretch:normal;font-size:medium;line-height:1.25;font-family:Akashi;-inkscape-font-specification:&quot;Akashi Bold&quot;;letter-spacing:0;word-spacing:0;fill:#008dde;fill-opacity:1;stroke:none;stroke-width:2.47306561" transform="translate(-210.29 85.015)scale(.4255)"/><path d="M977.646 71.265V-1.188h-14.49v72.453Z" style="font-style:normal;font-variant:normal;font-weight:700;font-stretch:normal;font-size:medium;line-height:1.25;font-family:Akashi;-inkscape-font-specification:&quot;Akashi Bold&quot;;letter-spacing:0;word-spacing:0;fill:#008dde;fill-opacity:1;stroke:none;stroke-width:2.88792825" transform="translate(-210.29 85.015)scale(.4255)"/><path d="M987.307 71.21V8.426q0-9.668 9.66-9.668h38.69q9.66 0 9.66 9.668v62.786h-14.49l-.048-57.952h-28.981v57.95z" style="font-style:normal;font-variant:normal;font-weight:700;font-stretch:normal;font-size:medium;line-height:1.25;font-family:Akashi;-inkscape-font-specification:&quot;Akashi Bold&quot;;letter-spacing:0;word-spacing:0;fill:#008dde;fill-opacity:1;stroke:none;stroke-width:2.47400594" transform="translate(-210.29 85.015)scale(.4255)"/><path d="M725.402-21.231h73.736a17.74 17.74 0 0 1 17.779 17.779V73.59c0 9.85-7.93 17.78-17.78 17.78h-73.735a17.74 17.74 0 0 1-17.78-17.78V-3.452c0-9.85 7.93-17.78 17.78-17.78z" style="fill:#fff;fill-opacity:1;stroke:#fff;stroke-width:2.18453932;stroke-miterlimit:4;stroke-dasharray:none;stroke-opacity:1" transform="translate(-210.29 85.015)scale(.4255)"/><path d="M578.497 329.491c12.974 0 23.491-10.517 23.491-23.491s-10.517-23.491-23.491-23.491h-53.624v-53.075h112.195c12.974 0 23.491-10.517 23.491-23.491s-10.517-23.491-23.49-23.491H524.396c-4.596-51.934-44.108-93.966-94.856-102.416V23.491C429.541 10.517 419.024 0 406.05 0s-23.491 10.517-23.491 23.491V78.46h-53.072V-45.08c0-12.974-10.516-23.491-23.49-23.491s-23.492 10.517-23.492 23.49V78.46h-53.07V23.491C229.434 10.517 218.917 0 205.943 0s-23.491 10.517-23.491 23.491v56.544c-50.749 8.45-90.262 50.482-94.856 102.416h-132.67c-12.973 0-23.49 10.517-23.49 23.491s10.517 23.491 23.49 23.491H87.123v53.075H33.498c-12.974 0-23.491 10.517-23.491 23.491s10.517 23.491 23.491 23.491h53.624v53.074H-15.073c-12.974 0-23.491 10.517-23.491 23.491s10.517 23.491 23.49 23.491H87.599c4.594 51.932 44.108 93.965 94.856 102.413v36.549c0 12.974 10.517 23.491 23.491 23.491s23.491-10.517 23.491-23.491v-34.974h53.07v106.403c0 12.974 10.518 23.49 23.492 23.49s23.491-10.516 23.491-23.49V533.534h53.072v54.974c0 12.974 10.517 23.491 23.491 23.491s23.491-10.517 23.491-23.491v-56.545c50.749-8.448 90.261-50.48 94.856-102.413h155.529c12.974 0 23.49-10.517 23.49-23.491s-10.516-23.491-23.49-23.491H524.875v-53.074h53.622zm-91.145 89.922c0 42.238-34.364 76.602-76.607 76.602H201.249c-42.241 0-76.605-34.362-76.605-76.602v-226.83c0-42.24 34.364-76.604 76.605-76.604h209.496c42.241 0 76.607 34.364 76.607 76.604z" style="fill:#008dde;fill-opacity:1" transform="translate(76.36 62.904)scale(.12115)"/><path d="M745.163-3.18c-2.587-.012-5.173.024-7.745.27-4.06.458-7.057 4.147-7.185 8.143-.203 9.057-.034 18.125-.09 27.186.126 4.624-.31 9.29.36 13.875.66 4.085 4.654 6.71 8.622 6.706 12.331.084 24.666.03 37 .04v5.108h-39.707l-5.108 15.327h39.52c4.625-.126 9.291.312 13.875-.359 4.086-.66 6.711-4.653 6.706-8.621.093-16.134.012-32.272.04-48.407-.145-4.336.382-8.739-.49-13.01-.935-4.358-5.602-6.498-9.727-6.237h-28.31c-2.584.052-5.174-.008-7.761-.02zm.308 15.348h30.653v25.545h-30.653z" style="font-style:normal;font-variant:normal;font-weight:700;font-stretch:normal;font-size:medium;line-height:1.25;font-family:Akashi;-inkscape-font-specification:&quot;Akashi Bold&quot;;letter-spacing:0;word-spacing:0;fill:#008dde;fill-opacity:1;stroke:none;stroke-width:2.61576366" transform="translate(-210.29 85.015)scale(.4255)"/><path d="M725.402-21.231h73.736a17.74 17.74 0 0 1 17.779 17.779V73.59c0 9.85-7.93 17.78-17.78 17.78h-73.735a17.74 17.74 0 0 1-17.78-17.78V-3.452c0-9.85 7.93-17.78 17.78-17.78z" style="fill:#fff;fill-opacity:1;stroke:#fff;stroke-width:2.18453932;stroke-miterlimit:4;stroke-dasharray:none;stroke-opacity:1" transform="translate(-210.29 189.69)scale(.4255)"/><path d="M578.497 329.491c12.974 0 23.491-10.517 23.491-23.491s-10.517-23.491-23.491-23.491h-53.624v-53.075h112.195c12.974 0 23.491-10.517 23.491-23.491s-10.517-23.491-23.49-23.491H524.396c-4.596-51.934-44.108-93.966-94.856-102.416V23.491C429.541 10.517 419.024 0 406.05 0s-23.491 10.517-23.491 23.491V78.46h-53.072V-45.08c0-12.974-10.516-23.491-23.49-23.491s-23.492 10.517-23.492 23.49V78.46h-53.07V23.491C229.434 10.517 218.917 0 205.943 0s-23.491 10.517-23.491 23.491v56.544c-50.749 8.45-90.262 50.482-94.856 102.416h-132.67c-12.973 0-23.49 10.517-23.49 23.491s10.517 23.491 23.49 23.491H87.123v53.075H33.498c-12.974 0-23.491 10.517-23.491 23.491s10.517 23.491 23.491 23.491h53.624v53.074H-15.073c-12.974 0-23.491 10.517-23.491 23.491s10.517 23.491 23.49 23.491H87.599c4.594 51.932 44.108 93.965 94.856 102.413v36.549c0 12.974 10.517 23.491 23.491 23.491s23.491-10.517 23.491-23.491v-34.974h53.07v106.403c0 12.974 10.518 23.49 23.492 23.49s23.491-10.516 23.491-23.49V533.534h53.072v54.974c0 12.974 10.517 23.491 23.491 23.491s23.491-10.517 23.491-23.491v-56.545c50.749-8.448 90.261-50.48 94.856-102.413h155.529c12.974 0 23.49-10.517 23.49-23.491s-10.516-23.491-23.49-23.491H524.875v-53.074h53.622zm-91.145 89.922c0 42.238-34.364 76.602-76.607 76.602H201.249c-42.241 0-76.605-34.362-76.605-76.602v-226.83c0-42.24 34.364-76.604 76.605-76.604h209.496c42.241 0 76.607 34.364 76.607 76.604z" style="fill:#008dde;fill-opacity:1" transform="translate(76.36 167.578)scale(.12115)"/><path d="M745.163-3.18c-2.587-.012-5.173.024-7.745.27-4.06.458-7.057 4.147-7.185 8.143-.203 9.057-.034 18.125-.09 27.186.126 4.624-.31 9.29.36 13.875.66 4.085 4.654 6.71 8.622 6.706 12.331.084 24.666.03 37 .04v5.108h-39.707l-5.108 15.327h39.52c4.625-.126 9.291.312 13.875-.359 4.086-.66 6.711-4.653 6.706-8.621.093-16.134.012-32.272.04-48.407-.145-4.336.382-8.739-.49-13.01-.935-4.358-5.602-6.498-9.727-6.237h-28.31c-2.584.052-5.174-.008-7.761-.02zm.308 15.348h30.653v25.545h-30.653z" style="font-style:normal;font-variant:normal;font-weight:700;font-stretch:normal;font-size:medium;line-height:1.25;font-family:Akashi;-inkscape-font-specification:&quot;Akashi Bold&quot;;letter-spacing:0;word-spacing:0;fill:#008dde;fill-opacity:1;stroke:none;stroke-width:2.61576366" transform="translate(-210.29 189.69)scale(.4255)"/><path d="M-357.735 412.596c-1.041-.005-2.081.01-3.116.11-1.633.183-2.839 1.667-2.89 3.275-.082 3.643-.014 7.291-.036 10.936.05 1.86-.125 3.738.145 5.582.265 1.644 1.871 2.7 3.468 2.698 4.96.034 9.923.012 14.884.016v2.055h-15.973l-2.055 6.166h15.899c1.86-.05 3.737.125 5.582-.145 1.643-.265 2.7-1.872 2.697-3.468.037-6.49.005-12.982.016-19.474-.058-1.744.154-3.515-.197-5.234-.376-1.752-2.253-2.613-3.913-2.508h-11.389c-1.04.02-2.081-.003-3.122-.008zm.124 6.175h12.331v10.276h-12.331z" style="font-style:normal;font-variant:normal;font-weight:700;font-stretch:normal;font-size:medium;line-height:1.25;font-family:Akashi;-inkscape-font-specification:&quot;Akashi Bold&quot;;letter-spacing:0;word-spacing:0;fill:#fff;fill-opacity:1;stroke:none;stroke-width:1.05229747" transform="translate(534.54 -25.86)"/><path d="M-328.838 443.434v-30.83h-6.165v30.83z" style="font-style:normal;font-variant:normal;font-weight:700;font-stretch:normal;font-size:medium;line-height:1.25;font-family:Akashi;-inkscape-font-specification:&quot;Akashi Bold&quot;;letter-spacing:0;word-spacing:0;fill:#fff;fill-opacity:1;stroke:none;stroke-width:1.22882283" transform="translate(534.54 -25.86)"/><path d="M-324.727 443.41v-26.715q0-4.114 4.11-4.114h16.463q4.11 0 4.11 4.114v26.716h-6.165l-.02-24.66h-12.332v24.66z" style="font-style:normal;font-variant:normal;font-weight:700;font-stretch:normal;font-size:medium;line-height:1.25;font-family:Akashi;-inkscape-font-specification:&quot;Akashi Bold&quot;;letter-spacing:0;word-spacing:0;fill:#fff;fill-opacity:1;stroke:none;stroke-width:1.05269754" transform="translate(534.54 -25.86)"/><path d="M578.497 329.491c12.974 0 23.491-10.517 23.491-23.491s-10.517-23.491-23.491-23.491h-53.624v-53.075h112.195c12.974 0 23.491-10.517 23.491-23.491s-10.517-23.491-23.49-23.491H524.396c-4.596-51.934-44.108-93.966-94.856-102.416V23.491C429.541 10.517 419.024 0 406.05 0s-23.491 10.517-23.491 23.491V78.46h-53.072V-45.08c0-12.974-10.516-23.491-23.49-23.491s-23.492 10.517-23.492 23.49V78.46h-53.07V23.491C229.434 10.517 218.917 0 205.943 0s-23.491 10.517-23.491 23.491v56.544c-50.749 8.45-90.262 50.482-94.856 102.416h-132.67c-12.973 0-23.49 10.517-23.49 23.491s10.517 23.491 23.49 23.491H87.123v53.075H33.498c-12.974 0-23.491 10.517-23.491 23.491s10.517 23.491 23.491 23.491h53.624v53.074H-15.073c-12.974 0-23.491 10.517-23.491 23.491s10.517 23.491 23.49 23.491H87.599c4.594 51.932 44.108 93.965 94.856 102.413v36.549c0 12.974 10.517 23.491 23.491 23.491s23.491-10.517 23.491-23.491v-34.974h53.07v106.403c0 12.974 10.518 23.49 23.492 23.49s23.491-10.516 23.491-23.49V533.534h53.072v54.974c0 12.974 10.517 23.491 23.491 23.491s23.491-10.517 23.491-23.491v-56.545c50.749-8.448 90.261-50.48 94.856-102.413h155.529c12.974 0 23.49-10.517 23.49-23.491s-10.516-23.491-23.49-23.491H524.875v-53.074h53.622zm-91.145 89.922c0 42.238-34.364 76.602-76.607 76.602H201.249c-42.241 0-76.605-34.362-76.605-76.602v-226.83c0-42.24 34.364-76.604 76.605-76.604h209.496c42.241 0 76.607 34.364 76.607 76.604z" style="fill:#fff;fill-opacity:1" transform="translate(76.36 365.138)scale(.12115)"/><path d="M-427.76 411.757c-1.1-.006-2.201.01-3.296.115-1.727.195-3.002 1.765-3.056 3.465-.087 3.853-.015 7.712-.039 11.568.054 1.967-.132 3.953.154 5.903.28 1.739 1.98 2.856 3.668 2.854 5.247.036 10.495.013 15.743.017v2.173h-16.895l-2.174 6.522h16.817c1.967-.053 3.953.133 5.904-.153 1.738-.28 2.855-1.98 2.853-3.668.04-6.865.005-13.732.017-20.597-.062-1.845.162-3.719-.208-5.537-.399-1.853-2.384-2.764-4.14-2.653h-12.046c-1.099.022-2.201-.004-3.302-.009m.131 6.53h13.043v10.87h-13.043z" style="font-style:normal;font-variant:normal;font-weight:700;font-stretch:normal;font-size:medium;line-height:1.25;font-family:Akashi;-inkscape-font-specification:&quot;Akashi Bold&quot;;letter-spacing:0;word-spacing:0;fill:#fff;fill-opacity:1;stroke:none;stroke-width:1.11301601" transform="translate(534.54 -25.86)"/><path d="M578.497 329.491c12.974 0 23.491-10.517 23.491-23.491s-10.517-23.491-23.491-23.491h-53.624v-53.075h112.195c12.974 0 23.491-10.517 23.491-23.491s-10.517-23.491-23.49-23.491H524.396c-4.596-51.934-44.108-93.966-94.856-102.416V23.491C429.541 10.517 419.024 0 406.05 0s-23.491 10.517-23.491 23.491V78.46h-53.072V-45.08c0-12.974-10.516-23.491-23.49-23.491s-23.492 10.517-23.492 23.49V78.46h-53.07V23.491C229.434 10.517 218.917 0 205.943 0s-23.491 10.517-23.491 23.491v56.544c-50.749 8.45-90.262 50.482-94.856 102.416h-132.67c-12.973 0-23.49 10.517-23.49 23.491s10.517 23.491 23.49 23.491H87.123v53.075H33.498c-12.974 0-23.491 10.517-23.491 23.491s10.517 23.491 23.491 23.491h53.624v53.074H-15.073c-12.974 0-23.491 10.517-23.491 23.491s10.517 23.491 23.49 23.491H87.599c4.594 51.932 44.108 93.965 94.856 102.413v36.549c0 12.974 10.517 23.491 23.491 23.491s23.491-10.517 23.491-23.491v-34.974h53.07v106.403c0 12.974 10.518 23.49 23.492 23.49s23.491-10.516 23.491-23.49V533.534h53.072v54.974c0 12.974 10.517 23.491 23.491 23.491s23.491-10.517 23.491-23.491v-56.545c50.749-8.448 90.261-50.48 94.856-102.413h155.529c12.974 0 23.49-10.517 23.49-23.491s-10.516-23.491-23.49-23.491H524.875v-53.074h53.622zm-91.145 89.922c0 42.238-34.364 76.602-76.607 76.602H201.249c-42.241 0-76.605-34.362-76.605-76.602v-226.83c0-42.24 34.364-76.604 76.605-76.604h209.496c42.241 0 76.607 34.364 76.607 76.604z" style="fill:#fff;fill-opacity:1" transform="translate(76.36 469.812)scale(.12115)"/><path d="M-427.76 516.431c-1.1-.006-2.201.01-3.295.115-1.728.195-3.003 1.765-3.057 3.465-.087 3.853-.015 7.712-.039 11.568.054 1.967-.132 3.953.154 5.903.28 1.739 1.98 2.856 3.668 2.854 5.247.036 10.495.013 15.743.017v2.173h-16.895l-2.173 6.522h16.816c1.967-.054 3.953.133 5.904-.153 1.738-.28 2.855-1.98 2.853-3.668.04-6.865.005-13.732.017-20.597-.062-1.845.162-3.719-.208-5.537-.398-1.853-2.384-2.764-4.14-2.653h-12.046c-1.099.022-2.201-.004-3.302-.009m.131 6.53h13.043v10.87h-13.043z" style="font-style:normal;font-variant:normal;font-weight:700;font-stretch:normal;font-size:medium;line-height:1.25;font-family:Akashi;-inkscape-font-specification:&quot;Akashi Bold&quot;;letter-spacing:0;word-spacing:0;fill:#fff;fill-opacity:1;stroke:none;stroke-width:1.11301601" transform="translate(534.54 -25.86)"/></svg>