<svg xmlns="http://www.w3.org/2000/svg" id="gmr_svg-Слой_1" data-name="Слой 1" viewBox="0 0 501.3 574.3"><defs><mask id="gmr_svg-mask" width="340.75" height="190.3" x="80.24" y="181" maskUnits="userSpaceOnUse"><g transform="translate(50.6 50.6)"><g id="gmr_svg-b"><path id="gmr_svg-a" d="M363.3 320.7a177.16 177.16 0 0 0-29.1-156.9l-25.3-33.4H91.1l-25.3 33.4a177.53 177.53 0 0 0-29.1 156.9 324.3 324.3 0 0 1 163.3-45c62.7 0 119.9 19.3 163.3 45" class="gmr_svg-cls-1"/></g></g></mask><mask id="gmr_svg-mask-2" width="769.6" height="648" x="-106.2" y="38.7" maskUnits="userSpaceOnUse"><g transform="translate(50.6 50.6)"><g id="gmr_svg-d"><path id="gmr_svg-c" d="M-156.8-11.9h769.6v648h-769.6Z" class="gmr_svg-cls-1"/></g></g></mask><mask id="gmr_svg-mask-3" width="326.6" height="185.6" x="87.3" y="326.3" maskUnits="userSpaceOnUse"><g transform="translate(50.6 50.6)"><g id="gmr_svg-f"><path id="gmr_svg-e" d="M200 461.3c68.6 0 127.6-59.5 153.6-114.8a182 182 0 0 0 9.7-25.8c-43.3-25.7-100.6-45-163.3-45S80.1 295 36.7 320.7a182 182 0 0 0 9.7 25.8c25.9 55.3 85 114.8 153.6 114.8" class="gmr_svg-cls-1"/></g></g></mask><mask id="gmr_svg-mask-5" width="364.5" height="354.5" x="68.36" y="169.2" maskUnits="userSpaceOnUse"><g transform="translate(50.6 50.6)"><g id="gmr_svg-j"><path id="gmr_svg-i" d="M353.6 346.5a224 224 0 0 1-28.4 45.3c-2.6 2.8-10.1 2.4-9.5-.5l.3-.8.2-.2a115.8 115.8 0 0 0 11.8-25.8 137 137 0 0 0 5.5-56.4l-.3-2.5-2.5-1.2c-2.6-1.3-5.1-2.6-7.7-3.7l-7.9-3.2a85 85 0 0 0-8.1-2.6l-8.2-2.2a220 220 0 0 0-33.3-5.3 311.6 311.6 0 0 0-50.3-.6l-8.4.6-6.6.7h-.4l-6.6-.7-8.4-.6c-5.6-.3-11.2-.6-16.8-.6a312 312 0 0 0-33.5 1.2 235.5 235.5 0 0 0-33.3 5.3l-8.2 2.2-8.1 2.6a77 77 0 0 0-7.9 3.2l-7.7 3.7-2.5 1.2-.3 2.5a135 135 0 0 0 5.5 56.4 111.5 111.5 0 0 0 11.8 25.8l.1.2.3.8c.6 2.8-6.8 3.3-9.5.5a226.7 226.7 0 0 1-28.4-45.3 177.39 177.39 0 0 1 19.4-182.7l24.2-32a3.7 3.7 0 0 1 2.9-1.4H307a3.7 3.7 0 0 1 2.9 1.4l24.2 32a177.2 177.2 0 0 1 19.5 182.7m-43.1 40.6a95.4 95.4 0 0 1-16.2 21.2 113.4 113.4 0 0 1-46.8 26.8 153 153 0 0 1-26.9 5.9c-4.6.7-9.2 1.1-13.8 1.5l-6.8.4-6.8-.4a203.3 203.3 0 0 1-40.7-7.4c-17.5-5.3-34-14.1-46.8-26.8a95.4 95.4 0 0 1-26.1-45.9 129.8 129.8 0 0 1-3.6-47.7 3.5 3.5 0 0 1 2.2-2.9l2.8-1c2.4-.9 5-1.6 7.4-2.4a65 65 0 0 1 7.6-1.9l7.7-1.6a222 222 0 0 1 31.5-2.9 309 309 0 0 1 47.8 2.7l7.9 1.1 4.1.7a3.75 3.75 0 0 0 2.7-.6 3.9 3.9 0 0 0 1.5-2.3l.7-4.5.7 4.5a3.62 3.62 0 0 0 1.5 2.3 3.33 3.33 0 0 0 2.7.6l4.1-.7 7.9-1.1a308 308 0 0 1 47.8-2.7 221 221 0 0 1 31.5 2.9c2.6.5 5.2.9 7.7 1.6l7.6 1.9c2.5.7 5 1.5 7.4 2.4l2.8 1a3.5 3.5 0 0 1 2.2 2.9 110 110 0 0 1 .5 21.4 123.1 123.1 0 0 1-13.8 51m33.2-230.4L315.9 120a3.7 3.7 0 0 0-2.9-1.4H87a3.7 3.7 0 0 0-2.9 1.4l-27.8 36.7a189.1 189.1 0 0 0-20.6 194.8C63.1 410 126.2 473.1 200 473.1S336.9 410 364.4 351.4a189.2 189.2 0 0 0-20.7-194.7" class="gmr_svg-cls-1"/></g></g></mask><mask id="gmr_svg-mask-7" width="132.51" height="144.65" x="124.69" y="349.95" maskUnits="userSpaceOnUse"><g transform="translate(50.6 50.6)"><g id="gmr_svg-n"><path id="gmr_svg-m" d="M200 302.8S123.8 290 75.1 313.7c0 0-21.3 130.3 131.5 130.3" class="gmr_svg-cls-1"/></g></g></mask><mask id="gmr_svg-mask-9" width="125.91" height="144.65" x="250.6" y="349.95" maskUnits="userSpaceOnUse"><g transform="translate(50.6 50.6)"><g id="gmr_svg-r"><path id="gmr_svg-q" d="M324.9 313.7C276.1 290 200 302.8 200 302.8V444c145.6-3.8 124.9-130.3 124.9-130.3" class="gmr_svg-cls-1"/></g></g></mask><mask id="gmr_svg-mask-11" width="72.8" height="130.4" x="124.7" y="355.7" maskUnits="userSpaceOnUse"><g transform="translate(50.6 50.6)"><g id="gmr_svg-v"><path id="gmr_svg-u" d="M127 307.2c-26.1 3.6-38.9 17-38.9 17s-5.9 77.2 58.8 109.7l-18.7 1.6-25.9-27.4-20.5-27.2-5.3-16.8-2.4-50.4 40.6-8.6Z" class="gmr_svg-cls-1"/></g></g></mask><mask id="gmr_svg-mask-13" width="137.19" height="152.43" x="120.41" y="342.2" maskUnits="userSpaceOnUse"><g transform="translate(50.6 50.6)"><g id="gmr_svg-z"><path id="gmr_svg-y" d="m198.7 311.8-7.4-1.3-7.6-1.1a290 290 0 0 0-46.3-2.6 208.4 208.4 0 0 0-30.6 2.8l-7.5 1.5q-7.38 1.82-14.6 4.2l-7 2.8 2.7-3.7a111 111 0 0 0-1.1 25.5 131 131 0 0 0 3.9 25.6 103.8 103.8 0 0 0 9.6 24 90 90 0 0 0 15.7 20.6 109.3 109.3 0 0 0 45.5 26c4.3 1.3 8.6 2.4 12.9 3.4s8.8 1.7 13.2 2.4 8.9 1.1 13.4 1.4l13.5.7c-9 .13-18-.13-27-.8a149 149 0 0 1-26.7-4.6 113.4 113.4 0 0 1-48.2-24.8A99.2 99.2 0 0 1 76 367.7a138.1 138.1 0 0 1-5.5-54.7l.3-2.5 2.4-1.2 7.5-3.6q7.66-3.16 15.6-5.6l8-2.1a219.5 219.5 0 0 1 32.3-5.2 322 322 0 0 1 48.9-.5l8.2.6 8.3.9Z" class="gmr_svg-cls-1"/></g></g></mask><mask id="gmr_svg-mask-15" width="137.26" height="152.63" x="244.3" y="342.11" maskUnits="userSpaceOnUse"><g transform="translate(50.6 50.6)"><g id="gmr_svg-D-2" data-name="D"><path id="gmr_svg-C-2" d="m198.7 293.7 8.3-.9 8.2-.6a323 323 0 0 1 48.9.5 219.5 219.5 0 0 1 32.3 5.2c2.7.7 5.3 1.3 8 2.2l7.9 2.5a73 73 0 0 1 7.7 3.1l7.5 3.6 2.4 1.2.3 2.5a127.5 127.5 0 0 1 0 27.8 129.8 129.8 0 0 1-5.5 26.9 99.2 99.2 0 0 1-29.1 46.2 114.5 114.5 0 0 1-48.2 24.8 149.5 149.5 0 0 1-26.7 4.6c-9 .67-18 .93-27 .8a202 202 0 0 0 26.9-2.1 152.5 152.5 0 0 0 26.2-5.8c17-5.2 33-13.7 45.5-26a90 90 0 0 0 15.7-20.6 103.8 103.8 0 0 0 9.6-24 122.8 122.8 0 0 0 4-38.5q-.3-6.3-1.2-12.6l2.7 3.7c-2.3-1-4.6-2-7-2.8l-7.2-2.3-7.4-1.9-7.5-1.5a210 210 0 0 0-30.6-2.8 289 289 0 0 0-46.3 2.6l-7.6 1.1-7.4 1.3Z" class="gmr_svg-cls-1" data-name="C"/></g></g></mask><mask id="gmr_svg-mask-17" width="161.8" height="154.6" x="169.7" y="354.2" maskUnits="userSpaceOnUse"><g transform="translate(50.6 50.6)"><g id="gmr_svg-H-2" data-name="H"><path id="gmr_svg-G-2" d="M128.8 303.8a136.7 136.7 0 0 0-9.7 51.3c0 59.7 36.2 103.1 80.9 103.1s80.9-43.4 80.9-103.1a135.9 135.9 0 0 0-9.8-51.5 768.7 768.7 0 0 1-142.3.2" class="gmr_svg-cls-1" data-name="G"/></g></g></mask><mask id="gmr_svg-mask-19" width="399.95" height="35.65" x="50.62" y="231.32" maskUnits="userSpaceOnUse"><g transform="translate(50.6 50.6)"><g id="gmr_svg-L-2" data-name="L"><path id="gmr_svg-K-2" d="M392.3 216.2a809.4 809.4 0 0 0-384.6 0A6.2 6.2 0 0 1 .9 207a6.5 6.5 0 0 1 3.9-2.8 823.3 823.3 0 0 1 390.4 0 6.52 6.52 0 0 1 3.9 2.8 6.2 6.2 0 0 1-6.8 9.2" class="gmr_svg-cls-1" data-name="K"/></g></g></mask><mask id="gmr_svg-mask-21" width="52.48" height="94.69" x="374.26" y="206.7" maskUnits="userSpaceOnUse"><g transform="translate(50.6 50.6)"><g id="gmr_svg-P-2" data-name="P"><path id="gmr_svg-O-2" d="m323.8 226 8.2-52.1a22.3 22.3 0 0 1 44 7l-8.2 52.1a22.3 22.3 0 0 1-44-7" class="gmr_svg-cls-1" data-name="O"/></g></g></mask><mask id="gmr_svg-mask-23" width="65.68" height="110.4" x="365.33" y="201.1" maskUnits="userSpaceOnUse"><g transform="translate(50.6 50.6)"><g id="gmr_svg-T-2" data-name="T"><path id="gmr_svg-S-2" d="m342.3 251 2.8.1A22.6 22.6 0 0 0 362 243a18.4 18.4 0 0 0 3.4-6.1 34 34 0 0 0 1.5-7.7l4.5-38.7.6-5.4.3-2.7.2-2.6a18 18 0 0 0-15.9-19 16.9 16.9 0 0 0-17.3 10l-.6 1.8-.2.8a5 5 0 0 0-.2 1.3l-.1.7-.1.3c0-.1-.1.4 0-.2v.3l-.2 1.4-.3 2.7-.6 5.4-4.5 38.7-.2 2.1-.1 1v.6l.1 2.4a12.8 12.8 0 0 0 9.6 10.8l.9.2.9.1.5.1h.1l-.5-.1Zm-1.6 9.9-.5-.1h-.1l-.5-.1-.8-.2-1.4-.4-2.4-.8a17.6 17.6 0 0 1-2.4-1.1 31.4 31.4 0 0 1-15.7-16.8 29 29 0 0 1-1.8-15.6l.2-1.4.2-1 .4-2.1 7.7-38.3 1.1-5.3.5-2.7.3-1.3.1-.7.1-.3.2-.7.4-1.4.6-1.9a26 26 0 0 1 5.7-9.1 28.1 28.1 0 0 1 32.5-6.5 27 27 0 0 1 13.6 14.6 24.4 24.4 0 0 1 1.4 12.8l-.5 2.9-.5 2.7-1.1 5.3-7.7 38.3a34.6 34.6 0 0 1-2.3 8.2 23.2 23.2 0 0 1-22.6 13.5l-2.7-.4Z" class="gmr_svg-cls-1" data-name="S"/></g></g></mask><mask id="gmr_svg-mask-25" width="52.95" height="95.75" x="73.73" y="206.23" maskUnits="userSpaceOnUse"><g transform="translate(50.6 50.6)"><g id="gmr_svg-X-2" data-name="X"><path id="gmr_svg-W-2" d="M42.1 155.9a22.5 22.5 0 0 1 25.7 18.7l8 50.8a22.47 22.47 0 1 1-44.4 7l-8-50.8a22.5 22.5 0 0 1 18.7-25.7" class="gmr_svg-cls-1" data-name="W"/></g></g></mask><mask id="gmr_svg-mask-27" width="65.58" height="110.41" x="70.16" y="201.09" maskUnits="userSpaceOnUse"><g transform="translate(50.6 50.6)"><g id="gmr_svg-ab"><path id="gmr_svg-aa" d="m57.2 251-2.7.4a22.8 22.8 0 0 1-18.3-7.1 21.2 21.2 0 0 1-4.3-6.4 33.3 33.3 0 0 1-2.3-8.2l-7.7-38.3-1.1-5.3-.5-2.7-.5-2.9a26.3 26.3 0 0 1 15-27.4 20 20 0 0 1 3.4-1.3l3.2-.8A28.1 28.1 0 0 1 73 168.7l.6 1.9.4 1.4.2.7.1.3.1.7.3 1.3.5 2.7 1.1 5.3 7.7 38.3.4 2.1.2 1 .2 1.4a25.4 25.4 0 0 1 .3 5.5 30.7 30.7 0 0 1-17.8 26.9l-2.4 1.1-2.4.8-1.4.4-.8.2-.5.1h-.1l-.5.1Zm-1.5-9.9-.5.1h.1l.5-.1.9-.1.9-.2a12.8 12.8 0 0 0 9.6-10.8 9.7 9.7 0 0 0 .1-2.4v-.6l-.1-1-.2-2.1-4.5-38.7-.6-5.4-.3-2.7-.2-1.4v-.3c.1.6 0 .1 0 .2l-.1-.3-.1-.7-.2-1.3-.2-.8-.6-1.8a17 17 0 0 0-17.3-9.9 17.9 17.9 0 0 0-15.9 19l.2 2.6.3 2.7.6 5.4 4.5 38.7a34 34 0 0 0 1.5 7.7 21 21 0 0 0 12.8 12.8 24.3 24.3 0 0 0 7.5 1.4l2.8-.1Z" class="gmr_svg-cls-1"/></g></g></mask><mask id="gmr_svg-mask-29" width="155.36" height="247.48" x="95.24" y="113.92" maskUnits="userSpaceOnUse"><g transform="translate(50.6 50.6)"><g id="gmr_svg-af"><path id="gmr_svg-ae" d="m96.9 75.7-43.4 52.6A217 217 0 0 0 68.2 288s51.1 22.3 131.8 22.8V63.4A373.7 373.7 0 0 0 96.9 75.7" class="gmr_svg-cls-1"/></g></g></mask><mask id="gmr_svg-mask-31" width="155.26" height="247.45" x="250.6" y="113.95" maskUnits="userSpaceOnUse"><g transform="translate(50.6 50.6)"><g id="gmr_svg-aj"><path id="gmr_svg-ai" d="m346.5 128.3-43.4-52.6S258.8 62.4 200 63.4v247.4c80.7-.5 131.8-22.8 131.8-22.8s40.9-69.6 14.7-159.7" class="gmr_svg-cls-1"/></g></g></mask><mask id="gmr_svg-mask-33" width="141.9" height="62" x="108.6" y="114.6" maskUnits="userSpaceOnUse"><g transform="translate(50.6 50.6)"><g id="gmr_svg-an"><path id="gmr_svg-am" d="m199.9 66.3-94.7 20.6-17.8 24.3 25.4 2L58 126l39.5-52.3L197.7 64Z" class="gmr_svg-cls-1"/></g></g></mask><mask id="gmr_svg-mask-35" width="148.1" height="176.1" x="95.4" y="155.1" maskUnits="userSpaceOnUse"><g transform="translate(50.6 50.6)"><g id="gmr_svg-ar"><path id="gmr_svg-aq" d="M192.9 106.6s-84.9 11-123.3 39c0 0-24.9 54.2 2.5 135l-27.3-51.5 8.8-100.8 75.3-19 60.3-4.8Z" class="gmr_svg-cls-1"/></g></g></mask><mask id="gmr_svg-mask-37" width="322.5" height="258.95" x="89.15" y="105.35" maskUnits="userSpaceOnUse"><g transform="translate(50.6 50.6)"><g id="gmr_svg-av"><path id="gmr_svg-au" d="M72.1 280.6c9.6 3.8 57.5 21.1 127.7 21.6 70.2-.5 118.1-17.8 127.7-21.6A214.2 214.2 0 0 0 341 128.2l-41.4-50.3a377 377 0 0 0-99.7-11.6c-51.1-.8-91.4 9.3-99.9 11.6l-41.4 50.3a214.3 214.3 0 0 0 13.5 152.4m127.7 33.1c-81.1-.5-132-22.4-134.2-23.3l-1.7-.8-.9-1.6a220.5 220.5 0 0 1-15.2-164.1l.3-1.1 45.2-54.9 1.7-.5c1.8-.6 45.9-13.5 104.9-12.6 58.8-1 102.8 12 104.7 12.5l1.7.5 45.2 54.9.3 1.1a220.5 220.5 0 0 1-15.2 164.1l-.9 1.6-1.7.8c-2.2 1-53.2 22.8-134.2 23.4" class="gmr_svg-cls-1"/></g></g></mask><mask id="gmr_svg-mask-39" width="14.4" height="63.7" x="243.4" y="155.7" maskUnits="userSpaceOnUse"><g transform="translate(50.6 50.6)"><g id="gmr_svg-az"><path id="gmr_svg-ay" d="m207.2 105.1-7.2 63.7-7.2-63.7Z" class="gmr_svg-cls-1"/></g></g></mask><mask id="gmr_svg-mask-41" width="14.4" height="29.4" x="243.4" y="332" maskUnits="userSpaceOnUse"><g transform="translate(50.6 50.6)"><g id="gmr_svg-aD-2" data-name="aD"><path id="gmr_svg-aC-2" d="m192.8 310.8 7.2-29.4 7.2 29.4Z" class="gmr_svg-cls-1" data-name="aC"/></g></g></mask><mask id="gmr_svg-mask-43" width="141.8" height="62" x="250.5" y="114.6" maskUnits="userSpaceOnUse"><g transform="translate(50.6 50.6)"><g id="gmr_svg-aH-2" data-name="aH"><path id="gmr_svg-aG-2" d="m341.7 126-39.5-52.3L202 64l-2.1 2.3 94.6 20.6 17.8 24.3-25.3 2Z" class="gmr_svg-cls-1" data-name="aG"/></g></g></mask><mask id="gmr_svg-mask-45" width="52.8" height="19.8" x="224.2" y="127.6" maskUnits="userSpaceOnUse"><g transform="translate(50.6 50.6)"><g id="gmr_svg-aL-2" data-name="aL"><ellipse id="gmr_svg-aK-2" cx="200" cy="86.9" class="gmr_svg-cls-1" data-name="aK" rx="26.4" ry="9.9"/></g></g></mask><mask id="gmr_svg-mask-47" width="21" height="22.8" x="267.9" y="126.1" maskUnits="userSpaceOnUse"><g transform="translate(50.6 50.6)"><g id="gmr_svg-aP-2" data-name="aP"><path id="gmr_svg-aO-2" d="M238.3 86.9c0-5.6-9-10.3-21-11.4 8.8 2.3 14.6 6.5 14.6 11.4S226 96 217.3 98.3c12-1.1 21-5.8 21-11.4" class="gmr_svg-cls-1" data-name="aO"/></g></g></mask><mask id="gmr_svg-mask-49" width="17" height="64.4" x="242.1" y="73.1" maskUnits="userSpaceOnUse"><g transform="translate(50.6 50.6)"><g id="gmr_svg-aT-2" data-name="aT"><path id="gmr_svg-aS-2" d="M208.5 22.5h-17l3.7 64.4h9.6Z" class="gmr_svg-cls-1" data-name="aS"/></g></g></mask><mask id="gmr_svg-mask-50" width="769.6" height="664.2" x="-106.2" y="22.5" maskUnits="userSpaceOnUse"><g transform="translate(50.6 50.6)"><g id="gmr_svg-aV-2" data-name="aV"><path id="gmr_svg-aU-2" d="M-156.8-11.9h769.6v648h-769.6Z" class="gmr_svg-cls-1" data-name="aU"/></g></g></mask><mask id="gmr_svg-mask-51" width="7.5" height="58.6" x="245.2" y="76" maskUnits="userSpaceOnUse"><g transform="translate(50.6 50.6)"><g id="gmr_svg-aX-2" data-name="aX"><path id="gmr_svg-aW-2" d="m194.6 25.4 3.3 58.6h4.2L200 25.4Z" class="gmr_svg-cls-1" data-name="aW"/></g></g></mask><mask id="gmr_svg-mask-52" width="769.6" height="661.3" x="-106.2" y="25.4" maskUnits="userSpaceOnUse"><g transform="translate(50.6 50.6)"><g id="gmr_svg-aZ-2" data-name="aZ"><path id="gmr_svg-aY-2" d="M-156.8-11.9h769.6v648h-769.6Z" class="gmr_svg-cls-1" data-name="aY"/></g></g></mask><mask id="gmr_svg-mask-53" width="22.8" height="12.4" x="231.1" y="131.3" maskUnits="userSpaceOnUse"><g transform="translate(50.6 50.6)"><g id="gmr_svg-bb"><path id="gmr_svg-ba" d="M197.1 80.7c-9.2 0-16.6 2.8-16.6 6.2s7.4 6.2 16.6 6.2a6.2 6.2 0 0 0 0-12.4" class="gmr_svg-cls-1"/></g></g></mask><mask id="gmr_svg-mask-55" width="45.4" height="45" x="227.9" y="50.6" maskUnits="userSpaceOnUse"><g transform="translate(50.6 50.6)"><g id="gmr_svg-bf"><path id="gmr_svg-be" d="M200 0a22.5 22.5 0 1 0 22.7 22.5A22.58 22.58 0 0 0 200 0" class="gmr_svg-cls-1"/></g></g></mask><mask id="gmr_svg-mask-56" width="769.6" height="686.7" x="-106.2" y="0" maskUnits="userSpaceOnUse"><g transform="translate(50.6 50.6)"><g id="gmr_svg-bh"><path id="gmr_svg-bg" d="M-156.8-11.9h769.6v648h-769.6Z" class="gmr_svg-cls-1"/></g></g></mask><mask id="gmr_svg-mask-57" width="193.8" height="30.17" x="101.9" y="153.93" maskUnits="userSpaceOnUse"><g transform="translate(50.6 50.6)"><g id="gmr_svg-bj"><path id="gmr_svg-bi" d="m51.3 122.9 2.1-.7 6.1-1.8 9.4-2.5 12.3-2.9 14.6-3c5.2-.9 10.7-2 16.3-2.7s11.5-1.7 17.5-2.4 12.1-1.3 18.2-1.8l18.2-1.2c6-.4 11.9-.3 17.6-.5s11.3.1 16.5.1 10.2.3 14.7.6 8.7.4 12.4.8l9.6.9 8.3.8-8.4-.3-9.6-.4c-3.7-.2-7.9 0-12.4 0s-9.5 0-14.7.3-10.7.3-16.3.8-11.5.8-17.4 1.5-11.9 1.2-17.9 2.2-12 1.7-17.8 2.8-11.6 2.2-17.1 3.3l-15.9 3.6c-5 1.3-9.8 2.5-14.1 3.8l-11.8 3.5-9 3-5.6 2-2 .8Z" class="gmr_svg-cls-1"/></g></g></mask><mask id="gmr_svg-mask-59" width="60.7" height="19.2" x="337.7" y="163.7" maskUnits="userSpaceOnUse"><g transform="translate(50.6 50.6)"><g id="gmr_svg-bn"><path id="gmr_svg-bm" d="m344.7 132.3-2.3-1-6.3-2.6q-9.73-3.82-19.7-7c-7.2-2.4-14.6-4.5-20.1-6.1l-9.2-2.5 9.5 1.2a370 370 0 0 1 41.7 7.5l6.9 1.7 2.6.7Z" class="gmr_svg-cls-1"/></g></g></mask><mask id="gmr_svg-mask-61" width="251.84" height="129.23" x="126.86" y="202.8" maskUnits="userSpaceOnUse"><g transform="translate(50.6 50.6)"><g id="gmr_svg-br"><path id="gmr_svg-bq" d="m328.1 180.1-.5-5.2-.8-5.2a46 46 0 0 0-1.3-5l-.8-2.6-.9-3.1-3.6-.5a850 850 0 0 0-90.1-6.2l-3.1-.1-1.3 2.6-16.7 32.5-18.6.3-17.7-31.6-.9-1.7-1.8.1q-33.7 2-67.2 6.4c-6 .8-12 1.8-18 2.8l-4.3.5-.4 1.3-1.2 3.6-1.1 4.9-.8 4.9-.5 5c-.2 3.3-.3 6.7-.2 10l.4 10a225 225 0 0 0 4 29.8l1.1 4.9 1.4 5 .4 1.2 1.4.5 56.6 18.6q25 8.15 49.9 16.7a30 30 0 0 0 4.3.6l1 .1h.3l.5.1 2.1.1a40 40 0 0 0 16.4-2.8l14-4.6q42.64-13.15 85.4-25.9l2.8-.8.9-2.6.9-2.6.7-2.5 1.3-4.9a220 220 0 0 0 4.9-29.3l.8-10 .2-5v-5.1z" class="gmr_svg-cls-1"/></g></g></mask><mask id="gmr_svg-mask-63" width="242.17" height="117.87" x="129.56" y="203.7" maskUnits="userSpaceOnUse"><g transform="translate(50.6 50.6)"><g id="gmr_svg-bv"><path id="gmr_svg-bu" d="m318 160-11-1.3-.9-.1-7.3-.8c-24-2.6-47.2-3.9-68.9-4.6h-.3l-17.9 33.7h-23.2l-18-33.8q-44.34 1.29-88.4 6.9l-.6 2c-6.9 21.5 2 65.4 5.9 75.5 0 0 75.2 22.5 100.3 31.5a34.7 34.7 0 0 0 15 1.8 32.1 32.1 0 0 0 9.7-1.9q49.88-16.61 100.3-31.5c3.9-10.6 13.3-56.6 5.3-77.4" class="gmr_svg-cls-1"/></g></g></mask><mask id="gmr_svg-mask-65" width="249.04" height="127.61" x="128.06" y="198.9" maskUnits="userSpaceOnUse"><g transform="translate(50.6 50.6)"><g id="gmr_svg-bz"><path id="gmr_svg-by" d="M82 160c-.4 1.6-.9 3.1-1.2 4.7l-.7 4.8a39 39 0 0 0-.3 4.9l-.1 4.9c.1 3.2.2 6.5.5 9.7s.6 6.5 1.1 9.7c.9 6.4 2 12.8 3.4 19.1l2.3 9.4 1.3 4.6 1.5 4.4-1.7-1.6c9.5 2.5 18.9 5.2 28.4 7.9s18.9 5.3 28.3 8.1l28.2 8.5 14.1 4.5a35.5 35.5 0 0 0 19.1 1.7 38 38 0 0 0 6.3-2q7-2.52 14-4.9c9.3-3.2 18.7-6.2 28-9.2q28-8.85 56.3-17.4l-3.7 3.4.7-1.9.6-2.1 1.1-4.4a244 244 0 0 0 4.7-27.6l.8-9.3.2-4.6v-4.6l-.1-4.5-.4-4.4-.7-4.3c-.2-1.4-.7-2.7-1-4l-.1-.2-.1-.2-.4-1.3 4.5 3.5c-7.3-1-14.6-1.8-21.9-2.6l-21.9-2.2c-14.6-1.3-29.3-2.1-44-2.8l4.4-2.5-18.6 33.6-1.3 2.3h-2.5l-23.2-.4h-2.4l-1-2-17.1-34.1 2.7 1.6q-33.18.15-66.3 2.3c-7 .3-14.4.9-21.8 1.5m0 0q21.86-3.64 43.9-6.1t44.3-3.6l1.8-.1.9 1.7 18.6 33.3-3.3-2 23.2-.4-3.7 2.2 17.4-34.1 1.3-2.6 3.1.1q44.57.94 88.9 6.1l3.6.5.9 3.1.8 2.7-.1-.4 1.4 5.2a47 47 0 0 1 .8 5.2l.5 5.1.2 5v5l-.2 4.9a251.6 251.6 0 0 1-5.7 38.9l-1.3 4.8-.7 2.5-.9 2.6-.9 2.6-2.8.8c-18.8 5.5-37.5 11.2-56.3 17l-28.1 8.6-13.9 4.5a43.2 43.2 0 0 1-16.2 2.8l-2.1-.1-.5-.1h-.3l-1-.1-4.2-.6a53 53 0 0 1-7.7-2.4l-13.8-4.9-27.8-9.4-55.9-18.4-1.4-.5-.4-1.2c-.6-1.7-1-3.3-1.4-4.9l-1.1-4.9a186.5 186.5 0 0 1-4-29.3c-.2-3.3-.4-6.6-.4-9.9s0-6.6.2-9.9l.5-4.9.7-4.9a42 42 0 0 1 1.1-4.8 44 44 0 0 0 2-4.7" class="gmr_svg-cls-1"/></g></g></mask><mask id="gmr_svg-mask-67" width="5.4" height="5.2" x="234.4" y="162" maskUnits="userSpaceOnUse"><g transform="translate(50.6 50.6)"><g id="gmr_svg-bD-2" data-name="bD"><path id="gmr_svg-bC-2" d="M186.5 116.6a2.67 2.67 0 0 0 2.7-2.6 2.61 2.61 0 0 0-2.7-2.6 2.6 2.6 0 1 0 0 5.2" class="gmr_svg-cls-1" data-name="bC"/></g></g></mask><mask id="gmr_svg-mask-69" width="5.4" height="5.2" x="113.6" y="186.4" maskUnits="userSpaceOnUse"><g transform="translate(50.6 50.6)"><g id="gmr_svg-bH-2" data-name="bH"><path id="gmr_svg-bG-2" d="M65.7 141a2.67 2.67 0 0 0 2.7-2.6 2.61 2.61 0 0 0-2.7-2.6 2.67 2.67 0 0 0-2.7 2.6 2.61 2.61 0 0 0 2.7 2.6" class="gmr_svg-cls-1" data-name="bG"/></g></g></mask><mask id="gmr_svg-mask-71" width="5.4" height="5.2" x="126.2" y="324.1" maskUnits="userSpaceOnUse"><g transform="translate(50.6 50.6)"><g id="gmr_svg-bL-2" data-name="bL"><path id="gmr_svg-bK-2" d="M78.3 278.7a2.67 2.67 0 0 0 2.7-2.6 2.61 2.61 0 0 0-2.7-2.6 2.67 2.67 0 0 0-2.7 2.6 2.7 2.7 0 0 0 2.7 2.6" class="gmr_svg-cls-1" data-name="bK"/></g></g></mask><mask id="gmr_svg-mask-73" width="5.4" height="5.2" x="236.6" y="341.5" maskUnits="userSpaceOnUse"><g transform="translate(50.6 50.6)"><g id="gmr_svg-bP-2" data-name="bP"><path id="gmr_svg-bO-2" d="M188.7 296.1a2.67 2.67 0 0 0 2.7-2.6 2.61 2.61 0 0 0-2.7-2.6 2.7 2.7 0 0 0-2.7 2.6 2.8 2.8 0 0 0 2.7 2.6" class="gmr_svg-cls-1" data-name="bO"/></g></g></mask><mask id="gmr_svg-mask-75" width="5.4" height="5.2" x="261.4" y="162.1" maskUnits="userSpaceOnUse"><g transform="translate(50.6 50.6)"><g id="gmr_svg-bT-2" data-name="bT"><path id="gmr_svg-bS-2" d="M213.5 116.7a2.67 2.67 0 0 0 2.7-2.6 2.61 2.61 0 0 0-2.7-2.6 2.6 2.6 0 1 0 0 5.2" class="gmr_svg-cls-1" data-name="bS"/></g></g></mask><mask id="gmr_svg-mask-77" width="5.4" height="5.2" x="369.6" y="324.3" maskUnits="userSpaceOnUse"><g transform="translate(50.6 50.6)"><g id="gmr_svg-bX-2" data-name="bX"><ellipse id="gmr_svg-bW-2" cx="321.7" cy="276.3" class="gmr_svg-cls-1" data-name="bW" rx="2.7" ry="2.6"/></g></g></mask><mask id="gmr_svg-mask-79" width="5.4" height="5.2" x="259.2" y="341.6" maskUnits="userSpaceOnUse"><g transform="translate(50.6 50.6)"><g id="gmr_svg-cb"><path id="gmr_svg-ca" d="M211.3 296.2a2.67 2.67 0 0 0 2.7-2.6 2.61 2.61 0 0 0-2.7-2.6 2.7 2.7 0 0 0-2.7 2.6 2.8 2.8 0 0 0 2.7 2.6" class="gmr_svg-cls-1"/></g></g></mask><mask id="gmr_svg-mask-81" width="245.4" height="76.9" x="127.9" y="443.7" maskUnits="userSpaceOnUse"><g transform="translate(50.6 50.6)"><g id="gmr_svg-cf"><path id="gmr_svg-ce" d="M77.3 393.1C106 444.2 151.2 470 201 470s93-25.8 121.7-76.9C289 423.5 246.4 446 199.5 446s-88.6-22.4-122.2-52.9" class="gmr_svg-cls-1"/></g></g></mask><mask id="gmr_svg-mask-83" width="5.4" height="5.2" x="136" y="372.2" maskUnits="userSpaceOnUse"><g transform="translate(50.6 50.6)"><g id="gmr_svg-cj"><path id="gmr_svg-ci" d="M88.1 326.8a2.67 2.67 0 0 0 2.7-2.6 2.61 2.61 0 0 0-2.7-2.6 2.6 2.6 0 1 0 0 5.2" class="gmr_svg-cls-1"/></g></g></mask><mask id="gmr_svg-mask-85" width="5.4" height="5.2" x="163.4" y="364" maskUnits="userSpaceOnUse"><g transform="translate(50.6 50.6)"><g id="gmr_svg-cn"><path id="gmr_svg-cm" d="M115.5 318.6a2.67 2.67 0 0 0 2.7-2.6 2.61 2.61 0 0 0-2.7-2.6 2.6 2.6 0 1 0 0 5.2" class="gmr_svg-cls-1"/></g></g></mask><mask id="gmr_svg-mask-87" width="5.4" height="5.2" x="332.4" y="364" maskUnits="userSpaceOnUse"><g transform="translate(50.6 50.6)"><g id="gmr_svg-cr"><path id="gmr_svg-cq" d="M284.5 318.6a2.67 2.67 0 0 0 2.7-2.6 2.61 2.61 0 0 0-2.7-2.6 2.6 2.6 0 1 0 0 5.2" class="gmr_svg-cls-1"/></g></g></mask><mask id="gmr_svg-mask-89" width="282.6" height="177.9" x="122.7" y="183.5" maskUnits="userSpaceOnUse"><g transform="translate(50.6 50.6)"><g id="gmr_svg-cv"><path id="gmr_svg-cu" d="M342.3 132.9s15.9 86.1-26.8 143.2c0 0-107 49.4-243.4 7.3l40.3 15.9 75.3 11.5 79.5-5.7 66.6-16.8 19.3-54.3 1.6-54.2-4.6-31.8Z" class="gmr_svg-cls-1"/></g></g></mask><mask id="gmr_svg-mask-91" width="72.3" height="130.4" x="303.5" y="355.7" maskUnits="userSpaceOnUse"><g transform="translate(50.6 50.6)"><g id="gmr_svg-cz"><path id="gmr_svg-cy" d="M272.2 307.2c26.1 3.6 39.7 17 39.7 17s2.7 75.3-59 109.9l18.2 1.4 25.9-27.4 20.5-27.2 5.3-16.8 2.4-50.4-40.6-8.6Z" class="gmr_svg-cls-1"/></g></g></mask><mask id="gmr_svg-mask-93" width="71.2" height="162.9" x="337.6" y="163.8" maskUnits="userSpaceOnUse"><g transform="translate(50.6 50.6)"><g id="gmr_svg-cD-2" data-name="cD"><path id="gmr_svg-cC-2" d="m287 113.2 47.4 23.5s25.2 80.9-18.9 139.4l22.5-5.3 20.2-99.7-16.5-48.6Z" class="gmr_svg-cls-1" data-name="cC"/></g></g></mask><mask id="gmr_svg-mask-95" width="24.95" height="35.6" x="234.5" y="55.4" maskUnits="userSpaceOnUse"><g transform="translate(50.6 50.6)"><g id="gmr_svg-cH-2" data-name="cH"><path id="gmr_svg-cG-2" d="M201.5 4.8a17.8 17.8 0 0 0 0 35.6c9.8-.1 9.8-35.6 0-35.6" class="gmr_svg-cls-1" data-name="cG"/></g></g></mask><mask id="gmr_svg-mask-96" width="769.6" height="682" x="-106.2" y="4.7" maskUnits="userSpaceOnUse"><g transform="translate(50.6 50.6)"><g id="gmr_svg-cJ-2" data-name="cJ"><path id="gmr_svg-cI-2" d="M-156.8-11.9h769.6v648h-769.6Z" class="gmr_svg-cls-1" data-name="cI"/></g></g></mask><mask id="gmr_svg-mask-97" width="132.74" height="110.3" x="129.46" y="203.6" maskUnits="userSpaceOnUse"><g transform="translate(50.6 50.6)"><g id="gmr_svg-cL-2" data-name="cL"><path id="gmr_svg-cK-2" d="m188.4 186.8-18-33.8q-44.34 1.29-88.4 6.9l-.6 2c-6.9 21.5 2 65.4 5.9 75.5 0 0 51.8 15.5 83.7 25.9l40.6-76.4Z" class="gmr_svg-cls-1" data-name="cK"/></g></g></mask><mask id="gmr_svg-mask-99" width="88.7" height="117.17" x="236.4" y="204.3" maskUnits="userSpaceOnUse"><g transform="translate(50.6 50.6)"><g id="gmr_svg-cP-2" data-name="cP"><path id="gmr_svg-cO-2" d="m246.6 153.7-60.8 114.5 1.8.7a34.7 34.7 0 0 0 15 1.8 32.1 32.1 0 0 0 9.7-1.9l2.6-.9 59.6-112.3c-9.5-.8-18.8-1.5-27.9-1.9" class="gmr_svg-cls-1" data-name="cO"/></g></g></mask><mask id="gmr_svg-mask-101" width="71.5" height="103.7" x="286.6" y="207.7" maskUnits="userSpaceOnUse"><g transform="translate(50.6 50.6)"><g id="gmr_svg-cT-2" data-name="cT"><path id="gmr_svg-cS-2" d="m306.9 158.7-.9-.1-7.3-.8-7.7-.7-55 103.7 20.8-6.6 50.7-95.5Z" class="gmr_svg-cls-1" data-name="cS"/></g></g></mask><mask id="gmr_svg-mask-103" width="91.6" height="90.6" x="204.6" y="374.9" maskUnits="userSpaceOnUse"><g transform="translate(50.6 50.6)"><g id="gmr_svg-cX-2" data-name="cX"><path id="gmr_svg-cW-2" d="M199.8 405.1a35.6 35.6 0 0 1-35.8-35.4v-.1a35.65 35.65 0 1 1 35.8 35.5m0-80.8c-25.3 0-45.8 20.3-45.8 45.3s20.5 45.3 45.8 45.3 45.8-20.3 45.8-45.3-20.5-45.3-45.8-45.3" class="gmr_svg-cls-1" data-name="cW"/></g></g></mask><mask id="gmr_svg-mask-105" width="71.3" height="71" x="214.6" y="384.8" maskUnits="userSpaceOnUse"><g transform="translate(50.6 50.6)"><g id="gmr_svg-db"><path id="gmr_svg-da" d="M199.8 334.2a35.6 35.6 0 0 0-35.8 35.4v.1a35.65 35.65 0 1 0 35.8-35.5" class="gmr_svg-cls-1"/></g></g></mask><mask id="gmr_svg-mask-107" width="99.8" height="99" x="200.5" y="370.8" maskUnits="userSpaceOnUse"><g transform="translate(50.6 50.6)"><g id="gmr_svg-df"><path id="gmr_svg-de" d="M199.8 415c-25.3 0-45.8-20.3-45.8-45.3s20.5-45.3 45.8-45.3 45.8 20.3 45.8 45.3-20.5 45.3-45.8 45.3m0-94.8a49.6 49.6 0 0 0-49.9 49.3v.2a49.7 49.7 0 0 0 49.9 49.5 49.6 49.6 0 0 0 49.9-49.3v-.2a49.6 49.6 0 0 0-49.7-49.5Z" class="gmr_svg-cls-1"/></g></g></mask><mask id="gmr_svg-mask-109" width="133.5" height="148.9" x="185.4" y="351.3" maskUnits="userSpaceOnUse"><g transform="translate(50.6 50.6)"><g id="gmr_svg-dj"><path id="gmr_svg-di" d="M240.4 300.7c5.6 13.7 5.6 29.4 5.6 45.6 0 43-19.2 77.9-46.4 77.9s-46.4-34.9-46.4-77.9c0-16 0-31.7 5.6-45.4l-24 16.8c0 102.6 22.9 131.9 64.9 131.9 40.2 0 68.6-29.3 68.6-131.9Z" class="gmr_svg-cls-1"/></g></g></mask><mask id="gmr_svg-mask-111" width="75" height="94.4" x="146" y="203.4" maskUnits="userSpaceOnUse"><g transform="translate(50.6 50.6)"><g id="gmr_svg-dn"><path id="gmr_svg-dm" d="m140.8 154.3-45.4 85.4 24.9 7.5 50.1-94.4Z" class="gmr_svg-cls-1"/></g></g></mask><mask id="gmr_svg-mask-113" width="41.9" height="61" x="216.9" y="384.8" maskUnits="userSpaceOnUse"><g transform="translate(50.6 50.6)"><g id="gmr_svg-dr"><path id="gmr_svg-dq" d="M199.8 334.2a39.5 39.5 0 0 0-7.7.8l-25.8 47a35.6 35.6 0 0 0 8.8 13.2l33.1-60.1a40 40 0 0 0-8.4-.9" class="gmr_svg-cls-1"/></g></g></mask><mask id="gmr_svg-mask-115" width="35.2" height="56.7" x="248" y="399" maskUnits="userSpaceOnUse"><g transform="translate(50.6 50.6)"><g id="gmr_svg-dv"><path id="gmr_svg-du" d="M199.8 405.1a38 38 0 0 0 5.8-.5l27-49.1a38.5 38.5 0 0 0-4.1-7.1L197.4 405Z" class="gmr_svg-cls-1"/></g></g></mask><style>.gmr_svg-cls-1{fill:#fff}.gmr_svg-cls-3{mask:url(#gmr_svg-mask-2)}.gmr_svg-cls-4{fill:#f4aa34}.gmr_svg-cls-8{fill:#372d2c}.gmr_svg-cls-10{fill:#6dc8bd}.gmr_svg-cls-12{fill:#4daa9d}.gmr_svg-cls-14{fill:#fff5c6}</style></defs><g class="gmr_svg-cls-3" style="mask:url(#gmr_svg-mask)"><path d="M29.6 130.3h442v291.6h-442Z" class="gmr_svg-cls-4"/></g><g style="mask:url(#gmr_svg-mask-3)"><path d="M-13.9 225.1h427.8v286.8H-13.9Z" class="gmr_svg-cls-3" style="fill:#e95a27" transform="translate(50.6 50.6)"/></g><g class="gmr_svg-cls-3" style="mask:url(#gmr_svg-mask-5)"><path d="M17.7 118.5h465.8v455.8H17.7Z" class="gmr_svg-cls-8"/></g><g class="gmr_svg-cls-3" style="mask:url(#gmr_svg-mask-7)"><path d="M74.1 299.3h233.7v245.9H74.1Z" class="gmr_svg-cls-10"/></g><g class="gmr_svg-cls-3" style="mask:url(#gmr_svg-mask-9)"><path d="M200 299.3h227.2v245.9H200Z" class="gmr_svg-cls-12"/></g><g class="gmr_svg-cls-3" style="mask:url(#gmr_svg-mask-11)"><path d="M74.1 305h174.1v231.7H74.1Z" class="gmr_svg-cls-14"/></g><g class="gmr_svg-cls-3" style="mask:url(#gmr_svg-mask-13)"><path d="M69.6 291.5h238.5v253.8H69.6Z" class="gmr_svg-cls-8"/></g><g class="gmr_svg-cls-3" style="mask:url(#gmr_svg-mask-15)"><path d="M193.5 291.5H432v253.8H193.5Z" class="gmr_svg-cls-8"/></g><g class="gmr_svg-cls-3" style="mask:url(#gmr_svg-mask-17)"><path d="M119.1 303.6h263v255.8h-263Z" class="gmr_svg-cls-8"/></g><g class="gmr_svg-cls-3" style="mask:url(#gmr_svg-mask-19)"><path d="M0 180.6h501.3v137H0Z" class="gmr_svg-cls-8"/></g><g class="gmr_svg-cls-3" style="mask:url(#gmr_svg-mask-21)"><path d="m313.07 340.78 31.05-196.05 144 22.81-31.05 196.06Z" class="gmr_svg-cls-8"/></g><g class="gmr_svg-cls-3" style="mask:url(#gmr_svg-mask-23)"><path d="M314.6 150.4h166.9v211.7H314.6Z" class="gmr_svg-cls-8"/></g><g class="gmr_svg-cls-3" style="mask:url(#gmr_svg-mask-25)"><path d="m12.65 167.93 144.4-22.87 30.91 195.17L43.6 363.1Z" class="gmr_svg-cls-14"/></g><g class="gmr_svg-cls-3" style="mask:url(#gmr_svg-mask-27)"><path d="M19.3 150.4h166.9v211.7H19.3Z" class="gmr_svg-cls-8"/></g><g class="gmr_svg-cls-3" style="mask:url(#gmr_svg-mask-29)"><path d="M44.7 63.3h256.5V412H44.7Z" class="gmr_svg-cls-10"/></g><g class="gmr_svg-cls-3" style="mask:url(#gmr_svg-mask-31)"><path d="M200 63.3h256.5V412H200Z" class="gmr_svg-cls-12"/></g><g class="gmr_svg-cls-3" style="mask:url(#gmr_svg-mask-33)"><path d="M58 63.9h243.1v163.3H58Z" class="gmr_svg-cls-14"/></g><g class="gmr_svg-cls-3" style="mask:url(#gmr_svg-mask-35)"><path d="M44.7 104.5h249.4v277.3H44.7Z" class="gmr_svg-cls-14"/></g><g class="gmr_svg-cls-3" style="mask:url(#gmr_svg-mask-37)"><path d="M38.7 54.7h423.4v360.2H38.7Z" class="gmr_svg-cls-8"/></g><g class="gmr_svg-cls-3" style="mask:url(#gmr_svg-mask-39)"><path d="M192.7 105h115.7v165H192.7Z" class="gmr_svg-cls-8"/></g><g class="gmr_svg-cls-3" style="mask:url(#gmr_svg-mask-41)"><path d="M192.7 281.4h115.7v130.7H192.7Z" class="gmr_svg-cls-8"/></g><g class="gmr_svg-cls-3" style="mask:url(#gmr_svg-mask-43)"><path d="M199.9 63.9H443v163.3H199.9Z" class="gmr_svg-cls-8"/></g><g class="gmr_svg-cls-3" style="mask:url(#gmr_svg-mask-45)"><path d="M173.6 77h154v121h-154Z" class="gmr_svg-cls-8"/></g><g class="gmr_svg-cls-3" style="mask:url(#gmr_svg-mask-47)"><path d="M217.3 75.5h122.2v124H217.3Z" class="gmr_svg-cls-8"/></g><g style="mask:url(#gmr_svg-mask-49)"><path d="M140.9-28.1h118.2v165.6H140.9Z" class="gmr_svg-cls-8" style="mask:url(#gmr_svg-mask-50)" transform="translate(50.6 50.6)"/></g><g style="mask:url(#gmr_svg-mask-51)"><path d="M144-25.2h108.8v159.9H144Z" class="gmr_svg-cls-14" style="mask:url(#gmr_svg-mask-52)" transform="translate(50.6 50.6)"/></g><g class="gmr_svg-cls-3" style="mask:url(#gmr_svg-mask-53)"><path d="M180.5 80.6h124.8v113.7H180.5Z" class="gmr_svg-cls-14"/></g><g style="mask:url(#gmr_svg-mask-55)"><path d="M126.6-50.6h146.7V95.7H126.6Z" class="gmr_svg-cls-8" style="mask:url(#gmr_svg-mask-56)" transform="translate(50.6 50.6)"/></g><g class="gmr_svg-cls-3" style="mask:url(#gmr_svg-mask-57)"><path d="M51.3 103.4h295.1v131.5H51.3Z" class="gmr_svg-cls-8"/></g><g class="gmr_svg-cls-3" style="mask:url(#gmr_svg-mask-59)"><path d="M287 113.1h162v120.4H287Z" class="gmr_svg-cls-8"/></g><g class="gmr_svg-cls-3" style="mask:url(#gmr_svg-mask-61)"><path d="M76.3 152.3h353.1v230.4H76.3Z" class="gmr_svg-cls-10"/></g><g class="gmr_svg-cls-3" style="mask:url(#gmr_svg-mask-63)"><path d="M78.9 153h343.4v219.1H78.9Z" class="gmr_svg-cls-8"/></g><g class="gmr_svg-cls-3" style="mask:url(#gmr_svg-mask-65)"><path d="M77.9 148.1H428v228.8H77.9Z" class="gmr_svg-cls-8"/></g><g class="gmr_svg-cls-3" style="mask:url(#gmr_svg-mask-67)"><path d="M183.8 111.3h106.6v106.5H183.8Z" class="gmr_svg-cls-8"/></g><g class="gmr_svg-cls-3" style="mask:url(#gmr_svg-mask-69)"><path d="M63 135.8h106.6v106.5H63Z" class="gmr_svg-cls-8"/></g><g class="gmr_svg-cls-3" style="mask:url(#gmr_svg-mask-71)"><path d="M75.6 273.5h106.6V380H75.6Z" class="gmr_svg-cls-8"/></g><g class="gmr_svg-cls-3" style="mask:url(#gmr_svg-mask-73)"><path d="M186 290.8h106.6v106.5H186Z" class="gmr_svg-cls-8"/></g><g class="gmr_svg-cls-3" style="mask:url(#gmr_svg-mask-75)"><path d="M210.8 111.5h106.6V218H210.8Z" class="gmr_svg-cls-8"/></g><g class="gmr_svg-cls-3" style="mask:url(#gmr_svg-mask-77)"><path d="M319 273.6h106.6v106.5H319Z" class="gmr_svg-cls-8"/></g><g class="gmr_svg-cls-3" style="mask:url(#gmr_svg-mask-79)"><path d="M208.6 290.9h106.6v106.5H208.6Z" class="gmr_svg-cls-8"/></g><g class="gmr_svg-cls-3" style="mask:url(#gmr_svg-mask-81)"><path d="M77.2 393.1h346.7v178.1H77.2Z" class="gmr_svg-cls-8"/></g><g class="gmr_svg-cls-3" style="mask:url(#gmr_svg-mask-83)"><path d="M85.5 321.6h106.6v106.5H85.5Z" class="gmr_svg-cls-8"/></g><g class="gmr_svg-cls-3" style="mask:url(#gmr_svg-mask-85)"><path d="M112.8 313.3h106.6v106.5H112.8Z" class="gmr_svg-cls-8"/></g><g class="gmr_svg-cls-3" style="mask:url(#gmr_svg-mask-87)"><path d="M281.8 313.3h106.6v106.5H281.8Z" class="gmr_svg-cls-8"/></g><g class="gmr_svg-cls-3" style="mask:url(#gmr_svg-mask-89)"><path d="M72.1 132.9H456V412H72.1Z" class="gmr_svg-cls-8"/></g><g class="gmr_svg-cls-3" style="mask:url(#gmr_svg-mask-91)"><path d="M252.8 305h173.5v231.7H252.8Z" class="gmr_svg-cls-8"/></g><g class="gmr_svg-cls-3" style="mask:url(#gmr_svg-mask-93)"><path d="M287 113.1h172.5v264.2H287Z" class="gmr_svg-cls-8"/></g><g style="mask:url(#gmr_svg-mask-95)"><path d="M133.3-45.9h126.2V90.9H133.3Z" class="gmr_svg-cls-14" style="mask:url(#gmr_svg-mask-96)" transform="translate(50.6 50.6)"/></g><g class="gmr_svg-cls-3" style="mask:url(#gmr_svg-mask-97)"><path d="M78.9 153h234v211.5h-234Z" class="gmr_svg-cls-4"/></g><g class="gmr_svg-cls-3" style="mask:url(#gmr_svg-mask-99)"><path d="M185.8 153.7h190v218.4h-190Z" class="gmr_svg-cls-4"/></g><g class="gmr_svg-cls-3" style="mask:url(#gmr_svg-mask-101)"><path d="M235.9 157h172.8v205.1H235.9Z" class="gmr_svg-cls-4"/></g><g class="gmr_svg-cls-3" style="mask:url(#gmr_svg-mask-103)"><path d="M154 324.3h192.8v192H154Z" class="gmr_svg-cls-8"/></g><g class="gmr_svg-cls-3" style="mask:url(#gmr_svg-mask-105)"><path d="M164 334.1h172.8v172.2H164Z" class="gmr_svg-cls-4"/></g><g class="gmr_svg-cls-3" style="mask:url(#gmr_svg-mask-107)"><path d="M149.9 320.1H351v200.2H149.9Z" class="gmr_svg-cls-4"/></g><g class="gmr_svg-cls-3" style="mask:url(#gmr_svg-mask-109)"><path d="M134.7 300.6h234.7v250.1H134.7Z" class="gmr_svg-cls-8"/></g><g class="gmr_svg-cls-3" style="mask:url(#gmr_svg-mask-111)"><path d="M95.4 152.9h176.2v195.6H95.4Z" class="gmr_svg-cls-14"/></g><g class="gmr_svg-cls-3" style="mask:url(#gmr_svg-mask-113)"><path d="M166.3 334.1h143.1v162.3H166.3Z" class="gmr_svg-cls-14"/></g><g class="gmr_svg-cls-3" style="mask:url(#gmr_svg-mask-115)"><path d="M197.3 348.4h136.5v157.9H197.3Z" class="gmr_svg-cls-14"/></g></svg>