<svg xmlns="http://www.w3.org/2000/svg" xml:space="preserve" style="fill-rule:evenodd;clip-rule:evenodd;stroke-linejoin:round;stroke-miterlimit:1.41421" viewBox="0 0 244 244"><circle cx="136" cy="133" r="92" transform="translate(-19.174 -16.06)scale(1.03804)"/><circle cx="141.75" cy="137.75" r="79.75" style="fill:#000" transform="translate(-29.735 -25.25)scale(1.06897)"/><g style="fill:#fff"><path d="M162 92c-2.034-4.566-3.929-13.587-9.145-15.593C146.14 73.825 141.989 90.729 141 95h-1c-1.693-7.318-3.965-17.69-12-20-3.72 15.624 3.886 32.479 11 46 7.596-3.63 11.297-14.998 12-23h1l8 24c6.436-1.85 8.675-8.219 10.999-14 4.989-12.408 9.175-27.668 6.001-41-9.605 2.72-12.527 16.455-15 25m-96 32c8.595-4.104 12.685-17.094 14-26h1c1.017 4.293 3.736 15.368 9.1 16.079 6.834.904 10.417-14.26 10.9-19.079h1c2.179 7.529 4.475 17.32 12 21 2.776-11.66-.548-24.095-4.812-35-1.096-2.804-3.347-10.364-7.213-10.364C95.641 70.636 92.08 87.332 91 92h-1l-8-24c-14.072 6.72-21.716 42.453-16 56m-15 12c10.443 45.551 58.612 71.374 102 52.138 15.791-7.001 28.317-19.475 35.539-35.138 1.866-4.047 5.531-11.372 3.394-16.682-2.128-5.289-22.767 3.353-27.924 5.61a2.32 2.32 0 0 0-1.354 1.774 4.033 4.033 0 0 0 3.68 4.631L175 149c-15.687 30.365-58.101 43.791-88 19.532-6.692-5.429-12.662-11.88-16.68-19.532-1.943-3.7-3.745-8.432-7.048-10.971-3.173-2.44-7.987-3.276-12.272-2.029" style="fill-rule:nonzero;fill:#fff" transform="translate(.209 -2)"/></g></svg>