<svg xmlns="http://www.w3.org/2000/svg" xml:space="preserve" viewBox="0 0 128 128"><linearGradient id="gsc_svg-a" x1="22.143" x2="65.874" y1="106.038" y2="62.307" gradientUnits="userSpaceOnUse"><stop offset="0" stop-color="#F58020"/><stop offset=".025" stop-color="#F57D22"/><stop offset=".343" stop-color="#F15F41"/><stop offset=".623" stop-color="#EF4350"/><stop offset=".852" stop-color="#EE2C56"/><stop offset="1" stop-color="#EE2058"/></linearGradient><path d="M123 39.1H64c-13.8 0-25 11.2-25 25s11.2 25 25 25c10.8 0 19.9-6.8 23.4-16.3H64c-3.7 0-6.6-3-6.6-6.6v-.8c0-3.7 3-6.6 6.6-6.6h39c.3 1.8.4 3.6.4 5.5 0 21.8-17.7 39.4-39.4 39.4S24.6 85.9 24.6 64.1 42.3 24.7 64 24.7l1.2-.2c.3.1.5.2.8.2h35c19.1 0 26.9-10.2 26.9-24.6H64C28.7.1 0 28.8 0 64.1s28.7 64 64 64c35.2 0 63.8-28.5 64-63.7V44.2c0-2.8-2.2-5.1-5-5.1" style="fill:url(#gsc_svg-a)"/></svg>