<svg xmlns="http://www.w3.org/2000/svg" xmlns:xlink="http://www.w3.org/1999/xlink" xml:space="preserve" width="973.07" height="1178.39" overflow="visible" viewBox="0 0 973.07 1178.39"><switch><g><defs><path id="hodl_svg-a" d="M0 0h973.07v1178.39H0z"/></defs><clipPath id="hodl_svg-b"><use xlink:href="#hodl_svg-a"/></clipPath><path fill="#8F4C21" d="M853.256 42.293 596.587 300h.482v852l243.252-167.015a132.92 132.92 0 0 0 56.652-108.861V60.401c.001-22.815-27.584-34.241-43.717-18.108" clip-path="url(#hodl_svg-b)"/><path fill="#B97929" d="M391.07 300 134.402 42.293c-16.133-16.133-43.718-4.707-43.718 18.108v815.724a132.92 132.92 0 0 0 56.651 108.861l243.735 166.666z" clip-path="url(#hodl_svg-b)"/><path fill="#111312" d="M200.188 844.166s0-216.926-47.952-253.46c-10.979-4.99-33.166 1.962-55.689 14.421-28.269 19.626-55.201 57.606-53.916 118.018.945 44.391 28.065 72.765 59.544 90.777 36.437 17.453 98.013 30.244 98.013 30.244" clip-path="url(#hodl_svg-b)"/><path fill="#A35E24" d="M90.684 365.251v22.569L391.07 300l-16.073-16.138z" clip-path="url(#hodl_svg-b)"/><path fill="#7A411C" d="M199.155 834.151s0-199.917-58.093-233.587c-9.45-3.268-26.106-1.333-44.495 4.554 23.405-15.905 47.844-21.242 59.562-16.123 50.57 37.032 50.57 256.91 50.57 256.91s-57.179-5.532-104.458-31.946c48.208 16.242 96.914 20.192 96.914 20.192" clip-path="url(#hodl_svg-b)"/><path fill="#111312" d="M787.47 844.166s0-216.926 47.952-253.46c10.979-4.99 33.164 1.962 55.688 14.421 28.269 19.626 55.201 57.606 53.916 118.018-.945 44.391-28.065 72.765-59.544 90.777-36.437 17.453-98.012 30.244-98.012 30.244" clip-path="url(#hodl_svg-b)"/><path fill="#5C3115" d="M896.974 365.251v22.569L596.586 300l16.074-16.138zm-108.471 468.9s0-199.917 58.093-233.587c9.45-3.268 26.104-1.333 44.495 4.554-23.406-15.905-47.845-21.242-59.563-16.123-50.568 37.032-50.568 256.91-50.568 256.91s57.179-5.532 104.457-31.946c-48.209 16.242-96.914 20.192-96.914 20.192" clip-path="url(#hodl_svg-b)"/><path fill="#A65F25" d="M597.07 1152h-206V300h206z" clip-path="url(#hodl_svg-b)"/><path fill="#B86A29" d="M134.402 42.293c-16.133-16.133-43.718-4.707-43.718 18.108v304.85l284.313-81.389z" clip-path="url(#hodl_svg-b)"/><path fill="#7A411C" d="M853.256 42.293 612.659 283.862l284.314 81.389V60.401c.001-22.815-27.584-34.241-43.717-18.108M412.16 1152h-21.09V300h21.09z" clip-path="url(#hodl_svg-b)"/><path fill="#B97929" d="M597.07 1152h-21.09V300h21.09z" clip-path="url(#hodl_svg-b)"/><path fill="#B86A29" d="M391.07 914.867h206V588.729h-206z" clip-path="url(#hodl_svg-b)"/><path fill="#B97929" d="M575.98 567.674H391.07v21.055h184.91z" clip-path="url(#hodl_svg-b)"/><path fill="#7A411C" d="M412.16 935.729h184.91v-20.861H412.16z" clip-path="url(#hodl_svg-b)"/></g></switch></svg>