<svg xmlns="http://www.w3.org/2000/svg" xml:space="preserve" viewBox="0 0 200 200"><circle cx="100" cy="100" r="83" style="fill:#fff;stroke:#000;stroke-width:12;stroke-miterlimit:10"/><path d="M46.37 92.06V60.69c0-5.87 2.83-8.81 8.5-8.81h31.08c5.79 0 8.69 2.94 8.69 8.81v31.37H80.33V64.17H60.69v27.88H46.37z"/><path d="M94.64 138.87c0 5.83-2.9 8.75-8.69 8.75H54.88c-5.67 0-8.5-2.92-8.5-8.75v-37.6h48.27v37.6z" style="fill:#98c23a"/><path d="M104.84 101.77V61.33c0-5.87 2.94-8.81 8.81-8.81h30.92c6.04 0 9.06 2.94 9.06 8.81v22.39h-14.76v-18.9h-19.2v36.95z" style="fill:#96c12c"/><path d="M153.63 139.37c0 5.83-2.93 8.75-8.78 8.75h-31.41c-5.73 0-8.59-2.92-8.59-8.75v-37.6h48.79v37.6z"/></svg>