<svg xmlns="http://www.w3.org/2000/svg" data-name="Слой 1" viewBox="0 0 368.82 348.59"><g data-name="logo iotex color"><path d="M223.18 0v83.88L296 42z" style="fill:url(#iotx_svg-Безымянный_градиент_6)"/><path d="M296 42v83.88l72.82-42z" style="opacity:.9;isolation:isolate;fill:url(#iotx_svg-Безымянный_градиент_7)"/><path d="M223.18 83.88v83.88L296 125.88z" style="isolation:isolate;opacity:.8;fill:url(#iotx_svg-Безымянный_градиент_8)"/><path d="M296 125.88v83.88l72.82-42z" style="isolation:isolate;opacity:.8;fill:url(#iotx_svg-Безымянный_градиент_9)"/><path d="M223.18 167.76v83.89L296 209.76z" style="isolation:isolate;opacity:.8;fill:url(#iotx_svg-Безымянный_градиент_10)"/><path d="M296 209.76v83.89l72.82-42z" style="fill:url(#iotx_svg-Безымянный_градиент_11)"/><path d="M34.94 81.06v83.88l72.83-42z" style="isolation:isolate;opacity:.4;fill:url(#iotx_svg-Безымянный_градиент_12)"/><path d="M126.82 112.23v83.89l72.71-41.88z" style="isolation:isolate;opacity:.2;fill:url(#iotx_svg-Безымянный_градиент_13)"/><path d="M72.82 165.29v83.89l72.83-42z" style="isolation:isolate;opacity:.3;fill:url(#iotx_svg-Безымянный_градиент_14)"/><path d="M120.82 228.59v83.88l72.71-42z" style="opacity:.9;isolation:isolate;fill:url(#iotx_svg-Безымянный_градиент_15)"/><path d="M222.59 264.71v83.88l72.7-42z" style="isolation:isolate;opacity:.7;fill:url(#iotx_svg-Безымянный_градиент_16)"/><path d="M138.94 70.82v83.89l72.71-41.89z" style="opacity:.9;isolation:isolate;fill:url(#iotx_svg-Безымянный_градиент_17)"/><path d="M223.18 0v83.88L150.35 42z" style="isolation:isolate;opacity:.8;fill:url(#iotx_svg-Безымянный_градиент_18)"/><path d="M138.94 35.65v83.88l-72.82-42z" style="isolation:isolate;opacity:.6;fill:url(#iotx_svg-Безымянный_градиент_19)"/><path d="M211.76 77.18v83.88l-72.82-42z" style="isolation:isolate;opacity:.6;fill:url(#iotx_svg-Безымянный_градиент_20)"/><path d="M126.47 112.23v83.89l-72.82-41.88z" style="isolation:isolate;opacity:.95;fill:url(#iotx_svg-Безымянный_градиент_21)"/><path d="M223.18 167.76v83.89l-72.71-41.89z" style="isolation:isolate;opacity:.6;fill:url(#iotx_svg-Безымянный_градиент_22)"/><path d="M72.82 187.29v83.89L0 229.18z" style="isolation:isolate;opacity:.55;fill:url(#iotx_svg-Безымянный_градиент_23)"/><path d="M368.82 83.88v83.88L296 125.88z" style="fill:url(#iotx_svg-Безымянный_градиент_24)"/><path d="M296 125.88v83.88l-72.82-42z" style="isolation:isolate;opacity:.95;fill:url(#iotx_svg-Безымянный_градиент_25)"/><path d="M368.82 167.76v83.89L296 209.76z" style="opacity:.9;isolation:isolate;fill:url(#iotx_svg-Безымянный_градиент_26)"/><path d="M296 209.76v83.89l-72.82-42z" style="isolation:isolate;opacity:.7;fill:url(#iotx_svg-Безымянный_градиент_27)"/><path d="M207.06 244.71v83.88l-72.82-41.88z" style="isolation:isolate;opacity:.4;fill:url(#iotx_svg-Безымянный_градиент_28)"/><path d="M296 42v83.88l-72.82-42z" style="fill:url(#iotx_svg-Безымянный_градиент_29)"/></g></svg>