<svg xmlns="http://www.w3.org/2000/svg" width="40" height="40" viewBox="0 0 40 40"><g fill="none"><path fill="#000" d="M28.576 18.931c.057 0 .192.058.308.129.32.192.487.583.455 1.052-.019.32-.096.539-.417 1.194a27 27 0 0 1-.911 1.655c-.481.796-.712 1.213-.712 1.277 0 .02.327-.276.725-.654.75-.706 1.277-1.04 1.514-.963.321.103.417.712.206 1.322-.122.366-.45 1.027-.777 1.585-.23.379-.205.385.379.032.66-.398 1.084-.443 1.315-.128.257.346.212 1.399-.102 2.31-.07.205-.11.392-.09.41.02.02.218-.044.436-.14.225-.103.559-.219.751-.264.648-.154.924.122 1.046 1.04.11.796-.192 1.457-.744 1.656-.097.032-.11.019-.077-.103.025-.083.057-.231.083-.334.032-.166.026-.173-.09-.109-.186.097-.398.482-.475.867-.23 1.142-.52 1.707-1.277 2.477-.834.847-1.7 1.418-3.048 2.021-.629.282-1.514.84-2.458 1.553l-.276.212-.545-.5-.213-.189c-.567-.487-1.14-.868-1.597-1.05a10 10 0 0 1-.391-.16c-.013-.013.096-.155.244-.322.147-.173.288-.417.327-.564.09-.353.141-.437.34-.552.231-.128.603-.026 1.489.417.391.193.725.353.757.353.07 0 .058-.186-.032-.424-.066-.18-.048-.292.195-1.026l.055-.167c.392-1.168.494-1.592.417-1.669-.096-.096-.173.058-.622 1.2a33 33 0 0 1-.456 1.117c-.019.02-.16-.032-.32-.11-.264-.127-.29-.166-.257-.307.186-.745.295-2.426.18-2.837-.084-.288-.174-.166-.25.34-.168 1.079-.354 1.932-.43 2.01-.071.07-.116.05-.258-.116l-.166-.206v-6.032l1.424-1.835.218-.28c2.338-3.02 3-3.88 3.51-4.533.283-.36.559-.655.617-.655M16.08 28.057c.61-.578.745-.63.956-.334.16.218.25.731.25 1.43v.578l.296.315.08.09c.135.157.262.347.305.449.096.237.135 1.149.058 1.457-.026.102.038.295.212.629 1.187 2.271 1.43 2.765 1.398 2.804l-.028.007-.05-.002a1 1 0 0 1-.236-.056c-.276-.09-.603-.103-1.765-.071-.7.02-1.116-.096-1.155-.32-.02-.09.244-.508.796-1.272.167-.23.186-.365.09-.52-.045-.076-.27-.102-1.091-.128-1.373-.045-1.418-.122-.45-.853.405-.308.88-.796.938-.963.019-.064-.013-.186-.071-.276l-.11-.167-.782.045-.158.009c-.908.043-1.077-.077-.779-.49.07-.096.11-.192.083-.218-.019-.02-.397-.039-.827-.039-.738 0-1.406-.083-1.521-.186-.026-.025.289-.154.706-.282.712-.218 1.668-.655 2.104-.963.103-.077.443-.378.751-.673m2.38-5.528.014.002c.013.02.083.59.16 1.277.071.687.129 1.316.129 1.393 0 .083.025.147.057.147.033 0 .225-.256.43-.577.212-.315.398-.578.418-.578.05 0 .083.244.256 2.067.084.84.167 1.527.186 1.527.02 0 .122-.36.219-.802.102-.443.205-.802.23-.802.04 0 1.804 5.108 1.797 5.21 0 .142-.154-.025-.77-.82-.372-.489-.725-.938-.783-1.015l-.115-.135-.173.193-.048.055c-.115.13-.331.371-.523.58l-.405.443-.032-.218-.004-.032a100 100 0 0 1-.195-2.035c-.083-1.02-.173-1.88-.199-1.912-.019-.032-.263.148-.545.404-.283.257-.54.482-.578.488-.038.013-.045-.077-.025-.224.044-.328.48-4.448.48-4.57 0-.05.014-.077.033-.064Zm-8.239-3.54c.462-.058 1.419-.007 1.861.115a6 6 0 0 1 1.47.604c.43.256 1.489 1.277 1.65 1.598.127.256.192.288-.585-.302a7.4 7.4 0 0 0-2.015-1.059c-.41-.128-.616-.148-1.38-.148l-.188.001c-.646.004-.8.032-1.223.173-2.933.994-4.415 4.723-2.882 7.245.456.757 1.187 1.43 2.176 2.002.558.327.513.379-.174.205-1.264-.333-2.226-1.116-2.817-2.31-.353-.719-.507-1.386-.552-2.342-.064-1.547.34-2.772 1.303-3.94.764-.93 2.118-1.669 3.356-1.842M7.86 23.988c.096-.295.109-.276.353.404.43 1.194 1.264 2.522 2.182 3.466.224.237.41.449.41.474 0 .103-.507-.025-.988-.243-1.168-.546-1.855-1.682-2.002-3.344-.026-.346-.02-.577.045-.757m5.384-9.581c.808-.122.847-.11.32.135-.262.122-.52.237-.564.27-.237.128-.013.173.995.205 1.174.032 1.18.038 1.084.423-.038.154-.051.154-.763.154a9 9 0 0 0-1.226.096c-.5.09-1.226.392-1.226.514 0 .032.302.096.674.141 1.142.135 2.252.436 3.023.821.301.16.462.366 1.065 1.412 1.623 2.805 1.867 3.202 2.451 3.979a22 22 0 0 0 2.42 2.714l.795.751v.985c-.005.405-.03.725-.064.748-.064.038-.026.103-.898-1.38a39 39 0 0 0-2.06-3.144c-.263-.372-.5-.725-.527-.79l-.02-.041c-.027-.04-.068-.07-.101-.074-.045 0-.257-.205-.469-.456-.603-.706-1.964-1.931-2.888-2.592-.532-.385-1.232-.86-1.27-.86-.013 0-.238-.116-.5-.263-.489-.27-1.368-.636-1.823-.758-.443-.121-1.329-.154-1.893-.077-.7.103-1.682.462-2.317.848a6 6 0 0 1-.552.314c-.045 0-.61.404-1.046.757-.199.16-.36.25-.372.212-.032-.09.507-.84.975-1.373.45-.507 1.444-1.36 2.099-1.79 1.328-.886 3.273-1.67 4.678-1.881m-4.383 8.002c-.238-.648-.231-.7.07-.526.129.077.411.263.623.417 1.168.834 2.317 2.22 2.92 3.523.276.584.468 1.13.423 1.175l-.021.008-.035-.006c-.263-.073-1.28-.891-2.036-1.652-.917-.93-1.56-1.886-1.944-2.939m2.137-1.732c0-.077.686.102 1.09.288.841.38 1.457 1.11 1.727 2.022.18.616.231 1.084.167 1.566-.051.43-.045.442-.45-.462-.404-.886-1.154-1.977-1.892-2.728a15 15 0 0 1-.642-.686M21.523 9.96c.315-.09.308-.09.41.064.174.27.489 1.316.623 2.08.084.5.142 1.186.167 2.008l.039 1.245-.315-.045-.047-.007c-.455-.071-.788-.195-3.232-1.219-1.296-.545-2.368-.975-2.387-.956-.032.032.61 1.296 1.04 2.047.782 1.36 2.233 2.099 3.908 1.99.48-.033.654-.02.802.05.346.187.57.508.783 1.137.263.77.744 1.707 1.155 2.246.173.23.308.423.308.423-.007.007-.212-.032-.462-.077-1.123-.23-3.068-1.046-3.594-1.508-.603-.533-.051.321.59.905.783.719 1.913 1.341 3.203 1.771.385.128.712.244.718.25.07.065-1.822 2.279-1.938 2.279s-.77-.392-1.405-.835c-.7-.487-2.285-2.047-2.85-2.791-1.604-2.144-2.772-4.57-3.49-7.271l-.2-.732.251-.256.106-.104c.914-.84 3.378-1.98 5.817-2.694m9.838-2.17c.135.014.314.071.398.13.09.057.205.172.263.262.058.084.738 2.638 1.508 5.66 1.54 6.026 1.527 5.943 1.18 6.308a1.2 1.2 0 0 1-.378.257c-.295.096-4.87 1.091-4.896 1.065-.013-.012.045-.186.134-.385.328-.744.347-1.437.039-1.931-.212-.347-.757-.674-1.11-.674-.206 0-.27.064-1.36 1.476-.63.815-1.169 1.457-1.194 1.431-.026-.026-.61-2.528-1.31-5.551-.898-3.902-1.25-5.557-1.219-5.692.052-.225.244-.488.437-.597.276-.147 7.258-1.784 7.508-1.758m.545 7.702c-.27.25-.821.763-1.219 1.142l-.732.686-1.572-.507c-.86-.282-1.591-.5-1.623-.494-.026.007.577.578 1.347 1.265a143 143 0 0 1 1.88 1.687c.264.238.501.411.527.385.07-.07 1.925-4.53 1.906-4.582-.013-.025-.244.16-.514.418m-3.33 1.585c.443.147.937.282 1.097.308l.289.038.212.956c.115.526.199.97.18.982-.014.013-.168-.115-.334-.282a55 55 0 0 0-1.342-1.232c-.564-.507-1.033-.95-1.046-.976-.038-.096.116-.064.944.206M12.892 9.074c1.078-.27 1.508-.333 1.508-.224 0 .032-.154.096-.334.134-.526.129-1.88.604-2.554.899-.731.32-1.668.866-2.021 1.174l-.257.218.225.052.176.04c.891.223 2.668.889 3.5 1.32.585.302 1.33.809 1.33.911 0 .026-.193.071-.43.097-.983.096-2.593.494-3.742.917-1.405.527-3.19 1.483-4.28 2.304-.713.54-.713.54-.462.18.301-.437 1.219-1.386 1.777-1.836 1.207-.956 2.792-1.649 4.473-1.95l.257-.045-.456-.212-.168-.073c-.97-.4-3.113-.93-4.382-1.076a2.3 2.3 0 0 1-.475-.096c-.167-.09 2.009-1.258 3.299-1.765a26 26 0 0 1 3.016-.969m15.401 1.207c-.48 1.418-1.636 4.999-1.636 5.076 0 .057-.026.122-.064.14-.206.13.032.238 1.534.732.879.283 1.642.52 1.7.52.128 0 2.51-2.227 2.51-2.342 0-.045-.822-.937-1.817-1.977-1-1.046-1.88-1.976-1.95-2.066-.135-.173-.232-.205-.277-.083m-8.56 5.358c-.064-.18-.064-.18.14-.141.11.026.367.122.56.218.468.225.487.327.063.327-.397 0-.68-.147-.763-.404m8.65-5.012c.032.032.206.719.385 1.528l.334 1.475-.18.174c-.25.244-2.156 1.668-2.182 1.636-.019-.013.026-.135.097-.276.128-.25 1.392-4.068 1.456-4.408.026-.103.065-.16.09-.129m-14.137-1-.051.461-.015.126c-.047.433-.026.535.092.535.07 0 .115.135.166.514.11.731.135 1.456.058 1.488-.038.007-.308-.128-.61-.301a14.6 14.6 0 0 0-2.194-1.066c-.276-.102-.5-.205-.5-.224 0-.135.789-.738 1.264-.97.61-.294 1.373-.557 1.63-.564zm9.812-3.081c2.246-.424 2.714-.462 3.112-.257.135.07.308.212.379.315.16.218.584 1.097.584 1.2 0 .045-.36.128-.911.218-4.037.635-7.348 1.591-9.87 2.855-.77.386-1.284.687-1.746 1.034-.43.327-.385.417-.539-1.04-.109-.988-.109-1.046 0-1.335.103-.27.16-.32.54-.513.52-.263 2.034-.86 2.74-1.085 1.713-.545 3.426-.962 5.711-1.392m-6.2-4.334.04.002c.038 0 .153.18.269.392.545.994 1.65 4.068 1.514 4.203-.032.032-.166.077-.288.096l-.225.039-.218-.469-.07-.15c-.645-1.37-1.867-3.31-2.01-3.174-.019.02.026.205.097.417.327.937.77 3.036.77 3.632 0 .18-.032.238-.16.296a.8.8 0 0 1-.25.077c-.04 0-.251-.231-.456-.514-.206-.282-.398-.494-.424-.468-.02.032-.083.353-.141.718-.096.661-.193.892-.295.726-.026-.045-.084-.693-.129-1.444a27 27 0 0 0-.109-1.54c-.019-.097-.006-.174.026-.174s.282.212.552.475c.27.257.5.456.513.43.052-.096-.642-2.169-1.078-3.221-.038-.09.026-.122.392-.18.442-.077 1.604-.186 1.72-.167ZM12.61 3.587c.513-.327.95-.436 1.238-.32.11.038.116.122.11.943a29 29 0 0 1-.046 1.354l-.045.456-1.193-.032-.359-.008c-1.157-.013-1.948.087-3.068.373-.404.103-.777.2-.821.206h-.034l-.03-.015a.12.12 0 0 1-.04-.062c-.038-.231 1.438-1.284 3.094-2.208.494-.282 1.033-.59 1.194-.687m6.455-1.405.385.655.084.143c.655 1.138 1.604 3.14 1.604 3.399 0 .11-.43.218-.507.128a2 2 0 0 1-.167-.346c-.282-.674-1.142-2.4-1.566-3.125-.25-.437-.455-.803-.455-.822 0-.02.141-.032.308-.032zm1.206.064.154.001c.292.007.945.049 1.535.096.641.05 1.238.109 1.328.128l.32.064c.2.045.354.289.803 1.251.295.649.731 1.797.687 1.83a12 12 0 0 1-.732.121 56 56 0 0 0-1.585.289c-.834.173-1.001.173-1.001-.013 0-.135-1.014-2.22-1.438-2.952-.513-.879-.513-.815.007-.815Z"/><path fill="#FFF" d="M21.427 10.313c.16.391.244.808.327 1.688.084.936.238 2.233.327 2.772.039.276.148.333.148.083 0-.09-.045-.443-.096-.79-.045-.34-.135-1.129-.193-1.745s-.134-1.251-.167-1.399c-.083-.391-.23-.718-.32-.718-.045 0-.052.045-.026.109m1.38 7.508c0 .282.898 2.349 1.193 2.74.2.276.148.026-.083-.391a13 13 0 0 1-.854-1.88c-.147-.411-.256-.61-.256-.469"/><path fill="#000" d="M15.215.563C20.31-.669 25.572.133 30.109 2.835c2.837 1.688 5.436 4.345 7.047 7.207 1.745 3.087 2.599 6.282 2.599 9.71.006 2.329-.296 4.202-1.008 6.34-.642 1.925-1.72 3.99-2.907 5.563-.84 1.123-2.4 2.74-3.472 3.607-3.163 2.56-6.828 4.023-11.005 4.376-4.447.385-9.363-.994-13.02-3.651-4.307-3.119-7.156-7.643-8.055-12.77-.969-5.52.533-11.327 4.069-15.723.545-.68 1.79-1.97 2.554-2.644 2.291-2.02 5.262-3.555 8.304-4.287m5.859 1.027c-1.823-.135-3.972.07-5.795.546-2.265.59-4.87 1.86-6.526 3.183-.231.18-.533.423-.674.532-.821.636-2.612 2.6-3.286 3.607C2.611 12.71 1.565 16.1 1.565 19.886c0 3.042.617 5.59 2.035 8.362a18.06 18.06 0 0 0 7.816 7.841c2.182 1.123 4.62 1.83 6.963 2.015 4.03.321 7.803-.616 11.365-2.817 1.643-1.014 3.747-2.958 4.8-4.428 1.963-2.753 3.048-5.364 3.51-8.47.167-1.11.173-4.14.006-5.121-.577-3.498-2.027-6.732-4.087-9.12-.2-.23-.45-.526-.552-.648-.398-.474-1.444-1.456-2.06-1.925-1.893-1.45-3.337-2.246-5.506-3.029-1.47-.526-2.907-.815-4.781-.956"/></g></svg>