<svg xmlns="http://www.w3.org/2000/svg" id="loom_svg-_ÎÓÈ_1" data-name="ÎÓÈ 1" viewBox="0 0 167.83 148.67"><defs><style>.loom_svg-cls-2{fill:#3c91e6}</style></defs><path d="M133.44 154.34 18.74 73.87a29.73 29.73 0 0 1 0-48.67l27.8-19.54 114.7 80.46a29.73 29.73 0 0 1 0 48.67ZM46.52 18.7 24.86 33.85a19.1 19.1 0 0 0 0 31.31l108.6 76.14 21.66-15.15a19.1 19.1 0 0 0 0-31.31Z" style="fill:#48beff" transform="translate(-6.09 -5.66)"/><path d="M40.33 135.64 18.7 120.47a19.1 19.1 0 0 1 0-31.31l56-39.08-9.2-6.48-52.85 36.87a29.73 29.73 0 0 0 0 48.67l27.7 19.45 34.28-24-9.2-6.48ZM155.19 19.59 127.46.14l-34.3 24 9.2 6.48 25.06-17.54 21.63 15.17a19.1 19.1 0 0 1 0 31.31l-56 39.08 9.2 6.48 52.88-36.94a29.73 29.73 0 0 0 0-48.67Z" class="loom_svg-cls-2"/><path d="m19.21 75.8 43.62-30.52 6.08 8.68-43.62 30.53Zm124.25-12.3-21.24 14.84 6.07 8.69 22-15.43c-2.34-2.67-4.6-5.4-6.87-8.14Z" class="loom_svg-cls-2"/></svg>