<svg xmlns="http://www.w3.org/2000/svg" height="64" class="lpt_svg-logo" viewBox="0 0 250.1 70"><path d="M88.3 14.3c-6.8 0-12.1 3.5-14.9 8.2-2.2 3.7-3 7.9-3 12.6 0 5.6 1.6 10.8 4.9 14.6 3 3.6 7.5 5.9 13.1 5.9 3.7 0 7.2-1.1 10-3 3.2-2.2 5.5-5.8 6.1-9.7H98c-.5 2.1-1.2 3.2-2.3 4.3-1.6 1.7-4.2 2.6-7.3 2.6-3 0-5.4-1-7.2-2.8-2.4-2.4-3.8-6.3-3.8-9.9h27.9l.1-4c.1-5.3-1.8-10.4-5-13.9-3-3-7-4.9-12.1-4.9M77.5 31.5c.2-5.8 3.7-11.6 10.8-11.6 3.5 0 6.1 1.4 7.8 3.6 1.6 2.1 2.4 5.1 2.4 8zM128 14.4c-4.4 0-9.5 2.2-11.8 6.1l-1.2-5.1h-5.1V70h6.6V50.1c2.1 3.6 7.2 5.6 11.4 5.6 4.6 0 8.2-1.6 10.8-4 4-3.8 6-10 6-16.8 0-6.5-1.9-12.5-5.7-16.3-2.4-2.6-6.2-4.2-11-4.2m-1.1 35.8c-2.9 0-4.8-1.2-6.4-2.6-3.3-2.9-4.4-7.6-4.4-12.5s1.1-9.7 4.4-12.5c1.6-1.4 3.5-2.6 6.4-2.6 8.8 0 11.1 7.9 11.1 15.1s-2.3 15.1-11.1 15.1m40.4-35.9c-6.8 0-12.1 3.5-14.9 8.2-2.2 3.7-3 7.9-3 12.6 0 5.6 1.6 10.8 4.9 14.6 3 3.6 7.5 5.9 13.1 5.9 3.7 0 7.2-1.1 10-3 3.2-2.2 5.5-5.8 6.1-9.7H177c-.5 2.1-1.2 3.2-2.3 4.3-1.6 1.7-4.2 2.6-7.3 2.6-3 0-5.4-1-7.2-2.8-2.4-2.4-3.8-6.3-3.8-9.9h27.9l.1-4c.1-5.3-1.8-10.4-5-13.9-3-3-7-4.9-12.1-4.9m-10.8 17.2c.2-5.8 3.7-11.6 10.8-11.6 3.5 0 6.1 1.4 7.8 3.6 1.6 2.1 2.4 5.1 2.4 8zm50.3-17.2c-6.8 0-12.1 3.5-14.9 8.2-2.2 3.7-3 7.9-3 12.6 0 5.6 1.6 10.8 4.9 14.6 3 3.6 7.5 5.9 13.1 5.9 3.7 0 7.2-1.1 10-3 3.2-2.2 5.5-5.8 6.1-9.7h-6.5c-.5 2.1-1.2 3.2-2.3 4.3-1.6 1.7-4.2 2.6-7.3 2.6-3 0-5.4-1-7.2-2.8-2.4-2.4-3.8-6.3-3.8-9.9h27.9l.1-4c.1-5.3-1.8-10.4-5-13.9-3-3-7-4.9-12.1-4.9M196 31.5c.2-5.8 3.7-11.6 10.8-11.6 3.5 0 6.1 1.4 7.8 3.6 1.6 2.1 2.4 5.1 2.4 8zm54.1-11.1-1.5-4.8-13.9 4.9-1.2-5.1h-5.1v39.3h6.6V26.8zM44 47.5h7.3v7.3H44zm0-32.2h7.3v7.3H44zm17.2 0h7.3v7.3h-7.3zm-34.3 0h7.3v7.3h-7.3zm25.7 16.1h7.3v7.3h-7.3zm-17.2 0h7.3v7.3h-7.3zM13.3 0h7.3v7.3h-7.3zM0 0h6.6v54.6H0zm13.6 15.3h6.6v39.4h-6.6z"/></svg>