<svg xmlns="http://www.w3.org/2000/svg" width="73" height="80" viewBox="0 0 73 80"><path fill="#16141A" d="M22.672 19.008 2.176 43.6A31.7 31.7 0 0 1 0 32C0 14.32 14.32 0 32 0s32 14.32 32 32c0 9.776-4.384 18.528-11.296 24.4H11.296A33.5 33.5 0 0 1 6.4 51.2h36.544V37.344L54.48 51.2h3.12L42.928 33.6l-4.048 4.864zM42.928 12.8c-4.416 0-8 3.584-8 8s3.584 8 8 8 8-3.584 8-8-3.584-8-8-8M22.672 7.008c-2.208 0-4 1.792-4 4s1.792 4 4 4 4-1.792 4-4-1.792-4-4-4M14.512 58.8h34.976A31.9 31.9 0 0 1 32 64a31.9 31.9 0 0 1-17.488-5.2m22.816-18.464L30.272 48.8H4.768a32 32 0 0 1-2.592-5.2h20.496V22.752z"/></svg>