<svg xmlns="http://www.w3.org/2000/svg" width="485" height="382" fill="none" viewBox="0 0 485 382"><path fill="#2BBDF7" fill-rule="evenodd" d="m187.763 158.848 54.147 120.084 80.59-46.457.061-.024v-92.987z" clip-rule="evenodd"/><path fill="#2891F9" fill-rule="evenodd" d="m426.827 69.745-50.302-18.947-53.759-4.342v288.967l80.65 46.482 63.657-130.274-40.149-125.968z" clip-rule="evenodd"/><path fill="#2BBDF7" fill-rule="evenodd" d="m421.773 46.553-18.68 46.469h-.024v288.931l80.663-46.469V46.553z" clip-rule="evenodd"/><path fill="#2B6DEF" fill-rule="evenodd" d="m403.428 0-80.662 46.506 80.662 46.493 80.663-46.493z" clip-rule="evenodd"/><path fill="#2891F9" fill-rule="evenodd" d="M241.965 185.924v-.024l-80.651-90.246L0 46.456v288.931l80.639 46.493 23.046-159.894 57.629 10.468v-.049l80.663 46.481v-92.962z" clip-rule="evenodd"/><path fill="#2B6DEF" fill-rule="evenodd" d="M80.687 0 0 46.493 241.94 186.01l36.56-21.069 44.091-25.436z" clip-rule="evenodd"/><path fill="#2BBDF7" fill-rule="evenodd" d="M80.704 185.92h-.013v195.944l80.663-46.481v-102.97z" clip-rule="evenodd"/></svg>