<svg xmlns="http://www.w3.org/2000/svg" xmlns:xlink="http://www.w3.org/1999/xlink" xml:space="preserve" viewBox="0 0 42 48"><path d="m8.2 35.1 12.4 7.8h1.5l12.2-7.8-1.9-1.5-11.1 7.1-11.5-7.1zm6-18.1 7-10.6 7.2 10.7 1.7-1.5-8-12s-.7-.9-1.8 0l-8.2 12.3z" style="fill:#bfbfbf"/><path d="M21.4 38.4c.4-1.4.9-2.7 1.3-4.1 1.8-5.6 3.6-11.3 5.4-16.9.1-.3.2-.7.3-1 .2-.6.5-.9 1.1-.9s1 .4 1.1.9c.5 2 .9 4.1 1.4 6.1.9 3.8 1.7 7.7 2.6 11.5.2.9-.1 1.5-.8 1.7s-1.2-.3-1.4-1.2c-1-4.3-2-8.6-2.9-13 0-.2-.1-.3-.2-.6-.1.3-.2.6-.3.8-1.9 5.8-3.7 11.6-5.6 17.4-.3 1.1-.7 2.1-1 3.2-.2.7-.6 1-1.2 1s-1-.3-1.2-1c-2.2-6.9-4.4-13.8-6.5-20.7-.1-.2-.1-.3-.2-.7q-.3 1.5-.6 2.7c-.8 3.6-1.6 7.3-2.4 10.9-.2 1-1 1.5-1.8 1-.5-.3-.6-.8-.5-1.4 1.1-5 2.3-10 3.4-15 .2-.8.4-1.6.5-2.4q.3-1.2 1.2-1.2t1.2 1.2c2.3 7.2 4.6 14.5 6.8 21.7z"/><image xlink:href="logo-black-d7fd3f3ed38d7e1692d3d5267ac5f303.png" width="230" height="330" style="overflow:visible" transform="translate(7.36 3.137)scale(.1217)"/></svg>