<svg xmlns="http://www.w3.org/2000/svg" xml:space="preserve" style="fill-rule:evenodd;clip-rule:evenodd;stroke-linejoin:round;stroke-miterlimit:1.41421" viewBox="0 0 609 359"><path d="M103.439 61.926c-10.179 0-18.431-8.252-18.431-18.43 0-10.179 8.252-18.43 18.431-18.43s18.431 8.251 18.431 18.43-8.252 18.43-18.431 18.43m0-60.934c-11.952 0-22.745 4.94-30.468 12.882 7.445 7.656 12.037 18.1 12.037 29.622s-4.592 21.967-12.037 29.623C80.694 81.06 91.487 86 103.439 86c23.475 0 42.505-19.03 42.505-42.504S126.914.992 103.439.992" style="fill:#00b3f0;fill-rule:nonzero" transform="scale(4.16667)"/><path d="M42.504 61.926c-10.179 0-18.431-8.252-18.431-18.43 0-10.179 8.252-18.43 18.431-18.43s18.43 8.251 18.43 18.43-8.251 18.43-18.43 18.43m30.467-48.052C65.249 5.932 54.456.992 42.504.992 19.029.992 0 20.022 0 43.496S19.029 86 42.504 86c11.952 0 22.745-4.94 30.467-12.881-7.444-7.656-12.036-18.101-12.036-29.623s4.592-21.966 12.036-29.622" style="fill:#d91b5b;fill-rule:nonzero" transform="scale(4.16667)"/><path d="M60.932 43.501c0 11.522 4.591 21.966 12.036 29.622 7.445-7.656 12.036-18.1 12.036-29.622 0-11.523-4.591-21.967-12.036-29.622-7.445 7.655-12.036 18.099-12.036 29.622" style="fill:#19396a;fill-rule:nonzero" transform="scale(4.16667)"/></svg>