<svg xmlns="http://www.w3.org/2000/svg" xmlns:xlink="http://www.w3.org/1999/xlink" width="148" height="50" viewBox="0 0 148 50"><linearGradient id="mnz_svg-a"><stop offset="0" stop-color="#b92484"/><stop offset=".023" stop-color="#b92484"/><stop offset="1" stop-color="#7d358b"/></linearGradient><linearGradient xlink:href="#mnz_svg-a" id="mnz_svg-b" x1="27.09" x2="39.899" y1="25.233" y2="25.233" gradientUnits="userSpaceOnUse"/><linearGradient xlink:href="#mnz_svg-a" id="mnz_svg-c" x1="15.539" x2="28.347" y1="25.233" y2="25.233" gradientUnits="userSpaceOnUse"/><linearGradient xlink:href="#mnz_svg-a" id="mnz_svg-d" x1="10.642" x2="19.06" y1="26.484" y2="26.484" gradientUnits="userSpaceOnUse"/><linearGradient xlink:href="#mnz_svg-a" id="mnz_svg-e" x1="25.932" x2="30.887" y1="25.223" y2="25.223" gradientUnits="userSpaceOnUse"/><path fill="#7f368a" d="M25.3 2.7c12.4 0 22.5 10.1 22.5 22.5S37.7 47.7 25.3 47.7 2.8 37.6 2.8 25.2 12.9 2.7 25.3 2.7m0-1.8C11.8.9.9 11.8.9 25.2c0 13.5 10.9 24.4 24.4 24.4s24.4-10.9 24.4-24.4C49.6 11.8 38.7.9 25.3.9"/><path fill="url(#mnz_svg-b)" d="M39.9 34.5c-.2-1.2-.6-2.4-.9-3.5l-.9-3.6-2.4-9c-.2-.7-.3-1.4-.5-2.1-.1-.3-.2-.7-.5-.9-.3-.1-.6-.1-.9-.1h-3.7c-.6 0-1.1 0-1.7.1-.5.1-1 .4-1.2.9-.1.2 0 .5.2.6.1.1.3 0 .4-.1.1 0 .4-.3.5-.3L33 33.8v.1c.1.4.3.8.6.9.2.1.4.2.7.2h5c.3.1.7-.1.6-.5"/><path fill="url(#mnz_svg-c)" d="M28.3 34.5c-.2-1.2-.6-2.4-.9-3.5l-.9-3.6-2.4-9c-.2-.7-.3-1.4-.5-2.1-.1-.3-.2-.7-.5-.9-.3-.1-.6-.1-.9-.1h-3.7c-.6 0-1.1 0-1.7.1-.5.1-1 .4-1.2.9-.1.2 0 .5.2.6.1.1.3 0 .4-.1.1 0 .4-.3.5-.3l4.7 17.3v.1c.1.4.3.8.6.9.2.1.4.2.7.2h5c.3.1.7-.1.6-.5"/><path fill="url(#mnz_svg-d)" d="m19.1 30.7-3.2-12.5c0-.2-.2-.4-.5-.4-.2 0-.4.2-.5.4L10.7 34v.2c0 .5.4 1 1 1H17c.4 0 .8-.3.9-.7z"/><path fill="url(#mnz_svg-e)" d="m30.9 30.4-3.5-12.6c0-.2-.2-.3-.4-.3s-.4.1-.4.3l-.7 2.5 3.5 12.2c.1.2.2.3.4.3s.3-.1.4-.3z"/><path fill="#222e3b" d="M97.9 25.9v6.7c0 .1.1.3.3.3h2.6c.1 0 .3-.1.3-.3v-8c0-2-1.7-3.6-3.7-3.6-1.4 0-2.7.8-3.3 1.9v-1.7c0-.1-.1-.3-.3-.3h-2.6c-.1 0-.3.1-.3.3v11.3c0 .1.1.3.3.3h2.6c.1 0 .3-.1.3-.3v-6.8c0-1 .9-1.9 2-1.9.9.2 1.8 1 1.8 2.1m-15.4-4.8c-3.3 0-6.1 2.6-6.1 5.9s2.7 5.9 6.1 5.9c3.3 0 6.1-2.6 6.1-5.9s-2.7-5.9-6.1-5.9m0 9c-1.7 0-3.2-1.4-3.2-3.1s1.4-3.1 3.2-3.1c1.7 0 3.2 1.4 3.2 3.1s-1.4 3.1-3.2 3.1m-23-12.3v14.9c0 .1.1.3.3.3h2.6c.1 0 .3-.1.3-.3v-9l3.2 5.2c0 .1.1.1.2.1h1.7c.1 0 .1 0 .2-.1l3.3-5.2v9c0 .1.1.2.2.2h2.6c.1 0 .2-.1.2-.2V17.8c0-.1-.1-.3-.3-.3h-2.6c-.1 0-.2.1-.2.1l-4.3 7.6-4.3-7.6c0-.1-.1-.1-.2-.1h-2.6q-.3 0-.3.3m56.1 14.7L111 21.2c0-.1-.1-.2-.2-.2h-2.6c-.1 0-.2.1-.2.1l-4.7 11.3v.1c0 .1.1.3.3.3h2.6c.1 0 .2-.1.2-.2l.6-1.6c.7.3 1.6.5 2.5.5s1.8-.2 2.5-.5l.6 1.6c0 .1.1.1.2.1h2.6c.1 0 .3-.1.3-.3-.1.2-.1.2-.1.1m-6.1-3.5c-.6 0-1.1-.1-1.6-.3l1.3-3.5c0-.1.1-.2.2-.2s.2.1.2.2l1.4 3.6c-.5.1-1 .2-1.5.2m11.3-7.9h-2.6c-.1 0-.3.1-.3.3v11.3c0 .1.1.3.3.3h2.6c.1 0 .3-.1.3-.3V21.3c-.1-.1-.2-.2-.3-.2m0-3.6h-2.6c-.1 0-.3.1-.3.3v1.7c0 .1.1.3.3.3h2.6c.1 0 .3-.1.3-.3v-1.7q-.15-.3-.3-.3m12.3 6.3c0 .1 0 .1-.1.2l-5.8 6h5.6c.1 0 .3.1.3.3v2.4c0 .1-.1.3-.3.3h-9.3c-.1 0-.3-.1-.3-.3v-2.4c0-.1 0-.1.1-.2l5.5-5.9h-5.4c-.1 0-.3-.1-.3-.3v-2.5c0-.1.1-.3.3-.3h9.3c.1 0 .3.1.3.3zm12.8-.3c-1-1.5-2.7-2.5-4.6-2.5s-3.6 1-4.7 2.5c-.7 1-1.1 2.1-1.1 3.4 0 3.3 2.8 5.9 6.3 5.9 1.8 0 3.4-.8 4.5-1.9l.1-.1c0-.1 0-.1-.1-.2l-1.4-1.5c0-.1-.1-.1-.2-.1s-.1 0-.2.1c-.6.6-1.5 1-2.6 1-1.7 0-3.1-1-3.1-2.2h8.1c.1 0 .3-.1.3-.3V27c-.1-1.3-.5-2.5-1.3-3.5m-7.1 2.6c0-1.3 1.1-2.4 2.6-2.4 1.4 0 2.6 1.1 2.6 2.4z"/></svg>