<svg xmlns="http://www.w3.org/2000/svg" xml:space="preserve" viewBox="0 0 300 300"><path d="M104.728 97.412 150 162.345l45.25-64.933 34.019 58.461h70.435c.075-1.964.296-3.891.296-5.873C300 67.158 232.842 0 150 0 67.155 0 0 67.158 0 150c0 1.982.219 3.909.296 5.873h70.433zm-76.307 40.402C34.558 76.132 86.729 27.805 150 27.805s115.44 48.327 121.576 110.009h-18.218c-6.064-51.69-50.067-91.95-103.358-91.95-53.293 0-97.297 40.26-103.361 91.95z" style="fill:#4cb860"/><path d="M193.875 130.954 150 193.948l-43.894-62.994-25.008 42.977H2.085C13.568 245.369 75.321 300 150 300c74.674 0 136.429-54.631 147.911-126.069h-79.013zm51.342 61.036h19.387c-17.176 46.724-61.991 80.205-114.604 80.205-52.616 0-97.433-33.481-114.609-80.205h19.391c16.18 36.549 52.742 62.146 95.217 62.146 42.474 0 79.036-25.598 95.218-62.146" style="fill:#658289"/></svg>