<svg xmlns="http://www.w3.org/2000/svg" xml:space="preserve" width="292" height="292" viewBox="0 0 292 292"><defs><clipPath id="neu_svg-a" clipPathUnits="userSpaceOnUse"><path d="M0 1095c0 604.76 490.262 1095 1094.99 1095C1699.74 2190 2190 1699.76 2190 1095 2190 490.242 1699.74 0 1094.99 0 490.262 0 0 490.242 0 1095" clip-rule="evenodd"/></clipPath><clipPath id="neu_svg-b" clipPathUnits="userSpaceOnUse"><path d="M0 0h2190v2190H0Z"/></clipPath><clipPath id="neu_svg-c" clipPathUnits="userSpaceOnUse"><path d="m805.477 635.641 284.973-168.809 260.38 154.238-545.353 861.46ZM755.59 1533.89l-199.242-118V783.195L755.59 665.172Zm613.53 33.3-278.67 165.04-267.04-158.17-11.945-7.08 557.655-880.835zm49.89-905.764 205.55 121.769v632.695l-205.55 121.74zm262.11 88.258-590.67-349.848-590.657 349.848v699.696l590.657 349.87 590.67-349.87z" clip-rule="evenodd"/></clipPath><clipPath id="neu_svg-d" clipPathUnits="userSpaceOnUse"><path d="M0 0h2190v2190H0Z"/></clipPath></defs><g clip-path="url(#neu_svg-a)" transform="matrix(.13333 0 0 -.13333 0 292)"><g clip-path="url(#neu_svg-b)"><path fill="#d6e300" d="M0 0h2240v2240H0Z"/></g></g><g clip-path="url(#neu_svg-c)" transform="matrix(.13333 0 0 -.13333 0 292)"><g clip-path="url(#neu_svg-d)"><path fill="#1d2e37" d="M449.793 349.836h1281.33v1499.42H449.793Z"/></g></g></svg>