<svg xmlns="http://www.w3.org/2000/svg" id="nexo_svg-Слой_1" data-name="Слой 1" viewBox="0 0 99.46 86.14"><defs><style>.nexo_svg-cls-1{fill:#3ca9e5}.nexo_svg-cls-2{fill:#2853c3}</style></defs><g id="nexo_svg-Page-1"><g id="nexo_svg-logo-nexo-symbol"><path id="nexo_svg-Shape" d="m26.3.62 48.78 28.16v28.71L.5 14.42 24.43.62a1.91 1.91 0 0 1 1.91 0" class="nexo_svg-cls-1" transform="translate(-.5 -.07)"/><path id="nexo_svg-Shape-2" d="M74.58 0 49.73 14.36l24.85 14.35z" class="nexo_svg-cls-2" data-name="Shape"/><path id="nexo_svg-Shape-3" d="M75.08.07 99 13.87a1.91 1.91 0 0 1 1 1.67v56.31L75.08 57.49Z" data-name="Shape" style="fill:#1a4199" transform="translate(-.5 -.07)"/><path id="nexo_svg-Shape-4" d="m100 71.85-24 13.8a2 2 0 0 1-1.91 0L25.35 57.49V28.74Z" class="nexo_svg-cls-2" data-name="Shape" transform="translate(-.5 -.07)"/><path id="nexo_svg-Shape-5" d="M.5 14.42v56.32a1.91 1.91 0 0 0 1 1.67l23.93 13.8V28.74Z" data-name="Shape" style="fill:#60beff" transform="translate(-.5 -.07)"/><path id="nexo_svg-Shape-6" d="m24.89 86.14 24.84-14.36-24.84-14.35z" class="nexo_svg-cls-1" data-name="Shape"/></g></g></svg>