<svg xmlns="http://www.w3.org/2000/svg" width="78" height="90" viewBox="0 0 78 90"><path fill="#050708" d="M37.795.058a3.17 3.17 0 0 1 2.551.616Q58.031 13.6 75.717 26.522c.812.596 1.32 1.603 1.28 2.614q.004 14.84 0 29.683c.049 1.073-.523 2.131-1.408 2.727a52413 52413 0 0 1-35.245 25.757c-1.156.933-2.912.858-4.032-.1Q18.759 74.369 1.2 61.542c-.88-.604-1.437-1.644-1.422-2.715q-.009-14.836 0-29.673a3.29 3.29 0 0 1 1.41-2.715Q18.75 13.607 36.31.771c.44-.331.936-.605 1.485-.713m-.422 80.022c-.054 1.393-.02 2.788-.022 4.18q.912.017 1.825.002.01-2.048 0-4.094a21 21 0 0 0-1.803-.088m-7.288-3.671-.683.005c.727 1.258 1.426 2.537 2.174 3.786.612-.005 1.222-.005 1.834-.038-.243-.664-.575-1.286-.925-1.899l-.53-.916a20 20 0 0 1-.504-.929 71 71 0 0 0-2.05-.004Zm11.424 1.917c-.009.61-.009 1.22.013 1.834q.85.003 1.706 0c.075-.595.08-1.194.069-1.79a24 24 0 0 0-1.788-.044m-1.932-9.822c-2.563.018-5.125-.018-7.689.02a66 66 0 0 0-.002 1.722c2.268.05 4.542.008 6.813.022-.002 1.37.002 2.741-.002 4.114-.468.004-.934-.014-1.397.035-.133.543-.062 1.11-.073 1.664.821.024 1.642.022 2.463.004q.376-.412.763-.814c-.003-1.963-.007-3.923.004-5.882q-.44-.444-.88-.885m13.592 2.301c-.581-.278-1.198-1.231-1.877-.66-2.02 1.326-4.1 2.557-6.094 3.923.005.563.01 1.131.049 1.697a248 248 0 0 0 5.602-.005q.012-.9.005-1.798-.69-.016-1.376-.016l-.86.007c1.483-1.03 3.036-1.954 4.553-2.932zm-22.954 1.01c-2.423-.028-4.85-.015-7.274-.006a50 50 0 0 0-.002 1.808c2.426.01 4.85.027 7.276-.009q.007-.898 0-1.792m-9.745-2.644-.898.006q-.014.902-.003 1.807.899.012 1.804-.002.01-.903-.002-1.8-.9-.019-1.8-.005Zm34.926-6.453c-.024.982-.015 1.967-.011 2.952.976 1.481 1.932 2.97 2.919 4.442.82-1.244 1.621-2.503 2.457-3.739.157-.272.403-.534.381-.871.023-.9.009-1.801-.013-2.7-.759 1.211-1.566 2.39-2.32 3.602-.168.229-.293.526-.57.643-.98-1.422-1.885-2.894-2.843-4.33m-5.834-2.212c-1.142.007-2.283-.009-3.426.013a328 328 0 0 1-2.094 7.347q.882.007 1.766.008.787-2.838 1.579-5.68.479.022.958.049c.51 1.874 1.053 3.74 1.555 5.616a61 61 0 0 0 1.767.013zm-32.368 4.138c-1.6-.012-3.202-.038-4.802.015q-.007.887.003 1.774c1.588.03 3.182.067 4.77-.01.076-.592.038-1.187.03-1.78m9.6-4.21c-2.205 1.35-4.377 2.756-6.552 4.154-.007.576-.01 1.153.008 1.73 3.427.033 6.853.018 10.28.007.017-.608.015-1.216.004-1.823-2.313-.034-4.626.017-6.938-.027 1.595-.956 3.143-1.99 4.722-2.972-.503-.366-1.015-.712-1.523-1.07m7.722-1.335-.91.006c-.024 2.247 0 4.496-.013 6.742.138.025.413.073.55.1.43-.04.861-.06 1.291-.077-.009-2.256.007-4.511-.009-6.767a84 84 0 0 0-1.818.002Zm5.603 1.665q-.949.126-1.905.116a298 298 0 0 1 2.131 3.748c.595-.005 1.191-.005 1.788-.01-.384-1.4-1.266-2.622-2.014-3.854m25.157.86a36 36 0 0 0-1.874.007q-.014.887.002 1.775c.623.026 1.247.026 1.872.01q.003-.896 0-1.791m-44.784-7.172c-.998 1.444-1.898 2.954-2.905 4.391-.938-1.455-1.89-2.907-2.84-4.358-.03.994-.02 1.992-.01 2.988.984 1.415 1.9 2.876 2.845 4.318 1.02-1.435 1.93-2.948 2.923-4.403-.008-.978.007-1.958-.013-2.936m5.118 1.893-.448.003a20 20 0 0 0-.011 1.861c.602.007 1.203.004 1.803 0a40 40 0 0 0 .002-1.817 20 20 0 0 0-1.794-.044Zm24.414-4.889q-.461.414-.91.839c-.002.798-.006 1.594.013 2.39q.872.006 1.748-.006.015-.739.01-1.477c1.36.002 2.718 0 4.082.002-.02 1.617-.01 3.232-.007 4.848.59.018 1.182.02 1.774.016q.001-2.883-.002-5.767-.44-.417-.88-.838c-1.942-.004-3.885.009-5.828-.007M4.131 50.308l-.763.003q-.434.42-.863.84c.01 1.961-.035 3.924.017 5.885.15.352.486.662.819.851 1.993.058 3.99.004 5.983.024q.835 0 1.672-.004.008-.851-.007-1.701c-2.247-.027-4.494-.005-6.74-.011-.018-1.376 0-2.75-.011-4.126.474-.004.947-.007 1.421-.018q.008-.865-.004-1.732a88 88 0 0 0-2.287-.008Zm39.622 1.516c-2.162 1.439-4.393 2.774-6.555 4.214.004.581.004 1.164.091 1.74 3.417 0 6.833.013 10.248-.007q.026-.942.002-1.885c-2.282-.028-4.564.016-6.846-.024 1.524-1.013 3.111-1.93 4.606-2.98-.523-.342-1.03-.703-1.546-1.058m24.34-.277c-2.173 1.372-4.35 2.739-6.505 4.143q-.009.879.005 1.76 5.116.015 10.233-.001.01-.916.002-1.832c-2.297-.016-4.593.01-6.889-.014q2.343-1.487 4.689-2.983a53 53 0 0 0-1.535-1.073m-40.743-7.93-.599.006q-.021 5.124.003 10.248c.605.015 1.212.015 1.82.01.074-2.276-.11-4.563.114-6.83 1.238 2.085 2.588 4.104 3.881 6.158q.31-.006.624-.01a5 5 0 0 1-.007-.767l.02-.392c.026-.587.01-1.165-.362-1.646-1.437-2.253-2.889-4.497-4.296-6.766a49 49 0 0 0-1.797-.005Zm33.564 3.697c-.597-.093-1.202-.053-1.801-.044q-.03 3.172 0 6.346.906.018 1.814.002c.011-2.1.045-4.206-.013-6.304M20.636 49.69c-2.098.067-4.207-.113-6.296.113-.005.595-.005 1.189.01 1.783 2.635.022 5.268.005 7.907.009a85 85 0 0 0-.002-1.832 14 14 0 0 0-1.619-.073m52.543-8.084c-1.976-.047-3.958-.027-5.937-.007q-.395.412-.796.814c-.002.779-.004 1.56.007 2.338q.87.004 1.743-.009c.009-.474.009-.947.011-1.42 1.382.012 2.763-.017 4.145.02-.004 2.542.003 5.086-.004 7.628.563.007 1.127.004 1.69.007-.031-.555.12-1.098.088-1.65.02-.677-.01-1.354.007-2.03-.009-1.409 0-2.82 0-4.228.108-.656-.455-1.155-.954-1.463M43.418 48.51l-.88.002q-.006.91 0 1.819.88.014 1.76 0a72 72 0 0 0 0-1.817c-.586-.006-1.174-.004-1.76-.002Zm-6.85-3.577q-.915-.016-1.83.004a270 270 0 0 0-.001 4.469q.917.022 1.834.004c.004-1.492.006-2.985-.002-4.477m16.905 2.066-1.859.014a35 35 0 0 0-.009 1.8c1.573.179 3.16.041 4.744.088.315-.034.736.108.912-.249.053-.55.006-1.103-.069-1.646-1.86-.004-3.72-.017-5.578.007Zm-6.78-.07-.897.004a82 82 0 0 0 0 1.821q.897.006 1.795.002.017-.91 0-1.823a98 98 0 0 0-1.795 0ZM12.758 41.67H10.92c-.005 1.93.002 3.862-.007 5.791h1.847c-.002-1.93.002-3.86-.002-5.791m8.346-2.284c-1.135-.018-2.269-.011-3.404-.005-.717 2.45-1.413 4.909-2.112 7.364q.875.005 1.76.006c.47-1.89 1.084-3.74 1.514-5.638q.486-.038.971-.068c.602 1.885 1.052 3.814 1.635 5.708q.854-.005 1.712-.004c-.65-2.467-1.388-4.908-2.076-7.363m20.07-.562-.12.012c-2.324.006-4.648.002-6.973.004a87 87 0 0 0 0 1.75c.567.015 1.133.015 1.7.011l1.702-.018c1.134-.01 2.267 0 3.396.1-.006 1.344-.002 2.69-.004 4.034l-1.444.018q-.008.877.002 1.757c.77.01 1.537.009 2.307.009q.45-.478.895-.958-.004-2.566.003-5.128c.107-.834-.739-1.711-1.584-1.58Zm-35.42 4.46-.603.001a40 40 0 0 0-.016 1.765q.912.015 1.824.003.009-.86 0-1.72a22 22 0 0 0-1.808-.048Zm42.256-7.373h-.772c-.328.427-.967.747-.885 1.37q-.015 2.479.002 4.955c-.08.619.546.94.872 1.367 2.555-.007 5.113.008 7.668-.01q.02-.875.008-1.759c-2.269-.022-4.537.003-6.806-.013v-4.138c.487-.007.978-.007 1.466-.016.008-.583.008-1.164-.01-1.745-.771-.016-1.543-.01-2.315-.011Zm-19.256 2.927c-1.481.002-2.96 0-4.442.002q-.035.92.004 1.845 2.217.005 4.436 0 .022-.923.002-1.847m34.823-2.126-2.643.019a68 68 0 0 0 .002 1.807c2.642.033 5.283.011 7.925.011q.008-.915.002-1.831zm-6.738.021a26 26 0 0 0-1.883-.002q-.009.9 0 1.8.94.03 1.88-.001a72 72 0 0 0 .003-1.797m-45.223-3.761a600 600 0 0 0-9.113-.005q-.014.915-.002 1.825c1.908.022 3.813.003 5.718.011q-.547.379-1.113.734l-1.13.708c.504.359.95.847 1.54 1.062 1.394-.825 2.752-1.718 4.109-2.608-.002-.576-.002-1.153-.009-1.727m8.034-1.49c-1.46.98-2.977 1.882-4.399 2.92 1.409 1.004 2.895 1.899 4.326 2.87.99-.002 1.982.009 2.974-.009-1.473-.94-2.926-1.916-4.407-2.848 1.441-1.011 2.965-1.896 4.398-2.92-.965-.016-1.927-.003-2.892-.014m16.72 3.257c-2.626-.024-5.254 0-7.882-.01q-.003.903.005 1.811c2.617-.002 5.233.007 7.853-.004.08-.596.088-1.199.024-1.797m2.348-.008-.631.008a93 93 0 0 0 0 1.781q.946.018 1.892-.006.005-.882.002-1.766a34 34 0 0 0-1.894-.009Zm4.7-5.354-.88.003c-.006 1.933-.002 3.867-.004 5.798q.884 0 1.768-.007c0-1.93.009-3.86-.004-5.789q-.88-.008-1.76-.002Zm23.304 3.34a42 42 0 0 0-1.825.002q-.018.907.002 1.816.91.021 1.819.002.027-.91.004-1.82m-7.026-7.115c-1.138-.185-2.287-.007-3.43.004-.695 2.442-1.376 4.89-2.102 7.323q.885.006 1.77.002c.494-1.894 1.07-3.766 1.55-5.666l.965-.011c.576 1.883 1.053 3.793 1.612 5.68q.88.001 1.76-.005c-.741-2.433-1.38-4.899-2.125-7.327M49.32 29.907l-.593.006a73 73 0 0 0-.002 1.814q.892.005 1.779.003c.009-.604.006-1.207.004-1.81a44 44 0 0 0-1.78-.007Zm21.918-2.046c-.677.003-1.355 0-2.032.014.739 1.241 1.433 2.51 2.163 3.76.616-.004 1.236-.006 1.852-.028-.5-1.327-1.313-2.504-1.983-3.746m-33.41-5.496-.872.01c-.029 2.255-.007 4.517-.014 6.775-1.384-.033-2.772.078-4.15-.077.007-.453.01-.905-.006-1.357a107 107 0 0 0-1.677 0c.002.789-.073 1.59.03 2.375.237.272.507.514.771.767 2-.009 4.003.011 6.006-.01q.396-.394.803-.781c-.018-2.567.013-5.134-.016-7.697a58 58 0 0 0-1.747.004ZM24.03 26.607l-.883.002c-.038 1.412-.02 2.825-.013 4.234q.891.007 1.787-.002c0-1.409.009-2.82-.009-4.227a95 95 0 0 0-1.765-.005Zm42.683-2.464a39 39 0 0 0-1.818 0 314 314 0 0 0 0 5.809q.907.016 1.816.002.033-2.909.002-5.81m-51.43 2.392a526 526 0 0 0-7.908-.002 57 57 0 0 0-.002 1.819c2.637.015 5.272.022 7.911-.002q.021-.908-.002-1.815m2.14-.004-.898.004a79 79 0 0 0 0 1.821q.898.012 1.798.002.021-.912 0-1.825-.9-.005-1.798.002Zm13.946-6.723c-.983 1.462-1.923 2.952-2.897 4.42-.976-1.45-1.91-2.93-2.872-4.389-.005.985-.078 1.976.024 2.957.896 1.49 1.897 2.92 2.841 4.382.96-1.486 1.992-2.93 2.884-4.458.084-.966.02-1.944.02-2.912m12.78-4.376a47 47 0 0 0-1.753.003c-.024 3.415-.013 6.83-.006 10.244q.915.016 1.828 0c.021-2.287-.007-4.574.015-6.861 1.342 2.032 2.59 4.127 3.948 6.15l.685.12c.015-.748.011-1.496.013-2.243-1.599-2.458-3.142-4.95-4.73-7.413M24.335 17.41c-1.31-.075-2.615-.1-3.924-.013q-.735-.008-1.47.002-.01.9.006 1.806c.657.006 1.316.002 1.972.035-1.297.761-2.555 1.586-3.839 2.37.472.385.914.849 1.493 1.068 1.963-1.111 3.822-2.4 5.757-3.562q.012-.853.005-1.706m30.807 2.667-2.89.008q-.006.881 0 1.764 4.336.008 8.667-.002.007-.88.002-1.76a900 900 0 0 0-8.67-.002Zm-18.917-2.003a33 33 0 0 0-1.803 0q-.019.904.002 1.81.902.024 1.804-.003.02-.904-.003-1.807m14.04-1.262-.622.009q-.004.886.003 1.768c.618.01 1.242.01 1.863-.005q.006-.88 0-1.76a38 38 0 0 0-1.866-.003Zm-18.7-7.344a30 30 0 0 0-1.885.01c.044 2.647-.115 5.307.084 7.946a63 63 0 0 0 1.794-.009c.027-2.648.016-5.296.007-7.947m5.97 3.746c-.675 0-1.35-.002-2.024.014a148 148 0 0 0 2.144 3.76c.619-.003 1.24-.003 1.858-.032-.524-1.315-1.333-2.486-1.979-3.742m9.781-.902-1.67.013a81 81 0 0 0-.002 1.825c1.671.029 3.343.022 5.014.005q.011-.917-.002-1.834c-1.67-.011-3.34-.018-5.01.004Zm-11.836-6c-.546-.073-.86.476-1.171.828-.111.76-.027 1.539-.03 2.304q.865.006 1.727.005.005-.723.013-1.446 2.044.003 4.09 0c.12 1.428-.004 2.86-.004 4.291l.03.122.072.293.03.122c.552.038 1.107.013 1.659.006a817 817 0 0 1 0-5.748c-.275-.258-.521-.557-.843-.757-1.856-.049-3.717-.009-5.573-.02"/></svg>