<svg xmlns="http://www.w3.org/2000/svg" width="121" height="110" viewBox="0 0 121 110"><g fill="none"><path fill="#101010" d="M12 15h73v73H12z"/><path fill="#FFF" d="M49.171 56.086 44.35 42.793h-4.098v17.39h2.955v-12.25l4.475 12.25h2.908l4.468-12.25v12.25h3.032v-17.39h-4.097zM29.255 42.37c-5.34 0-8.719 4.026-8.719 9.13s3.38 9.12 8.72 9.12c5.339 0 8.724-3.986 8.724-9.12s-3.38-9.13-8.725-9.13m0 15.158c-3.403 0-5.44-2.56-5.44-6.016s2.037-6.034 5.44-6.034 5.446 2.584 5.446 6.022-2.037 6.028-5.446 6.028m39.108-3.673h4.992c-.294 2.537-2.137 3.726-4.497 3.726-3.38 0-5.263-2.484-5.263-6.063 0-3.356 1.66-6.111 5.192-6.111 2.308 0 4.174 1.177 4.374 3.155h3.303c-.448-3.973-3.48-6.187-7.577-6.187-5.816 0-8.525 4.474-8.525 9.243 0 5.122 3.132 8.995 8.001 8.995 2.855 0 4.45-1.318 5.092-2.437v1.99h3.009v-9.302h-8.1z"/></g></svg>