<svg xmlns="http://www.w3.org/2000/svg" width="32" height="32" viewBox="0 0 32 32"><path d="M32 16c0 8.836-7.164 16-16 16S0 24.836 0 16 7.164 0 16 0s16 7.164 16 16m0 0" style="stroke:none;fill-rule:nonzero;fill:#ffd15c;fill-opacity:1"/><path d="M113.18 309.422c1.875-1.286 3.644-3.215 4.555-5.948.964-3.001.375-5.68-.054-7.181-.053-.054-.053-.107-.053-.16l.375-2.09c1.018.535 2.143 1.285 3.483 2.25.321.214.75.536 1.233.857.589.429 1.232.911 1.66 1.18.751.535 1.77 1.232 2.895 1.821 29.26 18.22 53.481 25.723 72.72 24.758 19.881-.964 33.814-10.932 40.995-25.562 6.967-14.093 7.181-31.563 2.304-47.747-4.876-16.291-15.219-32.154-30.545-43.086-25.937-18.488-49.623-46.568-61.627-70.47-6.11-12.11-8.521-21.863-7.878-28.294.268-2.947 1.179-4.77 2.304-5.895 1.072-1.179 3.055-2.465 6.86-3.054 8.145-1.34 17.523-4.287 27.009-7.235 3.697-1.125 7.395-2.304 11.092-3.376 13.72-4.02 28.188-7.395 43.461-7.342 29.581.054 64.307 12.915 100.908 66.343 46.944 68.648 21.167 145.387-32.957 185.686-26.956 20.096-60.663 30.76-95.228 26.687-31.188-3.644-63.77-19.345-93.512-52.142Zm5.466-17.738-.054.054zm-2.948 1.34h.108zm0 0" style="fill-rule:nonzero;fill:#fff;fill-opacity:1;stroke-width:17.6755;stroke-linecap:butt;stroke-linejoin:miter;stroke:#000;stroke-opacity:1;stroke-miterlimit:4" transform="scale(.0729)"/><path d="M10.21 7.602s6.118-1.63 7.454-1.63c1.34 0 6.691 2.598 8.254 7.348 2.215 6.73-3.809 11.145-4.488 10.711 6.476-5.355-4.125-15.254-9.336-14.511-.653.093-.293.652-.293.652l-.145 1.445L10.57 9.81Zm0 0" style="stroke:none;fill-rule:nonzero;fill:#000;fill-opacity:1"/><path d="M25.027 11.297c1.93 3.398 1.528 1.453 1.102 5.34.793-1.285 2.031-.325 2.547.168.09.086.242.03.238-.094-.02-.578-.187-1.824-1.14-3.16-1.31-1.832-2.747-2.254-2.747-2.254m0 0" style="stroke:none;fill-rule:nonzero;fill:#000;fill-opacity:1"/><path d="M358.456 228.235c5.841-53.32 11.36-26.634-15.112-73.256 0 0 19.72 5.788 37.673 30.92 13.076 18.328 15.38 35.423 15.648 43.354.053 1.715-2.037 2.465-3.27 1.286-7.073-6.752-24.06-19.935-34.94-2.304Zm0 0c1.018-2.519 2.572-6.43 2.572-6.43" style="fill:none;stroke-width:.993005;stroke-linecap:butt;stroke-linejoin:miter;stroke:#000;stroke-opacity:1;stroke-miterlimit:4" transform="scale(.0729)"/><path d="M9.488 16.117C8.672 17.497 7 17.395 7.031 19.04c1.492 3.316 1.504 3.078 1.504 3.078 2.766-1.55 1.63-4.984 1.219-5.992-.047-.113-.203-.113-.266-.008m0 0" style="stroke:none;fill-rule:nonzero;fill:#000;fill-opacity:1"/><path d="M3.215 19.168c1.59.207 2.539-1.176 3.816-.137 1.696 3.219 1.5 3.082 1.5 3.082-2.926 1.223-4.93-1.785-5.472-2.73-.063-.11.035-.23.156-.215m13.328-2.047s1.594 1.629.762 1.883c-1.04-.64-2.899-.145-3.813.164-.222.074-.441-.125-.363-.348.312-.851 1.078-2.43 2.547-2.64.867-.22.867.941.867.941m0 0" style="stroke:none;fill-rule:nonzero;fill:#000;fill-opacity:1"/><path d="M17.52 9.156c-.18-.25-.543-.937.582-.937 1.12 0 2.835 1.27 3.183 1.738-.11.285-.832.352-1.195.324-.36-.027-.977-.09-1.445-.324-.473-.234-.942-.547-1.125-.8m0 0" style="stroke:none;fill-rule:nonzero;fill:#fff;fill-opacity:1"/></svg>