<svg xmlns="http://www.w3.org/2000/svg" viewBox="0 0 220.79 319.27"><defs><style>.ost_svg-cls-1{fill:#34445b}</style></defs><g id="ost_svg-Layer_2" data-name="Layer 2"><g id="ost_svg-logo"><g id="ost_svg-logo-2" data-name="logo"><path d="m123 99.21 27.91-43.53A28.16 28.16 0 1 0 134.13 45L99.46 99a110.47 110.47 0 1 0 23.49.19Zm-12.74 168.21a58.58 58.58 0 1 1 54.8-79.28 33.82 33.82 0 1 0-.05 41.54 58.6 58.6 0 0 1-54.75 37.74" class="ost_svg-cls-1"/><path d="m123 99.21 27.91-43.53A28.16 28.16 0 1 0 134.13 45L99.46 99a110.47 110.47 0 1 0 23.49.19Zm-12.74 168.21a58.58 58.58 0 1 1 54.8-79.28 33.82 33.82 0 1 0-.05 41.54 58.6 58.6 0 0 1-54.75 37.74" class="ost_svg-cls-1"/></g></g></g></svg>