<svg xmlns="http://www.w3.org/2000/svg" width="184" height="203" viewBox="0 0 184 203"><path fill="#5F45BA" d="M49.168 25.807c-2.934 4.938-9.315 6.565-14.253 3.632s-6.566-9.315-3.632-14.253 9.315-6.565 14.253-3.632 6.565 9.315 3.632 14.253M13.664 21.19c-2.069 3.486-6.584 4.635-10.069 2.566s-4.634-6.574-2.565-10.069c2.069-3.494 6.584-4.634 10.069-2.565 3.494 2.078 4.644 6.584 2.565 10.069m98.833 150.529c38.105-4.479 68.754-35.633 71.255-75.283 2.814-44.616-31.08-83.062-75.697-85.867a81 81 0 0 0-15.678.533c-10.722.874-19.78 4.966-19.78 4.966-7.337 3.586-12.073 9.582-12.073 17.6 0 10.428 8.45 18.887 18.878 18.887 1.747 0 7.78-1.912 9.214-2.409a43.3 43.3 0 0 1 17.085-2.326c15.412.974 28.442 9.839 35.42 22.409a43.44 43.44 0 0 1 5.38 23.88c-1.517 24.046-22.234 42.318-46.29 40.8-14.206-.9-26.39-8.505-33.682-19.53v.009-.01c-8.718-11.402-6.704-29.636-6.713-29.866C59.457 75.37 51.154 67.26 40.93 67.26c-8.736 0-16.065 5.93-18.244 13.977-.423 1.581-.644 6.216-.58 6.832-1.802 43.844 31.752 81.297 75.762 84.064 4.882.304 9.774.166 14.63-.413M38.336 54.68c-3.807 6.41-12.083 8.515-18.483 4.709s-8.515-12.083-4.708-18.483 12.083-8.515 18.483-4.708 8.505 12.082 4.708 18.482"/></svg>