<svg xmlns="http://www.w3.org/2000/svg" data-name="Layer 1" viewBox="0 0 256 256"><path d="M128 0a128 128 0 1 0 128 128A128 128 0 0 0 128 0m64 62a24 24 0 0 1 24 24v36a24 24 0 0 1-24 24h-29.72l-1.91 9a5.21 5.21 0 0 1-4.85 4h-6a3.14 3.14 0 0 1-3.15-4l1.91-9h-14l-1.91 9a5.21 5.21 0 0 1-4.85 4h-6a3.14 3.14 0 0 1-3.15-4l1.91-9h-15L92.1 208h-32L83.48 98h32l-5.1 24H172a12 12 0 0 0 12-12V98a12 12 0 0 0-12-12H40l20-24h78.14l1.91-9a5.21 5.21 0 0 1 4.85-4h6a3.14 3.14 0 0 1 3.15 4l-1.91 9h14l1.91-9a5.21 5.21 0 0 1 4.85-4h6a3.14 3.14 0 0 1 3.15 4l-1.91 9Z" style="fill:#f7931e"/></svg>