<svg xmlns="http://www.w3.org/2000/svg" xml:space="preserve" viewBox="0 0 115.5 115.5"><path d="M71.5 20.5c1.8.5 3.7 1.5 5.6 2.8 9.6 2.8 19.2 9.2 27.6 21.3.8 1.2 1.6 2.4 2.3 3.5 4.4-11.7 3.6-20.8-.6-24.8-7.5-7.2-18.2-3.2-30.5-8.2-10-7.3-16-9-24.3-9 0 0-7 .5-15 7.3 12.6 0 27.1 4.9 34.9 7.1" style="fill:#e9e223"/><path d="M20.3 39.5c4.5-13.2 10.7-20.9 16.2-26-7.2.2-13.8 2-18 7-4.9 5.8-6 21.7-6.8 25.7S2.4 66.4 3.4 75.4c.9 8.4 7.4 18.4 25.9 20.8.5-4.4-23.1-20.5-9-56.7" style="fill:#b2cc3a"/><path d="M18 61.5c1.3-21 20.2-32.3 20.2-32.3 9.4-5.8 24.1-10.2 38.9-5.8-1.9-1.3-3.9-2.5-5.7-3.1-7.6-2.4-22.2-7.1-34.9-6.8-5.6 4.8-11.7 12.8-16.2 26-14.1 36.2 9.4 55.8 10.5 56.8.5.1-2.1-.2-1.5-.1C23.1 89 18.4 78.1 18 61.5" style="fill:#55b14b"/><path d="M106.9 48.2c-3.5 9.3-10.5 20.2-21.8 31.3-.8.8-1.6 1.6-2.5 2.3-6.3 7.6-15.1 11.6-24.6 13.5-13 3.5-24.3 1.1-28.7.9 9.2 10.5 21.8 12.8 27.6 12.2 9.7-1 22.8-15.8 31-21.7 7.8-5.6 35.8-10.8 19-38.5" style="fill:#1893d2"/><path d="M77.1 23.4C87.5 30.5 97.4 48 89.5 69.9c-1.7 4.7-4 8.7-6.8 12 .8-.7 1.6-1.5 2.5-2.3 11.3-11.2 18.2-22 21.8-31.3-.7-1.1-1.4-2.3-2.3-3.5-8.4-12.2-18-18.6-27.6-21.4" style="fill:#00855d"/><path d="M29.3 96.2c-.1-.1.1.1 0 0m47.8-72.8c-15.6-4.6-29.5.1-38.9 5.8 0 0-18.8 11.3-20.2 32.3.4 16.6 5.1 27.5 11.3 34.6 4.2.9 15.7 2.7 28.7-.8 9.5-1.9 18.3-5.8 24.7-13.4 2.8-3.3 5.1-7.2 6.8-12 7.9-21.9-2-39.4-12.4-46.5m-14.8 62c-22 4.8-33.5-14.8-34.5-18.8s-3-24.3 14-34.3c12.6-7.4 30.3-8 37.8 8.5s4.7 39.9-17.3 44.6" style="fill:#035127"/></svg>