<svg xmlns="http://www.w3.org/2000/svg" id="payx_svg-Слой_1" data-name="Слой 1" viewBox="0 0 63.35 56.1"><defs><style>.payx_svg-cls-1{fill:#630}</style></defs><path d="m18.2 9.8 4-9.8 27.4.1c4 .3 8.8.3 11.5 3.7 3.2 3.7 2.5 9 .9 13.2a27.88 27.88 0 0 1-20.3 18.2c-6.6 1-13.3.7-20 .7q2-4.88 4-9.8c5.5 0 11.1.3 16.7-.6 5.1-1.3 9.8-6.4 9-12-.5-2.4-3.2-3.5-5.5-3.5-9.2-.4-18.4 0-27.6-.2Z" class="payx_svg-cls-1"/><path d="M6.4 12.5h32.5l-4.3 11.1H2l4.4-11Zm5.2 13.6h11.3l-11.8 30H0l11.7-30Z" class="payx_svg-cls-1"/></svg>