<svg xmlns="http://www.w3.org/2000/svg" data-name="Слой 1" viewBox="0 0 603.1 523.95"><path d="M593 503.75v-30.2c0-6-4-10-10.1-10h-20.1v-30.3c0-6-4-10.1-10-10.1h-20.1v-221.8h20c6 0 10.1-4 10.1-10.1v-30.2h20.1a9.73 9.73 0 0 0 10-8.1c1-5-1-9-5-11.1L306.5.75a13.88 13.88 0 0 0-9 0L6 141.85a10.05 10.05 0 0 0-5 11c0 5.1 4 8.2 9 8.2h30.2v30.2c0 6 4 10 10 10h20.1v221.9h-20c-6 0-10.1 4-10.1 10v30.3H20.1c-6 0-10 4-10 10v30.3c-6 0-10.1 4-10.1 10.1s4 10.1 10 10.1h583c6 0 10.1-4 10.1-10s-4-10.2-10-10.2ZM60.2 181.15v-20.1h482.4v20.1zm412 20.2v221.8h-40.1v-221.8Zm-100.5 0v221.8h-40.2v-221.8Zm-100.5 0v221.8h-40.1v-221.8Zm-100.5 0v221.8h-40.1v-221.8Zm371.9 262.1H60.3v-20.2h482.4v20.2Z"/></svg>