<svg xmlns="http://www.w3.org/2000/svg" xml:space="preserve" id="qi_svg-Layer_1" width="32" height="32" x="0" y="0" version="1.1" viewBox="0 0 32 32"><style>.qi_svg-st0{fill:#00b3ed}</style><g id="qi_svg-Group_6643" transform="translate(-533.522 -388.522)"><g id="qi_svg-Group_525" transform="translate(534.763 390.679)"><g id="qi_svg-Group_77"><path id="qi_svg-Rectangle_48" d="M25.5 12.5h5.3v13.2h-5.3z"/><path id="qi_svg-Path_64" d="m25.5 10.9 4.7-2c.3-.2.6-.5.6-.9V5.6l-4.4 1.9c-.5.2-.8.7-.8 1.2z" class="qi_svg-st0"/><path id="qi_svg-Path_65" d="M3.6 12.4c.8-3.9 4.6-6.5 8.6-5.7 3.5.7 5.9 3.8 5.9 7.3 0 .4-.1.9-.1 1.3l2.4 5.3c3.7-5.4 2.4-12.7-2.9-16.5C12 .4 4.6 1.7.9 7.1s-2.4 12.7 2.9 16.5c2.6 1.8 5.7 2.5 8.8 2l-1.9-4.2c-4 0-7.3-3.2-7.3-7.3 0-.6.1-1.2.2-1.7"/><path id="qi_svg-Path_66" d="M20.4 25.7h-5.5L11.5 18H17z" class="qi_svg-st0"/></g></g></g></svg>