<svg xmlns="http://www.w3.org/2000/svg" xml:space="preserve" viewBox="0 0 32 32"><linearGradient id="ray_svg-a" x1="151.627" x2="122.237" y1="-337.234" y2="-325.481" gradientTransform="translate(-120.945 347.362)" gradientUnits="userSpaceOnUse"><stop offset="0" style="stop-color:#7d4695"/><stop offset=".49" style="stop-color:#4267b0"/><stop offset=".49" style="stop-color:#4368b0"/><stop offset="1" style="stop-color:#60bfbb"/></linearGradient><path d="M28.4 12v11.2L16 30.3 3.6 23.2V8.8L16 1.7l9.5 5.5 1.5-.9L16 0 2.1 8v16L16 32l13.9-8V11.2z" style="fill:url(#ray_svg-a)"/><linearGradient id="ray_svg-b" x1="151.056" x2="121.667" y1="-338.661" y2="-326.908" gradientTransform="translate(-120.945 347.362)" gradientUnits="userSpaceOnUse"><stop offset="0" style="stop-color:#7d4695"/><stop offset=".49" style="stop-color:#4267b0"/><stop offset=".49" style="stop-color:#4368b0"/><stop offset="1" style="stop-color:#60bfbb"/></linearGradient><path d="M12.5 23.2h-2.1v-7h6.9c.7 0 1.3-.3 1.7-.7.5-.5.7-1.1.7-1.7 0-.3-.1-.6-.2-.9s-.3-.6-.5-.8-.5-.4-.8-.5-.6-.2-.9-.2h-6.9V9.1h6.9c1.2 0 2.4.5 3.2 1.4.9.9 1.3 2 1.4 3.2 0 .9-.3 1.8-.8 2.6-.5.7-1.2 1.3-2 1.6s-1.6.4-2.5.4h-4.2v4.9z" style="fill:url(#ray_svg-b)"/><linearGradient id="ray_svg-c" x1="153.998" x2="124.609" y1="-331.304" y2="-319.551" gradientTransform="translate(-120.945 347.362)" gradientUnits="userSpaceOnUse"><stop offset="0" style="stop-color:#7d4695"/><stop offset=".49" style="stop-color:#4267b0"/><stop offset=".49" style="stop-color:#4368b0"/><stop offset="1" style="stop-color:#60bfbb"/></linearGradient><path d="M21.9 23h-2.4l-1.9-3.3c.7 0 1.5-.2 2.2-.4z" style="fill:url(#ray_svg-c)"/><linearGradient id="ray_svg-d" x1="150.866" x2="121.477" y1="-339.131" y2="-327.378" gradientTransform="translate(-120.945 347.362)" gradientUnits="userSpaceOnUse"><stop offset="0" style="stop-color:#7d4695"/><stop offset=".49" style="stop-color:#4267b0"/><stop offset=".49" style="stop-color:#4368b0"/><stop offset="1" style="stop-color:#60bfbb"/></linearGradient><path d="m27 9.7 1.4.8 1.4-.8V8l-1.4-.8L27 8z" style="fill:url(#ray_svg-d)"/></svg>