<svg xmlns="http://www.w3.org/2000/svg" width="78" height="88" viewBox="0 0 78 88"><defs><linearGradient id="ren_svg-a" x1="0%" x2="100%" y1="50%" y2="50%"><stop offset="0%" stop-color="#001C3A"/><stop offset="57%" stop-color="#001E3D"/><stop offset="69%" stop-color="#001F3F"/><stop offset="100%" stop-color="#002042"/></linearGradient><linearGradient id="ren_svg-b" x1="0%" x2="100%" y1="50.016%" y2="50.016%"><stop offset="0%" stop-color="#001C3A"/><stop offset="57%" stop-color="#001E3D"/><stop offset="69%" stop-color="#001F3F"/><stop offset="100%" stop-color="#002042"/></linearGradient><linearGradient id="ren_svg-c" x1="0%" x2="100%" y1="50%" y2="50%"><stop offset="0%" stop-color="#001C3A"/><stop offset="57%" stop-color="#001E3D"/><stop offset="69%" stop-color="#001F3F"/><stop offset="100%" stop-color="#002042"/></linearGradient><linearGradient id="ren_svg-d" x1="0%" x2="100%" y1="50%" y2="50%"><stop offset="0%" stop-color="#001C3A"/><stop offset="57%" stop-color="#001E3D"/><stop offset="69%" stop-color="#001F3F"/><stop offset="100%" stop-color="#002042"/></linearGradient><linearGradient id="ren_svg-e" x1="0%" x2="99.986%" y1="50%" y2="50%"><stop offset="0%" stop-color="#001C3A"/><stop offset="57%" stop-color="#001E3D"/><stop offset="69%" stop-color="#001F3F"/><stop offset="100%" stop-color="#002042"/></linearGradient><linearGradient id="ren_svg-f" x1="0%" x2="100%" y1="50.011%" y2="50.011%"><stop offset="0%" stop-color="#001C3A"/><stop offset="57%" stop-color="#001E3D"/><stop offset="69%" stop-color="#001F3F"/><stop offset="100%" stop-color="#002042"/></linearGradient><linearGradient id="ren_svg-g" x1="0%" x2="100%" y1="50%" y2="50%"><stop offset="0%" stop-color="#001C3A"/><stop offset="57%" stop-color="#001E3D"/><stop offset="69%" stop-color="#001F3F"/><stop offset="100%" stop-color="#002042"/></linearGradient><linearGradient id="ren_svg-h" x1="0%" x2="100%" y1="50%" y2="50%"><stop offset="0%" stop-color="#001C3A"/><stop offset="57%" stop-color="#001E3D"/><stop offset="69%" stop-color="#001F3F"/><stop offset="100%" stop-color="#002042"/></linearGradient><linearGradient id="ren_svg-i" x1="0%" x2="100%" y1="49.986%" y2="49.986%"><stop offset="0%" stop-color="#001C3A"/><stop offset="57%" stop-color="#001E3D"/><stop offset="69%" stop-color="#001F3F"/><stop offset="100%" stop-color="#002042"/></linearGradient><linearGradient id="ren_svg-j" x1="0%" x2="100%" y1="50%" y2="50%"><stop offset="0%" stop-color="#001C3A"/><stop offset="57%" stop-color="#001E3D"/><stop offset="69%" stop-color="#001F3F"/><stop offset="100%" stop-color="#002042"/></linearGradient><linearGradient id="ren_svg-k" x1="0%" x2="100%" y1="50%" y2="50%"><stop offset="0%" stop-color="#001C3A"/><stop offset="57%" stop-color="#001E3D"/><stop offset="69%" stop-color="#001F3F"/><stop offset="100%" stop-color="#002042"/></linearGradient><linearGradient id="ren_svg-l" x1="0%" x2="100%" y1="50.02%" y2="50.02%"><stop offset="0%" stop-color="#001C3A"/><stop offset="57%" stop-color="#001E3D"/><stop offset="69%" stop-color="#001F3F"/><stop offset="100%" stop-color="#002042"/></linearGradient><linearGradient id="ren_svg-m" x1="0%" x2="100%" y1="50.019%" y2="50.019%"><stop offset="0%" stop-color="#001C3A"/><stop offset="57%" stop-color="#001E3D"/><stop offset="69%" stop-color="#001F3F"/><stop offset="100%" stop-color="#002042"/></linearGradient></defs><g fill="none"><path fill="url(#ren_svg-a)" d="m12.07 18.49 6.42-3.7.91 1.49L43.21 2.53l-1.75-1.04L39.7.52 38.86 0 0 22.45v.97L11.16 17z"/><path fill="url(#ren_svg-b)" d="m12.07 32.63 18.68-10.77.84 1.5L55.47 9.6l-1.75-1.04-1.75-.97-.85-.52L0 36.52v1.04l11.16-6.42z"/><path fill="url(#ren_svg-c)" d="m12.07 39.7 24.78-14.33.84 1.49 23.88-13.75-1.75-.98-1.76-1.04-.84-.52L0 43.6v1.03l11.16-6.48z"/><path fill="url(#ren_svg-d)" d="M12.07 46.71 43.14 28.8l.85 1.5 23.68-13.69-1.76-.98-1.75-1.03-.84-.46L0 50.67v.97l11.16-6.42z"/><path fill="url(#ren_svg-e)" d="m12.07 53.78 37.17-21.47.85 1.56 23.68-13.69-1.76-1.04-1.68-.98-.91-.51L0 57.74v.97l11.16-6.42z"/><path fill="url(#ren_svg-f)" d="m76.42 21.67-.9-.52L0 64.81v.97l11.16-6.42.91 1.49 37.17-21.47.85 1.49 27.63-15.89v-2.53z"/><path fill="url(#ren_svg-g)" d="m4.8 70.07 6.23-3.57.91 1.49 37.11-21.47.9 1.55 27.77-16.09v-4.99L3.96 69.55z"/><path fill="url(#ren_svg-h)" d="m49.05 53.59.9 1.56 27.77-16.09v-5L10.06 73.12l.84.52 6.36-3.7.9 1.49"/><path fill="url(#ren_svg-i)" d="m17 77.14 6.42-3.7.84 1.56 24.79-14.34.9 1.49 27.77-16.02v-5.06L16.15 76.62z"/><path fill="url(#ren_svg-j)" d="m23.16 80.64 6.36-3.63.84 1.49 18.69-10.77.9 1.49L77.72 53.2v-5.06L22.25 80.19z"/><path fill="url(#ren_svg-k)" d="m28.35 83.69.91.52 6.36-3.7.84 1.56 12.59-7.27.9 1.5 27.77-16.03v-5.06z"/><path fill="url(#ren_svg-l)" d="m35.36 87.71 6.36-3.63.9 1.49 6.43-3.76.9 1.56 27.77-16.03v-5.06L34.51 87.26z"/><path fill="url(#ren_svg-m)" d="m49.37 6.03-1.75-.97-1.75-1.04-.91-.52L0 29.52v.97l11.16-6.42.91 1.49 12.58-7.26.85 1.49z"/></g></svg>