<svg xmlns="http://www.w3.org/2000/svg" width="134" height="133" viewBox="0 0 134 133"><path fill="#0E0E21" fill-rule="evenodd" d="m34.298 64.97-7.437-4.83a1.505 1.505 0 0 1-.474-2.02L55.09 9.45c.533-.9 1.49-1.45 2.525-1.45h6.766c1.036 0 1.993.55 2.525 1.45L95.61 58.12c.405.69.198 1.59-.473 2.02L87.7 64.97c-.69.45-1.628.23-2.052-.49L61.63 23.76a.733.733 0 0 0-1.262 0L36.349 64.48a1.46 1.46 0 0 1-2.051.49m68.867 5.97 11.422 19.37c.808 1.38.394 3.17-.928 4.04l-51.063 33.18c-.966.63-2.21.63-3.176 0L8.357 94.35a3 3 0 0 1-.937-4.04l11.422-19.37a1.46 1.46 0 0 1 2.051-.49l7.437 4.83c.671.43.878 1.33.474 2.02l-6.53 11.07a.76.76 0 0 0 .237 1.01l38.093 24.75c.236.16.542.16.789 0l38.103-24.75a.75.75 0 0 0 .236-1.01l-6.53-11.07a1.505 1.505 0 0 1 .474-2.02l7.437-4.83c.69-.45 1.628-.23 2.052.49"/></svg>