<svg xmlns="http://www.w3.org/2000/svg" width="15" height="17" viewBox="0 0 15 17"><path d="m10.028 9.467 4.187-4.298c.315-.322.49-.76.49-1.217l.007-3.474A.7.7 0 0 0 14.525 0L6.493 8.252A1.74 1.74 0 0 0 6 9.47c0 .457.177.895.493 1.217l5.663 5.813c.423.433 1.037.6 1.612.44a1.69 1.69 0 0 0 1.176-1.217 1.75 1.75 0 0 0-.435-1.657z"/><path d="M14.525 0H1.79C.76 0 0 .786 0 1.858V15.27c-.006.46.173.904.496 1.23.322.325.762.505 1.218.499.456.008.896-.172 1.219-.498s.5-.77.493-1.23V3.308h8.472L15 .193A.65.65 0 0 0 14.525 0"/></svg>