<svg xmlns="http://www.w3.org/2000/svg" width="40" height="40" viewBox="0 0 40 40"><path d="M.003 20.248c-.01-2.356.332-4.488 1.013-6.563a20 20 0 0 1 3.63-6.573 19.6 19.6 0 0 1 6.74-5.259A18.9 18.9 0 0 1 16.85.206a19 19 0 0 1 3.44-.193 19.2 19.2 0 0 1 6.519 1.39q.048.02.095.042c.031.016.07.03.073.069.005.051-.042.068-.08.083l-.718.28a45 45 0 0 0-4.595 2.09c-1.654.873-3.242 1.854-4.715 3.022-1.28 1.019-2.45 2.151-3.4 3.506-.64.912-1.145 1.894-1.42 2.987-.352 1.384-.265 2.754.134 4.113.295 1.004.737 1.942 1.224 2.86.616 1.16 1.315 2.27 1.957 3.413.584 1.04 1.127 2.102 1.486 3.25.252.802.402 1.623.385 2.469-.022 1.113-.315 2.154-.825 3.134-.605 1.166-1.434 2.152-2.36 3.06-.852.836-1.781 1.576-2.738 2.28-.14.104-.252.097-.398.023a19.7 19.7 0 0 1-3.888-2.602 20 20 0 0 1-3.734-4.263 20 20 0 0 1-2.075-4.16 20.3 20.3 0 0 1-1.073-4.516c-.098-.816-.157-1.637-.14-2.295"/><path d="M12.093 38.483c.038-.087.126-.09.195-.114a52 52 0 0 0 4.12-1.712c1.58-.743 3.117-1.566 4.574-2.529 1.134-.748 2.214-1.566 3.202-2.5.974-.921 1.838-1.928 2.51-3.088.545-.94.912-1.943 1.031-3.023.11-.992-.002-1.967-.273-2.926-.3-1.058-.77-2.046-1.298-3.008-.633-1.154-1.349-2.26-2.012-3.395-.562-.966-1.086-1.95-1.466-3.004-.372-1.028-.558-2.083-.477-3.176a6.5 6.5 0 0 1 .545-2.136c.447-1.028 1.095-1.925 1.844-2.755 1.095-1.212 2.37-2.22 3.698-3.168.146-.104.267-.117.43-.035a21 21 0 0 1 3.95 2.554 20 20 0 0 1 3.319 3.466 19.8 19.8 0 0 1 3.56 7.792c.189.882.322 1.772.385 2.672.045.63.083 1.26.066 1.892-.053 1.845-.322 3.656-.864 5.426a20 20 0 0 1-2.598 5.42 19.8 19.8 0 0 1-2.947 3.43 20.4 20.4 0 0 1-4.28 3.046 20.3 20.3 0 0 1-6 2.072 21 21 0 0 1-2.452.282 19 19 0 0 1-1.653.027 20.5 20.5 0 0 1-6.911-1.39c-.073-.03-.158-.04-.198-.12"/></svg>