<svg xmlns="http://www.w3.org/2000/svg" data-name="Слой 1" viewBox="0 0 211.1 200"><path d="M110.9 0h.1c18.3 18.1 36.4 36.4 54.6 54.6H211L108.8 199.4c-1.7-17-3-34-4.5-51 14.8-21.3 30-42.4 44.8-63.6l-33.8-33.7a78.5 78.5 0 0 0-1-11.9c-1.1-13-1.8-26.2-3.4-39.2" style="fill:#313333" transform="translate(.1)"/><path d="M0 145.4C34.3 97.2 68.3 48.8 102.5.5l4.3 51.2C91.9 73 76.9 94 62 115.2c11.1 11.1 22.2 22.4 33.5 33.5 1.5 17 2.8 34.2 4.5 51.3h-.2l-54.3-54.4c-15.2.2-30.4-.1-45.6.2v-.4Z" style="fill:#f2941b" transform="translate(.1)"/></svg>