<svg xmlns="http://www.w3.org/2000/svg" width="314" height="257" viewBox="0 0 314 257"><path fill="#7324F0" d="M276.4 69.6v-4.7c-16 0-29.2 12.4-30.4 28.3-1.1-15.9-14.3-28.2-30.3-28.3v4.7c14.2 0 25.8 11.5 25.8 25.8s-11.5 25.8-25.8 25.8v4.7c16 0 29.2-12.4 30.4-28.3 1.1 15.9 14.4 28.3 30.4 28.3v-4.7c-14.2 0-25.8-11.5-25.8-25.8s11.5-25.8 25.7-25.8m-163 56.3v-3.5l-.1-27h-4.5v30.5m65.6-61c-16.8 0-30.5 13.7-30.5 30.5s13.7 30.5 30.5 30.5 30.5-13.7 30.5-30.5-13.6-30.5-30.5-30.5m0 56.3c-14.2 0-25.8-11.6-25.8-25.8s11.5-25.8 25.8-25.8c14.2 0 25.8 11.5 25.8 25.8s-11.5 25.8-25.8 25.8M92 64.9c-16.8 0-30.5 13.7-30.5 30.5 0 14.2-11.6 25.8-25.8 25.8v4.7c16.8 0 30.5-13.7 30.5-30.5 0-14.2 11.6-25.8 25.8-25.8h39.2v-4.7z"/></svg>