<svg xmlns="http://www.w3.org/2000/svg" data-name="Layer 1 1" viewBox="0 0 1239.07 1440.02"><path d="m197.47 1044.9-65.45-38V433.16l105.52-61.33 65.44 38-105.51 61.36v199.45L464.32 825.7v73.8L197.47 744.45zm921.85-114.09v76.06l-493.64 286.85-105.53-61.32v-76.05l105.52 61.3 171.62-99.73V807.8l63.48-36.9v310.14l258.55-150.24ZM1245.21 720v-13L990.37 855.13v-73.8l254.8-148.08V360L625.66 0 315.9 180l-11.17 6.49 254.83 148.07-63.49 36.9-254.83-148.09L6.14 360v720l309.74 180 11.17 6.5V970.34l63.51 36.9v296.17L625.67 1440l619.52-360V720Zm-321-136.63L667.7 732.5v310.13l-42 24.41-31.77-18.45v-298.2L327.06 595.32v-48.83L358.8 528l256.57 149.1 266.86-155.04 42 24.42v36.92Zm-364-399.04 65.45-38 493.62 286.85v122.61l-65.43 38V471.16l-171.64-99.71-266.84 155.07-63.49-36.9 266.85-155.08z" data-name="Composite Path" style="fill:#f4c257" transform="translate(-6.14)"/></svg>