<svg xmlns="http://www.w3.org/2000/svg" width="533.333" height="533.333" version="1.0" viewBox="0 0 400 400"><path d="M184.5.6c-1.6.2-7 .9-12 1.5-12.3 1.5-32.9 6.9-45.3 11.8C60.3 40.6 14.7 97.4 2.3 169.5c-2.3 13.9-2.3 47.1 0 61 15.1 87.7 79.5 152.1 167.2 167.2 13.9 2.3 47.1 2.3 61 0 44.6-7.7 82.9-27.6 113-58.8 29-30.1 46.9-65.8 54.2-108.4 2.3-13.9 2.3-47.1 0-61-7.7-44.6-27.6-82.9-58.8-113-30-28.9-66.4-47.2-107.9-54C221.9 1 190.8-.3 184.5.6M152 135v16h32v-32h32v32h32v-32h95v32h-95v32h95v32h-95l-.2 47.7-.3 47.8-15.7.3-15.8.3V215h-32v96.1l-15.7-.3-15.8-.3-.3-47.8-.2-47.7H57v-32h95v-32H57v-32h95z"/><path d="M184 167v16h-32v32h32v-32h32v32h32v-32h-32v-32h-32z"/></svg>