<svg xmlns="http://www.w3.org/2000/svg" xml:space="preserve" id="tks_svg-Layer_1" x="0" y="0" version="1.1" viewBox="0 0 2442 2442"><style>.tks_svg-st1{fill:#fff}</style><linearGradient id="tks_svg-SVGID_1_" x1="357.623" x2="2084.377" y1="2084.377" y2="357.623" gradientUnits="userSpaceOnUse"><stop offset="0" style="stop-color:#6a69fd"/><stop offset="1" style="stop-color:#ae48f1"/></linearGradient><circle cx="1221" cy="1221" r="1221" style="fill:url(#tks_svg-SVGID_1_)"/><path d="m1221.9 1775.5-682.5-394V731.9l682.5-330.7 682.5 330.7v649.7zm-612.5-434.4 612.5 353.6 612.5-353.6V775.7l-612.5-296.8-612.5 296.8z" class="tks_svg-st1"/><path d="M1031.6 881.8v8.9c0 148 190.2 226.9 196.1 229.3V575.5c-5.9 5.7-196.1 188-196.1 306.3m196.1 238.4h-.1zm.2 0-.1-.1v.1zm-.3-544.8.1.1v-.1zm.1.1v544.6c6-2.4 196.1-81.4 196.1-229.3v-8.9c0-118.4-190.1-300.7-196.1-306.4m0-.1v.1l.1-.1z" class="tks_svg-st1"/><path d="M1224.1 1107.6s-79.9-74.4-230.9-64.3-219.7 215-315.3 208.3c0 0 164.9 134.1 307.4 157.5 128.4 19.6 261.1-76.1 238.8-301.5" class="tks_svg-st1"/><path d="M1227.8 1102.3s33.3-33.1 112.6-51c31-7 67.8-10.8 110.2-7.9 151 10.1 219.7 215 315.3 208.3 0 0-164.9 134.1-307.4 157.5-104.3 15.9-211.5-44.2-236.1-188.1-5.6-33.4 1.2-76.5 5.4-118.8m-1.7 901.2-688.2-397.3v37.8l688.2 397.4 679.8-392.5v-37.8z" class="tks_svg-st1"/><path d="M537.9 1529.5v37.9l688.2 397.4 679.8-392.5v-37.9l-679.8 392.5z" class="tks_svg-st1"/><path d="m1226.1 1888.1 679.8-392.4v-37.9l-679.8 392.5-688.2-397.4v37.9zm-4.2-749.8L567.2 790.6l14.5-27.2 640.2 339.9 640.2-339.9 14.5 27.2z" class="tks_svg-st1"/><path d="M1206.5 1102.3h30.8v632.8h-30.8z" class="tks_svg-st1"/><path d="m1221.9 1775.5-682.5-394V731.9l682.5-330.7 682.5 330.7v649.7zm-612.5-434.4 612.5 353.6 612.5-353.6V775.7l-612.5-296.8-612.5 296.8z" class="tks_svg-st1"/><path d="M1206.5 1102.3h30.8v632.8h-30.8z" class="tks_svg-st1"/><path d="m1226.1 2003.5-688.2-397.3v37.9l688.2 397.3 679.8-392.5v-37.8z" class="tks_svg-st1"/><path d="M537.9 1529.5v37.9l688.2 397.4 679.8-392.5v-37.9l-679.8 392.5z" class="tks_svg-st1"/><path d="m1226.1 1888.1 679.8-392.4v-37.9l-679.8 392.5-688.2-397.4v37.9zm-4.2-749.8L567.2 790.6l14.5-27.2 640.2 339.9 640.2-339.9 14.5 27.2z" class="tks_svg-st1"/></svg>