<svg xmlns="http://www.w3.org/2000/svg" xmlns:xlink="http://www.w3.org/1999/xlink" viewBox="0 0 200 200"><defs><linearGradient id="tomo_svg-a" x1="12.99" x2="180.26" y1="50.47" y2="150.47" gradientUnits="userSpaceOnUse"><stop offset="0" stop-color="#ff694d"/><stop offset="1" stop-color="#ffcc4d"/></linearGradient><linearGradient xlink:href="#tomo_svg-a" id="tomo_svg-b" x1="14.08" x2="181.36" y1="48.64" y2="148.64"/><linearGradient xlink:href="#tomo_svg-a" id="tomo_svg-c" x1="15.48" x2="182.76" y1="46.61" y2="146.61"/></defs><g data-name="Layer 2"><g data-name="Layer 4"><path d="M90.71 137.52a27.5 27.5 0 0 0 11.9 2.72 27.17 27.17 0 0 0 17.16-6.13c.66-.53 1.33-1.1 2-1.7a5.48 5.48 0 1 0-7.41-8.08c-.49.45-1 .87-1.47 1.27a16.12 16.12 0 0 1-17.45 2 16.42 16.42 0 0 1-9.57-15.12V83.3h32.81a4.8 4.8 0 1 0 0-9.59H85.85v-8.48a5.48 5.48 0 1 0-11 0v8.48h-9a4.8 4.8 0 0 0 0 9.59h9v29.21a27.48 27.48 0 0 0 15.86 25.01" style="fill:url(#tomo_svg-a)"/><path d="M173.25 115.76a4.2 4.2 0 0 0-4.12-5.06h-1.26a4.13 4.13 0 0 0-4.05 3.22 65.59 65.59 0 0 1-61.11 51.36c-46.17 1.87-82.41-44.45-62.42-92.67a59.87 59.87 0 0 1 32.38-32.34c33.08-13.69 65.26-.91 81.58 23.37a4.17 4.17 0 0 0 5.68 1.2l.74-.47A4.5 4.5 0 0 0 162 58c-18-26.45-52.35-40.87-88.39-28.42A70.85 70.85 0 0 0 30 72.63c-19 52.73 19.83 102.29 70 102.29a75.05 75.05 0 0 0 73.25-59.16" style="fill:url(#tomo_svg-b)"/><path d="M95.41.1C44 2.42 2.37 44.09.1 95.51A99.9 99.9 0 0 0 4 128.07a4.75 4.75 0 0 0 6.59 2.9h.08a4.76 4.76 0 0 0 2.52-5.66 90.1 90.1 0 0 1-3.53-28.97C11.54 49.67 49.29 11.73 96 9.68a90.41 90.41 0 1 1-15.47 178.6 4.54 4.54 0 0 0-4.53 1.64 4.87 4.87 0 0 0 2.73 7.79 100.8 100.8 0 0 0 24.95 2.23c51.84-1.86 94.05-43.73 96.28-95.56A100.11 100.11 0 0 0 95.41.1" style="fill:url(#tomo_svg-c)"/></g></g></svg>