<svg xmlns="http://www.w3.org/2000/svg" xml:space="preserve" width="500" height="500"><rect width="100%" height="100%" y="66.049" style="fill:none;stroke:none"/><g class="tpay_svg-currentLayer"><g style="stroke-width:0"><path d="M329.687 206.937c0 76.404-61.937 138.341-138.34 138.341s-138.34-61.937-138.34-138.341 61.936-138.34 138.34-138.34 138.34 61.936 138.34 138.34" style="fill:#3058a6;fill-opacity:1;fill-rule:nonzero;stroke:none;stroke-width:0" transform="translate(58.599 43.117)"/></g><g style="stroke-width:0"><path d="M191.347 331.427c-68.645 0-124.49-55.846-124.49-124.49 0-68.646 55.845-124.491 124.49-124.491S315.84 138.29 315.84 206.936s-55.847 124.491-124.492 124.491" style="fill:#3058a6;fill-opacity:1;fill-rule:nonzero;stroke:none;stroke-width:0" transform="translate(58.599 43.117)"/></g><g style="stroke-width:0"><path d="M191.347 327.584c-66.632 0-120.648-54.014-120.648-120.647 0-66.63 54.016-120.648 120.648-120.648s120.648 54.017 120.648 120.648c0 66.633-54.016 120.647-120.648 120.647m0-248.98c-70.764 0-128.335 57.57-128.335 128.333S120.583 335.27 191.347 335.27s128.335-57.57 128.335-128.334c0-70.763-57.57-128.333-128.335-128.333" style="fill:#fff;fill-opacity:1;fill-rule:nonzero;stroke:none;stroke-width:0" transform="translate(58.599 43.117)"/></g><g style="stroke-width:0"><path d="m236.537 252.839-6.69 29.01-1.622 7.023-7.207-.003-37.028-.015h-.072l-.073-.003c-14.848-.248-26.503-4.188-34.148-11.158 6.607 11.64 20.621 18.388 40.19 18.71h.146l37.027.016 7.208.004 1.62-7.022 6.69-29.011-5.224-11.088z" style="fill:#fff;fill-opacity:1;fill-rule:nonzero;stroke:none;stroke-width:0" transform="translate(58.599 43.117)"/></g><g style="stroke-width:0"><path d="m224.898 128.448-5.284-10.997-.757 3.445-5.024 22.868h7.701z" style="fill:#fff;fill-opacity:1;fill-rule:nonzero;stroke:none;stroke-width:0" transform="translate(58.599 43.117)"/></g><g style="stroke-width:0"><path d="m251.63 154.902-6.67 28.22-1.647 6.973h-40.125l-10.191 46.526c-.213 1.33-.353 2.686-.353 3.428 0 .669.082 1.088.144 1.285.24.112.94.367 2.393.415h4.39l9.66-44.102h40.122l1.648-6.973 6.672-28.22-5.195-11.139z" style="fill:#fff;fill-opacity:1;fill-rule:nonzero;stroke:none;stroke-width:0" transform="translate(58.599 43.117)"/></g><g style="stroke-width:0"><path d="M152.07 190.095h-27.966l9.63 7.552h16.685z" style="fill:#fff;fill-opacity:1;fill-rule:nonzero;stroke:none;stroke-width:0" transform="translate(58.599 43.117)"/></g><g style="stroke-width:0"><path d="M196.07 250.805h-1.02c-7.792-.2-11.463-4.252-11.463-10.756 0-1.539.259-3.594.513-5.132l11.802-53.876h40.248l6.669-28.222h-40.247l7.44-33.866h-32.837l-7.443 33.866h-35.626l-6.414 28.222h35.627l-13.855 63.37c-.77 3.076-1.026 6.667-1.026 8.464 0 18.083 14.262 26.57 35.558 26.922l37.027.019 6.692-29.011H204.75Z" style="fill:#fff;fill-opacity:1;fill-rule:nonzero;stroke:none;stroke-width:0" transform="translate(58.599 43.117)"/></g></g></svg>