<svg xmlns="http://www.w3.org/2000/svg" viewBox="0 0 683.354 744.389"><defs><style>.trtl_svg-cls-1{fill:#00843d}</style></defs><g id="trtl_svg-Layer_2" data-name="Layer 2"><path d="M341.677 100.536a57.5 57.5 0 0 1 28.782 7.712l183.577 105.986a57.56 57.56 0 0 1 28.783 49.854V480.3a57.56 57.56 0 0 1-28.783 49.853L370.46 636.141a57.56 57.56 0 0 1-57.565 0L129.318 530.154a57.57 57.57 0 0 1-28.783-49.853V264.088a57.57 57.57 0 0 1 28.783-49.854l183.576-105.986a57.5 57.5 0 0 1 28.783-7.712m0-40a97.7 97.7 0 0 0-48.783 13.071L109.319 179.593a97.84 97.84 0 0 0-48.784 84.495V480.3a97.84 97.84 0 0 0 48.784 84.495l183.576 105.986a97.56 97.56 0 0 0 97.564 0l183.577-105.987a97.83 97.83 0 0 0 48.783-84.494V264.088a97.83 97.83 0 0 0-48.785-84.496L390.46 73.607a97.7 97.7 0 0 0-48.782-13.071" class="trtl_svg-cls-1"/><path d="M319.139 406.138a12 12 0 0 1-10.392-6l-22.094-38.268a12 12 0 0 1 0-12l22.094-38.267a12 12 0 0 1 10.392-6h45.072a12 12 0 0 1 10.391 6l22.094 38.267a12 12 0 0 1 0 12l-22.094 38.268a12 12 0 0 1-10.391 6Zm-60.198-60.266a12 12 0 0 0 10.392-6l22.094-38.268a12 12 0 0 0 0-12l-27.554-47.724-53.736 29.335a12.01 12.01 0 0 0-6.25 10.799 337.3 337.3 0 0 0 7.47 63.858Zm165.469 0a12 12 0 0 1-10.392-6l-22.093-38.268a12 12 0 0 1 0-12l27.553-47.724 53.736 29.335a12.01 12.01 0 0 1 6.249 10.799 337.3 337.3 0 0 1-7.469 63.858Zm-76.984-143.326a12 12 0 0 0-11.5 0l-54.493 29.748 27.315 47.312a12 12 0 0 0 10.393 6h45.07a12 12 0 0 0 10.393-6l27.315-47.312ZM216.32 365.872a335.1 335.1 0 0 0 48.588 102.201l26.52-45.933a12 12 0 0 0 0-12l-22.093-38.268a12 12 0 0 0-10.392-6Zm250.713 0a335.1 335.1 0 0 1-48.589 102.201l-26.52-45.933a12 12 0 0 1 0-12l22.095-38.268a12 12 0 0 1 10.391-6ZM319.14 426.138a12 12 0 0 0-10.391 6l-30.772 53.298a338.6 338.6 0 0 0 56.345 55.355 12 12 0 0 0 14.701.008 338.7 338.7 0 0 0 56.354-55.363l-30.772-53.298a12 12 0 0 0-10.392-6Z" class="trtl_svg-cls-1"/></g></svg>