<svg xmlns="http://www.w3.org/2000/svg" viewBox="0 0 1897 2000"><g fill="none"><path fill="#5AAFFF" d="M1039.239 1296.529V791.013h66.468c219.501 0 273.603-204.807 273.603-204.807H802.735c-273.603 0-319.976 204.807-319.976 204.807H822.83v760.71s216.409-65.018 216.409-255.195"/><path fill="#5DC9BC" d="M1672.333 1690.45c193.874-201.497 268.322-481.439 198.527-749.075-35.673-138.432-110.12-266.098-214.037-369.153-9.306-9.23-18.612-18.458-29.469-27.687l-9.306-9.229c-6.204-6.152-13.959-12.305-20.163-16.92l-12.408-9.228q-9.306-6.923-18.612-13.843l-10.857-7.691c-9.306-6.153-15.51-10.767-21.714-15.382l-13.959-9.228c-6.204-4.615-12.408-7.691-18.612-10.767l-13.958-9.23c-6.204-3.076-12.408-7.69-18.612-10.766l-13.96-7.69c-6.203-3.077-12.407-6.153-20.162-9.23l-4.653-1.538c17.06 13.843 34.122 29.225 49.632 44.606 297.79 295.323 297.79 776.76 0 1072.084-378.443 375.306-992.637 375.306-1371.08 0-13.958-13.844-26.366-27.687-40.325-41.53l-10.857-12.305c-7.755-9.229-15.51-18.458-23.265-29.225 48.08 95.365 111.671 181.5 187.67 258.408 395.504 392.225 1037.615 392.225 1433.119 0 7.755-4.615 12.408-9.23 17.06-15.382"/><path fill="#5AAFFF" d="M464.9 1586.207c-17.076-13.857-34.153-29.253-49.677-44.65-298.062-295.609-298.062-777.514 0-1073.124 378.788-375.67 993.542-375.67 1372.33 0a952 952 0 0 1 74.516 83.14c-48.125-93.917-111.774-181.676-187.842-257.118-395.864-392.607-1038.561-392.607-1434.426 0-4.657 4.619-9.314 10.777-15.524 15.396C-38.08 583.906-73.786 993.448 135.79 1304.454c82.277 120.091 197.156 220.168 329.11 281.753"/></g></svg>