<svg xmlns="http://www.w3.org/2000/svg" width="257" height="64" viewBox="0 0 257 64"><g fill="#FF4A4A"><path d="M164.4 63.8h-10.8c-2 0-3.7-1.6-3.7-3.7V31.7L131 43.5c-1.6 1-3.6 1-5.2 0L107 31.7v28.4c0 2-1.6 3.7-3.7 3.7H92.6c-2 0-3.7-1.6-3.7-3.7V5.3c0-2.7 2.2-4.9 4.9-4.9q1.5 0 2.7.9l29.8 20.5c1.2.9 2.9.9 4.1 0l29.8-20.5c2.2-1.5 5.3-.9 6.8 1.3.6.8.8 1.8.9 2.7v54.8c.1 2-1.5 3.7-3.5 3.7m-91.6-.1h-67c-2.7 0-4.9-2.2-4.9-4.9V3.7C1 1.6 2.6 0 4.7 0h10.8c2 0 3.7 1.6 3.7 3.7v41.9h40.6V3.7c0-2 1.6-3.7 3.7-3.7H74c2 0 3.7 1.6 3.7 3.7v55.1c0 2.7-2.2 4.9-4.9 4.9M184.2 0h67c2.7 0 4.9 2.2 4.9 4.9V60c0 2-1.6 3.7-3.6 3.7h-10.8c-2 0-3.7-1.6-3.7-3.7V20.5c0-1.3-1.1-2.4-2.4-2.4h-35.7c-1.3 0-2.4 1.1-2.4 2.4V60c0 2-1.6 3.7-3.7 3.7H183c-2 0-3.7-1.6-3.7-3.7V4.9c0-2.7 2.2-4.9 4.9-4.9"/><path d="M212.3 29.7H223c2 0 3.7 1.6 3.7 3.7v10.9c0 2-1.6 3.7-3.7 3.7h-10.7c-2 0-3.7-1.6-3.7-3.7v-11c0-2 1.7-3.6 3.7-3.6"/></g></svg>