<svg xmlns="http://www.w3.org/2000/svg" width="200" height="200"><path d="M0 0v86h1C2.778 45.22 45.22 2.778 86 1L59 0z" style="fill:#010101;stroke:none"/><path d="M86 .428C71.786 2.465 58.11 7.345 46 15.054 34.785 22.194 25.349 31.108 17.722 42-31.528 112.325 28.29 211.851 114 199.572c14.214-2.037 27.889-6.917 40-14.626 11.216-7.14 20.651-16.054 28.279-26.946C231.52 87.685 171.696-11.849 86 .428" style="fill:#d5d5d6;stroke:none"/><path d="M114 0v1c40.781 1.778 83.222 44.22 85 85h1V0z" style="fill:#010101;stroke:none"/><path d="m188 52 1 1zM50 62v1l34-1h65l-28-1H74z" style="fill:#4dbebe;stroke:none"/><path d="M51 62v44c0 5.183-1.17 14.024 2.175 18.436 2.233 2.945 7.549 2.542 10.825 2.988 11.499 1.565 25.644.011 36-5.424L66.428 91z" style="fill:#06a5c8;stroke:none"/><path d="M52 62c7.128 19.09 15.958 35.857 32 49.076 4.364 3.597 10.295 9.012 16 10.17 6.304 1.28 14.361-5.616 19-9.145 15.825-12.038 27.325-30.254 30-50.101z" style="fill:#024971;stroke:none"/><path d="m148.333 65.667.334.666zM147 69l1 1zm3 0v46h1c0-13.003 4.01-34.061-1-46m-3.667 3.667.334.666z" style="fill:#4dbebe;stroke:none"/><path d="M149 74c-2.021 14.994-10.664 29.259-21.09 39.961-4.798 4.925-12.248 8.285-15.91 14.039 8.343 1.418 23.309 8.805 31.61 5.357 4.272-1.774 5.083-9.439 5.775-13.357 2.016-11.408 4.089-35.337-.385-46" style="fill:#06a5c8;stroke:none"/><path d="m145 76 1 1zm3.333.667.334.666zM144 78l1 1zm3.333 2.667.334.666zM142 83l1 1zm4.333.667.334.666zM141 85l1 1zm4.333 1.667.334.666zM144 89l1 1zm-6 1 1 1zm5 1 1 1zm-6 1 1 1zm-1 1 1 1zm6 0 1 1zm-7 2 1 1zm6 0 1 1zm-7 1 1 1zm6 1 1 1zm-1 2 1 1zm-1 1 1 1zm-8 1 1 1zm-1 1 1 1zm8 0 1 1zm-9 1 1 1zm8 0 1 1zm-9 1 1 1zm-1 1 1 1zm9 0 1 1zm-10 1 1 1zm9 0 1 1zm-10 1 1 1zm9 0 1 1zm-10 1 1 1zm-1 1 1 1z" style="fill:#4dbebe;stroke:none"/><path d="m119 111 1 1z" style="fill:#06a5c8;stroke:none"/><path d="m130 111 1 1zm-12 1 1 1zm11 0 1 1zm-1 1 1 1z" style="fill:#4dbebe;stroke:none"/><path d="M0 114v86h86v-1c-32.049-1.397-62.428-27.474-76.191-55-4.792-9.584-5.544-20.503-9.809-30" style="fill:#010101;stroke:none"/><path d="m115 114 1 1zm12 0 1 1z" style="fill:#4dbebe;stroke:none"/><path d="M199 114c-1.778 40.781-44.219 83.222-85 85v1h86v-59z" style="fill:#010101;stroke:none"/><path d="m114 115 1 1zm12 0 1 1zm-14 1 1 1zm13 0 1 1zm-1 1 1 1zm-73 1v4h1zm58 0 1 1zm-2 1 1 1zm14 0 1 1zm28 0v3h1zm-44 1 1 1zm15 0 1 1zm-17 1 1 1zm16 0 1 1zm-19.333 1.333.666.334zm-2 1 .666.334zM116 123l1 1zm-64 1 1 1zm42.667.333.666.334zM115 124l1 1zm33.333.667.334.666zm-57.666.666.666.334zM113 125l1 1zm-59 1v1h3zm32.667.333.666.334zM59 127v1h6zm18 0v1h6zm-19 9c12.966 38.452 72.402 28.858 87-2-10.757-.849-23.646-7.022-34-6.309-5.4.372-10.814 4.511-16 6.104-11.447 3.516-25.225 5.008-37 2.205m89-8 1 1zm-1 2 1 1zm-1 2 1 1z" style="fill:#4dbebe;stroke:none"/></svg>