<svg xmlns="http://www.w3.org/2000/svg" xml:space="preserve" id="usdc_svg-Capa_1" width="32" height="32" x="0" y="0" version="1.1" viewBox="0 0 32 32"><style>.usdc_svg-st1{fill:#fff}</style><path d="M16 32c8.9 0 16-7.1 16-16S24.9 0 16 0 0 7.1 0 16s7.1 16 16 16" style="fill:#2775ca"/><path d="M20.4 18.5c0-2.3-1.4-3.1-4.2-3.5-2-.3-2.4-.8-2.4-1.7s.7-1.5 2-1.5c1.2 0 1.9.4 2.2 1.4.1.2.3.3.5.3h1.1c.3 0 .5-.2.5-.5-.3-1.5-1.5-2.6-3-2.7V8.7c0-.3-.2-.5-.5-.5h-1c-.3 0-.5.2-.5.5v1.5c-2 .3-3.3 1.6-3.3 3.3 0 2.2 1.3 3.1 4.1 3.4 1.9.3 2.5.7 2.5 1.8s-.9 1.8-2.2 1.8c-1.7 0-2.3-.7-2.5-1.7-.1-.3-.3-.4-.5-.4h-1.1c-.3 0-.5.2-.5.5v.1c.3 1.7 1.3 2.9 3.5 3.2v1.6c0 .3.2.5.5.5h1c.3 0 .5-.2.5-.5v-1.6c2-.5 3.3-1.9 3.3-3.7" class="usdc_svg-st1"/><path d="M12.6 25.5c-5.2-1.9-7.9-7.7-5.9-12.8 1-2.8 3.2-4.9 5.9-5.9.3-.1.4-.3.4-.7v-.9c0-.3-.1-.5-.4-.5-.1 0-.2 0-.3.1-6.3 2-9.8 8.7-7.8 15.1 1.2 3.7 4.1 6.6 7.8 7.8q.45.15.6-.3c.1-.1.1-.1.1-.3v-.9c0-.3-.2-.5-.4-.7m7.1-20.8q-.45-.15-.6.3c-.1.1-.1.1-.1.3v.9c0 .3.2.5.4.7 5.2 1.9 7.9 7.7 5.9 12.8-1 2.8-3.2 4.9-5.9 5.9-.3.1-.4.3-.4.7v.9c0 .3.1.5.4.5.1 0 .2 0 .3-.1 6.3-2 9.8-8.7 7.8-15.1-1.2-3.7-4.2-6.6-7.8-7.8" class="usdc_svg-st1"/></svg>