<svg xmlns="http://www.w3.org/2000/svg" xml:space="preserve" width="32" height="32" viewBox="0 0 32 32"><path d="M5.9 2.3 0 14.4c0 .1 0 .2.1.3l15.8 15.1q.15.15.3 0L32 14.7c.1-.1.1-.2.1-.3L26 2.3c0-.1-.1-.2-.2-.2H6.1c-.1 0-.2.1-.2.2" style="fill-rule:evenodd;clip-rule:evenodd;fill:#50af95"/><path d="M18.1 15.7h-4c-4-.2-7-.9-7-1.7 0-.9 3-1.6 7-1.7V15c.3 0 1 .1 2 .1 1.2 0 1.9-.1 2-.1v-2.7c4 .2 7 .9 7 1.7s-3 1.5-7 1.7m0-3.8V9.5h5.6V5.9H8.5v3.7h5.6V12c-4.5.2-8 1-8 2.1s3.4 2 7.9 2.2v7.8h4v-7.8c4.5-.2 7.9-1.1 7.9-2.2s-3.2-1.9-7.8-2.2m0 0" style="fill-rule:evenodd;clip-rule:evenodd;fill:#fff"/></svg>