<svg xmlns="http://www.w3.org/2000/svg" width="500pt" height="500pt" viewBox="0 0 500 500"><g fill="#fff"><path d="M227.59 132.38c.35-4.05 6.4-4.09 6.94-.1 1.96 17.82 2.42 35.8 3.85 53.69.26 5.35.44 10.75 1.61 16.01 2.68-3.51 1.82-9.73 6.77-11.19 4.04-1.36 8.67.89 12.54-1.51 5.32-3.19 7.27-9.53 10.59-14.43 1.92-3.21 6.26-5.47 9.85-3.64 3.57 1.35 5.04 5.15 6.9 8.17 2.09 3.44 3.98 7.31 7.42 9.62 3.03 1.28 6.42 1.52 9.68 1.44 6.63-14.93 13.45-29.78 20.19-44.67 11.79 14.79 22.96 30.06 34.69 44.89-18.45-.2-36.9.11-55.34-.16-.68 1.65-1.36 3.3-2.02 4.96-4.42-.5-9.18-1-12.87-3.71-5.08-4.4-7.02-11.19-11.53-16.07-5.33 5.76-7.2 15.06-15.16 18.02-4.09 1.99-8.98.33-13.01 1.84-3.51 6.94-3.07 15.13-5.79 22.35-1.82 3.4-7.31 1.7-7.31-2.03-2.32-19.58-2.49-39.34-4.6-58.93-2.22 17.61-2.8 35.41-5.6 52.96 0 4.49-7.11 5.25-7.8.7-1.38-5.09-1.71-10.5-4.23-15.24-4.44-.09-8.88-.07-13.32.03-20.11.09-40.21.01-60.32.01-.59-1.14-1.17-2.27-1.76-3.4.49-.3 1.48-.9 1.97-1.2 19.35-.24 38.72-.02 58.08-.09 6.3-.01 12.61.13 18.91-.25 2.31 2.15 3.55 5.06 4.48 8.01 1.15-3.03 1.62-6.25 1.8-9.47 2.01-18.82 2.33-37.8 4.39-56.61"/><path d="M357.08 195.28c.93-.1 1.81-.39 2.65-.85-.69 1.05-1.35 2.12-1.91 3.25-23.63 49.76-47.26 99.53-70.89 149.3-3.43 7.14-6.79 14.32-10.66 21.24-8.89-19.69-17.23-39.63-26.22-59.27 16.91-37.86 34.36-75.48 51.16-113.38 18.61-.62 37.25-.04 55.87-.29"/></g><g fill="#659dda"><path d="M233.48 88.74c29.4-2.86 59.56 2.54 86.09 15.54 19.77 9.67 37.63 23.36 51.86 40.17 20.41 23.77 33.56 53.66 37.35 84.76 3.86 30.71-1.43 62.49-15.03 90.3-10.8 22.18-26.75 41.86-46.32 56.9C319.8 397.87 285 409.87 250.01 410c-45.13.51-90.04-19.16-120.18-52.76-21.07-23.05-35.1-52.41-39.88-83.26-5.14-32.28-.08-66.08 14.28-95.45 8.86-18.14 21.09-34.7 36.05-48.27 25.46-23.48 58.73-38.24 93.2-41.52m-5.89 43.64c-2.06 18.81-2.38 37.79-4.39 56.61-.18 3.22-.65 6.44-1.8 9.47-.93-2.95-2.17-5.86-4.48-8.01-6.3.38-12.61.24-18.91.25-6.2-14.02-12.41-28.04-18.53-42.09-.59-1.27-1.27-2.48-2.01-3.65-1.61 1.6-3.15 3.26-4.55 5.04-10.95 13.63-22.05 27.15-32.99 40.79-.49.3-1.48.9-1.97 1.2.59 1.13 1.17 2.26 1.76 3.4 28.05 57.55 55.9 115.19 83.88 172.78 17.56.01 35.11-.09 52.67.05 3.87-6.92 7.23-14.1 10.66-21.24 23.63-49.77 47.26-99.54 70.89-149.3.56-1.13 1.22-2.2 1.91-3.25.98-1.73.61-2.99-1.11-3.77-11.73-14.83-22.9-30.1-34.69-44.89-6.74 14.89-13.56 29.74-20.19 44.67-3.26.08-6.65-.16-9.68-1.44-3.44-2.31-5.33-6.18-7.42-9.62-1.86-3.02-3.33-6.82-6.9-8.17-3.59-1.83-7.93.43-9.85 3.64-3.32 4.9-5.27 11.24-10.59 14.43-3.87 2.4-8.5.15-12.54 1.51-4.95 1.46-4.09 7.68-6.77 11.19-1.17-5.26-1.35-10.66-1.61-16.01-1.43-17.89-1.89-35.87-3.85-53.69-.54-3.99-6.59-3.95-6.94.1"/><path d="M230.99 156.93c2.11 19.59 2.28 39.35 4.6 58.93 0 3.73 5.49 5.43 7.31 2.03 2.72-7.22 2.28-15.41 5.79-22.35 4.03-1.51 8.92.15 13.01-1.84 7.96-2.96 9.83-12.26 15.16-18.02 4.51 4.88 6.45 11.67 11.53 16.07 3.69 2.71 8.45 3.21 12.87 3.71l-.05.11c-16.8 37.9-34.25 75.52-51.16 113.38-16.7-37.84-33.33-75.72-50.01-113.57 4.44-.1 8.88-.12 13.32-.03 2.52 4.74 2.85 10.15 4.23 15.24.69 4.55 7.8 3.79 7.8-.7 2.8-17.55 3.38-35.35 5.6-52.96"/></g><path fill="#ffb400" d="M177.47 144.96c.74 1.17 1.42 2.38 2.01 3.65 6.12 14.05 12.33 28.07 18.53 42.09-19.36.07-38.73-.15-58.08.09 10.94-13.64 22.04-27.16 32.99-40.79 1.4-1.78 2.94-3.44 4.55-5.04m125.81 45.54c18.44.27 36.89-.04 55.34.16 1.72.78 2.09 2.04 1.11 3.77-.84.46-1.72.75-2.65.85-18.62.25-37.26-.33-55.87.29l.05-.11c.66-1.66 1.34-3.31 2.02-4.96m-163.56 4.89c20.11 0 40.21.08 60.32-.01 16.68 37.85 33.31 75.73 50.01 113.57 8.99 19.64 17.33 39.58 26.22 59.27-17.56-.14-35.11-.04-52.67-.05-27.98-57.59-55.83-115.23-83.88-172.78"/></svg>