<svg xmlns="http://www.w3.org/2000/svg" width="139" height="133" viewBox="0 0 139 133"><g fill="none"><path fill="#5A5564" d="m101.09 32.93-3 3c14.838 16.226 14.838 41.094 0 57.32l3 3c16.508-17.906 16.508-45.484 0-63.39zM38 33.19c16.226-14.838 41.094-14.838 57.32 0l3-3c-17.906-16.508-45.484-16.508-63.39 0zm-2.81 60.09c-14.82-16.222-14.82-41.068 0-57.29l-3-3c-16.508 17.906-16.508 45.484 0 63.39zm60.09 2.77c-16.226 14.838-41.094 14.838-57.32 0l-3 3c17.906 16.508 45.484 16.508 63.39 0z"/><path fill="#F09242" d="M85.57 54.62c-.6-6.26-6-8.36-12.83-9V37h-5.28v8.46h-4.22V37H58v8.68H47.29v5.65s3.9-.07 3.84 0a2.73 2.73 0 0 1 3 2.32v23.76a1.85 1.85 0 0 1-.64 1.29 1.83 1.83 0 0 1-1.36.46c.07.06-3.84 0-3.84 0l-1 6.31H57.9v8.82h5.28V85.6h4.22v8.65h5.29v-8.72c8.92-.54 15.14-2.74 15.92-11.09.63-6.72-2.53-9.72-7.58-10.93C84.1 62 86 59.2 85.57 54.62m-7.4 18.78c0 6.56-11.24 5.81-14.82 5.81V67.57c3.58.01 14.82-1.02 14.82 5.83M75.72 57c0 6-9.38 5.27-12.36 5.27V51.69c2.98 0 12.36-.94 12.36 5.31"/><path fill="#282138" d="M66.62 119.26C36.451 119.254 11.998 94.795 12 64.627S36.458 10.002 66.627 10c30.168-.002 54.627 24.451 54.633 54.62a54.63 54.63 0 0 1-54.64 54.64m0-105c-27.794.022-50.311 22.566-50.3 50.36s22.546 50.32 50.34 50.32S116.989 92.414 117 64.62a50.34 50.34 0 0 0-50.38-50.36"/></g></svg>