<svg xmlns="http://www.w3.org/2000/svg" viewBox="0 0 350 350"><g data-name="Layer 2"><circle cx="175" cy="175" r="175" style="fill:#fff"/><path d="M242.28 111.58c-2.57-3.5-6.76-6.35-12.5-8.56s-13.63-3.32-23.63-3.32H185l17.17-47.17 11.45-31.45a158.5 158.5 0 0 0-35.16-4.69c-1.16 0-2.31-.09-3.48-.09-1.8 0-3.59.08-5.37.14C84.6 19.29 16.3 89.3 16.3 175a158.32 158.32 0 0 0 54.12 119.21L82.85 260a125 125 0 0 1-33.32-85c0-63.11 46.84-115.46 107.58-124.17 3-.44 6.1-.75 9.19-1l-45.82 125.92 91.41-9a1 1 0 0 0-.15-.06 41.5 41.5 0 0 0 8.17-3.64 59.6 59.6 0 0 0 9-6.32 56 56 0 0 0 8.29-8.66 40.7 40.7 0 0 0 6.09-11.13 42.8 42.8 0 0 0 2.71-13.38 18.63 18.63 0 0 0-3.72-11.98m-39 30.7c-2 5.42-5.1 9.24-9.41 11.45a28.34 28.34 0 0 1-13.08 3.32h-16.48l11.06-30.39h16.48a22.6 22.6 0 0 1 5.82.75 10.7 10.7 0 0 1 4.67 2.46 7.54 7.54 0 0 1 2.21 4.82 16.9 16.9 0 0 1-1.27 7.59" style="fill:#263238"/><path d="m221.67 23.31-11.4 31.3a125.46 125.46 0 1 1-84 236c-2.57-1.09-5.08-2.29-7.56-3.54l13-35.65h21.13q28.68 0 47.09-9.74t26.21-31.13c1.92-5.28 2.62-9.92 2.06-13.91a25.3 25.3 0 0 0-3.53-10.27 22.3 22.3 0 0 0-6.71-6.86 38.7 38.7 0 0 0-6.7-3.46l-92.26 9.1-29.67 81.39-12.12 33.31a159.5 159.5 0 0 0 30.07 18.64q3.77 1.77 7.62 3.35A157.8 157.8 0 0 0 175 333.7c87.51 0 158.7-71.19 158.7-158.7 0-71.27-47.23-131.71-112.03-151.69M154 190.65h19.26a39 39 0 0 1 6.84.65 16.35 16.35 0 0 1 6.19 2.35 8.56 8.56 0 0 1 3.52 5q.93 3.31-1 8.66a25.2 25.2 0 0 1-5.49 9.21 23.9 23.9 0 0 1-7.22 5.13 28.2 28.2 0 0 1-7.87 2.25 55.5 55.5 0 0 1-7.26.53h-19.3Z" style="fill:#20af65"/></g></svg>