<svg xmlns="http://www.w3.org/2000/svg" data-name="Layer 1" viewBox="0 0 219.1 174.31"><path d="m227.1 33.3-36.3 16.1a6.73 6.73 0 0 0-3.5 5.9v129.8a6.6 6.6 0 0 0 3.6 5.9l36.3 15.7a3.38 3.38 0 0 0 5-3V36.3a3.5 3.5 0 0 0-5.1-3M53.3 49.2l-35.2-16a3.38 3.38 0 0 0-5 3v167.4a3.41 3.41 0 0 0 5.2 2.9l35.4-18.7a6.67 6.67 0 0 0 3.2-5.7v-127a7 7 0 0 0-3.6-5.9m110.4 44.3-37.9-21.7a6.68 6.68 0 0 0-6.7 0L80.5 93.3a6.84 6.84 0 0 0-3.4 5.9v44a6.84 6.84 0 0 0 3.4 5.9l38.6 22.2a6.68 6.68 0 0 0 6.7 0l37.9-22a6.84 6.84 0 0 0 3.4-5.9v-44a6.72 6.72 0 0 0-3.4-5.9" style="fill:url(#xin_svg-Безымянный_градиент_7)" transform="translate(-13.1 -32.79)"/></svg>