<svg xmlns="http://www.w3.org/2000/svg" id="xmo_svg-Слой_1" data-name="Слой 1" viewBox="0 0 256 256"><defs><style>.xmo_svg-cls-1{fill:#f60}</style></defs><path d="M256 128A128 128 0 1 1 25.23 51.67L46.16 72.6a98.84 98.84 0 1 0 163.68 0l20.92-20.92A127.38 127.38 0 0 1 256 128" class="xmo_svg-cls-1"/><path d="M222.84 152a70.84 70.84 0 1 1-132.38-35.09L152 178.44l61.53-61.53a70.7 70.7 0 0 1 9.31 35.09" style="fill:#4c4c4c" transform="translate(-24 -24)"/><path d="M211.69 31.15 128 114.84 64.23 51.07 44.3 31.15a128 128 0 0 1 167.39 0" class="xmo_svg-cls-1"/></svg>