<svg xmlns="http://www.w3.org/2000/svg" id="xsg_svg-Слой_1" data-name="Слой 1" viewBox="0 0 93.8 107.4"><defs><style>.xsg_svg-cls-1{fill:#d21e2b}.xsg_svg-cls-2{fill:#df616b}</style></defs><path d="M11.9 73.9V33.5l35-20.1 34.9 20.1v40.4L46.9 94.1Z" class="xsg_svg-cls-1"/><path d="M47.6 12.2V0L93 26.2l-10.5 6.1Z" class="xsg_svg-cls-2"/><path d="M83.2 73.8V33.6l10.6-6.1v52.4ZM47.6 95.2l34.9-20.1L93 81.2l-45.4 26.2ZM.7 81.2l10.6-6.1 34.8 20.1v12.2Z" class="xsg_svg-cls-1"/><path d="m0 27.5 10.5 6.1v40.2L0 79.9Z" class="xsg_svg-cls-2"/><path d="M.7 26.2 46.1 0v12.2L11.3 32.3Zm45.4 57.3v-9.4l-8.4 4.7-1.6-2.6 10-5.5V56.3l-12.8 7.2v11.1h-3.2v-9.4l-8.3 4.7-1.6-2.6 8.4-4.7-8.4-4.7 1.6-2.6 9.9 5.6 12.9-7.2-12.9-7.2-9.9 5.6-1.6-2.6 8.4-4.7-8.4-4.7 1.6-2.6 8.3 4.7v-9.4h3.2v11.1l12.8 7.2V36.7l-9.9-5.5 1.5-2.6 8.4 4.7v-9.4h3.1v9.4l8.4-4.7 1.5 2.6-9.9 5.5v14.4L62 43.9V32.8h3.1v9.4l8.4-4.7 1.5 2.6-8.4 4.7 8.4 4.7-1.5 2.6-10-5.6-12.8 7.2 12.8 7.2 10-5.6 1.5 2.6-8.4 4.7 8.4 4.7-1.5 2.6-8.4-4.7v9.4H62V63.5l-12.8-7.2v14.4l9.9 5.5-1.5 2.6-8.4-4.7v9.4Z" style="fill:#f6d2d5"/></svg>