<svg xmlns="http://www.w3.org/2000/svg" width="50" height="50" viewBox="0 0 50 50"><g fill="none" fill-rule="evenodd"><path fill="#006AE3" d="M25 0c13.805 0 25 11.195 25 25S38.805 50 25 50 0 38.805 0 25 11.195 0 25 0"/><g fill="#FFF" fill-rule="nonzero"><path d="M23.97 35.54v-20.8h2.265v20.8z"/><path d="m35.5 21.67-6.995 1.855-1.56-7.26 2.08-.47.82 3.44s1.89-3.1-.63-6.31c-1.485-1.65-2.19-1.72-3.855-1.98-1.465-.21-4.87.285-5.885 4.26-.43 2.56.055 4.455 3.355 6.935l-.185 2.76s-3.685-2.595-4.635-4.415c-.735-1.44-1.995-4.285.28-8.245 1.225-1.98 3.64-3.88 7.895-3.68 2.14.09 7.365 2.705 6.555 8.815-.14 1.145-.735 2.67-.735 2.67l2.87-.64zm-3.995 16.275c-1.28 1.945-3.745 3.78-7.99 3.47-2.14-.145-7.29-2.9-6.32-8.985.17-1.14.805-2.645.805-2.645l-2.885.56-.565-2.275 7.045-1.67 1.37 7.3-2.095.415-.73-3.465s-1.97 3.045.46 6.325c1.44 1.69 2.14 1.775 3.805 2.08 1.455.25 4.875-.16 5.995-4.105.495-2.545.06-4.455-3.17-7.025l.26-2.755s3.615 2.69 4.515 4.535c.69 1.465 1.875 4.345-.5 8.24"/></g></g></svg>