<svg xmlns="http://www.w3.org/2000/svg" width="40" height="40" viewBox="0 0 40 40"><g fill="none" fill-rule="evenodd"><path fill="#000" d="M0 0h40v40H0z"/><g fill="#FFF" fill-rule="nonzero"><path d="m36 8.305-3.237 5.039c1.008 1.954 1.558 4.183 1.558 6.534 0 8-6.474 14.443-14.443 14.443a14.1 14.1 0 0 1-6.504-1.558l-5.069 3.268c3.268 2.32 7.237 3.725 11.542 3.725 10.962 0 19.878-8.886 19.878-19.878 0-4.336-1.374-8.305-3.725-11.573"/><path d="M19.878 29.802c4.885 0 8.946-3.512 9.801-8.153a22.68 22.68 0 0 0-18.076 3.756 9.92 9.92 0 0 0 8.275 4.397"/><path d="M24.763 19.328c1.74 0 3.42.183 5.07.55 0-5.496-4.459-9.985-9.986-9.985-5.496 0-9.954 4.458-9.954 9.985 0 .458.03.885.092 1.343-2.504 1.924-3.695 3.42-3.756 3.481a14.6 14.6 0 0 1-.824-4.794c0-8 6.473-14.442 14.442-14.442 2.351 0 4.55.55 6.504 1.557l5.038-3.267A19.38 19.38 0 0 0 19.878 0C8.885 0 0 8.885 0 19.878a19.7 19.7 0 0 0 3.878 11.786 23.4 23.4 0 0 1 3.39-4.672s1.953-2.045 3.45-3.084a23.7 23.7 0 0 1 14.045-4.58"/></g></g></svg>