<svg xmlns="http://www.w3.org/2000/svg" viewBox="0 0 792 612"><clipPath id="zilla_svg-a"><path d="M386.2 168.3c-5-.6-10.1-1.3-15.1-1.9-1.1-.1-2.5-.3-3.5.2-6.7 3.4-9.7 11.5-6.3 18.4 1.9 3.9 2.5 7.5 1.7 11.6-.2 1 .2 2.2.6 3.1 3.9 9.2 4.6 18.4 1.5 28-.5 1.5-.2 3.3-.1 4.9.2 3.1.4 6.2.7 9.3-4.9-3.8-10.3-7.2-14.4-11.8-4-4.5-6.1-10.4-5.6-16.9.1-1.2-.9-2.6-1.7-3.7-2.3-3.3-5-6.3-6.9-9.8-2.7-5-6-7.1-11.4-5.5-2.7.8-5.2 2.5-7.5 4.2-2 1.4-3.7 3.2-5.5 4.8-.2-.2-11.5 3.4-11.6 3.8-3.7-.2-7.3-.6-11-.7-2.4-.1-5.2-.7-7.1.3-2.5 1.3-4.5 3.8-5.9 6.3-.4.7 1.6 3.5 3.1 4.6 4 2.9 6.7 6.1 6.1 11.5-.1 1.3 1.4 3.6 2.7 4.1 3.6 1.3 4.6 3.9 5.2 7.2.4 2.1.7 4.8 2.1 6 4.5 4 5.9 8.8 6 14.6.1 3.7 2.1 7.5 1.6 11.1-.4 3.1.2 5.4 1.5 7.2h-.1l.3.3c.8 1.2 1.9 2.2 3.2 3.1 1.5 1.4 2.6 2.4 2.6 2.4s4.5 4.7 4.6 9.3-.3 5.2 1.1 9.3c1.4 4 3.3 7.2 3.9 10.6s-.7 4.4 1.4 6.6 4.4 3.7 6.8 6.2c2.3 2.6 5.6 3.5 7.8 5.7s5.7 6.3 8.4 8.9c1.4 1.4 3.3 2.5 4.7 3.3.4.4.6.6.5.8-1.9 4 2 3.9 3.5 5.2 2.6 2.2 6.3 3.6 8.2 6.3 3.4 4.9 7.8 7.4 13.3 8.9.5.1 1.1.2 1.3.5.7.8 1.2 1.8 1.8 2.7-.2.3-.5.6-.7.9 5.5 1.9 11 3.9 16.5 5.7 1.1.4 2.5.4 3.5.1 4.6-1.5 9.2-3.1 13.8-4.7.9-.3 2.3-1.2 2.2-1.6-.7-3.2 2-2.7 3.5-3.5 3.6-1.9 7.8-3.3 10.5-6 3.3-3.4 6.3-6.9 10.7-9.2 1.8-1 5.4-1.4 3.6-5.2-.1-.2.9-1 1.4-1.5.7-.6 1.5-1.1 2.5-1.9.7-.3 1.5-.8 2.8-1.7 2.9-2.2 8.9-7.7 11.3-10.6s6.3-6.5 6.3-6.5-2.5-5.7-.9-10.7l8.5-6.1c1.8-3.7 2.3-5.1 4.3-8.9 1.9-3.8 2.4-11.1 5.1-14 2.4-2.5 5.3-4.5 5.2-6.1.6-1.5.8-3.2.6-5.3-.3-2.6.6-5.3.9-7.9.2-2.2 0-4.4.6-6.5 1-3.4 1.7-7.4 3.9-9.8 2.4-2.6 4-4.9 4.3-8.4.3-3 1.5-5.4 4.6-6.8 1.5-.7 3-3.1 3-4.7-.1-4.5 1.4-7.7 5.2-10.1 1.1-.7 1.9-1.9 3-2.7 1.8-1.3 1.5-2.8.5-4.5-2.6-4.5-6.5-6.1-11.7-5.2-3.9.7-9.8 1.1-11.9 1.1s-11-5.1-10.9-4.5c-2.4-1.1-4.2-2.7-6-4.2-3.4-3-7.2-4.5-11.9-4.4-4.8 0-6.1 3.4-7.5 6.7-2.6 6-8.7 9.7-8.9 17.7-.3 11.7-11.1 17.6-18.1 25.4-.1.1-.4-.1-.8-.1-.1-.4-.4-.9-.3-1.3 0-7.2 2-14.5-1.3-21.4-.2-.4-.1-1 0-1.4 1.3-10.1 2.5-20.1 3.9-30.1.2-1.3.9-2.5 1.5-3.7 3.5-7.2.9-15.4-6.2-19-.8-.4-1.9-.5-2.8-.4-3.9.5-7.7 1.2-11.5 1.7-1.9.3-3.9.3-5.8.4-.1-.4-18.5 0-19-.1"/></clipPath><path fill="#201f32" d="M390.9 127.8c-1.1 4.5-4.4 18.7-5.9 28.2-.6 3.9-3.1 9.1 3.9 11.9-1.6.3-2.1.5-2.6.4-5-.6-10.1-1.3-15.1-1.9-1.1-.1-2.5-.3-3.5.2-6.7 3.4-9.7 11.5-6.3 18.4 1.9 3.9 2.5 7.5 1.7 11.6-.2 1 .2 2.2.6 3.1 3.9 9.2 4.6 18.4 1.5 28-.5 1.5-.2 3.3-.1 4.9.2 3.1.4 6.2.7 9.3-4.9-3.8-10.3-7.2-14.4-11.8-4-4.5-6.1-10.4-5.6-16.9.1-1.2-.9-2.6-1.7-3.7-2.3-3.3-5-6.3-6.9-9.8-2.7-5-6-7.1-11.4-5.5-2.7.8-5.2 2.5-7.5 4.2-2 1.4-3.7 3.2-5.5 4.8-.2-.2-.5-.4-.7-.6.3-.7.4-1.5.8-2.2 2.8-5 2.7-4.9-1.2-9.1-7.5-8.1-14-16.8-16.8-27.8-1.4-5.5-3.1-10.9-4.6-16.3-7.5 9-8.5 41.4-1.1 54.2-2.3-11.3-4.6-22-2-33 .5 2.5.8 4.9.9 7.4.4 8.9 2.6 17.3 6.5 25.2.8 1.7 3.1 2.7 4.8 3.9.6.4 1.4.6 2.1.9-.1.4-.1.8-.2 1.1-3.7-.2-7.3-.6-11-.7-2.4-.1-5.2-.7-7.1.3-2.5 1.3-4.5 3.8-5.9 6.3-.4.7 1.6 3.5 3.1 4.6 4 2.9 6.7 6.1 6.1 11.5-.1 1.3 1.4 3.6 2.7 4.1 3.6 1.3 4.6 3.9 5.2 7.2.4 2.1.7 4.8 2.1 6 4.5 4 5.9 8.8 6 14.6.1 3.7 2.1 7.5 1.6 11.1-.4 3.1.2 5.4 1.5 7.2h-.1l.3.3c.8 1.2 1.9 2.2 3.2 3.1 1.5 1.4 2.6 2.4 2.6 2.4s4.5 4.7 4.6 9.3-.3 5.2 1.1 9.3c1.4 4 3.3 7.2 3.9 10.6s-.7 4.4 1.4 6.6 4.4 3.7 6.8 6.2c2.3 2.6 5.6 3.5 7.8 5.7s5.7 6.3 8.4 8.9c1.4 1.4 3.3 2.5 4.7 3.3.4.4.6.6.5.8-1.9 4 2 3.9 3.5 5.2 2.6 2.2 6.3 3.6 8.2 6.3 3.4 4.9 7.8 7.4 13.3 8.9.5.1 1.1.2 1.3.5.7.8 1.2 1.8 1.8 2.7-.2.3-.5.6-.7.9 5.5 1.9 11 3.9 16.5 5.7 1.1.4 2.5.4 3.5.1 4.6-1.5 9.2-3.1 13.8-4.7.9-.3 2.3-1.2 2.2-1.6-.7-3.2 2-2.7 3.5-3.5 3.6-1.9 7.8-3.3 10.5-6 3.3-3.4 6.3-6.9 10.7-9.2 1.8-1 5.4-1.4 3.6-5.2-.1-.2.9-1 1.4-1.5.7-.6 1.5-1.1 2.5-1.9.7-.3 1.5-.8 2.8-1.7 2.9-2.2 8.9-7.7 11.3-10.6s6.3-6.5 6.3-6.5-2.5-5.7-.9-10.7l8.5-6.1c1.8-3.7 2.3-5.1 4.3-8.9 1.9-3.8 2.4-11.1 5.1-14 2.4-2.5 5.3-4.5 5.2-6.1.6-1.5.8-3.2.6-5.3-.3-2.6.6-5.3.9-7.9.2-2.2 0-4.4.6-6.5 1-3.4 1.7-7.4 3.9-9.8 2.4-2.6 4-4.9 4.3-8.4.3-3 1.5-5.4 4.6-6.8 1.5-.7 3-3.1 3-4.7-.1-4.5 1.4-7.7 5.2-10.1 1.1-.7 1.9-1.9 3-2.7 1.8-1.3 1.5-2.8.5-4.5-2.6-4.5-6.5-6.1-11.7-5.2-3.9.7-9.8 1.1-11.9 1.1s-.6-1.5-.6-1.5c7.4-.2 8.3-6.1 10-10.9 1.4-4 2.2-8.2 2.9-12.4.7-4 .7-5.9 1.5-12.1s2.7 12-.3 26.9c6-8.8 4.1-40.7-2.6-50.1-.2.2-.4.3-.4.5-.3 1.2-.5 2.4-.8 3.6-2.9 15.3-8.9 29-20 40.2-4.1 4.1-3.9 4.2-1.1 9.5.3.5.3 1.2.4 1.9-2.4-1.1-4.2-2.7-6-4.2-3.4-3-7.2-4.5-11.9-4.4-4.8 0-6.1 3.4-7.5 6.7-2.6 6-8.7 9.7-8.9 17.7-.3 11.7-11.1 17.6-18.1 25.4-.1.1-.4-.1-.8-.1-.1-.4-.4-.9-.3-1.3 0-7.2 2-14.5-1.3-21.4-.2-.4-.1-1 0-1.4 1.3-10.1 2.5-20.1 3.9-30.1.2-1.3.9-2.5 1.5-3.7 3.5-7.2.9-15.4-6.2-19-.8-.4-1.9-.5-2.8-.4-3.9.5-7.7 1.2-11.5 1.7-1.9.3-3.9.3-5.8.4-.1-.3-.2-.6-.3-.8 3.2-1 4.8-2.9 4.1-6.3-2.4-11.5-4.8-23.1-7.2-34.6-.2-.9-.4-5.4.7-3.1 1.1 2.4 4.6 12.7 6.6 19.2 1.9 6.3 3.4 12.8 5.1 19.2-2.8-17.9-7.1-35.3-17.7-51.2-2.9 3.4-5.4 7.9-6.7 11.3s-5 14.7-7.2 22c-1.7 5.7-6.1 16.9-4.2 17.2s11.2-33.3 11.8-35.7 1.7-2.3.6 2.2"/><g fill="#111126"><path d="M260.6 394.9h1.9c7.4 0 11.9 1 13.7 3 1.4 2.3 2 5.6 2 10v10.7h-14.4c-.1 0-.1 0-.1-.1v-9.9q-.3-1.5-2.1-1.5c-1.3 0-1.9.8-1.9 2.4V435s.3.2.8.6v.9c0 5.8 0 10.4.1 13.7v.6q.45 1.2 1.2 1.2c1.3-.2 2-.6 2-1.2v-16.2c.1 0 .2 0 .2-.1h14c0 .1.1.1.3.1v16.7l.2-.1h.1v.3c0 5.7-1.3 9.3-3.8 10.8-2.5 1.2-6.5 1.8-12.2 1.8H261c-7.5 0-12-1-13.7-2.9-1.5-2-2.3-5.5-2.3-10.6v-42.4c0-6.5 1.2-10.4 3.5-11.7 2.4-1 6.4-1.6 12.1-1.6m21.1-.1h14c.1 0 .2.1.2.2v11.6l.9.6v13l.4.1h3c.1 0 .1 0 .1-.1.1-11.6.1-20.1.1-25.4H315l.2.1h.4v4.7c-.1.4-.1.5-.1.6v62.5h-.1l.1.1v1.2c0 .1 0 .1-.1.1h-14.9l-.1-.1.1-.4c-.1-19.6-.2-30.2-.2-31.9h-3.6c0 .1 0 .1.1.2-.1 9.2-.1 16.2-.1 21v11.2h-5.4c-.1 0-.4-.1-1-.3h-1.9c-1.1 0-3.4 0-7 .1l-.1-.1v-.1c.1-4.5.1-7.1.1-7.6v-4c0-.2 0-.2.1-.2l-.1-.4v-4c0-1.9 0-4.5.1-7.6h-.1l.1-.2c0-.1 0-.1-.1-.1l.1-.1v-1.8c.2-10 .2-24.3.2-42.9m54.7 0h4.4c.1 0 .1 0 .1.1v.5c.5.1 1 .1 1.2.1h2.7c.3 0 .7 0 1.2-.1l9.2 68.6h-14.8l-1.2-13.4h-4.7l-1.3 13.6c-8.7 0-13.5-.1-14.4-.1 6-45.9 9-68.9 9.1-69.1h.1c3.3-.1 6.1-.2 8.4-.2m.4 23-1.5 21h3l-1.3-20.9zm20.8-23h13.9c.1 0 .1 0 .1.1v4.2c0 1.7 0 4.2.1 7.5.2.1.4.3.8.6.1 3 .1 5.4.1 7.2v36.9c0 2.8 0 7.1-.1 12.9h-5.3c-.5-.2-.9-.3-1-.3h-2.6c-2.2 0-4.4 0-6.4.1v-4.6c0-.1 0-.3.1-.6v-58.1c.2-1.4.2-3.4.3-5.9m19.5 0c7 .1 11 .1 11.8.1l7.2 35v-35h12.8v69.3h-13.7c-4.7-21.7-7.1-32.9-7.3-33.7h-.1v33.7h-12.6v-12.4c.6 0 .9-.1.9-.2v-16.1l-.1-.4c.1-.1.1-.2.1-.2h.6l.1-.1c-.1-4.8-.1-8.2-.1-10.1 0-9.4.1-19.4.4-29.9m36.4-.1h26v11.7q0 .75-4.5 17.1c-5 18.5-7.6 28-7.7 28.7h12.3v.4c.1 3.5.1 6.2.1 8.2v2c0 .3-.1.4-.2.4h-.4v.1c0 .4-.1.6-.2.8-13.1.1-22.3.1-27.5.1v-12l12.4-45.5v-.3c-.7 0-2.2 0-4.3-.1h-.4l.1-.5h-.1c-1.7-.1-3.3-.1-4.7-.1h-.8l-.1.1-.1-.1c.1-4.6.1-8.1.1-10.7zm29.2.1h13.9c.1 0 .1 0 .1.1v4.2c0 1.7 0 4.2.1 7.5.2.1.4.3.8.6.1 3 .1 5.4.1 7.2v36.9c0 2.8 0 7.1-.1 12.9h-5.3c-.5-.2-.9-.3-1-.3h-2.6c-2.2 0-4.4 0-6.4.1v-4.6c0-.1 0-.3.1-.6v-58.1c.2-1.4.2-3.4.3-5.9m17.6 0h15v57.6c2.3.1 3.7.1 4.1.1.2-.3.4-.4.6-.4h4.2c.1 5.7.1 9.7.1 12.1h-24zm25.7 0h15v57.6c2.3.1 3.7.1 4.1.1.2-.3.4-.4.6-.4h4.2c.1 5.7.1 9.7.1 12.1h-24zm43.3 0h4.4c.1 0 .1 0 .1.1v.5c.5.1 1 .1 1.2.1h2.7c.3 0 .7 0 1.2-.1l9.2 68.6h-14.8l-1.2-13.4h-4.7l-1.3 13.6c-8.7 0-13.5-.1-14.4-.1 6-45.9 9-68.9 9.1-69.1h.1c3.4-.1 6.1-.2 8.4-.2m.4 23-1.5 21h3l-1.3-20.9z"/><g clip-path="url(#zilla_svg-a)"><path d="M383.6 269.2h.6q3.15 0 3.9.9c.4.7.6 1.6.6 2.8v3h-4.1v-2.8c0-.3-.2-.4-.6-.4s-.6.2-.6.7v7.3l.2.2v4.3q.15.3.3.3.6-.15.6-.3v-4.6h4.2v4.8h.1v.1c0 1.6-.4 2.6-1.1 3.1-.7.3-1.9.5-3.5.5h-.5c-2.1 0-3.4-.3-3.9-.8-.4-.6-.7-1.6-.7-3V273c0-1.9.3-3 1-3.3.7-.4 1.9-.5 3.5-.5m6-.1h4s.1 0 .1.1v3.3c.2.1.2.2.2.2v3.7h1v-7.2h4.3v19.6H395v-.1c0-5.6-.1-8.6-.1-9.1h-1v9.2h-1.5s-.1 0-.3-.1h-2.5zm15.5 0h1.2v.2h1.4l2.6 19.5h-4.2l-.3-3.8h-1.3l-.4 3.9H400c1.7-13 2.6-19.6 2.6-19.6 1.1-.1 1.9-.2 2.5-.2m.2 6.6-.4 6h.9zm5.9-6.6h4v3.3l.2.2v16.2h-1.5c-.2-.1-.3-.1-.3-.1h-2.5v-18.1c0-.2 0-.7.1-1.5m5.5 0h3.3l2 9.9v-9.9h3.6v19.7h-3.9q-1.95-9.3-2.1-9.6v9.6H416v-3.5c.2 0 .3 0 .3-.1v-4.8h.2v-2.9c.1-2.5.1-5.4.2-8.4m10.4 0h7.4v3.3c0 .1-.4 1.8-1.3 4.9-1.4 5.2-2.2 8-2.2 8.1h3.5v3c0 .1 0 .1-.1.1h-.1c0 .1 0 .2-.1.2h-7.8v-3.4l3.5-12.9v-.1h-1.3v-.2h-1.5zm8.3 0h4v3.3l.2.2v16.2h-1.5c-.2-.1-.3-.1-.3-.1h-2.5v-18.1c0-.2 0-.7.1-1.5m5 0h4.3v16.4h1.2c.1-.1.1-.1.2-.1h1.2v3.4h-6.8v-19.7zm7.3 0h4.3v16.4h1.2c.1-.1.1-.1.2-.1h1.2v3.4h-6.8v-19.7zm12.3 0h1.2v.2h1.4l2.6 19.5H461l-.3-3.8h-1.3l-.4 3.9h-4.1c1.7-13 2.6-19.6 2.6-19.6 1-.1 1.8-.2 2.5-.2m.1 6.6-.4 6h.9zm-163.5-6.5h.6q3.15 0 3.9.9c.4.7.6 1.6.6 2.8v3h-4.1v-2.8c0-.3-.2-.4-.6-.4s-.6.2-.6.7v7.3l.2.2v4.3q.15.3.3.3.6-.15.6-.3v-4.6h4.2v4.8h.1v.1c0 1.6-.4 2.6-1.1 3.1-.7.3-1.9.5-3.5.5h-.5c-2.1 0-3.4-.3-3.9-.8-.4-.6-.7-1.6-.7-3V273c0-1.9.3-3 1-3.3.8-.4 1.9-.5 3.5-.5m6-.1h4s.1 0 .1.1v3.3c.2.1.2.2.2.2v3.7h1v-7.2h4.3v19.6H308v-.1c0-5.6-.1-8.6-.1-9.1h-1v9.2h-1.5s-.1 0-.3-.1h-2.5zm15.6 0h1.2v.2h1.4l2.6 19.5h-4.2l-.2-3.8h-1.3l-.4 3.9h-4.1c1.7-13 2.6-19.6 2.6-19.6 1-.1 1.7-.2 2.4-.2m.1 6.6-.4 6h.9zm5.9-6.6h4v3.3l.2.2v16.2H327c-.2-.1-.3-.1-.3-.1h-2.5zm5.6 0h3.3l2 9.9v-9.9h3.6v19.7h-3.9q-1.95-9.3-2.1-9.6v9.6h-3.6v-3.5c.2 0 .3 0 .3-.1v-4.8h.2v-2.9c0-2.5.1-5.4.2-8.4m10.3 0h7.4v3.3c0 .1-.4 1.8-1.3 4.9-1.4 5.2-2.2 8-2.2 8.1h3.5v3c0 .1 0 .1-.1.1h-.1c0 .1 0 .2-.1.2h-7.8v-3.4l3.5-12.9v-.1h-1.3v-.2h-1.5zm8.3 0h4v3.3l.2.2v16.2h-1.5c-.2-.1-.3-.1-.3-.1h-2.5v-18.1c.1-.2.1-.7.1-1.5m5 0h4.3v16.4h1.2c.1-.1.1-.1.2-.1h1.2v3.4h-6.8v-19.7zm7.3 0h4.3v16.4h1.2c.1-.1.1-.1.2-.1h1.2v3.4h-6.8v-19.7zm12.3 0h1.2v.2h1.4l2.6 19.5H374l-.3-3.8h-1.3l-.4 3.9h-4.1c1.7-13 2.6-19.6 2.6-19.6 1.1-.1 1.9-.2 2.5-.2m.2 6.6-.4 6h.9zm97.5-6.5h.6q3.15 0 3.9.9c.4.7.6 1.6.6 2.8v3h-4.1v-2.8c0-.3-.2-.4-.6-.4s-.6.2-.6.7v7.3l.2.2v4.3q.15.3.3.3.6-.15.6-.3v-4.6h4.2v4.8h.1v.1c0 1.6-.4 2.6-1.1 3.1-.7.3-1.9.5-3.5.5h-.5c-2.1 0-3.4-.3-3.9-.8-.4-.6-.7-1.6-.7-3V273c0-1.9.3-3 1-3.3.7-.4 1.8-.5 3.5-.5m6-.1h4s.1 0 .1.1v3.3c.2.1.2.2.2.2v3.7h1v-7.2h4.3v19.6h-4.2v-.1c0-5.6-.1-8.6-.1-9.1h-1v9.2h-1.5s-.1 0-.3-.1h-2.5v-7.4c-.1-2.8 0-6.9 0-12.2m15.5 0h1.2v.2h1.4l2.6 19.5h-4.2l-.2-3.8h-1.3l-.4 3.9h-4.1c1.7-13 2.6-19.6 2.6-19.6 1-.1 1.8-.2 2.4-.2m.1 6.6-.4 6h.9zm5.9-6.6h4v3.3l.2.2v16.2H501c-.2-.1-.3-.1-.3-.1h-2.5zm5.6 0h3.3l2 9.9v-9.9h3.6v19.7h-3.9q-1.95-9.3-2.1-9.6v9.6h-3.6v-3.5c.2 0 .3 0 .3-.1v-4.8h.2v-2.9c.1-2.5.1-5.4.2-8.4m10.3 0h7.4v3.3c0 .1-.4 1.8-1.3 4.9-1.4 5.2-2.2 8-2.2 8.1h3.5v3c0 .1 0 .1-.1.1h-.1c0 .1 0 .2-.1.2h-7.8v-3.4l3.5-12.9v-.1h-1.3v-.2h-1.5zm8.3 0h4v3.3l.2.2v16.2h-1.5c-.2-.1-.3-.1-.3-.1h-2.5v-18.1c.1-.2.1-.7.1-1.5m5 0h4.3v16.4h1.2c.1-.1.1-.1.2-.1h1.2v3.4h-6.8v-19.7zm7.3 0h4.3v16.4h1.2c.1-.1.1-.1.2-.1h1.2v3.4h-6.8v-19.7zm12.3 0h1.2v.2h1.4l2.6 19.5H548l-.3-3.8h-1.3l-.4 3.9h-4.1c1.7-13 2.6-19.6 2.6-19.6 1.1-.1 1.9-.2 2.5-.2m.2 6.6-.4 6h.9z"/></g><g clip-path="url(#zilla_svg-a)"><path d="M394 290.7h.6q3.15 0 3.9.9c.4.7.6 1.6.6 2.8v3H395v-2.8c0-.3-.2-.4-.6-.4s-.6.2-.6.7v7.3l.2.2v4.3q.15.3.3.3.6-.15.6-.3V302h4.2v4.8h.1v.1c0 1.6-.4 2.6-1.1 3.1-.7.3-1.9.5-3.5.5h-.5c-2.1 0-3.4-.3-3.9-.8-.4-.6-.7-1.6-.7-3v-12.1c0-1.9.3-3 1-3.3.7-.5 1.9-.6 3.5-.6m6-.1h4s.1 0 .1.1v3.3c.2.1.2.2.2.2v3.7h1v-7.2h4.3v19.6h-4.2v-.1c0-5.6-.1-8.6-.1-9.1h-1v9.2h-1.5s-.1 0-.3-.1H400zm15.5 0h1.2v.2h1.4l2.6 19.5h-4.2l-.3-3.8H415l-.4 3.9h-4.1c1.7-13 2.6-19.6 2.6-19.6 1-.1 1.8-.2 2.4-.2m.2 6.6-.4 6h.9zm5.9-6.6h4v3.3l.2.2v16.2h-1.5c-.2-.1-.3-.1-.3-.1h-2.5v-18c0-.3 0-.9.1-1.6m5.5 0h3.3l2 9.9v-9.9h3.6v19.7h-3.9q-1.95-9.3-2.1-9.6v9.6h-3.6v-3.5c.2 0 .3 0 .3-.1v-4.8h.2V299c.1-2.6.1-5.4.2-8.4m10.4 0h7.4v3.3c0 .1-.4 1.8-1.3 4.9-1.4 5.2-2.2 8-2.2 8.1h3.5v3c0 .1 0 .1-.1.1h-.1c0 .1 0 .2-.1.2h-7.8V307l3.5-12.9v-.1H439v-.2h-1.5zm8.3 0h4v3.3l.2.2v16.2h-1.5c-.2-.1-.3-.1-.3-.1h-2.5v-18c0-.3 0-.9.1-1.6m5 0h4.3V307h1.2c.1-.1.1-.1.2-.1h1.2v3.4h-6.8v-19.7zm7.3 0h4.3V307h1.2c.1-.1.1-.1.2-.1h1.2v3.4h-6.8v-19.7zm12.3 0h1.2v.2h1.4l2.6 19.5h-4.2l-.3-3.8h-1.3l-.4 3.9h-4.1c1.7-13 2.6-19.6 2.6-19.6 1-.1 1.8-.2 2.5-.2m.1 6.6-.4 6h.9zM307 290.7h.6q3.15 0 3.9.9c.4.7.6 1.6.6 2.8v3H308v-2.8c0-.3-.2-.4-.6-.4s-.6.2-.6.7v7.3l.2.2v4.3q.15.3.3.3.6-.15.6-.3V302h4.2v4.8h.1v.1c0 1.6-.4 2.6-1.1 3.1-.7.3-1.9.5-3.5.5h-.5c-2.1 0-3.4-.3-3.9-.8-.4-.6-.7-1.6-.7-3v-12.1c0-1.9.3-3 1-3.3.8-.5 1.9-.6 3.5-.6m6-.1h4s.1 0 .1.1v3.3c.2.1.2.2.2.2v3.7h1v-7.2h4.3v19.6h-4.2v-.1c0-5.6-.1-8.6-.1-9.1h-1v9.2h-1.5s-.1 0-.3-.1H313zm15.6 0h1.2v.2h1.4l2.6 19.5h-4.2l-.3-3.8H328l-.4 3.9h-4.1c1.7-13 2.6-19.6 2.6-19.6 1.1-.1 1.8-.2 2.5-.2m.1 6.6-.4 6h.9zm5.9-6.6h4v3.3l.2.2v16.2h-1.5c-.2-.1-.3-.1-.3-.1h-2.5v-18c.1-.3.1-.9.1-1.6m5.6 0h3.3l2 9.9v-9.9h3.6v19.7h-3.9q-1.95-9.3-2.1-9.6v9.6h-3.6v-3.5c.2 0 .3 0 .3-.1v-4.8h.2V299c0-2.6.1-5.4.2-8.4m10.3 0h7.4v3.3c0 .1-.4 1.8-1.3 4.9-1.4 5.2-2.2 8-2.2 8.1h3.5v3c0 .1 0 .1-.1.1h-.1c0 .1 0 .2-.1.2h-7.8V307l3.5-12.9v-.1H352v-.2h-1.5zm8.3 0h4v3.3l.2.2v16.2h-1.5c-.2-.1-.3-.1-.3-.1h-2.5v-18c.1-.3.1-.9.1-1.6m5 0h4.3V307h1.2c.1-.1.1-.1.2-.1h1.2v3.4h-6.8v-19.7zm7.3 0h4.3V307h1.2c.1-.1.1-.1.2-.1h1.2v3.4h-6.8v-19.7zm12.3 0h1.2v.2h1.4l2.6 19.5h-4.2l-.3-3.8h-1.3l-.4 3.9h-4.1c1.7-13 2.6-19.6 2.6-19.6 1.1-.1 1.9-.2 2.5-.2m.2 6.6-.4 6h.9zm97.5-6.5h.6q3.15 0 3.9.9c.4.7.6 1.6.6 2.8v3H482v-2.8c0-.3-.2-.4-.6-.4s-.6.2-.6.7v7.3l.2.2v4.3q.15.3.3.3.6-.15.6-.3V302h4.2v4.8h.1v.1c0 1.6-.4 2.6-1.1 3.1-.7.3-1.9.5-3.5.5h-.5c-2.1 0-3.4-.3-3.9-.8-.4-.6-.7-1.6-.7-3v-12.1c0-1.9.3-3 1-3.3.8-.5 1.9-.6 3.6-.6m6-.1h4s.1 0 .1.1v3.3c.2.1.2.2.2.2v3.7h1v-7.2h4.3v19.6h-4.2v-.1c0-5.6-.1-8.6-.1-9.1h-1v9.2h-1.5s-.1 0-.3-.1H487v-7.3c0-2.9.1-7 .1-12.3m15.5 0h1.2v.2h1.4l2.6 19.5h-4.2l-.3-3.8H502l-.4 3.9h-4.1c1.7-13 2.6-19.6 2.6-19.6 1.1-.1 1.9-.2 2.5-.2m.1 6.6-.4 6h.9zm5.9-6.6h4v3.3l.2.2v16.2h-1.5c-.2-.1-.3-.1-.3-.1h-2.5v-18c.1-.3.1-.9.1-1.6m5.6 0h3.3l2 9.9v-9.9h3.6v19.7h-3.9q-1.95-9.3-2.1-9.6v9.6h-3.6v-3.5c.2 0 .3 0 .3-.1v-4.8h.2V299c.1-2.6.1-5.4.2-8.4m10.3 0h7.4v3.3c0 .1-.4 1.8-1.3 4.9-1.4 5.2-2.2 8-2.2 8.1h3.5v3c0 .1 0 .1-.1.1h-.1c0 .1 0 .2-.1.2h-7.8V307l3.5-12.9v-.1H526v-.2h-1.5zm8.3 0h4v3.3l.2.2v16.2h-1.5c-.2-.1-.3-.1-.3-.1h-2.5v-18c.1-.3.1-.9.1-1.6m5 0h4.3V307h1.2c.1-.1.1-.1.2-.1h1.2v3.4h-6.8v-19.7zm7.3 0h4.3V307h1.2c.1-.1.1-.1.2-.1h1.2v3.4h-6.8v-19.7zm12.3 0h1.2v.2h1.4l2.6 19.5h-4.2l-.3-3.8h-1.3l-.4 3.9h-4.1c1.7-13 2.6-19.6 2.6-19.6 1.1-.1 1.9-.2 2.5-.2m.2 6.6-.4 6h.9z"/></g><g clip-path="url(#zilla_svg-a)"><path d="M405.2 312.1h.6q3.15 0 3.9.9c.4.7.6 1.6.6 2.8v3h-4.1V316c0-.3-.2-.4-.6-.4s-.6.2-.6.7v7.3l.2.2v4.3q.15.3.3.3.6-.15.6-.3v-4.6h4.2v4.8h.1v.1c0 1.6-.4 2.6-1.1 3.1-.7.3-1.9.5-3.5.5h-.5c-2.1 0-3.4-.3-3.9-.8-.4-.6-.7-1.6-.7-3V316c0-1.9.3-3 1-3.3.7-.4 1.9-.6 3.5-.6m6 0h4s.1 0 .1.1v3.3c.2.1.2.2.2.2v3.7h1v-7.2h4.3v19.6h-4.2v-.1c0-5.6-.1-8.6-.1-9.1h-1v9.2H414s-.1 0-.3-.1h-2.5zm15.5 0h1.2v.2h1.4l2.6 19.5h-4.2l-.3-3.8h-1.3l-.4 3.9h-4.1c1.7-13 2.6-19.6 2.6-19.6 1.1-.2 1.9-.2 2.5-.2m.1 6.6-.4 6h.9zm5.9-6.6h4v3.3l.2.2v16.2h-1.5c-.2-.1-.3-.1-.3-.1h-2.5v-18.1c.1-.2.1-.8.1-1.5m5.6 0h3.3l2 9.9v-9.9h3.6v19.7h-3.9q-1.95-9.3-2.1-9.6v9.6h-3.6v-3.5c.2 0 .3 0 .3-.1v-4.8h.2v-2.9c.1-2.6.1-5.4.2-8.4m10.3 0h7.4v3.3c0 .1-.4 1.8-1.3 4.9-1.4 5.2-2.2 8-2.2 8.1h3.5v3c0 .1 0 .1-.1.1h.1c0 .1 0 .2-.1.2h-7.8v-3.4l3.5-12.9v-.1h-1.3v-.2h-1.5c-.2-1.2-.2-2.2-.2-3m8.3 0h4v3.3l.2.2v16.2h-1.5c-.2-.1-.3-.1-.3-.1h-2.5v-18.1c.1-.2.1-.8.1-1.5m5 0h4.3v16.4h1.2c.1-.1.1-.1.2-.1h1.2v3.4H462v-19.7zm7.4 0h4.3v16.4h1.2c.1-.1.1-.1.2-.1h1.2v3.4h-6.8v-19.7zm12.3 0h1.2v.2h1.4l2.6 19.5h-4.2l-.3-3.8H481l-.4 3.9h-4.1c1.7-13 2.6-19.6 2.6-19.6 1-.2 1.8-.2 2.5-.2m.1 6.6-.4 6h.9zm-163.5-6.6h.6q3.15 0 3.9.9c.4.7.6 1.6.6 2.8v3h-4.1V316c0-.3-.2-.4-.6-.4s-.6.2-.6.7v7.3l.2.2v4.3q.15.3.3.3.6-.15.6-.3v-4.6h4.2v4.8h.1v.1c0 1.6-.4 2.6-1.1 3.1-.7.3-1.9.5-3.5.5h-.5c-2.1 0-3.4-.3-3.9-.8-.4-.6-.7-1.6-.7-3V316c0-1.9.3-3 1-3.3.8-.4 1.9-.6 3.5-.6m6 0h4s.1 0 .1.1v3.3c.2.1.2.2.2.2v3.7h1v-7.2h4.3v19.6h-4.2v-.1c0-5.6-.1-8.6-.1-9.1h-1v9.2H327s-.1 0-.3-.1h-2.5zm15.6 0h1.2v.2h1.4l2.6 19.5h-4.2l-.3-3.8h-1.3l-.4 3.9h-4.1c1.7-13 2.6-19.6 2.6-19.6 1-.2 1.8-.2 2.5-.2m.1 6.6-.4 6h.9zm5.9-6.6h4v3.3l.2.2v16.2h-1.5c-.2-.1-.3-.1-.3-.1h-2.5v-18.1c.1-.2.1-.8.1-1.5m5.5 0h3.3l2 9.9v-9.9h3.6v19.7h-3.9q-1.95-9.3-2.1-9.6v9.6h-3.6v-3.5c.2 0 .3 0 .3-.1v-4.8h.2v-2.9c.1-2.6.2-5.4.2-8.4m10.4 0h7.4v3.3c0 .1-.4 1.8-1.3 4.9-1.4 5.2-2.2 8-2.2 8.1h3.5v3c0 .1 0 .1-.1.1 0 .1 0 .2-.1.2h-7.8v-3.4l3.5-12.9v-.1h-1.3v-.2h-1.5c-.1-1.2-.1-2.2-.1-3m8.3 0h4v3.3l.2.2v16.2h-1.5c-.2-.1-.3-.1-.3-.1h-2.5v-18.1c.1-.2.1-.8.1-1.5m5 0h4.3v16.4h1.2c.1-.1.1-.1.2-.1h1.2v3.4H375zm7.3 0h4.3v16.4h1.2c.1-.1.1-.1.2-.1h1.2v3.4h-6.8v-19.7zm12.3 0h1.2v.2h1.4l2.6 19.5h-4.2l-.3-3.8H394l-.4 3.9h-4.1c1.7-13 2.6-19.6 2.6-19.6 1.1-.2 1.9-.2 2.5-.2m.1 6.6-.4 6h.9zm97.5-6.6h.6q3.15 0 3.9.9c.4.7.6 1.6.6 2.8v3h-4.1V316c0-.3-.2-.4-.6-.4s-.6.2-.6.7v7.3l.2.2v4.3q.15.3.3.3.6-.15.6-.3v-4.6h4.2v4.8h.1v.1c0 1.6-.4 2.6-1.1 3.1-.7.3-1.9.5-3.5.5h-.5c-2.1 0-3.4-.3-3.9-.8-.4-.6-.7-1.6-.7-3V316c0-1.9.3-3 1-3.3.8-.4 1.9-.6 3.5-.6m6 0h4s.1 0 .1.1v3.3c.2.1.2.2.2.2v3.7h1v-7.2h4.3v19.6h-4.2v-.1c0-5.6-.1-8.6-.1-9.1h-1v9.2H501s-.1 0-.3-.1h-2.5zm15.6 0h1.2v.2h1.4l2.6 19.5h-4.2l-.3-3.8h-1.3l-.4 3.9h-4.1c1.7-13 2.6-19.6 2.6-19.6 1.1-.2 1.8-.2 2.5-.2m.1 6.6-.4 6h.9zm5.9-6.6h4v3.3l.2.2v16.2h-1.5c-.2-.1-.3-.1-.3-.1h-2.5v-18.1c.1-.2.1-.8.1-1.5m5.6 0h3.3l2 9.9v-9.9h3.6v19.7h-3.9q-1.95-9.3-2.1-9.6v9.6h-3.6v-3.5c.2 0 .3 0 .3-.1v-4.8h.2v-2.9c0-2.6.1-5.4.2-8.4m10.3 0h7.4v3.3c0 .1-.4 1.8-1.3 4.9-1.4 5.2-2.2 8-2.2 8.1h3.5v3c0 .1 0 .1-.1.1 0 .1 0 .2-.1.2h-7.8v-3.4l3.5-12.9v-.1h-1.3v-.2h-1.5c-.1-1.2-.1-2.2-.1-3m8.3 0h4v3.3l.2.2v16.2h-1.5c-.2-.1-.3-.1-.3-.1h-2.5v-18.1c.1-.2.1-.8.1-1.5m5 0h4.3v16.4h1.2c.1-.1.1-.1.2-.1h1.2v3.4H549zm7.3 0h4.3v16.4h1.2c.1-.1.1-.1.2-.1h1.2v3.4h-6.8v-19.7zm12.3 0h1.2v.2h1.4l2.6 19.5h-4.2l-.3-3.8H568l-.4 3.9h-4.1c1.7-13 2.6-19.6 2.6-19.6 1.1-.2 1.9-.2 2.5-.2m.2 6.6-.4 6h.9z"/></g><g clip-path="url(#zilla_svg-a)"><path d="M416.8 333.6h.6q3.15 0 3.9.9c.4.7.6 1.6.6 2.8v3h-4.1v-2.8c0-.3-.2-.4-.6-.4s-.6.2-.6.7v7.3l.2.2v4.3q.15.3.3.3.6-.15.6-.3V345h4.2v4.8h.1v.1c0 1.6-.4 2.6-1.1 3.1-.7.3-1.9.5-3.5.5h-.5c-2.1 0-3.4-.3-3.9-.8-.4-.6-.7-1.6-.7-3v-12.1c0-1.9.3-3 1-3.3.7-.5 1.9-.7 3.5-.7m6 0h4s.1 0 .1.1v3.3c.2.1.2.2.2.2v3.7h1v-7.2h4.3v19.6h-4.2v-.1c0-5.6-.1-8.6-.1-9.1h-1v9.2h-1.5s-.1 0-.3-.1h-2.5zm15.5 0h1.2v.2h1.4l2.6 19.5h-4.2l-.3-3.8h-1.3l-.4 3.9h-4.1c1.7-13 2.6-19.6 2.6-19.6 1.1-.2 1.9-.2 2.5-.2m.1 6.6-.4 6h.9zm5.9-6.6h4v3.3l.2.2v16.2H447c-.2-.1-.3-.1-.3-.1h-2.5v-18c.1-.3.1-.9.1-1.6m5.6 0h3.3l2 9.9v-9.9h3.6v19.7H455q-1.95-9.3-2.1-9.6v9.6h-3.6v-3.5c.2 0 .3 0 .3-.1v-4.8h.2V342c0-2.6 0-5.4.1-8.4m10.4 0h7.4v3.3c0 .1-.4 1.8-1.3 4.9-1.4 5.2-2.2 8-2.2 8.1h3.5v3c0 .1 0 .1-.1.1h-.1c0 .1 0 .2-.1.2h-7.8v-3.4l3.5-12.9v-.1h-1.3v-.2h-1.5c-.1-1.2 0-2.2 0-3m8.2 0h4v3.3l.2.2v16.2h-1.5c-.2-.1-.3-.1-.3-.1h-2.5v-18c.1-.3.1-.9.1-1.6m5 0h4.3V350h1.2c.1-.1.1-.1.2-.1h1.2v3.4h-6.8v-19.7zm7.4 0h4.3V350h1.2c.1-.1.1-.1.2-.1h1.2v3.4H481v-19.7zm12.3 0h1.2v.2h1.4l2.6 19.5h-4.2l-.3-3.8h-1.3l-.4 3.9h-4.1c1.7-13 2.6-19.6 2.6-19.6 1-.2 1.8-.2 2.5-.2m.1 6.6-.4 6h.9zm-163.5-6.6h.6q3.15 0 3.9.9c.4.7.6 1.6.6 2.8v3h-4.1v-2.8c0-.3-.2-.4-.6-.4s-.6.2-.6.7v7.3l.2.2v4.3q.15.3.3.3.6-.15.6-.3V345h4.2v4.8h.1v.1c0 1.6-.4 2.6-1.1 3.1-.7.3-1.9.5-3.5.5h-.5c-2.1 0-3.4-.3-3.9-.8-.4-.6-.7-1.6-.7-3v-12.1c0-1.9.3-3 1-3.3.8-.5 1.9-.7 3.5-.7m6 0h4s.1 0 .1.1v3.3c.2.1.2.2.2.2v3.7h1v-7.2h4.3v19.6h-4.2v-.1c0-5.6-.1-8.6-.1-9.1h-1v9.2h-1.5s-.1 0-.3-.1h-2.5zm15.6 0h1.2v.2h1.4l2.6 19.5h-4.2l-.3-3.8h-1.3l-.4 3.9h-4.1c1.7-13 2.6-19.6 2.6-19.6 1-.2 1.8-.2 2.5-.2m.1 6.6-.4 6h.9zm5.9-6.6h4v3.3l.2.2v16.2h-1.5c-.2-.1-.3-.1-.3-.1h-2.5v-18c.1-.3.1-.9.1-1.6m5.5 0h3.3l2 9.9v-9.9h3.6v19.7h-3.9q-1.95-9.3-2.1-9.6v9.6h-3.6v-3.5c.2 0 .3 0 .3-.1v-4.8h.2V342c.1-2.6.2-5.4.2-8.4m10.4 0h7.4v3.3c0 .1-.4 1.8-1.3 4.9-1.4 5.2-2.2 8-2.2 8.1h3.5v3c0 .1 0 .1-.1.1h-.1c0 .1 0 .2-.1.2h-7.8v-3.4l3.5-12.9v-.1h-1.3v-.2h-1.5zm8.3 0h4v3.3l.2.2v16.2h-1.5c-.2-.1-.3-.1-.3-.1h-2.5v-18c.1-.3.1-.9.1-1.6m5 0h4.3V350h1.2c.1-.1.1-.1.2-.1h1.2v3.4h-6.8v-19.7zm7.3 0h4.3V350h1.2c.1-.1.1-.1.2-.1h1.2v3.4H394v-19.7zm12.3 0h1.2v.2h1.4l2.6 19.5h-4.2l-.3-3.8h-1.3l-.4 3.9h-4.1c1.7-13 2.6-19.6 2.6-19.6 1.1-.2 1.9-.2 2.5-.2m.1 6.6-.4 6h.9zm97.5-6.6h.6q3.15 0 3.9.9c.4.7.6 1.6.6 2.8v3h-4.1v-2.8c0-.3-.2-.4-.6-.4s-.6.2-.6.7v7.3l.2.2v4.3q.15.3.3.3.6-.15.6-.3V345h4.2v4.8h.1v.1c0 1.6-.4 2.6-1.1 3.1-.7.3-1.9.5-3.5.5h-.4c-2.1 0-3.4-.3-3.9-.8-.4-.6-.7-1.6-.7-3v-12.1c0-1.9.3-3 1-3.3.7-.5 1.8-.7 3.4-.7m6.1 0h4s.1 0 .1.1v3.3c.2.1.2.2.2.2v3.7h1v-7.2h4.3v19.6h-4.2v-.1c0-5.6-.1-8.6-.1-9.1h-1v9.2h-1.5s-.1 0-.3-.1h-2.5v-7.4c-.1-2.9-.1-6.9 0-12.2m15.5 0h1.2v.2h1.4l2.6 19.5h-4.2l-.3-3.8h-1.3l-.4 3.9h-4.1c1.7-13 2.6-19.6 2.6-19.6 1.1-.2 1.8-.2 2.5-.2m.1 6.6-.4 6h.9zm5.9-6.6h4v3.3l.2.2v16.2h-1.5c-.2-.1-.3-.1-.3-.1h-2.5v-18c.1-.3.1-.9.1-1.6m5.6 0h3.3l2 9.9v-9.9h3.6v19.7H542q-1.95-9.3-2.1-9.6v9.6h-3.6v-3.5c.2 0 .3 0 .3-.1v-4.8h.2V342c0-2.6.1-5.4.2-8.4m10.3 0h7.4v3.3c0 .1-.4 1.8-1.3 4.9-1.4 5.2-2.2 8-2.2 8.1h3.5v3c0 .1 0 .1-.1.1h-.1c0 .1 0 .2-.1.2h-7.8v-3.4l3.5-12.9v-.1h-1.3v-.2h-1.5zm8.3 0h4v3.3l.2.2v16.2h-1.5c-.2-.1-.3-.1-.3-.1h-2.5v-18c.1-.3.1-.9.1-1.6m5 0h4.3V350h1.2c.1-.1.1-.1.2-.1h1.2v3.4h-6.8v-19.7zm7.3 0h4.3V350h1.2c.1-.1.1-.1.2-.1h1.2v3.4H568v-19.7zm12.3 0h1.2v.2h1.4l2.6 19.5h-4.2l-.3-3.8h-1.3l-.4 3.9h-4.1c1.7-13 2.6-19.6 2.6-19.6 1.1-.2 1.9-.2 2.5-.2m.2 6.6-.4 6h.9z"/></g><g clip-path="url(#zilla_svg-a)"><path d="M427.2 355.1h.6q3.15 0 3.9.9c.4.7.6 1.6.6 2.8v3h-4.1V359c0-.3-.2-.4-.6-.4s-.6.2-.6.7v7.3l.2.2v4.3q.15.3.3.3.6-.15.6-.3v-4.6h4.2v4.8h.1v.1c0 1.6-.4 2.6-1.1 3.1-.7.3-1.9.5-3.5.5h-.5c-2.1 0-3.4-.3-3.9-.8-.4-.6-.7-1.6-.7-3v-12.1c0-1.9.3-3 1-3.3.7-.5 1.9-.7 3.5-.7m6 0h4s.1 0 .1.1v3.3c.2.1.2.2.2.2v3.7h1v-7.2h4.3v19.6h-4.2v-.1c0-5.6-.1-8.6-.1-9.1h-1v9.2H436s-.1 0-.3-.1h-2.5zm15.5 0h1.2v.2h1.4l2.6 19.5h-4.2l-.3-3.8h-1.3l-.4 3.9h-4.1c1.7-13 2.6-19.6 2.6-19.6 1.1-.2 1.9-.2 2.5-.2m.1 6.5-.4 6h.9zm5.9-6.5h4v3.3l.2.2v16.2h-1.5c-.2-.1-.3-.1-.3-.1h-2.5v-18.1c.1-.2.1-.8.1-1.5m5.6 0h3.3l2 9.9v-9.9h3.6v19.7h-3.9q-1.95-9.3-2.1-9.6v9.6h-3.6v-3.5c.2 0 .3 0 .3-.1v-4.8h.2v-2.9c.1-2.6.1-5.4.2-8.4m10.4 0h7.4v3.3c0 .1-.4 1.8-1.3 4.9-1.4 5.2-2.2 8-2.2 8.1h3.5v3c0 .1 0 .1-.1.1 0 .1 0 .2-.1.2h-7.8v-3.4l3.5-12.9v-.1h-1.3v-.2h-1.5c-.2-1.2-.1-2.3-.1-3m8.2 0h4v3.3l.2.2v16.2h-1.5c-.2-.1-.3-.1-.3-.1h-2.5v-18.1c.1-.2.1-.8.1-1.5m5 0h4.3v16.4h1.2c.1-.1.1-.1.2-.1h1.2v3.4H484v-19.7zm7.4 0h4.3v16.4h1.2c.1-.1.1-.1.2-.1h1.2v3.4h-6.8v-19.7zm12.3 0h1.2v.2h1.4l2.6 19.5h-4.2l-.3-3.8H503l-.4 3.9h-4.1c1.7-13 2.6-19.6 2.6-19.6 1-.2 1.8-.2 2.5-.2m.1 6.5-.4 6h.9zm-163.5-6.5h.6q3.15 0 3.9.9c.4.7.6 1.6.6 2.8v3h-4.1V359c0-.3-.2-.4-.6-.4s-.6.2-.6.7v7.3l.2.2v4.3q.15.3.3.3.6-.15.6-.3v-4.6h4.2v4.8h.1v.1c0 1.6-.4 2.6-1.1 3.1-.7.3-1.9.5-3.5.5h-.5c-2.1 0-3.4-.3-3.9-.8-.4-.6-.7-1.6-.7-3v-12.1c0-1.9.3-3 1-3.3.8-.5 1.9-.7 3.5-.7m6 0h4s.1 0 .1.1v3.3c.2.1.2.2.2.2v3.7h1v-7.2h4.3v19.6h-4.2v-.1c0-5.6-.1-8.6-.1-9.1h-1v9.2H349s-.1 0-.3-.1h-2.5zm15.6 0h1.2v.2h1.4l2.6 19.5h-4.2l-.3-3.8h-1.3l-.4 3.9h-4.1c1.7-13 2.6-19.6 2.6-19.6 1-.2 1.8-.2 2.5-.2m.1 6.5-.4 6h.9zm5.9-6.5h4v3.3l.2.2v16.2h-1.5c-.2-.1-.3-.1-.3-.1h-2.5v-18.1c.1-.2.1-.8.1-1.5m5.5 0h3.3l2 9.9v-9.9h3.6v19.7h-3.9q-1.95-9.3-2.1-9.6v9.6h-3.6v-3.5c.2 0 .3 0 .3-.1v-4.8h.2v-2.9c.1-2.6.2-5.4.2-8.4m10.4 0h7.4v3.3c0 .1-.4 1.8-1.3 4.9-1.4 5.2-2.2 8-2.2 8.1h3.5v3c0 .1 0 .1-.1.1 0 .1 0 .2-.1.2h-7.8v-3.4l3.5-12.9v-.1h-1.3v-.2h-1.5c-.1-1.2-.1-2.3-.1-3m8.3 0h4v3.3l.2.2v16.2h-1.5c-.2-.1-.3-.1-.3-.1h-2.5v-18.1c.1-.2.1-.8.1-1.5m5 0h4.3v16.4h1.2c.1-.1.1-.1.2-.1h1.2v3.4H397zm7.3 0h4.3v16.4h1.2c.1-.1.1-.1.2-.1h1.2v3.4h-6.8v-19.7zm12.3 0h1.2v.2h1.4l2.6 19.5h-4.2l-.3-3.8H416l-.4 3.9h-4.1c1.7-13 2.6-19.6 2.6-19.6 1.1-.2 1.9-.2 2.5-.2m.1 6.5-.4 6h.9zm97.5-6.5h.6q3.15 0 3.9.9c.4.7.6 1.6.6 2.8v3h-4.1V359c0-.3-.2-.4-.6-.4s-.6.2-.6.7v7.3l.2.2v4.3q.15.3.3.3.6-.15.6-.3v-4.6h4.2v4.8h.1v.1c0 1.6-.4 2.6-1.1 3.1-.7.3-1.9.5-3.5.5h-.5c-2.1 0-3.4-.3-3.9-.8-.4-.6-.7-1.6-.7-3v-12.1c0-1.9.3-3 1-3.3.8-.5 1.9-.7 3.5-.7m6.1 0h4s.1 0 .1.1v3.3c.2.1.2.2.2.2v3.7h1v-7.2h4.3v19.6h-4.2v-.1c0-5.6-.1-8.6-.1-9.1h-1v9.2H523s-.1 0-.3-.1h-2.5v-7.4c0-2.9 0-6.9.1-12.2m15.5 0h1.2v.2h1.4l2.6 19.5h-4.2l-.3-3.8h-1.3l-.4 3.9h-4.1c1.7-13 2.6-19.6 2.6-19.6 1.1-.2 1.8-.2 2.5-.2m.1 6.5-.4 6h.9zm5.9-6.5h4v3.3l.2.2v16.2h-1.5c-.2-.1-.3-.1-.3-.1h-2.5v-18.1c.1-.2.1-.8.1-1.5m5.6 0h3.3l2 9.9v-9.9h3.6v19.7h-3.9q-1.95-9.3-2.1-9.6v9.6h-3.6v-3.5c.2 0 .3 0 .3-.1v-4.8h.2v-2.9c0-2.6.1-5.4.2-8.4m10.3 0h7.4v3.3c0 .1-.4 1.8-1.3 4.9-1.4 5.2-2.2 8-2.2 8.1h3.5v3c0 .1 0 .1-.1.1 0 .1 0 .2-.1.2h-7.8v-3.4l3.5-12.9v-.1h-1.3v-.2h-1.5c-.1-1.2-.1-2.3-.1-3m8.3 0h4v3.3l.2.2v16.2h-1.5c-.2-.1-.3-.1-.3-.1h-2.5v-18.1c.1-.2.1-.8.1-1.5m5 0h4.3v16.4h1.2c.1-.1.1-.1.2-.1h1.2v3.4H571zm7.3 0h4.3v16.4h1.2c.1-.1.1-.1.2-.1h1.2v3.4h-6.8v-19.7zm12.3 0h1.2v.2h1.4l2.6 19.5h-4.2l-.3-3.8H590l-.4 3.9h-4.1c1.7-13 2.6-19.6 2.6-19.6 1.1-.2 1.9-.2 2.5-.2m.2 6.5-.4 6h.9z"/></g><g clip-path="url(#zilla_svg-a)"><path d="M438.4 376.6h.6q3.15 0 3.9.9c.4.7.6 1.6.6 2.8v3h-4.1v-2.8c0-.3-.2-.4-.6-.4s-.6.2-.6.7v7.3l.2.2v4.3q.15.3.3.3.6-.15.6-.3V388h4.2v4.8h.1v.1c0 1.6-.4 2.6-1.1 3.1-.7.3-1.9.5-3.5.5h-.5c-2.1 0-3.4-.3-3.9-.8-.4-.6-.7-1.6-.7-3v-12.1c0-1.9.3-3 1-3.3.7-.5 1.9-.7 3.5-.7m6 0h4s.1 0 .1.1v3.3c.2.1.2.2.2.2v3.7h1v-7.2h4.3v19.6h-4.2v-.1c0-5.6-.1-8.6-.1-9.1h-1v9.2h-1.5s-.1 0-.3-.1h-2.5zm15.5 0h1.2v.2h1.4l2.6 19.5H461l-.3-3.8h-1.3l-.4 3.9h-4.1c1.7-13 2.6-19.6 2.6-19.6 1-.2 1.8-.2 2.4-.2m.1 6.5-.4 6h.9zm5.9-6.5h4v3.3l.2.2v16.2h-1.5c-.2-.1-.3-.1-.3-.1h-2.5v-18c.1-.3.1-.9.1-1.6m5.6 0h3.3l2 9.9v-9.9h3.6v19.7h-3.9q-1.95-9.3-2.1-9.6v9.6h-3.6v-3.5c.2 0 .3 0 .3-.1v-4.8h.2V385c.1-2.6.1-5.4.2-8.4m10.3 0h7.4v3.3c0 .1-.4 1.8-1.3 4.9-1.4 5.2-2.2 8-2.2 8.1h3.5v3c0 .1 0 .1-.1.1h-.1c0 .1 0 .2-.1.2h-7.8v-3.4l3.5-12.9v-.1h-1.3v-.2h-1.5zm8.3 0h4v3.3l.2.2v16.2h-1.5c-.2-.1-.3-.1-.3-.1H490v-18c.1-.3.1-.9.1-1.6m5 0h4.3V393h1.2c.1-.1.1-.1.2-.1h1.2v3.4h-6.8v-19.7zm7.4 0h4.3V393h1.2c.1-.1.1-.1.2-.1h1.2v3.4h-6.8v-19.7zm12.3 0h1.2v.2h1.4l2.6 19.5h-4.2l-.3-3.8h-1.3l-.4 3.9h-4.1c1.7-13 2.6-19.6 2.6-19.6 1-.2 1.8-.2 2.5-.2m.1 6.5-.4 6h.9zm-163.5-6.5h.6q3.15 0 3.9.9c.4.7.6 1.6.6 2.8v3h-4.1v-2.8c0-.3-.2-.4-.6-.4s-.6.2-.6.7v7.3l.2.2v4.3q.15.3.3.3.6-.15.6-.3V388h4.2v4.8h.1v.1c0 1.6-.4 2.6-1.1 3.1-.7.3-1.9.5-3.5.5h-.5c-2.1 0-3.4-.3-3.9-.8-.4-.6-.7-1.6-.7-3v-12.1c0-1.9.3-3 1-3.3.8-.5 1.9-.7 3.5-.7m6 0h4s.1 0 .1.1v3.3c.2.1.2.2.2.2v3.7h1v-7.2h4.3v19.6h-4.2v-.1c0-5.6-.1-8.6-.1-9.1h-1v9.2h-1.5s-.1 0-.3-.1h-2.5zm15.6 0h1.2v.2h1.4l2.6 19.5H374l-.3-3.8h-1.3l-.4 3.9h-4.1c1.7-13 2.6-19.6 2.6-19.6 1-.2 1.8-.2 2.5-.2m.1 6.5-.4 6h.9zm5.9-6.5h4v3.3l.2.2v16.2h-1.5c-.2-.1-.3-.1-.3-.1h-2.5v-18c.1-.3.1-.9.1-1.6m5.5 0h3.3l2 9.9v-9.9h3.6v19.7h-3.9q-1.95-9.3-2.1-9.6v9.6H384v-3.5c.2 0 .3 0 .3-.1v-4.8h.2V385c-.1-2.6 0-5.4 0-8.4m10.4 0h7.4v3.3c0 .1-.4 1.8-1.3 4.9-1.4 5.2-2.2 8-2.2 8.1h3.5v3c0 .1 0 .1-.1.1h-.1c0 .1 0 .2-.1.2h-7.8v-3.4l3.5-12.9v-.1h-1.3v-.2h-1.5zm8.3 0h4v3.3l.2.2v16.2H406c-.2-.1-.3-.1-.3-.1h-2.5zm5 0h4.3V393h1.2c.1-.1.1-.1.2-.1h1.2v3.4h-6.8v-19.7zm7.3 0h4.3V393h1.2c.1-.1.1-.1.2-.1h1.2v3.4h-6.8v-19.7zm12.3 0h1.2v.2h1.4l2.6 19.5h-4.2l-.3-3.8h-1.3l-.4 3.9h-4.1c1.7-13 2.6-19.6 2.6-19.6 1.1-.2 1.9-.2 2.5-.2m.1 6.5-.4 6h.9zm97.5-6.5h.6q3.15 0 3.9.9c.4.7.6 1.6.6 2.8v3h-4.1v-2.8c0-.3-.2-.4-.6-.4s-.6.2-.6.7v7.3l.2.2v4.3q.15.3.3.3.6-.15.6-.3V388h4.2v4.8h.1v.1c0 1.6-.4 2.6-1.1 3.1-.7.3-1.9.5-3.5.5h-.5c-2.1 0-3.4-.3-3.9-.8-.4-.6-.7-1.6-.7-3v-12.1c0-1.9.3-3 1-3.3.8-.5 1.9-.7 3.5-.7m6 0h4s.1 0 .1.1v3.3c.2.1.2.2.2.2v3.7h1v-7.2h4.3v19.6h-4.2v-.1c0-5.6-.1-8.6-.1-9.1h-1v9.2h-1.5s-.1 0-.3-.1h-2.5zm15.6 0h1.2v.2h1.4l2.6 19.5H548l-.3-3.8h-1.3l-.4 3.9h-4.1c1.7-13 2.6-19.6 2.6-19.6 1-.2 1.8-.2 2.5-.2m.1 6.5-.4 6h.9zm5.9-6.5h4v3.3l.2.2v16.2h-1.5c-.2-.1-.3-.1-.3-.1h-2.5v-18c.1-.3.1-.9.1-1.6m5.5 0h3.3l2 9.9v-9.9h3.6v19.7h-3.9q-1.95-9.3-2.1-9.6v9.6H558v-3.5c.2 0 .3 0 .3-.1v-4.8h.2V385c-.1-2.6 0-5.4 0-8.4m10.4 0h7.4v3.3c0 .1-.4 1.8-1.3 4.9-1.4 5.2-2.2 8-2.2 8.1h3.5v3c0 .1 0 .1-.1.1h-.1c0 .1 0 .2-.1.2h-7.8v-3.4l3.5-12.9v-.1h-1.3v-.2h-1.5zm8.3 0h4v3.3l.2.2v16.2H580c-.2-.1-.3-.1-.3-.1h-2.5zm5 0h4.3V393h1.2c.1-.1.1-.1.2-.1h1.2v3.4h-6.8v-19.7zm7.3 0h4.3V393h1.2c.1-.1.1-.1.2-.1h1.2v3.4h-6.8v-19.7zm12.3 0h1.2v.2h1.4l2.6 19.5h-4l-.3-3.8h-1.3l-.4 3.9h-4.1c1.7-13 2.6-19.6 2.6-19.6.9-.2 1.7-.2 2.3-.2m.1 6.5-.4 6h.9z"/></g><g clip-path="url(#zilla_svg-a)"><path d="M318.3 140.2h.6q3.15 0 3.9.9c.4.7.6 1.6.6 2.8v3h-4.1v-2.8c0-.3-.2-.4-.6-.4s-.6.2-.6.7v7.3l.2.2v4.3q.15.3.3.3.6-.15.6-.3v-4.6h4.2v4.8h.1v.1c0 1.6-.4 2.6-1.1 3.1-.7.3-1.9.5-3.5.5h-.5c-2.1 0-3.4-.3-3.9-.8-.4-.6-.7-1.6-.7-3V144c0-1.9.3-3 1-3.3.7-.4 1.9-.5 3.5-.5m6-.1h4s.1 0 .1.1v3.3c.2.1.2.2.2.2v3.7h1v-7.2h4.3v19.6h-4.2v-.1c0-5.6-.1-8.6-.1-9.1h-1v9.2h-1.5s-.1 0-.3-.1h-2.5zm15.5 0h1.2v.2h1.4l2.6 19.5h-4l-.3-3.8h-1.3l-.4 3.9h-4.1c1.7-13 2.6-19.6 2.6-19.6.9-.1 1.7-.2 2.3-.2m.2 6.6-.4 6h.9zm5.9-6.6h4v3.3l.2.2v16.2h-1.5c-.2-.1-.3-.1-.3-.1h-2.5v-18.1c0-.2 0-.7.1-1.5m5.5 0h3.3l2 9.9v-9.9h3.6v19.7h-3.9q-1.95-9.3-2.1-9.6v9.6h-3.6v-3.5c.2 0 .3 0 .3-.1v-4.8h.2v-2.9c.1-2.5.1-5.4.2-8.4m10.4 0h7.4v3.3c0 .1-.4 1.8-1.3 4.9-1.4 5.2-2.2 8-2.2 8.1h3.5v3c0 .1 0 .1-.1.1h-.1c0 .1 0 .2-.1.2h-7.8v-3.4l3.5-12.9v-.1h-1.3v-.2h-1.5zm8.3 0h4v3.3l.2.2v16.2h-1.5c-.2-.1-.3-.1-.3-.1H370v-18.1c0-.2.1-.7.1-1.5m5 0h4.3v16.4h1.2c.1-.1.1-.1.2-.1h1.2v3.4h-6.8v-19.7zm7.3 0h4.3v16.4h1.2c.1-.1.1-.1.2-.1h1.2v3.4h-6.8v-19.7zm12.3 0h1.2v.2h1.4l2.6 19.5h-4.2l-.3-3.8h-1.3l-.4 3.9h-4.1c1.7-13 2.6-19.6 2.6-19.6 1.1-.1 1.8-.2 2.5-.2m.1 6.6-.4 6h.9zm-163.5-6.5h.6q3.15 0 3.9.9c.4.7.6 1.6.6 2.8v3h-4.1v-2.8c0-.3-.2-.4-.6-.4s-.6.2-.6.7v7.3l.2.2v4.3q.15.3.3.3.6-.15.6-.3v-4.6h4.2v4.8h.1v.1c0 1.6-.4 2.6-1.1 3.1-.7.3-1.9.5-3.5.5h-.5c-2.1 0-3.4-.3-3.9-.8-.4-.6-.7-1.6-.7-3V144c0-1.9.3-3 1-3.3.8-.4 1.9-.5 3.5-.5m6.1-.1h4s.1 0 .1.1v3.3c.2.1.2.2.2.2v3.7h1v-7.2h4.3v19.6h-4.2v-.1c0-5.6-.1-8.6-.1-9.1h-1v9.2h-1.5s-.1 0-.3-.1h-2.5v-7.4c-.1-2.8-.1-6.9 0-12.2m15.5 0h1.2v.2h1.4l2.6 19.5H254l-.3-3.8h-1.3l-.4 3.9h-4.1c1.7-13 2.6-19.6 2.6-19.6 1-.1 1.7-.2 2.4-.2m.1 6.6-.4 6h.9zm5.9-6.6h4v3.3l.2.2v16.2h-1.5c-.2-.1-.3-.1-.3-.1h-2.5v-18.1c.1-.2.1-.7.1-1.5m5.6 0h3.3l2 9.9v-9.9h3.6v19.7h-3.9q-1.95-9.3-2.1-9.6v9.6h-3.6v-3.5c.2 0 .3 0 .3-.1v-4.8h.2v-2.9c.1-2.5.1-5.4.2-8.4m10.3 0h7.4v3.3c0 .1-.4 1.8-1.3 4.9-1.4 5.2-2.2 8-2.2 8.1h3.5v3c0 .1 0 .1-.1.1h-.1c0 .1 0 .2-.1.2h-7.8v-3.4l3.5-12.9v-.1h-1.3v-.2h-1.5zm8.3 0h4v3.3l.2.2v16.2h-1.5c-.2-.1-.3-.1-.3-.1H283v-18.1c.1-.2.1-.7.1-1.5m5 0h4.3v16.4h1.2c.1-.1.1-.1.2-.1h1.2v3.4h-6.8v-19.7zm7.3 0h4.3v16.4h1.2c.1-.1.1-.1.2-.1h1.2v3.4h-6.8v-19.7zm12.3 0h1.2v.2h1.4l2.6 19.5h-4.2l-.3-3.8h-1.3l-.4 3.9h-4.1c1.7-13 2.6-19.6 2.6-19.6 1.1-.1 1.9-.2 2.5-.2m.2 6.6-.4 6h.9zm97.5-6.5h.6q3.15 0 3.9.9c.4.7.6 1.6.6 2.8v3h-4.1v-2.8c0-.3-.2-.4-.6-.4s-.6.2-.6.7v7.3l.2.2v4.3q.15.3.3.3.6-.15.6-.3v-4.6h4.2v4.8h.1v.1c0 1.6-.4 2.6-1.1 3.1-.7.3-1.9.5-3.5.5h-.5c-2.1 0-3.4-.3-3.9-.8-.4-.6-.7-1.6-.7-3V144c0-1.9.3-3 1-3.3.7-.4 1.9-.5 3.5-.5m6-.1h4s.1 0 .1.1v3.3c.2.1.2.2.2.2v3.7h1v-7.2h4.3v19.6h-4.2v-.1c0-5.6-.1-8.6-.1-9.1h-1v9.2h-1.5s-.1 0-.3-.1h-2.5zm15.5 0h1.2v.2h1.4l2.6 19.5H428l-.3-3.8h-1.3l-.4 3.9h-4.1c1.7-13 2.6-19.6 2.6-19.6 1-.1 1.8-.2 2.4-.2m.1 6.6-.4 6h.9zm5.9-6.6h4v3.3l.2.2v16.2h-1.5c-.2-.1-.3-.1-.3-.1h-2.5v-18.1c.1-.2.1-.7.1-1.5m5.6 0h3.3l2 9.9v-9.9h3.6v19.7h-3.9q-1.95-9.3-2.1-9.6v9.6h-3.6v-3.5c.2 0 .3 0 .3-.1v-4.8h.2v-2.9c.1-2.5.1-5.4.2-8.4m10.3 0h7.4v3.3c0 .1-.4 1.8-1.3 4.9-1.4 5.2-2.2 8-2.2 8.1h3.5v3c0 .1 0 .1-.1.1h-.1c0 .1 0 .2-.1.2h-7.8v-3.4l3.5-12.9v-.1h-1.3v-.2h-1.5zm8.3 0h4v3.3l.2.2v16.2h-1.5c-.2-.1-.3-.1-.3-.1H457v-18.1c.1-.2.1-.7.1-1.5m5 0h4.3v16.4h1.2c.1-.1.1-.1.2-.1h1.2v3.4h-6.8v-19.7zm7.4 0h4.3v16.4h1.2c.1-.1.1-.1.2-.1h1.2v3.4h-6.8v-19.7zm12.3 0h1.2v.2h1.4l2.6 19.5h-4.2l-.3-3.8h-1.3l-.4 3.9h-4.1c1.7-13 2.6-19.6 2.6-19.6 1-.1 1.8-.2 2.5-.2m.1 6.6-.4 6h.9z"/></g><g clip-path="url(#zilla_svg-a)"><path d="M328.7 161.7h.6q3.15 0 3.9.9c.4.7.6 1.6.6 2.8v3h-4.1v-2.8c0-.3-.2-.4-.6-.4s-.6.2-.6.7v7.3l.2.2v4.3q.15.3.3.3.6-.15.6-.3V173h4.2v4.8h.1v.1c0 1.6-.4 2.6-1.1 3.1-.7.3-1.9.5-3.5.5h-.5c-2.1 0-3.4-.3-3.9-.8-.4-.6-.7-1.6-.7-3v-12.1c0-1.9.3-3 1-3.3.7-.5 1.9-.6 3.5-.6m6-.1h4s.1 0 .1.1v3.3c.2.1.2.2.2.2v3.7h1v-7.2h4.3v19.6h-4.2v-.1c0-5.6-.1-8.6-.1-9.1h-1v9.2h-1.5s-.1 0-.3-.1h-2.5zm15.5 0h1.2v.2h1.4l2.6 19.5h-4.2l-.3-3.8h-1.3l-.4 3.9h-4.1c1.7-13 2.6-19.6 2.6-19.6 1.1-.1 1.9-.2 2.5-.2m.2 6.6-.4 6h.9zm5.9-6.6h4v3.3l.2.2v16.2H359c-.2-.1-.3-.1-.3-.1h-2.5v-18c0-.3 0-.9.1-1.6m5.5 0h3.3l2 9.9v-9.9h3.6v19.7h-3.9q-1.95-9.3-2.1-9.6v9.6h-3.6v-3.5c.2 0 .3 0 .3-.1v-4.8h.2V170c.1-2.6.1-5.4.2-8.4m10.4 0h7.4v3.3c0 .1-.4 1.8-1.3 4.9-1.4 5.2-2.2 8-2.2 8.1h3.5v3c0 .1 0 .1-.1.1h-.1c0 .1 0 .2-.1.2h-7.8V178l3.5-12.9v-.1h-1.3v-.2h-1.5zm8.3 0h4v3.3l.2.2v16.2h-1.5c-.2-.1-.3-.1-.3-.1h-2.5v-18c0-.3.1-.9.1-1.6m5 0h4.3V178h1.2c.1-.1.1-.1.2-.1h1.2v3.4h-6.8v-19.7zm7.3 0h4.3V178h1.2c.1-.1.1-.1.2-.1h1.2v3.4h-6.8v-19.7zm12.3 0h1.2v.2h1.4l2.6 19.5h-4.2l-.3-3.8h-1.3l-.4 3.9H400c1.7-13 2.6-19.6 2.6-19.6 1.1-.1 1.8-.2 2.5-.2m.1 6.6-.4 6h.9zm-163.5-6.5h.6q3.15 0 3.9.9c.4.7.6 1.6.6 2.8v3h-4.1v-2.8c0-.3-.2-.4-.6-.4s-.6.2-.6.7v7.3l.2.2v4.3q.15.3.3.3.6-.15.6-.3V173h4.2v4.8h.1v.1c0 1.6-.4 2.6-1.1 3.1-.7.3-1.9.5-3.5.5h-.5c-2.1 0-3.4-.3-3.9-.8-.4-.6-.7-1.6-.7-3v-12.1c0-1.9.3-3 1-3.3.8-.5 1.9-.6 3.5-.6m6.1-.1h4s.1 0 .1.1v3.3c.2.1.2.2.2.2v3.7h1v-7.2h4.3v19.6h-4.2v-.1c0-5.6-.1-8.6-.1-9.1h-1v9.2h-1.5s-.1 0-.3-.1h-2.5v-7.3q-.15-4.35 0-12.3m15.5 0h1.2v.2h1.4l2.6 19.5h-4.2l-.3-3.8h-1.3l-.4 3.9h-4.1c1.7-13 2.6-19.6 2.6-19.6 1.1-.1 1.8-.2 2.5-.2m.1 6.6-.4 6h.9zm5.9-6.6h4v3.3l.2.2v16.2H272c-.2-.1-.3-.1-.3-.1h-2.5v-18c.1-.3.1-.9.1-1.6m5.6 0h3.3l2 9.9v-9.9h3.6v19.7H280q-1.95-9.3-2.1-9.6v9.6h-3.6v-3.5c.2 0 .3 0 .3-.1v-4.8h.2V170c0-2.6 0-5.4.1-8.4m10.3 0h7.4v3.3c0 .1-.4 1.8-1.3 4.9-1.4 5.2-2.2 8-2.2 8.1h3.5v3c0 .1 0 .1-.1.1h-.1c0 .1 0 .2-.1.2h-7.8V178l3.5-12.9v-.1h-1.3v-.2h-1.5zm8.3 0h4v3.3l.2.2v16.2h-1.5c-.2-.1-.3-.1-.3-.1h-2.5v-18c.1-.3.1-.9.1-1.6m5 0h4.3V178h1.2c.1-.1.1-.1.2-.1h1.2v3.4h-6.8v-19.7zm7.3 0h4.3V178h1.2c.1-.1.1-.1.2-.1h1.2v3.4h-6.8v-19.7zm12.3 0h1.2v.2h1.4l2.6 19.5h-4.2l-.3-3.8h-1.3l-.4 3.9H313c1.7-13 2.6-19.6 2.6-19.6 1.1-.1 1.9-.2 2.5-.2m.2 6.6-.4 6h.9zm97.5-6.5h.6q3.15 0 3.9.9c.4.7.6 1.6.6 2.8v3h-4.1v-2.8c0-.3-.2-.4-.6-.4s-.6.2-.6.7v7.3l.2.2v4.3q.15.3.3.3.6-.15.6-.3V173h4.2v4.8h.1v.1c0 1.6-.4 2.6-1.1 3.1-.7.3-1.9.5-3.5.5h-.5c-2.1 0-3.4-.3-3.9-.8-.4-.6-.7-1.6-.7-3v-12.1c0-1.9.3-3 1-3.3.7-.5 1.9-.6 3.5-.6m6-.1h4s.1 0 .1.1v3.3c.2.1.2.2.2.2v3.7h1v-7.2h4.3v19.6h-4.2v-.1c0-5.6-.1-8.6-.1-9.1h-1v9.2h-1.5s-.1 0-.3-.1h-2.5zm15.5 0h1.2v.2h1.4l2.6 19.5h-4.2l-.3-3.8h-1.3l-.4 3.9h-4.1c1.7-13 2.6-19.6 2.6-19.6 1.1-.1 1.9-.2 2.5-.2m.1 6.6-.4 6h.9zm5.9-6.6h4v3.3l.2.2v16.2H446c-.2-.1-.3-.1-.3-.1h-2.5v-18c.1-.3.1-.9.1-1.6m5.6 0h3.3l2 9.9v-9.9h3.6v19.7H454q-1.95-9.3-2.1-9.6v9.6h-3.6v-3.5c.2 0 .3 0 .3-.1v-4.8h.2V170c0-2.6 0-5.4.1-8.4m10.3 0h7.4v3.3c0 .1-.4 1.8-1.3 4.9-1.4 5.2-2.2 8-2.2 8.1h3.5v3c0 .1 0 .1-.1.1h-.1c0 .1 0 .2-.1.2h-7.8V178l3.5-12.9v-.1h-1.3v-.2h-1.5zm8.3 0h4v3.3l.2.2v16.2h-1.5c-.2-.1-.3-.1-.3-.1h-2.5v-18c.1-.3.1-.9.1-1.6m5 0h4.3V178h1.2c.1-.1.1-.1.2-.1h1.2v3.4h-6.8v-19.7zm7.4 0h4.3V178h1.2c.1-.1.1-.1.2-.1h1.2v3.4H480v-19.7zm12.3 0h1.2v.2h1.4l2.6 19.5h-4.2l-.3-3.8h-1.3l-.4 3.9h-4.1c1.7-13 2.6-19.6 2.6-19.6 1-.1 1.8-.2 2.5-.2m.1 6.6-.4 6h.9z"/></g><g clip-path="url(#zilla_svg-a)"><path d="M339.9 183.1h.6q3.15 0 3.9.9c.4.7.6 1.6.6 2.8v3h-4.1V187c0-.3-.2-.4-.6-.4s-.6.2-.6.7v7.3l.2.2v4.3q.15.3.3.3.6-.15.6-.3v-4.6h4.2v4.8h.1v.1c0 1.6-.4 2.6-1.1 3.1-.7.3-1.9.5-3.5.5h-.5c-2.1 0-3.4-.3-3.9-.8-.4-.6-.7-1.6-.7-3V187c0-1.9.3-3 1-3.3.7-.4 1.9-.6 3.5-.6m6 0h4s.1 0 .1.1v3.3c.2.1.2.2.2.2v3.7h1v-7.2h4.3v19.6h-4.2v-.1c0-5.6-.1-8.6-.1-9.1h-1v9.2h-1.5s-.1 0-.3-.1h-2.5zm15.5 0h1.2v.2h1.4l2.6 19.5h-4.2l-.3-3.8h-1.3l-.4 3.9h-4.1c1.7-13 2.6-19.6 2.6-19.6 1.1-.2 1.9-.2 2.5-.2m.1 6.6-.4 6h.9zm6-6.6h4v3.3l.2.2v16.2h-1.5c-.2-.1-.3-.1-.3-.1h-2.5v-18.1c0-.2 0-.8.1-1.5m5.5 0h3.3l2 9.9v-9.9h3.6v19.7H378q-1.95-9.3-2.1-9.6v9.6h-3.6v-3.5c.2 0 .3 0 .3-.1v-4.8h.2v-2.9c.1-2.6.1-5.4.2-8.4m10.4 0h7.4v3.3c0 .1-.4 1.8-1.3 4.9-1.4 5.2-2.2 8-2.2 8.1h3.5v3c0 .1 0 .1-.1.1h-.1c0 .1 0 .2-.1.2h-7.8v-3.4l3.5-12.9v-.1h-1.3v-.2h-1.5c-.1-1.2 0-2.2 0-3m8.3 0h4v3.3l.2.2v16.2h-1.5c-.2-.1-.3-.1-.3-.1h-2.5v-18.1c0-.2 0-.8.1-1.5m5 0h4.3v16.4h1.2c.1-.1.1-.1.2-.1h1.2v3.4h-6.8v-19.7zm7.3 0h4.3v16.4h1.2c.1-.1.1-.1.2-.1h1.2v3.4H404zm12.3 0h1.2v.2h1.4l2.6 19.5h-4.2l-.3-3.8h-1.3l-.4 3.9h-4.1c1.7-13 2.6-19.6 2.6-19.6 1-.2 1.8-.2 2.5-.2m.1 6.6-.4 6h.9zm-163.5-6.6h.6q3.15 0 3.9.9c.4.7.6 1.6.6 2.8v3h-4.1V187c0-.3-.2-.4-.6-.4s-.6.2-.6.7v7.3l.2.2v4.3q.15.3.3.3.6-.15.6-.3v-4.6h4.2v4.8h.1v.1c0 1.6-.4 2.6-1.1 3.1-.7.3-1.9.5-3.5.5h-.5c-2.1 0-3.4-.3-3.9-.8-.4-.6-.7-1.6-.7-3V187c0-1.9.3-3 1-3.3.8-.4 1.9-.6 3.5-.6m6 0h4s.1 0 .1.1v3.3c.2.1.2.2.2.2v3.7h1v-7.2h4.3v19.6h-4.2v-.1c0-5.6-.1-8.6-.1-9.1h-1v9.2h-1.5s-.1 0-.3-.1h-2.5zm15.6 0h1.2v.2h1.4l2.6 19.5h-4.2l-.3-3.8H274l-.4 3.9h-4.1c1.7-13 2.6-19.6 2.6-19.6.9-.2 1.7-.2 2.4-.2m.1 6.6-.4 6h.9zm5.9-6.6h4v3.3l.2.2v16.2h-1.5c-.2-.1-.3-.1-.3-.1h-2.5v-18.1c.1-.2.1-.8.1-1.5m5.5 0h3.3l2 9.9v-9.9h3.6v19.7H291q-1.95-9.3-2.1-9.6v9.6h-3.6v-3.5c.2 0 .3 0 .3-.1v-4.8h.2v-2.9c.1-2.6.2-5.4.2-8.4m10.4 0h7.4v3.3c0 .1-.4 1.8-1.3 4.9-1.4 5.2-2.2 8-2.2 8.1h3.5v3c0 .1 0 .1-.1.1h-.1c0 .1 0 .2-.1.2h-7.8v-3.4l3.5-12.9v-.1h-1.3v-.2h-1.5zm8.3 0h4v3.3l.2.2v16.2h-1.5c-.2-.1-.3-.1-.3-.1h-2.5v-18.1c.1-.2.1-.8.1-1.5m5 0h4.3v16.4h1.2c.1-.1.1-.1.2-.1h1.2v3.4h-6.8v-19.7zm7.3 0h4.3v16.4h1.2c.1-.1.1-.1.2-.1h1.2v3.4H317zm12.3 0h1.2v.2h1.4l2.6 19.5h-4.2l-.3-3.8h-1.3l-.4 3.9h-4.1c1.7-13 2.6-19.6 2.6-19.6 1.1-.2 1.9-.2 2.5-.2m.1 6.6-.4 6h.9zm97.5-6.6h.6q3.15 0 3.9.9c.4.7.6 1.6.6 2.8v3h-4.1V187c0-.3-.2-.4-.6-.4s-.6.2-.6.7v7.3l.2.2v4.3q.15.3.3.3.6-.15.6-.3v-4.6h4.2v4.8h.1v.1c0 1.6-.4 2.6-1.1 3.1-.7.3-1.9.5-3.5.5h-.5c-2.1 0-3.4-.3-3.9-.8-.4-.6-.7-1.6-.7-3V187c0-1.9.3-3 1-3.3.8-.4 1.9-.6 3.5-.6m6.1 0h4s.1 0 .1.1v3.3c.2.1.2.2.2.2v3.7h1v-7.2h4.3v19.6h-4.2v-.1c0-5.6-.1-8.6-.1-9.1h-1v9.2h-1.5s-.1 0-.3-.1H433v-7.4c-.1-2.8-.1-6.9 0-12.2m15.5 0h1.2v.2h1.4l2.6 19.5h-4.2l-.3-3.8H448l-.4 3.9h-4.1c1.7-13 2.6-19.6 2.6-19.6 1-.2 1.8-.2 2.4-.2m.1 6.6-.4 6h.9zm5.9-6.6h4v3.3l.2.2v16.2h-1.5c-.2-.1-.3-.1-.3-.1h-2.5v-18.1c.1-.2.1-.8.1-1.5m5.6 0h3.3l2 9.9v-9.9h3.6v19.7h-3.9q-1.95-9.3-2.1-9.6v9.6h-3.6v-3.5c.2 0 .3 0 .3-.1v-4.8h.2v-2.9c.1-2.6.1-5.4.2-8.4m10.3 0h7.4v3.3c0 .1-.4 1.8-1.3 4.9-1.4 5.2-2.2 8-2.2 8.1h3.5v3c0 .1 0 .1-.1.1h-.1c0 .1 0 .2-.1.2h-7.8v-3.4l3.5-12.9v-.1h-1.3v-.2h-1.5zm8.3 0h4v3.3l.2.2v16.2h-1.5c-.2-.1-.3-.1-.3-.1h-2.5v-18.1c.1-.2.1-.8.1-1.5m5 0h4.3v16.4h1.2c.1-.1.1-.1.2-.1h1.2v3.4h-6.8v-19.7zm7.3 0h4.3v16.4h1.2c.1-.1.1-.1.2-.1h1.2v3.4H491zm12.3 0h1.2v.2h1.4l2.6 19.5h-4.2l-.3-3.8h-1.3l-.4 3.9h-4.1c1.7-13 2.6-19.6 2.6-19.6 1.1-.2 1.9-.2 2.5-.2m.2 6.6-.4 6h.9z"/></g><g clip-path="url(#zilla_svg-a)"><path d="M351.5 204.6h.6q3.15 0 3.9.9c.4.7.6 1.6.6 2.8v3h-4.1v-2.8c0-.3-.2-.4-.6-.4s-.6.2-.6.7v7.3l.2.2v4.3q.15.3.3.3.6-.15.6-.3V216h4.2v4.8h.1v.1c0 1.6-.4 2.6-1.1 3.1-.7.3-1.9.5-3.5.5h-.5c-2.1 0-3.4-.3-3.9-.8-.4-.6-.7-1.6-.7-3v-12.1c0-1.9.3-3 1-3.3.7-.5 1.9-.7 3.5-.7m6 0h4s.1 0 .1.1v3.3c.2.1.2.2.2.2v3.7h1v-7.2h4.3v19.6h-4.2v-.1c0-5.6-.1-8.6-.1-9.1h-1v9.2h-1.5s-.1 0-.3-.1h-2.5zm15.5 0h1.2v.2h1.4l2.6 19.5H374l-.3-3.8h-1.3l-.4 3.9h-4.1c1.7-13 2.6-19.6 2.6-19.6 1.1-.2 1.9-.2 2.5-.2m.2 6.6-.4 6h.9zm5.9-6.6h4v3.3l.2.2v16.2h-1.5c-.2-.1-.3-.1-.3-.1H379v-18c0-.3 0-.9.1-1.6m5.5 0h3.3l2 9.9v-9.9h3.6v19.7h-3.9q-1.95-9.3-2.1-9.6v9.6H384v-3.5c.2 0 .3 0 .3-.1v-4.8h.2V213c0-2.6 0-5.4.1-8.4m10.4 0h7.4v3.3c0 .1-.4 1.8-1.3 4.9-1.4 5.2-2.2 8-2.2 8.1h3.5v3c0 .1 0 .1-.1.1h-.1c0 .1 0 .2-.1.2h-7.8v-3.4l3.5-12.9v-.1h-1.3v-.2H395zm8.3 0h4v3.3l.2.2v16.2H406c-.2-.1-.3-.1-.3-.1h-2.5v-18c0-.3 0-.9.1-1.6m5 0h4.3V221h1.2c.1-.1.1-.1.2-.1h1.2v3.4h-6.8v-19.7zm7.3 0h4.3V221h1.2c.1-.1.1-.1.2-.1h1.2v3.4h-6.8v-19.7zm12.3 0h1.2v.2h1.4l2.6 19.5H429l-.3-3.8h-1.3l-.4 3.9h-4.1c1.7-13 2.6-19.6 2.6-19.6.9-.2 1.7-.2 2.4-.2m.1 6.6-.4 6h.9zm-163.5-6.6h.6q3.15 0 3.9.9c.4.7.6 1.6.6 2.8v3h-4.1v-2.8c0-.3-.2-.4-.6-.4s-.6.2-.6.7v7.3l.2.2v4.3q.15.3.3.3.6-.15.6-.3V216h4.2v4.8h.1v.1c0 1.6-.4 2.6-1.1 3.1-.7.3-1.9.5-3.5.5h-.5c-2.1 0-3.4-.3-3.9-.8-.4-.6-.7-1.6-.7-3v-12.1c0-1.9.3-3 1-3.3.8-.5 1.9-.7 3.5-.7m6 0h4s.1 0 .1.1v3.3c.2.1.2.2.2.2v3.7h1v-7.2h4.3v19.6h-4.2v-.1c0-5.6-.1-8.6-.1-9.1h-1v9.2h-1.5s-.1 0-.3-.1h-2.5zm15.6 0h1.2v.2h1.4l2.6 19.5h-4.2l-.3-3.8h-1.3l-.4 3.9H281c1.7-13 2.6-19.6 2.6-19.6 1-.2 1.8-.2 2.5-.2m.1 6.6-.4 6h.9zm5.9-6.6h4v3.3l.2.2v16.2h-1.5c-.2-.1-.3-.1-.3-.1H292v-18c.1-.3.1-.9.1-1.6m5.6 0h3.3l2 9.9v-9.9h3.6v19.7h-3.9q-1.95-9.3-2.1-9.6v9.6H297v-3.5c.2 0 .3 0 .3-.1v-4.8h.2V213c0-2.6.1-5.4.2-8.4m10.3 0h7.4v3.3c0 .1-.4 1.8-1.3 4.9-1.4 5.2-2.2 8-2.2 8.1h3.5v3c0 .1 0 .1-.1.1h-.1c0 .1 0 .2-.1.2h-7.8v-3.4L311 208v-.1h-1.3v-.2h-1.5c-.2-1.3-.2-2.3-.2-3.1m8.3 0h4v3.3l.2.2v16.2H319c-.2-.1-.3-.1-.3-.1h-2.5v-18c.1-.3.1-.9.1-1.6m5 0h4.3V221h1.2c.1-.1.1-.1.2-.1h1.2v3.4h-6.8v-19.7zm7.3 0h4.3V221h1.2c.1-.1.1-.1.2-.1h1.2v3.4h-6.8v-19.7zm12.3 0h1.2v.2h1.4l2.6 19.5h-4.2l-.3-3.8h-1.3l-.4 3.9h-4.1c1.7-13 2.6-19.6 2.6-19.6 1.1-.2 1.9-.2 2.5-.2m.1 6.6-.4 6h.9zm97.5-6.6h.6q3.15 0 3.9.9c.4.7.6 1.6.6 2.8v3h-4.1v-2.8c0-.3-.2-.4-.6-.4s-.6.2-.6.7v7.3l.2.2v4.3q.15.3.3.3.6-.15.6-.3V216h4.2v4.8h.1v.1c0 1.6-.4 2.6-1.1 3.1-.7.3-1.9.5-3.5.5h-.5c-2.1 0-3.4-.3-3.9-.8-.4-.6-.7-1.6-.7-3v-12.1c0-1.9.3-3 1-3.3.8-.5 1.9-.7 3.5-.7m6.1 0h4s.1 0 .1.1v3.3c.2.1.2.2.2.2v3.7h1v-7.2h4.3v19.6H450v-.1c0-5.6-.1-8.6-.1-9.1h-1v9.2h-1.5s-.1 0-.3-.1h-2.5v-7.4c-.1-2.9 0-6.9 0-12.2m15.5 0h1.2v.2h1.4l2.6 19.5h-4.2l-.3-3.8h-1.3l-.4 3.9H455c1.7-13 2.6-19.6 2.6-19.6 1.1-.2 1.9-.2 2.5-.2m.1 6.6-.4 6h.9zm5.9-6.6h4v3.3l.2.2v16.2h-1.5c-.2-.1-.3-.1-.3-.1H466v-18c.1-.3.1-.9.1-1.6m5.6 0h3.3l2 9.9v-9.9h3.6v19.7h-3.9q-1.95-9.3-2.1-9.6v9.6H471v-3.5c.2 0 .3 0 .3-.1v-4.8h.2V213c.1-2.6.1-5.4.2-8.4m10.3 0h7.4v3.3c0 .1-.4 1.8-1.3 4.9-1.4 5.2-2.2 8-2.2 8.1h3.5v3c0 .1 0 .1-.1.1h-.1c0 .1 0 .2-.1.2h-7.8v-3.4L485 208v-.1h-1.3v-.2h-1.5c-.2-1.3-.2-2.3-.2-3.1m8.3 0h4v3.3l.2.2v16.2H493c-.2-.1-.3-.1-.3-.1h-2.5v-18c.1-.3.1-.9.1-1.6m5 0h4.3V221h1.2c.1-.1.1-.1.2-.1h1.2v3.4h-6.8v-19.7zm7.3 0h4.3V221h1.2c.1-.1.1-.1.2-.1h1.2v3.4h-6.8v-19.7zm12.3 0h1.2v.2h1.4l2.6 19.5h-4.2l-.3-3.8h-1.3l-.4 3.9h-4.1c1.7-13 2.6-19.6 2.6-19.6 1.1-.2 1.9-.2 2.5-.2m.2 6.6-.4 6h.9z"/></g><g clip-path="url(#zilla_svg-a)"><path d="M361.9 226.1h.6q3.15 0 3.9.9c.4.7.6 1.6.6 2.8v3h-4.1V230c0-.3-.2-.4-.6-.4s-.6.2-.6.7v7.3l.2.2v4.3q.15.3.3.3.6-.15.6-.3v-4.6h4.2v4.8h.1v.1c0 1.6-.4 2.6-1.1 3.1-.7.3-1.9.5-3.5.5h-.5c-2.1 0-3.4-.3-3.9-.8-.4-.6-.7-1.6-.7-3v-12.1c0-1.9.3-3 1-3.3.7-.5 1.9-.7 3.5-.7m6 0h4s.1 0 .1.1v3.3c.2.1.2.2.2.2v3.7h1v-7.2h4.3v19.6h-4.2v-.1c0-5.6-.1-8.6-.1-9.1h-1v9.2h-1.5s-.1 0-.3-.1h-2.5zm15.5 0h1.2v.2h1.4l2.6 19.5h-4.2l-.3-3.8h-1.3l-.4 3.9h-4.1c1.7-13 2.6-19.6 2.6-19.6 1.1-.2 1.9-.2 2.5-.2m.2 6.5-.4 6h.9zm5.9-6.5h4v3.3l.2.2v16.2h-1.5c-.2-.1-.3-.1-.3-.1h-2.5v-18.1c0-.2 0-.8.1-1.5m5.5 0h3.3l2 9.9v-9.9h3.6v19.7H400q-1.95-9.3-2.1-9.6v9.6h-3.6v-3.5c.2 0 .3 0 .3-.1v-4.8h.2v-2.9c.1-2.6.1-5.4.2-8.4m10.4 0h7.4v3.3c0 .1-.4 1.8-1.3 4.9-1.4 5.2-2.2 8-2.2 8.1h3.5v3c0 .1 0 .1-.1.1h-.1c0 .1 0 .2-.1.2h-7.8v-3.4l3.5-12.9v-.1h-1.3v-.2h-1.5zm8.3 0h4v3.3l.2.2v16.2h-1.5c-.2-.1-.3-.1-.3-.1h-2.5v-18.1c0-.2 0-.8.1-1.5m5 0h4.3v16.4h1.2c.1-.1.1-.1.2-.1h1.2v3.4h-6.8v-19.7zm7.3 0h4.3v16.4h1.2c.1-.1.1-.1.2-.1h1.2v3.4H426zm12.3 0h1.2v.2h1.4l2.6 19.5h-4.2l-.3-3.8h-1.3l-.4 3.9h-4.1c1.7-13 2.6-19.6 2.6-19.6 1-.2 1.8-.2 2.5-.2m.1 6.5-.4 6h.9zm-163.5-6.5h.6q3.15 0 3.9.9c.4.7.6 1.6.6 2.8v3h-4.1V230c0-.3-.2-.4-.6-.4s-.6.2-.6.7v7.3l.2.2v4.3q.15.3.3.3.6-.15.6-.3v-4.6h4.2v4.8h.1v.1c0 1.6-.4 2.6-1.1 3.1-.7.3-1.9.5-3.5.5h-.5c-2.1 0-3.4-.3-3.9-.8-.4-.6-.7-1.6-.7-3v-12.1c0-1.9.3-3 1-3.3.8-.5 1.9-.7 3.5-.7m6 0h4s.1 0 .1.1v3.3c.2.1.2.2.2.2v3.7h1v-7.2h4.3v19.6h-4.2v-.1c0-5.6-.1-8.6-.1-9.1h-1v9.2h-1.5s-.1 0-.3-.1h-2.5zm15.6 0h1.2v.2h1.4l2.6 19.5h-4.2l-.3-3.8H296l-.4 3.9h-4.1c1.7-13 2.6-19.6 2.6-19.6.9-.2 1.7-.2 2.4-.2m.1 6.5-.4 6h.9zm5.9-6.5h4v3.3l.2.2v16.2h-1.5c-.2-.1-.3-.1-.3-.1h-2.5v-18.1c.1-.2.1-.8.1-1.5m5.6 0h3.3l2 9.9v-9.9h3.6v19.7h-3.9q-1.95-9.3-2.1-9.6v9.6h-3.6v-3.5c.2 0 .3 0 .3-.1v-4.8h.2v-2.9c0-2.6.1-5.4.2-8.4m10.3 0h7.4v3.3c0 .1-.4 1.8-1.3 4.9-1.4 5.2-2.2 8-2.2 8.1h3.5v3c0 .1 0 .1-.1.1h-.1c0 .1 0 .2-.1.2h-7.8v-3.4l3.5-12.9v-.1h-1.3v-.2h-1.5zm8.3 0h4v3.3l.2.2v16.2h-1.5c-.2-.1-.3-.1-.3-.1h-2.5v-18.1c.1-.2.1-.8.1-1.5m5 0h4.3v16.4h1.2c.1-.1.1-.1.2-.1h1.2v3.4h-6.8v-19.7zm7.3 0h4.3v16.4h1.2c.1-.1.1-.1.2-.1h1.2v3.4H339zm12.3 0h1.2v.2h1.4l2.6 19.5h-4.2l-.3-3.8h-1.3l-.4 3.9h-4.1c1.7-13 2.6-19.6 2.6-19.6 1.1-.2 1.9-.2 2.5-.2m.1 6.5-.4 6h.9zm97.5-6.5h.6q3.15 0 3.9.9c.4.7.6 1.6.6 2.8v3h-4.1V230c0-.3-.2-.4-.6-.4s-.6.2-.6.7v7.3l.2.2v4.3q.15.3.3.3.6-.15.6-.3v-4.6h4.2v4.8h.1v.1c0 1.6-.4 2.6-1.1 3.1-.7.3-1.9.5-3.5.5h-.5c-2.1 0-3.4-.3-3.9-.8-.4-.6-.7-1.6-.7-3v-12.1c0-1.9.3-3 1-3.3.8-.5 1.9-.7 3.5-.7m6.1 0h4s.1 0 .1.1v3.3c.2.1.2.2.2.2v3.7h1v-7.2h4.3v19.6h-4.2v-.1c0-5.6-.1-8.6-.1-9.1h-1v9.2h-1.5s-.1 0-.3-.1H455v-7.4c-.1-2.9 0-6.9 0-12.2m15.5 0h1.2v.2h1.4l2.6 19.5h-4.2l-.3-3.8H470l-.4 3.9h-4.1c1.7-13 2.6-19.6 2.6-19.6 1-.2 1.8-.2 2.4-.2m.1 6.5-.4 6h.9zm5.9-6.5h4v3.3l.2.2v16.2h-1.5c-.2-.1-.3-.1-.3-.1h-2.5v-18.1c.1-.2.1-.8.1-1.5m5.6 0h3.3l2 9.9v-9.9h3.6v19.7h-3.9q-1.95-9.3-2.1-9.6v9.6h-3.6v-3.5c.2 0 .3 0 .3-.1v-4.8h.2v-2.9c.1-2.6.1-5.4.2-8.4m10.3 0h7.4v3.3c0 .1-.4 1.8-1.3 4.9-1.4 5.2-2.2 8-2.2 8.1h3.5v3c0 .1 0 .1-.1.1h-.1c0 .1 0 .2-.1.2h-7.8v-3.4l3.5-12.9v-.1h-1.3v-.2h-1.5zm8.3 0h4v3.3l.2.2v16.2h-1.5c-.2-.1-.3-.1-.3-.1h-2.5v-18.1c.1-.2.1-.8.1-1.5m5 0h4.3v16.4h1.2c.1-.1.1-.1.2-.1h1.2v3.4h-6.8v-19.7zm7.3 0h4.3v16.4h1.2c.1-.1.1-.1.2-.1h1.2v3.4H513zm12.3 0h1.2v.2h1.4l2.6 19.5h-4.2l-.3-3.8h-1.3l-.4 3.9h-4.1c1.7-13 2.6-19.6 2.6-19.6 1.1-.2 1.9-.2 2.5-.2m.2 6.5-.4 6h.9z"/></g><g clip-path="url(#zilla_svg-a)"><path d="M373.1 247.6h.6q3.15 0 3.9.9c.4.7.6 1.6.6 2.8v3H374v-2.8c0-.3-.2-.4-.6-.4s-.6.2-.6.7v7.3l.2.2v4.3q.15.3.3.3.6-.15.6-.3V259h4.2v4.8h.1v.1c0 1.6-.4 2.6-1.1 3.1-.7.3-1.9.5-3.5.5h-.5c-2.1 0-3.4-.3-3.9-.8-.4-.6-.7-1.6-.7-3v-12.1c0-1.9.3-3 1-3.3.8-.5 2-.7 3.6-.7m6 0h4s.1 0 .1.1v3.3c.2.1.2.2.2.2v3.7h1v-7.2h4.3v19.6h-4.2v-.1c0-5.6-.1-8.6-.1-9.1h-1v9.2h-1.5s-.1 0-.3-.1H379v-7.4c.1-2.9.1-6.9.1-12.2m15.5 0h1.2v.2h1.4l2.6 19.5h-4.2l-.3-3.8H394l-.4 3.9h-4.1c1.7-13 2.6-19.6 2.6-19.6 1.1-.2 1.9-.2 2.5-.2m.1 6.5-.4 6h.9zm5.9-6.5h4v3.3l.2.2v16.2h-1.5c-.2-.1-.3-.1-.3-.1h-2.5v-18c.1-.3.1-.9.1-1.6m5.6 0h3.3l2 9.9v-9.9h3.6v19.7h-3.9q-1.95-9.3-2.1-9.6v9.6h-3.6v-3.5c.2 0 .3 0 .3-.1v-4.8h.2V256c.1-2.6.1-5.4.2-8.4m10.3 0h7.4v3.3c0 .1-.4 1.8-1.3 4.9-1.4 5.2-2.2 8-2.2 8.1h3.5v3c0 .1 0 .1-.1.1h-.1c0 .1 0 .2-.1.2h-7.8v-3.4l3.5-12.9v-.1H418v-.2h-1.5zm8.3 0h4v3.3l.2.2v16.2h-1.5c-.2-.1-.3-.1-.3-.1h-2.5v-18c.1-.3.1-.9.1-1.6m5 0h4.3V264h1.2c.1-.1.1-.1.2-.1h1.2v3.4h-6.8v-19.7zm7.4 0h4.3V264h1.2c.1-.1.1-.1.2-.1h1.2v3.4h-6.8v-19.7zm12.3 0h1.2v.2h1.4l2.6 19.5h-4.2l-.3-3.8h-1.3l-.4 3.9h-4.1c1.7-13 2.6-19.6 2.6-19.6 1-.2 1.8-.2 2.5-.2m.1 6.5-.4 6h.9zm-163.5-6.5h.6q3.15 0 3.9.9c.4.7.6 1.6.6 2.8v3h-4.1v-2.8c0-.3-.2-.4-.6-.4s-.6.2-.6.7v7.3l.2.2v4.3q.15.3.3.3.6-.15.6-.3V259h4.2v4.8h.1v.1c0 1.6-.4 2.6-1.1 3.1-.7.3-1.9.5-3.5.5h-.5c-2.1 0-3.4-.3-3.9-.8-.4-.6-.7-1.6-.7-3v-12.1c0-1.9.3-3 1-3.3.8-.5 1.9-.7 3.5-.7m6 0h4s.1 0 .1.1v3.3c.2.1.2.2.2.2v3.7h1v-7.2h4.3v19.6h-4.2v-.1c0-5.6-.1-8.6-.1-9.1h-1v9.2h-1.5s-.1 0-.3-.1h-2.5zm15.6 0h1.2v.2h1.4l2.6 19.5h-4.2l-.3-3.8h-1.3l-.4 3.9h-4.1c1.7-13 2.6-19.6 2.6-19.6 1-.2 1.8-.2 2.5-.2m.1 6.5-.4 6h.9zm5.9-6.5h4v3.3l.2.2v16.2h-1.5c-.2-.1-.3-.1-.3-.1h-2.5v-18c.1-.3.1-.9.1-1.6m5.5 0h3.3l2 9.9v-9.9h3.6v19.7h-3.9q-1.95-9.3-2.1-9.6v9.6h-3.6v-3.5c.2 0 .3 0 .3-.1v-4.8h.2V256c.1-2.6.2-5.4.2-8.4m10.4 0h7.4v3.3c0 .1-.4 1.8-1.3 4.9-1.4 5.2-2.2 8-2.2 8.1h3.5v3c0 .1 0 .1-.1.1h-.1c0 .1 0 .2-.1.2h-7.8v-3.4l3.5-12.9v-.1h-1.3v-.2h-1.5zm8.3 0h4v3.3l.2.2v16.2h-1.5c-.2-.1-.3-.1-.3-.1h-2.5v-18c.1-.3.1-.9.1-1.6m5 0h4.3V264h1.2c.1-.1.1-.1.2-.1h1.2v3.4H343v-19.7zm7.3 0h4.3V264h1.2c.1-.1.1-.1.2-.1h1.2v3.4h-6.8v-19.7zm12.3 0h1.2v.2h1.4l2.6 19.5h-4.2l-.3-3.8H362l-.4 3.9h-4.1c1.7-13 2.6-19.6 2.6-19.6 1-.2 1.8-.2 2.4-.2m.1 6.5-.4 6h.9zm97.5-6.5h.6q3.15 0 3.9.9c.4.7.6 1.6.6 2.8v3h-4.1v-2.8c0-.3-.2-.4-.6-.4s-.6.2-.6.7v7.3l.2.2v4.3q.15.3.3.3.6-.15.6-.3V259h4.2v4.8h.1v.1c0 1.6-.4 2.6-1.1 3.1-.7.3-1.9.5-3.5.5h-.5c-2.1 0-3.4-.3-3.9-.8-.4-.6-.7-1.6-.7-3v-12.1c0-1.9.3-3 1-3.3.8-.5 1.9-.7 3.5-.7m6 0h4s.1 0 .1.1v3.3c.2.1.2.2.2.2v3.7h1v-7.2h4.3v19.6h-4.2v-.1c0-5.6-.1-8.6-.1-9.1h-1v9.2h-1.5s-.1 0-.3-.1h-2.5zm15.6 0h1.2v.2h1.4l2.6 19.5h-4.2l-.3-3.8h-1.3l-.4 3.9h-4.1c1.7-13 2.6-19.6 2.6-19.6 1.1-.2 1.8-.2 2.5-.2m.1 6.5-.4 6h.9zm5.9-6.5h4v3.3l.2.2v16.2h-1.5c-.2-.1-.3-.1-.3-.1h-2.5v-18c.1-.3.1-.9.1-1.6m5.6 0h3.3l2 9.9v-9.9h3.6v19.7h-3.9q-1.95-9.3-2.1-9.6v9.6h-3.6v-3.5c.2 0 .3 0 .3-.1v-4.8h.2V256c0-2.6.1-5.4.2-8.4m10.3 0h7.4v3.3c0 .1-.4 1.8-1.3 4.9-1.4 5.2-2.2 8-2.2 8.1h3.5v3c0 .1 0 .1-.1.1h-.1c0 .1 0 .2-.1.2h-7.8v-3.4l3.5-12.9v-.1h-1.3v-.2h-1.5zm8.3 0h4v3.3l.2.2v16.2h-1.5c-.2-.1-.3-.1-.3-.1h-2.5v-18c.1-.3.1-.9.1-1.6m5 0h4.3V264h1.2c.1-.1.1-.1.2-.1h1.2v3.4H517v-19.7zm7.3 0h4.3V264h1.2c.1-.1.1-.1.2-.1h1.2v3.4h-6.8v-19.7zm12.3 0h1.2v.2h1.4l2.6 19.5h-4.2l-.3-3.8H536l-.4 3.9h-4.1c1.7-13 2.6-19.6 2.6-19.6 1-.2 1.8-.2 2.4-.2m.2 6.5-.4 6h.9z"/></g></g></svg>